<?xml version="1.0" encoding="UTF-8" standalone="no"?>
<!DOCTYPE svg PUBLIC "-//W3C//DTD SVG 1.1//EN"
 "http://www.w3.org/Graphics/SVG/1.1/DTD/svg11.dtd">
<!-- Generated by graphviz version 2.38.0 (20140413.2041)
 -->
<!-- Title: lib/carpi/lib/BamocarD3/src/BamocarD3.h Pages: 1 -->
<svg width="277pt" height="95pt"
 viewBox="0.00 0.00 276.50 95.00" xmlns="http://www.w3.org/2000/svg" xmlns:xlink="http://www.w3.org/1999/xlink">
<g id="graph0" class="graph" transform="scale(1 1) rotate(0) translate(4 91)">
<title>lib/carpi/lib/BamocarD3/src/BamocarD3.h</title>
<polygon fill="white" stroke="none" points="-4,4 -4,-91 272.5,-91 272.5,4 -4,4"/>
<!-- Node1 -->
<g id="node1" class="node"><title>Node1</title>
<polygon fill="#bfbfbf" stroke="black" points="50,-56.5 50,-86.5 177,-86.5 177,-56.5 50,-56.5"/>
<text text-anchor="start" x="58" y="-74.5" font-family="Helvetica,sans-Serif" font-size="10.00">lib/carpi/lib/BamocarD3</text>
<text text-anchor="middle" x="113.5" y="-63.5" font-family="Helvetica,sans-Serif" font-size="10.00">/src/BamocarD3.h</text>
</g>
<!-- Node2 -->
<g id="node2" class="node"><title>Node2</title>
<g id="a_node2"><a xlink:href="_registers_8h.html" target="_top" xlink:title="Registers.h">
<polygon fill="white" stroke="black" points="0,-0.5 0,-19.5 69,-19.5 69,-0.5 0,-0.5"/>
<text text-anchor="middle" x="34.5" y="-7.5" font-family="Helvetica,sans-Serif" font-size="10.00">Registers.h</text>
</a>
</g>
</g>
<!-- Node1&#45;&gt;Node2 -->
<g id="edge1" class="edge"><title>Node1&#45;&gt;Node2</title>
<path fill="none" stroke="midnightblue" d="M94.7781,-56.3993C82.5884,-47.2185 66.708,-35.2579 54.3073,-25.9182"/>
<polygon fill="midnightblue" stroke="midnightblue" points="56.0887,-22.8782 45.9952,-19.6578 51.8774,-28.4697 56.0887,-22.8782"/>
</g>
<!-- Node3 -->
<g id="node3" class="node"><title>Node3</title>
<polygon fill="white" stroke="#bfbfbf" points="87,-0.5 87,-19.5 140,-19.5 140,-0.5 87,-0.5"/>
<text text-anchor="middle" x="113.5" y="-7.5" font-family="Helvetica,sans-Serif" font-size="10.00">mbed.h</text>
</g>
<!-- Node1&#45;&gt;Node3 -->
<g id="edge2" class="edge"><title>Node1&#45;&gt;Node3</title>
<path fill="none" stroke="midnightblue" d="M113.5,-56.3993C113.5,-48.4664 113.5,-38.458 113.5,-29.8583"/>
<polygon fill="midnightblue" stroke="midnightblue" points="117,-29.6577 113.5,-19.6578 110,-29.6578 117,-29.6577"/>
</g>
<!-- Node4 -->
<g id="node4" class="node"><title>Node4</title>
<g id="a_node4"><a xlink:href="_temperatur_graph_8h.html" target="_top" xlink:title="TemperaturGraph.h">
<polygon fill="white" stroke="black" points="158.5,-0.5 158.5,-19.5 268.5,-19.5 268.5,-0.5 158.5,-0.5"/>
<text text-anchor="middle" x="213.5" y="-7.5" font-family="Helvetica,sans-Serif" font-size="10.00">TemperaturGraph.h</text>
</a>
</g>
</g>
<!-- Node1&#45;&gt;Node4 -->
<g id="edge3" class="edge"><title>Node1&#45;&gt;Node4</title>
<path fill="none" stroke="midnightblue" d="M137.199,-56.3993C153.228,-46.8619 174.299,-34.3248 190.236,-24.8422"/>
<polygon fill="midnightblue" stroke="midnightblue" points="192.145,-27.779 198.949,-19.6578 188.566,-21.7633 192.145,-27.779"/>
</g>
</g>
</svg>
