<?xml version="1.0" encoding="UTF-8" standalone="no"?>
<!DOCTYPE svg PUBLIC "-//W3C//DTD SVG 1.1//EN"
 "http://www.w3.org/Graphics/SVG/1.1/DTD/svg11.dtd">
<!-- Generated by graphviz version 2.38.0 (20140413.2041)
 -->
<!-- Title: lib/carpi/lib/LoRa/BufferedSerial/BufferedSerial.h Pages: 1 -->
<svg width="221pt" height="151pt"
 viewBox="0.00 0.00 220.50 151.00" xmlns="http://www.w3.org/2000/svg" xmlns:xlink="http://www.w3.org/1999/xlink">
<g id="graph0" class="graph" transform="scale(1 1) rotate(0) translate(4 147)">
<title>lib/carpi/lib/LoRa/BufferedSerial/BufferedSerial.h</title>
<polygon fill="white" stroke="none" points="-4,4 -4,-147 216.5,-147 216.5,4 -4,4"/>
<!-- Node1 -->
<g id="node1" class="node"><title>Node1</title>
<polygon fill="#bfbfbf" stroke="black" points="21,-112.5 21,-142.5 188,-142.5 188,-112.5 21,-112.5"/>
<text text-anchor="start" x="29" y="-130.5" font-family="Helvetica,sans-Serif" font-size="10.00">lib/carpi/lib/LoRa</text>
<text text-anchor="middle" x="104.5" y="-119.5" font-family="Helvetica,sans-Serif" font-size="10.00">/BufferedSerial/BufferedSerial.h</text>
</g>
<!-- Node2 -->
<g id="node2" class="node"><title>Node2</title>
<polygon fill="white" stroke="#bfbfbf" points="-3.55271e-15,-56.5 -3.55271e-15,-75.5 53,-75.5 53,-56.5 -3.55271e-15,-56.5"/>
<text text-anchor="middle" x="26.5" y="-63.5" font-family="Helvetica,sans-Serif" font-size="10.00">mbed.h</text>
</g>
<!-- Node1&#45;&gt;Node2 -->
<g id="edge1" class="edge"><title>Node1&#45;&gt;Node2</title>
<path fill="none" stroke="midnightblue" d="M86.0151,-112.399C73.9797,-103.218 58.3003,-91.2579 46.0566,-81.9182"/>
<polygon fill="midnightblue" stroke="midnightblue" points="47.9233,-78.9401 37.8497,-75.6578 43.6777,-84.5056 47.9233,-78.9401"/>
</g>
<!-- Node3 -->
<g id="node3" class="node"><title>Node3</title>
<g id="a_node3"><a xlink:href="_my_buffer_8h.html" target="_top" xlink:title="MyBuffer.h">
<polygon fill="white" stroke="black" points="71,-56.5 71,-75.5 138,-75.5 138,-56.5 71,-56.5"/>
<text text-anchor="middle" x="104.5" y="-63.5" font-family="Helvetica,sans-Serif" font-size="10.00">MyBuffer.h</text>
</a>
</g>
</g>
<!-- Node1&#45;&gt;Node3 -->
<g id="edge2" class="edge"><title>Node1&#45;&gt;Node3</title>
<path fill="none" stroke="midnightblue" d="M104.5,-112.399C104.5,-104.466 104.5,-94.458 104.5,-85.8583"/>
<polygon fill="midnightblue" stroke="midnightblue" points="108,-85.6577 104.5,-75.6578 101,-85.6578 108,-85.6577"/>
</g>
<!-- Node6 -->
<g id="node6" class="node"><title>Node6</title>
<polygon fill="white" stroke="#bfbfbf" points="156.5,-56.5 156.5,-75.5 212.5,-75.5 212.5,-56.5 156.5,-56.5"/>
<text text-anchor="middle" x="184.5" y="-63.5" font-family="Helvetica,sans-Serif" font-size="10.00">stdarg.h</text>
</g>
<!-- Node1&#45;&gt;Node6 -->
<g id="edge5" class="edge"><title>Node1&#45;&gt;Node6</title>
<path fill="none" stroke="midnightblue" d="M123.459,-112.399C135.923,-103.129 152.197,-91.0254 164.807,-81.6469"/>
<polygon fill="midnightblue" stroke="midnightblue" points="166.924,-84.4341 172.859,-75.6578 162.747,-78.8173 166.924,-84.4341"/>
</g>
<!-- Node4 -->
<g id="node4" class="node"><title>Node4</title>
<polygon fill="white" stroke="#bfbfbf" points="42,-0.5 42,-19.5 95,-19.5 95,-0.5 42,-0.5"/>
<text text-anchor="middle" x="68.5" y="-7.5" font-family="Helvetica,sans-Serif" font-size="10.00">stdint.h</text>
</g>
<!-- Node3&#45;&gt;Node4 -->
<g id="edge3" class="edge"><title>Node3&#45;&gt;Node4</title>
<path fill="none" stroke="midnightblue" d="M98.5553,-56.083C93.5227,-48.5341 86.1632,-37.4948 79.9865,-28.2298"/>
<polygon fill="midnightblue" stroke="midnightblue" points="82.7933,-26.1301 74.3341,-19.7511 76.9689,-30.0131 82.7933,-26.1301"/>
</g>
<!-- Node5 -->
<g id="node5" class="node"><title>Node5</title>
<polygon fill="white" stroke="#bfbfbf" points="113,-0.5 113,-19.5 166,-19.5 166,-0.5 113,-0.5"/>
<text text-anchor="middle" x="139.5" y="-7.5" font-family="Helvetica,sans-Serif" font-size="10.00">string.h</text>
</g>
<!-- Node3&#45;&gt;Node5 -->
<g id="edge4" class="edge"><title>Node3&#45;&gt;Node5</title>
<path fill="none" stroke="midnightblue" d="M110.28,-56.083C115.172,-48.5341 122.327,-37.4948 128.333,-28.2298"/>
<polygon fill="midnightblue" stroke="midnightblue" points="131.326,-30.0463 133.828,-19.7511 125.452,-26.239 131.326,-30.0463"/>
</g>
</g>
</svg>
