<?xml version="1.0" encoding="UTF-8" standalone="no"?>
<!DOCTYPE svg PUBLIC "-//W3C//DTD SVG 1.1//EN"
 "http://www.w3.org/Graphics/SVG/1.1/DTD/svg11.dtd">
<!-- Generated by graphviz version 2.38.0 (20140413.2041)
 -->
<!-- Title: lib/carpi/src/steroido/src/AbstractionLayer/Teensyduino/CAN.h Pages: 1 -->
<svg width="366pt" height="218pt"
 viewBox="0.00 0.00 365.50 218.00" xmlns="http://www.w3.org/2000/svg" xmlns:xlink="http://www.w3.org/1999/xlink">
<g id="graph0" class="graph" transform="scale(1 1) rotate(0) translate(4 214)">
<title>lib/carpi/src/steroido/src/AbstractionLayer/Teensyduino/CAN.h</title>
<polygon fill="white" stroke="none" points="-4,4 -4,-214 361.5,-214 361.5,4 -4,4"/>
<!-- Node1 -->
<g id="node1" class="node"><title>Node1</title>
<polygon fill="#bfbfbf" stroke="black" points="114,-168.5 114,-209.5 232,-209.5 232,-168.5 114,-168.5"/>
<text text-anchor="start" x="122" y="-197.5" font-family="Helvetica,sans-Serif" font-size="10.00">lib/carpi/src/steroido</text>
<text text-anchor="start" x="122" y="-186.5" font-family="Helvetica,sans-Serif" font-size="10.00">/src/AbstractionLayer</text>
<text text-anchor="middle" x="173" y="-175.5" font-family="Helvetica,sans-Serif" font-size="10.00">/Teensyduino/CAN.h</text>
</g>
<!-- Node2 -->
<g id="node2" class="node"><title>Node2</title>
<g id="a_node2"><a xlink:href="_c_a_n_message_8h.html" target="_top" xlink:title="Communication/CANMessage.h">
<polygon fill="white" stroke="black" points="0,-112.5 0,-131.5 168,-131.5 168,-112.5 0,-112.5"/>
<text text-anchor="middle" x="84" y="-119.5" font-family="Helvetica,sans-Serif" font-size="10.00">Communication/CANMessage.h</text>
</a>
</g>
</g>
<!-- Node1&#45;&gt;Node2 -->
<g id="edge1" class="edge"><title>Node1&#45;&gt;Node2</title>
<path fill="none" stroke="midnightblue" d="M146.297,-168.498C132.783,-158.628 116.647,-146.843 104.183,-137.741"/>
<polygon fill="midnightblue" stroke="midnightblue" points="105.987,-134.724 95.8473,-131.652 101.859,-140.377 105.987,-134.724"/>
</g>
<!-- Node3 -->
<g id="node3" class="node"><title>Node3</title>
<g id="a_node3"><a xlink:href="_flex_c_a_n_8h.html" target="_top" xlink:title="Libraries/FlexCAN/FlexCAN.h">
<polygon fill="white" stroke="black" points="186,-112.5 186,-131.5 338,-131.5 338,-112.5 186,-112.5"/>
<text text-anchor="middle" x="262" y="-119.5" font-family="Helvetica,sans-Serif" font-size="10.00">Libraries/FlexCAN/FlexCAN.h</text>
</a>
</g>
</g>
<!-- Node1&#45;&gt;Node3 -->
<g id="edge2" class="edge"><title>Node1&#45;&gt;Node3</title>
<path fill="none" stroke="midnightblue" d="M199.703,-168.498C213.217,-158.628 229.353,-146.843 241.817,-137.741"/>
<polygon fill="midnightblue" stroke="midnightblue" points="244.141,-140.377 250.153,-131.652 240.013,-134.724 244.141,-140.377"/>
</g>
<!-- Node4 -->
<g id="node4" class="node"><title>Node4</title>
<polygon fill="white" stroke="#bfbfbf" points="182,-56.5 182,-75.5 244,-75.5 244,-56.5 182,-56.5"/>
<text text-anchor="middle" x="213" y="-63.5" font-family="Helvetica,sans-Serif" font-size="10.00">Arduino.h</text>
</g>
<!-- Node3&#45;&gt;Node4 -->
<g id="edge3" class="edge"><title>Node3&#45;&gt;Node4</title>
<path fill="none" stroke="midnightblue" d="M253.909,-112.083C246.845,-104.298 236.412,-92.8015 227.851,-83.3665"/>
<polygon fill="midnightblue" stroke="midnightblue" points="230.253,-80.8047 220.941,-75.7511 225.069,-85.5087 230.253,-80.8047"/>
</g>
<!-- Node5 -->
<g id="node5" class="node"><title>Node5</title>
<g id="a_node5"><a xlink:href="kinetis__flexcan_8h.html" target="_top" xlink:title="kinetis_flexcan.h">
<polygon fill="white" stroke="black" points="262.5,-56.5 262.5,-75.5 357.5,-75.5 357.5,-56.5 262.5,-56.5"/>
<text text-anchor="middle" x="310" y="-63.5" font-family="Helvetica,sans-Serif" font-size="10.00">kinetis_flexcan.h</text>
</a>
</g>
</g>
<!-- Node3&#45;&gt;Node5 -->
<g id="edge4" class="edge"><title>Node3&#45;&gt;Node5</title>
<path fill="none" stroke="midnightblue" d="M269.926,-112.083C276.846,-104.298 287.065,-92.8015 295.452,-83.3665"/>
<polygon fill="midnightblue" stroke="midnightblue" points="298.194,-85.5505 302.221,-75.7511 292.962,-80.8999 298.194,-85.5505"/>
</g>
<!-- Node6 -->
<g id="node6" class="node"><title>Node6</title>
<polygon fill="white" stroke="#bfbfbf" points="283.5,-0.5 283.5,-19.5 336.5,-19.5 336.5,-0.5 283.5,-0.5"/>
<text text-anchor="middle" x="310" y="-7.5" font-family="Helvetica,sans-Serif" font-size="10.00">stdint.h</text>
</g>
<!-- Node5&#45;&gt;Node6 -->
<g id="edge5" class="edge"><title>Node5&#45;&gt;Node6</title>
<path fill="none" stroke="midnightblue" d="M310,-56.083C310,-49.0059 310,-38.8611 310,-29.9865"/>
<polygon fill="midnightblue" stroke="midnightblue" points="313.5,-29.751 310,-19.7511 306.5,-29.7511 313.5,-29.751"/>
</g>
</g>
</svg>
