<?xml version="1.0" encoding="UTF-8" standalone="no"?>
<!DOCTYPE svg PUBLIC "-//W3C//DTD SVG 1.1//EN"
 "http://www.w3.org/Graphics/SVG/1.1/DTD/svg11.dtd">
<!-- Generated by graphviz version 2.38.0 (20140413.2041)
 -->
<!-- Title: lib/carpi/src/steroido/src/Communication/CANMessage.h Pages: 1 -->
<svg width="266pt" height="117pt"
 viewBox="0.00 0.00 266.00 117.00" xmlns="http://www.w3.org/2000/svg" xmlns:xlink="http://www.w3.org/1999/xlink">
<g id="graph0" class="graph" transform="scale(1 1) rotate(0) translate(4 113)">
<title>lib/carpi/src/steroido/src/Communication/CANMessage.h</title>
<polygon fill="white" stroke="none" points="-4,4 -4,-113 262,-113 262,4 -4,4"/>
<!-- Node1 -->
<g id="node1" class="node"><title>Node1</title>
<polygon fill="#bfbfbf" stroke="black" points="34,-78.5 34,-108.5 222,-108.5 222,-78.5 34,-78.5"/>
<text text-anchor="start" x="42" y="-96.5" font-family="Helvetica,sans-Serif" font-size="10.00">lib/carpi/src/steroido</text>
<text text-anchor="middle" x="128" y="-85.5" font-family="Helvetica,sans-Serif" font-size="10.00">/src/Communication/CANMessage.h</text>
</g>
<!-- Node2 -->
<g id="node2" class="node"><title>Node2</title>
<g id="a_node2"><a xlink:href="_c_a_n_8h.html" target="_top" xlink:title="lib/carpi/src/steroido\l/src/AbstractionLayer\l/Teensyduino/CAN.h">
<polygon fill="white" stroke="black" points="0,-0.5 0,-41.5 118,-41.5 118,-0.5 0,-0.5"/>
<text text-anchor="start" x="8" y="-29.5" font-family="Helvetica,sans-Serif" font-size="10.00">lib/carpi/src/steroido</text>
<text text-anchor="start" x="8" y="-18.5" font-family="Helvetica,sans-Serif" font-size="10.00">/src/AbstractionLayer</text>
<text text-anchor="middle" x="59" y="-7.5" font-family="Helvetica,sans-Serif" font-size="10.00">/Teensyduino/CAN.h</text>
</a>
</g>
</g>
<!-- Node1&#45;&gt;Node2 -->
<g id="edge1" class="edge"><title>Node1&#45;&gt;Node2</title>
<path fill="none" stroke="midnightblue" d="M106.783,-70.8213C97.6538,-61.4941 87.0607,-50.6707 78.1717,-41.5884"/>
<polygon fill="midnightblue" stroke="midnightblue" points="104.541,-73.5347 114.037,-78.2333 109.544,-68.6384 104.541,-73.5347"/>
</g>
<!-- Node3 -->
<g id="node3" class="node"><title>Node3</title>
<g id="a_node3"><a xlink:href="test___c_can_8cpp.html" target="_top" xlink:title="test/native_test_CCan\l/test_CCan.cpp">
<polygon fill="white" stroke="black" points="136,-6 136,-36 258,-36 258,-6 136,-6"/>
<text text-anchor="start" x="144" y="-24" font-family="Helvetica,sans-Serif" font-size="10.00">test/native_test_CCan</text>
<text text-anchor="middle" x="197" y="-13" font-family="Helvetica,sans-Serif" font-size="10.00">/test_CCan.cpp</text>
</a>
</g>
</g>
<!-- Node1&#45;&gt;Node3 -->
<g id="edge2" class="edge"><title>Node1&#45;&gt;Node3</title>
<path fill="none" stroke="midnightblue" d="M149.176,-70.8641C160.186,-59.6142 173.336,-46.1786 183.058,-36.2455"/>
<polygon fill="midnightblue" stroke="midnightblue" points="146.456,-68.6384 141.963,-78.2333 151.459,-73.5347 146.456,-68.6384"/>
</g>
</g>
</svg>
