<?xml version="1.0" encoding="UTF-8" standalone="no"?>
<!DOCTYPE svg PUBLIC "-//W3C//DTD SVG 1.1//EN"
 "http://www.w3.org/Graphics/SVG/1.1/DTD/svg11.dtd">
<!-- Generated by graphviz version 2.38.0 (20140413.2041)
 -->
<!-- Title: lib/carpi/src/communication/CCan.h Pages: 1 -->
<svg width="597pt" height="386pt"
 viewBox="0.00 0.00 597.00 386.00" xmlns="http://www.w3.org/2000/svg" xmlns:xlink="http://www.w3.org/1999/xlink">
<g id="graph0" class="graph" transform="scale(1 1) rotate(0) translate(4 382)">
<title>lib/carpi/src/communication/CCan.h</title>
<polygon fill="white" stroke="none" points="-4,4 -4,-382 593,-382 593,4 -4,4"/>
<!-- Node1 -->
<g id="node1" class="node"><title>Node1</title>
<polygon fill="#bfbfbf" stroke="black" points="319.5,-347.5 319.5,-377.5 467.5,-377.5 467.5,-347.5 319.5,-347.5"/>
<text text-anchor="start" x="327.5" y="-365.5" font-family="Helvetica,sans-Serif" font-size="10.00">lib/carpi/src/communication</text>
<text text-anchor="middle" x="393.5" y="-354.5" font-family="Helvetica,sans-Serif" font-size="10.00">/CCan.h</text>
</g>
<!-- Node2 -->
<g id="node2" class="node"><title>Node2</title>
<g id="a_node2"><a xlink:href="_hard_config_8h.html" target="_top" xlink:title="HardConfig.h">
<polygon fill="white" stroke="black" points="0,-230 0,-249 79,-249 79,-230 0,-230"/>
<text text-anchor="middle" x="39.5" y="-237" font-family="Helvetica,sans-Serif" font-size="10.00">HardConfig.h</text>
</a>
</g>
</g>
<!-- Node1&#45;&gt;Node2 -->
<g id="edge1" class="edge"><title>Node1&#45;&gt;Node2</title>
<path fill="none" stroke="midnightblue" d="M352.199,-347.383C281.766,-323.308 139.689,-274.745 74.1118,-252.331"/>
<polygon fill="midnightblue" stroke="midnightblue" points="75.232,-249.015 64.6374,-249.092 72.9679,-255.638 75.232,-249.015"/>
</g>
<!-- Node3 -->
<g id="node3" class="node"><title>Node3</title>
<polygon fill="white" stroke="#bfbfbf" points="542,-112.5 542,-131.5 589,-131.5 589,-112.5 542,-112.5"/>
<text text-anchor="middle" x="565.5" y="-119.5" font-family="Helvetica,sans-Serif" font-size="10.00">vector</text>
</g>
<!-- Node1&#45;&gt;Node3 -->
<g id="edge2" class="edge"><title>Node1&#45;&gt;Node3</title>
<path fill="none" stroke="midnightblue" d="M412.593,-347.295C447.026,-320.474 518.964,-258.685 551.5,-188 558.22,-173.402 561.771,-155.458 563.613,-142.124"/>
<polygon fill="midnightblue" stroke="midnightblue" points="567.136,-142.135 564.828,-131.794 560.184,-141.317 567.136,-142.135"/>
</g>
<!-- Node4 -->
<g id="node4" class="node"><title>Node4</title>
<g id="a_node4"><a xlink:href="_sync_8h.html" target="_top" xlink:title="Sync.h">
<polygon fill="white" stroke="black" points="277,-291.5 277,-310.5 326,-310.5 326,-291.5 277,-291.5"/>
<text text-anchor="middle" x="301.5" y="-298.5" font-family="Helvetica,sans-Serif" font-size="10.00">Sync.h</text>
</a>
</g>
</g>
<!-- Node1&#45;&gt;Node4 -->
<g id="edge3" class="edge"><title>Node1&#45;&gt;Node4</title>
<path fill="none" stroke="midnightblue" d="M371.697,-347.399C357.088,-337.951 337.927,-325.559 323.315,-316.109"/>
<polygon fill="midnightblue" stroke="midnightblue" points="325.184,-313.15 314.887,-310.658 321.383,-319.027 325.184,-313.15"/>
</g>
<!-- Node8 -->
<g id="node8" class="node"><title>Node8</title>
<g id="a_node8"><a xlink:href="_car_message_8h.html" target="_top" xlink:title="CarMessage.h">
<polygon fill="white" stroke="black" points="383,-168.5 383,-187.5 468,-187.5 468,-168.5 383,-168.5"/>
<text text-anchor="middle" x="425.5" y="-175.5" font-family="Helvetica,sans-Serif" font-size="10.00">CarMessage.h</text>
</a>
</g>
</g>
<!-- Node1&#45;&gt;Node8 -->
<g id="edge27" class="edge"><title>Node1&#45;&gt;Node8</title>
<path fill="none" stroke="midnightblue" d="M402.957,-347.471C415.581,-327.812 437.3,-290.484 445.5,-255 448.602,-241.576 448.36,-237.478 445.5,-224 443.503,-214.591 439.399,-204.762 435.425,-196.698"/>
<polygon fill="midnightblue" stroke="midnightblue" points="438.387,-194.81 430.63,-187.593 432.193,-198.072 438.387,-194.81"/>
</g>
<!-- Node4&#45;&gt;Node2 -->
<g id="edge26" class="edge"><title>Node4&#45;&gt;Node2</title>
<path fill="none" stroke="midnightblue" d="M276.756,-295.058C237.691,-287.163 159.391,-270.964 93.5,-255 89.1367,-253.943 84.5874,-252.794 80.0619,-251.622"/>
<polygon fill="midnightblue" stroke="midnightblue" points="80.8354,-248.207 70.2737,-249.044 79.0524,-254.976 80.8354,-248.207"/>
</g>
<!-- Node4&#45;&gt;Node3 -->
<g id="edge4" class="edge"><title>Node4&#45;&gt;Node3</title>
<path fill="none" stroke="midnightblue" d="M326.026,-298.608C360.958,-295.559 425.755,-285.849 470.5,-255 513.562,-225.311 544.048,-169.469 557.61,-140.871"/>
<polygon fill="midnightblue" stroke="midnightblue" points="560.844,-142.214 561.832,-131.666 554.481,-139.296 560.844,-142.214"/>
</g>
<!-- Node5 -->
<g id="node5" class="node"><title>Node5</title>
<g id="a_node5"><a xlink:href="component_ids_8h.html" target="_top" xlink:title="componentIds.h">
<polygon fill="white" stroke="black" points="264.5,-56.5 264.5,-75.5 358.5,-75.5 358.5,-56.5 264.5,-56.5"/>
<text text-anchor="middle" x="311.5" y="-63.5" font-family="Helvetica,sans-Serif" font-size="10.00">componentIds.h</text>
</a>
</g>
</g>
<!-- Node4&#45;&gt;Node5 -->
<g id="edge5" class="edge"><title>Node4&#45;&gt;Node5</title>
<path fill="none" stroke="midnightblue" d="M276.989,-295.103C242.209,-287.626 181.22,-272.387 167.5,-255 143.49,-224.574 154.585,-206.137 161.5,-168 166.243,-141.845 163.488,-130.577 182.5,-112 194.838,-99.9441 234.8,-87.0609 267.012,-78.1824"/>
<polygon fill="midnightblue" stroke="midnightblue" points="267.98,-81.5467 276.721,-75.5609 266.155,-74.7887 267.98,-81.5467"/>
</g>
<!-- Node7 -->
<g id="node7" class="node"><title>Node7</title>
<g id="a_node7"><a xlink:href="device_ids_8h.html" target="_top" xlink:title="deviceIds.h">
<polygon fill="white" stroke="black" points="453.5,-112.5 453.5,-131.5 523.5,-131.5 523.5,-112.5 453.5,-112.5"/>
<text text-anchor="middle" x="488.5" y="-119.5" font-family="Helvetica,sans-Serif" font-size="10.00">deviceIds.h</text>
</a>
</g>
</g>
<!-- Node4&#45;&gt;Node7 -->
<g id="edge7" class="edge"><title>Node4&#45;&gt;Node7</title>
<path fill="none" stroke="midnightblue" d="M326.026,-298.264C357.223,-294.852 411.158,-284.761 445.5,-255 478.946,-226.016 486.535,-170.698 488.152,-141.736"/>
<polygon fill="midnightblue" stroke="midnightblue" points="491.651,-141.843 488.527,-131.719 484.656,-141.581 491.651,-141.843"/>
</g>
<!-- Node4&#45;&gt;Node8 -->
<g id="edge8" class="edge"><title>Node4&#45;&gt;Node8</title>
<path fill="none" stroke="midnightblue" d="M326.048,-299.258C355.934,-296.877 405.282,-287.859 428.5,-255 440.252,-238.369 436.756,-214.194 432.118,-197.601"/>
<polygon fill="midnightblue" stroke="midnightblue" points="435.416,-196.42 429.055,-187.947 428.743,-198.537 435.416,-196.42"/>
</g>
<!-- Node10 -->
<g id="node10" class="node"><title>Node10</title>
<g id="a_node10"><a xlink:href="_i_component_8h.html" target="_top" xlink:title="IComponent.h">
<polygon fill="white" stroke="black" points="191.5,-112.5 191.5,-131.5 275.5,-131.5 275.5,-112.5 191.5,-112.5"/>
<text text-anchor="middle" x="233.5" y="-119.5" font-family="Helvetica,sans-Serif" font-size="10.00">IComponent.h</text>
</a>
</g>
</g>
<!-- Node4&#45;&gt;Node10 -->
<g id="edge14" class="edge"><title>Node4&#45;&gt;Node10</title>
<path fill="none" stroke="midnightblue" d="M276.867,-295.761C252.692,-290.355 216.36,-278.702 194.5,-255 167.461,-225.681 154.522,-203.602 172.5,-168 179.307,-154.52 192.268,-144.083 204.498,-136.67"/>
<polygon fill="midnightblue" stroke="midnightblue" points="206.57,-139.521 213.594,-131.59 203.157,-133.41 206.57,-139.521"/>
</g>
<!-- Node13 -->
<g id="node13" class="node"><title>Node13</title>
<g id="a_node13"><a xlink:href="_i_channel_8h.html" target="_top" xlink:title="IChannel.h">
<polygon fill="white" stroke="black" points="212,-230 212,-249 279,-249 279,-230 212,-230"/>
<text text-anchor="middle" x="245.5" y="-237" font-family="Helvetica,sans-Serif" font-size="10.00">IChannel.h</text>
</a>
</g>
</g>
<!-- Node4&#45;&gt;Node13 -->
<g id="edge18" class="edge"><title>Node4&#45;&gt;Node13</title>
<path fill="none" stroke="midnightblue" d="M293.477,-291.475C284.91,-282.373 271.139,-267.741 260.543,-256.483"/>
<polygon fill="midnightblue" stroke="midnightblue" points="262.911,-253.892 253.509,-249.009 257.814,-258.69 262.911,-253.892"/>
</g>
<!-- Node14 -->
<g id="node14" class="node"><title>Node14</title>
<g id="a_node14"><a xlink:href="_i_runable_8h.html" target="_top" xlink:title="runable/IRunable.h">
<polygon fill="white" stroke="black" points="181.5,-168.5 181.5,-187.5 285.5,-187.5 285.5,-168.5 181.5,-168.5"/>
<text text-anchor="middle" x="233.5" y="-175.5" font-family="Helvetica,sans-Serif" font-size="10.00">runable/IRunable.h</text>
</a>
</g>
</g>
<!-- Node4&#45;&gt;Node14 -->
<g id="edge25" class="edge"><title>Node4&#45;&gt;Node14</title>
<path fill="none" stroke="midnightblue" d="M276.631,-296.385C253.006,-291.486 218.752,-280.239 202.5,-255 190.393,-236.197 204.78,-211.886 217.728,-195.887"/>
<polygon fill="midnightblue" stroke="midnightblue" points="220.704,-197.795 224.596,-187.941 215.408,-193.218 220.704,-197.795"/>
</g>
<!-- Node15 -->
<g id="node15" class="node"><title>Node15</title>
<g id="a_node15"><a xlink:href="_i_communication_8h.html" target="_top" xlink:title="components/interface\l/ICommunication.h">
<polygon fill="white" stroke="black" points="297.5,-224.5 297.5,-254.5 419.5,-254.5 419.5,-224.5 297.5,-224.5"/>
<text text-anchor="start" x="305.5" y="-242.5" font-family="Helvetica,sans-Serif" font-size="10.00">components/interface</text>
<text text-anchor="middle" x="358.5" y="-231.5" font-family="Helvetica,sans-Serif" font-size="10.00">/ICommunication.h</text>
</a>
</g>
</g>
<!-- Node4&#45;&gt;Node15 -->
<g id="edge22" class="edge"><title>Node4&#45;&gt;Node15</title>
<path fill="none" stroke="midnightblue" d="M309.667,-291.475C317.026,-283.793 328.159,-272.172 337.938,-261.964"/>
<polygon fill="midnightblue" stroke="midnightblue" points="340.676,-264.165 345.066,-254.523 335.621,-259.323 340.676,-264.165"/>
</g>
<!-- Node6 -->
<g id="node6" class="node"><title>Node6</title>
<polygon fill="white" stroke="#bfbfbf" points="342,-0.5 342,-19.5 395,-19.5 395,-0.5 342,-0.5"/>
<text text-anchor="middle" x="368.5" y="-7.5" font-family="Helvetica,sans-Serif" font-size="10.00">stdint.h</text>
</g>
<!-- Node5&#45;&gt;Node6 -->
<g id="edge6" class="edge"><title>Node5&#45;&gt;Node6</title>
<path fill="none" stroke="midnightblue" d="M320.658,-56.324C329.001,-48.4196 341.532,-36.5482 351.677,-26.9377"/>
<polygon fill="midnightblue" stroke="midnightblue" points="354.323,-29.2522 359.175,-19.8339 349.509,-24.1705 354.323,-29.2522"/>
</g>
<!-- Node8&#45;&gt;Node3 -->
<g id="edge10" class="edge"><title>Node8&#45;&gt;Node3</title>
<path fill="none" stroke="midnightblue" d="M447.683,-168.444C470.928,-159.478 507.649,-145.314 533.915,-135.183"/>
<polygon fill="midnightblue" stroke="midnightblue" points="535.35,-138.381 543.42,-131.516 532.831,-131.85 535.35,-138.381"/>
</g>
<!-- Node8&#45;&gt;Node5 -->
<g id="edge13" class="edge"><title>Node8&#45;&gt;Node5</title>
<path fill="none" stroke="midnightblue" d="M391.232,-168.453C370.906,-161.717 346.137,-150.325 330.5,-132 319.42,-119.015 314.797,-99.8517 312.87,-85.6944"/>
<polygon fill="midnightblue" stroke="midnightblue" points="316.339,-85.2155 311.831,-75.6275 309.376,-85.934 316.339,-85.2155"/>
</g>
<!-- Node8&#45;&gt;Node6 -->
<g id="edge11" class="edge"><title>Node8&#45;&gt;Node6</title>
<path fill="none" stroke="midnightblue" d="M423.128,-168.103C419.723,-155.522 413.125,-131.851 406.5,-112 396.696,-82.6256 383.711,-49.0772 375.739,-28.9911"/>
<polygon fill="midnightblue" stroke="midnightblue" points="378.935,-27.556 371.974,-19.5681 372.434,-30.153 378.935,-27.556"/>
</g>
<!-- Node8&#45;&gt;Node7 -->
<g id="edge12" class="edge"><title>Node8&#45;&gt;Node7</title>
<path fill="none" stroke="midnightblue" d="M435.622,-168.324C445.026,-160.263 459.244,-148.077 470.569,-138.369"/>
<polygon fill="midnightblue" stroke="midnightblue" points="472.879,-140.999 478.194,-131.834 468.323,-135.684 472.879,-140.999"/>
</g>
<!-- Node9 -->
<g id="node9" class="node"><title>Node9</title>
<polygon fill="white" stroke="#bfbfbf" points="340,-112.5 340,-131.5 397,-131.5 397,-112.5 340,-112.5"/>
<text text-anchor="middle" x="368.5" y="-119.5" font-family="Helvetica,sans-Serif" font-size="10.00">memory</text>
</g>
<!-- Node8&#45;&gt;Node9 -->
<g id="edge9" class="edge"><title>Node8&#45;&gt;Node9</title>
<path fill="none" stroke="midnightblue" d="M416.342,-168.324C407.999,-160.42 395.468,-148.548 385.323,-138.938"/>
<polygon fill="midnightblue" stroke="midnightblue" points="387.491,-136.171 377.825,-131.834 382.677,-141.252 387.491,-136.171"/>
</g>
<!-- Node10&#45;&gt;Node5 -->
<g id="edge15" class="edge"><title>Node10&#45;&gt;Node5</title>
<path fill="none" stroke="midnightblue" d="M246.032,-112.324C258.086,-103.979 276.527,-91.2122 290.769,-81.3524"/>
<polygon fill="midnightblue" stroke="midnightblue" points="292.769,-84.2243 298.999,-75.6545 288.785,-78.469 292.769,-84.2243"/>
</g>
<!-- Node11 -->
<g id="node11" class="node"><title>Node11</title>
<g id="a_node11"><a xlink:href="_i_logable_8h.html" target="_top" xlink:title="ILogable.h">
<polygon fill="white" stroke="black" points="181,-56.5 181,-75.5 246,-75.5 246,-56.5 181,-56.5"/>
<text text-anchor="middle" x="213.5" y="-63.5" font-family="Helvetica,sans-Serif" font-size="10.00">ILogable.h</text>
</a>
</g>
</g>
<!-- Node10&#45;&gt;Node11 -->
<g id="edge16" class="edge"><title>Node10&#45;&gt;Node11</title>
<path fill="none" stroke="midnightblue" d="M230.197,-112.083C227.518,-104.849 223.651,-94.4087 220.314,-85.3968"/>
<polygon fill="midnightblue" stroke="midnightblue" points="223.496,-83.9129 216.741,-75.7511 216.932,-86.3442 223.496,-83.9129"/>
</g>
<!-- Node12 -->
<g id="node12" class="node"><title>Node12</title>
<polygon fill="white" stroke="#bfbfbf" points="191.5,-0.5 191.5,-19.5 235.5,-19.5 235.5,-0.5 191.5,-0.5"/>
<text text-anchor="middle" x="213.5" y="-7.5" font-family="Helvetica,sans-Serif" font-size="10.00">string</text>
</g>
<!-- Node11&#45;&gt;Node12 -->
<g id="edge17" class="edge"><title>Node11&#45;&gt;Node12</title>
<path fill="none" stroke="midnightblue" d="M213.5,-56.083C213.5,-49.0059 213.5,-38.8611 213.5,-29.9865"/>
<polygon fill="midnightblue" stroke="midnightblue" points="217,-29.751 213.5,-19.7511 210,-29.7511 217,-29.751"/>
</g>
<!-- Node13&#45;&gt;Node8 -->
<g id="edge19" class="edge"><title>Node13&#45;&gt;Node8</title>
<path fill="none" stroke="midnightblue" d="M270.955,-229.88C276.721,-227.937 282.819,-225.891 288.5,-224 322.772,-212.593 361.93,-199.75 389.58,-190.713"/>
<polygon fill="midnightblue" stroke="midnightblue" points="390.797,-193.998 399.216,-187.566 388.623,-187.344 390.797,-193.998"/>
</g>
<!-- Node13&#45;&gt;Node14 -->
<g id="edge20" class="edge"><title>Node13&#45;&gt;Node14</title>
<path fill="none" stroke="midnightblue" d="M243.781,-229.975C242.07,-221.492 239.39,-208.204 237.195,-197.322"/>
<polygon fill="midnightblue" stroke="midnightblue" points="240.624,-196.62 235.216,-187.509 233.762,-198.004 240.624,-196.62"/>
</g>
<!-- Node14&#45;&gt;Node10 -->
<g id="edge21" class="edge"><title>Node14&#45;&gt;Node10</title>
<path fill="none" stroke="midnightblue" d="M233.5,-168.083C233.5,-161.006 233.5,-150.861 233.5,-141.986"/>
<polygon fill="midnightblue" stroke="midnightblue" points="237,-141.751 233.5,-131.751 230,-141.751 237,-141.751"/>
</g>
<!-- Node15&#45;&gt;Node8 -->
<g id="edge24" class="edge"><title>Node15&#45;&gt;Node8</title>
<path fill="none" stroke="midnightblue" d="M374.378,-224.399C384.515,-215.397 397.662,-203.721 408.085,-194.465"/>
<polygon fill="midnightblue" stroke="midnightblue" points="410.598,-196.915 415.751,-187.658 405.95,-191.681 410.598,-196.915"/>
</g>
<!-- Node15&#45;&gt;Node10 -->
<g id="edge23" class="edge"><title>Node15&#45;&gt;Node10</title>
<path fill="none" stroke="midnightblue" d="M347.214,-224.499C334.974,-209.704 314.495,-186.062 294.5,-168 282.204,-156.893 267.248,-145.827 255.222,-137.447"/>
<polygon fill="midnightblue" stroke="midnightblue" points="256.919,-134.367 246.69,-131.607 252.965,-140.144 256.919,-134.367"/>
</g>
</g>
</svg>
