<?xml version="1.0" encoding="UTF-8" standalone="no"?>
<!DOCTYPE svg PUBLIC "-//W3C//DTD SVG 1.1//EN"
 "http://www.w3.org/Graphics/SVG/1.1/DTD/svg11.dtd">
<!-- Generated by graphviz version 2.38.0 (20140413.2041)
 -->
<!-- Title: lib/carpi/src/communication/CarMessage.h Pages: 1 -->
<svg width="369pt" height="151pt"
 viewBox="0.00 0.00 368.50 151.00" xmlns="http://www.w3.org/2000/svg" xmlns:xlink="http://www.w3.org/1999/xlink">
<g id="graph0" class="graph" transform="scale(1 1) rotate(0) translate(4 147)">
<title>lib/carpi/src/communication/CarMessage.h</title>
<polygon fill="white" stroke="none" points="-4,4 -4,-147 364.5,-147 364.5,4 -4,4"/>
<!-- Node1 -->
<g id="node1" class="node"><title>Node1</title>
<polygon fill="#bfbfbf" stroke="black" points="76.5,-112.5 76.5,-142.5 224.5,-142.5 224.5,-112.5 76.5,-112.5"/>
<text text-anchor="start" x="84.5" y="-130.5" font-family="Helvetica,sans-Serif" font-size="10.00">lib/carpi/src/communication</text>
<text text-anchor="middle" x="150.5" y="-119.5" font-family="Helvetica,sans-Serif" font-size="10.00">/CarMessage.h</text>
</g>
<!-- Node2 -->
<g id="node2" class="node"><title>Node2</title>
<polygon fill="white" stroke="#bfbfbf" points="0,-56.5 0,-75.5 57,-75.5 57,-56.5 0,-56.5"/>
<text text-anchor="middle" x="28.5" y="-63.5" font-family="Helvetica,sans-Serif" font-size="10.00">memory</text>
</g>
<!-- Node1&#45;&gt;Node2 -->
<g id="edge1" class="edge"><title>Node1&#45;&gt;Node2</title>
<path fill="none" stroke="midnightblue" d="M121.588,-112.399C101.484,-102.595 74.8793,-89.6194 55.262,-80.052"/>
<polygon fill="midnightblue" stroke="midnightblue" points="56.7744,-76.8955 46.2521,-75.6578 53.7059,-83.1872 56.7744,-76.8955"/>
</g>
<!-- Node3 -->
<g id="node3" class="node"><title>Node3</title>
<polygon fill="white" stroke="#bfbfbf" points="75,-56.5 75,-75.5 122,-75.5 122,-56.5 75,-56.5"/>
<text text-anchor="middle" x="98.5" y="-63.5" font-family="Helvetica,sans-Serif" font-size="10.00">vector</text>
</g>
<!-- Node1&#45;&gt;Node3 -->
<g id="edge2" class="edge"><title>Node1&#45;&gt;Node3</title>
<path fill="none" stroke="midnightblue" d="M138.177,-112.399C130.543,-103.664 120.709,-92.4126 112.742,-83.2962"/>
<polygon fill="midnightblue" stroke="midnightblue" points="115.282,-80.8843 106.066,-75.6578 110.012,-85.4907 115.282,-80.8843"/>
</g>
<!-- Node4 -->
<g id="node4" class="node"><title>Node4</title>
<polygon fill="white" stroke="#bfbfbf" points="205,-0.5 205,-19.5 258,-19.5 258,-0.5 205,-0.5"/>
<text text-anchor="middle" x="231.5" y="-7.5" font-family="Helvetica,sans-Serif" font-size="10.00">stdint.h</text>
</g>
<!-- Node1&#45;&gt;Node4 -->
<g id="edge3" class="edge"><title>Node1&#45;&gt;Node4</title>
<path fill="none" stroke="midnightblue" d="M151.529,-112.363C153.227,-97.2393 157.708,-73.1215 169.5,-56 178.484,-42.9547 192.528,-32.3081 204.978,-24.6517"/>
<polygon fill="midnightblue" stroke="midnightblue" points="206.772,-27.6573 213.668,-19.6135 203.261,-21.6015 206.772,-27.6573"/>
</g>
<!-- Node5 -->
<g id="node5" class="node"><title>Node5</title>
<g id="a_node5"><a xlink:href="device_ids_8h.html" target="_top" xlink:title="deviceIds.h">
<polygon fill="white" stroke="black" points="178.5,-56.5 178.5,-75.5 248.5,-75.5 248.5,-56.5 178.5,-56.5"/>
<text text-anchor="middle" x="213.5" y="-63.5" font-family="Helvetica,sans-Serif" font-size="10.00">deviceIds.h</text>
</a>
</g>
</g>
<!-- Node1&#45;&gt;Node5 -->
<g id="edge4" class="edge"><title>Node1&#45;&gt;Node5</title>
<path fill="none" stroke="midnightblue" d="M165.43,-112.399C174.868,-103.486 187.08,-91.9523 196.833,-82.7408"/>
<polygon fill="midnightblue" stroke="midnightblue" points="199.466,-85.0686 204.333,-75.6578 194.66,-79.9795 199.466,-85.0686"/>
</g>
<!-- Node6 -->
<g id="node6" class="node"><title>Node6</title>
<g id="a_node6"><a xlink:href="component_ids_8h.html" target="_top" xlink:title="componentIds.h">
<polygon fill="white" stroke="black" points="266.5,-56.5 266.5,-75.5 360.5,-75.5 360.5,-56.5 266.5,-56.5"/>
<text text-anchor="middle" x="313.5" y="-63.5" font-family="Helvetica,sans-Serif" font-size="10.00">componentIds.h</text>
</a>
</g>
</g>
<!-- Node1&#45;&gt;Node6 -->
<g id="edge5" class="edge"><title>Node1&#45;&gt;Node6</title>
<path fill="none" stroke="midnightblue" d="M189.129,-112.399C216.844,-102.283 253.805,-88.7905 280.217,-79.1493"/>
<polygon fill="midnightblue" stroke="midnightblue" points="281.589,-82.3746 289.782,-75.6578 279.188,-75.799 281.589,-82.3746"/>
</g>
<!-- Node6&#45;&gt;Node4 -->
<g id="edge6" class="edge"><title>Node6&#45;&gt;Node4</title>
<path fill="none" stroke="midnightblue" d="M300.325,-56.324C287.653,-47.979 268.267,-35.2122 253.294,-25.3524"/>
<polygon fill="midnightblue" stroke="midnightblue" points="254.919,-22.2313 244.642,-19.6545 251.069,-28.0776 254.919,-22.2313"/>
</g>
</g>
</svg>
