<?xml version="1.0" encoding="UTF-8" standalone="no"?>
<!DOCTYPE svg PUBLIC "-//W3C//DTD SVG 1.1//EN"
 "http://www.w3.org/Graphics/SVG/1.1/DTD/svg11.dtd">
<!-- Generated by graphviz version 2.38.0 (20140413.2041)
 -->
<!-- Title: lib/carpi/lib/SDFileSystem/FATFileSystem/FATDirHandle.cpp Pages: 1 -->
<svg width="314pt" height="151pt"
 viewBox="0.00 0.00 314.00 151.00" xmlns="http://www.w3.org/2000/svg" xmlns:xlink="http://www.w3.org/1999/xlink">
<g id="graph0" class="graph" transform="scale(1 1) rotate(0) translate(4 147)">
<title>lib/carpi/lib/SDFileSystem/FATFileSystem/FATDirHandle.cpp</title>
<polygon fill="white" stroke="none" points="-4,4 -4,-147 310,-147 310,4 -4,4"/>
<!-- Node1 -->
<g id="node1" class="node"><title>Node1</title>
<polygon fill="#bfbfbf" stroke="black" points="133,-112.5 133,-142.5 306,-142.5 306,-112.5 133,-112.5"/>
<text text-anchor="start" x="141" y="-130.5" font-family="Helvetica,sans-Serif" font-size="10.00">lib/carpi/lib/SDFileSystem</text>
<text text-anchor="middle" x="219.5" y="-119.5" font-family="Helvetica,sans-Serif" font-size="10.00">/FATFileSystem/FATDirHandle.cpp</text>
</g>
<!-- Node2 -->
<g id="node2" class="node"><title>Node2</title>
<polygon fill="white" stroke="#bfbfbf" points="93,-56.5 93,-75.5 146,-75.5 146,-56.5 93,-56.5"/>
<text text-anchor="middle" x="119.5" y="-63.5" font-family="Helvetica,sans-Serif" font-size="10.00">string.h</text>
</g>
<!-- Node1&#45;&gt;Node2 -->
<g id="edge1" class="edge"><title>Node1&#45;&gt;Node2</title>
<path fill="none" stroke="midnightblue" d="M195.801,-112.399C179.772,-102.862 158.701,-90.3248 142.764,-80.8422"/>
<polygon fill="midnightblue" stroke="midnightblue" points="144.434,-77.7633 134.051,-75.6578 140.855,-83.779 144.434,-77.7633"/>
</g>
<!-- Node3 -->
<g id="node3" class="node"><title>Node3</title>
<g id="a_node3"><a xlink:href="ff_8h.html" target="_top" xlink:title="ff.h">
<polygon fill="white" stroke="black" points="164.5,-56.5 164.5,-75.5 196.5,-75.5 196.5,-56.5 164.5,-56.5"/>
<text text-anchor="middle" x="180.5" y="-63.5" font-family="Helvetica,sans-Serif" font-size="10.00">ff.h</text>
</a>
</g>
</g>
<!-- Node1&#45;&gt;Node3 -->
<g id="edge2" class="edge"><title>Node1&#45;&gt;Node3</title>
<path fill="none" stroke="midnightblue" d="M210.258,-112.399C204.707,-103.932 197.607,-93.0991 191.734,-84.1393"/>
<polygon fill="midnightblue" stroke="midnightblue" points="194.584,-82.1026 186.175,-75.6578 188.73,-85.94 194.584,-82.1026"/>
</g>
<!-- Node7 -->
<g id="node7" class="node"><title>Node7</title>
<g id="a_node7"><a xlink:href="_f_a_t_dir_handle_8h.html" target="_top" xlink:title="FATDirHandle.h">
<polygon fill="white" stroke="black" points="215,-56.5 215,-75.5 304,-75.5 304,-56.5 215,-56.5"/>
<text text-anchor="middle" x="259.5" y="-63.5" font-family="Helvetica,sans-Serif" font-size="10.00">FATDirHandle.h</text>
</a>
</g>
</g>
<!-- Node1&#45;&gt;Node7 -->
<g id="edge7" class="edge"><title>Node1&#45;&gt;Node7</title>
<path fill="none" stroke="midnightblue" d="M223.14,-112.399C227.842,-103.753 235.217,-92.642 242.233,-83.576"/>
<polygon fill="midnightblue" stroke="midnightblue" points="245.098,-85.6031 248.75,-75.6578 239.693,-81.1545 245.098,-85.6031"/>
</g>
<!-- Node4 -->
<g id="node4" class="node"><title>Node4</title>
<g id="a_node4"><a xlink:href="integer_8h.html" target="_top" xlink:title="integer.h">
<polygon fill="white" stroke="black" points="0,-0.5 0,-19.5 59,-19.5 59,-0.5 0,-0.5"/>
<text text-anchor="middle" x="29.5" y="-7.5" font-family="Helvetica,sans-Serif" font-size="10.00">integer.h</text>
</a>
</g>
</g>
<!-- Node3&#45;&gt;Node4 -->
<g id="edge3" class="edge"><title>Node3&#45;&gt;Node4</title>
<path fill="none" stroke="midnightblue" d="M164.34,-59.2211C140.312,-50.6282 94.6219,-34.2886 63.1358,-23.0287"/>
<polygon fill="midnightblue" stroke="midnightblue" points="64.0523,-19.6394 53.4577,-19.5676 61.6951,-26.2306 64.0523,-19.6394"/>
</g>
<!-- Node5 -->
<g id="node5" class="node"><title>Node5</title>
<g id="a_node5"><a xlink:href="ffconf_8h.html" target="_top" xlink:title="ffconf.h">
<polygon fill="white" stroke="black" points="77,-0.5 77,-19.5 128,-19.5 128,-0.5 77,-0.5"/>
<text text-anchor="middle" x="102.5" y="-7.5" font-family="Helvetica,sans-Serif" font-size="10.00">ffconf.h</text>
</a>
</g>
</g>
<!-- Node3&#45;&gt;Node5 -->
<g id="edge4" class="edge"><title>Node3&#45;&gt;Node5</title>
<path fill="none" stroke="midnightblue" d="M167.968,-56.324C155.914,-47.979 137.473,-35.2122 123.231,-25.3524"/>
<polygon fill="midnightblue" stroke="midnightblue" points="125.215,-22.469 115.001,-19.6545 121.231,-28.2243 125.215,-22.469"/>
</g>
<!-- Node6 -->
<g id="node6" class="node"><title>Node6</title>
<g id="a_node6"><a xlink:href="ccsbcs_8cpp.html" target="_top" xlink:title="ccsbcs.cpp">
<polygon fill="white" stroke="black" points="146,-0.5 146,-19.5 215,-19.5 215,-0.5 146,-0.5"/>
<text text-anchor="middle" x="180.5" y="-7.5" font-family="Helvetica,sans-Serif" font-size="10.00">ccsbcs.cpp</text>
</a>
</g>
</g>
<!-- Node3&#45;&gt;Node6 -->
<g id="edge5" class="edge"><title>Node3&#45;&gt;Node6</title>
<path fill="none" stroke="midnightblue" d="M175.334,-56.083C173.824,-48.9272 173.394,-38.6353 174.042,-29.6911"/>
<polygon fill="midnightblue" stroke="midnightblue" points="177.515,-30.1262 175.369,-19.7511 170.577,-29.2002 177.515,-30.1262"/>
</g>
<!-- Node6&#45;&gt;Node3 -->
<g id="edge6" class="edge"><title>Node6&#45;&gt;Node3</title>
<path fill="none" stroke="midnightblue" d="M185.631,-19.7511C187.157,-26.8579 187.604,-37.1357 186.972,-46.1005"/>
<polygon fill="midnightblue" stroke="midnightblue" points="183.493,-45.7134 185.666,-56.083 190.434,-46.6216 183.493,-45.7134"/>
</g>
<!-- Node7&#45;&gt;Node1 -->
<g id="edge9" class="edge"><title>Node7&#45;&gt;Node1</title>
<path fill="none" stroke="midnightblue" d="M258.609,-75.6578C255.17,-83.1815 248.16,-94.411 240.902,-104.404"/>
<polygon fill="midnightblue" stroke="midnightblue" points="238.088,-102.321 234.819,-112.399 243.66,-106.56 238.088,-102.321"/>
</g>
<!-- Node8 -->
<g id="node8" class="node"><title>Node8</title>
<polygon fill="white" stroke="#bfbfbf" points="233,-0.5 233,-19.5 306,-19.5 306,-0.5 233,-0.5"/>
<text text-anchor="middle" x="269.5" y="-7.5" font-family="Helvetica,sans-Serif" font-size="10.00">DirHandle.h</text>
</g>
<!-- Node7&#45;&gt;Node8 -->
<g id="edge8" class="edge"><title>Node7&#45;&gt;Node8</title>
<path fill="none" stroke="midnightblue" d="M261.151,-56.083C262.476,-48.9272 264.382,-38.6353 266.039,-29.6911"/>
<polygon fill="midnightblue" stroke="midnightblue" points="269.5,-30.2212 267.879,-19.7511 262.617,-28.9466 269.5,-30.2212"/>
</g>
</g>
</svg>
