<?xml version="1.0" encoding="UTF-8" standalone="no"?>
<!DOCTYPE svg PUBLIC "-//W3C//DTD SVG 1.1//EN"
 "http://www.w3.org/Graphics/SVG/1.1/DTD/svg11.dtd">
<!-- Generated by graphviz version 2.38.0 (20140413.2041)
 -->
<!-- Title: lib/carpi/lib/SDFileSystem/FATFileSystem/FATFileHandle.h Pages: 1 -->
<svg width="275pt" height="207pt"
 viewBox="0.00 0.00 274.50 207.00" xmlns="http://www.w3.org/2000/svg" xmlns:xlink="http://www.w3.org/1999/xlink">
<g id="graph0" class="graph" transform="scale(1 1) rotate(0) translate(4 203)">
<title>lib/carpi/lib/SDFileSystem/FATFileSystem/FATFileHandle.h</title>
<polygon fill="white" stroke="none" points="-4,4 -4,-203 270.5,-203 270.5,4 -4,4"/>
<!-- Node1 -->
<g id="node1" class="node"><title>Node1</title>
<polygon fill="#bfbfbf" stroke="black" points="61,-168.5 61,-198.5 225,-198.5 225,-168.5 61,-168.5"/>
<text text-anchor="start" x="69" y="-186.5" font-family="Helvetica,sans-Serif" font-size="10.00">lib/carpi/lib/SDFileSystem</text>
<text text-anchor="middle" x="143" y="-175.5" font-family="Helvetica,sans-Serif" font-size="10.00">/FATFileSystem/FATFileHandle.h</text>
</g>
<!-- Node2 -->
<g id="node2" class="node"><title>Node2</title>
<polygon fill="white" stroke="#bfbfbf" points="0,-112.5 0,-131.5 74,-131.5 74,-112.5 0,-112.5"/>
<text text-anchor="middle" x="37" y="-119.5" font-family="Helvetica,sans-Serif" font-size="10.00">FileHandle.h</text>
</g>
<!-- Node1&#45;&gt;Node2 -->
<g id="edge1" class="edge"><title>Node1&#45;&gt;Node2</title>
<path fill="none" stroke="midnightblue" d="M117.879,-168.399C100.73,-158.773 78.1354,-146.09 61.1879,-136.577"/>
<polygon fill="midnightblue" stroke="midnightblue" points="62.8573,-133.501 52.4239,-131.658 59.4309,-139.605 62.8573,-133.501"/>
</g>
<!-- Node3 -->
<g id="node3" class="node"><title>Node3</title>
<g id="a_node3"><a xlink:href="_f_a_t_file_handle_8cpp.html" target="_top" xlink:title="FATFileHandle.cpp">
<polygon fill="white" stroke="black" points="92.5,-112.5 92.5,-131.5 193.5,-131.5 193.5,-112.5 92.5,-112.5"/>
<text text-anchor="middle" x="143" y="-119.5" font-family="Helvetica,sans-Serif" font-size="10.00">FATFileHandle.cpp</text>
</a>
</g>
</g>
<!-- Node1&#45;&gt;Node3 -->
<g id="edge2" class="edge"><title>Node1&#45;&gt;Node3</title>
<path fill="none" stroke="midnightblue" d="M137.16,-168.399C136.13,-160.377 135.974,-150.233 136.693,-141.569"/>
<polygon fill="midnightblue" stroke="midnightblue" points="140.16,-142.044 138.071,-131.658 133.227,-141.081 140.16,-142.044"/>
</g>
<!-- Node3&#45;&gt;Node1 -->
<g id="edge10" class="edge"><title>Node3&#45;&gt;Node1</title>
<path fill="none" stroke="midnightblue" d="M147.929,-131.658C149.435,-138.655 150.007,-148.857 149.645,-158.289"/>
<polygon fill="midnightblue" stroke="midnightblue" points="146.145,-158.153 148.84,-168.399 153.123,-158.709 146.145,-158.153"/>
</g>
<!-- Node4 -->
<g id="node4" class="node"><title>Node4</title>
<g id="a_node4"><a xlink:href="ff_8h.html" target="_top" xlink:title="ff.h">
<polygon fill="white" stroke="black" points="127,-56.5 127,-75.5 159,-75.5 159,-56.5 127,-56.5"/>
<text text-anchor="middle" x="143" y="-63.5" font-family="Helvetica,sans-Serif" font-size="10.00">ff.h</text>
</a>
</g>
</g>
<!-- Node3&#45;&gt;Node4 -->
<g id="edge3" class="edge"><title>Node3&#45;&gt;Node4</title>
<path fill="none" stroke="midnightblue" d="M143,-112.083C143,-105.006 143,-94.8611 143,-85.9865"/>
<polygon fill="midnightblue" stroke="midnightblue" points="146.5,-85.751 143,-75.7511 139.5,-85.7511 146.5,-85.751"/>
</g>
<!-- Node6 -->
<g id="node6" class="node"><title>Node6</title>
<g id="a_node6"><a xlink:href="ffconf_8h.html" target="_top" xlink:title="ffconf.h">
<polygon fill="white" stroke="black" points="44.5,-0.5 44.5,-19.5 95.5,-19.5 95.5,-0.5 44.5,-0.5"/>
<text text-anchor="middle" x="70" y="-7.5" font-family="Helvetica,sans-Serif" font-size="10.00">ffconf.h</text>
</a>
</g>
</g>
<!-- Node3&#45;&gt;Node6 -->
<g id="edge8" class="edge"><title>Node3&#45;&gt;Node6</title>
<path fill="none" stroke="midnightblue" d="M137.272,-112.368C125.225,-94.2153 97.0774,-51.8015 81.2753,-27.9902"/>
<polygon fill="midnightblue" stroke="midnightblue" points="84.1474,-25.9882 75.7016,-19.5914 78.3149,-29.8589 84.1474,-25.9882"/>
</g>
<!-- Node8 -->
<g id="node8" class="node"><title>Node8</title>
<polygon fill="white" stroke="#bfbfbf" points="177.5,-56.5 177.5,-75.5 266.5,-75.5 266.5,-56.5 177.5,-56.5"/>
<text text-anchor="middle" x="222" y="-63.5" font-family="Helvetica,sans-Serif" font-size="10.00">mbed_debug.h</text>
</g>
<!-- Node3&#45;&gt;Node8 -->
<g id="edge9" class="edge"><title>Node3&#45;&gt;Node8</title>
<path fill="none" stroke="midnightblue" d="M155.693,-112.324C167.901,-103.979 186.578,-91.2122 201.003,-81.3524"/>
<polygon fill="midnightblue" stroke="midnightblue" points="203.058,-84.1871 209.339,-75.6545 199.108,-78.4082 203.058,-84.1871"/>
</g>
<!-- Node5 -->
<g id="node5" class="node"><title>Node5</title>
<g id="a_node5"><a xlink:href="integer_8h.html" target="_top" xlink:title="integer.h">
<polygon fill="white" stroke="black" points="113.5,-0.5 113.5,-19.5 172.5,-19.5 172.5,-0.5 113.5,-0.5"/>
<text text-anchor="middle" x="143" y="-7.5" font-family="Helvetica,sans-Serif" font-size="10.00">integer.h</text>
</a>
</g>
</g>
<!-- Node4&#45;&gt;Node5 -->
<g id="edge4" class="edge"><title>Node4&#45;&gt;Node5</title>
<path fill="none" stroke="midnightblue" d="M143,-56.083C143,-49.0059 143,-38.8611 143,-29.9865"/>
<polygon fill="midnightblue" stroke="midnightblue" points="146.5,-29.751 143,-19.7511 139.5,-29.7511 146.5,-29.751"/>
</g>
<!-- Node4&#45;&gt;Node6 -->
<g id="edge5" class="edge"><title>Node4&#45;&gt;Node6</title>
<path fill="none" stroke="midnightblue" d="M131.271,-56.324C120.163,-48.1066 103.258,-35.6017 90.0167,-25.8069"/>
<polygon fill="midnightblue" stroke="midnightblue" points="92.0631,-22.9671 81.9421,-19.8339 87.9001,-28.5948 92.0631,-22.9671"/>
</g>
<!-- Node7 -->
<g id="node7" class="node"><title>Node7</title>
<g id="a_node7"><a xlink:href="ccsbcs_8cpp.html" target="_top" xlink:title="ccsbcs.cpp">
<polygon fill="white" stroke="black" points="190.5,-0.5 190.5,-19.5 259.5,-19.5 259.5,-0.5 190.5,-0.5"/>
<text text-anchor="middle" x="225" y="-7.5" font-family="Helvetica,sans-Serif" font-size="10.00">ccsbcs.cpp</text>
</a>
</g>
</g>
<!-- Node4&#45;&gt;Node7 -->
<g id="edge6" class="edge"><title>Node4&#45;&gt;Node7</title>
<path fill="none" stroke="midnightblue" d="M151.06,-56.324C162.13,-47.8215 181.725,-34.7288 198.074,-24.7975"/>
<polygon fill="midnightblue" stroke="midnightblue" points="199.931,-27.7653 206.748,-19.6545 196.361,-21.7441 199.931,-27.7653"/>
</g>
<!-- Node7&#45;&gt;Node4 -->
<g id="edge7" class="edge"><title>Node7&#45;&gt;Node4</title>
<path fill="none" stroke="midnightblue" d="M217.154,-19.5118C205.708,-28.3294 184.88,-42.2085 168.08,-52.3186"/>
<polygon fill="midnightblue" stroke="midnightblue" points="166.107,-49.418 159.247,-57.4915 169.645,-55.4585 166.107,-49.418"/>
</g>
</g>
</svg>
