<?xml version="1.0" encoding="UTF-8" standalone="no"?>
<!DOCTYPE svg PUBLIC "-//W3C//DTD SVG 1.1//EN"
 "http://www.w3.org/Graphics/SVG/1.1/DTD/svg11.dtd">
<!-- Generated by graphviz version 2.38.0 (20140413.2041)
 -->
<!-- Title: lib/carpi/lib/SDFileSystem/FATFileSystem/FATFileSystem.h Pages: 1 -->
<!--zoomable 319 -->
<svg id="main" version="1.1" xmlns="http://www.w3.org/2000/svg" xmlns:xlink="http://www.w3.org/1999/xlink" xml:space="preserve" onload="init(evt)">
<style type="text/css"><![CDATA[
.edge:hover path { stroke: red; }
.edge:hover polygon { stroke: red; fill: red; }
]]></style>
<script type="text/javascript"><![CDATA[
var edges = document.getElementsByTagName('g');
if (edges && edges.length) {
  for (var i=0;i<edges.length;i++) {
    if (edges[i].id.substr(0,4)=='edge') {
      edges[i].setAttribute('class','edge');
    }
  }
}
]]></script>
        <defs>
                <circle id="rim" cx="0" cy="0" r="7"/>
                <circle id="rim2" cx="0" cy="0" r="3.5"/>
                <g id="zoomPlus">
                        <use xlink:href="#rim" fill="#404040">
                                <set attributeName="fill" to="#808080" begin="zoomplus.mouseover" end="zoomplus.mouseout"/>
                        </use>
                        <path d="M-4,0h8M0,-4v8" fill="none" stroke="white" stroke-width="1.5" pointer-events="none"/>
                </g>
                <g id="zoomMin">
                        <use xlink:href="#rim" fill="#404040">
                                <set attributeName="fill" to="#808080" begin="zoomminus.mouseover" end="zoomminus.mouseout"/>
                        </use>
                        <path d="M-4,0h8" fill="none" stroke="white" stroke-width="1.5" pointer-events="none"/>
                </g>
                <g id="dirArrow">
                        <path fill="none" stroke="white" stroke-width="1.5" d="M0,-3.0v7 M-2.5,-0.5L0,-3.0L2.5,-0.5"/>
                </g>
               <g id="resetDef">
                       <use xlink:href="#rim2" fill="#404040">
                               <set attributeName="fill" to="#808080" begin="reset.mouseover" end="reset.mouseout"/>
                       </use>
               </g>
        </defs>

<script type="text/javascript">
var viewWidth = 772;
var viewHeight = 319;
var sectionId = 'dynsection-0';
</script>
<script xlink:href="svgpan.js"/>
<svg id="graph" class="graph">
<g id="viewport">
<title>lib/carpi/lib/SDFileSystem/FATFileSystem/FATFileSystem.h</title>
<polygon fill="white" stroke="none" points="-4,4 -4,-315 768.243,-315 768.243,4 -4,4"/>
<!-- Node1 -->
<g id="node1" class="node"><title>Node1</title>
<polygon fill="#bfbfbf" stroke="black" points="334.5,-280.5 334.5,-310.5 501.5,-310.5 501.5,-280.5 334.5,-280.5"/>
<text text-anchor="start" x="342.5" y="-298.5" font-family="Helvetica,sans-Serif" font-size="10.00">lib/carpi/lib/SDFileSystem</text>
<text text-anchor="middle" x="418" y="-287.5" font-family="Helvetica,sans-Serif" font-size="10.00">/FATFileSystem/FATFileSystem.h</text>
</g>
<!-- Node2 -->
<g id="node2" class="node"><title>Node2</title>
<polygon fill="white" stroke="#bfbfbf" points="0,-224.5 0,-243.5 96,-243.5 96,-224.5 0,-224.5"/>
<text text-anchor="middle" x="48" y="-231.5" font-family="Helvetica,sans-Serif" font-size="10.00">FileSystemLike.h</text>
</g>
<!-- Node1&#45;&gt;Node2 -->
<g id="edge1" class="edge"><title>Node1&#45;&gt;Node2</title>
<path fill="none" stroke="midnightblue" d="M334.041,-280.999C264.463,-269.81 167.377,-254.197 106.115,-244.345"/>
<polygon fill="midnightblue" stroke="midnightblue" points="106.656,-240.888 96.2272,-242.755 105.545,-247.799 106.656,-240.888"/>
</g>
<!-- Node3 -->
<g id="node3" class="node"><title>Node3</title>
<polygon fill="white" stroke="#bfbfbf" points="520,-112.5 520,-131.5 594,-131.5 594,-112.5 520,-112.5"/>
<text text-anchor="middle" x="557" y="-119.5" font-family="Helvetica,sans-Serif" font-size="10.00">FileHandle.h</text>
</g>
<!-- Node1&#45;&gt;Node3 -->
<g id="edge2" class="edge"><title>Node1&#45;&gt;Node3</title>
<path fill="none" stroke="midnightblue" d="M429.375,-280.465C454.849,-249.035 516.379,-173.118 543.629,-139.498"/>
<polygon fill="midnightblue" stroke="midnightblue" points="546.485,-141.532 550.062,-131.56 541.047,-137.125 546.485,-141.532"/>
</g>
<!-- Node4 -->
<g id="node4" class="node"><title>Node4</title>
<g id="a_node4"><a xlink:href="ff_8h.html" target="_top" xlink:title="ff.h">
<polygon fill="white" stroke="black" points="338,-56.5 338,-75.5 370,-75.5 370,-56.5 338,-56.5"/>
<text text-anchor="middle" x="354" y="-63.5" font-family="Helvetica,sans-Serif" font-size="10.00">ff.h</text>
</a>
</g>
</g>
<!-- Node1&#45;&gt;Node4 -->
<g id="edge3" class="edge"><title>Node1&#45;&gt;Node4</title>
<path fill="none" stroke="midnightblue" d="M334.229,-290.046C297.714,-283.985 256.957,-271.032 229,-244 210.301,-225.92 217.186,-213.488 212,-188 205.244,-154.797 185.825,-139.222 206,-112 233.993,-74.2301 292.906,-67.0732 327.363,-66.3235"/>
<polygon fill="midnightblue" stroke="midnightblue" points="327.638,-69.8223 337.621,-66.2745 327.604,-62.8224 327.638,-69.8223"/>
</g>
<!-- Node8 -->
<g id="node8" class="node"><title>Node8</title>
<polygon fill="white" stroke="#bfbfbf" points="655.5,-224.5 655.5,-243.5 708.5,-243.5 708.5,-224.5 655.5,-224.5"/>
<text text-anchor="middle" x="682" y="-231.5" font-family="Helvetica,sans-Serif" font-size="10.00">stdint.h</text>
</g>
<!-- Node1&#45;&gt;Node8 -->
<g id="edge8" class="edge"><title>Node1&#45;&gt;Node8</title>
<path fill="none" stroke="midnightblue" d="M483.463,-280.491C526.688,-271.128 584.827,-258.319 645.184,-244.144"/>
<polygon fill="midnightblue" stroke="midnightblue" points="646.353,-247.465 655.283,-241.764 644.747,-240.651 646.353,-247.465"/>
</g>
<!-- Node9 -->
<g id="node9" class="node"><title>Node9</title>
<g id="a_node9"><a xlink:href="_f_a_t_file_system_8cpp.html" target="_top" xlink:title="FATFileSystem.cpp">
<polygon fill="white" stroke="black" points="533,-224.5 533,-243.5 637,-243.5 637,-224.5 533,-224.5"/>
<text text-anchor="middle" x="585" y="-231.5" font-family="Helvetica,sans-Serif" font-size="10.00">FATFileSystem.cpp</text>
</a>
</g>
</g>
<!-- Node1&#45;&gt;Node9 -->
<g id="edge9" class="edge"><title>Node1&#45;&gt;Node9</title>
<path fill="none" stroke="midnightblue" d="M451.737,-280.399C479.154,-270.163 517.694,-256.47 546.346,-246.808"/>
<polygon fill="midnightblue" stroke="midnightblue" points="547.658,-250.06 556.033,-243.571 545.439,-243.421 547.658,-250.06"/>
</g>
<!-- Node18 -->
<g id="node18" class="node"><title>Node18</title>
<g id="a_node18"><a xlink:href="ff_8cpp.html" target="_top" xlink:title="ff.cpp">
<polygon fill="white" stroke="black" points="238.5,-224.5 238.5,-243.5 281.5,-243.5 281.5,-224.5 238.5,-224.5"/>
<text text-anchor="middle" x="260" y="-231.5" font-family="Helvetica,sans-Serif" font-size="10.00">ff.cpp</text>
</a>
</g>
</g>
<!-- Node1&#45;&gt;Node18 -->
<g id="edge27" class="edge"><title>Node1&#45;&gt;Node18</title>
<path fill="none" stroke="midnightblue" d="M380.556,-280.399C353.326,-270.145 316.889,-256.423 291.224,-246.758"/>
<polygon fill="midnightblue" stroke="midnightblue" points="292.212,-243.39 281.62,-243.142 289.745,-249.941 292.212,-243.39"/>
</g>
<!-- Node5 -->
<g id="node5" class="node"><title>Node5</title>
<g id="a_node5"><a xlink:href="integer_8h.html" target="_top" xlink:title="integer.h">
<polygon fill="white" stroke="black" points="169.5,-0.5 169.5,-19.5 228.5,-19.5 228.5,-0.5 169.5,-0.5"/>
<text text-anchor="middle" x="199" y="-7.5" font-family="Helvetica,sans-Serif" font-size="10.00">integer.h</text>
</a>
</g>
</g>
<!-- Node4&#45;&gt;Node5 -->
<g id="edge4" class="edge"><title>Node4&#45;&gt;Node5</title>
<path fill="none" stroke="midnightblue" d="M337.996,-59.4244C313.392,-50.8527 265.71,-34.2407 233.121,-22.8875"/>
<polygon fill="midnightblue" stroke="midnightblue" points="234.13,-19.5324 223.535,-19.5476 231.827,-26.1428 234.13,-19.5324"/>
</g>
<!-- Node6 -->
<g id="node6" class="node"><title>Node6</title>
<g id="a_node6"><a xlink:href="ffconf_8h.html" target="_top" xlink:title="ffconf.h">
<polygon fill="white" stroke="black" points="586.5,-0.5 586.5,-19.5 637.5,-19.5 637.5,-0.5 586.5,-0.5"/>
<text text-anchor="middle" x="612" y="-7.5" font-family="Helvetica,sans-Serif" font-size="10.00">ffconf.h</text>
</a>
</g>
</g>
<!-- Node4&#45;&gt;Node6 -->
<g id="edge5" class="edge"><title>Node4&#45;&gt;Node6</title>
<path fill="none" stroke="midnightblue" d="M370.139,-61.6221C411.057,-53.0578 519.622,-30.3349 576.347,-18.4622"/>
<polygon fill="midnightblue" stroke="midnightblue" points="577.237,-21.852 586.308,-16.3775 575.803,-15.0004 577.237,-21.852"/>
</g>
<!-- Node7 -->
<g id="node7" class="node"><title>Node7</title>
<g id="a_node7"><a xlink:href="ccsbcs_8cpp.html" target="_top" xlink:title="ccsbcs.cpp">
<polygon fill="white" stroke="black" points="319.5,-0.5 319.5,-19.5 388.5,-19.5 388.5,-0.5 319.5,-0.5"/>
<text text-anchor="middle" x="354" y="-7.5" font-family="Helvetica,sans-Serif" font-size="10.00">ccsbcs.cpp</text>
</a>
</g>
</g>
<!-- Node4&#45;&gt;Node7 -->
<g id="edge6" class="edge"><title>Node4&#45;&gt;Node7</title>
<path fill="none" stroke="midnightblue" d="M348.834,-56.083C347.324,-48.9272 346.894,-38.6353 347.542,-29.6911"/>
<polygon fill="midnightblue" stroke="midnightblue" points="351.015,-30.1262 348.869,-19.7511 344.077,-29.2002 351.015,-30.1262"/>
</g>
<!-- Node7&#45;&gt;Node4 -->
<g id="edge7" class="edge"><title>Node7&#45;&gt;Node4</title>
<path fill="none" stroke="midnightblue" d="M359.131,-19.7511C360.657,-26.8579 361.104,-37.1357 360.472,-46.1005"/>
<polygon fill="midnightblue" stroke="midnightblue" points="356.993,-45.7134 359.166,-56.083 363.934,-46.6216 356.993,-45.7134"/>
</g>
<!-- Node9&#45;&gt;Node1 -->
<g id="edge13" class="edge"><title>Node9&#45;&gt;Node1</title>
<path fill="none" stroke="midnightblue" d="M565.629,-243.658C543.011,-252.385 504.945,-266.099 473.082,-277.086"/>
<polygon fill="midnightblue" stroke="midnightblue" points="471.741,-273.845 463.417,-280.399 474.011,-280.467 471.741,-273.845"/>
</g>
<!-- Node9&#45;&gt;Node6 -->
<g id="edge11" class="edge"><title>Node9&#45;&gt;Node6</title>
<path fill="none" stroke="midnightblue" d="M634.623,-224.474C673.525,-216.7 723.16,-204.001 736,-188 772.727,-142.232 773.29,-103.621 739,-56 718.214,-27.1329 677.309,-16.6824 647.522,-12.9549"/>
<polygon fill="midnightblue" stroke="midnightblue" points="647.813,-9.46623 637.501,-11.8976 647.078,-16.4276 647.813,-9.46623"/>
</g>
<!-- Node10 -->
<g id="node10" class="node"><title>Node10</title>
<polygon fill="white" stroke="#bfbfbf" points="546.5,-168.5 546.5,-187.5 599.5,-187.5 599.5,-168.5 546.5,-168.5"/>
<text text-anchor="middle" x="573" y="-175.5" font-family="Helvetica,sans-Serif" font-size="10.00">mbed.h</text>
</g>
<!-- Node9&#45;&gt;Node10 -->
<g id="edge10" class="edge"><title>Node9&#45;&gt;Node10</title>
<path fill="none" stroke="midnightblue" d="M583.018,-224.083C581.428,-216.927 579.141,-206.635 577.154,-197.691"/>
<polygon fill="midnightblue" stroke="midnightblue" points="580.531,-196.754 574.945,-187.751 573.697,-198.272 580.531,-196.754"/>
</g>
<!-- Node11 -->
<g id="node11" class="node"><title>Node11</title>
<polygon fill="white" stroke="#bfbfbf" points="640.5,-56.5 640.5,-75.5 729.5,-75.5 729.5,-56.5 640.5,-56.5"/>
<text text-anchor="middle" x="685" y="-63.5" font-family="Helvetica,sans-Serif" font-size="10.00">mbed_debug.h</text>
</g>
<!-- Node9&#45;&gt;Node11 -->
<g id="edge12" class="edge"><title>Node9&#45;&gt;Node11</title>
<path fill="none" stroke="midnightblue" d="M624.622,-224.437C659.067,-216.147 705.244,-202.703 717,-188 738.16,-161.537 734.638,-143.821 723,-112 718.943,-100.908 710.812,-90.6651 703.109,-82.7625"/>
<polygon fill="midnightblue" stroke="midnightblue" points="705.362,-80.0747 695.714,-75.6955 700.525,-85.1351 705.362,-80.0747"/>
</g>
<!-- Node12 -->
<g id="node12" class="node"><title>Node12</title>
<g id="a_node12"><a xlink:href="_f_a_t_file_handle_8h.html" target="_top" xlink:title="FATFileHandle.h">
<polygon fill="white" stroke="black" points="618,-168.5 618,-187.5 708,-187.5 708,-168.5 618,-168.5"/>
<text text-anchor="middle" x="663" y="-175.5" font-family="Helvetica,sans-Serif" font-size="10.00">FATFileHandle.h</text>
</a>
</g>
</g>
<!-- Node9&#45;&gt;Node12 -->
<g id="edge14" class="edge"><title>Node9&#45;&gt;Node12</title>
<path fill="none" stroke="midnightblue" d="M597.532,-224.324C609.586,-215.979 628.027,-203.212 642.269,-193.352"/>
<polygon fill="midnightblue" stroke="midnightblue" points="644.269,-196.224 650.499,-187.655 640.285,-190.469 644.269,-196.224"/>
</g>
<!-- Node14 -->
<g id="node14" class="node"><title>Node14</title>
<g id="a_node14"><a xlink:href="_f_a_t_dir_handle_8h.html" target="_top" xlink:title="FATDirHandle.h">
<polygon fill="white" stroke="black" points="387.5,-168.5 387.5,-187.5 476.5,-187.5 476.5,-168.5 387.5,-168.5"/>
<text text-anchor="middle" x="432" y="-175.5" font-family="Helvetica,sans-Serif" font-size="10.00">FATDirHandle.h</text>
</a>
</g>
</g>
<!-- Node9&#45;&gt;Node14 -->
<g id="edge21" class="edge"><title>Node9&#45;&gt;Node14</title>
<path fill="none" stroke="midnightblue" d="M560.757,-224.444C535.129,-215.399 494.515,-201.064 465.762,-190.916"/>
<polygon fill="midnightblue" stroke="midnightblue" points="466.725,-187.544 456.13,-187.516 464.395,-194.145 466.725,-187.544"/>
</g>
<!-- Node12&#45;&gt;Node3 -->
<g id="edge15" class="edge"><title>Node12&#45;&gt;Node3</title>
<path fill="none" stroke="midnightblue" d="M645.969,-168.324C628.97,-159.664 602.624,-146.242 583.007,-136.249"/>
<polygon fill="midnightblue" stroke="midnightblue" points="584.488,-133.075 573.988,-131.655 581.31,-139.312 584.488,-133.075"/>
</g>
<!-- Node13 -->
<g id="node13" class="node"><title>Node13</title>
<g id="a_node13"><a xlink:href="_f_a_t_file_handle_8cpp.html" target="_top" xlink:title="FATFileHandle.cpp">
<polygon fill="white" stroke="black" points="612.5,-112.5 612.5,-131.5 713.5,-131.5 713.5,-112.5 612.5,-112.5"/>
<text text-anchor="middle" x="663" y="-119.5" font-family="Helvetica,sans-Serif" font-size="10.00">FATFileHandle.cpp</text>
</a>
</g>
</g>
<!-- Node12&#45;&gt;Node13 -->
<g id="edge16" class="edge"><title>Node12&#45;&gt;Node13</title>
<path fill="none" stroke="midnightblue" d="M657.834,-168.083C656.324,-160.927 655.894,-150.635 656.542,-141.691"/>
<polygon fill="midnightblue" stroke="midnightblue" points="660.015,-142.126 657.869,-131.751 653.077,-141.2 660.015,-142.126"/>
</g>
<!-- Node13&#45;&gt;Node4 -->
<g id="edge17" class="edge"><title>Node13&#45;&gt;Node4</title>
<path fill="none" stroke="midnightblue" d="M614.038,-112.444C547.787,-100.866 431.943,-80.6211 380.227,-71.5834"/>
<polygon fill="midnightblue" stroke="midnightblue" points="380.659,-68.1059 370.206,-69.8321 379.454,-75.0014 380.659,-68.1059"/>
</g>
<!-- Node13&#45;&gt;Node6 -->
<g id="edge18" class="edge"><title>Node13&#45;&gt;Node6</title>
<path fill="none" stroke="midnightblue" d="M655.721,-112.197C648.809,-103.471 638.531,-89.4914 632,-76 624.765,-61.0558 619.444,-42.9161 616.117,-29.601"/>
<polygon fill="midnightblue" stroke="midnightblue" points="619.491,-28.6593 613.793,-19.7272 612.677,-30.2631 619.491,-28.6593"/>
</g>
<!-- Node13&#45;&gt;Node11 -->
<g id="edge19" class="edge"><title>Node13&#45;&gt;Node11</title>
<path fill="none" stroke="midnightblue" d="M666.633,-112.083C669.612,-104.77 673.926,-94.1814 677.625,-85.1034"/>
<polygon fill="midnightblue" stroke="midnightblue" points="680.903,-86.3326 681.435,-75.7511 674.42,-83.6914 680.903,-86.3326"/>
</g>
<!-- Node13&#45;&gt;Node12 -->
<g id="edge20" class="edge"><title>Node13&#45;&gt;Node12</title>
<path fill="none" stroke="midnightblue" d="M668.131,-131.751C669.657,-138.858 670.104,-149.136 669.472,-158.101"/>
<polygon fill="midnightblue" stroke="midnightblue" points="665.993,-157.713 668.166,-168.083 672.934,-158.622 665.993,-157.713"/>
</g>
<!-- Node15 -->
<g id="node15" class="node"><title>Node15</title>
<polygon fill="white" stroke="#bfbfbf" points="310.5,-112.5 310.5,-131.5 383.5,-131.5 383.5,-112.5 310.5,-112.5"/>
<text text-anchor="middle" x="347" y="-119.5" font-family="Helvetica,sans-Serif" font-size="10.00">DirHandle.h</text>
</g>
<!-- Node14&#45;&gt;Node15 -->
<g id="edge22" class="edge"><title>Node14&#45;&gt;Node15</title>
<path fill="none" stroke="midnightblue" d="M418.343,-168.324C405.084,-159.9 384.732,-146.971 369.154,-137.074"/>
<polygon fill="midnightblue" stroke="midnightblue" points="370.94,-134.063 360.623,-131.655 367.187,-139.971 370.94,-134.063"/>
</g>
<!-- Node16 -->
<g id="node16" class="node"><title>Node16</title>
<g id="a_node16"><a xlink:href="_f_a_t_dir_handle_8cpp.html" target="_top" xlink:title="FATDirHandle.cpp">
<polygon fill="white" stroke="black" points="402,-112.5 402,-131.5 502,-131.5 502,-112.5 402,-112.5"/>
<text text-anchor="middle" x="452" y="-119.5" font-family="Helvetica,sans-Serif" font-size="10.00">FATDirHandle.cpp</text>
</a>
</g>
</g>
<!-- Node14&#45;&gt;Node16 -->
<g id="edge23" class="edge"><title>Node14&#45;&gt;Node16</title>
<path fill="none" stroke="midnightblue" d="M430.136,-168.083C431.315,-160.691 434.884,-149.953 439.013,-140.811"/>
<polygon fill="midnightblue" stroke="midnightblue" points="442.208,-142.25 443.628,-131.751 435.971,-139.073 442.208,-142.25"/>
</g>
<!-- Node16&#45;&gt;Node4 -->
<g id="edge25" class="edge"><title>Node16&#45;&gt;Node4</title>
<path fill="none" stroke="midnightblue" d="M436.255,-112.324C420.681,-103.743 396.623,-90.486 378.541,-80.5224"/>
<polygon fill="midnightblue" stroke="midnightblue" points="380.154,-77.4152 369.706,-75.6545 376.776,-83.546 380.154,-77.4152"/>
</g>
<!-- Node16&#45;&gt;Node14 -->
<g id="edge26" class="edge"><title>Node16&#45;&gt;Node14</title>
<path fill="none" stroke="midnightblue" d="M453.89,-131.751C452.747,-139.092 449.201,-149.817 445.079,-158.983"/>
<polygon fill="midnightblue" stroke="midnightblue" points="441.866,-157.581 440.469,-168.083 448.111,-160.744 441.866,-157.581"/>
</g>
<!-- Node17 -->
<g id="node17" class="node"><title>Node17</title>
<polygon fill="white" stroke="#bfbfbf" points="425.5,-56.5 425.5,-75.5 478.5,-75.5 478.5,-56.5 425.5,-56.5"/>
<text text-anchor="middle" x="452" y="-63.5" font-family="Helvetica,sans-Serif" font-size="10.00">string.h</text>
</g>
<!-- Node16&#45;&gt;Node17 -->
<g id="edge24" class="edge"><title>Node16&#45;&gt;Node17</title>
<path fill="none" stroke="midnightblue" d="M452,-112.083C452,-105.006 452,-94.8611 452,-85.9865"/>
<polygon fill="midnightblue" stroke="midnightblue" points="455.5,-85.751 452,-75.7511 448.5,-85.7511 455.5,-85.751"/>
</g>
<!-- Node18&#45;&gt;Node4 -->
<g id="edge28" class="edge"><title>Node18&#45;&gt;Node4</title>
<path fill="none" stroke="midnightblue" d="M250.475,-224.395C241.912,-216.025 229.817,-202.483 224,-188 211.384,-156.588 199.207,-139.461 219,-112 243.681,-77.7572 295.55,-69.1777 327.323,-67.2586"/>
<polygon fill="midnightblue" stroke="midnightblue" points="327.801,-70.7418 337.646,-66.8264 327.508,-63.7479 327.801,-70.7418"/>
</g>
<!-- Node19 -->
<g id="node19" class="node"><title>Node19</title>
<g id="a_node19"><a xlink:href="diskio_8h.html" target="_top" xlink:title="diskio.h">
<polygon fill="white" stroke="black" points="233.5,-168.5 233.5,-187.5 286.5,-187.5 286.5,-168.5 233.5,-168.5"/>
<text text-anchor="middle" x="260" y="-175.5" font-family="Helvetica,sans-Serif" font-size="10.00">diskio.h</text>
</a>
</g>
</g>
<!-- Node18&#45;&gt;Node19 -->
<g id="edge29" class="edge"><title>Node18&#45;&gt;Node19</title>
<path fill="none" stroke="midnightblue" d="M260,-224.083C260,-217.006 260,-206.861 260,-197.986"/>
<polygon fill="midnightblue" stroke="midnightblue" points="263.5,-197.751 260,-187.751 256.5,-197.751 263.5,-197.751"/>
</g>
<!-- Node19&#45;&gt;Node5 -->
<g id="edge30" class="edge"><title>Node19&#45;&gt;Node5</title>
<path fill="none" stroke="midnightblue" d="M249.041,-168.237C239.494,-159.956 226.1,-146.646 219,-132 202.804,-98.5889 199.393,-54.5507 198.864,-29.8665"/>
<polygon fill="midnightblue" stroke="midnightblue" points="202.363,-29.6883 198.79,-19.7141 195.363,-29.7393 202.363,-29.6883"/>
</g>
<!-- Node20 -->
<g id="node20" class="node"><title>Node20</title>
<g id="a_node20"><a xlink:href="diskio_8cpp.html" target="_top" xlink:title="diskio.cpp">
<polygon fill="white" stroke="black" points="228,-112.5 228,-131.5 292,-131.5 292,-112.5 228,-112.5"/>
<text text-anchor="middle" x="260" y="-119.5" font-family="Helvetica,sans-Serif" font-size="10.00">diskio.cpp</text>
</a>
</g>
</g>
<!-- Node19&#45;&gt;Node20 -->
<g id="edge31" class="edge"><title>Node19&#45;&gt;Node20</title>
<path fill="none" stroke="midnightblue" d="M254.834,-168.083C253.324,-160.927 252.894,-150.635 253.542,-141.691"/>
<polygon fill="midnightblue" stroke="midnightblue" points="257.015,-142.126 254.869,-131.751 250.077,-141.2 257.015,-142.126"/>
</g>
<!-- Node20&#45;&gt;Node1 -->
<g id="edge34" class="edge"><title>Node20&#45;&gt;Node1</title>
<path fill="none" stroke="midnightblue" d="M267.886,-131.56C291.655,-157.36 363.118,-234.929 398.173,-272.979"/>
<polygon fill="midnightblue" stroke="midnightblue" points="395.72,-275.482 405.07,-280.465 400.869,-270.739 395.72,-275.482"/>
</g>
<!-- Node20&#45;&gt;Node11 -->
<g id="edge33" class="edge"><title>Node20&#45;&gt;Node11</title>
<path fill="none" stroke="midnightblue" d="M292.17,-113.622C295.148,-113.034 298.125,-112.483 301,-112 417.645,-92.4126 555.648,-78.4695 630.34,-71.6809"/>
<polygon fill="midnightblue" stroke="midnightblue" points="630.804,-75.1533 640.45,-70.7706 630.176,-68.1815 630.804,-75.1533"/>
</g>
<!-- Node20&#45;&gt;Node19 -->
<g id="edge32" class="edge"><title>Node20&#45;&gt;Node19</title>
<path fill="none" stroke="midnightblue" d="M265.131,-131.751C266.657,-138.858 267.104,-149.136 266.472,-158.101"/>
<polygon fill="midnightblue" stroke="midnightblue" points="262.993,-157.713 265.166,-168.083 269.934,-158.622 262.993,-157.713"/>
</g>
</g>
</svg>
        <g id="navigator" transform="translate(0 0)" fill="#404254">
                <rect fill="#f2f5e9" fill-opacity="0.5" stroke="#606060" stroke-width=".5" x="0" y="0" width="60" height="60"/>
                <use id="zoomplus" xlink:href="#zoomPlus" x="17" y="9" onmousedown="handleZoom(evt,'in')"/>
                <use id="zoomminus" xlink:href="#zoomMin" x="42" y="9" onmousedown="handleZoom(evt,'out')"/>
                <use id="reset" xlink:href="#resetDef" x="30" y="36" onmousedown="handleReset()"/>
                <g id="arrowUp" xlink:href="#dirArrow" transform="translate(30 24)" onmousedown="handlePan(0,-1)">
                  <use xlink:href="#rim" fill="#404040">
                        <set attributeName="fill" to="#808080" begin="arrowUp.mouseover" end="arrowUp.mouseout"/>
                  </use>
                  <path fill="none" stroke="white" stroke-width="1.5" d="M0,-3.0v7 M-2.5,-0.5L0,-3.0L2.5,-0.5"/>
                </g>
                <g id="arrowRight" xlink:href="#dirArrow" transform="rotate(90) translate(36 -43)" onmousedown="handlePan(1,0)">
                  <use xlink:href="#rim" fill="#404040">
                        <set attributeName="fill" to="#808080" begin="arrowRight.mouseover" end="arrowRight.mouseout"/>
                  </use>
                  <path fill="none" stroke="white" stroke-width="1.5" d="M0,-3.0v7 M-2.5,-0.5L0,-3.0L2.5,-0.5"/>
                </g>
                <g id="arrowDown" xlink:href="#dirArrow" transform="rotate(180) translate(-30 -48)" onmousedown="handlePan(0,1)">
                  <use xlink:href="#rim" fill="#404040">
                        <set attributeName="fill" to="#808080" begin="arrowDown.mouseover" end="arrowDown.mouseout"/>
                  </use>
                  <path fill="none" stroke="white" stroke-width="1.5" d="M0,-3.0v7 M-2.5,-0.5L0,-3.0L2.5,-0.5"/>
                </g>
                <g id="arrowLeft" xlink:href="#dirArrow" transform="rotate(270) translate(-36 17)" onmousedown="handlePan(-1,0)">
                  <use xlink:href="#rim" fill="#404040">
                        <set attributeName="fill" to="#808080" begin="arrowLeft.mouseover" end="arrowLeft.mouseout"/>
                  </use>
                  <path fill="none" stroke="white" stroke-width="1.5" d="M0,-3.0v7 M-2.5,-0.5L0,-3.0L2.5,-0.5"/>
                </g>
        </g>
        <svg viewBox="0 0 15 15" width="100%" height="30px" preserveAspectRatio="xMaxYMin meet">
         <g id="arrow_out" transform="scale(0.3 0.3)">
          <a xlink:href="_f_a_t_file_system_8h__incl_org.svg" target="_base">
           <rect id="button" ry="5" rx="5" y="6" x="6" height="38" width="38"
                fill="#f2f5e9" fill-opacity="0.5" stroke="#606060" stroke-width="1.0"/>
           <path id="arrow"
             d="M 11.500037,31.436501 C 11.940474,20.09759 22.043105,11.32322 32.158766,21.979434 L 37.068811,17.246167 C 37.068811,17.246167 37.088388,32 37.088388,32 L 22.160133,31.978069 C 22.160133,31.978069 26.997745,27.140456 26.997745,27.140456 C 18.528582,18.264221 13.291696,25.230495 11.500037,31.436501 z"
             style="fill:#404040;"/>
          </a>
         </g>
        </svg>
</svg>
