<?xml version="1.0" encoding="UTF-8" standalone="no"?>
<!DOCTYPE svg PUBLIC "-//W3C//DTD SVG 1.1//EN"
 "http://www.w3.org/Graphics/SVG/1.1/DTD/svg11.dtd">
<!-- Generated by graphviz version 2.38.0 (20140413.2041)
 -->
<!-- Title: lib/carpi/lib/SDFileSystem/FATFileSystem/FATFileHandle.cpp Pages: 1 -->
<svg width="339pt" height="151pt"
 viewBox="0.00 0.00 338.50 151.00" xmlns="http://www.w3.org/2000/svg" xmlns:xlink="http://www.w3.org/1999/xlink">
<g id="graph0" class="graph" transform="scale(1 1) rotate(0) translate(4 147)">
<title>lib/carpi/lib/SDFileSystem/FATFileSystem/FATFileHandle.cpp</title>
<polygon fill="white" stroke="none" points="-4,4 -4,-147 334.5,-147 334.5,4 -4,4"/>
<!-- Node1 -->
<g id="node1" class="node"><title>Node1</title>
<polygon fill="#bfbfbf" stroke="black" points="90,-112.5 90,-142.5 265,-142.5 265,-112.5 90,-112.5"/>
<text text-anchor="start" x="98" y="-130.5" font-family="Helvetica,sans-Serif" font-size="10.00">lib/carpi/lib/SDFileSystem</text>
<text text-anchor="middle" x="177.5" y="-119.5" font-family="Helvetica,sans-Serif" font-size="10.00">/FATFileSystem/FATFileHandle.cpp</text>
</g>
<!-- Node2 -->
<g id="node2" class="node"><title>Node2</title>
<g id="a_node2"><a xlink:href="ff_8h.html" target="_top" xlink:title="ff.h">
<polygon fill="white" stroke="black" points="82.5,-56.5 82.5,-75.5 114.5,-75.5 114.5,-56.5 82.5,-56.5"/>
<text text-anchor="middle" x="98.5" y="-63.5" font-family="Helvetica,sans-Serif" font-size="10.00">ff.h</text>
</a>
</g>
</g>
<!-- Node1&#45;&gt;Node2 -->
<g id="edge1" class="edge"><title>Node1&#45;&gt;Node2</title>
<path fill="none" stroke="midnightblue" d="M158.778,-112.399C146.588,-103.218 130.708,-91.2579 118.307,-81.9182"/>
<polygon fill="midnightblue" stroke="midnightblue" points="120.089,-78.8782 109.995,-75.6578 115.877,-84.4697 120.089,-78.8782"/>
</g>
<!-- Node4 -->
<g id="node4" class="node"><title>Node4</title>
<g id="a_node4"><a xlink:href="ffconf_8h.html" target="_top" xlink:title="ffconf.h">
<polygon fill="white" stroke="black" points="0,-0.5 0,-19.5 51,-19.5 51,-0.5 0,-0.5"/>
<text text-anchor="middle" x="25.5" y="-7.5" font-family="Helvetica,sans-Serif" font-size="10.00">ffconf.h</text>
</a>
</g>
</g>
<!-- Node1&#45;&gt;Node4 -->
<g id="edge6" class="edge"><title>Node1&#45;&gt;Node4</title>
<path fill="none" stroke="midnightblue" d="M137.578,-112.444C117.036,-103.954 92.4102,-91.715 73.5,-76 57.3706,-62.5959 43.71,-42.6799 35.1355,-28.429"/>
<polygon fill="midnightblue" stroke="midnightblue" points="38.0777,-26.5251 30.044,-19.6177 32.0168,-30.0273 38.0777,-26.5251"/>
</g>
<!-- Node6 -->
<g id="node6" class="node"><title>Node6</title>
<polygon fill="white" stroke="#bfbfbf" points="133,-56.5 133,-75.5 222,-75.5 222,-56.5 133,-56.5"/>
<text text-anchor="middle" x="177.5" y="-63.5" font-family="Helvetica,sans-Serif" font-size="10.00">mbed_debug.h</text>
</g>
<!-- Node1&#45;&gt;Node6 -->
<g id="edge7" class="edge"><title>Node1&#45;&gt;Node6</title>
<path fill="none" stroke="midnightblue" d="M177.5,-112.399C177.5,-104.466 177.5,-94.458 177.5,-85.8583"/>
<polygon fill="midnightblue" stroke="midnightblue" points="181,-85.6577 177.5,-75.6578 174,-85.6578 181,-85.6577"/>
</g>
<!-- Node7 -->
<g id="node7" class="node"><title>Node7</title>
<g id="a_node7"><a xlink:href="_f_a_t_file_handle_8h.html" target="_top" xlink:title="FATFileHandle.h">
<polygon fill="white" stroke="black" points="240.5,-56.5 240.5,-75.5 330.5,-75.5 330.5,-56.5 240.5,-56.5"/>
<text text-anchor="middle" x="285.5" y="-63.5" font-family="Helvetica,sans-Serif" font-size="10.00">FATFileHandle.h</text>
</a>
</g>
</g>
<!-- Node1&#45;&gt;Node7 -->
<g id="edge8" class="edge"><title>Node1&#45;&gt;Node7</title>
<path fill="none" stroke="midnightblue" d="M197.255,-112.399C213.717,-102.639 237.177,-89.7373 255.855,-80.1826"/>
<polygon fill="midnightblue" stroke="midnightblue" points="257.493,-83.2765 264.856,-75.6578 254.349,-77.0223 257.493,-83.2765"/>
</g>
<!-- Node3 -->
<g id="node3" class="node"><title>Node3</title>
<g id="a_node3"><a xlink:href="integer_8h.html" target="_top" xlink:title="integer.h">
<polygon fill="white" stroke="black" points="69,-0.5 69,-19.5 128,-19.5 128,-0.5 69,-0.5"/>
<text text-anchor="middle" x="98.5" y="-7.5" font-family="Helvetica,sans-Serif" font-size="10.00">integer.h</text>
</a>
</g>
</g>
<!-- Node2&#45;&gt;Node3 -->
<g id="edge2" class="edge"><title>Node2&#45;&gt;Node3</title>
<path fill="none" stroke="midnightblue" d="M98.5,-56.083C98.5,-49.0059 98.5,-38.8611 98.5,-29.9865"/>
<polygon fill="midnightblue" stroke="midnightblue" points="102,-29.751 98.5,-19.7511 95.0001,-29.7511 102,-29.751"/>
</g>
<!-- Node2&#45;&gt;Node4 -->
<g id="edge3" class="edge"><title>Node2&#45;&gt;Node4</title>
<path fill="none" stroke="midnightblue" d="M86.7713,-56.324C75.6626,-48.1066 58.7578,-35.6017 45.5167,-25.8069"/>
<polygon fill="midnightblue" stroke="midnightblue" points="47.5631,-22.9671 37.4421,-19.8339 43.4001,-28.5948 47.5631,-22.9671"/>
</g>
<!-- Node5 -->
<g id="node5" class="node"><title>Node5</title>
<g id="a_node5"><a xlink:href="ccsbcs_8cpp.html" target="_top" xlink:title="ccsbcs.cpp">
<polygon fill="white" stroke="black" points="146,-0.5 146,-19.5 215,-19.5 215,-0.5 146,-0.5"/>
<text text-anchor="middle" x="180.5" y="-7.5" font-family="Helvetica,sans-Serif" font-size="10.00">ccsbcs.cpp</text>
</a>
</g>
</g>
<!-- Node2&#45;&gt;Node5 -->
<g id="edge4" class="edge"><title>Node2&#45;&gt;Node5</title>
<path fill="none" stroke="midnightblue" d="M106.56,-56.324C117.63,-47.8215 137.225,-34.7288 153.574,-24.7975"/>
<polygon fill="midnightblue" stroke="midnightblue" points="155.431,-27.7653 162.248,-19.6545 151.861,-21.7441 155.431,-27.7653"/>
</g>
<!-- Node5&#45;&gt;Node2 -->
<g id="edge5" class="edge"><title>Node5&#45;&gt;Node2</title>
<path fill="none" stroke="midnightblue" d="M172.654,-19.5118C161.208,-28.3294 140.38,-42.2085 123.58,-52.3186"/>
<polygon fill="midnightblue" stroke="midnightblue" points="121.607,-49.418 114.747,-57.4915 125.145,-55.4585 121.607,-49.418"/>
</g>
<!-- Node7&#45;&gt;Node1 -->
<g id="edge10" class="edge"><title>Node7&#45;&gt;Node1</title>
<path fill="none" stroke="midnightblue" d="M274.714,-75.6578C261.352,-84.0091 238.373,-96.9264 218.044,-107.651"/>
<polygon fill="midnightblue" stroke="midnightblue" points="216.184,-104.673 208.934,-112.399 219.42,-110.88 216.184,-104.673"/>
</g>
<!-- Node8 -->
<g id="node8" class="node"><title>Node8</title>
<polygon fill="white" stroke="#bfbfbf" points="248.5,-0.5 248.5,-19.5 322.5,-19.5 322.5,-0.5 248.5,-0.5"/>
<text text-anchor="middle" x="285.5" y="-7.5" font-family="Helvetica,sans-Serif" font-size="10.00">FileHandle.h</text>
</g>
<!-- Node7&#45;&gt;Node8 -->
<g id="edge9" class="edge"><title>Node7&#45;&gt;Node8</title>
<path fill="none" stroke="midnightblue" d="M285.5,-56.083C285.5,-49.0059 285.5,-38.8611 285.5,-29.9865"/>
<polygon fill="midnightblue" stroke="midnightblue" points="289,-29.751 285.5,-19.7511 282,-29.7511 289,-29.751"/>
</g>
</g>
</svg>
