<?xml version="1.0" encoding="UTF-8" standalone="no"?>
<!DOCTYPE svg PUBLIC "-//W3C//DTD SVG 1.1//EN"
 "http://www.w3.org/Graphics/SVG/1.1/DTD/svg11.dtd">
<!-- Generated by graphviz version 2.38.0 (20140413.2041)
 -->
<!-- Title: lib/carpi/lib/SDFileSystem/FATFileSystem/FATFileSystem.cpp Pages: 1 -->
<!--zoomable 319 -->
<svg id="main" version="1.1" xmlns="http://www.w3.org/2000/svg" xmlns:xlink="http://www.w3.org/1999/xlink" xml:space="preserve" onload="init(evt)">
<style type="text/css"><![CDATA[
.edge:hover path { stroke: red; }
.edge:hover polygon { stroke: red; fill: red; }
]]></style>
<script type="text/javascript"><![CDATA[
var edges = document.getElementsByTagName('g');
if (edges && edges.length) {
  for (var i=0;i<edges.length;i++) {
    if (edges[i].id.substr(0,4)=='edge') {
      edges[i].setAttribute('class','edge');
    }
  }
}
]]></script>
        <defs>
                <circle id="rim" cx="0" cy="0" r="7"/>
                <circle id="rim2" cx="0" cy="0" r="3.5"/>
                <g id="zoomPlus">
                        <use xlink:href="#rim" fill="#404040">
                                <set attributeName="fill" to="#808080" begin="zoomplus.mouseover" end="zoomplus.mouseout"/>
                        </use>
                        <path d="M-4,0h8M0,-4v8" fill="none" stroke="white" stroke-width="1.5" pointer-events="none"/>
                </g>
                <g id="zoomMin">
                        <use xlink:href="#rim" fill="#404040">
                                <set attributeName="fill" to="#808080" begin="zoomminus.mouseover" end="zoomminus.mouseout"/>
                        </use>
                        <path d="M-4,0h8" fill="none" stroke="white" stroke-width="1.5" pointer-events="none"/>
                </g>
                <g id="dirArrow">
                        <path fill="none" stroke="white" stroke-width="1.5" d="M0,-3.0v7 M-2.5,-0.5L0,-3.0L2.5,-0.5"/>
                </g>
               <g id="resetDef">
                       <use xlink:href="#rim2" fill="#404040">
                               <set attributeName="fill" to="#808080" begin="reset.mouseover" end="reset.mouseout"/>
                       </use>
               </g>
        </defs>

<script type="text/javascript">
var viewWidth = 873;
var viewHeight = 319;
var sectionId = 'dynsection-0';
</script>
<script xlink:href="svgpan.js"/>
<svg id="graph" class="graph">
<g id="viewport">
<title>lib/carpi/lib/SDFileSystem/FATFileSystem/FATFileSystem.cpp</title>
<polygon fill="white" stroke="none" points="-4,4 -4,-315 868.5,-315 868.5,4 -4,4"/>
<!-- Node1 -->
<g id="node1" class="node"><title>Node1</title>
<polygon fill="#bfbfbf" stroke="black" points="318.5,-280.5 318.5,-310.5 496.5,-310.5 496.5,-280.5 318.5,-280.5"/>
<text text-anchor="start" x="326.5" y="-298.5" font-family="Helvetica,sans-Serif" font-size="10.00">lib/carpi/lib/SDFileSystem</text>
<text text-anchor="middle" x="407.5" y="-287.5" font-family="Helvetica,sans-Serif" font-size="10.00">/FATFileSystem/FATFileSystem.cpp</text>
</g>
<!-- Node2 -->
<g id="node2" class="node"><title>Node2</title>
<polygon fill="white" stroke="#bfbfbf" points="0,-224.5 0,-243.5 53,-243.5 53,-224.5 0,-224.5"/>
<text text-anchor="middle" x="26.5" y="-231.5" font-family="Helvetica,sans-Serif" font-size="10.00">mbed.h</text>
</g>
<!-- Node1&#45;&gt;Node2 -->
<g id="edge1" class="edge"><title>Node1&#45;&gt;Node2</title>
<path fill="none" stroke="midnightblue" d="M318.455,-282.976C249.704,-273.668 152.31,-259.588 67.5,-244 66.2099,-243.763 64.8984,-243.515 63.5751,-243.258"/>
<polygon fill="midnightblue" stroke="midnightblue" points="63.8509,-239.742 53.3529,-241.171 62.4507,-246.601 63.8509,-239.742"/>
</g>
<!-- Node3 -->
<g id="node3" class="node"><title>Node3</title>
<g id="a_node3"><a xlink:href="ffconf_8h.html" target="_top" xlink:title="ffconf.h">
<polygon fill="white" stroke="black" points="135,-56.5 135,-75.5 186,-75.5 186,-56.5 135,-56.5"/>
<text text-anchor="middle" x="160.5" y="-63.5" font-family="Helvetica,sans-Serif" font-size="10.00">ffconf.h</text>
</a>
</g>
</g>
<!-- Node1&#45;&gt;Node3 -->
<g id="edge2" class="edge"><title>Node1&#45;&gt;Node3</title>
<path fill="none" stroke="midnightblue" d="M318.29,-288.403C269.208,-282.153 208.507,-269.52 159.5,-244 121.573,-224.25 89.1758,-209.235 100.5,-168 109.452,-135.402 131.965,-102.676 146.725,-83.653"/>
<polygon fill="midnightblue" stroke="midnightblue" points="149.568,-85.7007 153.069,-75.701 144.097,-81.3349 149.568,-85.7007"/>
</g>
<!-- Node4 -->
<g id="node4" class="node"><title>Node4</title>
<polygon fill="white" stroke="#bfbfbf" points="517,-0.5 517,-19.5 606,-19.5 606,-0.5 517,-0.5"/>
<text text-anchor="middle" x="561.5" y="-7.5" font-family="Helvetica,sans-Serif" font-size="10.00">mbed_debug.h</text>
</g>
<!-- Node1&#45;&gt;Node4 -->
<g id="edge3" class="edge"><title>Node1&#45;&gt;Node4</title>
<path fill="none" stroke="midnightblue" d="M496.699,-290.022C629.694,-280.871 864.5,-254.084 864.5,-179 864.5,-179 864.5,-179 864.5,-121 864.5,-68.783 703.495,-34.2426 616.215,-19.3546"/>
<polygon fill="midnightblue" stroke="midnightblue" points="616.649,-15.8788 606.209,-17.6787 615.493,-22.7826 616.649,-15.8788"/>
</g>
<!-- Node5 -->
<g id="node5" class="node"><title>Node5</title>
<g id="a_node5"><a xlink:href="_f_a_t_file_system_8h.html" target="_top" xlink:title="FATFileSystem.h">
<polygon fill="white" stroke="black" points="361,-224.5 361,-243.5 454,-243.5 454,-224.5 361,-224.5"/>
<text text-anchor="middle" x="407.5" y="-231.5" font-family="Helvetica,sans-Serif" font-size="10.00">FATFileSystem.h</text>
</a>
</g>
</g>
<!-- Node1&#45;&gt;Node5 -->
<g id="edge4" class="edge"><title>Node1&#45;&gt;Node5</title>
<path fill="none" stroke="midnightblue" d="M401.66,-280.399C400.63,-272.377 400.474,-262.233 401.193,-253.569"/>
<polygon fill="midnightblue" stroke="midnightblue" points="404.66,-254.044 402.571,-243.658 397.727,-253.081 404.66,-254.044"/>
</g>
<!-- Node15 -->
<g id="node15" class="node"><title>Node15</title>
<g id="a_node15"><a xlink:href="_f_a_t_file_handle_8h.html" target="_top" xlink:title="FATFileHandle.h">
<polygon fill="white" stroke="black" points="168.5,-224.5 168.5,-243.5 258.5,-243.5 258.5,-224.5 168.5,-224.5"/>
<text text-anchor="middle" x="213.5" y="-231.5" font-family="Helvetica,sans-Serif" font-size="10.00">FATFileHandle.h</text>
</a>
</g>
</g>
<!-- Node1&#45;&gt;Node15 -->
<g id="edge22" class="edge"><title>Node1&#45;&gt;Node15</title>
<path fill="none" stroke="midnightblue" d="M361.525,-280.399C327.857,-270.073 282.723,-256.231 251.178,-246.556"/>
<polygon fill="midnightblue" stroke="midnightblue" points="252.032,-243.157 241.446,-243.571 249.98,-249.849 252.032,-243.157"/>
</g>
<!-- Node17 -->
<g id="node17" class="node"><title>Node17</title>
<g id="a_node17"><a xlink:href="_f_a_t_dir_handle_8h.html" target="_top" xlink:title="FATDirHandle.h">
<polygon fill="white" stroke="black" points="650,-224.5 650,-243.5 739,-243.5 739,-224.5 650,-224.5"/>
<text text-anchor="middle" x="694.5" y="-231.5" font-family="Helvetica,sans-Serif" font-size="10.00">FATDirHandle.h</text>
</a>
</g>
</g>
<!-- Node1&#45;&gt;Node17 -->
<g id="edge29" class="edge"><title>Node1&#45;&gt;Node17</title>
<path fill="none" stroke="midnightblue" d="M475.152,-280.475C526.719,-269.784 596.625,-255.291 643.532,-245.567"/>
<polygon fill="midnightblue" stroke="midnightblue" points="644.388,-248.964 653.469,-243.506 642.967,-242.109 644.388,-248.964"/>
</g>
<!-- Node5&#45;&gt;Node1 -->
<g id="edge13" class="edge"><title>Node5&#45;&gt;Node1</title>
<path fill="none" stroke="midnightblue" d="M412.429,-243.658C413.935,-250.655 414.507,-260.857 414.145,-270.289"/>
<polygon fill="midnightblue" stroke="midnightblue" points="410.645,-270.153 413.34,-280.399 417.623,-270.709 410.645,-270.153"/>
</g>
<!-- Node6 -->
<g id="node6" class="node"><title>Node6</title>
<polygon fill="white" stroke="#bfbfbf" points="359.5,-168.5 359.5,-187.5 455.5,-187.5 455.5,-168.5 359.5,-168.5"/>
<text text-anchor="middle" x="407.5" y="-175.5" font-family="Helvetica,sans-Serif" font-size="10.00">FileSystemLike.h</text>
</g>
<!-- Node5&#45;&gt;Node6 -->
<g id="edge5" class="edge"><title>Node5&#45;&gt;Node6</title>
<path fill="none" stroke="midnightblue" d="M407.5,-224.083C407.5,-217.006 407.5,-206.861 407.5,-197.986"/>
<polygon fill="midnightblue" stroke="midnightblue" points="411,-197.751 407.5,-187.751 404,-197.751 411,-197.751"/>
</g>
<!-- Node7 -->
<g id="node7" class="node"><title>Node7</title>
<polygon fill="white" stroke="#bfbfbf" points="229.5,-168.5 229.5,-187.5 303.5,-187.5 303.5,-168.5 229.5,-168.5"/>
<text text-anchor="middle" x="266.5" y="-175.5" font-family="Helvetica,sans-Serif" font-size="10.00">FileHandle.h</text>
</g>
<!-- Node5&#45;&gt;Node7 -->
<g id="edge6" class="edge"><title>Node5&#45;&gt;Node7</title>
<path fill="none" stroke="midnightblue" d="M385.158,-224.444C361.747,-215.478 324.764,-201.314 298.31,-191.183"/>
<polygon fill="midnightblue" stroke="midnightblue" points="299.328,-187.824 288.737,-187.516 296.824,-194.361 299.328,-187.824"/>
</g>
<!-- Node8 -->
<g id="node8" class="node"><title>Node8</title>
<g id="a_node8"><a xlink:href="ff_8h.html" target="_top" xlink:title="ff.h">
<polygon fill="white" stroke="black" points="338.5,-112.5 338.5,-131.5 370.5,-131.5 370.5,-112.5 338.5,-112.5"/>
<text text-anchor="middle" x="354.5" y="-119.5" font-family="Helvetica,sans-Serif" font-size="10.00">ff.h</text>
</a>
</g>
</g>
<!-- Node5&#45;&gt;Node8 -->
<g id="edge7" class="edge"><title>Node5&#45;&gt;Node8</title>
<path fill="none" stroke="midnightblue" d="M389.418,-224.39C375.938,-216.872 358.528,-204.565 350.5,-188 343.489,-173.533 345.5,-155.085 348.674,-141.541"/>
<polygon fill="midnightblue" stroke="midnightblue" points="352.155,-142.083 351.441,-131.512 345.407,-140.221 352.155,-142.083"/>
</g>
<!-- Node11 -->
<g id="node11" class="node"><title>Node11</title>
<polygon fill="white" stroke="#bfbfbf" points="474,-168.5 474,-187.5 527,-187.5 527,-168.5 474,-168.5"/>
<text text-anchor="middle" x="500.5" y="-175.5" font-family="Helvetica,sans-Serif" font-size="10.00">stdint.h</text>
</g>
<!-- Node5&#45;&gt;Node11 -->
<g id="edge12" class="edge"><title>Node5&#45;&gt;Node11</title>
<path fill="none" stroke="midnightblue" d="M422.442,-224.324C437.085,-215.822 459.634,-202.729 476.738,-192.797"/>
<polygon fill="midnightblue" stroke="midnightblue" points="478.705,-195.703 485.595,-187.655 475.19,-189.649 478.705,-195.703"/>
</g>
<!-- Node12 -->
<g id="node12" class="node"><title>Node12</title>
<g id="a_node12"><a xlink:href="ff_8cpp.html" target="_top" xlink:title="ff.cpp">
<polygon fill="white" stroke="black" points="545,-168.5 545,-187.5 588,-187.5 588,-168.5 545,-168.5"/>
<text text-anchor="middle" x="566.5" y="-175.5" font-family="Helvetica,sans-Serif" font-size="10.00">ff.cpp</text>
</a>
</g>
</g>
<!-- Node5&#45;&gt;Node12 -->
<g id="edge14" class="edge"><title>Node5&#45;&gt;Node12</title>
<path fill="none" stroke="midnightblue" d="M432.694,-224.444C460.544,-214.985 505.426,-199.742 535.433,-189.551"/>
<polygon fill="midnightblue" stroke="midnightblue" points="536.65,-192.834 544.993,-186.304 534.399,-186.206 536.65,-192.834"/>
</g>
<!-- Node8&#45;&gt;Node3 -->
<g id="edge9" class="edge"><title>Node8&#45;&gt;Node3</title>
<path fill="none" stroke="midnightblue" d="M338.293,-116.489C307.165,-107.824 238.357,-88.6715 196.054,-76.8964"/>
<polygon fill="midnightblue" stroke="midnightblue" points="196.739,-73.454 186.166,-74.1442 194.861,-80.1977 196.739,-73.454"/>
</g>
<!-- Node9 -->
<g id="node9" class="node"><title>Node9</title>
<g id="a_node9"><a xlink:href="integer_8h.html" target="_top" xlink:title="integer.h">
<polygon fill="white" stroke="black" points="437,-56.5 437,-75.5 496,-75.5 496,-56.5 437,-56.5"/>
<text text-anchor="middle" x="466.5" y="-63.5" font-family="Helvetica,sans-Serif" font-size="10.00">integer.h</text>
</a>
</g>
</g>
<!-- Node8&#45;&gt;Node9 -->
<g id="edge8" class="edge"><title>Node8&#45;&gt;Node9</title>
<path fill="none" stroke="midnightblue" d="M370.547,-113.263C388.486,-104.614 417.838,-90.462 439.362,-80.0844"/>
<polygon fill="midnightblue" stroke="midnightblue" points="441.144,-83.111 448.631,-75.6152 438.104,-76.8056 441.144,-83.111"/>
</g>
<!-- Node10 -->
<g id="node10" class="node"><title>Node10</title>
<g id="a_node10"><a xlink:href="ccsbcs_8cpp.html" target="_top" xlink:title="ccsbcs.cpp">
<polygon fill="white" stroke="black" points="320,-56.5 320,-75.5 389,-75.5 389,-56.5 320,-56.5"/>
<text text-anchor="middle" x="354.5" y="-63.5" font-family="Helvetica,sans-Serif" font-size="10.00">ccsbcs.cpp</text>
</a>
</g>
</g>
<!-- Node8&#45;&gt;Node10 -->
<g id="edge10" class="edge"><title>Node8&#45;&gt;Node10</title>
<path fill="none" stroke="midnightblue" d="M349.334,-112.083C347.824,-104.927 347.394,-94.6353 348.042,-85.6911"/>
<polygon fill="midnightblue" stroke="midnightblue" points="351.515,-86.1262 349.369,-75.7511 344.577,-85.2002 351.515,-86.1262"/>
</g>
<!-- Node10&#45;&gt;Node8 -->
<g id="edge11" class="edge"><title>Node10&#45;&gt;Node8</title>
<path fill="none" stroke="midnightblue" d="M359.631,-75.7511C361.157,-82.8579 361.604,-93.1357 360.972,-102.101"/>
<polygon fill="midnightblue" stroke="midnightblue" points="357.493,-101.713 359.666,-112.083 364.434,-102.622 357.493,-101.713"/>
</g>
<!-- Node12&#45;&gt;Node8 -->
<g id="edge15" class="edge"><title>Node12&#45;&gt;Node8</title>
<path fill="none" stroke="midnightblue" d="M544.906,-170.384C542.085,-169.56 539.227,-168.746 536.5,-168 481.302,-152.906 416.08,-137.32 380.637,-129.037"/>
<polygon fill="midnightblue" stroke="midnightblue" points="381.17,-125.567 370.637,-126.709 379.583,-132.385 381.17,-125.567"/>
</g>
<!-- Node13 -->
<g id="node13" class="node"><title>Node13</title>
<g id="a_node13"><a xlink:href="diskio_8h.html" target="_top" xlink:title="diskio.h">
<polygon fill="white" stroke="black" points="535,-112.5 535,-131.5 588,-131.5 588,-112.5 535,-112.5"/>
<text text-anchor="middle" x="561.5" y="-119.5" font-family="Helvetica,sans-Serif" font-size="10.00">diskio.h</text>
</a>
</g>
</g>
<!-- Node12&#45;&gt;Node13 -->
<g id="edge16" class="edge"><title>Node12&#45;&gt;Node13</title>
<path fill="none" stroke="midnightblue" d="M565.674,-168.083C565.019,-161.006 564.08,-150.861 563.258,-141.986"/>
<polygon fill="midnightblue" stroke="midnightblue" points="566.717,-141.386 562.31,-131.751 559.747,-142.031 566.717,-141.386"/>
</g>
<!-- Node13&#45;&gt;Node9 -->
<g id="edge17" class="edge"><title>Node13&#45;&gt;Node9</title>
<path fill="none" stroke="midnightblue" d="M546.237,-112.324C531.279,-103.822 508.245,-90.7288 490.773,-80.7975"/>
<polygon fill="midnightblue" stroke="midnightblue" points="492.149,-77.5534 481.726,-75.6545 488.69,-83.639 492.149,-77.5534"/>
</g>
<!-- Node14 -->
<g id="node14" class="node"><title>Node14</title>
<g id="a_node14"><a xlink:href="diskio_8cpp.html" target="_top" xlink:title="diskio.cpp">
<polygon fill="white" stroke="black" points="529.5,-56.5 529.5,-75.5 593.5,-75.5 593.5,-56.5 529.5,-56.5"/>
<text text-anchor="middle" x="561.5" y="-63.5" font-family="Helvetica,sans-Serif" font-size="10.00">diskio.cpp</text>
</a>
</g>
</g>
<!-- Node13&#45;&gt;Node14 -->
<g id="edge18" class="edge"><title>Node13&#45;&gt;Node14</title>
<path fill="none" stroke="midnightblue" d="M556.334,-112.083C554.824,-104.927 554.394,-94.6353 555.042,-85.6911"/>
<polygon fill="midnightblue" stroke="midnightblue" points="558.515,-86.1262 556.369,-75.7511 551.577,-85.2002 558.515,-86.1262"/>
</g>
<!-- Node14&#45;&gt;Node4 -->
<g id="edge20" class="edge"><title>Node14&#45;&gt;Node4</title>
<path fill="none" stroke="midnightblue" d="M561.5,-56.083C561.5,-49.0059 561.5,-38.8611 561.5,-29.9865"/>
<polygon fill="midnightblue" stroke="midnightblue" points="565,-29.751 561.5,-19.7511 558,-29.7511 565,-29.751"/>
</g>
<!-- Node14&#45;&gt;Node5 -->
<g id="edge21" class="edge"><title>Node14&#45;&gt;Node5</title>
<path fill="none" stroke="midnightblue" d="M571.662,-75.8145C580.408,-84.1298 592.4,-97.461 597.5,-112 608.681,-143.874 618.452,-161.506 597.5,-188 581.074,-208.771 513.929,-220.95 464.091,-227.288"/>
<polygon fill="midnightblue" stroke="midnightblue" points="463.56,-223.826 454.059,-228.515 464.41,-230.775 463.56,-223.826"/>
</g>
<!-- Node14&#45;&gt;Node13 -->
<g id="edge19" class="edge"><title>Node14&#45;&gt;Node13</title>
<path fill="none" stroke="midnightblue" d="M566.631,-75.7511C568.157,-82.8579 568.604,-93.1357 567.972,-102.101"/>
<polygon fill="midnightblue" stroke="midnightblue" points="564.493,-101.713 566.666,-112.083 571.434,-102.622 564.493,-101.713"/>
</g>
<!-- Node15&#45;&gt;Node7 -->
<g id="edge23" class="edge"><title>Node15&#45;&gt;Node7</title>
<path fill="none" stroke="midnightblue" d="M222.252,-224.083C229.97,-216.22 241.405,-204.569 250.717,-195.081"/>
<polygon fill="midnightblue" stroke="midnightblue" points="253.404,-197.34 257.911,-187.751 248.408,-192.436 253.404,-197.34"/>
</g>
<!-- Node16 -->
<g id="node16" class="node"><title>Node16</title>
<g id="a_node16"><a xlink:href="_f_a_t_file_handle_8cpp.html" target="_top" xlink:title="FATFileHandle.cpp">
<polygon fill="white" stroke="black" points="110,-168.5 110,-187.5 211,-187.5 211,-168.5 110,-168.5"/>
<text text-anchor="middle" x="160.5" y="-175.5" font-family="Helvetica,sans-Serif" font-size="10.00">FATFileHandle.cpp</text>
</a>
</g>
</g>
<!-- Node15&#45;&gt;Node16 -->
<g id="edge24" class="edge"><title>Node15&#45;&gt;Node16</title>
<path fill="none" stroke="midnightblue" d="M199.87,-224.324C190.588,-216.576 178.856,-205.017 170.43,-195.511"/>
<polygon fill="midnightblue" stroke="midnightblue" points="173.117,-193.268 164.022,-187.834 167.743,-197.754 173.117,-193.268"/>
</g>
<!-- Node16&#45;&gt;Node3 -->
<g id="edge26" class="edge"><title>Node16&#45;&gt;Node3</title>
<path fill="none" stroke="midnightblue" d="M160.5,-168.368C160.5,-150.617 160.5,-109.666 160.5,-85.5974"/>
<polygon fill="midnightblue" stroke="midnightblue" points="164,-85.5914 160.5,-75.5914 157,-85.5915 164,-85.5914"/>
</g>
<!-- Node16&#45;&gt;Node4 -->
<g id="edge27" class="edge"><title>Node16&#45;&gt;Node4</title>
<path fill="none" stroke="midnightblue" d="M168.255,-168.23C188.878,-145.527 247.796,-84.6131 310.5,-56 373.935,-27.0536 454.322,-16.6917 506.791,-13.0033"/>
<polygon fill="midnightblue" stroke="midnightblue" points="507.146,-16.4878 516.899,-12.3511 506.695,-9.50234 507.146,-16.4878"/>
</g>
<!-- Node16&#45;&gt;Node8 -->
<g id="edge25" class="edge"><title>Node16&#45;&gt;Node8</title>
<path fill="none" stroke="midnightblue" d="M191.24,-168.444C229.098,-157.906 292.752,-140.188 328.363,-130.275"/>
<polygon fill="midnightblue" stroke="midnightblue" points="329.759,-133.52 338.455,-127.466 327.882,-126.776 329.759,-133.52"/>
</g>
<!-- Node16&#45;&gt;Node15 -->
<g id="edge28" class="edge"><title>Node16&#45;&gt;Node15</title>
<path fill="none" stroke="midnightblue" d="M174.22,-187.751C183.375,-195.405 194.889,-206.736 203.264,-216.144"/>
<polygon fill="midnightblue" stroke="midnightblue" points="200.81,-218.665 209.914,-224.083 206.176,-214.17 200.81,-218.665"/>
</g>
<!-- Node18 -->
<g id="node18" class="node"><title>Node18</title>
<polygon fill="white" stroke="#bfbfbf" points="763,-168.5 763,-187.5 836,-187.5 836,-168.5 763,-168.5"/>
<text text-anchor="middle" x="799.5" y="-175.5" font-family="Helvetica,sans-Serif" font-size="10.00">DirHandle.h</text>
</g>
<!-- Node17&#45;&gt;Node18 -->
<g id="edge30" class="edge"><title>Node17&#45;&gt;Node18</title>
<path fill="none" stroke="midnightblue" d="M711.37,-224.324C728.209,-215.664 754.307,-202.242 773.738,-192.249"/>
<polygon fill="midnightblue" stroke="midnightblue" points="775.38,-195.341 782.672,-187.655 772.178,-189.116 775.38,-195.341"/>
</g>
<!-- Node19 -->
<g id="node19" class="node"><title>Node19</title>
<g id="a_node19"><a xlink:href="_f_a_t_dir_handle_8cpp.html" target="_top" xlink:title="FATDirHandle.cpp">
<polygon fill="white" stroke="black" points="644.5,-168.5 644.5,-187.5 744.5,-187.5 744.5,-168.5 644.5,-168.5"/>
<text text-anchor="middle" x="694.5" y="-175.5" font-family="Helvetica,sans-Serif" font-size="10.00">FATDirHandle.cpp</text>
</a>
</g>
</g>
<!-- Node17&#45;&gt;Node19 -->
<g id="edge31" class="edge"><title>Node17&#45;&gt;Node19</title>
<path fill="none" stroke="midnightblue" d="M689.334,-224.083C687.824,-216.927 687.394,-206.635 688.042,-197.691"/>
<polygon fill="midnightblue" stroke="midnightblue" points="691.515,-198.126 689.369,-187.751 684.577,-197.2 691.515,-198.126"/>
</g>
<!-- Node19&#45;&gt;Node8 -->
<g id="edge33" class="edge"><title>Node19&#45;&gt;Node8</title>
<path fill="none" stroke="midnightblue" d="M644.332,-169.032C570.926,-157.374 436.871,-136.082 380.533,-127.135"/>
<polygon fill="midnightblue" stroke="midnightblue" points="381.07,-123.676 370.645,-125.564 379.972,-130.59 381.07,-123.676"/>
</g>
<!-- Node19&#45;&gt;Node17 -->
<g id="edge34" class="edge"><title>Node19&#45;&gt;Node17</title>
<path fill="none" stroke="midnightblue" d="M699.631,-187.751C701.157,-194.858 701.604,-205.136 700.972,-214.101"/>
<polygon fill="midnightblue" stroke="midnightblue" points="697.493,-213.713 699.666,-224.083 704.434,-214.622 697.493,-213.713"/>
</g>
<!-- Node20 -->
<g id="node20" class="node"><title>Node20</title>
<polygon fill="white" stroke="#bfbfbf" points="668,-112.5 668,-131.5 721,-131.5 721,-112.5 668,-112.5"/>
<text text-anchor="middle" x="694.5" y="-119.5" font-family="Helvetica,sans-Serif" font-size="10.00">string.h</text>
</g>
<!-- Node19&#45;&gt;Node20 -->
<g id="edge32" class="edge"><title>Node19&#45;&gt;Node20</title>
<path fill="none" stroke="midnightblue" d="M694.5,-168.083C694.5,-161.006 694.5,-150.861 694.5,-141.986"/>
<polygon fill="midnightblue" stroke="midnightblue" points="698,-141.751 694.5,-131.751 691,-141.751 698,-141.751"/>
</g>
</g>
</svg>
        <g id="navigator" transform="translate(0 0)" fill="#404254">
                <rect fill="#f2f5e9" fill-opacity="0.5" stroke="#606060" stroke-width=".5" x="0" y="0" width="60" height="60"/>
                <use id="zoomplus" xlink:href="#zoomPlus" x="17" y="9" onmousedown="handleZoom(evt,'in')"/>
                <use id="zoomminus" xlink:href="#zoomMin" x="42" y="9" onmousedown="handleZoom(evt,'out')"/>
                <use id="reset" xlink:href="#resetDef" x="30" y="36" onmousedown="handleReset()"/>
                <g id="arrowUp" xlink:href="#dirArrow" transform="translate(30 24)" onmousedown="handlePan(0,-1)">
                  <use xlink:href="#rim" fill="#404040">
                        <set attributeName="fill" to="#808080" begin="arrowUp.mouseover" end="arrowUp.mouseout"/>
                  </use>
                  <path fill="none" stroke="white" stroke-width="1.5" d="M0,-3.0v7 M-2.5,-0.5L0,-3.0L2.5,-0.5"/>
                </g>
                <g id="arrowRight" xlink:href="#dirArrow" transform="rotate(90) translate(36 -43)" onmousedown="handlePan(1,0)">
                  <use xlink:href="#rim" fill="#404040">
                        <set attributeName="fill" to="#808080" begin="arrowRight.mouseover" end="arrowRight.mouseout"/>
                  </use>
                  <path fill="none" stroke="white" stroke-width="1.5" d="M0,-3.0v7 M-2.5,-0.5L0,-3.0L2.5,-0.5"/>
                </g>
                <g id="arrowDown" xlink:href="#dirArrow" transform="rotate(180) translate(-30 -48)" onmousedown="handlePan(0,1)">
                  <use xlink:href="#rim" fill="#404040">
                        <set attributeName="fill" to="#808080" begin="arrowDown.mouseover" end="arrowDown.mouseout"/>
                  </use>
                  <path fill="none" stroke="white" stroke-width="1.5" d="M0,-3.0v7 M-2.5,-0.5L0,-3.0L2.5,-0.5"/>
                </g>
                <g id="arrowLeft" xlink:href="#dirArrow" transform="rotate(270) translate(-36 17)" onmousedown="handlePan(-1,0)">
                  <use xlink:href="#rim" fill="#404040">
                        <set attributeName="fill" to="#808080" begin="arrowLeft.mouseover" end="arrowLeft.mouseout"/>
                  </use>
                  <path fill="none" stroke="white" stroke-width="1.5" d="M0,-3.0v7 M-2.5,-0.5L0,-3.0L2.5,-0.5"/>
                </g>
        </g>
        <svg viewBox="0 0 15 15" width="100%" height="30px" preserveAspectRatio="xMaxYMin meet">
         <g id="arrow_out" transform="scale(0.3 0.3)">
          <a xlink:href="_f_a_t_file_system_8cpp__incl_org.svg" target="_base">
           <rect id="button" ry="5" rx="5" y="6" x="6" height="38" width="38"
                fill="#f2f5e9" fill-opacity="0.5" stroke="#606060" stroke-width="1.0"/>
           <path id="arrow"
             d="M 11.500037,31.436501 C 11.940474,20.09759 22.043105,11.32322 32.158766,21.979434 L 37.068811,17.246167 C 37.068811,17.246167 37.088388,32 37.088388,32 L 22.160133,31.978069 C 22.160133,31.978069 26.997745,27.140456 26.997745,27.140456 C 18.528582,18.264221 13.291696,25.230495 11.500037,31.436501 z"
             style="fill:#404040;"/>
          </a>
         </g>
        </svg>
</svg>
