<?xml version="1.0" encoding="UTF-8" standalone="no"?>
<!DOCTYPE svg PUBLIC "-//W3C//DTD SVG 1.1//EN"
 "http://www.w3.org/Graphics/SVG/1.1/DTD/svg11.dtd">
<!-- Generated by graphviz version 2.38.0 (20140413.2041)
 -->
<!-- Title: lib/carpi/lib/SDFileSystem/FATFileSystem/FATDirHandle.h Pages: 1 -->
<svg width="253pt" height="207pt"
 viewBox="0.00 0.00 253.00 207.00" xmlns="http://www.w3.org/2000/svg" xmlns:xlink="http://www.w3.org/1999/xlink">
<g id="graph0" class="graph" transform="scale(1 1) rotate(0) translate(4 203)">
<title>lib/carpi/lib/SDFileSystem/FATFileSystem/FATDirHandle.h</title>
<polygon fill="white" stroke="none" points="-4,4 -4,-203 249,-203 249,4 -4,4"/>
<!-- Node1 -->
<g id="node1" class="node"><title>Node1</title>
<polygon fill="#bfbfbf" stroke="black" points="60.5,-168.5 60.5,-198.5 222.5,-198.5 222.5,-168.5 60.5,-168.5"/>
<text text-anchor="start" x="68.5" y="-186.5" font-family="Helvetica,sans-Serif" font-size="10.00">lib/carpi/lib/SDFileSystem</text>
<text text-anchor="middle" x="141.5" y="-175.5" font-family="Helvetica,sans-Serif" font-size="10.00">/FATFileSystem/FATDirHandle.h</text>
</g>
<!-- Node2 -->
<g id="node2" class="node"><title>Node2</title>
<polygon fill="white" stroke="#bfbfbf" points="0,-112.5 0,-131.5 73,-131.5 73,-112.5 0,-112.5"/>
<text text-anchor="middle" x="36.5" y="-119.5" font-family="Helvetica,sans-Serif" font-size="10.00">DirHandle.h</text>
</g>
<!-- Node1&#45;&gt;Node2 -->
<g id="edge1" class="edge"><title>Node1&#45;&gt;Node2</title>
<path fill="none" stroke="midnightblue" d="M116.616,-168.399C99.7858,-158.862 77.6614,-146.325 60.9274,-136.842"/>
<polygon fill="midnightblue" stroke="midnightblue" points="62.2042,-133.543 51.7784,-131.658 58.7531,-139.633 62.2042,-133.543"/>
</g>
<!-- Node3 -->
<g id="node3" class="node"><title>Node3</title>
<g id="a_node3"><a xlink:href="_f_a_t_dir_handle_8cpp.html" target="_top" xlink:title="FATDirHandle.cpp">
<polygon fill="white" stroke="black" points="91.5,-112.5 91.5,-131.5 191.5,-131.5 191.5,-112.5 91.5,-112.5"/>
<text text-anchor="middle" x="141.5" y="-119.5" font-family="Helvetica,sans-Serif" font-size="10.00">FATDirHandle.cpp</text>
</a>
</g>
</g>
<!-- Node1&#45;&gt;Node3 -->
<g id="edge2" class="edge"><title>Node1&#45;&gt;Node3</title>
<path fill="none" stroke="midnightblue" d="M135.66,-168.399C134.63,-160.377 134.474,-150.233 135.193,-141.569"/>
<polygon fill="midnightblue" stroke="midnightblue" points="138.66,-142.044 136.571,-131.658 131.727,-141.081 138.66,-142.044"/>
</g>
<!-- Node3&#45;&gt;Node1 -->
<g id="edge9" class="edge"><title>Node3&#45;&gt;Node1</title>
<path fill="none" stroke="midnightblue" d="M146.429,-131.658C147.935,-138.655 148.507,-148.857 148.145,-158.289"/>
<polygon fill="midnightblue" stroke="midnightblue" points="144.645,-158.153 147.34,-168.399 151.623,-158.709 144.645,-158.153"/>
</g>
<!-- Node4 -->
<g id="node4" class="node"><title>Node4</title>
<polygon fill="white" stroke="#bfbfbf" points="84,-56.5 84,-75.5 137,-75.5 137,-56.5 84,-56.5"/>
<text text-anchor="middle" x="110.5" y="-63.5" font-family="Helvetica,sans-Serif" font-size="10.00">string.h</text>
</g>
<!-- Node3&#45;&gt;Node4 -->
<g id="edge3" class="edge"><title>Node3&#45;&gt;Node4</title>
<path fill="none" stroke="midnightblue" d="M136.381,-112.083C132.092,-104.613 125.842,-93.7244 120.558,-84.5199"/>
<polygon fill="midnightblue" stroke="midnightblue" points="123.538,-82.6811 115.524,-75.7511 117.467,-86.1662 123.538,-82.6811"/>
</g>
<!-- Node5 -->
<g id="node5" class="node"><title>Node5</title>
<g id="a_node5"><a xlink:href="ff_8h.html" target="_top" xlink:title="ff.h">
<polygon fill="white" stroke="black" points="155.5,-56.5 155.5,-75.5 187.5,-75.5 187.5,-56.5 155.5,-56.5"/>
<text text-anchor="middle" x="171.5" y="-63.5" font-family="Helvetica,sans-Serif" font-size="10.00">ff.h</text>
</a>
</g>
</g>
<!-- Node3&#45;&gt;Node5 -->
<g id="edge4" class="edge"><title>Node3&#45;&gt;Node5</title>
<path fill="none" stroke="midnightblue" d="M146.454,-112.083C150.604,-104.613 156.653,-93.7244 161.767,-84.5199"/>
<polygon fill="midnightblue" stroke="midnightblue" points="164.841,-86.1924 166.638,-75.7511 158.722,-82.7929 164.841,-86.1924"/>
</g>
<!-- Node6 -->
<g id="node6" class="node"><title>Node6</title>
<g id="a_node6"><a xlink:href="integer_8h.html" target="_top" xlink:title="integer.h">
<polygon fill="white" stroke="black" points="30,-0.5 30,-19.5 89,-19.5 89,-0.5 30,-0.5"/>
<text text-anchor="middle" x="59.5" y="-7.5" font-family="Helvetica,sans-Serif" font-size="10.00">integer.h</text>
</a>
</g>
</g>
<!-- Node5&#45;&gt;Node6 -->
<g id="edge5" class="edge"><title>Node5&#45;&gt;Node6</title>
<path fill="none" stroke="midnightblue" d="M155.453,-57.2631C137.514,-48.614 108.162,-34.462 86.638,-24.0844"/>
<polygon fill="midnightblue" stroke="midnightblue" points="87.8964,-20.8056 77.3686,-19.6152 84.8563,-27.111 87.8964,-20.8056"/>
</g>
<!-- Node7 -->
<g id="node7" class="node"><title>Node7</title>
<g id="a_node7"><a xlink:href="ffconf_8h.html" target="_top" xlink:title="ffconf.h">
<polygon fill="white" stroke="black" points="107,-0.5 107,-19.5 158,-19.5 158,-0.5 107,-0.5"/>
<text text-anchor="middle" x="132.5" y="-7.5" font-family="Helvetica,sans-Serif" font-size="10.00">ffconf.h</text>
</a>
</g>
</g>
<!-- Node5&#45;&gt;Node7 -->
<g id="edge6" class="edge"><title>Node5&#45;&gt;Node7</title>
<path fill="none" stroke="midnightblue" d="M165.06,-56.083C159.551,-48.4554 151.469,-37.2645 144.735,-27.9408"/>
<polygon fill="midnightblue" stroke="midnightblue" points="147.513,-25.8087 138.82,-19.7511 141.838,-29.9071 147.513,-25.8087"/>
</g>
<!-- Node8 -->
<g id="node8" class="node"><title>Node8</title>
<g id="a_node8"><a xlink:href="ccsbcs_8cpp.html" target="_top" xlink:title="ccsbcs.cpp">
<polygon fill="white" stroke="black" points="176,-0.5 176,-19.5 245,-19.5 245,-0.5 176,-0.5"/>
<text text-anchor="middle" x="210.5" y="-7.5" font-family="Helvetica,sans-Serif" font-size="10.00">ccsbcs.cpp</text>
</a>
</g>
</g>
<!-- Node5&#45;&gt;Node8 -->
<g id="edge7" class="edge"><title>Node5&#45;&gt;Node8</title>
<path fill="none" stroke="midnightblue" d="M172.774,-56.083C176.754,-48.2982 184.692,-36.8015 192.418,-27.3665"/>
<polygon fill="midnightblue" stroke="midnightblue" points="195.122,-29.5914 199.049,-19.7511 189.843,-24.9948 195.122,-29.5914"/>
</g>
<!-- Node8&#45;&gt;Node5 -->
<g id="edge8" class="edge"><title>Node8&#45;&gt;Node5</title>
<path fill="none" stroke="midnightblue" d="M209.311,-19.7511C205.387,-27.4827 197.476,-38.9673 189.747,-48.4314"/>
<polygon fill="midnightblue" stroke="midnightblue" points="187.018,-46.2365 183.106,-56.083 192.304,-50.8246 187.018,-46.2365"/>
</g>
</g>
</svg>
