<?xml version="1.0" encoding="UTF-8" standalone="no"?>
<!DOCTYPE svg PUBLIC "-//W3C//DTD SVG 1.1//EN"
 "http://www.w3.org/Graphics/SVG/1.1/DTD/svg11.dtd">
<!-- Generated by graphviz version 2.38.0 (20140413.2041)
 -->
<!-- Title: lib/carpi/lib/SDFileSystem/FATFileSystem/FATFileSystem.h Pages: 1 -->
<svg width="714pt" height="240pt"
 viewBox="0.00 0.00 713.92 240.00" xmlns="http://www.w3.org/2000/svg" xmlns:xlink="http://www.w3.org/1999/xlink">
<g id="graph0" class="graph" transform="scale(1 1) rotate(0) translate(4 236)">
<title>lib/carpi/lib/SDFileSystem/FATFileSystem/FATFileSystem.h</title>
<polygon fill="white" stroke="none" points="-4,4 -4,-236 709.925,-236 709.925,4 -4,4"/>
<!-- Node1 -->
<g id="node1" class="node"><title>Node1</title>
<polygon fill="#bfbfbf" stroke="black" points="258,-201.5 258,-231.5 425,-231.5 425,-201.5 258,-201.5"/>
<text text-anchor="start" x="266" y="-219.5" font-family="Helvetica,sans-Serif" font-size="10.00">lib/carpi/lib/SDFileSystem</text>
<text text-anchor="middle" x="341.5" y="-208.5" font-family="Helvetica,sans-Serif" font-size="10.00">/FATFileSystem/FATFileSystem.h</text>
</g>
<!-- Node2 -->
<g id="node2" class="node"><title>Node2</title>
<g id="a_node2"><a xlink:href="diskio_8cpp.html" target="_top" xlink:title="lib/carpi/lib/SDFileSystem\l/FATFileSystem/diskio.cpp">
<polygon fill="white" stroke="black" points="0,-134.5 0,-164.5 137,-164.5 137,-134.5 0,-134.5"/>
<text text-anchor="start" x="8" y="-152.5" font-family="Helvetica,sans-Serif" font-size="10.00">lib/carpi/lib/SDFileSystem</text>
<text text-anchor="middle" x="68.5" y="-141.5" font-family="Helvetica,sans-Serif" font-size="10.00">/FATFileSystem/diskio.cpp</text>
</a>
</g>
</g>
<!-- Node1&#45;&gt;Node2 -->
<g id="edge1" class="edge"><title>Node1&#45;&gt;Node2</title>
<path fill="none" stroke="midnightblue" d="M272.698,-199.119C228.027,-188.483 170.404,-174.763 127.766,-164.611"/>
<polygon fill="midnightblue" stroke="midnightblue" points="272.06,-202.565 282.599,-201.476 273.682,-195.755 272.06,-202.565"/>
</g>
<!-- Node5 -->
<g id="node5" class="node"><title>Node5</title>
<g id="a_node5"><a xlink:href="_f_a_t_file_system_8cpp.html" target="_top" xlink:title="lib/carpi/lib/SDFileSystem\l/FATFileSystem/FATFileSystem.cpp">
<polygon fill="white" stroke="black" points="155.5,-134.5 155.5,-164.5 333.5,-164.5 333.5,-134.5 155.5,-134.5"/>
<text text-anchor="start" x="163.5" y="-152.5" font-family="Helvetica,sans-Serif" font-size="10.00">lib/carpi/lib/SDFileSystem</text>
<text text-anchor="middle" x="244.5" y="-141.5" font-family="Helvetica,sans-Serif" font-size="10.00">/FATFileSystem/FATFileSystem.cpp</text>
</a>
</g>
</g>
<!-- Node1&#45;&gt;Node5 -->
<g id="edge6" class="edge"><title>Node1&#45;&gt;Node5</title>
<path fill="none" stroke="midnightblue" d="M306.179,-196.015C290.255,-185.9 272.342,-173.77 259.832,-164.577"/>
<polygon fill="midnightblue" stroke="midnightblue" points="304.441,-199.056 314.774,-201.396 308.155,-193.123 304.441,-199.056"/>
</g>
<!-- Node6 -->
<g id="node6" class="node"><title>Node6</title>
<g id="a_node6"><a xlink:href="_mem_file_system_8h.html" target="_top" xlink:title="lib/carpi/lib/SDFileSystem\l/FATFileSystem/MemFileSystem.h">
<polygon fill="white" stroke="black" points="352,-134.5 352,-164.5 527,-164.5 527,-134.5 352,-134.5"/>
<text text-anchor="start" x="360" y="-152.5" font-family="Helvetica,sans-Serif" font-size="10.00">lib/carpi/lib/SDFileSystem</text>
<text text-anchor="middle" x="439.5" y="-141.5" font-family="Helvetica,sans-Serif" font-size="10.00">/FATFileSystem/MemFileSystem.h</text>
</a>
</g>
</g>
<!-- Node1&#45;&gt;Node6 -->
<g id="edge8" class="edge"><title>Node1&#45;&gt;Node6</title>
<path fill="none" stroke="midnightblue" d="M371.302,-195.734C386.466,-185.676 404.545,-173.685 418.277,-164.577"/>
<polygon fill="midnightblue" stroke="midnightblue" points="369.164,-192.952 362.765,-201.396 373.033,-198.785 369.164,-192.952"/>
</g>
<!-- Node7 -->
<g id="node7" class="node"><title>Node7</title>
<g id="a_node7"><a xlink:href="_s_d_file_system_8h.html" target="_top" xlink:title="lib/carpi/lib/SDFileSystem\l/SDFileSystem.h">
<polygon fill="white" stroke="black" points="545.5,-134.5 545.5,-164.5 681.5,-164.5 681.5,-134.5 545.5,-134.5"/>
<text text-anchor="start" x="553.5" y="-152.5" font-family="Helvetica,sans-Serif" font-size="10.00">lib/carpi/lib/SDFileSystem</text>
<text text-anchor="middle" x="613.5" y="-141.5" font-family="Helvetica,sans-Serif" font-size="10.00">/SDFileSystem.h</text>
</a>
</g>
</g>
<!-- Node1&#45;&gt;Node7 -->
<g id="edge9" class="edge"><title>Node1&#45;&gt;Node7</title>
<path fill="none" stroke="midnightblue" d="M410.05,-199.119C454.557,-188.483 511.97,-174.763 554.451,-164.611"/>
<polygon fill="midnightblue" stroke="midnightblue" points="409.098,-195.748 400.185,-201.476 410.725,-202.556 409.098,-195.748"/>
</g>
<!-- Node3 -->
<g id="node3" class="node"><title>Node3</title>
<g id="a_node3"><a xlink:href="diskio_8h.html" target="_top" xlink:title="lib/carpi/lib/SDFileSystem\l/FATFileSystem/diskio.h">
<polygon fill="white" stroke="black" points="0.5,-67.5 0.5,-97.5 136.5,-97.5 136.5,-67.5 0.5,-67.5"/>
<text text-anchor="start" x="8.5" y="-85.5" font-family="Helvetica,sans-Serif" font-size="10.00">lib/carpi/lib/SDFileSystem</text>
<text text-anchor="middle" x="68.5" y="-74.5" font-family="Helvetica,sans-Serif" font-size="10.00">/FATFileSystem/diskio.h</text>
</a>
</g>
</g>
<!-- Node2&#45;&gt;Node3 -->
<g id="edge2" class="edge"><title>Node2&#45;&gt;Node3</title>
<path fill="none" stroke="midnightblue" d="M61.9547,-124.403C61.5055,-115.37 61.7957,-105.408 62.8252,-97.5765"/>
<polygon fill="midnightblue" stroke="midnightblue" points="58.4703,-124.736 62.8216,-134.396 65.4441,-124.131 58.4703,-124.736"/>
</g>
<!-- Node3&#45;&gt;Node2 -->
<g id="edge3" class="edge"><title>Node3&#45;&gt;Node2</title>
<path fill="none" stroke="midnightblue" d="M75.0438,-107.565C75.4947,-116.596 75.2062,-126.56 74.1784,-134.396"/>
<polygon fill="midnightblue" stroke="midnightblue" points="78.5284,-107.236 74.1748,-97.5765 71.5547,-107.842 78.5284,-107.236"/>
</g>
<!-- Node4 -->
<g id="node4" class="node"><title>Node4</title>
<g id="a_node4"><a xlink:href="ff_8cpp.html" target="_top" xlink:title="lib/carpi/lib/SDFileSystem\l/FATFileSystem/ff.cpp">
<polygon fill="white" stroke="black" points="326.5,-0.5 326.5,-30.5 462.5,-30.5 462.5,-0.5 326.5,-0.5"/>
<text text-anchor="start" x="334.5" y="-18.5" font-family="Helvetica,sans-Serif" font-size="10.00">lib/carpi/lib/SDFileSystem</text>
<text text-anchor="middle" x="394.5" y="-7.5" font-family="Helvetica,sans-Serif" font-size="10.00">/FATFileSystem/ff.cpp</text>
</a>
</g>
</g>
<!-- Node3&#45;&gt;Node4 -->
<g id="edge4" class="edge"><title>Node3&#45;&gt;Node4</title>
<path fill="none" stroke="midnightblue" d="M146.843,-65.8794C201.56,-54.9696 273.894,-40.5472 326.25,-30.1082"/>
<polygon fill="midnightblue" stroke="midnightblue" points="145.963,-62.486 136.84,-67.8739 147.332,-69.3509 145.963,-62.486"/>
</g>
<!-- Node4&#45;&gt;Node1 -->
<g id="edge5" class="edge"><title>Node4&#45;&gt;Node1</title>
<path fill="none" stroke="midnightblue" d="M472.799,-18.2486C553.888,-21.9096 672.712,-33.0892 701.5,-67 710.417,-77.5033 702.62,-84.2678 701.5,-98 699.047,-128.077 712.04,-143.866 690.5,-165 653.956,-200.855 516.199,-211.415 425.076,-214.428"/>
<polygon fill="midnightblue" stroke="midnightblue" points="472.75,-14.7435 462.612,-17.8189 472.455,-21.7373 472.75,-14.7435"/>
</g>
<!-- Node5&#45;&gt;Node1 -->
<g id="edge7" class="edge"><title>Node5&#45;&gt;Node1</title>
<path fill="none" stroke="midnightblue" d="M279.774,-169.955C295.694,-180.066 313.609,-192.197 326.131,-201.396"/>
<polygon fill="midnightblue" stroke="midnightblue" points="281.515,-166.915 271.181,-164.577 277.801,-172.849 281.515,-166.915"/>
</g>
<!-- Node8 -->
<g id="node8" class="node"><title>Node8</title>
<g id="a_node8"><a xlink:href="_s_d_card_test_8h.html" target="_top" xlink:title="car/hardwareTest/mbed\l/SDCardTest.h">
<polygon fill="white" stroke="black" points="234.5,-67.5 234.5,-97.5 362.5,-97.5 362.5,-67.5 234.5,-67.5"/>
<text text-anchor="start" x="242.5" y="-85.5" font-family="Helvetica,sans-Serif" font-size="10.00">car/hardwareTest/mbed</text>
<text text-anchor="middle" x="298.5" y="-74.5" font-family="Helvetica,sans-Serif" font-size="10.00">/SDCardTest.h</text>
</a>
</g>
</g>
<!-- Node7&#45;&gt;Node8 -->
<g id="edge10" class="edge"><title>Node7&#45;&gt;Node8</title>
<path fill="none" stroke="midnightblue" d="M535.458,-132.396C482.219,-121.41 412.569,-107.038 362.58,-96.7229"/>
<polygon fill="midnightblue" stroke="midnightblue" points="535.036,-135.883 545.538,-134.476 536.451,-129.027 535.036,-135.883"/>
</g>
<!-- Node9 -->
<g id="node9" class="node"><title>Node9</title>
<g id="a_node9"><a xlink:href="_s_d_file_system_8cpp.html" target="_top" xlink:title="lib/carpi/lib/SDFileSystem\l/SDFileSystem.cpp">
<polygon fill="white" stroke="black" points="380.5,-67.5 380.5,-97.5 516.5,-97.5 516.5,-67.5 380.5,-67.5"/>
<text text-anchor="start" x="388.5" y="-85.5" font-family="Helvetica,sans-Serif" font-size="10.00">lib/carpi/lib/SDFileSystem</text>
<text text-anchor="middle" x="448.5" y="-74.5" font-family="Helvetica,sans-Serif" font-size="10.00">/SDFileSystem.cpp</text>
</a>
</g>
</g>
<!-- Node7&#45;&gt;Node9 -->
<g id="edge11" class="edge"><title>Node7&#45;&gt;Node9</title>
<path fill="none" stroke="midnightblue" d="M568.268,-130.682C541.806,-120.257 508.866,-107.281 484.233,-97.5765"/>
<polygon fill="midnightblue" stroke="midnightblue" points="567.111,-133.987 577.697,-134.396 569.676,-127.474 567.111,-133.987"/>
</g>
<!-- Node10 -->
<g id="node10" class="node"><title>Node10</title>
<g id="a_node10"><a xlink:href="_hardware_s_d_card_8h.html" target="_top" xlink:title="lib/carpi/src/components\l/hardware/HardwareSDCard.h">
<polygon fill="white" stroke="black" points="534.5,-67.5 534.5,-97.5 692.5,-97.5 692.5,-67.5 534.5,-67.5"/>
<text text-anchor="start" x="542.5" y="-85.5" font-family="Helvetica,sans-Serif" font-size="10.00">lib/carpi/src/components</text>
<text text-anchor="middle" x="613.5" y="-74.5" font-family="Helvetica,sans-Serif" font-size="10.00">/hardware/HardwareSDCard.h</text>
</a>
</g>
</g>
<!-- Node7&#45;&gt;Node10 -->
<g id="edge12" class="edge"><title>Node7&#45;&gt;Node10</title>
<path fill="none" stroke="midnightblue" d="M613.5,-124.108C613.5,-115.154 613.5,-105.323 613.5,-97.5765"/>
<polygon fill="midnightblue" stroke="midnightblue" points="610,-124.396 613.5,-134.396 617,-124.396 610,-124.396"/>
</g>
</g>
</svg>
