<?xml version="1.0" encoding="UTF-8" standalone="no"?>
<!DOCTYPE svg PUBLIC "-//W3C//DTD SVG 1.1//EN"
 "http://www.w3.org/Graphics/SVG/1.1/DTD/svg11.dtd">
<!-- Generated by graphviz version 2.38.0 (20140413.2041)
 -->
<!-- Title: lib/carpi/src/steroido/src/Libraries/FlexCAN/FlexCAN.h Pages: 1 -->
<svg width="184pt" height="162pt"
 viewBox="0.00 0.00 183.50 162.00" xmlns="http://www.w3.org/2000/svg" xmlns:xlink="http://www.w3.org/1999/xlink">
<g id="graph0" class="graph" transform="scale(1 1) rotate(0) translate(4 158)">
<title>lib/carpi/src/steroido/src/Libraries/FlexCAN/FlexCAN.h</title>
<polygon fill="white" stroke="none" points="-4,4 -4,-158 179.5,-158 179.5,4 -4,4"/>
<!-- Node1 -->
<g id="node1" class="node"><title>Node1</title>
<polygon fill="#bfbfbf" stroke="black" points="19,-112.5 19,-153.5 139,-153.5 139,-112.5 19,-112.5"/>
<text text-anchor="start" x="27" y="-141.5" font-family="Helvetica,sans-Serif" font-size="10.00">lib/carpi/src/steroido</text>
<text text-anchor="start" x="27" y="-130.5" font-family="Helvetica,sans-Serif" font-size="10.00">/src/Libraries/FlexCAN</text>
<text text-anchor="middle" x="79" y="-119.5" font-family="Helvetica,sans-Serif" font-size="10.00">/FlexCAN.h</text>
</g>
<!-- Node2 -->
<g id="node2" class="node"><title>Node2</title>
<polygon fill="white" stroke="#bfbfbf" points="-3.55271e-15,-56.5 -3.55271e-15,-75.5 62,-75.5 62,-56.5 -3.55271e-15,-56.5"/>
<text text-anchor="middle" x="31" y="-63.5" font-family="Helvetica,sans-Serif" font-size="10.00">Arduino.h</text>
</g>
<!-- Node1&#45;&gt;Node2 -->
<g id="edge1" class="edge"><title>Node1&#45;&gt;Node2</title>
<path fill="none" stroke="midnightblue" d="M64.5984,-112.498C57.876,-103.395 49.9506,-92.6623 43.486,-83.9081"/>
<polygon fill="midnightblue" stroke="midnightblue" points="46.1455,-81.6177 37.3895,-75.6525 40.5145,-85.776 46.1455,-81.6177"/>
</g>
<!-- Node3 -->
<g id="node3" class="node"><title>Node3</title>
<g id="a_node3"><a xlink:href="kinetis__flexcan_8h.html" target="_top" xlink:title="kinetis_flexcan.h">
<polygon fill="white" stroke="black" points="80.5,-56.5 80.5,-75.5 175.5,-75.5 175.5,-56.5 80.5,-56.5"/>
<text text-anchor="middle" x="128" y="-63.5" font-family="Helvetica,sans-Serif" font-size="10.00">kinetis_flexcan.h</text>
</a>
</g>
</g>
<!-- Node1&#45;&gt;Node3 -->
<g id="edge2" class="edge"><title>Node1&#45;&gt;Node3</title>
<path fill="none" stroke="midnightblue" d="M93.7016,-112.498C100.564,-103.395 108.655,-92.6623 115.254,-83.9081"/>
<polygon fill="midnightblue" stroke="midnightblue" points="118.253,-85.7446 121.477,-75.6525 112.663,-81.5309 118.253,-85.7446"/>
</g>
<!-- Node4 -->
<g id="node4" class="node"><title>Node4</title>
<polygon fill="white" stroke="#bfbfbf" points="101.5,-0.5 101.5,-19.5 154.5,-19.5 154.5,-0.5 101.5,-0.5"/>
<text text-anchor="middle" x="128" y="-7.5" font-family="Helvetica,sans-Serif" font-size="10.00">stdint.h</text>
</g>
<!-- Node3&#45;&gt;Node4 -->
<g id="edge3" class="edge"><title>Node3&#45;&gt;Node4</title>
<path fill="none" stroke="midnightblue" d="M128,-56.083C128,-49.0059 128,-38.8611 128,-29.9865"/>
<polygon fill="midnightblue" stroke="midnightblue" points="131.5,-29.751 128,-19.7511 124.5,-29.7511 131.5,-29.751"/>
</g>
</g>
</svg>
