<?xml version="1.0" encoding="UTF-8" standalone="no"?>
<!DOCTYPE svg PUBLIC "-//W3C//DTD SVG 1.1//EN"
 "http://www.w3.org/Graphics/SVG/1.1/DTD/svg11.dtd">
<!-- Generated by graphviz version 2.38.0 (20140413.2041)
 -->
<!-- Title: lib/carpi/src/components/hardware/HardwareSDCard.h Pages: 1 -->
<svg width="873pt" height="487pt"
 viewBox="0.00 0.00 873.00 487.00" xmlns="http://www.w3.org/2000/svg" xmlns:xlink="http://www.w3.org/1999/xlink">
<g id="graph0" class="graph" transform="scale(1 1) rotate(0) translate(4 483)">
<title>lib/carpi/src/components/hardware/HardwareSDCard.h</title>
<polygon fill="white" stroke="none" points="-4,4 -4,-483 869,-483 869,4 -4,4"/>
<!-- Node1 -->
<g id="node1" class="node"><title>Node1</title>
<polygon fill="#bfbfbf" stroke="black" points="231.5,-448.5 231.5,-478.5 389.5,-478.5 389.5,-448.5 231.5,-448.5"/>
<text text-anchor="start" x="239.5" y="-466.5" font-family="Helvetica,sans-Serif" font-size="10.00">lib/carpi/src/components</text>
<text text-anchor="middle" x="310.5" y="-455.5" font-family="Helvetica,sans-Serif" font-size="10.00">/hardware/HardwareSDCard.h</text>
</g>
<!-- Node2 -->
<g id="node2" class="node"><title>Node2</title>
<polygon fill="white" stroke="#bfbfbf" points="184.5,-224.5 184.5,-243.5 228.5,-243.5 228.5,-224.5 184.5,-224.5"/>
<text text-anchor="middle" x="206.5" y="-231.5" font-family="Helvetica,sans-Serif" font-size="10.00">string</text>
</g>
<!-- Node1&#45;&gt;Node2 -->
<g id="edge1" class="edge"><title>Node1&#45;&gt;Node2</title>
<path fill="none" stroke="midnightblue" d="M246.999,-448.496C227.81,-440.974 208.84,-429.489 197.5,-412 165.326,-362.381 186.536,-287.498 199.106,-253.256"/>
<polygon fill="midnightblue" stroke="midnightblue" points="202.478,-254.239 202.806,-243.649 195.946,-251.724 202.478,-254.239"/>
</g>
<!-- Node3 -->
<g id="node3" class="node"><title>Node3</title>
<g id="a_node3"><a xlink:href="_s_d_file_system_8h.html" target="_top" xlink:title="SDFileSystem.h">
<polygon fill="white" stroke="black" points="414.5,-336.5 414.5,-355.5 506.5,-355.5 506.5,-336.5 414.5,-336.5"/>
<text text-anchor="middle" x="460.5" y="-343.5" font-family="Helvetica,sans-Serif" font-size="10.00">SDFileSystem.h</text>
</a>
</g>
</g>
<!-- Node1&#45;&gt;Node3 -->
<g id="edge2" class="edge"><title>Node1&#45;&gt;Node3</title>
<path fill="none" stroke="midnightblue" d="M320.608,-448.399C332.111,-433.084 352.094,-408.593 373.5,-392 390.623,-378.726 412.251,-367.519 429.659,-359.609"/>
<polygon fill="midnightblue" stroke="midnightblue" points="431.102,-362.798 438.841,-355.561 428.278,-356.392 431.102,-362.798"/>
</g>
<!-- Node24 -->
<g id="node24" class="node"><title>Node24</title>
<g id="a_node24"><a xlink:href="_i_s_d_card_8h.html" target="_top" xlink:title="../interface/ISDCard.h">
<polygon fill="white" stroke="black" points="207,-392.5 207,-411.5 326,-411.5 326,-392.5 207,-392.5"/>
<text text-anchor="middle" x="266.5" y="-399.5" font-family="Helvetica,sans-Serif" font-size="10.00">../interface/ISDCard.h</text>
</a>
</g>
</g>
<!-- Node1&#45;&gt;Node24 -->
<g id="edge40" class="edge"><title>Node1&#45;&gt;Node24</title>
<path fill="none" stroke="midnightblue" d="M300.073,-448.399C293.745,-439.842 285.631,-428.871 278.966,-419.857"/>
<polygon fill="midnightblue" stroke="midnightblue" points="281.662,-417.617 272.902,-411.658 276.034,-421.779 281.662,-417.617"/>
</g>
<!-- Node28 -->
<g id="node28" class="node"><title>Node28</title>
<g id="a_node28"><a xlink:href="_hard_config_8h.html" target="_top" xlink:title="HardConfig.h">
<polygon fill="white" stroke="black" points="383,-392.5 383,-411.5 462,-411.5 462,-392.5 383,-392.5"/>
<text text-anchor="middle" x="422.5" y="-399.5" font-family="Helvetica,sans-Serif" font-size="10.00">HardConfig.h</text>
</a>
</g>
</g>
<!-- Node1&#45;&gt;Node28 -->
<g id="edge47" class="edge"><title>Node1&#45;&gt;Node28</title>
<path fill="none" stroke="midnightblue" d="M337.042,-448.399C355.163,-438.773 379.036,-426.09 396.943,-416.577"/>
<polygon fill="midnightblue" stroke="midnightblue" points="399.014,-419.44 406.203,-411.658 395.73,-413.258 399.014,-419.44"/>
</g>
<!-- Node4 -->
<g id="node4" class="node"><title>Node4</title>
<polygon fill="white" stroke="#bfbfbf" points="0,-168.5 0,-187.5 53,-187.5 53,-168.5 0,-168.5"/>
<text text-anchor="middle" x="26.5" y="-175.5" font-family="Helvetica,sans-Serif" font-size="10.00">mbed.h</text>
</g>
<!-- Node3&#45;&gt;Node4 -->
<g id="edge3" class="edge"><title>Node3&#45;&gt;Node4</title>
<path fill="none" stroke="midnightblue" d="M447.564,-336.223C414.259,-314.026 322.232,-255.21 237.5,-224 165.029,-197.306 142.996,-204.28 67.5,-188 66.2177,-187.723 64.9131,-187.441 63.5955,-187.156"/>
<polygon fill="midnightblue" stroke="midnightblue" points="63.9159,-183.644 53.4001,-184.935 62.4259,-190.483 63.9159,-183.644"/>
</g>
<!-- Node5 -->
<g id="node5" class="node"><title>Node5</title>
<g id="a_node5"><a xlink:href="_f_a_t_file_system_8h.html" target="_top" xlink:title="FATFileSystem/FATFileSystem.h">
<polygon fill="white" stroke="black" points="456.5,-280.5 456.5,-299.5 620.5,-299.5 620.5,-280.5 456.5,-280.5"/>
<text text-anchor="middle" x="538.5" y="-287.5" font-family="Helvetica,sans-Serif" font-size="10.00">FATFileSystem/FATFileSystem.h</text>
</a>
</g>
</g>
<!-- Node3&#45;&gt;Node5 -->
<g id="edge4" class="edge"><title>Node3&#45;&gt;Node5</title>
<path fill="none" stroke="midnightblue" d="M473.032,-336.324C485.086,-327.979 503.527,-315.212 517.769,-305.352"/>
<polygon fill="midnightblue" stroke="midnightblue" points="519.769,-308.224 525.999,-299.655 515.785,-302.469 519.769,-308.224"/>
</g>
<!-- Node12 -->
<g id="node12" class="node"><title>Node12</title>
<polygon fill="white" stroke="#bfbfbf" points="812,-224.5 812,-243.5 865,-243.5 865,-224.5 812,-224.5"/>
<text text-anchor="middle" x="838.5" y="-231.5" font-family="Helvetica,sans-Serif" font-size="10.00">stdint.h</text>
</g>
<!-- Node3&#45;&gt;Node12 -->
<g id="edge39" class="edge"><title>Node3&#45;&gt;Node12</title>
<path fill="none" stroke="midnightblue" d="M506.641,-345.307C592.742,-344.923 773.356,-339.307 819.5,-300 832.766,-288.7 837.039,-268.696 838.286,-253.854"/>
<polygon fill="midnightblue" stroke="midnightblue" points="841.788,-253.891 838.749,-243.741 834.796,-253.571 841.788,-253.891"/>
</g>
<!-- Node6 -->
<g id="node6" class="node"><title>Node6</title>
<polygon fill="white" stroke="#bfbfbf" points="697.5,-224.5 697.5,-243.5 793.5,-243.5 793.5,-224.5 697.5,-224.5"/>
<text text-anchor="middle" x="745.5" y="-231.5" font-family="Helvetica,sans-Serif" font-size="10.00">FileSystemLike.h</text>
</g>
<!-- Node5&#45;&gt;Node6 -->
<g id="edge5" class="edge"><title>Node5&#45;&gt;Node6</title>
<path fill="none" stroke="midnightblue" d="M571.3,-280.444C606.88,-271.162 663.814,-256.309 702.847,-246.127"/>
<polygon fill="midnightblue" stroke="midnightblue" points="704.061,-249.427 712.854,-243.516 702.294,-242.654 704.061,-249.427"/>
</g>
<!-- Node7 -->
<g id="node7" class="node"><title>Node7</title>
<polygon fill="white" stroke="#bfbfbf" points="477.5,-112.5 477.5,-131.5 551.5,-131.5 551.5,-112.5 477.5,-112.5"/>
<text text-anchor="middle" x="514.5" y="-119.5" font-family="Helvetica,sans-Serif" font-size="10.00">FileHandle.h</text>
</g>
<!-- Node5&#45;&gt;Node7 -->
<g id="edge6" class="edge"><title>Node5&#45;&gt;Node7</title>
<path fill="none" stroke="midnightblue" d="M537.21,-280.075C533.432,-253.945 522.338,-177.211 517.186,-141.577"/>
<polygon fill="midnightblue" stroke="midnightblue" points="520.634,-140.964 515.739,-131.568 513.706,-141.966 520.634,-140.964"/>
</g>
<!-- Node8 -->
<g id="node8" class="node"><title>Node8</title>
<g id="a_node8"><a xlink:href="ff_8h.html" target="_top" xlink:title="ff.h">
<polygon fill="white" stroke="black" points="555.5,-56.5 555.5,-75.5 587.5,-75.5 587.5,-56.5 555.5,-56.5"/>
<text text-anchor="middle" x="571.5" y="-63.5" font-family="Helvetica,sans-Serif" font-size="10.00">ff.h</text>
</a>
</g>
</g>
<!-- Node5&#45;&gt;Node8 -->
<g id="edge7" class="edge"><title>Node5&#45;&gt;Node8</title>
<path fill="none" stroke="midnightblue" d="M572.22,-280.411C593.089,-273.578 619.126,-262.097 636.5,-244 655.134,-224.591 653.82,-214.3 659.5,-188 666.633,-154.972 679.264,-140.743 661.5,-112 647.609,-89.5239 618.716,-77.8984 597.397,-72.1476"/>
<polygon fill="midnightblue" stroke="midnightblue" points="598.182,-68.7367 587.638,-69.7747 596.528,-75.5385 598.182,-68.7367"/>
</g>
<!-- Node5&#45;&gt;Node12 -->
<g id="edge12" class="edge"><title>Node5&#45;&gt;Node12</title>
<path fill="none" stroke="midnightblue" d="M596.16,-280.467C647.603,-272.56 725.174,-259.919 801.969,-243.975"/>
<polygon fill="midnightblue" stroke="midnightblue" points="802.746,-247.388 811.816,-241.911 801.311,-240.537 802.746,-247.388"/>
</g>
<!-- Node13 -->
<g id="node13" class="node"><title>Node13</title>
<g id="a_node13"><a xlink:href="_f_a_t_file_system_8cpp.html" target="_top" xlink:title="FATFileSystem.cpp">
<polygon fill="white" stroke="black" points="356.5,-224.5 356.5,-243.5 460.5,-243.5 460.5,-224.5 356.5,-224.5"/>
<text text-anchor="middle" x="408.5" y="-231.5" font-family="Helvetica,sans-Serif" font-size="10.00">FATFileSystem.cpp</text>
</a>
</g>
</g>
<!-- Node5&#45;&gt;Node13 -->
<g id="edge13" class="edge"><title>Node5&#45;&gt;Node13</title>
<path fill="none" stroke="midnightblue" d="M512.812,-280.444C489.676,-271.636 456.149,-257.812 433.298,-247.722"/>
<polygon fill="midnightblue" stroke="midnightblue" points="434.479,-244.416 423.923,-243.516 431.614,-250.803 434.479,-244.416"/>
</g>
<!-- Node21 -->
<g id="node21" class="node"><title>Node21</title>
<g id="a_node21"><a xlink:href="ff_8cpp.html" target="_top" xlink:title="ff.cpp">
<polygon fill="white" stroke="black" points="585,-224.5 585,-243.5 628,-243.5 628,-224.5 585,-224.5"/>
<text text-anchor="middle" x="606.5" y="-231.5" font-family="Helvetica,sans-Serif" font-size="10.00">ff.cpp</text>
</a>
</g>
</g>
<!-- Node5&#45;&gt;Node21 -->
<g id="edge31" class="edge"><title>Node5&#45;&gt;Node21</title>
<path fill="none" stroke="midnightblue" d="M549.425,-280.324C559.675,-272.185 575.221,-259.839 587.501,-250.087"/>
<polygon fill="midnightblue" stroke="midnightblue" points="589.721,-252.794 595.376,-243.834 585.368,-247.312 589.721,-252.794"/>
</g>
<!-- Node9 -->
<g id="node9" class="node"><title>Node9</title>
<g id="a_node9"><a xlink:href="integer_8h.html" target="_top" xlink:title="integer.h">
<polygon fill="white" stroke="black" points="647,-0.5 647,-19.5 706,-19.5 706,-0.5 647,-0.5"/>
<text text-anchor="middle" x="676.5" y="-7.5" font-family="Helvetica,sans-Serif" font-size="10.00">integer.h</text>
</a>
</g>
</g>
<!-- Node8&#45;&gt;Node9 -->
<g id="edge8" class="edge"><title>Node8&#45;&gt;Node9</title>
<path fill="none" stroke="midnightblue" d="M587.906,-56.5625C604.759,-47.8953 631.23,-34.282 650.852,-24.1905"/>
<polygon fill="midnightblue" stroke="midnightblue" points="652.57,-27.2425 659.862,-19.5565 649.369,-21.0175 652.57,-27.2425"/>
</g>
<!-- Node10 -->
<g id="node10" class="node"><title>Node10</title>
<g id="a_node10"><a xlink:href="ffconf_8h.html" target="_top" xlink:title="ffconf.h">
<polygon fill="white" stroke="black" points="422,-0.5 422,-19.5 473,-19.5 473,-0.5 422,-0.5"/>
<text text-anchor="middle" x="447.5" y="-7.5" font-family="Helvetica,sans-Serif" font-size="10.00">ffconf.h</text>
</a>
</g>
</g>
<!-- Node8&#45;&gt;Node10 -->
<g id="edge9" class="edge"><title>Node8&#45;&gt;Node10</title>
<path fill="none" stroke="midnightblue" d="M555.289,-57.9404C535.353,-49.2585 501.145,-34.3614 476.609,-23.6765"/>
<polygon fill="midnightblue" stroke="midnightblue" points="477.971,-20.4523 467.406,-19.6685 475.176,-26.8702 477.971,-20.4523"/>
</g>
<!-- Node11 -->
<g id="node11" class="node"><title>Node11</title>
<g id="a_node11"><a xlink:href="ccsbcs_8cpp.html" target="_top" xlink:title="ccsbcs.cpp">
<polygon fill="white" stroke="black" points="537,-0.5 537,-19.5 606,-19.5 606,-0.5 537,-0.5"/>
<text text-anchor="middle" x="571.5" y="-7.5" font-family="Helvetica,sans-Serif" font-size="10.00">ccsbcs.cpp</text>
</a>
</g>
</g>
<!-- Node8&#45;&gt;Node11 -->
<g id="edge10" class="edge"><title>Node8&#45;&gt;Node11</title>
<path fill="none" stroke="midnightblue" d="M566.334,-56.083C564.824,-48.9272 564.394,-38.6353 565.042,-29.6911"/>
<polygon fill="midnightblue" stroke="midnightblue" points="568.515,-30.1262 566.369,-19.7511 561.577,-29.2002 568.515,-30.1262"/>
</g>
<!-- Node11&#45;&gt;Node8 -->
<g id="edge11" class="edge"><title>Node11&#45;&gt;Node8</title>
<path fill="none" stroke="midnightblue" d="M576.631,-19.7511C578.157,-26.8579 578.604,-37.1357 577.972,-46.1005"/>
<polygon fill="midnightblue" stroke="midnightblue" points="574.493,-45.7134 576.666,-56.083 581.434,-46.6216 574.493,-45.7134"/>
</g>
<!-- Node13&#45;&gt;Node4 -->
<g id="edge14" class="edge"><title>Node13&#45;&gt;Node4</title>
<path fill="none" stroke="midnightblue" d="M356.265,-225.851C351.61,-225.222 346.97,-224.597 342.5,-224 220.321,-207.673 188.922,-209.234 67.5,-188 66.2079,-187.774 64.8947,-187.535 63.5699,-187.287"/>
<polygon fill="midnightblue" stroke="midnightblue" points="63.8335,-183.77 53.3409,-185.238 62.4587,-190.634 63.8335,-183.77"/>
</g>
<!-- Node13&#45;&gt;Node5 -->
<g id="edge17" class="edge"><title>Node13&#45;&gt;Node5</title>
<path fill="none" stroke="midnightblue" d="M434.082,-243.516C457.187,-252.309 490.714,-266.131 513.598,-276.232"/>
<polygon fill="midnightblue" stroke="midnightblue" points="512.433,-279.545 522.99,-280.444 515.297,-273.158 512.433,-279.545"/>
</g>
<!-- Node13&#45;&gt;Node10 -->
<g id="edge15" class="edge"><title>Node13&#45;&gt;Node10</title>
<path fill="none" stroke="midnightblue" d="M356.47,-226.544C312.95,-220.058 249.77,-208.085 197.5,-188 146.376,-168.356 71.463,-158.437 100.5,-112 134.007,-58.4142 329.664,-26.6196 411.518,-15.5036"/>
<polygon fill="midnightblue" stroke="midnightblue" points="412.379,-18.9199 421.83,-14.1312 411.455,-11.9811 412.379,-18.9199"/>
</g>
<!-- Node14 -->
<g id="node14" class="node"><title>Node14</title>
<polygon fill="white" stroke="#bfbfbf" points="330,-56.5 330,-75.5 419,-75.5 419,-56.5 330,-56.5"/>
<text text-anchor="middle" x="374.5" y="-63.5" font-family="Helvetica,sans-Serif" font-size="10.00">mbed_debug.h</text>
</g>
<!-- Node13&#45;&gt;Node14 -->
<g id="edge16" class="edge"><title>Node13&#45;&gt;Node14</title>
<path fill="none" stroke="midnightblue" d="M392.582,-224.39C379.965,-216.646 363.08,-204.032 354.5,-188 338.512,-158.126 339.725,-144.727 348.5,-112 351.154,-102.103 356.569,-92.1315 361.774,-84.099"/>
<polygon fill="midnightblue" stroke="midnightblue" points="364.789,-85.8935 367.61,-75.6811 359.036,-81.9055 364.789,-85.8935"/>
</g>
<!-- Node15 -->
<g id="node15" class="node"><title>Node15</title>
<g id="a_node15"><a xlink:href="_f_a_t_file_handle_8h.html" target="_top" xlink:title="FATFileHandle.h">
<polygon fill="white" stroke="black" points="363.5,-168.5 363.5,-187.5 453.5,-187.5 453.5,-168.5 363.5,-168.5"/>
<text text-anchor="middle" x="408.5" y="-175.5" font-family="Helvetica,sans-Serif" font-size="10.00">FATFileHandle.h</text>
</a>
</g>
</g>
<!-- Node13&#45;&gt;Node15 -->
<g id="edge18" class="edge"><title>Node13&#45;&gt;Node15</title>
<path fill="none" stroke="midnightblue" d="M408.5,-224.083C408.5,-217.006 408.5,-206.861 408.5,-197.986"/>
<polygon fill="midnightblue" stroke="midnightblue" points="412,-197.751 408.5,-187.751 405,-197.751 412,-197.751"/>
</g>
<!-- Node17 -->
<g id="node17" class="node"><title>Node17</title>
<g id="a_node17"><a xlink:href="_f_a_t_dir_handle_8h.html" target="_top" xlink:title="FATDirHandle.h">
<polygon fill="white" stroke="black" points="207,-168.5 207,-187.5 296,-187.5 296,-168.5 207,-168.5"/>
<text text-anchor="middle" x="251.5" y="-175.5" font-family="Helvetica,sans-Serif" font-size="10.00">FATDirHandle.h</text>
</a>
</g>
</g>
<!-- Node13&#45;&gt;Node17 -->
<g id="edge25" class="edge"><title>Node13&#45;&gt;Node17</title>
<path fill="none" stroke="midnightblue" d="M383.623,-224.444C357.211,-215.359 315.285,-200.939 285.758,-190.783"/>
<polygon fill="midnightblue" stroke="midnightblue" points="286.855,-187.459 276.261,-187.516 284.579,-194.079 286.855,-187.459"/>
</g>
<!-- Node15&#45;&gt;Node7 -->
<g id="edge19" class="edge"><title>Node15&#45;&gt;Node7</title>
<path fill="none" stroke="midnightblue" d="M425.531,-168.324C442.53,-159.664 468.876,-146.242 488.493,-136.249"/>
<polygon fill="midnightblue" stroke="midnightblue" points="490.19,-139.312 497.512,-131.655 487.012,-133.075 490.19,-139.312"/>
</g>
<!-- Node16 -->
<g id="node16" class="node"><title>Node16</title>
<g id="a_node16"><a xlink:href="_f_a_t_file_handle_8cpp.html" target="_top" xlink:title="FATFileHandle.cpp">
<polygon fill="white" stroke="black" points="358,-112.5 358,-131.5 459,-131.5 459,-112.5 358,-112.5"/>
<text text-anchor="middle" x="408.5" y="-119.5" font-family="Helvetica,sans-Serif" font-size="10.00">FATFileHandle.cpp</text>
</a>
</g>
</g>
<!-- Node15&#45;&gt;Node16 -->
<g id="edge20" class="edge"><title>Node15&#45;&gt;Node16</title>
<path fill="none" stroke="midnightblue" d="M403.334,-168.083C401.824,-160.927 401.394,-150.635 402.042,-141.691"/>
<polygon fill="midnightblue" stroke="midnightblue" points="405.515,-142.126 403.369,-131.751 398.577,-141.2 405.515,-142.126"/>
</g>
<!-- Node16&#45;&gt;Node8 -->
<g id="edge21" class="edge"><title>Node16&#45;&gt;Node8</title>
<path fill="none" stroke="midnightblue" d="M434.328,-112.444C464.814,-102.344 515.208,-85.6487 545.688,-75.5512"/>
<polygon fill="midnightblue" stroke="midnightblue" points="546.811,-78.8662 555.203,-72.3989 544.61,-72.2213 546.811,-78.8662"/>
</g>
<!-- Node16&#45;&gt;Node10 -->
<g id="edge22" class="edge"><title>Node16&#45;&gt;Node10</title>
<path fill="none" stroke="midnightblue" d="M412.404,-112.476C416.441,-103.501 422.802,-88.9099 427.5,-76 433.178,-60.3976 438.653,-42.3229 442.434,-29.2"/>
<polygon fill="midnightblue" stroke="midnightblue" points="445.823,-30.0797 445.18,-19.5044 439.088,-28.1724 445.823,-30.0797"/>
</g>
<!-- Node16&#45;&gt;Node14 -->
<g id="edge23" class="edge"><title>Node16&#45;&gt;Node14</title>
<path fill="none" stroke="midnightblue" d="M402.886,-112.083C398.133,-104.534 391.182,-93.4948 385.348,-84.2298"/>
<polygon fill="midnightblue" stroke="midnightblue" points="388.3,-82.3486 380.01,-75.7511 382.376,-86.0783 388.3,-82.3486"/>
</g>
<!-- Node16&#45;&gt;Node15 -->
<g id="edge24" class="edge"><title>Node16&#45;&gt;Node15</title>
<path fill="none" stroke="midnightblue" d="M413.631,-131.751C415.157,-138.858 415.604,-149.136 414.972,-158.101"/>
<polygon fill="midnightblue" stroke="midnightblue" points="411.493,-157.713 413.666,-168.083 418.434,-158.622 411.493,-157.713"/>
</g>
<!-- Node18 -->
<g id="node18" class="node"><title>Node18</title>
<polygon fill="white" stroke="#bfbfbf" points="110,-112.5 110,-131.5 183,-131.5 183,-112.5 110,-112.5"/>
<text text-anchor="middle" x="146.5" y="-119.5" font-family="Helvetica,sans-Serif" font-size="10.00">DirHandle.h</text>
</g>
<!-- Node17&#45;&gt;Node18 -->
<g id="edge26" class="edge"><title>Node17&#45;&gt;Node18</title>
<path fill="none" stroke="midnightblue" d="M234.63,-168.324C217.791,-159.664 191.693,-146.242 172.262,-136.249"/>
<polygon fill="midnightblue" stroke="midnightblue" points="173.822,-133.116 163.328,-131.655 170.62,-139.341 173.822,-133.116"/>
</g>
<!-- Node19 -->
<g id="node19" class="node"><title>Node19</title>
<g id="a_node19"><a xlink:href="_f_a_t_dir_handle_8cpp.html" target="_top" xlink:title="FATDirHandle.cpp">
<polygon fill="white" stroke="black" points="201.5,-112.5 201.5,-131.5 301.5,-131.5 301.5,-112.5 201.5,-112.5"/>
<text text-anchor="middle" x="251.5" y="-119.5" font-family="Helvetica,sans-Serif" font-size="10.00">FATDirHandle.cpp</text>
</a>
</g>
</g>
<!-- Node17&#45;&gt;Node19 -->
<g id="edge27" class="edge"><title>Node17&#45;&gt;Node19</title>
<path fill="none" stroke="midnightblue" d="M246.334,-168.083C244.824,-160.927 244.394,-150.635 245.042,-141.691"/>
<polygon fill="midnightblue" stroke="midnightblue" points="248.515,-142.126 246.369,-131.751 241.577,-141.2 248.515,-142.126"/>
</g>
<!-- Node19&#45;&gt;Node8 -->
<g id="edge29" class="edge"><title>Node19&#45;&gt;Node8</title>
<path fill="none" stroke="midnightblue" d="M301.852,-112.503C370.846,-100.86 492.253,-80.373 545.374,-71.4087"/>
<polygon fill="midnightblue" stroke="midnightblue" points="546.064,-74.842 555.342,-69.7267 544.899,-67.9396 546.064,-74.842"/>
</g>
<!-- Node19&#45;&gt;Node17 -->
<g id="edge30" class="edge"><title>Node19&#45;&gt;Node17</title>
<path fill="none" stroke="midnightblue" d="M256.631,-131.751C258.157,-138.858 258.604,-149.136 257.972,-158.101"/>
<polygon fill="midnightblue" stroke="midnightblue" points="254.493,-157.713 256.666,-168.083 261.434,-158.622 254.493,-157.713"/>
</g>
<!-- Node20 -->
<g id="node20" class="node"><title>Node20</title>
<polygon fill="white" stroke="#bfbfbf" points="225,-56.5 225,-75.5 278,-75.5 278,-56.5 225,-56.5"/>
<text text-anchor="middle" x="251.5" y="-63.5" font-family="Helvetica,sans-Serif" font-size="10.00">string.h</text>
</g>
<!-- Node19&#45;&gt;Node20 -->
<g id="edge28" class="edge"><title>Node19&#45;&gt;Node20</title>
<path fill="none" stroke="midnightblue" d="M251.5,-112.083C251.5,-105.006 251.5,-94.8611 251.5,-85.9865"/>
<polygon fill="midnightblue" stroke="midnightblue" points="255,-85.751 251.5,-75.7511 248,-85.7511 255,-85.751"/>
</g>
<!-- Node21&#45;&gt;Node8 -->
<g id="edge32" class="edge"><title>Node21&#45;&gt;Node8</title>
<path fill="none" stroke="midnightblue" d="M615.996,-224.43C624.487,-216.084 636.359,-202.559 641.5,-188 652.748,-156.147 658.783,-141.598 642.5,-112 632.888,-94.5285 613.31,-82.8878 597.142,-75.8309"/>
<polygon fill="midnightblue" stroke="midnightblue" points="598.221,-72.4924 587.636,-72.0183 595.615,-78.9893 598.221,-72.4924"/>
</g>
<!-- Node22 -->
<g id="node22" class="node"><title>Node22</title>
<g id="a_node22"><a xlink:href="diskio_8h.html" target="_top" xlink:title="diskio.h">
<polygon fill="white" stroke="black" points="580,-168.5 580,-187.5 633,-187.5 633,-168.5 580,-168.5"/>
<text text-anchor="middle" x="606.5" y="-175.5" font-family="Helvetica,sans-Serif" font-size="10.00">diskio.h</text>
</a>
</g>
</g>
<!-- Node21&#45;&gt;Node22 -->
<g id="edge33" class="edge"><title>Node21&#45;&gt;Node22</title>
<path fill="none" stroke="midnightblue" d="M606.5,-224.083C606.5,-217.006 606.5,-206.861 606.5,-197.986"/>
<polygon fill="midnightblue" stroke="midnightblue" points="610,-197.751 606.5,-187.751 603,-197.751 610,-197.751"/>
</g>
<!-- Node22&#45;&gt;Node9 -->
<g id="edge34" class="edge"><title>Node22&#45;&gt;Node9</title>
<path fill="none" stroke="midnightblue" d="M615.114,-168.448C623.259,-159.908 635.28,-146.062 642.5,-132 659.88,-98.1498 669.358,-54.2707 673.636,-29.7326"/>
<polygon fill="midnightblue" stroke="midnightblue" points="677.125,-30.0804 675.287,-19.6462 670.217,-28.9492 677.125,-30.0804"/>
</g>
<!-- Node23 -->
<g id="node23" class="node"><title>Node23</title>
<g id="a_node23"><a xlink:href="diskio_8cpp.html" target="_top" xlink:title="diskio.cpp">
<polygon fill="white" stroke="black" points="569.5,-112.5 569.5,-131.5 633.5,-131.5 633.5,-112.5 569.5,-112.5"/>
<text text-anchor="middle" x="601.5" y="-119.5" font-family="Helvetica,sans-Serif" font-size="10.00">diskio.cpp</text>
</a>
</g>
</g>
<!-- Node22&#45;&gt;Node23 -->
<g id="edge35" class="edge"><title>Node22&#45;&gt;Node23</title>
<path fill="none" stroke="midnightblue" d="M600.508,-168.083C598.36,-161.006 596.983,-150.861 596.78,-141.986"/>
<polygon fill="midnightblue" stroke="midnightblue" points="600.286,-141.88 597.179,-131.751 593.292,-141.607 600.286,-141.88"/>
</g>
<!-- Node23&#45;&gt;Node5 -->
<g id="edge38" class="edge"><title>Node23&#45;&gt;Node5</title>
<path fill="none" stroke="midnightblue" d="M594.102,-131.747C587.102,-140.431 576.761,-154.381 570.5,-168 554.673,-202.428 545.56,-246.098 541.358,-270.444"/>
<polygon fill="midnightblue" stroke="midnightblue" points="537.882,-270.01 539.724,-280.443 544.791,-271.139 537.882,-270.01"/>
</g>
<!-- Node23&#45;&gt;Node14 -->
<g id="edge37" class="edge"><title>Node23&#45;&gt;Node14</title>
<path fill="none" stroke="midnightblue" d="M569.458,-113.378C530.568,-104.126 464.712,-88.4601 420.431,-77.9264"/>
<polygon fill="midnightblue" stroke="midnightblue" points="421.038,-74.473 410.499,-75.5637 419.418,-81.283 421.038,-74.473"/>
</g>
<!-- Node23&#45;&gt;Node22 -->
<g id="edge36" class="edge"><title>Node23&#45;&gt;Node22</title>
<path fill="none" stroke="midnightblue" d="M607.441,-131.751C609.602,-138.78 610.994,-148.91 611.215,-157.805"/>
<polygon fill="midnightblue" stroke="midnightblue" points="607.708,-157.962 610.841,-168.083 614.703,-158.217 607.708,-157.962"/>
</g>
<!-- Node24&#45;&gt;Node2 -->
<g id="edge41" class="edge"><title>Node24&#45;&gt;Node2</title>
<path fill="none" stroke="midnightblue" d="M255.513,-392.25C245.947,-383.978 232.54,-370.675 225.5,-356 209.46,-322.567 206.456,-278.537 206.171,-253.86"/>
<polygon fill="midnightblue" stroke="midnightblue" points="209.671,-253.72 206.199,-243.711 202.671,-253.701 209.671,-253.72"/>
</g>
<!-- Node25 -->
<g id="node25" class="node"><title>Node25</title>
<g id="a_node25"><a xlink:href="_i_component_8h.html" target="_top" xlink:title="IComponent.h">
<polygon fill="white" stroke="black" points="234.5,-336.5 234.5,-355.5 318.5,-355.5 318.5,-336.5 234.5,-336.5"/>
<text text-anchor="middle" x="276.5" y="-343.5" font-family="Helvetica,sans-Serif" font-size="10.00">IComponent.h</text>
</a>
</g>
</g>
<!-- Node24&#45;&gt;Node25 -->
<g id="edge42" class="edge"><title>Node24&#45;&gt;Node25</title>
<path fill="none" stroke="midnightblue" d="M268.151,-392.083C269.476,-384.927 271.382,-374.635 273.039,-365.691"/>
<polygon fill="midnightblue" stroke="midnightblue" points="276.5,-366.221 274.879,-355.751 269.617,-364.947 276.5,-366.221"/>
</g>
<!-- Node26 -->
<g id="node26" class="node"><title>Node26</title>
<g id="a_node26"><a xlink:href="component_ids_8h.html" target="_top" xlink:title="communication/componentIds.h">
<polygon fill="white" stroke="black" points="639,-280.5 639,-299.5 810,-299.5 810,-280.5 639,-280.5"/>
<text text-anchor="middle" x="724.5" y="-287.5" font-family="Helvetica,sans-Serif" font-size="10.00">communication/componentIds.h</text>
</a>
</g>
</g>
<!-- Node25&#45;&gt;Node26 -->
<g id="edge43" class="edge"><title>Node25&#45;&gt;Node26</title>
<path fill="none" stroke="midnightblue" d="M318.647,-339.92C392.834,-330.978 547.914,-312.285 643.437,-300.771"/>
<polygon fill="midnightblue" stroke="midnightblue" points="644.126,-304.213 653.635,-299.542 643.288,-297.264 644.126,-304.213"/>
</g>
<!-- Node27 -->
<g id="node27" class="node"><title>Node27</title>
<g id="a_node27"><a xlink:href="_i_logable_8h.html" target="_top" xlink:title="ILogable.h">
<polygon fill="white" stroke="black" points="235,-280.5 235,-299.5 300,-299.5 300,-280.5 235,-280.5"/>
<text text-anchor="middle" x="267.5" y="-287.5" font-family="Helvetica,sans-Serif" font-size="10.00">ILogable.h</text>
</a>
</g>
</g>
<!-- Node25&#45;&gt;Node27 -->
<g id="edge45" class="edge"><title>Node25&#45;&gt;Node27</title>
<path fill="none" stroke="midnightblue" d="M275.014,-336.083C273.821,-328.927 272.106,-318.635 270.615,-309.691"/>
<polygon fill="midnightblue" stroke="midnightblue" points="274.055,-309.04 268.959,-299.751 267.15,-310.19 274.055,-309.04"/>
</g>
<!-- Node26&#45;&gt;Node12 -->
<g id="edge44" class="edge"><title>Node26&#45;&gt;Node12</title>
<path fill="none" stroke="midnightblue" d="M742.564,-280.444C761.075,-271.675 790.081,-257.935 811.355,-247.858"/>
<polygon fill="midnightblue" stroke="midnightblue" points="812.982,-250.96 820.521,-243.516 809.985,-244.634 812.982,-250.96"/>
</g>
<!-- Node27&#45;&gt;Node2 -->
<g id="edge46" class="edge"><title>Node27&#45;&gt;Node2</title>
<path fill="none" stroke="midnightblue" d="M257.699,-280.324C248.682,-272.341 235.094,-260.313 224.182,-250.653"/>
<polygon fill="midnightblue" stroke="midnightblue" points="226.287,-247.842 216.479,-243.834 221.647,-253.083 226.287,-247.842"/>
</g>
</g>
</svg>
