<?xml version="1.0" encoding="UTF-8" standalone="no"?>
<!DOCTYPE svg PUBLIC "-//W3C//DTD SVG 1.1//EN"
 "http://www.w3.org/Graphics/SVG/1.1/DTD/svg11.dtd">
<!-- Generated by graphviz version 2.38.0 (20140413.2041)
 -->
<!-- Title: lib/carpi/src/components/hardware/HardwarePedal.h Pages: 1 -->
<svg width="634pt" height="509pt"
 viewBox="0.00 0.00 634.21 509.00" xmlns="http://www.w3.org/2000/svg" xmlns:xlink="http://www.w3.org/1999/xlink">
<g id="graph0" class="graph" transform="scale(1 1) rotate(0) translate(4 505)">
<title>lib/carpi/src/components/hardware/HardwarePedal.h</title>
<polygon fill="white" stroke="none" points="-4,4 -4,-505 630.21,-505 630.21,4 -4,4"/>
<!-- Node1 -->
<g id="node1" class="node"><title>Node1</title>
<polygon fill="#bfbfbf" stroke="black" points="372.21,-470.5 372.21,-500.5 520.21,-500.5 520.21,-470.5 372.21,-470.5"/>
<text text-anchor="start" x="380.21" y="-488.5" font-family="Helvetica,sans-Serif" font-size="10.00">lib/carpi/src/components</text>
<text text-anchor="middle" x="446.21" y="-477.5" font-family="Helvetica,sans-Serif" font-size="10.00">/hardware/HardwarePedal.h</text>
</g>
<!-- Node2 -->
<g id="node2" class="node"><title>Node2</title>
<g id="a_node2"><a xlink:href="_i_pedal_8h.html" target="_top" xlink:title="../interface/IPedal.h">
<polygon fill="white" stroke="black" points="291.21,-414.5 291.21,-433.5 399.21,-433.5 399.21,-414.5 291.21,-414.5"/>
<text text-anchor="middle" x="345.21" y="-421.5" font-family="Helvetica,sans-Serif" font-size="10.00">../interface/IPedal.h</text>
</a>
</g>
</g>
<!-- Node1&#45;&gt;Node2 -->
<g id="edge1" class="edge"><title>Node1&#45;&gt;Node2</title>
<path fill="none" stroke="midnightblue" d="M422.274,-470.399C406.085,-460.862 384.803,-448.325 368.707,-438.842"/>
<polygon fill="midnightblue" stroke="midnightblue" points="370.299,-435.718 359.906,-433.658 366.746,-441.749 370.299,-435.718"/>
</g>
<!-- Node17 -->
<g id="node17" class="node"><title>Node17</title>
<g id="a_node17"><a xlink:href="_hard_config_8h.html" target="_top" xlink:title="HardConfig.h">
<polygon fill="white" stroke="black" points="442.71,-230 442.71,-249 521.71,-249 521.71,-230 442.71,-230"/>
<text text-anchor="middle" x="482.21" y="-237" font-family="Helvetica,sans-Serif" font-size="10.00">HardConfig.h</text>
</a>
</g>
</g>
<!-- Node1&#45;&gt;Node17 -->
<g id="edge31" class="edge"><title>Node1&#45;&gt;Node17</title>
<path fill="none" stroke="midnightblue" d="M446.872,-470.284C448.564,-438.09 453.888,-357.256 467.21,-291 469.384,-280.186 472.839,-268.352 475.886,-258.86"/>
<polygon fill="midnightblue" stroke="midnightblue" points="479.224,-259.911 479.061,-249.317 472.583,-257.7 479.224,-259.911"/>
</g>
<!-- Node18 -->
<g id="node18" class="node"><title>Node18</title>
<g id="a_node18"><a xlink:href="_hardware_analog_sensor_8h.html" target="_top" xlink:title="../hardware/HardwareAnalog\lSensor.h">
<polygon fill="white" stroke="black" points="474.21,-347.5 474.21,-377.5 626.21,-377.5 626.21,-347.5 474.21,-347.5"/>
<text text-anchor="start" x="482.21" y="-365.5" font-family="Helvetica,sans-Serif" font-size="10.00">../hardware/HardwareAnalog</text>
<text text-anchor="middle" x="550.21" y="-354.5" font-family="Helvetica,sans-Serif" font-size="10.00">Sensor.h</text>
</a>
</g>
</g>
<!-- Node1&#45;&gt;Node18 -->
<g id="edge28" class="edge"><title>Node1&#45;&gt;Node18</title>
<path fill="none" stroke="midnightblue" d="M458.548,-470.145C476.531,-449.222 510.095,-410.173 531.235,-385.577"/>
<polygon fill="midnightblue" stroke="midnightblue" points="534.023,-387.702 537.887,-377.837 528.715,-383.139 534.023,-387.702"/>
</g>
<!-- Node3 -->
<g id="node3" class="node"><title>Node3</title>
<g id="a_node3"><a xlink:href="_self_syncable_8h.html" target="_top" xlink:title="communication/SelfSyncable.h">
<polygon fill="white" stroke="black" points="243.21,-353 243.21,-372 407.21,-372 407.21,-353 243.21,-353"/>
<text text-anchor="middle" x="325.21" y="-360" font-family="Helvetica,sans-Serif" font-size="10.00">communication/SelfSyncable.h</text>
</a>
</g>
</g>
<!-- Node2&#45;&gt;Node3 -->
<g id="edge2" class="edge"><title>Node2&#45;&gt;Node3</title>
<path fill="none" stroke="midnightblue" d="M342.344,-414.475C339.493,-405.992 335.026,-392.704 331.369,-381.822"/>
<polygon fill="midnightblue" stroke="midnightblue" points="334.574,-380.373 328.07,-372.009 327.939,-382.603 334.574,-380.373"/>
</g>
<!-- Node4 -->
<g id="node4" class="node"><title>Node4</title>
<g id="a_node4"><a xlink:href="_sync_8h.html" target="_top" xlink:title="Sync.h">
<polygon fill="white" stroke="black" points="180.71,-291.5 180.71,-310.5 229.71,-310.5 229.71,-291.5 180.71,-291.5"/>
<text text-anchor="middle" x="205.21" y="-298.5" font-family="Helvetica,sans-Serif" font-size="10.00">Sync.h</text>
</a>
</g>
</g>
<!-- Node3&#45;&gt;Node4 -->
<g id="edge3" class="edge"><title>Node3&#45;&gt;Node4</title>
<path fill="none" stroke="midnightblue" d="M308.017,-352.975C287.967,-343.034 254.611,-326.495 231.35,-314.961"/>
<polygon fill="midnightblue" stroke="midnightblue" points="232.885,-311.816 222.371,-310.509 229.775,-318.087 232.885,-311.816"/>
</g>
<!-- Node16 -->
<g id="node16" class="node"><title>Node16</title>
<g id="a_node16"><a xlink:href="_i_communication_8h.html" target="_top" xlink:title="components/interface\l/ICommunication.h">
<polygon fill="white" stroke="black" points="264.21,-224.5 264.21,-254.5 386.21,-254.5 386.21,-224.5 264.21,-224.5"/>
<text text-anchor="start" x="272.21" y="-242.5" font-family="Helvetica,sans-Serif" font-size="10.00">components/interface</text>
<text text-anchor="middle" x="325.21" y="-231.5" font-family="Helvetica,sans-Serif" font-size="10.00">/ICommunication.h</text>
</a>
</g>
</g>
<!-- Node3&#45;&gt;Node16 -->
<g id="edge27" class="edge"><title>Node3&#45;&gt;Node16</title>
<path fill="none" stroke="midnightblue" d="M325.21,-352.798C325.21,-334.605 325.21,-291.983 325.21,-264.794"/>
<polygon fill="midnightblue" stroke="midnightblue" points="328.71,-264.539 325.21,-254.539 321.71,-264.539 328.71,-264.539"/>
</g>
<!-- Node5 -->
<g id="node5" class="node"><title>Node5</title>
<polygon fill="white" stroke="#bfbfbf" points="12.7098,-112.5 12.7098,-131.5 59.7098,-131.5 59.7098,-112.5 12.7098,-112.5"/>
<text text-anchor="middle" x="36.2098" y="-119.5" font-family="Helvetica,sans-Serif" font-size="10.00">vector</text>
</g>
<!-- Node4&#45;&gt;Node5 -->
<g id="edge4" class="edge"><title>Node4&#45;&gt;Node5</title>
<path fill="none" stroke="midnightblue" d="M180.524,-293.53C159.019,-286.851 128.093,-274.606 107.21,-255 72.5427,-222.452 51.19,-169.109 41.8081,-141.246"/>
<polygon fill="midnightblue" stroke="midnightblue" points="45.0999,-140.049 38.7016,-131.604 38.4372,-142.196 45.0999,-140.049"/>
</g>
<!-- Node6 -->
<g id="node6" class="node"><title>Node6</title>
<g id="a_node6"><a xlink:href="component_ids_8h.html" target="_top" xlink:title="componentIds.h">
<polygon fill="white" stroke="black" points="92.2098,-56.5 92.2098,-75.5 186.21,-75.5 186.21,-56.5 92.2098,-56.5"/>
<text text-anchor="middle" x="139.21" y="-63.5" font-family="Helvetica,sans-Serif" font-size="10.00">componentIds.h</text>
</a>
</g>
</g>
<!-- Node4&#45;&gt;Node6 -->
<g id="edge5" class="edge"><title>Node4&#45;&gt;Node6</title>
<path fill="none" stroke="midnightblue" d="M180.556,-296.217C153.268,-290.973 109.188,-279.251 79.2098,-255 29.2499,-214.585 20.7667,-193.815 3.20984,-132 0.781257,-123.449 -1.99555,-119.205 3.20984,-112 21.1885,-87.1139 53.4516,-75.7648 82.0425,-70.684"/>
<polygon fill="midnightblue" stroke="midnightblue" points="82.6312,-74.1346 91.9729,-69.1363 81.5532,-67.2181 82.6312,-74.1346"/>
</g>
<!-- Node8 -->
<g id="node8" class="node"><title>Node8</title>
<g id="a_node8"><a xlink:href="device_ids_8h.html" target="_top" xlink:title="deviceIds.h">
<polygon fill="white" stroke="black" points="78.2098,-112.5 78.2098,-131.5 148.21,-131.5 148.21,-112.5 78.2098,-112.5"/>
<text text-anchor="middle" x="113.21" y="-119.5" font-family="Helvetica,sans-Serif" font-size="10.00">deviceIds.h</text>
</a>
</g>
</g>
<!-- Node4&#45;&gt;Node8 -->
<g id="edge7" class="edge"><title>Node4&#45;&gt;Node8</title>
<path fill="none" stroke="midnightblue" d="M180.69,-293.518C161.598,-287.088 136.225,-275.205 123.21,-255 100.777,-220.174 104.976,-168.95 109.426,-141.685"/>
<polygon fill="midnightblue" stroke="midnightblue" points="112.917,-142.051 111.271,-131.584 106.031,-140.793 112.917,-142.051"/>
</g>
<!-- Node9 -->
<g id="node9" class="node"><title>Node9</title>
<g id="a_node9"><a xlink:href="_car_message_8h.html" target="_top" xlink:title="CarMessage.h">
<polygon fill="white" stroke="black" points="127.71,-168.5 127.71,-187.5 212.71,-187.5 212.71,-168.5 127.71,-168.5"/>
<text text-anchor="middle" x="170.21" y="-175.5" font-family="Helvetica,sans-Serif" font-size="10.00">CarMessage.h</text>
</a>
</g>
</g>
<!-- Node4&#45;&gt;Node9 -->
<g id="edge8" class="edge"><title>Node4&#45;&gt;Node9</title>
<path fill="none" stroke="midnightblue" d="M180.481,-292.249C163.298,-285.421 141.674,-273.611 131.21,-255 124.457,-242.99 126.394,-236.909 131.21,-224 135.383,-212.812 143.729,-202.56 151.634,-194.676"/>
<polygon fill="midnightblue" stroke="midnightblue" points="154.271,-197.003 159.22,-187.635 149.509,-191.872 154.271,-197.003"/>
</g>
<!-- Node11 -->
<g id="node11" class="node"><title>Node11</title>
<g id="a_node11"><a xlink:href="_i_component_8h.html" target="_top" xlink:title="IComponent.h">
<polygon fill="white" stroke="black" points="321.21,-112.5 321.21,-131.5 405.21,-131.5 405.21,-112.5 321.21,-112.5"/>
<text text-anchor="middle" x="363.21" y="-119.5" font-family="Helvetica,sans-Serif" font-size="10.00">IComponent.h</text>
</a>
</g>
</g>
<!-- Node4&#45;&gt;Node11 -->
<g id="edge14" class="edge"><title>Node4&#45;&gt;Node11</title>
<path fill="none" stroke="midnightblue" d="M230.017,-297.863C276.725,-293.271 374.866,-280.725 395.21,-255 422.163,-220.917 393.733,-167.507 375.686,-140.253"/>
<polygon fill="midnightblue" stroke="midnightblue" points="378.401,-138.025 369.843,-131.779 372.638,-141.999 378.401,-138.025"/>
</g>
<!-- Node14 -->
<g id="node14" class="node"><title>Node14</title>
<g id="a_node14"><a xlink:href="_i_channel_8h.html" target="_top" xlink:title="IChannel.h">
<polygon fill="white" stroke="black" points="140.71,-230 140.71,-249 207.71,-249 207.71,-230 140.71,-230"/>
<text text-anchor="middle" x="174.21" y="-237" font-family="Helvetica,sans-Serif" font-size="10.00">IChannel.h</text>
</a>
</g>
</g>
<!-- Node4&#45;&gt;Node14 -->
<g id="edge18" class="edge"><title>Node4&#45;&gt;Node14</title>
<path fill="none" stroke="midnightblue" d="M200.768,-291.475C196.256,-282.815 189.136,-269.149 183.403,-258.145"/>
<polygon fill="midnightblue" stroke="midnightblue" points="186.368,-256.26 178.643,-249.009 180.16,-259.495 186.368,-256.26"/>
</g>
<!-- Node15 -->
<g id="node15" class="node"><title>Node15</title>
<g id="a_node15"><a xlink:href="_i_runable_8h.html" target="_top" xlink:title="runable/IRunable.h">
<polygon fill="white" stroke="black" points="231.21,-168.5 231.21,-187.5 335.21,-187.5 335.21,-168.5 231.21,-168.5"/>
<text text-anchor="middle" x="283.21" y="-175.5" font-family="Helvetica,sans-Serif" font-size="10.00">runable/IRunable.h</text>
</a>
</g>
</g>
<!-- Node4&#45;&gt;Node15 -->
<g id="edge25" class="edge"><title>Node4&#45;&gt;Node15</title>
<path fill="none" stroke="midnightblue" d="M210.819,-291.298C223.637,-271.414 255.264,-222.352 272.156,-196.147"/>
<polygon fill="midnightblue" stroke="midnightblue" points="275.175,-197.925 277.651,-187.623 269.291,-194.132 275.175,-197.925"/>
</g>
<!-- Node4&#45;&gt;Node16 -->
<g id="edge22" class="edge"><title>Node4&#45;&gt;Node16</title>
<path fill="none" stroke="midnightblue" d="M222.403,-291.475C239.415,-283.04 266.006,-269.855 287.883,-259.008"/>
<polygon fill="midnightblue" stroke="midnightblue" points="289.524,-262.101 296.928,-254.523 286.414,-255.83 289.524,-262.101"/>
</g>
<!-- Node4&#45;&gt;Node17 -->
<g id="edge26" class="edge"><title>Node4&#45;&gt;Node17</title>
<path fill="none" stroke="midnightblue" d="M229.738,-295.575C270.921,-288.029 356.502,-271.845 428.21,-255 432.635,-253.96 437.248,-252.816 441.832,-251.64"/>
<polygon fill="midnightblue" stroke="midnightblue" points="442.952,-254.965 451.738,-249.043 441.177,-248.194 442.952,-254.965"/>
</g>
<!-- Node7 -->
<g id="node7" class="node"><title>Node7</title>
<polygon fill="white" stroke="#bfbfbf" points="150.71,-0.5 150.71,-19.5 203.71,-19.5 203.71,-0.5 150.71,-0.5"/>
<text text-anchor="middle" x="177.21" y="-7.5" font-family="Helvetica,sans-Serif" font-size="10.00">stdint.h</text>
</g>
<!-- Node6&#45;&gt;Node7 -->
<g id="edge6" class="edge"><title>Node6&#45;&gt;Node7</title>
<path fill="none" stroke="midnightblue" d="M145.485,-56.083C150.852,-48.4554 158.727,-37.2645 165.289,-27.9408"/>
<polygon fill="midnightblue" stroke="midnightblue" points="168.159,-29.9434 171.052,-19.7511 162.434,-25.9149 168.159,-29.9434"/>
</g>
<!-- Node9&#45;&gt;Node5 -->
<g id="edge10" class="edge"><title>Node9&#45;&gt;Node5</title>
<path fill="none" stroke="midnightblue" d="M148.977,-168.444C126.826,-159.517 91.8911,-145.439 66.7738,-135.317"/>
<polygon fill="midnightblue" stroke="midnightblue" points="67.9266,-132.008 57.3432,-131.516 65.3102,-138.501 67.9266,-132.008"/>
</g>
<!-- Node9&#45;&gt;Node6 -->
<g id="edge13" class="edge"><title>Node9&#45;&gt;Node6</title>
<path fill="none" stroke="midnightblue" d="M169.014,-168.465C167.142,-155.925 163.112,-131.856 157.21,-112 154.512,-102.926 150.71,-93.1372 147.294,-85.0137"/>
<polygon fill="midnightblue" stroke="midnightblue" points="150.483,-83.5701 143.287,-75.7941 144.063,-86.3604 150.483,-83.5701"/>
</g>
<!-- Node9&#45;&gt;Node7 -->
<g id="edge11" class="edge"><title>Node9&#45;&gt;Node7</title>
<path fill="none" stroke="midnightblue" d="M174.44,-168.211C183.5,-148.283 203.323,-98.1272 195.21,-56 193.42,-46.7047 189.727,-36.8887 186.149,-28.8048"/>
<polygon fill="midnightblue" stroke="midnightblue" points="189.266,-27.2089 181.831,-19.6611 182.937,-30.1981 189.266,-27.2089"/>
</g>
<!-- Node9&#45;&gt;Node8 -->
<g id="edge12" class="edge"><title>Node9&#45;&gt;Node8</title>
<path fill="none" stroke="midnightblue" d="M161.052,-168.324C152.708,-160.42 140.177,-148.548 130.033,-138.938"/>
<polygon fill="midnightblue" stroke="midnightblue" points="132.201,-136.171 122.535,-131.834 127.387,-141.252 132.201,-136.171"/>
</g>
<!-- Node10 -->
<g id="node10" class="node"><title>Node10</title>
<polygon fill="white" stroke="#bfbfbf" points="242.71,-112.5 242.71,-131.5 299.71,-131.5 299.71,-112.5 242.71,-112.5"/>
<text text-anchor="middle" x="271.21" y="-119.5" font-family="Helvetica,sans-Serif" font-size="10.00">memory</text>
</g>
<!-- Node9&#45;&gt;Node10 -->
<g id="edge9" class="edge"><title>Node9&#45;&gt;Node10</title>
<path fill="none" stroke="midnightblue" d="M186.437,-168.324C202.561,-159.703 227.51,-146.364 246.174,-136.386"/>
<polygon fill="midnightblue" stroke="midnightblue" points="247.854,-139.456 255.023,-131.655 244.554,-133.283 247.854,-139.456"/>
</g>
<!-- Node11&#45;&gt;Node6 -->
<g id="edge15" class="edge"><title>Node11&#45;&gt;Node6</title>
<path fill="none" stroke="midnightblue" d="M327.716,-112.444C288.886,-103.083 226.553,-88.0561 184.292,-77.868"/>
<polygon fill="midnightblue" stroke="midnightblue" points="185.079,-74.4576 174.537,-75.5164 183.438,-81.2626 185.079,-74.4576"/>
</g>
<!-- Node12 -->
<g id="node12" class="node"><title>Node12</title>
<g id="a_node12"><a xlink:href="_i_logable_8h.html" target="_top" xlink:title="ILogable.h">
<polygon fill="white" stroke="black" points="330.71,-56.5 330.71,-75.5 395.71,-75.5 395.71,-56.5 330.71,-56.5"/>
<text text-anchor="middle" x="363.21" y="-63.5" font-family="Helvetica,sans-Serif" font-size="10.00">ILogable.h</text>
</a>
</g>
</g>
<!-- Node11&#45;&gt;Node12 -->
<g id="edge16" class="edge"><title>Node11&#45;&gt;Node12</title>
<path fill="none" stroke="midnightblue" d="M363.21,-112.083C363.21,-105.006 363.21,-94.8611 363.21,-85.9865"/>
<polygon fill="midnightblue" stroke="midnightblue" points="366.71,-85.751 363.21,-75.7511 359.71,-85.7511 366.71,-85.751"/>
</g>
<!-- Node13 -->
<g id="node13" class="node"><title>Node13</title>
<polygon fill="white" stroke="#bfbfbf" points="341.21,-0.5 341.21,-19.5 385.21,-19.5 385.21,-0.5 341.21,-0.5"/>
<text text-anchor="middle" x="363.21" y="-7.5" font-family="Helvetica,sans-Serif" font-size="10.00">string</text>
</g>
<!-- Node12&#45;&gt;Node13 -->
<g id="edge17" class="edge"><title>Node12&#45;&gt;Node13</title>
<path fill="none" stroke="midnightblue" d="M363.21,-56.083C363.21,-49.0059 363.21,-38.8611 363.21,-29.9865"/>
<polygon fill="midnightblue" stroke="midnightblue" points="366.71,-29.751 363.21,-19.7511 359.71,-29.7511 366.71,-29.751"/>
</g>
<!-- Node14&#45;&gt;Node9 -->
<g id="edge19" class="edge"><title>Node14&#45;&gt;Node9</title>
<path fill="none" stroke="midnightblue" d="M173.637,-229.975C173.072,-221.58 172.192,-208.481 171.464,-197.663"/>
<polygon fill="midnightblue" stroke="midnightblue" points="174.945,-197.252 170.782,-187.509 167.961,-197.721 174.945,-197.252"/>
</g>
<!-- Node14&#45;&gt;Node15 -->
<g id="edge20" class="edge"><title>Node14&#45;&gt;Node15</title>
<path fill="none" stroke="midnightblue" d="M189.827,-229.975C207.796,-220.166 237.531,-203.935 258.616,-192.425"/>
<polygon fill="midnightblue" stroke="midnightblue" points="260.521,-195.373 267.622,-187.509 257.167,-189.228 260.521,-195.373"/>
</g>
<!-- Node15&#45;&gt;Node11 -->
<g id="edge21" class="edge"><title>Node15&#45;&gt;Node11</title>
<path fill="none" stroke="midnightblue" d="M296.063,-168.324C308.426,-159.979 327.34,-147.212 341.947,-137.352"/>
<polygon fill="midnightblue" stroke="midnightblue" points="344.058,-140.15 350.388,-131.655 340.142,-134.348 344.058,-140.15"/>
</g>
<!-- Node16&#45;&gt;Node9 -->
<g id="edge24" class="edge"><title>Node16&#45;&gt;Node9</title>
<path fill="none" stroke="midnightblue" d="M288.477,-224.399C262.238,-214.327 227.285,-200.909 202.192,-191.277"/>
<polygon fill="midnightblue" stroke="midnightblue" points="203.354,-187.974 192.764,-187.658 200.845,-194.509 203.354,-187.974"/>
</g>
<!-- Node16&#45;&gt;Node11 -->
<g id="edge23" class="edge"><title>Node16&#45;&gt;Node11</title>
<path fill="none" stroke="midnightblue" d="M330.82,-224.453C334.765,-214.377 340.058,-200.44 344.21,-188 349.386,-172.491 354.545,-154.652 358.178,-141.589"/>
<polygon fill="midnightblue" stroke="midnightblue" points="361.567,-142.467 360.838,-131.897 354.816,-140.614 361.567,-142.467"/>
</g>
<!-- Node19 -->
<g id="node19" class="node"><title>Node19</title>
<g id="a_node19"><a xlink:href="_i_analog_sensor_8h.html" target="_top" xlink:title="../interface/IAnalogSensor.h">
<polygon fill="white" stroke="black" points="476.21,-291.5 476.21,-310.5 624.21,-310.5 624.21,-291.5 476.21,-291.5"/>
<text text-anchor="middle" x="550.21" y="-298.5" font-family="Helvetica,sans-Serif" font-size="10.00">../interface/IAnalogSensor.h</text>
</a>
</g>
</g>
<!-- Node18&#45;&gt;Node19 -->
<g id="edge29" class="edge"><title>Node18&#45;&gt;Node19</title>
<path fill="none" stroke="midnightblue" d="M550.21,-347.399C550.21,-339.466 550.21,-329.458 550.21,-320.858"/>
<polygon fill="midnightblue" stroke="midnightblue" points="553.71,-320.658 550.21,-310.658 546.71,-320.658 553.71,-320.658"/>
</g>
<!-- Node19&#45;&gt;Node11 -->
<g id="edge30" class="edge"><title>Node19&#45;&gt;Node11</title>
<path fill="none" stroke="midnightblue" d="M549.978,-291.11C549.157,-275.9 545.571,-244.542 530.21,-224 496.681,-179.164 436.862,-150.129 398.659,-135.177"/>
<polygon fill="midnightblue" stroke="midnightblue" points="399.56,-131.776 388.969,-131.505 397.079,-138.322 399.56,-131.776"/>
</g>
</g>
</svg>
