<?xml version="1.0" encoding="UTF-8" standalone="no"?>
<!DOCTYPE svg PUBLIC "-//W3C//DTD SVG 1.1//EN"
 "http://www.w3.org/Graphics/SVG/1.1/DTD/svg11.dtd">
<!-- Generated by graphviz version 2.38.0 (20140413.2041)
 -->
<!-- Title: lib/carpi/src/components/interface/IButton.h Pages: 1 -->
<!--zoomable 307 -->
<svg id="main" version="1.1" xmlns="http://www.w3.org/2000/svg" xmlns:xlink="http://www.w3.org/1999/xlink" xml:space="preserve" onload="init(evt)">
<style type="text/css"><![CDATA[
.edge:hover path { stroke: red; }
.edge:hover polygon { stroke: red; fill: red; }
]]></style>
<script type="text/javascript"><![CDATA[
var edges = document.getElementsByTagName('g');
if (edges && edges.length) {
  for (var i=0;i<edges.length;i++) {
    if (edges[i].id.substr(0,4)=='edge') {
      edges[i].setAttribute('class','edge');
    }
  }
}
]]></script>
        <defs>
                <circle id="rim" cx="0" cy="0" r="7"/>
                <circle id="rim2" cx="0" cy="0" r="3.5"/>
                <g id="zoomPlus">
                        <use xlink:href="#rim" fill="#404040">
                                <set attributeName="fill" to="#808080" begin="zoomplus.mouseover" end="zoomplus.mouseout"/>
                        </use>
                        <path d="M-4,0h8M0,-4v8" fill="none" stroke="white" stroke-width="1.5" pointer-events="none"/>
                </g>
                <g id="zoomMin">
                        <use xlink:href="#rim" fill="#404040">
                                <set attributeName="fill" to="#808080" begin="zoomminus.mouseover" end="zoomminus.mouseout"/>
                        </use>
                        <path d="M-4,0h8" fill="none" stroke="white" stroke-width="1.5" pointer-events="none"/>
                </g>
                <g id="dirArrow">
                        <path fill="none" stroke="white" stroke-width="1.5" d="M0,-3.0v7 M-2.5,-0.5L0,-3.0L2.5,-0.5"/>
                </g>
               <g id="resetDef">
                       <use xlink:href="#rim2" fill="#404040">
                               <set attributeName="fill" to="#808080" begin="reset.mouseover" end="reset.mouseout"/>
                       </use>
               </g>
        </defs>

<script type="text/javascript">
var viewWidth = 3395;
var viewHeight = 307;
var sectionId = 'dynsection-1';
</script>
<script xlink:href="svgpan.js"/>
<svg id="graph" class="graph">
<g id="viewport">
<title>lib/carpi/src/components/interface/IButton.h</title>
<polygon fill="white" stroke="none" points="-4,4 -4,-303 3391,-303 3391,4 -4,4"/>
<!-- Node1 -->
<g id="node1" class="node"><title>Node1</title>
<polygon fill="#bfbfbf" stroke="black" points="1682,-268.5 1682,-298.5 1816,-298.5 1816,-268.5 1682,-268.5"/>
<text text-anchor="start" x="1690" y="-286.5" font-family="Helvetica,sans-Serif" font-size="10.00">lib/carpi/src/components</text>
<text text-anchor="middle" x="1749" y="-275.5" font-family="Helvetica,sans-Serif" font-size="10.00">/interface/IButton.h</text>
</g>
<!-- Node2 -->
<g id="node2" class="node"><title>Node2</title>
<g id="a_node2"><a xlink:href="carpi_8h.html" target="_top" xlink:title="lib/carpi/src/carpi.h">
<polygon fill="white" stroke="black" points="1501,-140 1501,-159 1607,-159 1607,-140 1501,-140"/>
<text text-anchor="middle" x="1554" y="-147" font-family="Helvetica,sans-Serif" font-size="10.00">lib/carpi/src/carpi.h</text>
</a>
</g>
</g>
<!-- Node1&#45;&gt;Node2 -->
<g id="edge1" class="edge"><title>Node1&#45;&gt;Node2</title>
<path fill="none" stroke="midnightblue" d="M1671.5,-277.693C1636.96,-271.607 1598.42,-258.733 1573,-232 1553.78,-211.785 1552.7,-176.049 1553.36,-159.444"/>
<polygon fill="midnightblue" stroke="midnightblue" points="1671.17,-281.184 1681.59,-279.304 1672.27,-274.272 1671.17,-281.184"/>
</g>
<!-- Node26 -->
<g id="node26" class="node"><title>Node26</title>
<g id="a_node26"><a xlink:href="_software_button_8h.html" target="_top" xlink:title="lib/carpi/src/components\l/software/SoftwareButton.h">
<polygon fill="white" stroke="black" points="1582,-201.5 1582,-231.5 1728,-231.5 1728,-201.5 1582,-201.5"/>
<text text-anchor="start" x="1590" y="-219.5" font-family="Helvetica,sans-Serif" font-size="10.00">lib/carpi/src/components</text>
<text text-anchor="middle" x="1655" y="-208.5" font-family="Helvetica,sans-Serif" font-size="10.00">/software/SoftwareButton.h</text>
</a>
</g>
</g>
<!-- Node1&#45;&gt;Node26 -->
<g id="edge29" class="edge"><title>Node1&#45;&gt;Node26</title>
<path fill="none" stroke="midnightblue" d="M1720.01,-262.451C1705.55,-252.452 1688.41,-240.6 1675.36,-231.577"/>
<polygon fill="midnightblue" stroke="midnightblue" points="1718.39,-265.587 1728.6,-268.396 1722.37,-259.83 1718.39,-265.587"/>
</g>
<!-- Node27 -->
<g id="node27" class="node"><title>Node27</title>
<g id="a_node27"><a xlink:href="_hardware_interrupt_button_8h.html" target="_top" xlink:title="lib/carpi/src/components\l/hardware/HardwareInterruptButton.h">
<polygon fill="white" stroke="black" points="1746.5,-201.5 1746.5,-231.5 1941.5,-231.5 1941.5,-201.5 1746.5,-201.5"/>
<text text-anchor="start" x="1754.5" y="-219.5" font-family="Helvetica,sans-Serif" font-size="10.00">lib/carpi/src/components</text>
<text text-anchor="middle" x="1844" y="-208.5" font-family="Helvetica,sans-Serif" font-size="10.00">/hardware/HardwareInterruptButton.h</text>
</a>
</g>
</g>
<!-- Node1&#45;&gt;Node27 -->
<g id="edge31" class="edge"><title>Node1&#45;&gt;Node27</title>
<path fill="none" stroke="midnightblue" d="M1777.89,-262.734C1792.59,-252.676 1810.11,-240.685 1823.43,-231.577"/>
<polygon fill="midnightblue" stroke="midnightblue" points="1775.89,-259.861 1769.61,-268.396 1779.84,-265.638 1775.89,-259.861"/>
</g>
<!-- Node28 -->
<g id="node28" class="node"><title>Node28</title>
<g id="a_node28"><a xlink:href="_s_car_8h.html" target="_top" xlink:title="lib/carpi/src/runable\l/services/SCar.h">
<polygon fill="white" stroke="black" points="3105,-201.5 3105,-231.5 3215,-231.5 3215,-201.5 3105,-201.5"/>
<text text-anchor="start" x="3113" y="-219.5" font-family="Helvetica,sans-Serif" font-size="10.00">lib/carpi/src/runable</text>
<text text-anchor="middle" x="3160" y="-208.5" font-family="Helvetica,sans-Serif" font-size="10.00">/services/SCar.h</text>
</a>
</g>
</g>
<!-- Node1&#45;&gt;Node28 -->
<g id="edge32" class="edge"><title>Node1&#45;&gt;Node28</title>
<path fill="none" stroke="midnightblue" d="M1826.35,-278.937C2080.48,-267.23 2885.94,-230.125 3104.71,-220.047"/>
<polygon fill="midnightblue" stroke="midnightblue" points="1825.93,-275.452 1816.11,-279.409 1826.26,-282.445 1825.93,-275.452"/>
</g>
<!-- Node3 -->
<g id="node3" class="node"><title>Node3</title>
<g id="a_node3"><a xlink:href="_dashboard_slave_conf_8h.html" target="_top" xlink:title="car/Bonnie2019/Dashboard\lSlaveConf.h">
<polygon fill="white" stroke="black" points="2678.5,-67.5 2678.5,-97.5 2825.5,-97.5 2825.5,-67.5 2678.5,-67.5"/>
<text text-anchor="start" x="2686.5" y="-85.5" font-family="Helvetica,sans-Serif" font-size="10.00">car/Bonnie2019/Dashboard</text>
<text text-anchor="middle" x="2752" y="-74.5" font-family="Helvetica,sans-Serif" font-size="10.00">SlaveConf.h</text>
</a>
</g>
</g>
<!-- Node2&#45;&gt;Node3 -->
<g id="edge2" class="edge"><title>Node2&#45;&gt;Node3</title>
<path fill="none" stroke="midnightblue" d="M1617.34,-148.457C1787.82,-147.732 2270.47,-141.656 2669,-98 2672.05,-97.6655 2675.16,-97.2883 2678.3,-96.8777"/>
<polygon fill="midnightblue" stroke="midnightblue" points="1617.27,-144.957 1607.28,-148.495 1617.3,-151.957 1617.27,-144.957"/>
</g>
<!-- Node4 -->
<g id="node4" class="node"><title>Node4</title>
<g id="a_node4"><a xlink:href="_display_slave_conf_8h.html" target="_top" xlink:title="car/Bonnie2019/DisplaySlave\lConf.h">
<polygon fill="white" stroke="black" points="2843.5,-67.5 2843.5,-97.5 2998.5,-97.5 2998.5,-67.5 2843.5,-67.5"/>
<text text-anchor="start" x="2851.5" y="-85.5" font-family="Helvetica,sans-Serif" font-size="10.00">car/Bonnie2019/DisplaySlave</text>
<text text-anchor="middle" x="2921" y="-74.5" font-family="Helvetica,sans-Serif" font-size="10.00">Conf.h</text>
</a>
</g>
</g>
<!-- Node2&#45;&gt;Node4 -->
<g id="edge3" class="edge"><title>Node2&#45;&gt;Node4</title>
<path fill="none" stroke="midnightblue" d="M1617.4,-148.813C1804.24,-149.129 2368.8,-145.752 2834,-98 2837.05,-97.6873 2840.15,-97.3349 2843.28,-96.951"/>
<polygon fill="midnightblue" stroke="midnightblue" points="1617.22,-145.312 1607.21,-148.791 1617.2,-152.312 1617.22,-145.312"/>
</g>
<!-- Node5 -->
<g id="node5" class="node"><title>Node5</title>
<g id="a_node5"><a xlink:href="_lo_ra_conf_8h.html" target="_top" xlink:title="car/Bonnie2019/LoRaConf.h">
<polygon fill="white" stroke="black" points="3017,-73 3017,-92 3165,-92 3165,-73 3017,-73"/>
<text text-anchor="middle" x="3091" y="-80" font-family="Helvetica,sans-Serif" font-size="10.00">car/Bonnie2019/LoRaConf.h</text>
</a>
</g>
</g>
<!-- Node2&#45;&gt;Node5 -->
<g id="edge4" class="edge"><title>Node2&#45;&gt;Node5</title>
<path fill="none" stroke="midnightblue" d="M1617.07,-147.453C1859.46,-143.25 2731.32,-126.45 3007,-98 3020.54,-96.6023 3035.2,-94.3365 3048.42,-92.0071"/>
<polygon fill="midnightblue" stroke="midnightblue" points="1616.95,-143.954 1607.02,-147.626 1617.07,-150.953 1616.95,-143.954"/>
</g>
<!-- Node6 -->
<g id="node6" class="node"><title>Node6</title>
<g id="a_node6"><a xlink:href="_master_conf_8h.html" target="_top" xlink:title="car/Bonnie2019/MasterConf.h">
<polygon fill="white" stroke="black" points="0,-73 0,-92 158,-92 158,-73 0,-73"/>
<text text-anchor="middle" x="79" y="-80" font-family="Helvetica,sans-Serif" font-size="10.00">car/Bonnie2019/MasterConf.h</text>
</a>
</g>
</g>
<!-- Node2&#45;&gt;Node6 -->
<g id="edge5" class="edge"><title>Node2&#45;&gt;Node6</title>
<path fill="none" stroke="midnightblue" d="M1490.78,-149.047C1294.1,-150.139 675.774,-148.97 167,-98 152.98,-96.5954 137.808,-94.3572 124.074,-92.0555"/>
<polygon fill="midnightblue" stroke="midnightblue" points="1490.95,-152.546 1500.93,-148.987 1490.9,-145.546 1490.95,-152.546"/>
</g>
<!-- Node7 -->
<g id="node7" class="node"><title>Node7</title>
<g id="a_node7"><a xlink:href="_pedal_slave_conf_8h.html" target="_top" xlink:title="car/Bonnie2019/PedalSlave\lConf.h">
<polygon fill="white" stroke="black" points="176.5,-67.5 176.5,-97.5 323.5,-97.5 323.5,-67.5 176.5,-67.5"/>
<text text-anchor="start" x="184.5" y="-85.5" font-family="Helvetica,sans-Serif" font-size="10.00">car/Bonnie2019/PedalSlave</text>
<text text-anchor="middle" x="250" y="-74.5" font-family="Helvetica,sans-Serif" font-size="10.00">Conf.h</text>
</a>
</g>
</g>
<!-- Node2&#45;&gt;Node7 -->
<g id="edge6" class="edge"><title>Node2&#45;&gt;Node7</title>
<path fill="none" stroke="midnightblue" d="M1490.68,-148.584C1310.13,-148.239 777.429,-143.158 338,-98 333.379,-97.5251 328.633,-96.9625 323.854,-96.339"/>
<polygon fill="midnightblue" stroke="midnightblue" points="1490.79,-152.084 1500.8,-148.599 1490.8,-145.084 1490.79,-152.084"/>
</g>
<!-- Node8 -->
<g id="node8" class="node"><title>Node8</title>
<g id="a_node8"><a xlink:href="_syntetic_sync_8h.html" target="_top" xlink:title="car/hardwareTest/mbed\l/helper/SynteticSync.h">
<polygon fill="white" stroke="black" points="564,-67.5 564,-97.5 692,-97.5 692,-67.5 564,-67.5"/>
<text text-anchor="start" x="572" y="-85.5" font-family="Helvetica,sans-Serif" font-size="10.00">car/hardwareTest/mbed</text>
<text text-anchor="middle" x="628" y="-74.5" font-family="Helvetica,sans-Serif" font-size="10.00">/helper/SynteticSync.h</text>
</a>
</g>
</g>
<!-- Node2&#45;&gt;Node8 -->
<g id="edge7" class="edge"><title>Node2&#45;&gt;Node8</title>
<path fill="none" stroke="midnightblue" d="M1490.6,-147.71C1348.63,-145.294 994.562,-135.665 701,-98 698.052,-97.6218 695.045,-97.1945 692.013,-96.73"/>
<polygon fill="midnightblue" stroke="midnightblue" points="1490.8,-151.214 1500.86,-147.878 1490.92,-144.215 1490.8,-151.214"/>
</g>
<!-- Node10 -->
<g id="node10" class="node"><title>Node10</title>
<g id="a_node10"><a xlink:href="_hardware_s_d_card_stress_test_8h.html" target="_top" xlink:title="car/hardwareTest/mbed\l/HardwareSDCardStressTest.h">
<polygon fill="white" stroke="black" points="291.5,-0.5 291.5,-30.5 452.5,-30.5 452.5,-0.5 291.5,-0.5"/>
<text text-anchor="start" x="299.5" y="-18.5" font-family="Helvetica,sans-Serif" font-size="10.00">car/hardwareTest/mbed</text>
<text text-anchor="middle" x="372" y="-7.5" font-family="Helvetica,sans-Serif" font-size="10.00">/HardwareSDCardStressTest.h</text>
</a>
</g>
</g>
<!-- Node2&#45;&gt;Node10 -->
<g id="edge17" class="edge"><title>Node2&#45;&gt;Node10</title>
<path fill="none" stroke="midnightblue" d="M1490.65,-148.194C1250.79,-146.729 409.999,-138.699 371,-98 353.965,-80.2225 360.549,-48.9603 366.515,-30.757"/>
<polygon fill="midnightblue" stroke="midnightblue" points="1490.92,-151.695 1500.94,-148.255 1490.96,-144.696 1490.92,-151.695"/>
</g>
<!-- Node11 -->
<g id="node11" class="node"><title>Node11</title>
<g id="a_node11"><a xlink:href="_hardware_s_d_card_test_8h.html" target="_top" xlink:title="car/hardwareTest/mbed\l/HardwareSDCardTest.h">
<polygon fill="white" stroke="black" points="471,-0.5 471,-30.5 601,-30.5 601,-0.5 471,-0.5"/>
<text text-anchor="start" x="479" y="-18.5" font-family="Helvetica,sans-Serif" font-size="10.00">car/hardwareTest/mbed</text>
<text text-anchor="middle" x="536" y="-7.5" font-family="Helvetica,sans-Serif" font-size="10.00">/HardwareSDCardTest.h</text>
</a>
</g>
</g>
<!-- Node2&#45;&gt;Node11 -->
<g id="edge21" class="edge"><title>Node2&#45;&gt;Node11</title>
<path fill="none" stroke="midnightblue" d="M1490.61,-147.38C1276.43,-143.325 590.952,-128.045 555,-98 535.379,-81.6028 533.756,-49.2302 534.658,-30.5987"/>
<polygon fill="midnightblue" stroke="midnightblue" points="1490.69,-150.882 1500.75,-147.57 1490.82,-143.883 1490.69,-150.882"/>
</g>
<!-- Node12 -->
<g id="node12" class="node"><title>Node12</title>
<g id="a_node12"><a xlink:href="_button_unit_test_8h.html" target="_top" xlink:title="car/hardwareTest/mbed\l/ButtonUnitTest.h">
<polygon fill="white" stroke="black" points="710,-67.5 710,-97.5 838,-97.5 838,-67.5 710,-67.5"/>
<text text-anchor="start" x="718" y="-85.5" font-family="Helvetica,sans-Serif" font-size="10.00">car/hardwareTest/mbed</text>
<text text-anchor="middle" x="774" y="-74.5" font-family="Helvetica,sans-Serif" font-size="10.00">/ButtonUnitTest.h</text>
</a>
</g>
</g>
<!-- Node2&#45;&gt;Node12 -->
<g id="edge11" class="edge"><title>Node2&#45;&gt;Node12</title>
<path fill="none" stroke="midnightblue" d="M1490.93,-146.635C1367.04,-142.389 1083.36,-129.789 847,-98 844.055,-97.6039 841.049,-97.1619 838.018,-96.6854"/>
<polygon fill="midnightblue" stroke="midnightblue" points="1490.89,-150.135 1501,-146.973 1491.12,-143.139 1490.89,-150.135"/>
</g>
<!-- Node13 -->
<g id="node13" class="node"><title>Node13</title>
<g id="a_node13"><a xlink:href="_c_a_n_service_unit_test_8h.html" target="_top" xlink:title="car/hardwareTest/mbed\l/CANServiceUnitTest.h">
<polygon fill="white" stroke="black" points="856,-67.5 856,-97.5 984,-97.5 984,-67.5 856,-67.5"/>
<text text-anchor="start" x="864" y="-85.5" font-family="Helvetica,sans-Serif" font-size="10.00">car/hardwareTest/mbed</text>
<text text-anchor="middle" x="920" y="-74.5" font-family="Helvetica,sans-Serif" font-size="10.00">/CANServiceUnitTest.h</text>
</a>
</g>
</g>
<!-- Node2&#45;&gt;Node13 -->
<g id="edge12" class="edge"><title>Node2&#45;&gt;Node13</title>
<path fill="none" stroke="midnightblue" d="M1490.77,-145.006C1386.61,-138.758 1172.62,-123.849 993,-98 990.058,-97.5767 987.056,-97.1124 984.028,-96.6179"/>
<polygon fill="midnightblue" stroke="midnightblue" points="1490.61,-148.502 1500.8,-145.601 1491.02,-141.515 1490.61,-148.502"/>
</g>
<!-- Node14 -->
<g id="node14" class="node"><title>Node14</title>
<g id="a_node14"><a xlink:href="_dashboard_demo_8h.html" target="_top" xlink:title="car/hardwareTest/mbed\l/DashboardDemo.h">
<polygon fill="white" stroke="black" points="1002,-67.5 1002,-97.5 1130,-97.5 1130,-67.5 1002,-67.5"/>
<text text-anchor="start" x="1010" y="-85.5" font-family="Helvetica,sans-Serif" font-size="10.00">car/hardwareTest/mbed</text>
<text text-anchor="middle" x="1066" y="-74.5" font-family="Helvetica,sans-Serif" font-size="10.00">/DashboardDemo.h</text>
</a>
</g>
</g>
<!-- Node2&#45;&gt;Node14 -->
<g id="edge13" class="edge"><title>Node2&#45;&gt;Node14</title>
<path fill="none" stroke="midnightblue" d="M1490.65,-142.284C1409.08,-133.938 1263.06,-117.84 1139,-98 1136.07,-97.5307 1133.07,-97.0286 1130.05,-96.5036"/>
<polygon fill="midnightblue" stroke="midnightblue" points="1490.46,-145.782 1500.76,-143.312 1491.16,-138.818 1490.46,-145.782"/>
</g>
<!-- Node15 -->
<g id="node15" class="node"><title>Node15</title>
<g id="a_node15"><a xlink:href="_hardware_buzzer_unit_test_8h.html" target="_top" xlink:title="car/hardwareTest/mbed\l/HardwareBuzzerUnitTest.h">
<polygon fill="white" stroke="black" points="1148,-67.5 1148,-97.5 1294,-97.5 1294,-67.5 1148,-67.5"/>
<text text-anchor="start" x="1156" y="-85.5" font-family="Helvetica,sans-Serif" font-size="10.00">car/hardwareTest/mbed</text>
<text text-anchor="middle" x="1221" y="-74.5" font-family="Helvetica,sans-Serif" font-size="10.00">/HardwareBuzzerUnitTest.h</text>
</a>
</g>
</g>
<!-- Node2&#45;&gt;Node15 -->
<g id="edge14" class="edge"><title>Node2&#45;&gt;Node15</title>
<path fill="none" stroke="midnightblue" d="M1500,-137.96C1443.73,-126.975 1355.23,-109.701 1293.03,-97.5592"/>
<polygon fill="midnightblue" stroke="midnightblue" points="1499.64,-141.455 1510.12,-139.936 1500.98,-134.584 1499.64,-141.455"/>
</g>
<!-- Node16 -->
<g id="node16" class="node"><title>Node16</title>
<g id="a_node16"><a xlink:href="_hardware_pedal_unit_test_8h.html" target="_top" xlink:title="car/hardwareTest/mbed\l/HardwarePedalUnitTest.h">
<polygon fill="white" stroke="black" points="1312.5,-67.5 1312.5,-97.5 1451.5,-97.5 1451.5,-67.5 1312.5,-67.5"/>
<text text-anchor="start" x="1320.5" y="-85.5" font-family="Helvetica,sans-Serif" font-size="10.00">car/hardwareTest/mbed</text>
<text text-anchor="middle" x="1382" y="-74.5" font-family="Helvetica,sans-Serif" font-size="10.00">/HardwarePedalUnitTest.h</text>
</a>
</g>
</g>
<!-- Node2&#45;&gt;Node16 -->
<g id="edge15" class="edge"><title>Node2&#45;&gt;Node16</title>
<path fill="none" stroke="midnightblue" d="M1521.46,-136.202C1492.31,-125.188 1449.59,-109.042 1419.12,-97.5281"/>
<polygon fill="midnightblue" stroke="midnightblue" points="1520.57,-139.607 1531.16,-139.869 1523.04,-133.059 1520.57,-139.607"/>
</g>
<!-- Node17 -->
<g id="node17" class="node"><title>Node17</title>
<g id="a_node17"><a xlink:href="_hardware_pwm_buzzer_unit_test_8h.html" target="_top" xlink:title="car/hardwareTest/mbed\l/HardwarePwmBuzzerUnitTest.h">
<polygon fill="white" stroke="black" points="1470,-67.5 1470,-97.5 1638,-97.5 1638,-67.5 1470,-67.5"/>
<text text-anchor="start" x="1478" y="-85.5" font-family="Helvetica,sans-Serif" font-size="10.00">car/hardwareTest/mbed</text>
<text text-anchor="middle" x="1554" y="-74.5" font-family="Helvetica,sans-Serif" font-size="10.00">/HardwarePwmBuzzerUnitTest.h</text>
</a>
</g>
</g>
<!-- Node2&#45;&gt;Node17 -->
<g id="edge16" class="edge"><title>Node2&#45;&gt;Node17</title>
<path fill="none" stroke="midnightblue" d="M1554,-129.411C1554,-119.222 1554,-106.901 1554,-97.589"/>
<polygon fill="midnightblue" stroke="midnightblue" points="1550.5,-129.734 1554,-139.734 1557.5,-129.734 1550.5,-129.734"/>
</g>
<!-- Node18 -->
<g id="node18" class="node"><title>Node18</title>
<g id="a_node18"><a xlink:href="_dummy_s_car_8h.html" target="_top" xlink:title="car/hardwareTest/mbed\l/helper/DummySCar.h">
<polygon fill="white" stroke="black" points="380,-67.5 380,-97.5 508,-97.5 508,-67.5 380,-67.5"/>
<text text-anchor="start" x="388" y="-85.5" font-family="Helvetica,sans-Serif" font-size="10.00">car/hardwareTest/mbed</text>
<text text-anchor="middle" x="444" y="-74.5" font-family="Helvetica,sans-Serif" font-size="10.00">/helper/DummySCar.h</text>
</a>
</g>
</g>
<!-- Node2&#45;&gt;Node18 -->
<g id="edge18" class="edge"><title>Node2&#45;&gt;Node18</title>
<path fill="none" stroke="midnightblue" d="M1490.64,-148.367C1328.77,-147.384 887.025,-140.662 522,-98 517.485,-97.4724 512.839,-96.8398 508.169,-96.1382"/>
<polygon fill="midnightblue" stroke="midnightblue" points="1490.88,-151.868 1500.89,-148.423 1490.91,-144.868 1490.88,-151.868"/>
</g>
<!-- Node19 -->
<g id="node19" class="node"><title>Node19</title>
<g id="a_node19"><a xlink:href="_l_e_d_p_w_m_unit_test_8h.html" target="_top" xlink:title="car/hardwareTest/mbed\l/LEDPWMUnitTest.h">
<polygon fill="white" stroke="black" points="1656,-67.5 1656,-97.5 1784,-97.5 1784,-67.5 1656,-67.5"/>
<text text-anchor="start" x="1664" y="-85.5" font-family="Helvetica,sans-Serif" font-size="10.00">car/hardwareTest/mbed</text>
<text text-anchor="middle" x="1720" y="-74.5" font-family="Helvetica,sans-Serif" font-size="10.00">/LEDPWMUnitTest.h</text>
</a>
</g>
</g>
<!-- Node2&#45;&gt;Node19 -->
<g id="edge22" class="edge"><title>Node2&#45;&gt;Node19</title>
<path fill="none" stroke="midnightblue" d="M1585.41,-136.202C1613.54,-125.188 1654.77,-109.042 1684.17,-97.5281"/>
<polygon fill="midnightblue" stroke="midnightblue" points="1584.08,-132.963 1576.04,-139.869 1586.63,-139.481 1584.08,-132.963"/>
</g>
<!-- Node20 -->
<g id="node20" class="node"><title>Node20</title>
<g id="a_node20"><a xlink:href="_l_e_d_unit_test_8h.html" target="_top" xlink:title="car/hardwareTest/mbed\l/LEDUnitTest.h">
<polygon fill="white" stroke="black" points="1802,-67.5 1802,-97.5 1930,-97.5 1930,-67.5 1802,-67.5"/>
<text text-anchor="start" x="1810" y="-85.5" font-family="Helvetica,sans-Serif" font-size="10.00">car/hardwareTest/mbed</text>
<text text-anchor="middle" x="1866" y="-74.5" font-family="Helvetica,sans-Serif" font-size="10.00">/LEDUnitTest.h</text>
</a>
</g>
</g>
<!-- Node2&#45;&gt;Node20 -->
<g id="edge23" class="edge"><title>Node2&#45;&gt;Node20</title>
<path fill="none" stroke="midnightblue" d="M1605.1,-137.854C1658.84,-126.659 1743.52,-109.016 1801.75,-96.8847"/>
<polygon fill="midnightblue" stroke="midnightblue" points="1604.19,-134.469 1595.11,-139.936 1605.61,-141.322 1604.19,-134.469"/>
</g>
<!-- Node21 -->
<g id="node21" class="node"><title>Node21</title>
<g id="a_node21"><a xlink:href="_master_output_test_8h.html" target="_top" xlink:title="car/hardwareTest/mbed\l/MasterOutputTest.h">
<polygon fill="white" stroke="black" points="1948,-67.5 1948,-97.5 2076,-97.5 2076,-67.5 1948,-67.5"/>
<text text-anchor="start" x="1956" y="-85.5" font-family="Helvetica,sans-Serif" font-size="10.00">car/hardwareTest/mbed</text>
<text text-anchor="middle" x="2012" y="-74.5" font-family="Helvetica,sans-Serif" font-size="10.00">/MasterOutputTest.h</text>
</a>
</g>
</g>
<!-- Node2&#45;&gt;Node21 -->
<g id="edge24" class="edge"><title>Node2&#45;&gt;Node21</title>
<path fill="none" stroke="midnightblue" d="M1617.04,-141.518C1693.45,-132.76 1826.01,-116.612 1939,-98 1941.93,-97.517 1944.93,-97.0037 1947.95,-96.4695"/>
<polygon fill="midnightblue" stroke="midnightblue" points="1616.64,-138.042 1607.1,-142.653 1617.43,-144.997 1616.64,-138.042"/>
</g>
<!-- Node22 -->
<g id="node22" class="node"><title>Node22</title>
<g id="a_node22"><a xlink:href="_pedal_unit_test_8h.html" target="_top" xlink:title="car/hardwareTest/mbed\l/PedalUnitTest.h">
<polygon fill="white" stroke="black" points="2094,-67.5 2094,-97.5 2222,-97.5 2222,-67.5 2094,-67.5"/>
<text text-anchor="start" x="2102" y="-85.5" font-family="Helvetica,sans-Serif" font-size="10.00">car/hardwareTest/mbed</text>
<text text-anchor="middle" x="2158" y="-74.5" font-family="Helvetica,sans-Serif" font-size="10.00">/PedalUnitTest.h</text>
</a>
</g>
</g>
<!-- Node2&#45;&gt;Node22 -->
<g id="edge25" class="edge"><title>Node2&#45;&gt;Node22</title>
<path fill="none" stroke="midnightblue" d="M1617.57,-144.543C1717.46,-137.857 1917.08,-122.597 2085,-98 2087.94,-97.5693 2090.94,-97.0989 2093.97,-96.5995"/>
<polygon fill="midnightblue" stroke="midnightblue" points="1617.1,-141.067 1607.35,-145.221 1617.56,-148.052 1617.1,-141.067"/>
</g>
<!-- Node23 -->
<g id="node23" class="node"><title>Node23</title>
<g id="a_node23"><a xlink:href="_pump_refill_8h.html" target="_top" xlink:title="car/hardwareTest/mbed\l/PumpRefill.h">
<polygon fill="white" stroke="black" points="2240,-67.5 2240,-97.5 2368,-97.5 2368,-67.5 2240,-67.5"/>
<text text-anchor="start" x="2248" y="-85.5" font-family="Helvetica,sans-Serif" font-size="10.00">car/hardwareTest/mbed</text>
<text text-anchor="middle" x="2304" y="-74.5" font-family="Helvetica,sans-Serif" font-size="10.00">/PumpRefill.h</text>
</a>
</g>
</g>
<!-- Node2&#45;&gt;Node23 -->
<g id="edge26" class="edge"><title>Node2&#45;&gt;Node23</title>
<path fill="none" stroke="midnightblue" d="M1617.46,-146.342C1737.66,-141.685 2006.6,-128.541 2231,-98 2233.94,-97.5992 2236.95,-97.1534 2239.98,-96.6739"/>
<polygon fill="midnightblue" stroke="midnightblue" points="1617.19,-142.85 1607.33,-146.728 1617.46,-149.845 1617.19,-142.85"/>
</g>
<!-- Node24 -->
<g id="node24" class="node"><title>Node24</title>
<g id="a_node24"><a xlink:href="_r_f_eand_r_u_ntest_8h.html" target="_top" xlink:title="car/hardwareTest/mbed\l/RFEandRUNtest.h">
<polygon fill="white" stroke="black" points="2386,-67.5 2386,-97.5 2514,-97.5 2514,-67.5 2386,-67.5"/>
<text text-anchor="start" x="2394" y="-85.5" font-family="Helvetica,sans-Serif" font-size="10.00">car/hardwareTest/mbed</text>
<text text-anchor="middle" x="2450" y="-74.5" font-family="Helvetica,sans-Serif" font-size="10.00">/RFEandRUNtest.h</text>
</a>
</g>
</g>
<!-- Node2&#45;&gt;Node24 -->
<g id="edge27" class="edge"><title>Node2&#45;&gt;Node24</title>
<path fill="none" stroke="midnightblue" d="M1617.19,-147.522C1755.49,-144.746 2095.15,-134.47 2377,-98 2379.95,-97.6186 2382.95,-97.1887 2385.99,-96.7221"/>
<polygon fill="midnightblue" stroke="midnightblue" points="1617.12,-144.022 1607.19,-147.716 1617.26,-151.021 1617.12,-144.022"/>
</g>
<!-- Node25 -->
<g id="node25" class="node"><title>Node25</title>
<g id="a_node25"><a xlink:href="_r_p_m_sensor_unit_test_8h.html" target="_top" xlink:title="car/hardwareTest/mbed\l/RPMSensorUnitTest.h">
<polygon fill="white" stroke="black" points="2532,-67.5 2532,-97.5 2660,-97.5 2660,-67.5 2532,-67.5"/>
<text text-anchor="start" x="2540" y="-85.5" font-family="Helvetica,sans-Serif" font-size="10.00">car/hardwareTest/mbed</text>
<text text-anchor="middle" x="2596" y="-74.5" font-family="Helvetica,sans-Serif" font-size="10.00">/RPMSensorUnitTest.h</text>
</a>
</g>
</g>
<!-- Node2&#45;&gt;Node25 -->
<g id="edge28" class="edge"><title>Node2&#45;&gt;Node25</title>
<path fill="none" stroke="midnightblue" d="M1617.3,-148.348C1772.35,-147.292 2183.32,-140.363 2523,-98 2525.95,-97.6322 2528.96,-97.2135 2531.99,-96.7559"/>
<polygon fill="midnightblue" stroke="midnightblue" points="1616.99,-144.849 1607.02,-148.412 1617.04,-151.849 1616.99,-144.849"/>
</g>
<!-- Node9 -->
<g id="node9" class="node"><title>Node9</title>
<g id="a_node9"><a xlink:href="_alive_component_test_8h.html" target="_top" xlink:title="car/hardwareTest/mbed\l/AliveComponentTest.h">
<polygon fill="white" stroke="black" points="619,-0.5 619,-30.5 747,-30.5 747,-0.5 619,-0.5"/>
<text text-anchor="start" x="627" y="-18.5" font-family="Helvetica,sans-Serif" font-size="10.00">car/hardwareTest/mbed</text>
<text text-anchor="middle" x="683" y="-7.5" font-family="Helvetica,sans-Serif" font-size="10.00">/AliveComponentTest.h</text>
</a>
</g>
</g>
<!-- Node8&#45;&gt;Node9 -->
<g id="edge8" class="edge"><title>Node8&#45;&gt;Node9</title>
<path fill="none" stroke="midnightblue" d="M646.416,-59.7362C654.553,-50.119 663.886,-39.0888 671.089,-30.5765"/>
<polygon fill="midnightblue" stroke="midnightblue" points="643.722,-57.5013 639.934,-67.396 649.065,-62.0229 643.722,-57.5013"/>
</g>
<!-- Node8&#45;&gt;Node10 -->
<g id="edge9" class="edge"><title>Node8&#45;&gt;Node10</title>
<path fill="none" stroke="midnightblue" d="M562.954,-64.9844C521.139,-54.3674 467.39,-40.7201 427.575,-30.6109"/>
<polygon fill="midnightblue" stroke="midnightblue" points="562.213,-68.4073 572.767,-67.476 563.936,-61.6226 562.213,-68.4073"/>
</g>
<!-- Node8&#45;&gt;Node11 -->
<g id="edge10" class="edge"><title>Node8&#45;&gt;Node11</title>
<path fill="none" stroke="midnightblue" d="M599.623,-61.4511C585.47,-51.4517 568.695,-39.5995 555.924,-30.5765"/>
<polygon fill="midnightblue" stroke="midnightblue" points="597.851,-64.4841 608.037,-67.396 601.89,-58.7671 597.851,-64.4841"/>
</g>
<!-- Node18&#45;&gt;Node10 -->
<g id="edge19" class="edge"><title>Node18&#45;&gt;Node10</title>
<path fill="none" stroke="midnightblue" d="M420.847,-60.5978C409.975,-50.7831 397.304,-39.3442 387.592,-30.5765"/>
<polygon fill="midnightblue" stroke="midnightblue" points="418.609,-63.2929 428.377,-67.396 423.3,-58.097 418.609,-63.2929"/>
</g>
<!-- Node18&#45;&gt;Node11 -->
<g id="edge20" class="edge"><title>Node18&#45;&gt;Node11</title>
<path fill="none" stroke="midnightblue" d="M472.377,-61.4511C486.53,-51.4517 503.305,-39.5995 516.076,-30.5765"/>
<polygon fill="midnightblue" stroke="midnightblue" points="470.11,-58.7671 463.963,-67.396 474.149,-64.4841 470.11,-58.7671"/>
</g>
<!-- Node26&#45;&gt;Node2 -->
<g id="edge30" class="edge"><title>Node26&#45;&gt;Node2</title>
<path fill="none" stroke="midnightblue" d="M1624.66,-195.975C1605.51,-183.649 1581.73,-168.345 1567.22,-159.007"/>
<polygon fill="midnightblue" stroke="midnightblue" points="1622.78,-198.927 1633.08,-201.396 1626.57,-193.041 1622.78,-198.927"/>
</g>
<!-- Node29 -->
<g id="node29" class="node"><title>Node29</title>
<g id="a_node29"><a xlink:href="_p_cooling_8h.html" target="_top" xlink:title="lib/carpi/src/runable\l/programs/PCooling.h">
<polygon fill="white" stroke="black" points="3183.5,-67.5 3183.5,-97.5 3302.5,-97.5 3302.5,-67.5 3183.5,-67.5"/>
<text text-anchor="start" x="3191.5" y="-85.5" font-family="Helvetica,sans-Serif" font-size="10.00">lib/carpi/src/runable</text>
<text text-anchor="middle" x="3243" y="-74.5" font-family="Helvetica,sans-Serif" font-size="10.00">/programs/PCooling.h</text>
</a>
</g>
</g>
<!-- Node28&#45;&gt;Node29 -->
<g id="edge33" class="edge"><title>Node28&#45;&gt;Node29</title>
<path fill="none" stroke="midnightblue" d="M3193.74,-195.505C3204.89,-187.35 3216.38,-176.996 3224,-165 3237.32,-144.029 3241.32,-114.71 3242.51,-97.5524"/>
<polygon fill="midnightblue" stroke="midnightblue" points="3191.59,-192.739 3185.35,-201.304 3195.57,-198.498 3191.59,-192.739"/>
</g>
<!-- Node30 -->
<g id="node30" class="node"><title>Node30</title>
<g id="a_node30"><a xlink:href="_p_logger_8h.html" target="_top" xlink:title="lib/carpi/src/runable\l/programs/PLogger.h">
<polygon fill="white" stroke="black" points="3271,-134.5 3271,-164.5 3387,-164.5 3387,-134.5 3271,-134.5"/>
<text text-anchor="start" x="3279" y="-152.5" font-family="Helvetica,sans-Serif" font-size="10.00">lib/carpi/src/runable</text>
<text text-anchor="middle" x="3329" y="-141.5" font-family="Helvetica,sans-Serif" font-size="10.00">/programs/PLogger.h</text>
</a>
</g>
</g>
<!-- Node28&#45;&gt;Node30 -->
<g id="edge34" class="edge"><title>Node28&#45;&gt;Node30</title>
<path fill="none" stroke="midnightblue" d="M3206.33,-197.682C3233.43,-187.257 3267.17,-174.281 3292.4,-164.577"/>
<polygon fill="midnightblue" stroke="midnightblue" points="3204.75,-194.539 3196.67,-201.396 3207.26,-201.073 3204.75,-194.539"/>
</g>
<!-- Node31 -->
<g id="node31" class="node"><title>Node31</title>
<g id="a_node31"><a xlink:href="_p_motor_controller_8h.html" target="_top" xlink:title="lib/carpi/src/runable\l/programs/PMotorController.h">
<polygon fill="white" stroke="black" points="2929,-134.5 2929,-164.5 3087,-164.5 3087,-134.5 2929,-134.5"/>
<text text-anchor="start" x="2937" y="-152.5" font-family="Helvetica,sans-Serif" font-size="10.00">lib/carpi/src/runable</text>
<text text-anchor="middle" x="3008" y="-141.5" font-family="Helvetica,sans-Serif" font-size="10.00">/programs/PMotorController.h</text>
</a>
</g>
</g>
<!-- Node28&#45;&gt;Node31 -->
<g id="edge35" class="edge"><title>Node28&#45;&gt;Node31</title>
<path fill="none" stroke="midnightblue" d="M3117.69,-197.407C3093.42,-187.029 3063.41,-174.195 3040.92,-164.577"/>
<polygon fill="midnightblue" stroke="midnightblue" points="3116.45,-200.682 3127.02,-201.396 3119.2,-194.246 3116.45,-200.682"/>
</g>
<!-- Node32 -->
<g id="node32" class="node"><title>Node32</title>
<g id="a_node32"><a xlink:href="_s_speed_8h.html" target="_top" xlink:title="lib/carpi/src/runable\l/services/SSpeed.h">
<polygon fill="white" stroke="black" points="3105,-134.5 3105,-164.5 3215,-164.5 3215,-134.5 3105,-134.5"/>
<text text-anchor="start" x="3113" y="-152.5" font-family="Helvetica,sans-Serif" font-size="10.00">lib/carpi/src/runable</text>
<text text-anchor="middle" x="3160" y="-141.5" font-family="Helvetica,sans-Serif" font-size="10.00">/services/SSpeed.h</text>
</a>
</g>
</g>
<!-- Node28&#45;&gt;Node32 -->
<g id="edge36" class="edge"><title>Node28&#45;&gt;Node32</title>
<path fill="none" stroke="midnightblue" d="M3160,-191.108C3160,-182.154 3160,-172.323 3160,-164.577"/>
<polygon fill="midnightblue" stroke="midnightblue" points="3156.5,-191.396 3160,-201.396 3163.5,-191.396 3156.5,-191.396"/>
</g>
<!-- Node32&#45;&gt;Node29 -->
<g id="edge37" class="edge"><title>Node32&#45;&gt;Node29</title>
<path fill="none" stroke="midnightblue" d="M3185.96,-128.168C3198.65,-118.228 3213.61,-106.514 3225.03,-97.5765"/>
<polygon fill="midnightblue" stroke="midnightblue" points="3183.72,-125.475 3178.01,-134.396 3188.04,-130.986 3183.72,-125.475"/>
</g>
</g>
</svg>
        <g id="navigator" transform="translate(0 0)" fill="#404254">
                <rect fill="#f2f5e9" fill-opacity="0.5" stroke="#606060" stroke-width=".5" x="0" y="0" width="60" height="60"/>
                <use id="zoomplus" xlink:href="#zoomPlus" x="17" y="9" onmousedown="handleZoom(evt,'in')"/>
                <use id="zoomminus" xlink:href="#zoomMin" x="42" y="9" onmousedown="handleZoom(evt,'out')"/>
                <use id="reset" xlink:href="#resetDef" x="30" y="36" onmousedown="handleReset()"/>
                <g id="arrowUp" xlink:href="#dirArrow" transform="translate(30 24)" onmousedown="handlePan(0,-1)">
                  <use xlink:href="#rim" fill="#404040">
                        <set attributeName="fill" to="#808080" begin="arrowUp.mouseover" end="arrowUp.mouseout"/>
                  </use>
                  <path fill="none" stroke="white" stroke-width="1.5" d="M0,-3.0v7 M-2.5,-0.5L0,-3.0L2.5,-0.5"/>
                </g>
                <g id="arrowRight" xlink:href="#dirArrow" transform="rotate(90) translate(36 -43)" onmousedown="handlePan(1,0)">
                  <use xlink:href="#rim" fill="#404040">
                        <set attributeName="fill" to="#808080" begin="arrowRight.mouseover" end="arrowRight.mouseout"/>
                  </use>
                  <path fill="none" stroke="white" stroke-width="1.5" d="M0,-3.0v7 M-2.5,-0.5L0,-3.0L2.5,-0.5"/>
                </g>
                <g id="arrowDown" xlink:href="#dirArrow" transform="rotate(180) translate(-30 -48)" onmousedown="handlePan(0,1)">
                  <use xlink:href="#rim" fill="#404040">
                        <set attributeName="fill" to="#808080" begin="arrowDown.mouseover" end="arrowDown.mouseout"/>
                  </use>
                  <path fill="none" stroke="white" stroke-width="1.5" d="M0,-3.0v7 M-2.5,-0.5L0,-3.0L2.5,-0.5"/>
                </g>
                <g id="arrowLeft" xlink:href="#dirArrow" transform="rotate(270) translate(-36 17)" onmousedown="handlePan(-1,0)">
                  <use xlink:href="#rim" fill="#404040">
                        <set attributeName="fill" to="#808080" begin="arrowLeft.mouseover" end="arrowLeft.mouseout"/>
                  </use>
                  <path fill="none" stroke="white" stroke-width="1.5" d="M0,-3.0v7 M-2.5,-0.5L0,-3.0L2.5,-0.5"/>
                </g>
        </g>
        <svg viewBox="0 0 15 15" width="100%" height="30px" preserveAspectRatio="xMaxYMin meet">
         <g id="arrow_out" transform="scale(0.3 0.3)">
          <a xlink:href="_i_button_8h__dep__incl_org.svg" target="_base">
           <rect id="button" ry="5" rx="5" y="6" x="6" height="38" width="38"
                fill="#f2f5e9" fill-opacity="0.5" stroke="#606060" stroke-width="1.0"/>
           <path id="arrow"
             d="M 11.500037,31.436501 C 11.940474,20.09759 22.043105,11.32322 32.158766,21.979434 L 37.068811,17.246167 C 37.068811,17.246167 37.088388,32 37.088388,32 L 22.160133,31.978069 C 22.160133,31.978069 26.997745,27.140456 26.997745,27.140456 C 18.528582,18.264221 13.291696,25.230495 11.500037,31.436501 z"
             style="fill:#404040;"/>
          </a>
         </g>
        </svg>
</svg>
