<?xml version="1.0" encoding="UTF-8" standalone="no"?>
<!DOCTYPE svg PUBLIC "-//W3C//DTD SVG 1.1//EN"
 "http://www.w3.org/Graphics/SVG/1.1/DTD/svg11.dtd">
<!-- Generated by graphviz version 2.38.0 (20140413.2041)
 -->
<!-- Title: lib/carpi/src/components/interface/IButton.h Pages: 1 -->
<!--zoomable 442 -->
<svg id="main" version="1.1" xmlns="http://www.w3.org/2000/svg" xmlns:xlink="http://www.w3.org/1999/xlink" xml:space="preserve" onload="init(evt)">
<style type="text/css"><![CDATA[
.edge:hover path { stroke: red; }
.edge:hover polygon { stroke: red; fill: red; }
]]></style>
<script type="text/javascript"><![CDATA[
var edges = document.getElementsByTagName('g');
if (edges && edges.length) {
  for (var i=0;i<edges.length;i++) {
    if (edges[i].id.substr(0,4)=='edge') {
      edges[i].setAttribute('class','edge');
    }
  }
}
]]></script>
        <defs>
                <circle id="rim" cx="0" cy="0" r="7"/>
                <circle id="rim2" cx="0" cy="0" r="3.5"/>
                <g id="zoomPlus">
                        <use xlink:href="#rim" fill="#404040">
                                <set attributeName="fill" to="#808080" begin="zoomplus.mouseover" end="zoomplus.mouseout"/>
                        </use>
                        <path d="M-4,0h8M0,-4v8" fill="none" stroke="white" stroke-width="1.5" pointer-events="none"/>
                </g>
                <g id="zoomMin">
                        <use xlink:href="#rim" fill="#404040">
                                <set attributeName="fill" to="#808080" begin="zoomminus.mouseover" end="zoomminus.mouseout"/>
                        </use>
                        <path d="M-4,0h8" fill="none" stroke="white" stroke-width="1.5" pointer-events="none"/>
                </g>
                <g id="dirArrow">
                        <path fill="none" stroke="white" stroke-width="1.5" d="M0,-3.0v7 M-2.5,-0.5L0,-3.0L2.5,-0.5"/>
                </g>
               <g id="resetDef">
                       <use xlink:href="#rim2" fill="#404040">
                               <set attributeName="fill" to="#808080" begin="reset.mouseover" end="reset.mouseout"/>
                       </use>
               </g>
        </defs>

<script type="text/javascript">
var viewWidth = 544;
var viewHeight = 442;
var sectionId = 'dynsection-0';
</script>
<script xlink:href="svgpan.js"/>
<svg id="graph" class="graph">
<g id="viewport">
<title>lib/carpi/src/components/interface/IButton.h</title>
<polygon fill="white" stroke="none" points="-4,4 -4,-438 540.499,-438 540.499,4 -4,4"/>
<!-- Node1 -->
<g id="node1" class="node"><title>Node1</title>
<polygon fill="#bfbfbf" stroke="black" points="338.999,-403.5 338.999,-433.5 472.999,-433.5 472.999,-403.5 338.999,-403.5"/>
<text text-anchor="start" x="346.999" y="-421.5" font-family="Helvetica,sans-Serif" font-size="10.00">lib/carpi/src/components</text>
<text text-anchor="middle" x="405.999" y="-410.5" font-family="Helvetica,sans-Serif" font-size="10.00">/interface/IButton.h</text>
</g>
<!-- Node2 -->
<g id="node2" class="node"><title>Node2</title>
<g id="a_node2"><a xlink:href="_self_syncable_8h.html" target="_top" xlink:title="communication/SelfSyncable.h">
<polygon fill="white" stroke="black" points="257.999,-347.5 257.999,-366.5 421.999,-366.5 421.999,-347.5 257.999,-347.5"/>
<text text-anchor="middle" x="339.999" y="-354.5" font-family="Helvetica,sans-Serif" font-size="10.00">communication/SelfSyncable.h</text>
</a>
</g>
</g>
<!-- Node1&#45;&gt;Node2 -->
<g id="edge1" class="edge"><title>Node1&#45;&gt;Node2</title>
<path fill="none" stroke="midnightblue" d="M390.358,-403.399C380.372,-394.397 367.421,-382.721 357.153,-373.465"/>
<polygon fill="midnightblue" stroke="midnightblue" points="359.373,-370.754 349.602,-366.658 354.686,-375.953 359.373,-370.754"/>
</g>
<!-- Node16 -->
<g id="node16" class="node"><title>Node16</title>
<g id="a_node16"><a xlink:href="_hard_config_8h.html" target="_top" xlink:title="HardConfig.h">
<polygon fill="white" stroke="black" points="457.499,-230 457.499,-249 536.499,-249 536.499,-230 457.499,-230"/>
<text text-anchor="middle" x="496.999" y="-237" font-family="Helvetica,sans-Serif" font-size="10.00">HardConfig.h</text>
</a>
</g>
</g>
<!-- Node1&#45;&gt;Node16 -->
<g id="edge27" class="edge"><title>Node1&#45;&gt;Node16</title>
<path fill="none" stroke="midnightblue" d="M413.292,-403.315C429.721,-371.358 469.606,-293.781 487.744,-258.501"/>
<polygon fill="midnightblue" stroke="midnightblue" points="490.977,-259.868 492.436,-249.374 484.751,-256.667 490.977,-259.868"/>
</g>
<!-- Node3 -->
<g id="node3" class="node"><title>Node3</title>
<g id="a_node3"><a xlink:href="_sync_8h.html" target="_top" xlink:title="Sync.h">
<polygon fill="white" stroke="black" points="195.499,-291.5 195.499,-310.5 244.499,-310.5 244.499,-291.5 195.499,-291.5"/>
<text text-anchor="middle" x="219.999" y="-298.5" font-family="Helvetica,sans-Serif" font-size="10.00">Sync.h</text>
</a>
</g>
</g>
<!-- Node2&#45;&gt;Node3 -->
<g id="edge2" class="edge"><title>Node2&#45;&gt;Node3</title>
<path fill="none" stroke="midnightblue" d="M320.985,-347.444C301.411,-338.636 270.691,-324.812 248.27,-314.722"/>
<polygon fill="midnightblue" stroke="midnightblue" points="249.48,-311.428 238.924,-310.516 246.607,-317.812 249.48,-311.428"/>
</g>
<!-- Node15 -->
<g id="node15" class="node"><title>Node15</title>
<g id="a_node15"><a xlink:href="_i_communication_8h.html" target="_top" xlink:title="components/interface\l/ICommunication.h">
<polygon fill="white" stroke="black" points="278.999,-224.5 278.999,-254.5 400.999,-254.5 400.999,-224.5 278.999,-224.5"/>
<text text-anchor="start" x="286.999" y="-242.5" font-family="Helvetica,sans-Serif" font-size="10.00">components/interface</text>
<text text-anchor="middle" x="339.999" y="-231.5" font-family="Helvetica,sans-Serif" font-size="10.00">/ICommunication.h</text>
</a>
</g>
</g>
<!-- Node2&#45;&gt;Node15 -->
<g id="edge26" class="edge"><title>Node2&#45;&gt;Node15</title>
<path fill="none" stroke="midnightblue" d="M339.999,-347.319C339.999,-329.967 339.999,-290.457 339.999,-264.658"/>
<polygon fill="midnightblue" stroke="midnightblue" points="343.499,-264.545 339.999,-254.545 336.499,-264.545 343.499,-264.545"/>
</g>
<!-- Node4 -->
<g id="node4" class="node"><title>Node4</title>
<polygon fill="white" stroke="#bfbfbf" points="11.4989,-112.5 11.4989,-131.5 58.4989,-131.5 58.4989,-112.5 11.4989,-112.5"/>
<text text-anchor="middle" x="34.9989" y="-119.5" font-family="Helvetica,sans-Serif" font-size="10.00">vector</text>
</g>
<!-- Node3&#45;&gt;Node4 -->
<g id="edge3" class="edge"><title>Node3&#45;&gt;Node4</title>
<path fill="none" stroke="midnightblue" d="M195.498,-293.672C173.305,-286.972 140.701,-274.612 117.999,-255 80.3978,-222.518 54.0475,-168.756 42.1445,-140.928"/>
<polygon fill="midnightblue" stroke="midnightblue" points="45.3548,-139.532 38.2966,-131.631 38.8869,-142.209 45.3548,-139.532"/>
</g>
<!-- Node5 -->
<g id="node5" class="node"><title>Node5</title>
<g id="a_node5"><a xlink:href="component_ids_8h.html" target="_top" xlink:title="componentIds.h">
<polygon fill="white" stroke="black" points="90.9989,-56.5 90.9989,-75.5 184.999,-75.5 184.999,-56.5 90.9989,-56.5"/>
<text text-anchor="middle" x="137.999" y="-63.5" font-family="Helvetica,sans-Serif" font-size="10.00">componentIds.h</text>
</a>
</g>
</g>
<!-- Node3&#45;&gt;Node5 -->
<g id="edge4" class="edge"><title>Node3&#45;&gt;Node5</title>
<path fill="none" stroke="midnightblue" d="M195.455,-296.368C167.2,-291.183 120.513,-279.441 87.9989,-255 34.6793,-214.92 22.0353,-195.623 1.99886,-132 -9.75395,-94.6803 38.611,-78.7813 80.8806,-72.0118"/>
<polygon fill="midnightblue" stroke="midnightblue" points="81.5038,-75.458 90.895,-70.5534 80.495,-68.5311 81.5038,-75.458"/>
</g>
<!-- Node7 -->
<g id="node7" class="node"><title>Node7</title>
<g id="a_node7"><a xlink:href="device_ids_8h.html" target="_top" xlink:title="deviceIds.h">
<polygon fill="white" stroke="black" points="76.9989,-112.5 76.9989,-131.5 146.999,-131.5 146.999,-112.5 76.9989,-112.5"/>
<text text-anchor="middle" x="111.999" y="-119.5" font-family="Helvetica,sans-Serif" font-size="10.00">deviceIds.h</text>
</a>
</g>
</g>
<!-- Node3&#45;&gt;Node7 -->
<g id="edge6" class="edge"><title>Node3&#45;&gt;Node7</title>
<path fill="none" stroke="midnightblue" d="M195.362,-291.911C177.226,-284.803 153.178,-272.788 137.999,-255 110.415,-222.675 108.906,-169.627 110.342,-141.637"/>
<polygon fill="midnightblue" stroke="midnightblue" points="113.836,-141.834 111.042,-131.614 106.853,-141.346 113.836,-141.834"/>
</g>
<!-- Node8 -->
<g id="node8" class="node"><title>Node8</title>
<g id="a_node8"><a xlink:href="_car_message_8h.html" target="_top" xlink:title="CarMessage.h">
<polygon fill="white" stroke="black" points="123.499,-168.5 123.499,-187.5 208.499,-187.5 208.499,-168.5 123.499,-168.5"/>
<text text-anchor="middle" x="165.999" y="-175.5" font-family="Helvetica,sans-Serif" font-size="10.00">CarMessage.h</text>
</a>
</g>
</g>
<!-- Node3&#45;&gt;Node8 -->
<g id="edge7" class="edge"><title>Node3&#45;&gt;Node8</title>
<path fill="none" stroke="midnightblue" d="M195.27,-292.249C178.087,-285.421 156.463,-273.611 145.999,-255 135.588,-236.485 145.237,-212.381 154.397,-196.334"/>
<polygon fill="midnightblue" stroke="midnightblue" points="157.574,-197.852 159.854,-187.506 151.619,-194.172 157.574,-197.852"/>
</g>
<!-- Node10 -->
<g id="node10" class="node"><title>Node10</title>
<g id="a_node10"><a xlink:href="_i_component_8h.html" target="_top" xlink:title="IComponent.h">
<polygon fill="white" stroke="black" points="316.999,-112.5 316.999,-131.5 400.999,-131.5 400.999,-112.5 316.999,-112.5"/>
<text text-anchor="middle" x="358.999" y="-119.5" font-family="Helvetica,sans-Serif" font-size="10.00">IComponent.h</text>
</a>
</g>
</g>
<!-- Node3&#45;&gt;Node10 -->
<g id="edge13" class="edge"><title>Node3&#45;&gt;Node10</title>
<path fill="none" stroke="midnightblue" d="M244.806,-297.863C291.514,-293.271 389.655,-280.725 409.999,-255 438.326,-219.18 398.628,-165.784 374.756,-139.221"/>
<polygon fill="midnightblue" stroke="midnightblue" points="377.04,-136.538 367.668,-131.596 371.913,-141.304 377.04,-136.538"/>
</g>
<!-- Node13 -->
<g id="node13" class="node"><title>Node13</title>
<g id="a_node13"><a xlink:href="_i_channel_8h.html" target="_top" xlink:title="IChannel.h">
<polygon fill="white" stroke="black" points="155.499,-230 155.499,-249 222.499,-249 222.499,-230 155.499,-230"/>
<text text-anchor="middle" x="188.999" y="-237" font-family="Helvetica,sans-Serif" font-size="10.00">IChannel.h</text>
</a>
</g>
</g>
<!-- Node3&#45;&gt;Node13 -->
<g id="edge17" class="edge"><title>Node3&#45;&gt;Node13</title>
<path fill="none" stroke="midnightblue" d="M215.557,-291.475C211.045,-282.815 203.925,-269.149 198.192,-258.145"/>
<polygon fill="midnightblue" stroke="midnightblue" points="201.157,-256.26 193.432,-249.009 194.949,-259.495 201.157,-256.26"/>
</g>
<!-- Node14 -->
<g id="node14" class="node"><title>Node14</title>
<g id="a_node14"><a xlink:href="_i_runable_8h.html" target="_top" xlink:title="runable/IRunable.h">
<polygon fill="white" stroke="black" points="226.999,-168.5 226.999,-187.5 330.999,-187.5 330.999,-168.5 226.999,-168.5"/>
<text text-anchor="middle" x="278.999" y="-175.5" font-family="Helvetica,sans-Serif" font-size="10.00">runable/IRunable.h</text>
</a>
</g>
</g>
<!-- Node3&#45;&gt;Node14 -->
<g id="edge24" class="edge"><title>Node3&#45;&gt;Node14</title>
<path fill="none" stroke="midnightblue" d="M224.242,-291.298C233.852,-271.589 257.442,-223.211 270.299,-196.842"/>
<polygon fill="midnightblue" stroke="midnightblue" points="273.557,-198.146 274.794,-187.623 267.265,-195.078 273.557,-198.146"/>
</g>
<!-- Node3&#45;&gt;Node15 -->
<g id="edge21" class="edge"><title>Node3&#45;&gt;Node15</title>
<path fill="none" stroke="midnightblue" d="M237.192,-291.475C254.204,-283.04 280.795,-269.855 302.672,-259.008"/>
<polygon fill="midnightblue" stroke="midnightblue" points="304.313,-262.101 311.717,-254.523 301.203,-255.83 304.313,-262.101"/>
</g>
<!-- Node3&#45;&gt;Node16 -->
<g id="edge25" class="edge"><title>Node3&#45;&gt;Node16</title>
<path fill="none" stroke="midnightblue" d="M244.527,-295.575C285.71,-288.029 371.291,-271.845 442.999,-255 447.424,-253.96 452.037,-252.816 456.621,-251.64"/>
<polygon fill="midnightblue" stroke="midnightblue" points="457.741,-254.965 466.527,-249.043 455.966,-248.194 457.741,-254.965"/>
</g>
<!-- Node6 -->
<g id="node6" class="node"><title>Node6</title>
<polygon fill="white" stroke="#bfbfbf" points="149.499,-0.5 149.499,-19.5 202.499,-19.5 202.499,-0.5 149.499,-0.5"/>
<text text-anchor="middle" x="175.999" y="-7.5" font-family="Helvetica,sans-Serif" font-size="10.00">stdint.h</text>
</g>
<!-- Node5&#45;&gt;Node6 -->
<g id="edge5" class="edge"><title>Node5&#45;&gt;Node6</title>
<path fill="none" stroke="midnightblue" d="M144.274,-56.083C149.641,-48.4554 157.516,-37.2645 164.078,-27.9408"/>
<polygon fill="midnightblue" stroke="midnightblue" points="166.948,-29.9434 169.841,-19.7511 161.223,-25.9149 166.948,-29.9434"/>
</g>
<!-- Node8&#45;&gt;Node4 -->
<g id="edge9" class="edge"><title>Node8&#45;&gt;Node4</title>
<path fill="none" stroke="midnightblue" d="M145.242,-168.444C123.682,-159.557 89.7355,-145.563 65.2051,-135.451"/>
<polygon fill="midnightblue" stroke="midnightblue" points="66.2383,-132.092 55.6591,-131.516 63.5705,-138.563 66.2383,-132.092"/>
</g>
<!-- Node8&#45;&gt;Node5 -->
<g id="edge12" class="edge"><title>Node8&#45;&gt;Node5</title>
<path fill="none" stroke="midnightblue" d="M165.31,-168.457C164.157,-155.906 161.413,-131.826 155.999,-112 153.505,-102.868 149.727,-93.0721 146.275,-84.959"/>
<polygon fill="midnightblue" stroke="midnightblue" points="149.45,-83.4836 142.198,-75.7592 143.05,-86.3198 149.45,-83.4836"/>
</g>
<!-- Node8&#45;&gt;Node6 -->
<g id="edge10" class="edge"><title>Node8&#45;&gt;Node6</title>
<path fill="none" stroke="midnightblue" d="M170.603,-168.242C180.477,-148.379 202.154,-98.346 193.999,-56 192.209,-46.7047 188.516,-36.8887 184.938,-28.8048"/>
<polygon fill="midnightblue" stroke="midnightblue" points="188.055,-27.2089 180.62,-19.6611 181.726,-30.1981 188.055,-27.2089"/>
</g>
<!-- Node8&#45;&gt;Node7 -->
<g id="edge11" class="edge"><title>Node8&#45;&gt;Node7</title>
<path fill="none" stroke="midnightblue" d="M157.082,-168.083C149.218,-160.22 137.568,-148.569 128.08,-139.081"/>
<polygon fill="midnightblue" stroke="midnightblue" points="130.296,-136.347 120.75,-131.751 125.346,-141.297 130.296,-136.347"/>
</g>
<!-- Node9 -->
<g id="node9" class="node"><title>Node9</title>
<polygon fill="white" stroke="#bfbfbf" points="241.499,-112.5 241.499,-131.5 298.499,-131.5 298.499,-112.5 241.499,-112.5"/>
<text text-anchor="middle" x="269.999" y="-119.5" font-family="Helvetica,sans-Serif" font-size="10.00">memory</text>
</g>
<!-- Node8&#45;&gt;Node9 -->
<g id="edge8" class="edge"><title>Node8&#45;&gt;Node9</title>
<path fill="none" stroke="midnightblue" d="M182.708,-168.324C199.311,-159.703 225.001,-146.364 244.219,-136.386"/>
<polygon fill="midnightblue" stroke="midnightblue" points="246.069,-139.369 253.331,-131.655 242.843,-133.156 246.069,-139.369"/>
</g>
<!-- Node10&#45;&gt;Node5 -->
<g id="edge14" class="edge"><title>Node10&#45;&gt;Node5</title>
<path fill="none" stroke="midnightblue" d="M323.981,-112.444C285.751,-103.102 224.432,-88.1194 182.741,-77.9326"/>
<polygon fill="midnightblue" stroke="midnightblue" points="183.398,-74.4901 172.853,-75.5164 181.737,-81.2901 183.398,-74.4901"/>
</g>
<!-- Node11 -->
<g id="node11" class="node"><title>Node11</title>
<g id="a_node11"><a xlink:href="_i_logable_8h.html" target="_top" xlink:title="ILogable.h">
<polygon fill="white" stroke="black" points="326.499,-56.5 326.499,-75.5 391.499,-75.5 391.499,-56.5 326.499,-56.5"/>
<text text-anchor="middle" x="358.999" y="-63.5" font-family="Helvetica,sans-Serif" font-size="10.00">ILogable.h</text>
</a>
</g>
</g>
<!-- Node10&#45;&gt;Node11 -->
<g id="edge15" class="edge"><title>Node10&#45;&gt;Node11</title>
<path fill="none" stroke="midnightblue" d="M358.999,-112.083C358.999,-105.006 358.999,-94.8611 358.999,-85.9865"/>
<polygon fill="midnightblue" stroke="midnightblue" points="362.499,-85.751 358.999,-75.7511 355.499,-85.7511 362.499,-85.751"/>
</g>
<!-- Node12 -->
<g id="node12" class="node"><title>Node12</title>
<polygon fill="white" stroke="#bfbfbf" points="336.999,-0.5 336.999,-19.5 380.999,-19.5 380.999,-0.5 336.999,-0.5"/>
<text text-anchor="middle" x="358.999" y="-7.5" font-family="Helvetica,sans-Serif" font-size="10.00">string</text>
</g>
<!-- Node11&#45;&gt;Node12 -->
<g id="edge16" class="edge"><title>Node11&#45;&gt;Node12</title>
<path fill="none" stroke="midnightblue" d="M358.999,-56.083C358.999,-49.0059 358.999,-38.8611 358.999,-29.9865"/>
<polygon fill="midnightblue" stroke="midnightblue" points="362.499,-29.751 358.999,-19.7511 355.499,-29.7511 362.499,-29.751"/>
</g>
<!-- Node13&#45;&gt;Node8 -->
<g id="edge18" class="edge"><title>Node13&#45;&gt;Node8</title>
<path fill="none" stroke="midnightblue" d="M185.704,-229.975C182.39,-221.404 177.181,-207.927 172.95,-196.983"/>
<polygon fill="midnightblue" stroke="midnightblue" points="176.158,-195.575 169.288,-187.509 169.629,-198.098 176.158,-195.575"/>
</g>
<!-- Node13&#45;&gt;Node14 -->
<g id="edge19" class="edge"><title>Node13&#45;&gt;Node14</title>
<path fill="none" stroke="midnightblue" d="M201.894,-229.975C216.463,-220.343 240.401,-204.517 257.744,-193.052"/>
<polygon fill="midnightblue" stroke="midnightblue" points="259.716,-195.944 266.128,-187.509 255.856,-190.104 259.716,-195.944"/>
</g>
<!-- Node14&#45;&gt;Node10 -->
<g id="edge20" class="edge"><title>Node14&#45;&gt;Node10</title>
<path fill="none" stroke="midnightblue" d="M291.852,-168.324C304.215,-159.979 323.129,-147.212 337.736,-137.352"/>
<polygon fill="midnightblue" stroke="midnightblue" points="339.847,-140.15 346.177,-131.655 335.931,-134.348 339.847,-140.15"/>
</g>
<!-- Node15&#45;&gt;Node8 -->
<g id="edge23" class="edge"><title>Node15&#45;&gt;Node8</title>
<path fill="none" stroke="midnightblue" d="M298.763,-224.399C268.828,-214.163 228.786,-200.47 200.53,-190.808"/>
<polygon fill="midnightblue" stroke="midnightblue" points="201.658,-187.495 191.063,-187.571 199.393,-194.118 201.658,-187.495"/>
</g>
<!-- Node15&#45;&gt;Node10 -->
<g id="edge22" class="edge"><title>Node15&#45;&gt;Node10</title>
<path fill="none" stroke="midnightblue" d="M342.329,-224.337C345.752,-203.527 352.145,-164.663 355.942,-141.583"/>
<polygon fill="midnightblue" stroke="midnightblue" points="359.403,-142.105 357.573,-131.669 352.496,-140.969 359.403,-142.105"/>
</g>
</g>
</svg>
        <g id="navigator" transform="translate(0 0)" fill="#404254">
                <rect fill="#f2f5e9" fill-opacity="0.5" stroke="#606060" stroke-width=".5" x="0" y="0" width="60" height="60"/>
                <use id="zoomplus" xlink:href="#zoomPlus" x="17" y="9" onmousedown="handleZoom(evt,'in')"/>
                <use id="zoomminus" xlink:href="#zoomMin" x="42" y="9" onmousedown="handleZoom(evt,'out')"/>
                <use id="reset" xlink:href="#resetDef" x="30" y="36" onmousedown="handleReset()"/>
                <g id="arrowUp" xlink:href="#dirArrow" transform="translate(30 24)" onmousedown="handlePan(0,-1)">
                  <use xlink:href="#rim" fill="#404040">
                        <set attributeName="fill" to="#808080" begin="arrowUp.mouseover" end="arrowUp.mouseout"/>
                  </use>
                  <path fill="none" stroke="white" stroke-width="1.5" d="M0,-3.0v7 M-2.5,-0.5L0,-3.0L2.5,-0.5"/>
                </g>
                <g id="arrowRight" xlink:href="#dirArrow" transform="rotate(90) translate(36 -43)" onmousedown="handlePan(1,0)">
                  <use xlink:href="#rim" fill="#404040">
                        <set attributeName="fill" to="#808080" begin="arrowRight.mouseover" end="arrowRight.mouseout"/>
                  </use>
                  <path fill="none" stroke="white" stroke-width="1.5" d="M0,-3.0v7 M-2.5,-0.5L0,-3.0L2.5,-0.5"/>
                </g>
                <g id="arrowDown" xlink:href="#dirArrow" transform="rotate(180) translate(-30 -48)" onmousedown="handlePan(0,1)">
                  <use xlink:href="#rim" fill="#404040">
                        <set attributeName="fill" to="#808080" begin="arrowDown.mouseover" end="arrowDown.mouseout"/>
                  </use>
                  <path fill="none" stroke="white" stroke-width="1.5" d="M0,-3.0v7 M-2.5,-0.5L0,-3.0L2.5,-0.5"/>
                </g>
                <g id="arrowLeft" xlink:href="#dirArrow" transform="rotate(270) translate(-36 17)" onmousedown="handlePan(-1,0)">
                  <use xlink:href="#rim" fill="#404040">
                        <set attributeName="fill" to="#808080" begin="arrowLeft.mouseover" end="arrowLeft.mouseout"/>
                  </use>
                  <path fill="none" stroke="white" stroke-width="1.5" d="M0,-3.0v7 M-2.5,-0.5L0,-3.0L2.5,-0.5"/>
                </g>
        </g>
        <svg viewBox="0 0 15 15" width="100%" height="30px" preserveAspectRatio="xMaxYMin meet">
         <g id="arrow_out" transform="scale(0.3 0.3)">
          <a xlink:href="_i_button_8h__incl_org.svg" target="_base">
           <rect id="button" ry="5" rx="5" y="6" x="6" height="38" width="38"
                fill="#f2f5e9" fill-opacity="0.5" stroke="#606060" stroke-width="1.0"/>
           <path id="arrow"
             d="M 11.500037,31.436501 C 11.940474,20.09759 22.043105,11.32322 32.158766,21.979434 L 37.068811,17.246167 C 37.068811,17.246167 37.088388,32 37.088388,32 L 22.160133,31.978069 C 22.160133,31.978069 26.997745,27.140456 26.997745,27.140456 C 18.528582,18.264221 13.291696,25.230495 11.500037,31.436501 z"
             style="fill:#404040;"/>
          </a>
         </g>
        </svg>
</svg>
