<?xml version="1.0" encoding="UTF-8" standalone="no"?>
<!DOCTYPE svg PUBLIC "-//W3C//DTD SVG 1.1//EN"
 "http://www.w3.org/Graphics/SVG/1.1/DTD/svg11.dtd">
<!-- Generated by graphviz version 2.38.0 (20140413.2041)
 -->
<!-- Title: lib/carpi/src/communication/IChannel.h Pages: 1 -->
<svg width="452pt" height="274pt"
 viewBox="0.00 0.00 452.00 274.00" xmlns="http://www.w3.org/2000/svg" xmlns:xlink="http://www.w3.org/1999/xlink">
<g id="graph0" class="graph" transform="scale(1 1) rotate(0) translate(4 270)">
<title>lib/carpi/src/communication/IChannel.h</title>
<polygon fill="white" stroke="none" points="-4,4 -4,-270 448,-270 448,4 -4,4"/>
<!-- Node1 -->
<g id="node1" class="node"><title>Node1</title>
<polygon fill="#bfbfbf" stroke="black" points="158.5,-235.5 158.5,-265.5 306.5,-265.5 306.5,-235.5 158.5,-235.5"/>
<text text-anchor="start" x="166.5" y="-253.5" font-family="Helvetica,sans-Serif" font-size="10.00">lib/carpi/src/communication</text>
<text text-anchor="middle" x="232.5" y="-242.5" font-family="Helvetica,sans-Serif" font-size="10.00">/IChannel.h</text>
</g>
<!-- Node2 -->
<g id="node2" class="node"><title>Node2</title>
<g id="a_node2"><a xlink:href="_car_message_8h.html" target="_top" xlink:title="communication/CarMessage.h">
<polygon fill="white" stroke="black" points="70.5,-118 70.5,-137 232.5,-137 232.5,-118 70.5,-118"/>
<text text-anchor="middle" x="151.5" y="-125" font-family="Helvetica,sans-Serif" font-size="10.00">communication/CarMessage.h</text>
</a>
</g>
</g>
<!-- Node1&#45;&gt;Node2 -->
<g id="edge1" class="edge"><title>Node1&#45;&gt;Node2</title>
<path fill="none" stroke="midnightblue" d="M222.89,-235.145C207.87,-212.707 178.894,-169.422 162.862,-145.473"/>
<polygon fill="midnightblue" stroke="midnightblue" points="165.696,-143.415 157.225,-137.052 159.879,-147.309 165.696,-143.415"/>
</g>
<!-- Node8 -->
<g id="node8" class="node"><title>Node8</title>
<g id="a_node8"><a xlink:href="_i_runable_8h.html" target="_top" xlink:title="runable/IRunable.h">
<polygon fill="white" stroke="black" points="241.5,-179.5 241.5,-198.5 345.5,-198.5 345.5,-179.5 241.5,-179.5"/>
<text text-anchor="middle" x="293.5" y="-186.5" font-family="Helvetica,sans-Serif" font-size="10.00">runable/IRunable.h</text>
</a>
</g>
</g>
<!-- Node1&#45;&gt;Node8 -->
<g id="edge8" class="edge"><title>Node1&#45;&gt;Node8</title>
<path fill="none" stroke="midnightblue" d="M246.956,-235.399C256.094,-226.486 267.919,-214.952 277.362,-205.741"/>
<polygon fill="midnightblue" stroke="midnightblue" points="279.909,-208.146 284.624,-198.658 275.022,-203.135 279.909,-208.146"/>
</g>
<!-- Node3 -->
<g id="node3" class="node"><title>Node3</title>
<polygon fill="white" stroke="#bfbfbf" points="0,-56.5 0,-75.5 57,-75.5 57,-56.5 0,-56.5"/>
<text text-anchor="middle" x="28.5" y="-63.5" font-family="Helvetica,sans-Serif" font-size="10.00">memory</text>
</g>
<!-- Node2&#45;&gt;Node3 -->
<g id="edge2" class="edge"><title>Node2&#45;&gt;Node3</title>
<path fill="none" stroke="midnightblue" d="M133.877,-117.975C113.326,-108.034 79.1362,-91.4947 55.2933,-79.961"/>
<polygon fill="midnightblue" stroke="midnightblue" points="56.6164,-76.7131 46.0902,-75.5091 53.5681,-83.0145 56.6164,-76.7131"/>
</g>
<!-- Node4 -->
<g id="node4" class="node"><title>Node4</title>
<polygon fill="white" stroke="#bfbfbf" points="75,-56.5 75,-75.5 122,-75.5 122,-56.5 75,-56.5"/>
<text text-anchor="middle" x="98.5" y="-63.5" font-family="Helvetica,sans-Serif" font-size="10.00">vector</text>
</g>
<!-- Node2&#45;&gt;Node4 -->
<g id="edge3" class="edge"><title>Node2&#45;&gt;Node4</title>
<path fill="none" stroke="midnightblue" d="M143.906,-117.975C135.799,-108.873 122.765,-94.241 112.737,-82.983"/>
<polygon fill="midnightblue" stroke="midnightblue" points="115.344,-80.6483 106.08,-75.5091 110.117,-85.3043 115.344,-80.6483"/>
</g>
<!-- Node5 -->
<g id="node5" class="node"><title>Node5</title>
<polygon fill="white" stroke="#bfbfbf" points="206,-0.5 206,-19.5 259,-19.5 259,-0.5 206,-0.5"/>
<text text-anchor="middle" x="232.5" y="-7.5" font-family="Helvetica,sans-Serif" font-size="10.00">stdint.h</text>
</g>
<!-- Node2&#45;&gt;Node5 -->
<g id="edge4" class="edge"><title>Node2&#45;&gt;Node5</title>
<path fill="none" stroke="midnightblue" d="M151.825,-117.918C152.74,-103.82 156.228,-75.3885 169.5,-56 178.542,-42.7908 192.806,-32.1328 205.476,-24.511"/>
<polygon fill="midnightblue" stroke="midnightblue" points="207.343,-27.4759 214.322,-19.5047 203.895,-21.3837 207.343,-27.4759"/>
</g>
<!-- Node6 -->
<g id="node6" class="node"><title>Node6</title>
<g id="a_node6"><a xlink:href="device_ids_8h.html" target="_top" xlink:title="deviceIds.h">
<polygon fill="white" stroke="black" points="178.5,-56.5 178.5,-75.5 248.5,-75.5 248.5,-56.5 178.5,-56.5"/>
<text text-anchor="middle" x="213.5" y="-63.5" font-family="Helvetica,sans-Serif" font-size="10.00">deviceIds.h</text>
</a>
</g>
</g>
<!-- Node2&#45;&gt;Node6 -->
<g id="edge5" class="edge"><title>Node2&#45;&gt;Node6</title>
<path fill="none" stroke="midnightblue" d="M160.383,-117.975C169.959,-108.785 185.411,-93.9563 197.186,-82.656"/>
<polygon fill="midnightblue" stroke="midnightblue" points="199.842,-84.9585 204.633,-75.5091 194.995,-79.908 199.842,-84.9585"/>
</g>
<!-- Node7 -->
<g id="node7" class="node"><title>Node7</title>
<g id="a_node7"><a xlink:href="component_ids_8h.html" target="_top" xlink:title="componentIds.h">
<polygon fill="white" stroke="black" points="266.5,-56.5 266.5,-75.5 360.5,-75.5 360.5,-56.5 266.5,-56.5"/>
<text text-anchor="middle" x="313.5" y="-63.5" font-family="Helvetica,sans-Serif" font-size="10.00">componentIds.h</text>
</a>
</g>
</g>
<!-- Node2&#45;&gt;Node7 -->
<g id="edge6" class="edge"><title>Node2&#45;&gt;Node7</title>
<path fill="none" stroke="midnightblue" d="M174.711,-117.975C202.499,-107.769 249.223,-90.608 280.694,-79.0492"/>
<polygon fill="midnightblue" stroke="midnightblue" points="282.152,-82.2422 290.332,-75.5091 279.739,-75.6714 282.152,-82.2422"/>
</g>
<!-- Node7&#45;&gt;Node5 -->
<g id="edge7" class="edge"><title>Node7&#45;&gt;Node5</title>
<path fill="none" stroke="midnightblue" d="M300.486,-56.324C287.968,-47.979 268.818,-35.2122 254.029,-25.3524"/>
<polygon fill="midnightblue" stroke="midnightblue" points="255.744,-22.2894 245.482,-19.6545 251.861,-28.1137 255.744,-22.2894"/>
</g>
<!-- Node9 -->
<g id="node9" class="node"><title>Node9</title>
<g id="a_node9"><a xlink:href="_i_component_8h.html" target="_top" xlink:title="components/interface\l/IComponent.h">
<polygon fill="white" stroke="black" points="252.5,-112.5 252.5,-142.5 374.5,-142.5 374.5,-112.5 252.5,-112.5"/>
<text text-anchor="start" x="260.5" y="-130.5" font-family="Helvetica,sans-Serif" font-size="10.00">components/interface</text>
<text text-anchor="middle" x="313.5" y="-119.5" font-family="Helvetica,sans-Serif" font-size="10.00">/IComponent.h</text>
</a>
</g>
</g>
<!-- Node8&#45;&gt;Node9 -->
<g id="edge9" class="edge"><title>Node8&#45;&gt;Node9</title>
<path fill="none" stroke="midnightblue" d="M296.366,-179.475C298.77,-172.32 302.324,-161.748 305.573,-152.084"/>
<polygon fill="midnightblue" stroke="midnightblue" points="308.918,-153.117 308.786,-142.523 302.283,-150.887 308.918,-153.117"/>
</g>
<!-- Node9&#45;&gt;Node7 -->
<g id="edge10" class="edge"><title>Node9&#45;&gt;Node7</title>
<path fill="none" stroke="midnightblue" d="M313.5,-112.399C313.5,-104.466 313.5,-94.458 313.5,-85.8583"/>
<polygon fill="midnightblue" stroke="midnightblue" points="317,-85.6577 313.5,-75.6578 310,-85.6578 317,-85.6577"/>
</g>
<!-- Node10 -->
<g id="node10" class="node"><title>Node10</title>
<g id="a_node10"><a xlink:href="_i_logable_8h.html" target="_top" xlink:title="ILogable.h">
<polygon fill="white" stroke="black" points="379,-56.5 379,-75.5 444,-75.5 444,-56.5 379,-56.5"/>
<text text-anchor="middle" x="411.5" y="-63.5" font-family="Helvetica,sans-Serif" font-size="10.00">ILogable.h</text>
</a>
</g>
</g>
<!-- Node9&#45;&gt;Node10 -->
<g id="edge11" class="edge"><title>Node9&#45;&gt;Node10</title>
<path fill="none" stroke="midnightblue" d="M336.725,-112.399C352.286,-102.951 372.697,-90.5589 388.262,-81.1089"/>
<polygon fill="midnightblue" stroke="midnightblue" points="390.509,-83.8394 397.24,-75.6578 386.876,-77.8558 390.509,-83.8394"/>
</g>
<!-- Node11 -->
<g id="node11" class="node"><title>Node11</title>
<polygon fill="white" stroke="#bfbfbf" points="389.5,-0.5 389.5,-19.5 433.5,-19.5 433.5,-0.5 389.5,-0.5"/>
<text text-anchor="middle" x="411.5" y="-7.5" font-family="Helvetica,sans-Serif" font-size="10.00">string</text>
</g>
<!-- Node10&#45;&gt;Node11 -->
<g id="edge12" class="edge"><title>Node10&#45;&gt;Node11</title>
<path fill="none" stroke="midnightblue" d="M411.5,-56.083C411.5,-49.0059 411.5,-38.8611 411.5,-29.9865"/>
<polygon fill="midnightblue" stroke="midnightblue" points="415,-29.751 411.5,-19.7511 408,-29.7511 415,-29.751"/>
</g>
</g>
</svg>
