<?xml version="1.0" encoding="UTF-8" standalone="no"?>
<!DOCTYPE svg PUBLIC "-//W3C//DTD SVG 1.1//EN"
 "http://www.w3.org/Graphics/SVG/1.1/DTD/svg11.dtd">
<!-- Generated by graphviz version 2.38.0 (20140413.2041)
 -->
<!-- Title: lib/carpi/src/components/interface/IHvEnabled.h Pages: 1 -->
<!--zoomable 307 -->
<svg id="main" version="1.1" xmlns="http://www.w3.org/2000/svg" xmlns:xlink="http://www.w3.org/1999/xlink" xml:space="preserve" onload="init(evt)">
<style type="text/css"><![CDATA[
.edge:hover path { stroke: red; }
.edge:hover polygon { stroke: red; fill: red; }
]]></style>
<script type="text/javascript"><![CDATA[
var edges = document.getElementsByTagName('g');
if (edges && edges.length) {
  for (var i=0;i<edges.length;i++) {
    if (edges[i].id.substr(0,4)=='edge') {
      edges[i].setAttribute('class','edge');
    }
  }
}
]]></script>
        <defs>
                <circle id="rim" cx="0" cy="0" r="7"/>
                <circle id="rim2" cx="0" cy="0" r="3.5"/>
                <g id="zoomPlus">
                        <use xlink:href="#rim" fill="#404040">
                                <set attributeName="fill" to="#808080" begin="zoomplus.mouseover" end="zoomplus.mouseout"/>
                        </use>
                        <path d="M-4,0h8M0,-4v8" fill="none" stroke="white" stroke-width="1.5" pointer-events="none"/>
                </g>
                <g id="zoomMin">
                        <use xlink:href="#rim" fill="#404040">
                                <set attributeName="fill" to="#808080" begin="zoomminus.mouseover" end="zoomminus.mouseout"/>
                        </use>
                        <path d="M-4,0h8" fill="none" stroke="white" stroke-width="1.5" pointer-events="none"/>
                </g>
                <g id="dirArrow">
                        <path fill="none" stroke="white" stroke-width="1.5" d="M0,-3.0v7 M-2.5,-0.5L0,-3.0L2.5,-0.5"/>
                </g>
               <g id="resetDef">
                       <use xlink:href="#rim2" fill="#404040">
                               <set attributeName="fill" to="#808080" begin="reset.mouseover" end="reset.mouseout"/>
                       </use>
               </g>
        </defs>

<script type="text/javascript">
var viewWidth = 3530;
var viewHeight = 307;
var sectionId = 'dynsection-1';
</script>
<script xlink:href="svgpan.js"/>
<svg id="graph" class="graph">
<g id="viewport">
<title>lib/carpi/src/components/interface/IHvEnabled.h</title>
<polygon fill="white" stroke="none" points="-4,4 -4,-303 3526,-303 3526,4 -4,4"/>
<!-- Node1 -->
<g id="node1" class="node"><title>Node1</title>
<polygon fill="#bfbfbf" stroke="black" points="3005,-268.5 3005,-298.5 3139,-298.5 3139,-268.5 3005,-268.5"/>
<text text-anchor="start" x="3013" y="-286.5" font-family="Helvetica,sans-Serif" font-size="10.00">lib/carpi/src/components</text>
<text text-anchor="middle" x="3072" y="-275.5" font-family="Helvetica,sans-Serif" font-size="10.00">/interface/IHvEnabled.h</text>
</g>
<!-- Node2 -->
<g id="node2" class="node"><title>Node2</title>
<g id="a_node2"><a xlink:href="carpi_8h.html" target="_top" xlink:title="lib/carpi/src/carpi.h">
<polygon fill="white" stroke="black" points="1501,-207 1501,-226 1607,-226 1607,-207 1501,-207"/>
<text text-anchor="middle" x="1554" y="-214" font-family="Helvetica,sans-Serif" font-size="10.00">lib/carpi/src/carpi.h</text>
</a>
</g>
</g>
<!-- Node1&#45;&gt;Node2 -->
<g id="edge1" class="edge"><title>Node1&#45;&gt;Node2</title>
<path fill="none" stroke="midnightblue" d="M2994.75,-279.192C2725.89,-267.68 1835.03,-229.533 1607.35,-219.784"/>
<polygon fill="midnightblue" stroke="midnightblue" points="2994.67,-282.692 3004.81,-279.623 2994.97,-275.698 2994.67,-282.692"/>
</g>
<!-- Node26 -->
<g id="node26" class="node"><title>Node26</title>
<g id="a_node26"><a xlink:href="_hardware_hv_enabled_8h.html" target="_top" xlink:title="lib/carpi/src/components\l/hardware/HardwareHvEnabled.h">
<polygon fill="white" stroke="black" points="2928.5,-201.5 2928.5,-231.5 3101.5,-231.5 3101.5,-201.5 2928.5,-201.5"/>
<text text-anchor="start" x="2936.5" y="-219.5" font-family="Helvetica,sans-Serif" font-size="10.00">lib/carpi/src/components</text>
<text text-anchor="middle" x="3015" y="-208.5" font-family="Helvetica,sans-Serif" font-size="10.00">/hardware/HardwareHvEnabled.h</text>
</a>
</g>
</g>
<!-- Node1&#45;&gt;Node26 -->
<g id="edge29" class="edge"><title>Node1&#45;&gt;Node26</title>
<path fill="none" stroke="midnightblue" d="M3052.91,-260.736C3044.48,-251.119 3034.81,-240.089 3027.34,-231.577"/>
<polygon fill="midnightblue" stroke="midnightblue" points="3050.41,-263.185 3059.63,-268.396 3055.67,-258.57 3050.41,-263.185"/>
</g>
<!-- Node27 -->
<g id="node27" class="node"><title>Node27</title>
<g id="a_node27"><a xlink:href="_p_cockpit_indicator_8h.html" target="_top" xlink:title="lib/carpi/src/runable\l/programs/PCockpitIndicator.h">
<polygon fill="white" stroke="black" points="3158,-201.5 3158,-231.5 3318,-231.5 3318,-201.5 3158,-201.5"/>
<text text-anchor="start" x="3166" y="-219.5" font-family="Helvetica,sans-Serif" font-size="10.00">lib/carpi/src/runable</text>
<text text-anchor="middle" x="3238" y="-208.5" font-family="Helvetica,sans-Serif" font-size="10.00">/programs/PCockpitIndicator.h</text>
</a>
</g>
</g>
<!-- Node1&#45;&gt;Node27 -->
<g id="edge30" class="edge"><title>Node1&#45;&gt;Node27</title>
<path fill="none" stroke="midnightblue" d="M3117.51,-264.682C3144.13,-254.257 3177.27,-241.281 3202.05,-231.577"/>
<polygon fill="midnightblue" stroke="midnightblue" points="3116.05,-261.491 3108.02,-268.396 3118.61,-268.009 3116.05,-261.491"/>
</g>
<!-- Node28 -->
<g id="node28" class="node"><title>Node28</title>
<g id="a_node28"><a xlink:href="_s_car_8h.html" target="_top" xlink:title="lib/carpi/src/runable\l/services/SCar.h">
<polygon fill="white" stroke="black" points="3183,-134.5 3183,-164.5 3293,-164.5 3293,-134.5 3183,-134.5"/>
<text text-anchor="start" x="3191" y="-152.5" font-family="Helvetica,sans-Serif" font-size="10.00">lib/carpi/src/runable</text>
<text text-anchor="middle" x="3238" y="-141.5" font-family="Helvetica,sans-Serif" font-size="10.00">/services/SCar.h</text>
</a>
</g>
</g>
<!-- Node1&#45;&gt;Node28 -->
<g id="edge37" class="edge"><title>Node1&#45;&gt;Node28</title>
<path fill="none" stroke="midnightblue" d="M3089.76,-260.342C3104.45,-242.892 3126.49,-218.65 3149,-201 3167.31,-186.64 3190.19,-173.753 3208.16,-164.592"/>
<polygon fill="midnightblue" stroke="midnightblue" points="3086.85,-258.37 3083.17,-268.304 3092.24,-262.834 3086.85,-258.37"/>
</g>
<!-- Node3 -->
<g id="node3" class="node"><title>Node3</title>
<g id="a_node3"><a xlink:href="_dashboard_slave_conf_8h.html" target="_top" xlink:title="car/Bonnie2019/Dashboard\lSlaveConf.h">
<polygon fill="white" stroke="black" points="2678.5,-134.5 2678.5,-164.5 2825.5,-164.5 2825.5,-134.5 2678.5,-134.5"/>
<text text-anchor="start" x="2686.5" y="-152.5" font-family="Helvetica,sans-Serif" font-size="10.00">car/Bonnie2019/Dashboard</text>
<text text-anchor="middle" x="2752" y="-141.5" font-family="Helvetica,sans-Serif" font-size="10.00">SlaveConf.h</text>
</a>
</g>
</g>
<!-- Node2&#45;&gt;Node3 -->
<g id="edge2" class="edge"><title>Node2&#45;&gt;Node3</title>
<path fill="none" stroke="midnightblue" d="M1617.34,-215.457C1787.82,-214.732 2270.47,-208.656 2669,-165 2672.05,-164.666 2675.16,-164.288 2678.3,-163.878"/>
<polygon fill="midnightblue" stroke="midnightblue" points="1617.27,-211.957 1607.28,-215.495 1617.3,-218.957 1617.27,-211.957"/>
</g>
<!-- Node4 -->
<g id="node4" class="node"><title>Node4</title>
<g id="a_node4"><a xlink:href="_display_slave_conf_8h.html" target="_top" xlink:title="car/Bonnie2019/DisplaySlave\lConf.h">
<polygon fill="white" stroke="black" points="2843.5,-134.5 2843.5,-164.5 2998.5,-164.5 2998.5,-134.5 2843.5,-134.5"/>
<text text-anchor="start" x="2851.5" y="-152.5" font-family="Helvetica,sans-Serif" font-size="10.00">car/Bonnie2019/DisplaySlave</text>
<text text-anchor="middle" x="2921" y="-141.5" font-family="Helvetica,sans-Serif" font-size="10.00">Conf.h</text>
</a>
</g>
</g>
<!-- Node2&#45;&gt;Node4 -->
<g id="edge3" class="edge"><title>Node2&#45;&gt;Node4</title>
<path fill="none" stroke="midnightblue" d="M1617.4,-215.813C1804.24,-216.129 2368.8,-212.752 2834,-165 2837.05,-164.687 2840.15,-164.335 2843.28,-163.951"/>
<polygon fill="midnightblue" stroke="midnightblue" points="1617.22,-212.312 1607.21,-215.791 1617.2,-219.312 1617.22,-212.312"/>
</g>
<!-- Node5 -->
<g id="node5" class="node"><title>Node5</title>
<g id="a_node5"><a xlink:href="_lo_ra_conf_8h.html" target="_top" xlink:title="car/Bonnie2019/LoRaConf.h">
<polygon fill="white" stroke="black" points="3017,-140 3017,-159 3165,-159 3165,-140 3017,-140"/>
<text text-anchor="middle" x="3091" y="-147" font-family="Helvetica,sans-Serif" font-size="10.00">car/Bonnie2019/LoRaConf.h</text>
</a>
</g>
</g>
<!-- Node2&#45;&gt;Node5 -->
<g id="edge4" class="edge"><title>Node2&#45;&gt;Node5</title>
<path fill="none" stroke="midnightblue" d="M1617.07,-214.453C1859.46,-210.25 2731.32,-193.45 3007,-165 3020.54,-163.602 3035.2,-161.337 3048.42,-159.007"/>
<polygon fill="midnightblue" stroke="midnightblue" points="1616.95,-210.954 1607.02,-214.626 1617.07,-217.953 1616.95,-210.954"/>
</g>
<!-- Node6 -->
<g id="node6" class="node"><title>Node6</title>
<g id="a_node6"><a xlink:href="_master_conf_8h.html" target="_top" xlink:title="car/Bonnie2019/MasterConf.h">
<polygon fill="white" stroke="black" points="0,-140 0,-159 158,-159 158,-140 0,-140"/>
<text text-anchor="middle" x="79" y="-147" font-family="Helvetica,sans-Serif" font-size="10.00">car/Bonnie2019/MasterConf.h</text>
</a>
</g>
</g>
<!-- Node2&#45;&gt;Node6 -->
<g id="edge5" class="edge"><title>Node2&#45;&gt;Node6</title>
<path fill="none" stroke="midnightblue" d="M1490.78,-216.047C1294.1,-217.139 675.774,-215.97 167,-165 152.98,-163.595 137.808,-161.357 124.074,-159.056"/>
<polygon fill="midnightblue" stroke="midnightblue" points="1490.95,-219.546 1500.93,-215.987 1490.9,-212.546 1490.95,-219.546"/>
</g>
<!-- Node7 -->
<g id="node7" class="node"><title>Node7</title>
<g id="a_node7"><a xlink:href="_pedal_slave_conf_8h.html" target="_top" xlink:title="car/Bonnie2019/PedalSlave\lConf.h">
<polygon fill="white" stroke="black" points="176.5,-134.5 176.5,-164.5 323.5,-164.5 323.5,-134.5 176.5,-134.5"/>
<text text-anchor="start" x="184.5" y="-152.5" font-family="Helvetica,sans-Serif" font-size="10.00">car/Bonnie2019/PedalSlave</text>
<text text-anchor="middle" x="250" y="-141.5" font-family="Helvetica,sans-Serif" font-size="10.00">Conf.h</text>
</a>
</g>
</g>
<!-- Node2&#45;&gt;Node7 -->
<g id="edge6" class="edge"><title>Node2&#45;&gt;Node7</title>
<path fill="none" stroke="midnightblue" d="M1490.68,-215.584C1310.13,-215.239 777.429,-210.158 338,-165 333.379,-164.525 328.633,-163.962 323.854,-163.339"/>
<polygon fill="midnightblue" stroke="midnightblue" points="1490.79,-219.084 1500.8,-215.599 1490.8,-212.084 1490.79,-219.084"/>
</g>
<!-- Node8 -->
<g id="node8" class="node"><title>Node8</title>
<g id="a_node8"><a xlink:href="_syntetic_sync_8h.html" target="_top" xlink:title="car/hardwareTest/mbed\l/helper/SynteticSync.h">
<polygon fill="white" stroke="black" points="564,-134.5 564,-164.5 692,-164.5 692,-134.5 564,-134.5"/>
<text text-anchor="start" x="572" y="-152.5" font-family="Helvetica,sans-Serif" font-size="10.00">car/hardwareTest/mbed</text>
<text text-anchor="middle" x="628" y="-141.5" font-family="Helvetica,sans-Serif" font-size="10.00">/helper/SynteticSync.h</text>
</a>
</g>
</g>
<!-- Node2&#45;&gt;Node8 -->
<g id="edge7" class="edge"><title>Node2&#45;&gt;Node8</title>
<path fill="none" stroke="midnightblue" d="M1490.6,-214.71C1348.63,-212.294 994.562,-202.665 701,-165 698.052,-164.622 695.045,-164.195 692.013,-163.73"/>
<polygon fill="midnightblue" stroke="midnightblue" points="1490.8,-218.214 1500.86,-214.878 1490.92,-211.215 1490.8,-218.214"/>
</g>
<!-- Node10 -->
<g id="node10" class="node"><title>Node10</title>
<g id="a_node10"><a xlink:href="_hardware_s_d_card_stress_test_8h.html" target="_top" xlink:title="car/hardwareTest/mbed\l/HardwareSDCardStressTest.h">
<polygon fill="white" stroke="black" points="291.5,-67.5 291.5,-97.5 452.5,-97.5 452.5,-67.5 291.5,-67.5"/>
<text text-anchor="start" x="299.5" y="-85.5" font-family="Helvetica,sans-Serif" font-size="10.00">car/hardwareTest/mbed</text>
<text text-anchor="middle" x="372" y="-74.5" font-family="Helvetica,sans-Serif" font-size="10.00">/HardwareSDCardStressTest.h</text>
</a>
</g>
</g>
<!-- Node2&#45;&gt;Node10 -->
<g id="edge17" class="edge"><title>Node2&#45;&gt;Node10</title>
<path fill="none" stroke="midnightblue" d="M1490.65,-215.194C1250.79,-213.729 409.999,-205.699 371,-165 353.965,-147.222 360.549,-115.96 366.515,-97.757"/>
<polygon fill="midnightblue" stroke="midnightblue" points="1490.92,-218.695 1500.94,-215.255 1490.96,-211.696 1490.92,-218.695"/>
</g>
<!-- Node11 -->
<g id="node11" class="node"><title>Node11</title>
<g id="a_node11"><a xlink:href="_hardware_s_d_card_test_8h.html" target="_top" xlink:title="car/hardwareTest/mbed\l/HardwareSDCardTest.h">
<polygon fill="white" stroke="black" points="471,-67.5 471,-97.5 601,-97.5 601,-67.5 471,-67.5"/>
<text text-anchor="start" x="479" y="-85.5" font-family="Helvetica,sans-Serif" font-size="10.00">car/hardwareTest/mbed</text>
<text text-anchor="middle" x="536" y="-74.5" font-family="Helvetica,sans-Serif" font-size="10.00">/HardwareSDCardTest.h</text>
</a>
</g>
</g>
<!-- Node2&#45;&gt;Node11 -->
<g id="edge21" class="edge"><title>Node2&#45;&gt;Node11</title>
<path fill="none" stroke="midnightblue" d="M1490.61,-214.38C1276.43,-210.325 590.952,-195.045 555,-165 535.379,-148.603 533.756,-116.23 534.658,-97.5987"/>
<polygon fill="midnightblue" stroke="midnightblue" points="1490.69,-217.882 1500.75,-214.57 1490.82,-210.883 1490.69,-217.882"/>
</g>
<!-- Node12 -->
<g id="node12" class="node"><title>Node12</title>
<g id="a_node12"><a xlink:href="_button_unit_test_8h.html" target="_top" xlink:title="car/hardwareTest/mbed\l/ButtonUnitTest.h">
<polygon fill="white" stroke="black" points="710,-134.5 710,-164.5 838,-164.5 838,-134.5 710,-134.5"/>
<text text-anchor="start" x="718" y="-152.5" font-family="Helvetica,sans-Serif" font-size="10.00">car/hardwareTest/mbed</text>
<text text-anchor="middle" x="774" y="-141.5" font-family="Helvetica,sans-Serif" font-size="10.00">/ButtonUnitTest.h</text>
</a>
</g>
</g>
<!-- Node2&#45;&gt;Node12 -->
<g id="edge11" class="edge"><title>Node2&#45;&gt;Node12</title>
<path fill="none" stroke="midnightblue" d="M1490.93,-213.635C1367.04,-209.389 1083.36,-196.789 847,-165 844.055,-164.604 841.049,-164.162 838.018,-163.685"/>
<polygon fill="midnightblue" stroke="midnightblue" points="1490.89,-217.135 1501,-213.973 1491.12,-210.139 1490.89,-217.135"/>
</g>
<!-- Node13 -->
<g id="node13" class="node"><title>Node13</title>
<g id="a_node13"><a xlink:href="_c_a_n_service_unit_test_8h.html" target="_top" xlink:title="car/hardwareTest/mbed\l/CANServiceUnitTest.h">
<polygon fill="white" stroke="black" points="856,-134.5 856,-164.5 984,-164.5 984,-134.5 856,-134.5"/>
<text text-anchor="start" x="864" y="-152.5" font-family="Helvetica,sans-Serif" font-size="10.00">car/hardwareTest/mbed</text>
<text text-anchor="middle" x="920" y="-141.5" font-family="Helvetica,sans-Serif" font-size="10.00">/CANServiceUnitTest.h</text>
</a>
</g>
</g>
<!-- Node2&#45;&gt;Node13 -->
<g id="edge12" class="edge"><title>Node2&#45;&gt;Node13</title>
<path fill="none" stroke="midnightblue" d="M1490.77,-212.006C1386.61,-205.758 1172.62,-190.849 993,-165 990.058,-164.577 987.056,-164.112 984.028,-163.618"/>
<polygon fill="midnightblue" stroke="midnightblue" points="1490.61,-215.502 1500.8,-212.601 1491.02,-208.515 1490.61,-215.502"/>
</g>
<!-- Node14 -->
<g id="node14" class="node"><title>Node14</title>
<g id="a_node14"><a xlink:href="_dashboard_demo_8h.html" target="_top" xlink:title="car/hardwareTest/mbed\l/DashboardDemo.h">
<polygon fill="white" stroke="black" points="1002,-134.5 1002,-164.5 1130,-164.5 1130,-134.5 1002,-134.5"/>
<text text-anchor="start" x="1010" y="-152.5" font-family="Helvetica,sans-Serif" font-size="10.00">car/hardwareTest/mbed</text>
<text text-anchor="middle" x="1066" y="-141.5" font-family="Helvetica,sans-Serif" font-size="10.00">/DashboardDemo.h</text>
</a>
</g>
</g>
<!-- Node2&#45;&gt;Node14 -->
<g id="edge13" class="edge"><title>Node2&#45;&gt;Node14</title>
<path fill="none" stroke="midnightblue" d="M1490.65,-209.284C1409.08,-200.938 1263.06,-184.84 1139,-165 1136.07,-164.531 1133.07,-164.029 1130.05,-163.504"/>
<polygon fill="midnightblue" stroke="midnightblue" points="1490.46,-212.782 1500.76,-210.312 1491.16,-205.818 1490.46,-212.782"/>
</g>
<!-- Node15 -->
<g id="node15" class="node"><title>Node15</title>
<g id="a_node15"><a xlink:href="_hardware_buzzer_unit_test_8h.html" target="_top" xlink:title="car/hardwareTest/mbed\l/HardwareBuzzerUnitTest.h">
<polygon fill="white" stroke="black" points="1148,-134.5 1148,-164.5 1294,-164.5 1294,-134.5 1148,-134.5"/>
<text text-anchor="start" x="1156" y="-152.5" font-family="Helvetica,sans-Serif" font-size="10.00">car/hardwareTest/mbed</text>
<text text-anchor="middle" x="1221" y="-141.5" font-family="Helvetica,sans-Serif" font-size="10.00">/HardwareBuzzerUnitTest.h</text>
</a>
</g>
</g>
<!-- Node2&#45;&gt;Node15 -->
<g id="edge14" class="edge"><title>Node2&#45;&gt;Node15</title>
<path fill="none" stroke="midnightblue" d="M1500,-204.96C1443.73,-193.975 1355.23,-176.701 1293.03,-164.559"/>
<polygon fill="midnightblue" stroke="midnightblue" points="1499.64,-208.455 1510.12,-206.936 1500.98,-201.584 1499.64,-208.455"/>
</g>
<!-- Node16 -->
<g id="node16" class="node"><title>Node16</title>
<g id="a_node16"><a xlink:href="_hardware_pedal_unit_test_8h.html" target="_top" xlink:title="car/hardwareTest/mbed\l/HardwarePedalUnitTest.h">
<polygon fill="white" stroke="black" points="1312.5,-134.5 1312.5,-164.5 1451.5,-164.5 1451.5,-134.5 1312.5,-134.5"/>
<text text-anchor="start" x="1320.5" y="-152.5" font-family="Helvetica,sans-Serif" font-size="10.00">car/hardwareTest/mbed</text>
<text text-anchor="middle" x="1382" y="-141.5" font-family="Helvetica,sans-Serif" font-size="10.00">/HardwarePedalUnitTest.h</text>
</a>
</g>
</g>
<!-- Node2&#45;&gt;Node16 -->
<g id="edge15" class="edge"><title>Node2&#45;&gt;Node16</title>
<path fill="none" stroke="midnightblue" d="M1521.46,-203.202C1492.31,-192.188 1449.59,-176.042 1419.12,-164.528"/>
<polygon fill="midnightblue" stroke="midnightblue" points="1520.57,-206.607 1531.16,-206.869 1523.04,-200.059 1520.57,-206.607"/>
</g>
<!-- Node17 -->
<g id="node17" class="node"><title>Node17</title>
<g id="a_node17"><a xlink:href="_hardware_pwm_buzzer_unit_test_8h.html" target="_top" xlink:title="car/hardwareTest/mbed\l/HardwarePwmBuzzerUnitTest.h">
<polygon fill="white" stroke="black" points="1470,-134.5 1470,-164.5 1638,-164.5 1638,-134.5 1470,-134.5"/>
<text text-anchor="start" x="1478" y="-152.5" font-family="Helvetica,sans-Serif" font-size="10.00">car/hardwareTest/mbed</text>
<text text-anchor="middle" x="1554" y="-141.5" font-family="Helvetica,sans-Serif" font-size="10.00">/HardwarePwmBuzzerUnitTest.h</text>
</a>
</g>
</g>
<!-- Node2&#45;&gt;Node17 -->
<g id="edge16" class="edge"><title>Node2&#45;&gt;Node17</title>
<path fill="none" stroke="midnightblue" d="M1554,-196.411C1554,-186.222 1554,-173.901 1554,-164.589"/>
<polygon fill="midnightblue" stroke="midnightblue" points="1550.5,-196.734 1554,-206.734 1557.5,-196.734 1550.5,-196.734"/>
</g>
<!-- Node18 -->
<g id="node18" class="node"><title>Node18</title>
<g id="a_node18"><a xlink:href="_dummy_s_car_8h.html" target="_top" xlink:title="car/hardwareTest/mbed\l/helper/DummySCar.h">
<polygon fill="white" stroke="black" points="380,-134.5 380,-164.5 508,-164.5 508,-134.5 380,-134.5"/>
<text text-anchor="start" x="388" y="-152.5" font-family="Helvetica,sans-Serif" font-size="10.00">car/hardwareTest/mbed</text>
<text text-anchor="middle" x="444" y="-141.5" font-family="Helvetica,sans-Serif" font-size="10.00">/helper/DummySCar.h</text>
</a>
</g>
</g>
<!-- Node2&#45;&gt;Node18 -->
<g id="edge18" class="edge"><title>Node2&#45;&gt;Node18</title>
<path fill="none" stroke="midnightblue" d="M1490.64,-215.367C1328.77,-214.384 887.025,-207.662 522,-165 517.485,-164.472 512.839,-163.84 508.169,-163.138"/>
<polygon fill="midnightblue" stroke="midnightblue" points="1490.88,-218.868 1500.89,-215.423 1490.91,-211.868 1490.88,-218.868"/>
</g>
<!-- Node19 -->
<g id="node19" class="node"><title>Node19</title>
<g id="a_node19"><a xlink:href="_l_e_d_p_w_m_unit_test_8h.html" target="_top" xlink:title="car/hardwareTest/mbed\l/LEDPWMUnitTest.h">
<polygon fill="white" stroke="black" points="1656,-134.5 1656,-164.5 1784,-164.5 1784,-134.5 1656,-134.5"/>
<text text-anchor="start" x="1664" y="-152.5" font-family="Helvetica,sans-Serif" font-size="10.00">car/hardwareTest/mbed</text>
<text text-anchor="middle" x="1720" y="-141.5" font-family="Helvetica,sans-Serif" font-size="10.00">/LEDPWMUnitTest.h</text>
</a>
</g>
</g>
<!-- Node2&#45;&gt;Node19 -->
<g id="edge22" class="edge"><title>Node2&#45;&gt;Node19</title>
<path fill="none" stroke="midnightblue" d="M1585.41,-203.202C1613.54,-192.188 1654.77,-176.042 1684.17,-164.528"/>
<polygon fill="midnightblue" stroke="midnightblue" points="1584.08,-199.963 1576.04,-206.869 1586.63,-206.481 1584.08,-199.963"/>
</g>
<!-- Node20 -->
<g id="node20" class="node"><title>Node20</title>
<g id="a_node20"><a xlink:href="_l_e_d_unit_test_8h.html" target="_top" xlink:title="car/hardwareTest/mbed\l/LEDUnitTest.h">
<polygon fill="white" stroke="black" points="1802,-134.5 1802,-164.5 1930,-164.5 1930,-134.5 1802,-134.5"/>
<text text-anchor="start" x="1810" y="-152.5" font-family="Helvetica,sans-Serif" font-size="10.00">car/hardwareTest/mbed</text>
<text text-anchor="middle" x="1866" y="-141.5" font-family="Helvetica,sans-Serif" font-size="10.00">/LEDUnitTest.h</text>
</a>
</g>
</g>
<!-- Node2&#45;&gt;Node20 -->
<g id="edge23" class="edge"><title>Node2&#45;&gt;Node20</title>
<path fill="none" stroke="midnightblue" d="M1605.1,-204.854C1658.84,-193.659 1743.52,-176.016 1801.75,-163.885"/>
<polygon fill="midnightblue" stroke="midnightblue" points="1604.19,-201.469 1595.11,-206.936 1605.61,-208.322 1604.19,-201.469"/>
</g>
<!-- Node21 -->
<g id="node21" class="node"><title>Node21</title>
<g id="a_node21"><a xlink:href="_master_output_test_8h.html" target="_top" xlink:title="car/hardwareTest/mbed\l/MasterOutputTest.h">
<polygon fill="white" stroke="black" points="1948,-134.5 1948,-164.5 2076,-164.5 2076,-134.5 1948,-134.5"/>
<text text-anchor="start" x="1956" y="-152.5" font-family="Helvetica,sans-Serif" font-size="10.00">car/hardwareTest/mbed</text>
<text text-anchor="middle" x="2012" y="-141.5" font-family="Helvetica,sans-Serif" font-size="10.00">/MasterOutputTest.h</text>
</a>
</g>
</g>
<!-- Node2&#45;&gt;Node21 -->
<g id="edge24" class="edge"><title>Node2&#45;&gt;Node21</title>
<path fill="none" stroke="midnightblue" d="M1617.04,-208.518C1693.45,-199.76 1826.01,-183.612 1939,-165 1941.93,-164.517 1944.93,-164.004 1947.95,-163.47"/>
<polygon fill="midnightblue" stroke="midnightblue" points="1616.64,-205.042 1607.1,-209.653 1617.43,-211.997 1616.64,-205.042"/>
</g>
<!-- Node22 -->
<g id="node22" class="node"><title>Node22</title>
<g id="a_node22"><a xlink:href="_pedal_unit_test_8h.html" target="_top" xlink:title="car/hardwareTest/mbed\l/PedalUnitTest.h">
<polygon fill="white" stroke="black" points="2094,-134.5 2094,-164.5 2222,-164.5 2222,-134.5 2094,-134.5"/>
<text text-anchor="start" x="2102" y="-152.5" font-family="Helvetica,sans-Serif" font-size="10.00">car/hardwareTest/mbed</text>
<text text-anchor="middle" x="2158" y="-141.5" font-family="Helvetica,sans-Serif" font-size="10.00">/PedalUnitTest.h</text>
</a>
</g>
</g>
<!-- Node2&#45;&gt;Node22 -->
<g id="edge25" class="edge"><title>Node2&#45;&gt;Node22</title>
<path fill="none" stroke="midnightblue" d="M1617.57,-211.543C1717.46,-204.857 1917.08,-189.597 2085,-165 2087.94,-164.569 2090.94,-164.099 2093.97,-163.599"/>
<polygon fill="midnightblue" stroke="midnightblue" points="1617.1,-208.067 1607.35,-212.221 1617.56,-215.052 1617.1,-208.067"/>
</g>
<!-- Node23 -->
<g id="node23" class="node"><title>Node23</title>
<g id="a_node23"><a xlink:href="_pump_refill_8h.html" target="_top" xlink:title="car/hardwareTest/mbed\l/PumpRefill.h">
<polygon fill="white" stroke="black" points="2240,-134.5 2240,-164.5 2368,-164.5 2368,-134.5 2240,-134.5"/>
<text text-anchor="start" x="2248" y="-152.5" font-family="Helvetica,sans-Serif" font-size="10.00">car/hardwareTest/mbed</text>
<text text-anchor="middle" x="2304" y="-141.5" font-family="Helvetica,sans-Serif" font-size="10.00">/PumpRefill.h</text>
</a>
</g>
</g>
<!-- Node2&#45;&gt;Node23 -->
<g id="edge26" class="edge"><title>Node2&#45;&gt;Node23</title>
<path fill="none" stroke="midnightblue" d="M1617.46,-213.342C1737.66,-208.685 2006.6,-195.541 2231,-165 2233.94,-164.599 2236.95,-164.153 2239.98,-163.674"/>
<polygon fill="midnightblue" stroke="midnightblue" points="1617.19,-209.85 1607.33,-213.728 1617.46,-216.845 1617.19,-209.85"/>
</g>
<!-- Node24 -->
<g id="node24" class="node"><title>Node24</title>
<g id="a_node24"><a xlink:href="_r_f_eand_r_u_ntest_8h.html" target="_top" xlink:title="car/hardwareTest/mbed\l/RFEandRUNtest.h">
<polygon fill="white" stroke="black" points="2386,-134.5 2386,-164.5 2514,-164.5 2514,-134.5 2386,-134.5"/>
<text text-anchor="start" x="2394" y="-152.5" font-family="Helvetica,sans-Serif" font-size="10.00">car/hardwareTest/mbed</text>
<text text-anchor="middle" x="2450" y="-141.5" font-family="Helvetica,sans-Serif" font-size="10.00">/RFEandRUNtest.h</text>
</a>
</g>
</g>
<!-- Node2&#45;&gt;Node24 -->
<g id="edge27" class="edge"><title>Node2&#45;&gt;Node24</title>
<path fill="none" stroke="midnightblue" d="M1617.19,-214.522C1755.49,-211.746 2095.15,-201.47 2377,-165 2379.95,-164.619 2382.95,-164.189 2385.99,-163.722"/>
<polygon fill="midnightblue" stroke="midnightblue" points="1617.12,-211.022 1607.19,-214.716 1617.26,-218.021 1617.12,-211.022"/>
</g>
<!-- Node25 -->
<g id="node25" class="node"><title>Node25</title>
<g id="a_node25"><a xlink:href="_r_p_m_sensor_unit_test_8h.html" target="_top" xlink:title="car/hardwareTest/mbed\l/RPMSensorUnitTest.h">
<polygon fill="white" stroke="black" points="2532,-134.5 2532,-164.5 2660,-164.5 2660,-134.5 2532,-134.5"/>
<text text-anchor="start" x="2540" y="-152.5" font-family="Helvetica,sans-Serif" font-size="10.00">car/hardwareTest/mbed</text>
<text text-anchor="middle" x="2596" y="-141.5" font-family="Helvetica,sans-Serif" font-size="10.00">/RPMSensorUnitTest.h</text>
</a>
</g>
</g>
<!-- Node2&#45;&gt;Node25 -->
<g id="edge28" class="edge"><title>Node2&#45;&gt;Node25</title>
<path fill="none" stroke="midnightblue" d="M1617.3,-215.348C1772.35,-214.292 2183.32,-207.363 2523,-165 2525.95,-164.632 2528.96,-164.213 2531.99,-163.756"/>
<polygon fill="midnightblue" stroke="midnightblue" points="1616.99,-211.849 1607.02,-215.412 1617.04,-218.849 1616.99,-211.849"/>
</g>
<!-- Node9 -->
<g id="node9" class="node"><title>Node9</title>
<g id="a_node9"><a xlink:href="_alive_component_test_8h.html" target="_top" xlink:title="car/hardwareTest/mbed\l/AliveComponentTest.h">
<polygon fill="white" stroke="black" points="619,-67.5 619,-97.5 747,-97.5 747,-67.5 619,-67.5"/>
<text text-anchor="start" x="627" y="-85.5" font-family="Helvetica,sans-Serif" font-size="10.00">car/hardwareTest/mbed</text>
<text text-anchor="middle" x="683" y="-74.5" font-family="Helvetica,sans-Serif" font-size="10.00">/AliveComponentTest.h</text>
</a>
</g>
</g>
<!-- Node8&#45;&gt;Node9 -->
<g id="edge8" class="edge"><title>Node8&#45;&gt;Node9</title>
<path fill="none" stroke="midnightblue" d="M646.416,-126.736C654.553,-117.119 663.886,-106.089 671.089,-97.5765"/>
<polygon fill="midnightblue" stroke="midnightblue" points="643.722,-124.501 639.934,-134.396 649.065,-129.023 643.722,-124.501"/>
</g>
<!-- Node8&#45;&gt;Node10 -->
<g id="edge9" class="edge"><title>Node8&#45;&gt;Node10</title>
<path fill="none" stroke="midnightblue" d="M562.954,-131.984C521.139,-121.367 467.39,-107.72 427.575,-97.6109"/>
<polygon fill="midnightblue" stroke="midnightblue" points="562.213,-135.407 572.767,-134.476 563.936,-128.623 562.213,-135.407"/>
</g>
<!-- Node8&#45;&gt;Node11 -->
<g id="edge10" class="edge"><title>Node8&#45;&gt;Node11</title>
<path fill="none" stroke="midnightblue" d="M599.623,-128.451C585.47,-118.452 568.695,-106.6 555.924,-97.5765"/>
<polygon fill="midnightblue" stroke="midnightblue" points="597.851,-131.484 608.037,-134.396 601.89,-125.767 597.851,-131.484"/>
</g>
<!-- Node18&#45;&gt;Node10 -->
<g id="edge19" class="edge"><title>Node18&#45;&gt;Node10</title>
<path fill="none" stroke="midnightblue" d="M420.847,-127.598C409.975,-117.783 397.304,-106.344 387.592,-97.5765"/>
<polygon fill="midnightblue" stroke="midnightblue" points="418.609,-130.293 428.377,-134.396 423.3,-125.097 418.609,-130.293"/>
</g>
<!-- Node18&#45;&gt;Node11 -->
<g id="edge20" class="edge"><title>Node18&#45;&gt;Node11</title>
<path fill="none" stroke="midnightblue" d="M472.377,-128.451C486.53,-118.452 503.305,-106.6 516.076,-97.5765"/>
<polygon fill="midnightblue" stroke="midnightblue" points="470.11,-125.767 463.963,-134.396 474.149,-131.484 470.11,-125.767"/>
</g>
<!-- Node27&#45;&gt;Node28 -->
<g id="edge31" class="edge"><title>Node27&#45;&gt;Node28</title>
<path fill="none" stroke="midnightblue" d="M3238,-191.108C3238,-182.154 3238,-172.323 3238,-164.577"/>
<polygon fill="midnightblue" stroke="midnightblue" points="3234.5,-191.396 3238,-201.396 3241.5,-191.396 3234.5,-191.396"/>
</g>
<!-- Node29 -->
<g id="node29" class="node"><title>Node29</title>
<g id="a_node29"><a xlink:href="_p_cooling_8h.html" target="_top" xlink:title="lib/carpi/src/runable\l/programs/PCooling.h">
<polygon fill="white" stroke="black" points="3210.5,-0.5 3210.5,-30.5 3329.5,-30.5 3329.5,-0.5 3210.5,-0.5"/>
<text text-anchor="start" x="3218.5" y="-18.5" font-family="Helvetica,sans-Serif" font-size="10.00">lib/carpi/src/runable</text>
<text text-anchor="middle" x="3270" y="-7.5" font-family="Helvetica,sans-Serif" font-size="10.00">/programs/PCooling.h</text>
</a>
</g>
</g>
<!-- Node28&#45;&gt;Node29 -->
<g id="edge32" class="edge"><title>Node28&#45;&gt;Node29</title>
<path fill="none" stroke="midnightblue" d="M3172.81,-133.653C3139.06,-124.507 3102.87,-111.893 3093,-98 3085.02,-86.7692 3084.7,-77.9979 3093,-67 3107.29,-48.0603 3164.56,-34.1009 3210.14,-25.7168"/>
<polygon fill="midnightblue" stroke="midnightblue" points="3172.15,-137.097 3182.71,-136.259 3173.93,-130.328 3172.15,-137.097"/>
</g>
<!-- Node30 -->
<g id="node30" class="node"><title>Node30</title>
<g id="a_node30"><a xlink:href="_p_logger_8h.html" target="_top" xlink:title="lib/carpi/src/runable\l/programs/PLogger.h">
<polygon fill="white" stroke="black" points="3102,-67.5 3102,-97.5 3218,-97.5 3218,-67.5 3102,-67.5"/>
<text text-anchor="start" x="3110" y="-85.5" font-family="Helvetica,sans-Serif" font-size="10.00">lib/carpi/src/runable</text>
<text text-anchor="middle" x="3160" y="-74.5" font-family="Helvetica,sans-Serif" font-size="10.00">/programs/PLogger.h</text>
</a>
</g>
</g>
<!-- Node28&#45;&gt;Node30 -->
<g id="edge33" class="edge"><title>Node28&#45;&gt;Node30</title>
<path fill="none" stroke="midnightblue" d="M3213.26,-127.883C3201.41,-118.005 3187.52,-106.429 3176.89,-97.5765"/>
<polygon fill="midnightblue" stroke="midnightblue" points="3211.15,-130.683 3221.08,-134.396 3215.63,-125.305 3211.15,-130.683"/>
</g>
<!-- Node31 -->
<g id="node31" class="node"><title>Node31</title>
<g id="a_node31"><a xlink:href="_p_motor_controller_8h.html" target="_top" xlink:title="lib/carpi/src/runable\l/programs/PMotorController.h">
<polygon fill="white" stroke="black" points="3236,-67.5 3236,-97.5 3394,-97.5 3394,-67.5 3236,-67.5"/>
<text text-anchor="start" x="3244" y="-85.5" font-family="Helvetica,sans-Serif" font-size="10.00">lib/carpi/src/runable</text>
<text text-anchor="middle" x="3315" y="-74.5" font-family="Helvetica,sans-Serif" font-size="10.00">/programs/PMotorController.h</text>
</a>
</g>
</g>
<!-- Node28&#45;&gt;Node31 -->
<g id="edge34" class="edge"><title>Node28&#45;&gt;Node31</title>
<path fill="none" stroke="midnightblue" d="M3262.42,-127.883C3274.12,-118.005 3287.84,-106.429 3298.32,-97.5765"/>
<polygon fill="midnightblue" stroke="midnightblue" points="3260.09,-125.271 3254.71,-134.396 3264.61,-130.62 3260.09,-125.271"/>
</g>
<!-- Node32 -->
<g id="node32" class="node"><title>Node32</title>
<g id="a_node32"><a xlink:href="_s_speed_8h.html" target="_top" xlink:title="lib/carpi/src/runable\l/services/SSpeed.h">
<polygon fill="white" stroke="black" points="3412,-67.5 3412,-97.5 3522,-97.5 3522,-67.5 3412,-67.5"/>
<text text-anchor="start" x="3420" y="-85.5" font-family="Helvetica,sans-Serif" font-size="10.00">lib/carpi/src/runable</text>
<text text-anchor="middle" x="3467" y="-74.5" font-family="Helvetica,sans-Serif" font-size="10.00">/services/SSpeed.h</text>
</a>
</g>
</g>
<!-- Node28&#45;&gt;Node32 -->
<g id="edge35" class="edge"><title>Node28&#45;&gt;Node32</title>
<path fill="none" stroke="midnightblue" d="M3297.14,-131.715C3334.4,-121.137 3381.97,-107.635 3417.29,-97.6109"/>
<polygon fill="midnightblue" stroke="midnightblue" points="3296.07,-128.378 3287.41,-134.476 3297.98,-135.112 3296.07,-128.378"/>
</g>
<!-- Node32&#45;&gt;Node29 -->
<g id="edge36" class="edge"><title>Node32&#45;&gt;Node29</title>
<path fill="none" stroke="midnightblue" d="M3414.65,-64.2278C3382.78,-53.7131 3342.59,-40.4508 3312.66,-30.5765"/>
<polygon fill="midnightblue" stroke="midnightblue" points="3413.66,-67.5863 3424.25,-67.396 3415.85,-60.9388 3413.66,-67.5863"/>
</g>
</g>
</svg>
        <g id="navigator" transform="translate(0 0)" fill="#404254">
                <rect fill="#f2f5e9" fill-opacity="0.5" stroke="#606060" stroke-width=".5" x="0" y="0" width="60" height="60"/>
                <use id="zoomplus" xlink:href="#zoomPlus" x="17" y="9" onmousedown="handleZoom(evt,'in')"/>
                <use id="zoomminus" xlink:href="#zoomMin" x="42" y="9" onmousedown="handleZoom(evt,'out')"/>
                <use id="reset" xlink:href="#resetDef" x="30" y="36" onmousedown="handleReset()"/>
                <g id="arrowUp" xlink:href="#dirArrow" transform="translate(30 24)" onmousedown="handlePan(0,-1)">
                  <use xlink:href="#rim" fill="#404040">
                        <set attributeName="fill" to="#808080" begin="arrowUp.mouseover" end="arrowUp.mouseout"/>
                  </use>
                  <path fill="none" stroke="white" stroke-width="1.5" d="M0,-3.0v7 M-2.5,-0.5L0,-3.0L2.5,-0.5"/>
                </g>
                <g id="arrowRight" xlink:href="#dirArrow" transform="rotate(90) translate(36 -43)" onmousedown="handlePan(1,0)">
                  <use xlink:href="#rim" fill="#404040">
                        <set attributeName="fill" to="#808080" begin="arrowRight.mouseover" end="arrowRight.mouseout"/>
                  </use>
                  <path fill="none" stroke="white" stroke-width="1.5" d="M0,-3.0v7 M-2.5,-0.5L0,-3.0L2.5,-0.5"/>
                </g>
                <g id="arrowDown" xlink:href="#dirArrow" transform="rotate(180) translate(-30 -48)" onmousedown="handlePan(0,1)">
                  <use xlink:href="#rim" fill="#404040">
                        <set attributeName="fill" to="#808080" begin="arrowDown.mouseover" end="arrowDown.mouseout"/>
                  </use>
                  <path fill="none" stroke="white" stroke-width="1.5" d="M0,-3.0v7 M-2.5,-0.5L0,-3.0L2.5,-0.5"/>
                </g>
                <g id="arrowLeft" xlink:href="#dirArrow" transform="rotate(270) translate(-36 17)" onmousedown="handlePan(-1,0)">
                  <use xlink:href="#rim" fill="#404040">
                        <set attributeName="fill" to="#808080" begin="arrowLeft.mouseover" end="arrowLeft.mouseout"/>
                  </use>
                  <path fill="none" stroke="white" stroke-width="1.5" d="M0,-3.0v7 M-2.5,-0.5L0,-3.0L2.5,-0.5"/>
                </g>
        </g>
        <svg viewBox="0 0 15 15" width="100%" height="30px" preserveAspectRatio="xMaxYMin meet">
         <g id="arrow_out" transform="scale(0.3 0.3)">
          <a xlink:href="_i_hv_enabled_8h__dep__incl_org.svg" target="_base">
           <rect id="button" ry="5" rx="5" y="6" x="6" height="38" width="38"
                fill="#f2f5e9" fill-opacity="0.5" stroke="#606060" stroke-width="1.0"/>
           <path id="arrow"
             d="M 11.500037,31.436501 C 11.940474,20.09759 22.043105,11.32322 32.158766,21.979434 L 37.068811,17.246167 C 37.068811,17.246167 37.088388,32 37.088388,32 L 22.160133,31.978069 C 22.160133,31.978069 26.997745,27.140456 26.997745,27.140456 C 18.528582,18.264221 13.291696,25.230495 11.500037,31.436501 z"
             style="fill:#404040;"/>
          </a>
         </g>
        </svg>
</svg>
