<?xml version="1.0" encoding="UTF-8" standalone="no"?>
<!DOCTYPE svg PUBLIC "-//W3C//DTD SVG 1.1//EN"
 "http://www.w3.org/Graphics/SVG/1.1/DTD/svg11.dtd">
<!-- Generated by graphviz version 2.38.0 (20140413.2041)
 -->
<!-- Title: lib/carpi/src/components/interface/IHvEnabled.h Pages: 1 -->
<svg width="262pt" height="207pt"
 viewBox="0.00 0.00 262.00 207.00" xmlns="http://www.w3.org/2000/svg" xmlns:xlink="http://www.w3.org/1999/xlink">
<g id="graph0" class="graph" transform="scale(1 1) rotate(0) translate(4 203)">
<title>lib/carpi/src/components/interface/IHvEnabled.h</title>
<polygon fill="white" stroke="none" points="-4,4 -4,-203 258,-203 258,4 -4,4"/>
<!-- Node1 -->
<g id="node1" class="node"><title>Node1</title>
<polygon fill="#bfbfbf" stroke="black" points="86.5,-168.5 86.5,-198.5 220.5,-198.5 220.5,-168.5 86.5,-168.5"/>
<text text-anchor="start" x="94.5" y="-186.5" font-family="Helvetica,sans-Serif" font-size="10.00">lib/carpi/src/components</text>
<text text-anchor="middle" x="153.5" y="-175.5" font-family="Helvetica,sans-Serif" font-size="10.00">/interface/IHvEnabled.h</text>
</g>
<!-- Node2 -->
<g id="node2" class="node"><title>Node2</title>
<g id="a_node2"><a xlink:href="_i_component_8h.html" target="_top" xlink:title="IComponent.h">
<polygon fill="white" stroke="black" points="111.5,-112.5 111.5,-131.5 195.5,-131.5 195.5,-112.5 111.5,-112.5"/>
<text text-anchor="middle" x="153.5" y="-119.5" font-family="Helvetica,sans-Serif" font-size="10.00">IComponent.h</text>
</a>
</g>
</g>
<!-- Node1&#45;&gt;Node2 -->
<g id="edge1" class="edge"><title>Node1&#45;&gt;Node2</title>
<path fill="none" stroke="midnightblue" d="M153.5,-168.399C153.5,-160.466 153.5,-150.458 153.5,-141.858"/>
<polygon fill="midnightblue" stroke="midnightblue" points="157,-141.658 153.5,-131.658 150,-141.658 157,-141.658"/>
</g>
<!-- Node3 -->
<g id="node3" class="node"><title>Node3</title>
<g id="a_node3"><a xlink:href="component_ids_8h.html" target="_top" xlink:title="communication/componentIds.h">
<polygon fill="white" stroke="black" points="0,-56.5 0,-75.5 171,-75.5 171,-56.5 0,-56.5"/>
<text text-anchor="middle" x="85.5" y="-63.5" font-family="Helvetica,sans-Serif" font-size="10.00">communication/componentIds.h</text>
</a>
</g>
</g>
<!-- Node2&#45;&gt;Node3 -->
<g id="edge2" class="edge"><title>Node2&#45;&gt;Node3</title>
<path fill="none" stroke="midnightblue" d="M142.575,-112.324C132.325,-104.185 116.779,-91.8395 104.499,-82.0874"/>
<polygon fill="midnightblue" stroke="midnightblue" points="106.632,-79.3119 96.6242,-75.8339 102.279,-84.7937 106.632,-79.3119"/>
</g>
<!-- Node5 -->
<g id="node5" class="node"><title>Node5</title>
<g id="a_node5"><a xlink:href="_i_logable_8h.html" target="_top" xlink:title="ILogable.h">
<polygon fill="white" stroke="black" points="189,-56.5 189,-75.5 254,-75.5 254,-56.5 189,-56.5"/>
<text text-anchor="middle" x="221.5" y="-63.5" font-family="Helvetica,sans-Serif" font-size="10.00">ILogable.h</text>
</a>
</g>
</g>
<!-- Node2&#45;&gt;Node5 -->
<g id="edge4" class="edge"><title>Node2&#45;&gt;Node5</title>
<path fill="none" stroke="midnightblue" d="M164.425,-112.324C174.675,-104.185 190.221,-91.8395 202.501,-82.0874"/>
<polygon fill="midnightblue" stroke="midnightblue" points="204.721,-84.7937 210.376,-75.8339 200.368,-79.3119 204.721,-84.7937"/>
</g>
<!-- Node4 -->
<g id="node4" class="node"><title>Node4</title>
<polygon fill="white" stroke="#bfbfbf" points="59,-0.5 59,-19.5 112,-19.5 112,-0.5 59,-0.5"/>
<text text-anchor="middle" x="85.5" y="-7.5" font-family="Helvetica,sans-Serif" font-size="10.00">stdint.h</text>
</g>
<!-- Node3&#45;&gt;Node4 -->
<g id="edge3" class="edge"><title>Node3&#45;&gt;Node4</title>
<path fill="none" stroke="midnightblue" d="M85.5,-56.083C85.5,-49.0059 85.5,-38.8611 85.5,-29.9865"/>
<polygon fill="midnightblue" stroke="midnightblue" points="89.0001,-29.751 85.5,-19.7511 82.0001,-29.7511 89.0001,-29.751"/>
</g>
<!-- Node6 -->
<g id="node6" class="node"><title>Node6</title>
<polygon fill="white" stroke="#bfbfbf" points="199.5,-0.5 199.5,-19.5 243.5,-19.5 243.5,-0.5 199.5,-0.5"/>
<text text-anchor="middle" x="221.5" y="-7.5" font-family="Helvetica,sans-Serif" font-size="10.00">string</text>
</g>
<!-- Node5&#45;&gt;Node6 -->
<g id="edge5" class="edge"><title>Node5&#45;&gt;Node6</title>
<path fill="none" stroke="midnightblue" d="M221.5,-56.083C221.5,-49.0059 221.5,-38.8611 221.5,-29.9865"/>
<polygon fill="midnightblue" stroke="midnightblue" points="225,-29.751 221.5,-19.7511 218,-29.7511 225,-29.751"/>
</g>
</g>
</svg>
