<?xml version="1.0" encoding="UTF-8" standalone="no"?>
<!DOCTYPE svg PUBLIC "-//W3C//DTD SVG 1.1//EN"
 "http://www.w3.org/Graphics/SVG/1.1/DTD/svg11.dtd">
<!-- Generated by graphviz version 2.38.0 (20140413.2041)
 -->
<!-- Title: lib/carpi/src/components/interface/ILed.h Pages: 1 -->
<!--zoomable 307 -->
<svg id="main" version="1.1" xmlns="http://www.w3.org/2000/svg" xmlns:xlink="http://www.w3.org/1999/xlink" xml:space="preserve" onload="init(evt)">
<style type="text/css"><![CDATA[
.edge:hover path { stroke: red; }
.edge:hover polygon { stroke: red; fill: red; }
]]></style>
<script type="text/javascript"><![CDATA[
var edges = document.getElementsByTagName('g');
if (edges && edges.length) {
  for (var i=0;i<edges.length;i++) {
    if (edges[i].id.substr(0,4)=='edge') {
      edges[i].setAttribute('class','edge');
    }
  }
}
]]></script>
        <defs>
                <circle id="rim" cx="0" cy="0" r="7"/>
                <circle id="rim2" cx="0" cy="0" r="3.5"/>
                <g id="zoomPlus">
                        <use xlink:href="#rim" fill="#404040">
                                <set attributeName="fill" to="#808080" begin="zoomplus.mouseover" end="zoomplus.mouseout"/>
                        </use>
                        <path d="M-4,0h8M0,-4v8" fill="none" stroke="white" stroke-width="1.5" pointer-events="none"/>
                </g>
                <g id="zoomMin">
                        <use xlink:href="#rim" fill="#404040">
                                <set attributeName="fill" to="#808080" begin="zoomminus.mouseover" end="zoomminus.mouseout"/>
                        </use>
                        <path d="M-4,0h8" fill="none" stroke="white" stroke-width="1.5" pointer-events="none"/>
                </g>
                <g id="dirArrow">
                        <path fill="none" stroke="white" stroke-width="1.5" d="M0,-3.0v7 M-2.5,-0.5L0,-3.0L2.5,-0.5"/>
                </g>
               <g id="resetDef">
                       <use xlink:href="#rim2" fill="#404040">
                               <set attributeName="fill" to="#808080" begin="reset.mouseover" end="reset.mouseout"/>
                       </use>
               </g>
        </defs>

<script type="text/javascript">
var viewWidth = 3649;
var viewHeight = 307;
var sectionId = 'dynsection-1';
</script>
<script xlink:href="svgpan.js"/>
<svg id="graph" class="graph">
<g id="viewport">
<title>lib/carpi/src/components/interface/ILed.h</title>
<polygon fill="white" stroke="none" points="-4,4 -4,-303 3645,-303 3645,4 -4,4"/>
<!-- Node1 -->
<g id="node1" class="node"><title>Node1</title>
<polygon fill="#bfbfbf" stroke="black" points="2305,-268.5 2305,-298.5 2439,-298.5 2439,-268.5 2305,-268.5"/>
<text text-anchor="start" x="2313" y="-286.5" font-family="Helvetica,sans-Serif" font-size="10.00">lib/carpi/src/components</text>
<text text-anchor="middle" x="2372" y="-275.5" font-family="Helvetica,sans-Serif" font-size="10.00">/interface/ILed.h</text>
</g>
<!-- Node2 -->
<g id="node2" class="node"><title>Node2</title>
<g id="a_node2"><a xlink:href="carpi_8h.html" target="_top" xlink:title="lib/carpi/src/carpi.h">
<polygon fill="white" stroke="black" points="1890,-140 1890,-159 1996,-159 1996,-140 1890,-140"/>
<text text-anchor="middle" x="1943" y="-147" font-family="Helvetica,sans-Serif" font-size="10.00">lib/carpi/src/carpi.h</text>
</a>
</g>
</g>
<!-- Node1&#45;&gt;Node2 -->
<g id="edge1" class="edge"><title>Node1&#45;&gt;Node2</title>
<path fill="none" stroke="midnightblue" d="M2373.23,-258.253C2372.75,-239.791 2368.81,-215.208 2353,-201 2301.59,-154.796 2095.17,-149.54 1996.3,-149.763"/>
<polygon fill="midnightblue" stroke="midnightblue" points="2369.73,-258.271 2373.18,-268.29 2376.73,-258.31 2369.73,-258.271"/>
</g>
<!-- Node26 -->
<g id="node26" class="node"><title>Node26</title>
<g id="a_node26"><a xlink:href="_hardware_led_8h.html" target="_top" xlink:title="lib/carpi/src/components\l/hardware/HardwareLed.h">
<polygon fill="white" stroke="black" points="1873.5,-201.5 1873.5,-231.5 2012.5,-231.5 2012.5,-201.5 1873.5,-201.5"/>
<text text-anchor="start" x="1881.5" y="-219.5" font-family="Helvetica,sans-Serif" font-size="10.00">lib/carpi/src/components</text>
<text text-anchor="middle" x="1943" y="-208.5" font-family="Helvetica,sans-Serif" font-size="10.00">/hardware/HardwareLed.h</text>
</a>
</g>
</g>
<!-- Node1&#45;&gt;Node26 -->
<g id="edge29" class="edge"><title>Node1&#45;&gt;Node26</title>
<path fill="none" stroke="midnightblue" d="M2294.68,-272.301C2223.47,-262.688 2114.94,-247.483 2021,-232 2018.28,-231.552 2015.51,-231.086 2012.72,-230.606"/>
<polygon fill="midnightblue" stroke="midnightblue" points="2294.53,-275.813 2304.91,-273.678 2295.47,-268.875 2294.53,-275.813"/>
</g>
<!-- Node27 -->
<g id="node27" class="node"><title>Node27</title>
<g id="a_node27"><a xlink:href="_hardware_led_pwm_8h.html" target="_top" xlink:title="lib/carpi/src/components\l/hardware/HardwareLedPwm.h">
<polygon fill="white" stroke="black" points="2030.5,-201.5 2030.5,-231.5 2191.5,-231.5 2191.5,-201.5 2030.5,-201.5"/>
<text text-anchor="start" x="2038.5" y="-219.5" font-family="Helvetica,sans-Serif" font-size="10.00">lib/carpi/src/components</text>
<text text-anchor="middle" x="2111" y="-208.5" font-family="Helvetica,sans-Serif" font-size="10.00">/hardware/HardwareLedPwm.h</text>
</a>
</g>
</g>
<!-- Node1&#45;&gt;Node27 -->
<g id="edge31" class="edge"><title>Node1&#45;&gt;Node27</title>
<path fill="none" stroke="midnightblue" d="M2305.95,-266.052C2263.28,-255.425 2208.34,-241.741 2167.66,-231.611"/>
<polygon fill="midnightblue" stroke="midnightblue" points="2305.14,-269.456 2315.69,-268.476 2306.83,-262.663 2305.14,-269.456"/>
</g>
<!-- Node28 -->
<g id="node28" class="node"><title>Node28</title>
<g id="a_node28"><a xlink:href="_software_led_8h.html" target="_top" xlink:title="lib/carpi/src/components\l/software/SoftwareLed.h">
<polygon fill="white" stroke="black" points="2210,-201.5 2210,-231.5 2344,-231.5 2344,-201.5 2210,-201.5"/>
<text text-anchor="start" x="2218" y="-219.5" font-family="Helvetica,sans-Serif" font-size="10.00">lib/carpi/src/components</text>
<text text-anchor="middle" x="2277" y="-208.5" font-family="Helvetica,sans-Serif" font-size="10.00">/software/SoftwareLed.h</text>
</a>
</g>
</g>
<!-- Node1&#45;&gt;Node28 -->
<g id="edge33" class="edge"><title>Node1&#45;&gt;Node28</title>
<path fill="none" stroke="midnightblue" d="M2343.11,-262.734C2328.41,-252.676 2310.89,-240.685 2297.57,-231.577"/>
<polygon fill="midnightblue" stroke="midnightblue" points="2341.16,-265.638 2351.39,-268.396 2345.11,-259.861 2341.16,-265.638"/>
</g>
<!-- Node29 -->
<g id="node29" class="node"><title>Node29</title>
<g id="a_node29"><a xlink:href="_p_brake_light_8h.html" target="_top" xlink:title="lib/carpi/src/runable\l/programs/PBrakeLight.h">
<polygon fill="white" stroke="black" points="2864.5,-201.5 2864.5,-231.5 2999.5,-231.5 2999.5,-201.5 2864.5,-201.5"/>
<text text-anchor="start" x="2872.5" y="-219.5" font-family="Helvetica,sans-Serif" font-size="10.00">lib/carpi/src/runable</text>
<text text-anchor="middle" x="2932" y="-208.5" font-family="Helvetica,sans-Serif" font-size="10.00">/programs/PBrakeLight.h</text>
</a>
</g>
</g>
<!-- Node1&#45;&gt;Node29 -->
<g id="edge35" class="edge"><title>Node1&#45;&gt;Node29</title>
<path fill="none" stroke="midnightblue" d="M2449.31,-273.526C2559.38,-260.75 2759.5,-237.522 2864.13,-225.377"/>
<polygon fill="midnightblue" stroke="midnightblue" points="2448.8,-270.062 2439.27,-274.692 2449.61,-277.015 2448.8,-270.062"/>
</g>
<!-- Node30 -->
<g id="node30" class="node"><title>Node30</title>
<g id="a_node30"><a xlink:href="_s_car_8h.html" target="_top" xlink:title="lib/carpi/src/runable\l/services/SCar.h">
<polygon fill="white" stroke="black" points="3186,-134.5 3186,-164.5 3296,-164.5 3296,-134.5 3186,-134.5"/>
<text text-anchor="start" x="3194" y="-152.5" font-family="Helvetica,sans-Serif" font-size="10.00">lib/carpi/src/runable</text>
<text text-anchor="middle" x="3241" y="-141.5" font-family="Helvetica,sans-Serif" font-size="10.00">/services/SCar.h</text>
</a>
</g>
</g>
<!-- Node1&#45;&gt;Node30 -->
<g id="edge44" class="edge"><title>Node1&#45;&gt;Node30</title>
<path fill="none" stroke="midnightblue" d="M2449.19,-268.567C2544.43,-251.588 2711.37,-222.505 2855,-201 2972.64,-183.386 3110.97,-166.122 3185.94,-157.052"/>
<polygon fill="midnightblue" stroke="midnightblue" points="2448.3,-265.171 2439.07,-270.374 2449.53,-272.062 2448.3,-265.171"/>
</g>
<!-- Node35 -->
<g id="node35" class="node"><title>Node35</title>
<g id="a_node35"><a xlink:href="_p_cockpit_indicator_8h.html" target="_top" xlink:title="lib/carpi/src/runable\l/programs/PCockpitIndicator.h">
<polygon fill="white" stroke="black" points="3089,-201.5 3089,-231.5 3249,-231.5 3249,-201.5 3089,-201.5"/>
<text text-anchor="start" x="3097" y="-219.5" font-family="Helvetica,sans-Serif" font-size="10.00">lib/carpi/src/runable</text>
<text text-anchor="middle" x="3169" y="-208.5" font-family="Helvetica,sans-Serif" font-size="10.00">/programs/PCockpitIndicator.h</text>
</a>
</g>
</g>
<!-- Node1&#45;&gt;Node35 -->
<g id="edge42" class="edge"><title>Node1&#45;&gt;Node35</title>
<path fill="none" stroke="midnightblue" d="M2449.5,-276.612C2569.29,-267.451 2806.65,-249.06 3008,-232 3034.29,-229.773 3062.98,-227.226 3088.76,-224.895"/>
<polygon fill="midnightblue" stroke="midnightblue" points="2449.03,-273.138 2439.33,-277.39 2449.56,-280.117 2449.03,-273.138"/>
</g>
<!-- Node3 -->
<g id="node3" class="node"><title>Node3</title>
<g id="a_node3"><a xlink:href="_dashboard_slave_conf_8h.html" target="_top" xlink:title="car/Bonnie2019/Dashboard\lSlaveConf.h">
<polygon fill="white" stroke="black" points="1530.5,-67.5 1530.5,-97.5 1677.5,-97.5 1677.5,-67.5 1530.5,-67.5"/>
<text text-anchor="start" x="1538.5" y="-85.5" font-family="Helvetica,sans-Serif" font-size="10.00">car/Bonnie2019/Dashboard</text>
<text text-anchor="middle" x="1604" y="-74.5" font-family="Helvetica,sans-Serif" font-size="10.00">SlaveConf.h</text>
</a>
</g>
</g>
<!-- Node2&#45;&gt;Node3 -->
<g id="edge2" class="edge"><title>Node2&#45;&gt;Node3</title>
<path fill="none" stroke="midnightblue" d="M1888.39,-138.029C1831.11,-127.047 1740.78,-109.726 1677.32,-97.5592"/>
<polygon fill="midnightblue" stroke="midnightblue" points="1887.85,-141.49 1898.33,-139.936 1889.17,-134.615 1887.85,-141.49"/>
</g>
<!-- Node4 -->
<g id="node4" class="node"><title>Node4</title>
<g id="a_node4"><a xlink:href="_display_slave_conf_8h.html" target="_top" xlink:title="car/Bonnie2019/DisplaySlave\lConf.h">
<polygon fill="white" stroke="black" points="1695.5,-67.5 1695.5,-97.5 1850.5,-97.5 1850.5,-67.5 1695.5,-67.5"/>
<text text-anchor="start" x="1703.5" y="-85.5" font-family="Helvetica,sans-Serif" font-size="10.00">car/Bonnie2019/DisplaySlave</text>
<text text-anchor="middle" x="1773" y="-74.5" font-family="Helvetica,sans-Serif" font-size="10.00">Conf.h</text>
</a>
</g>
</g>
<!-- Node2&#45;&gt;Node4 -->
<g id="edge3" class="edge"><title>Node2&#45;&gt;Node4</title>
<path fill="none" stroke="midnightblue" d="M1910.84,-136.202C1882.03,-125.188 1839.8,-109.042 1809.69,-97.5281"/>
<polygon fill="midnightblue" stroke="midnightblue" points="1909.83,-139.566 1920.43,-139.869 1912.33,-133.028 1909.83,-139.566"/>
</g>
<!-- Node5 -->
<g id="node5" class="node"><title>Node5</title>
<g id="a_node5"><a xlink:href="_lo_ra_conf_8h.html" target="_top" xlink:title="car/Bonnie2019/LoRaConf.h">
<polygon fill="white" stroke="black" points="1869,-73 1869,-92 2017,-92 2017,-73 1869,-73"/>
<text text-anchor="middle" x="1943" y="-80" font-family="Helvetica,sans-Serif" font-size="10.00">car/Bonnie2019/LoRaConf.h</text>
</a>
</g>
</g>
<!-- Node2&#45;&gt;Node5 -->
<g id="edge4" class="edge"><title>Node2&#45;&gt;Node5</title>
<path fill="none" stroke="midnightblue" d="M1943,-129.537C1943,-117.17 1943,-101.62 1943,-92.1273"/>
<polygon fill="midnightblue" stroke="midnightblue" points="1939.5,-129.734 1943,-139.734 1946.5,-129.734 1939.5,-129.734"/>
</g>
<!-- Node6 -->
<g id="node6" class="node"><title>Node6</title>
<g id="a_node6"><a xlink:href="_master_conf_8h.html" target="_top" xlink:title="car/Bonnie2019/MasterConf.h">
<polygon fill="white" stroke="black" points="2035,-73 2035,-92 2193,-92 2193,-73 2035,-73"/>
<text text-anchor="middle" x="2114" y="-80" font-family="Helvetica,sans-Serif" font-size="10.00">car/Bonnie2019/MasterConf.h</text>
</a>
</g>
</g>
<!-- Node2&#45;&gt;Node6 -->
<g id="edge5" class="edge"><title>Node2&#45;&gt;Node6</title>
<path fill="none" stroke="midnightblue" d="M1975.17,-136.271C2009.11,-123.37 2061.71,-103.376 2091.47,-92.0637"/>
<polygon fill="midnightblue" stroke="midnightblue" points="1973.81,-133.044 1965.71,-139.869 1976.3,-139.587 1973.81,-133.044"/>
</g>
<!-- Node7 -->
<g id="node7" class="node"><title>Node7</title>
<g id="a_node7"><a xlink:href="_pedal_slave_conf_8h.html" target="_top" xlink:title="car/Bonnie2019/PedalSlave\lConf.h">
<polygon fill="white" stroke="black" points="2211.5,-67.5 2211.5,-97.5 2358.5,-97.5 2358.5,-67.5 2211.5,-67.5"/>
<text text-anchor="start" x="2219.5" y="-85.5" font-family="Helvetica,sans-Serif" font-size="10.00">car/Bonnie2019/PedalSlave</text>
<text text-anchor="middle" x="2285" y="-74.5" font-family="Helvetica,sans-Serif" font-size="10.00">Conf.h</text>
</a>
</g>
</g>
<!-- Node2&#45;&gt;Node7 -->
<g id="edge6" class="edge"><title>Node2&#45;&gt;Node7</title>
<path fill="none" stroke="midnightblue" d="M1998.11,-138.025C2055.99,-127.025 2147.32,-109.666 2211.35,-97.4974"/>
<polygon fill="midnightblue" stroke="midnightblue" points="1997.23,-134.63 1988.06,-139.936 1998.54,-141.507 1997.23,-134.63"/>
</g>
<!-- Node8 -->
<g id="node8" class="node"><title>Node8</title>
<g id="a_node8"><a xlink:href="_syntetic_sync_8h.html" target="_top" xlink:title="car/hardwareTest/mbed\l/helper/SynteticSync.h">
<polygon fill="white" stroke="black" points="2561,-67.5 2561,-97.5 2689,-97.5 2689,-67.5 2561,-67.5"/>
<text text-anchor="start" x="2569" y="-85.5" font-family="Helvetica,sans-Serif" font-size="10.00">car/hardwareTest/mbed</text>
<text text-anchor="middle" x="2625" y="-74.5" font-family="Helvetica,sans-Serif" font-size="10.00">/helper/SynteticSync.h</text>
</a>
</g>
</g>
<!-- Node2&#45;&gt;Node8 -->
<g id="edge7" class="edge"><title>Node2&#45;&gt;Node8</title>
<path fill="none" stroke="midnightblue" d="M2006.19,-145.625C2117.1,-140.051 2353.84,-125.805 2552,-98 2554.94,-97.587 2557.95,-97.1312 2560.98,-96.6436"/>
<polygon fill="midnightblue" stroke="midnightblue" points="2005.99,-142.13 1996.17,-146.121 2006.33,-149.121 2005.99,-142.13"/>
</g>
<!-- Node10 -->
<g id="node10" class="node"><title>Node10</title>
<g id="a_node10"><a xlink:href="_hardware_s_d_card_stress_test_8h.html" target="_top" xlink:title="car/hardwareTest/mbed\l/HardwareSDCardStressTest.h">
<polygon fill="white" stroke="black" points="2544.5,-0.5 2544.5,-30.5 2705.5,-30.5 2705.5,-0.5 2544.5,-0.5"/>
<text text-anchor="start" x="2552.5" y="-18.5" font-family="Helvetica,sans-Serif" font-size="10.00">car/hardwareTest/mbed</text>
<text text-anchor="middle" x="2625" y="-7.5" font-family="Helvetica,sans-Serif" font-size="10.00">/HardwareSDCardStressTest.h</text>
</a>
</g>
</g>
<!-- Node2&#45;&gt;Node10 -->
<g id="edge17" class="edge"><title>Node2&#45;&gt;Node10</title>
<path fill="none" stroke="midnightblue" d="M2006.52,-149.095C2179.87,-150.056 2651.23,-148.007 2698,-98 2719.8,-74.6939 2681.55,-46.8779 2652.68,-30.5084"/>
<polygon fill="midnightblue" stroke="midnightblue" points="2006.3,-145.593 1996.28,-149.032 2006.26,-152.593 2006.3,-145.593"/>
</g>
<!-- Node11 -->
<g id="node11" class="node"><title>Node11</title>
<g id="a_node11"><a xlink:href="_hardware_s_d_card_test_8h.html" target="_top" xlink:title="car/hardwareTest/mbed\l/HardwareSDCardTest.h">
<polygon fill="white" stroke="black" points="2396,-0.5 2396,-30.5 2526,-30.5 2526,-0.5 2396,-0.5"/>
<text text-anchor="start" x="2404" y="-18.5" font-family="Helvetica,sans-Serif" font-size="10.00">car/hardwareTest/mbed</text>
<text text-anchor="middle" x="2461" y="-7.5" font-family="Helvetica,sans-Serif" font-size="10.00">/HardwareSDCardTest.h</text>
</a>
</g>
</g>
<!-- Node2&#45;&gt;Node11 -->
<g id="edge21" class="edge"><title>Node2&#45;&gt;Node11</title>
<path fill="none" stroke="midnightblue" d="M2006.45,-145.502C2108.46,-139.925 2303.91,-125.903 2367,-98 2376.19,-93.9375 2421.65,-52.755 2445.82,-30.5371"/>
<polygon fill="midnightblue" stroke="midnightblue" points="2006.07,-142.017 1996.28,-146.047 2006.45,-149.007 2006.07,-142.017"/>
</g>
<!-- Node12 -->
<g id="node12" class="node"><title>Node12</title>
<g id="a_node12"><a xlink:href="_button_unit_test_8h.html" target="_top" xlink:title="car/hardwareTest/mbed\l/ButtonUnitTest.h">
<polygon fill="white" stroke="black" points="2745,-67.5 2745,-97.5 2873,-97.5 2873,-67.5 2745,-67.5"/>
<text text-anchor="start" x="2753" y="-85.5" font-family="Helvetica,sans-Serif" font-size="10.00">car/hardwareTest/mbed</text>
<text text-anchor="middle" x="2809" y="-74.5" font-family="Helvetica,sans-Serif" font-size="10.00">/ButtonUnitTest.h</text>
</a>
</g>
</g>
<!-- Node2&#45;&gt;Node12 -->
<g id="edge11" class="edge"><title>Node2&#45;&gt;Node12</title>
<path fill="none" stroke="midnightblue" d="M2006.34,-147.014C2140.46,-143.302 2462.85,-131.394 2731,-98 2735.51,-97.4383 2740.15,-96.7804 2744.82,-96.0606"/>
<polygon fill="midnightblue" stroke="midnightblue" points="2006.14,-143.518 1996.24,-147.288 2006.33,-150.515 2006.14,-143.518"/>
</g>
<!-- Node13 -->
<g id="node13" class="node"><title>Node13</title>
<g id="a_node13"><a xlink:href="_c_a_n_service_unit_test_8h.html" target="_top" xlink:title="car/hardwareTest/mbed\l/CANServiceUnitTest.h">
<polygon fill="white" stroke="black" points="2891,-67.5 2891,-97.5 3019,-97.5 3019,-67.5 2891,-67.5"/>
<text text-anchor="start" x="2899" y="-85.5" font-family="Helvetica,sans-Serif" font-size="10.00">car/hardwareTest/mbed</text>
<text text-anchor="middle" x="2955" y="-74.5" font-family="Helvetica,sans-Serif" font-size="10.00">/CANServiceUnitTest.h</text>
</a>
</g>
</g>
<!-- Node2&#45;&gt;Node13 -->
<g id="edge12" class="edge"><title>Node2&#45;&gt;Node13</title>
<path fill="none" stroke="midnightblue" d="M2006.25,-148.198C2157.95,-146.801 2554.22,-139.155 2882,-98 2884.95,-97.6298 2887.96,-97.209 2890.99,-96.7498"/>
<polygon fill="midnightblue" stroke="midnightblue" points="2006.15,-144.699 1996.18,-148.285 2006.21,-151.699 2006.15,-144.699"/>
</g>
<!-- Node14 -->
<g id="node14" class="node"><title>Node14</title>
<g id="a_node14"><a xlink:href="_dashboard_demo_8h.html" target="_top" xlink:title="car/hardwareTest/mbed\l/DashboardDemo.h">
<polygon fill="white" stroke="black" points="3037,-67.5 3037,-97.5 3165,-97.5 3165,-67.5 3037,-67.5"/>
<text text-anchor="start" x="3045" y="-85.5" font-family="Helvetica,sans-Serif" font-size="10.00">car/hardwareTest/mbed</text>
<text text-anchor="middle" x="3101" y="-74.5" font-family="Helvetica,sans-Serif" font-size="10.00">/DashboardDemo.h</text>
</a>
</g>
</g>
<!-- Node2&#45;&gt;Node14 -->
<g id="edge13" class="edge"><title>Node2&#45;&gt;Node14</title>
<path fill="none" stroke="midnightblue" d="M2006.13,-148.851C2173.42,-149.072 2641.82,-145.072 3028,-98 3030.95,-97.6404 3033.96,-97.2284 3036.99,-96.7763"/>
<polygon fill="midnightblue" stroke="midnightblue" points="2006.02,-145.351 1996.02,-148.832 2006.01,-152.351 2006.02,-145.351"/>
</g>
<!-- Node15 -->
<g id="node15" class="node"><title>Node15</title>
<g id="a_node15"><a xlink:href="_hardware_buzzer_unit_test_8h.html" target="_top" xlink:title="car/hardwareTest/mbed\l/HardwareBuzzerUnitTest.h">
<polygon fill="white" stroke="black" points="0,-67.5 0,-97.5 146,-97.5 146,-67.5 0,-67.5"/>
<text text-anchor="start" x="8" y="-85.5" font-family="Helvetica,sans-Serif" font-size="10.00">car/hardwareTest/mbed</text>
<text text-anchor="middle" x="73" y="-74.5" font-family="Helvetica,sans-Serif" font-size="10.00">/HardwareBuzzerUnitTest.h</text>
</a>
</g>
</g>
<!-- Node2&#45;&gt;Node15 -->
<g id="edge14" class="edge"><title>Node2&#45;&gt;Node15</title>
<path fill="none" stroke="midnightblue" d="M1879.65,-147.959C1603.06,-145.404 499.859,-133.169 155,-98 152.124,-97.7067 149.196,-97.3707 146.243,-97.0004"/>
<polygon fill="midnightblue" stroke="midnightblue" points="1879.87,-151.461 1889.9,-148.053 1879.94,-144.461 1879.87,-151.461"/>
</g>
<!-- Node16 -->
<g id="node16" class="node"><title>Node16</title>
<g id="a_node16"><a xlink:href="_hardware_pedal_unit_test_8h.html" target="_top" xlink:title="car/hardwareTest/mbed\l/HardwarePedalUnitTest.h">
<polygon fill="white" stroke="black" points="164.5,-67.5 164.5,-97.5 303.5,-97.5 303.5,-67.5 164.5,-67.5"/>
<text text-anchor="start" x="172.5" y="-85.5" font-family="Helvetica,sans-Serif" font-size="10.00">car/hardwareTest/mbed</text>
<text text-anchor="middle" x="234" y="-74.5" font-family="Helvetica,sans-Serif" font-size="10.00">/HardwarePedalUnitTest.h</text>
</a>
</g>
</g>
<!-- Node2&#45;&gt;Node16 -->
<g id="edge15" class="edge"><title>Node2&#45;&gt;Node16</title>
<path fill="none" stroke="midnightblue" d="M1879.74,-147.814C1618.77,-144.788 625.02,-131.277 313,-98 309.95,-97.6747 306.84,-97.2982 303.704,-96.8817"/>
<polygon fill="midnightblue" stroke="midnightblue" points="1879.76,-151.315 1889.8,-147.93 1879.84,-144.315 1879.76,-151.315"/>
</g>
<!-- Node17 -->
<g id="node17" class="node"><title>Node17</title>
<g id="a_node17"><a xlink:href="_hardware_pwm_buzzer_unit_test_8h.html" target="_top" xlink:title="car/hardwareTest/mbed\l/HardwarePwmBuzzerUnitTest.h">
<polygon fill="white" stroke="black" points="322,-67.5 322,-97.5 490,-97.5 490,-67.5 322,-67.5"/>
<text text-anchor="start" x="330" y="-85.5" font-family="Helvetica,sans-Serif" font-size="10.00">car/hardwareTest/mbed</text>
<text text-anchor="middle" x="406" y="-74.5" font-family="Helvetica,sans-Serif" font-size="10.00">/HardwarePwmBuzzerUnitTest.h</text>
</a>
</g>
</g>
<!-- Node2&#45;&gt;Node17 -->
<g id="edge16" class="edge"><title>Node2&#45;&gt;Node17</title>
<path fill="none" stroke="midnightblue" d="M1879.62,-148.985C1677.61,-149.953 1031.02,-148.594 499,-98 496.072,-97.7215 493.096,-97.4105 490.093,-97.073"/>
<polygon fill="midnightblue" stroke="midnightblue" points="1879.77,-152.484 1889.75,-148.933 1879.73,-145.485 1879.77,-152.484"/>
</g>
<!-- Node18 -->
<g id="node18" class="node"><title>Node18</title>
<g id="a_node18"><a xlink:href="_dummy_s_car_8h.html" target="_top" xlink:title="car/hardwareTest/mbed\l/helper/DummySCar.h">
<polygon fill="white" stroke="black" points="2415,-67.5 2415,-97.5 2543,-97.5 2543,-67.5 2415,-67.5"/>
<text text-anchor="start" x="2423" y="-85.5" font-family="Helvetica,sans-Serif" font-size="10.00">car/hardwareTest/mbed</text>
<text text-anchor="middle" x="2479" y="-74.5" font-family="Helvetica,sans-Serif" font-size="10.00">/helper/DummySCar.h</text>
</a>
</g>
</g>
<!-- Node2&#45;&gt;Node18 -->
<g id="edge18" class="edge"><title>Node2&#45;&gt;Node18</title>
<path fill="none" stroke="midnightblue" d="M2006.2,-143.022C2094.72,-135.011 2260.56,-118.768 2401,-98 2405.5,-97.3351 2410.13,-96.6007 2414.79,-95.8257"/>
<polygon fill="midnightblue" stroke="midnightblue" points="2005.7,-139.553 1996.06,-143.935 2006.33,-146.525 2005.7,-139.553"/>
</g>
<!-- Node19 -->
<g id="node19" class="node"><title>Node19</title>
<g id="a_node19"><a xlink:href="_l_e_d_p_w_m_unit_test_8h.html" target="_top" xlink:title="car/hardwareTest/mbed\l/LEDPWMUnitTest.h">
<polygon fill="white" stroke="black" points="508,-67.5 508,-97.5 636,-97.5 636,-67.5 508,-67.5"/>
<text text-anchor="start" x="516" y="-85.5" font-family="Helvetica,sans-Serif" font-size="10.00">car/hardwareTest/mbed</text>
<text text-anchor="middle" x="572" y="-74.5" font-family="Helvetica,sans-Serif" font-size="10.00">/LEDPWMUnitTest.h</text>
</a>
</g>
</g>
<!-- Node2&#45;&gt;Node19 -->
<g id="edge22" class="edge"><title>Node2&#45;&gt;Node19</title>
<path fill="none" stroke="midnightblue" d="M1879.62,-147.355C1653.69,-143.067 888.32,-126.718 645,-98 642.049,-97.6517 639.038,-97.2489 636.003,-96.8042"/>
<polygon fill="midnightblue" stroke="midnightblue" points="1879.58,-150.855 1889.65,-147.544 1879.72,-143.856 1879.58,-150.855"/>
</g>
<!-- Node20 -->
<g id="node20" class="node"><title>Node20</title>
<g id="a_node20"><a xlink:href="_l_e_d_unit_test_8h.html" target="_top" xlink:title="car/hardwareTest/mbed\l/LEDUnitTest.h">
<polygon fill="white" stroke="black" points="654,-67.5 654,-97.5 782,-97.5 782,-67.5 654,-67.5"/>
<text text-anchor="start" x="662" y="-85.5" font-family="Helvetica,sans-Serif" font-size="10.00">car/hardwareTest/mbed</text>
<text text-anchor="middle" x="718" y="-74.5" font-family="Helvetica,sans-Serif" font-size="10.00">/LEDUnitTest.h</text>
</a>
</g>
</g>
<!-- Node2&#45;&gt;Node20 -->
<g id="edge23" class="edge"><title>Node2&#45;&gt;Node20</title>
<path fill="none" stroke="midnightblue" d="M1879.94,-149.096C1705.85,-150.019 1204.13,-147.791 791,-98 788.049,-97.6444 785.04,-97.2356 782.006,-96.7862"/>
<polygon fill="midnightblue" stroke="midnightblue" points="1879.97,-152.596 1889.95,-149.038 1879.93,-145.597 1879.97,-152.596"/>
</g>
<!-- Node21 -->
<g id="node21" class="node"><title>Node21</title>
<g id="a_node21"><a xlink:href="_master_output_test_8h.html" target="_top" xlink:title="car/hardwareTest/mbed\l/MasterOutputTest.h">
<polygon fill="white" stroke="black" points="800,-67.5 800,-97.5 928,-97.5 928,-67.5 800,-67.5"/>
<text text-anchor="start" x="808" y="-85.5" font-family="Helvetica,sans-Serif" font-size="10.00">car/hardwareTest/mbed</text>
<text text-anchor="middle" x="864" y="-74.5" font-family="Helvetica,sans-Serif" font-size="10.00">/MasterOutputTest.h</text>
</a>
</g>
</g>
<!-- Node2&#45;&gt;Node21 -->
<g id="edge24" class="edge"><title>Node2&#45;&gt;Node21</title>
<path fill="none" stroke="midnightblue" d="M1879.78,-148.521C1720.76,-147.882 1291.5,-141.867 937,-98 934.051,-97.635 931.042,-97.2186 928.008,-96.7629"/>
<polygon fill="midnightblue" stroke="midnightblue" points="1879.85,-152.021 1889.86,-148.556 1879.88,-145.021 1879.85,-152.021"/>
</g>
<!-- Node22 -->
<g id="node22" class="node"><title>Node22</title>
<g id="a_node22"><a xlink:href="_pedal_unit_test_8h.html" target="_top" xlink:title="car/hardwareTest/mbed\l/PedalUnitTest.h">
<polygon fill="white" stroke="black" points="946,-67.5 946,-97.5 1074,-97.5 1074,-67.5 946,-67.5"/>
<text text-anchor="start" x="954" y="-85.5" font-family="Helvetica,sans-Serif" font-size="10.00">car/hardwareTest/mbed</text>
<text text-anchor="middle" x="1010" y="-74.5" font-family="Helvetica,sans-Serif" font-size="10.00">/PedalUnitTest.h</text>
</a>
</g>
</g>
<!-- Node2&#45;&gt;Node22 -->
<g id="edge25" class="edge"><title>Node2&#45;&gt;Node22</title>
<path fill="none" stroke="midnightblue" d="M1879.61,-147.753C1736.82,-145.422 1379.33,-135.948 1083,-98 1080.05,-97.6225 1077.04,-97.1958 1074.01,-96.7318"/>
<polygon fill="midnightblue" stroke="midnightblue" points="1879.87,-151.258 1889.92,-147.915 1879.98,-144.259 1879.87,-151.258"/>
</g>
<!-- Node23 -->
<g id="node23" class="node"><title>Node23</title>
<g id="a_node23"><a xlink:href="_pump_refill_8h.html" target="_top" xlink:title="car/hardwareTest/mbed\l/PumpRefill.h">
<polygon fill="white" stroke="black" points="1092,-67.5 1092,-97.5 1220,-97.5 1220,-67.5 1092,-67.5"/>
<text text-anchor="start" x="1100" y="-85.5" font-family="Helvetica,sans-Serif" font-size="10.00">car/hardwareTest/mbed</text>
<text text-anchor="middle" x="1156" y="-74.5" font-family="Helvetica,sans-Serif" font-size="10.00">/PumpRefill.h</text>
</a>
</g>
</g>
<!-- Node2&#45;&gt;Node23 -->
<g id="edge26" class="edge"><title>Node2&#45;&gt;Node23</title>
<path fill="none" stroke="midnightblue" d="M1879.78,-146.691C1754.91,-142.532 1468,-130.059 1229,-98 1226.05,-97.6049 1223.05,-97.1637 1220.02,-96.688"/>
<polygon fill="midnightblue" stroke="midnightblue" points="1879.81,-150.194 1889.92,-147.023 1880.04,-143.198 1879.81,-150.194"/>
</g>
<!-- Node24 -->
<g id="node24" class="node"><title>Node24</title>
<g id="a_node24"><a xlink:href="_r_f_eand_r_u_ntest_8h.html" target="_top" xlink:title="car/hardwareTest/mbed\l/RFEandRUNtest.h">
<polygon fill="white" stroke="black" points="1238,-67.5 1238,-97.5 1366,-97.5 1366,-67.5 1238,-67.5"/>
<text text-anchor="start" x="1246" y="-85.5" font-family="Helvetica,sans-Serif" font-size="10.00">car/hardwareTest/mbed</text>
<text text-anchor="middle" x="1302" y="-74.5" font-family="Helvetica,sans-Serif" font-size="10.00">/RFEandRUNtest.h</text>
</a>
</g>
</g>
<!-- Node2&#45;&gt;Node24 -->
<g id="edge27" class="edge"><title>Node2&#45;&gt;Node24</title>
<path fill="none" stroke="midnightblue" d="M1879.8,-145.104C1774.65,-138.956 1557.33,-124.136 1375,-98 1372.06,-97.5783 1369.06,-97.1153 1366.03,-96.6219"/>
<polygon fill="midnightblue" stroke="midnightblue" points="1879.74,-148.606 1889.92,-145.689 1880.14,-141.618 1879.74,-148.606"/>
</g>
<!-- Node25 -->
<g id="node25" class="node"><title>Node25</title>
<g id="a_node25"><a xlink:href="_r_p_m_sensor_unit_test_8h.html" target="_top" xlink:title="car/hardwareTest/mbed\l/RPMSensorUnitTest.h">
<polygon fill="white" stroke="black" points="1384,-67.5 1384,-97.5 1512,-97.5 1512,-67.5 1384,-67.5"/>
<text text-anchor="start" x="1392" y="-85.5" font-family="Helvetica,sans-Serif" font-size="10.00">car/hardwareTest/mbed</text>
<text text-anchor="middle" x="1448" y="-74.5" font-family="Helvetica,sans-Serif" font-size="10.00">/RPMSensorUnitTest.h</text>
</a>
</g>
</g>
<!-- Node2&#45;&gt;Node25 -->
<g id="edge28" class="edge"><title>Node2&#45;&gt;Node25</title>
<path fill="none" stroke="midnightblue" d="M1879.86,-142.476C1797.17,-134.236 1647.79,-118.148 1521,-98 1518.06,-97.5336 1515.07,-97.034 1512.04,-96.5108"/>
<polygon fill="midnightblue" stroke="midnightblue" points="1879.56,-145.963 1889.86,-143.466 1880.25,-138.997 1879.56,-145.963"/>
</g>
<!-- Node9 -->
<g id="node9" class="node"><title>Node9</title>
<g id="a_node9"><a xlink:href="_alive_component_test_8h.html" target="_top" xlink:title="car/hardwareTest/mbed\l/AliveComponentTest.h">
<polygon fill="white" stroke="black" points="2724,-0.5 2724,-30.5 2852,-30.5 2852,-0.5 2724,-0.5"/>
<text text-anchor="start" x="2732" y="-18.5" font-family="Helvetica,sans-Serif" font-size="10.00">car/hardwareTest/mbed</text>
<text text-anchor="middle" x="2788" y="-7.5" font-family="Helvetica,sans-Serif" font-size="10.00">/AliveComponentTest.h</text>
</a>
</g>
</g>
<!-- Node8&#45;&gt;Node9 -->
<g id="edge8" class="edge"><title>Node8&#45;&gt;Node9</title>
<path fill="none" stroke="midnightblue" d="M2669.68,-63.6815C2695.83,-53.2568 2728.37,-40.2805 2752.7,-30.5765"/>
<polygon fill="midnightblue" stroke="midnightblue" points="2668.36,-60.4408 2660.37,-67.396 2670.95,-66.9429 2668.36,-60.4408"/>
</g>
<!-- Node8&#45;&gt;Node10 -->
<g id="edge9" class="edge"><title>Node8&#45;&gt;Node10</title>
<path fill="none" stroke="midnightblue" d="M2625,-57.1081C2625,-48.1539 2625,-38.3227 2625,-30.5765"/>
<polygon fill="midnightblue" stroke="midnightblue" points="2621.5,-57.3959 2625,-67.396 2628.5,-57.396 2621.5,-57.3959"/>
</g>
<!-- Node8&#45;&gt;Node11 -->
<g id="edge10" class="edge"><title>Node8&#45;&gt;Node11</title>
<path fill="none" stroke="midnightblue" d="M2580.04,-63.6815C2553.74,-53.2568 2521,-40.2805 2496.52,-30.5765"/>
<polygon fill="midnightblue" stroke="midnightblue" points="2578.83,-66.9651 2589.41,-67.396 2581.41,-60.4576 2578.83,-66.9651"/>
</g>
<!-- Node18&#45;&gt;Node10 -->
<g id="edge19" class="edge"><title>Node18&#45;&gt;Node10</title>
<path fill="none" stroke="midnightblue" d="M2519.95,-63.2687C2543.2,-52.9159 2571.87,-40.1528 2593.38,-30.5765"/>
<polygon fill="midnightblue" stroke="midnightblue" points="2518.39,-60.1313 2510.68,-67.396 2521.24,-66.5262 2518.39,-60.1313"/>
</g>
<!-- Node18&#45;&gt;Node11 -->
<g id="edge20" class="edge"><title>Node18&#45;&gt;Node11</title>
<path fill="none" stroke="midnightblue" d="M2472.41,-57.6971C2469.89,-48.5871 2467.09,-38.4929 2464.9,-30.5765"/>
<polygon fill="midnightblue" stroke="midnightblue" points="2469.05,-58.6928 2475.09,-67.396 2475.8,-56.8246 2469.05,-58.6928"/>
</g>
<!-- Node26&#45;&gt;Node2 -->
<g id="edge30" class="edge"><title>Node26&#45;&gt;Node2</title>
<path fill="none" stroke="midnightblue" d="M1943,-191.25C1943,-180.017 1943,-167.377 1943,-159.195"/>
<polygon fill="midnightblue" stroke="midnightblue" points="1939.5,-191.396 1943,-201.396 1946.5,-191.396 1939.5,-191.396"/>
</g>
<!-- Node27&#45;&gt;Node2 -->
<g id="edge32" class="edge"><title>Node27&#45;&gt;Node2</title>
<path fill="none" stroke="midnightblue" d="M2065.21,-197.784C2032.64,-185.181 1990.32,-168.808 1964.99,-159.007"/>
<polygon fill="midnightblue" stroke="midnightblue" points="2063.96,-201.052 2074.55,-201.396 2066.48,-194.523 2063.96,-201.052"/>
</g>
<!-- Node28&#45;&gt;Node2 -->
<g id="edge34" class="edge"><title>Node28&#45;&gt;Node2</title>
<path fill="none" stroke="midnightblue" d="M2199.84,-200.485C2133.68,-187.609 2040.74,-169.521 1986.69,-159.003"/>
<polygon fill="midnightblue" stroke="midnightblue" points="2199.33,-203.95 2209.81,-202.424 2200.66,-197.079 2199.33,-203.95"/>
</g>
<!-- Node29&#45;&gt;Node30 -->
<g id="edge36" class="edge"><title>Node29&#45;&gt;Node30</title>
<path fill="none" stroke="midnightblue" d="M3008.72,-199.362C3063.7,-187.795 3136.47,-172.488 3185.8,-162.111"/>
<polygon fill="midnightblue" stroke="midnightblue" points="3007.73,-195.992 2998.67,-201.476 3009.17,-202.842 3007.73,-195.992"/>
</g>
<!-- Node31 -->
<g id="node31" class="node"><title>Node31</title>
<g id="a_node31"><a xlink:href="_p_cooling_8h.html" target="_top" xlink:title="lib/carpi/src/runable\l/programs/PCooling.h">
<polygon fill="white" stroke="black" points="3484.5,-0.5 3484.5,-30.5 3603.5,-30.5 3603.5,-0.5 3484.5,-0.5"/>
<text text-anchor="start" x="3492.5" y="-18.5" font-family="Helvetica,sans-Serif" font-size="10.00">lib/carpi/src/runable</text>
<text text-anchor="middle" x="3544" y="-7.5" font-family="Helvetica,sans-Serif" font-size="10.00">/programs/PCooling.h</text>
</a>
</g>
</g>
<!-- Node30&#45;&gt;Node31 -->
<g id="edge37" class="edge"><title>Node30&#45;&gt;Node31</title>
<path fill="none" stroke="midnightblue" d="M3306.46,-147.45C3358.3,-143.812 3430.62,-132.253 3484,-98 3510.03,-81.2985 3528.63,-49.0401 3537.71,-30.5096"/>
<polygon fill="midnightblue" stroke="midnightblue" points="3306.14,-143.963 3296.37,-148.077 3306.57,-150.95 3306.14,-143.963"/>
</g>
<!-- Node32 -->
<g id="node32" class="node"><title>Node32</title>
<g id="a_node32"><a xlink:href="_p_logger_8h.html" target="_top" xlink:title="lib/carpi/src/runable\l/programs/PLogger.h">
<polygon fill="white" stroke="black" points="3183,-67.5 3183,-97.5 3299,-97.5 3299,-67.5 3183,-67.5"/>
<text text-anchor="start" x="3191" y="-85.5" font-family="Helvetica,sans-Serif" font-size="10.00">lib/carpi/src/runable</text>
<text text-anchor="middle" x="3241" y="-74.5" font-family="Helvetica,sans-Serif" font-size="10.00">/programs/PLogger.h</text>
</a>
</g>
</g>
<!-- Node30&#45;&gt;Node32 -->
<g id="edge38" class="edge"><title>Node30&#45;&gt;Node32</title>
<path fill="none" stroke="midnightblue" d="M3241,-124.108C3241,-115.154 3241,-105.323 3241,-97.5765"/>
<polygon fill="midnightblue" stroke="midnightblue" points="3237.5,-124.396 3241,-134.396 3244.5,-124.396 3237.5,-124.396"/>
</g>
<!-- Node33 -->
<g id="node33" class="node"><title>Node33</title>
<g id="a_node33"><a xlink:href="_p_motor_controller_8h.html" target="_top" xlink:title="lib/carpi/src/runable\l/programs/PMotorController.h">
<polygon fill="white" stroke="black" points="3317,-67.5 3317,-97.5 3475,-97.5 3475,-67.5 3317,-67.5"/>
<text text-anchor="start" x="3325" y="-85.5" font-family="Helvetica,sans-Serif" font-size="10.00">lib/carpi/src/runable</text>
<text text-anchor="middle" x="3396" y="-74.5" font-family="Helvetica,sans-Serif" font-size="10.00">/programs/PMotorController.h</text>
</a>
</g>
</g>
<!-- Node30&#45;&gt;Node33 -->
<g id="edge39" class="edge"><title>Node30&#45;&gt;Node33</title>
<path fill="none" stroke="midnightblue" d="M3284.15,-130.407C3308.89,-120.029 3339.5,-107.195 3362.43,-97.5765"/>
<polygon fill="midnightblue" stroke="midnightblue" points="3282.5,-127.301 3274.63,-134.396 3285.21,-133.756 3282.5,-127.301"/>
</g>
<!-- Node34 -->
<g id="node34" class="node"><title>Node34</title>
<g id="a_node34"><a xlink:href="_s_speed_8h.html" target="_top" xlink:title="lib/carpi/src/runable\l/services/SSpeed.h">
<polygon fill="white" stroke="black" points="3531,-67.5 3531,-97.5 3641,-97.5 3641,-67.5 3531,-67.5"/>
<text text-anchor="start" x="3539" y="-85.5" font-family="Helvetica,sans-Serif" font-size="10.00">lib/carpi/src/runable</text>
<text text-anchor="middle" x="3586" y="-74.5" font-family="Helvetica,sans-Serif" font-size="10.00">/services/SSpeed.h</text>
</a>
</g>
</g>
<!-- Node30&#45;&gt;Node34 -->
<g id="edge40" class="edge"><title>Node30&#45;&gt;Node34</title>
<path fill="none" stroke="midnightblue" d="M3306.2,-137.067C3362.18,-127.13 3445,-112.149 3517,-98 3521.44,-97.1266 3526.04,-96.2028 3530.66,-95.2614"/>
<polygon fill="midnightblue" stroke="midnightblue" points="3305.3,-133.671 3296.06,-138.862 3306.52,-140.564 3305.3,-133.671"/>
</g>
<!-- Node34&#45;&gt;Node31 -->
<g id="edge41" class="edge"><title>Node34&#45;&gt;Node31</title>
<path fill="none" stroke="midnightblue" d="M3571.38,-58.8669C3565.3,-49.4594 3558.43,-38.8334 3553.1,-30.5765"/>
<polygon fill="midnightblue" stroke="midnightblue" points="3568.52,-60.8963 3576.89,-67.396 3574.4,-57.0973 3568.52,-60.8963"/>
</g>
<!-- Node35&#45;&gt;Node30 -->
<g id="edge43" class="edge"><title>Node35&#45;&gt;Node30</title>
<path fill="none" stroke="midnightblue" d="M3192.15,-194.598C3203.02,-184.783 3215.7,-173.344 3225.41,-164.577"/>
<polygon fill="midnightblue" stroke="midnightblue" points="3189.7,-192.097 3184.62,-201.396 3194.39,-197.293 3189.7,-192.097"/>
</g>
</g>
</svg>
        <g id="navigator" transform="translate(0 0)" fill="#404254">
                <rect fill="#f2f5e9" fill-opacity="0.5" stroke="#606060" stroke-width=".5" x="0" y="0" width="60" height="60"/>
                <use id="zoomplus" xlink:href="#zoomPlus" x="17" y="9" onmousedown="handleZoom(evt,'in')"/>
                <use id="zoomminus" xlink:href="#zoomMin" x="42" y="9" onmousedown="handleZoom(evt,'out')"/>
                <use id="reset" xlink:href="#resetDef" x="30" y="36" onmousedown="handleReset()"/>
                <g id="arrowUp" xlink:href="#dirArrow" transform="translate(30 24)" onmousedown="handlePan(0,-1)">
                  <use xlink:href="#rim" fill="#404040">
                        <set attributeName="fill" to="#808080" begin="arrowUp.mouseover" end="arrowUp.mouseout"/>
                  </use>
                  <path fill="none" stroke="white" stroke-width="1.5" d="M0,-3.0v7 M-2.5,-0.5L0,-3.0L2.5,-0.5"/>
                </g>
                <g id="arrowRight" xlink:href="#dirArrow" transform="rotate(90) translate(36 -43)" onmousedown="handlePan(1,0)">
                  <use xlink:href="#rim" fill="#404040">
                        <set attributeName="fill" to="#808080" begin="arrowRight.mouseover" end="arrowRight.mouseout"/>
                  </use>
                  <path fill="none" stroke="white" stroke-width="1.5" d="M0,-3.0v7 M-2.5,-0.5L0,-3.0L2.5,-0.5"/>
                </g>
                <g id="arrowDown" xlink:href="#dirArrow" transform="rotate(180) translate(-30 -48)" onmousedown="handlePan(0,1)">
                  <use xlink:href="#rim" fill="#404040">
                        <set attributeName="fill" to="#808080" begin="arrowDown.mouseover" end="arrowDown.mouseout"/>
                  </use>
                  <path fill="none" stroke="white" stroke-width="1.5" d="M0,-3.0v7 M-2.5,-0.5L0,-3.0L2.5,-0.5"/>
                </g>
                <g id="arrowLeft" xlink:href="#dirArrow" transform="rotate(270) translate(-36 17)" onmousedown="handlePan(-1,0)">
                  <use xlink:href="#rim" fill="#404040">
                        <set attributeName="fill" to="#808080" begin="arrowLeft.mouseover" end="arrowLeft.mouseout"/>
                  </use>
                  <path fill="none" stroke="white" stroke-width="1.5" d="M0,-3.0v7 M-2.5,-0.5L0,-3.0L2.5,-0.5"/>
                </g>
        </g>
        <svg viewBox="0 0 15 15" width="100%" height="30px" preserveAspectRatio="xMaxYMin meet">
         <g id="arrow_out" transform="scale(0.3 0.3)">
          <a xlink:href="_i_led_8h__dep__incl_org.svg" target="_base">
           <rect id="button" ry="5" rx="5" y="6" x="6" height="38" width="38"
                fill="#f2f5e9" fill-opacity="0.5" stroke="#606060" stroke-width="1.0"/>
           <path id="arrow"
             d="M 11.500037,31.436501 C 11.940474,20.09759 22.043105,11.32322 32.158766,21.979434 L 37.068811,17.246167 C 37.068811,17.246167 37.088388,32 37.088388,32 L 22.160133,31.978069 C 22.160133,31.978069 26.997745,27.140456 26.997745,27.140456 C 18.528582,18.264221 13.291696,25.230495 11.500037,31.436501 z"
             style="fill:#404040;"/>
          </a>
         </g>
        </svg>
</svg>
