<?xml version="1.0" encoding="UTF-8" standalone="no"?>
<!DOCTYPE svg PUBLIC "-//W3C//DTD SVG 1.1//EN"
 "http://www.w3.org/Graphics/SVG/1.1/DTD/svg11.dtd">
<!-- Generated by graphviz version 2.38.0 (20140413.2041)
 -->
<!-- Title: lib/carpi/src/components/interface/IMotorController.h Pages: 1 -->
<svg width="269pt" height="207pt"
 viewBox="0.00 0.00 269.00 207.00" xmlns="http://www.w3.org/2000/svg" xmlns:xlink="http://www.w3.org/1999/xlink">
<g id="graph0" class="graph" transform="scale(1 1) rotate(0) translate(4 203)">
<title>lib/carpi/src/components/interface/IMotorController.h</title>
<polygon fill="white" stroke="none" points="-4,4 -4,-203 265,-203 265,4 -4,4"/>
<!-- Node1 -->
<g id="node1" class="node"><title>Node1</title>
<polygon fill="#bfbfbf" stroke="black" points="112,-168.5 112,-198.5 261,-198.5 261,-168.5 112,-168.5"/>
<text text-anchor="start" x="120" y="-186.5" font-family="Helvetica,sans-Serif" font-size="10.00">lib/carpi/src/components</text>
<text text-anchor="middle" x="186.5" y="-175.5" font-family="Helvetica,sans-Serif" font-size="10.00">/interface/IMotorController.h</text>
</g>
<!-- Node2 -->
<g id="node2" class="node"><title>Node2</title>
<g id="a_node2"><a xlink:href="_i_component_8h.html" target="_top" xlink:title="IComponent.h">
<polygon fill="white" stroke="black" points="109.5,-112.5 109.5,-131.5 193.5,-131.5 193.5,-112.5 109.5,-112.5"/>
<text text-anchor="middle" x="151.5" y="-119.5" font-family="Helvetica,sans-Serif" font-size="10.00">IComponent.h</text>
</a>
</g>
</g>
<!-- Node1&#45;&gt;Node2 -->
<g id="edge1" class="edge"><title>Node1&#45;&gt;Node2</title>
<path fill="none" stroke="midnightblue" d="M178.205,-168.399C173.277,-160.021 166.986,-149.327 161.749,-140.423"/>
<polygon fill="midnightblue" stroke="midnightblue" points="164.68,-138.503 156.593,-131.658 158.646,-142.052 164.68,-138.503"/>
</g>
<!-- Node5 -->
<g id="node5" class="node"><title>Node5</title>
<g id="a_node5"><a xlink:href="_i_logable_8h.html" target="_top" xlink:title="ILogable.h">
<polygon fill="white" stroke="black" points="189,-56.5 189,-75.5 254,-75.5 254,-56.5 189,-56.5"/>
<text text-anchor="middle" x="221.5" y="-63.5" font-family="Helvetica,sans-Serif" font-size="10.00">ILogable.h</text>
</a>
</g>
</g>
<!-- Node1&#45;&gt;Node5 -->
<g id="edge6" class="edge"><title>Node1&#45;&gt;Node5</title>
<path fill="none" stroke="midnightblue" d="M191.068,-168.377C194.316,-158.266 198.749,-144.317 202.5,-132 207.263,-116.36 212.458,-98.5312 216.21,-85.5069"/>
<polygon fill="midnightblue" stroke="midnightblue" points="219.587,-86.4276 218.981,-75.8501 212.859,-84.4966 219.587,-86.4276"/>
</g>
<!-- Node3 -->
<g id="node3" class="node"><title>Node3</title>
<g id="a_node3"><a xlink:href="component_ids_8h.html" target="_top" xlink:title="communication/componentIds.h">
<polygon fill="white" stroke="black" points="0,-56.5 0,-75.5 171,-75.5 171,-56.5 0,-56.5"/>
<text text-anchor="middle" x="85.5" y="-63.5" font-family="Helvetica,sans-Serif" font-size="10.00">communication/componentIds.h</text>
</a>
</g>
</g>
<!-- Node2&#45;&gt;Node3 -->
<g id="edge2" class="edge"><title>Node2&#45;&gt;Node3</title>
<path fill="none" stroke="midnightblue" d="M140.896,-112.324C131.044,-104.263 116.149,-92.0765 104.285,-82.3695"/>
<polygon fill="midnightblue" stroke="midnightblue" points="106.253,-79.4575 96.297,-75.8339 101.82,-84.8752 106.253,-79.4575"/>
</g>
<!-- Node2&#45;&gt;Node5 -->
<g id="edge4" class="edge"><title>Node2&#45;&gt;Node5</title>
<path fill="none" stroke="midnightblue" d="M162.747,-112.324C173.297,-104.185 189.301,-91.8395 201.942,-82.0874"/>
<polygon fill="midnightblue" stroke="midnightblue" points="204.269,-84.7132 210.049,-75.8339 199.993,-79.1707 204.269,-84.7132"/>
</g>
<!-- Node4 -->
<g id="node4" class="node"><title>Node4</title>
<polygon fill="white" stroke="#bfbfbf" points="59,-0.5 59,-19.5 112,-19.5 112,-0.5 59,-0.5"/>
<text text-anchor="middle" x="85.5" y="-7.5" font-family="Helvetica,sans-Serif" font-size="10.00">stdint.h</text>
</g>
<!-- Node3&#45;&gt;Node4 -->
<g id="edge3" class="edge"><title>Node3&#45;&gt;Node4</title>
<path fill="none" stroke="midnightblue" d="M85.5,-56.083C85.5,-49.0059 85.5,-38.8611 85.5,-29.9865"/>
<polygon fill="midnightblue" stroke="midnightblue" points="89.0001,-29.751 85.5,-19.7511 82.0001,-29.7511 89.0001,-29.751"/>
</g>
<!-- Node6 -->
<g id="node6" class="node"><title>Node6</title>
<polygon fill="white" stroke="#bfbfbf" points="199.5,-0.5 199.5,-19.5 243.5,-19.5 243.5,-0.5 199.5,-0.5"/>
<text text-anchor="middle" x="221.5" y="-7.5" font-family="Helvetica,sans-Serif" font-size="10.00">string</text>
</g>
<!-- Node5&#45;&gt;Node6 -->
<g id="edge5" class="edge"><title>Node5&#45;&gt;Node6</title>
<path fill="none" stroke="midnightblue" d="M221.5,-56.083C221.5,-49.0059 221.5,-38.8611 221.5,-29.9865"/>
<polygon fill="midnightblue" stroke="midnightblue" points="225,-29.751 221.5,-19.7511 218,-29.7511 225,-29.751"/>
</g>
</g>
</svg>
