<?xml version="1.0" encoding="UTF-8" standalone="no"?>
<!DOCTYPE svg PUBLIC "-//W3C//DTD SVG 1.1//EN"
 "http://www.w3.org/Graphics/SVG/1.1/DTD/svg11.dtd">
<!-- Generated by graphviz version 2.38.0 (20140413.2041)
 -->
<!-- Title: lib/carpi/src/components/interface/IMotorController.h Pages: 1 -->
<!--zoomable 240 -->
<svg id="main" version="1.1" xmlns="http://www.w3.org/2000/svg" xmlns:xlink="http://www.w3.org/1999/xlink" xml:space="preserve" onload="init(evt)">
<style type="text/css"><![CDATA[
.edge:hover path { stroke: red; }
.edge:hover polygon { stroke: red; fill: red; }
]]></style>
<script type="text/javascript"><![CDATA[
var edges = document.getElementsByTagName('g');
if (edges && edges.length) {
  for (var i=0;i<edges.length;i++) {
    if (edges[i].id.substr(0,4)=='edge') {
      edges[i].setAttribute('class','edge');
    }
  }
}
]]></script>
        <defs>
                <circle id="rim" cx="0" cy="0" r="7"/>
                <circle id="rim2" cx="0" cy="0" r="3.5"/>
                <g id="zoomPlus">
                        <use xlink:href="#rim" fill="#404040">
                                <set attributeName="fill" to="#808080" begin="zoomplus.mouseover" end="zoomplus.mouseout"/>
                        </use>
                        <path d="M-4,0h8M0,-4v8" fill="none" stroke="white" stroke-width="1.5" pointer-events="none"/>
                </g>
                <g id="zoomMin">
                        <use xlink:href="#rim" fill="#404040">
                                <set attributeName="fill" to="#808080" begin="zoomminus.mouseover" end="zoomminus.mouseout"/>
                        </use>
                        <path d="M-4,0h8" fill="none" stroke="white" stroke-width="1.5" pointer-events="none"/>
                </g>
                <g id="dirArrow">
                        <path fill="none" stroke="white" stroke-width="1.5" d="M0,-3.0v7 M-2.5,-0.5L0,-3.0L2.5,-0.5"/>
                </g>
               <g id="resetDef">
                       <use xlink:href="#rim2" fill="#404040">
                               <set attributeName="fill" to="#808080" begin="reset.mouseover" end="reset.mouseout"/>
                       </use>
               </g>
        </defs>

<script type="text/javascript">
var viewWidth = 3687;
var viewHeight = 240;
var sectionId = 'dynsection-1';
</script>
<script xlink:href="svgpan.js"/>
<svg id="graph" class="graph">
<g id="viewport">
<title>lib/carpi/src/components/interface/IMotorController.h</title>
<polygon fill="white" stroke="none" points="-4,4 -4,-236 3683,-236 3683,4 -4,4"/>
<!-- Node1 -->
<g id="node1" class="node"><title>Node1</title>
<polygon fill="#bfbfbf" stroke="black" points="3118.5,-201.5 3118.5,-231.5 3267.5,-231.5 3267.5,-201.5 3118.5,-201.5"/>
<text text-anchor="start" x="3126.5" y="-219.5" font-family="Helvetica,sans-Serif" font-size="10.00">lib/carpi/src/components</text>
<text text-anchor="middle" x="3193" y="-208.5" font-family="Helvetica,sans-Serif" font-size="10.00">/interface/IMotorController.h</text>
</g>
<!-- Node2 -->
<g id="node2" class="node"><title>Node2</title>
<g id="a_node2"><a xlink:href="carpi_8h.html" target="_top" xlink:title="lib/carpi/src/carpi.h">
<polygon fill="white" stroke="black" points="1724,-140 1724,-159 1830,-159 1830,-140 1724,-140"/>
<text text-anchor="middle" x="1777" y="-147" font-family="Helvetica,sans-Serif" font-size="10.00">lib/carpi/src/carpi.h</text>
</a>
</g>
</g>
<!-- Node1&#45;&gt;Node2 -->
<g id="edge1" class="edge"><title>Node1&#45;&gt;Node2</title>
<path fill="none" stroke="midnightblue" d="M3108.09,-211.602C2844.34,-199.495 2044.14,-162.763 1830.12,-152.938"/>
<polygon fill="midnightblue" stroke="midnightblue" points="3108.22,-215.112 3118.37,-212.074 3108.54,-208.119 3108.22,-215.112"/>
</g>
<!-- Node26 -->
<g id="node26" class="node"><title>Node26</title>
<g id="a_node26"><a xlink:href="_hardware_motor_controller_8h.html" target="_top" xlink:title="lib/carpi/src/components\l/hardware/HardwareMotorController.h">
<polygon fill="white" stroke="black" points="2970.5,-134.5 2970.5,-164.5 3165.5,-164.5 3165.5,-134.5 2970.5,-134.5"/>
<text text-anchor="start" x="2978.5" y="-152.5" font-family="Helvetica,sans-Serif" font-size="10.00">lib/carpi/src/components</text>
<text text-anchor="middle" x="3068" y="-141.5" font-family="Helvetica,sans-Serif" font-size="10.00">/hardware/HardwareMotorController.h</text>
</a>
</g>
</g>
<!-- Node1&#45;&gt;Node26 -->
<g id="edge29" class="edge"><title>Node1&#45;&gt;Node26</title>
<path fill="none" stroke="midnightblue" d="M3156.87,-196.714C3137.16,-186.463 3113.16,-173.983 3095.07,-164.577"/>
<polygon fill="midnightblue" stroke="midnightblue" points="3155.39,-199.888 3165.88,-201.396 3158.62,-193.677 3155.39,-199.888"/>
</g>
<!-- Node27 -->
<g id="node27" class="node"><title>Node27</title>
<g id="a_node27"><a xlink:href="_p_cooling_8h.html" target="_top" xlink:title="lib/carpi/src/runable\l/programs/PCooling.h">
<polygon fill="white" stroke="black" points="3171.5,-0.5 3171.5,-30.5 3290.5,-30.5 3290.5,-0.5 3171.5,-0.5"/>
<text text-anchor="start" x="3179.5" y="-18.5" font-family="Helvetica,sans-Serif" font-size="10.00">lib/carpi/src/runable</text>
<text text-anchor="middle" x="3231" y="-7.5" font-family="Helvetica,sans-Serif" font-size="10.00">/programs/PCooling.h</text>
</a>
</g>
</g>
<!-- Node1&#45;&gt;Node27 -->
<g id="edge30" class="edge"><title>Node1&#45;&gt;Node27</title>
<path fill="none" stroke="midnightblue" d="M3197.63,-191.266C3205.64,-149.291 3221.87,-64.3272 3228.29,-30.6819"/>
<polygon fill="midnightblue" stroke="midnightblue" points="3194.17,-190.709 3195.73,-201.188 3201.05,-192.022 3194.17,-190.709"/>
</g>
<!-- Node28 -->
<g id="node28" class="node"><title>Node28</title>
<g id="a_node28"><a xlink:href="_s_car_8h.html" target="_top" xlink:title="lib/carpi/src/runable\l/services/SCar.h">
<polygon fill="white" stroke="black" points="3259,-134.5 3259,-164.5 3369,-164.5 3369,-134.5 3259,-134.5"/>
<text text-anchor="start" x="3267" y="-152.5" font-family="Helvetica,sans-Serif" font-size="10.00">lib/carpi/src/runable</text>
<text text-anchor="middle" x="3314" y="-141.5" font-family="Helvetica,sans-Serif" font-size="10.00">/services/SCar.h</text>
</a>
</g>
</g>
<!-- Node1&#45;&gt;Node28 -->
<g id="edge31" class="edge"><title>Node1&#45;&gt;Node28</title>
<path fill="none" stroke="midnightblue" d="M3228.23,-196.575C3247.26,-186.35 3270.37,-173.94 3287.8,-164.577"/>
<polygon fill="midnightblue" stroke="midnightblue" points="3226.41,-193.58 3219.26,-201.396 3229.72,-199.747 3226.41,-193.58"/>
</g>
<!-- Node30 -->
<g id="node30" class="node"><title>Node30</title>
<g id="a_node30"><a xlink:href="_p_motor_controller_8h.html" target="_top" xlink:title="lib/carpi/src/runable\l/programs/PMotorController.h">
<polygon fill="white" stroke="black" points="3521,-67.5 3521,-97.5 3679,-97.5 3679,-67.5 3521,-67.5"/>
<text text-anchor="start" x="3529" y="-85.5" font-family="Helvetica,sans-Serif" font-size="10.00">lib/carpi/src/runable</text>
<text text-anchor="middle" x="3600" y="-74.5" font-family="Helvetica,sans-Serif" font-size="10.00">/programs/PMotorController.h</text>
</a>
</g>
</g>
<!-- Node1&#45;&gt;Node30 -->
<g id="edge37" class="edge"><title>Node1&#45;&gt;Node30</title>
<path fill="none" stroke="midnightblue" d="M3258.99,-198.95C3294.47,-189.683 3338.86,-177.5 3378,-165 3444.68,-143.701 3521.02,-114.622 3564.57,-97.5731"/>
<polygon fill="midnightblue" stroke="midnightblue" points="3258.02,-195.584 3249.22,-201.485 3259.78,-202.359 3258.02,-195.584"/>
</g>
<!-- Node3 -->
<g id="node3" class="node"><title>Node3</title>
<g id="a_node3"><a xlink:href="_dashboard_slave_conf_8h.html" target="_top" xlink:title="car/Bonnie2019/Dashboard\lSlaveConf.h">
<polygon fill="white" stroke="black" points="1022.5,-67.5 1022.5,-97.5 1169.5,-97.5 1169.5,-67.5 1022.5,-67.5"/>
<text text-anchor="start" x="1030.5" y="-85.5" font-family="Helvetica,sans-Serif" font-size="10.00">car/Bonnie2019/Dashboard</text>
<text text-anchor="middle" x="1096" y="-74.5" font-family="Helvetica,sans-Serif" font-size="10.00">SlaveConf.h</text>
</a>
</g>
</g>
<!-- Node2&#45;&gt;Node3 -->
<g id="edge2" class="edge"><title>Node2&#45;&gt;Node3</title>
<path fill="none" stroke="midnightblue" d="M1713.73,-145.063C1604.25,-138.692 1372.49,-123.341 1178,-98 1175.28,-97.6451 1172.51,-97.263 1169.71,-96.8597"/>
<polygon fill="midnightblue" stroke="midnightblue" points="1713.76,-148.57 1723.94,-145.652 1714.16,-141.582 1713.76,-148.57"/>
</g>
<!-- Node4 -->
<g id="node4" class="node"><title>Node4</title>
<g id="a_node4"><a xlink:href="_display_slave_conf_8h.html" target="_top" xlink:title="car/Bonnie2019/DisplaySlave\lConf.h">
<polygon fill="white" stroke="black" points="1187.5,-67.5 1187.5,-97.5 1342.5,-97.5 1342.5,-67.5 1187.5,-67.5"/>
<text text-anchor="start" x="1195.5" y="-85.5" font-family="Helvetica,sans-Serif" font-size="10.00">car/Bonnie2019/DisplaySlave</text>
<text text-anchor="middle" x="1265" y="-74.5" font-family="Helvetica,sans-Serif" font-size="10.00">Conf.h</text>
</a>
</g>
</g>
<!-- Node2&#45;&gt;Node4 -->
<g id="edge3" class="edge"><title>Node2&#45;&gt;Node4</title>
<path fill="none" stroke="midnightblue" d="M1713.85,-141.931C1630.74,-133.072 1480.16,-116.285 1352,-98 1348.97,-97.5675 1345.88,-97.114 1342.76,-96.6456"/>
<polygon fill="midnightblue" stroke="midnightblue" points="1713.58,-145.422 1723.89,-142.998 1714.32,-138.461 1713.58,-145.422"/>
</g>
<!-- Node5 -->
<g id="node5" class="node"><title>Node5</title>
<g id="a_node5"><a xlink:href="_lo_ra_conf_8h.html" target="_top" xlink:title="car/Bonnie2019/LoRaConf.h">
<polygon fill="white" stroke="black" points="1361,-73 1361,-92 1509,-92 1509,-73 1361,-73"/>
<text text-anchor="middle" x="1435" y="-80" font-family="Helvetica,sans-Serif" font-size="10.00">car/Bonnie2019/LoRaConf.h</text>
</a>
</g>
</g>
<!-- Node2&#45;&gt;Node5 -->
<g id="edge4" class="edge"><title>Node2&#45;&gt;Node5</title>
<path fill="none" stroke="midnightblue" d="M1721.95,-138.037C1654.68,-125.253 1542.17,-103.868 1479.89,-92.0317"/>
<polygon fill="midnightblue" stroke="midnightblue" points="1721.46,-141.507 1731.94,-139.936 1722.77,-134.63 1721.46,-141.507"/>
</g>
<!-- Node6 -->
<g id="node6" class="node"><title>Node6</title>
<g id="a_node6"><a xlink:href="_master_conf_8h.html" target="_top" xlink:title="car/Bonnie2019/MasterConf.h">
<polygon fill="white" stroke="black" points="1527,-73 1527,-92 1685,-92 1685,-73 1527,-73"/>
<text text-anchor="middle" x="1606" y="-80" font-family="Helvetica,sans-Serif" font-size="10.00">car/Bonnie2019/MasterConf.h</text>
</a>
</g>
</g>
<!-- Node2&#45;&gt;Node6 -->
<g id="edge5" class="edge"><title>Node2&#45;&gt;Node6</title>
<path fill="none" stroke="midnightblue" d="M1744.83,-136.271C1710.89,-123.37 1658.29,-103.376 1628.53,-92.0637"/>
<polygon fill="midnightblue" stroke="midnightblue" points="1743.7,-139.587 1754.29,-139.869 1746.19,-133.044 1743.7,-139.587"/>
</g>
<!-- Node7 -->
<g id="node7" class="node"><title>Node7</title>
<g id="a_node7"><a xlink:href="_pedal_slave_conf_8h.html" target="_top" xlink:title="car/Bonnie2019/PedalSlave\lConf.h">
<polygon fill="white" stroke="black" points="1703.5,-67.5 1703.5,-97.5 1850.5,-97.5 1850.5,-67.5 1703.5,-67.5"/>
<text text-anchor="start" x="1711.5" y="-85.5" font-family="Helvetica,sans-Serif" font-size="10.00">car/Bonnie2019/PedalSlave</text>
<text text-anchor="middle" x="1777" y="-74.5" font-family="Helvetica,sans-Serif" font-size="10.00">Conf.h</text>
</a>
</g>
</g>
<!-- Node2&#45;&gt;Node7 -->
<g id="edge6" class="edge"><title>Node2&#45;&gt;Node7</title>
<path fill="none" stroke="midnightblue" d="M1777,-129.411C1777,-119.222 1777,-106.901 1777,-97.589"/>
<polygon fill="midnightblue" stroke="midnightblue" points="1773.5,-129.734 1777,-139.734 1780.5,-129.734 1773.5,-129.734"/>
</g>
<!-- Node8 -->
<g id="node8" class="node"><title>Node8</title>
<g id="a_node8"><a xlink:href="_syntetic_sync_8h.html" target="_top" xlink:title="car/hardwareTest/mbed\l/helper/SynteticSync.h">
<polygon fill="white" stroke="black" points="1907,-67.5 1907,-97.5 2035,-97.5 2035,-67.5 1907,-67.5"/>
<text text-anchor="start" x="1915" y="-85.5" font-family="Helvetica,sans-Serif" font-size="10.00">car/hardwareTest/mbed</text>
<text text-anchor="middle" x="1971" y="-74.5" font-family="Helvetica,sans-Serif" font-size="10.00">/helper/SynteticSync.h</text>
</a>
</g>
</g>
<!-- Node2&#45;&gt;Node8 -->
<g id="edge7" class="edge"><title>Node2&#45;&gt;Node8</title>
<path fill="none" stroke="midnightblue" d="M1812.42,-136.633C1845.31,-125.612 1894.32,-109.193 1929.13,-97.5281"/>
<polygon fill="midnightblue" stroke="midnightblue" points="1811.13,-133.373 1802.76,-139.869 1813.36,-140.01 1811.13,-133.373"/>
</g>
<!-- Node10 -->
<g id="node10" class="node"><title>Node10</title>
<g id="a_node10"><a xlink:href="_hardware_s_d_card_stress_test_8h.html" target="_top" xlink:title="car/hardwareTest/mbed\l/HardwareSDCardStressTest.h">
<polygon fill="white" stroke="black" points="1798.5,-0.5 1798.5,-30.5 1959.5,-30.5 1959.5,-0.5 1798.5,-0.5"/>
<text text-anchor="start" x="1806.5" y="-18.5" font-family="Helvetica,sans-Serif" font-size="10.00">car/hardwareTest/mbed</text>
<text text-anchor="middle" x="1879" y="-7.5" font-family="Helvetica,sans-Serif" font-size="10.00">/HardwareSDCardStressTest.h</text>
</a>
</g>
</g>
<!-- Node2&#45;&gt;Node10 -->
<g id="edge17" class="edge"><title>Node2&#45;&gt;Node10</title>
<path fill="none" stroke="midnightblue" d="M1810.3,-135.754C1827.6,-127.494 1847.65,-115.061 1860,-98 1874.65,-77.7582 1878.19,-47.9259 1878.94,-30.5278"/>
<polygon fill="midnightblue" stroke="midnightblue" points="1808.72,-132.625 1801.04,-139.916 1811.59,-139.009 1808.72,-132.625"/>
</g>
<!-- Node11 -->
<g id="node11" class="node"><title>Node11</title>
<g id="a_node11"><a xlink:href="_hardware_s_d_card_test_8h.html" target="_top" xlink:title="car/hardwareTest/mbed\l/HardwareSDCardTest.h">
<polygon fill="white" stroke="black" points="2124,-0.5 2124,-30.5 2254,-30.5 2254,-0.5 2124,-0.5"/>
<text text-anchor="start" x="2132" y="-18.5" font-family="Helvetica,sans-Serif" font-size="10.00">car/hardwareTest/mbed</text>
<text text-anchor="middle" x="2189" y="-7.5" font-family="Helvetica,sans-Serif" font-size="10.00">/HardwareSDCardTest.h</text>
</a>
</g>
</g>
<!-- Node2&#45;&gt;Node11 -->
<g id="edge21" class="edge"><title>Node2&#45;&gt;Node11</title>
<path fill="none" stroke="midnightblue" d="M1840.46,-145.296C1950.51,-139.084 2167.24,-123.708 2190,-98 2206.32,-79.5636 2199.99,-48.5382 2194.27,-30.5541"/>
<polygon fill="midnightblue" stroke="midnightblue" points="1839.94,-141.819 1830.15,-145.868 1840.33,-148.808 1839.94,-141.819"/>
</g>
<!-- Node12 -->
<g id="node12" class="node"><title>Node12</title>
<g id="a_node12"><a xlink:href="_button_unit_test_8h.html" target="_top" xlink:title="car/hardwareTest/mbed\l/ButtonUnitTest.h">
<polygon fill="white" stroke="black" points="2237,-67.5 2237,-97.5 2365,-97.5 2365,-67.5 2237,-67.5"/>
<text text-anchor="start" x="2245" y="-85.5" font-family="Helvetica,sans-Serif" font-size="10.00">car/hardwareTest/mbed</text>
<text text-anchor="middle" x="2301" y="-74.5" font-family="Helvetica,sans-Serif" font-size="10.00">/ButtonUnitTest.h</text>
</a>
</g>
</g>
<!-- Node2&#45;&gt;Node12 -->
<g id="edge11" class="edge"><title>Node2&#45;&gt;Node12</title>
<path fill="none" stroke="midnightblue" d="M1840.21,-142.77C1926.81,-134.594 2087.1,-118.299 2223,-98 2227.5,-97.3285 2232.13,-96.5892 2236.79,-95.8107"/>
<polygon fill="midnightblue" stroke="midnightblue" points="1839.65,-139.307 1830.02,-143.726 1840.31,-146.276 1839.65,-139.307"/>
</g>
<!-- Node13 -->
<g id="node13" class="node"><title>Node13</title>
<g id="a_node13"><a xlink:href="_c_a_n_service_unit_test_8h.html" target="_top" xlink:title="car/hardwareTest/mbed\l/CANServiceUnitTest.h">
<polygon fill="white" stroke="black" points="2383,-67.5 2383,-97.5 2511,-97.5 2511,-67.5 2383,-67.5"/>
<text text-anchor="start" x="2391" y="-85.5" font-family="Helvetica,sans-Serif" font-size="10.00">car/hardwareTest/mbed</text>
<text text-anchor="middle" x="2447" y="-74.5" font-family="Helvetica,sans-Serif" font-size="10.00">/CANServiceUnitTest.h</text>
</a>
</g>
</g>
<!-- Node2&#45;&gt;Node13 -->
<g id="edge12" class="edge"><title>Node2&#45;&gt;Node13</title>
<path fill="none" stroke="midnightblue" d="M1840.54,-145.461C1949.92,-139.709 2180.68,-125.289 2374,-98 2376.94,-97.5846 2379.95,-97.1268 2382.97,-96.6376"/>
<polygon fill="midnightblue" stroke="midnightblue" points="1840.14,-141.977 1830.33,-145.991 1840.5,-148.968 1840.14,-141.977"/>
</g>
<!-- Node14 -->
<g id="node14" class="node"><title>Node14</title>
<g id="a_node14"><a xlink:href="_dashboard_demo_8h.html" target="_top" xlink:title="car/hardwareTest/mbed\l/DashboardDemo.h">
<polygon fill="white" stroke="black" points="2529,-67.5 2529,-97.5 2657,-97.5 2657,-67.5 2529,-67.5"/>
<text text-anchor="start" x="2537" y="-85.5" font-family="Helvetica,sans-Serif" font-size="10.00">car/hardwareTest/mbed</text>
<text text-anchor="middle" x="2593" y="-74.5" font-family="Helvetica,sans-Serif" font-size="10.00">/DashboardDemo.h</text>
</a>
</g>
</g>
<!-- Node2&#45;&gt;Node14 -->
<g id="edge13" class="edge"><title>Node2&#45;&gt;Node14</title>
<path fill="none" stroke="midnightblue" d="M1840.46,-146.928C1969.14,-143.137 2269.8,-131.212 2520,-98 2522.95,-97.6089 2525.95,-97.1711 2528.98,-96.6981"/>
<polygon fill="midnightblue" stroke="midnightblue" points="1840.28,-143.431 1830.39,-147.218 1840.49,-150.429 1840.28,-143.431"/>
</g>
<!-- Node15 -->
<g id="node15" class="node"><title>Node15</title>
<g id="a_node15"><a xlink:href="_hardware_buzzer_unit_test_8h.html" target="_top" xlink:title="car/hardwareTest/mbed\l/HardwareBuzzerUnitTest.h">
<polygon fill="white" stroke="black" points="2675,-67.5 2675,-97.5 2821,-97.5 2821,-67.5 2675,-67.5"/>
<text text-anchor="start" x="2683" y="-85.5" font-family="Helvetica,sans-Serif" font-size="10.00">car/hardwareTest/mbed</text>
<text text-anchor="middle" x="2748" y="-74.5" font-family="Helvetica,sans-Serif" font-size="10.00">/HardwareBuzzerUnitTest.h</text>
</a>
</g>
</g>
<!-- Node2&#45;&gt;Node15 -->
<g id="edge14" class="edge"><title>Node2&#45;&gt;Node15</title>
<path fill="none" stroke="midnightblue" d="M1840.16,-147.475C1986.06,-144.548 2357.66,-133.892 2666,-98 2668.87,-97.6657 2671.8,-97.2951 2674.75,-96.896"/>
<polygon fill="midnightblue" stroke="midnightblue" points="1839.97,-143.978 1830.04,-147.673 1840.11,-150.977 1839.97,-143.978"/>
</g>
<!-- Node16 -->
<g id="node16" class="node"><title>Node16</title>
<g id="a_node16"><a xlink:href="_hardware_pedal_unit_test_8h.html" target="_top" xlink:title="car/hardwareTest/mbed\l/HardwarePedalUnitTest.h">
<polygon fill="white" stroke="black" points="2839.5,-67.5 2839.5,-97.5 2978.5,-97.5 2978.5,-67.5 2839.5,-67.5"/>
<text text-anchor="start" x="2847.5" y="-85.5" font-family="Helvetica,sans-Serif" font-size="10.00">car/hardwareTest/mbed</text>
<text text-anchor="middle" x="2909" y="-74.5" font-family="Helvetica,sans-Serif" font-size="10.00">/HardwarePedalUnitTest.h</text>
</a>
</g>
</g>
<!-- Node2&#45;&gt;Node16 -->
<g id="edge15" class="edge"><title>Node2&#45;&gt;Node16</title>
<path fill="none" stroke="midnightblue" d="M1840.46,-148.404C2004.64,-147.519 2456.6,-141.026 2830,-98 2833.05,-97.6488 2836.15,-97.2509 2839.29,-96.8169"/>
<polygon fill="midnightblue" stroke="midnightblue" points="1840.05,-144.906 1830.07,-148.455 1840.09,-151.906 1840.05,-144.906"/>
</g>
<!-- Node17 -->
<g id="node17" class="node"><title>Node17</title>
<g id="a_node17"><a xlink:href="_hardware_pwm_buzzer_unit_test_8h.html" target="_top" xlink:title="car/hardwareTest/mbed\l/HardwarePwmBuzzerUnitTest.h">
<polygon fill="white" stroke="black" points="2997,-67.5 2997,-97.5 3165,-97.5 3165,-67.5 2997,-67.5"/>
<text text-anchor="start" x="3005" y="-85.5" font-family="Helvetica,sans-Serif" font-size="10.00">car/hardwareTest/mbed</text>
<text text-anchor="middle" x="3081" y="-74.5" font-family="Helvetica,sans-Serif" font-size="10.00">/HardwarePwmBuzzerUnitTest.h</text>
</a>
</g>
</g>
<!-- Node2&#45;&gt;Node17 -->
<g id="edge16" class="edge"><title>Node2&#45;&gt;Node17</title>
<path fill="none" stroke="midnightblue" d="M1840.36,-148.377C2020.42,-147.484 2550.45,-141.095 2988,-98 2990.93,-97.7117 2993.9,-97.3923 2996.9,-97.0475"/>
<polygon fill="midnightblue" stroke="midnightblue" points="1840.25,-144.877 1830.27,-148.423 1840.28,-151.877 1840.25,-144.877"/>
</g>
<!-- Node18 -->
<g id="node18" class="node"><title>Node18</title>
<g id="a_node18"><a xlink:href="_dummy_s_car_8h.html" target="_top" xlink:title="car/hardwareTest/mbed\l/helper/DummySCar.h">
<polygon fill="white" stroke="black" points="2053,-67.5 2053,-97.5 2181,-97.5 2181,-67.5 2053,-67.5"/>
<text text-anchor="start" x="2061" y="-85.5" font-family="Helvetica,sans-Serif" font-size="10.00">car/hardwareTest/mbed</text>
<text text-anchor="middle" x="2117" y="-74.5" font-family="Helvetica,sans-Serif" font-size="10.00">/helper/DummySCar.h</text>
</a>
</g>
</g>
<!-- Node2&#45;&gt;Node18 -->
<g id="edge18" class="edge"><title>Node2&#45;&gt;Node18</title>
<path fill="none" stroke="midnightblue" d="M1832.91,-138.078C1886.96,-127.969 1971.12,-112.13 2044,-98 2046.92,-97.4343 2049.9,-96.8533 2052.91,-96.2642"/>
<polygon fill="midnightblue" stroke="midnightblue" points="1832.04,-134.681 1822.85,-139.959 1833.33,-141.562 1832.04,-134.681"/>
</g>
<!-- Node19 -->
<g id="node19" class="node"><title>Node19</title>
<g id="a_node19"><a xlink:href="_l_e_d_p_w_m_unit_test_8h.html" target="_top" xlink:title="car/hardwareTest/mbed\l/LEDPWMUnitTest.h">
<polygon fill="white" stroke="black" points="0,-67.5 0,-97.5 128,-97.5 128,-67.5 0,-67.5"/>
<text text-anchor="start" x="8" y="-85.5" font-family="Helvetica,sans-Serif" font-size="10.00">car/hardwareTest/mbed</text>
<text text-anchor="middle" x="64" y="-74.5" font-family="Helvetica,sans-Serif" font-size="10.00">/LEDPWMUnitTest.h</text>
</a>
</g>
</g>
<!-- Node2&#45;&gt;Node19 -->
<g id="edge22" class="edge"><title>Node2&#45;&gt;Node19</title>
<path fill="none" stroke="midnightblue" d="M1713.77,-147.951C1451.83,-145.461 450.858,-133.755 137,-98 134.047,-97.6636 131.036,-97.2706 128,-96.8339"/>
<polygon fill="midnightblue" stroke="midnightblue" points="1713.84,-151.452 1723.87,-148.046 1713.9,-144.452 1713.84,-151.452"/>
</g>
<!-- Node20 -->
<g id="node20" class="node"><title>Node20</title>
<g id="a_node20"><a xlink:href="_l_e_d_unit_test_8h.html" target="_top" xlink:title="car/hardwareTest/mbed\l/LEDUnitTest.h">
<polygon fill="white" stroke="black" points="146,-67.5 146,-97.5 274,-97.5 274,-67.5 146,-67.5"/>
<text text-anchor="start" x="154" y="-85.5" font-family="Helvetica,sans-Serif" font-size="10.00">car/hardwareTest/mbed</text>
<text text-anchor="middle" x="210" y="-74.5" font-family="Helvetica,sans-Serif" font-size="10.00">/LEDUnitTest.h</text>
</a>
</g>
</g>
<!-- Node2&#45;&gt;Node20 -->
<g id="edge23" class="edge"><title>Node2&#45;&gt;Node20</title>
<path fill="none" stroke="midnightblue" d="M1713.38,-147.726C1465.84,-144.499 566.548,-130.733 283,-98 280.048,-97.6592 277.037,-97.2626 274.001,-96.8229"/>
<polygon fill="midnightblue" stroke="midnightblue" points="1713.6,-151.229 1723.64,-147.858 1713.69,-144.229 1713.6,-151.229"/>
</g>
<!-- Node21 -->
<g id="node21" class="node"><title>Node21</title>
<g id="a_node21"><a xlink:href="_master_output_test_8h.html" target="_top" xlink:title="car/hardwareTest/mbed\l/MasterOutputTest.h">
<polygon fill="white" stroke="black" points="292,-67.5 292,-97.5 420,-97.5 420,-67.5 292,-67.5"/>
<text text-anchor="start" x="300" y="-85.5" font-family="Helvetica,sans-Serif" font-size="10.00">car/hardwareTest/mbed</text>
<text text-anchor="middle" x="356" y="-74.5" font-family="Helvetica,sans-Serif" font-size="10.00">/MasterOutputTest.h</text>
</a>
</g>
</g>
<!-- Node2&#45;&gt;Node21 -->
<g id="edge24" class="edge"><title>Node2&#45;&gt;Node21</title>
<path fill="none" stroke="midnightblue" d="M1713.55,-147.459C1481.96,-143.452 682.559,-127.741 429,-98 426.048,-97.6538 423.038,-97.2527 420.003,-96.8095"/>
<polygon fill="midnightblue" stroke="midnightblue" points="1713.76,-150.963 1723.82,-147.636 1713.88,-143.964 1713.76,-150.963"/>
</g>
<!-- Node22 -->
<g id="node22" class="node"><title>Node22</title>
<g id="a_node22"><a xlink:href="_pedal_unit_test_8h.html" target="_top" xlink:title="car/hardwareTest/mbed\l/PedalUnitTest.h">
<polygon fill="white" stroke="black" points="438,-67.5 438,-97.5 566,-97.5 566,-67.5 438,-67.5"/>
<text text-anchor="start" x="446" y="-85.5" font-family="Helvetica,sans-Serif" font-size="10.00">car/hardwareTest/mbed</text>
<text text-anchor="middle" x="502" y="-74.5" font-family="Helvetica,sans-Serif" font-size="10.00">/PedalUnitTest.h</text>
</a>
</g>
</g>
<!-- Node2&#45;&gt;Node22 -->
<g id="edge25" class="edge"><title>Node2&#45;&gt;Node22</title>
<path fill="none" stroke="midnightblue" d="M1713.7,-147.13C1498.88,-142.277 798.684,-124.752 575,-98 572.049,-97.6471 569.039,-97.2405 566.005,-96.7928"/>
<polygon fill="midnightblue" stroke="midnightblue" points="1713.78,-150.632 1723.86,-147.358 1713.94,-143.634 1713.78,-150.632"/>
</g>
<!-- Node23 -->
<g id="node23" class="node"><title>Node23</title>
<g id="a_node23"><a xlink:href="_pump_refill_8h.html" target="_top" xlink:title="car/hardwareTest/mbed\l/PumpRefill.h">
<polygon fill="white" stroke="black" points="584,-67.5 584,-97.5 712,-97.5 712,-67.5 584,-67.5"/>
<text text-anchor="start" x="592" y="-85.5" font-family="Helvetica,sans-Serif" font-size="10.00">car/hardwareTest/mbed</text>
<text text-anchor="middle" x="648" y="-74.5" font-family="Helvetica,sans-Serif" font-size="10.00">/PumpRefill.h</text>
</a>
</g>
</g>
<!-- Node2&#45;&gt;Node23 -->
<g id="edge26" class="edge"><title>Node2&#45;&gt;Node23</title>
<path fill="none" stroke="midnightblue" d="M1713.32,-148.735C1548.58,-148.635 1095.14,-143.847 721,-98 718.05,-97.6385 715.041,-97.225 712.007,-96.7716"/>
<polygon fill="midnightblue" stroke="midnightblue" points="1713.75,-152.235 1723.75,-148.736 1713.75,-145.235 1713.75,-152.235"/>
</g>
<!-- Node24 -->
<g id="node24" class="node"><title>Node24</title>
<g id="a_node24"><a xlink:href="_r_f_eand_r_u_ntest_8h.html" target="_top" xlink:title="car/hardwareTest/mbed\l/RFEandRUNtest.h">
<polygon fill="white" stroke="black" points="730,-67.5 730,-97.5 858,-97.5 858,-67.5 730,-67.5"/>
<text text-anchor="start" x="738" y="-85.5" font-family="Helvetica,sans-Serif" font-size="10.00">car/hardwareTest/mbed</text>
<text text-anchor="middle" x="794" y="-74.5" font-family="Helvetica,sans-Serif" font-size="10.00">/RFEandRUNtest.h</text>
</a>
</g>
</g>
<!-- Node2&#45;&gt;Node24 -->
<g id="edge27" class="edge"><title>Node2&#45;&gt;Node24</title>
<path fill="none" stroke="midnightblue" d="M1713.65,-148.043C1565.14,-146.307 1183.18,-137.973 867,-98 864.052,-97.6272 861.044,-97.2044 858.011,-96.7436"/>
<polygon fill="midnightblue" stroke="midnightblue" points="1713.9,-151.546 1723.94,-148.157 1713.98,-144.547 1713.9,-151.546"/>
</g>
<!-- Node25 -->
<g id="node25" class="node"><title>Node25</title>
<g id="a_node25"><a xlink:href="_r_p_m_sensor_unit_test_8h.html" target="_top" xlink:title="car/hardwareTest/mbed\l/RPMSensorUnitTest.h">
<polygon fill="white" stroke="black" points="876,-67.5 876,-97.5 1004,-97.5 1004,-67.5 876,-67.5"/>
<text text-anchor="start" x="884" y="-85.5" font-family="Helvetica,sans-Serif" font-size="10.00">car/hardwareTest/mbed</text>
<text text-anchor="middle" x="940" y="-74.5" font-family="Helvetica,sans-Serif" font-size="10.00">/RPMSensorUnitTest.h</text>
</a>
</g>
</g>
<!-- Node2&#45;&gt;Node25 -->
<g id="edge28" class="edge"><title>Node2&#45;&gt;Node25</title>
<path fill="none" stroke="midnightblue" d="M1713.71,-147.098C1582.52,-143.582 1271.55,-132.076 1013,-98 1010.05,-97.6117 1007.05,-97.1761 1004.02,-96.7049"/>
<polygon fill="midnightblue" stroke="midnightblue" points="1713.88,-150.604 1723.97,-147.367 1714.07,-143.606 1713.88,-150.604"/>
</g>
<!-- Node9 -->
<g id="node9" class="node"><title>Node9</title>
<g id="a_node9"><a xlink:href="_alive_component_test_8h.html" target="_top" xlink:title="car/hardwareTest/mbed\l/AliveComponentTest.h">
<polygon fill="white" stroke="black" points="1978,-0.5 1978,-30.5 2106,-30.5 2106,-0.5 1978,-0.5"/>
<text text-anchor="start" x="1986" y="-18.5" font-family="Helvetica,sans-Serif" font-size="10.00">car/hardwareTest/mbed</text>
<text text-anchor="middle" x="2042" y="-7.5" font-family="Helvetica,sans-Serif" font-size="10.00">/AliveComponentTest.h</text>
</a>
</g>
</g>
<!-- Node8&#45;&gt;Node9 -->
<g id="edge8" class="edge"><title>Node8&#45;&gt;Node9</title>
<path fill="none" stroke="midnightblue" d="M1993.83,-60.5978C2004.55,-50.7831 2017.05,-39.3442 2026.62,-30.5765"/>
<polygon fill="midnightblue" stroke="midnightblue" points="1991.42,-58.0618 1986.41,-67.396 1996.15,-63.225 1991.42,-58.0618"/>
</g>
<!-- Node8&#45;&gt;Node10 -->
<g id="edge9" class="edge"><title>Node8&#45;&gt;Node10</title>
<path fill="none" stroke="midnightblue" d="M1942.62,-61.4511C1928.47,-51.4517 1911.69,-39.5995 1898.92,-30.5765"/>
<polygon fill="midnightblue" stroke="midnightblue" points="1940.85,-64.4841 1951.04,-67.396 1944.89,-58.7671 1940.85,-64.4841"/>
</g>
<!-- Node8&#45;&gt;Node11 -->
<g id="edge10" class="edge"><title>Node8&#45;&gt;Node11</title>
<path fill="none" stroke="midnightblue" d="M2027.75,-64.5797C2063.16,-54.0225 2108.2,-40.5921 2141.67,-30.6109"/>
<polygon fill="midnightblue" stroke="midnightblue" points="2026.62,-61.2645 2018.03,-67.476 2028.62,-67.9727 2026.62,-61.2645"/>
</g>
<!-- Node18&#45;&gt;Node10 -->
<g id="edge19" class="edge"><title>Node18&#45;&gt;Node10</title>
<path fill="none" stroke="midnightblue" d="M2055.54,-64.7149C2016.81,-54.1373 1967.37,-40.6348 1930.67,-30.6109"/>
<polygon fill="midnightblue" stroke="midnightblue" points="2055.08,-68.2177 2065.65,-67.476 2056.93,-61.465 2055.08,-68.2177"/>
</g>
<!-- Node18&#45;&gt;Node11 -->
<g id="edge20" class="edge"><title>Node18&#45;&gt;Node11</title>
<path fill="none" stroke="midnightblue" d="M2140.15,-60.5978C2151.02,-50.7831 2163.7,-39.3442 2173.41,-30.5765"/>
<polygon fill="midnightblue" stroke="midnightblue" points="2137.7,-58.097 2132.62,-67.396 2142.39,-63.2929 2137.7,-58.097"/>
</g>
<!-- Node28&#45;&gt;Node27 -->
<g id="edge32" class="edge"><title>Node28&#45;&gt;Node27</title>
<path fill="none" stroke="midnightblue" d="M3280.26,-128.505C3269.11,-120.35 3257.62,-109.996 3250,-98 3236.68,-77.0289 3232.68,-47.71 3231.49,-30.5524"/>
<polygon fill="midnightblue" stroke="midnightblue" points="3278.43,-131.498 3288.65,-134.304 3282.41,-125.739 3278.43,-131.498"/>
</g>
<!-- Node29 -->
<g id="node29" class="node"><title>Node29</title>
<g id="a_node29"><a xlink:href="_p_logger_8h.html" target="_top" xlink:title="lib/carpi/src/runable\l/programs/PLogger.h">
<polygon fill="white" stroke="black" points="3387,-67.5 3387,-97.5 3503,-97.5 3503,-67.5 3387,-67.5"/>
<text text-anchor="start" x="3395" y="-85.5" font-family="Helvetica,sans-Serif" font-size="10.00">lib/carpi/src/runable</text>
<text text-anchor="middle" x="3445" y="-74.5" font-family="Helvetica,sans-Serif" font-size="10.00">/programs/PLogger.h</text>
</a>
</g>
</g>
<!-- Node28&#45;&gt;Node29 -->
<g id="edge33" class="edge"><title>Node28&#45;&gt;Node29</title>
<path fill="none" stroke="midnightblue" d="M3351.58,-129.853C3372.29,-119.576 3397.59,-107.025 3416.63,-97.5765"/>
<polygon fill="midnightblue" stroke="midnightblue" points="3349.83,-126.816 3342.43,-134.396 3352.94,-133.086 3349.83,-126.816"/>
</g>
<!-- Node28&#45;&gt;Node30 -->
<g id="edge34" class="edge"><title>Node28&#45;&gt;Node30</title>
<path fill="none" stroke="midnightblue" d="M3379.07,-133.71C3426.86,-122.85 3491.36,-108.191 3538.33,-97.5165"/>
<polygon fill="midnightblue" stroke="midnightblue" points="3378.12,-130.338 3369.14,-135.967 3379.67,-137.164 3378.12,-130.338"/>
</g>
<!-- Node31 -->
<g id="node31" class="node"><title>Node31</title>
<g id="a_node31"><a xlink:href="_s_speed_8h.html" target="_top" xlink:title="lib/carpi/src/runable\l/services/SSpeed.h">
<polygon fill="white" stroke="black" points="3259,-67.5 3259,-97.5 3369,-97.5 3369,-67.5 3259,-67.5"/>
<text text-anchor="start" x="3267" y="-85.5" font-family="Helvetica,sans-Serif" font-size="10.00">lib/carpi/src/runable</text>
<text text-anchor="middle" x="3314" y="-74.5" font-family="Helvetica,sans-Serif" font-size="10.00">/services/SSpeed.h</text>
</a>
</g>
</g>
<!-- Node28&#45;&gt;Node31 -->
<g id="edge35" class="edge"><title>Node28&#45;&gt;Node31</title>
<path fill="none" stroke="midnightblue" d="M3314,-124.108C3314,-115.154 3314,-105.323 3314,-97.5765"/>
<polygon fill="midnightblue" stroke="midnightblue" points="3310.5,-124.396 3314,-134.396 3317.5,-124.396 3310.5,-124.396"/>
</g>
<!-- Node31&#45;&gt;Node27 -->
<g id="edge36" class="edge"><title>Node31&#45;&gt;Node27</title>
<path fill="none" stroke="midnightblue" d="M3288.04,-61.1677C3275.35,-51.2283 3260.39,-39.5144 3248.97,-30.5765"/>
<polygon fill="midnightblue" stroke="midnightblue" points="3285.96,-63.9859 3295.99,-67.396 3290.28,-58.4747 3285.96,-63.9859"/>
</g>
</g>
</svg>
        <g id="navigator" transform="translate(0 0)" fill="#404254">
                <rect fill="#f2f5e9" fill-opacity="0.5" stroke="#606060" stroke-width=".5" x="0" y="0" width="60" height="60"/>
                <use id="zoomplus" xlink:href="#zoomPlus" x="17" y="9" onmousedown="handleZoom(evt,'in')"/>
                <use id="zoomminus" xlink:href="#zoomMin" x="42" y="9" onmousedown="handleZoom(evt,'out')"/>
                <use id="reset" xlink:href="#resetDef" x="30" y="36" onmousedown="handleReset()"/>
                <g id="arrowUp" xlink:href="#dirArrow" transform="translate(30 24)" onmousedown="handlePan(0,-1)">
                  <use xlink:href="#rim" fill="#404040">
                        <set attributeName="fill" to="#808080" begin="arrowUp.mouseover" end="arrowUp.mouseout"/>
                  </use>
                  <path fill="none" stroke="white" stroke-width="1.5" d="M0,-3.0v7 M-2.5,-0.5L0,-3.0L2.5,-0.5"/>
                </g>
                <g id="arrowRight" xlink:href="#dirArrow" transform="rotate(90) translate(36 -43)" onmousedown="handlePan(1,0)">
                  <use xlink:href="#rim" fill="#404040">
                        <set attributeName="fill" to="#808080" begin="arrowRight.mouseover" end="arrowRight.mouseout"/>
                  </use>
                  <path fill="none" stroke="white" stroke-width="1.5" d="M0,-3.0v7 M-2.5,-0.5L0,-3.0L2.5,-0.5"/>
                </g>
                <g id="arrowDown" xlink:href="#dirArrow" transform="rotate(180) translate(-30 -48)" onmousedown="handlePan(0,1)">
                  <use xlink:href="#rim" fill="#404040">
                        <set attributeName="fill" to="#808080" begin="arrowDown.mouseover" end="arrowDown.mouseout"/>
                  </use>
                  <path fill="none" stroke="white" stroke-width="1.5" d="M0,-3.0v7 M-2.5,-0.5L0,-3.0L2.5,-0.5"/>
                </g>
                <g id="arrowLeft" xlink:href="#dirArrow" transform="rotate(270) translate(-36 17)" onmousedown="handlePan(-1,0)">
                  <use xlink:href="#rim" fill="#404040">
                        <set attributeName="fill" to="#808080" begin="arrowLeft.mouseover" end="arrowLeft.mouseout"/>
                  </use>
                  <path fill="none" stroke="white" stroke-width="1.5" d="M0,-3.0v7 M-2.5,-0.5L0,-3.0L2.5,-0.5"/>
                </g>
        </g>
        <svg viewBox="0 0 15 15" width="100%" height="30px" preserveAspectRatio="xMaxYMin meet">
         <g id="arrow_out" transform="scale(0.3 0.3)">
          <a xlink:href="_i_motor_controller_8h__dep__incl_org.svg" target="_base">
           <rect id="button" ry="5" rx="5" y="6" x="6" height="38" width="38"
                fill="#f2f5e9" fill-opacity="0.5" stroke="#606060" stroke-width="1.0"/>
           <path id="arrow"
             d="M 11.500037,31.436501 C 11.940474,20.09759 22.043105,11.32322 32.158766,21.979434 L 37.068811,17.246167 C 37.068811,17.246167 37.088388,32 37.088388,32 L 22.160133,31.978069 C 22.160133,31.978069 26.997745,27.140456 26.997745,27.140456 C 18.528582,18.264221 13.291696,25.230495 11.500037,31.436501 z"
             style="fill:#404040;"/>
          </a>
         </g>
        </svg>
</svg>
