<?xml version="1.0" encoding="UTF-8" standalone="no"?>
<!DOCTYPE svg PUBLIC "-//W3C//DTD SVG 1.1//EN"
 "http://www.w3.org/Graphics/SVG/1.1/DTD/svg11.dtd">
<!-- Generated by graphviz version 2.38.0 (20140413.2041)
 -->
<!-- Title: lib/carpi/src/components/interface/IPedal.h Pages: 1 -->
<svg width="3649pt" height="307pt"
 viewBox="0.00 0.00 3649.00 307.00" xmlns="http://www.w3.org/2000/svg" xmlns:xlink="http://www.w3.org/1999/xlink">
<g id="graph0" class="graph" transform="scale(1 1) rotate(0) translate(4 303)">
<title>lib/carpi/src/components/interface/IPedal.h</title>
<polygon fill="white" stroke="none" points="-4,4 -4,-303 3645,-303 3645,4 -4,4"/>
<!-- Node1 -->
<g id="node1" class="node"><title>Node1</title>
<polygon fill="#bfbfbf" stroke="black" points="2055,-268.5 2055,-298.5 2189,-298.5 2189,-268.5 2055,-268.5"/>
<text text-anchor="start" x="2063" y="-286.5" font-family="Helvetica,sans-Serif" font-size="10.00">lib/carpi/src/components</text>
<text text-anchor="middle" x="2122" y="-275.5" font-family="Helvetica,sans-Serif" font-size="10.00">/interface/IPedal.h</text>
</g>
<!-- Node2 -->
<g id="node2" class="node"><title>Node2</title>
<g id="a_node2"><a xlink:href="carpi_8h.html" target="_top" xlink:title="lib/carpi/src/carpi.h">
<polygon fill="white" stroke="black" points="1805,-140 1805,-159 1911,-159 1911,-140 1805,-140"/>
<text text-anchor="middle" x="1858" y="-147" font-family="Helvetica,sans-Serif" font-size="10.00">lib/carpi/src/carpi.h</text>
</a>
</g>
</g>
<!-- Node1&#45;&gt;Node2 -->
<g id="edge1" class="edge"><title>Node1&#45;&gt;Node2</title>
<path fill="none" stroke="midnightblue" d="M2044.71,-275.612C1982.11,-268.442 1900.57,-254.97 1877,-232 1856.81,-212.328 1856.31,-175.668 1857.25,-159.064"/>
<polygon fill="midnightblue" stroke="midnightblue" points="2044.65,-279.127 2054.98,-276.751 2045.42,-272.17 2044.65,-279.127"/>
</g>
<!-- Node26 -->
<g id="node26" class="node"><title>Node26</title>
<g id="a_node26"><a xlink:href="_hardware_pedal_8h.html" target="_top" xlink:title="lib/carpi/src/components\l/hardware/HardwarePedal.h">
<polygon fill="white" stroke="black" points="1886,-201.5 1886,-231.5 2034,-231.5 2034,-201.5 1886,-201.5"/>
<text text-anchor="start" x="1894" y="-219.5" font-family="Helvetica,sans-Serif" font-size="10.00">lib/carpi/src/components</text>
<text text-anchor="middle" x="1960" y="-208.5" font-family="Helvetica,sans-Serif" font-size="10.00">/hardware/HardwarePedal.h</text>
</a>
</g>
</g>
<!-- Node1&#45;&gt;Node26 -->
<g id="edge29" class="edge"><title>Node1&#45;&gt;Node26</title>
<path fill="none" stroke="midnightblue" d="M2077.25,-264.544C2051.33,-254.143 2019.16,-241.238 1995.08,-231.577"/>
<polygon fill="midnightblue" stroke="midnightblue" points="2076.26,-267.92 2086.85,-268.396 2078.87,-261.424 2076.26,-267.92"/>
</g>
<!-- Node27 -->
<g id="node27" class="node"><title>Node27</title>
<g id="a_node27"><a xlink:href="_software_pedal_8h.html" target="_top" xlink:title="lib/carpi/src/components\l/software/SoftwarePedal.h">
<polygon fill="white" stroke="black" points="2052,-201.5 2052,-231.5 2192,-231.5 2192,-201.5 2052,-201.5"/>
<text text-anchor="start" x="2060" y="-219.5" font-family="Helvetica,sans-Serif" font-size="10.00">lib/carpi/src/components</text>
<text text-anchor="middle" x="2122" y="-208.5" font-family="Helvetica,sans-Serif" font-size="10.00">/software/SoftwarePedal.h</text>
</a>
</g>
</g>
<!-- Node1&#45;&gt;Node27 -->
<g id="edge31" class="edge"><title>Node1&#45;&gt;Node27</title>
<path fill="none" stroke="midnightblue" d="M2122,-258.108C2122,-249.154 2122,-239.323 2122,-231.577"/>
<polygon fill="midnightblue" stroke="midnightblue" points="2118.5,-258.396 2122,-268.396 2125.5,-258.396 2118.5,-258.396"/>
</g>
<!-- Node28 -->
<g id="node28" class="node"><title>Node28</title>
<g id="a_node28"><a xlink:href="_p_brake_light_8h.html" target="_top" xlink:title="lib/carpi/src/runable\l/programs/PBrakeLight.h">
<polygon fill="white" stroke="black" points="2663.5,-201.5 2663.5,-231.5 2798.5,-231.5 2798.5,-201.5 2663.5,-201.5"/>
<text text-anchor="start" x="2671.5" y="-219.5" font-family="Helvetica,sans-Serif" font-size="10.00">lib/carpi/src/runable</text>
<text text-anchor="middle" x="2731" y="-208.5" font-family="Helvetica,sans-Serif" font-size="10.00">/programs/PBrakeLight.h</text>
</a>
</g>
</g>
<!-- Node1&#45;&gt;Node28 -->
<g id="edge33" class="edge"><title>Node1&#45;&gt;Node28</title>
<path fill="none" stroke="midnightblue" d="M2199.43,-274.236C2319.61,-261.409 2549.05,-236.92 2663.12,-224.745"/>
<polygon fill="midnightblue" stroke="midnightblue" points="2198.78,-270.785 2189.21,-275.327 2199.52,-277.746 2198.78,-270.785"/>
</g>
<!-- Node32 -->
<g id="node32" class="node"><title>Node32</title>
<g id="a_node32"><a xlink:href="_p_motor_controller_8h.html" target="_top" xlink:title="lib/carpi/src/runable\l/programs/PMotorController.h">
<polygon fill="white" stroke="black" points="3483,-67.5 3483,-97.5 3641,-97.5 3641,-67.5 3483,-67.5"/>
<text text-anchor="start" x="3491" y="-85.5" font-family="Helvetica,sans-Serif" font-size="10.00">lib/carpi/src/runable</text>
<text text-anchor="middle" x="3562" y="-74.5" font-family="Helvetica,sans-Serif" font-size="10.00">/programs/PMotorController.h</text>
</a>
</g>
</g>
<!-- Node1&#45;&gt;Node32 -->
<g id="edge40" class="edge"><title>Node1&#45;&gt;Node32</title>
<path fill="none" stroke="midnightblue" d="M2199.24,-282.602C2393.72,-281.244 2918.17,-267.533 3340,-165 3410.02,-147.981 3488.37,-115.994 3530.72,-97.5597"/>
<polygon fill="midnightblue" stroke="midnightblue" points="2199.1,-279.103 2189.12,-282.664 2199.14,-286.103 2199.1,-279.103"/>
</g>
<!-- Node3 -->
<g id="node3" class="node"><title>Node3</title>
<g id="a_node3"><a xlink:href="_dashboard_slave_conf_8h.html" target="_top" xlink:title="car/Bonnie2019/Dashboard\lSlaveConf.h">
<polygon fill="white" stroke="black" points="1530.5,-67.5 1530.5,-97.5 1677.5,-97.5 1677.5,-67.5 1530.5,-67.5"/>
<text text-anchor="start" x="1538.5" y="-85.5" font-family="Helvetica,sans-Serif" font-size="10.00">car/Bonnie2019/Dashboard</text>
<text text-anchor="middle" x="1604" y="-74.5" font-family="Helvetica,sans-Serif" font-size="10.00">SlaveConf.h</text>
</a>
</g>
</g>
<!-- Node2&#45;&gt;Node3 -->
<g id="edge2" class="edge"><title>Node2&#45;&gt;Node3</title>
<path fill="none" stroke="midnightblue" d="M1814.66,-137.408C1771.65,-126.403 1705.6,-109.499 1658.94,-97.5592"/>
<polygon fill="midnightblue" stroke="midnightblue" points="1813.98,-140.847 1824.53,-139.936 1815.71,-134.066 1813.98,-140.847"/>
</g>
<!-- Node4 -->
<g id="node4" class="node"><title>Node4</title>
<g id="a_node4"><a xlink:href="_display_slave_conf_8h.html" target="_top" xlink:title="car/Bonnie2019/DisplaySlave\lConf.h">
<polygon fill="white" stroke="black" points="1695.5,-67.5 1695.5,-97.5 1850.5,-97.5 1850.5,-67.5 1695.5,-67.5"/>
<text text-anchor="start" x="1703.5" y="-85.5" font-family="Helvetica,sans-Serif" font-size="10.00">car/Bonnie2019/DisplaySlave</text>
<text text-anchor="middle" x="1773" y="-74.5" font-family="Helvetica,sans-Serif" font-size="10.00">Conf.h</text>
</a>
</g>
</g>
<!-- Node2&#45;&gt;Node4 -->
<g id="edge3" class="edge"><title>Node2&#45;&gt;Node4</title>
<path fill="none" stroke="midnightblue" d="M1838.44,-133.544C1824.29,-122.725 1805.3,-108.203 1791.42,-97.589"/>
<polygon fill="midnightblue" stroke="midnightblue" points="1836.47,-136.44 1846.54,-139.734 1840.72,-130.879 1836.47,-136.44"/>
</g>
<!-- Node5 -->
<g id="node5" class="node"><title>Node5</title>
<g id="a_node5"><a xlink:href="_lo_ra_conf_8h.html" target="_top" xlink:title="car/Bonnie2019/LoRaConf.h">
<polygon fill="white" stroke="black" points="1869,-73 1869,-92 2017,-92 2017,-73 1869,-73"/>
<text text-anchor="middle" x="1943" y="-80" font-family="Helvetica,sans-Serif" font-size="10.00">car/Bonnie2019/LoRaConf.h</text>
</a>
</g>
</g>
<!-- Node2&#45;&gt;Node5 -->
<g id="edge4" class="edge"><title>Node2&#45;&gt;Node5</title>
<path fill="none" stroke="midnightblue" d="M1877.53,-133.568C1894.3,-120.738 1917.91,-102.685 1931.72,-92.1273"/>
<polygon fill="midnightblue" stroke="midnightblue" points="1875.28,-130.879 1869.46,-139.734 1879.53,-136.44 1875.28,-130.879"/>
</g>
<!-- Node6 -->
<g id="node6" class="node"><title>Node6</title>
<g id="a_node6"><a xlink:href="_master_conf_8h.html" target="_top" xlink:title="car/Bonnie2019/MasterConf.h">
<polygon fill="white" stroke="black" points="2035,-73 2035,-92 2193,-92 2193,-73 2035,-73"/>
<text text-anchor="middle" x="2114" y="-80" font-family="Helvetica,sans-Serif" font-size="10.00">car/Bonnie2019/MasterConf.h</text>
</a>
</g>
</g>
<!-- Node2&#45;&gt;Node6 -->
<g id="edge5" class="edge"><title>Node2&#45;&gt;Node6</title>
<path fill="none" stroke="midnightblue" d="M1901.7,-137.404C1952.23,-124.576 2034.3,-103.736 2080.19,-92.0834"/>
<polygon fill="midnightblue" stroke="midnightblue" points="1900.56,-134.082 1891.73,-139.936 1902.28,-140.867 1900.56,-134.082"/>
</g>
<!-- Node7 -->
<g id="node7" class="node"><title>Node7</title>
<g id="a_node7"><a xlink:href="_pedal_slave_conf_8h.html" target="_top" xlink:title="car/Bonnie2019/PedalSlave\lConf.h">
<polygon fill="white" stroke="black" points="2211.5,-67.5 2211.5,-97.5 2358.5,-97.5 2358.5,-67.5 2211.5,-67.5"/>
<text text-anchor="start" x="2219.5" y="-85.5" font-family="Helvetica,sans-Serif" font-size="10.00">car/Bonnie2019/PedalSlave</text>
<text text-anchor="middle" x="2285" y="-74.5" font-family="Helvetica,sans-Serif" font-size="10.00">Conf.h</text>
</a>
</g>
</g>
<!-- Node2&#45;&gt;Node7 -->
<g id="edge6" class="edge"><title>Node2&#45;&gt;Node7</title>
<path fill="none" stroke="midnightblue" d="M1921.38,-139.722C1990.46,-130.031 2104.21,-113.716 2202,-98 2205.03,-97.5125 2208.13,-97.0075 2211.25,-96.491"/>
<polygon fill="midnightblue" stroke="midnightblue" points="1920.52,-136.308 1911.11,-141.161 1921.5,-143.24 1920.52,-136.308"/>
</g>
<!-- Node8 -->
<g id="node8" class="node"><title>Node8</title>
<g id="a_node8"><a xlink:href="_syntetic_sync_8h.html" target="_top" xlink:title="car/hardwareTest/mbed\l/helper/SynteticSync.h">
<polygon fill="white" stroke="black" points="2561,-67.5 2561,-97.5 2689,-97.5 2689,-67.5 2561,-67.5"/>
<text text-anchor="start" x="2569" y="-85.5" font-family="Helvetica,sans-Serif" font-size="10.00">car/hardwareTest/mbed</text>
<text text-anchor="middle" x="2625" y="-74.5" font-family="Helvetica,sans-Serif" font-size="10.00">/helper/SynteticSync.h</text>
</a>
</g>
</g>
<!-- Node2&#45;&gt;Node8 -->
<g id="edge7" class="edge"><title>Node2&#45;&gt;Node8</title>
<path fill="none" stroke="midnightblue" d="M1921.66,-146.496C2044.18,-142.059 2321.09,-129.212 2552,-98 2554.95,-97.6019 2557.95,-97.1583 2560.98,-96.6806"/>
<polygon fill="midnightblue" stroke="midnightblue" points="1921.21,-143.01 1911.34,-146.863 1921.46,-150.005 1921.21,-143.01"/>
</g>
<!-- Node10 -->
<g id="node10" class="node"><title>Node10</title>
<g id="a_node10"><a xlink:href="_hardware_s_d_card_stress_test_8h.html" target="_top" xlink:title="car/hardwareTest/mbed\l/HardwareSDCardStressTest.h">
<polygon fill="white" stroke="black" points="2544.5,-0.5 2544.5,-30.5 2705.5,-30.5 2705.5,-0.5 2544.5,-0.5"/>
<text text-anchor="start" x="2552.5" y="-18.5" font-family="Helvetica,sans-Serif" font-size="10.00">car/hardwareTest/mbed</text>
<text text-anchor="middle" x="2625" y="-7.5" font-family="Helvetica,sans-Serif" font-size="10.00">/HardwareSDCardStressTest.h</text>
</a>
</g>
</g>
<!-- Node2&#45;&gt;Node10 -->
<g id="edge17" class="edge"><title>Node2&#45;&gt;Node10</title>
<path fill="none" stroke="midnightblue" d="M1921.3,-147.042C2112.3,-142.336 2671.45,-126.199 2698,-98 2719.88,-74.7675 2681.6,-46.9285 2652.7,-30.5345"/>
<polygon fill="midnightblue" stroke="midnightblue" points="1921.05,-143.547 1911.13,-147.29 1921.22,-150.545 1921.05,-143.547"/>
</g>
<!-- Node11 -->
<g id="node11" class="node"><title>Node11</title>
<g id="a_node11"><a xlink:href="_hardware_s_d_card_test_8h.html" target="_top" xlink:title="car/hardwareTest/mbed\l/HardwareSDCardTest.h">
<polygon fill="white" stroke="black" points="2396,-0.5 2396,-30.5 2526,-30.5 2526,-0.5 2396,-0.5"/>
<text text-anchor="start" x="2404" y="-18.5" font-family="Helvetica,sans-Serif" font-size="10.00">car/hardwareTest/mbed</text>
<text text-anchor="middle" x="2461" y="-7.5" font-family="Helvetica,sans-Serif" font-size="10.00">/HardwareSDCardTest.h</text>
</a>
</g>
</g>
<!-- Node2&#45;&gt;Node11 -->
<g id="edge21" class="edge"><title>Node2&#45;&gt;Node11</title>
<path fill="none" stroke="midnightblue" d="M1921.59,-146.97C2039.77,-143.346 2288.42,-131.835 2367,-98 2376.22,-94.0279 2421.67,-52.8045 2445.83,-30.5574"/>
<polygon fill="midnightblue" stroke="midnightblue" points="1921.14,-143.481 1911.25,-147.277 1921.35,-150.478 1921.14,-143.481"/>
</g>
<!-- Node12 -->
<g id="node12" class="node"><title>Node12</title>
<g id="a_node12"><a xlink:href="_button_unit_test_8h.html" target="_top" xlink:title="car/hardwareTest/mbed\l/ButtonUnitTest.h">
<polygon fill="white" stroke="black" points="2745,-67.5 2745,-97.5 2873,-97.5 2873,-67.5 2745,-67.5"/>
<text text-anchor="start" x="2753" y="-85.5" font-family="Helvetica,sans-Serif" font-size="10.00">car/hardwareTest/mbed</text>
<text text-anchor="middle" x="2809" y="-74.5" font-family="Helvetica,sans-Serif" font-size="10.00">/ButtonUnitTest.h</text>
</a>
</g>
</g>
<!-- Node2&#45;&gt;Node12 -->
<g id="edge11" class="edge"><title>Node2&#45;&gt;Node12</title>
<path fill="none" stroke="midnightblue" d="M1921.35,-147.568C2065.58,-144.849 2429.29,-134.623 2731,-98 2735.51,-97.4523 2740.16,-96.8049 2744.83,-96.0925"/>
<polygon fill="midnightblue" stroke="midnightblue" points="1921.29,-144.068 1911.35,-147.751 1921.42,-151.067 1921.29,-144.068"/>
</g>
<!-- Node13 -->
<g id="node13" class="node"><title>Node13</title>
<g id="a_node13"><a xlink:href="_c_a_n_service_unit_test_8h.html" target="_top" xlink:title="car/hardwareTest/mbed\l/CANServiceUnitTest.h">
<polygon fill="white" stroke="black" points="2891,-67.5 2891,-97.5 3019,-97.5 3019,-67.5 2891,-67.5"/>
<text text-anchor="start" x="2899" y="-85.5" font-family="Helvetica,sans-Serif" font-size="10.00">car/hardwareTest/mbed</text>
<text text-anchor="middle" x="2955" y="-74.5" font-family="Helvetica,sans-Serif" font-size="10.00">/CANServiceUnitTest.h</text>
</a>
</g>
</g>
<!-- Node2&#45;&gt;Node13 -->
<g id="edge12" class="edge"><title>Node2&#45;&gt;Node13</title>
<path fill="none" stroke="midnightblue" d="M1921.48,-148.6C2082.64,-148.154 2520.5,-142.571 2882,-98 2884.95,-97.6363 2887.96,-97.221 2890.99,-96.7661"/>
<polygon fill="midnightblue" stroke="midnightblue" points="1921.26,-145.1 1911.27,-148.622 1921.27,-152.1 1921.26,-145.1"/>
</g>
<!-- Node14 -->
<g id="node14" class="node"><title>Node14</title>
<g id="a_node14"><a xlink:href="_dashboard_demo_8h.html" target="_top" xlink:title="car/hardwareTest/mbed\l/DashboardDemo.h">
<polygon fill="white" stroke="black" points="3037,-67.5 3037,-97.5 3165,-97.5 3165,-67.5 3037,-67.5"/>
<text text-anchor="start" x="3045" y="-85.5" font-family="Helvetica,sans-Serif" font-size="10.00">car/hardwareTest/mbed</text>
<text text-anchor="middle" x="3101" y="-74.5" font-family="Helvetica,sans-Serif" font-size="10.00">/DashboardDemo.h</text>
</a>
</g>
</g>
<!-- Node2&#45;&gt;Node14 -->
<g id="edge13" class="edge"><title>Node2&#45;&gt;Node14</title>
<path fill="none" stroke="midnightblue" d="M1921.11,-149.158C2097.05,-150.264 2607.67,-148.516 3028,-98 3030.95,-97.6454 3033.96,-97.2375 3036.99,-96.7886"/>
<polygon fill="midnightblue" stroke="midnightblue" points="1921.02,-145.657 1911,-149.089 1920.98,-152.657 1921.02,-145.657"/>
</g>
<!-- Node15 -->
<g id="node15" class="node"><title>Node15</title>
<g id="a_node15"><a xlink:href="_hardware_buzzer_unit_test_8h.html" target="_top" xlink:title="car/hardwareTest/mbed\l/HardwareBuzzerUnitTest.h">
<polygon fill="white" stroke="black" points="0,-67.5 0,-97.5 146,-97.5 146,-67.5 0,-67.5"/>
<text text-anchor="start" x="8" y="-85.5" font-family="Helvetica,sans-Serif" font-size="10.00">car/hardwareTest/mbed</text>
<text text-anchor="middle" x="73" y="-74.5" font-family="Helvetica,sans-Serif" font-size="10.00">/HardwareBuzzerUnitTest.h</text>
</a>
</g>
</g>
<!-- Node2&#45;&gt;Node15 -->
<g id="edge14" class="edge"><title>Node2&#45;&gt;Node15</title>
<path fill="none" stroke="midnightblue" d="M1794.61,-147.855C1526.22,-144.934 482.203,-131.601 155,-98 152.124,-97.7046 149.196,-97.3669 146.244,-96.9953"/>
<polygon fill="midnightblue" stroke="midnightblue" points="1794.91,-151.358 1804.95,-147.967 1794.99,-144.359 1794.91,-151.358"/>
</g>
<!-- Node16 -->
<g id="node16" class="node"><title>Node16</title>
<g id="a_node16"><a xlink:href="_hardware_pedal_unit_test_8h.html" target="_top" xlink:title="car/hardwareTest/mbed\l/HardwarePedalUnitTest.h">
<polygon fill="white" stroke="black" points="164.5,-67.5 164.5,-97.5 303.5,-97.5 303.5,-67.5 164.5,-67.5"/>
<text text-anchor="start" x="172.5" y="-85.5" font-family="Helvetica,sans-Serif" font-size="10.00">car/hardwareTest/mbed</text>
<text text-anchor="middle" x="234" y="-74.5" font-family="Helvetica,sans-Serif" font-size="10.00">/HardwarePedalUnitTest.h</text>
</a>
</g>
</g>
<!-- Node2&#45;&gt;Node16 -->
<g id="edge15" class="edge"><title>Node2&#45;&gt;Node16</title>
<path fill="none" stroke="midnightblue" d="M1794.74,-147.69C1542.42,-144.262 607.44,-129.655 313,-98 309.95,-97.6721 306.84,-97.2934 303.705,-96.8752"/>
<polygon fill="midnightblue" stroke="midnightblue" points="1794.79,-151.19 1804.83,-147.826 1794.88,-144.191 1794.79,-151.19"/>
</g>
<!-- Node17 -->
<g id="node17" class="node"><title>Node17</title>
<g id="a_node17"><a xlink:href="_hardware_pwm_buzzer_unit_test_8h.html" target="_top" xlink:title="car/hardwareTest/mbed\l/HardwarePwmBuzzerUnitTest.h">
<polygon fill="white" stroke="black" points="322,-67.5 322,-97.5 490,-97.5 490,-67.5 322,-67.5"/>
<text text-anchor="start" x="330" y="-85.5" font-family="Helvetica,sans-Serif" font-size="10.00">car/hardwareTest/mbed</text>
<text text-anchor="middle" x="406" y="-74.5" font-family="Helvetica,sans-Serif" font-size="10.00">/HardwarePwmBuzzerUnitTest.h</text>
</a>
</g>
</g>
<!-- Node2&#45;&gt;Node17 -->
<g id="edge16" class="edge"><title>Node2&#45;&gt;Node17</title>
<path fill="none" stroke="midnightblue" d="M1794.73,-148.786C1600.61,-149.1 996.556,-145.865 499,-98 496.072,-97.7183 493.096,-97.4046 490.094,-97.0647"/>
<polygon fill="midnightblue" stroke="midnightblue" points="1794.76,-152.286 1804.75,-148.766 1794.74,-145.286 1794.76,-152.286"/>
</g>
<!-- Node18 -->
<g id="node18" class="node"><title>Node18</title>
<g id="a_node18"><a xlink:href="_dummy_s_car_8h.html" target="_top" xlink:title="car/hardwareTest/mbed\l/helper/DummySCar.h">
<polygon fill="white" stroke="black" points="2415,-67.5 2415,-97.5 2543,-97.5 2543,-67.5 2415,-67.5"/>
<text text-anchor="start" x="2423" y="-85.5" font-family="Helvetica,sans-Serif" font-size="10.00">car/hardwareTest/mbed</text>
<text text-anchor="middle" x="2479" y="-74.5" font-family="Helvetica,sans-Serif" font-size="10.00">/helper/DummySCar.h</text>
</a>
</g>
</g>
<!-- Node2&#45;&gt;Node18 -->
<g id="edge18" class="edge"><title>Node2&#45;&gt;Node18</title>
<path fill="none" stroke="midnightblue" d="M1921.46,-144.48C2023.04,-137.624 2228.29,-122.033 2401,-98 2405.5,-97.3735 2410.14,-96.6676 2414.8,-95.9132"/>
<polygon fill="midnightblue" stroke="midnightblue" points="1921.11,-140.996 1911.37,-145.156 1921.58,-147.98 1921.11,-140.996"/>
</g>
<!-- Node19 -->
<g id="node19" class="node"><title>Node19</title>
<g id="a_node19"><a xlink:href="_l_e_d_p_w_m_unit_test_8h.html" target="_top" xlink:title="car/hardwareTest/mbed\l/LEDPWMUnitTest.h">
<polygon fill="white" stroke="black" points="508,-67.5 508,-97.5 636,-97.5 636,-67.5 508,-67.5"/>
<text text-anchor="start" x="516" y="-85.5" font-family="Helvetica,sans-Serif" font-size="10.00">car/hardwareTest/mbed</text>
<text text-anchor="middle" x="572" y="-74.5" font-family="Helvetica,sans-Serif" font-size="10.00">/LEDPWMUnitTest.h</text>
</a>
</g>
</g>
<!-- Node2&#45;&gt;Node19 -->
<g id="edge22" class="edge"><title>Node2&#45;&gt;Node19</title>
<path fill="none" stroke="midnightblue" d="M1794.49,-147.153C1578.14,-142.36 870.862,-124.969 645,-98 642.049,-97.6476 639.039,-97.2416 636.005,-96.7942"/>
<polygon fill="midnightblue" stroke="midnightblue" points="1794.64,-150.657 1804.72,-147.378 1794.8,-143.659 1794.64,-150.657"/>
</g>
<!-- Node20 -->
<g id="node20" class="node"><title>Node20</title>
<g id="a_node20"><a xlink:href="_l_e_d_unit_test_8h.html" target="_top" xlink:title="car/hardwareTest/mbed\l/LEDUnitTest.h">
<polygon fill="white" stroke="black" points="654,-67.5 654,-97.5 782,-97.5 782,-67.5 654,-67.5"/>
<text text-anchor="start" x="662" y="-85.5" font-family="Helvetica,sans-Serif" font-size="10.00">car/hardwareTest/mbed</text>
<text text-anchor="middle" x="718" y="-74.5" font-family="Helvetica,sans-Serif" font-size="10.00">/LEDUnitTest.h</text>
</a>
</g>
</g>
<!-- Node2&#45;&gt;Node20 -->
<g id="edge23" class="edge"><title>Node2&#45;&gt;Node20</title>
<path fill="none" stroke="midnightblue" d="M1794.74,-148.78C1629.21,-148.806 1169.86,-144.331 791,-98 788.05,-97.6393 785.041,-97.2263 782.007,-96.7734"/>
<polygon fill="midnightblue" stroke="midnightblue" points="1794.75,-152.28 1804.75,-148.773 1794.75,-145.28 1794.75,-152.28"/>
</g>
<!-- Node21 -->
<g id="node21" class="node"><title>Node21</title>
<g id="a_node21"><a xlink:href="_master_output_test_8h.html" target="_top" xlink:title="car/hardwareTest/mbed\l/MasterOutputTest.h">
<polygon fill="white" stroke="black" points="800,-67.5 800,-97.5 928,-97.5 928,-67.5 800,-67.5"/>
<text text-anchor="start" x="808" y="-85.5" font-family="Helvetica,sans-Serif" font-size="10.00">car/hardwareTest/mbed</text>
<text text-anchor="middle" x="864" y="-74.5" font-family="Helvetica,sans-Serif" font-size="10.00">/MasterOutputTest.h</text>
</a>
</g>
</g>
<!-- Node2&#45;&gt;Node21 -->
<g id="edge24" class="edge"><title>Node2&#45;&gt;Node21</title>
<path fill="none" stroke="midnightblue" d="M1794.43,-148.101C1644.52,-146.487 1257.39,-138.398 937,-98 934.051,-97.6282 931.044,-97.2062 928.011,-96.746"/>
<polygon fill="midnightblue" stroke="midnightblue" points="1794.78,-151.604 1804.81,-148.206 1794.85,-144.604 1794.78,-151.604"/>
</g>
<!-- Node22 -->
<g id="node22" class="node"><title>Node22</title>
<g id="a_node22"><a xlink:href="_pedal_unit_test_8h.html" target="_top" xlink:title="car/hardwareTest/mbed\l/PedalUnitTest.h">
<polygon fill="white" stroke="black" points="946,-67.5 946,-97.5 1074,-97.5 1074,-67.5 946,-67.5"/>
<text text-anchor="start" x="954" y="-85.5" font-family="Helvetica,sans-Serif" font-size="10.00">car/hardwareTest/mbed</text>
<text text-anchor="middle" x="1010" y="-74.5" font-family="Helvetica,sans-Serif" font-size="10.00">/PedalUnitTest.h</text>
</a>
</g>
</g>
<!-- Node2&#45;&gt;Node22 -->
<g id="edge25" class="edge"><title>Node2&#45;&gt;Node22</title>
<path fill="none" stroke="midnightblue" d="M1794.3,-147.171C1661.5,-143.781 1345.6,-132.485 1083,-98 1080.05,-97.6131 1077.05,-97.1786 1074.02,-96.7083"/>
<polygon fill="midnightblue" stroke="midnightblue" points="1794.59,-150.679 1804.68,-147.429 1794.77,-143.682 1794.59,-150.679"/>
</g>
<!-- Node23 -->
<g id="node23" class="node"><title>Node23</title>
<g id="a_node23"><a xlink:href="_pump_refill_8h.html" target="_top" xlink:title="car/hardwareTest/mbed\l/PumpRefill.h">
<polygon fill="white" stroke="black" points="1092,-67.5 1092,-97.5 1220,-97.5 1220,-67.5 1092,-67.5"/>
<text text-anchor="start" x="1100" y="-85.5" font-family="Helvetica,sans-Serif" font-size="10.00">car/hardwareTest/mbed</text>
<text text-anchor="middle" x="1156" y="-74.5" font-family="Helvetica,sans-Serif" font-size="10.00">/PumpRefill.h</text>
</a>
</g>
</g>
<!-- Node2&#45;&gt;Node23 -->
<g id="edge26" class="edge"><title>Node2&#45;&gt;Node23</title>
<path fill="none" stroke="midnightblue" d="M1794.49,-145.839C1680.7,-140.531 1434.71,-126.59 1229,-98 1226.06,-97.5909 1223.05,-97.1383 1220.02,-96.6532"/>
<polygon fill="midnightblue" stroke="midnightblue" points="1794.61,-149.348 1804.76,-146.312 1794.93,-142.356 1794.61,-149.348"/>
</g>
<!-- Node24 -->
<g id="node24" class="node"><title>Node24</title>
<g id="a_node24"><a xlink:href="_r_f_eand_r_u_ntest_8h.html" target="_top" xlink:title="car/hardwareTest/mbed\l/RFEandRUNtest.h">
<polygon fill="white" stroke="black" points="1238,-67.5 1238,-97.5 1366,-97.5 1366,-67.5 1238,-67.5"/>
<text text-anchor="start" x="1246" y="-85.5" font-family="Helvetica,sans-Serif" font-size="10.00">car/hardwareTest/mbed</text>
<text text-anchor="middle" x="1302" y="-74.5" font-family="Helvetica,sans-Serif" font-size="10.00">/RFEandRUNtest.h</text>
</a>
</g>
</g>
<!-- Node2&#45;&gt;Node24 -->
<g id="edge27" class="edge"><title>Node2&#45;&gt;Node24</title>
<path fill="none" stroke="midnightblue" d="M1794.87,-143.762C1702.41,-136.401 1524.85,-120.668 1375,-98 1372.06,-97.5555 1369.06,-97.0739 1366.04,-96.5653"/>
<polygon fill="midnightblue" stroke="midnightblue" points="1794.66,-147.257 1804.91,-144.555 1795.22,-140.278 1794.66,-147.257"/>
</g>
<!-- Node25 -->
<g id="node25" class="node"><title>Node25</title>
<g id="a_node25"><a xlink:href="_r_p_m_sensor_unit_test_8h.html" target="_top" xlink:title="car/hardwareTest/mbed\l/RPMSensorUnitTest.h">
<polygon fill="white" stroke="black" points="1384,-67.5 1384,-97.5 1512,-97.5 1512,-67.5 1384,-67.5"/>
<text text-anchor="start" x="1392" y="-85.5" font-family="Helvetica,sans-Serif" font-size="10.00">car/hardwareTest/mbed</text>
<text text-anchor="middle" x="1448" y="-74.5" font-family="Helvetica,sans-Serif" font-size="10.00">/RPMSensorUnitTest.h</text>
</a>
</g>
</g>
<!-- Node2&#45;&gt;Node25 -->
<g id="edge28" class="edge"><title>Node2&#45;&gt;Node25</title>
<path fill="none" stroke="midnightblue" d="M1794.66,-139.92C1726.82,-130.518 1616.07,-114.556 1521,-98 1518.07,-97.4901 1515.08,-96.9549 1512.06,-96.4028"/>
<polygon fill="midnightblue" stroke="midnightblue" points="1794.37,-143.414 1804.76,-141.315 1795.33,-136.48 1794.37,-143.414"/>
</g>
<!-- Node9 -->
<g id="node9" class="node"><title>Node9</title>
<g id="a_node9"><a xlink:href="_alive_component_test_8h.html" target="_top" xlink:title="car/hardwareTest/mbed\l/AliveComponentTest.h">
<polygon fill="white" stroke="black" points="2724,-0.5 2724,-30.5 2852,-30.5 2852,-0.5 2724,-0.5"/>
<text text-anchor="start" x="2732" y="-18.5" font-family="Helvetica,sans-Serif" font-size="10.00">car/hardwareTest/mbed</text>
<text text-anchor="middle" x="2788" y="-7.5" font-family="Helvetica,sans-Serif" font-size="10.00">/AliveComponentTest.h</text>
</a>
</g>
</g>
<!-- Node8&#45;&gt;Node9 -->
<g id="edge8" class="edge"><title>Node8&#45;&gt;Node9</title>
<path fill="none" stroke="midnightblue" d="M2669.68,-63.6815C2695.83,-53.2568 2728.37,-40.2805 2752.7,-30.5765"/>
<polygon fill="midnightblue" stroke="midnightblue" points="2668.36,-60.4408 2660.37,-67.396 2670.95,-66.9429 2668.36,-60.4408"/>
</g>
<!-- Node8&#45;&gt;Node10 -->
<g id="edge9" class="edge"><title>Node8&#45;&gt;Node10</title>
<path fill="none" stroke="midnightblue" d="M2625,-57.1081C2625,-48.1539 2625,-38.3227 2625,-30.5765"/>
<polygon fill="midnightblue" stroke="midnightblue" points="2621.5,-57.3959 2625,-67.396 2628.5,-57.396 2621.5,-57.3959"/>
</g>
<!-- Node8&#45;&gt;Node11 -->
<g id="edge10" class="edge"><title>Node8&#45;&gt;Node11</title>
<path fill="none" stroke="midnightblue" d="M2580.04,-63.6815C2553.74,-53.2568 2521,-40.2805 2496.52,-30.5765"/>
<polygon fill="midnightblue" stroke="midnightblue" points="2578.83,-66.9651 2589.41,-67.396 2581.41,-60.4576 2578.83,-66.9651"/>
</g>
<!-- Node18&#45;&gt;Node10 -->
<g id="edge19" class="edge"><title>Node18&#45;&gt;Node10</title>
<path fill="none" stroke="midnightblue" d="M2519.95,-63.2687C2543.2,-52.9159 2571.87,-40.1528 2593.38,-30.5765"/>
<polygon fill="midnightblue" stroke="midnightblue" points="2518.39,-60.1313 2510.68,-67.396 2521.24,-66.5262 2518.39,-60.1313"/>
</g>
<!-- Node18&#45;&gt;Node11 -->
<g id="edge20" class="edge"><title>Node18&#45;&gt;Node11</title>
<path fill="none" stroke="midnightblue" d="M2472.41,-57.6971C2469.89,-48.5871 2467.09,-38.4929 2464.9,-30.5765"/>
<polygon fill="midnightblue" stroke="midnightblue" points="2469.05,-58.6928 2475.09,-67.396 2475.8,-56.8246 2469.05,-58.6928"/>
</g>
<!-- Node26&#45;&gt;Node2 -->
<g id="edge30" class="edge"><title>Node26&#45;&gt;Node2</title>
<path fill="none" stroke="midnightblue" d="M1929.36,-195.975C1910.02,-183.649 1886,-168.345 1871.35,-159.007"/>
<polygon fill="midnightblue" stroke="midnightblue" points="1927.55,-198.973 1937.87,-201.396 1931.32,-193.07 1927.55,-198.973"/>
</g>
<!-- Node27&#45;&gt;Node2 -->
<g id="edge32" class="edge"><title>Node27&#45;&gt;Node2</title>
<path fill="none" stroke="midnightblue" d="M2055.27,-199.069C2003.5,-186.323 1933.83,-169.169 1892.64,-159.029"/>
<polygon fill="midnightblue" stroke="midnightblue" points="2054.49,-202.484 2065.04,-201.476 2056.17,-195.687 2054.49,-202.484"/>
</g>
<!-- Node29 -->
<g id="node29" class="node"><title>Node29</title>
<g id="a_node29"><a xlink:href="_s_car_8h.html" target="_top" xlink:title="lib/carpi/src/runable\l/services/SCar.h">
<polygon fill="white" stroke="black" points="3221,-134.5 3221,-164.5 3331,-164.5 3331,-134.5 3221,-134.5"/>
<text text-anchor="start" x="3229" y="-152.5" font-family="Helvetica,sans-Serif" font-size="10.00">lib/carpi/src/runable</text>
<text text-anchor="middle" x="3276" y="-141.5" font-family="Helvetica,sans-Serif" font-size="10.00">/services/SCar.h</text>
</a>
</g>
</g>
<!-- Node28&#45;&gt;Node29 -->
<g id="edge34" class="edge"><title>Node28&#45;&gt;Node29</title>
<path fill="none" stroke="midnightblue" d="M2808.83,-206.218C2920.45,-192.905 3123.27,-168.716 3220.76,-157.088"/>
<polygon fill="midnightblue" stroke="midnightblue" points="2808.16,-202.772 2798.65,-207.432 2808.99,-209.723 2808.16,-202.772"/>
</g>
<!-- Node30 -->
<g id="node30" class="node"><title>Node30</title>
<g id="a_node30"><a xlink:href="_p_cooling_8h.html" target="_top" xlink:title="lib/carpi/src/runable\l/programs/PCooling.h">
<polygon fill="white" stroke="black" points="3174.5,-0.5 3174.5,-30.5 3293.5,-30.5 3293.5,-0.5 3174.5,-0.5"/>
<text text-anchor="start" x="3182.5" y="-18.5" font-family="Helvetica,sans-Serif" font-size="10.00">lib/carpi/src/runable</text>
<text text-anchor="middle" x="3234" y="-7.5" font-family="Helvetica,sans-Serif" font-size="10.00">/programs/PCooling.h</text>
</a>
</g>
</g>
<!-- Node29&#45;&gt;Node30 -->
<g id="edge35" class="edge"><title>Node29&#45;&gt;Node30</title>
<path fill="none" stroke="midnightblue" d="M3239.88,-128.803C3228.85,-120.81 3218.05,-110.483 3212,-98 3201.2,-75.7124 3214.24,-47.3332 3224.36,-30.6183"/>
<polygon fill="midnightblue" stroke="midnightblue" points="3238.02,-131.776 3248.28,-134.456 3241.93,-125.969 3238.02,-131.776"/>
</g>
<!-- Node31 -->
<g id="node31" class="node"><title>Node31</title>
<g id="a_node31"><a xlink:href="_p_logger_8h.html" target="_top" xlink:title="lib/carpi/src/runable\l/programs/PLogger.h">
<polygon fill="white" stroke="black" points="3349,-67.5 3349,-97.5 3465,-97.5 3465,-67.5 3349,-67.5"/>
<text text-anchor="start" x="3357" y="-85.5" font-family="Helvetica,sans-Serif" font-size="10.00">lib/carpi/src/runable</text>
<text text-anchor="middle" x="3407" y="-74.5" font-family="Helvetica,sans-Serif" font-size="10.00">/programs/PLogger.h</text>
</a>
</g>
</g>
<!-- Node29&#45;&gt;Node31 -->
<g id="edge36" class="edge"><title>Node29&#45;&gt;Node31</title>
<path fill="none" stroke="midnightblue" d="M3313.58,-129.853C3334.29,-119.576 3359.59,-107.025 3378.63,-97.5765"/>
<polygon fill="midnightblue" stroke="midnightblue" points="3311.83,-126.816 3304.43,-134.396 3314.94,-133.086 3311.83,-126.816"/>
</g>
<!-- Node29&#45;&gt;Node32 -->
<g id="edge37" class="edge"><title>Node29&#45;&gt;Node32</title>
<path fill="none" stroke="midnightblue" d="M3341.07,-133.71C3388.86,-122.85 3453.36,-108.191 3500.33,-97.5165"/>
<polygon fill="midnightblue" stroke="midnightblue" points="3340.12,-130.338 3331.14,-135.967 3341.67,-137.164 3340.12,-130.338"/>
</g>
<!-- Node33 -->
<g id="node33" class="node"><title>Node33</title>
<g id="a_node33"><a xlink:href="_s_speed_8h.html" target="_top" xlink:title="lib/carpi/src/runable\l/services/SSpeed.h">
<polygon fill="white" stroke="black" points="3221,-67.5 3221,-97.5 3331,-97.5 3331,-67.5 3221,-67.5"/>
<text text-anchor="start" x="3229" y="-85.5" font-family="Helvetica,sans-Serif" font-size="10.00">lib/carpi/src/runable</text>
<text text-anchor="middle" x="3276" y="-74.5" font-family="Helvetica,sans-Serif" font-size="10.00">/services/SSpeed.h</text>
</a>
</g>
</g>
<!-- Node29&#45;&gt;Node33 -->
<g id="edge38" class="edge"><title>Node29&#45;&gt;Node33</title>
<path fill="none" stroke="midnightblue" d="M3276,-124.108C3276,-115.154 3276,-105.323 3276,-97.5765"/>
<polygon fill="midnightblue" stroke="midnightblue" points="3272.5,-124.396 3276,-134.396 3279.5,-124.396 3272.5,-124.396"/>
</g>
<!-- Node33&#45;&gt;Node30 -->
<g id="edge39" class="edge"><title>Node33&#45;&gt;Node30</title>
<path fill="none" stroke="midnightblue" d="M3261.38,-58.8669C3255.3,-49.4594 3248.43,-38.8334 3243.1,-30.5765"/>
<polygon fill="midnightblue" stroke="midnightblue" points="3258.52,-60.8963 3266.89,-67.396 3264.4,-57.0973 3258.52,-60.8963"/>
</g>
</g>
</svg>
