<?xml version="1.0" encoding="UTF-8" standalone="no"?>
<!DOCTYPE svg PUBLIC "-//W3C//DTD SVG 1.1//EN"
 "http://www.w3.org/Graphics/SVG/1.1/DTD/svg11.dtd">
<!-- Generated by graphviz version 2.38.0 (20140413.2041)
 -->
<!-- Title: lib/carpi/src/runable/programs/IProgram.h Pages: 1 -->
<!--zoomable 307 -->
<svg id="main" version="1.1" xmlns="http://www.w3.org/2000/svg" xmlns:xlink="http://www.w3.org/1999/xlink" xml:space="preserve" onload="init(evt)">
<style type="text/css"><![CDATA[
.edge:hover path { stroke: red; }
.edge:hover polygon { stroke: red; fill: red; }
]]></style>
<script type="text/javascript"><![CDATA[
var edges = document.getElementsByTagName('g');
if (edges && edges.length) {
  for (var i=0;i<edges.length;i++) {
    if (edges[i].id.substr(0,4)=='edge') {
      edges[i].setAttribute('class','edge');
    }
  }
}
]]></script>
        <defs>
                <circle id="rim" cx="0" cy="0" r="7"/>
                <circle id="rim2" cx="0" cy="0" r="3.5"/>
                <g id="zoomPlus">
                        <use xlink:href="#rim" fill="#404040">
                                <set attributeName="fill" to="#808080" begin="zoomplus.mouseover" end="zoomplus.mouseout"/>
                        </use>
                        <path d="M-4,0h8M0,-4v8" fill="none" stroke="white" stroke-width="1.5" pointer-events="none"/>
                </g>
                <g id="zoomMin">
                        <use xlink:href="#rim" fill="#404040">
                                <set attributeName="fill" to="#808080" begin="zoomminus.mouseover" end="zoomminus.mouseout"/>
                        </use>
                        <path d="M-4,0h8" fill="none" stroke="white" stroke-width="1.5" pointer-events="none"/>
                </g>
                <g id="dirArrow">
                        <path fill="none" stroke="white" stroke-width="1.5" d="M0,-3.0v7 M-2.5,-0.5L0,-3.0L2.5,-0.5"/>
                </g>
               <g id="resetDef">
                       <use xlink:href="#rim2" fill="#404040">
                               <set attributeName="fill" to="#808080" begin="reset.mouseover" end="reset.mouseout"/>
                       </use>
               </g>
        </defs>

<script type="text/javascript">
var viewWidth = 3688;
var viewHeight = 307;
var sectionId = 'dynsection-1';
</script>
<script xlink:href="svgpan.js"/>
<svg id="graph" class="graph">
<g id="viewport">
<title>lib/carpi/src/runable/programs/IProgram.h</title>
<polygon fill="white" stroke="none" points="-4,4 -4,-303 3684,-303 3684,4 -4,4"/>
<!-- Node1 -->
<g id="node1" class="node"><title>Node1</title>
<polygon fill="#bfbfbf" stroke="black" points="3311,-268.5 3311,-298.5 3433,-298.5 3433,-268.5 3311,-268.5"/>
<text text-anchor="start" x="3319" y="-286.5" font-family="Helvetica,sans-Serif" font-size="10.00">lib/carpi/src/runable</text>
<text text-anchor="middle" x="3372" y="-275.5" font-family="Helvetica,sans-Serif" font-size="10.00">/programs/IProgram.h</text>
</g>
<!-- Node2 -->
<g id="node2" class="node"><title>Node2</title>
<g id="a_node2"><a xlink:href="carpi_8h.html" target="_top" xlink:title="lib/carpi/src/carpi.h">
<polygon fill="white" stroke="black" points="1720,-207 1720,-226 1826,-226 1826,-207 1720,-207"/>
<text text-anchor="middle" x="1773" y="-214" font-family="Helvetica,sans-Serif" font-size="10.00">lib/carpi/src/carpi.h</text>
</a>
</g>
</g>
<!-- Node1&#45;&gt;Node2 -->
<g id="edge1" class="edge"><title>Node1&#45;&gt;Node2</title>
<path fill="none" stroke="midnightblue" d="M3300.66,-279.6C3029.21,-268.565 2064.07,-229.332 1826.25,-219.665"/>
<polygon fill="midnightblue" stroke="midnightblue" points="3300.65,-283.102 3310.78,-280.012 3300.93,-276.108 3300.65,-283.102"/>
</g>
<!-- Node26 -->
<g id="node26" class="node"><title>Node26</title>
<g id="a_node26"><a xlink:href="_p_brake_light_8h.html" target="_top" xlink:title="lib/carpi/src/runable\l/programs/PBrakeLight.h">
<polygon fill="white" stroke="black" points="3221.5,-201.5 3221.5,-231.5 3356.5,-231.5 3356.5,-201.5 3221.5,-201.5"/>
<text text-anchor="start" x="3229.5" y="-219.5" font-family="Helvetica,sans-Serif" font-size="10.00">lib/carpi/src/runable</text>
<text text-anchor="middle" x="3289" y="-208.5" font-family="Helvetica,sans-Serif" font-size="10.00">/programs/PBrakeLight.h</text>
</a>
</g>
</g>
<!-- Node1&#45;&gt;Node26 -->
<g id="edge29" class="edge"><title>Node1&#45;&gt;Node26</title>
<path fill="none" stroke="midnightblue" d="M3346.04,-262.168C3333.35,-252.228 3318.39,-240.514 3306.97,-231.577"/>
<polygon fill="midnightblue" stroke="midnightblue" points="3343.96,-264.986 3353.99,-268.396 3348.28,-259.475 3343.96,-264.986"/>
</g>
<!-- Node28 -->
<g id="node28" class="node"><title>Node28</title>
<g id="a_node28"><a xlink:href="_p_cooling_8h.html" target="_top" xlink:title="lib/carpi/src/runable\l/programs/PCooling.h">
<polygon fill="white" stroke="black" points="3217.5,-0.5 3217.5,-30.5 3336.5,-30.5 3336.5,-0.5 3217.5,-0.5"/>
<text text-anchor="start" x="3225.5" y="-18.5" font-family="Helvetica,sans-Serif" font-size="10.00">lib/carpi/src/runable</text>
<text text-anchor="middle" x="3277" y="-7.5" font-family="Helvetica,sans-Serif" font-size="10.00">/programs/PCooling.h</text>
</a>
</g>
</g>
<!-- Node1&#45;&gt;Node28 -->
<g id="edge38" class="edge"><title>Node1&#45;&gt;Node28</title>
<path fill="none" stroke="midnightblue" d="M3300.95,-278.57C3268.34,-272.774 3232.44,-259.891 3212,-232 3195.26,-209.16 3142.07,-211.946 3213,-67 3220.65,-51.3631 3235.73,-39.0944 3249.32,-30.567"/>
<polygon fill="midnightblue" stroke="midnightblue" points="3300.52,-282.046 3310.95,-280.15 3301.62,-275.132 3300.52,-282.046"/>
</g>
<!-- Node29 -->
<g id="node29" class="node"><title>Node29</title>
<g id="a_node29"><a xlink:href="_p_logger_8h.html" target="_top" xlink:title="lib/carpi/src/runable\l/programs/PLogger.h">
<polygon fill="white" stroke="black" points="3388,-67.5 3388,-97.5 3504,-97.5 3504,-67.5 3388,-67.5"/>
<text text-anchor="start" x="3396" y="-85.5" font-family="Helvetica,sans-Serif" font-size="10.00">lib/carpi/src/runable</text>
<text text-anchor="middle" x="3446" y="-74.5" font-family="Helvetica,sans-Serif" font-size="10.00">/programs/PLogger.h</text>
</a>
</g>
</g>
<!-- Node1&#45;&gt;Node29 -->
<g id="edge39" class="edge"><title>Node1&#45;&gt;Node29</title>
<path fill="none" stroke="midnightblue" d="M3443.22,-270.443C3484.8,-261.793 3531.48,-248.722 3544,-232 3579.63,-184.399 3506.27,-124.418 3467.68,-97.5914"/>
<polygon fill="midnightblue" stroke="midnightblue" points="3442.45,-267.028 3433.34,-272.438 3443.84,-273.89 3442.45,-267.028"/>
</g>
<!-- Node30 -->
<g id="node30" class="node"><title>Node30</title>
<g id="a_node30"><a xlink:href="_p_motor_controller_8h.html" target="_top" xlink:title="lib/carpi/src/runable\l/programs/PMotorController.h">
<polygon fill="white" stroke="black" points="3522,-67.5 3522,-97.5 3680,-97.5 3680,-67.5 3522,-67.5"/>
<text text-anchor="start" x="3530" y="-85.5" font-family="Helvetica,sans-Serif" font-size="10.00">lib/carpi/src/runable</text>
<text text-anchor="middle" x="3601" y="-74.5" font-family="Helvetica,sans-Serif" font-size="10.00">/programs/PMotorController.h</text>
</a>
</g>
</g>
<!-- Node1&#45;&gt;Node30 -->
<g id="edge40" class="edge"><title>Node1&#45;&gt;Node30</title>
<path fill="none" stroke="midnightblue" d="M3443.3,-280.522C3483.21,-275.681 3531.01,-263.083 3562,-232 3599.08,-194.814 3602.18,-126.921 3601.65,-97.6019"/>
<polygon fill="midnightblue" stroke="midnightblue" points="3442.91,-277.044 3433.35,-281.592 3443.66,-284.003 3442.91,-277.044"/>
</g>
<!-- Node32 -->
<g id="node32" class="node"><title>Node32</title>
<g id="a_node32"><a xlink:href="_p_cockpit_indicator_8h.html" target="_top" xlink:title="lib/carpi/src/runable\l/programs/PCockpitIndicator.h">
<polygon fill="white" stroke="black" points="3375,-201.5 3375,-231.5 3535,-231.5 3535,-201.5 3375,-201.5"/>
<text text-anchor="start" x="3383" y="-219.5" font-family="Helvetica,sans-Serif" font-size="10.00">lib/carpi/src/runable</text>
<text text-anchor="middle" x="3455" y="-208.5" font-family="Helvetica,sans-Serif" font-size="10.00">/programs/PCockpitIndicator.h</text>
</a>
</g>
</g>
<!-- Node1&#45;&gt;Node32 -->
<g id="edge36" class="edge"><title>Node1&#45;&gt;Node32</title>
<path fill="none" stroke="midnightblue" d="M3397.96,-262.168C3410.65,-252.228 3425.61,-240.514 3437.03,-231.577"/>
<polygon fill="midnightblue" stroke="midnightblue" points="3395.72,-259.475 3390.01,-268.396 3400.04,-264.986 3395.72,-259.475"/>
</g>
<!-- Node3 -->
<g id="node3" class="node"><title>Node3</title>
<g id="a_node3"><a xlink:href="_dashboard_slave_conf_8h.html" target="_top" xlink:title="car/Bonnie2019/Dashboard\lSlaveConf.h">
<polygon fill="white" stroke="black" points="1530.5,-134.5 1530.5,-164.5 1677.5,-164.5 1677.5,-134.5 1530.5,-134.5"/>
<text text-anchor="start" x="1538.5" y="-152.5" font-family="Helvetica,sans-Serif" font-size="10.00">car/Bonnie2019/Dashboard</text>
<text text-anchor="middle" x="1604" y="-141.5" font-family="Helvetica,sans-Serif" font-size="10.00">SlaveConf.h</text>
</a>
</g>
</g>
<!-- Node2&#45;&gt;Node3 -->
<g id="edge2" class="edge"><title>Node2&#45;&gt;Node3</title>
<path fill="none" stroke="midnightblue" d="M1741.03,-203.202C1712.39,-192.188 1670.41,-176.042 1640.47,-164.528"/>
<polygon fill="midnightblue" stroke="midnightblue" points="1739.97,-206.545 1750.56,-206.869 1742.48,-200.012 1739.97,-206.545"/>
</g>
<!-- Node4 -->
<g id="node4" class="node"><title>Node4</title>
<g id="a_node4"><a xlink:href="_display_slave_conf_8h.html" target="_top" xlink:title="car/Bonnie2019/DisplaySlave\lConf.h">
<polygon fill="white" stroke="black" points="1695.5,-134.5 1695.5,-164.5 1850.5,-164.5 1850.5,-134.5 1695.5,-134.5"/>
<text text-anchor="start" x="1703.5" y="-152.5" font-family="Helvetica,sans-Serif" font-size="10.00">car/Bonnie2019/DisplaySlave</text>
<text text-anchor="middle" x="1773" y="-141.5" font-family="Helvetica,sans-Serif" font-size="10.00">Conf.h</text>
</a>
</g>
</g>
<!-- Node2&#45;&gt;Node4 -->
<g id="edge3" class="edge"><title>Node2&#45;&gt;Node4</title>
<path fill="none" stroke="midnightblue" d="M1773,-196.411C1773,-186.222 1773,-173.901 1773,-164.589"/>
<polygon fill="midnightblue" stroke="midnightblue" points="1769.5,-196.734 1773,-206.734 1776.5,-196.734 1769.5,-196.734"/>
</g>
<!-- Node5 -->
<g id="node5" class="node"><title>Node5</title>
<g id="a_node5"><a xlink:href="_lo_ra_conf_8h.html" target="_top" xlink:title="car/Bonnie2019/LoRaConf.h">
<polygon fill="white" stroke="black" points="1869,-140 1869,-159 2017,-159 2017,-140 1869,-140"/>
<text text-anchor="middle" x="1943" y="-147" font-family="Helvetica,sans-Serif" font-size="10.00">car/Bonnie2019/LoRaConf.h</text>
</a>
</g>
</g>
<!-- Node2&#45;&gt;Node5 -->
<g id="edge4" class="edge"><title>Node2&#45;&gt;Node5</title>
<path fill="none" stroke="midnightblue" d="M1804.98,-203.271C1838.72,-190.37 1891.02,-170.376 1920.6,-159.064"/>
<polygon fill="midnightblue" stroke="midnightblue" points="1803.67,-200.028 1795.57,-206.869 1806.17,-206.566 1803.67,-200.028"/>
</g>
<!-- Node6 -->
<g id="node6" class="node"><title>Node6</title>
<g id="a_node6"><a xlink:href="_master_conf_8h.html" target="_top" xlink:title="car/Bonnie2019/MasterConf.h">
<polygon fill="white" stroke="black" points="2035,-140 2035,-159 2193,-159 2193,-140 2035,-140"/>
<text text-anchor="middle" x="2114" y="-147" font-family="Helvetica,sans-Serif" font-size="10.00">car/Bonnie2019/MasterConf.h</text>
</a>
</g>
</g>
<!-- Node2&#45;&gt;Node6 -->
<g id="edge5" class="edge"><title>Node2&#45;&gt;Node6</title>
<path fill="none" stroke="midnightblue" d="M1827.89,-205.037C1894.96,-192.253 2007.15,-170.868 2069.24,-159.032"/>
<polygon fill="midnightblue" stroke="midnightblue" points="1827.1,-201.625 1817.93,-206.936 1828.41,-208.501 1827.1,-201.625"/>
</g>
<!-- Node7 -->
<g id="node7" class="node"><title>Node7</title>
<g id="a_node7"><a xlink:href="_pedal_slave_conf_8h.html" target="_top" xlink:title="car/Bonnie2019/PedalSlave\lConf.h">
<polygon fill="white" stroke="black" points="2211.5,-134.5 2211.5,-164.5 2358.5,-164.5 2358.5,-134.5 2211.5,-134.5"/>
<text text-anchor="start" x="2219.5" y="-152.5" font-family="Helvetica,sans-Serif" font-size="10.00">car/Bonnie2019/PedalSlave</text>
<text text-anchor="middle" x="2285" y="-141.5" font-family="Helvetica,sans-Serif" font-size="10.00">Conf.h</text>
</a>
</g>
</g>
<!-- Node2&#45;&gt;Node7 -->
<g id="edge6" class="edge"><title>Node2&#45;&gt;Node7</title>
<path fill="none" stroke="midnightblue" d="M1836.42,-209.152C1920.27,-200.504 2072.53,-183.914 2202,-165 2205.04,-164.556 2208.14,-164.087 2211.27,-163.601"/>
<polygon fill="midnightblue" stroke="midnightblue" points="1835.89,-205.689 1826.3,-210.192 1836.6,-212.652 1835.89,-205.689"/>
</g>
<!-- Node8 -->
<g id="node8" class="node"><title>Node8</title>
<g id="a_node8"><a xlink:href="_syntetic_sync_8h.html" target="_top" xlink:title="car/hardwareTest/mbed\l/helper/SynteticSync.h">
<polygon fill="white" stroke="black" points="2561,-134.5 2561,-164.5 2689,-164.5 2689,-134.5 2561,-134.5"/>
<text text-anchor="start" x="2569" y="-152.5" font-family="Helvetica,sans-Serif" font-size="10.00">car/hardwareTest/mbed</text>
<text text-anchor="middle" x="2625" y="-141.5" font-family="Helvetica,sans-Serif" font-size="10.00">/helper/SynteticSync.h</text>
</a>
</g>
</g>
<!-- Node2&#45;&gt;Node8 -->
<g id="edge7" class="edge"><title>Node2&#45;&gt;Node8</title>
<path fill="none" stroke="midnightblue" d="M1836.14,-214.215C1969.09,-210.893 2287.45,-199.696 2552,-165 2554.95,-164.614 2557.95,-164.179 2560.98,-163.71"/>
<polygon fill="midnightblue" stroke="midnightblue" points="1836.04,-210.716 1826.13,-214.459 1836.21,-217.714 1836.04,-210.716"/>
</g>
<!-- Node10 -->
<g id="node10" class="node"><title>Node10</title>
<g id="a_node10"><a xlink:href="_hardware_s_d_card_stress_test_8h.html" target="_top" xlink:title="car/hardwareTest/mbed\l/HardwareSDCardStressTest.h">
<polygon fill="white" stroke="black" points="2544.5,-67.5 2544.5,-97.5 2705.5,-97.5 2705.5,-67.5 2544.5,-67.5"/>
<text text-anchor="start" x="2552.5" y="-85.5" font-family="Helvetica,sans-Serif" font-size="10.00">car/hardwareTest/mbed</text>
<text text-anchor="middle" x="2625" y="-74.5" font-family="Helvetica,sans-Serif" font-size="10.00">/HardwareSDCardStressTest.h</text>
</a>
</g>
</g>
<!-- Node2&#45;&gt;Node10 -->
<g id="edge17" class="edge"><title>Node2&#45;&gt;Node10</title>
<path fill="none" stroke="midnightblue" d="M1836.35,-214.405C2040.3,-210.576 2668.38,-196.279 2698,-165 2719.94,-141.828 2681.65,-113.97 2652.73,-97.5559"/>
<polygon fill="midnightblue" stroke="midnightblue" points="1836.03,-210.911 1826.1,-214.596 1836.16,-217.909 1836.03,-210.911"/>
</g>
<!-- Node11 -->
<g id="node11" class="node"><title>Node11</title>
<g id="a_node11"><a xlink:href="_hardware_s_d_card_test_8h.html" target="_top" xlink:title="car/hardwareTest/mbed\l/HardwareSDCardTest.h">
<polygon fill="white" stroke="black" points="2396,-67.5 2396,-97.5 2526,-97.5 2526,-67.5 2396,-67.5"/>
<text text-anchor="start" x="2404" y="-85.5" font-family="Helvetica,sans-Serif" font-size="10.00">car/hardwareTest/mbed</text>
<text text-anchor="middle" x="2461" y="-74.5" font-family="Helvetica,sans-Serif" font-size="10.00">/HardwareSDCardTest.h</text>
</a>
</g>
</g>
<!-- Node2&#45;&gt;Node11 -->
<g id="edge21" class="edge"><title>Node2&#45;&gt;Node11</title>
<path fill="none" stroke="midnightblue" d="M1836.43,-215.032C1969.37,-213.257 2272.68,-204.827 2367,-165 2376.25,-161.093 2421.68,-119.84 2445.83,-97.572"/>
<polygon fill="midnightblue" stroke="midnightblue" points="1836.35,-211.532 1826.39,-215.157 1836.44,-218.532 1836.35,-211.532"/>
</g>
<!-- Node12 -->
<g id="node12" class="node"><title>Node12</title>
<g id="a_node12"><a xlink:href="_button_unit_test_8h.html" target="_top" xlink:title="car/hardwareTest/mbed\l/ButtonUnitTest.h">
<polygon fill="white" stroke="black" points="2745,-134.5 2745,-164.5 2873,-164.5 2873,-134.5 2745,-134.5"/>
<text text-anchor="start" x="2753" y="-152.5" font-family="Helvetica,sans-Serif" font-size="10.00">car/hardwareTest/mbed</text>
<text text-anchor="middle" x="2809" y="-141.5" font-family="Helvetica,sans-Serif" font-size="10.00">/ButtonUnitTest.h</text>
</a>
</g>
</g>
<!-- Node2&#45;&gt;Node12 -->
<g id="edge11" class="edge"><title>Node2&#45;&gt;Node12</title>
<path fill="none" stroke="midnightblue" d="M1836.38,-215.027C1990.24,-213.254 2395.53,-204.849 2731,-165 2735.51,-164.464 2740.16,-163.825 2744.83,-163.119"/>
<polygon fill="midnightblue" stroke="midnightblue" points="1836.13,-211.529 1826.17,-215.139 1836.21,-218.529 1836.13,-211.529"/>
</g>
<!-- Node13 -->
<g id="node13" class="node"><title>Node13</title>
<g id="a_node13"><a xlink:href="_c_a_n_service_unit_test_8h.html" target="_top" xlink:title="car/hardwareTest/mbed\l/CANServiceUnitTest.h">
<polygon fill="white" stroke="black" points="2891,-134.5 2891,-164.5 3019,-164.5 3019,-134.5 2891,-134.5"/>
<text text-anchor="start" x="2899" y="-152.5" font-family="Helvetica,sans-Serif" font-size="10.00">car/hardwareTest/mbed</text>
<text text-anchor="middle" x="2955" y="-141.5" font-family="Helvetica,sans-Serif" font-size="10.00">/CANServiceUnitTest.h</text>
</a>
</g>
</g>
<!-- Node2&#45;&gt;Node13 -->
<g id="edge12" class="edge"><title>Node2&#45;&gt;Node13</title>
<path fill="none" stroke="midnightblue" d="M1836.06,-215.942C2005.77,-216.418 2486.14,-213.05 2882,-165 2884.95,-164.642 2887.96,-164.231 2890.99,-163.78"/>
<polygon fill="midnightblue" stroke="midnightblue" points="1836.06,-212.442 1826.05,-215.909 1836.04,-219.442 1836.06,-212.442"/>
</g>
<!-- Node14 -->
<g id="node14" class="node"><title>Node14</title>
<g id="a_node14"><a xlink:href="_dashboard_demo_8h.html" target="_top" xlink:title="car/hardwareTest/mbed\l/DashboardDemo.h">
<polygon fill="white" stroke="black" points="3037,-134.5 3037,-164.5 3165,-164.5 3165,-134.5 3037,-134.5"/>
<text text-anchor="start" x="3045" y="-152.5" font-family="Helvetica,sans-Serif" font-size="10.00">car/hardwareTest/mbed</text>
<text text-anchor="middle" x="3101" y="-141.5" font-family="Helvetica,sans-Serif" font-size="10.00">/DashboardDemo.h</text>
</a>
</g>
</g>
<!-- Node2&#45;&gt;Node14 -->
<g id="edge13" class="edge"><title>Node2&#45;&gt;Node14</title>
<path fill="none" stroke="midnightblue" d="M1836.48,-214.255C2057.65,-209.714 2793.53,-192.832 3028,-165 3030.95,-164.65 3033.96,-164.245 3037,-163.799"/>
<polygon fill="midnightblue" stroke="midnightblue" points="1836.27,-210.759 1826.34,-214.462 1836.41,-217.757 1836.27,-210.759"/>
</g>
<!-- Node15 -->
<g id="node15" class="node"><title>Node15</title>
<g id="a_node15"><a xlink:href="_hardware_buzzer_unit_test_8h.html" target="_top" xlink:title="car/hardwareTest/mbed\l/HardwareBuzzerUnitTest.h">
<polygon fill="white" stroke="black" points="0,-134.5 0,-164.5 146,-164.5 146,-134.5 0,-134.5"/>
<text text-anchor="start" x="8" y="-152.5" font-family="Helvetica,sans-Serif" font-size="10.00">car/hardwareTest/mbed</text>
<text text-anchor="middle" x="73" y="-141.5" font-family="Helvetica,sans-Serif" font-size="10.00">/HardwareBuzzerUnitTest.h</text>
</a>
</g>
</g>
<!-- Node2&#45;&gt;Node15 -->
<g id="edge14" class="edge"><title>Node2&#45;&gt;Node15</title>
<path fill="none" stroke="midnightblue" d="M1709.77,-214.743C1450.09,-211.446 464.655,-197.042 155,-165 152.124,-164.702 149.197,-164.363 146.244,-163.99"/>
<polygon fill="midnightblue" stroke="midnightblue" points="1709.75,-218.243 1719.79,-214.869 1709.83,-211.243 1709.75,-218.243"/>
</g>
<!-- Node16 -->
<g id="node16" class="node"><title>Node16</title>
<g id="a_node16"><a xlink:href="_hardware_pedal_unit_test_8h.html" target="_top" xlink:title="car/hardwareTest/mbed\l/HardwarePedalUnitTest.h">
<polygon fill="white" stroke="black" points="164.5,-134.5 164.5,-164.5 303.5,-164.5 303.5,-134.5 164.5,-134.5"/>
<text text-anchor="start" x="172.5" y="-152.5" font-family="Helvetica,sans-Serif" font-size="10.00">car/hardwareTest/mbed</text>
<text text-anchor="middle" x="234" y="-141.5" font-family="Helvetica,sans-Serif" font-size="10.00">/HardwarePedalUnitTest.h</text>
</a>
</g>
</g>
<!-- Node2&#45;&gt;Node16 -->
<g id="edge15" class="edge"><title>Node2&#45;&gt;Node16</title>
<path fill="none" stroke="midnightblue" d="M1709.62,-214.549C1466.03,-210.7 589.85,-195.03 313,-165 309.95,-164.669 306.841,-164.288 303.705,-163.868"/>
<polygon fill="midnightblue" stroke="midnightblue" points="1709.67,-218.05 1719.72,-214.707 1709.78,-211.051 1709.67,-218.05"/>
</g>
<!-- Node17 -->
<g id="node17" class="node"><title>Node17</title>
<g id="a_node17"><a xlink:href="_hardware_pwm_buzzer_unit_test_8h.html" target="_top" xlink:title="car/hardwareTest/mbed\l/HardwarePwmBuzzerUnitTest.h">
<polygon fill="white" stroke="black" points="322,-134.5 322,-164.5 490,-164.5 490,-134.5 322,-134.5"/>
<text text-anchor="start" x="330" y="-152.5" font-family="Helvetica,sans-Serif" font-size="10.00">car/hardwareTest/mbed</text>
<text text-anchor="middle" x="406" y="-141.5" font-family="Helvetica,sans-Serif" font-size="10.00">/HardwarePwmBuzzerUnitTest.h</text>
</a>
</g>
</g>
<!-- Node2&#45;&gt;Node17 -->
<g id="edge16" class="edge"><title>Node2&#45;&gt;Node17</title>
<path fill="none" stroke="midnightblue" d="M1709.6,-215.562C1523.37,-215.192 961.987,-210.118 499,-165 496.073,-164.715 493.097,-164.398 490.094,-164.055"/>
<polygon fill="midnightblue" stroke="midnightblue" points="1709.75,-219.062 1719.75,-215.579 1709.76,-212.062 1709.75,-219.062"/>
</g>
<!-- Node18 -->
<g id="node18" class="node"><title>Node18</title>
<g id="a_node18"><a xlink:href="_dummy_s_car_8h.html" target="_top" xlink:title="car/hardwareTest/mbed\l/helper/DummySCar.h">
<polygon fill="white" stroke="black" points="2415,-134.5 2415,-164.5 2543,-164.5 2543,-134.5 2415,-134.5"/>
<text text-anchor="start" x="2423" y="-152.5" font-family="Helvetica,sans-Serif" font-size="10.00">car/hardwareTest/mbed</text>
<text text-anchor="middle" x="2479" y="-141.5" font-family="Helvetica,sans-Serif" font-size="10.00">/helper/DummySCar.h</text>
</a>
</g>
</g>
<!-- Node2&#45;&gt;Node18 -->
<g id="edge18" class="edge"><title>Node2&#45;&gt;Node18</title>
<path fill="none" stroke="midnightblue" d="M1836.37,-212.578C1949.93,-206.859 2195.44,-192.297 2401,-165 2405.51,-164.402 2410.15,-163.717 2414.81,-162.977"/>
<polygon fill="midnightblue" stroke="midnightblue" points="1835.94,-209.095 1826.13,-213.088 1836.29,-216.087 1835.94,-209.095"/>
</g>
<!-- Node19 -->
<g id="node19" class="node"><title>Node19</title>
<g id="a_node19"><a xlink:href="_l_e_d_p_w_m_unit_test_8h.html" target="_top" xlink:title="car/hardwareTest/mbed\l/LEDPWMUnitTest.h">
<polygon fill="white" stroke="black" points="508,-134.5 508,-164.5 636,-164.5 636,-134.5 508,-134.5"/>
<text text-anchor="start" x="516" y="-152.5" font-family="Helvetica,sans-Serif" font-size="10.00">car/hardwareTest/mbed</text>
<text text-anchor="middle" x="572" y="-141.5" font-family="Helvetica,sans-Serif" font-size="10.00">/LEDPWMUnitTest.h</text>
</a>
</g>
</g>
<!-- Node2&#45;&gt;Node19 -->
<g id="edge22" class="edge"><title>Node2&#45;&gt;Node19</title>
<path fill="none" stroke="midnightblue" d="M1709.78,-216.012C1537.98,-216.684 1048.36,-213.804 645,-165 642.05,-164.643 639.04,-164.233 636.006,-163.783"/>
<polygon fill="midnightblue" stroke="midnightblue" points="1709.92,-219.512 1719.91,-215.967 1709.89,-212.512 1709.92,-219.512"/>
</g>
<!-- Node20 -->
<g id="node20" class="node"><title>Node20</title>
<g id="a_node20"><a xlink:href="_l_e_d_unit_test_8h.html" target="_top" xlink:title="car/hardwareTest/mbed\l/LEDUnitTest.h">
<polygon fill="white" stroke="black" points="654,-134.5 654,-164.5 782,-164.5 782,-134.5 654,-134.5"/>
<text text-anchor="start" x="662" y="-152.5" font-family="Helvetica,sans-Serif" font-size="10.00">car/hardwareTest/mbed</text>
<text text-anchor="middle" x="718" y="-141.5" font-family="Helvetica,sans-Serif" font-size="10.00">/LEDUnitTest.h</text>
</a>
</g>
</g>
<!-- Node2&#45;&gt;Node20 -->
<g id="edge23" class="edge"><title>Node2&#45;&gt;Node20</title>
<path fill="none" stroke="midnightblue" d="M1709.42,-215.408C1552.72,-214.493 1135.66,-207.863 791,-165 788.051,-164.633 785.042,-164.215 782.009,-163.758"/>
<polygon fill="midnightblue" stroke="midnightblue" points="1709.79,-218.91 1719.81,-215.463 1709.82,-211.91 1709.79,-218.91"/>
</g>
<!-- Node21 -->
<g id="node21" class="node"><title>Node21</title>
<g id="a_node21"><a xlink:href="_master_output_test_8h.html" target="_top" xlink:title="car/hardwareTest/mbed\l/MasterOutputTest.h">
<polygon fill="white" stroke="black" points="800,-134.5 800,-164.5 928,-164.5 928,-134.5 800,-134.5"/>
<text text-anchor="start" x="808" y="-152.5" font-family="Helvetica,sans-Serif" font-size="10.00">car/hardwareTest/mbed</text>
<text text-anchor="middle" x="864" y="-141.5" font-family="Helvetica,sans-Serif" font-size="10.00">/MasterOutputTest.h</text>
</a>
</g>
</g>
<!-- Node2&#45;&gt;Node21 -->
<g id="edge24" class="edge"><title>Node2&#45;&gt;Node21</title>
<path fill="none" stroke="midnightblue" d="M1709.84,-214.607C1570.03,-211.992 1224.01,-201.999 937,-165 934.053,-164.62 931.045,-164.191 928.013,-163.726"/>
<polygon fill="midnightblue" stroke="midnightblue" points="1709.89,-218.108 1719.95,-214.79 1710.01,-211.11 1709.89,-218.108"/>
</g>
<!-- Node22 -->
<g id="node22" class="node"><title>Node22</title>
<g id="a_node22"><a xlink:href="_pedal_unit_test_8h.html" target="_top" xlink:title="car/hardwareTest/mbed\l/PedalUnitTest.h">
<polygon fill="white" stroke="black" points="946,-134.5 946,-164.5 1074,-164.5 1074,-134.5 946,-134.5"/>
<text text-anchor="start" x="954" y="-152.5" font-family="Helvetica,sans-Serif" font-size="10.00">car/hardwareTest/mbed</text>
<text text-anchor="middle" x="1010" y="-141.5" font-family="Helvetica,sans-Serif" font-size="10.00">/PedalUnitTest.h</text>
</a>
</g>
</g>
<!-- Node2&#45;&gt;Node22 -->
<g id="edge25" class="edge"><title>Node2&#45;&gt;Node22</title>
<path fill="none" stroke="midnightblue" d="M1709.71,-213.472C1587.9,-208.994 1312.58,-196.081 1083,-165 1080.05,-164.601 1077.05,-164.157 1074.02,-163.679"/>
<polygon fill="midnightblue" stroke="midnightblue" points="1709.85,-216.979 1719.97,-213.843 1710.1,-209.984 1709.85,-216.979"/>
</g>
<!-- Node23 -->
<g id="node23" class="node"><title>Node23</title>
<g id="a_node23"><a xlink:href="_pump_refill_8h.html" target="_top" xlink:title="car/hardwareTest/mbed\l/PumpRefill.h">
<polygon fill="white" stroke="black" points="1092,-134.5 1092,-164.5 1220,-164.5 1220,-134.5 1092,-134.5"/>
<text text-anchor="start" x="1100" y="-152.5" font-family="Helvetica,sans-Serif" font-size="10.00">car/hardwareTest/mbed</text>
<text text-anchor="middle" x="1156" y="-141.5" font-family="Helvetica,sans-Serif" font-size="10.00">/PumpRefill.h</text>
</a>
</g>
</g>
<!-- Node2&#45;&gt;Node23 -->
<g id="edge26" class="edge"><title>Node2&#45;&gt;Node23</title>
<path fill="none" stroke="midnightblue" d="M1709.79,-211.764C1608.11,-205.276 1402.1,-190.157 1229,-165 1226.06,-164.573 1223.06,-164.105 1220.03,-163.608"/>
<polygon fill="midnightblue" stroke="midnightblue" points="1709.69,-215.264 1719.89,-212.402 1710.13,-208.278 1709.69,-215.264"/>
</g>
<!-- Node24 -->
<g id="node24" class="node"><title>Node24</title>
<g id="a_node24"><a xlink:href="_r_f_eand_r_u_ntest_8h.html" target="_top" xlink:title="car/hardwareTest/mbed\l/RFEandRUNtest.h">
<polygon fill="white" stroke="black" points="1238,-134.5 1238,-164.5 1366,-164.5 1366,-134.5 1238,-134.5"/>
<text text-anchor="start" x="1246" y="-152.5" font-family="Helvetica,sans-Serif" font-size="10.00">car/hardwareTest/mbed</text>
<text text-anchor="middle" x="1302" y="-141.5" font-family="Helvetica,sans-Serif" font-size="10.00">/RFEandRUNtest.h</text>
</a>
</g>
</g>
<!-- Node2&#45;&gt;Node24 -->
<g id="edge27" class="edge"><title>Node2&#45;&gt;Node24</title>
<path fill="none" stroke="midnightblue" d="M1709.48,-208.826C1630.76,-200.235 1492.61,-184.118 1375,-165 1372.07,-164.523 1369.07,-164.015 1366.05,-163.485"/>
<polygon fill="midnightblue" stroke="midnightblue" points="1709.4,-212.337 1719.72,-209.937 1710.16,-205.378 1709.4,-212.337"/>
</g>
<!-- Node25 -->
<g id="node25" class="node"><title>Node25</title>
<g id="a_node25"><a xlink:href="_r_p_m_sensor_unit_test_8h.html" target="_top" xlink:title="car/hardwareTest/mbed\l/RPMSensorUnitTest.h">
<polygon fill="white" stroke="black" points="1384,-134.5 1384,-164.5 1512,-164.5 1512,-134.5 1384,-134.5"/>
<text text-anchor="start" x="1392" y="-152.5" font-family="Helvetica,sans-Serif" font-size="10.00">car/hardwareTest/mbed</text>
<text text-anchor="middle" x="1448" y="-141.5" font-family="Helvetica,sans-Serif" font-size="10.00">/RPMSensorUnitTest.h</text>
</a>
</g>
</g>
<!-- Node2&#45;&gt;Node25 -->
<g id="edge28" class="edge"><title>Node2&#45;&gt;Node25</title>
<path fill="none" stroke="midnightblue" d="M1720.33,-204.965C1663.54,-193.608 1573.12,-175.523 1512.21,-163.341"/>
<polygon fill="midnightblue" stroke="midnightblue" points="1719.69,-208.406 1730.18,-206.936 1721.06,-201.542 1719.69,-208.406"/>
</g>
<!-- Node9 -->
<g id="node9" class="node"><title>Node9</title>
<g id="a_node9"><a xlink:href="_alive_component_test_8h.html" target="_top" xlink:title="car/hardwareTest/mbed\l/AliveComponentTest.h">
<polygon fill="white" stroke="black" points="2724,-67.5 2724,-97.5 2852,-97.5 2852,-67.5 2724,-67.5"/>
<text text-anchor="start" x="2732" y="-85.5" font-family="Helvetica,sans-Serif" font-size="10.00">car/hardwareTest/mbed</text>
<text text-anchor="middle" x="2788" y="-74.5" font-family="Helvetica,sans-Serif" font-size="10.00">/AliveComponentTest.h</text>
</a>
</g>
</g>
<!-- Node8&#45;&gt;Node9 -->
<g id="edge8" class="edge"><title>Node8&#45;&gt;Node9</title>
<path fill="none" stroke="midnightblue" d="M2669.68,-130.682C2695.83,-120.257 2728.37,-107.281 2752.7,-97.5765"/>
<polygon fill="midnightblue" stroke="midnightblue" points="2668.36,-127.441 2660.37,-134.396 2670.95,-133.943 2668.36,-127.441"/>
</g>
<!-- Node8&#45;&gt;Node10 -->
<g id="edge9" class="edge"><title>Node8&#45;&gt;Node10</title>
<path fill="none" stroke="midnightblue" d="M2625,-124.108C2625,-115.154 2625,-105.323 2625,-97.5765"/>
<polygon fill="midnightblue" stroke="midnightblue" points="2621.5,-124.396 2625,-134.396 2628.5,-124.396 2621.5,-124.396"/>
</g>
<!-- Node8&#45;&gt;Node11 -->
<g id="edge10" class="edge"><title>Node8&#45;&gt;Node11</title>
<path fill="none" stroke="midnightblue" d="M2580.04,-130.682C2553.74,-120.257 2521,-107.281 2496.52,-97.5765"/>
<polygon fill="midnightblue" stroke="midnightblue" points="2578.83,-133.965 2589.41,-134.396 2581.41,-127.458 2578.83,-133.965"/>
</g>
<!-- Node18&#45;&gt;Node10 -->
<g id="edge19" class="edge"><title>Node18&#45;&gt;Node10</title>
<path fill="none" stroke="midnightblue" d="M2519.95,-130.269C2543.2,-119.916 2571.87,-107.153 2593.38,-97.5765"/>
<polygon fill="midnightblue" stroke="midnightblue" points="2518.39,-127.131 2510.68,-134.396 2521.24,-133.526 2518.39,-127.131"/>
</g>
<!-- Node18&#45;&gt;Node11 -->
<g id="edge20" class="edge"><title>Node18&#45;&gt;Node11</title>
<path fill="none" stroke="midnightblue" d="M2472.41,-124.697C2469.89,-115.587 2467.09,-105.493 2464.9,-97.5765"/>
<polygon fill="midnightblue" stroke="midnightblue" points="2469.05,-125.693 2475.09,-134.396 2475.8,-123.825 2469.05,-125.693"/>
</g>
<!-- Node27 -->
<g id="node27" class="node"><title>Node27</title>
<g id="a_node27"><a xlink:href="_s_car_8h.html" target="_top" xlink:title="lib/carpi/src/runable\l/services/SCar.h">
<polygon fill="white" stroke="black" points="3348,-134.5 3348,-164.5 3458,-164.5 3458,-134.5 3348,-134.5"/>
<text text-anchor="start" x="3356" y="-152.5" font-family="Helvetica,sans-Serif" font-size="10.00">lib/carpi/src/runable</text>
<text text-anchor="middle" x="3403" y="-141.5" font-family="Helvetica,sans-Serif" font-size="10.00">/services/SCar.h</text>
</a>
</g>
</g>
<!-- Node26&#45;&gt;Node27 -->
<g id="edge30" class="edge"><title>Node26&#45;&gt;Node27</title>
<path fill="none" stroke="midnightblue" d="M3322.68,-196.296C3340.52,-186.125 3362.04,-173.855 3378.31,-164.577"/>
<polygon fill="midnightblue" stroke="midnightblue" points="3320.69,-193.402 3313.74,-201.396 3324.16,-199.483 3320.69,-193.402"/>
</g>
<!-- Node27&#45;&gt;Node28 -->
<g id="edge31" class="edge"><title>Node27&#45;&gt;Node28</title>
<path fill="none" stroke="midnightblue" d="M3387.95,-125.637C3376.18,-108.583 3358.87,-85.1905 3341,-67 3327.61,-53.3701 3310.54,-40.0718 3297.4,-30.5458"/>
<polygon fill="midnightblue" stroke="midnightblue" points="3385.37,-128.075 3393.88,-134.386 3391.16,-124.145 3385.37,-128.075"/>
</g>
<!-- Node27&#45;&gt;Node29 -->
<g id="edge32" class="edge"><title>Node27&#45;&gt;Node29</title>
<path fill="none" stroke="midnightblue" d="M3417.97,-125.867C3424.2,-116.459 3431.23,-105.833 3436.69,-97.5765"/>
<polygon fill="midnightblue" stroke="midnightblue" points="3414.93,-124.125 3412.33,-134.396 3420.77,-127.987 3414.93,-124.125"/>
</g>
<!-- Node27&#45;&gt;Node30 -->
<g id="edge33" class="edge"><title>Node27&#45;&gt;Node30</title>
<path fill="none" stroke="midnightblue" d="M3455.61,-131.228C3487.64,-120.713 3528.04,-107.451 3558.12,-97.5765"/>
<polygon fill="midnightblue" stroke="midnightblue" points="3454.37,-127.951 3445.96,-134.396 3456.56,-134.602 3454.37,-127.951"/>
</g>
<!-- Node31 -->
<g id="node31" class="node"><title>Node31</title>
<g id="a_node31"><a xlink:href="_s_speed_8h.html" target="_top" xlink:title="lib/carpi/src/runable\l/services/SSpeed.h">
<polygon fill="white" stroke="black" points="3222,-67.5 3222,-97.5 3332,-97.5 3332,-67.5 3222,-67.5"/>
<text text-anchor="start" x="3230" y="-85.5" font-family="Helvetica,sans-Serif" font-size="10.00">lib/carpi/src/runable</text>
<text text-anchor="middle" x="3277" y="-74.5" font-family="Helvetica,sans-Serif" font-size="10.00">/services/SSpeed.h</text>
</a>
</g>
</g>
<!-- Node27&#45;&gt;Node31 -->
<g id="edge34" class="edge"><title>Node27&#45;&gt;Node31</title>
<path fill="none" stroke="midnightblue" d="M3366.58,-129.714C3346.71,-119.463 3322.52,-106.983 3304.29,-97.5765"/>
<polygon fill="midnightblue" stroke="midnightblue" points="3365.17,-132.922 3375.66,-134.396 3368.38,-126.701 3365.17,-132.922"/>
</g>
<!-- Node31&#45;&gt;Node28 -->
<g id="edge35" class="edge"><title>Node31&#45;&gt;Node28</title>
<path fill="none" stroke="midnightblue" d="M3277,-57.1081C3277,-48.1539 3277,-38.3227 3277,-30.5765"/>
<polygon fill="midnightblue" stroke="midnightblue" points="3273.5,-57.3959 3277,-67.396 3280.5,-57.396 3273.5,-57.3959"/>
</g>
<!-- Node32&#45;&gt;Node27 -->
<g id="edge37" class="edge"><title>Node32&#45;&gt;Node27</title>
<path fill="none" stroke="midnightblue" d="M3437.36,-193.447C3429.72,-183.899 3421,-173.004 3414.26,-164.577"/>
<polygon fill="midnightblue" stroke="midnightblue" points="3434.74,-195.774 3443.72,-201.396 3440.2,-191.401 3434.74,-195.774"/>
</g>
</g>
</svg>
        <g id="navigator" transform="translate(0 0)" fill="#404254">
                <rect fill="#f2f5e9" fill-opacity="0.5" stroke="#606060" stroke-width=".5" x="0" y="0" width="60" height="60"/>
                <use id="zoomplus" xlink:href="#zoomPlus" x="17" y="9" onmousedown="handleZoom(evt,'in')"/>
                <use id="zoomminus" xlink:href="#zoomMin" x="42" y="9" onmousedown="handleZoom(evt,'out')"/>
                <use id="reset" xlink:href="#resetDef" x="30" y="36" onmousedown="handleReset()"/>
                <g id="arrowUp" xlink:href="#dirArrow" transform="translate(30 24)" onmousedown="handlePan(0,-1)">
                  <use xlink:href="#rim" fill="#404040">
                        <set attributeName="fill" to="#808080" begin="arrowUp.mouseover" end="arrowUp.mouseout"/>
                  </use>
                  <path fill="none" stroke="white" stroke-width="1.5" d="M0,-3.0v7 M-2.5,-0.5L0,-3.0L2.5,-0.5"/>
                </g>
                <g id="arrowRight" xlink:href="#dirArrow" transform="rotate(90) translate(36 -43)" onmousedown="handlePan(1,0)">
                  <use xlink:href="#rim" fill="#404040">
                        <set attributeName="fill" to="#808080" begin="arrowRight.mouseover" end="arrowRight.mouseout"/>
                  </use>
                  <path fill="none" stroke="white" stroke-width="1.5" d="M0,-3.0v7 M-2.5,-0.5L0,-3.0L2.5,-0.5"/>
                </g>
                <g id="arrowDown" xlink:href="#dirArrow" transform="rotate(180) translate(-30 -48)" onmousedown="handlePan(0,1)">
                  <use xlink:href="#rim" fill="#404040">
                        <set attributeName="fill" to="#808080" begin="arrowDown.mouseover" end="arrowDown.mouseout"/>
                  </use>
                  <path fill="none" stroke="white" stroke-width="1.5" d="M0,-3.0v7 M-2.5,-0.5L0,-3.0L2.5,-0.5"/>
                </g>
                <g id="arrowLeft" xlink:href="#dirArrow" transform="rotate(270) translate(-36 17)" onmousedown="handlePan(-1,0)">
                  <use xlink:href="#rim" fill="#404040">
                        <set attributeName="fill" to="#808080" begin="arrowLeft.mouseover" end="arrowLeft.mouseout"/>
                  </use>
                  <path fill="none" stroke="white" stroke-width="1.5" d="M0,-3.0v7 M-2.5,-0.5L0,-3.0L2.5,-0.5"/>
                </g>
        </g>
        <svg viewBox="0 0 15 15" width="100%" height="30px" preserveAspectRatio="xMaxYMin meet">
         <g id="arrow_out" transform="scale(0.3 0.3)">
          <a xlink:href="_i_program_8h__dep__incl_org.svg" target="_base">
           <rect id="button" ry="5" rx="5" y="6" x="6" height="38" width="38"
                fill="#f2f5e9" fill-opacity="0.5" stroke="#606060" stroke-width="1.0"/>
           <path id="arrow"
             d="M 11.500037,31.436501 C 11.940474,20.09759 22.043105,11.32322 32.158766,21.979434 L 37.068811,17.246167 C 37.068811,17.246167 37.088388,32 37.088388,32 L 22.160133,31.978069 C 22.160133,31.978069 26.997745,27.140456 26.997745,27.140456 C 18.528582,18.264221 13.291696,25.230495 11.500037,31.436501 z"
             style="fill:#404040;"/>
          </a>
         </g>
        </svg>
</svg>
