<?xml version="1.0" encoding="UTF-8" standalone="no"?>
<!DOCTYPE svg PUBLIC "-//W3C//DTD SVG 1.1//EN"
 "http://www.w3.org/Graphics/SVG/1.1/DTD/svg11.dtd">
<!-- Generated by graphviz version 2.38.0 (20140413.2041)
 -->
<!-- Title: lib/carpi/src/runable/services/IService.h Pages: 1 -->
<!--zoomable 240 -->
<svg id="main" version="1.1" xmlns="http://www.w3.org/2000/svg" xmlns:xlink="http://www.w3.org/1999/xlink" xml:space="preserve" onload="init(evt)">
<style type="text/css"><![CDATA[
.edge:hover path { stroke: red; }
.edge:hover polygon { stroke: red; fill: red; }
]]></style>
<script type="text/javascript"><![CDATA[
var edges = document.getElementsByTagName('g');
if (edges && edges.length) {
  for (var i=0;i<edges.length;i++) {
    if (edges[i].id.substr(0,4)=='edge') {
      edges[i].setAttribute('class','edge');
    }
  }
}
]]></script>
        <defs>
                <circle id="rim" cx="0" cy="0" r="7"/>
                <circle id="rim2" cx="0" cy="0" r="3.5"/>
                <g id="zoomPlus">
                        <use xlink:href="#rim" fill="#404040">
                                <set attributeName="fill" to="#808080" begin="zoomplus.mouseover" end="zoomplus.mouseout"/>
                        </use>
                        <path d="M-4,0h8M0,-4v8" fill="none" stroke="white" stroke-width="1.5" pointer-events="none"/>
                </g>
                <g id="zoomMin">
                        <use xlink:href="#rim" fill="#404040">
                                <set attributeName="fill" to="#808080" begin="zoomminus.mouseover" end="zoomminus.mouseout"/>
                        </use>
                        <path d="M-4,0h8" fill="none" stroke="white" stroke-width="1.5" pointer-events="none"/>
                </g>
                <g id="dirArrow">
                        <path fill="none" stroke="white" stroke-width="1.5" d="M0,-3.0v7 M-2.5,-0.5L0,-3.0L2.5,-0.5"/>
                </g>
               <g id="resetDef">
                       <use xlink:href="#rim2" fill="#404040">
                               <set attributeName="fill" to="#808080" begin="reset.mouseover" end="reset.mouseout"/>
                       </use>
               </g>
        </defs>

<script type="text/javascript">
var viewWidth = 3649;
var viewHeight = 240;
var sectionId = 'dynsection-1';
</script>
<script xlink:href="svgpan.js"/>
<svg id="graph" class="graph">
<g id="viewport">
<title>lib/carpi/src/runable/services/IService.h</title>
<polygon fill="white" stroke="none" points="-4,4 -4,-236 3645,-236 3645,4 -4,4"/>
<!-- Node1 -->
<g id="node1" class="node"><title>Node1</title>
<polygon fill="#bfbfbf" stroke="black" points="3183,-201.5 3183,-231.5 3293,-231.5 3293,-201.5 3183,-201.5"/>
<text text-anchor="start" x="3191" y="-219.5" font-family="Helvetica,sans-Serif" font-size="10.00">lib/carpi/src/runable</text>
<text text-anchor="middle" x="3238" y="-208.5" font-family="Helvetica,sans-Serif" font-size="10.00">/services/IService.h</text>
</g>
<!-- Node2 -->
<g id="node2" class="node"><title>Node2</title>
<g id="a_node2"><a xlink:href="carpi_8h.html" target="_top" xlink:title="lib/carpi/src/carpi.h">
<polygon fill="white" stroke="black" points="1720,-140 1720,-159 1826,-159 1826,-140 1720,-140"/>
<text text-anchor="middle" x="1773" y="-147" font-family="Helvetica,sans-Serif" font-size="10.00">lib/carpi/src/carpi.h</text>
</a>
</g>
</g>
<!-- Node1&#45;&gt;Node2 -->
<g id="edge1" class="edge"><title>Node1&#45;&gt;Node2</title>
<path fill="none" stroke="midnightblue" d="M3172.54,-212.596C2925.29,-201.625 2050.9,-162.83 1826.04,-152.853"/>
<polygon fill="midnightblue" stroke="midnightblue" points="3172.66,-216.104 3182.8,-213.051 3172.97,-209.111 3172.66,-216.104"/>
</g>
<!-- Node26 -->
<g id="node26" class="node"><title>Node26</title>
<g id="a_node26"><a xlink:href="_s_car_8h.html" target="_top" xlink:title="lib/carpi/src/runable\l/services/SCar.h">
<polygon fill="white" stroke="black" points="3266,-134.5 3266,-164.5 3376,-164.5 3376,-134.5 3266,-134.5"/>
<text text-anchor="start" x="3274" y="-152.5" font-family="Helvetica,sans-Serif" font-size="10.00">lib/carpi/src/runable</text>
<text text-anchor="middle" x="3321" y="-141.5" font-family="Helvetica,sans-Serif" font-size="10.00">/services/SCar.h</text>
</a>
</g>
</g>
<!-- Node1&#45;&gt;Node26 -->
<g id="edge29" class="edge"><title>Node1&#45;&gt;Node26</title>
<path fill="none" stroke="midnightblue" d="M3263.96,-195.168C3276.65,-185.228 3291.61,-173.514 3303.03,-164.577"/>
<polygon fill="midnightblue" stroke="midnightblue" points="3261.72,-192.475 3256.01,-201.396 3266.04,-197.986 3261.72,-192.475"/>
</g>
<!-- Node30 -->
<g id="node30" class="node"><title>Node30</title>
<g id="a_node30"><a xlink:href="_s_speed_8h.html" target="_top" xlink:title="lib/carpi/src/runable\l/services/SSpeed.h">
<polygon fill="white" stroke="black" points="3183,-67.5 3183,-97.5 3293,-97.5 3293,-67.5 3183,-67.5"/>
<text text-anchor="start" x="3191" y="-85.5" font-family="Helvetica,sans-Serif" font-size="10.00">lib/carpi/src/runable</text>
<text text-anchor="middle" x="3238" y="-74.5" font-family="Helvetica,sans-Serif" font-size="10.00">/services/SSpeed.h</text>
</a>
</g>
</g>
<!-- Node1&#45;&gt;Node30 -->
<g id="edge35" class="edge"><title>Node1&#45;&gt;Node30</title>
<path fill="none" stroke="midnightblue" d="M3238,-191.024C3238,-163.512 3238,-119.789 3238,-97.5247"/>
<polygon fill="midnightblue" stroke="midnightblue" points="3234.5,-191.374 3238,-201.374 3241.5,-191.374 3234.5,-191.374"/>
</g>
<!-- Node3 -->
<g id="node3" class="node"><title>Node3</title>
<g id="a_node3"><a xlink:href="_dashboard_slave_conf_8h.html" target="_top" xlink:title="car/Bonnie2019/Dashboard\lSlaveConf.h">
<polygon fill="white" stroke="black" points="1530.5,-67.5 1530.5,-97.5 1677.5,-97.5 1677.5,-67.5 1530.5,-67.5"/>
<text text-anchor="start" x="1538.5" y="-85.5" font-family="Helvetica,sans-Serif" font-size="10.00">car/Bonnie2019/Dashboard</text>
<text text-anchor="middle" x="1604" y="-74.5" font-family="Helvetica,sans-Serif" font-size="10.00">SlaveConf.h</text>
</a>
</g>
</g>
<!-- Node2&#45;&gt;Node3 -->
<g id="edge2" class="edge"><title>Node2&#45;&gt;Node3</title>
<path fill="none" stroke="midnightblue" d="M1741.03,-136.202C1712.39,-125.188 1670.41,-109.042 1640.47,-97.5281"/>
<polygon fill="midnightblue" stroke="midnightblue" points="1739.97,-139.545 1750.56,-139.869 1742.48,-133.012 1739.97,-139.545"/>
</g>
<!-- Node4 -->
<g id="node4" class="node"><title>Node4</title>
<g id="a_node4"><a xlink:href="_display_slave_conf_8h.html" target="_top" xlink:title="car/Bonnie2019/DisplaySlave\lConf.h">
<polygon fill="white" stroke="black" points="1695.5,-67.5 1695.5,-97.5 1850.5,-97.5 1850.5,-67.5 1695.5,-67.5"/>
<text text-anchor="start" x="1703.5" y="-85.5" font-family="Helvetica,sans-Serif" font-size="10.00">car/Bonnie2019/DisplaySlave</text>
<text text-anchor="middle" x="1773" y="-74.5" font-family="Helvetica,sans-Serif" font-size="10.00">Conf.h</text>
</a>
</g>
</g>
<!-- Node2&#45;&gt;Node4 -->
<g id="edge3" class="edge"><title>Node2&#45;&gt;Node4</title>
<path fill="none" stroke="midnightblue" d="M1773,-129.411C1773,-119.222 1773,-106.901 1773,-97.589"/>
<polygon fill="midnightblue" stroke="midnightblue" points="1769.5,-129.734 1773,-139.734 1776.5,-129.734 1769.5,-129.734"/>
</g>
<!-- Node5 -->
<g id="node5" class="node"><title>Node5</title>
<g id="a_node5"><a xlink:href="_lo_ra_conf_8h.html" target="_top" xlink:title="car/Bonnie2019/LoRaConf.h">
<polygon fill="white" stroke="black" points="1869,-73 1869,-92 2017,-92 2017,-73 1869,-73"/>
<text text-anchor="middle" x="1943" y="-80" font-family="Helvetica,sans-Serif" font-size="10.00">car/Bonnie2019/LoRaConf.h</text>
</a>
</g>
</g>
<!-- Node2&#45;&gt;Node5 -->
<g id="edge4" class="edge"><title>Node2&#45;&gt;Node5</title>
<path fill="none" stroke="midnightblue" d="M1804.98,-136.271C1838.72,-123.37 1891.02,-103.376 1920.6,-92.0637"/>
<polygon fill="midnightblue" stroke="midnightblue" points="1803.67,-133.028 1795.57,-139.869 1806.17,-139.566 1803.67,-133.028"/>
</g>
<!-- Node6 -->
<g id="node6" class="node"><title>Node6</title>
<g id="a_node6"><a xlink:href="_master_conf_8h.html" target="_top" xlink:title="car/Bonnie2019/MasterConf.h">
<polygon fill="white" stroke="black" points="2035,-73 2035,-92 2193,-92 2193,-73 2035,-73"/>
<text text-anchor="middle" x="2114" y="-80" font-family="Helvetica,sans-Serif" font-size="10.00">car/Bonnie2019/MasterConf.h</text>
</a>
</g>
</g>
<!-- Node2&#45;&gt;Node6 -->
<g id="edge5" class="edge"><title>Node2&#45;&gt;Node6</title>
<path fill="none" stroke="midnightblue" d="M1827.89,-138.037C1894.96,-125.253 2007.15,-103.868 2069.24,-92.0317"/>
<polygon fill="midnightblue" stroke="midnightblue" points="1827.1,-134.625 1817.93,-139.936 1828.41,-141.501 1827.1,-134.625"/>
</g>
<!-- Node7 -->
<g id="node7" class="node"><title>Node7</title>
<g id="a_node7"><a xlink:href="_pedal_slave_conf_8h.html" target="_top" xlink:title="car/Bonnie2019/PedalSlave\lConf.h">
<polygon fill="white" stroke="black" points="2211.5,-67.5 2211.5,-97.5 2358.5,-97.5 2358.5,-67.5 2211.5,-67.5"/>
<text text-anchor="start" x="2219.5" y="-85.5" font-family="Helvetica,sans-Serif" font-size="10.00">car/Bonnie2019/PedalSlave</text>
<text text-anchor="middle" x="2285" y="-74.5" font-family="Helvetica,sans-Serif" font-size="10.00">Conf.h</text>
</a>
</g>
</g>
<!-- Node2&#45;&gt;Node7 -->
<g id="edge6" class="edge"><title>Node2&#45;&gt;Node7</title>
<path fill="none" stroke="midnightblue" d="M1836.42,-142.152C1920.27,-133.504 2072.53,-116.914 2202,-98 2205.04,-97.5559 2208.14,-97.0872 2211.27,-96.6007"/>
<polygon fill="midnightblue" stroke="midnightblue" points="1835.89,-138.689 1826.3,-143.192 1836.6,-145.652 1835.89,-138.689"/>
</g>
<!-- Node8 -->
<g id="node8" class="node"><title>Node8</title>
<g id="a_node8"><a xlink:href="_syntetic_sync_8h.html" target="_top" xlink:title="car/hardwareTest/mbed\l/helper/SynteticSync.h">
<polygon fill="white" stroke="black" points="2561,-67.5 2561,-97.5 2689,-97.5 2689,-67.5 2561,-67.5"/>
<text text-anchor="start" x="2569" y="-85.5" font-family="Helvetica,sans-Serif" font-size="10.00">car/hardwareTest/mbed</text>
<text text-anchor="middle" x="2625" y="-74.5" font-family="Helvetica,sans-Serif" font-size="10.00">/helper/SynteticSync.h</text>
</a>
</g>
</g>
<!-- Node2&#45;&gt;Node8 -->
<g id="edge7" class="edge"><title>Node2&#45;&gt;Node8</title>
<path fill="none" stroke="midnightblue" d="M1836.14,-147.215C1969.09,-143.893 2287.45,-132.696 2552,-98 2554.95,-97.6135 2557.95,-97.1795 2560.98,-96.7095"/>
<polygon fill="midnightblue" stroke="midnightblue" points="1836.04,-143.716 1826.13,-147.459 1836.21,-150.714 1836.04,-143.716"/>
</g>
<!-- Node10 -->
<g id="node10" class="node"><title>Node10</title>
<g id="a_node10"><a xlink:href="_hardware_s_d_card_stress_test_8h.html" target="_top" xlink:title="car/hardwareTest/mbed\l/HardwareSDCardStressTest.h">
<polygon fill="white" stroke="black" points="2544.5,-0.5 2544.5,-30.5 2705.5,-30.5 2705.5,-0.5 2544.5,-0.5"/>
<text text-anchor="start" x="2552.5" y="-18.5" font-family="Helvetica,sans-Serif" font-size="10.00">car/hardwareTest/mbed</text>
<text text-anchor="middle" x="2625" y="-7.5" font-family="Helvetica,sans-Serif" font-size="10.00">/HardwareSDCardStressTest.h</text>
</a>
</g>
</g>
<!-- Node2&#45;&gt;Node10 -->
<g id="edge17" class="edge"><title>Node2&#45;&gt;Node10</title>
<path fill="none" stroke="midnightblue" d="M1836.35,-147.405C2040.3,-143.576 2668.38,-129.279 2698,-98 2719.94,-74.8278 2681.65,-46.97 2652.73,-30.5559"/>
<polygon fill="midnightblue" stroke="midnightblue" points="1836.03,-143.911 1826.1,-147.596 1836.16,-150.909 1836.03,-143.911"/>
</g>
<!-- Node11 -->
<g id="node11" class="node"><title>Node11</title>
<g id="a_node11"><a xlink:href="_hardware_s_d_card_test_8h.html" target="_top" xlink:title="car/hardwareTest/mbed\l/HardwareSDCardTest.h">
<polygon fill="white" stroke="black" points="2396,-0.5 2396,-30.5 2526,-30.5 2526,-0.5 2396,-0.5"/>
<text text-anchor="start" x="2404" y="-18.5" font-family="Helvetica,sans-Serif" font-size="10.00">car/hardwareTest/mbed</text>
<text text-anchor="middle" x="2461" y="-7.5" font-family="Helvetica,sans-Serif" font-size="10.00">/HardwareSDCardTest.h</text>
</a>
</g>
</g>
<!-- Node2&#45;&gt;Node11 -->
<g id="edge21" class="edge"><title>Node2&#45;&gt;Node11</title>
<path fill="none" stroke="midnightblue" d="M1836.43,-148.032C1969.37,-146.257 2272.68,-137.827 2367,-98 2376.25,-94.093 2421.68,-52.84 2445.83,-30.572"/>
<polygon fill="midnightblue" stroke="midnightblue" points="1836.35,-144.532 1826.39,-148.157 1836.44,-151.532 1836.35,-144.532"/>
</g>
<!-- Node12 -->
<g id="node12" class="node"><title>Node12</title>
<g id="a_node12"><a xlink:href="_button_unit_test_8h.html" target="_top" xlink:title="car/hardwareTest/mbed\l/ButtonUnitTest.h">
<polygon fill="white" stroke="black" points="2745,-67.5 2745,-97.5 2873,-97.5 2873,-67.5 2745,-67.5"/>
<text text-anchor="start" x="2753" y="-85.5" font-family="Helvetica,sans-Serif" font-size="10.00">car/hardwareTest/mbed</text>
<text text-anchor="middle" x="2809" y="-74.5" font-family="Helvetica,sans-Serif" font-size="10.00">/ButtonUnitTest.h</text>
</a>
</g>
</g>
<!-- Node2&#45;&gt;Node12 -->
<g id="edge11" class="edge"><title>Node2&#45;&gt;Node12</title>
<path fill="none" stroke="midnightblue" d="M1836.38,-148.027C1990.24,-146.254 2395.53,-137.849 2731,-98 2735.51,-97.4638 2740.16,-96.825 2744.83,-96.1188"/>
<polygon fill="midnightblue" stroke="midnightblue" points="1836.13,-144.529 1826.17,-148.139 1836.21,-151.529 1836.13,-144.529"/>
</g>
<!-- Node13 -->
<g id="node13" class="node"><title>Node13</title>
<g id="a_node13"><a xlink:href="_c_a_n_service_unit_test_8h.html" target="_top" xlink:title="car/hardwareTest/mbed\l/CANServiceUnitTest.h">
<polygon fill="white" stroke="black" points="2891,-67.5 2891,-97.5 3019,-97.5 3019,-67.5 2891,-67.5"/>
<text text-anchor="start" x="2899" y="-85.5" font-family="Helvetica,sans-Serif" font-size="10.00">car/hardwareTest/mbed</text>
<text text-anchor="middle" x="2955" y="-74.5" font-family="Helvetica,sans-Serif" font-size="10.00">/CANServiceUnitTest.h</text>
</a>
</g>
</g>
<!-- Node2&#45;&gt;Node13 -->
<g id="edge12" class="edge"><title>Node2&#45;&gt;Node13</title>
<path fill="none" stroke="midnightblue" d="M1836.06,-148.942C2005.77,-149.418 2486.14,-146.05 2882,-98 2884.95,-97.6419 2887.96,-97.2311 2890.99,-96.78"/>
<polygon fill="midnightblue" stroke="midnightblue" points="1836.06,-145.442 1826.05,-148.909 1836.04,-152.442 1836.06,-145.442"/>
</g>
<!-- Node14 -->
<g id="node14" class="node"><title>Node14</title>
<g id="a_node14"><a xlink:href="_dashboard_demo_8h.html" target="_top" xlink:title="car/hardwareTest/mbed\l/DashboardDemo.h">
<polygon fill="white" stroke="black" points="3037,-67.5 3037,-97.5 3165,-97.5 3165,-67.5 3037,-67.5"/>
<text text-anchor="start" x="3045" y="-85.5" font-family="Helvetica,sans-Serif" font-size="10.00">car/hardwareTest/mbed</text>
<text text-anchor="middle" x="3101" y="-74.5" font-family="Helvetica,sans-Serif" font-size="10.00">/DashboardDemo.h</text>
</a>
</g>
</g>
<!-- Node2&#45;&gt;Node14 -->
<g id="edge13" class="edge"><title>Node2&#45;&gt;Node14</title>
<path fill="none" stroke="midnightblue" d="M1836.48,-147.255C2057.65,-142.714 2793.53,-125.832 3028,-98 3030.95,-97.6497 3033.96,-97.2453 3037,-96.7993"/>
<polygon fill="midnightblue" stroke="midnightblue" points="1836.27,-143.759 1826.34,-147.462 1836.41,-150.757 1836.27,-143.759"/>
</g>
<!-- Node15 -->
<g id="node15" class="node"><title>Node15</title>
<g id="a_node15"><a xlink:href="_hardware_buzzer_unit_test_8h.html" target="_top" xlink:title="car/hardwareTest/mbed\l/HardwareBuzzerUnitTest.h">
<polygon fill="white" stroke="black" points="0,-67.5 0,-97.5 146,-97.5 146,-67.5 0,-67.5"/>
<text text-anchor="start" x="8" y="-85.5" font-family="Helvetica,sans-Serif" font-size="10.00">car/hardwareTest/mbed</text>
<text text-anchor="middle" x="73" y="-74.5" font-family="Helvetica,sans-Serif" font-size="10.00">/HardwareBuzzerUnitTest.h</text>
</a>
</g>
</g>
<!-- Node2&#45;&gt;Node15 -->
<g id="edge14" class="edge"><title>Node2&#45;&gt;Node15</title>
<path fill="none" stroke="midnightblue" d="M1709.77,-147.743C1450.09,-144.446 464.655,-130.042 155,-98 152.124,-97.7024 149.197,-97.3628 146.244,-96.9896"/>
<polygon fill="midnightblue" stroke="midnightblue" points="1709.75,-151.243 1719.79,-147.869 1709.83,-144.243 1709.75,-151.243"/>
</g>
<!-- Node16 -->
<g id="node16" class="node"><title>Node16</title>
<g id="a_node16"><a xlink:href="_hardware_pedal_unit_test_8h.html" target="_top" xlink:title="car/hardwareTest/mbed\l/HardwarePedalUnitTest.h">
<polygon fill="white" stroke="black" points="164.5,-67.5 164.5,-97.5 303.5,-97.5 303.5,-67.5 164.5,-67.5"/>
<text text-anchor="start" x="172.5" y="-85.5" font-family="Helvetica,sans-Serif" font-size="10.00">car/hardwareTest/mbed</text>
<text text-anchor="middle" x="234" y="-74.5" font-family="Helvetica,sans-Serif" font-size="10.00">/HardwarePedalUnitTest.h</text>
</a>
</g>
</g>
<!-- Node2&#45;&gt;Node16 -->
<g id="edge15" class="edge"><title>Node2&#45;&gt;Node16</title>
<path fill="none" stroke="midnightblue" d="M1709.62,-147.549C1466.03,-143.7 589.85,-128.03 313,-98 309.95,-97.6692 306.841,-97.2881 303.705,-96.8679"/>
<polygon fill="midnightblue" stroke="midnightblue" points="1709.67,-151.05 1719.72,-147.707 1709.78,-144.051 1709.67,-151.05"/>
</g>
<!-- Node17 -->
<g id="node17" class="node"><title>Node17</title>
<g id="a_node17"><a xlink:href="_hardware_pwm_buzzer_unit_test_8h.html" target="_top" xlink:title="car/hardwareTest/mbed\l/HardwarePwmBuzzerUnitTest.h">
<polygon fill="white" stroke="black" points="322,-67.5 322,-97.5 490,-97.5 490,-67.5 322,-67.5"/>
<text text-anchor="start" x="330" y="-85.5" font-family="Helvetica,sans-Serif" font-size="10.00">car/hardwareTest/mbed</text>
<text text-anchor="middle" x="406" y="-74.5" font-family="Helvetica,sans-Serif" font-size="10.00">/HardwarePwmBuzzerUnitTest.h</text>
</a>
</g>
</g>
<!-- Node2&#45;&gt;Node17 -->
<g id="edge16" class="edge"><title>Node2&#45;&gt;Node17</title>
<path fill="none" stroke="midnightblue" d="M1709.6,-148.562C1523.37,-148.192 961.987,-143.118 499,-98 496.073,-97.7147 493.097,-97.3979 490.094,-97.0553"/>
<polygon fill="midnightblue" stroke="midnightblue" points="1709.75,-152.062 1719.75,-148.579 1709.76,-145.062 1709.75,-152.062"/>
</g>
<!-- Node18 -->
<g id="node18" class="node"><title>Node18</title>
<g id="a_node18"><a xlink:href="_dummy_s_car_8h.html" target="_top" xlink:title="car/hardwareTest/mbed\l/helper/DummySCar.h">
<polygon fill="white" stroke="black" points="2415,-67.5 2415,-97.5 2543,-97.5 2543,-67.5 2415,-67.5"/>
<text text-anchor="start" x="2423" y="-85.5" font-family="Helvetica,sans-Serif" font-size="10.00">car/hardwareTest/mbed</text>
<text text-anchor="middle" x="2479" y="-74.5" font-family="Helvetica,sans-Serif" font-size="10.00">/helper/DummySCar.h</text>
</a>
</g>
</g>
<!-- Node2&#45;&gt;Node18 -->
<g id="edge18" class="edge"><title>Node2&#45;&gt;Node18</title>
<path fill="none" stroke="midnightblue" d="M1836.37,-145.578C1949.93,-139.859 2195.44,-125.297 2401,-98 2405.51,-97.4017 2410.15,-96.7167 2414.81,-95.9772"/>
<polygon fill="midnightblue" stroke="midnightblue" points="1835.94,-142.095 1826.13,-146.088 1836.29,-149.087 1835.94,-142.095"/>
</g>
<!-- Node19 -->
<g id="node19" class="node"><title>Node19</title>
<g id="a_node19"><a xlink:href="_l_e_d_p_w_m_unit_test_8h.html" target="_top" xlink:title="car/hardwareTest/mbed\l/LEDPWMUnitTest.h">
<polygon fill="white" stroke="black" points="508,-67.5 508,-97.5 636,-97.5 636,-67.5 508,-67.5"/>
<text text-anchor="start" x="516" y="-85.5" font-family="Helvetica,sans-Serif" font-size="10.00">car/hardwareTest/mbed</text>
<text text-anchor="middle" x="572" y="-74.5" font-family="Helvetica,sans-Serif" font-size="10.00">/LEDPWMUnitTest.h</text>
</a>
</g>
</g>
<!-- Node2&#45;&gt;Node19 -->
<g id="edge22" class="edge"><title>Node2&#45;&gt;Node19</title>
<path fill="none" stroke="midnightblue" d="M1709.78,-149.012C1537.98,-149.684 1048.36,-146.804 645,-98 642.05,-97.643 639.04,-97.2331 636.006,-96.7828"/>
<polygon fill="midnightblue" stroke="midnightblue" points="1709.92,-152.512 1719.91,-148.967 1709.89,-145.512 1709.92,-152.512"/>
</g>
<!-- Node20 -->
<g id="node20" class="node"><title>Node20</title>
<g id="a_node20"><a xlink:href="_l_e_d_unit_test_8h.html" target="_top" xlink:title="car/hardwareTest/mbed\l/LEDUnitTest.h">
<polygon fill="white" stroke="black" points="654,-67.5 654,-97.5 782,-97.5 782,-67.5 654,-67.5"/>
<text text-anchor="start" x="662" y="-85.5" font-family="Helvetica,sans-Serif" font-size="10.00">car/hardwareTest/mbed</text>
<text text-anchor="middle" x="718" y="-74.5" font-family="Helvetica,sans-Serif" font-size="10.00">/LEDUnitTest.h</text>
</a>
</g>
</g>
<!-- Node2&#45;&gt;Node20 -->
<g id="edge23" class="edge"><title>Node2&#45;&gt;Node20</title>
<path fill="none" stroke="midnightblue" d="M1709.42,-148.408C1552.72,-147.493 1135.66,-140.863 791,-98 788.051,-97.6332 785.042,-97.2153 782.009,-96.7584"/>
<polygon fill="midnightblue" stroke="midnightblue" points="1709.79,-151.91 1719.81,-148.463 1709.82,-144.91 1709.79,-151.91"/>
</g>
<!-- Node21 -->
<g id="node21" class="node"><title>Node21</title>
<g id="a_node21"><a xlink:href="_master_output_test_8h.html" target="_top" xlink:title="car/hardwareTest/mbed\l/MasterOutputTest.h">
<polygon fill="white" stroke="black" points="800,-67.5 800,-97.5 928,-97.5 928,-67.5 800,-67.5"/>
<text text-anchor="start" x="808" y="-85.5" font-family="Helvetica,sans-Serif" font-size="10.00">car/hardwareTest/mbed</text>
<text text-anchor="middle" x="864" y="-74.5" font-family="Helvetica,sans-Serif" font-size="10.00">/MasterOutputTest.h</text>
</a>
</g>
</g>
<!-- Node2&#45;&gt;Node21 -->
<g id="edge24" class="edge"><title>Node2&#45;&gt;Node21</title>
<path fill="none" stroke="midnightblue" d="M1709.84,-147.607C1570.03,-144.992 1224.01,-134.999 937,-98 934.053,-97.62 931.045,-97.1913 928.013,-96.7256"/>
<polygon fill="midnightblue" stroke="midnightblue" points="1709.89,-151.108 1719.95,-147.79 1710.01,-144.11 1709.89,-151.108"/>
</g>
<!-- Node22 -->
<g id="node22" class="node"><title>Node22</title>
<g id="a_node22"><a xlink:href="_pedal_unit_test_8h.html" target="_top" xlink:title="car/hardwareTest/mbed\l/PedalUnitTest.h">
<polygon fill="white" stroke="black" points="946,-67.5 946,-97.5 1074,-97.5 1074,-67.5 946,-67.5"/>
<text text-anchor="start" x="954" y="-85.5" font-family="Helvetica,sans-Serif" font-size="10.00">car/hardwareTest/mbed</text>
<text text-anchor="middle" x="1010" y="-74.5" font-family="Helvetica,sans-Serif" font-size="10.00">/PedalUnitTest.h</text>
</a>
</g>
</g>
<!-- Node2&#45;&gt;Node22 -->
<g id="edge25" class="edge"><title>Node2&#45;&gt;Node22</title>
<path fill="none" stroke="midnightblue" d="M1709.71,-146.472C1587.9,-141.994 1312.58,-129.081 1083,-98 1080.05,-97.6013 1077.05,-97.1572 1074.02,-96.679"/>
<polygon fill="midnightblue" stroke="midnightblue" points="1709.85,-149.979 1719.97,-146.843 1710.1,-142.984 1709.85,-149.979"/>
</g>
<!-- Node23 -->
<g id="node23" class="node"><title>Node23</title>
<g id="a_node23"><a xlink:href="_pump_refill_8h.html" target="_top" xlink:title="car/hardwareTest/mbed\l/PumpRefill.h">
<polygon fill="white" stroke="black" points="1092,-67.5 1092,-97.5 1220,-97.5 1220,-67.5 1092,-67.5"/>
<text text-anchor="start" x="1100" y="-85.5" font-family="Helvetica,sans-Serif" font-size="10.00">car/hardwareTest/mbed</text>
<text text-anchor="middle" x="1156" y="-74.5" font-family="Helvetica,sans-Serif" font-size="10.00">/PumpRefill.h</text>
</a>
</g>
</g>
<!-- Node2&#45;&gt;Node23 -->
<g id="edge26" class="edge"><title>Node2&#45;&gt;Node23</title>
<path fill="none" stroke="midnightblue" d="M1709.79,-144.764C1608.11,-138.276 1402.1,-123.157 1229,-98 1226.06,-97.5726 1223.06,-97.1049 1220.03,-96.6077"/>
<polygon fill="midnightblue" stroke="midnightblue" points="1709.69,-148.264 1719.89,-145.402 1710.13,-141.278 1709.69,-148.264"/>
</g>
<!-- Node24 -->
<g id="node24" class="node"><title>Node24</title>
<g id="a_node24"><a xlink:href="_r_f_eand_r_u_ntest_8h.html" target="_top" xlink:title="car/hardwareTest/mbed\l/RFEandRUNtest.h">
<polygon fill="white" stroke="black" points="1238,-67.5 1238,-97.5 1366,-97.5 1366,-67.5 1238,-67.5"/>
<text text-anchor="start" x="1246" y="-85.5" font-family="Helvetica,sans-Serif" font-size="10.00">car/hardwareTest/mbed</text>
<text text-anchor="middle" x="1302" y="-74.5" font-family="Helvetica,sans-Serif" font-size="10.00">/RFEandRUNtest.h</text>
</a>
</g>
</g>
<!-- Node2&#45;&gt;Node24 -->
<g id="edge27" class="edge"><title>Node2&#45;&gt;Node24</title>
<path fill="none" stroke="midnightblue" d="M1709.48,-141.826C1630.76,-133.235 1492.61,-117.118 1375,-98 1372.07,-97.5232 1369.07,-97.015 1366.05,-96.4849"/>
<polygon fill="midnightblue" stroke="midnightblue" points="1709.4,-145.337 1719.72,-142.937 1710.16,-138.378 1709.4,-145.337"/>
</g>
<!-- Node25 -->
<g id="node25" class="node"><title>Node25</title>
<g id="a_node25"><a xlink:href="_r_p_m_sensor_unit_test_8h.html" target="_top" xlink:title="car/hardwareTest/mbed\l/RPMSensorUnitTest.h">
<polygon fill="white" stroke="black" points="1384,-67.5 1384,-97.5 1512,-97.5 1512,-67.5 1384,-67.5"/>
<text text-anchor="start" x="1392" y="-85.5" font-family="Helvetica,sans-Serif" font-size="10.00">car/hardwareTest/mbed</text>
<text text-anchor="middle" x="1448" y="-74.5" font-family="Helvetica,sans-Serif" font-size="10.00">/RPMSensorUnitTest.h</text>
</a>
</g>
</g>
<!-- Node2&#45;&gt;Node25 -->
<g id="edge28" class="edge"><title>Node2&#45;&gt;Node25</title>
<path fill="none" stroke="midnightblue" d="M1720.33,-137.965C1663.54,-126.608 1573.12,-108.523 1512.21,-96.3412"/>
<polygon fill="midnightblue" stroke="midnightblue" points="1719.69,-141.406 1730.18,-139.936 1721.06,-134.542 1719.69,-141.406"/>
</g>
<!-- Node9 -->
<g id="node9" class="node"><title>Node9</title>
<g id="a_node9"><a xlink:href="_alive_component_test_8h.html" target="_top" xlink:title="car/hardwareTest/mbed\l/AliveComponentTest.h">
<polygon fill="white" stroke="black" points="2724,-0.5 2724,-30.5 2852,-30.5 2852,-0.5 2724,-0.5"/>
<text text-anchor="start" x="2732" y="-18.5" font-family="Helvetica,sans-Serif" font-size="10.00">car/hardwareTest/mbed</text>
<text text-anchor="middle" x="2788" y="-7.5" font-family="Helvetica,sans-Serif" font-size="10.00">/AliveComponentTest.h</text>
</a>
</g>
</g>
<!-- Node8&#45;&gt;Node9 -->
<g id="edge8" class="edge"><title>Node8&#45;&gt;Node9</title>
<path fill="none" stroke="midnightblue" d="M2669.68,-63.6815C2695.83,-53.2568 2728.37,-40.2805 2752.7,-30.5765"/>
<polygon fill="midnightblue" stroke="midnightblue" points="2668.36,-60.4408 2660.37,-67.396 2670.95,-66.9429 2668.36,-60.4408"/>
</g>
<!-- Node8&#45;&gt;Node10 -->
<g id="edge9" class="edge"><title>Node8&#45;&gt;Node10</title>
<path fill="none" stroke="midnightblue" d="M2625,-57.1081C2625,-48.1539 2625,-38.3227 2625,-30.5765"/>
<polygon fill="midnightblue" stroke="midnightblue" points="2621.5,-57.3959 2625,-67.396 2628.5,-57.396 2621.5,-57.3959"/>
</g>
<!-- Node8&#45;&gt;Node11 -->
<g id="edge10" class="edge"><title>Node8&#45;&gt;Node11</title>
<path fill="none" stroke="midnightblue" d="M2580.04,-63.6815C2553.74,-53.2568 2521,-40.2805 2496.52,-30.5765"/>
<polygon fill="midnightblue" stroke="midnightblue" points="2578.83,-66.9651 2589.41,-67.396 2581.41,-60.4576 2578.83,-66.9651"/>
</g>
<!-- Node18&#45;&gt;Node10 -->
<g id="edge19" class="edge"><title>Node18&#45;&gt;Node10</title>
<path fill="none" stroke="midnightblue" d="M2519.95,-63.2687C2543.2,-52.9159 2571.87,-40.1528 2593.38,-30.5765"/>
<polygon fill="midnightblue" stroke="midnightblue" points="2518.39,-60.1313 2510.68,-67.396 2521.24,-66.5262 2518.39,-60.1313"/>
</g>
<!-- Node18&#45;&gt;Node11 -->
<g id="edge20" class="edge"><title>Node18&#45;&gt;Node11</title>
<path fill="none" stroke="midnightblue" d="M2472.41,-57.6971C2469.89,-48.5871 2467.09,-38.4929 2464.9,-30.5765"/>
<polygon fill="midnightblue" stroke="midnightblue" points="2469.05,-58.6928 2475.09,-67.396 2475.8,-56.8246 2469.05,-58.6928"/>
</g>
<!-- Node27 -->
<g id="node27" class="node"><title>Node27</title>
<g id="a_node27"><a xlink:href="_p_cooling_8h.html" target="_top" xlink:title="lib/carpi/src/runable\l/programs/PCooling.h">
<polygon fill="white" stroke="black" points="3219.5,-0.5 3219.5,-30.5 3338.5,-30.5 3338.5,-0.5 3219.5,-0.5"/>
<text text-anchor="start" x="3227.5" y="-18.5" font-family="Helvetica,sans-Serif" font-size="10.00">lib/carpi/src/runable</text>
<text text-anchor="middle" x="3279" y="-7.5" font-family="Helvetica,sans-Serif" font-size="10.00">/programs/PCooling.h</text>
</a>
</g>
</g>
<!-- Node26&#45;&gt;Node27 -->
<g id="edge30" class="edge"><title>Node26&#45;&gt;Node27</title>
<path fill="none" stroke="midnightblue" d="M3316.72,-124.546C3313.47,-108.119 3308.45,-85.9536 3302,-67 3297.71,-54.4149 3291.37,-40.7234 3286.42,-30.7754"/>
<polygon fill="midnightblue" stroke="midnightblue" points="3313.29,-125.252 3318.6,-134.42 3320.16,-123.942 3313.29,-125.252"/>
</g>
<!-- Node28 -->
<g id="node28" class="node"><title>Node28</title>
<g id="a_node28"><a xlink:href="_p_logger_8h.html" target="_top" xlink:title="lib/carpi/src/runable\l/programs/PLogger.h">
<polygon fill="white" stroke="black" points="3349,-67.5 3349,-97.5 3465,-97.5 3465,-67.5 3349,-67.5"/>
<text text-anchor="start" x="3357" y="-85.5" font-family="Helvetica,sans-Serif" font-size="10.00">lib/carpi/src/runable</text>
<text text-anchor="middle" x="3407" y="-74.5" font-family="Helvetica,sans-Serif" font-size="10.00">/programs/PLogger.h</text>
</a>
</g>
</g>
<!-- Node26&#45;&gt;Node28 -->
<g id="edge31" class="edge"><title>Node26&#45;&gt;Node28</title>
<path fill="none" stroke="midnightblue" d="M3347.9,-128.168C3361.05,-118.228 3376.55,-106.514 3388.38,-97.5765"/>
<polygon fill="midnightblue" stroke="midnightblue" points="3345.53,-125.574 3339.66,-134.396 3349.75,-131.158 3345.53,-125.574"/>
</g>
<!-- Node29 -->
<g id="node29" class="node"><title>Node29</title>
<g id="a_node29"><a xlink:href="_p_motor_controller_8h.html" target="_top" xlink:title="lib/carpi/src/runable\l/programs/PMotorController.h">
<polygon fill="white" stroke="black" points="3483,-67.5 3483,-97.5 3641,-97.5 3641,-67.5 3483,-67.5"/>
<text text-anchor="start" x="3491" y="-85.5" font-family="Helvetica,sans-Serif" font-size="10.00">lib/carpi/src/runable</text>
<text text-anchor="middle" x="3562" y="-74.5" font-family="Helvetica,sans-Serif" font-size="10.00">/programs/PMotorController.h</text>
</a>
</g>
</g>
<!-- Node26&#45;&gt;Node29 -->
<g id="edge32" class="edge"><title>Node26&#45;&gt;Node29</title>
<path fill="none" stroke="midnightblue" d="M3382.73,-131.85C3422.03,-121.252 3472.36,-107.677 3509.68,-97.6109"/>
<polygon fill="midnightblue" stroke="midnightblue" points="3381.74,-128.493 3373,-134.476 3383.56,-135.251 3381.74,-128.493"/>
</g>
<!-- Node26&#45;&gt;Node30 -->
<g id="edge33" class="edge"><title>Node26&#45;&gt;Node30</title>
<path fill="none" stroke="midnightblue" d="M3295.04,-128.168C3282.35,-118.228 3267.39,-106.514 3255.97,-97.5765"/>
<polygon fill="midnightblue" stroke="midnightblue" points="3292.96,-130.986 3302.99,-134.396 3297.28,-125.475 3292.96,-130.986"/>
</g>
<!-- Node30&#45;&gt;Node27 -->
<g id="edge34" class="edge"><title>Node30&#45;&gt;Node27</title>
<path fill="none" stroke="midnightblue" d="M3252.28,-58.8669C3258.21,-49.4594 3264.91,-38.8334 3270.12,-30.5765"/>
<polygon fill="midnightblue" stroke="midnightblue" points="3249.27,-57.0707 3246.9,-67.396 3255.19,-60.8053 3249.27,-57.0707"/>
</g>
</g>
</svg>
        <g id="navigator" transform="translate(0 0)" fill="#404254">
                <rect fill="#f2f5e9" fill-opacity="0.5" stroke="#606060" stroke-width=".5" x="0" y="0" width="60" height="60"/>
                <use id="zoomplus" xlink:href="#zoomPlus" x="17" y="9" onmousedown="handleZoom(evt,'in')"/>
                <use id="zoomminus" xlink:href="#zoomMin" x="42" y="9" onmousedown="handleZoom(evt,'out')"/>
                <use id="reset" xlink:href="#resetDef" x="30" y="36" onmousedown="handleReset()"/>
                <g id="arrowUp" xlink:href="#dirArrow" transform="translate(30 24)" onmousedown="handlePan(0,-1)">
                  <use xlink:href="#rim" fill="#404040">
                        <set attributeName="fill" to="#808080" begin="arrowUp.mouseover" end="arrowUp.mouseout"/>
                  </use>
                  <path fill="none" stroke="white" stroke-width="1.5" d="M0,-3.0v7 M-2.5,-0.5L0,-3.0L2.5,-0.5"/>
                </g>
                <g id="arrowRight" xlink:href="#dirArrow" transform="rotate(90) translate(36 -43)" onmousedown="handlePan(1,0)">
                  <use xlink:href="#rim" fill="#404040">
                        <set attributeName="fill" to="#808080" begin="arrowRight.mouseover" end="arrowRight.mouseout"/>
                  </use>
                  <path fill="none" stroke="white" stroke-width="1.5" d="M0,-3.0v7 M-2.5,-0.5L0,-3.0L2.5,-0.5"/>
                </g>
                <g id="arrowDown" xlink:href="#dirArrow" transform="rotate(180) translate(-30 -48)" onmousedown="handlePan(0,1)">
                  <use xlink:href="#rim" fill="#404040">
                        <set attributeName="fill" to="#808080" begin="arrowDown.mouseover" end="arrowDown.mouseout"/>
                  </use>
                  <path fill="none" stroke="white" stroke-width="1.5" d="M0,-3.0v7 M-2.5,-0.5L0,-3.0L2.5,-0.5"/>
                </g>
                <g id="arrowLeft" xlink:href="#dirArrow" transform="rotate(270) translate(-36 17)" onmousedown="handlePan(-1,0)">
                  <use xlink:href="#rim" fill="#404040">
                        <set attributeName="fill" to="#808080" begin="arrowLeft.mouseover" end="arrowLeft.mouseout"/>
                  </use>
                  <path fill="none" stroke="white" stroke-width="1.5" d="M0,-3.0v7 M-2.5,-0.5L0,-3.0L2.5,-0.5"/>
                </g>
        </g>
        <svg viewBox="0 0 15 15" width="100%" height="30px" preserveAspectRatio="xMaxYMin meet">
         <g id="arrow_out" transform="scale(0.3 0.3)">
          <a xlink:href="_i_service_8h__dep__incl_org.svg" target="_base">
           <rect id="button" ry="5" rx="5" y="6" x="6" height="38" width="38"
                fill="#f2f5e9" fill-opacity="0.5" stroke="#606060" stroke-width="1.0"/>
           <path id="arrow"
             d="M 11.500037,31.436501 C 11.940474,20.09759 22.043105,11.32322 32.158766,21.979434 L 37.068811,17.246167 C 37.068811,17.246167 37.088388,32 37.088388,32 L 22.160133,31.978069 C 22.160133,31.978069 26.997745,27.140456 26.997745,27.140456 C 18.528582,18.264221 13.291696,25.230495 11.500037,31.436501 z"
             style="fill:#404040;"/>
          </a>
         </g>
        </svg>
</svg>
