<?xml version="1.0" encoding="UTF-8" standalone="no"?>
<!DOCTYPE svg PUBLIC "-//W3C//DTD SVG 1.1//EN"
 "http://www.w3.org/Graphics/SVG/1.1/DTD/svg11.dtd">
<!-- Generated by graphviz version 2.38.0 (20140413.2041)
 -->
<!-- Title: lib/carpi/src/components/interface/ISDCard.h Pages: 1 -->
<svg width="323pt" height="207pt"
 viewBox="0.00 0.00 322.50 207.00" xmlns="http://www.w3.org/2000/svg" xmlns:xlink="http://www.w3.org/1999/xlink">
<g id="graph0" class="graph" transform="scale(1 1) rotate(0) translate(4 203)">
<title>lib/carpi/src/components/interface/ISDCard.h</title>
<polygon fill="white" stroke="none" points="-4,4 -4,-203 318.5,-203 318.5,4 -4,4"/>
<!-- Node1 -->
<g id="node1" class="node"><title>Node1</title>
<polygon fill="#bfbfbf" stroke="black" points="0,-168.5 0,-198.5 134,-198.5 134,-168.5 0,-168.5"/>
<text text-anchor="start" x="8" y="-186.5" font-family="Helvetica,sans-Serif" font-size="10.00">lib/carpi/src/components</text>
<text text-anchor="middle" x="67" y="-175.5" font-family="Helvetica,sans-Serif" font-size="10.00">/interface/ISDCard.h</text>
</g>
<!-- Node2 -->
<g id="node2" class="node"><title>Node2</title>
<polygon fill="white" stroke="#bfbfbf" points="40,-0.5 40,-19.5 84,-19.5 84,-0.5 40,-0.5"/>
<text text-anchor="middle" x="62" y="-7.5" font-family="Helvetica,sans-Serif" font-size="10.00">string</text>
</g>
<!-- Node1&#45;&gt;Node2 -->
<g id="edge1" class="edge"><title>Node1&#45;&gt;Node2</title>
<path fill="none" stroke="midnightblue" d="M61.1718,-168.198C57.4373,-158.237 52.9394,-144.543 51,-132 45.8383,-98.6189 46.9607,-89.5354 51,-56 52.0712,-47.1069 54.2923,-37.4344 56.4601,-29.344"/>
<polygon fill="midnightblue" stroke="midnightblue" points="59.8868,-30.0908 59.2701,-19.5139 53.1563,-28.1668 59.8868,-30.0908"/>
</g>
<!-- Node3 -->
<g id="node3" class="node"><title>Node3</title>
<g id="a_node3"><a xlink:href="_i_component_8h.html" target="_top" xlink:title="IComponent.h">
<polygon fill="white" stroke="black" points="60,-112.5 60,-131.5 144,-131.5 144,-112.5 60,-112.5"/>
<text text-anchor="middle" x="102" y="-119.5" font-family="Helvetica,sans-Serif" font-size="10.00">IComponent.h</text>
</a>
</g>
</g>
<!-- Node1&#45;&gt;Node3 -->
<g id="edge2" class="edge"><title>Node1&#45;&gt;Node3</title>
<path fill="none" stroke="midnightblue" d="M75.2945,-168.399C80.2231,-160.021 86.5136,-149.327 91.7512,-140.423"/>
<polygon fill="midnightblue" stroke="midnightblue" points="94.8537,-142.052 96.9072,-131.658 88.8202,-138.503 94.8537,-142.052"/>
</g>
<!-- Node4 -->
<g id="node4" class="node"><title>Node4</title>
<g id="a_node4"><a xlink:href="component_ids_8h.html" target="_top" xlink:title="communication/componentIds.h">
<polygon fill="white" stroke="black" points="143.5,-56.5 143.5,-75.5 314.5,-75.5 314.5,-56.5 143.5,-56.5"/>
<text text-anchor="middle" x="229" y="-63.5" font-family="Helvetica,sans-Serif" font-size="10.00">communication/componentIds.h</text>
</a>
</g>
</g>
<!-- Node3&#45;&gt;Node4 -->
<g id="edge3" class="edge"><title>Node3&#45;&gt;Node4</title>
<path fill="none" stroke="midnightblue" d="M122.124,-112.444C143.024,-103.557 175.935,-89.5632 199.716,-79.4514"/>
<polygon fill="midnightblue" stroke="midnightblue" points="201.138,-82.6504 208.971,-75.5164 198.398,-76.2085 201.138,-82.6504"/>
</g>
<!-- Node6 -->
<g id="node6" class="node"><title>Node6</title>
<g id="a_node6"><a xlink:href="_i_logable_8h.html" target="_top" xlink:title="ILogable.h">
<polygon fill="white" stroke="black" points="60.5,-56.5 60.5,-75.5 125.5,-75.5 125.5,-56.5 60.5,-56.5"/>
<text text-anchor="middle" x="93" y="-63.5" font-family="Helvetica,sans-Serif" font-size="10.00">ILogable.h</text>
</a>
</g>
</g>
<!-- Node3&#45;&gt;Node6 -->
<g id="edge5" class="edge"><title>Node3&#45;&gt;Node6</title>
<path fill="none" stroke="midnightblue" d="M100.514,-112.083C99.3212,-104.927 97.6059,-94.6353 96.1152,-85.6911"/>
<polygon fill="midnightblue" stroke="midnightblue" points="99.555,-85.0396 94.4585,-75.7511 92.6502,-86.1904 99.555,-85.0396"/>
</g>
<!-- Node5 -->
<g id="node5" class="node"><title>Node5</title>
<polygon fill="white" stroke="#bfbfbf" points="202.5,-0.5 202.5,-19.5 255.5,-19.5 255.5,-0.5 202.5,-0.5"/>
<text text-anchor="middle" x="229" y="-7.5" font-family="Helvetica,sans-Serif" font-size="10.00">stdint.h</text>
</g>
<!-- Node4&#45;&gt;Node5 -->
<g id="edge4" class="edge"><title>Node4&#45;&gt;Node5</title>
<path fill="none" stroke="midnightblue" d="M229,-56.083C229,-49.0059 229,-38.8611 229,-29.9865"/>
<polygon fill="midnightblue" stroke="midnightblue" points="232.5,-29.751 229,-19.7511 225.5,-29.7511 232.5,-29.751"/>
</g>
<!-- Node6&#45;&gt;Node2 -->
<g id="edge6" class="edge"><title>Node6&#45;&gt;Node2</title>
<path fill="none" stroke="midnightblue" d="M87.881,-56.083C83.5925,-48.6127 77.3418,-37.7244 72.0577,-28.5199"/>
<polygon fill="midnightblue" stroke="midnightblue" points="75.0379,-26.6811 67.0238,-19.7511 68.9671,-30.1662 75.0379,-26.6811"/>
</g>
</g>
</svg>
