<?xml version="1.0" encoding="UTF-8" standalone="no"?>
<!DOCTYPE svg PUBLIC "-//W3C//DTD SVG 1.1//EN"
 "http://www.w3.org/Graphics/SVG/1.1/DTD/svg11.dtd">
<!-- Generated by graphviz version 2.38.0 (20140413.2041)
 -->
<!-- Title: lib/carpi/src/steroido/src/Common/ITimer.h Pages: 1 -->
<svg width="306pt" height="117pt"
 viewBox="0.00 0.00 305.50 117.00" xmlns="http://www.w3.org/2000/svg" xmlns:xlink="http://www.w3.org/1999/xlink">
<g id="graph0" class="graph" transform="scale(1 1) rotate(0) translate(4 113)">
<title>lib/carpi/src/steroido/src/Common/ITimer.h</title>
<polygon fill="white" stroke="none" points="-4,4 -4,-113 301.5,-113 301.5,4 -4,4"/>
<!-- Node1 -->
<g id="node1" class="node"><title>Node1</title>
<polygon fill="#bfbfbf" stroke="black" points="77,-78.5 77,-108.5 199,-108.5 199,-78.5 77,-78.5"/>
<text text-anchor="start" x="85" y="-96.5" font-family="Helvetica,sans-Serif" font-size="10.00">lib/carpi/src/steroido</text>
<text text-anchor="middle" x="138" y="-85.5" font-family="Helvetica,sans-Serif" font-size="10.00">/src/Common/ITimer.h</text>
</g>
<!-- Node2 -->
<g id="node2" class="node"><title>Node2</title>
<g id="a_node2"><a xlink:href="_timer_8h.html" target="_top" xlink:title="lib/carpi/src/steroido\l/src/AbstractionLayer\l/Arduino/Timer.h">
<polygon fill="white" stroke="black" points="0,-0.5 0,-41.5 118,-41.5 118,-0.5 0,-0.5"/>
<text text-anchor="start" x="8" y="-29.5" font-family="Helvetica,sans-Serif" font-size="10.00">lib/carpi/src/steroido</text>
<text text-anchor="start" x="8" y="-18.5" font-family="Helvetica,sans-Serif" font-size="10.00">/src/AbstractionLayer</text>
<text text-anchor="middle" x="59" y="-7.5" font-family="Helvetica,sans-Serif" font-size="10.00">/Arduino/Timer.h</text>
</a>
</g>
</g>
<!-- Node1&#45;&gt;Node2 -->
<g id="edge1" class="edge"><title>Node1&#45;&gt;Node2</title>
<path fill="none" stroke="midnightblue" d="M114.333,-71.3792C103.742,-61.9277 91.331,-50.8524 80.9502,-41.5884"/>
<polygon fill="midnightblue" stroke="midnightblue" points="112.222,-74.1863 122.013,-78.2333 116.883,-68.9636 112.222,-74.1863"/>
</g>
<!-- Node3 -->
<g id="node3" class="node"><title>Node3</title>
<g id="a_node3"><a xlink:href="_testing_header_8h.html" target="_top" xlink:title="lib/carpi/src/steroido\l/src/Common/TestingHeader.h">
<polygon fill="white" stroke="black" points="136.5,-6 136.5,-36 297.5,-36 297.5,-6 136.5,-6"/>
<text text-anchor="start" x="144.5" y="-24" font-family="Helvetica,sans-Serif" font-size="10.00">lib/carpi/src/steroido</text>
<text text-anchor="middle" x="217" y="-13" font-family="Helvetica,sans-Serif" font-size="10.00">/src/Common/TestingHeader.h</text>
</a>
</g>
</g>
<!-- Node1&#45;&gt;Node3 -->
<g id="edge2" class="edge"><title>Node1&#45;&gt;Node3</title>
<path fill="none" stroke="midnightblue" d="M161.572,-71.464C174.414,-60.0043 189.953,-46.137 201.307,-36.0049"/>
<polygon fill="midnightblue" stroke="midnightblue" points="159.117,-68.9636 153.987,-78.2333 163.778,-74.1863 159.117,-68.9636"/>
</g>
</g>
</svg>
