<?xml version="1.0" encoding="UTF-8" standalone="no"?>
<!DOCTYPE svg PUBLIC "-//W3C//DTD SVG 1.1//EN"
 "http://www.w3.org/Graphics/SVG/1.1/DTD/svg11.dtd">
<!-- Generated by graphviz version 2.38.0 (20140413.2041)
 -->
<!-- Title: lib/carpi/src/components/internal/InternalRegistry.h Pages: 1 -->
<svg width="3173pt" height="240pt"
 viewBox="0.00 0.00 3172.50 240.00" xmlns="http://www.w3.org/2000/svg" xmlns:xlink="http://www.w3.org/1999/xlink">
<g id="graph0" class="graph" transform="scale(1 1) rotate(0) translate(4 236)">
<title>lib/carpi/src/components/internal/InternalRegistry.h</title>
<polygon fill="white" stroke="none" points="-4,4 -4,-236 3168.5,-236 3168.5,4 -4,4"/>
<!-- Node1 -->
<g id="node1" class="node"><title>Node1</title>
<polygon fill="#bfbfbf" stroke="black" points="1499.5,-201.5 1499.5,-231.5 1639.5,-231.5 1639.5,-201.5 1499.5,-201.5"/>
<text text-anchor="start" x="1507.5" y="-219.5" font-family="Helvetica,sans-Serif" font-size="10.00">lib/carpi/src/components</text>
<text text-anchor="middle" x="1569.5" y="-208.5" font-family="Helvetica,sans-Serif" font-size="10.00">/internal/InternalRegistry.h</text>
</g>
<!-- Node2 -->
<g id="node2" class="node"><title>Node2</title>
<g id="a_node2"><a xlink:href="carpi_8h.html" target="_top" xlink:title="lib/carpi/src/carpi.h">
<polygon fill="white" stroke="black" points="1444.5,-140 1444.5,-159 1550.5,-159 1550.5,-140 1444.5,-140"/>
<text text-anchor="middle" x="1497.5" y="-147" font-family="Helvetica,sans-Serif" font-size="10.00">lib/carpi/src/carpi.h</text>
</a>
</g>
</g>
<!-- Node1&#45;&gt;Node2 -->
<g id="edge1" class="edge"><title>Node1&#45;&gt;Node2</title>
<path fill="none" stroke="midnightblue" d="M1546.43,-194.672C1533.14,-182.671 1517.13,-168.22 1507.13,-159.195"/>
<polygon fill="midnightblue" stroke="midnightblue" points="1544.11,-197.293 1553.88,-201.396 1548.8,-192.097 1544.11,-197.293"/>
</g>
<!-- Node26 -->
<g id="node26" class="node"><title>Node26</title>
<g id="a_node26"><a xlink:href="test___registry_sync_8cpp.html" target="_top" xlink:title="test/common_test_Registry\lSync/test_RegistrySync.cpp">
<polygon fill="white" stroke="black" points="1568.5,-134.5 1568.5,-164.5 1716.5,-164.5 1716.5,-134.5 1568.5,-134.5"/>
<text text-anchor="start" x="1576.5" y="-152.5" font-family="Helvetica,sans-Serif" font-size="10.00">test/common_test_Registry</text>
<text text-anchor="middle" x="1642.5" y="-141.5" font-family="Helvetica,sans-Serif" font-size="10.00">Sync/test_RegistrySync.cpp</text>
</a>
</g>
</g>
<!-- Node1&#45;&gt;Node26 -->
<g id="edge29" class="edge"><title>Node1&#45;&gt;Node26</title>
<path fill="none" stroke="midnightblue" d="M1592.97,-194.598C1604,-184.783 1616.84,-173.344 1626.69,-164.577"/>
<polygon fill="midnightblue" stroke="midnightblue" points="1590.48,-192.132 1585.34,-201.396 1595.14,-197.36 1590.48,-192.132"/>
</g>
<!-- Node3 -->
<g id="node3" class="node"><title>Node3</title>
<g id="a_node3"><a xlink:href="_dashboard_slave_conf_8h.html" target="_top" xlink:title="car/Bonnie2019/Dashboard\lSlaveConf.h">
<polygon fill="white" stroke="black" points="0,-67.5 0,-97.5 147,-97.5 147,-67.5 0,-67.5"/>
<text text-anchor="start" x="8" y="-85.5" font-family="Helvetica,sans-Serif" font-size="10.00">car/Bonnie2019/Dashboard</text>
<text text-anchor="middle" x="73.5" y="-74.5" font-family="Helvetica,sans-Serif" font-size="10.00">SlaveConf.h</text>
</a>
</g>
</g>
<!-- Node2&#45;&gt;Node3 -->
<g id="edge2" class="edge"><title>Node2&#45;&gt;Node3</title>
<path fill="none" stroke="midnightblue" d="M1433.96,-147.268C1202.96,-142.611 408.085,-124.956 155.5,-98 152.769,-97.7085 149.991,-97.3804 147.189,-97.0228"/>
<polygon fill="midnightblue" stroke="midnightblue" points="1434.14,-150.773 1444.21,-147.474 1434.28,-143.774 1434.14,-150.773"/>
</g>
<!-- Node4 -->
<g id="node4" class="node"><title>Node4</title>
<g id="a_node4"><a xlink:href="_display_slave_conf_8h.html" target="_top" xlink:title="car/Bonnie2019/DisplaySlave\lConf.h">
<polygon fill="white" stroke="black" points="165,-67.5 165,-97.5 320,-97.5 320,-67.5 165,-67.5"/>
<text text-anchor="start" x="173" y="-85.5" font-family="Helvetica,sans-Serif" font-size="10.00">car/Bonnie2019/DisplaySlave</text>
<text text-anchor="middle" x="242.5" y="-74.5" font-family="Helvetica,sans-Serif" font-size="10.00">Conf.h</text>
</a>
</g>
</g>
<!-- Node2&#45;&gt;Node4 -->
<g id="edge3" class="edge"><title>Node2&#45;&gt;Node4</title>
<path fill="none" stroke="midnightblue" d="M1434.26,-148.471C1258.53,-147.807 749.594,-141.924 329.5,-98 326.454,-97.6815 323.353,-97.3243 320.224,-96.9364"/>
<polygon fill="midnightblue" stroke="midnightblue" points="1434.35,-151.971 1444.36,-148.505 1434.37,-144.971 1434.35,-151.971"/>
</g>
<!-- Node5 -->
<g id="node5" class="node"><title>Node5</title>
<g id="a_node5"><a xlink:href="_lo_ra_conf_8h.html" target="_top" xlink:title="car/Bonnie2019/LoRaConf.h">
<polygon fill="white" stroke="black" points="338.5,-73 338.5,-92 486.5,-92 486.5,-73 338.5,-73"/>
<text text-anchor="middle" x="412.5" y="-80" font-family="Helvetica,sans-Serif" font-size="10.00">car/Bonnie2019/LoRaConf.h</text>
</a>
</g>
</g>
<!-- Node2&#45;&gt;Node5 -->
<g id="edge4" class="edge"><title>Node2&#45;&gt;Node5</title>
<path fill="none" stroke="midnightblue" d="M1434.31,-148C1275.83,-146.164 848.86,-137.619 495.5,-98 482.417,-96.5331 468.274,-94.3055 455.434,-92.0333"/>
<polygon fill="midnightblue" stroke="midnightblue" points="1434.32,-151.5 1444.36,-148.112 1434.4,-144.501 1434.32,-151.5"/>
</g>
<!-- Node6 -->
<g id="node6" class="node"><title>Node6</title>
<g id="a_node6"><a xlink:href="_master_conf_8h.html" target="_top" xlink:title="car/Bonnie2019/MasterConf.h">
<polygon fill="white" stroke="black" points="504.5,-73 504.5,-92 662.5,-92 662.5,-73 504.5,-73"/>
<text text-anchor="middle" x="583.5" y="-80" font-family="Helvetica,sans-Serif" font-size="10.00">car/Bonnie2019/MasterConf.h</text>
</a>
</g>
</g>
<!-- Node2&#45;&gt;Node6 -->
<g id="edge5" class="edge"><title>Node2&#45;&gt;Node6</title>
<path fill="none" stroke="midnightblue" d="M1434.24,-146.793C1295.79,-142.581 955.624,-129.648 672.5,-98 658.809,-96.4696 644.014,-94.2779 630.491,-92.0605"/>
<polygon fill="midnightblue" stroke="midnightblue" points="1434.16,-150.291 1444.26,-147.092 1434.37,-143.294 1434.16,-150.291"/>
</g>
<!-- Node7 -->
<g id="node7" class="node"><title>Node7</title>
<g id="a_node7"><a xlink:href="_pedal_slave_conf_8h.html" target="_top" xlink:title="car/Bonnie2019/PedalSlave\lConf.h">
<polygon fill="white" stroke="black" points="681,-67.5 681,-97.5 828,-97.5 828,-67.5 681,-67.5"/>
<text text-anchor="start" x="689" y="-85.5" font-family="Helvetica,sans-Serif" font-size="10.00">car/Bonnie2019/PedalSlave</text>
<text text-anchor="middle" x="754.5" y="-74.5" font-family="Helvetica,sans-Serif" font-size="10.00">Conf.h</text>
</a>
</g>
</g>
<!-- Node2&#45;&gt;Node7 -->
<g id="edge6" class="edge"><title>Node2&#45;&gt;Node7</title>
<path fill="none" stroke="midnightblue" d="M1434.06,-145.434C1316.9,-139.366 1058.75,-124.104 842.5,-98 837.888,-97.4433 833.149,-96.818 828.375,-96.1478"/>
<polygon fill="midnightblue" stroke="midnightblue" points="1434.12,-148.941 1444.28,-145.958 1434.48,-141.95 1434.12,-148.941"/>
</g>
<!-- Node8 -->
<g id="node8" class="node"><title>Node8</title>
<g id="a_node8"><a xlink:href="_syntetic_sync_8h.html" target="_top" xlink:title="car/hardwareTest/mbed\l/helper/SynteticSync.h">
<polygon fill="white" stroke="black" points="1030.5,-67.5 1030.5,-97.5 1158.5,-97.5 1158.5,-67.5 1030.5,-67.5"/>
<text text-anchor="start" x="1038.5" y="-85.5" font-family="Helvetica,sans-Serif" font-size="10.00">car/hardwareTest/mbed</text>
<text text-anchor="middle" x="1094.5" y="-74.5" font-family="Helvetica,sans-Serif" font-size="10.00">/helper/SynteticSync.h</text>
</a>
</g>
</g>
<!-- Node2&#45;&gt;Node8 -->
<g id="edge7" class="edge"><title>Node2&#45;&gt;Node8</title>
<path fill="none" stroke="midnightblue" d="M1434.05,-139.209C1368.47,-129.474 1263.2,-113.473 1172.5,-98 1168.02,-97.2356 1163.4,-96.4273 1158.75,-95.5992"/>
<polygon fill="midnightblue" stroke="midnightblue" points="1433.82,-142.713 1444.22,-140.717 1434.84,-135.789 1433.82,-142.713"/>
</g>
<!-- Node10 -->
<g id="node10" class="node"><title>Node10</title>
<g id="a_node10"><a xlink:href="_hardware_s_d_card_stress_test_8h.html" target="_top" xlink:title="car/hardwareTest/mbed\l/HardwareSDCardStressTest.h">
<polygon fill="white" stroke="black" points="850,-0.5 850,-30.5 1011,-30.5 1011,-0.5 850,-0.5"/>
<text text-anchor="start" x="858" y="-18.5" font-family="Helvetica,sans-Serif" font-size="10.00">car/hardwareTest/mbed</text>
<text text-anchor="middle" x="930.5" y="-7.5" font-family="Helvetica,sans-Serif" font-size="10.00">/HardwareSDCardStressTest.h</text>
</a>
</g>
</g>
<!-- Node2&#45;&gt;Node10 -->
<g id="edge17" class="edge"><title>Node2&#45;&gt;Node10</title>
<path fill="none" stroke="midnightblue" d="M1434.36,-148.111C1283.69,-146.527 912.855,-138.511 875.5,-98 855.828,-76.6666 886.537,-47.7268 909.389,-30.6905"/>
<polygon fill="midnightblue" stroke="midnightblue" points="1434.35,-151.611 1444.39,-148.21 1434.42,-144.611 1434.35,-151.611"/>
</g>
<!-- Node11 -->
<g id="node11" class="node"><title>Node11</title>
<g id="a_node11"><a xlink:href="_hardware_s_d_card_test_8h.html" target="_top" xlink:title="car/hardwareTest/mbed\l/HardwareSDCardTest.h">
<polygon fill="white" stroke="black" points="1029.5,-0.5 1029.5,-30.5 1159.5,-30.5 1159.5,-0.5 1029.5,-0.5"/>
<text text-anchor="start" x="1037.5" y="-18.5" font-family="Helvetica,sans-Serif" font-size="10.00">car/hardwareTest/mbed</text>
<text text-anchor="middle" x="1094.5" y="-7.5" font-family="Helvetica,sans-Serif" font-size="10.00">/HardwareSDCardTest.h</text>
</a>
</g>
</g>
<!-- Node2&#45;&gt;Node11 -->
<g id="edge21" class="edge"><title>Node2&#45;&gt;Node11</title>
<path fill="none" stroke="midnightblue" d="M1433.98,-146.763C1372.92,-143.001 1279.29,-131.642 1205.5,-98 1185.67,-88.9581 1184.92,-80.0992 1167.5,-67 1150.5,-54.2189 1130.62,-40.5427 1115.9,-30.6505"/>
<polygon fill="midnightblue" stroke="midnightblue" points="1434.05,-150.273 1444.24,-147.343 1434.45,-143.284 1434.05,-150.273"/>
</g>
<!-- Node12 -->
<g id="node12" class="node"><title>Node12</title>
<g id="a_node12"><a xlink:href="_button_unit_test_8h.html" target="_top" xlink:title="car/hardwareTest/mbed\l/ButtonUnitTest.h">
<polygon fill="white" stroke="black" points="1214.5,-67.5 1214.5,-97.5 1342.5,-97.5 1342.5,-67.5 1214.5,-67.5"/>
<text text-anchor="start" x="1222.5" y="-85.5" font-family="Helvetica,sans-Serif" font-size="10.00">car/hardwareTest/mbed</text>
<text text-anchor="middle" x="1278.5" y="-74.5" font-family="Helvetica,sans-Serif" font-size="10.00">/ButtonUnitTest.h</text>
</a>
</g>
</g>
<!-- Node2&#45;&gt;Node12 -->
<g id="edge11" class="edge"><title>Node2&#45;&gt;Node12</title>
<path fill="none" stroke="midnightblue" d="M1458.47,-136.917C1421.34,-125.895 1365.41,-109.294 1325.76,-97.5281"/>
<polygon fill="midnightblue" stroke="midnightblue" points="1457.84,-140.378 1468.42,-139.869 1459.83,-133.668 1457.84,-140.378"/>
</g>
<!-- Node13 -->
<g id="node13" class="node"><title>Node13</title>
<g id="a_node13"><a xlink:href="_c_a_n_service_unit_test_8h.html" target="_top" xlink:title="car/hardwareTest/mbed\l/CANServiceUnitTest.h">
<polygon fill="white" stroke="black" points="1360.5,-67.5 1360.5,-97.5 1488.5,-97.5 1488.5,-67.5 1360.5,-67.5"/>
<text text-anchor="start" x="1368.5" y="-85.5" font-family="Helvetica,sans-Serif" font-size="10.00">car/hardwareTest/mbed</text>
<text text-anchor="middle" x="1424.5" y="-74.5" font-family="Helvetica,sans-Serif" font-size="10.00">/CANServiceUnitTest.h</text>
</a>
</g>
</g>
<!-- Node2&#45;&gt;Node13 -->
<g id="edge12" class="edge"><title>Node2&#45;&gt;Node13</title>
<path fill="none" stroke="midnightblue" d="M1480.01,-132.928C1467.94,-122.179 1452.02,-108.002 1440.32,-97.589"/>
<polygon fill="midnightblue" stroke="midnightblue" points="1477.86,-135.698 1487.65,-139.734 1482.51,-130.47 1477.86,-135.698"/>
</g>
<!-- Node14 -->
<g id="node14" class="node"><title>Node14</title>
<g id="a_node14"><a xlink:href="_dashboard_demo_8h.html" target="_top" xlink:title="car/hardwareTest/mbed\l/DashboardDemo.h">
<polygon fill="white" stroke="black" points="1506.5,-67.5 1506.5,-97.5 1634.5,-97.5 1634.5,-67.5 1506.5,-67.5"/>
<text text-anchor="start" x="1514.5" y="-85.5" font-family="Helvetica,sans-Serif" font-size="10.00">car/hardwareTest/mbed</text>
<text text-anchor="middle" x="1570.5" y="-74.5" font-family="Helvetica,sans-Serif" font-size="10.00">/DashboardDemo.h</text>
</a>
</g>
</g>
<!-- Node2&#45;&gt;Node14 -->
<g id="edge13" class="edge"><title>Node2&#45;&gt;Node14</title>
<path fill="none" stroke="midnightblue" d="M1514.99,-132.928C1527.06,-122.179 1542.98,-108.002 1554.68,-97.589"/>
<polygon fill="midnightblue" stroke="midnightblue" points="1512.49,-130.47 1507.35,-139.734 1517.14,-135.698 1512.49,-130.47"/>
</g>
<!-- Node15 -->
<g id="node15" class="node"><title>Node15</title>
<g id="a_node15"><a xlink:href="_hardware_buzzer_unit_test_8h.html" target="_top" xlink:title="car/hardwareTest/mbed\l/HardwareBuzzerUnitTest.h">
<polygon fill="white" stroke="black" points="1652.5,-67.5 1652.5,-97.5 1798.5,-97.5 1798.5,-67.5 1652.5,-67.5"/>
<text text-anchor="start" x="1660.5" y="-85.5" font-family="Helvetica,sans-Serif" font-size="10.00">car/hardwareTest/mbed</text>
<text text-anchor="middle" x="1725.5" y="-74.5" font-family="Helvetica,sans-Serif" font-size="10.00">/HardwareBuzzerUnitTest.h</text>
</a>
</g>
</g>
<!-- Node2&#45;&gt;Node15 -->
<g id="edge14" class="edge"><title>Node2&#45;&gt;Node15</title>
<path fill="none" stroke="midnightblue" d="M1537.64,-137.058C1576.29,-126.037 1634.85,-109.344 1676.29,-97.5281"/>
<polygon fill="midnightblue" stroke="midnightblue" points="1536.43,-133.761 1527.78,-139.869 1538.35,-140.493 1536.43,-133.761"/>
</g>
<!-- Node16 -->
<g id="node16" class="node"><title>Node16</title>
<g id="a_node16"><a xlink:href="_hardware_pedal_unit_test_8h.html" target="_top" xlink:title="car/hardwareTest/mbed\l/HardwarePedalUnitTest.h">
<polygon fill="white" stroke="black" points="1817,-67.5 1817,-97.5 1956,-97.5 1956,-67.5 1817,-67.5"/>
<text text-anchor="start" x="1825" y="-85.5" font-family="Helvetica,sans-Serif" font-size="10.00">car/hardwareTest/mbed</text>
<text text-anchor="middle" x="1886.5" y="-74.5" font-family="Helvetica,sans-Serif" font-size="10.00">/HardwarePedalUnitTest.h</text>
</a>
</g>
</g>
<!-- Node2&#45;&gt;Node16 -->
<g id="edge15" class="edge"><title>Node2&#45;&gt;Node16</title>
<path fill="none" stroke="midnightblue" d="M1541.5,-137.722C1547.53,-136.387 1553.66,-135.106 1559.5,-134 1668.94,-113.299 1697.6,-116.057 1807.5,-98 1810.53,-97.5027 1813.62,-96.9837 1816.74,-96.4505"/>
<polygon fill="midnightblue" stroke="midnightblue" points="1540.47,-134.365 1531.5,-139.996 1542.03,-141.19 1540.47,-134.365"/>
</g>
<!-- Node17 -->
<g id="node17" class="node"><title>Node17</title>
<g id="a_node17"><a xlink:href="_hardware_pwm_buzzer_unit_test_8h.html" target="_top" xlink:title="car/hardwareTest/mbed\l/HardwarePwmBuzzerUnitTest.h">
<polygon fill="white" stroke="black" points="1974.5,-67.5 1974.5,-97.5 2142.5,-97.5 2142.5,-67.5 1974.5,-67.5"/>
<text text-anchor="start" x="1982.5" y="-85.5" font-family="Helvetica,sans-Serif" font-size="10.00">car/hardwareTest/mbed</text>
<text text-anchor="middle" x="2058.5" y="-74.5" font-family="Helvetica,sans-Serif" font-size="10.00">/HardwarePwmBuzzerUnitTest.h</text>
</a>
</g>
</g>
<!-- Node2&#45;&gt;Node17 -->
<g id="edge16" class="edge"><title>Node2&#45;&gt;Node17</title>
<path fill="none" stroke="midnightblue" d="M1540.12,-137.7C1546.58,-136.304 1553.2,-135.011 1559.5,-134 1738.36,-105.302 1785.68,-119.966 1965.5,-98 1968.42,-97.6433 1971.39,-97.2652 1974.39,-96.8702"/>
<polygon fill="midnightblue" stroke="midnightblue" points="1539.13,-134.335 1530.15,-139.953 1540.67,-141.163 1539.13,-134.335"/>
</g>
<!-- Node18 -->
<g id="node18" class="node"><title>Node18</title>
<g id="a_node18"><a xlink:href="_dummy_s_car_8h.html" target="_top" xlink:title="car/hardwareTest/mbed\l/helper/DummySCar.h">
<polygon fill="white" stroke="black" points="884.5,-67.5 884.5,-97.5 1012.5,-97.5 1012.5,-67.5 884.5,-67.5"/>
<text text-anchor="start" x="892.5" y="-85.5" font-family="Helvetica,sans-Serif" font-size="10.00">car/hardwareTest/mbed</text>
<text text-anchor="middle" x="948.5" y="-74.5" font-family="Helvetica,sans-Serif" font-size="10.00">/helper/DummySCar.h</text>
</a>
</g>
</g>
<!-- Node2&#45;&gt;Node18 -->
<g id="edge18" class="edge"><title>Node2&#45;&gt;Node18</title>
<path fill="none" stroke="midnightblue" d="M1434.28,-143.623C1342.88,-136.158 1168.64,-120.372 1021.5,-98 1018.56,-97.5533 1015.56,-97.0698 1012.54,-96.5597"/>
<polygon fill="midnightblue" stroke="midnightblue" points="1434.22,-147.13 1444.47,-144.449 1434.79,-140.153 1434.22,-147.13"/>
</g>
<!-- Node19 -->
<g id="node19" class="node"><title>Node19</title>
<g id="a_node19"><a xlink:href="_l_e_d_p_w_m_unit_test_8h.html" target="_top" xlink:title="car/hardwareTest/mbed\l/LEDPWMUnitTest.h">
<polygon fill="white" stroke="black" points="2160.5,-67.5 2160.5,-97.5 2288.5,-97.5 2288.5,-67.5 2160.5,-67.5"/>
<text text-anchor="start" x="2168.5" y="-85.5" font-family="Helvetica,sans-Serif" font-size="10.00">car/hardwareTest/mbed</text>
<text text-anchor="middle" x="2224.5" y="-74.5" font-family="Helvetica,sans-Serif" font-size="10.00">/LEDPWMUnitTest.h</text>
</a>
</g>
</g>
<!-- Node2&#45;&gt;Node19 -->
<g id="edge22" class="edge"><title>Node2&#45;&gt;Node19</title>
<path fill="none" stroke="midnightblue" d="M1539.65,-137.637C1546.26,-136.226 1553.04,-134.945 1559.5,-134 1820.32,-95.8499 1890.07,-131.755 2151.5,-98 2154.45,-97.6194 2157.45,-97.1902 2160.49,-96.7241"/>
<polygon fill="midnightblue" stroke="midnightblue" points="1538.47,-134.317 1529.48,-139.933 1540.01,-141.145 1538.47,-134.317"/>
</g>
<!-- Node20 -->
<g id="node20" class="node"><title>Node20</title>
<g id="a_node20"><a xlink:href="_l_e_d_unit_test_8h.html" target="_top" xlink:title="car/hardwareTest/mbed\l/LEDUnitTest.h">
<polygon fill="white" stroke="black" points="2306.5,-67.5 2306.5,-97.5 2434.5,-97.5 2434.5,-67.5 2306.5,-67.5"/>
<text text-anchor="start" x="2314.5" y="-85.5" font-family="Helvetica,sans-Serif" font-size="10.00">car/hardwareTest/mbed</text>
<text text-anchor="middle" x="2370.5" y="-74.5" font-family="Helvetica,sans-Serif" font-size="10.00">/LEDUnitTest.h</text>
</a>
</g>
</g>
<!-- Node2&#45;&gt;Node20 -->
<g id="edge23" class="edge"><title>Node2&#45;&gt;Node20</title>
<path fill="none" stroke="midnightblue" d="M1538.95,-137.717C1545.77,-136.255 1552.81,-134.938 1559.5,-134 1884.71,-88.422 1971.57,-138.098 2297.5,-98 2300.45,-97.6371 2303.46,-97.2224 2306.49,-96.7681"/>
<polygon fill="midnightblue" stroke="midnightblue" points="1538.13,-134.312 1529.15,-139.934 1539.68,-141.139 1538.13,-134.312"/>
</g>
<!-- Node21 -->
<g id="node21" class="node"><title>Node21</title>
<g id="a_node21"><a xlink:href="_master_output_test_8h.html" target="_top" xlink:title="car/hardwareTest/mbed\l/MasterOutputTest.h">
<polygon fill="white" stroke="black" points="2452.5,-67.5 2452.5,-97.5 2580.5,-97.5 2580.5,-67.5 2452.5,-67.5"/>
<text text-anchor="start" x="2460.5" y="-85.5" font-family="Helvetica,sans-Serif" font-size="10.00">car/hardwareTest/mbed</text>
<text text-anchor="middle" x="2516.5" y="-74.5" font-family="Helvetica,sans-Serif" font-size="10.00">/MasterOutputTest.h</text>
</a>
</g>
</g>
<!-- Node2&#45;&gt;Node21 -->
<g id="edge24" class="edge"><title>Node2&#45;&gt;Node21</title>
<path fill="none" stroke="midnightblue" d="M1538.71,-137.718C1545.61,-136.243 1552.73,-134.921 1559.5,-134 1949.13,-80.9908 2053.04,-144.444 2443.5,-98 2446.45,-97.649 2449.46,-97.244 2452.5,-96.7976"/>
<polygon fill="midnightblue" stroke="midnightblue" points="1537.8,-134.335 1528.83,-139.96 1539.35,-141.162 1537.8,-134.335"/>
</g>
<!-- Node22 -->
<g id="node22" class="node"><title>Node22</title>
<g id="a_node22"><a xlink:href="_pedal_unit_test_8h.html" target="_top" xlink:title="car/hardwareTest/mbed\l/PedalUnitTest.h">
<polygon fill="white" stroke="black" points="2598.5,-67.5 2598.5,-97.5 2726.5,-97.5 2726.5,-67.5 2598.5,-67.5"/>
<text text-anchor="start" x="2606.5" y="-85.5" font-family="Helvetica,sans-Serif" font-size="10.00">car/hardwareTest/mbed</text>
<text text-anchor="middle" x="2662.5" y="-74.5" font-family="Helvetica,sans-Serif" font-size="10.00">/PedalUnitTest.h</text>
</a>
</g>
</g>
<!-- Node2&#45;&gt;Node22 -->
<g id="edge25" class="edge"><title>Node2&#45;&gt;Node22</title>
<path fill="none" stroke="midnightblue" d="M1538.71,-137.684C1545.61,-136.213 1552.73,-134.902 1559.5,-134 2013.55,-73.5577 2134.5,-150.792 2589.5,-98 2592.45,-97.6575 2595.46,-97.2595 2598.5,-96.8187"/>
<polygon fill="midnightblue" stroke="midnightblue" points="1537.8,-134.301 1528.82,-139.924 1539.35,-141.128 1537.8,-134.301"/>
</g>
<!-- Node23 -->
<g id="node23" class="node"><title>Node23</title>
<g id="a_node23"><a xlink:href="_pump_refill_8h.html" target="_top" xlink:title="car/hardwareTest/mbed\l/PumpRefill.h">
<polygon fill="white" stroke="black" points="2744.5,-67.5 2744.5,-97.5 2872.5,-97.5 2872.5,-67.5 2744.5,-67.5"/>
<text text-anchor="start" x="2752.5" y="-85.5" font-family="Helvetica,sans-Serif" font-size="10.00">car/hardwareTest/mbed</text>
<text text-anchor="middle" x="2808.5" y="-74.5" font-family="Helvetica,sans-Serif" font-size="10.00">/PumpRefill.h</text>
</a>
</g>
</g>
<!-- Node2&#45;&gt;Node23 -->
<g id="edge26" class="edge"><title>Node2&#45;&gt;Node23</title>
<path fill="none" stroke="midnightblue" d="M1538.48,-137.707C1545.45,-136.219 1552.65,-134.897 1559.5,-134 2077.99,-66.1235 2215.94,-157.14 2735.5,-98 2738.32,-97.6785 2741.2,-97.3052 2744.1,-96.8913"/>
<polygon fill="midnightblue" stroke="midnightblue" points="1537.48,-134.346 1528.5,-139.973 1539.03,-141.172 1537.48,-134.346"/>
</g>
<!-- Node24 -->
<g id="node24" class="node"><title>Node24</title>
<g id="a_node24"><a xlink:href="_r_f_eand_r_u_ntest_8h.html" target="_top" xlink:title="car/hardwareTest/mbed\l/RFEandRUNtest.h">
<polygon fill="white" stroke="black" points="2890.5,-67.5 2890.5,-97.5 3018.5,-97.5 3018.5,-67.5 2890.5,-67.5"/>
<text text-anchor="start" x="2898.5" y="-85.5" font-family="Helvetica,sans-Serif" font-size="10.00">car/hardwareTest/mbed</text>
<text text-anchor="middle" x="2954.5" y="-74.5" font-family="Helvetica,sans-Serif" font-size="10.00">/RFEandRUNtest.h</text>
</a>
</g>
</g>
<!-- Node2&#45;&gt;Node24 -->
<g id="edge27" class="edge"><title>Node2&#45;&gt;Node24</title>
<path fill="none" stroke="midnightblue" d="M1538.48,-137.687C1545.45,-136.202 1552.65,-134.885 1559.5,-134 2142.43,-58.6886 2297.39,-163.489 2881.5,-98 2884.32,-97.6833 2887.2,-97.3139 2890.11,-96.9033"/>
<polygon fill="midnightblue" stroke="midnightblue" points="1537.47,-134.326 1528.5,-139.953 1539.02,-141.152 1537.47,-134.326"/>
</g>
<!-- Node25 -->
<g id="node25" class="node"><title>Node25</title>
<g id="a_node25"><a xlink:href="_r_p_m_sensor_unit_test_8h.html" target="_top" xlink:title="car/hardwareTest/mbed\l/RPMSensorUnitTest.h">
<polygon fill="white" stroke="black" points="3036.5,-67.5 3036.5,-97.5 3164.5,-97.5 3164.5,-67.5 3036.5,-67.5"/>
<text text-anchor="start" x="3044.5" y="-85.5" font-family="Helvetica,sans-Serif" font-size="10.00">car/hardwareTest/mbed</text>
<text text-anchor="middle" x="3100.5" y="-74.5" font-family="Helvetica,sans-Serif" font-size="10.00">/RPMSensorUnitTest.h</text>
</a>
</g>
</g>
<!-- Node2&#45;&gt;Node25 -->
<g id="edge28" class="edge"><title>Node2&#45;&gt;Node25</title>
<path fill="none" stroke="midnightblue" d="M1538.48,-137.671C1545.45,-136.188 1552.65,-134.876 1559.5,-134 2206.87,-51.2531 2378.83,-169.839 3027.5,-98 3030.33,-97.6871 3033.2,-97.3209 3036.11,-96.9128"/>
<polygon fill="midnightblue" stroke="midnightblue" points="1537.47,-134.31 1528.5,-139.936 1539.02,-141.136 1537.47,-134.31"/>
</g>
<!-- Node9 -->
<g id="node9" class="node"><title>Node9</title>
<g id="a_node9"><a xlink:href="_alive_component_test_8h.html" target="_top" xlink:title="car/hardwareTest/mbed\l/AliveComponentTest.h">
<polygon fill="white" stroke="black" points="1177.5,-0.5 1177.5,-30.5 1305.5,-30.5 1305.5,-0.5 1177.5,-0.5"/>
<text text-anchor="start" x="1185.5" y="-18.5" font-family="Helvetica,sans-Serif" font-size="10.00">car/hardwareTest/mbed</text>
<text text-anchor="middle" x="1241.5" y="-7.5" font-family="Helvetica,sans-Serif" font-size="10.00">/AliveComponentTest.h</text>
</a>
</g>
</g>
<!-- Node8&#45;&gt;Node9 -->
<g id="edge8" class="edge"><title>Node8&#45;&gt;Node9</title>
<path fill="none" stroke="midnightblue" d="M1135.73,-63.2687C1159.14,-52.9159 1188.01,-40.1528 1209.67,-30.5765"/>
<polygon fill="midnightblue" stroke="midnightblue" points="1134.13,-60.1508 1126.4,-67.396 1136.96,-66.5529 1134.13,-60.1508"/>
</g>
<!-- Node8&#45;&gt;Node10 -->
<g id="edge9" class="edge"><title>Node8&#45;&gt;Node10</title>
<path fill="none" stroke="midnightblue" d="M1049.54,-63.6815C1023.24,-53.2568 990.5,-40.2805 966.016,-30.5765"/>
<polygon fill="midnightblue" stroke="midnightblue" points="1048.33,-66.9651 1058.91,-67.396 1050.91,-60.4576 1048.33,-66.9651"/>
</g>
<!-- Node8&#45;&gt;Node11 -->
<g id="edge10" class="edge"><title>Node8&#45;&gt;Node11</title>
<path fill="none" stroke="midnightblue" d="M1094.5,-57.1081C1094.5,-48.1539 1094.5,-38.3227 1094.5,-30.5765"/>
<polygon fill="midnightblue" stroke="midnightblue" points="1091,-57.3959 1094.5,-67.396 1098,-57.396 1091,-57.3959"/>
</g>
<!-- Node18&#45;&gt;Node10 -->
<g id="edge19" class="edge"><title>Node18&#45;&gt;Node10</title>
<path fill="none" stroke="midnightblue" d="M941.908,-57.6971C939.386,-48.5871 936.59,-38.4929 934.398,-30.5765"/>
<polygon fill="midnightblue" stroke="midnightblue" points="938.552,-58.6928 944.594,-67.396 945.298,-56.8246 938.552,-58.6928"/>
</g>
<!-- Node18&#45;&gt;Node11 -->
<g id="edge20" class="edge"><title>Node18&#45;&gt;Node11</title>
<path fill="none" stroke="midnightblue" d="M989.45,-63.2687C1012.7,-52.9159 1041.37,-40.1528 1062.88,-30.5765"/>
<polygon fill="midnightblue" stroke="midnightblue" points="987.892,-60.1313 980.18,-67.396 990.739,-66.5262 987.892,-60.1313"/>
</g>
</g>
</svg>
