<?xml version="1.0" encoding="UTF-8" standalone="no"?>
<!DOCTYPE svg PUBLIC "-//W3C//DTD SVG 1.1//EN"
 "http://www.w3.org/Graphics/SVG/1.1/DTD/svg11.dtd">
<!-- Generated by graphviz version 2.38.0 (20140413.2041)
 -->
<!-- Title: lib/carpi/src/components/internal/InternalRegistryHardStorage.h Pages: 1 -->
<svg width="545pt" height="509pt"
 viewBox="0.00 0.00 545.00 509.00" xmlns="http://www.w3.org/2000/svg" xmlns:xlink="http://www.w3.org/1999/xlink">
<g id="graph0" class="graph" transform="scale(1 1) rotate(0) translate(4 505)">
<title>lib/carpi/src/components/internal/InternalRegistryHardStorage.h</title>
<polygon fill="white" stroke="none" points="-4,4 -4,-505 540.998,-505 540.998,4 -4,4"/>
<!-- Node1 -->
<g id="node1" class="node"><title>Node1</title>
<polygon fill="#bfbfbf" stroke="black" points="227.498,-459.5 227.498,-500.5 382.498,-500.5 382.498,-459.5 227.498,-459.5"/>
<text text-anchor="start" x="235.498" y="-488.5" font-family="Helvetica,sans-Serif" font-size="10.00">lib/carpi/src/components</text>
<text text-anchor="start" x="235.498" y="-477.5" font-family="Helvetica,sans-Serif" font-size="10.00">/internal/InternalRegistryHard</text>
<text text-anchor="middle" x="304.998" y="-466.5" font-family="Helvetica,sans-Serif" font-size="10.00">Storage.h</text>
</g>
<!-- Node2 -->
<g id="node2" class="node"><title>Node2</title>
<g id="a_node2"><a xlink:href="_i_registry_8h.html" target="_top" xlink:title="../interface/IRegistry.h">
<polygon fill="white" stroke="black" points="294.998,-403.5 294.998,-422.5 412.998,-422.5 412.998,-403.5 294.998,-403.5"/>
<text text-anchor="middle" x="353.998" y="-410.5" font-family="Helvetica,sans-Serif" font-size="10.00">../interface/IRegistry.h</text>
</a>
</g>
</g>
<!-- Node1&#45;&gt;Node2 -->
<g id="edge1" class="edge"><title>Node1&#45;&gt;Node2</title>
<path fill="none" stroke="midnightblue" d="M319.7,-459.498C326.562,-450.395 334.653,-439.662 341.252,-430.908"/>
<polygon fill="midnightblue" stroke="midnightblue" points="344.251,-432.745 347.476,-422.652 338.661,-428.531 344.251,-432.745"/>
</g>
<!-- Node4 -->
<g id="node4" class="node"><title>Node4</title>
<g id="a_node4"><a xlink:href="_sync_8h.html" target="_top" xlink:title="Sync.h">
<polygon fill="white" stroke="black" points="231.498,-291.5 231.498,-310.5 280.498,-310.5 280.498,-291.5 231.498,-291.5"/>
<text text-anchor="middle" x="255.998" y="-298.5" font-family="Helvetica,sans-Serif" font-size="10.00">Sync.h</text>
</a>
</g>
</g>
<!-- Node1&#45;&gt;Node4 -->
<g id="edge28" class="edge"><title>Node1&#45;&gt;Node4</title>
<path fill="none" stroke="midnightblue" d="M297.909,-459.432C294.148,-448.737 289.578,-435.217 285.998,-423 275.437,-386.961 265.41,-344.186 260.045,-320.365"/>
<polygon fill="midnightblue" stroke="midnightblue" points="263.455,-319.574 257.863,-310.575 256.622,-321.097 263.455,-319.574"/>
</g>
<!-- Node3 -->
<g id="node3" class="node"><title>Node3</title>
<g id="a_node3"><a xlink:href="_self_syncable_8h.html" target="_top" xlink:title="communication/SelfSyncable.h">
<polygon fill="white" stroke="black" points="283.998,-347.5 283.998,-366.5 447.998,-366.5 447.998,-347.5 283.998,-347.5"/>
<text text-anchor="middle" x="365.998" y="-354.5" font-family="Helvetica,sans-Serif" font-size="10.00">communication/SelfSyncable.h</text>
</a>
</g>
</g>
<!-- Node2&#45;&gt;Node3 -->
<g id="edge2" class="edge"><title>Node2&#45;&gt;Node3</title>
<path fill="none" stroke="midnightblue" d="M355.98,-403.083C357.57,-395.927 359.857,-385.635 361.845,-376.691"/>
<polygon fill="midnightblue" stroke="midnightblue" points="365.301,-377.272 364.054,-366.751 358.467,-375.754 365.301,-377.272"/>
</g>
<!-- Node3&#45;&gt;Node4 -->
<g id="edge3" class="edge"><title>Node3&#45;&gt;Node4</title>
<path fill="none" stroke="midnightblue" d="M348.325,-347.324C330.604,-338.625 303.095,-325.12 282.71,-315.113"/>
<polygon fill="midnightblue" stroke="midnightblue" points="284.147,-311.919 273.628,-310.655 281.062,-318.203 284.147,-311.919"/>
</g>
<!-- Node16 -->
<g id="node16" class="node"><title>Node16</title>
<g id="a_node16"><a xlink:href="_i_communication_8h.html" target="_top" xlink:title="components/interface\l/ICommunication.h">
<polygon fill="white" stroke="black" points="414.998,-224.5 414.998,-254.5 536.998,-254.5 536.998,-224.5 414.998,-224.5"/>
<text text-anchor="start" x="422.998" y="-242.5" font-family="Helvetica,sans-Serif" font-size="10.00">components/interface</text>
<text text-anchor="middle" x="475.998" y="-231.5" font-family="Helvetica,sans-Serif" font-size="10.00">/ICommunication.h</text>
</a>
</g>
</g>
<!-- Node3&#45;&gt;Node16 -->
<g id="edge27" class="edge"><title>Node3&#45;&gt;Node16</title>
<path fill="none" stroke="midnightblue" d="M374.266,-347.319C391.382,-329.347 431.135,-287.606 455.572,-261.948"/>
<polygon fill="midnightblue" stroke="midnightblue" points="458.26,-264.201 462.622,-254.545 453.191,-259.373 458.26,-264.201"/>
</g>
<!-- Node5 -->
<g id="node5" class="node"><title>Node5</title>
<polygon fill="white" stroke="#bfbfbf" points="27.4982,-112.5 27.4982,-131.5 74.4982,-131.5 74.4982,-112.5 27.4982,-112.5"/>
<text text-anchor="middle" x="50.9982" y="-119.5" font-family="Helvetica,sans-Serif" font-size="10.00">vector</text>
</g>
<!-- Node4&#45;&gt;Node5 -->
<g id="edge4" class="edge"><title>Node4&#45;&gt;Node5</title>
<path fill="none" stroke="midnightblue" d="M231.204,-300.134C195.832,-298.959 130.974,-291.534 92.9982,-255 61.3154,-224.52 53.4646,-170.258 51.5652,-141.724"/>
<polygon fill="midnightblue" stroke="midnightblue" points="55.051,-141.343 51.0722,-131.524 48.0591,-141.681 55.051,-141.343"/>
</g>
<!-- Node6 -->
<g id="node6" class="node"><title>Node6</title>
<g id="a_node6"><a xlink:href="component_ids_8h.html" target="_top" xlink:title="componentIds.h">
<polygon fill="white" stroke="black" points="192.998,-56.5 192.998,-75.5 286.998,-75.5 286.998,-56.5 192.998,-56.5"/>
<text text-anchor="middle" x="239.998" y="-63.5" font-family="Helvetica,sans-Serif" font-size="10.00">componentIds.h</text>
</a>
</g>
</g>
<!-- Node4&#45;&gt;Node6 -->
<g id="edge5" class="edge"><title>Node4&#45;&gt;Node6</title>
<path fill="none" stroke="midnightblue" d="M231.185,-300.873C191.882,-300.914 114.963,-295.353 67.9982,-255 16.9308,-211.122 -24.6197,-164.123 17.9982,-112 38.428,-87.0136 123.929,-75.5686 182.655,-70.5724"/>
<polygon fill="midnightblue" stroke="midnightblue" points="183.239,-74.0366 192.924,-69.7406 182.674,-67.0595 183.239,-74.0366"/>
</g>
<!-- Node8 -->
<g id="node8" class="node"><title>Node8</title>
<g id="a_node8"><a xlink:href="device_ids_8h.html" target="_top" xlink:title="deviceIds.h">
<polygon fill="white" stroke="black" points="92.9982,-112.5 92.9982,-131.5 162.998,-131.5 162.998,-112.5 92.9982,-112.5"/>
<text text-anchor="middle" x="127.998" y="-119.5" font-family="Helvetica,sans-Serif" font-size="10.00">deviceIds.h</text>
</a>
</g>
</g>
<!-- Node4&#45;&gt;Node8 -->
<g id="edge7" class="edge"><title>Node4&#45;&gt;Node8</title>
<path fill="none" stroke="midnightblue" d="M231.367,-300.714C197.235,-300.197 136.542,-293.513 107.998,-255 82.6773,-220.836 103.923,-167.843 117.994,-140.556"/>
<polygon fill="midnightblue" stroke="midnightblue" points="121.078,-142.211 122.754,-131.749 114.92,-138.882 121.078,-142.211"/>
</g>
<!-- Node9 -->
<g id="node9" class="node"><title>Node9</title>
<g id="a_node9"><a xlink:href="_car_message_8h.html" target="_top" xlink:title="CarMessage.h">
<polygon fill="white" stroke="black" points="159.498,-168.5 159.498,-187.5 244.498,-187.5 244.498,-168.5 159.498,-168.5"/>
<text text-anchor="middle" x="201.998" y="-175.5" font-family="Helvetica,sans-Serif" font-size="10.00">CarMessage.h</text>
</a>
</g>
</g>
<!-- Node4&#45;&gt;Node9 -->
<g id="edge8" class="edge"><title>Node4&#45;&gt;Node9</title>
<path fill="none" stroke="midnightblue" d="M252.115,-291.298C243.319,-271.589 221.729,-223.211 209.961,-196.842"/>
<polygon fill="midnightblue" stroke="midnightblue" points="213.118,-195.329 205.847,-187.623 206.726,-198.181 213.118,-195.329"/>
</g>
<!-- Node11 -->
<g id="node11" class="node"><title>Node11</title>
<g id="a_node11"><a xlink:href="_i_component_8h.html" target="_top" xlink:title="IComponent.h">
<polygon fill="white" stroke="black" points="347.998,-112.5 347.998,-131.5 431.998,-131.5 431.998,-112.5 347.998,-112.5"/>
<text text-anchor="middle" x="389.998" y="-119.5" font-family="Helvetica,sans-Serif" font-size="10.00">IComponent.h</text>
</a>
</g>
</g>
<!-- Node4&#45;&gt;Node11 -->
<g id="edge14" class="edge"><title>Node4&#45;&gt;Node11</title>
<path fill="none" stroke="midnightblue" d="M280.585,-292.837C300.456,-285.955 327.989,-273.794 345.998,-255 376.405,-223.268 385.815,-169.97 388.716,-141.786"/>
<polygon fill="midnightblue" stroke="midnightblue" points="392.214,-141.951 389.582,-131.689 385.24,-141.353 392.214,-141.951"/>
</g>
<!-- Node14 -->
<g id="node14" class="node"><title>Node14</title>
<g id="a_node14"><a xlink:href="_i_channel_8h.html" target="_top" xlink:title="IChannel.h">
<polygon fill="white" stroke="black" points="253.498,-230 253.498,-249 320.498,-249 320.498,-230 253.498,-230"/>
<text text-anchor="middle" x="286.998" y="-237" font-family="Helvetica,sans-Serif" font-size="10.00">IChannel.h</text>
</a>
</g>
</g>
<!-- Node4&#45;&gt;Node14 -->
<g id="edge18" class="edge"><title>Node4&#45;&gt;Node14</title>
<path fill="none" stroke="midnightblue" d="M260.44,-291.475C264.952,-282.815 272.072,-269.149 277.805,-258.145"/>
<polygon fill="midnightblue" stroke="midnightblue" points="281.048,-259.495 282.565,-249.009 274.84,-256.26 281.048,-259.495"/>
</g>
<!-- Node15 -->
<g id="node15" class="node"><title>Node15</title>
<g id="a_node15"><a xlink:href="_i_runable_8h.html" target="_top" xlink:title="runable/IRunable.h">
<polygon fill="white" stroke="black" points="262.998,-168.5 262.998,-187.5 366.998,-187.5 366.998,-168.5 262.998,-168.5"/>
<text text-anchor="middle" x="314.998" y="-175.5" font-family="Helvetica,sans-Serif" font-size="10.00">runable/IRunable.h</text>
</a>
</g>
</g>
<!-- Node4&#45;&gt;Node15 -->
<g id="edge25" class="edge"><title>Node4&#45;&gt;Node15</title>
<path fill="none" stroke="midnightblue" d="M280.762,-292.012C297.659,-285.119 318.765,-273.329 328.998,-255 339.084,-236.934 331.938,-213.054 324.661,-196.921"/>
<polygon fill="midnightblue" stroke="midnightblue" points="327.61,-194.989 320.039,-187.577 321.335,-198.092 327.61,-194.989"/>
</g>
<!-- Node4&#45;&gt;Node16 -->
<g id="edge22" class="edge"><title>Node4&#45;&gt;Node16</title>
<path fill="none" stroke="midnightblue" d="M280.807,-293.29C312.985,-284.588 370.222,-269.108 414.425,-257.153"/>
<polygon fill="midnightblue" stroke="midnightblue" points="415.474,-260.495 424.214,-254.505 413.647,-253.738 415.474,-260.495"/>
</g>
<!-- Node17 -->
<g id="node17" class="node"><title>Node17</title>
<g id="a_node17"><a xlink:href="_hard_config_8h.html" target="_top" xlink:title="HardConfig.h">
<polygon fill="white" stroke="black" points="117.498,-230 117.498,-249 196.498,-249 196.498,-230 117.498,-230"/>
<text text-anchor="middle" x="156.998" y="-237" font-family="Helvetica,sans-Serif" font-size="10.00">HardConfig.h</text>
</a>
</g>
</g>
<!-- Node4&#45;&gt;Node17 -->
<g id="edge26" class="edge"><title>Node4&#45;&gt;Node17</title>
<path fill="none" stroke="midnightblue" d="M241.814,-291.475C225.641,-281.755 198.972,-265.727 179.855,-254.237"/>
<polygon fill="midnightblue" stroke="midnightblue" points="181.53,-251.161 171.156,-249.009 177.924,-257.16 181.53,-251.161"/>
</g>
<!-- Node7 -->
<g id="node7" class="node"><title>Node7</title>
<polygon fill="white" stroke="#bfbfbf" points="251.498,-0.5 251.498,-19.5 304.498,-19.5 304.498,-0.5 251.498,-0.5"/>
<text text-anchor="middle" x="277.998" y="-7.5" font-family="Helvetica,sans-Serif" font-size="10.00">stdint.h</text>
</g>
<!-- Node6&#45;&gt;Node7 -->
<g id="edge6" class="edge"><title>Node6&#45;&gt;Node7</title>
<path fill="none" stroke="midnightblue" d="M246.273,-56.083C251.641,-48.4554 259.516,-37.2645 266.077,-27.9408"/>
<polygon fill="midnightblue" stroke="midnightblue" points="268.947,-29.9434 271.84,-19.7511 263.223,-25.9149 268.947,-29.9434"/>
</g>
<!-- Node9&#45;&gt;Node5 -->
<g id="edge10" class="edge"><title>Node9&#45;&gt;Node5</title>
<path fill="none" stroke="midnightblue" d="M178.072,-168.444C152.779,-159.399 112.696,-145.064 84.3184,-134.916"/>
<polygon fill="midnightblue" stroke="midnightblue" points="85.4073,-131.588 74.8127,-131.516 83.0501,-138.179 85.4073,-131.588"/>
</g>
<!-- Node9&#45;&gt;Node6 -->
<g id="edge13" class="edge"><title>Node9&#45;&gt;Node6</title>
<path fill="none" stroke="midnightblue" d="M215.062,-168.436C225.912,-160.471 240.572,-147.515 246.998,-132 253.167,-117.107 250.336,-98.7313 246.593,-85.3221"/>
<polygon fill="midnightblue" stroke="midnightblue" points="249.927,-84.2553 243.55,-75.7942 243.258,-86.3851 249.927,-84.2553"/>
</g>
<!-- Node9&#45;&gt;Node7 -->
<g id="edge11" class="edge"><title>Node9&#45;&gt;Node7</title>
<path fill="none" stroke="midnightblue" d="M216.869,-168.429C230.107,-160.277 249.425,-147.05 262.998,-132 282.346,-110.547 288.397,-103.871 295.998,-76 300.368,-59.9762 294.37,-41.7541 288.151,-28.6891"/>
<polygon fill="midnightblue" stroke="midnightblue" points="291.253,-27.0682 283.52,-19.8254 285.048,-30.3094 291.253,-27.0682"/>
</g>
<!-- Node9&#45;&gt;Node8 -->
<g id="edge12" class="edge"><title>Node9&#45;&gt;Node8</title>
<path fill="none" stroke="midnightblue" d="M190.109,-168.324C178.848,-160.107 161.712,-147.602 148.289,-137.807"/>
<polygon fill="midnightblue" stroke="midnightblue" points="150.245,-134.901 140.104,-131.834 146.119,-140.556 150.245,-134.901"/>
</g>
<!-- Node10 -->
<g id="node10" class="node"><title>Node10</title>
<polygon fill="white" stroke="#bfbfbf" points="181.498,-112.5 181.498,-131.5 238.498,-131.5 238.498,-112.5 181.498,-112.5"/>
<text text-anchor="middle" x="209.998" y="-119.5" font-family="Helvetica,sans-Serif" font-size="10.00">memory</text>
</g>
<!-- Node9&#45;&gt;Node10 -->
<g id="edge9" class="edge"><title>Node9&#45;&gt;Node10</title>
<path fill="none" stroke="midnightblue" d="M203.319,-168.083C204.379,-160.927 205.904,-150.635 207.229,-141.691"/>
<polygon fill="midnightblue" stroke="midnightblue" points="210.698,-142.156 208.702,-131.751 203.774,-141.13 210.698,-142.156"/>
</g>
<!-- Node11&#45;&gt;Node6 -->
<g id="edge15" class="edge"><title>Node11&#45;&gt;Node6</title>
<path fill="none" stroke="midnightblue" d="M366.23,-112.444C341.105,-103.399 301.287,-89.064 273.098,-78.9158"/>
<polygon fill="midnightblue" stroke="midnightblue" points="274.249,-75.6106 263.655,-75.5164 271.878,-82.1968 274.249,-75.6106"/>
</g>
<!-- Node12 -->
<g id="node12" class="node"><title>Node12</title>
<g id="a_node12"><a xlink:href="_i_logable_8h.html" target="_top" xlink:title="ILogable.h">
<polygon fill="white" stroke="black" points="357.498,-56.5 357.498,-75.5 422.498,-75.5 422.498,-56.5 357.498,-56.5"/>
<text text-anchor="middle" x="389.998" y="-63.5" font-family="Helvetica,sans-Serif" font-size="10.00">ILogable.h</text>
</a>
</g>
</g>
<!-- Node11&#45;&gt;Node12 -->
<g id="edge16" class="edge"><title>Node11&#45;&gt;Node12</title>
<path fill="none" stroke="midnightblue" d="M389.998,-112.083C389.998,-105.006 389.998,-94.8611 389.998,-85.9865"/>
<polygon fill="midnightblue" stroke="midnightblue" points="393.498,-85.751 389.998,-75.7511 386.498,-85.7511 393.498,-85.751"/>
</g>
<!-- Node13 -->
<g id="node13" class="node"><title>Node13</title>
<polygon fill="white" stroke="#bfbfbf" points="367.998,-0.5 367.998,-19.5 411.998,-19.5 411.998,-0.5 367.998,-0.5"/>
<text text-anchor="middle" x="389.998" y="-7.5" font-family="Helvetica,sans-Serif" font-size="10.00">string</text>
</g>
<!-- Node12&#45;&gt;Node13 -->
<g id="edge17" class="edge"><title>Node12&#45;&gt;Node13</title>
<path fill="none" stroke="midnightblue" d="M389.998,-56.083C389.998,-49.0059 389.998,-38.8611 389.998,-29.9865"/>
<polygon fill="midnightblue" stroke="midnightblue" points="393.498,-29.751 389.998,-19.7511 386.498,-29.7511 393.498,-29.751"/>
</g>
<!-- Node14&#45;&gt;Node9 -->
<g id="edge19" class="edge"><title>Node14&#45;&gt;Node9</title>
<path fill="none" stroke="midnightblue" d="M274.82,-229.975C261.186,-220.431 238.866,-204.807 222.524,-193.368"/>
<polygon fill="midnightblue" stroke="midnightblue" points="224.354,-190.376 214.154,-187.509 220.339,-196.111 224.354,-190.376"/>
</g>
<!-- Node14&#45;&gt;Node15 -->
<g id="edge20" class="edge"><title>Node14&#45;&gt;Node15</title>
<path fill="none" stroke="midnightblue" d="M291.01,-229.975C295.085,-221.315 301.517,-207.649 306.695,-196.645"/>
<polygon fill="midnightblue" stroke="midnightblue" points="309.903,-198.048 310.994,-187.509 303.569,-195.067 309.903,-198.048"/>
</g>
<!-- Node15&#45;&gt;Node11 -->
<g id="edge21" class="edge"><title>Node15&#45;&gt;Node11</title>
<path fill="none" stroke="midnightblue" d="M327.048,-168.324C338.461,-160.107 355.829,-147.602 369.433,-137.807"/>
<polygon fill="midnightblue" stroke="midnightblue" points="371.659,-140.517 377.729,-131.834 367.568,-134.837 371.659,-140.517"/>
</g>
<!-- Node16&#45;&gt;Node9 -->
<g id="edge24" class="edge"><title>Node16&#45;&gt;Node9</title>
<path fill="none" stroke="midnightblue" d="M414.848,-225.221C365.58,-214.522 297.2,-199.673 251.368,-189.721"/>
<polygon fill="midnightblue" stroke="midnightblue" points="251.889,-186.252 241.374,-187.551 250.404,-193.093 251.889,-186.252"/>
</g>
<!-- Node16&#45;&gt;Node11 -->
<g id="edge23" class="edge"><title>Node16&#45;&gt;Node11</title>
<path fill="none" stroke="midnightblue" d="M465.453,-224.337C449.535,-202.96 419.432,-162.53 402.456,-139.731"/>
<polygon fill="midnightblue" stroke="midnightblue" points="405.233,-137.6 396.453,-131.669 399.618,-141.781 405.233,-137.6"/>
</g>
</g>
</svg>
