<?xml version="1.0" encoding="UTF-8" standalone="no"?>
<!DOCTYPE svg PUBLIC "-//W3C//DTD SVG 1.1//EN"
 "http://www.w3.org/Graphics/SVG/1.1/DTD/svg11.dtd">
<!-- Generated by graphviz version 2.38.0 (20140413.2041)
 -->
<!-- Title: lib/carpi/lib/LoRa/LoRa.h Pages: 1 -->
<svg width="274pt" height="95pt"
 viewBox="0.00 0.00 273.50 95.00" xmlns="http://www.w3.org/2000/svg" xmlns:xlink="http://www.w3.org/1999/xlink">
<g id="graph0" class="graph" transform="scale(1 1) rotate(0) translate(4 91)">
<title>lib/carpi/lib/LoRa/LoRa.h</title>
<polygon fill="white" stroke="none" points="-4,4 -4,-91 269.5,-91 269.5,4 -4,4"/>
<!-- Node1 -->
<g id="node1" class="node"><title>Node1</title>
<polygon fill="#bfbfbf" stroke="black" points="58,-56.5 58,-86.5 151,-86.5 151,-56.5 58,-56.5"/>
<text text-anchor="start" x="66" y="-74.5" font-family="Helvetica,sans-Serif" font-size="10.00">lib/carpi/lib/LoRa</text>
<text text-anchor="middle" x="104.5" y="-63.5" font-family="Helvetica,sans-Serif" font-size="10.00">/LoRa.h</text>
</g>
<!-- Node2 -->
<g id="node2" class="node"><title>Node2</title>
<polygon fill="white" stroke="#bfbfbf" points="0,-0.5 0,-19.5 53,-19.5 53,-0.5 0,-0.5"/>
<text text-anchor="middle" x="26.5" y="-7.5" font-family="Helvetica,sans-Serif" font-size="10.00">mbed.h</text>
</g>
<!-- Node1&#45;&gt;Node2 -->
<g id="edge1" class="edge"><title>Node1&#45;&gt;Node2</title>
<path fill="none" stroke="midnightblue" d="M86.0151,-56.3993C73.9797,-47.2185 58.3003,-35.2579 46.0566,-25.9182"/>
<polygon fill="midnightblue" stroke="midnightblue" points="47.9233,-22.9401 37.8497,-19.6578 43.6777,-28.5056 47.9233,-22.9401"/>
</g>
<!-- Node3 -->
<g id="node3" class="node"><title>Node3</title>
<g id="a_node3"><a xlink:href="_pin_map2_8h.html" target="_top" xlink:title="PinMap2.h">
<polygon fill="white" stroke="black" points="71.5,-0.5 71.5,-19.5 137.5,-19.5 137.5,-0.5 71.5,-0.5"/>
<text text-anchor="middle" x="104.5" y="-7.5" font-family="Helvetica,sans-Serif" font-size="10.00">PinMap2.h</text>
</a>
</g>
</g>
<!-- Node1&#45;&gt;Node3 -->
<g id="edge2" class="edge"><title>Node1&#45;&gt;Node3</title>
<path fill="none" stroke="midnightblue" d="M104.5,-56.3993C104.5,-48.4664 104.5,-38.458 104.5,-29.8583"/>
<polygon fill="midnightblue" stroke="midnightblue" points="108,-29.6577 104.5,-19.6578 101,-29.6578 108,-29.6577"/>
</g>
<!-- Node4 -->
<g id="node4" class="node"><title>Node4</title>
<polygon fill="white" stroke="#bfbfbf" points="155.5,-0.5 155.5,-19.5 265.5,-19.5 265.5,-0.5 155.5,-0.5"/>
<text text-anchor="middle" x="210.5" y="-7.5" font-family="Helvetica,sans-Serif" font-size="10.00">sx1276&#45;mbed&#45;hal.h</text>
</g>
<!-- Node1&#45;&gt;Node4 -->
<g id="edge3" class="edge"><title>Node1&#45;&gt;Node4</title>
<path fill="none" stroke="midnightblue" d="M129.621,-56.3993C146.77,-46.7728 169.365,-34.0902 186.312,-24.5772"/>
<polygon fill="midnightblue" stroke="midnightblue" points="188.069,-27.6047 195.076,-19.6578 184.643,-21.5006 188.069,-27.6047"/>
</g>
</g>
</svg>
