<?xml version="1.0" encoding="UTF-8" standalone="no"?>
<!DOCTYPE svg PUBLIC "-//W3C//DTD SVG 1.1//EN"
 "http://www.w3.org/Graphics/SVG/1.1/DTD/svg11.dtd">
<!-- Generated by graphviz version 2.38.0 (20140413.2041)
 -->
<!-- Title: lib/carpi/lib/LoRa/MessageHandler/MessageHandler.h Pages: 1 -->
<svg width="209pt" height="95pt"
 viewBox="0.00 0.00 208.50 95.00" xmlns="http://www.w3.org/2000/svg" xmlns:xlink="http://www.w3.org/1999/xlink">
<g id="graph0" class="graph" transform="scale(1 1) rotate(0) translate(4 91)">
<title>lib/carpi/lib/LoRa/MessageHandler/MessageHandler.h</title>
<polygon fill="white" stroke="none" points="-4,4 -4,-91 204.5,-91 204.5,4 -4,4"/>
<!-- Node1 -->
<g id="node1" class="node"><title>Node1</title>
<polygon fill="#bfbfbf" stroke="black" points="0,-56.5 0,-86.5 191,-86.5 191,-56.5 0,-56.5"/>
<text text-anchor="start" x="8" y="-74.5" font-family="Helvetica,sans-Serif" font-size="10.00">lib/carpi/lib/LoRa</text>
<text text-anchor="middle" x="95.5" y="-63.5" font-family="Helvetica,sans-Serif" font-size="10.00">/MessageHandler/MessageHandler.h</text>
</g>
<!-- Node2 -->
<g id="node2" class="node"><title>Node2</title>
<polygon fill="white" stroke="#bfbfbf" points="19,-0.5 19,-19.5 72,-19.5 72,-0.5 19,-0.5"/>
<text text-anchor="middle" x="45.5" y="-7.5" font-family="Helvetica,sans-Serif" font-size="10.00">mbed.h</text>
</g>
<!-- Node1&#45;&gt;Node2 -->
<g id="edge1" class="edge"><title>Node1&#45;&gt;Node2</title>
<path fill="none" stroke="midnightblue" d="M83.6507,-56.3993C76.3851,-47.7533 67.0479,-36.642 59.4294,-27.576"/>
<polygon fill="midnightblue" stroke="midnightblue" points="61.8884,-25.0619 52.7754,-19.6578 56.5294,-29.5653 61.8884,-25.0619"/>
</g>
<!-- Node3 -->
<g id="node3" class="node"><title>Node3</title>
<polygon fill="white" stroke="#bfbfbf" points="90.5,-0.5 90.5,-19.5 200.5,-19.5 200.5,-0.5 90.5,-0.5"/>
<text text-anchor="middle" x="145.5" y="-7.5" font-family="Helvetica,sans-Serif" font-size="10.00">sx1276&#45;mbed&#45;hal.h</text>
</g>
<!-- Node1&#45;&gt;Node3 -->
<g id="edge2" class="edge"><title>Node1&#45;&gt;Node3</title>
<path fill="none" stroke="midnightblue" d="M107.349,-56.3993C114.615,-47.7533 123.952,-36.642 131.571,-27.576"/>
<polygon fill="midnightblue" stroke="midnightblue" points="134.471,-29.5653 138.225,-19.6578 129.112,-25.0619 134.471,-29.5653"/>
</g>
</g>
</svg>
