<?xml version="1.0" encoding="UTF-8" standalone="no"?>
<!DOCTYPE svg PUBLIC "-//W3C//DTD SVG 1.1//EN"
 "http://www.w3.org/Graphics/SVG/1.1/DTD/svg11.dtd">
<!-- Generated by graphviz version 2.38.0 (20140413.2041)
 -->
<!-- Title: lib/carpi/lib/LoRa/BufferedSerial/MyBuffer.h Pages: 1 -->
<svg width="175pt" height="106pt"
 viewBox="0.00 0.00 175.00 106.00" xmlns="http://www.w3.org/2000/svg" xmlns:xlink="http://www.w3.org/1999/xlink">
<g id="graph0" class="graph" transform="scale(1 1) rotate(0) translate(4 102)">
<title>lib/carpi/lib/LoRa/BufferedSerial/MyBuffer.h</title>
<polygon fill="white" stroke="none" points="-4,4 -4,-102 171,-102 171,4 -4,4"/>
<!-- Node1 -->
<g id="node1" class="node"><title>Node1</title>
<polygon fill="#bfbfbf" stroke="black" points="13.5,-67.5 13.5,-97.5 153.5,-97.5 153.5,-67.5 13.5,-67.5"/>
<text text-anchor="start" x="21.5" y="-85.5" font-family="Helvetica,sans-Serif" font-size="10.00">lib/carpi/lib/LoRa</text>
<text text-anchor="middle" x="83.5" y="-74.5" font-family="Helvetica,sans-Serif" font-size="10.00">/BufferedSerial/MyBuffer.h</text>
</g>
<!-- Node2 -->
<g id="node2" class="node"><title>Node2</title>
<g id="a_node2"><a xlink:href="_buffered_serial_8h.html" target="_top" xlink:title="lib/carpi/lib/LoRa\l/BufferedSerial/BufferedSerial.h">
<polygon fill="white" stroke="black" points="-1.42109e-14,-0.5 -1.42109e-14,-30.5 167,-30.5 167,-0.5 -1.42109e-14,-0.5"/>
<text text-anchor="start" x="8" y="-18.5" font-family="Helvetica,sans-Serif" font-size="10.00">lib/carpi/lib/LoRa</text>
<text text-anchor="middle" x="83.5" y="-7.5" font-family="Helvetica,sans-Serif" font-size="10.00">/BufferedSerial/BufferedSerial.h</text>
</a>
</g>
</g>
<!-- Node1&#45;&gt;Node2 -->
<g id="edge1" class="edge"><title>Node1&#45;&gt;Node2</title>
<path fill="none" stroke="midnightblue" d="M83.5,-57.1081C83.5,-48.1539 83.5,-38.3227 83.5,-30.5765"/>
<polygon fill="midnightblue" stroke="midnightblue" points="80.0001,-57.3959 83.5,-67.396 87.0001,-57.396 80.0001,-57.3959"/>
</g>
</g>
</svg>
