<?xml version="1.0" encoding="UTF-8" standalone="no"?>
<!DOCTYPE svg PUBLIC "-//W3C//DTD SVG 1.1//EN"
 "http://www.w3.org/Graphics/SVG/1.1/DTD/svg11.dtd">
<!-- Generated by graphviz version 2.38.0 (20140413.2041)
 -->
<!-- Title: lib/carpi/src/runable/programs/PBrakeLight.h Pages: 1 -->
<svg width="594pt" height="520pt"
 viewBox="0.00 0.00 594.35 520.00" xmlns="http://www.w3.org/2000/svg" xmlns:xlink="http://www.w3.org/1999/xlink">
<g id="graph0" class="graph" transform="scale(1 1) rotate(0) translate(4 516)">
<title>lib/carpi/src/runable/programs/PBrakeLight.h</title>
<polygon fill="white" stroke="none" points="-4,4 -4,-516 590.351,-516 590.351,4 -4,4"/>
<!-- Node1 -->
<g id="node1" class="node"><title>Node1</title>
<polygon fill="#bfbfbf" stroke="black" points="395.351,-481.5 395.351,-511.5 530.351,-511.5 530.351,-481.5 395.351,-481.5"/>
<text text-anchor="start" x="403.351" y="-499.5" font-family="Helvetica,sans-Serif" font-size="10.00">lib/carpi/src/runable</text>
<text text-anchor="middle" x="462.851" y="-488.5" font-family="Helvetica,sans-Serif" font-size="10.00">/programs/PBrakeLight.h</text>
</g>
<!-- Node2 -->
<g id="node2" class="node"><title>Node2</title>
<g id="a_node2"><a xlink:href="_i_program_8h.html" target="_top" xlink:title="IProgram.h">
<polygon fill="white" stroke="black" points="517.351,-358.5 517.351,-377.5 586.351,-377.5 586.351,-358.5 517.351,-358.5"/>
<text text-anchor="middle" x="551.851" y="-365.5" font-family="Helvetica,sans-Serif" font-size="10.00">IProgram.h</text>
</a>
</g>
</g>
<!-- Node1&#45;&gt;Node2 -->
<g id="edge1" class="edge"><title>Node1&#45;&gt;Node2</title>
<path fill="none" stroke="midnightblue" d="M491.179,-481.337C505.681,-472.713 522.43,-460.384 532.851,-445 544.39,-427.965 548.927,-404.524 550.707,-388.196"/>
<polygon fill="midnightblue" stroke="midnightblue" points="554.234,-388.014 551.577,-377.757 547.258,-387.432 554.234,-388.014"/>
</g>
<!-- Node9 -->
<g id="node9" class="node"><title>Node9</title>
<g id="a_node9"><a xlink:href="_i_pedal_8h.html" target="_top" xlink:title="components/interface\l/IPedal.h">
<polygon fill="white" stroke="black" points="401.851,-414.5 401.851,-444.5 523.851,-444.5 523.851,-414.5 401.851,-414.5"/>
<text text-anchor="start" x="409.851" y="-432.5" font-family="Helvetica,sans-Serif" font-size="10.00">components/interface</text>
<text text-anchor="middle" x="462.851" y="-421.5" font-family="Helvetica,sans-Serif" font-size="10.00">/IPedal.h</text>
</a>
</g>
</g>
<!-- Node1&#45;&gt;Node9 -->
<g id="edge8" class="edge"><title>Node1&#45;&gt;Node9</title>
<path fill="none" stroke="midnightblue" d="M462.851,-481.396C462.851,-473.645 462.851,-463.812 462.851,-454.86"/>
<polygon fill="midnightblue" stroke="midnightblue" points="466.351,-454.576 462.851,-444.577 459.351,-454.577 466.351,-454.576"/>
</g>
<!-- Node19 -->
<g id="node19" class="node"><title>Node19</title>
<g id="a_node19"><a xlink:href="_i_led_8h.html" target="_top" xlink:title="components/interface\l/ILed.h">
<polygon fill="white" stroke="black" points="261.851,-414.5 261.851,-444.5 383.851,-444.5 383.851,-414.5 261.851,-414.5"/>
<text text-anchor="start" x="269.851" y="-432.5" font-family="Helvetica,sans-Serif" font-size="10.00">components/interface</text>
<text text-anchor="middle" x="322.851" y="-421.5" font-family="Helvetica,sans-Serif" font-size="10.00">/ILed.h</text>
</a>
</g>
</g>
<!-- Node1&#45;&gt;Node19 -->
<g id="edge30" class="edge"><title>Node1&#45;&gt;Node19</title>
<path fill="none" stroke="midnightblue" d="M432.473,-481.396C411.926,-471.856 384.587,-459.163 362.352,-448.84"/>
<polygon fill="midnightblue" stroke="midnightblue" points="363.714,-445.613 353.17,-444.577 360.766,-451.962 363.714,-445.613"/>
</g>
<!-- Node3 -->
<g id="node3" class="node"><title>Node3</title>
<g id="a_node3"><a xlink:href="_i_runable_8h.html" target="_top" xlink:title="../IRunable.h">
<polygon fill="white" stroke="black" points="339.851,-179.5 339.851,-198.5 413.851,-198.5 413.851,-179.5 339.851,-179.5"/>
<text text-anchor="middle" x="376.851" y="-186.5" font-family="Helvetica,sans-Serif" font-size="10.00">../IRunable.h</text>
</a>
</g>
</g>
<!-- Node2&#45;&gt;Node3 -->
<g id="edge2" class="edge"><title>Node2&#45;&gt;Node3</title>
<path fill="none" stroke="midnightblue" d="M553.489,-358.316C557.322,-335.141 564.325,-271.143 532.851,-235 505.978,-204.141 459.418,-193.81 424.141,-190.648"/>
<polygon fill="midnightblue" stroke="midnightblue" points="424.282,-187.149 414.053,-189.909 423.771,-194.131 424.282,-187.149"/>
</g>
<!-- Node4 -->
<g id="node4" class="node"><title>Node4</title>
<g id="a_node4"><a xlink:href="_i_component_8h.html" target="_top" xlink:title="components/interface\l/IComponent.h">
<polygon fill="white" stroke="black" points="319.851,-112.5 319.851,-142.5 441.851,-142.5 441.851,-112.5 319.851,-112.5"/>
<text text-anchor="start" x="327.851" y="-130.5" font-family="Helvetica,sans-Serif" font-size="10.00">components/interface</text>
<text text-anchor="middle" x="380.851" y="-119.5" font-family="Helvetica,sans-Serif" font-size="10.00">/IComponent.h</text>
</a>
</g>
</g>
<!-- Node3&#45;&gt;Node4 -->
<g id="edge3" class="edge"><title>Node3&#45;&gt;Node4</title>
<path fill="none" stroke="midnightblue" d="M377.424,-179.475C377.895,-172.471 378.586,-162.192 379.224,-152.696"/>
<polygon fill="midnightblue" stroke="midnightblue" points="382.73,-152.735 379.908,-142.523 375.745,-152.266 382.73,-152.735"/>
</g>
<!-- Node5 -->
<g id="node5" class="node"><title>Node5</title>
<g id="a_node5"><a xlink:href="component_ids_8h.html" target="_top" xlink:title="communication/componentIds.h">
<polygon fill="white" stroke="black" points="92.3511,-56.5 92.3511,-75.5 263.351,-75.5 263.351,-56.5 92.3511,-56.5"/>
<text text-anchor="middle" x="177.851" y="-63.5" font-family="Helvetica,sans-Serif" font-size="10.00">communication/componentIds.h</text>
</a>
</g>
</g>
<!-- Node4&#45;&gt;Node5 -->
<g id="edge4" class="edge"><title>Node4&#45;&gt;Node5</title>
<path fill="none" stroke="midnightblue" d="M333,-112.475C297.52,-102.075 249.765,-88.0783 216.65,-78.3722"/>
<polygon fill="midnightblue" stroke="midnightblue" points="217.454,-74.9604 206.873,-75.5064 215.485,-81.6778 217.454,-74.9604"/>
</g>
<!-- Node7 -->
<g id="node7" class="node"><title>Node7</title>
<g id="a_node7"><a xlink:href="_i_logable_8h.html" target="_top" xlink:title="ILogable.h">
<polygon fill="white" stroke="black" points="348.351,-56.5 348.351,-75.5 413.351,-75.5 413.351,-56.5 348.351,-56.5"/>
<text text-anchor="middle" x="380.851" y="-63.5" font-family="Helvetica,sans-Serif" font-size="10.00">ILogable.h</text>
</a>
</g>
</g>
<!-- Node4&#45;&gt;Node7 -->
<g id="edge6" class="edge"><title>Node4&#45;&gt;Node7</title>
<path fill="none" stroke="midnightblue" d="M380.851,-112.399C380.851,-104.466 380.851,-94.458 380.851,-85.8583"/>
<polygon fill="midnightblue" stroke="midnightblue" points="384.351,-85.6577 380.851,-75.6578 377.351,-85.6578 384.351,-85.6577"/>
</g>
<!-- Node6 -->
<g id="node6" class="node"><title>Node6</title>
<polygon fill="white" stroke="#bfbfbf" points="208.351,-0.5 208.351,-19.5 261.351,-19.5 261.351,-0.5 208.351,-0.5"/>
<text text-anchor="middle" x="234.851" y="-7.5" font-family="Helvetica,sans-Serif" font-size="10.00">stdint.h</text>
</g>
<!-- Node5&#45;&gt;Node6 -->
<g id="edge5" class="edge"><title>Node5&#45;&gt;Node6</title>
<path fill="none" stroke="midnightblue" d="M187.009,-56.324C195.353,-48.4196 207.884,-36.5482 218.028,-26.9377"/>
<polygon fill="midnightblue" stroke="midnightblue" points="220.674,-29.2522 225.526,-19.8339 215.86,-24.1705 220.674,-29.2522"/>
</g>
<!-- Node8 -->
<g id="node8" class="node"><title>Node8</title>
<polygon fill="white" stroke="#bfbfbf" points="358.851,-0.5 358.851,-19.5 402.851,-19.5 402.851,-0.5 358.851,-0.5"/>
<text text-anchor="middle" x="380.851" y="-7.5" font-family="Helvetica,sans-Serif" font-size="10.00">string</text>
</g>
<!-- Node7&#45;&gt;Node8 -->
<g id="edge7" class="edge"><title>Node7&#45;&gt;Node8</title>
<path fill="none" stroke="midnightblue" d="M380.851,-56.083C380.851,-49.0059 380.851,-38.8611 380.851,-29.9865"/>
<polygon fill="midnightblue" stroke="midnightblue" points="384.351,-29.751 380.851,-19.7511 377.351,-29.7511 384.351,-29.751"/>
</g>
<!-- Node10 -->
<g id="node10" class="node"><title>Node10</title>
<g id="a_node10"><a xlink:href="_self_syncable_8h.html" target="_top" xlink:title="communication/SelfSyncable.h">
<polygon fill="white" stroke="black" points="275.851,-358.5 275.851,-377.5 439.851,-377.5 439.851,-358.5 275.851,-358.5"/>
<text text-anchor="middle" x="357.851" y="-365.5" font-family="Helvetica,sans-Serif" font-size="10.00">communication/SelfSyncable.h</text>
</a>
</g>
</g>
<!-- Node9&#45;&gt;Node10 -->
<g id="edge9" class="edge"><title>Node9&#45;&gt;Node10</title>
<path fill="none" stroke="midnightblue" d="M437.968,-414.399C421.137,-404.862 399.012,-392.325 382.279,-382.842"/>
<polygon fill="midnightblue" stroke="midnightblue" points="383.555,-379.543 373.13,-377.658 380.104,-385.633 383.555,-379.543"/>
</g>
<!-- Node11 -->
<g id="node11" class="node"><title>Node11</title>
<g id="a_node11"><a xlink:href="_sync_8h.html" target="_top" xlink:title="Sync.h">
<polygon fill="white" stroke="black" points="191.351,-302.5 191.351,-321.5 240.351,-321.5 240.351,-302.5 191.351,-302.5"/>
<text text-anchor="middle" x="215.851" y="-309.5" font-family="Helvetica,sans-Serif" font-size="10.00">Sync.h</text>
</a>
</g>
</g>
<!-- Node10&#45;&gt;Node11 -->
<g id="edge10" class="edge"><title>Node10&#45;&gt;Node11</title>
<path fill="none" stroke="midnightblue" d="M335.351,-358.444C311.774,-349.478 274.529,-335.314 247.887,-325.183"/>
<polygon fill="midnightblue" stroke="midnightblue" points="248.837,-321.8 238.246,-321.516 246.349,-328.342 248.837,-321.8"/>
</g>
<!-- Node17 -->
<g id="node17" class="node"><title>Node17</title>
<g id="a_node17"><a xlink:href="_i_communication_8h.html" target="_top" xlink:title="components/interface\l/ICommunication.h">
<polygon fill="white" stroke="black" points="401.851,-235.5 401.851,-265.5 523.851,-265.5 523.851,-235.5 401.851,-235.5"/>
<text text-anchor="start" x="409.851" y="-253.5" font-family="Helvetica,sans-Serif" font-size="10.00">components/interface</text>
<text text-anchor="middle" x="462.851" y="-242.5" font-family="Helvetica,sans-Serif" font-size="10.00">/ICommunication.h</text>
</a>
</g>
</g>
<!-- Node10&#45;&gt;Node17 -->
<g id="edge29" class="edge"><title>Node10&#45;&gt;Node17</title>
<path fill="none" stroke="midnightblue" d="M365.743,-358.319C382.081,-340.347 420.027,-298.606 443.353,-272.948"/>
<polygon fill="midnightblue" stroke="midnightblue" points="445.946,-275.299 450.083,-265.545 440.766,-270.59 445.946,-275.299"/>
</g>
<!-- Node11&#45;&gt;Node3 -->
<g id="edge27" class="edge"><title>Node11&#45;&gt;Node3</title>
<path fill="none" stroke="midnightblue" d="M240.613,-309.675C271.356,-306.697 323.443,-297.064 353.851,-266 368.816,-250.712 374.09,-226.031 375.922,-208.963"/>
<polygon fill="midnightblue" stroke="midnightblue" points="379.444,-208.81 376.718,-198.572 372.464,-208.275 379.444,-208.81"/>
</g>
<!-- Node11&#45;&gt;Node4 -->
<g id="edge20" class="edge"><title>Node11&#45;&gt;Node4</title>
<path fill="none" stroke="midnightblue" d="M221.199,-302.151C230.21,-287.531 249.354,-257.695 268.851,-235 296.379,-202.958 332.408,-170.047 356.071,-149.455"/>
<polygon fill="midnightblue" stroke="midnightblue" points="358.606,-151.89 363.89,-142.707 354.033,-146.59 358.606,-151.89"/>
</g>
<!-- Node11&#45;&gt;Node5 -->
<g id="edge12" class="edge"><title>Node11&#45;&gt;Node5</title>
<path fill="none" stroke="midnightblue" d="M191.326,-308.081C162.065,-303.515 112.954,-292.301 79.8511,-266 29.72,-226.17 22.1625,-204.643 4.85107,-143 1.12592,-129.735 -3.57627,-122.9 4.85107,-112 17.2581,-95.9528 62.1031,-84.5605 103.023,-77.2534"/>
<polygon fill="midnightblue" stroke="midnightblue" points="103.783,-80.6742 113.045,-75.529 102.596,-73.7756 103.783,-80.6742"/>
</g>
<!-- Node12 -->
<g id="node12" class="node"><title>Node12</title>
<polygon fill="white" stroke="#bfbfbf" points="14.3511,-118 14.3511,-137 61.3511,-137 61.3511,-118 14.3511,-118"/>
<text text-anchor="middle" x="37.8511" y="-125" font-family="Helvetica,sans-Serif" font-size="10.00">vector</text>
</g>
<!-- Node11&#45;&gt;Node12 -->
<g id="edge11" class="edge"><title>Node11&#45;&gt;Node12</title>
<path fill="none" stroke="midnightblue" d="M191.095,-305.767C167.511,-299.689 132.233,-287.613 108.851,-266 72.4643,-232.365 51.6546,-175.824 42.8636,-146.842"/>
<polygon fill="midnightblue" stroke="midnightblue" points="46.2129,-145.825 40.0754,-137.189 39.4878,-147.767 46.2129,-145.825"/>
</g>
<!-- Node13 -->
<g id="node13" class="node"><title>Node13</title>
<g id="a_node13"><a xlink:href="device_ids_8h.html" target="_top" xlink:title="deviceIds.h">
<polygon fill="white" stroke="black" points="79.8511,-118 79.8511,-137 149.851,-137 149.851,-118 79.8511,-118"/>
<text text-anchor="middle" x="114.851" y="-125" font-family="Helvetica,sans-Serif" font-size="10.00">deviceIds.h</text>
</a>
</g>
</g>
<!-- Node11&#45;&gt;Node13 -->
<g id="edge13" class="edge"><title>Node11&#45;&gt;Node13</title>
<path fill="none" stroke="midnightblue" d="M191.238,-305.987C169.853,-300.232 139.999,-288.522 124.851,-266 100.549,-229.867 105.738,-175.646 110.775,-147.295"/>
<polygon fill="midnightblue" stroke="midnightblue" points="114.272,-147.654 112.771,-137.166 107.404,-146.3 114.272,-147.654"/>
</g>
<!-- Node14 -->
<g id="node14" class="node"><title>Node14</title>
<g id="a_node14"><a xlink:href="_car_message_8h.html" target="_top" xlink:title="CarMessage.h">
<polygon fill="white" stroke="black" points="135.351,-179.5 135.351,-198.5 220.351,-198.5 220.351,-179.5 135.351,-179.5"/>
<text text-anchor="middle" x="177.851" y="-186.5" font-family="Helvetica,sans-Serif" font-size="10.00">CarMessage.h</text>
</a>
</g>
</g>
<!-- Node11&#45;&gt;Node14 -->
<g id="edge14" class="edge"><title>Node11&#45;&gt;Node14</title>
<path fill="none" stroke="midnightblue" d="M191.02,-304.986C171.412,-298.787 145.345,-286.986 132.851,-266 125.803,-254.161 127.579,-247.729 132.851,-235 137.772,-223.121 147.518,-212.743 156.685,-204.956"/>
<polygon fill="midnightblue" stroke="midnightblue" points="159.104,-207.506 164.787,-198.564 154.768,-202.01 159.104,-207.506"/>
</g>
<!-- Node16 -->
<g id="node16" class="node"><title>Node16</title>
<g id="a_node16"><a xlink:href="_i_channel_8h.html" target="_top" xlink:title="IChannel.h">
<polygon fill="white" stroke="black" points="278.351,-241 278.351,-260 345.351,-260 345.351,-241 278.351,-241"/>
<text text-anchor="middle" x="311.851" y="-248" font-family="Helvetica,sans-Serif" font-size="10.00">IChannel.h</text>
</a>
</g>
</g>
<!-- Node11&#45;&gt;Node16 -->
<g id="edge21" class="edge"><title>Node11&#45;&gt;Node16</title>
<path fill="none" stroke="midnightblue" d="M229.606,-302.475C245.217,-292.799 270.915,-276.872 289.434,-265.394"/>
<polygon fill="midnightblue" stroke="midnightblue" points="291.466,-268.252 298.122,-260.009 287.778,-262.302 291.466,-268.252"/>
</g>
<!-- Node11&#45;&gt;Node17 -->
<g id="edge24" class="edge"><title>Node11&#45;&gt;Node17</title>
<path fill="none" stroke="midnightblue" d="M240.437,-305.077C276.072,-296.493 343.413,-280.271 394.699,-267.917"/>
<polygon fill="midnightblue" stroke="midnightblue" points="395.826,-271.246 404.728,-265.501 394.187,-264.441 395.826,-271.246"/>
</g>
<!-- Node18 -->
<g id="node18" class="node"><title>Node18</title>
<g id="a_node18"><a xlink:href="_hard_config_8h.html" target="_top" xlink:title="HardConfig.h">
<polygon fill="white" stroke="black" points="142.351,-241 142.351,-260 221.351,-260 221.351,-241 142.351,-241"/>
<text text-anchor="middle" x="181.851" y="-248" font-family="Helvetica,sans-Serif" font-size="10.00">HardConfig.h</text>
</a>
</g>
</g>
<!-- Node11&#45;&gt;Node18 -->
<g id="edge28" class="edge"><title>Node11&#45;&gt;Node18</title>
<path fill="none" stroke="midnightblue" d="M210.98,-302.475C205.981,-293.727 198.062,-279.869 191.742,-268.809"/>
<polygon fill="midnightblue" stroke="midnightblue" points="194.714,-266.955 186.713,-260.009 188.636,-270.428 194.714,-266.955"/>
</g>
<!-- Node14&#45;&gt;Node5 -->
<g id="edge19" class="edge"><title>Node14&#45;&gt;Node5</title>
<path fill="none" stroke="midnightblue" d="M177.851,-179.298C177.851,-159.85 177.851,-112.49 177.851,-85.9036"/>
<polygon fill="midnightblue" stroke="midnightblue" points="181.351,-85.6231 177.851,-75.6232 174.351,-85.6232 181.351,-85.6231"/>
</g>
<!-- Node14&#45;&gt;Node6 -->
<g id="edge17" class="edge"><title>Node14&#45;&gt;Node6</title>
<path fill="none" stroke="midnightblue" d="M217.999,-179.429C237.826,-172.953 259.989,-161.83 271.851,-143 292.461,-110.284 284.894,-92.4004 271.851,-56 267.91,-45.0027 259.994,-34.7688 252.492,-26.8479"/>
<polygon fill="midnightblue" stroke="midnightblue" points="254.87,-24.2784 245.29,-19.7555 249.959,-29.2659 254.87,-24.2784"/>
</g>
<!-- Node14&#45;&gt;Node12 -->
<g id="edge16" class="edge"><title>Node14&#45;&gt;Node12</title>
<path fill="none" stroke="midnightblue" d="M157.297,-179.47C135.725,-170.49 100.843,-155.895 70.8511,-143 69.4857,-142.413 68.0896,-141.81 66.6803,-141.199"/>
<polygon fill="midnightblue" stroke="midnightblue" points="67.9377,-137.929 57.3724,-137.139 65.1387,-144.345 67.9377,-137.929"/>
</g>
<!-- Node14&#45;&gt;Node13 -->
<g id="edge18" class="edge"><title>Node14&#45;&gt;Node13</title>
<path fill="none" stroke="midnightblue" d="M168.825,-179.475C159.094,-170.285 143.393,-155.456 131.428,-144.156"/>
<polygon fill="midnightblue" stroke="midnightblue" points="133.534,-141.331 123.861,-137.009 128.728,-146.42 133.534,-141.331"/>
</g>
<!-- Node15 -->
<g id="node15" class="node"><title>Node15</title>
<polygon fill="white" stroke="#bfbfbf" points="206.351,-118 206.351,-137 263.351,-137 263.351,-118 206.351,-118"/>
<text text-anchor="middle" x="234.851" y="-125" font-family="Helvetica,sans-Serif" font-size="10.00">memory</text>
</g>
<!-- Node14&#45;&gt;Node15 -->
<g id="edge15" class="edge"><title>Node14&#45;&gt;Node15</title>
<path fill="none" stroke="midnightblue" d="M186.018,-179.475C194.737,-170.373 208.755,-155.741 219.54,-144.483"/>
<polygon fill="midnightblue" stroke="midnightblue" points="222.309,-146.651 226.7,-137.009 217.254,-141.809 222.309,-146.651"/>
</g>
<!-- Node16&#45;&gt;Node3 -->
<g id="edge23" class="edge"><title>Node16&#45;&gt;Node3</title>
<path fill="none" stroke="midnightblue" d="M321.164,-240.975C331.3,-231.697 347.715,-216.671 360.103,-205.331"/>
<polygon fill="midnightblue" stroke="midnightblue" points="362.542,-207.843 367.555,-198.509 357.816,-202.68 362.542,-207.843"/>
</g>
<!-- Node16&#45;&gt;Node14 -->
<g id="edge22" class="edge"><title>Node16&#45;&gt;Node14</title>
<path fill="none" stroke="midnightblue" d="M292.652,-240.975C270.064,-230.945 232.352,-214.2 206.351,-202.655"/>
<polygon fill="midnightblue" stroke="midnightblue" points="207.574,-199.369 197.014,-198.509 204.734,-205.766 207.574,-199.369"/>
</g>
<!-- Node17&#45;&gt;Node4 -->
<g id="edge25" class="edge"><title>Node17&#45;&gt;Node4</title>
<path fill="none" stroke="midnightblue" d="M455.737,-235.279C448.235,-220.716 435.736,-197.636 422.851,-179 416.069,-169.191 407.819,-158.969 400.432,-150.308"/>
<polygon fill="midnightblue" stroke="midnightblue" points="402.891,-147.801 393.691,-142.547 397.606,-152.391 402.891,-147.801"/>
</g>
<!-- Node17&#45;&gt;Node14 -->
<g id="edge26" class="edge"><title>Node17&#45;&gt;Node14</title>
<path fill="none" stroke="midnightblue" d="M401.711,-236.736C350.1,-225.961 277.073,-210.715 228.634,-200.602"/>
<polygon fill="midnightblue" stroke="midnightblue" points="229.191,-197.143 218.687,-198.525 227.761,-203.995 229.191,-197.143"/>
</g>
<!-- Node19&#45;&gt;Node10 -->
<g id="edge31" class="edge"><title>Node19&#45;&gt;Node10</title>
<path fill="none" stroke="midnightblue" d="M331.146,-414.399C336.074,-406.021 342.365,-395.327 347.602,-386.423"/>
<polygon fill="midnightblue" stroke="midnightblue" points="350.705,-388.052 352.758,-377.658 344.671,-384.503 350.705,-388.052"/>
</g>
</g>
</svg>
