<?xml version="1.0" encoding="UTF-8" standalone="no"?>
<!DOCTYPE svg PUBLIC "-//W3C//DTD SVG 1.1//EN"
 "http://www.w3.org/Graphics/SVG/1.1/DTD/svg11.dtd">
<!-- Generated by graphviz version 2.38.0 (20140413.2041)
 -->
<!-- Title: lib/carpi/src/runable/programs/PBrakeLight.h Pages: 1 -->
<svg width="444pt" height="240pt"
 viewBox="0.00 0.00 444.09 240.00" xmlns="http://www.w3.org/2000/svg" xmlns:xlink="http://www.w3.org/1999/xlink">
<g id="graph0" class="graph" transform="scale(1 1) rotate(0) translate(4 236)">
<title>lib/carpi/src/runable/programs/PBrakeLight.h</title>
<polygon fill="white" stroke="none" points="-4,4 -4,-236 440.087,-236 440.087,4 -4,4"/>
<!-- Node1 -->
<g id="node1" class="node"><title>Node1</title>
<polygon fill="#bfbfbf" stroke="black" points="83.5873,-201.5 83.5873,-231.5 218.587,-231.5 218.587,-201.5 83.5873,-201.5"/>
<text text-anchor="start" x="91.5873" y="-219.5" font-family="Helvetica,sans-Serif" font-size="10.00">lib/carpi/src/runable</text>
<text text-anchor="middle" x="151.087" y="-208.5" font-family="Helvetica,sans-Serif" font-size="10.00">/programs/PBrakeLight.h</text>
</g>
<!-- Node2 -->
<g id="node2" class="node"><title>Node2</title>
<g id="a_node2"><a xlink:href="_s_car_8h.html" target="_top" xlink:title="lib/carpi/src/runable\l/services/SCar.h">
<polygon fill="white" stroke="black" points="96.0873,-134.5 96.0873,-164.5 206.087,-164.5 206.087,-134.5 96.0873,-134.5"/>
<text text-anchor="start" x="104.087" y="-152.5" font-family="Helvetica,sans-Serif" font-size="10.00">lib/carpi/src/runable</text>
<text text-anchor="middle" x="151.087" y="-141.5" font-family="Helvetica,sans-Serif" font-size="10.00">/services/SCar.h</text>
</a>
</g>
</g>
<!-- Node1&#45;&gt;Node2 -->
<g id="edge1" class="edge"><title>Node1&#45;&gt;Node2</title>
<path fill="none" stroke="midnightblue" d="M151.087,-191.108C151.087,-182.154 151.087,-172.323 151.087,-164.577"/>
<polygon fill="midnightblue" stroke="midnightblue" points="147.587,-191.396 151.087,-201.396 154.587,-191.396 147.587,-191.396"/>
</g>
<!-- Node3 -->
<g id="node3" class="node"><title>Node3</title>
<g id="a_node3"><a xlink:href="_p_cooling_8h.html" target="_top" xlink:title="lib/carpi/src/runable\l/programs/PCooling.h">
<polygon fill="white" stroke="black" points="124.587,-0.5 124.587,-30.5 243.587,-30.5 243.587,-0.5 124.587,-0.5"/>
<text text-anchor="start" x="132.587" y="-18.5" font-family="Helvetica,sans-Serif" font-size="10.00">lib/carpi/src/runable</text>
<text text-anchor="middle" x="184.087" y="-7.5" font-family="Helvetica,sans-Serif" font-size="10.00">/programs/PCooling.h</text>
</a>
</g>
</g>
<!-- Node2&#45;&gt;Node3 -->
<g id="edge2" class="edge"><title>Node2&#45;&gt;Node3</title>
<path fill="none" stroke="midnightblue" d="M85.9557,-136.303C36.392,-124.014 -19.1918,-101.826 7.08733,-67 21.3791,-48.0603 78.649,-34.1009 124.227,-25.7168"/>
<polygon fill="midnightblue" stroke="midnightblue" points="85.2242,-139.727 95.7621,-138.63 86.8402,-132.916 85.2242,-139.727"/>
</g>
<!-- Node4 -->
<g id="node4" class="node"><title>Node4</title>
<g id="a_node4"><a xlink:href="_p_logger_8h.html" target="_top" xlink:title="lib/carpi/src/runable\l/programs/PLogger.h">
<polygon fill="white" stroke="black" points="16.0873,-67.5 16.0873,-97.5 132.087,-97.5 132.087,-67.5 16.0873,-67.5"/>
<text text-anchor="start" x="24.0873" y="-85.5" font-family="Helvetica,sans-Serif" font-size="10.00">lib/carpi/src/runable</text>
<text text-anchor="middle" x="74.0873" y="-74.5" font-family="Helvetica,sans-Serif" font-size="10.00">/programs/PLogger.h</text>
</a>
</g>
</g>
<!-- Node2&#45;&gt;Node4 -->
<g id="edge3" class="edge"><title>Node2&#45;&gt;Node4</title>
<path fill="none" stroke="midnightblue" d="M126.664,-127.883C114.963,-118.005 101.25,-106.429 90.7626,-97.5765"/>
<polygon fill="midnightblue" stroke="midnightblue" points="124.48,-130.62 134.379,-134.396 128.996,-125.271 124.48,-130.62"/>
</g>
<!-- Node5 -->
<g id="node5" class="node"><title>Node5</title>
<g id="a_node5"><a xlink:href="_p_motor_controller_8h.html" target="_top" xlink:title="lib/carpi/src/runable\l/programs/PMotorController.h">
<polygon fill="white" stroke="black" points="150.087,-67.5 150.087,-97.5 308.087,-97.5 308.087,-67.5 150.087,-67.5"/>
<text text-anchor="start" x="158.087" y="-85.5" font-family="Helvetica,sans-Serif" font-size="10.00">lib/carpi/src/runable</text>
<text text-anchor="middle" x="229.087" y="-74.5" font-family="Helvetica,sans-Serif" font-size="10.00">/programs/PMotorController.h</text>
</a>
</g>
</g>
<!-- Node2&#45;&gt;Node5 -->
<g id="edge4" class="edge"><title>Node2&#45;&gt;Node5</title>
<path fill="none" stroke="midnightblue" d="M175.827,-127.883C187.681,-118.005 201.572,-106.429 212.196,-97.5765"/>
<polygon fill="midnightblue" stroke="midnightblue" points="173.454,-125.305 168.012,-134.396 177.935,-130.683 173.454,-125.305"/>
</g>
<!-- Node6 -->
<g id="node6" class="node"><title>Node6</title>
<g id="a_node6"><a xlink:href="_s_speed_8h.html" target="_top" xlink:title="lib/carpi/src/runable\l/services/SSpeed.h">
<polygon fill="white" stroke="black" points="326.087,-67.5 326.087,-97.5 436.087,-97.5 436.087,-67.5 326.087,-67.5"/>
<text text-anchor="start" x="334.087" y="-85.5" font-family="Helvetica,sans-Serif" font-size="10.00">lib/carpi/src/runable</text>
<text text-anchor="middle" x="381.087" y="-74.5" font-family="Helvetica,sans-Serif" font-size="10.00">/services/SSpeed.h</text>
</a>
</g>
</g>
<!-- Node2&#45;&gt;Node6 -->
<g id="edge5" class="edge"><title>Node2&#45;&gt;Node6</title>
<path fill="none" stroke="midnightblue" d="M210.481,-131.715C247.909,-121.137 295.687,-107.635 331.156,-97.6109"/>
<polygon fill="midnightblue" stroke="midnightblue" points="209.382,-128.388 200.711,-134.476 211.286,-135.124 209.382,-128.388"/>
</g>
<!-- Node6&#45;&gt;Node3 -->
<g id="edge6" class="edge"><title>Node6&#45;&gt;Node3</title>
<path fill="none" stroke="midnightblue" d="M328.739,-64.2278C296.872,-53.7131 256.677,-40.4508 226.75,-30.5765"/>
<polygon fill="midnightblue" stroke="midnightblue" points="327.748,-67.5863 338.341,-67.396 329.942,-60.9388 327.748,-67.5863"/>
</g>
</g>
</svg>
