<?xml version="1.0" encoding="UTF-8" standalone="no"?>
<!DOCTYPE svg PUBLIC "-//W3C//DTD SVG 1.1//EN"
 "http://www.w3.org/Graphics/SVG/1.1/DTD/svg11.dtd">
<!-- Generated by graphviz version 2.38.0 (20140413.2041)
 -->
<!-- Title: lib/carpi/src/runable/programs/PCooling.h Pages: 1 -->
<svg width="1347pt" height="743pt"
 viewBox="0.00 0.00 1347.21 743.00" xmlns="http://www.w3.org/2000/svg" xmlns:xlink="http://www.w3.org/1999/xlink">
<g id="graph0" class="graph" transform="scale(1 1) rotate(0) translate(4 739)">
<title>lib/carpi/src/runable/programs/PCooling.h</title>
<polygon fill="white" stroke="none" points="-4,4 -4,-739 1343.21,-739 1343.21,4 -4,4"/>
<!-- Node1 -->
<g id="node1" class="node"><title>Node1</title>
<polygon fill="#bfbfbf" stroke="black" points="743.713,-704.5 743.713,-734.5 862.713,-734.5 862.713,-704.5 743.713,-704.5"/>
<text text-anchor="start" x="751.713" y="-722.5" font-family="Helvetica,sans-Serif" font-size="10.00">lib/carpi/src/runable</text>
<text text-anchor="middle" x="803.213" y="-711.5" font-family="Helvetica,sans-Serif" font-size="10.00">/programs/PCooling.h</text>
</g>
<!-- Node2 -->
<g id="node2" class="node"><title>Node2</title>
<g id="a_node2"><a xlink:href="_i_program_8h.html" target="_top" xlink:title="IProgram.h">
<polygon fill="white" stroke="black" points="87.7132,-453 87.7132,-472 156.713,-472 156.713,-453 87.7132,-453"/>
<text text-anchor="middle" x="122.213" y="-460" font-family="Helvetica,sans-Serif" font-size="10.00">IProgram.h</text>
</a>
</g>
</g>
<!-- Node1&#45;&gt;Node2 -->
<g id="edge1" class="edge"><title>Node1&#45;&gt;Node2</title>
<path fill="none" stroke="midnightblue" d="M743.558,-712.926C589.297,-697.156 183.701,-646.629 104.213,-545 89.7513,-526.51 100.801,-498.784 110.865,-480.917"/>
<polygon fill="midnightblue" stroke="midnightblue" points="114.003,-482.493 116.187,-472.125 108.014,-478.868 114.003,-482.493"/>
</g>
<!-- Node5 -->
<g id="node5" class="node"><title>Node5</title>
<g id="a_node5"><a xlink:href="component_ids_8h.html" target="_top" xlink:title="communication/componentIds.h">
<polygon fill="white" stroke="black" points="12.7132,-56.5 12.7132,-75.5 183.713,-75.5 183.713,-56.5 12.7132,-56.5"/>
<text text-anchor="middle" x="98.2132" y="-63.5" font-family="Helvetica,sans-Serif" font-size="10.00">communication/componentIds.h</text>
</a>
</g>
</g>
<!-- Node1&#45;&gt;Node5 -->
<g id="edge8" class="edge"><title>Node1&#45;&gt;Node5</title>
<path fill="none" stroke="midnightblue" d="M743.534,-715.283C558.88,-704.543 9.21324,-666.329 9.21324,-592 9.21324,-592 9.21324,-592 9.21324,-193.5 9.21324,-145.766 52.126,-103.329 78.3559,-81.8489"/>
<polygon fill="midnightblue" stroke="midnightblue" points="80.5422,-84.5821 86.2103,-75.6309 76.1973,-79.0937 80.5422,-84.5821"/>
</g>
<!-- Node9 -->
<g id="node9" class="node"><title>Node9</title>
<g id="a_node9"><a xlink:href="_s_car_8h.html" target="_top" xlink:title="services/SCar.h">
<polygon fill="white" stroke="black" points="611.213,-581.5 611.213,-600.5 701.213,-600.5 701.213,-581.5 611.213,-581.5"/>
<text text-anchor="middle" x="656.213" y="-588.5" font-family="Helvetica,sans-Serif" font-size="10.00">services/SCar.h</text>
</a>
</g>
</g>
<!-- Node1&#45;&gt;Node9 -->
<g id="edge9" class="edge"><title>Node1&#45;&gt;Node9</title>
<path fill="none" stroke="midnightblue" d="M785.397,-704.347C772.908,-694.339 755.891,-680.528 741.213,-668 717.146,-647.458 689.995,-622.939 672.994,-607.418"/>
<polygon fill="midnightblue" stroke="midnightblue" points="675.261,-604.748 665.522,-600.578 670.535,-609.912 675.261,-604.748"/>
</g>
<!-- Node27 -->
<g id="node27" class="node"><title>Node27</title>
<g id="a_node27"><a xlink:href="_i_motor_controller_8h.html" target="_top" xlink:title="components/interface\l/IMotorController.h">
<polygon fill="white" stroke="black" points="1001.21,-380.5 1001.21,-410.5 1123.21,-410.5 1123.21,-380.5 1001.21,-380.5"/>
<text text-anchor="start" x="1009.21" y="-398.5" font-family="Helvetica,sans-Serif" font-size="10.00">components/interface</text>
<text text-anchor="middle" x="1062.21" y="-387.5" font-family="Helvetica,sans-Serif" font-size="10.00">/IMotorController.h</text>
</a>
</g>
</g>
<!-- Node1&#45;&gt;Node27 -->
<g id="edge71" class="edge"><title>Node1&#45;&gt;Node27</title>
<path fill="none" stroke="midnightblue" d="M862.859,-718.162C948.528,-714.176 1096.21,-692.701 1096.21,-592 1096.21,-592 1096.21,-592 1096.21,-528.5 1096.21,-489.642 1082.23,-446.325 1072.19,-420.257"/>
<polygon fill="midnightblue" stroke="midnightblue" points="1075.4,-418.838 1068.45,-410.838 1068.89,-421.423 1075.4,-418.838"/>
</g>
<!-- Node30 -->
<g id="node30" class="node"><title>Node30</title>
<g id="a_node30"><a xlink:href="_s_speed_8h.html" target="_top" xlink:title="services/SSpeed.h">
<polygon fill="white" stroke="black" points="750.713,-643 750.713,-662 855.713,-662 855.713,-643 750.713,-643"/>
<text text-anchor="middle" x="803.213" y="-650" font-family="Helvetica,sans-Serif" font-size="10.00">services/SSpeed.h</text>
</a>
</g>
</g>
<!-- Node1&#45;&gt;Node30 -->
<g id="edge62" class="edge"><title>Node1&#45;&gt;Node30</title>
<path fill="none" stroke="midnightblue" d="M803.213,-704.396C803.213,-695.064 803.213,-682.714 803.213,-672.517"/>
<polygon fill="midnightblue" stroke="midnightblue" points="806.713,-672.195 803.213,-662.195 799.713,-672.195 806.713,-672.195"/>
</g>
<!-- Node33 -->
<g id="node33" class="node"><title>Node33</title>
<g id="a_node33"><a xlink:href="_i_fan_8h.html" target="_top" xlink:title="components/interface\l/IFan.h">
<polygon fill="white" stroke="black" points="1217.21,-380.5 1217.21,-410.5 1339.21,-410.5 1339.21,-380.5 1217.21,-380.5"/>
<text text-anchor="start" x="1225.21" y="-398.5" font-family="Helvetica,sans-Serif" font-size="10.00">components/interface</text>
<text text-anchor="middle" x="1278.21" y="-387.5" font-family="Helvetica,sans-Serif" font-size="10.00">/IFan.h</text>
</a>
</g>
</g>
<!-- Node1&#45;&gt;Node33 -->
<g id="edge67" class="edge"><title>Node1&#45;&gt;Node33</title>
<path fill="none" stroke="midnightblue" d="M862.985,-715.52C978.999,-709.206 1225.93,-692.981 1255.21,-668 1281.87,-645.258 1276.21,-627.044 1276.21,-592 1276.21,-592 1276.21,-592 1276.21,-528.5 1276.21,-490.998 1277.03,-447.51 1277.62,-421.009"/>
<polygon fill="midnightblue" stroke="midnightblue" points="1281.12,-420.836 1277.86,-410.758 1274.13,-420.675 1281.12,-420.836"/>
</g>
<!-- Node34 -->
<g id="node34" class="node"><title>Node34</title>
<g id="a_node34"><a xlink:href="_i_pump_8h.html" target="_top" xlink:title="components/interface\l/IPump.h">
<polygon fill="white" stroke="black" points="1124.21,-637.5 1124.21,-667.5 1246.21,-667.5 1246.21,-637.5 1124.21,-637.5"/>
<text text-anchor="start" x="1132.21" y="-655.5" font-family="Helvetica,sans-Serif" font-size="10.00">components/interface</text>
<text text-anchor="middle" x="1185.21" y="-644.5" font-family="Helvetica,sans-Serif" font-size="10.00">/IPump.h</text>
</a>
</g>
</g>
<!-- Node1&#45;&gt;Node34 -->
<g id="edge69" class="edge"><title>Node1&#45;&gt;Node34</title>
<path fill="none" stroke="midnightblue" d="M862.725,-709.216C924.635,-699.439 1024.34,-683.36 1110.21,-668 1111.46,-667.777 1112.72,-667.55 1113.99,-667.32"/>
<polygon fill="midnightblue" stroke="midnightblue" points="1114.64,-670.759 1123.84,-665.509 1113.38,-663.874 1114.64,-670.759"/>
</g>
<!-- Node3 -->
<g id="node3" class="node"><title>Node3</title>
<g id="a_node3"><a xlink:href="_i_runable_8h.html" target="_top" xlink:title="../IRunable.h">
<polygon fill="white" stroke="black" points="502.213,-185 502.213,-204 576.213,-204 576.213,-185 502.213,-185"/>
<text text-anchor="middle" x="539.213" y="-192" font-family="Helvetica,sans-Serif" font-size="10.00">../IRunable.h</text>
</a>
</g>
</g>
<!-- Node2&#45;&gt;Node3 -->
<g id="edge2" class="edge"><title>Node2&#45;&gt;Node3</title>
<path fill="none" stroke="midnightblue" d="M139.246,-452.797C170.804,-436.897 240.752,-402.704 302.213,-380 356.044,-360.114 375.66,-371.158 426.213,-344 466.77,-322.213 478.041,-314.164 505.213,-277 519.391,-257.609 528.95,-231.426 534.233,-214.027"/>
<polygon fill="midnightblue" stroke="midnightblue" points="537.71,-214.599 537.093,-204.023 530.979,-212.675 537.71,-214.599"/>
</g>
<!-- Node4 -->
<g id="node4" class="node"><title>Node4</title>
<g id="a_node4"><a xlink:href="_i_component_8h.html" target="_top" xlink:title="components/interface\l/IComponent.h">
<polygon fill="white" stroke="black" points="785.213,-112.5 785.213,-142.5 907.213,-142.5 907.213,-112.5 785.213,-112.5"/>
<text text-anchor="start" x="793.213" y="-130.5" font-family="Helvetica,sans-Serif" font-size="10.00">components/interface</text>
<text text-anchor="middle" x="846.213" y="-119.5" font-family="Helvetica,sans-Serif" font-size="10.00">/IComponent.h</text>
</a>
</g>
</g>
<!-- Node3&#45;&gt;Node4 -->
<g id="edge3" class="edge"><title>Node3&#45;&gt;Node4</title>
<path fill="none" stroke="midnightblue" d="M576.245,-185.659C625.266,-175.28 712.733,-156.761 774.814,-143.617"/>
<polygon fill="midnightblue" stroke="midnightblue" points="775.877,-146.97 784.935,-141.474 774.427,-140.122 775.877,-146.97"/>
</g>
<!-- Node4&#45;&gt;Node5 -->
<g id="edge4" class="edge"><title>Node4&#45;&gt;Node5</title>
<path fill="none" stroke="midnightblue" d="M785.001,-121.631C654.921,-111.284 350.137,-87.0394 194.042,-74.6227"/>
<polygon fill="midnightblue" stroke="midnightblue" points="194.225,-71.1263 183.978,-73.8222 193.669,-78.1043 194.225,-71.1263"/>
</g>
<!-- Node7 -->
<g id="node7" class="node"><title>Node7</title>
<g id="a_node7"><a xlink:href="_i_logable_8h.html" target="_top" xlink:title="ILogable.h">
<polygon fill="white" stroke="black" points="1074.71,-56.5 1074.71,-75.5 1139.71,-75.5 1139.71,-56.5 1074.71,-56.5"/>
<text text-anchor="middle" x="1107.21" y="-63.5" font-family="Helvetica,sans-Serif" font-size="10.00">ILogable.h</text>
</a>
</g>
</g>
<!-- Node4&#45;&gt;Node7 -->
<g id="edge6" class="edge"><title>Node4&#45;&gt;Node7</title>
<path fill="none" stroke="midnightblue" d="M907.406,-112.55C955.809,-101.516 1022.13,-86.3961 1064.83,-76.6617"/>
<polygon fill="midnightblue" stroke="midnightblue" points="1065.65,-80.0644 1074.62,-74.4292 1064.1,-73.2395 1065.65,-80.0644"/>
</g>
<!-- Node6 -->
<g id="node6" class="node"><title>Node6</title>
<polygon fill="white" stroke="#bfbfbf" points="8.71324,-0.5 8.71324,-19.5 61.7132,-19.5 61.7132,-0.5 8.71324,-0.5"/>
<text text-anchor="middle" x="35.2132" y="-7.5" font-family="Helvetica,sans-Serif" font-size="10.00">stdint.h</text>
</g>
<!-- Node5&#45;&gt;Node6 -->
<g id="edge5" class="edge"><title>Node5&#45;&gt;Node6</title>
<path fill="none" stroke="midnightblue" d="M88.0912,-56.324C78.6869,-48.2631 64.4692,-36.0765 53.1443,-26.3695"/>
<polygon fill="midnightblue" stroke="midnightblue" points="55.3898,-23.6844 45.5194,-19.8339 50.8343,-28.9993 55.3898,-23.6844"/>
</g>
<!-- Node8 -->
<g id="node8" class="node"><title>Node8</title>
<polygon fill="white" stroke="#bfbfbf" points="1085.21,-0.5 1085.21,-19.5 1129.21,-19.5 1129.21,-0.5 1085.21,-0.5"/>
<text text-anchor="middle" x="1107.21" y="-7.5" font-family="Helvetica,sans-Serif" font-size="10.00">string</text>
</g>
<!-- Node7&#45;&gt;Node8 -->
<g id="edge7" class="edge"><title>Node7&#45;&gt;Node8</title>
<path fill="none" stroke="midnightblue" d="M1107.21,-56.083C1107.21,-49.0059 1107.21,-38.8611 1107.21,-29.9865"/>
<polygon fill="midnightblue" stroke="midnightblue" points="1110.71,-29.751 1107.21,-19.7511 1103.71,-29.7511 1110.71,-29.751"/>
</g>
<!-- Node9&#45;&gt;Node5 -->
<g id="edge44" class="edge"><title>Node9&#45;&gt;Node5</title>
<path fill="none" stroke="midnightblue" d="M611.189,-588.519C487.318,-584.14 147.737,-569.973 104.213,-545 65.8738,-523.002 47.2132,-507.702 47.2132,-463.5 47.2132,-463.5 47.2132,-463.5 47.2132,-193.5 47.2132,-151.876 71.2588,-107.771 86.3284,-84.2177"/>
<polygon fill="midnightblue" stroke="midnightblue" points="89.3572,-85.983 91.9596,-75.7128 83.5206,-82.1185 89.3572,-85.983"/>
</g>
<!-- Node9&#45;&gt;Node8 -->
<g id="edge10" class="edge"><title>Node9&#45;&gt;Node8</title>
<path fill="none" stroke="midnightblue" d="M701.509,-585.429C786.517,-576.624 963.724,-557.113 989.213,-545 1107.23,-488.915 1189.21,-460.17 1189.21,-329.5 1189.21,-329.5 1189.21,-329.5 1189.21,-126.5 1189.21,-83.8238 1151.53,-45.931 1127.26,-25.9475"/>
<polygon fill="midnightblue" stroke="midnightblue" points="1129.32,-23.1191 1119.31,-19.6475 1124.97,-28.6037 1129.32,-23.1191"/>
</g>
<!-- Node10 -->
<g id="node10" class="node"><title>Node10</title>
<g id="a_node10"><a xlink:href="_i_service_8h.html" target="_top" xlink:title="IService.h">
<polygon fill="white" stroke="black" points="898.713,-520 898.713,-539 961.713,-539 961.713,-520 898.713,-520"/>
<text text-anchor="middle" x="930.213" y="-527" font-family="Helvetica,sans-Serif" font-size="10.00">IService.h</text>
</a>
</g>
</g>
<!-- Node9&#45;&gt;Node10 -->
<g id="edge11" class="edge"><title>Node9&#45;&gt;Node10</title>
<path fill="none" stroke="midnightblue" d="M701.534,-582.577C747.782,-574.647 821.471,-561.028 884.213,-545 887.643,-544.124 891.195,-543.141 894.735,-542.112"/>
<polygon fill="midnightblue" stroke="midnightblue" points="896.012,-545.382 904.569,-539.135 893.983,-538.683 896.012,-545.382"/>
</g>
<!-- Node11 -->
<g id="node11" class="node"><title>Node11</title>
<g id="a_node11"><a xlink:href="_p_cockpit_indicator_8h.html" target="_top" xlink:title="runable/programs/PCockpit\lIndicator.h">
<polygon fill="white" stroke="black" points="303.213,-514.5 303.213,-544.5 449.213,-544.5 449.213,-514.5 303.213,-514.5"/>
<text text-anchor="start" x="311.213" y="-532.5" font-family="Helvetica,sans-Serif" font-size="10.00">runable/programs/PCockpit</text>
<text text-anchor="middle" x="376.213" y="-521.5" font-family="Helvetica,sans-Serif" font-size="10.00">Indicator.h</text>
</a>
</g>
</g>
<!-- Node9&#45;&gt;Node11 -->
<g id="edge13" class="edge"><title>Node9&#45;&gt;Node11</title>
<path fill="none" stroke="midnightblue" d="M616.096,-581.475C573.478,-572.419 505.093,-557.887 452.222,-546.652"/>
<polygon fill="midnightblue" stroke="midnightblue" points="452.713,-543.178 442.204,-544.523 451.258,-550.025 452.713,-543.178"/>
</g>
<!-- Node12 -->
<g id="node12" class="node"><title>Node12</title>
<g id="a_node12"><a xlink:href="_i_hv_enabled_8h.html" target="_top" xlink:title="components/interface\l/IHvEnabled.h">
<polygon fill="white" stroke="black" points="709.213,-447.5 709.213,-477.5 831.213,-477.5 831.213,-447.5 709.213,-447.5"/>
<text text-anchor="start" x="717.213" y="-465.5" font-family="Helvetica,sans-Serif" font-size="10.00">components/interface</text>
<text text-anchor="middle" x="770.213" y="-454.5" font-family="Helvetica,sans-Serif" font-size="10.00">/IHvEnabled.h</text>
</a>
</g>
</g>
<!-- Node9&#45;&gt;Node12 -->
<g id="edge54" class="edge"><title>Node9&#45;&gt;Node12</title>
<path fill="none" stroke="midnightblue" d="M686.546,-581.477C705.871,-574.582 730.041,-563.008 745.213,-545 758.796,-528.879 765.004,-505.466 767.838,-487.867"/>
<polygon fill="midnightblue" stroke="midnightblue" points="771.331,-488.157 769.203,-477.778 764.394,-487.219 771.331,-488.157"/>
</g>
<!-- Node13 -->
<g id="node13" class="node"><title>Node13</title>
<g id="a_node13"><a xlink:href="_i_led_8h.html" target="_top" xlink:title="components/interface\l/ILed.h">
<polygon fill="white" stroke="black" points="315.213,-447.5 315.213,-477.5 437.213,-477.5 437.213,-447.5 315.213,-447.5"/>
<text text-anchor="start" x="323.213" y="-465.5" font-family="Helvetica,sans-Serif" font-size="10.00">components/interface</text>
<text text-anchor="middle" x="376.213" y="-454.5" font-family="Helvetica,sans-Serif" font-size="10.00">/ILed.h</text>
</a>
</g>
</g>
<!-- Node9&#45;&gt;Node13 -->
<g id="edge48" class="edge"><title>Node9&#45;&gt;Node13</title>
<path fill="none" stroke="midnightblue" d="M610.916,-582.417C577.824,-575.672 532.572,-563.893 496.213,-545 476.873,-534.95 475.976,-526.631 458.213,-514 442.868,-503.088 425.153,-492.003 410.125,-483.009"/>
<polygon fill="midnightblue" stroke="midnightblue" points="411.547,-479.784 401.159,-477.7 407.98,-485.807 411.547,-479.784"/>
</g>
<!-- Node15 -->
<g id="node15" class="node"><title>Node15</title>
<g id="a_node15"><a xlink:href="_sync_8h.html" target="_top" xlink:title="Sync.h">
<polygon fill="white" stroke="black" points="368.713,-319 368.713,-338 417.713,-338 417.713,-319 368.713,-319"/>
<text text-anchor="middle" x="393.213" y="-326" font-family="Helvetica,sans-Serif" font-size="10.00">Sync.h</text>
</a>
</g>
</g>
<!-- Node9&#45;&gt;Node15 -->
<g id="edge60" class="edge"><title>Node9&#45;&gt;Node15</title>
<path fill="none" stroke="midnightblue" d="M656.476,-581.193C656.449,-565.542 654.093,-532.77 636.213,-514 599.566,-475.528 560.967,-514.349 522.213,-478 488.14,-446.042 514.912,-415.212 484.213,-380 469.047,-362.604 446.359,-349.995 427.433,-341.727"/>
<polygon fill="midnightblue" stroke="midnightblue" points="428.516,-338.388 417.938,-337.797 425.839,-344.856 428.516,-338.388"/>
</g>
<!-- Node22 -->
<g id="node22" class="node"><title>Node22</title>
<g id="a_node22"><a xlink:href="_hard_config_8h.html" target="_top" xlink:title="HardConfig.h">
<polygon fill="white" stroke="black" points="567.713,-252 567.713,-271 646.713,-271 646.713,-252 567.713,-252"/>
<text text-anchor="middle" x="607.213" y="-259" font-family="Helvetica,sans-Serif" font-size="10.00">HardConfig.h</text>
</a>
</g>
</g>
<!-- Node9&#45;&gt;Node22 -->
<g id="edge61" class="edge"><title>Node9&#45;&gt;Node22</title>
<path fill="none" stroke="midnightblue" d="M664.427,-581.182C671.757,-572.663 681.969,-559.019 686.213,-545 690.206,-531.813 688.302,-527.619 686.213,-514 672.393,-423.887 632.248,-321.735 615.114,-280.841"/>
<polygon fill="midnightblue" stroke="midnightblue" points="618.235,-279.236 611.107,-271.398 611.791,-281.97 618.235,-279.236"/>
</g>
<!-- Node23 -->
<g id="node23" class="node"><title>Node23</title>
<g id="a_node23"><a xlink:href="_p_brake_light_8h.html" target="_top" xlink:title="runable/programs/PBrakeLight.h">
<polygon fill="white" stroke="black" points="113.713,-520 113.713,-539 284.713,-539 284.713,-520 113.713,-520"/>
<text text-anchor="middle" x="199.213" y="-527" font-family="Helvetica,sans-Serif" font-size="10.00">runable/programs/PBrakeLight.h</text>
</a>
</g>
</g>
<!-- Node9&#45;&gt;Node23 -->
<g id="edge39" class="edge"><title>Node9&#45;&gt;Node23</title>
<path fill="none" stroke="midnightblue" d="M611.012,-584.79C542.446,-576.794 408.073,-560.763 294.213,-545 284.297,-543.627 273.811,-542.101 263.566,-540.57"/>
<polygon fill="midnightblue" stroke="midnightblue" points="263.842,-537.072 253.432,-539.042 262.799,-543.994 263.842,-537.072"/>
</g>
<!-- Node25 -->
<g id="node25" class="node"><title>Node25</title>
<g id="a_node25"><a xlink:href="_i_button_8h.html" target="_top" xlink:title="components/interface\l/IButton.h">
<polygon fill="white" stroke="black" points="531.213,-447.5 531.213,-477.5 653.213,-477.5 653.213,-447.5 531.213,-447.5"/>
<text text-anchor="start" x="539.213" y="-465.5" font-family="Helvetica,sans-Serif" font-size="10.00">components/interface</text>
<text text-anchor="middle" x="592.213" y="-454.5" font-family="Helvetica,sans-Serif" font-size="10.00">/IButton.h</text>
</a>
</g>
</g>
<!-- Node9&#45;&gt;Node25 -->
<g id="edge45" class="edge"><title>Node9&#45;&gt;Node25</title>
<path fill="none" stroke="midnightblue" d="M661.009,-581.449C668.555,-566.751 681.171,-536.143 669.213,-514 662.054,-500.742 649.729,-490.402 637.013,-482.627"/>
<polygon fill="midnightblue" stroke="midnightblue" points="638.633,-479.523 628.205,-477.65 635.19,-485.617 638.633,-479.523"/>
</g>
<!-- Node26 -->
<g id="node26" class="node"><title>Node26</title>
<g id="a_node26"><a xlink:href="_i_buzzer_8h.html" target="_top" xlink:title="components/interface\l/IBuzzer.h">
<polygon fill="white" stroke="black" points="785.213,-313.5 785.213,-343.5 907.213,-343.5 907.213,-313.5 785.213,-313.5"/>
<text text-anchor="start" x="793.213" y="-331.5" font-family="Helvetica,sans-Serif" font-size="10.00">components/interface</text>
<text text-anchor="middle" x="846.213" y="-320.5" font-family="Helvetica,sans-Serif" font-size="10.00">/IBuzzer.h</text>
</a>
</g>
</g>
<!-- Node9&#45;&gt;Node26 -->
<g id="edge49" class="edge"><title>Node9&#45;&gt;Node26</title>
<path fill="none" stroke="midnightblue" d="M691.222,-581.431C736.499,-568.141 812.802,-537.633 840.213,-478 858.737,-437.702 855.09,-384.57 850.695,-354.007"/>
<polygon fill="midnightblue" stroke="midnightblue" points="854.104,-353.161 849.081,-343.833 847.191,-354.258 854.104,-353.161"/>
</g>
<!-- Node9&#45;&gt;Node27 -->
<g id="edge51" class="edge"><title>Node9&#45;&gt;Node27</title>
<path fill="none" stroke="midnightblue" d="M701.214,-584.416C740.77,-578.341 799.194,-566.484 846.213,-545 867.642,-535.209 869.911,-527.509 889.213,-514 939.047,-479.124 997.745,-439.575 1032.36,-416.404"/>
<polygon fill="midnightblue" stroke="midnightblue" points="1034.68,-419.068 1041.04,-410.6 1030.79,-413.249 1034.68,-419.068"/>
</g>
<!-- Node28 -->
<g id="node28" class="node"><title>Node28</title>
<g id="a_node28"><a xlink:href="_i_s_d_card_8h.html" target="_top" xlink:title="components/interface\l/ISDCard.h">
<polygon fill="white" stroke="black" points="925.213,-179.5 925.213,-209.5 1047.21,-209.5 1047.21,-179.5 925.213,-179.5"/>
<text text-anchor="start" x="933.213" y="-197.5" font-family="Helvetica,sans-Serif" font-size="10.00">components/interface</text>
<text text-anchor="middle" x="986.213" y="-186.5" font-family="Helvetica,sans-Serif" font-size="10.00">/ISDCard.h</text>
</a>
</g>
</g>
<!-- Node9&#45;&gt;Node28 -->
<g id="edge55" class="edge"><title>Node9&#45;&gt;Node28</title>
<path fill="none" stroke="midnightblue" d="M701.293,-585.063C785.994,-575.579 961.249,-554.875 970.213,-545 991.911,-521.098 988.606,-295.88 986.861,-220.182"/>
<polygon fill="midnightblue" stroke="midnightblue" points="990.349,-219.666 986.608,-209.754 983.352,-219.835 990.349,-219.666"/>
</g>
<!-- Node29 -->
<g id="node29" class="node"><title>Node29</title>
<g id="a_node29"><a xlink:href="_i_alive_8h.html" target="_top" xlink:title="components/interface\l/IAlive.h">
<polygon fill="white" stroke="black" points="505.213,-514.5 505.213,-544.5 627.213,-544.5 627.213,-514.5 505.213,-514.5"/>
<text text-anchor="start" x="513.213" y="-532.5" font-family="Helvetica,sans-Serif" font-size="10.00">components/interface</text>
<text text-anchor="middle" x="566.213" y="-521.5" font-family="Helvetica,sans-Serif" font-size="10.00">/IAlive.h</text>
</a>
</g>
</g>
<!-- Node9&#45;&gt;Node29 -->
<g id="edge58" class="edge"><title>Node9&#45;&gt;Node29</title>
<path fill="none" stroke="midnightblue" d="M643.318,-581.475C631.015,-573.341 612.031,-560.791 595.979,-550.179"/>
<polygon fill="midnightblue" stroke="midnightblue" points="597.697,-547.118 587.424,-544.523 593.836,-552.958 597.697,-547.118"/>
</g>
<!-- Node10&#45;&gt;Node3 -->
<g id="edge12" class="edge"><title>Node10&#45;&gt;Node3</title>
<path fill="none" stroke="midnightblue" d="M930.767,-519.856C932.069,-498.778 935.213,-443.054 935.213,-396.5 935.213,-396.5 935.213,-396.5 935.213,-327.5 935.213,-254.737 691.545,-214.905 586.488,-201.114"/>
<polygon fill="midnightblue" stroke="midnightblue" points="586.833,-197.629 576.468,-199.822 585.938,-204.572 586.833,-197.629"/>
</g>
<!-- Node11&#45;&gt;Node2 -->
<g id="edge14" class="edge"><title>Node11&#45;&gt;Node2</title>
<path fill="none" stroke="midnightblue" d="M311.985,-514.497C270.227,-505.039 214.723,-491.8 166.213,-478 163.216,-477.147 160.117,-476.22 157.017,-475.261"/>
<polygon fill="midnightblue" stroke="midnightblue" points="157.823,-471.845 147.233,-472.14 155.696,-478.514 157.823,-471.845"/>
</g>
<!-- Node11&#45;&gt;Node12 -->
<g id="edge15" class="edge"><title>Node11&#45;&gt;Node12</title>
<path fill="none" stroke="midnightblue" d="M449.398,-516.426C520.668,-504.669 628.295,-486.913 698.914,-475.263"/>
<polygon fill="midnightblue" stroke="midnightblue" points="699.759,-478.671 709.056,-473.589 698.62,-471.764 699.759,-478.671"/>
</g>
<!-- Node11&#45;&gt;Node13 -->
<g id="edge17" class="edge"><title>Node11&#45;&gt;Node13</title>
<path fill="none" stroke="midnightblue" d="M376.213,-514.396C376.213,-506.645 376.213,-496.812 376.213,-487.86"/>
<polygon fill="midnightblue" stroke="midnightblue" points="379.713,-487.576 376.213,-477.577 372.713,-487.577 379.713,-487.576"/>
</g>
<!-- Node12&#45;&gt;Node4 -->
<g id="edge16" class="edge"><title>Node12&#45;&gt;Node4</title>
<path fill="none" stroke="midnightblue" d="M767.889,-447.286C764.15,-423.146 757.213,-372.561 757.213,-329.5 757.213,-329.5 757.213,-329.5 757.213,-260.5 757.213,-214.913 794.158,-173.274 820.441,-149.419"/>
<polygon fill="midnightblue" stroke="midnightblue" points="822.999,-151.831 828.203,-142.603 818.379,-146.572 822.999,-151.831"/>
</g>
<!-- Node14 -->
<g id="node14" class="node"><title>Node14</title>
<g id="a_node14"><a xlink:href="_self_syncable_8h.html" target="_top" xlink:title="communication/SelfSyncable.h">
<polygon fill="white" stroke="black" points="311.213,-386 311.213,-405 475.213,-405 475.213,-386 311.213,-386"/>
<text text-anchor="middle" x="393.213" y="-393" font-family="Helvetica,sans-Serif" font-size="10.00">communication/SelfSyncable.h</text>
</a>
</g>
</g>
<!-- Node13&#45;&gt;Node14 -->
<g id="edge18" class="edge"><title>Node13&#45;&gt;Node14</title>
<path fill="none" stroke="midnightblue" d="M379.902,-447.396C382.369,-437.963 385.642,-425.448 388.325,-415.189"/>
<polygon fill="midnightblue" stroke="midnightblue" points="391.795,-415.755 390.939,-405.195 385.023,-413.984 391.795,-415.755"/>
</g>
<!-- Node14&#45;&gt;Node15 -->
<g id="edge19" class="edge"><title>Node14&#45;&gt;Node15</title>
<path fill="none" stroke="midnightblue" d="M393.213,-385.734C393.213,-376.183 393.213,-360.618 393.213,-348.283"/>
<polygon fill="midnightblue" stroke="midnightblue" points="396.713,-348.127 393.213,-338.127 389.713,-348.127 396.713,-348.127"/>
</g>
<!-- Node21 -->
<g id="node21" class="node"><title>Node21</title>
<g id="a_node21"><a xlink:href="_i_communication_8h.html" target="_top" xlink:title="components/interface\l/ICommunication.h">
<polygon fill="white" stroke="black" points="75.2132,-246.5 75.2132,-276.5 197.213,-276.5 197.213,-246.5 75.2132,-246.5"/>
<text text-anchor="start" x="83.2132" y="-264.5" font-family="Helvetica,sans-Serif" font-size="10.00">components/interface</text>
<text text-anchor="middle" x="136.213" y="-253.5" font-family="Helvetica,sans-Serif" font-size="10.00">/ICommunication.h</text>
</a>
</g>
</g>
<!-- Node14&#45;&gt;Node21 -->
<g id="edge38" class="edge"><title>Node14&#45;&gt;Node21</title>
<path fill="none" stroke="midnightblue" d="M376.351,-385.839C335.201,-364.704 228.899,-310.105 172.539,-281.157"/>
<polygon fill="midnightblue" stroke="midnightblue" points="174.105,-278.027 163.61,-276.572 170.906,-284.254 174.105,-278.027"/>
</g>
<!-- Node15&#45;&gt;Node3 -->
<g id="edge36" class="edge"><title>Node15&#45;&gt;Node3</title>
<path fill="none" stroke="midnightblue" d="M411.917,-318.854C429.889,-309.977 457.195,-294.946 477.213,-277 498.546,-257.875 517.59,-230.531 528.773,-212.896"/>
<polygon fill="midnightblue" stroke="midnightblue" points="531.861,-214.557 534.142,-204.211 525.907,-210.876 531.861,-214.557"/>
</g>
<!-- Node15&#45;&gt;Node4 -->
<g id="edge29" class="edge"><title>Node15&#45;&gt;Node4</title>
<path fill="none" stroke="midnightblue" d="M402.38,-318.749C412.199,-309.093 427.893,-292.816 439.213,-277 468.157,-236.561 452.3,-207.27 493.213,-179 537.597,-148.333 685.157,-136.016 774.839,-131.277"/>
<polygon fill="midnightblue" stroke="midnightblue" points="775.131,-134.767 784.94,-130.763 774.775,-127.776 775.131,-134.767"/>
</g>
<!-- Node15&#45;&gt;Node5 -->
<g id="edge21" class="edge"><title>Node15&#45;&gt;Node5</title>
<path fill="none" stroke="midnightblue" d="M396.848,-318.753C409.551,-286.632 448.393,-173.844 395.213,-112 369.546,-82.1513 270.861,-71.8578 194.206,-68.4357"/>
<polygon fill="midnightblue" stroke="midnightblue" points="194.158,-64.9309 184.023,-68.0152 193.87,-71.9249 194.158,-64.9309"/>
</g>
<!-- Node16 -->
<g id="node16" class="node"><title>Node16</title>
<polygon fill="white" stroke="#bfbfbf" points="239.713,-118 239.713,-137 286.713,-137 286.713,-118 239.713,-118"/>
<text text-anchor="middle" x="263.213" y="-125" font-family="Helvetica,sans-Serif" font-size="10.00">vector</text>
</g>
<!-- Node15&#45;&gt;Node16 -->
<g id="edge20" class="edge"><title>Node15&#45;&gt;Node16</title>
<path fill="none" stroke="midnightblue" d="M368.496,-323.448C342.582,-317.808 302.824,-304.942 282.213,-277 253.62,-238.236 256.468,-177.773 260.22,-147.342"/>
<polygon fill="midnightblue" stroke="midnightblue" points="263.711,-147.648 261.639,-137.258 256.78,-146.673 263.711,-147.648"/>
</g>
<!-- Node17 -->
<g id="node17" class="node"><title>Node17</title>
<g id="a_node17"><a xlink:href="device_ids_8h.html" target="_top" xlink:title="deviceIds.h">
<polygon fill="white" stroke="black" points="316.213,-118 316.213,-137 386.213,-137 386.213,-118 316.213,-118"/>
<text text-anchor="middle" x="351.213" y="-125" font-family="Helvetica,sans-Serif" font-size="10.00">deviceIds.h</text>
</a>
</g>
</g>
<!-- Node15&#45;&gt;Node17 -->
<g id="edge22" class="edge"><title>Node15&#45;&gt;Node17</title>
<path fill="none" stroke="midnightblue" d="M391.409,-318.949C385.109,-289.101 364,-189.084 355.16,-147.199"/>
<polygon fill="midnightblue" stroke="midnightblue" points="358.548,-146.305 353.058,-137.243 351.699,-147.75 358.548,-146.305"/>
</g>
<!-- Node18 -->
<g id="node18" class="node"><title>Node18</title>
<g id="a_node18"><a xlink:href="_car_message_8h.html" target="_top" xlink:title="CarMessage.h">
<polygon fill="white" stroke="black" points="149.713,-185 149.713,-204 234.713,-204 234.713,-185 149.713,-185"/>
<text text-anchor="middle" x="192.213" y="-192" font-family="Helvetica,sans-Serif" font-size="10.00">CarMessage.h</text>
</a>
</g>
</g>
<!-- Node15&#45;&gt;Node18 -->
<g id="edge23" class="edge"><title>Node15&#45;&gt;Node18</title>
<path fill="none" stroke="midnightblue" d="M368.603,-323.651C338.043,-317.867 285.519,-304.537 249.213,-277 226.811,-260.009 209.845,-231.656 200.464,-213.272"/>
<polygon fill="midnightblue" stroke="midnightblue" points="203.577,-211.671 196.046,-204.219 197.287,-214.741 203.577,-211.671"/>
</g>
<!-- Node20 -->
<g id="node20" class="node"><title>Node20</title>
<g id="a_node20"><a xlink:href="_i_channel_8h.html" target="_top" xlink:title="IChannel.h">
<polygon fill="white" stroke="black" points="291.713,-252 291.713,-271 358.713,-271 358.713,-252 291.713,-252"/>
<text text-anchor="middle" x="325.213" y="-259" font-family="Helvetica,sans-Serif" font-size="10.00">IChannel.h</text>
</a>
</g>
</g>
<!-- Node15&#45;&gt;Node20 -->
<g id="edge30" class="edge"><title>Node15&#45;&gt;Node20</title>
<path fill="none" stroke="midnightblue" d="M384.042,-318.734C373.235,-308.403 355.067,-291.037 341.775,-278.332"/>
<polygon fill="midnightblue" stroke="midnightblue" points="343.886,-275.507 334.239,-271.127 339.049,-280.567 343.886,-275.507"/>
</g>
<!-- Node15&#45;&gt;Node21 -->
<g id="edge33" class="edge"><title>Node15&#45;&gt;Node21</title>
<path fill="none" stroke="midnightblue" d="M368.571,-321.268C330.487,-311.635 256.05,-292.809 201.656,-279.052"/>
<polygon fill="midnightblue" stroke="midnightblue" points="202.299,-275.604 191.746,-276.545 200.583,-282.39 202.299,-275.604"/>
</g>
<!-- Node15&#45;&gt;Node22 -->
<g id="edge37" class="edge"><title>Node15&#45;&gt;Node22</title>
<path fill="none" stroke="midnightblue" d="M417.762,-320.044C454.836,-308.783 525.42,-287.344 569.183,-274.051"/>
<polygon fill="midnightblue" stroke="midnightblue" points="570.341,-277.357 578.892,-271.102 568.307,-270.66 570.341,-277.357"/>
</g>
<!-- Node18&#45;&gt;Node5 -->
<g id="edge28" class="edge"><title>Node18&#45;&gt;Node5</title>
<path fill="none" stroke="midnightblue" d="M185.732,-184.942C178.147,-174.913 165.222,-157.785 154.213,-143 139.157,-122.781 121.978,-99.4224 110.661,-83.9962"/>
<polygon fill="midnightblue" stroke="midnightblue" points="113.472,-81.9096 104.737,-75.9138 107.826,-86.0482 113.472,-81.9096"/>
</g>
<!-- Node18&#45;&gt;Node6 -->
<g id="edge26" class="edge"><title>Node18&#45;&gt;Node6</title>
<path fill="none" stroke="midnightblue" d="M161.8,-184.893C117.6,-170.553 37.1871,-137.125 3.21324,-76 -5.89534,-59.6119 6.45291,-40.2707 18.3586,-26.9717"/>
<polygon fill="midnightblue" stroke="midnightblue" points="21.0929,-29.1786 25.5187,-19.5524 16.0559,-24.3176 21.0929,-29.1786"/>
</g>
<!-- Node18&#45;&gt;Node16 -->
<g id="edge25" class="edge"><title>Node18&#45;&gt;Node16</title>
<path fill="none" stroke="midnightblue" d="M201.789,-184.734C213.18,-174.305 232.4,-156.709 246.312,-143.973"/>
<polygon fill="midnightblue" stroke="midnightblue" points="248.777,-146.461 253.79,-137.127 244.05,-141.298 248.777,-146.461"/>
</g>
<!-- Node18&#45;&gt;Node17 -->
<g id="edge27" class="edge"><title>Node18&#45;&gt;Node17</title>
<path fill="none" stroke="midnightblue" d="M213.327,-184.869C240.845,-173.619 289.161,-153.867 320.672,-140.985"/>
<polygon fill="midnightblue" stroke="midnightblue" points="322.333,-144.088 330.265,-137.064 319.684,-137.608 322.333,-144.088"/>
</g>
<!-- Node19 -->
<g id="node19" class="node"><title>Node19</title>
<polygon fill="white" stroke="#bfbfbf" points="163.713,-118 163.713,-137 220.713,-137 220.713,-118 163.713,-118"/>
<text text-anchor="middle" x="192.213" y="-125" font-family="Helvetica,sans-Serif" font-size="10.00">memory</text>
</g>
<!-- Node18&#45;&gt;Node19 -->
<g id="edge24" class="edge"><title>Node18&#45;&gt;Node19</title>
<path fill="none" stroke="midnightblue" d="M192.213,-184.734C192.213,-175.183 192.213,-159.618 192.213,-147.283"/>
<polygon fill="midnightblue" stroke="midnightblue" points="195.713,-147.127 192.213,-137.127 188.713,-147.127 195.713,-147.127"/>
</g>
<!-- Node20&#45;&gt;Node3 -->
<g id="edge32" class="edge"><title>Node20&#45;&gt;Node3</title>
<path fill="none" stroke="midnightblue" d="M353.631,-251.869C391.629,-240.327 459.093,-219.835 501.366,-206.996"/>
<polygon fill="midnightblue" stroke="midnightblue" points="502.468,-210.319 511.019,-204.064 500.433,-203.621 502.468,-210.319"/>
</g>
<!-- Node20&#45;&gt;Node18 -->
<g id="edge31" class="edge"><title>Node20&#45;&gt;Node18</title>
<path fill="none" stroke="midnightblue" d="M307.552,-251.869C284.896,-240.796 245.385,-221.486 219.013,-208.598"/>
<polygon fill="midnightblue" stroke="midnightblue" points="220.469,-205.414 209.948,-204.167 217.395,-211.703 220.469,-205.414"/>
</g>
<!-- Node21&#45;&gt;Node4 -->
<g id="edge34" class="edge"><title>Node21&#45;&gt;Node4</title>
<path fill="none" stroke="midnightblue" d="M182.453,-246.469C243.157,-228.511 353.278,-197.512 449.213,-179 562,-157.236 694.686,-142.521 774.529,-134.827"/>
<polygon fill="midnightblue" stroke="midnightblue" points="775.334,-138.266 784.957,-133.833 774.67,-131.298 775.334,-138.266"/>
</g>
<!-- Node21&#45;&gt;Node18 -->
<g id="edge35" class="edge"><title>Node21&#45;&gt;Node18</title>
<path fill="none" stroke="midnightblue" d="M148.364,-246.396C157.096,-236.261 168.894,-222.567 178.052,-211.937"/>
<polygon fill="midnightblue" stroke="midnightblue" points="180.847,-214.055 184.723,-204.195 175.544,-209.486 180.847,-214.055"/>
</g>
<!-- Node23&#45;&gt;Node2 -->
<g id="edge40" class="edge"><title>Node23&#45;&gt;Node2</title>
<path fill="none" stroke="midnightblue" d="M188.829,-519.734C176.36,-509.208 155.239,-491.379 140.122,-478.617"/>
<polygon fill="midnightblue" stroke="midnightblue" points="142.332,-475.903 132.433,-472.127 137.817,-481.252 142.332,-475.903"/>
</g>
<!-- Node23&#45;&gt;Node13 -->
<g id="edge43" class="edge"><title>Node23&#45;&gt;Node13</title>
<path fill="none" stroke="midnightblue" d="M222.717,-519.869C249.507,-510.031 294.005,-493.689 328.212,-481.128"/>
<polygon fill="midnightblue" stroke="midnightblue" points="329.833,-484.261 338.014,-477.528 327.42,-477.69 329.833,-484.261"/>
</g>
<!-- Node24 -->
<g id="node24" class="node"><title>Node24</title>
<g id="a_node24"><a xlink:href="_i_pedal_8h.html" target="_top" xlink:title="components/interface\l/IPedal.h">
<polygon fill="white" stroke="black" points="175.213,-447.5 175.213,-477.5 297.213,-477.5 297.213,-447.5 175.213,-447.5"/>
<text text-anchor="start" x="183.213" y="-465.5" font-family="Helvetica,sans-Serif" font-size="10.00">components/interface</text>
<text text-anchor="middle" x="236.213" y="-454.5" font-family="Helvetica,sans-Serif" font-size="10.00">/IPedal.h</text>
</a>
</g>
</g>
<!-- Node23&#45;&gt;Node24 -->
<g id="edge41" class="edge"><title>Node23&#45;&gt;Node24</title>
<path fill="none" stroke="midnightblue" d="M204.203,-519.734C209.059,-511.203 216.646,-497.874 223.215,-486.334"/>
<polygon fill="midnightblue" stroke="midnightblue" points="226.288,-488.011 228.193,-477.589 220.205,-484.548 226.288,-488.011"/>
</g>
<!-- Node24&#45;&gt;Node14 -->
<g id="edge42" class="edge"><title>Node24&#45;&gt;Node14</title>
<path fill="none" stroke="midnightblue" d="M270.28,-447.396C297.949,-435.941 336.6,-419.938 363.137,-408.952"/>
<polygon fill="midnightblue" stroke="midnightblue" points="364.765,-412.066 372.666,-405.007 362.087,-405.599 364.765,-412.066"/>
</g>
<!-- Node25&#45;&gt;Node14 -->
<g id="edge46" class="edge"><title>Node25&#45;&gt;Node14</title>
<path fill="none" stroke="midnightblue" d="M549.033,-447.396C513.189,-435.688 462.806,-419.231 429.136,-408.234"/>
<polygon fill="midnightblue" stroke="midnightblue" points="429.85,-404.785 419.258,-405.007 427.677,-411.439 429.85,-404.785"/>
</g>
<!-- Node25&#45;&gt;Node22 -->
<g id="edge47" class="edge"><title>Node25&#45;&gt;Node22</title>
<path fill="none" stroke="midnightblue" d="M593.292,-447.188C595.945,-411.986 602.791,-321.172 605.78,-281.508"/>
<polygon fill="midnightblue" stroke="midnightblue" points="609.284,-281.595 606.545,-271.36 602.304,-281.069 609.284,-281.595"/>
</g>
<!-- Node26&#45;&gt;Node4 -->
<g id="edge50" class="edge"><title>Node26&#45;&gt;Node4</title>
<path fill="none" stroke="midnightblue" d="M846.213,-313.188C846.213,-279.483 846.213,-194.798 846.213,-152.84"/>
<polygon fill="midnightblue" stroke="midnightblue" points="849.713,-152.682 846.213,-142.682 842.713,-152.682 849.713,-152.682"/>
</g>
<!-- Node27&#45;&gt;Node4 -->
<g id="edge52" class="edge"><title>Node27&#45;&gt;Node4</title>
<path fill="none" stroke="midnightblue" d="M1052.04,-380.245C1032.72,-353.394 989.104,-293.726 949.213,-246 935.293,-229.346 930.62,-226.235 916.213,-210 898.608,-190.16 878.961,-167.212 864.974,-150.732"/>
<polygon fill="midnightblue" stroke="midnightblue" points="867.35,-148.123 858.216,-142.754 862.009,-152.647 867.35,-148.123"/>
</g>
<!-- Node27&#45;&gt;Node7 -->
<g id="edge53" class="edge"><title>Node27&#45;&gt;Node7</title>
<path fill="none" stroke="midnightblue" d="M1064.41,-380.16C1069.15,-349.148 1080.57,-273.512 1089.21,-210 1095.27,-165.526 1101.67,-113.17 1104.97,-85.8117"/>
<polygon fill="midnightblue" stroke="midnightblue" points="1108.46,-86.0588 1106.18,-75.7132 1101.51,-85.2254 1108.46,-86.0588"/>
</g>
<!-- Node28&#45;&gt;Node4 -->
<g id="edge57" class="edge"><title>Node28&#45;&gt;Node4</title>
<path fill="none" stroke="midnightblue" d="M955.835,-179.396C935.288,-169.856 907.949,-157.163 885.714,-146.84"/>
<polygon fill="midnightblue" stroke="midnightblue" points="887.076,-143.613 876.532,-142.577 884.128,-149.962 887.076,-143.613"/>
</g>
<!-- Node28&#45;&gt;Node8 -->
<g id="edge56" class="edge"><title>Node28&#45;&gt;Node8</title>
<path fill="none" stroke="midnightblue" d="M993.061,-179.184C1005.67,-153.436 1034.13,-98.0749 1065.21,-56 1072.82,-45.7079 1082.49,-35.1993 1090.64,-26.9282"/>
<polygon fill="midnightblue" stroke="midnightblue" points="1093.23,-29.2896 1097.87,-19.7638 1088.31,-24.3182 1093.23,-29.2896"/>
</g>
<!-- Node29&#45;&gt;Node14 -->
<g id="edge59" class="edge"><title>Node29&#45;&gt;Node14</title>
<path fill="none" stroke="midnightblue" d="M543.136,-514.412C527.571,-504.658 506.752,-491.118 489.213,-478 460.389,-456.442 428.935,-428.904 410.154,-411.995"/>
<polygon fill="midnightblue" stroke="midnightblue" points="412.459,-409.361 402.699,-405.24 407.759,-414.548 412.459,-409.361"/>
</g>
<!-- Node30&#45;&gt;Node9 -->
<g id="edge64" class="edge"><title>Node30&#45;&gt;Node9</title>
<path fill="none" stroke="midnightblue" d="M782.152,-642.975C757.154,-632.857 715.272,-615.905 686.727,-604.351"/>
<polygon fill="midnightblue" stroke="midnightblue" points="687.818,-601.017 677.236,-600.509 685.192,-607.505 687.818,-601.017"/>
</g>
<!-- Node30&#45;&gt;Node10 -->
<g id="edge63" class="edge"><title>Node30&#45;&gt;Node10</title>
<path fill="none" stroke="midnightblue" d="M787.763,-642.845C766.049,-629.576 730.98,-603.389 748.213,-581 786.352,-531.452 824.158,-562.404 884.213,-545 887.35,-544.091 890.598,-543.123 893.852,-542.134"/>
<polygon fill="midnightblue" stroke="midnightblue" points="895,-545.442 903.521,-539.145 892.933,-538.754 895,-545.442"/>
</g>
<!-- Node31 -->
<g id="node31" class="node"><title>Node31</title>
<polygon fill="white" stroke="#bfbfbf" points="757.713,-581.5 757.713,-600.5 894.713,-600.5 894.713,-581.5 757.713,-581.5"/>
<text text-anchor="middle" x="826.213" y="-588.5" font-family="Helvetica,sans-Serif" font-size="10.00">../interface/IRpmSensor.h</text>
</g>
<!-- Node30&#45;&gt;Node31 -->
<g id="edge65" class="edge"><title>Node30&#45;&gt;Node31</title>
<path fill="none" stroke="midnightblue" d="M806.509,-642.975C809.822,-634.404 815.031,-620.927 819.262,-609.983"/>
<polygon fill="midnightblue" stroke="midnightblue" points="822.583,-611.098 822.924,-600.509 816.054,-608.575 822.583,-611.098"/>
</g>
<!-- Node32 -->
<g id="node32" class="node"><title>Node32</title>
<polygon fill="white" stroke="#bfbfbf" points="912.713,-581.5 912.713,-600.5 1067.71,-600.5 1067.71,-581.5 912.713,-581.5"/>
<text text-anchor="middle" x="990.213" y="-588.5" font-family="Helvetica,sans-Serif" font-size="10.00">../interface/IMotorController.h</text>
</g>
<!-- Node30&#45;&gt;Node32 -->
<g id="edge66" class="edge"><title>Node30&#45;&gt;Node32</title>
<path fill="none" stroke="midnightblue" d="M830.006,-642.975C862.499,-632.636 917.421,-615.161 953.751,-603.602"/>
<polygon fill="midnightblue" stroke="midnightblue" points="955.002,-606.876 963.47,-600.509 952.88,-600.206 955.002,-606.876"/>
</g>
<!-- Node33&#45;&gt;Node4 -->
<g id="edge68" class="edge"><title>Node33&#45;&gt;Node4</title>
<path fill="none" stroke="midnightblue" d="M1270.37,-380.393C1247.85,-341.342 1178.85,-231.261 1089.21,-179 1036.8,-148.442 968.536,-136.221 917.709,-131.411"/>
<polygon fill="midnightblue" stroke="midnightblue" points="917.73,-127.9 907.464,-130.519 917.122,-134.873 917.73,-127.9"/>
</g>
<!-- Node34&#45;&gt;Node4 -->
<g id="edge70" class="edge"><title>Node34&#45;&gt;Node4</title>
<path fill="none" stroke="midnightblue" d="M1186.37,-637.102C1190.7,-572.252 1199.08,-304.975 1056.21,-179 1035.6,-160.827 969.767,-146.911 917.242,-138.334"/>
<polygon fill="midnightblue" stroke="midnightblue" points="917.694,-134.862 907.267,-136.742 916.591,-141.774 917.694,-134.862"/>
</g>
</g>
</svg>
