<?xml version="1.0" encoding="UTF-8" standalone="no"?>
<!DOCTYPE svg PUBLIC "-//W3C//DTD SVG 1.1//EN"
 "http://www.w3.org/Graphics/SVG/1.1/DTD/svg11.dtd">
<!-- Generated by graphviz version 2.38.0 (20140413.2041)
 -->
<!-- Title: lib/carpi/src/runable/programs/PCockpitIndicator.h Pages: 1 -->
<svg width="714pt" height="531pt"
 viewBox="0.00 0.00 713.50 531.00" xmlns="http://www.w3.org/2000/svg" xmlns:xlink="http://www.w3.org/1999/xlink">
<g id="graph0" class="graph" transform="scale(1 1) rotate(0) translate(4 527)">
<title>lib/carpi/src/runable/programs/PCockpitIndicator.h</title>
<polygon fill="white" stroke="none" points="-4,4 -4,-527 709.5,-527 709.5,4 -4,4"/>
<!-- Node1 -->
<g id="node1" class="node"><title>Node1</title>
<polygon fill="#bfbfbf" stroke="black" points="475.5,-492.5 475.5,-522.5 635.5,-522.5 635.5,-492.5 475.5,-492.5"/>
<text text-anchor="start" x="483.5" y="-510.5" font-family="Helvetica,sans-Serif" font-size="10.00">lib/carpi/src/runable</text>
<text text-anchor="middle" x="555.5" y="-499.5" font-family="Helvetica,sans-Serif" font-size="10.00">/programs/PCockpitIndicator.h</text>
</g>
<!-- Node2 -->
<g id="node2" class="node"><title>Node2</title>
<g id="a_node2"><a xlink:href="_i_program_8h.html" target="_top" xlink:title="IProgram.h">
<polygon fill="white" stroke="black" points="521,-369.5 521,-388.5 590,-388.5 590,-369.5 521,-369.5"/>
<text text-anchor="middle" x="555.5" y="-376.5" font-family="Helvetica,sans-Serif" font-size="10.00">IProgram.h</text>
</a>
</g>
</g>
<!-- Node1&#45;&gt;Node2 -->
<g id="edge1" class="edge"><title>Node1&#45;&gt;Node2</title>
<path fill="none" stroke="midnightblue" d="M555.5,-492.479C555.5,-469.719 555.5,-424.702 555.5,-399.058"/>
<polygon fill="midnightblue" stroke="midnightblue" points="559,-398.789 555.5,-388.789 552,-398.789 559,-398.789"/>
</g>
<!-- Node9 -->
<g id="node9" class="node"><title>Node9</title>
<g id="a_node9"><a xlink:href="_i_hv_enabled_8h.html" target="_top" xlink:title="components/interface\l/IHvEnabled.h">
<polygon fill="white" stroke="black" points="583.5,-302.5 583.5,-332.5 705.5,-332.5 705.5,-302.5 583.5,-302.5"/>
<text text-anchor="start" x="591.5" y="-320.5" font-family="Helvetica,sans-Serif" font-size="10.00">components/interface</text>
<text text-anchor="middle" x="644.5" y="-309.5" font-family="Helvetica,sans-Serif" font-size="10.00">/IHvEnabled.h</text>
</a>
</g>
</g>
<!-- Node1&#45;&gt;Node9 -->
<g id="edge8" class="edge"><title>Node1&#45;&gt;Node9</title>
<path fill="none" stroke="midnightblue" d="M562.189,-492.369C577.432,-460.172 614.863,-381.104 633.536,-341.66"/>
<polygon fill="midnightblue" stroke="midnightblue" points="636.739,-343.074 637.854,-332.538 630.412,-340.079 636.739,-343.074"/>
</g>
<!-- Node10 -->
<g id="node10" class="node"><title>Node10</title>
<g id="a_node10"><a xlink:href="_i_led_8h.html" target="_top" xlink:title="components/interface\l/ILed.h">
<polygon fill="white" stroke="black" points="316.5,-425.5 316.5,-455.5 438.5,-455.5 438.5,-425.5 316.5,-425.5"/>
<text text-anchor="start" x="324.5" y="-443.5" font-family="Helvetica,sans-Serif" font-size="10.00">components/interface</text>
<text text-anchor="middle" x="377.5" y="-432.5" font-family="Helvetica,sans-Serif" font-size="10.00">/ILed.h</text>
</a>
</g>
</g>
<!-- Node1&#45;&gt;Node10 -->
<g id="edge10" class="edge"><title>Node1&#45;&gt;Node10</title>
<path fill="none" stroke="midnightblue" d="M516.877,-492.396C490.052,-482.601 454.125,-469.481 425.465,-459.015"/>
<polygon fill="midnightblue" stroke="midnightblue" points="426.642,-455.719 416.048,-455.577 424.241,-462.294 426.642,-455.719"/>
</g>
<!-- Node3 -->
<g id="node3" class="node"><title>Node3</title>
<g id="a_node3"><a xlink:href="_i_runable_8h.html" target="_top" xlink:title="../IRunable.h">
<polygon fill="white" stroke="black" points="507.5,-179.5 507.5,-198.5 581.5,-198.5 581.5,-179.5 507.5,-179.5"/>
<text text-anchor="middle" x="544.5" y="-186.5" font-family="Helvetica,sans-Serif" font-size="10.00">../IRunable.h</text>
</a>
</g>
</g>
<!-- Node2&#45;&gt;Node3 -->
<g id="edge2" class="edge"><title>Node2&#45;&gt;Node3</title>
<path fill="none" stroke="midnightblue" d="M554.999,-369.434C553.331,-340.928 547.942,-248.822 545.602,-208.826"/>
<polygon fill="midnightblue" stroke="midnightblue" points="549.082,-208.395 545.004,-198.617 542.094,-208.804 549.082,-208.395"/>
</g>
<!-- Node4 -->
<g id="node4" class="node"><title>Node4</title>
<g id="a_node4"><a xlink:href="_i_component_8h.html" target="_top" xlink:title="components/interface\l/IComponent.h">
<polygon fill="white" stroke="black" points="469.5,-112.5 469.5,-142.5 591.5,-142.5 591.5,-112.5 469.5,-112.5"/>
<text text-anchor="start" x="477.5" y="-130.5" font-family="Helvetica,sans-Serif" font-size="10.00">components/interface</text>
<text text-anchor="middle" x="530.5" y="-119.5" font-family="Helvetica,sans-Serif" font-size="10.00">/IComponent.h</text>
</a>
</g>
</g>
<!-- Node3&#45;&gt;Node4 -->
<g id="edge3" class="edge"><title>Node3&#45;&gt;Node4</title>
<path fill="none" stroke="midnightblue" d="M542.494,-179.475C540.828,-172.396 538.375,-161.97 536.121,-152.39"/>
<polygon fill="midnightblue" stroke="midnightblue" points="539.497,-151.455 533.8,-142.523 532.683,-153.059 539.497,-151.455"/>
</g>
<!-- Node5 -->
<g id="node5" class="node"><title>Node5</title>
<g id="a_node5"><a xlink:href="component_ids_8h.html" target="_top" xlink:title="communication/componentIds.h">
<polygon fill="white" stroke="black" points="279,-56.5 279,-75.5 450,-75.5 450,-56.5 279,-56.5"/>
<text text-anchor="middle" x="364.5" y="-63.5" font-family="Helvetica,sans-Serif" font-size="10.00">communication/componentIds.h</text>
</a>
</g>
</g>
<!-- Node4&#45;&gt;Node5 -->
<g id="edge4" class="edge"><title>Node4&#45;&gt;Node5</title>
<path fill="none" stroke="midnightblue" d="M491.16,-112.399C462.935,-102.283 425.294,-88.7905 398.395,-79.1493"/>
<polygon fill="midnightblue" stroke="midnightblue" points="399.249,-75.7372 388.654,-75.6578 396.887,-82.3267 399.249,-75.7372"/>
</g>
<!-- Node7 -->
<g id="node7" class="node"><title>Node7</title>
<g id="a_node7"><a xlink:href="_i_logable_8h.html" target="_top" xlink:title="ILogable.h">
<polygon fill="white" stroke="black" points="498,-56.5 498,-75.5 563,-75.5 563,-56.5 498,-56.5"/>
<text text-anchor="middle" x="530.5" y="-63.5" font-family="Helvetica,sans-Serif" font-size="10.00">ILogable.h</text>
</a>
</g>
</g>
<!-- Node4&#45;&gt;Node7 -->
<g id="edge6" class="edge"><title>Node4&#45;&gt;Node7</title>
<path fill="none" stroke="midnightblue" d="M530.5,-112.399C530.5,-104.466 530.5,-94.458 530.5,-85.8583"/>
<polygon fill="midnightblue" stroke="midnightblue" points="534,-85.6577 530.5,-75.6578 527,-85.6578 534,-85.6577"/>
</g>
<!-- Node6 -->
<g id="node6" class="node"><title>Node6</title>
<polygon fill="white" stroke="#bfbfbf" points="266,-0.5 266,-19.5 319,-19.5 319,-0.5 266,-0.5"/>
<text text-anchor="middle" x="292.5" y="-7.5" font-family="Helvetica,sans-Serif" font-size="10.00">stdint.h</text>
</g>
<!-- Node5&#45;&gt;Node6 -->
<g id="edge5" class="edge"><title>Node5&#45;&gt;Node6</title>
<path fill="none" stroke="midnightblue" d="M352.932,-56.324C342.08,-48.1849 325.619,-35.8395 312.617,-26.0874"/>
<polygon fill="midnightblue" stroke="midnightblue" points="314.379,-23.0339 304.279,-19.8339 310.179,-28.6339 314.379,-23.0339"/>
</g>
<!-- Node8 -->
<g id="node8" class="node"><title>Node8</title>
<polygon fill="white" stroke="#bfbfbf" points="508.5,-0.5 508.5,-19.5 552.5,-19.5 552.5,-0.5 508.5,-0.5"/>
<text text-anchor="middle" x="530.5" y="-7.5" font-family="Helvetica,sans-Serif" font-size="10.00">string</text>
</g>
<!-- Node7&#45;&gt;Node8 -->
<g id="edge7" class="edge"><title>Node7&#45;&gt;Node8</title>
<path fill="none" stroke="midnightblue" d="M530.5,-56.083C530.5,-49.0059 530.5,-38.8611 530.5,-29.9865"/>
<polygon fill="midnightblue" stroke="midnightblue" points="534,-29.751 530.5,-19.7511 527,-29.7511 534,-29.751"/>
</g>
<!-- Node9&#45;&gt;Node4 -->
<g id="edge9" class="edge"><title>Node9&#45;&gt;Node4</title>
<path fill="none" stroke="midnightblue" d="M641.349,-302.104C635.067,-275.746 619.069,-218.791 590.5,-179 582.355,-167.655 571.103,-157.294 560.543,-148.949"/>
<polygon fill="midnightblue" stroke="midnightblue" points="562.381,-145.951 552.295,-142.709 558.158,-151.534 562.381,-145.951"/>
</g>
<!-- Node11 -->
<g id="node11" class="node"><title>Node11</title>
<g id="a_node11"><a xlink:href="_self_syncable_8h.html" target="_top" xlink:title="communication/SelfSyncable.h">
<polygon fill="white" stroke="black" points="206.5,-369.5 206.5,-388.5 370.5,-388.5 370.5,-369.5 206.5,-369.5"/>
<text text-anchor="middle" x="288.5" y="-376.5" font-family="Helvetica,sans-Serif" font-size="10.00">communication/SelfSyncable.h</text>
</a>
</g>
</g>
<!-- Node10&#45;&gt;Node11 -->
<g id="edge11" class="edge"><title>Node10&#45;&gt;Node11</title>
<path fill="none" stroke="midnightblue" d="M356.408,-425.399C342.409,-416.04 324.089,-403.792 310.005,-394.377"/>
<polygon fill="midnightblue" stroke="midnightblue" points="311.709,-391.306 301.45,-388.658 307.818,-397.125 311.709,-391.306"/>
</g>
<!-- Node12 -->
<g id="node12" class="node"><title>Node12</title>
<g id="a_node12"><a xlink:href="_sync_8h.html" target="_top" xlink:title="Sync.h">
<polygon fill="white" stroke="black" points="264,-308 264,-327 313,-327 313,-308 264,-308"/>
<text text-anchor="middle" x="288.5" y="-315" font-family="Helvetica,sans-Serif" font-size="10.00">Sync.h</text>
</a>
</g>
</g>
<!-- Node11&#45;&gt;Node12 -->
<g id="edge12" class="edge"><title>Node11&#45;&gt;Node12</title>
<path fill="none" stroke="midnightblue" d="M288.5,-369.475C288.5,-361.08 288.5,-347.981 288.5,-337.163"/>
<polygon fill="midnightblue" stroke="midnightblue" points="292,-337.009 288.5,-327.009 285,-337.009 292,-337.009"/>
</g>
<!-- Node18 -->
<g id="node18" class="node"><title>Node18</title>
<g id="a_node18"><a xlink:href="_i_communication_8h.html" target="_top" xlink:title="components/interface\l/ICommunication.h">
<polygon fill="white" stroke="black" points="70.5,-235.5 70.5,-265.5 192.5,-265.5 192.5,-235.5 70.5,-235.5"/>
<text text-anchor="start" x="78.5" y="-253.5" font-family="Helvetica,sans-Serif" font-size="10.00">components/interface</text>
<text text-anchor="middle" x="131.5" y="-242.5" font-family="Helvetica,sans-Serif" font-size="10.00">/ICommunication.h</text>
</a>
</g>
</g>
<!-- Node11&#45;&gt;Node18 -->
<g id="edge31" class="edge"><title>Node11&#45;&gt;Node18</title>
<path fill="none" stroke="midnightblue" d="M277.709,-369.305C253.016,-349.409 191.847,-300.124 156.954,-272.01"/>
<polygon fill="midnightblue" stroke="midnightblue" points="159.084,-269.231 149.101,-265.682 154.692,-274.682 159.084,-269.231"/>
</g>
<!-- Node12&#45;&gt;Node3 -->
<g id="edge29" class="edge"><title>Node12&#45;&gt;Node3</title>
<path fill="none" stroke="midnightblue" d="M313.24,-316.022C354.29,-314.085 437.494,-305.198 493.5,-266 514.199,-251.513 528.86,-225.704 536.998,-208.226"/>
<polygon fill="midnightblue" stroke="midnightblue" points="540.41,-209.159 541.218,-198.595 533.999,-206.349 540.41,-209.159"/>
</g>
<!-- Node12&#45;&gt;Node4 -->
<g id="edge22" class="edge"><title>Node12&#45;&gt;Node4</title>
<path fill="none" stroke="midnightblue" d="M313.211,-315.08C348.599,-311.829 414.01,-301.138 455.5,-266 488.414,-238.125 477.372,-216.602 498.5,-179 503.653,-169.83 509.741,-160.006 515.216,-151.483"/>
<polygon fill="midnightblue" stroke="midnightblue" points="518.321,-153.128 520.843,-142.838 512.455,-149.309 518.321,-153.128"/>
</g>
<!-- Node12&#45;&gt;Node5 -->
<g id="edge14" class="edge"><title>Node12&#45;&gt;Node5</title>
<path fill="none" stroke="midnightblue" d="M313.183,-315.163C344.422,-311.991 397.094,-301.373 421.5,-266 461.952,-207.371 405.598,-120.239 378.09,-83.8847"/>
<polygon fill="midnightblue" stroke="midnightblue" points="380.694,-81.5323 371.794,-75.7842 375.167,-85.8278 380.694,-81.5323"/>
</g>
<!-- Node13 -->
<g id="node13" class="node"><title>Node13</title>
<polygon fill="white" stroke="#bfbfbf" points="0,-118 0,-137 47,-137 47,-118 0,-118"/>
<text text-anchor="middle" x="23.5" y="-125" font-family="Helvetica,sans-Serif" font-size="10.00">vector</text>
</g>
<!-- Node12&#45;&gt;Node13 -->
<g id="edge13" class="edge"><title>Node12&#45;&gt;Node13</title>
<path fill="none" stroke="midnightblue" d="M263.747,-314.723C208.624,-310.243 78.2648,-296.596 48.5,-266 17.2838,-233.912 18.0783,-176.653 20.9566,-147.174"/>
<polygon fill="midnightblue" stroke="midnightblue" points="24.4579,-147.366 22.143,-137.027 17.5053,-146.553 24.4579,-147.366"/>
</g>
<!-- Node14 -->
<g id="node14" class="node"><title>Node14</title>
<g id="a_node14"><a xlink:href="device_ids_8h.html" target="_top" xlink:title="deviceIds.h">
<polygon fill="white" stroke="black" points="103.5,-118 103.5,-137 173.5,-137 173.5,-118 103.5,-118"/>
<text text-anchor="middle" x="138.5" y="-125" font-family="Helvetica,sans-Serif" font-size="10.00">deviceIds.h</text>
</a>
</g>
</g>
<!-- Node12&#45;&gt;Node14 -->
<g id="edge15" class="edge"><title>Node12&#45;&gt;Node14</title>
<path fill="none" stroke="midnightblue" d="M263.891,-314.797C210.479,-310.536 86.6958,-297.417 61.5,-266 29.131,-225.639 86.5972,-169.879 118.842,-143.493"/>
<polygon fill="midnightblue" stroke="midnightblue" points="121.158,-146.123 126.8,-137.155 116.797,-140.647 121.158,-146.123"/>
</g>
<!-- Node15 -->
<g id="node15" class="node"><title>Node15</title>
<g id="a_node15"><a xlink:href="_car_message_8h.html" target="_top" xlink:title="CarMessage.h">
<polygon fill="white" stroke="black" points="178,-179.5 178,-198.5 263,-198.5 263,-179.5 178,-179.5"/>
<text text-anchor="middle" x="220.5" y="-186.5" font-family="Helvetica,sans-Serif" font-size="10.00">CarMessage.h</text>
</a>
</g>
</g>
<!-- Node12&#45;&gt;Node15 -->
<g id="edge16" class="edge"><title>Node12&#45;&gt;Node15</title>
<path fill="none" stroke="midnightblue" d="M277.005,-307.727C265.767,-298.537 249.002,-283.081 239.5,-266 229.498,-248.02 224.682,-224.75 222.416,-208.721"/>
<polygon fill="midnightblue" stroke="midnightblue" points="225.856,-208.015 221.179,-198.509 218.907,-208.857 225.856,-208.015"/>
</g>
<!-- Node17 -->
<g id="node17" class="node"><title>Node17</title>
<g id="a_node17"><a xlink:href="_i_channel_8h.html" target="_top" xlink:title="IChannel.h">
<polygon fill="white" stroke="black" points="346,-241 346,-260 413,-260 413,-241 346,-241"/>
<text text-anchor="middle" x="379.5" y="-248" font-family="Helvetica,sans-Serif" font-size="10.00">IChannel.h</text>
</a>
</g>
</g>
<!-- Node12&#45;&gt;Node17 -->
<g id="edge23" class="edge"><title>Node12&#45;&gt;Node17</title>
<path fill="none" stroke="midnightblue" d="M300.773,-307.734C315.645,-297.111 340.932,-279.049 358.83,-266.264"/>
<polygon fill="midnightblue" stroke="midnightblue" points="361.319,-268.788 367.422,-260.127 357.25,-263.092 361.319,-268.788"/>
</g>
<!-- Node12&#45;&gt;Node18 -->
<g id="edge26" class="edge"><title>Node12&#45;&gt;Node18</title>
<path fill="none" stroke="midnightblue" d="M267.652,-307.869C244.093,-298.115 205.096,-281.97 174.861,-269.452"/>
<polygon fill="midnightblue" stroke="midnightblue" points="175.961,-266.12 165.383,-265.528 173.284,-272.587 175.961,-266.12"/>
</g>
<!-- Node19 -->
<g id="node19" class="node"><title>Node19</title>
<g id="a_node19"><a xlink:href="_hard_config_8h.html" target="_top" xlink:title="HardConfig.h">
<polygon fill="white" stroke="black" points="249,-241 249,-260 328,-260 328,-241 249,-241"/>
<text text-anchor="middle" x="288.5" y="-248" font-family="Helvetica,sans-Serif" font-size="10.00">HardConfig.h</text>
</a>
</g>
</g>
<!-- Node12&#45;&gt;Node19 -->
<g id="edge30" class="edge"><title>Node12&#45;&gt;Node19</title>
<path fill="none" stroke="midnightblue" d="M288.5,-307.734C288.5,-298.183 288.5,-282.618 288.5,-270.283"/>
<polygon fill="midnightblue" stroke="midnightblue" points="292,-270.127 288.5,-260.127 285,-270.127 292,-270.127"/>
</g>
<!-- Node15&#45;&gt;Node5 -->
<g id="edge21" class="edge"><title>Node15&#45;&gt;Node5</title>
<path fill="none" stroke="midnightblue" d="M225.143,-179.487C233.768,-164.302 253.579,-132.243 277.5,-112 293.71,-98.2824 314.806,-87.2401 332.165,-79.5271"/>
<polygon fill="midnightblue" stroke="midnightblue" points="333.553,-82.7404 341.37,-75.5888 330.799,-76.3047 333.553,-82.7404"/>
</g>
<!-- Node15&#45;&gt;Node6 -->
<g id="edge19" class="edge"><title>Node15&#45;&gt;Node6</title>
<path fill="none" stroke="midnightblue" d="M223.037,-179.481C227.308,-165.336 236.366,-136.167 245.5,-112 255.073,-86.6704 257.998,-80.5142 269.5,-56 273.792,-46.8519 278.878,-36.827 283.174,-28.5659"/>
<polygon fill="midnightblue" stroke="midnightblue" points="286.363,-30.0216 287.916,-19.5413 280.166,-26.7652 286.363,-30.0216"/>
</g>
<!-- Node15&#45;&gt;Node13 -->
<g id="edge18" class="edge"><title>Node15&#45;&gt;Node13</title>
<path fill="none" stroke="midnightblue" d="M192.275,-179.475C156.432,-168.65 94.6854,-150 56.6427,-138.51"/>
<polygon fill="midnightblue" stroke="midnightblue" points="57.6322,-135.153 47.0473,-135.612 55.6082,-141.854 57.6322,-135.153"/>
</g>
<!-- Node15&#45;&gt;Node14 -->
<g id="edge20" class="edge"><title>Node15&#45;&gt;Node14</title>
<path fill="none" stroke="midnightblue" d="M208.751,-179.475C195.721,-170.02 174.464,-154.596 158.741,-143.187"/>
<polygon fill="midnightblue" stroke="midnightblue" points="160.376,-140.049 150.227,-137.009 156.265,-145.715 160.376,-140.049"/>
</g>
<!-- Node16 -->
<g id="node16" class="node"><title>Node16</title>
<polygon fill="white" stroke="#bfbfbf" points="287,-118 287,-137 344,-137 344,-118 287,-118"/>
<text text-anchor="middle" x="315.5" y="-125" font-family="Helvetica,sans-Serif" font-size="10.00">memory</text>
</g>
<!-- Node15&#45;&gt;Node16 -->
<g id="edge17" class="edge"><title>Node15&#45;&gt;Node16</title>
<path fill="none" stroke="midnightblue" d="M234.111,-179.475C249.561,-169.799 274.99,-153.872 293.316,-142.394"/>
<polygon fill="midnightblue" stroke="midnightblue" points="295.297,-145.283 301.914,-137.009 291.581,-139.351 295.297,-145.283"/>
</g>
<!-- Node17&#45;&gt;Node3 -->
<g id="edge25" class="edge"><title>Node17&#45;&gt;Node3</title>
<path fill="none" stroke="midnightblue" d="M403.14,-240.975C431.444,-230.769 479.033,-213.608 511.086,-202.049"/>
<polygon fill="midnightblue" stroke="midnightblue" points="512.684,-205.194 520.903,-198.509 510.309,-198.609 512.684,-205.194"/>
</g>
<!-- Node17&#45;&gt;Node15 -->
<g id="edge24" class="edge"><title>Node17&#45;&gt;Node15</title>
<path fill="none" stroke="midnightblue" d="M356.719,-240.975C329.445,-230.769 283.587,-213.608 252.699,-202.049"/>
<polygon fill="midnightblue" stroke="midnightblue" points="253.831,-198.736 243.239,-198.509 251.378,-205.292 253.831,-198.736"/>
</g>
<!-- Node18&#45;&gt;Node4 -->
<g id="edge27" class="edge"><title>Node18&#45;&gt;Node4</title>
<path fill="none" stroke="midnightblue" d="M178.051,-235.383C251.781,-213.024 395.165,-169.541 474.436,-145.502"/>
<polygon fill="midnightblue" stroke="midnightblue" points="475.691,-148.779 484.245,-142.527 473.66,-142.08 475.691,-148.779"/>
</g>
<!-- Node18&#45;&gt;Node15 -->
<g id="edge28" class="edge"><title>Node18&#45;&gt;Node15</title>
<path fill="none" stroke="midnightblue" d="M152.592,-235.399C166.591,-226.04 184.911,-213.792 198.995,-204.377"/>
<polygon fill="midnightblue" stroke="midnightblue" points="201.182,-207.125 207.55,-198.658 197.291,-201.306 201.182,-207.125"/>
</g>
</g>
</svg>
