<?xml version="1.0" encoding="UTF-8" standalone="no"?>
<!DOCTYPE svg PUBLIC "-//W3C//DTD SVG 1.1//EN"
 "http://www.w3.org/Graphics/SVG/1.1/DTD/svg11.dtd">
<!-- Generated by graphviz version 2.38.0 (20140413.2041)
 -->
<!-- Title: lib/carpi/src/runable/programs/PLogger.h Pages: 1 -->
<!--zoomable 676 -->
<svg id="main" version="1.1" xmlns="http://www.w3.org/2000/svg" xmlns:xlink="http://www.w3.org/1999/xlink" xml:space="preserve" onload="init(evt)">
<style type="text/css"><![CDATA[
.edge:hover path { stroke: red; }
.edge:hover polygon { stroke: red; fill: red; }
]]></style>
<script type="text/javascript"><![CDATA[
var edges = document.getElementsByTagName('g');
if (edges && edges.length) {
  for (var i=0;i<edges.length;i++) {
    if (edges[i].id.substr(0,4)=='edge') {
      edges[i].setAttribute('class','edge');
    }
  }
}
]]></script>
        <defs>
                <circle id="rim" cx="0" cy="0" r="7"/>
                <circle id="rim2" cx="0" cy="0" r="3.5"/>
                <g id="zoomPlus">
                        <use xlink:href="#rim" fill="#404040">
                                <set attributeName="fill" to="#808080" begin="zoomplus.mouseover" end="zoomplus.mouseout"/>
                        </use>
                        <path d="M-4,0h8M0,-4v8" fill="none" stroke="white" stroke-width="1.5" pointer-events="none"/>
                </g>
                <g id="zoomMin">
                        <use xlink:href="#rim" fill="#404040">
                                <set attributeName="fill" to="#808080" begin="zoomminus.mouseover" end="zoomminus.mouseout"/>
                        </use>
                        <path d="M-4,0h8" fill="none" stroke="white" stroke-width="1.5" pointer-events="none"/>
                </g>
                <g id="dirArrow">
                        <path fill="none" stroke="white" stroke-width="1.5" d="M0,-3.0v7 M-2.5,-0.5L0,-3.0L2.5,-0.5"/>
                </g>
               <g id="resetDef">
                       <use xlink:href="#rim2" fill="#404040">
                               <set attributeName="fill" to="#808080" begin="reset.mouseover" end="reset.mouseout"/>
                       </use>
               </g>
        </defs>

<script type="text/javascript">
var viewWidth = 1226;
var viewHeight = 676;
var sectionId = 'dynsection-0';
</script>
<script xlink:href="svgpan.js"/>
<svg id="graph" class="graph">
<g id="viewport">
<title>lib/carpi/src/runable/programs/PLogger.h</title>
<polygon fill="white" stroke="none" points="-4,4 -4,-672 1222,-672 1222,4 -4,4"/>
<!-- Node1 -->
<g id="node1" class="node"><title>Node1</title>
<polygon fill="#bfbfbf" stroke="black" points="196,-637.5 196,-667.5 312,-667.5 312,-637.5 196,-637.5"/>
<text text-anchor="start" x="204" y="-655.5" font-family="Helvetica,sans-Serif" font-size="10.00">lib/carpi/src/runable</text>
<text text-anchor="middle" x="254" y="-644.5" font-family="Helvetica,sans-Serif" font-size="10.00">/programs/PLogger.h</text>
</g>
<!-- Node2 -->
<g id="node2" class="node"><title>Node2</title>
<polygon fill="white" stroke="#bfbfbf" points="86,-0.5 86,-19.5 130,-19.5 130,-0.5 86,-0.5"/>
<text text-anchor="middle" x="108" y="-7.5" font-family="Helvetica,sans-Serif" font-size="10.00">string</text>
</g>
<!-- Node1&#45;&gt;Node2 -->
<g id="edge1" class="edge"><title>Node1&#45;&gt;Node2</title>
<path fill="none" stroke="midnightblue" d="M195.727,-648.683C120.738,-641.562 0,-616.712 0,-530.5 0,-530.5 0,-530.5 0,-126.5 0,-79.0262 49.2814,-42.9864 81.2644,-24.5959"/>
<polygon fill="midnightblue" stroke="midnightblue" points="83.1098,-27.5749 90.166,-19.6717 79.7214,-21.4496 83.1098,-27.5749"/>
</g>
<!-- Node3 -->
<g id="node3" class="node"><title>Node3</title>
<polygon fill="white" stroke="#bfbfbf" points="1113.5,-118 1113.5,-137 1160.5,-137 1160.5,-118 1113.5,-118"/>
<text text-anchor="middle" x="1137" y="-125" font-family="Helvetica,sans-Serif" font-size="10.00">vector</text>
</g>
<!-- Node1&#45;&gt;Node3 -->
<g id="edge2" class="edge"><title>Node1&#45;&gt;Node3</title>
<path fill="none" stroke="midnightblue" d="M312.103,-650.352C471.989,-646.796 916.014,-634.139 1058,-601 1133.67,-583.338 1218,-608.208 1218,-530.5 1218,-530.5 1218,-530.5 1218,-260.5 1218,-212.428 1178.49,-167.119 1154.66,-144.161"/>
<polygon fill="midnightblue" stroke="midnightblue" points="1156.96,-141.52 1147.26,-137.26 1152.19,-146.639 1156.96,-141.52"/>
</g>
<!-- Node4 -->
<g id="node4" class="node"><title>Node4</title>
<g id="a_node4"><a xlink:href="_i_program_8h.html" target="_top" xlink:title="IProgram.h">
<polygon fill="white" stroke="black" points="510.5,-453 510.5,-472 579.5,-472 579.5,-453 510.5,-453"/>
<text text-anchor="middle" x="545" y="-460" font-family="Helvetica,sans-Serif" font-size="10.00">IProgram.h</text>
</a>
</g>
</g>
<!-- Node1&#45;&gt;Node4 -->
<g id="edge3" class="edge"><title>Node1&#45;&gt;Node4</title>
<path fill="none" stroke="midnightblue" d="M268.499,-637.459C296.729,-610.688 361.855,-551.661 425,-514 451.787,-498.024 484.561,-484.598 509.086,-475.615"/>
<polygon fill="midnightblue" stroke="midnightblue" points="510.485,-478.832 518.716,-472.16 508.121,-472.243 510.485,-478.832"/>
</g>
<!-- Node6 -->
<g id="node6" class="node"><title>Node6</title>
<g id="a_node6"><a xlink:href="_i_component_8h.html" target="_top" xlink:title="components/interface\l/IComponent.h">
<polygon fill="white" stroke="black" points="349,-112.5 349,-142.5 471,-142.5 471,-112.5 349,-112.5"/>
<text text-anchor="start" x="357" y="-130.5" font-family="Helvetica,sans-Serif" font-size="10.00">components/interface</text>
<text text-anchor="middle" x="410" y="-119.5" font-family="Helvetica,sans-Serif" font-size="10.00">/IComponent.h</text>
</a>
</g>
</g>
<!-- Node1&#45;&gt;Node6 -->
<g id="edge63" class="edge"><title>Node1&#45;&gt;Node6</title>
<path fill="none" stroke="midnightblue" d="M237.509,-637.297C215.157,-616.37 178,-574.904 178,-530.5 178,-530.5 178,-530.5 178,-394.5 178,-362.685 330.679,-207.434 388.321,-149.956"/>
<polygon fill="midnightblue" stroke="midnightblue" points="390.867,-152.359 395.487,-142.825 385.93,-147.397 390.867,-152.359"/>
</g>
<!-- Node10 -->
<g id="node10" class="node"><title>Node10</title>
<g id="a_node10"><a xlink:href="_s_car_8h.html" target="_top" xlink:title="../services/SCar.h">
<polygon fill="white" stroke="black" points="457.5,-581.5 457.5,-600.5 556.5,-600.5 556.5,-581.5 457.5,-581.5"/>
<text text-anchor="middle" x="507" y="-588.5" font-family="Helvetica,sans-Serif" font-size="10.00">../services/SCar.h</text>
</a>
</g>
</g>
<!-- Node1&#45;&gt;Node10 -->
<g id="edge10" class="edge"><title>Node1&#45;&gt;Node10</title>
<path fill="none" stroke="midnightblue" d="M312.043,-637.849C357.193,-627.231 418.992,-612.698 460.816,-602.862"/>
<polygon fill="midnightblue" stroke="midnightblue" points="461.8,-606.226 470.733,-600.529 460.198,-599.411 461.8,-606.226"/>
</g>
<!-- Node22 -->
<g id="node22" class="node"><title>Node22</title>
<g id="a_node22"><a xlink:href="_hard_config_8h.html" target="_top" xlink:title="HardConfig.h">
<polygon fill="white" stroke="black" points="1102.5,-252 1102.5,-271 1181.5,-271 1181.5,-252 1102.5,-252"/>
<text text-anchor="middle" x="1142" y="-259" font-family="Helvetica,sans-Serif" font-size="10.00">HardConfig.h</text>
</a>
</g>
</g>
<!-- Node1&#45;&gt;Node22 -->
<g id="edge65" class="edge"><title>Node1&#45;&gt;Node22</title>
<path fill="none" stroke="midnightblue" d="M312.276,-650.045C515.416,-644.21 1180,-618.405 1180,-530.5 1180,-530.5 1180,-530.5 1180,-394.5 1180,-352.35 1161.89,-305.48 1150.67,-280.5"/>
<polygon fill="midnightblue" stroke="midnightblue" points="1153.74,-278.809 1146.36,-271.212 1147.39,-281.756 1153.74,-278.809"/>
</g>
<!-- Node28 -->
<g id="node28" class="node"><title>Node28</title>
<g id="a_node28"><a xlink:href="_i_s_d_card_8h.html" target="_top" xlink:title="components/interface\l/ISDCard.h">
<polygon fill="white" stroke="black" points="28,-380.5 28,-410.5 150,-410.5 150,-380.5 28,-380.5"/>
<text text-anchor="start" x="36" y="-398.5" font-family="Helvetica,sans-Serif" font-size="10.00">components/interface</text>
<text text-anchor="middle" x="89" y="-387.5" font-family="Helvetica,sans-Serif" font-size="10.00">/ISDCard.h</text>
</a>
</g>
</g>
<!-- Node1&#45;&gt;Node28 -->
<g id="edge64" class="edge"><title>Node1&#45;&gt;Node28</title>
<path fill="none" stroke="midnightblue" d="M216.922,-637.454C199.004,-629.123 178.333,-617.025 164,-601 116.558,-547.958 98.3376,-462.394 92.0133,-420.783"/>
<polygon fill="midnightblue" stroke="midnightblue" points="95.458,-420.146 90.5904,-410.735 88.5272,-421.127 95.458,-420.146"/>
</g>
<!-- Node5 -->
<g id="node5" class="node"><title>Node5</title>
<g id="a_node5"><a xlink:href="_i_runable_8h.html" target="_top" xlink:title="../IRunable.h">
<polygon fill="white" stroke="black" points="468,-185 468,-204 542,-204 542,-185 468,-185"/>
<text text-anchor="middle" x="505" y="-192" font-family="Helvetica,sans-Serif" font-size="10.00">../IRunable.h</text>
</a>
</g>
</g>
<!-- Node4&#45;&gt;Node5 -->
<g id="edge4" class="edge"><title>Node4&#45;&gt;Node5</title>
<path fill="none" stroke="midnightblue" d="M543.75,-452.873C539.522,-423.747 525.334,-326.38 513,-246 511.374,-235.405 509.502,-223.57 507.978,-214.021"/>
<polygon fill="midnightblue" stroke="midnightblue" points="511.422,-213.394 506.384,-204.074 504.511,-214.502 511.422,-213.394"/>
</g>
<!-- Node5&#45;&gt;Node6 -->
<g id="edge5" class="edge"><title>Node5&#45;&gt;Node6</title>
<path fill="none" stroke="midnightblue" d="M492.188,-184.734C478.608,-175.443 456.712,-160.461 438.934,-148.297"/>
<polygon fill="midnightblue" stroke="midnightblue" points="440.821,-145.347 430.592,-142.589 436.868,-151.124 440.821,-145.347"/>
</g>
<!-- Node7 -->
<g id="node7" class="node"><title>Node7</title>
<g id="a_node7"><a xlink:href="component_ids_8h.html" target="_top" xlink:title="communication/componentIds.h">
<polygon fill="white" stroke="black" points="759.5,-56.5 759.5,-75.5 930.5,-75.5 930.5,-56.5 759.5,-56.5"/>
<text text-anchor="middle" x="845" y="-63.5" font-family="Helvetica,sans-Serif" font-size="10.00">communication/componentIds.h</text>
</a>
</g>
</g>
<!-- Node6&#45;&gt;Node7 -->
<g id="edge6" class="edge"><title>Node6&#45;&gt;Node7</title>
<path fill="none" stroke="midnightblue" d="M471.402,-118.101C550.731,-107.251 688.616,-88.3905 772.855,-76.8681"/>
<polygon fill="midnightblue" stroke="midnightblue" points="773.421,-80.3233 782.855,-75.5003 772.473,-73.3879 773.421,-80.3233"/>
</g>
<!-- Node9 -->
<g id="node9" class="node"><title>Node9</title>
<g id="a_node9"><a xlink:href="_i_logable_8h.html" target="_top" xlink:title="ILogable.h">
<polygon fill="white" stroke="black" points="221.5,-56.5 221.5,-75.5 286.5,-75.5 286.5,-56.5 221.5,-56.5"/>
<text text-anchor="middle" x="254" y="-63.5" font-family="Helvetica,sans-Serif" font-size="10.00">ILogable.h</text>
</a>
</g>
</g>
<!-- Node6&#45;&gt;Node9 -->
<g id="edge8" class="edge"><title>Node6&#45;&gt;Node9</title>
<path fill="none" stroke="midnightblue" d="M373.03,-112.399C346.622,-102.327 311.443,-88.9093 286.188,-79.2769"/>
<polygon fill="midnightblue" stroke="midnightblue" points="287.29,-75.9513 276.699,-75.6578 284.796,-82.4917 287.29,-75.9513"/>
</g>
<!-- Node8 -->
<g id="node8" class="node"><title>Node8</title>
<polygon fill="white" stroke="#bfbfbf" points="894.5,-0.5 894.5,-19.5 947.5,-19.5 947.5,-0.5 894.5,-0.5"/>
<text text-anchor="middle" x="921" y="-7.5" font-family="Helvetica,sans-Serif" font-size="10.00">stdint.h</text>
</g>
<!-- Node7&#45;&gt;Node8 -->
<g id="edge7" class="edge"><title>Node7&#45;&gt;Node8</title>
<path fill="none" stroke="midnightblue" d="M857.211,-56.324C868.776,-48.1066 886.375,-35.6017 900.161,-25.8069"/>
<polygon fill="midnightblue" stroke="midnightblue" points="902.443,-28.4791 908.567,-19.8339 898.388,-22.7729 902.443,-28.4791"/>
</g>
<!-- Node9&#45;&gt;Node2 -->
<g id="edge9" class="edge"><title>Node9&#45;&gt;Node2</title>
<path fill="none" stroke="midnightblue" d="M230.866,-56.4435C206.231,-47.3322 167.084,-32.8531 139.614,-22.6929"/>
<polygon fill="midnightblue" stroke="midnightblue" points="140.663,-19.3493 130.07,-19.1629 138.235,-25.9146 140.663,-19.3493"/>
</g>
<!-- Node10&#45;&gt;Node2 -->
<g id="edge11" class="edge"><title>Node10&#45;&gt;Node2</title>
<path fill="none" stroke="midnightblue" d="M457.306,-589.924C374.193,-586.897 216,-567.478 216,-463.5 216,-463.5 216,-463.5 216,-394.5 216,-319.305 138.098,-95.2116 114.619,-29.3793"/>
<polygon fill="midnightblue" stroke="midnightblue" points="117.784,-27.8359 111.116,-19.6023 111.194,-30.1969 117.784,-27.8359"/>
</g>
<!-- Node10&#45;&gt;Node7 -->
<g id="edge45" class="edge"><title>Node10&#45;&gt;Node7</title>
<path fill="none" stroke="midnightblue" d="M534.967,-581.359C553.016,-574.366 575.555,-562.725 589,-545 611.478,-515.368 608,-500.694 608,-463.5 608,-463.5 608,-463.5 608,-193.5 608,-122.374 692.102,-91.0977 760.107,-77.4341"/>
<polygon fill="midnightblue" stroke="midnightblue" points="760.845,-80.8564 770.012,-75.5433 759.533,-73.9806 760.845,-80.8564"/>
</g>
<!-- Node11 -->
<g id="node11" class="node"><title>Node11</title>
<g id="a_node11"><a xlink:href="_i_service_8h.html" target="_top" xlink:title="IService.h">
<polygon fill="white" stroke="black" points="452.5,-386 452.5,-405 515.5,-405 515.5,-386 452.5,-386"/>
<text text-anchor="middle" x="484" y="-393" font-family="Helvetica,sans-Serif" font-size="10.00">IService.h</text>
</a>
</g>
</g>
<!-- Node10&#45;&gt;Node11 -->
<g id="edge12" class="edge"><title>Node10&#45;&gt;Node11</title>
<path fill="none" stroke="midnightblue" d="M475.191,-581.385C457.054,-574.661 435.836,-563.306 425,-545 417.982,-533.144 419.556,-526.657 425,-514 434.192,-492.629 451.193,-498.046 463,-478 474.558,-458.378 479.826,-432.439 482.18,-415.148"/>
<polygon fill="midnightblue" stroke="midnightblue" points="485.659,-415.527 483.342,-405.188 478.706,-414.715 485.659,-415.527"/>
</g>
<!-- Node12 -->
<g id="node12" class="node"><title>Node12</title>
<g id="a_node12"><a xlink:href="_p_cockpit_indicator_8h.html" target="_top" xlink:title="runable/programs/PCockpit\lIndicator.h">
<polygon fill="white" stroke="black" points="434,-514.5 434,-544.5 580,-544.5 580,-514.5 434,-514.5"/>
<text text-anchor="start" x="442" y="-532.5" font-family="Helvetica,sans-Serif" font-size="10.00">runable/programs/PCockpit</text>
<text text-anchor="middle" x="507" y="-521.5" font-family="Helvetica,sans-Serif" font-size="10.00">Indicator.h</text>
</a>
</g>
</g>
<!-- Node10&#45;&gt;Node12 -->
<g id="edge14" class="edge"><title>Node10&#45;&gt;Node12</title>
<path fill="none" stroke="midnightblue" d="M507,-581.475C507,-574.471 507,-564.192 507,-554.696"/>
<polygon fill="midnightblue" stroke="midnightblue" points="510.5,-554.523 507,-544.523 503.5,-554.523 510.5,-554.523"/>
</g>
<!-- Node13 -->
<g id="node13" class="node"><title>Node13</title>
<g id="a_node13"><a xlink:href="_i_hv_enabled_8h.html" target="_top" xlink:title="components/interface\l/IHvEnabled.h">
<polygon fill="white" stroke="black" points="332,-447.5 332,-477.5 454,-477.5 454,-447.5 332,-447.5"/>
<text text-anchor="start" x="340" y="-465.5" font-family="Helvetica,sans-Serif" font-size="10.00">components/interface</text>
<text text-anchor="middle" x="393" y="-454.5" font-family="Helvetica,sans-Serif" font-size="10.00">/IHvEnabled.h</text>
</a>
</g>
</g>
<!-- Node10&#45;&gt;Node13 -->
<g id="edge55" class="edge"><title>Node10&#45;&gt;Node13</title>
<path fill="none" stroke="midnightblue" d="M457.284,-583.604C433.335,-577.744 406.685,-566.515 392,-545 380.638,-528.353 382.229,-505 385.876,-487.557"/>
<polygon fill="midnightblue" stroke="midnightblue" points="389.342,-488.118 388.316,-477.573 382.542,-486.456 389.342,-488.118"/>
</g>
<!-- Node14 -->
<g id="node14" class="node"><title>Node14</title>
<g id="a_node14"><a xlink:href="_i_led_8h.html" target="_top" xlink:title="components/interface\l/ILed.h">
<polygon fill="white" stroke="black" points="674,-447.5 674,-477.5 796,-477.5 796,-447.5 674,-447.5"/>
<text text-anchor="start" x="682" y="-465.5" font-family="Helvetica,sans-Serif" font-size="10.00">components/interface</text>
<text text-anchor="middle" x="735" y="-454.5" font-family="Helvetica,sans-Serif" font-size="10.00">/ILed.h</text>
</a>
</g>
</g>
<!-- Node10&#45;&gt;Node14 -->
<g id="edge49" class="edge"><title>Node10&#45;&gt;Node14</title>
<path fill="none" stroke="midnightblue" d="M556.612,-588.703C667.856,-585.284 929.588,-574.192 956,-545 965.244,-534.783 964.589,-524.773 956,-514 953.576,-510.96 869.914,-492.426 806.244,-478.688"/>
<polygon fill="midnightblue" stroke="midnightblue" points="806.726,-475.211 796.213,-476.527 805.252,-482.054 806.726,-475.211"/>
</g>
<!-- Node16 -->
<g id="node16" class="node"><title>Node16</title>
<g id="a_node16"><a xlink:href="_sync_8h.html" target="_top" xlink:title="Sync.h">
<polygon fill="white" stroke="black" points="885.5,-319 885.5,-338 934.5,-338 934.5,-319 885.5,-319"/>
<text text-anchor="middle" x="910" y="-326" font-family="Helvetica,sans-Serif" font-size="10.00">Sync.h</text>
</a>
</g>
</g>
<!-- Node10&#45;&gt;Node16 -->
<g id="edge61" class="edge"><title>Node10&#45;&gt;Node16</title>
<path fill="none" stroke="midnightblue" d="M556.879,-588.902C671.569,-585.863 946.344,-575.449 974,-545 1001.08,-515.187 942.896,-393.374 919.329,-347.283"/>
<polygon fill="midnightblue" stroke="midnightblue" points="922.332,-345.47 914.628,-338.197 916.115,-348.687 922.332,-345.47"/>
</g>
<!-- Node10&#45;&gt;Node22 -->
<g id="edge62" class="edge"><title>Node10&#45;&gt;Node22</title>
<path fill="none" stroke="midnightblue" d="M556.904,-589.936C674.128,-589.14 963.807,-583.24 1052,-545 1101.51,-523.533 1142,-517.463 1142,-463.5 1142,-463.5 1142,-463.5 1142,-394.5 1142,-354.158 1142,-306.88 1142,-281.282"/>
<polygon fill="midnightblue" stroke="midnightblue" points="1145.5,-281.149 1142,-271.149 1138.5,-281.149 1145.5,-281.149"/>
</g>
<!-- Node23 -->
<g id="node23" class="node"><title>Node23</title>
<g id="a_node23"><a xlink:href="_p_brake_light_8h.html" target="_top" xlink:title="runable/programs/PBrakeLight.h">
<polygon fill="white" stroke="black" points="776.5,-520 776.5,-539 947.5,-539 947.5,-520 776.5,-520"/>
<text text-anchor="middle" x="862" y="-527" font-family="Helvetica,sans-Serif" font-size="10.00">runable/programs/PBrakeLight.h</text>
</a>
</g>
</g>
<!-- Node10&#45;&gt;Node23 -->
<g id="edge40" class="edge"><title>Node10&#45;&gt;Node23</title>
<path fill="none" stroke="midnightblue" d="M556.735,-581.664C620.847,-570.919 732.266,-552.244 801.299,-540.674"/>
<polygon fill="midnightblue" stroke="midnightblue" points="801.882,-544.125 811.166,-539.02 800.725,-537.221 801.882,-544.125"/>
</g>
<!-- Node25 -->
<g id="node25" class="node"><title>Node25</title>
<g id="a_node25"><a xlink:href="_i_button_8h.html" target="_top" xlink:title="components/interface\l/IButton.h">
<polygon fill="white" stroke="black" points="992,-447.5 992,-477.5 1114,-477.5 1114,-447.5 992,-447.5"/>
<text text-anchor="start" x="1000" y="-465.5" font-family="Helvetica,sans-Serif" font-size="10.00">components/interface</text>
<text text-anchor="middle" x="1053" y="-454.5" font-family="Helvetica,sans-Serif" font-size="10.00">/IButton.h</text>
</a>
</g>
</g>
<!-- Node10&#45;&gt;Node25 -->
<g id="edge46" class="edge"><title>Node10&#45;&gt;Node25</title>
<path fill="none" stroke="midnightblue" d="M556.936,-588.823C680.25,-585.481 991.855,-574.209 1028,-545 1044.94,-531.314 1050.66,-506.44 1052.47,-487.759"/>
<polygon fill="midnightblue" stroke="midnightblue" points="1055.97,-487.814 1053.14,-477.606 1048.99,-487.355 1055.97,-487.814"/>
</g>
<!-- Node26 -->
<g id="node26" class="node"><title>Node26</title>
<g id="a_node26"><a xlink:href="_i_buzzer_8h.html" target="_top" xlink:title="components/interface\l/IBuzzer.h">
<polygon fill="white" stroke="black" points="282,-313.5 282,-343.5 404,-343.5 404,-313.5 282,-313.5"/>
<text text-anchor="start" x="290" y="-331.5" font-family="Helvetica,sans-Serif" font-size="10.00">components/interface</text>
<text text-anchor="middle" x="343" y="-320.5" font-family="Helvetica,sans-Serif" font-size="10.00">/IBuzzer.h</text>
</a>
</g>
</g>
<!-- Node10&#45;&gt;Node26 -->
<g id="edge50" class="edge"><title>Node10&#45;&gt;Node26</title>
<path fill="none" stroke="midnightblue" d="M466.425,-581.427C440.153,-574.534 406.102,-562.98 380,-545 347.803,-522.822 336.496,-514.693 323,-478 307.576,-436.068 321.85,-383.559 332.916,-353.54"/>
<polygon fill="midnightblue" stroke="midnightblue" points="336.296,-354.503 336.642,-343.914 329.768,-351.976 336.296,-354.503"/>
</g>
<!-- Node27 -->
<g id="node27" class="node"><title>Node27</title>
<g id="a_node27"><a xlink:href="_i_motor_controller_8h.html" target="_top" xlink:title="components/interface\l/IMotorController.h">
<polygon fill="white" stroke="black" points="193,-179.5 193,-209.5 315,-209.5 315,-179.5 193,-179.5"/>
<text text-anchor="start" x="201" y="-197.5" font-family="Helvetica,sans-Serif" font-size="10.00">components/interface</text>
<text text-anchor="middle" x="254" y="-186.5" font-family="Helvetica,sans-Serif" font-size="10.00">/IMotorController.h</text>
</a>
</g>
</g>
<!-- Node10&#45;&gt;Node27 -->
<g id="edge52" class="edge"><title>Node10&#45;&gt;Node27</title>
<path fill="none" stroke="midnightblue" d="M457.254,-588.369C420.477,-584.643 371.367,-574.034 339,-545 242.966,-458.855 246.575,-284.131 251.545,-219.901"/>
<polygon fill="midnightblue" stroke="midnightblue" points="255.064,-219.833 252.434,-209.569 248.09,-219.233 255.064,-219.833"/>
</g>
<!-- Node10&#45;&gt;Node28 -->
<g id="edge56" class="edge"><title>Node10&#45;&gt;Node28</title>
<path fill="none" stroke="midnightblue" d="M457.337,-587.205C382.283,-582.231 244.229,-569.936 202,-545 151.728,-515.314 116.237,-453.835 99.6295,-420.034"/>
<polygon fill="midnightblue" stroke="midnightblue" points="102.732,-418.409 95.2672,-410.891 96.4144,-421.424 102.732,-418.409"/>
</g>
<!-- Node29 -->
<g id="node29" class="node"><title>Node29</title>
<g id="a_node29"><a xlink:href="_i_alive_8h.html" target="_top" xlink:title="components/interface\l/IAlive.h">
<polygon fill="white" stroke="black" points="636,-514.5 636,-544.5 758,-544.5 758,-514.5 636,-514.5"/>
<text text-anchor="start" x="644" y="-532.5" font-family="Helvetica,sans-Serif" font-size="10.00">components/interface</text>
<text text-anchor="middle" x="697" y="-521.5" font-family="Helvetica,sans-Serif" font-size="10.00">/IAlive.h</text>
</a>
</g>
</g>
<!-- Node10&#45;&gt;Node29 -->
<g id="edge59" class="edge"><title>Node10&#45;&gt;Node29</title>
<path fill="none" stroke="midnightblue" d="M534.222,-581.475C562.36,-572.664 607.05,-558.668 642.491,-547.57"/>
<polygon fill="midnightblue" stroke="midnightblue" points="643.724,-550.852 652.221,-544.523 641.632,-544.171 643.724,-550.852"/>
</g>
<!-- Node11&#45;&gt;Node5 -->
<g id="edge13" class="edge"><title>Node11&#45;&gt;Node5</title>
<path fill="none" stroke="midnightblue" d="M484.902,-385.949C488.052,-356.101 498.607,-256.084 503.027,-214.199"/>
<polygon fill="midnightblue" stroke="midnightblue" points="506.509,-214.555 504.077,-204.243 499.547,-213.82 506.509,-214.555"/>
</g>
<!-- Node12&#45;&gt;Node4 -->
<g id="edge15" class="edge"><title>Node12&#45;&gt;Node4</title>
<path fill="none" stroke="midnightblue" d="M515.245,-514.396C520.994,-504.562 528.702,-491.378 534.832,-480.892"/>
<polygon fill="midnightblue" stroke="midnightblue" points="537.892,-482.594 539.917,-472.195 531.848,-479.061 537.892,-482.594"/>
</g>
<!-- Node12&#45;&gt;Node13 -->
<g id="edge16" class="edge"><title>Node12&#45;&gt;Node13</title>
<path fill="none" stroke="midnightblue" d="M482.264,-514.396C465.98,-505.112 444.459,-492.841 426.629,-482.674"/>
<polygon fill="midnightblue" stroke="midnightblue" points="428.109,-479.489 417.688,-477.577 424.642,-485.57 428.109,-479.489"/>
</g>
<!-- Node12&#45;&gt;Node14 -->
<g id="edge18" class="edge"><title>Node12&#45;&gt;Node14</title>
<path fill="none" stroke="midnightblue" d="M556.192,-514.476C591.282,-504.472 638.639,-490.971 675.801,-480.377"/>
<polygon fill="midnightblue" stroke="midnightblue" points="676.846,-483.719 685.503,-477.611 674.927,-476.987 676.846,-483.719"/>
</g>
<!-- Node13&#45;&gt;Node6 -->
<g id="edge17" class="edge"><title>Node13&#45;&gt;Node6</title>
<path fill="none" stroke="midnightblue" d="M396.174,-447.49C400.962,-425.562 409.812,-381.733 413,-344 418.846,-274.818 414.641,-192.708 411.884,-152.758"/>
<polygon fill="midnightblue" stroke="midnightblue" points="415.366,-152.375 411.155,-142.653 408.384,-152.88 415.366,-152.375"/>
</g>
<!-- Node15 -->
<g id="node15" class="node"><title>Node15</title>
<g id="a_node15"><a xlink:href="_self_syncable_8h.html" target="_top" xlink:title="communication/SelfSyncable.h">
<polygon fill="white" stroke="black" points="713,-386 713,-405 877,-405 877,-386 713,-386"/>
<text text-anchor="middle" x="795" y="-393" font-family="Helvetica,sans-Serif" font-size="10.00">communication/SelfSyncable.h</text>
</a>
</g>
</g>
<!-- Node14&#45;&gt;Node15 -->
<g id="edge19" class="edge"><title>Node14&#45;&gt;Node15</title>
<path fill="none" stroke="midnightblue" d="M748.019,-447.396C757.467,-437.161 770.265,-423.296 780.118,-412.622"/>
<polygon fill="midnightblue" stroke="midnightblue" points="782.763,-414.917 786.974,-405.195 777.62,-410.169 782.763,-414.917"/>
</g>
<!-- Node15&#45;&gt;Node16 -->
<g id="edge20" class="edge"><title>Node15&#45;&gt;Node16</title>
<path fill="none" stroke="midnightblue" d="M810.509,-385.734C829.908,-374.769 863.326,-355.881 886.028,-343.049"/>
<polygon fill="midnightblue" stroke="midnightblue" points="887.753,-346.095 894.736,-338.127 884.308,-340.001 887.753,-346.095"/>
</g>
<!-- Node21 -->
<g id="node21" class="node"><title>Node21</title>
<g id="a_node21"><a xlink:href="_i_communication_8h.html" target="_top" xlink:title="components/interface\l/ICommunication.h">
<polygon fill="white" stroke="black" points="636,-246.5 636,-276.5 758,-276.5 758,-246.5 636,-246.5"/>
<text text-anchor="start" x="644" y="-264.5" font-family="Helvetica,sans-Serif" font-size="10.00">components/interface</text>
<text text-anchor="middle" x="697" y="-253.5" font-family="Helvetica,sans-Serif" font-size="10.00">/ICommunication.h</text>
</a>
</g>
</g>
<!-- Node15&#45;&gt;Node21 -->
<g id="edge39" class="edge"><title>Node15&#45;&gt;Node21</title>
<path fill="none" stroke="midnightblue" d="M788.57,-385.839C773.532,-365.584 735.676,-314.595 713.633,-284.903"/>
<polygon fill="midnightblue" stroke="midnightblue" points="716.375,-282.726 707.604,-276.783 710.755,-286.899 716.375,-282.726"/>
</g>
<!-- Node16&#45;&gt;Node3 -->
<g id="edge21" class="edge"><title>Node16&#45;&gt;Node3</title>
<path fill="none" stroke="midnightblue" d="M925.521,-318.937C941.957,-309.564 968.334,-293.641 989,-277 1042.44,-233.968 1097.42,-173.794 1122.7,-145.053"/>
<polygon fill="midnightblue" stroke="midnightblue" points="1125.62,-147.032 1129.56,-137.196 1120.35,-142.429 1125.62,-147.032"/>
</g>
<!-- Node16&#45;&gt;Node5 -->
<g id="edge37" class="edge"><title>Node16&#45;&gt;Node5</title>
<path fill="none" stroke="midnightblue" d="M885.218,-326.478C834.824,-323.676 717.51,-313.441 627,-277 586.144,-260.55 544.821,-229.141 522.302,-210.485"/>
<polygon fill="midnightblue" stroke="midnightblue" points="524.532,-207.788 514.631,-204.017 520.02,-213.139 524.532,-207.788"/>
</g>
<!-- Node16&#45;&gt;Node6 -->
<g id="edge30" class="edge"><title>Node16&#45;&gt;Node6</title>
<path fill="none" stroke="midnightblue" d="M906.314,-318.851C898.721,-302.1 879.691,-265.192 852,-246 738.148,-167.093 574.199,-141.164 481.308,-132.652"/>
<polygon fill="midnightblue" stroke="midnightblue" points="481.434,-129.15 471.168,-131.766 480.825,-136.123 481.434,-129.15"/>
</g>
<!-- Node16&#45;&gt;Node7 -->
<g id="edge22" class="edge"><title>Node16&#45;&gt;Node7</title>
<path fill="none" stroke="midnightblue" d="M907.837,-318.833C898.623,-281.903 862.521,-137.219 849.617,-85.503"/>
<polygon fill="midnightblue" stroke="midnightblue" points="852.988,-84.555 847.171,-75.6999 846.196,-86.2497 852.988,-84.555"/>
</g>
<!-- Node17 -->
<g id="node17" class="node"><title>Node17</title>
<g id="a_node17"><a xlink:href="device_ids_8h.html" target="_top" xlink:title="deviceIds.h">
<polygon fill="white" stroke="black" points="1025,-118 1025,-137 1095,-137 1095,-118 1025,-118"/>
<text text-anchor="middle" x="1060" y="-125" font-family="Helvetica,sans-Serif" font-size="10.00">deviceIds.h</text>
</a>
</g>
</g>
<!-- Node16&#45;&gt;Node17 -->
<g id="edge23" class="edge"><title>Node16&#45;&gt;Node17</title>
<path fill="none" stroke="midnightblue" d="M919.028,-318.983C938.379,-300.429 984.636,-254.446 1016,-210 1030.43,-189.546 1043.58,-163.827 1051.68,-146.813"/>
<polygon fill="midnightblue" stroke="midnightblue" points="1054.98,-148.011 1056.03,-137.468 1048.63,-145.057 1054.98,-148.011"/>
</g>
<!-- Node18 -->
<g id="node18" class="node"><title>Node18</title>
<g id="a_node18"><a xlink:href="_car_message_8h.html" target="_top" xlink:title="CarMessage.h">
<polygon fill="white" stroke="black" points="922.5,-185 922.5,-204 1007.5,-204 1007.5,-185 922.5,-185"/>
<text text-anchor="middle" x="965" y="-192" font-family="Helvetica,sans-Serif" font-size="10.00">CarMessage.h</text>
</a>
</g>
</g>
<!-- Node16&#45;&gt;Node18 -->
<g id="edge24" class="edge"><title>Node16&#45;&gt;Node18</title>
<path fill="none" stroke="midnightblue" d="M913.609,-318.839C922.506,-297.486 945.635,-241.977 957.595,-213.271"/>
<polygon fill="midnightblue" stroke="midnightblue" points="960.834,-214.598 961.45,-204.021 954.373,-211.906 960.834,-214.598"/>
</g>
<!-- Node20 -->
<g id="node20" class="node"><title>Node20</title>
<g id="a_node20"><a xlink:href="_i_channel_8h.html" target="_top" xlink:title="IChannel.h">
<polygon fill="white" stroke="black" points="776.5,-252 776.5,-271 843.5,-271 843.5,-252 776.5,-252"/>
<text text-anchor="middle" x="810" y="-259" font-family="Helvetica,sans-Serif" font-size="10.00">IChannel.h</text>
</a>
</g>
</g>
<!-- Node16&#45;&gt;Node20 -->
<g id="edge31" class="edge"><title>Node16&#45;&gt;Node20</title>
<path fill="none" stroke="midnightblue" d="M896.514,-318.734C879.945,-307.964 851.615,-289.55 831.907,-276.739"/>
<polygon fill="midnightblue" stroke="midnightblue" points="833.565,-273.643 823.273,-271.127 829.75,-279.512 833.565,-273.643"/>
</g>
<!-- Node16&#45;&gt;Node21 -->
<g id="edge34" class="edge"><title>Node16&#45;&gt;Node21</title>
<path fill="none" stroke="midnightblue" d="M885.149,-319.916C852.876,-310.068 795.601,-292.59 752.695,-279.496"/>
<polygon fill="midnightblue" stroke="midnightblue" points="753.535,-276.093 742.948,-276.522 751.491,-282.788 753.535,-276.093"/>
</g>
<!-- Node16&#45;&gt;Node22 -->
<g id="edge38" class="edge"><title>Node16&#45;&gt;Node22</title>
<path fill="none" stroke="midnightblue" d="M934.828,-320.544C974.77,-309.353 1053.67,-287.247 1101.74,-273.779"/>
<polygon fill="midnightblue" stroke="midnightblue" points="1102.82,-277.112 1111.51,-271.044 1100.93,-270.371 1102.82,-277.112"/>
</g>
<!-- Node18&#45;&gt;Node3 -->
<g id="edge26" class="edge"><title>Node18&#45;&gt;Node3</title>
<path fill="none" stroke="midnightblue" d="M990.044,-184.956C1018.02,-175.284 1064.56,-158.81 1104,-143 1105.42,-142.432 1106.86,-141.842 1108.32,-141.237"/>
<polygon fill="midnightblue" stroke="midnightblue" points="1110.07,-144.293 1117.89,-137.148 1107.32,-137.856 1110.07,-144.293"/>
</g>
<!-- Node18&#45;&gt;Node7 -->
<g id="edge29" class="edge"><title>Node18&#45;&gt;Node7</title>
<path fill="none" stroke="midnightblue" d="M952.145,-184.673C938.829,-175.203 917.797,-159.314 902,-143 883.969,-124.379 866.595,-99.9791 855.867,-83.9129"/>
<polygon fill="midnightblue" stroke="midnightblue" points="858.775,-81.9649 850.363,-75.5232 852.922,-85.8044 858.775,-81.9649"/>
</g>
<!-- Node18&#45;&gt;Node8 -->
<g id="edge27" class="edge"><title>Node18&#45;&gt;Node8</title>
<path fill="none" stroke="midnightblue" d="M968.516,-184.814C974.106,-169.782 983.734,-138.031 977,-112 968.672,-79.8055 947.629,-46.9322 933.842,-27.7736"/>
<polygon fill="midnightblue" stroke="midnightblue" points="936.506,-25.4899 927.745,-19.5333 930.879,-29.6537 936.506,-25.4899"/>
</g>
<!-- Node18&#45;&gt;Node17 -->
<g id="edge28" class="edge"><title>Node18&#45;&gt;Node17</title>
<path fill="none" stroke="midnightblue" d="M977.812,-184.734C993.481,-174.013 1020.22,-155.716 1038.93,-142.914"/>
<polygon fill="midnightblue" stroke="midnightblue" points="1041.11,-145.663 1047.39,-137.127 1037.16,-139.886 1041.11,-145.663"/>
</g>
<!-- Node19 -->
<g id="node19" class="node"><title>Node19</title>
<polygon fill="white" stroke="#bfbfbf" points="911.5,-118 911.5,-137 968.5,-137 968.5,-118 911.5,-118"/>
<text text-anchor="middle" x="940" y="-125" font-family="Helvetica,sans-Serif" font-size="10.00">memory</text>
</g>
<!-- Node18&#45;&gt;Node19 -->
<g id="edge25" class="edge"><title>Node18&#45;&gt;Node19</title>
<path fill="none" stroke="midnightblue" d="M961.628,-184.734C957.88,-174.988 951.723,-158.981 946.935,-146.532"/>
<polygon fill="midnightblue" stroke="midnightblue" points="950.175,-145.204 943.318,-137.127 943.641,-147.717 950.175,-145.204"/>
</g>
<!-- Node20&#45;&gt;Node5 -->
<g id="edge33" class="edge"><title>Node20&#45;&gt;Node5</title>
<path fill="none" stroke="midnightblue" d="M786.517,-251.944C780.228,-249.829 773.399,-247.687 767,-246 692.883,-226.456 605.119,-211.079 552.315,-202.647"/>
<polygon fill="midnightblue" stroke="midnightblue" points="552.659,-199.158 542.235,-201.054 551.566,-206.072 552.659,-199.158"/>
</g>
<!-- Node20&#45;&gt;Node18 -->
<g id="edge32" class="edge"><title>Node20&#45;&gt;Node18</title>
<path fill="none" stroke="midnightblue" d="M830.583,-251.869C857.334,-240.65 904.248,-220.977 934.972,-208.092"/>
<polygon fill="midnightblue" stroke="midnightblue" points="936.464,-211.262 944.332,-204.167 933.757,-204.807 936.464,-211.262"/>
</g>
<!-- Node21&#45;&gt;Node6 -->
<g id="edge35" class="edge"><title>Node21&#45;&gt;Node6</title>
<path fill="none" stroke="midnightblue" d="M674.348,-246.304C646.153,-229.001 596.192,-199.536 551,-179 523.17,-166.353 491.165,-154.672 464.689,-145.737"/>
<polygon fill="midnightblue" stroke="midnightblue" points="465.796,-142.417 455.203,-142.572 463.581,-149.057 465.796,-142.417"/>
</g>
<!-- Node21&#45;&gt;Node18 -->
<g id="edge36" class="edge"><title>Node21&#45;&gt;Node18</title>
<path fill="none" stroke="midnightblue" d="M754.822,-246.476C804.32,-234.471 874.583,-217.43 919.982,-206.419"/>
<polygon fill="midnightblue" stroke="midnightblue" points="920.942,-209.787 929.836,-204.029 919.292,-202.984 920.942,-209.787"/>
</g>
<!-- Node23&#45;&gt;Node4 -->
<g id="edge41" class="edge"><title>Node23&#45;&gt;Node4</title>
<path fill="none" stroke="midnightblue" d="M820.232,-519.936C760.474,-507.682 651.043,-485.244 589.705,-472.667"/>
<polygon fill="midnightblue" stroke="midnightblue" points="590.06,-469.167 579.561,-470.587 588.654,-476.024 590.06,-469.167"/>
</g>
<!-- Node23&#45;&gt;Node14 -->
<g id="edge44" class="edge"><title>Node23&#45;&gt;Node14</title>
<path fill="none" stroke="midnightblue" d="M845.135,-519.869C826.468,-510.315 795.818,-494.627 771.585,-482.225"/>
<polygon fill="midnightblue" stroke="midnightblue" points="773.147,-479.092 762.65,-477.652 769.957,-485.323 773.147,-479.092"/>
</g>
<!-- Node24 -->
<g id="node24" class="node"><title>Node24</title>
<g id="a_node24"><a xlink:href="_i_pedal_8h.html" target="_top" xlink:title="components/interface\l/IPedal.h">
<polygon fill="white" stroke="black" points="814,-447.5 814,-477.5 936,-477.5 936,-447.5 814,-447.5"/>
<text text-anchor="start" x="822" y="-465.5" font-family="Helvetica,sans-Serif" font-size="10.00">components/interface</text>
<text text-anchor="middle" x="875" y="-454.5" font-family="Helvetica,sans-Serif" font-size="10.00">/IPedal.h</text>
</a>
</g>
</g>
<!-- Node23&#45;&gt;Node24 -->
<g id="edge42" class="edge"><title>Node23&#45;&gt;Node24</title>
<path fill="none" stroke="midnightblue" d="M863.753,-519.734C865.392,-511.541 867.915,-498.923 870.157,-487.714"/>
<polygon fill="midnightblue" stroke="midnightblue" points="873.653,-488.081 872.182,-477.589 866.789,-486.708 873.653,-488.081"/>
</g>
<!-- Node24&#45;&gt;Node15 -->
<g id="edge43" class="edge"><title>Node24&#45;&gt;Node15</title>
<path fill="none" stroke="midnightblue" d="M857.641,-447.396C844.673,-436.86 826.972,-422.477 813.694,-411.689"/>
<polygon fill="midnightblue" stroke="midnightblue" points="815.669,-408.784 805.701,-405.195 811.255,-414.217 815.669,-408.784"/>
</g>
<!-- Node25&#45;&gt;Node15 -->
<g id="edge47" class="edge"><title>Node25&#45;&gt;Node15</title>
<path fill="none" stroke="midnightblue" d="M997.335,-447.476C949.785,-435.496 882.327,-418.501 838.614,-407.488"/>
<polygon fill="midnightblue" stroke="midnightblue" points="839.404,-404.078 828.852,-405.029 837.694,-410.866 839.404,-404.078"/>
</g>
<!-- Node25&#45;&gt;Node22 -->
<g id="edge48" class="edge"><title>Node25&#45;&gt;Node22</title>
<path fill="none" stroke="midnightblue" d="M1059.4,-447.188C1075.28,-411.684 1116.46,-319.609 1133.95,-280.498"/>
<polygon fill="midnightblue" stroke="midnightblue" points="1137.15,-281.918 1138.04,-271.36 1130.76,-279.06 1137.15,-281.918"/>
</g>
<!-- Node26&#45;&gt;Node6 -->
<g id="edge51" class="edge"><title>Node26&#45;&gt;Node6</title>
<path fill="none" stroke="midnightblue" d="M347.818,-313.188C359.215,-279.34 387.921,-194.077 401.985,-152.307"/>
<polygon fill="midnightblue" stroke="midnightblue" points="405.351,-153.276 405.225,-142.682 398.717,-151.042 405.351,-153.276"/>
</g>
<!-- Node27&#45;&gt;Node6 -->
<g id="edge53" class="edge"><title>Node27&#45;&gt;Node6</title>
<path fill="none" stroke="midnightblue" d="M287.85,-179.396C311.052,-169.728 342.026,-156.823 366.977,-146.426"/>
<polygon fill="midnightblue" stroke="midnightblue" points="368.332,-149.653 376.216,-142.577 365.639,-143.192 368.332,-149.653"/>
</g>
<!-- Node27&#45;&gt;Node9 -->
<g id="edge54" class="edge"><title>Node27&#45;&gt;Node9</title>
<path fill="none" stroke="midnightblue" d="M254,-179.479C254,-156.719 254,-111.702 254,-86.0582"/>
<polygon fill="midnightblue" stroke="midnightblue" points="257.5,-85.7885 254,-75.7885 250.5,-85.7886 257.5,-85.7885"/>
</g>
<!-- Node28&#45;&gt;Node2 -->
<g id="edge57" class="edge"><title>Node28&#45;&gt;Node2</title>
<path fill="none" stroke="midnightblue" d="M89,-380.241C89,-356.034 89,-305.354 89,-262.5 89,-262.5 89,-262.5 89,-126.5 89,-91.9049 97.4021,-52.2448 103.032,-29.5547"/>
<polygon fill="midnightblue" stroke="midnightblue" points="106.487,-30.1707 105.594,-19.6136 99.7087,-28.4237 106.487,-30.1707"/>
</g>
<!-- Node28&#45;&gt;Node6 -->
<g id="edge58" class="edge"><title>Node28&#45;&gt;Node6</title>
<path fill="none" stroke="midnightblue" d="M93.3891,-380.337C107.134,-336.858 150.432,-206.576 184,-179 207.445,-159.74 281.807,-145.636 338.895,-137.304"/>
<polygon fill="midnightblue" stroke="midnightblue" points="339.571,-140.743 348.977,-135.865 338.583,-133.813 339.571,-140.743"/>
</g>
<!-- Node29&#45;&gt;Node15 -->
<g id="edge60" class="edge"><title>Node29&#45;&gt;Node15</title>
<path fill="none" stroke="midnightblue" d="M683.651,-514.307C669.306,-497.268 650.406,-468.326 665,-447 678.52,-427.243 700.989,-415.214 723.478,-407.891"/>
<polygon fill="midnightblue" stroke="midnightblue" points="724.503,-411.238 733.091,-405.032 722.508,-404.528 724.503,-411.238"/>
</g>
</g>
</svg>
        <g id="navigator" transform="translate(0 0)" fill="#404254">
                <rect fill="#f2f5e9" fill-opacity="0.5" stroke="#606060" stroke-width=".5" x="0" y="0" width="60" height="60"/>
                <use id="zoomplus" xlink:href="#zoomPlus" x="17" y="9" onmousedown="handleZoom(evt,'in')"/>
                <use id="zoomminus" xlink:href="#zoomMin" x="42" y="9" onmousedown="handleZoom(evt,'out')"/>
                <use id="reset" xlink:href="#resetDef" x="30" y="36" onmousedown="handleReset()"/>
                <g id="arrowUp" xlink:href="#dirArrow" transform="translate(30 24)" onmousedown="handlePan(0,-1)">
                  <use xlink:href="#rim" fill="#404040">
                        <set attributeName="fill" to="#808080" begin="arrowUp.mouseover" end="arrowUp.mouseout"/>
                  </use>
                  <path fill="none" stroke="white" stroke-width="1.5" d="M0,-3.0v7 M-2.5,-0.5L0,-3.0L2.5,-0.5"/>
                </g>
                <g id="arrowRight" xlink:href="#dirArrow" transform="rotate(90) translate(36 -43)" onmousedown="handlePan(1,0)">
                  <use xlink:href="#rim" fill="#404040">
                        <set attributeName="fill" to="#808080" begin="arrowRight.mouseover" end="arrowRight.mouseout"/>
                  </use>
                  <path fill="none" stroke="white" stroke-width="1.5" d="M0,-3.0v7 M-2.5,-0.5L0,-3.0L2.5,-0.5"/>
                </g>
                <g id="arrowDown" xlink:href="#dirArrow" transform="rotate(180) translate(-30 -48)" onmousedown="handlePan(0,1)">
                  <use xlink:href="#rim" fill="#404040">
                        <set attributeName="fill" to="#808080" begin="arrowDown.mouseover" end="arrowDown.mouseout"/>
                  </use>
                  <path fill="none" stroke="white" stroke-width="1.5" d="M0,-3.0v7 M-2.5,-0.5L0,-3.0L2.5,-0.5"/>
                </g>
                <g id="arrowLeft" xlink:href="#dirArrow" transform="rotate(270) translate(-36 17)" onmousedown="handlePan(-1,0)">
                  <use xlink:href="#rim" fill="#404040">
                        <set attributeName="fill" to="#808080" begin="arrowLeft.mouseover" end="arrowLeft.mouseout"/>
                  </use>
                  <path fill="none" stroke="white" stroke-width="1.5" d="M0,-3.0v7 M-2.5,-0.5L0,-3.0L2.5,-0.5"/>
                </g>
        </g>
        <svg viewBox="0 0 15 15" width="100%" height="30px" preserveAspectRatio="xMaxYMin meet">
         <g id="arrow_out" transform="scale(0.3 0.3)">
          <a xlink:href="_p_logger_8h__incl_org.svg" target="_base">
           <rect id="button" ry="5" rx="5" y="6" x="6" height="38" width="38"
                fill="#f2f5e9" fill-opacity="0.5" stroke="#606060" stroke-width="1.0"/>
           <path id="arrow"
             d="M 11.500037,31.436501 C 11.940474,20.09759 22.043105,11.32322 32.158766,21.979434 L 37.068811,17.246167 C 37.068811,17.246167 37.088388,32 37.088388,32 L 22.160133,31.978069 C 22.160133,31.978069 26.997745,27.140456 26.997745,27.140456 C 18.528582,18.264221 13.291696,25.230495 11.500037,31.436501 z"
             style="fill:#404040;"/>
          </a>
         </g>
        </svg>
</svg>
