<?xml version="1.0" encoding="UTF-8" standalone="no"?>
<!DOCTYPE svg PUBLIC "-//W3C//DTD SVG 1.1//EN"
 "http://www.w3.org/Graphics/SVG/1.1/DTD/svg11.dtd">
<!-- Generated by graphviz version 2.38.0 (20140413.2041)
 -->
<!-- Title: lib/carpi/src/runable/programs/PMotorController.h Pages: 1 -->
<svg width="1224pt" height="676pt"
 viewBox="0.00 0.00 1224.00 676.00" xmlns="http://www.w3.org/2000/svg" xmlns:xlink="http://www.w3.org/1999/xlink">
<g id="graph0" class="graph" transform="scale(1 1) rotate(0) translate(4 672)">
<title>lib/carpi/src/runable/programs/PMotorController.h</title>
<polygon fill="white" stroke="none" points="-4,4 -4,-672 1220,-672 1220,4 -4,4"/>
<!-- Node1 -->
<g id="node1" class="node"><title>Node1</title>
<polygon fill="#bfbfbf" stroke="black" points="166,-637.5 166,-667.5 324,-667.5 324,-637.5 166,-637.5"/>
<text text-anchor="start" x="174" y="-655.5" font-family="Helvetica,sans-Serif" font-size="10.00">lib/carpi/src/runable</text>
<text text-anchor="middle" x="245" y="-644.5" font-family="Helvetica,sans-Serif" font-size="10.00">/programs/PMotorController.h</text>
</g>
<!-- Node2 -->
<g id="node2" class="node"><title>Node2</title>
<g id="a_node2"><a xlink:href="_i_program_8h.html" target="_top" xlink:title="IProgram.h">
<polygon fill="white" stroke="black" points="432.5,-442 432.5,-461 501.5,-461 501.5,-442 432.5,-442"/>
<text text-anchor="middle" x="467" y="-449" font-family="Helvetica,sans-Serif" font-size="10.00">IProgram.h</text>
</a>
</g>
</g>
<!-- Node1&#45;&gt;Node2 -->
<g id="edge1" class="edge"><title>Node1&#45;&gt;Node2</title>
<path fill="none" stroke="midnightblue" d="M246.757,-637.498C251.202,-604.29 263.911,-522.111 283,-503 328.402,-457.544 361.345,-485.064 423,-467 425.991,-466.124 429.085,-465.18 432.181,-464.211"/>
<polygon fill="midnightblue" stroke="midnightblue" points="433.509,-467.46 441.961,-461.072 431.37,-460.795 433.509,-467.46"/>
</g>
<!-- Node9 -->
<g id="node9" class="node"><title>Node9</title>
<g id="a_node9"><a xlink:href="_s_car_8h.html" target="_top" xlink:title="services/SCar.h">
<polygon fill="white" stroke="black" points="789,-576 789,-595 879,-595 879,-576 789,-576"/>
<text text-anchor="middle" x="834" y="-583" font-family="Helvetica,sans-Serif" font-size="10.00">services/SCar.h</text>
</a>
</g>
</g>
<!-- Node1&#45;&gt;Node9 -->
<g id="edge8" class="edge"><title>Node1&#45;&gt;Node9</title>
<path fill="none" stroke="midnightblue" d="M324.129,-642.768C445.277,-629.398 673.7,-604.19 778.68,-592.605"/>
<polygon fill="midnightblue" stroke="midnightblue" points="779.193,-596.07 788.748,-591.494 778.425,-589.112 779.193,-596.07"/>
</g>
<!-- Node24 -->
<g id="node24" class="node"><title>Node24</title>
<g id="a_node24"><a xlink:href="_i_pedal_8h.html" target="_top" xlink:title="components/interface\l/IPedal.h">
<polygon fill="white" stroke="black" points="292,-436.5 292,-466.5 414,-466.5 414,-436.5 292,-436.5"/>
<text text-anchor="start" x="300" y="-454.5" font-family="Helvetica,sans-Serif" font-size="10.00">components/interface</text>
<text text-anchor="middle" x="353" y="-443.5" font-family="Helvetica,sans-Serif" font-size="10.00">/IPedal.h</text>
</a>
</g>
</g>
<!-- Node1&#45;&gt;Node24 -->
<g id="edge62" class="edge"><title>Node1&#45;&gt;Node24</title>
<path fill="none" stroke="midnightblue" d="M241.062,-637.417C234.076,-609.288 222.674,-545.232 250,-503 259.228,-488.738 273.742,-478.373 288.994,-470.893"/>
<polygon fill="midnightblue" stroke="midnightblue" points="290.86,-473.891 298.545,-466.598 287.989,-467.507 290.86,-473.891"/>
</g>
<!-- Node27 -->
<g id="node27" class="node"><title>Node27</title>
<g id="a_node27"><a xlink:href="_i_motor_controller_8h.html" target="_top" xlink:title="components/interface\l/IMotorController.h">
<polygon fill="white" stroke="black" points="1028,-369.5 1028,-399.5 1150,-399.5 1150,-369.5 1028,-369.5"/>
<text text-anchor="start" x="1036" y="-387.5" font-family="Helvetica,sans-Serif" font-size="10.00">components/interface</text>
<text text-anchor="middle" x="1089" y="-376.5" font-family="Helvetica,sans-Serif" font-size="10.00">/IMotorController.h</text>
</a>
</g>
</g>
<!-- Node1&#45;&gt;Node27 -->
<g id="edge61" class="edge"><title>Node1&#45;&gt;Node27</title>
<path fill="none" stroke="midnightblue" d="M324.129,-648.34C471.598,-641.947 783.002,-625.929 888,-601 964.607,-582.811 993.782,-587.011 1052,-534 1076.84,-511.381 1078.59,-499.527 1087,-467 1091.84,-448.295 1092.08,-426.366 1091.26,-409.97"/>
<polygon fill="midnightblue" stroke="midnightblue" points="1094.73,-409.352 1090.56,-399.609 1087.74,-409.822 1094.73,-409.352"/>
</g>
<!-- Node30 -->
<g id="node30" class="node"><title>Node30</title>
<g id="a_node30"><a xlink:href="_i_rpm_sensor_8h.html" target="_top" xlink:title="components/interface\l/IRpmSensor.h">
<polygon fill="white" stroke="black" points="0,-503.5 0,-533.5 122,-533.5 122,-503.5 0,-503.5"/>
<text text-anchor="start" x="8" y="-521.5" font-family="Helvetica,sans-Serif" font-size="10.00">components/interface</text>
<text text-anchor="middle" x="61" y="-510.5" font-family="Helvetica,sans-Serif" font-size="10.00">/IRpmSensor.h</text>
</a>
</g>
</g>
<!-- Node1&#45;&gt;Node30 -->
<g id="edge63" class="edge"><title>Node1&#45;&gt;Node30</title>
<path fill="none" stroke="midnightblue" d="M228.11,-637.397C207.862,-620.697 172.689,-592.332 141,-570 125.768,-559.266 108.325,-548.127 93.6214,-539.051"/>
<polygon fill="midnightblue" stroke="midnightblue" points="95.2208,-535.927 84.865,-533.689 91.5649,-541.896 95.2208,-535.927"/>
</g>
<!-- Node31 -->
<g id="node31" class="node"><title>Node31</title>
<g id="a_node31"><a xlink:href="_software_rpm_sensor_8h.html" target="_top" xlink:title="components/software\l/SoftwareRpmSensor.h">
<polygon fill="white" stroke="black" points="7.5,-570.5 7.5,-600.5 132.5,-600.5 132.5,-570.5 7.5,-570.5"/>
<text text-anchor="start" x="15.5" y="-588.5" font-family="Helvetica,sans-Serif" font-size="10.00">components/software</text>
<text text-anchor="middle" x="70" y="-577.5" font-family="Helvetica,sans-Serif" font-size="10.00">/SoftwareRpmSensor.h</text>
</a>
</g>
</g>
<!-- Node1&#45;&gt;Node31 -->
<g id="edge65" class="edge"><title>Node1&#45;&gt;Node31</title>
<path fill="none" stroke="midnightblue" d="M207.028,-637.396C180.77,-627.643 145.64,-614.595 117.525,-604.152"/>
<polygon fill="midnightblue" stroke="midnightblue" points="118.491,-600.777 107.898,-600.577 116.054,-607.339 118.491,-600.777"/>
</g>
<!-- Node3 -->
<g id="node3" class="node"><title>Node3</title>
<g id="a_node3"><a xlink:href="_i_runable_8h.html" target="_top" xlink:title="../IRunable.h">
<polygon fill="white" stroke="black" points="641,-185 641,-204 715,-204 715,-185 641,-185"/>
<text text-anchor="middle" x="678" y="-192" font-family="Helvetica,sans-Serif" font-size="10.00">../IRunable.h</text>
</a>
</g>
</g>
<!-- Node2&#45;&gt;Node3 -->
<g id="edge2" class="edge"><title>Node2&#45;&gt;Node3</title>
<path fill="none" stroke="midnightblue" d="M479.753,-441.959C512.87,-419.141 602.395,-353.277 651,-277 663.484,-257.408 670.775,-231.463 674.569,-214.162"/>
<polygon fill="midnightblue" stroke="midnightblue" points="678.033,-214.69 676.576,-204.196 671.171,-213.308 678.033,-214.69"/>
</g>
<!-- Node4 -->
<g id="node4" class="node"><title>Node4</title>
<g id="a_node4"><a xlink:href="_i_component_8h.html" target="_top" xlink:title="components/interface\l/IComponent.h">
<polygon fill="white" stroke="black" points="813,-112.5 813,-142.5 935,-142.5 935,-112.5 813,-112.5"/>
<text text-anchor="start" x="821" y="-130.5" font-family="Helvetica,sans-Serif" font-size="10.00">components/interface</text>
<text text-anchor="middle" x="874" y="-119.5" font-family="Helvetica,sans-Serif" font-size="10.00">/IComponent.h</text>
</a>
</g>
</g>
<!-- Node3&#45;&gt;Node4 -->
<g id="edge3" class="edge"><title>Node3&#45;&gt;Node4</title>
<path fill="none" stroke="midnightblue" d="M704.027,-184.869C733.947,-174.946 783.814,-158.408 821.819,-145.805"/>
<polygon fill="midnightblue" stroke="midnightblue" points="823.31,-148.998 831.7,-142.528 821.107,-142.354 823.31,-148.998"/>
</g>
<!-- Node5 -->
<g id="node5" class="node"><title>Node5</title>
<g id="a_node5"><a xlink:href="component_ids_8h.html" target="_top" xlink:title="communication/componentIds.h">
<polygon fill="white" stroke="black" points="298.5,-56.5 298.5,-75.5 469.5,-75.5 469.5,-56.5 298.5,-56.5"/>
<text text-anchor="middle" x="384" y="-63.5" font-family="Helvetica,sans-Serif" font-size="10.00">communication/componentIds.h</text>
</a>
</g>
</g>
<!-- Node4&#45;&gt;Node5 -->
<g id="edge4" class="edge"><title>Node4&#45;&gt;Node5</title>
<path fill="none" stroke="midnightblue" d="M812.932,-119.085C724.846,-108.388 562.007,-88.6151 464.287,-76.7492"/>
<polygon fill="midnightblue" stroke="midnightblue" points="464.512,-73.2509 454.163,-75.5198 463.668,-80.1998 464.512,-73.2509"/>
</g>
<!-- Node7 -->
<g id="node7" class="node"><title>Node7</title>
<g id="a_node7"><a xlink:href="_i_logable_8h.html" target="_top" xlink:title="ILogable.h">
<polygon fill="white" stroke="black" points="1005.5,-56.5 1005.5,-75.5 1070.5,-75.5 1070.5,-56.5 1005.5,-56.5"/>
<text text-anchor="middle" x="1038" y="-63.5" font-family="Helvetica,sans-Serif" font-size="10.00">ILogable.h</text>
</a>
</g>
</g>
<!-- Node4&#45;&gt;Node7 -->
<g id="edge6" class="edge"><title>Node4&#45;&gt;Node7</title>
<path fill="none" stroke="midnightblue" d="M912.866,-112.399C940.751,-102.283 977.939,-88.7905 1004.51,-79.1493"/>
<polygon fill="midnightblue" stroke="midnightblue" points="1005.93,-82.3585 1014.14,-75.6578 1003.54,-75.7782 1005.93,-82.3585"/>
</g>
<!-- Node6 -->
<g id="node6" class="node"><title>Node6</title>
<polygon fill="white" stroke="#bfbfbf" points="414.5,-0.5 414.5,-19.5 467.5,-19.5 467.5,-0.5 414.5,-0.5"/>
<text text-anchor="middle" x="441" y="-7.5" font-family="Helvetica,sans-Serif" font-size="10.00">stdint.h</text>
</g>
<!-- Node5&#45;&gt;Node6 -->
<g id="edge5" class="edge"><title>Node5&#45;&gt;Node6</title>
<path fill="none" stroke="midnightblue" d="M393.158,-56.324C401.501,-48.4196 414.032,-36.5482 424.177,-26.9377"/>
<polygon fill="midnightblue" stroke="midnightblue" points="426.823,-29.2522 431.675,-19.8339 422.009,-24.1705 426.823,-29.2522"/>
</g>
<!-- Node8 -->
<g id="node8" class="node"><title>Node8</title>
<polygon fill="white" stroke="#bfbfbf" points="1105,-0.5 1105,-19.5 1149,-19.5 1149,-0.5 1105,-0.5"/>
<text text-anchor="middle" x="1127" y="-7.5" font-family="Helvetica,sans-Serif" font-size="10.00">string</text>
</g>
<!-- Node7&#45;&gt;Node8 -->
<g id="edge7" class="edge"><title>Node7&#45;&gt;Node8</title>
<path fill="none" stroke="midnightblue" d="M1052.3,-56.324C1066.18,-47.9002 1087.49,-34.9709 1103.8,-25.0741"/>
<polygon fill="midnightblue" stroke="midnightblue" points="1106,-27.8341 1112.74,-19.6545 1102.37,-21.8495 1106,-27.8341"/>
</g>
<!-- Node9&#45;&gt;Node5 -->
<g id="edge43" class="edge"><title>Node9&#45;&gt;Node5</title>
<path fill="none" stroke="midnightblue" d="M788.74,-583.838C670.017,-581.583 352.116,-572.062 255,-534 199.999,-512.444 150,-511.575 150,-452.5 150,-452.5 150,-452.5 150,-193.5 150,-151.906 162.786,-137.037 196,-112 222.359,-92.1301 256.214,-80.8858 287.915,-74.5722"/>
<polygon fill="midnightblue" stroke="midnightblue" points="288.92,-77.946 298.119,-72.6909 287.65,-71.062 288.92,-77.946"/>
</g>
<!-- Node9&#45;&gt;Node8 -->
<g id="edge9" class="edge"><title>Node9&#45;&gt;Node8</title>
<path fill="none" stroke="midnightblue" d="M879.104,-582.835C935.581,-579.305 1034.24,-568.299 1111,-534 1164.94,-509.901 1216,-511.575 1216,-452.5 1216,-452.5 1216,-452.5 1216,-126.5 1216,-82.6048 1175.17,-45.1835 1148.82,-25.6046"/>
<polygon fill="midnightblue" stroke="midnightblue" points="1150.69,-22.6378 1140.52,-19.6653 1146.61,-28.3307 1150.69,-22.6378"/>
</g>
<!-- Node10 -->
<g id="node10" class="node"><title>Node10</title>
<g id="a_node10"><a xlink:href="_i_service_8h.html" target="_top" xlink:title="IService.h">
<polygon fill="white" stroke="black" points="782.5,-313.5 782.5,-332.5 845.5,-332.5 845.5,-313.5 782.5,-313.5"/>
<text text-anchor="middle" x="814" y="-320.5" font-family="Helvetica,sans-Serif" font-size="10.00">IService.h</text>
</a>
</g>
</g>
<!-- Node9&#45;&gt;Node10 -->
<g id="edge10" class="edge"><title>Node9&#45;&gt;Node10</title>
<path fill="none" stroke="midnightblue" d="M834.665,-575.929C835.407,-565.888 836.562,-548.749 837,-534 837.409,-520.228 838.503,-516.696 837,-503 835.212,-486.708 831.637,-483.177 829,-467 821.796,-422.807 817.323,-370.337 815.291,-342.887"/>
<polygon fill="midnightblue" stroke="midnightblue" points="818.771,-342.477 814.568,-332.751 811.788,-342.975 818.771,-342.477"/>
</g>
<!-- Node11 -->
<g id="node11" class="node"><title>Node11</title>
<g id="a_node11"><a xlink:href="_p_cockpit_indicator_8h.html" target="_top" xlink:title="runable/programs/PCockpit\lIndicator.h">
<polygon fill="white" stroke="black" points="660,-503.5 660,-533.5 806,-533.5 806,-503.5 660,-503.5"/>
<text text-anchor="start" x="668" y="-521.5" font-family="Helvetica,sans-Serif" font-size="10.00">runable/programs/PCockpit</text>
<text text-anchor="middle" x="733" y="-510.5" font-family="Helvetica,sans-Serif" font-size="10.00">Indicator.h</text>
</a>
</g>
</g>
<!-- Node9&#45;&gt;Node11 -->
<g id="edge12" class="edge"><title>Node9&#45;&gt;Node11</title>
<path fill="none" stroke="midnightblue" d="M820.379,-575.734C805.876,-566.4 782.451,-551.325 763.504,-539.131"/>
<polygon fill="midnightblue" stroke="midnightblue" points="765.195,-536.058 754.892,-533.589 761.407,-541.944 765.195,-536.058"/>
</g>
<!-- Node12 -->
<g id="node12" class="node"><title>Node12</title>
<g id="a_node12"><a xlink:href="_i_hv_enabled_8h.html" target="_top" xlink:title="components/interface\l/IHvEnabled.h">
<polygon fill="white" stroke="black" points="838,-436.5 838,-466.5 960,-466.5 960,-436.5 838,-436.5"/>
<text text-anchor="start" x="846" y="-454.5" font-family="Helvetica,sans-Serif" font-size="10.00">components/interface</text>
<text text-anchor="middle" x="899" y="-443.5" font-family="Helvetica,sans-Serif" font-size="10.00">/IHvEnabled.h</text>
</a>
</g>
</g>
<!-- Node9&#45;&gt;Node12 -->
<g id="edge53" class="edge"><title>Node9&#45;&gt;Node12</title>
<path fill="none" stroke="midnightblue" d="M846.997,-575.722C859.174,-566.746 876.834,-551.645 886,-534 895.211,-516.269 898.244,-493.671 899.097,-476.77"/>
<polygon fill="midnightblue" stroke="midnightblue" points="902.601,-476.69 899.386,-466.595 895.604,-476.492 902.601,-476.69"/>
</g>
<!-- Node13 -->
<g id="node13" class="node"><title>Node13</title>
<g id="a_node13"><a xlink:href="_i_led_8h.html" target="_top" xlink:title="components/interface\l/ILed.h">
<polygon fill="white" stroke="black" points="520,-436.5 520,-466.5 642,-466.5 642,-436.5 520,-436.5"/>
<text text-anchor="start" x="528" y="-454.5" font-family="Helvetica,sans-Serif" font-size="10.00">components/interface</text>
<text text-anchor="middle" x="581" y="-443.5" font-family="Helvetica,sans-Serif" font-size="10.00">/ILed.h</text>
</a>
</g>
</g>
<!-- Node9&#45;&gt;Node13 -->
<g id="edge47" class="edge"><title>Node9&#45;&gt;Node13</title>
<path fill="none" stroke="midnightblue" d="M788.879,-579.553C749.888,-573.604 693.306,-560.831 651,-534 627.312,-518.976 607.298,-493.478 594.816,-474.996"/>
<polygon fill="midnightblue" stroke="midnightblue" points="597.708,-473.024 589.31,-466.564 591.847,-476.851 597.708,-473.024"/>
</g>
<!-- Node15 -->
<g id="node15" class="node"><title>Node15</title>
<g id="a_node15"><a xlink:href="_sync_8h.html" target="_top" xlink:title="Sync.h">
<polygon fill="white" stroke="black" points="339.5,-313.5 339.5,-332.5 388.5,-332.5 388.5,-313.5 339.5,-313.5"/>
<text text-anchor="middle" x="364" y="-320.5" font-family="Helvetica,sans-Serif" font-size="10.00">Sync.h</text>
</a>
</g>
</g>
<!-- Node9&#45;&gt;Node15 -->
<g id="edge59" class="edge"><title>Node9&#45;&gt;Node15</title>
<path fill="none" stroke="midnightblue" d="M788.74,-583.558C663.461,-580.511 318.975,-569.001 283,-534 230.342,-482.768 234.238,-431.41 273,-369 285.33,-349.147 309.301,-337.788 329.546,-331.449"/>
<polygon fill="midnightblue" stroke="midnightblue" points="330.748,-334.746 339.413,-328.65 328.838,-328.012 330.748,-334.746"/>
</g>
<!-- Node22 -->
<g id="node22" class="node"><title>Node22</title>
<g id="a_node22"><a xlink:href="_hard_config_8h.html" target="_top" xlink:title="HardConfig.h">
<polygon fill="white" stroke="black" points="706.5,-252 706.5,-271 785.5,-271 785.5,-252 706.5,-252"/>
<text text-anchor="middle" x="746" y="-259" font-family="Helvetica,sans-Serif" font-size="10.00">HardConfig.h</text>
</a>
</g>
</g>
<!-- Node9&#45;&gt;Node22 -->
<g id="edge60" class="edge"><title>Node9&#45;&gt;Node22</title>
<path fill="none" stroke="midnightblue" d="M853.38,-575.893C899.462,-554.21 1008.85,-494.858 969,-436 944.847,-400.326 917.369,-419.591 879,-400 829.363,-374.656 808.323,-376.11 773,-333 760.567,-317.826 753.443,-296.297 749.67,-281.03"/>
<polygon fill="midnightblue" stroke="midnightblue" points="753.072,-280.204 747.487,-271.201 746.238,-281.722 753.072,-280.204"/>
</g>
<!-- Node23 -->
<g id="node23" class="node"><title>Node23</title>
<g id="a_node23"><a xlink:href="_p_brake_light_8h.html" target="_top" xlink:title="runable/programs/PBrakeLight.h">
<polygon fill="white" stroke="black" points="432.5,-509 432.5,-528 603.5,-528 603.5,-509 432.5,-509"/>
<text text-anchor="middle" x="518" y="-516" font-family="Helvetica,sans-Serif" font-size="10.00">runable/programs/PBrakeLight.h</text>
</a>
</g>
</g>
<!-- Node9&#45;&gt;Node23 -->
<g id="edge38" class="edge"><title>Node9&#45;&gt;Node23</title>
<path fill="none" stroke="midnightblue" d="M792.364,-575.936C734.974,-564.131 631.622,-542.872 569.461,-530.085"/>
<polygon fill="midnightblue" stroke="midnightblue" points="569.977,-526.618 559.477,-528.032 568.567,-533.475 569.977,-526.618"/>
</g>
<!-- Node25 -->
<g id="node25" class="node"><title>Node25</title>
<g id="a_node25"><a xlink:href="_i_button_8h.html" target="_top" xlink:title="components/interface\l/IButton.h">
<polygon fill="white" stroke="black" points="660,-436.5 660,-466.5 782,-466.5 782,-436.5 660,-436.5"/>
<text text-anchor="start" x="668" y="-454.5" font-family="Helvetica,sans-Serif" font-size="10.00">components/interface</text>
<text text-anchor="middle" x="721" y="-443.5" font-family="Helvetica,sans-Serif" font-size="10.00">/IButton.h</text>
</a>
</g>
</g>
<!-- Node9&#45;&gt;Node25 -->
<g id="edge44" class="edge"><title>Node9&#45;&gt;Node25</title>
<path fill="none" stroke="midnightblue" d="M834.211,-575.919C834.166,-559.918 831.958,-525.149 815,-503 804.461,-489.235 789.067,-478.786 773.775,-471.067"/>
<polygon fill="midnightblue" stroke="midnightblue" points="774.85,-467.704 764.312,-466.609 771.866,-474.037 774.85,-467.704"/>
</g>
<!-- Node26 -->
<g id="node26" class="node"><title>Node26</title>
<g id="a_node26"><a xlink:href="_i_buzzer_8h.html" target="_top" xlink:title="components/interface\l/IBuzzer.h">
<polygon fill="white" stroke="black" points="888,-369.5 888,-399.5 1010,-399.5 1010,-369.5 888,-369.5"/>
<text text-anchor="start" x="896" y="-387.5" font-family="Helvetica,sans-Serif" font-size="10.00">components/interface</text>
<text text-anchor="middle" x="949" y="-376.5" font-family="Helvetica,sans-Serif" font-size="10.00">/IBuzzer.h</text>
</a>
</g>
</g>
<!-- Node9&#45;&gt;Node26 -->
<g id="edge48" class="edge"><title>Node9&#45;&gt;Node26</title>
<path fill="none" stroke="midnightblue" d="M879.045,-584.786C918.544,-582.335 973.922,-571.759 1002,-534 1027.99,-499.049 1019.15,-476.036 1002,-436 996.995,-424.318 987.813,-414.056 978.481,-405.889"/>
<polygon fill="midnightblue" stroke="midnightblue" points="980.656,-403.146 970.695,-399.535 976.23,-408.569 980.656,-403.146"/>
</g>
<!-- Node9&#45;&gt;Node27 -->
<g id="edge50" class="edge"><title>Node9&#45;&gt;Node27</title>
<path fill="none" stroke="midnightblue" d="M879.019,-583.337C921.08,-579.978 983.327,-568.889 1024,-534 1061.81,-501.57 1078.41,-442.999 1085.05,-409.936"/>
<polygon fill="midnightblue" stroke="midnightblue" points="1088.55,-410.247 1086.94,-399.776 1081.67,-408.968 1088.55,-410.247"/>
</g>
<!-- Node28 -->
<g id="node28" class="node"><title>Node28</title>
<g id="a_node28"><a xlink:href="_i_s_d_card_8h.html" target="_top" xlink:title="components/interface\l/ISDCard.h">
<polygon fill="white" stroke="black" points="1066,-179.5 1066,-209.5 1188,-209.5 1188,-179.5 1066,-179.5"/>
<text text-anchor="start" x="1074" y="-197.5" font-family="Helvetica,sans-Serif" font-size="10.00">components/interface</text>
<text text-anchor="middle" x="1127" y="-186.5" font-family="Helvetica,sans-Serif" font-size="10.00">/ISDCard.h</text>
</a>
</g>
</g>
<!-- Node9&#45;&gt;Node28 -->
<g id="edge54" class="edge"><title>Node9&#45;&gt;Node28</title>
<path fill="none" stroke="midnightblue" d="M879.326,-576.931C972.737,-560.047 1178,-515.748 1178,-452.5 1178,-452.5 1178,-452.5 1178,-322 1178,-283.365 1157.28,-242.594 1142.26,-218.102"/>
<polygon fill="midnightblue" stroke="midnightblue" points="1145.15,-216.12 1136.83,-209.551 1139.24,-219.87 1145.15,-216.12"/>
</g>
<!-- Node29 -->
<g id="node29" class="node"><title>Node29</title>
<g id="a_node29"><a xlink:href="_i_alive_8h.html" target="_top" xlink:title="components/interface\l/IAlive.h">
<polygon fill="white" stroke="black" points="292,-503.5 292,-533.5 414,-533.5 414,-503.5 292,-503.5"/>
<text text-anchor="start" x="300" y="-521.5" font-family="Helvetica,sans-Serif" font-size="10.00">components/interface</text>
<text text-anchor="middle" x="353" y="-510.5" font-family="Helvetica,sans-Serif" font-size="10.00">/IAlive.h</text>
</a>
</g>
</g>
<!-- Node9&#45;&gt;Node29 -->
<g id="edge57" class="edge"><title>Node9&#45;&gt;Node29</title>
<path fill="none" stroke="midnightblue" d="M788.823,-580.173C714.741,-572.811 562.639,-556.576 423.987,-534.079"/>
<polygon fill="midnightblue" stroke="midnightblue" points="424.463,-530.611 414.028,-532.449 423.331,-537.519 424.463,-530.611"/>
</g>
<!-- Node10&#45;&gt;Node3 -->
<g id="edge11" class="edge"><title>Node10&#45;&gt;Node3</title>
<path fill="none" stroke="midnightblue" d="M814.062,-313.374C813.717,-298.011 810.873,-265.68 794,-246 776.346,-225.409 748.732,-212.932 724.876,-205.533"/>
<polygon fill="midnightblue" stroke="midnightblue" points="725.843,-202.17 715.265,-202.756 723.9,-208.895 725.843,-202.17"/>
</g>
<!-- Node11&#45;&gt;Node2 -->
<g id="edge13" class="edge"><title>Node11&#45;&gt;Node2</title>
<path fill="none" stroke="midnightblue" d="M663.579,-503.475C619.593,-494.154 561.651,-481.073 511,-467 507.823,-466.117 504.535,-465.145 501.253,-464.135"/>
<polygon fill="midnightblue" stroke="midnightblue" points="502.132,-460.742 491.542,-461.043 500.008,-467.412 502.132,-460.742"/>
</g>
<!-- Node11&#45;&gt;Node12 -->
<g id="edge14" class="edge"><title>Node11&#45;&gt;Node12</title>
<path fill="none" stroke="midnightblue" d="M769.02,-503.396C793.818,-493.686 826.959,-480.709 853.57,-470.289"/>
<polygon fill="midnightblue" stroke="midnightblue" points="855.015,-473.482 863.051,-466.577 852.463,-466.964 855.015,-473.482"/>
</g>
<!-- Node11&#45;&gt;Node13 -->
<g id="edge16" class="edge"><title>Node11&#45;&gt;Node13</title>
<path fill="none" stroke="midnightblue" d="M700.018,-503.396C677.511,-493.771 647.497,-480.936 623.241,-470.564"/>
<polygon fill="midnightblue" stroke="midnightblue" points="624.488,-467.29 613.917,-466.577 621.736,-473.727 624.488,-467.29"/>
</g>
<!-- Node12&#45;&gt;Node4 -->
<g id="edge15" class="edge"><title>Node12&#45;&gt;Node4</title>
<path fill="none" stroke="midnightblue" d="M891.799,-436.336C887.169,-426.438 881.557,-412.76 879,-400 860.998,-310.158 867.449,-200.239 871.599,-152.515"/>
<polygon fill="midnightblue" stroke="midnightblue" points="875.086,-152.811 872.514,-142.534 868.116,-152.172 875.086,-152.811"/>
</g>
<!-- Node14 -->
<g id="node14" class="node"><title>Node14</title>
<g id="a_node14"><a xlink:href="_self_syncable_8h.html" target="_top" xlink:title="communication/SelfSyncable.h">
<polygon fill="white" stroke="black" points="282,-375 282,-394 446,-394 446,-375 282,-375"/>
<text text-anchor="middle" x="364" y="-382" font-family="Helvetica,sans-Serif" font-size="10.00">communication/SelfSyncable.h</text>
</a>
</g>
</g>
<!-- Node13&#45;&gt;Node14 -->
<g id="edge17" class="edge"><title>Node13&#45;&gt;Node14</title>
<path fill="none" stroke="midnightblue" d="M534.181,-436.476C494.777,-424.673 439.118,-408.001 402.322,-396.979"/>
<polygon fill="midnightblue" stroke="midnightblue" points="403.056,-393.545 392.473,-394.029 401.048,-400.251 403.056,-393.545"/>
</g>
<!-- Node14&#45;&gt;Node15 -->
<g id="edge18" class="edge"><title>Node14&#45;&gt;Node15</title>
<path fill="none" stroke="midnightblue" d="M364,-374.975C364,-366.58 364,-353.481 364,-342.663"/>
<polygon fill="midnightblue" stroke="midnightblue" points="367.5,-342.509 364,-332.509 360.5,-342.509 367.5,-342.509"/>
</g>
<!-- Node21 -->
<g id="node21" class="node"><title>Node21</title>
<g id="a_node21"><a xlink:href="_i_communication_8h.html" target="_top" xlink:title="components/interface\l/ICommunication.h">
<polygon fill="white" stroke="black" points="490,-246.5 490,-276.5 612,-276.5 612,-246.5 490,-246.5"/>
<text text-anchor="start" x="498" y="-264.5" font-family="Helvetica,sans-Serif" font-size="10.00">components/interface</text>
<text text-anchor="middle" x="551" y="-253.5" font-family="Helvetica,sans-Serif" font-size="10.00">/ICommunication.h</text>
</a>
</g>
</g>
<!-- Node14&#45;&gt;Node21 -->
<g id="edge37" class="edge"><title>Node14&#45;&gt;Node21</title>
<path fill="none" stroke="midnightblue" d="M377.149,-374.992C406.736,-355.847 479.188,-308.966 520.62,-282.158"/>
<polygon fill="midnightblue" stroke="midnightblue" points="522.716,-284.97 529.21,-276.599 518.913,-279.093 522.716,-284.97"/>
</g>
<!-- Node15&#45;&gt;Node3 -->
<g id="edge35" class="edge"><title>Node15&#45;&gt;Node3</title>
<path fill="none" stroke="midnightblue" d="M388.75,-320.082C445.386,-315.314 582.503,-301.508 621,-277 644.965,-261.744 661.67,-232.433 670.548,-213.436"/>
<polygon fill="midnightblue" stroke="midnightblue" points="673.834,-214.659 674.671,-204.097 667.43,-211.831 673.834,-214.659"/>
</g>
<!-- Node15&#45;&gt;Node4 -->
<g id="edge28" class="edge"><title>Node15&#45;&gt;Node4</title>
<path fill="none" stroke="midnightblue" d="M365.158,-313.408C367.707,-297.808 375.235,-264.711 395,-246 453.381,-190.732 683.832,-153.324 802.515,-137.311"/>
<polygon fill="midnightblue" stroke="midnightblue" points="803.151,-140.758 812.6,-135.966 802.225,-133.819 803.151,-140.758"/>
</g>
<!-- Node15&#45;&gt;Node5 -->
<g id="edge20" class="edge"><title>Node15&#45;&gt;Node5</title>
<path fill="none" stroke="midnightblue" d="M349.002,-313.46C300.27,-284.655 152.867,-188.594 212,-112 224.372,-95.9745 269.23,-84.5565 310.031,-77.2321"/>
<polygon fill="midnightblue" stroke="midnightblue" points="310.764,-80.6574 320.02,-75.5035 309.57,-73.7599 310.764,-80.6574"/>
</g>
<!-- Node16 -->
<g id="node16" class="node"><title>Node16</title>
<polygon fill="white" stroke="#bfbfbf" points="309.5,-118 309.5,-137 356.5,-137 356.5,-118 309.5,-118"/>
<text text-anchor="middle" x="333" y="-125" font-family="Helvetica,sans-Serif" font-size="10.00">vector</text>
</g>
<!-- Node15&#45;&gt;Node16 -->
<g id="edge19" class="edge"><title>Node15&#45;&gt;Node16</title>
<path fill="none" stroke="midnightblue" d="M359.18,-313.354C349.261,-295.006 326.838,-250.531 319,-210 314.796,-188.262 320.738,-163.138 326.127,-146.596"/>
<polygon fill="midnightblue" stroke="midnightblue" points="329.456,-147.682 329.477,-137.087 322.853,-145.356 329.456,-147.682"/>
</g>
<!-- Node17 -->
<g id="node17" class="node"><title>Node17</title>
<g id="a_node17"><a xlink:href="device_ids_8h.html" target="_top" xlink:title="deviceIds.h">
<polygon fill="white" stroke="black" points="221,-118 221,-137 291,-137 291,-118 221,-118"/>
<text text-anchor="middle" x="256" y="-125" font-family="Helvetica,sans-Serif" font-size="10.00">deviceIds.h</text>
</a>
</g>
</g>
<!-- Node15&#45;&gt;Node17 -->
<g id="edge21" class="edge"><title>Node15&#45;&gt;Node17</title>
<path fill="none" stroke="midnightblue" d="M355.396,-313.242C347.159,-304.549 334.73,-290.594 326,-277 297.73,-232.98 274.013,-175.743 262.853,-146.872"/>
<polygon fill="midnightblue" stroke="midnightblue" points="266.033,-145.386 259.208,-137.283 259.49,-147.874 266.033,-145.386"/>
</g>
<!-- Node18 -->
<g id="node18" class="node"><title>Node18</title>
<g id="a_node18"><a xlink:href="_car_message_8h.html" target="_top" xlink:title="CarMessage.h">
<polygon fill="white" stroke="black" points="328.5,-185 328.5,-204 413.5,-204 413.5,-185 328.5,-185"/>
<text text-anchor="middle" x="371" y="-192" font-family="Helvetica,sans-Serif" font-size="10.00">CarMessage.h</text>
</a>
</g>
</g>
<!-- Node15&#45;&gt;Node18 -->
<g id="edge22" class="edge"><title>Node15&#45;&gt;Node18</title>
<path fill="none" stroke="midnightblue" d="M363.503,-313.377C363.007,-304.322 362.281,-289.666 362,-277 361.694,-263.226 360.787,-259.724 362,-246 362.947,-235.288 365.003,-223.446 366.911,-213.923"/>
<polygon fill="midnightblue" stroke="midnightblue" points="370.361,-214.524 369.008,-204.016 363.513,-213.075 370.361,-214.524"/>
</g>
<!-- Node20 -->
<g id="node20" class="node"><title>Node20</title>
<g id="a_node20"><a xlink:href="_i_channel_8h.html" target="_top" xlink:title="IChannel.h">
<polygon fill="white" stroke="black" points="404.5,-252 404.5,-271 471.5,-271 471.5,-252 404.5,-252"/>
<text text-anchor="middle" x="438" y="-259" font-family="Helvetica,sans-Serif" font-size="10.00">IChannel.h</text>
</a>
</g>
</g>
<!-- Node15&#45;&gt;Node20 -->
<g id="edge29" class="edge"><title>Node15&#45;&gt;Node20</title>
<path fill="none" stroke="midnightblue" d="M374.602,-313.475C386.252,-304.108 405.186,-288.884 419.335,-277.508"/>
<polygon fill="midnightblue" stroke="midnightblue" points="421.817,-280.003 427.417,-271.009 417.431,-274.548 421.817,-280.003"/>
</g>
<!-- Node15&#45;&gt;Node21 -->
<g id="edge32" class="edge"><title>Node15&#45;&gt;Node21</title>
<path fill="none" stroke="midnightblue" d="M388.832,-314.099C416.258,-305.373 461.25,-291.057 496.895,-279.715"/>
<polygon fill="midnightblue" stroke="midnightblue" points="498.21,-282.97 506.678,-276.602 496.088,-276.299 498.21,-282.97"/>
</g>
<!-- Node15&#45;&gt;Node22 -->
<g id="edge36" class="edge"><title>Node15&#45;&gt;Node22</title>
<path fill="none" stroke="midnightblue" d="M388.83,-318.167C438.959,-310.425 555.841,-292.351 654,-277 667.621,-274.87 682.375,-272.55 695.996,-270.403"/>
<polygon fill="midnightblue" stroke="midnightblue" points="696.82,-273.817 706.153,-268.801 695.73,-266.902 696.82,-273.817"/>
</g>
<!-- Node18&#45;&gt;Node5 -->
<g id="edge27" class="edge"><title>Node18&#45;&gt;Node5</title>
<path fill="none" stroke="midnightblue" d="M391.511,-184.909C407.968,-176.783 429.926,-162.858 440,-143 446.234,-130.713 445.955,-124.424 440,-112 433.747,-98.9542 421.664,-88.4921 410.318,-80.9506"/>
<polygon fill="midnightblue" stroke="midnightblue" points="411.854,-77.7869 401.502,-75.5351 408.191,-83.7515 411.854,-77.7869"/>
</g>
<!-- Node18&#45;&gt;Node6 -->
<g id="edge25" class="edge"><title>Node18&#45;&gt;Node6</title>
<path fill="none" stroke="midnightblue" d="M395.098,-184.991C414.444,-176.987 440.943,-163.193 457,-143 481.757,-111.866 491.418,-93.4458 478,-56 474.059,-45.0027 466.143,-34.7688 458.64,-26.8479"/>
<polygon fill="midnightblue" stroke="midnightblue" points="461.019,-24.2784 451.438,-19.7555 456.108,-29.2659 461.019,-24.2784"/>
</g>
<!-- Node18&#45;&gt;Node16 -->
<g id="edge24" class="edge"><title>Node18&#45;&gt;Node16</title>
<path fill="none" stroke="midnightblue" d="M365.875,-184.734C360.063,-174.793 350.444,-158.338 343.108,-145.789"/>
<polygon fill="midnightblue" stroke="midnightblue" points="346.112,-143.994 338.044,-137.127 340.069,-147.527 346.112,-143.994"/>
</g>
<!-- Node18&#45;&gt;Node17 -->
<g id="edge26" class="edge"><title>Node18&#45;&gt;Node17</title>
<path fill="none" stroke="midnightblue" d="M355.491,-184.734C336.092,-173.769 302.674,-154.881 279.972,-142.049"/>
<polygon fill="midnightblue" stroke="midnightblue" points="281.692,-139.001 271.264,-137.127 278.247,-145.095 281.692,-139.001"/>
</g>
<!-- Node19 -->
<g id="node19" class="node"><title>Node19</title>
<polygon fill="white" stroke="#bfbfbf" points="374.5,-118 374.5,-137 431.5,-137 431.5,-118 374.5,-118"/>
<text text-anchor="middle" x="403" y="-125" font-family="Helvetica,sans-Serif" font-size="10.00">memory</text>
</g>
<!-- Node18&#45;&gt;Node19 -->
<g id="edge23" class="edge"><title>Node18&#45;&gt;Node19</title>
<path fill="none" stroke="midnightblue" d="M375.316,-184.734C380.162,-174.89 388.152,-158.66 394.306,-146.159"/>
<polygon fill="midnightblue" stroke="midnightblue" points="397.476,-147.645 398.753,-137.127 391.196,-144.553 397.476,-147.645"/>
</g>
<!-- Node20&#45;&gt;Node3 -->
<g id="edge31" class="edge"><title>Node20&#45;&gt;Node3</title>
<path fill="none" stroke="midnightblue" d="M462.458,-251.902C468.492,-249.878 474.957,-247.791 481,-246 532.18,-230.834 591.619,-215.968 631.71,-206.337"/>
<polygon fill="midnightblue" stroke="midnightblue" points="632.557,-209.733 641.469,-204.004 630.93,-202.925 632.557,-209.733"/>
</g>
<!-- Node20&#45;&gt;Node18 -->
<g id="edge30" class="edge"><title>Node20&#45;&gt;Node18</title>
<path fill="none" stroke="midnightblue" d="M428.964,-251.734C418.315,-241.403 400.415,-224.037 387.319,-211.332"/>
<polygon fill="midnightblue" stroke="midnightblue" points="389.507,-208.578 379.893,-204.127 384.633,-213.603 389.507,-208.578"/>
</g>
<!-- Node21&#45;&gt;Node4 -->
<g id="edge33" class="edge"><title>Node21&#45;&gt;Node4</title>
<path fill="none" stroke="midnightblue" d="M560.98,-246.186C574.731,-227.62 601.315,-195.648 632,-179 684.939,-150.278 752.558,-137.87 802.855,-132.522"/>
<polygon fill="midnightblue" stroke="midnightblue" points="803.388,-135.986 812.993,-131.514 802.696,-129.02 803.388,-135.986"/>
</g>
<!-- Node21&#45;&gt;Node18 -->
<g id="edge34" class="edge"><title>Node21&#45;&gt;Node18</title>
<path fill="none" stroke="midnightblue" d="M511.943,-246.396C479.801,-234.789 434.733,-218.515 404.284,-207.519"/>
<polygon fill="midnightblue" stroke="midnightblue" points="405.152,-204.112 394.558,-204.007 402.775,-210.695 405.152,-204.112"/>
</g>
<!-- Node23&#45;&gt;Node2 -->
<g id="edge39" class="edge"><title>Node23&#45;&gt;Node2</title>
<path fill="none" stroke="midnightblue" d="M511.122,-508.734C503.169,-498.598 489.903,-481.69 479.99,-469.056"/>
<polygon fill="midnightblue" stroke="midnightblue" points="482.696,-466.834 473.769,-461.127 477.188,-471.155 482.696,-466.834"/>
</g>
<!-- Node23&#45;&gt;Node13 -->
<g id="edge42" class="edge"><title>Node23&#45;&gt;Node13</title>
<path fill="none" stroke="midnightblue" d="M526.496,-508.734C535.093,-499.865 548.714,-485.811 560.188,-473.972"/>
<polygon fill="midnightblue" stroke="midnightblue" points="562.898,-476.206 567.344,-466.589 557.871,-471.334 562.898,-476.206"/>
</g>
<!-- Node23&#45;&gt;Node24 -->
<g id="edge40" class="edge"><title>Node23&#45;&gt;Node24</title>
<path fill="none" stroke="midnightblue" d="M496.089,-508.869C471.223,-499.073 429.991,-482.83 398.158,-470.29"/>
<polygon fill="midnightblue" stroke="midnightblue" points="399.197,-466.937 388.61,-466.528 396.631,-473.45 399.197,-466.937"/>
</g>
<!-- Node24&#45;&gt;Node14 -->
<g id="edge41" class="edge"><title>Node24&#45;&gt;Node14</title>
<path fill="none" stroke="midnightblue" d="M355.387,-436.396C356.983,-426.963 359.101,-414.448 360.837,-404.189"/>
<polygon fill="midnightblue" stroke="midnightblue" points="364.311,-404.638 362.529,-394.195 357.409,-403.47 364.311,-404.638"/>
</g>
<!-- Node25&#45;&gt;Node14 -->
<g id="edge45" class="edge"><title>Node25&#45;&gt;Node14</title>
<path fill="none" stroke="midnightblue" d="M659.938,-437.739C656.918,-437.143 653.925,-436.56 651,-436 573.306,-421.121 483.452,-405.578 425.277,-395.733"/>
<polygon fill="midnightblue" stroke="midnightblue" points="425.594,-392.237 415.151,-394.023 424.428,-399.14 425.594,-392.237"/>
</g>
<!-- Node25&#45;&gt;Node22 -->
<g id="edge46" class="edge"><title>Node25&#45;&gt;Node22</title>
<path fill="none" stroke="midnightblue" d="M722.879,-436.369C727.325,-402.938 738.49,-318.974 743.5,-281.304"/>
<polygon fill="midnightblue" stroke="midnightblue" points="746.993,-281.58 744.842,-271.206 740.055,-280.657 746.993,-281.58"/>
</g>
<!-- Node26&#45;&gt;Node4 -->
<g id="edge49" class="edge"><title>Node26&#45;&gt;Node4</title>
<path fill="none" stroke="midnightblue" d="M944.861,-369.427C932.593,-327.717 896.331,-204.427 880.986,-152.251"/>
<polygon fill="midnightblue" stroke="midnightblue" points="884.306,-151.136 878.126,-142.53 877.59,-153.111 884.306,-151.136"/>
</g>
<!-- Node27&#45;&gt;Node4 -->
<g id="edge51" class="edge"><title>Node27&#45;&gt;Node4</title>
<path fill="none" stroke="midnightblue" d="M1067.88,-369.376C1054.54,-359.919 1037.35,-346.726 1024,-333 993.779,-301.932 921.326,-197.702 889.472,-151.214"/>
<polygon fill="midnightblue" stroke="midnightblue" points="892.2,-149.004 883.666,-142.726 886.422,-152.956 892.2,-149.004"/>
</g>
<!-- Node27&#45;&gt;Node7 -->
<g id="edge52" class="edge"><title>Node27&#45;&gt;Node7</title>
<path fill="none" stroke="midnightblue" d="M1078.68,-369.414C1063.78,-347.644 1038,-303.99 1038,-262.5 1038,-262.5 1038,-262.5 1038,-193.5 1038,-155.202 1038,-110.383 1038,-85.6971"/>
<polygon fill="midnightblue" stroke="midnightblue" points="1041.5,-85.5894 1038,-75.5894 1034.5,-85.5895 1041.5,-85.5894"/>
</g>
<!-- Node28&#45;&gt;Node4 -->
<g id="edge56" class="edge"><title>Node28&#45;&gt;Node4</title>
<path fill="none" stroke="midnightblue" d="M1072.41,-179.476C1033.15,-169.387 980.032,-155.741 938.64,-145.107"/>
<polygon fill="midnightblue" stroke="midnightblue" points="939.48,-141.709 928.924,-142.611 937.739,-148.489 939.48,-141.709"/>
</g>
<!-- Node28&#45;&gt;Node8 -->
<g id="edge55" class="edge"><title>Node28&#45;&gt;Node8</title>
<path fill="none" stroke="midnightblue" d="M1127,-179.483C1127,-147.097 1127,-67.0368 1127,-30.1594"/>
<polygon fill="midnightblue" stroke="midnightblue" points="1130.5,-29.8187 1127,-19.8187 1123.5,-29.8188 1130.5,-29.8187"/>
</g>
<!-- Node29&#45;&gt;Node14 -->
<g id="edge58" class="edge"><title>Node29&#45;&gt;Node14</title>
<path fill="none" stroke="midnightblue" d="M321.658,-503.44C307.083,-495.105 291.191,-483.009 283,-467 276.724,-454.734 276.314,-448.047 283,-436 292.77,-418.395 311.512,-406.126 328.509,-398.093"/>
<polygon fill="midnightblue" stroke="midnightblue" points="329.952,-401.282 337.703,-394.059 327.14,-394.871 329.952,-401.282"/>
</g>
<!-- Node30&#45;&gt;Node14 -->
<g id="edge64" class="edge"><title>Node30&#45;&gt;Node14</title>
<path fill="none" stroke="midnightblue" d="M93.1394,-503.499C152.335,-477.71 277.742,-423.078 334.725,-398.254"/>
<polygon fill="midnightblue" stroke="midnightblue" points="336.45,-401.32 344.22,-394.117 333.654,-394.902 336.45,-401.32"/>
</g>
<!-- Node31&#45;&gt;Node30 -->
<g id="edge66" class="edge"><title>Node31&#45;&gt;Node30</title>
<path fill="none" stroke="midnightblue" d="M68.0471,-570.396C66.9621,-562.56 65.5825,-552.596 64.3321,-543.565"/>
<polygon fill="midnightblue" stroke="midnightblue" points="67.7876,-543.002 62.9491,-533.577 60.8537,-543.962 67.7876,-543.002"/>
</g>
</g>
</svg>
