<?xml version="1.0" encoding="UTF-8" standalone="no"?>
<!DOCTYPE svg PUBLIC "-//W3C//DTD SVG 1.1//EN"
 "http://www.w3.org/Graphics/SVG/1.1/DTD/svg11.dtd">
<!-- Generated by graphviz version 2.38.0 (20140413.2041)
 -->
<!-- Title: car/Bonnie2019/hardware/Pins_Display.h Pages: 1 -->
<svg width="632pt" height="106pt"
 viewBox="0.00 0.00 632.00 106.00" xmlns="http://www.w3.org/2000/svg" xmlns:xlink="http://www.w3.org/1999/xlink">
<g id="graph0" class="graph" transform="scale(1 1) rotate(0) translate(4 102)">
<title>car/Bonnie2019/hardware/Pins_Display.h</title>
<polygon fill="white" stroke="none" points="-4,4 -4,-102 628,-102 628,4 -4,4"/>
<!-- Node1 -->
<g id="node1" class="node"><title>Node1</title>
<polygon fill="#bfbfbf" stroke="black" points="249,-67.5 249,-97.5 388,-97.5 388,-67.5 249,-67.5"/>
<text text-anchor="start" x="257" y="-85.5" font-family="Helvetica,sans-Serif" font-size="10.00">car/Bonnie2019/hardware</text>
<text text-anchor="middle" x="318.5" y="-74.5" font-family="Helvetica,sans-Serif" font-size="10.00">/Pins_Display.h</text>
</g>
<!-- Node2 -->
<g id="node2" class="node"><title>Node2</title>
<g id="a_node2"><a xlink:href="_display_slave_conf_8h.html" target="_top" xlink:title="car/Bonnie2019/DisplaySlave\lConf.h">
<polygon fill="white" stroke="black" points="0,-0.5 0,-30.5 155,-30.5 155,-0.5 0,-0.5"/>
<text text-anchor="start" x="8" y="-18.5" font-family="Helvetica,sans-Serif" font-size="10.00">car/Bonnie2019/DisplaySlave</text>
<text text-anchor="middle" x="77.5" y="-7.5" font-family="Helvetica,sans-Serif" font-size="10.00">Conf.h</text>
</a>
</g>
</g>
<!-- Node1&#45;&gt;Node2 -->
<g id="edge1" class="edge"><title>Node1&#45;&gt;Node2</title>
<path fill="none" stroke="midnightblue" d="M256.766,-64.8498C217.474,-54.2523 167.143,-40.6775 129.819,-30.6109"/>
<polygon fill="midnightblue" stroke="midnightblue" points="255.937,-68.2511 266.503,-67.476 257.76,-61.4926 255.937,-68.2511"/>
</g>
<!-- Node3 -->
<g id="node3" class="node"><title>Node3</title>
<g id="a_node3"><a xlink:href="_basic_display_test_8h.html" target="_top" xlink:title="car/hardwareTest/arduino\l/BasicDisplayTest.h">
<polygon fill="white" stroke="black" points="173,-0.5 173,-30.5 310,-30.5 310,-0.5 173,-0.5"/>
<text text-anchor="start" x="181" y="-18.5" font-family="Helvetica,sans-Serif" font-size="10.00">car/hardwareTest/arduino</text>
<text text-anchor="middle" x="241.5" y="-7.5" font-family="Helvetica,sans-Serif" font-size="10.00">/BasicDisplayTest.h</text>
</a>
</g>
</g>
<!-- Node1&#45;&gt;Node3 -->
<g id="edge2" class="edge"><title>Node1&#45;&gt;Node3</title>
<path fill="none" stroke="midnightblue" d="M294.077,-60.8832C282.376,-51.0054 268.662,-39.4293 258.175,-30.5765"/>
<polygon fill="midnightblue" stroke="midnightblue" points="291.893,-63.6199 301.792,-67.396 296.408,-58.2709 291.893,-63.6199"/>
</g>
<!-- Node4 -->
<g id="node4" class="node"><title>Node4</title>
<g id="a_node4"><a xlink:href="_display_logo_test_8h.html" target="_top" xlink:title="car/hardwareTest/arduino\l/DisplayLogoTest.h">
<polygon fill="white" stroke="black" points="328,-0.5 328,-30.5 465,-30.5 465,-0.5 328,-0.5"/>
<text text-anchor="start" x="336" y="-18.5" font-family="Helvetica,sans-Serif" font-size="10.00">car/hardwareTest/arduino</text>
<text text-anchor="middle" x="396.5" y="-7.5" font-family="Helvetica,sans-Serif" font-size="10.00">/DisplayLogoTest.h</text>
</a>
</g>
</g>
<!-- Node1&#45;&gt;Node4 -->
<g id="edge3" class="edge"><title>Node1&#45;&gt;Node4</title>
<path fill="none" stroke="midnightblue" d="M343.24,-60.8832C355.093,-51.0054 368.985,-39.4293 379.608,-30.5765"/>
<polygon fill="midnightblue" stroke="midnightblue" points="340.866,-58.3053 335.425,-67.396 345.348,-63.6829 340.866,-58.3053"/>
</g>
<!-- Node5 -->
<g id="node5" class="node"><title>Node5</title>
<g id="a_node5"><a xlink:href="_touch_display_calibration_8h.html" target="_top" xlink:title="car/hardwareTest/arduino\l/TouchDisplayCalibration.h">
<polygon fill="white" stroke="black" points="483,-0.5 483,-30.5 624,-30.5 624,-0.5 483,-0.5"/>
<text text-anchor="start" x="491" y="-18.5" font-family="Helvetica,sans-Serif" font-size="10.00">car/hardwareTest/arduino</text>
<text text-anchor="middle" x="553.5" y="-7.5" font-family="Helvetica,sans-Serif" font-size="10.00">/TouchDisplayCalibration.h</text>
</a>
</g>
</g>
<!-- Node1&#45;&gt;Node5 -->
<g id="edge4" class="edge"><title>Node1&#45;&gt;Node5</title>
<path fill="none" stroke="midnightblue" d="M379.184,-64.7149C417.427,-54.1373 466.243,-40.6348 502.484,-30.6109"/>
<polygon fill="midnightblue" stroke="midnightblue" points="377.907,-61.4367 369.202,-67.476 379.773,-68.1834 377.907,-61.4367"/>
</g>
</g>
</svg>
