<?xml version="1.0" encoding="UTF-8" standalone="no"?>
<!DOCTYPE svg PUBLIC "-//W3C//DTD SVG 1.1//EN"
 "http://www.w3.org/Graphics/SVG/1.1/DTD/svg11.dtd">
<!-- Generated by graphviz version 2.38.0 (20140413.2041)
 -->
<!-- Title: car/Bonnie2019/hardware/Pins_Master_PCB.h Pages: 1 -->
<svg width="492pt" height="106pt"
 viewBox="0.00 0.00 491.50 106.00" xmlns="http://www.w3.org/2000/svg" xmlns:xlink="http://www.w3.org/1999/xlink">
<g id="graph0" class="graph" transform="scale(1 1) rotate(0) translate(4 102)">
<title>car/Bonnie2019/hardware/Pins_Master_PCB.h</title>
<polygon fill="white" stroke="none" points="-4,4 -4,-102 487.5,-102 487.5,4 -4,4"/>
<!-- Node1 -->
<g id="node1" class="node"><title>Node1</title>
<polygon fill="#bfbfbf" stroke="black" points="170.5,-67.5 170.5,-97.5 309.5,-97.5 309.5,-67.5 170.5,-67.5"/>
<text text-anchor="start" x="178.5" y="-85.5" font-family="Helvetica,sans-Serif" font-size="10.00">car/Bonnie2019/hardware</text>
<text text-anchor="middle" x="240" y="-74.5" font-family="Helvetica,sans-Serif" font-size="10.00">/Pins_Master_PCB.h</text>
</g>
<!-- Node2 -->
<g id="node2" class="node"><title>Node2</title>
<g id="a_node2"><a xlink:href="_master_conf_8h.html" target="_top" xlink:title="car/Bonnie2019/MasterConf.h">
<polygon fill="white" stroke="black" points="0,-6 0,-25 158,-25 158,-6 0,-6"/>
<text text-anchor="middle" x="79" y="-13" font-family="Helvetica,sans-Serif" font-size="10.00">car/Bonnie2019/MasterConf.h</text>
</a>
</g>
</g>
<!-- Node1&#45;&gt;Node2 -->
<g id="edge1" class="edge"><title>Node1&#45;&gt;Node2</title>
<path fill="none" stroke="midnightblue" d="M195.716,-63.6214C164.554,-51.0403 124.244,-34.7661 100.071,-25.007"/>
<polygon fill="midnightblue" stroke="midnightblue" points="194.482,-66.8977 205.065,-67.396 197.103,-60.4067 194.482,-66.8977"/>
</g>
<!-- Node3 -->
<g id="node3" class="node"><title>Node3</title>
<g id="a_node3"><a xlink:href="_master_output_test_8h.html" target="_top" xlink:title="car/hardwareTest/mbed\l/MasterOutputTest.h">
<polygon fill="white" stroke="black" points="176,-0.5 176,-30.5 304,-30.5 304,-0.5 176,-0.5"/>
<text text-anchor="start" x="184" y="-18.5" font-family="Helvetica,sans-Serif" font-size="10.00">car/hardwareTest/mbed</text>
<text text-anchor="middle" x="240" y="-7.5" font-family="Helvetica,sans-Serif" font-size="10.00">/MasterOutputTest.h</text>
</a>
</g>
</g>
<!-- Node1&#45;&gt;Node3 -->
<g id="edge2" class="edge"><title>Node1&#45;&gt;Node3</title>
<path fill="none" stroke="midnightblue" d="M240,-57.1081C240,-48.1539 240,-38.3227 240,-30.5765"/>
<polygon fill="midnightblue" stroke="midnightblue" points="236.5,-57.3959 240,-67.396 243.5,-57.396 236.5,-57.3959"/>
</g>
<!-- Node4 -->
<g id="node4" class="node"><title>Node4</title>
<g id="a_node4"><a xlink:href="_master_p_c_b_error_storage_test_8h.html" target="_top" xlink:title="car/hardwareTest/mbed\l/MasterPCBErrorStorageTest.h">
<polygon fill="white" stroke="black" points="322.5,-0.5 322.5,-30.5 483.5,-30.5 483.5,-0.5 322.5,-0.5"/>
<text text-anchor="start" x="330.5" y="-18.5" font-family="Helvetica,sans-Serif" font-size="10.00">car/hardwareTest/mbed</text>
<text text-anchor="middle" x="403" y="-7.5" font-family="Helvetica,sans-Serif" font-size="10.00">/MasterPCBErrorStorageTest.h</text>
</a>
</g>
</g>
<!-- Node1&#45;&gt;Node4 -->
<g id="edge3" class="edge"><title>Node1&#45;&gt;Node4</title>
<path fill="none" stroke="midnightblue" d="M284.683,-63.6815C310.825,-53.2568 343.366,-40.2805 367.7,-30.5765"/>
<polygon fill="midnightblue" stroke="midnightblue" points="283.361,-60.4408 275.369,-67.396 285.954,-66.9429 283.361,-60.4408"/>
</g>
</g>
</svg>
