<?xml version="1.0" encoding="UTF-8" standalone="no"?>
<!DOCTYPE svg PUBLIC "-//W3C//DTD SVG 1.1//EN"
 "http://www.w3.org/Graphics/SVG/1.1/DTD/svg11.dtd">
<!-- Generated by graphviz version 2.38.0 (20140413.2041)
 -->
<!-- Title: car/Bonnie2019/hardware/Pins_Pedal_NEW_PCB.h Pages: 1 -->
<svg width="316pt" height="106pt"
 viewBox="0.00 0.00 315.50 106.00" xmlns="http://www.w3.org/2000/svg" xmlns:xlink="http://www.w3.org/1999/xlink">
<g id="graph0" class="graph" transform="scale(1 1) rotate(0) translate(4 102)">
<title>car/Bonnie2019/hardware/Pins_Pedal_NEW_PCB.h</title>
<polygon fill="white" stroke="none" points="-4,4 -4,-102 311.5,-102 311.5,4 -4,4"/>
<!-- Node1 -->
<g id="node1" class="node"><title>Node1</title>
<polygon fill="#bfbfbf" stroke="black" points="85,-67.5 85,-97.5 224,-97.5 224,-67.5 85,-67.5"/>
<text text-anchor="start" x="93" y="-85.5" font-family="Helvetica,sans-Serif" font-size="10.00">car/Bonnie2019/hardware</text>
<text text-anchor="middle" x="154.5" y="-74.5" font-family="Helvetica,sans-Serif" font-size="10.00">/Pins_Pedal_NEW_PCB.h</text>
</g>
<!-- Node2 -->
<g id="node2" class="node"><title>Node2</title>
<g id="a_node2"><a xlink:href="_pedal_slave_conf_8h.html" target="_top" xlink:title="car/Bonnie2019/PedalSlave\lConf.h">
<polygon fill="white" stroke="black" points="0,-0.5 0,-30.5 147,-30.5 147,-0.5 0,-0.5"/>
<text text-anchor="start" x="8" y="-18.5" font-family="Helvetica,sans-Serif" font-size="10.00">car/Bonnie2019/PedalSlave</text>
<text text-anchor="middle" x="73.5" y="-7.5" font-family="Helvetica,sans-Serif" font-size="10.00">Conf.h</text>
</a>
</g>
</g>
<!-- Node1&#45;&gt;Node2 -->
<g id="edge1" class="edge"><title>Node1&#45;&gt;Node2</title>
<path fill="none" stroke="midnightblue" d="M128.808,-60.8832C116.499,-51.0054 102.073,-39.4293 91.0415,-30.5765"/>
<polygon fill="midnightblue" stroke="midnightblue" points="126.934,-63.867 136.924,-67.396 131.315,-58.4075 126.934,-63.867"/>
</g>
<!-- Node3 -->
<g id="node3" class="node"><title>Node3</title>
<g id="a_node3"><a xlink:href="_pedal_magnet_calibration_8h.html" target="_top" xlink:title="car/hardwareTest/mbed\l/PedalMagnetCalibration.h">
<polygon fill="white" stroke="black" points="165.5,-0.5 165.5,-30.5 307.5,-30.5 307.5,-0.5 165.5,-0.5"/>
<text text-anchor="start" x="173.5" y="-18.5" font-family="Helvetica,sans-Serif" font-size="10.00">car/hardwareTest/mbed</text>
<text text-anchor="middle" x="236.5" y="-7.5" font-family="Helvetica,sans-Serif" font-size="10.00">/PedalMagnetCalibration.h</text>
</a>
</g>
</g>
<!-- Node1&#45;&gt;Node3 -->
<g id="edge2" class="edge"><title>Node1&#45;&gt;Node3</title>
<path fill="none" stroke="midnightblue" d="M180.15,-61.1677C192.689,-51.2283 207.466,-39.5144 218.742,-30.5765"/>
<polygon fill="midnightblue" stroke="midnightblue" points="177.955,-58.4412 172.293,-67.396 182.304,-63.9268 177.955,-58.4412"/>
</g>
</g>
</svg>
