<?xml version="1.0" encoding="UTF-8" standalone="no"?>
<!DOCTYPE svg PUBLIC "-//W3C//DTD SVG 1.1//EN"
 "http://www.w3.org/Graphics/SVG/1.1/DTD/svg11.dtd">
<!-- Generated by graphviz version 2.38.0 (20140413.2041)
 -->
<!-- Title: lib/carpi/src/runable/services/SCar.h Pages: 1 -->
<!--zoomable 609 -->
<svg id="main" version="1.1" xmlns="http://www.w3.org/2000/svg" xmlns:xlink="http://www.w3.org/1999/xlink" xml:space="preserve" onload="init(evt)">
<style type="text/css"><![CDATA[
.edge:hover path { stroke: red; }
.edge:hover polygon { stroke: red; fill: red; }
]]></style>
<script type="text/javascript"><![CDATA[
var edges = document.getElementsByTagName('g');
if (edges && edges.length) {
  for (var i=0;i<edges.length;i++) {
    if (edges[i].id.substr(0,4)=='edge') {
      edges[i].setAttribute('class','edge');
    }
  }
}
]]></script>
        <defs>
                <circle id="rim" cx="0" cy="0" r="7"/>
                <circle id="rim2" cx="0" cy="0" r="3.5"/>
                <g id="zoomPlus">
                        <use xlink:href="#rim" fill="#404040">
                                <set attributeName="fill" to="#808080" begin="zoomplus.mouseover" end="zoomplus.mouseout"/>
                        </use>
                        <path d="M-4,0h8M0,-4v8" fill="none" stroke="white" stroke-width="1.5" pointer-events="none"/>
                </g>
                <g id="zoomMin">
                        <use xlink:href="#rim" fill="#404040">
                                <set attributeName="fill" to="#808080" begin="zoomminus.mouseover" end="zoomminus.mouseout"/>
                        </use>
                        <path d="M-4,0h8" fill="none" stroke="white" stroke-width="1.5" pointer-events="none"/>
                </g>
                <g id="dirArrow">
                        <path fill="none" stroke="white" stroke-width="1.5" d="M0,-3.0v7 M-2.5,-0.5L0,-3.0L2.5,-0.5"/>
                </g>
               <g id="resetDef">
                       <use xlink:href="#rim2" fill="#404040">
                               <set attributeName="fill" to="#808080" begin="reset.mouseover" end="reset.mouseout"/>
                       </use>
               </g>
        </defs>

<script type="text/javascript">
var viewWidth = 1052;
var viewHeight = 609;
var sectionId = 'dynsection-0';
</script>
<script xlink:href="svgpan.js"/>
<svg id="graph" class="graph">
<g id="viewport">
<title>lib/carpi/src/runable/services/SCar.h</title>
<polygon fill="white" stroke="none" points="-4,4 -4,-605 1048.29,-605 1048.29,4 -4,4"/>
<!-- Node1 -->
<g id="node1" class="node"><title>Node1</title>
<polygon fill="#bfbfbf" stroke="black" points="590.294,-570.5 590.294,-600.5 700.294,-600.5 700.294,-570.5 590.294,-570.5"/>
<text text-anchor="start" x="598.294" y="-588.5" font-family="Helvetica,sans-Serif" font-size="10.00">lib/carpi/src/runable</text>
<text text-anchor="middle" x="645.294" y="-577.5" font-family="Helvetica,sans-Serif" font-size="10.00">/services/SCar.h</text>
</g>
<!-- Node2 -->
<g id="node2" class="node"><title>Node2</title>
<polygon fill="white" stroke="#bfbfbf" points="933.294,-0.5 933.294,-19.5 977.294,-19.5 977.294,-0.5 933.294,-0.5"/>
<text text-anchor="middle" x="955.294" y="-7.5" font-family="Helvetica,sans-Serif" font-size="10.00">string</text>
</g>
<!-- Node1&#45;&gt;Node2 -->
<g id="edge1" class="edge"><title>Node1&#45;&gt;Node2</title>
<path fill="none" stroke="midnightblue" d="M700.412,-582.972C761.266,-579.511 860.98,-568.512 939.294,-534 993.352,-510.177 1044.29,-511.575 1044.29,-452.5 1044.29,-452.5 1044.29,-452.5 1044.29,-126.5 1044.29,-82.6048 1003.46,-45.1835 977.112,-25.6046"/>
<polygon fill="midnightblue" stroke="midnightblue" points="978.98,-22.6378 968.811,-19.6653 974.907,-28.3307 978.98,-22.6378"/>
</g>
<!-- Node3 -->
<g id="node3" class="node"><title>Node3</title>
<g id="a_node3"><a xlink:href="_i_service_8h.html" target="_top" xlink:title="IService.h">
<polygon fill="white" stroke="black" points="743.794,-380.5 743.794,-399.5 806.794,-399.5 806.794,-380.5 743.794,-380.5"/>
<text text-anchor="middle" x="775.294" y="-387.5" font-family="Helvetica,sans-Serif" font-size="10.00">IService.h</text>
</a>
</g>
</g>
<!-- Node1&#45;&gt;Node3 -->
<g id="edge2" class="edge"><title>Node1&#45;&gt;Node3</title>
<path fill="none" stroke="midnightblue" d="M700.358,-578.325C728.64,-572.047 760.761,-559.412 778.294,-534 804.303,-496.303 791.278,-438.698 781.964,-409.439"/>
<polygon fill="midnightblue" stroke="midnightblue" points="785.191,-408.059 778.664,-399.713 778.562,-410.307 785.191,-408.059"/>
</g>
<!-- Node6 -->
<g id="node6" class="node"><title>Node6</title>
<g id="a_node6"><a xlink:href="component_ids_8h.html" target="_top" xlink:title="communication/componentIds.h">
<polygon fill="white" stroke="black" points="225.794,-56.5 225.794,-75.5 396.794,-75.5 396.794,-56.5 225.794,-56.5"/>
<text text-anchor="middle" x="311.294" y="-63.5" font-family="Helvetica,sans-Serif" font-size="10.00">communication/componentIds.h</text>
</a>
</g>
</g>
<!-- Node1&#45;&gt;Node6 -->
<g id="edge41" class="edge"><title>Node1&#45;&gt;Node6</title>
<path fill="none" stroke="midnightblue" d="M590.145,-583.693C445.591,-581.074 63.9025,-570.716 21.2939,-534 -6.88176,-509.721 2.29392,-489.694 2.29392,-452.5 2.29392,-452.5 2.29392,-452.5 2.29392,-193.5 2.29392,-155.981 -3.63065,-137.057 24.2939,-112 52.0342,-87.1079 143.406,-75.9588 215.689,-70.9809"/>
<polygon fill="midnightblue" stroke="midnightblue" points="216.005,-74.4678 225.753,-70.3187 215.545,-67.4829 216.005,-74.4678"/>
</g>
<!-- Node9 -->
<g id="node9" class="node"><title>Node9</title>
<g id="a_node9"><a xlink:href="_p_cockpit_indicator_8h.html" target="_top" xlink:title="runable/programs/PCockpit\lIndicator.h">
<polygon fill="white" stroke="black" points="439.294,-503.5 439.294,-533.5 585.294,-533.5 585.294,-503.5 439.294,-503.5"/>
<text text-anchor="start" x="447.294" y="-521.5" font-family="Helvetica,sans-Serif" font-size="10.00">runable/programs/PCockpit</text>
<text text-anchor="middle" x="512.294" y="-510.5" font-family="Helvetica,sans-Serif" font-size="10.00">Indicator.h</text>
</a>
</g>
</g>
<!-- Node1&#45;&gt;Node9 -->
<g id="edge9" class="edge"><title>Node1&#45;&gt;Node9</title>
<path fill="none" stroke="midnightblue" d="M616.435,-570.396C597.002,-560.899 571.175,-548.276 550.103,-537.978"/>
<polygon fill="midnightblue" stroke="midnightblue" points="551.618,-534.823 541.097,-533.577 548.544,-541.112 551.618,-534.823"/>
</g>
<!-- Node11 -->
<g id="node11" class="node"><title>Node11</title>
<g id="a_node11"><a xlink:href="_i_hv_enabled_8h.html" target="_top" xlink:title="components/interface\l/IHvEnabled.h">
<polygon fill="white" stroke="black" points="474.294,-436.5 474.294,-466.5 596.294,-466.5 596.294,-436.5 474.294,-436.5"/>
<text text-anchor="start" x="482.294" y="-454.5" font-family="Helvetica,sans-Serif" font-size="10.00">components/interface</text>
<text text-anchor="middle" x="535.294" y="-443.5" font-family="Helvetica,sans-Serif" font-size="10.00">/IHvEnabled.h</text>
</a>
</g>
</g>
<!-- Node1&#45;&gt;Node11 -->
<g id="edge51" class="edge"><title>Node1&#45;&gt;Node11</title>
<path fill="none" stroke="midnightblue" d="M638.164,-570.366C629.225,-553.385 612.812,-524.5 594.294,-503 584.99,-492.198 573.307,-481.704 562.797,-473.107"/>
<polygon fill="midnightblue" stroke="midnightblue" points="564.691,-470.141 554.688,-466.649 560.33,-475.616 564.691,-470.141"/>
</g>
<!-- Node12 -->
<g id="node12" class="node"><title>Node12</title>
<g id="a_node12"><a xlink:href="_i_led_8h.html" target="_top" xlink:title="components/interface\l/ILed.h">
<polygon fill="white" stroke="black" points="208.294,-436.5 208.294,-466.5 330.294,-466.5 330.294,-436.5 208.294,-436.5"/>
<text text-anchor="start" x="216.294" y="-454.5" font-family="Helvetica,sans-Serif" font-size="10.00">components/interface</text>
<text text-anchor="middle" x="269.294" y="-443.5" font-family="Helvetica,sans-Serif" font-size="10.00">/ILed.h</text>
</a>
</g>
</g>
<!-- Node1&#45;&gt;Node12 -->
<g id="edge45" class="edge"><title>Node1&#45;&gt;Node12</title>
<path fill="none" stroke="midnightblue" d="M590.084,-582.289C476.462,-577.172 224.924,-562.696 199.294,-534 180.652,-513.128 207.907,-488.726 233.663,-472.102"/>
<polygon fill="midnightblue" stroke="midnightblue" points="235.607,-475.015 242.271,-466.779 231.925,-469.061 235.607,-475.015"/>
</g>
<!-- Node14 -->
<g id="node14" class="node"><title>Node14</title>
<g id="a_node14"><a xlink:href="_sync_8h.html" target="_top" xlink:title="Sync.h">
<polygon fill="white" stroke="black" points="324.794,-319 324.794,-338 373.794,-338 373.794,-319 324.794,-319"/>
<text text-anchor="middle" x="349.294" y="-326" font-family="Helvetica,sans-Serif" font-size="10.00">Sync.h</text>
</a>
</g>
</g>
<!-- Node1&#45;&gt;Node14 -->
<g id="edge57" class="edge"><title>Node1&#45;&gt;Node14</title>
<path fill="none" stroke="midnightblue" d="M590.202,-581.562C544.306,-576.884 478.834,-564.848 430.294,-534 365.639,-492.911 352.575,-390.643 349.949,-348.309"/>
<polygon fill="midnightblue" stroke="midnightblue" points="353.442,-348.087 349.458,-338.27 346.45,-348.429 353.442,-348.087"/>
</g>
<!-- Node21 -->
<g id="node21" class="node"><title>Node21</title>
<g id="a_node21"><a xlink:href="_hard_config_8h.html" target="_top" xlink:title="HardConfig.h">
<polygon fill="white" stroke="black" points="631.794,-252 631.794,-271 710.794,-271 710.794,-252 631.794,-252"/>
<text text-anchor="middle" x="671.294" y="-259" font-family="Helvetica,sans-Serif" font-size="10.00">HardConfig.h</text>
</a>
</g>
</g>
<!-- Node1&#45;&gt;Node21 -->
<g id="edge58" class="edge"><title>Node1&#45;&gt;Node21</title>
<path fill="none" stroke="midnightblue" d="M663.718,-570.21C687.854,-550.19 729.015,-511.245 745.294,-467 750.051,-454.07 748.052,-449.499 745.294,-436 738.822,-404.327 698.317,-318.309 680.124,-280.612"/>
<polygon fill="midnightblue" stroke="midnightblue" points="683.143,-278.817 675.631,-271.346 676.844,-281.871 683.143,-278.817"/>
</g>
<!-- Node22 -->
<g id="node22" class="node"><title>Node22</title>
<g id="a_node22"><a xlink:href="_p_brake_light_8h.html" target="_top" xlink:title="runable/programs/PBrakeLight.h">
<polygon fill="white" stroke="black" points="208.794,-509 208.794,-528 379.794,-528 379.794,-509 208.794,-509"/>
<text text-anchor="middle" x="294.294" y="-516" font-family="Helvetica,sans-Serif" font-size="10.00">runable/programs/PBrakeLight.h</text>
</a>
</g>
</g>
<!-- Node1&#45;&gt;Node22 -->
<g id="edge36" class="edge"><title>Node1&#45;&gt;Node22</title>
<path fill="none" stroke="midnightblue" d="M590.064,-574.272C524.642,-562.157 416.256,-542.086 350.437,-529.897"/>
<polygon fill="midnightblue" stroke="midnightblue" points="350.722,-526.39 340.252,-528.011 349.448,-533.273 350.722,-526.39"/>
</g>
<!-- Node24 -->
<g id="node24" class="node"><title>Node24</title>
<g id="a_node24"><a xlink:href="_i_button_8h.html" target="_top" xlink:title="components/interface\l/IButton.h">
<polygon fill="white" stroke="black" points="614.294,-436.5 614.294,-466.5 736.294,-466.5 736.294,-436.5 614.294,-436.5"/>
<text text-anchor="start" x="622.294" y="-454.5" font-family="Helvetica,sans-Serif" font-size="10.00">components/interface</text>
<text text-anchor="middle" x="675.294" y="-443.5" font-family="Helvetica,sans-Serif" font-size="10.00">/IButton.h</text>
</a>
</g>
</g>
<!-- Node1&#45;&gt;Node24 -->
<g id="edge42" class="edge"><title>Node1&#45;&gt;Node24</title>
<path fill="none" stroke="midnightblue" d="M648.504,-570.374C653.602,-547.945 663.607,-503.924 669.843,-476.486"/>
<polygon fill="midnightblue" stroke="midnightblue" points="673.303,-477.052 672.106,-466.525 666.477,-475.5 673.303,-477.052"/>
</g>
<!-- Node25 -->
<g id="node25" class="node"><title>Node25</title>
<g id="a_node25"><a xlink:href="_i_buzzer_8h.html" target="_top" xlink:title="components/interface\l/IBuzzer.h">
<polygon fill="white" stroke="black" points="767.294,-313.5 767.294,-343.5 889.294,-343.5 889.294,-313.5 767.294,-313.5"/>
<text text-anchor="start" x="775.294" y="-331.5" font-family="Helvetica,sans-Serif" font-size="10.00">components/interface</text>
<text text-anchor="middle" x="828.294" y="-320.5" font-family="Helvetica,sans-Serif" font-size="10.00">/IBuzzer.h</text>
</a>
</g>
</g>
<!-- Node1&#45;&gt;Node25 -->
<g id="edge46" class="edge"><title>Node1&#45;&gt;Node25</title>
<path fill="none" stroke="midnightblue" d="M700.386,-580.715C734.021,-575.382 775.08,-562.9 799.294,-534 842.737,-482.149 837.902,-395.671 832.35,-353.753"/>
<polygon fill="midnightblue" stroke="midnightblue" points="835.782,-353.032 830.878,-343.64 828.855,-354.04 835.782,-353.032"/>
</g>
<!-- Node26 -->
<g id="node26" class="node"><title>Node26</title>
<g id="a_node26"><a xlink:href="_i_motor_controller_8h.html" target="_top" xlink:title="components/interface\l/IMotorController.h">
<polygon fill="white" stroke="black" points="754.294,-179.5 754.294,-209.5 876.294,-209.5 876.294,-179.5 754.294,-179.5"/>
<text text-anchor="start" x="762.294" y="-197.5" font-family="Helvetica,sans-Serif" font-size="10.00">components/interface</text>
<text text-anchor="middle" x="815.294" y="-186.5" font-family="Helvetica,sans-Serif" font-size="10.00">/IMotorController.h</text>
</a>
</g>
</g>
<!-- Node1&#45;&gt;Node26 -->
<g id="edge48" class="edge"><title>Node1&#45;&gt;Node26</title>
<path fill="none" stroke="midnightblue" d="M700.337,-581.735C779.816,-574.445 917.294,-548.03 917.294,-452.5 917.294,-452.5 917.294,-452.5 917.294,-327.5 917.294,-279.85 875.161,-238.925 845.054,-215.763"/>
<polygon fill="midnightblue" stroke="midnightblue" points="847.036,-212.876 836.925,-209.71 842.856,-218.49 847.036,-212.876"/>
</g>
<!-- Node27 -->
<g id="node27" class="node"><title>Node27</title>
<g id="a_node27"><a xlink:href="_i_s_d_card_8h.html" target="_top" xlink:title="components/interface\l/ISDCard.h">
<polygon fill="white" stroke="black" points="894.294,-179.5 894.294,-209.5 1016.29,-209.5 1016.29,-179.5 894.294,-179.5"/>
<text text-anchor="start" x="902.294" y="-197.5" font-family="Helvetica,sans-Serif" font-size="10.00">components/interface</text>
<text text-anchor="middle" x="955.294" y="-186.5" font-family="Helvetica,sans-Serif" font-size="10.00">/ISDCard.h</text>
</a>
</g>
</g>
<!-- Node1&#45;&gt;Node27 -->
<g id="edge52" class="edge"><title>Node1&#45;&gt;Node27</title>
<path fill="none" stroke="midnightblue" d="M700.358,-584.752C789.44,-581.953 955.294,-562.033 955.294,-452.5 955.294,-452.5 955.294,-452.5 955.294,-327.5 955.294,-290.003 955.294,-246.513 955.294,-220.011"/>
<polygon fill="midnightblue" stroke="midnightblue" points="958.794,-219.759 955.294,-209.759 951.794,-219.759 958.794,-219.759"/>
</g>
<!-- Node28 -->
<g id="node28" class="node"><title>Node28</title>
<g id="a_node28"><a xlink:href="_i_alive_8h.html" target="_top" xlink:title="components/interface\l/IAlive.h">
<polygon fill="white" stroke="black" points="30.2939,-503.5 30.2939,-533.5 152.294,-533.5 152.294,-503.5 30.2939,-503.5"/>
<text text-anchor="start" x="38.2939" y="-521.5" font-family="Helvetica,sans-Serif" font-size="10.00">components/interface</text>
<text text-anchor="middle" x="91.2939" y="-510.5" font-family="Helvetica,sans-Serif" font-size="10.00">/IAlive.h</text>
</a>
</g>
</g>
<!-- Node1&#45;&gt;Node28 -->
<g id="edge55" class="edge"><title>Node1&#45;&gt;Node28</title>
<path fill="none" stroke="midnightblue" d="M590.143,-580.236C500.822,-572.983 319.094,-556.782 166.294,-534 165.04,-533.813 163.774,-533.62 162.501,-533.421"/>
<polygon fill="midnightblue" stroke="midnightblue" points="163.05,-529.964 152.615,-531.8 161.917,-536.872 163.05,-529.964"/>
</g>
<!-- Node4 -->
<g id="node4" class="node"><title>Node4</title>
<g id="a_node4"><a xlink:href="_i_runable_8h.html" target="_top" xlink:title="../IRunable.h">
<polygon fill="white" stroke="black" points="501.294,-185 501.294,-204 575.294,-204 575.294,-185 501.294,-185"/>
<text text-anchor="middle" x="538.294" y="-192" font-family="Helvetica,sans-Serif" font-size="10.00">../IRunable.h</text>
</a>
</g>
</g>
<!-- Node3&#45;&gt;Node4 -->
<g id="edge3" class="edge"><title>Node3&#45;&gt;Node4</title>
<path fill="none" stroke="midnightblue" d="M771.978,-380.224C760.349,-349.487 721.977,-248.424 719.294,-246 682.553,-212.8 625.75,-201.217 585.592,-197.287"/>
<polygon fill="midnightblue" stroke="midnightblue" points="585.768,-193.79 575.507,-196.426 585.173,-200.764 585.768,-193.79"/>
</g>
<!-- Node5 -->
<g id="node5" class="node"><title>Node5</title>
<g id="a_node5"><a xlink:href="_i_component_8h.html" target="_top" xlink:title="components/interface\l/IComponent.h">
<polygon fill="white" stroke="black" points="542.294,-112.5 542.294,-142.5 664.294,-142.5 664.294,-112.5 542.294,-112.5"/>
<text text-anchor="start" x="550.294" y="-130.5" font-family="Helvetica,sans-Serif" font-size="10.00">components/interface</text>
<text text-anchor="middle" x="603.294" y="-119.5" font-family="Helvetica,sans-Serif" font-size="10.00">/IComponent.h</text>
</a>
</g>
</g>
<!-- Node4&#45;&gt;Node5 -->
<g id="edge4" class="edge"><title>Node4&#45;&gt;Node5</title>
<path fill="none" stroke="midnightblue" d="M547.06,-184.734C555.929,-175.865 569.983,-161.811 581.822,-149.972"/>
<polygon fill="midnightblue" stroke="midnightblue" points="584.609,-152.135 589.205,-142.589 579.659,-147.185 584.609,-152.135"/>
</g>
<!-- Node5&#45;&gt;Node6 -->
<g id="edge5" class="edge"><title>Node5&#45;&gt;Node6</title>
<path fill="none" stroke="midnightblue" d="M542.081,-114.027C489.043,-103.219 413.159,-87.7568 363.083,-77.553"/>
<polygon fill="midnightblue" stroke="midnightblue" points="363.615,-74.0894 353.117,-75.5222 362.217,-80.9484 363.615,-74.0894"/>
</g>
<!-- Node8 -->
<g id="node8" class="node"><title>Node8</title>
<g id="a_node8"><a xlink:href="_i_logable_8h.html" target="_top" xlink:title="ILogable.h">
<polygon fill="white" stroke="black" points="782.794,-56.5 782.794,-75.5 847.794,-75.5 847.794,-56.5 782.794,-56.5"/>
<text text-anchor="middle" x="815.294" y="-63.5" font-family="Helvetica,sans-Serif" font-size="10.00">ILogable.h</text>
</a>
</g>
</g>
<!-- Node5&#45;&gt;Node8 -->
<g id="edge7" class="edge"><title>Node5&#45;&gt;Node8</title>
<path fill="none" stroke="midnightblue" d="M653.267,-112.475C690.48,-102.03 740.621,-87.9576 775.221,-78.2469"/>
<polygon fill="midnightblue" stroke="midnightblue" points="776.303,-81.5784 784.986,-75.5064 774.412,-74.8388 776.303,-81.5784"/>
</g>
<!-- Node7 -->
<g id="node7" class="node"><title>Node7</title>
<polygon fill="white" stroke="#bfbfbf" points="227.794,-0.5 227.794,-19.5 280.794,-19.5 280.794,-0.5 227.794,-0.5"/>
<text text-anchor="middle" x="254.294" y="-7.5" font-family="Helvetica,sans-Serif" font-size="10.00">stdint.h</text>
</g>
<!-- Node6&#45;&gt;Node7 -->
<g id="edge6" class="edge"><title>Node6&#45;&gt;Node7</title>
<path fill="none" stroke="midnightblue" d="M302.136,-56.324C293.792,-48.4196 281.261,-36.5482 271.117,-26.9377"/>
<polygon fill="midnightblue" stroke="midnightblue" points="273.285,-24.1705 263.619,-19.8339 268.471,-29.2522 273.285,-24.1705"/>
</g>
<!-- Node8&#45;&gt;Node2 -->
<g id="edge8" class="edge"><title>Node8&#45;&gt;Node2</title>
<path fill="none" stroke="midnightblue" d="M837.477,-56.4435C860.722,-47.4776 897.443,-33.314 923.709,-23.1827"/>
<polygon fill="midnightblue" stroke="midnightblue" points="925.144,-26.3807 933.214,-19.5164 922.625,-19.8497 925.144,-26.3807"/>
</g>
<!-- Node10 -->
<g id="node10" class="node"><title>Node10</title>
<g id="a_node10"><a xlink:href="_i_program_8h.html" target="_top" xlink:title="IProgram.h">
<polygon fill="white" stroke="black" points="386.794,-442 386.794,-461 455.794,-461 455.794,-442 386.794,-442"/>
<text text-anchor="middle" x="421.294" y="-449" font-family="Helvetica,sans-Serif" font-size="10.00">IProgram.h</text>
</a>
</g>
</g>
<!-- Node9&#45;&gt;Node10 -->
<g id="edge10" class="edge"><title>Node9&#45;&gt;Node10</title>
<path fill="none" stroke="midnightblue" d="M492.548,-503.396C477.429,-492.597 456.653,-477.756 441.436,-466.887"/>
<polygon fill="midnightblue" stroke="midnightblue" points="443.375,-463.971 433.204,-461.007 439.307,-469.667 443.375,-463.971"/>
</g>
<!-- Node9&#45;&gt;Node11 -->
<g id="edge12" class="edge"><title>Node9&#45;&gt;Node11</title>
<path fill="none" stroke="midnightblue" d="M517.285,-503.396C520.088,-495.474 523.66,-485.379 526.883,-476.271"/>
<polygon fill="midnightblue" stroke="midnightblue" points="530.277,-477.171 530.313,-466.577 523.678,-474.836 530.277,-477.171"/>
</g>
<!-- Node9&#45;&gt;Node12 -->
<g id="edge14" class="edge"><title>Node9&#45;&gt;Node12</title>
<path fill="none" stroke="midnightblue" d="M459.866,-503.476C422.308,-493.43 371.565,-479.856 331.883,-469.242"/>
<polygon fill="midnightblue" stroke="midnightblue" points="332.612,-465.814 322.047,-466.611 330.803,-472.576 332.612,-465.814"/>
</g>
<!-- Node10&#45;&gt;Node4 -->
<g id="edge11" class="edge"><title>Node10&#45;&gt;Node4</title>
<path fill="none" stroke="midnightblue" d="M426.806,-441.786C442.355,-416.907 487.19,-343.085 514.294,-277 522.843,-256.154 529.735,-231.169 533.903,-214.406"/>
<polygon fill="midnightblue" stroke="midnightblue" points="537.406,-214.807 536.341,-204.266 530.6,-213.171 537.406,-214.807"/>
</g>
<!-- Node11&#45;&gt;Node5 -->
<g id="edge13" class="edge"><title>Node11&#45;&gt;Node5</title>
<path fill="none" stroke="midnightblue" d="M549.715,-436.307C569.676,-415.074 603.294,-372.875 603.294,-329.5 603.294,-329.5 603.294,-329.5 603.294,-260.5 603.294,-223.003 603.294,-179.513 603.294,-153.011"/>
<polygon fill="midnightblue" stroke="midnightblue" points="606.794,-152.759 603.294,-142.759 599.794,-152.759 606.794,-152.759"/>
</g>
<!-- Node13 -->
<g id="node13" class="node"><title>Node13</title>
<g id="a_node13"><a xlink:href="_self_syncable_8h.html" target="_top" xlink:title="communication/SelfSyncable.h">
<polygon fill="white" stroke="black" points="166.294,-380.5 166.294,-399.5 330.294,-399.5 330.294,-380.5 166.294,-380.5"/>
<text text-anchor="middle" x="248.294" y="-387.5" font-family="Helvetica,sans-Serif" font-size="10.00">communication/SelfSyncable.h</text>
</a>
</g>
</g>
<!-- Node12&#45;&gt;Node13 -->
<g id="edge15" class="edge"><title>Node12&#45;&gt;Node13</title>
<path fill="none" stroke="midnightblue" d="M264.317,-436.399C261.454,-428.288 257.826,-418.007 254.746,-409.281"/>
<polygon fill="midnightblue" stroke="midnightblue" points="257.978,-407.923 251.35,-399.658 251.377,-410.253 257.978,-407.923"/>
</g>
<!-- Node13&#45;&gt;Node14 -->
<g id="edge16" class="edge"><title>Node13&#45;&gt;Node14</title>
<path fill="none" stroke="midnightblue" d="M262.765,-380.475C279.265,-370.755 306.472,-354.727 325.975,-343.237"/>
<polygon fill="midnightblue" stroke="midnightblue" points="328.01,-346.101 334.85,-338.009 324.457,-340.069 328.01,-346.101"/>
</g>
<!-- Node20 -->
<g id="node20" class="node"><title>Node20</title>
<g id="a_node20"><a xlink:href="_i_communication_8h.html" target="_top" xlink:title="components/interface\l/ICommunication.h">
<polygon fill="white" stroke="black" points="199.294,-246.5 199.294,-276.5 321.294,-276.5 321.294,-246.5 199.294,-246.5"/>
<text text-anchor="start" x="207.294" y="-264.5" font-family="Helvetica,sans-Serif" font-size="10.00">components/interface</text>
<text text-anchor="middle" x="260.294" y="-253.5" font-family="Helvetica,sans-Serif" font-size="10.00">/ICommunication.h</text>
</a>
</g>
</g>
<!-- Node13&#45;&gt;Node20 -->
<g id="edge35" class="edge"><title>Node13&#45;&gt;Node20</title>
<path fill="none" stroke="midnightblue" d="M249.119,-380.305C250.922,-361.298 255.269,-315.47 257.979,-286.9"/>
<polygon fill="midnightblue" stroke="midnightblue" points="261.469,-287.174 258.929,-276.888 254.5,-286.513 261.469,-287.174"/>
</g>
<!-- Node14&#45;&gt;Node4 -->
<g id="edge33" class="edge"><title>Node14&#45;&gt;Node4</title>
<path fill="none" stroke="midnightblue" d="M373.884,-323.53C403.51,-317.698 453.504,-304.393 487.294,-277 508.31,-259.962 523.159,-231.827 531.224,-213.477"/>
<polygon fill="midnightblue" stroke="midnightblue" points="534.478,-214.769 535.095,-204.192 528.017,-212.076 534.478,-214.769"/>
</g>
<!-- Node14&#45;&gt;Node5 -->
<g id="edge26" class="edge"><title>Node14&#45;&gt;Node5</title>
<path fill="none" stroke="midnightblue" d="M373.857,-321.178C397.15,-314.023 431.706,-300.231 453.294,-277 485.205,-242.66 459.955,-212.937 492.294,-179 505.975,-164.643 524.505,-154.031 542.505,-146.346"/>
<polygon fill="midnightblue" stroke="midnightblue" points="543.87,-149.57 551.841,-142.59 541.257,-143.076 543.87,-149.57"/>
</g>
<!-- Node14&#45;&gt;Node6 -->
<g id="edge18" class="edge"><title>Node14&#45;&gt;Node6</title>
<path fill="none" stroke="midnightblue" d="M349.376,-318.731C349.464,-289.156 348.224,-190.535 329.294,-112 327.076,-102.797 323.331,-92.9927 319.83,-84.8923"/>
<polygon fill="midnightblue" stroke="midnightblue" points="322.983,-83.3716 315.658,-75.7167 316.611,-86.2687 322.983,-83.3716"/>
</g>
<!-- Node15 -->
<g id="node15" class="node"><title>Node15</title>
<polygon fill="white" stroke="#bfbfbf" points="33.7939,-118 33.7939,-137 80.7939,-137 80.7939,-118 33.7939,-118"/>
<text text-anchor="middle" x="57.2939" y="-125" font-family="Helvetica,sans-Serif" font-size="10.00">vector</text>
</g>
<!-- Node14&#45;&gt;Node15 -->
<g id="edge17" class="edge"><title>Node14&#45;&gt;Node15</title>
<path fill="none" stroke="midnightblue" d="M324.714,-326.564C285.605,-323.952 208.326,-314.096 156.294,-277 108.466,-242.901 77.185,-177.873 64.1713,-146.42"/>
<polygon fill="midnightblue" stroke="midnightblue" points="67.4215,-145.122 60.4608,-137.134 60.9212,-147.719 67.4215,-145.122"/>
</g>
<!-- Node16 -->
<g id="node16" class="node"><title>Node16</title>
<g id="a_node16"><a xlink:href="device_ids_8h.html" target="_top" xlink:title="deviceIds.h">
<polygon fill="white" stroke="black" points="99.2939,-118 99.2939,-137 169.294,-137 169.294,-118 99.2939,-118"/>
<text text-anchor="middle" x="134.294" y="-125" font-family="Helvetica,sans-Serif" font-size="10.00">deviceIds.h</text>
</a>
</g>
</g>
<!-- Node14&#45;&gt;Node16 -->
<g id="edge19" class="edge"><title>Node14&#45;&gt;Node16</title>
<path fill="none" stroke="midnightblue" d="M324.594,-327C288.281,-324.918 220.555,-315.695 181.294,-277 145.272,-241.498 136.798,-178.607 134.846,-147.297"/>
<polygon fill="midnightblue" stroke="midnightblue" points="138.342,-147.127 134.383,-137.3 131.35,-147.451 138.342,-147.127"/>
</g>
<!-- Node17 -->
<g id="node17" class="node"><title>Node17</title>
<g id="a_node17"><a xlink:href="_car_message_8h.html" target="_top" xlink:title="CarMessage.h">
<polygon fill="white" stroke="black" points="176.794,-185 176.794,-204 261.794,-204 261.794,-185 176.794,-185"/>
<text text-anchor="middle" x="219.294" y="-192" font-family="Helvetica,sans-Serif" font-size="10.00">CarMessage.h</text>
</a>
</g>
</g>
<!-- Node14&#45;&gt;Node17 -->
<g id="edge20" class="edge"><title>Node14&#45;&gt;Node17</title>
<path fill="none" stroke="midnightblue" d="M324.62,-327.938C288.283,-327.077 221.333,-319.426 190.294,-277 175.871,-257.286 191.481,-229.724 204.784,-212.244"/>
<polygon fill="midnightblue" stroke="midnightblue" points="207.79,-214.093 211.359,-204.117 202.348,-209.69 207.79,-214.093"/>
</g>
<!-- Node19 -->
<g id="node19" class="node"><title>Node19</title>
<g id="a_node19"><a xlink:href="_i_channel_8h.html" target="_top" xlink:title="IChannel.h">
<polygon fill="white" stroke="black" points="377.794,-252 377.794,-271 444.794,-271 444.794,-252 377.794,-252"/>
<text text-anchor="middle" x="411.294" y="-259" font-family="Helvetica,sans-Serif" font-size="10.00">IChannel.h</text>
</a>
</g>
</g>
<!-- Node14&#45;&gt;Node19 -->
<g id="edge27" class="edge"><title>Node14&#45;&gt;Node19</title>
<path fill="none" stroke="midnightblue" d="M357.656,-318.734C367.417,-308.5 383.762,-291.364 395.849,-278.692"/>
<polygon fill="midnightblue" stroke="midnightblue" points="398.695,-280.779 403.065,-271.127 393.63,-275.948 398.695,-280.779"/>
</g>
<!-- Node14&#45;&gt;Node20 -->
<g id="edge30" class="edge"><title>Node14&#45;&gt;Node20</title>
<path fill="none" stroke="midnightblue" d="M337.291,-318.734C324.685,-309.527 304.428,-294.733 287.856,-282.629"/>
<polygon fill="midnightblue" stroke="midnightblue" points="289.725,-279.66 279.585,-276.589 285.596,-285.313 289.725,-279.66"/>
</g>
<!-- Node14&#45;&gt;Node21 -->
<g id="edge34" class="edge"><title>Node14&#45;&gt;Node21</title>
<path fill="none" stroke="midnightblue" d="M374.026,-322.507C426.943,-311.826 552.001,-286.581 621.877,-272.475"/>
<polygon fill="midnightblue" stroke="midnightblue" points="622.662,-275.888 631.771,-270.478 621.276,-269.026 622.662,-275.888"/>
</g>
<!-- Node17&#45;&gt;Node6 -->
<g id="edge25" class="edge"><title>Node17&#45;&gt;Node6</title>
<path fill="none" stroke="midnightblue" d="M221.456,-184.92C225.724,-169.221 236.399,-135.342 254.294,-112 263.494,-99.9991 276.585,-89.3658 287.902,-81.4528"/>
<polygon fill="midnightblue" stroke="midnightblue" points="290.118,-84.1814 296.489,-75.7158 286.229,-78.3609 290.118,-84.1814"/>
</g>
<!-- Node17&#45;&gt;Node7 -->
<g id="edge23" class="edge"><title>Node17&#45;&gt;Node7</title>
<path fill="none" stroke="midnightblue" d="M216.982,-184.776C211.519,-162.488 199.481,-101.97 216.294,-56 220.351,-44.9083 228.482,-34.6651 236.185,-26.7625"/>
<polygon fill="midnightblue" stroke="midnightblue" points="238.769,-29.1351 243.579,-19.6955 233.932,-24.0747 238.769,-29.1351"/>
</g>
<!-- Node17&#45;&gt;Node15 -->
<g id="edge22" class="edge"><title>Node17&#45;&gt;Node15</title>
<path fill="none" stroke="midnightblue" d="M196.344,-184.841C170.46,-174.999 127.166,-158.31 90.2939,-143 88.8852,-142.415 87.4456,-141.81 85.9937,-141.194"/>
<polygon fill="midnightblue" stroke="midnightblue" points="87.0002,-137.816 76.4319,-137.067 84.2263,-144.243 87.0002,-137.816"/>
</g>
<!-- Node17&#45;&gt;Node16 -->
<g id="edge24" class="edge"><title>Node17&#45;&gt;Node16</title>
<path fill="none" stroke="midnightblue" d="M207.83,-184.734C193.939,-174.111 170.319,-156.049 153.601,-143.264"/>
<polygon fill="midnightblue" stroke="midnightblue" points="155.645,-140.422 145.576,-137.127 151.393,-145.982 155.645,-140.422"/>
</g>
<!-- Node18 -->
<g id="node18" class="node"><title>Node18</title>
<polygon fill="white" stroke="#bfbfbf" points="263.794,-118 263.794,-137 320.794,-137 320.794,-118 263.794,-118"/>
<text text-anchor="middle" x="292.294" y="-125" font-family="Helvetica,sans-Serif" font-size="10.00">memory</text>
</g>
<!-- Node17&#45;&gt;Node18 -->
<g id="edge21" class="edge"><title>Node17&#45;&gt;Node18</title>
<path fill="none" stroke="midnightblue" d="M229.139,-184.734C240.851,-174.305 260.613,-156.709 274.916,-143.973"/>
<polygon fill="midnightblue" stroke="midnightblue" points="277.464,-146.391 282.605,-137.127 272.809,-141.163 277.464,-146.391"/>
</g>
<!-- Node19&#45;&gt;Node4 -->
<g id="edge29" class="edge"><title>Node19&#45;&gt;Node4</title>
<path fill="none" stroke="midnightblue" d="M428.159,-251.869C449.697,-240.845 487.19,-221.655 512.371,-208.768"/>
<polygon fill="midnightblue" stroke="midnightblue" points="514.052,-211.839 521.36,-204.167 510.863,-205.608 514.052,-211.839"/>
</g>
<!-- Node19&#45;&gt;Node17 -->
<g id="edge28" class="edge"><title>Node19&#45;&gt;Node17</title>
<path fill="none" stroke="midnightblue" d="M385.798,-251.869C351.994,-240.424 292.197,-220.181 254.215,-207.322"/>
<polygon fill="midnightblue" stroke="midnightblue" points="255.184,-203.955 244.59,-204.064 252.939,-210.586 255.184,-203.955"/>
</g>
<!-- Node20&#45;&gt;Node5 -->
<g id="edge31" class="edge"><title>Node20&#45;&gt;Node5</title>
<path fill="none" stroke="midnightblue" d="M293.186,-246.422C332.479,-229.746 400.311,-201.404 459.294,-179 489.733,-167.438 524.136,-155.338 551.681,-145.881"/>
<polygon fill="midnightblue" stroke="midnightblue" points="553.17,-149.071 561.499,-142.523 550.904,-142.448 553.17,-149.071"/>
</g>
<!-- Node20&#45;&gt;Node17 -->
<g id="edge32" class="edge"><title>Node20&#45;&gt;Node17</title>
<path fill="none" stroke="midnightblue" d="M251.398,-246.396C245.195,-236.562 236.878,-223.378 230.264,-212.892"/>
<polygon fill="midnightblue" stroke="midnightblue" points="233.074,-210.785 224.778,-204.195 227.153,-214.52 233.074,-210.785"/>
</g>
<!-- Node22&#45;&gt;Node10 -->
<g id="edge37" class="edge"><title>Node22&#45;&gt;Node10</title>
<path fill="none" stroke="midnightblue" d="M311.159,-508.869C332.697,-497.845 370.19,-478.655 395.371,-465.768"/>
<polygon fill="midnightblue" stroke="midnightblue" points="397.052,-468.839 404.36,-461.167 393.863,-462.608 397.052,-468.839"/>
</g>
<!-- Node22&#45;&gt;Node12 -->
<g id="edge40" class="edge"><title>Node22&#45;&gt;Node12</title>
<path fill="none" stroke="midnightblue" d="M290.922,-508.734C287.706,-500.372 282.717,-487.4 278.341,-476.022"/>
<polygon fill="midnightblue" stroke="midnightblue" points="281.569,-474.666 274.713,-466.589 275.036,-477.179 281.569,-474.666"/>
</g>
<!-- Node23 -->
<g id="node23" class="node"><title>Node23</title>
<g id="a_node23"><a xlink:href="_i_pedal_8h.html" target="_top" xlink:title="components/interface\l/IPedal.h">
<polygon fill="white" stroke="black" points="68.2939,-436.5 68.2939,-466.5 190.294,-466.5 190.294,-436.5 68.2939,-436.5"/>
<text text-anchor="start" x="76.2939" y="-454.5" font-family="Helvetica,sans-Serif" font-size="10.00">components/interface</text>
<text text-anchor="middle" x="129.294" y="-443.5" font-family="Helvetica,sans-Serif" font-size="10.00">/IPedal.h</text>
</a>
</g>
</g>
<!-- Node22&#45;&gt;Node23 -->
<g id="edge38" class="edge"><title>Node22&#45;&gt;Node23</title>
<path fill="none" stroke="midnightblue" d="M272.383,-508.869C247.517,-499.073 206.285,-482.83 174.452,-470.29"/>
<polygon fill="midnightblue" stroke="midnightblue" points="175.491,-466.937 164.904,-466.528 172.925,-473.45 175.491,-466.937"/>
</g>
<!-- Node23&#45;&gt;Node13 -->
<g id="edge39" class="edge"><title>Node23&#45;&gt;Node13</title>
<path fill="none" stroke="midnightblue" d="M157.495,-436.399C177.016,-426.639 202.819,-413.737 221.929,-404.183"/>
<polygon fill="midnightblue" stroke="midnightblue" points="223.599,-407.26 230.978,-399.658 220.469,-400.999 223.599,-407.26"/>
</g>
<!-- Node24&#45;&gt;Node13 -->
<g id="edge43" class="edge"><title>Node24&#45;&gt;Node13</title>
<path fill="none" stroke="midnightblue" d="M614.264,-437.563C611.235,-437.013 608.232,-436.489 605.294,-436 515.688,-421.096 412.695,-408.604 340.433,-400.594"/>
<polygon fill="midnightblue" stroke="midnightblue" points="340.769,-397.109 330.445,-399.493 340.002,-404.067 340.769,-397.109"/>
</g>
<!-- Node24&#45;&gt;Node21 -->
<g id="edge44" class="edge"><title>Node24&#45;&gt;Node21</title>
<path fill="none" stroke="midnightblue" d="M674.993,-436.369C674.282,-402.938 672.495,-318.974 671.694,-281.304"/>
<polygon fill="midnightblue" stroke="midnightblue" points="675.191,-281.129 671.479,-271.206 668.193,-281.278 675.191,-281.129"/>
</g>
<!-- Node25&#45;&gt;Node5 -->
<g id="edge47" class="edge"><title>Node25&#45;&gt;Node5</title>
<path fill="none" stroke="midnightblue" d="M816.467,-313.299C802.205,-296.504 777.166,-268.049 753.294,-246 713.311,-209.072 662.763,-171.076 631.745,-148.639"/>
<polygon fill="midnightblue" stroke="midnightblue" points="633.701,-145.735 623.539,-142.737 629.614,-151.417 633.701,-145.735"/>
</g>
<!-- Node26&#45;&gt;Node5 -->
<g id="edge49" class="edge"><title>Node26&#45;&gt;Node5</title>
<path fill="none" stroke="midnightblue" d="M769.554,-179.476C737.204,-169.557 693.642,-156.201 659.223,-145.648"/>
<polygon fill="midnightblue" stroke="midnightblue" points="659.904,-142.196 649.317,-142.611 657.852,-148.889 659.904,-142.196"/>
</g>
<!-- Node26&#45;&gt;Node8 -->
<g id="edge50" class="edge"><title>Node26&#45;&gt;Node8</title>
<path fill="none" stroke="midnightblue" d="M815.294,-179.479C815.294,-156.719 815.294,-111.702 815.294,-86.0582"/>
<polygon fill="midnightblue" stroke="midnightblue" points="818.794,-85.7885 815.294,-75.7885 811.794,-85.7886 818.794,-85.7885"/>
</g>
<!-- Node27&#45;&gt;Node2 -->
<g id="edge53" class="edge"><title>Node27&#45;&gt;Node2</title>
<path fill="none" stroke="midnightblue" d="M955.294,-179.483C955.294,-147.097 955.294,-67.0368 955.294,-30.1594"/>
<polygon fill="midnightblue" stroke="midnightblue" points="958.794,-29.8187 955.294,-19.8187 951.794,-29.8188 958.794,-29.8187"/>
</g>
<!-- Node27&#45;&gt;Node5 -->
<g id="edge54" class="edge"><title>Node27&#45;&gt;Node5</title>
<path fill="none" stroke="midnightblue" d="M894.23,-180.75C891.21,-180.151 888.218,-179.565 885.294,-179 813.656,-165.169 731.524,-150.607 674.446,-140.693"/>
<polygon fill="midnightblue" stroke="midnightblue" points="674.894,-137.219 664.443,-138.959 673.698,-144.116 674.894,-137.219"/>
</g>
<!-- Node28&#45;&gt;Node13 -->
<g id="edge56" class="edge"><title>Node28&#45;&gt;Node13</title>
<path fill="none" stroke="midnightblue" d="M77.7245,-503.258C62.8727,-485.909 43.1823,-456.398 59.2939,-436 72.4831,-419.302 118.581,-408.132 161.946,-401.098"/>
<polygon fill="midnightblue" stroke="midnightblue" points="162.671,-404.527 172.013,-399.529 161.593,-397.611 162.671,-404.527"/>
</g>
</g>
</svg>
        <g id="navigator" transform="translate(0 0)" fill="#404254">
                <rect fill="#f2f5e9" fill-opacity="0.5" stroke="#606060" stroke-width=".5" x="0" y="0" width="60" height="60"/>
                <use id="zoomplus" xlink:href="#zoomPlus" x="17" y="9" onmousedown="handleZoom(evt,'in')"/>
                <use id="zoomminus" xlink:href="#zoomMin" x="42" y="9" onmousedown="handleZoom(evt,'out')"/>
                <use id="reset" xlink:href="#resetDef" x="30" y="36" onmousedown="handleReset()"/>
                <g id="arrowUp" xlink:href="#dirArrow" transform="translate(30 24)" onmousedown="handlePan(0,-1)">
                  <use xlink:href="#rim" fill="#404040">
                        <set attributeName="fill" to="#808080" begin="arrowUp.mouseover" end="arrowUp.mouseout"/>
                  </use>
                  <path fill="none" stroke="white" stroke-width="1.5" d="M0,-3.0v7 M-2.5,-0.5L0,-3.0L2.5,-0.5"/>
                </g>
                <g id="arrowRight" xlink:href="#dirArrow" transform="rotate(90) translate(36 -43)" onmousedown="handlePan(1,0)">
                  <use xlink:href="#rim" fill="#404040">
                        <set attributeName="fill" to="#808080" begin="arrowRight.mouseover" end="arrowRight.mouseout"/>
                  </use>
                  <path fill="none" stroke="white" stroke-width="1.5" d="M0,-3.0v7 M-2.5,-0.5L0,-3.0L2.5,-0.5"/>
                </g>
                <g id="arrowDown" xlink:href="#dirArrow" transform="rotate(180) translate(-30 -48)" onmousedown="handlePan(0,1)">
                  <use xlink:href="#rim" fill="#404040">
                        <set attributeName="fill" to="#808080" begin="arrowDown.mouseover" end="arrowDown.mouseout"/>
                  </use>
                  <path fill="none" stroke="white" stroke-width="1.5" d="M0,-3.0v7 M-2.5,-0.5L0,-3.0L2.5,-0.5"/>
                </g>
                <g id="arrowLeft" xlink:href="#dirArrow" transform="rotate(270) translate(-36 17)" onmousedown="handlePan(-1,0)">
                  <use xlink:href="#rim" fill="#404040">
                        <set attributeName="fill" to="#808080" begin="arrowLeft.mouseover" end="arrowLeft.mouseout"/>
                  </use>
                  <path fill="none" stroke="white" stroke-width="1.5" d="M0,-3.0v7 M-2.5,-0.5L0,-3.0L2.5,-0.5"/>
                </g>
        </g>
        <svg viewBox="0 0 15 15" width="100%" height="30px" preserveAspectRatio="xMaxYMin meet">
         <g id="arrow_out" transform="scale(0.3 0.3)">
          <a xlink:href="_s_car_8h__incl_org.svg" target="_base">
           <rect id="button" ry="5" rx="5" y="6" x="6" height="38" width="38"
                fill="#f2f5e9" fill-opacity="0.5" stroke="#606060" stroke-width="1.0"/>
           <path id="arrow"
             d="M 11.500037,31.436501 C 11.940474,20.09759 22.043105,11.32322 32.158766,21.979434 L 37.068811,17.246167 C 37.068811,17.246167 37.088388,32 37.088388,32 L 22.160133,31.978069 C 22.160133,31.978069 26.997745,27.140456 26.997745,27.140456 C 18.528582,18.264221 13.291696,25.230495 11.500037,31.436501 z"
             style="fill:#404040;"/>
          </a>
         </g>
        </svg>
</svg>
