<?xml version="1.0" encoding="UTF-8" standalone="no"?>
<!DOCTYPE svg PUBLIC "-//W3C//DTD SVG 1.1//EN"
 "http://www.w3.org/Graphics/SVG/1.1/DTD/svg11.dtd">
<!-- Generated by graphviz version 2.38.0 (20140413.2041)
 -->
<!-- Title: lib/carpi/lib/SDFileSystem/SDFileSystem.h Pages: 1 -->
<!--zoomable 375 -->
<svg id="main" version="1.1" xmlns="http://www.w3.org/2000/svg" xmlns:xlink="http://www.w3.org/1999/xlink" xml:space="preserve" onload="init(evt)">
<style type="text/css"><![CDATA[
.edge:hover path { stroke: red; }
.edge:hover polygon { stroke: red; fill: red; }
]]></style>
<script type="text/javascript"><![CDATA[
var edges = document.getElementsByTagName('g');
if (edges && edges.length) {
  for (var i=0;i<edges.length;i++) {
    if (edges[i].id.substr(0,4)=='edge') {
      edges[i].setAttribute('class','edge');
    }
  }
}
]]></script>
        <defs>
                <circle id="rim" cx="0" cy="0" r="7"/>
                <circle id="rim2" cx="0" cy="0" r="3.5"/>
                <g id="zoomPlus">
                        <use xlink:href="#rim" fill="#404040">
                                <set attributeName="fill" to="#808080" begin="zoomplus.mouseover" end="zoomplus.mouseout"/>
                        </use>
                        <path d="M-4,0h8M0,-4v8" fill="none" stroke="white" stroke-width="1.5" pointer-events="none"/>
                </g>
                <g id="zoomMin">
                        <use xlink:href="#rim" fill="#404040">
                                <set attributeName="fill" to="#808080" begin="zoomminus.mouseover" end="zoomminus.mouseout"/>
                        </use>
                        <path d="M-4,0h8" fill="none" stroke="white" stroke-width="1.5" pointer-events="none"/>
                </g>
                <g id="dirArrow">
                        <path fill="none" stroke="white" stroke-width="1.5" d="M0,-3.0v7 M-2.5,-0.5L0,-3.0L2.5,-0.5"/>
                </g>
               <g id="resetDef">
                       <use xlink:href="#rim2" fill="#404040">
                               <set attributeName="fill" to="#808080" begin="reset.mouseover" end="reset.mouseout"/>
                       </use>
               </g>
        </defs>

<script type="text/javascript">
var viewWidth = 770;
var viewHeight = 375;
var sectionId = 'dynsection-0';
</script>
<script xlink:href="svgpan.js"/>
<svg id="graph" class="graph">
<g id="viewport">
<title>lib/carpi/lib/SDFileSystem/SDFileSystem.h</title>
<polygon fill="white" stroke="none" points="-4,4 -4,-371 766,-371 766,4 -4,4"/>
<!-- Node1 -->
<g id="node1" class="node"><title>Node1</title>
<polygon fill="#bfbfbf" stroke="black" points="387.5,-336.5 387.5,-366.5 523.5,-366.5 523.5,-336.5 387.5,-336.5"/>
<text text-anchor="start" x="395.5" y="-354.5" font-family="Helvetica,sans-Serif" font-size="10.00">lib/carpi/lib/SDFileSystem</text>
<text text-anchor="middle" x="455.5" y="-343.5" font-family="Helvetica,sans-Serif" font-size="10.00">/SDFileSystem.h</text>
</g>
<!-- Node2 -->
<g id="node2" class="node"><title>Node2</title>
<polygon fill="white" stroke="#bfbfbf" points="0,-168.5 0,-187.5 53,-187.5 53,-168.5 0,-168.5"/>
<text text-anchor="middle" x="26.5" y="-175.5" font-family="Helvetica,sans-Serif" font-size="10.00">mbed.h</text>
</g>
<!-- Node1&#45;&gt;Node2 -->
<g id="edge1" class="edge"><title>Node1&#45;&gt;Node2</title>
<path fill="none" stroke="midnightblue" d="M420.393,-336.465C338.425,-303.697 135.506,-222.577 57.6236,-191.442"/>
<polygon fill="midnightblue" stroke="midnightblue" points="58.4965,-188.022 47.9118,-187.56 55.8981,-194.522 58.4965,-188.022"/>
</g>
<!-- Node3 -->
<g id="node3" class="node"><title>Node3</title>
<g id="a_node3"><a xlink:href="_f_a_t_file_system_8h.html" target="_top" xlink:title="FATFileSystem/FATFileSystem.h">
<polygon fill="white" stroke="black" points="373.5,-280.5 373.5,-299.5 537.5,-299.5 537.5,-280.5 373.5,-280.5"/>
<text text-anchor="middle" x="455.5" y="-287.5" font-family="Helvetica,sans-Serif" font-size="10.00">FATFileSystem/FATFileSystem.h</text>
</a>
</g>
</g>
<!-- Node1&#45;&gt;Node3 -->
<g id="edge2" class="edge"><title>Node1&#45;&gt;Node3</title>
<path fill="none" stroke="midnightblue" d="M455.5,-336.399C455.5,-328.466 455.5,-318.458 455.5,-309.858"/>
<polygon fill="midnightblue" stroke="midnightblue" points="459,-309.658 455.5,-299.658 452,-309.658 459,-309.658"/>
</g>
<!-- Node10 -->
<g id="node10" class="node"><title>Node10</title>
<polygon fill="white" stroke="#bfbfbf" points="706,-224.5 706,-243.5 759,-243.5 759,-224.5 706,-224.5"/>
<text text-anchor="middle" x="732.5" y="-231.5" font-family="Helvetica,sans-Serif" font-size="10.00">stdint.h</text>
</g>
<!-- Node1&#45;&gt;Node10 -->
<g id="edge37" class="edge"><title>Node1&#45;&gt;Node10</title>
<path fill="none" stroke="midnightblue" d="M489.189,-336.453C543.776,-313.692 650.674,-269.119 702.672,-247.437"/>
<polygon fill="midnightblue" stroke="midnightblue" points="704.131,-250.621 712.013,-243.542 701.437,-244.16 704.131,-250.621"/>
</g>
<!-- Node4 -->
<g id="node4" class="node"><title>Node4</title>
<polygon fill="white" stroke="#bfbfbf" points="233.5,-224.5 233.5,-243.5 329.5,-243.5 329.5,-224.5 233.5,-224.5"/>
<text text-anchor="middle" x="281.5" y="-231.5" font-family="Helvetica,sans-Serif" font-size="10.00">FileSystemLike.h</text>
</g>
<!-- Node3&#45;&gt;Node4 -->
<g id="edge3" class="edge"><title>Node3&#45;&gt;Node4</title>
<path fill="none" stroke="midnightblue" d="M427.929,-280.444C398.403,-271.28 351.382,-256.688 318.617,-246.519"/>
<polygon fill="midnightblue" stroke="midnightblue" points="319.53,-243.138 308.942,-243.516 317.455,-249.823 319.53,-243.138"/>
</g>
<!-- Node5 -->
<g id="node5" class="node"><title>Node5</title>
<polygon fill="white" stroke="#bfbfbf" points="185.5,-112.5 185.5,-131.5 259.5,-131.5 259.5,-112.5 185.5,-112.5"/>
<text text-anchor="middle" x="222.5" y="-119.5" font-family="Helvetica,sans-Serif" font-size="10.00">FileHandle.h</text>
</g>
<!-- Node3&#45;&gt;Node5 -->
<g id="edge4" class="edge"><title>Node3&#45;&gt;Node5</title>
<path fill="none" stroke="midnightblue" d="M373.302,-283.732C314.861,-278.086 243.493,-266.665 224.5,-244 200.295,-215.114 209.028,-167.302 216.425,-141.268"/>
<polygon fill="midnightblue" stroke="midnightblue" points="219.815,-142.15 219.413,-131.563 213.125,-140.09 219.815,-142.15"/>
</g>
<!-- Node6 -->
<g id="node6" class="node"><title>Node6</title>
<g id="a_node6"><a xlink:href="ff_8h.html" target="_top" xlink:title="ff.h">
<polygon fill="white" stroke="black" points="592.5,-56.5 592.5,-75.5 624.5,-75.5 624.5,-56.5 592.5,-56.5"/>
<text text-anchor="middle" x="608.5" y="-63.5" font-family="Helvetica,sans-Serif" font-size="10.00">ff.h</text>
</a>
</g>
</g>
<!-- Node3&#45;&gt;Node6 -->
<g id="edge5" class="edge"><title>Node3&#45;&gt;Node6</title>
<path fill="none" stroke="midnightblue" d="M467.054,-280.231C494.733,-258.518 564.951,-199.132 597.5,-132 604.522,-117.518 607.148,-99.3325 608.09,-85.8825"/>
<polygon fill="midnightblue" stroke="midnightblue" points="611.587,-86.0319 608.544,-75.8835 604.594,-85.7145 611.587,-86.0319"/>
</g>
<!-- Node3&#45;&gt;Node10 -->
<g id="edge10" class="edge"><title>Node3&#45;&gt;Node10</title>
<path fill="none" stroke="midnightblue" d="M507.162,-280.439C554.092,-272.426 625.435,-259.661 695.863,-244.257"/>
<polygon fill="midnightblue" stroke="midnightblue" points="696.781,-247.639 705.792,-242.067 695.273,-240.804 696.781,-247.639"/>
</g>
<!-- Node11 -->
<g id="node11" class="node"><title>Node11</title>
<g id="a_node11"><a xlink:href="_f_a_t_file_system_8cpp.html" target="_top" xlink:title="FATFileSystem.cpp">
<polygon fill="white" stroke="black" points="347.5,-224.5 347.5,-243.5 451.5,-243.5 451.5,-224.5 347.5,-224.5"/>
<text text-anchor="middle" x="399.5" y="-231.5" font-family="Helvetica,sans-Serif" font-size="10.00">FATFileSystem.cpp</text>
</a>
</g>
</g>
<!-- Node3&#45;&gt;Node11 -->
<g id="edge11" class="edge"><title>Node3&#45;&gt;Node11</title>
<path fill="none" stroke="midnightblue" d="M441.388,-280.324C431.676,-272.576 419.301,-261.017 410.347,-251.511"/>
<polygon fill="midnightblue" stroke="midnightblue" points="412.776,-248.975 403.512,-243.834 407.548,-253.63 412.776,-248.975"/>
</g>
<!-- Node19 -->
<g id="node19" class="node"><title>Node19</title>
<g id="a_node19"><a xlink:href="ff_8cpp.html" target="_top" xlink:title="ff.cpp">
<polygon fill="white" stroke="black" points="645,-224.5 645,-243.5 688,-243.5 688,-224.5 645,-224.5"/>
<text text-anchor="middle" x="666.5" y="-231.5" font-family="Helvetica,sans-Serif" font-size="10.00">ff.cpp</text>
</a>
</g>
</g>
<!-- Node3&#45;&gt;Node19 -->
<g id="edge29" class="edge"><title>Node3&#45;&gt;Node19</title>
<path fill="none" stroke="midnightblue" d="M488.934,-280.444C529.042,-270.179 595.77,-253.102 634.999,-243.062"/>
<polygon fill="midnightblue" stroke="midnightblue" points="635.999,-246.419 644.819,-240.549 634.263,-239.637 635.999,-246.419"/>
</g>
<!-- Node7 -->
<g id="node7" class="node"><title>Node7</title>
<g id="a_node7"><a xlink:href="integer_8h.html" target="_top" xlink:title="integer.h">
<polygon fill="white" stroke="black" points="703,-0.5 703,-19.5 762,-19.5 762,-0.5 703,-0.5"/>
<text text-anchor="middle" x="732.5" y="-7.5" font-family="Helvetica,sans-Serif" font-size="10.00">integer.h</text>
</a>
</g>
</g>
<!-- Node6&#45;&gt;Node7 -->
<g id="edge6" class="edge"><title>Node6&#45;&gt;Node7</title>
<path fill="none" stroke="midnightblue" d="M624.711,-57.9404C644.647,-49.2585 678.855,-34.3614 703.391,-23.6765"/>
<polygon fill="midnightblue" stroke="midnightblue" points="704.824,-26.8702 712.594,-19.6685 702.029,-20.4523 704.824,-26.8702"/>
</g>
<!-- Node8 -->
<g id="node8" class="node"><title>Node8</title>
<g id="a_node8"><a xlink:href="ffconf_8h.html" target="_top" xlink:title="ffconf.h">
<polygon fill="white" stroke="black" points="339,-0.5 339,-19.5 390,-19.5 390,-0.5 339,-0.5"/>
<text text-anchor="middle" x="364.5" y="-7.5" font-family="Helvetica,sans-Serif" font-size="10.00">ffconf.h</text>
</a>
</g>
</g>
<!-- Node6&#45;&gt;Node8 -->
<g id="edge7" class="edge"><title>Node6&#45;&gt;Node8</title>
<path fill="none" stroke="midnightblue" d="M592.152,-60.6532C586.282,-59.1305 579.606,-57.4418 573.5,-56 512.893,-41.6888 441.954,-26.8072 400.26,-18.2501"/>
<polygon fill="midnightblue" stroke="midnightblue" points="400.813,-14.7907 390.314,-16.215 399.41,-21.6486 400.813,-14.7907"/>
</g>
<!-- Node9 -->
<g id="node9" class="node"><title>Node9</title>
<g id="a_node9"><a xlink:href="ccsbcs_8cpp.html" target="_top" xlink:title="ccsbcs.cpp">
<polygon fill="white" stroke="black" points="574,-0.5 574,-19.5 643,-19.5 643,-0.5 574,-0.5"/>
<text text-anchor="middle" x="608.5" y="-7.5" font-family="Helvetica,sans-Serif" font-size="10.00">ccsbcs.cpp</text>
</a>
</g>
</g>
<!-- Node6&#45;&gt;Node9 -->
<g id="edge8" class="edge"><title>Node6&#45;&gt;Node9</title>
<path fill="none" stroke="midnightblue" d="M603.334,-56.083C601.824,-48.9272 601.394,-38.6353 602.042,-29.6911"/>
<polygon fill="midnightblue" stroke="midnightblue" points="605.515,-30.1262 603.369,-19.7511 598.577,-29.2002 605.515,-30.1262"/>
</g>
<!-- Node9&#45;&gt;Node6 -->
<g id="edge9" class="edge"><title>Node9&#45;&gt;Node6</title>
<path fill="none" stroke="midnightblue" d="M613.631,-19.7511C615.157,-26.8579 615.604,-37.1357 614.972,-46.1005"/>
<polygon fill="midnightblue" stroke="midnightblue" points="611.493,-45.7134 613.666,-56.083 618.434,-46.6216 611.493,-45.7134"/>
</g>
<!-- Node11&#45;&gt;Node2 -->
<g id="edge12" class="edge"><title>Node11&#45;&gt;Node2</title>
<path fill="none" stroke="midnightblue" d="M347.258,-225.281C344.295,-224.847 341.36,-224.417 338.5,-224 239.087,-209.497 121.815,-192.654 63.4163,-184.285"/>
<polygon fill="midnightblue" stroke="midnightblue" points="63.61,-180.777 53.2147,-182.823 62.6172,-187.706 63.61,-180.777"/>
</g>
<!-- Node11&#45;&gt;Node3 -->
<g id="edge15" class="edge"><title>Node11&#45;&gt;Node3</title>
<path fill="none" stroke="midnightblue" d="M413.706,-243.751C423.385,-251.483 435.678,-262.967 444.598,-272.431"/>
<polygon fill="midnightblue" stroke="midnightblue" points="442.152,-274.947 451.419,-280.083 447.378,-270.289 442.152,-274.947"/>
</g>
<!-- Node11&#45;&gt;Node8 -->
<g id="edge13" class="edge"><title>Node11&#45;&gt;Node8</title>
<path fill="none" stroke="midnightblue" d="M353.693,-224.496C308.688,-215.598 243.642,-201.123 221.5,-188 192.282,-170.683 181.915,-163.614 169.5,-132 141.565,-60.8626 264.977,-28.3961 328.611,-16.5885"/>
<polygon fill="midnightblue" stroke="midnightblue" points="329.413,-20.001 338.646,-14.8055 328.188,-13.1089 329.413,-20.001"/>
</g>
<!-- Node12 -->
<g id="node12" class="node"><title>Node12</title>
<polygon fill="white" stroke="#bfbfbf" points="247,-56.5 247,-75.5 336,-75.5 336,-56.5 247,-56.5"/>
<text text-anchor="middle" x="291.5" y="-63.5" font-family="Helvetica,sans-Serif" font-size="10.00">mbed_debug.h</text>
</g>
<!-- Node11&#45;&gt;Node12 -->
<g id="edge14" class="edge"><title>Node11&#45;&gt;Node12</title>
<path fill="none" stroke="midnightblue" d="M370.237,-224.371C314.587,-207.274 197.192,-167.657 176.5,-132 159.646,-102.957 199.689,-85.8736 237.059,-76.5694"/>
<polygon fill="midnightblue" stroke="midnightblue" points="238.026,-79.9378 246.971,-74.2585 236.437,-73.1206 238.026,-79.9378"/>
</g>
<!-- Node13 -->
<g id="node13" class="node"><title>Node13</title>
<g id="a_node13"><a xlink:href="_f_a_t_file_handle_8h.html" target="_top" xlink:title="FATFileHandle.h">
<polygon fill="white" stroke="black" points="283.5,-168.5 283.5,-187.5 373.5,-187.5 373.5,-168.5 283.5,-168.5"/>
<text text-anchor="middle" x="328.5" y="-175.5" font-family="Helvetica,sans-Serif" font-size="10.00">FATFileHandle.h</text>
</a>
</g>
</g>
<!-- Node11&#45;&gt;Node13 -->
<g id="edge16" class="edge"><title>Node11&#45;&gt;Node13</title>
<path fill="none" stroke="midnightblue" d="M388.093,-224.324C377.391,-216.185 361.159,-203.839 348.337,-194.087"/>
<polygon fill="midnightblue" stroke="midnightblue" points="350.193,-191.102 340.115,-187.834 345.956,-196.673 350.193,-191.102"/>
</g>
<!-- Node15 -->
<g id="node15" class="node"><title>Node15</title>
<g id="a_node15"><a xlink:href="_f_a_t_dir_handle_8h.html" target="_top" xlink:title="FATDirHandle.h">
<polygon fill="white" stroke="black" points="426,-168.5 426,-187.5 515,-187.5 515,-168.5 426,-168.5"/>
<text text-anchor="middle" x="470.5" y="-175.5" font-family="Helvetica,sans-Serif" font-size="10.00">FATDirHandle.h</text>
</a>
</g>
</g>
<!-- Node11&#45;&gt;Node15 -->
<g id="edge23" class="edge"><title>Node11&#45;&gt;Node15</title>
<path fill="none" stroke="midnightblue" d="M410.907,-224.324C421.609,-216.185 437.841,-203.839 450.663,-194.087"/>
<polygon fill="midnightblue" stroke="midnightblue" points="453.044,-196.673 458.885,-187.834 448.807,-191.102 453.044,-196.673"/>
</g>
<!-- Node13&#45;&gt;Node5 -->
<g id="edge17" class="edge"><title>Node13&#45;&gt;Node5</title>
<path fill="none" stroke="midnightblue" d="M311.469,-168.324C294.47,-159.664 268.124,-146.242 248.507,-136.249"/>
<polygon fill="midnightblue" stroke="midnightblue" points="249.988,-133.075 239.488,-131.655 246.81,-139.312 249.988,-133.075"/>
</g>
<!-- Node14 -->
<g id="node14" class="node"><title>Node14</title>
<g id="a_node14"><a xlink:href="_f_a_t_file_handle_8cpp.html" target="_top" xlink:title="FATFileHandle.cpp">
<polygon fill="white" stroke="black" points="278,-112.5 278,-131.5 379,-131.5 379,-112.5 278,-112.5"/>
<text text-anchor="middle" x="328.5" y="-119.5" font-family="Helvetica,sans-Serif" font-size="10.00">FATFileHandle.cpp</text>
</a>
</g>
</g>
<!-- Node13&#45;&gt;Node14 -->
<g id="edge18" class="edge"><title>Node13&#45;&gt;Node14</title>
<path fill="none" stroke="midnightblue" d="M323.334,-168.083C321.824,-160.927 321.394,-150.635 322.042,-141.691"/>
<polygon fill="midnightblue" stroke="midnightblue" points="325.515,-142.126 323.369,-131.751 318.577,-141.2 325.515,-142.126"/>
</g>
<!-- Node14&#45;&gt;Node6 -->
<g id="edge19" class="edge"><title>Node14&#45;&gt;Node6</title>
<path fill="none" stroke="midnightblue" d="M379.385,-112.723C429.083,-104.388 506.769,-90.6893 573.5,-76 576.372,-75.3678 579.366,-74.6653 582.341,-73.9395"/>
<polygon fill="midnightblue" stroke="midnightblue" points="583.34,-77.2971 592.175,-71.4504 581.622,-70.5111 583.34,-77.2971"/>
</g>
<!-- Node14&#45;&gt;Node8 -->
<g id="edge20" class="edge"><title>Node14&#45;&gt;Node8</title>
<path fill="none" stroke="midnightblue" d="M331.678,-112.411C334.989,-103.384 340.274,-88.7503 344.5,-76 349.666,-60.4149 355.121,-42.5817 359.027,-29.5415"/>
<polygon fill="midnightblue" stroke="midnightblue" points="362.407,-30.4526 361.903,-19.8698 355.698,-28.4573 362.407,-30.4526"/>
</g>
<!-- Node14&#45;&gt;Node12 -->
<g id="edge21" class="edge"><title>Node14&#45;&gt;Node12</title>
<path fill="none" stroke="midnightblue" d="M322.39,-112.083C317.218,-104.534 309.654,-93.4948 303.306,-84.2298"/>
<polygon fill="midnightblue" stroke="midnightblue" points="306.036,-82.0221 297.496,-75.7511 300.261,-85.9787 306.036,-82.0221"/>
</g>
<!-- Node14&#45;&gt;Node13 -->
<g id="edge22" class="edge"><title>Node14&#45;&gt;Node13</title>
<path fill="none" stroke="midnightblue" d="M333.631,-131.751C335.157,-138.858 335.604,-149.136 334.972,-158.101"/>
<polygon fill="midnightblue" stroke="midnightblue" points="331.493,-157.713 333.666,-168.083 338.434,-158.622 331.493,-157.713"/>
</g>
<!-- Node16 -->
<g id="node16" class="node"><title>Node16</title>
<polygon fill="white" stroke="#bfbfbf" points="397,-112.5 397,-131.5 470,-131.5 470,-112.5 397,-112.5"/>
<text text-anchor="middle" x="433.5" y="-119.5" font-family="Helvetica,sans-Serif" font-size="10.00">DirHandle.h</text>
</g>
<!-- Node15&#45;&gt;Node16 -->
<g id="edge24" class="edge"><title>Node15&#45;&gt;Node16</title>
<path fill="none" stroke="midnightblue" d="M464.39,-168.083C459.218,-160.534 451.654,-149.495 445.306,-140.23"/>
<polygon fill="midnightblue" stroke="midnightblue" points="448.036,-138.022 439.496,-131.751 442.261,-141.979 448.036,-138.022"/>
</g>
<!-- Node17 -->
<g id="node17" class="node"><title>Node17</title>
<g id="a_node17"><a xlink:href="_f_a_t_dir_handle_8cpp.html" target="_top" xlink:title="FATDirHandle.cpp">
<polygon fill="white" stroke="black" points="488.5,-112.5 488.5,-131.5 588.5,-131.5 588.5,-112.5 488.5,-112.5"/>
<text text-anchor="middle" x="538.5" y="-119.5" font-family="Helvetica,sans-Serif" font-size="10.00">FATDirHandle.cpp</text>
</a>
</g>
</g>
<!-- Node15&#45;&gt;Node17 -->
<g id="edge25" class="edge"><title>Node15&#45;&gt;Node17</title>
<path fill="none" stroke="midnightblue" d="M476.311,-168.324C484.93,-160.058 500.483,-147.453 513.998,-137.632"/>
<polygon fill="midnightblue" stroke="midnightblue" points="516.328,-140.272 522.492,-131.655 512.299,-134.548 516.328,-140.272"/>
</g>
<!-- Node17&#45;&gt;Node6 -->
<g id="edge27" class="edge"><title>Node17&#45;&gt;Node6</title>
<path fill="none" stroke="midnightblue" d="M549.747,-112.324C560.297,-104.185 576.301,-91.8395 588.942,-82.0874"/>
<polygon fill="midnightblue" stroke="midnightblue" points="591.269,-84.7132 597.049,-75.8339 586.993,-79.1707 591.269,-84.7132"/>
</g>
<!-- Node17&#45;&gt;Node15 -->
<g id="edge28" class="edge"><title>Node17&#45;&gt;Node15</title>
<path fill="none" stroke="midnightblue" d="M532.525,-131.834C523.869,-140.106 508.418,-152.62 494.985,-162.38"/>
<polygon fill="midnightblue" stroke="midnightblue" points="492.703,-159.706 486.54,-168.324 496.732,-165.43 492.703,-159.706"/>
</g>
<!-- Node18 -->
<g id="node18" class="node"><title>Node18</title>
<polygon fill="white" stroke="#bfbfbf" points="512,-56.5 512,-75.5 565,-75.5 565,-56.5 512,-56.5"/>
<text text-anchor="middle" x="538.5" y="-63.5" font-family="Helvetica,sans-Serif" font-size="10.00">string.h</text>
</g>
<!-- Node17&#45;&gt;Node18 -->
<g id="edge26" class="edge"><title>Node17&#45;&gt;Node18</title>
<path fill="none" stroke="midnightblue" d="M538.5,-112.083C538.5,-105.006 538.5,-94.8611 538.5,-85.9865"/>
<polygon fill="midnightblue" stroke="midnightblue" points="542,-85.751 538.5,-75.7511 535,-85.7511 542,-85.751"/>
</g>
<!-- Node19&#45;&gt;Node6 -->
<g id="edge30" class="edge"><title>Node19&#45;&gt;Node6</title>
<path fill="none" stroke="midnightblue" d="M679.505,-224.351C690.372,-216.331 705.225,-203.344 712.5,-188 727.002,-157.413 736.323,-140.135 717.5,-112 699.09,-84.4821 660.442,-73.7733 634.472,-69.6178"/>
<polygon fill="midnightblue" stroke="midnightblue" points="634.93,-66.148 624.546,-68.2466 633.973,-73.0822 634.93,-66.148"/>
</g>
<!-- Node20 -->
<g id="node20" class="node"><title>Node20</title>
<g id="a_node20"><a xlink:href="diskio_8h.html" target="_top" xlink:title="diskio.h">
<polygon fill="white" stroke="black" points="650,-168.5 650,-187.5 703,-187.5 703,-168.5 650,-168.5"/>
<text text-anchor="middle" x="676.5" y="-175.5" font-family="Helvetica,sans-Serif" font-size="10.00">diskio.h</text>
</a>
</g>
</g>
<!-- Node19&#45;&gt;Node20 -->
<g id="edge31" class="edge"><title>Node19&#45;&gt;Node20</title>
<path fill="none" stroke="midnightblue" d="M668.151,-224.083C669.476,-216.927 671.382,-206.635 673.039,-197.691"/>
<polygon fill="midnightblue" stroke="midnightblue" points="676.5,-198.221 674.879,-187.751 669.617,-196.947 676.5,-198.221"/>
</g>
<!-- Node20&#45;&gt;Node7 -->
<g id="edge32" class="edge"><title>Node20&#45;&gt;Node7</title>
<path fill="none" stroke="midnightblue" d="M687.6,-168.303C697.243,-160.068 710.698,-146.787 717.5,-132 732.926,-98.4648 734.296,-54.4716 733.602,-29.8287"/>
<polygon fill="midnightblue" stroke="midnightblue" points="737.093,-29.5346 733.165,-19.6949 730.099,-29.8366 737.093,-29.5346"/>
</g>
<!-- Node21 -->
<g id="node21" class="node"><title>Node21</title>
<g id="a_node21"><a xlink:href="diskio_8cpp.html" target="_top" xlink:title="diskio.cpp">
<polygon fill="white" stroke="black" points="644.5,-112.5 644.5,-131.5 708.5,-131.5 708.5,-112.5 644.5,-112.5"/>
<text text-anchor="middle" x="676.5" y="-119.5" font-family="Helvetica,sans-Serif" font-size="10.00">diskio.cpp</text>
</a>
</g>
</g>
<!-- Node20&#45;&gt;Node21 -->
<g id="edge33" class="edge"><title>Node20&#45;&gt;Node21</title>
<path fill="none" stroke="midnightblue" d="M671.334,-168.083C669.824,-160.927 669.394,-150.635 670.042,-141.691"/>
<polygon fill="midnightblue" stroke="midnightblue" points="673.515,-142.126 671.369,-131.751 666.577,-141.2 673.515,-142.126"/>
</g>
<!-- Node21&#45;&gt;Node3 -->
<g id="edge36" class="edge"><title>Node21&#45;&gt;Node3</title>
<path fill="none" stroke="midnightblue" d="M665.044,-131.605C629.398,-158.38 520.154,-240.437 475.17,-274.225"/>
<polygon fill="midnightblue" stroke="midnightblue" points="472.964,-271.505 467.071,-280.309 477.168,-277.102 472.964,-271.505"/>
</g>
<!-- Node21&#45;&gt;Node12 -->
<g id="edge35" class="edge"><title>Node21&#45;&gt;Node12</title>
<path fill="none" stroke="midnightblue" d="M644.337,-116.489C578.479,-107.252 427.628,-86.0933 346.134,-74.6629"/>
<polygon fill="midnightblue" stroke="midnightblue" points="346.459,-71.1744 336.07,-73.2514 345.487,-78.1065 346.459,-71.1744"/>
</g>
<!-- Node21&#45;&gt;Node20 -->
<g id="edge34" class="edge"><title>Node21&#45;&gt;Node20</title>
<path fill="none" stroke="midnightblue" d="M681.631,-131.751C683.157,-138.858 683.604,-149.136 682.972,-158.101"/>
<polygon fill="midnightblue" stroke="midnightblue" points="679.493,-157.713 681.666,-168.083 686.434,-158.622 679.493,-157.713"/>
</g>
</g>
</svg>
        <g id="navigator" transform="translate(0 0)" fill="#404254">
                <rect fill="#f2f5e9" fill-opacity="0.5" stroke="#606060" stroke-width=".5" x="0" y="0" width="60" height="60"/>
                <use id="zoomplus" xlink:href="#zoomPlus" x="17" y="9" onmousedown="handleZoom(evt,'in')"/>
                <use id="zoomminus" xlink:href="#zoomMin" x="42" y="9" onmousedown="handleZoom(evt,'out')"/>
                <use id="reset" xlink:href="#resetDef" x="30" y="36" onmousedown="handleReset()"/>
                <g id="arrowUp" xlink:href="#dirArrow" transform="translate(30 24)" onmousedown="handlePan(0,-1)">
                  <use xlink:href="#rim" fill="#404040">
                        <set attributeName="fill" to="#808080" begin="arrowUp.mouseover" end="arrowUp.mouseout"/>
                  </use>
                  <path fill="none" stroke="white" stroke-width="1.5" d="M0,-3.0v7 M-2.5,-0.5L0,-3.0L2.5,-0.5"/>
                </g>
                <g id="arrowRight" xlink:href="#dirArrow" transform="rotate(90) translate(36 -43)" onmousedown="handlePan(1,0)">
                  <use xlink:href="#rim" fill="#404040">
                        <set attributeName="fill" to="#808080" begin="arrowRight.mouseover" end="arrowRight.mouseout"/>
                  </use>
                  <path fill="none" stroke="white" stroke-width="1.5" d="M0,-3.0v7 M-2.5,-0.5L0,-3.0L2.5,-0.5"/>
                </g>
                <g id="arrowDown" xlink:href="#dirArrow" transform="rotate(180) translate(-30 -48)" onmousedown="handlePan(0,1)">
                  <use xlink:href="#rim" fill="#404040">
                        <set attributeName="fill" to="#808080" begin="arrowDown.mouseover" end="arrowDown.mouseout"/>
                  </use>
                  <path fill="none" stroke="white" stroke-width="1.5" d="M0,-3.0v7 M-2.5,-0.5L0,-3.0L2.5,-0.5"/>
                </g>
                <g id="arrowLeft" xlink:href="#dirArrow" transform="rotate(270) translate(-36 17)" onmousedown="handlePan(-1,0)">
                  <use xlink:href="#rim" fill="#404040">
                        <set attributeName="fill" to="#808080" begin="arrowLeft.mouseover" end="arrowLeft.mouseout"/>
                  </use>
                  <path fill="none" stroke="white" stroke-width="1.5" d="M0,-3.0v7 M-2.5,-0.5L0,-3.0L2.5,-0.5"/>
                </g>
        </g>
        <svg viewBox="0 0 15 15" width="100%" height="30px" preserveAspectRatio="xMaxYMin meet">
         <g id="arrow_out" transform="scale(0.3 0.3)">
          <a xlink:href="_s_d_file_system_8h__incl_org.svg" target="_base">
           <rect id="button" ry="5" rx="5" y="6" x="6" height="38" width="38"
                fill="#f2f5e9" fill-opacity="0.5" stroke="#606060" stroke-width="1.0"/>
           <path id="arrow"
             d="M 11.500037,31.436501 C 11.940474,20.09759 22.043105,11.32322 32.158766,21.979434 L 37.068811,17.246167 C 37.068811,17.246167 37.088388,32 37.088388,32 L 22.160133,31.978069 C 22.160133,31.978069 26.997745,27.140456 26.997745,27.140456 C 18.528582,18.264221 13.291696,25.230495 11.500037,31.436501 z"
             style="fill:#404040;"/>
          </a>
         </g>
        </svg>
</svg>
