<?xml version="1.0" encoding="UTF-8" standalone="no"?>
<!DOCTYPE svg PUBLIC "-//W3C//DTD SVG 1.1//EN"
 "http://www.w3.org/Graphics/SVG/1.1/DTD/svg11.dtd">
<!-- Generated by graphviz version 2.38.0 (20140413.2041)
 -->
<!-- Title: lib/carpi/lib/SDFileSystem/SDFileSystem.h Pages: 1 -->
<svg width="466pt" height="106pt"
 viewBox="0.00 0.00 466.00 106.00" xmlns="http://www.w3.org/2000/svg" xmlns:xlink="http://www.w3.org/1999/xlink">
<g id="graph0" class="graph" transform="scale(1 1) rotate(0) translate(4 102)">
<title>lib/carpi/lib/SDFileSystem/SDFileSystem.h</title>
<polygon fill="white" stroke="none" points="-4,4 -4,-102 462,-102 462,4 -4,4"/>
<!-- Node1 -->
<g id="node1" class="node"><title>Node1</title>
<polygon fill="#bfbfbf" stroke="black" points="146,-67.5 146,-97.5 282,-97.5 282,-67.5 146,-67.5"/>
<text text-anchor="start" x="154" y="-85.5" font-family="Helvetica,sans-Serif" font-size="10.00">lib/carpi/lib/SDFileSystem</text>
<text text-anchor="middle" x="214" y="-74.5" font-family="Helvetica,sans-Serif" font-size="10.00">/SDFileSystem.h</text>
</g>
<!-- Node2 -->
<g id="node2" class="node"><title>Node2</title>
<g id="a_node2"><a xlink:href="_s_d_card_test_8h.html" target="_top" xlink:title="car/hardwareTest/mbed\l/SDCardTest.h">
<polygon fill="white" stroke="black" points="0,-0.5 0,-30.5 128,-30.5 128,-0.5 0,-0.5"/>
<text text-anchor="start" x="8" y="-18.5" font-family="Helvetica,sans-Serif" font-size="10.00">car/hardwareTest/mbed</text>
<text text-anchor="middle" x="64" y="-7.5" font-family="Helvetica,sans-Serif" font-size="10.00">/SDCardTest.h</text>
</a>
</g>
</g>
<!-- Node1&#45;&gt;Node2 -->
<g id="edge1" class="edge"><title>Node1&#45;&gt;Node2</title>
<path fill="none" stroke="midnightblue" d="M172.246,-63.4066C148.299,-53.0294 118.682,-40.1954 96.4842,-30.5765"/>
<polygon fill="midnightblue" stroke="midnightblue" points="170.885,-66.6313 181.452,-67.396 173.668,-60.2084 170.885,-66.6313"/>
</g>
<!-- Node3 -->
<g id="node3" class="node"><title>Node3</title>
<g id="a_node3"><a xlink:href="_s_d_file_system_8cpp.html" target="_top" xlink:title="lib/carpi/lib/SDFileSystem\l/SDFileSystem.cpp">
<polygon fill="white" stroke="black" points="146,-0.5 146,-30.5 282,-30.5 282,-0.5 146,-0.5"/>
<text text-anchor="start" x="154" y="-18.5" font-family="Helvetica,sans-Serif" font-size="10.00">lib/carpi/lib/SDFileSystem</text>
<text text-anchor="middle" x="214" y="-7.5" font-family="Helvetica,sans-Serif" font-size="10.00">/SDFileSystem.cpp</text>
</a>
</g>
</g>
<!-- Node1&#45;&gt;Node3 -->
<g id="edge2" class="edge"><title>Node1&#45;&gt;Node3</title>
<path fill="none" stroke="midnightblue" d="M214,-57.1081C214,-48.1539 214,-38.3227 214,-30.5765"/>
<polygon fill="midnightblue" stroke="midnightblue" points="210.5,-57.3959 214,-67.396 217.5,-57.396 210.5,-57.3959"/>
</g>
<!-- Node4 -->
<g id="node4" class="node"><title>Node4</title>
<g id="a_node4"><a xlink:href="_hardware_s_d_card_8h.html" target="_top" xlink:title="lib/carpi/src/components\l/hardware/HardwareSDCard.h">
<polygon fill="white" stroke="black" points="300,-0.5 300,-30.5 458,-30.5 458,-0.5 300,-0.5"/>
<text text-anchor="start" x="308" y="-18.5" font-family="Helvetica,sans-Serif" font-size="10.00">lib/carpi/src/components</text>
<text text-anchor="middle" x="379" y="-7.5" font-family="Helvetica,sans-Serif" font-size="10.00">/hardware/HardwareSDCard.h</text>
</a>
</g>
</g>
<!-- Node1&#45;&gt;Node4 -->
<g id="edge3" class="edge"><title>Node1&#45;&gt;Node4</title>
<path fill="none" stroke="midnightblue" d="M259.232,-63.6815C285.694,-53.2568 318.634,-40.2805 343.267,-30.5765"/>
<polygon fill="midnightblue" stroke="midnightblue" points="257.824,-60.4742 249.803,-67.396 260.389,-66.9871 257.824,-60.4742"/>
</g>
</g>
</svg>
