<?xml version="1.0" encoding="UTF-8" standalone="no"?>
<!DOCTYPE svg PUBLIC "-//W3C//DTD SVG 1.1//EN"
 "http://www.w3.org/Graphics/SVG/1.1/DTD/svg11.dtd">
<!-- Generated by graphviz version 2.38.0 (20140413.2041)
 -->
<!-- Title: lib/carpi/src/runable/services/SSpeed.h Pages: 1 -->
<!--zoomable 665 -->
<svg id="main" version="1.1" xmlns="http://www.w3.org/2000/svg" xmlns:xlink="http://www.w3.org/1999/xlink" xml:space="preserve" onload="init(evt)">
<style type="text/css"><![CDATA[
.edge:hover path { stroke: red; }
.edge:hover polygon { stroke: red; fill: red; }
]]></style>
<script type="text/javascript"><![CDATA[
var edges = document.getElementsByTagName('g');
if (edges && edges.length) {
  for (var i=0;i<edges.length;i++) {
    if (edges[i].id.substr(0,4)=='edge') {
      edges[i].setAttribute('class','edge');
    }
  }
}
]]></script>
        <defs>
                <circle id="rim" cx="0" cy="0" r="7"/>
                <circle id="rim2" cx="0" cy="0" r="3.5"/>
                <g id="zoomPlus">
                        <use xlink:href="#rim" fill="#404040">
                                <set attributeName="fill" to="#808080" begin="zoomplus.mouseover" end="zoomplus.mouseout"/>
                        </use>
                        <path d="M-4,0h8M0,-4v8" fill="none" stroke="white" stroke-width="1.5" pointer-events="none"/>
                </g>
                <g id="zoomMin">
                        <use xlink:href="#rim" fill="#404040">
                                <set attributeName="fill" to="#808080" begin="zoomminus.mouseover" end="zoomminus.mouseout"/>
                        </use>
                        <path d="M-4,0h8" fill="none" stroke="white" stroke-width="1.5" pointer-events="none"/>
                </g>
                <g id="dirArrow">
                        <path fill="none" stroke="white" stroke-width="1.5" d="M0,-3.0v7 M-2.5,-0.5L0,-3.0L2.5,-0.5"/>
                </g>
               <g id="resetDef">
                       <use xlink:href="#rim2" fill="#404040">
                               <set attributeName="fill" to="#808080" begin="reset.mouseover" end="reset.mouseout"/>
                       </use>
               </g>
        </defs>

<script type="text/javascript">
var viewWidth = 1201;
var viewHeight = 665;
var sectionId = 'dynsection-0';
</script>
<script xlink:href="svgpan.js"/>
<svg id="graph" class="graph">
<g id="viewport">
<title>lib/carpi/src/runable/services/SSpeed.h</title>
<polygon fill="white" stroke="none" points="-4,4 -4,-661 1196.5,-661 1196.5,4 -4,4"/>
<!-- Node1 -->
<g id="node1" class="node"><title>Node1</title>
<polygon fill="#bfbfbf" stroke="black" points="847,-626.5 847,-656.5 957,-656.5 957,-626.5 847,-626.5"/>
<text text-anchor="start" x="855" y="-644.5" font-family="Helvetica,sans-Serif" font-size="10.00">lib/carpi/src/runable</text>
<text text-anchor="middle" x="902" y="-633.5" font-family="Helvetica,sans-Serif" font-size="10.00">/services/SSpeed.h</text>
</g>
<!-- Node2 -->
<g id="node2" class="node"><title>Node2</title>
<g id="a_node2"><a xlink:href="_i_service_8h.html" target="_top" xlink:title="IService.h">
<polygon fill="white" stroke="black" points="953.5,-509 953.5,-528 1016.5,-528 1016.5,-509 953.5,-509"/>
<text text-anchor="middle" x="985" y="-516" font-family="Helvetica,sans-Serif" font-size="10.00">IService.h</text>
</a>
</g>
</g>
<!-- Node1&#45;&gt;Node2 -->
<g id="edge1" class="edge"><title>Node1&#45;&gt;Node2</title>
<path fill="none" stroke="midnightblue" d="M888.435,-626.249C876.069,-611.457 861.365,-588.009 873,-570 881.709,-556.519 918.882,-541.437 948.044,-531.294"/>
<polygon fill="midnightblue" stroke="midnightblue" points="949.234,-534.587 957.575,-528.053 946.98,-527.959 949.234,-534.587"/>
</g>
<!-- Node9 -->
<g id="node9" class="node"><title>Node9</title>
<g id="a_node9"><a xlink:href="_s_car_8h.html" target="_top" xlink:title="SCar.h">
<polygon fill="white" stroke="black" points="637,-570.5 637,-589.5 685,-589.5 685,-570.5 637,-570.5"/>
<text text-anchor="middle" x="661" y="-577.5" font-family="Helvetica,sans-Serif" font-size="10.00">SCar.h</text>
</a>
</g>
</g>
<!-- Node1&#45;&gt;Node9 -->
<g id="edge8" class="edge"><title>Node1&#45;&gt;Node9</title>
<path fill="none" stroke="midnightblue" d="M846.71,-626.849C800.02,-615.322 734.639,-599.181 695.202,-589.444"/>
<polygon fill="midnightblue" stroke="midnightblue" points="695.83,-585.994 685.283,-586.995 694.152,-592.79 695.83,-585.994"/>
</g>
<!-- Node30 -->
<g id="node30" class="node"><title>Node30</title>
<polygon fill="white" stroke="#bfbfbf" points="882.5,-570.5 882.5,-589.5 1019.5,-589.5 1019.5,-570.5 882.5,-570.5"/>
<text text-anchor="middle" x="951" y="-577.5" font-family="Helvetica,sans-Serif" font-size="10.00">../interface/IRpmSensor.h</text>
</g>
<!-- Node1&#45;&gt;Node30 -->
<g id="edge61" class="edge"><title>Node1&#45;&gt;Node30</title>
<path fill="none" stroke="midnightblue" d="M913.612,-626.399C920.733,-617.753 929.883,-606.642 937.349,-597.576"/>
<polygon fill="midnightblue" stroke="midnightblue" points="940.215,-599.602 943.87,-589.658 934.811,-595.152 940.215,-599.602"/>
</g>
<!-- Node31 -->
<g id="node31" class="node"><title>Node31</title>
<polygon fill="white" stroke="#bfbfbf" points="1037.5,-570.5 1037.5,-589.5 1192.5,-589.5 1192.5,-570.5 1037.5,-570.5"/>
<text text-anchor="middle" x="1115" y="-577.5" font-family="Helvetica,sans-Serif" font-size="10.00">../interface/IMotorController.h</text>
</g>
<!-- Node1&#45;&gt;Node31 -->
<g id="edge62" class="edge"><title>Node1&#45;&gt;Node31</title>
<path fill="none" stroke="midnightblue" d="M952.208,-626.475C989.597,-616.03 1039.98,-601.958 1074.74,-592.247"/>
<polygon fill="midnightblue" stroke="midnightblue" points="1075.86,-595.568 1084.55,-589.506 1073.98,-588.826 1075.86,-595.568"/>
</g>
<!-- Node3 -->
<g id="node3" class="node"><title>Node3</title>
<g id="a_node3"><a xlink:href="_i_runable_8h.html" target="_top" xlink:title="../IRunable.h">
<polygon fill="white" stroke="black" points="545,-185 545,-204 619,-204 619,-185 545,-185"/>
<text text-anchor="middle" x="582" y="-192" font-family="Helvetica,sans-Serif" font-size="10.00">../IRunable.h</text>
</a>
</g>
</g>
<!-- Node2&#45;&gt;Node3 -->
<g id="edge2" class="edge"><title>Node2&#45;&gt;Node3</title>
<path fill="none" stroke="midnightblue" d="M975.497,-508.892C949.801,-485.706 876.591,-420.235 813,-369 737.111,-307.857 643.346,-239.579 602.56,-210.22"/>
<polygon fill="midnightblue" stroke="midnightblue" points="604.409,-207.239 594.245,-204.247 600.325,-212.924 604.409,-207.239"/>
</g>
<!-- Node4 -->
<g id="node4" class="node"><title>Node4</title>
<g id="a_node4"><a xlink:href="_i_component_8h.html" target="_top" xlink:title="components/interface\l/IComponent.h">
<polygon fill="white" stroke="black" points="586,-112.5 586,-142.5 708,-142.5 708,-112.5 586,-112.5"/>
<text text-anchor="start" x="594" y="-130.5" font-family="Helvetica,sans-Serif" font-size="10.00">components/interface</text>
<text text-anchor="middle" x="647" y="-119.5" font-family="Helvetica,sans-Serif" font-size="10.00">/IComponent.h</text>
</a>
</g>
</g>
<!-- Node3&#45;&gt;Node4 -->
<g id="edge3" class="edge"><title>Node3&#45;&gt;Node4</title>
<path fill="none" stroke="midnightblue" d="M590.766,-184.734C599.635,-175.865 613.689,-161.811 625.528,-149.972"/>
<polygon fill="midnightblue" stroke="midnightblue" points="628.315,-152.135 632.911,-142.589 623.365,-147.185 628.315,-152.135"/>
</g>
<!-- Node5 -->
<g id="node5" class="node"><title>Node5</title>
<g id="a_node5"><a xlink:href="component_ids_8h.html" target="_top" xlink:title="communication/componentIds.h">
<polygon fill="white" stroke="black" points="88.5,-56.5 88.5,-75.5 259.5,-75.5 259.5,-56.5 88.5,-56.5"/>
<text text-anchor="middle" x="174" y="-63.5" font-family="Helvetica,sans-Serif" font-size="10.00">communication/componentIds.h</text>
</a>
</g>
</g>
<!-- Node4&#45;&gt;Node5 -->
<g id="edge4" class="edge"><title>Node4&#45;&gt;Node5</title>
<path fill="none" stroke="midnightblue" d="M585.648,-118.782C500.151,-108.027 345.175,-88.5326 251.705,-76.7748"/>
<polygon fill="midnightblue" stroke="midnightblue" points="252.098,-73.2967 241.739,-75.5211 251.224,-80.2419 252.098,-73.2967"/>
</g>
<!-- Node7 -->
<g id="node7" class="node"><title>Node7</title>
<g id="a_node7"><a xlink:href="_i_logable_8h.html" target="_top" xlink:title="ILogable.h">
<polygon fill="white" stroke="black" points="741.5,-56.5 741.5,-75.5 806.5,-75.5 806.5,-56.5 741.5,-56.5"/>
<text text-anchor="middle" x="774" y="-63.5" font-family="Helvetica,sans-Serif" font-size="10.00">ILogable.h</text>
</a>
</g>
</g>
<!-- Node4&#45;&gt;Node7 -->
<g id="edge6" class="edge"><title>Node4&#45;&gt;Node7</title>
<path fill="none" stroke="midnightblue" d="M677.097,-112.399C698.12,-102.55 725.972,-89.5014 746.419,-79.9217"/>
<polygon fill="midnightblue" stroke="midnightblue" points="747.95,-83.0698 755.52,-75.6578 744.98,-76.7309 747.95,-83.0698"/>
</g>
<!-- Node6 -->
<g id="node6" class="node"><title>Node6</title>
<polygon fill="white" stroke="#bfbfbf" points="204.5,-0.5 204.5,-19.5 257.5,-19.5 257.5,-0.5 204.5,-0.5"/>
<text text-anchor="middle" x="231" y="-7.5" font-family="Helvetica,sans-Serif" font-size="10.00">stdint.h</text>
</g>
<!-- Node5&#45;&gt;Node6 -->
<g id="edge5" class="edge"><title>Node5&#45;&gt;Node6</title>
<path fill="none" stroke="midnightblue" d="M183.158,-56.324C191.501,-48.4196 204.032,-36.5482 214.177,-26.9377"/>
<polygon fill="midnightblue" stroke="midnightblue" points="216.823,-29.2522 221.675,-19.8339 212.009,-24.1705 216.823,-29.2522"/>
</g>
<!-- Node8 -->
<g id="node8" class="node"><title>Node8</title>
<polygon fill="white" stroke="#bfbfbf" points="892,-0.5 892,-19.5 936,-19.5 936,-0.5 892,-0.5"/>
<text text-anchor="middle" x="914" y="-7.5" font-family="Helvetica,sans-Serif" font-size="10.00">string</text>
</g>
<!-- Node7&#45;&gt;Node8 -->
<g id="edge7" class="edge"><title>Node7&#45;&gt;Node8</title>
<path fill="none" stroke="midnightblue" d="M796.183,-56.4435C819.428,-47.4776 856.149,-33.314 882.415,-23.1827"/>
<polygon fill="midnightblue" stroke="midnightblue" points="883.85,-26.3807 891.92,-19.5164 881.331,-19.8497 883.85,-26.3807"/>
</g>
<!-- Node9&#45;&gt;Node2 -->
<g id="edge10" class="edge"><title>Node9&#45;&gt;Node2</title>
<path fill="none" stroke="midnightblue" d="M685.03,-576.301C733.492,-570.597 846.235,-556.006 939,-534 942.636,-533.138 946.402,-532.135 950.142,-531.068"/>
<polygon fill="midnightblue" stroke="midnightblue" points="951.306,-534.373 959.876,-528.142 949.292,-527.669 951.306,-534.373"/>
</g>
<!-- Node9&#45;&gt;Node5 -->
<g id="edge43" class="edge"><title>Node9&#45;&gt;Node5</title>
<path fill="none" stroke="midnightblue" d="M636.883,-578.274C532.088,-574.974 119.23,-560.385 68,-534 26.061,-512.4 0,-499.674 0,-452.5 0,-452.5 0,-452.5 0,-193.5 0,-129.642 77.618,-94.6557 129.173,-78.4601"/>
<polygon fill="midnightblue" stroke="midnightblue" points="130.225,-81.7986 138.789,-75.5602 128.204,-75.0968 130.225,-81.7986"/>
</g>
<!-- Node9&#45;&gt;Node8 -->
<g id="edge9" class="edge"><title>Node9&#45;&gt;Node8</title>
<path fill="none" stroke="midnightblue" d="M685.096,-578.504C722.668,-576.629 796.072,-568.442 846,-534 875.732,-513.489 875.554,-499.159 892,-467 953.18,-347.363 1010.35,-310.763 984,-179 972.42,-121.099 940.445,-58.209 924.022,-28.4673"/>
<polygon fill="midnightblue" stroke="midnightblue" points="927.05,-26.711 919.101,-19.7069 920.947,-30.1396 927.05,-26.711"/>
</g>
<!-- Node10 -->
<g id="node10" class="node"><title>Node10</title>
<g id="a_node10"><a xlink:href="_p_cockpit_indicator_8h.html" target="_top" xlink:title="runable/programs/PCockpit\lIndicator.h">
<polygon fill="white" stroke="black" points="588,-503.5 588,-533.5 734,-533.5 734,-503.5 588,-503.5"/>
<text text-anchor="start" x="596" y="-521.5" font-family="Helvetica,sans-Serif" font-size="10.00">runable/programs/PCockpit</text>
<text text-anchor="middle" x="661" y="-510.5" font-family="Helvetica,sans-Serif" font-size="10.00">Indicator.h</text>
</a>
</g>
</g>
<!-- Node9&#45;&gt;Node10 -->
<g id="edge11" class="edge"><title>Node9&#45;&gt;Node10</title>
<path fill="none" stroke="midnightblue" d="M661,-570.475C661,-563.471 661,-553.192 661,-543.696"/>
<polygon fill="midnightblue" stroke="midnightblue" points="664.5,-543.523 661,-533.523 657.5,-543.523 664.5,-543.523"/>
</g>
<!-- Node12 -->
<g id="node12" class="node"><title>Node12</title>
<g id="a_node12"><a xlink:href="_i_hv_enabled_8h.html" target="_top" xlink:title="components/interface\l/IHvEnabled.h">
<polygon fill="white" stroke="black" points="650,-436.5 650,-466.5 772,-466.5 772,-436.5 650,-436.5"/>
<text text-anchor="start" x="658" y="-454.5" font-family="Helvetica,sans-Serif" font-size="10.00">components/interface</text>
<text text-anchor="middle" x="711" y="-443.5" font-family="Helvetica,sans-Serif" font-size="10.00">/IHvEnabled.h</text>
</a>
</g>
</g>
<!-- Node9&#45;&gt;Node12 -->
<g id="edge53" class="edge"><title>Node9&#45;&gt;Node12</title>
<path fill="none" stroke="midnightblue" d="M685.152,-573.025C704.573,-566.808 730.593,-554.962 743,-534 754.143,-515.174 742.645,-491.759 730.44,-474.863"/>
<polygon fill="midnightblue" stroke="midnightblue" points="732.997,-472.448 724.109,-466.681 727.46,-476.732 732.997,-472.448"/>
</g>
<!-- Node13 -->
<g id="node13" class="node"><title>Node13</title>
<g id="a_node13"><a xlink:href="_i_led_8h.html" target="_top" xlink:title="components/interface\l/ILed.h">
<polygon fill="white" stroke="black" points="422,-436.5 422,-466.5 544,-466.5 544,-436.5 422,-436.5"/>
<text text-anchor="start" x="430" y="-454.5" font-family="Helvetica,sans-Serif" font-size="10.00">components/interface</text>
<text text-anchor="middle" x="483" y="-443.5" font-family="Helvetica,sans-Serif" font-size="10.00">/ILed.h</text>
</a>
</g>
</g>
<!-- Node9&#45;&gt;Node13 -->
<g id="edge47" class="edge"><title>Node9&#45;&gt;Node13</title>
<path fill="none" stroke="midnightblue" d="M642.79,-570.341C625.752,-561.932 599.866,-548.364 579,-534 564.502,-524.02 530.264,-494.352 506.853,-473.712"/>
<polygon fill="midnightblue" stroke="midnightblue" points="508.884,-470.835 499.074,-466.834 504.247,-476.08 508.884,-470.835"/>
</g>
<!-- Node15 -->
<g id="node15" class="node"><title>Node15</title>
<g id="a_node15"><a xlink:href="_sync_8h.html" target="_top" xlink:title="Sync.h">
<polygon fill="white" stroke="black" points="277.5,-313.5 277.5,-332.5 326.5,-332.5 326.5,-313.5 277.5,-313.5"/>
<text text-anchor="middle" x="302" y="-320.5" font-family="Helvetica,sans-Serif" font-size="10.00">Sync.h</text>
</a>
</g>
</g>
<!-- Node9&#45;&gt;Node15 -->
<g id="edge59" class="edge"><title>Node9&#45;&gt;Node15</title>
<path fill="none" stroke="midnightblue" d="M636.714,-578.433C547.251,-576.098 239.778,-565.8 211,-534 196.767,-518.272 202.679,-430.973 243,-369 251.342,-356.179 264.637,-345.571 276.497,-337.881"/>
<polygon fill="midnightblue" stroke="midnightblue" points="278.469,-340.778 285.181,-332.58 274.822,-334.803 278.469,-340.778"/>
</g>
<!-- Node22 -->
<g id="node22" class="node"><title>Node22</title>
<g id="a_node22"><a xlink:href="_hard_config_8h.html" target="_top" xlink:title="HardConfig.h">
<polygon fill="white" stroke="black" points="28.5,-252 28.5,-271 107.5,-271 107.5,-252 28.5,-252"/>
<text text-anchor="middle" x="68" y="-259" font-family="Helvetica,sans-Serif" font-size="10.00">HardConfig.h</text>
</a>
</g>
</g>
<!-- Node9&#45;&gt;Node22 -->
<g id="edge60" class="edge"><title>Node9&#45;&gt;Node22</title>
<path fill="none" stroke="midnightblue" d="M636.959,-579.337C522.466,-580.312 38,-577.077 38,-452.5 38,-452.5 38,-452.5 38,-383.5 38,-345.963 51.7698,-303.75 60.6516,-280.426"/>
<polygon fill="midnightblue" stroke="midnightblue" points="63.9074,-281.71 64.3214,-271.123 57.3958,-279.141 63.9074,-281.71"/>
</g>
<!-- Node23 -->
<g id="node23" class="node"><title>Node23</title>
<g id="a_node23"><a xlink:href="_p_brake_light_8h.html" target="_top" xlink:title="runable/programs/PBrakeLight.h">
<polygon fill="white" stroke="black" points="360.5,-509 360.5,-528 531.5,-528 531.5,-509 360.5,-509"/>
<text text-anchor="middle" x="446" y="-516" font-family="Helvetica,sans-Serif" font-size="10.00">runable/programs/PBrakeLight.h</text>
</a>
</g>
</g>
<!-- Node9&#45;&gt;Node23 -->
<g id="edge38" class="edge"><title>Node9&#45;&gt;Node23</title>
<path fill="none" stroke="midnightblue" d="M636.755,-572.29C600.28,-562.196 530.858,-542.984 486.582,-530.731"/>
<polygon fill="midnightblue" stroke="midnightblue" points="487.292,-527.296 476.72,-528.002 485.425,-534.042 487.292,-527.296"/>
</g>
<!-- Node25 -->
<g id="node25" class="node"><title>Node25</title>
<g id="a_node25"><a xlink:href="_i_button_8h.html" target="_top" xlink:title="components/interface\l/IButton.h">
<polygon fill="white" stroke="black" points="66,-436.5 66,-466.5 188,-466.5 188,-436.5 66,-436.5"/>
<text text-anchor="start" x="74" y="-454.5" font-family="Helvetica,sans-Serif" font-size="10.00">components/interface</text>
<text text-anchor="middle" x="127" y="-443.5" font-family="Helvetica,sans-Serif" font-size="10.00">/IButton.h</text>
</a>
</g>
</g>
<!-- Node9&#45;&gt;Node25 -->
<g id="edge44" class="edge"><title>Node9&#45;&gt;Node25</title>
<path fill="none" stroke="midnightblue" d="M636.804,-579.513C550.099,-580.935 255.971,-582.048 178,-534 156.68,-520.862 142.833,-495.13 135.022,-476.078"/>
<polygon fill="midnightblue" stroke="midnightblue" points="138.226,-474.658 131.387,-466.566 131.687,-477.156 138.226,-474.658"/>
</g>
<!-- Node26 -->
<g id="node26" class="node"><title>Node26</title>
<g id="a_node26"><a xlink:href="_i_buzzer_8h.html" target="_top" xlink:title="components/interface\l/IBuzzer.h">
<polygon fill="white" stroke="black" points="682,-369.5 682,-399.5 804,-399.5 804,-369.5 682,-369.5"/>
<text text-anchor="start" x="690" y="-387.5" font-family="Helvetica,sans-Serif" font-size="10.00">components/interface</text>
<text text-anchor="middle" x="743" y="-376.5" font-family="Helvetica,sans-Serif" font-size="10.00">/IBuzzer.h</text>
</a>
</g>
</g>
<!-- Node9&#45;&gt;Node26 -->
<g id="edge48" class="edge"><title>Node9&#45;&gt;Node26</title>
<path fill="none" stroke="midnightblue" d="M685.157,-573.979C707.58,-568.101 740.367,-556.207 760,-534 789.504,-500.628 795.12,-478.247 781,-436 777.557,-425.698 771.094,-415.811 764.461,-407.56"/>
<polygon fill="midnightblue" stroke="midnightblue" points="767.05,-405.202 757.878,-399.898 761.741,-409.764 767.05,-405.202"/>
</g>
<!-- Node27 -->
<g id="node27" class="node"><title>Node27</title>
<g id="a_node27"><a xlink:href="_i_motor_controller_8h.html" target="_top" xlink:title="components/interface\l/IMotorController.h">
<polygon fill="white" stroke="black" points="713,-179.5 713,-209.5 835,-209.5 835,-179.5 713,-179.5"/>
<text text-anchor="start" x="721" y="-197.5" font-family="Helvetica,sans-Serif" font-size="10.00">components/interface</text>
<text text-anchor="middle" x="774" y="-186.5" font-family="Helvetica,sans-Serif" font-size="10.00">/IMotorController.h</text>
</a>
</g>
</g>
<!-- Node9&#45;&gt;Node27 -->
<g id="edge50" class="edge"><title>Node9&#45;&gt;Node27</title>
<path fill="none" stroke="midnightblue" d="M685.163,-574.992C711.929,-569.545 755.229,-557.642 785,-534 818.836,-507.129 838,-495.708 838,-452.5 838,-452.5 838,-452.5 838,-322 838,-281.709 811.831,-241.221 792.96,-217.263"/>
<polygon fill="midnightblue" stroke="midnightblue" points="795.672,-215.05 786.644,-209.505 790.244,-219.47 795.672,-215.05"/>
</g>
<!-- Node28 -->
<g id="node28" class="node"><title>Node28</title>
<g id="a_node28"><a xlink:href="_i_s_d_card_8h.html" target="_top" xlink:title="components/interface\l/ISDCard.h">
<polygon fill="white" stroke="black" points="853,-179.5 853,-209.5 975,-209.5 975,-179.5 853,-179.5"/>
<text text-anchor="start" x="861" y="-197.5" font-family="Helvetica,sans-Serif" font-size="10.00">components/interface</text>
<text text-anchor="middle" x="914" y="-186.5" font-family="Helvetica,sans-Serif" font-size="10.00">/ISDCard.h</text>
</a>
</g>
</g>
<!-- Node9&#45;&gt;Node28 -->
<g id="edge54" class="edge"><title>Node9&#45;&gt;Node28</title>
<path fill="none" stroke="midnightblue" d="M685.081,-577.832C718.243,-575.05 778.257,-565.659 817,-534 914.574,-454.266 917.906,-283.481 915.5,-219.96"/>
<polygon fill="midnightblue" stroke="midnightblue" points="918.985,-219.548 915.024,-209.721 911.992,-219.873 918.985,-219.548"/>
</g>
<!-- Node29 -->
<g id="node29" class="node"><title>Node29</title>
<g id="a_node29"><a xlink:href="_i_alive_8h.html" target="_top" xlink:title="components/interface\l/IAlive.h">
<polygon fill="white" stroke="black" points="220,-503.5 220,-533.5 342,-533.5 342,-503.5 220,-503.5"/>
<text text-anchor="start" x="228" y="-521.5" font-family="Helvetica,sans-Serif" font-size="10.00">components/interface</text>
<text text-anchor="middle" x="281" y="-510.5" font-family="Helvetica,sans-Serif" font-size="10.00">/IAlive.h</text>
</a>
</g>
</g>
<!-- Node9&#45;&gt;Node29 -->
<g id="edge57" class="edge"><title>Node9&#45;&gt;Node29</title>
<path fill="none" stroke="midnightblue" d="M636.804,-575.991C586.03,-569.57 464.453,-553.634 352.18,-534.144"/>
<polygon fill="midnightblue" stroke="midnightblue" points="352.496,-530.646 342.042,-532.37 351.289,-537.541 352.496,-530.646"/>
</g>
<!-- Node11 -->
<g id="node11" class="node"><title>Node11</title>
<g id="a_node11"><a xlink:href="_i_program_8h.html" target="_top" xlink:title="IProgram.h">
<polygon fill="white" stroke="black" points="562.5,-442 562.5,-461 631.5,-461 631.5,-442 562.5,-442"/>
<text text-anchor="middle" x="597" y="-449" font-family="Helvetica,sans-Serif" font-size="10.00">IProgram.h</text>
</a>
</g>
</g>
<!-- Node10&#45;&gt;Node11 -->
<g id="edge12" class="edge"><title>Node10&#45;&gt;Node11</title>
<path fill="none" stroke="midnightblue" d="M647.113,-503.396C637.035,-493.161 623.384,-479.296 612.874,-468.622"/>
<polygon fill="midnightblue" stroke="midnightblue" points="615.071,-465.865 605.561,-461.195 610.083,-470.776 615.071,-465.865"/>
</g>
<!-- Node10&#45;&gt;Node12 -->
<g id="edge14" class="edge"><title>Node10&#45;&gt;Node12</title>
<path fill="none" stroke="midnightblue" d="M671.849,-503.396C678.336,-494.963 686.717,-484.067 694.06,-474.522"/>
<polygon fill="midnightblue" stroke="midnightblue" points="696.849,-476.637 700.172,-466.577 691.301,-472.369 696.849,-476.637"/>
</g>
<!-- Node10&#45;&gt;Node13 -->
<g id="edge16" class="edge"><title>Node10&#45;&gt;Node13</title>
<path fill="none" stroke="midnightblue" d="M622.377,-503.396C595.552,-493.601 559.625,-480.481 530.965,-470.015"/>
<polygon fill="midnightblue" stroke="midnightblue" points="532.142,-466.719 521.548,-466.577 529.741,-473.294 532.142,-466.719"/>
</g>
<!-- Node11&#45;&gt;Node3 -->
<g id="edge13" class="edge"><title>Node11&#45;&gt;Node3</title>
<path fill="none" stroke="midnightblue" d="M596.484,-441.722C594.343,-405.323 586.133,-265.767 583.119,-214.519"/>
<polygon fill="midnightblue" stroke="midnightblue" points="586.595,-214.018 582.514,-204.241 579.608,-214.429 586.595,-214.018"/>
</g>
<!-- Node12&#45;&gt;Node4 -->
<g id="edge15" class="edge"><title>Node12&#45;&gt;Node4</title>
<path fill="none" stroke="midnightblue" d="M698.356,-436.495C679.704,-414.329 647,-369.041 647,-324 647,-324 647,-324 647,-260.5 647,-223.003 647,-179.513 647,-153.011"/>
<polygon fill="midnightblue" stroke="midnightblue" points="650.5,-152.759 647,-142.759 643.5,-152.759 650.5,-152.759"/>
</g>
<!-- Node14 -->
<g id="node14" class="node"><title>Node14</title>
<g id="a_node14"><a xlink:href="_self_syncable_8h.html" target="_top" xlink:title="communication/SelfSyncable.h">
<polygon fill="white" stroke="black" points="252,-375 252,-394 416,-394 416,-375 252,-375"/>
<text text-anchor="middle" x="334" y="-382" font-family="Helvetica,sans-Serif" font-size="10.00">communication/SelfSyncable.h</text>
</a>
</g>
</g>
<!-- Node13&#45;&gt;Node14 -->
<g id="edge17" class="edge"><title>Node13&#45;&gt;Node14</title>
<path fill="none" stroke="midnightblue" d="M450.669,-436.396C424.525,-424.991 388.051,-409.079 362.878,-398.098"/>
<polygon fill="midnightblue" stroke="midnightblue" points="364.066,-394.798 353.501,-394.007 361.267,-401.214 364.066,-394.798"/>
</g>
<!-- Node14&#45;&gt;Node15 -->
<g id="edge18" class="edge"><title>Node14&#45;&gt;Node15</title>
<path fill="none" stroke="midnightblue" d="M329.415,-374.975C324.758,-366.315 317.408,-352.649 311.49,-341.645"/>
<polygon fill="midnightblue" stroke="midnightblue" points="314.395,-339.658 306.576,-332.509 308.23,-342.974 314.395,-339.658"/>
</g>
<!-- Node21 -->
<g id="node21" class="node"><title>Node21</title>
<g id="a_node21"><a xlink:href="_i_communication_8h.html" target="_top" xlink:title="components/interface\l/ICommunication.h">
<polygon fill="white" stroke="black" points="368,-246.5 368,-276.5 490,-276.5 490,-246.5 368,-246.5"/>
<text text-anchor="start" x="376" y="-264.5" font-family="Helvetica,sans-Serif" font-size="10.00">components/interface</text>
<text text-anchor="middle" x="429" y="-253.5" font-family="Helvetica,sans-Serif" font-size="10.00">/ICommunication.h</text>
</a>
</g>
</g>
<!-- Node14&#45;&gt;Node21 -->
<g id="edge37" class="edge"><title>Node14&#45;&gt;Node21</title>
<path fill="none" stroke="midnightblue" d="M340.832,-374.798C355.497,-356.12 390.378,-311.693 411.607,-284.653"/>
<polygon fill="midnightblue" stroke="midnightblue" points="414.555,-286.566 417.978,-276.539 409.049,-282.243 414.555,-286.566"/>
</g>
<!-- Node15&#45;&gt;Node3 -->
<g id="edge35" class="edge"><title>Node15&#45;&gt;Node3</title>
<path fill="none" stroke="midnightblue" d="M326.577,-319.695C378.816,-314.401 498.828,-300.03 532,-277 554.331,-261.496 568.553,-232.475 575.902,-213.576"/>
<polygon fill="midnightblue" stroke="midnightblue" points="579.244,-214.627 579.365,-204.033 572.664,-212.239 579.244,-214.627"/>
</g>
<!-- Node15&#45;&gt;Node4 -->
<g id="edge28" class="edge"><title>Node15&#45;&gt;Node4</title>
<path fill="none" stroke="midnightblue" d="M326.555,-319.296C373.444,-313.676 473.353,-299.367 499,-277 534.088,-246.4 504.183,-212.988 536,-179 549.492,-164.588 567.881,-153.975 585.811,-146.305"/>
<polygon fill="midnightblue" stroke="midnightblue" points="587.148,-149.54 595.117,-142.558 584.533,-143.047 587.148,-149.54"/>
</g>
<!-- Node15&#45;&gt;Node5 -->
<g id="edge20" class="edge"><title>Node15&#45;&gt;Node5</title>
<path fill="none" stroke="midnightblue" d="M277.04,-319.259C250.832,-314.978 210.505,-304.145 189,-277 144.075,-220.294 159.652,-125.742 169.03,-85.7621"/>
<polygon fill="midnightblue" stroke="midnightblue" points="172.489,-86.3572 171.509,-75.8078 165.696,-84.6657 172.489,-86.3572"/>
</g>
<!-- Node16 -->
<g id="node16" class="node"><title>Node16</title>
<polygon fill="white" stroke="#bfbfbf" points="316.5,-118 316.5,-137 363.5,-137 363.5,-118 316.5,-118"/>
<text text-anchor="middle" x="340" y="-125" font-family="Helvetica,sans-Serif" font-size="10.00">vector</text>
</g>
<!-- Node15&#45;&gt;Node16 -->
<g id="edge19" class="edge"><title>Node15&#45;&gt;Node16</title>
<path fill="none" stroke="midnightblue" d="M303.147,-313.234C306.156,-290.772 314.821,-229.38 326,-179 328.406,-168.158 331.7,-156.175 334.489,-146.603"/>
<polygon fill="midnightblue" stroke="midnightblue" points="337.846,-147.593 337.348,-137.01 331.137,-145.593 337.846,-147.593"/>
</g>
<!-- Node17 -->
<g id="node17" class="node"><title>Node17</title>
<g id="a_node17"><a xlink:href="device_ids_8h.html" target="_top" xlink:title="deviceIds.h">
<polygon fill="white" stroke="black" points="382,-118 382,-137 452,-137 452,-118 382,-118"/>
<text text-anchor="middle" x="417" y="-125" font-family="Helvetica,sans-Serif" font-size="10.00">deviceIds.h</text>
</a>
</g>
</g>
<!-- Node15&#45;&gt;Node17 -->
<g id="edge21" class="edge"><title>Node15&#45;&gt;Node17</title>
<path fill="none" stroke="midnightblue" d="M307.09,-313.436C324.598,-283.976 382.582,-186.412 406.521,-146.132"/>
<polygon fill="midnightblue" stroke="midnightblue" points="409.606,-147.791 411.707,-137.407 403.589,-144.215 409.606,-147.791"/>
</g>
<!-- Node18 -->
<g id="node18" class="node"><title>Node18</title>
<g id="a_node18"><a xlink:href="_car_message_8h.html" target="_top" xlink:title="CarMessage.h">
<polygon fill="white" stroke="black" points="188.5,-185 188.5,-204 273.5,-204 273.5,-185 188.5,-185"/>
<text text-anchor="middle" x="231" y="-192" font-family="Helvetica,sans-Serif" font-size="10.00">CarMessage.h</text>
</a>
</g>
</g>
<!-- Node15&#45;&gt;Node18 -->
<g id="edge22" class="edge"><title>Node15&#45;&gt;Node18</title>
<path fill="none" stroke="midnightblue" d="M277.08,-319.103C252.036,-314.718 214.687,-303.823 197,-277 183.22,-256.101 200.85,-228.707 215.428,-211.604"/>
<polygon fill="midnightblue" stroke="midnightblue" points="218.089,-213.879 222.188,-204.109 212.891,-209.191 218.089,-213.879"/>
</g>
<!-- Node20 -->
<g id="node20" class="node"><title>Node20</title>
<g id="a_node20"><a xlink:href="_i_channel_8h.html" target="_top" xlink:title="IChannel.h">
<polygon fill="white" stroke="black" points="206.5,-252 206.5,-271 273.5,-271 273.5,-252 206.5,-252"/>
<text text-anchor="middle" x="240" y="-259" font-family="Helvetica,sans-Serif" font-size="10.00">IChannel.h</text>
</a>
</g>
</g>
<!-- Node15&#45;&gt;Node20 -->
<g id="edge29" class="edge"><title>Node15&#45;&gt;Node20</title>
<path fill="none" stroke="midnightblue" d="M293.117,-313.475C283.541,-304.285 268.089,-289.456 256.314,-278.156"/>
<polygon fill="midnightblue" stroke="midnightblue" points="258.505,-275.408 248.867,-271.009 253.658,-280.458 258.505,-275.408"/>
</g>
<!-- Node15&#45;&gt;Node21 -->
<g id="edge32" class="edge"><title>Node15&#45;&gt;Node21</title>
<path fill="none" stroke="midnightblue" d="M320.196,-313.475C338.281,-305.002 366.594,-291.737 389.805,-280.863"/>
<polygon fill="midnightblue" stroke="midnightblue" points="391.498,-283.935 399.069,-276.523 388.528,-277.596 391.498,-283.935"/>
</g>
<!-- Node15&#45;&gt;Node22 -->
<g id="edge36" class="edge"><title>Node15&#45;&gt;Node22</title>
<path fill="none" stroke="midnightblue" d="M277.217,-315.948C242.477,-307.433 177.346,-291.348 122,-277 117.877,-275.931 113.582,-274.803 109.293,-273.667"/>
<polygon fill="midnightblue" stroke="midnightblue" points="109.95,-270.22 99.3854,-271.026 108.147,-276.984 109.95,-270.22"/>
</g>
<!-- Node18&#45;&gt;Node5 -->
<g id="edge27" class="edge"><title>Node18&#45;&gt;Node5</title>
<path fill="none" stroke="midnightblue" d="M222.806,-184.914C214.163,-175.399 200.746,-159.242 193,-143 184.237,-124.627 179.226,-101.759 176.575,-85.9326"/>
<polygon fill="midnightblue" stroke="midnightblue" points="180.001,-85.1806 175.042,-75.818 173.08,-86.2296 180.001,-85.1806"/>
</g>
<!-- Node18&#45;&gt;Node6 -->
<g id="edge25" class="edge"><title>Node18&#45;&gt;Node6</title>
<path fill="none" stroke="midnightblue" d="M240.088,-184.843C249.163,-175.512 262.526,-159.735 268,-143 280.022,-106.25 281.043,-92.4004 268,-56 264.059,-45.0027 256.143,-34.7688 248.64,-26.8479"/>
<polygon fill="midnightblue" stroke="midnightblue" points="251.019,-24.2784 241.438,-19.7555 246.108,-29.2659 251.019,-24.2784"/>
</g>
<!-- Node18&#45;&gt;Node16 -->
<g id="edge24" class="edge"><title>Node18&#45;&gt;Node16</title>
<path fill="none" stroke="midnightblue" d="M245.7,-184.734C263.923,-173.867 295.199,-155.216 316.702,-142.393"/>
<polygon fill="midnightblue" stroke="midnightblue" points="318.736,-145.255 325.533,-137.127 315.151,-139.243 318.736,-145.255"/>
</g>
<!-- Node18&#45;&gt;Node17 -->
<g id="edge26" class="edge"><title>Node18&#45;&gt;Node17</title>
<path fill="none" stroke="midnightblue" d="M255.699,-184.869C288.308,-173.473 345.883,-153.353 382.699,-140.487"/>
<polygon fill="midnightblue" stroke="midnightblue" points="384.209,-143.667 392.495,-137.064 381.9,-137.059 384.209,-143.667"/>
</g>
<!-- Node19 -->
<g id="node19" class="node"><title>Node19</title>
<polygon fill="white" stroke="#bfbfbf" points="202.5,-118 202.5,-137 259.5,-137 259.5,-118 202.5,-118"/>
<text text-anchor="middle" x="231" y="-125" font-family="Helvetica,sans-Serif" font-size="10.00">memory</text>
</g>
<!-- Node18&#45;&gt;Node19 -->
<g id="edge23" class="edge"><title>Node18&#45;&gt;Node19</title>
<path fill="none" stroke="midnightblue" d="M231,-184.734C231,-175.183 231,-159.618 231,-147.283"/>
<polygon fill="midnightblue" stroke="midnightblue" points="234.5,-147.127 231,-137.127 227.5,-147.127 234.5,-147.127"/>
</g>
<!-- Node20&#45;&gt;Node3 -->
<g id="edge31" class="edge"><title>Node20&#45;&gt;Node3</title>
<path fill="none" stroke="midnightblue" d="M273.728,-254.09C335.085,-242.428 465.068,-217.724 535.047,-204.424"/>
<polygon fill="midnightblue" stroke="midnightblue" points="535.75,-207.853 544.921,-202.547 534.443,-200.976 535.75,-207.853"/>
</g>
<!-- Node20&#45;&gt;Node18 -->
<g id="edge30" class="edge"><title>Node20&#45;&gt;Node18</title>
<path fill="none" stroke="midnightblue" d="M238.786,-251.734C237.464,-242.183 235.309,-226.618 233.601,-214.283"/>
<polygon fill="midnightblue" stroke="midnightblue" points="237.033,-213.553 232.195,-204.127 230.099,-214.513 237.033,-213.553"/>
</g>
<!-- Node21&#45;&gt;Node4 -->
<g id="edge33" class="edge"><title>Node21&#45;&gt;Node4</title>
<path fill="none" stroke="midnightblue" d="M438.382,-246.427C451.058,-228.423 475.284,-197.375 503,-179 525.125,-164.332 551.991,-153.41 576.496,-145.548"/>
<polygon fill="midnightblue" stroke="midnightblue" points="577.592,-148.873 586.114,-142.577 575.526,-142.184 577.592,-148.873"/>
</g>
<!-- Node21&#45;&gt;Node18 -->
<g id="edge34" class="edge"><title>Node21&#45;&gt;Node18</title>
<path fill="none" stroke="midnightblue" d="M386.037,-246.396C350.373,-234.688 300.243,-218.231 266.742,-207.234"/>
<polygon fill="midnightblue" stroke="midnightblue" points="267.506,-203.801 256.914,-204.007 265.323,-210.452 267.506,-203.801"/>
</g>
<!-- Node23&#45;&gt;Node11 -->
<g id="edge39" class="edge"><title>Node23&#45;&gt;Node11</title>
<path fill="none" stroke="midnightblue" d="M466.052,-508.869C491.999,-497.699 537.421,-478.147 567.357,-465.26"/>
<polygon fill="midnightblue" stroke="midnightblue" points="569.064,-468.336 576.865,-461.167 566.296,-461.906 569.064,-468.336"/>
</g>
<!-- Node23&#45;&gt;Node13 -->
<g id="edge42" class="edge"><title>Node23&#45;&gt;Node13</title>
<path fill="none" stroke="midnightblue" d="M450.99,-508.734C455.846,-500.203 463.433,-486.874 470.002,-475.334"/>
<polygon fill="midnightblue" stroke="midnightblue" points="473.075,-477.011 474.98,-466.589 466.991,-473.548 473.075,-477.011"/>
</g>
<!-- Node24 -->
<g id="node24" class="node"><title>Node24</title>
<g id="a_node24"><a xlink:href="_i_pedal_8h.html" target="_top" xlink:title="components/interface\l/IPedal.h">
<polygon fill="white" stroke="black" points="282,-436.5 282,-466.5 404,-466.5 404,-436.5 282,-436.5"/>
<text text-anchor="start" x="290" y="-454.5" font-family="Helvetica,sans-Serif" font-size="10.00">components/interface</text>
<text text-anchor="middle" x="343" y="-443.5" font-family="Helvetica,sans-Serif" font-size="10.00">/IPedal.h</text>
</a>
</g>
</g>
<!-- Node23&#45;&gt;Node24 -->
<g id="edge40" class="edge"><title>Node23&#45;&gt;Node24</title>
<path fill="none" stroke="midnightblue" d="M432.109,-508.734C417.252,-499.358 393.213,-484.188 373.846,-471.966"/>
<polygon fill="midnightblue" stroke="midnightblue" points="375.65,-468.966 365.326,-466.589 371.915,-474.886 375.65,-468.966"/>
</g>
<!-- Node24&#45;&gt;Node14 -->
<g id="edge41" class="edge"><title>Node24&#45;&gt;Node14</title>
<path fill="none" stroke="midnightblue" d="M341.047,-436.396C339.741,-426.963 338.008,-414.448 336.588,-404.189"/>
<polygon fill="midnightblue" stroke="midnightblue" points="340.042,-403.62 335.204,-394.195 333.109,-404.58 340.042,-403.62"/>
</g>
<!-- Node25&#45;&gt;Node14 -->
<g id="edge45" class="edge"><title>Node25&#45;&gt;Node14</title>
<path fill="none" stroke="midnightblue" d="M171.661,-436.476C209.089,-424.723 261.89,-408.143 296.993,-397.12"/>
<polygon fill="midnightblue" stroke="midnightblue" points="298.347,-400.364 306.839,-394.029 296.25,-393.685 298.347,-400.364"/>
</g>
<!-- Node25&#45;&gt;Node22 -->
<g id="edge46" class="edge"><title>Node25&#45;&gt;Node22</title>
<path fill="none" stroke="midnightblue" d="M122.565,-436.369C112.028,-402.794 85.4957,-318.249 73.749,-280.819"/>
<polygon fill="midnightblue" stroke="midnightblue" points="77.066,-279.699 70.7322,-271.206 70.3872,-281.795 77.066,-279.699"/>
</g>
<!-- Node26&#45;&gt;Node4 -->
<g id="edge49" class="edge"><title>Node26&#45;&gt;Node4</title>
<path fill="none" stroke="midnightblue" d="M737.702,-369.427C721.967,-327.63 675.39,-203.912 655.819,-151.925"/>
<polygon fill="midnightblue" stroke="midnightblue" points="659.081,-150.655 652.282,-142.53 652.53,-153.122 659.081,-150.655"/>
</g>
<!-- Node27&#45;&gt;Node4 -->
<g id="edge51" class="edge"><title>Node27&#45;&gt;Node4</title>
<path fill="none" stroke="midnightblue" d="M746.443,-179.396C728.053,-169.984 703.667,-157.503 683.646,-147.256"/>
<polygon fill="midnightblue" stroke="midnightblue" points="685,-144.017 674.503,-142.577 681.811,-150.248 685,-144.017"/>
</g>
<!-- Node27&#45;&gt;Node7 -->
<g id="edge52" class="edge"><title>Node27&#45;&gt;Node7</title>
<path fill="none" stroke="midnightblue" d="M774,-179.479C774,-156.719 774,-111.702 774,-86.0582"/>
<polygon fill="midnightblue" stroke="midnightblue" points="777.5,-85.7885 774,-75.7885 770.5,-85.7886 777.5,-85.7885"/>
</g>
<!-- Node28&#45;&gt;Node4 -->
<g id="edge56" class="edge"><title>Node28&#45;&gt;Node4</title>
<path fill="none" stroke="midnightblue" d="M856.394,-179.476C814.864,-169.366 758.663,-155.684 714.94,-145.04"/>
<polygon fill="midnightblue" stroke="midnightblue" points="715.507,-141.576 704.963,-142.611 713.852,-148.377 715.507,-141.576"/>
</g>
<!-- Node28&#45;&gt;Node8 -->
<g id="edge55" class="edge"><title>Node28&#45;&gt;Node8</title>
<path fill="none" stroke="midnightblue" d="M914,-179.483C914,-147.097 914,-67.0368 914,-30.1594"/>
<polygon fill="midnightblue" stroke="midnightblue" points="917.5,-29.8187 914,-19.8187 910.5,-29.8188 917.5,-29.8187"/>
</g>
<!-- Node29&#45;&gt;Node14 -->
<g id="edge58" class="edge"><title>Node29&#45;&gt;Node14</title>
<path fill="none" stroke="midnightblue" d="M275.415,-503.492C269.616,-486.634 262.713,-457.871 273,-436 280.322,-420.433 295.059,-408.019 308.213,-399.395"/>
<polygon fill="midnightblue" stroke="midnightblue" points="310.259,-402.247 316.957,-394.038 306.602,-396.278 310.259,-402.247"/>
</g>
</g>
</svg>
        <g id="navigator" transform="translate(0 0)" fill="#404254">
                <rect fill="#f2f5e9" fill-opacity="0.5" stroke="#606060" stroke-width=".5" x="0" y="0" width="60" height="60"/>
                <use id="zoomplus" xlink:href="#zoomPlus" x="17" y="9" onmousedown="handleZoom(evt,'in')"/>
                <use id="zoomminus" xlink:href="#zoomMin" x="42" y="9" onmousedown="handleZoom(evt,'out')"/>
                <use id="reset" xlink:href="#resetDef" x="30" y="36" onmousedown="handleReset()"/>
                <g id="arrowUp" xlink:href="#dirArrow" transform="translate(30 24)" onmousedown="handlePan(0,-1)">
                  <use xlink:href="#rim" fill="#404040">
                        <set attributeName="fill" to="#808080" begin="arrowUp.mouseover" end="arrowUp.mouseout"/>
                  </use>
                  <path fill="none" stroke="white" stroke-width="1.5" d="M0,-3.0v7 M-2.5,-0.5L0,-3.0L2.5,-0.5"/>
                </g>
                <g id="arrowRight" xlink:href="#dirArrow" transform="rotate(90) translate(36 -43)" onmousedown="handlePan(1,0)">
                  <use xlink:href="#rim" fill="#404040">
                        <set attributeName="fill" to="#808080" begin="arrowRight.mouseover" end="arrowRight.mouseout"/>
                  </use>
                  <path fill="none" stroke="white" stroke-width="1.5" d="M0,-3.0v7 M-2.5,-0.5L0,-3.0L2.5,-0.5"/>
                </g>
                <g id="arrowDown" xlink:href="#dirArrow" transform="rotate(180) translate(-30 -48)" onmousedown="handlePan(0,1)">
                  <use xlink:href="#rim" fill="#404040">
                        <set attributeName="fill" to="#808080" begin="arrowDown.mouseover" end="arrowDown.mouseout"/>
                  </use>
                  <path fill="none" stroke="white" stroke-width="1.5" d="M0,-3.0v7 M-2.5,-0.5L0,-3.0L2.5,-0.5"/>
                </g>
                <g id="arrowLeft" xlink:href="#dirArrow" transform="rotate(270) translate(-36 17)" onmousedown="handlePan(-1,0)">
                  <use xlink:href="#rim" fill="#404040">
                        <set attributeName="fill" to="#808080" begin="arrowLeft.mouseover" end="arrowLeft.mouseout"/>
                  </use>
                  <path fill="none" stroke="white" stroke-width="1.5" d="M0,-3.0v7 M-2.5,-0.5L0,-3.0L2.5,-0.5"/>
                </g>
        </g>
        <svg viewBox="0 0 15 15" width="100%" height="30px" preserveAspectRatio="xMaxYMin meet">
         <g id="arrow_out" transform="scale(0.3 0.3)">
          <a xlink:href="_s_speed_8h__incl_org.svg" target="_base">
           <rect id="button" ry="5" rx="5" y="6" x="6" height="38" width="38"
                fill="#f2f5e9" fill-opacity="0.5" stroke="#606060" stroke-width="1.0"/>
           <path id="arrow"
             d="M 11.500037,31.436501 C 11.940474,20.09759 22.043105,11.32322 32.158766,21.979434 L 37.068811,17.246167 C 37.068811,17.246167 37.088388,32 37.088388,32 L 22.160133,31.978069 C 22.160133,31.978069 26.997745,27.140456 26.997745,27.140456 C 18.528582,18.264221 13.291696,25.230495 11.500037,31.436501 z"
             style="fill:#404040;"/>
          </a>
         </g>
        </svg>
</svg>
