<?xml version="1.0" encoding="UTF-8" standalone="no"?>
<!DOCTYPE svg PUBLIC "-//W3C//DTD SVG 1.1//EN"
 "http://www.w3.org/Graphics/SVG/1.1/DTD/svg11.dtd">
<!-- Generated by graphviz version 2.38.0 (20140413.2041)
 -->
<!-- Title: lib/carpi/src/components/software/SoftwareAlive.h Pages: 1 -->
<!--zoomable 498 -->
<svg id="main" version="1.1" xmlns="http://www.w3.org/2000/svg" xmlns:xlink="http://www.w3.org/1999/xlink" xml:space="preserve" onload="init(evt)">
<style type="text/css"><![CDATA[
.edge:hover path { stroke: red; }
.edge:hover polygon { stroke: red; fill: red; }
]]></style>
<script type="text/javascript"><![CDATA[
var edges = document.getElementsByTagName('g');
if (edges && edges.length) {
  for (var i=0;i<edges.length;i++) {
    if (edges[i].id.substr(0,4)=='edge') {
      edges[i].setAttribute('class','edge');
    }
  }
}
]]></script>
        <defs>
                <circle id="rim" cx="0" cy="0" r="7"/>
                <circle id="rim2" cx="0" cy="0" r="3.5"/>
                <g id="zoomPlus">
                        <use xlink:href="#rim" fill="#404040">
                                <set attributeName="fill" to="#808080" begin="zoomplus.mouseover" end="zoomplus.mouseout"/>
                        </use>
                        <path d="M-4,0h8M0,-4v8" fill="none" stroke="white" stroke-width="1.5" pointer-events="none"/>
                </g>
                <g id="zoomMin">
                        <use xlink:href="#rim" fill="#404040">
                                <set attributeName="fill" to="#808080" begin="zoomminus.mouseover" end="zoomminus.mouseout"/>
                        </use>
                        <path d="M-4,0h8" fill="none" stroke="white" stroke-width="1.5" pointer-events="none"/>
                </g>
                <g id="dirArrow">
                        <path fill="none" stroke="white" stroke-width="1.5" d="M0,-3.0v7 M-2.5,-0.5L0,-3.0L2.5,-0.5"/>
                </g>
               <g id="resetDef">
                       <use xlink:href="#rim2" fill="#404040">
                               <set attributeName="fill" to="#808080" begin="reset.mouseover" end="reset.mouseout"/>
                       </use>
               </g>
        </defs>

<script type="text/javascript">
var viewWidth = 527;
var viewHeight = 498;
var sectionId = 'dynsection-0';
</script>
<script xlink:href="svgpan.js"/>
<svg id="graph" class="graph">
<g id="viewport">
<title>lib/carpi/src/components/software/SoftwareAlive.h</title>
<polygon fill="white" stroke="none" points="-4,4 -4,-494 523.124,-494 523.124,4 -4,4"/>
<!-- Node1 -->
<g id="node1" class="node"><title>Node1</title>
<polygon fill="#bfbfbf" stroke="black" points="165.5,-459.5 165.5,-489.5 302.5,-489.5 302.5,-459.5 165.5,-459.5"/>
<text text-anchor="start" x="173.5" y="-477.5" font-family="Helvetica,sans-Serif" font-size="10.00">lib/carpi/src/components</text>
<text text-anchor="middle" x="234" y="-466.5" font-family="Helvetica,sans-Serif" font-size="10.00">/software/SoftwareAlive.h</text>
</g>
<!-- Node2 -->
<g id="node2" class="node"><title>Node2</title>
<g id="a_node2"><a xlink:href="_i_alive_8h.html" target="_top" xlink:title="../interface/IAlive.h">
<polygon fill="white" stroke="black" points="182,-403.5 182,-422.5 286,-422.5 286,-403.5 182,-403.5"/>
<text text-anchor="middle" x="234" y="-410.5" font-family="Helvetica,sans-Serif" font-size="10.00">../interface/IAlive.h</text>
</a>
</g>
</g>
<!-- Node1&#45;&gt;Node2 -->
<g id="edge1" class="edge"><title>Node1&#45;&gt;Node2</title>
<path fill="none" stroke="midnightblue" d="M234,-459.399C234,-451.466 234,-441.458 234,-432.858"/>
<polygon fill="midnightblue" stroke="midnightblue" points="237.5,-432.658 234,-422.658 230.5,-432.658 237.5,-432.658"/>
</g>
<!-- Node3 -->
<g id="node3" class="node"><title>Node3</title>
<g id="a_node3"><a xlink:href="_self_syncable_8h.html" target="_top" xlink:title="communication/SelfSyncable.h">
<polygon fill="white" stroke="black" points="152,-347.5 152,-366.5 316,-366.5 316,-347.5 152,-347.5"/>
<text text-anchor="middle" x="234" y="-354.5" font-family="Helvetica,sans-Serif" font-size="10.00">communication/SelfSyncable.h</text>
</a>
</g>
</g>
<!-- Node2&#45;&gt;Node3 -->
<g id="edge2" class="edge"><title>Node2&#45;&gt;Node3</title>
<path fill="none" stroke="midnightblue" d="M234,-403.083C234,-396.006 234,-385.861 234,-376.986"/>
<polygon fill="midnightblue" stroke="midnightblue" points="237.5,-376.751 234,-366.751 230.5,-376.751 237.5,-376.751"/>
</g>
<!-- Node4 -->
<g id="node4" class="node"><title>Node4</title>
<g id="a_node4"><a xlink:href="_sync_8h.html" target="_top" xlink:title="Sync.h">
<polygon fill="white" stroke="black" points="270.5,-291.5 270.5,-310.5 319.5,-310.5 319.5,-291.5 270.5,-291.5"/>
<text text-anchor="middle" x="295" y="-298.5" font-family="Helvetica,sans-Serif" font-size="10.00">Sync.h</text>
</a>
</g>
</g>
<!-- Node3&#45;&gt;Node4 -->
<g id="edge3" class="edge"><title>Node3&#45;&gt;Node4</title>
<path fill="none" stroke="midnightblue" d="M243.801,-347.324C252.818,-339.341 266.406,-327.313 277.318,-317.653"/>
<polygon fill="midnightblue" stroke="midnightblue" points="279.853,-320.083 285.021,-310.834 275.213,-314.842 279.853,-320.083"/>
</g>
<!-- Node16 -->
<g id="node16" class="node"><title>Node16</title>
<g id="a_node16"><a xlink:href="_i_communication_8h.html" target="_top" xlink:title="components/interface\l/ICommunication.h">
<polygon fill="white" stroke="black" points="0,-224.5 0,-254.5 122,-254.5 122,-224.5 0,-224.5"/>
<text text-anchor="start" x="8" y="-242.5" font-family="Helvetica,sans-Serif" font-size="10.00">components/interface</text>
<text text-anchor="middle" x="61" y="-231.5" font-family="Helvetica,sans-Serif" font-size="10.00">/ICommunication.h</text>
</a>
</g>
</g>
<!-- Node3&#45;&gt;Node16 -->
<g id="edge27" class="edge"><title>Node3&#45;&gt;Node16</title>
<path fill="none" stroke="midnightblue" d="M220.997,-347.319C193.498,-328.96 128.846,-285.796 90.6747,-260.312"/>
<polygon fill="midnightblue" stroke="midnightblue" points="92.2978,-257.187 82.0375,-254.545 88.411,-263.009 92.2978,-257.187"/>
</g>
<!-- Node5 -->
<g id="node5" class="node"><title>Node5</title>
<polygon fill="white" stroke="#bfbfbf" points="459.5,-112.5 459.5,-131.5 506.5,-131.5 506.5,-112.5 459.5,-112.5"/>
<text text-anchor="middle" x="483" y="-119.5" font-family="Helvetica,sans-Serif" font-size="10.00">vector</text>
</g>
<!-- Node4&#45;&gt;Node5 -->
<g id="edge4" class="edge"><title>Node4&#45;&gt;Node5</title>
<path fill="none" stroke="midnightblue" d="M319.733,-297.631C348.823,-293.613 396.946,-282.945 427,-255 460.167,-224.16 474.476,-170.486 479.979,-142.01"/>
<polygon fill="midnightblue" stroke="midnightblue" points="483.489,-142.256 481.778,-131.8 476.595,-141.041 483.489,-142.256"/>
</g>
<!-- Node6 -->
<g id="node6" class="node"><title>Node6</title>
<g id="a_node6"><a xlink:href="component_ids_8h.html" target="_top" xlink:title="componentIds.h">
<polygon fill="white" stroke="black" points="333,-56.5 333,-75.5 427,-75.5 427,-56.5 333,-56.5"/>
<text text-anchor="middle" x="380" y="-63.5" font-family="Helvetica,sans-Serif" font-size="10.00">componentIds.h</text>
</a>
</g>
</g>
<!-- Node4&#45;&gt;Node6 -->
<g id="edge5" class="edge"><title>Node4&#45;&gt;Node6</title>
<path fill="none" stroke="midnightblue" d="M319.706,-298.941C353.389,-296.283 413.984,-287.035 453,-255 500.47,-216.025 501.599,-191.708 516,-132 518.084,-123.359 521.205,-119.205 516,-112 498.021,-87.1139 465.758,-75.7648 437.167,-70.684"/>
<polygon fill="midnightblue" stroke="midnightblue" points="437.657,-67.2181 427.237,-69.1363 436.579,-74.1346 437.657,-67.2181"/>
</g>
<!-- Node8 -->
<g id="node8" class="node"><title>Node8</title>
<g id="a_node8"><a xlink:href="device_ids_8h.html" target="_top" xlink:title="deviceIds.h">
<polygon fill="white" stroke="black" points="371,-112.5 371,-131.5 441,-131.5 441,-112.5 371,-112.5"/>
<text text-anchor="middle" x="406" y="-119.5" font-family="Helvetica,sans-Serif" font-size="10.00">deviceIds.h</text>
</a>
</g>
</g>
<!-- Node4&#45;&gt;Node8 -->
<g id="edge7" class="edge"><title>Node4&#45;&gt;Node8</title>
<path fill="none" stroke="midnightblue" d="M319.839,-297.771C346.26,-293.924 386.831,-283.456 406,-255 429.181,-220.588 419.573,-168.826 411.96,-141.468"/>
<polygon fill="midnightblue" stroke="midnightblue" points="415.244,-140.232 409.018,-131.659 408.539,-142.243 415.244,-140.232"/>
</g>
<!-- Node9 -->
<g id="node9" class="node"><title>Node9</title>
<g id="a_node9"><a xlink:href="_car_message_8h.html" target="_top" xlink:title="CarMessage.h">
<polygon fill="white" stroke="black" points="300.5,-168.5 300.5,-187.5 385.5,-187.5 385.5,-168.5 300.5,-168.5"/>
<text text-anchor="middle" x="343" y="-175.5" font-family="Helvetica,sans-Serif" font-size="10.00">CarMessage.h</text>
</a>
</g>
</g>
<!-- Node4&#45;&gt;Node9 -->
<g id="edge8" class="edge"><title>Node4&#45;&gt;Node9</title>
<path fill="none" stroke="midnightblue" d="M319.508,-295.799C341.935,-290.514 373.859,-279.035 389,-255 396.344,-243.343 394.342,-236.7 389,-224 383.974,-212.053 374.056,-201.692 364.713,-193.934"/>
<polygon fill="midnightblue" stroke="midnightblue" points="366.84,-191.155 356.787,-187.811 362.561,-196.694 366.84,-191.155"/>
</g>
<!-- Node11 -->
<g id="node11" class="node"><title>Node11</title>
<g id="a_node11"><a xlink:href="_i_component_8h.html" target="_top" xlink:title="IComponent.h">
<polygon fill="white" stroke="black" points="112,-112.5 112,-131.5 196,-131.5 196,-112.5 112,-112.5"/>
<text text-anchor="middle" x="154" y="-119.5" font-family="Helvetica,sans-Serif" font-size="10.00">IComponent.h</text>
</a>
</g>
</g>
<!-- Node4&#45;&gt;Node11 -->
<g id="edge14" class="edge"><title>Node4&#45;&gt;Node11</title>
<path fill="none" stroke="midnightblue" d="M270.47,-293.763C249.175,-287.237 218.74,-275.086 199,-255 168.124,-223.583 158.406,-170.153 155.367,-141.865"/>
<polygon fill="midnightblue" stroke="midnightblue" points="158.837,-141.374 154.454,-131.728 151.865,-142.002 158.837,-141.374"/>
</g>
<!-- Node14 -->
<g id="node14" class="node"><title>Node14</title>
<g id="a_node14"><a xlink:href="_i_channel_8h.html" target="_top" xlink:title="IChannel.h">
<polygon fill="white" stroke="black" points="216.5,-230 216.5,-249 283.5,-249 283.5,-230 216.5,-230"/>
<text text-anchor="middle" x="250" y="-237" font-family="Helvetica,sans-Serif" font-size="10.00">IChannel.h</text>
</a>
</g>
</g>
<!-- Node4&#45;&gt;Node14 -->
<g id="edge18" class="edge"><title>Node4&#45;&gt;Node14</title>
<path fill="none" stroke="midnightblue" d="M288.553,-291.475C281.803,-282.55 271.031,-268.307 262.587,-257.143"/>
<polygon fill="midnightblue" stroke="midnightblue" points="265.259,-254.874 256.435,-249.009 259.676,-259.096 265.259,-254.874"/>
</g>
<!-- Node15 -->
<g id="node15" class="node"><title>Node15</title>
<g id="a_node15"><a xlink:href="_i_runable_8h.html" target="_top" xlink:title="runable/IRunable.h">
<polygon fill="white" stroke="black" points="178,-168.5 178,-187.5 282,-187.5 282,-168.5 178,-168.5"/>
<text text-anchor="middle" x="230" y="-175.5" font-family="Helvetica,sans-Serif" font-size="10.00">runable/IRunable.h</text>
</a>
</g>
</g>
<!-- Node4&#45;&gt;Node15 -->
<g id="edge25" class="edge"><title>Node4&#45;&gt;Node15</title>
<path fill="none" stroke="midnightblue" d="M270.381,-294.884C249.458,-289.095 220.701,-277.395 207,-255 195.694,-236.52 206.937,-212.088 217.305,-195.976"/>
<polygon fill="midnightblue" stroke="midnightblue" points="220.317,-197.773 223.131,-187.559 214.562,-193.789 220.317,-197.773"/>
</g>
<!-- Node4&#45;&gt;Node16 -->
<g id="edge22" class="edge"><title>Node4&#45;&gt;Node16</title>
<path fill="none" stroke="midnightblue" d="M270.4,-293.745C236.44,-285.11 173.965,-269.224 126.063,-257.044"/>
<polygon fill="midnightblue" stroke="midnightblue" points="126.632,-253.577 116.077,-254.505 124.907,-260.361 126.632,-253.577"/>
</g>
<!-- Node17 -->
<g id="node17" class="node"><title>Node17</title>
<g id="a_node17"><a xlink:href="_hard_config_8h.html" target="_top" xlink:title="HardConfig.h">
<polygon fill="white" stroke="black" points="301.5,-230 301.5,-249 380.5,-249 380.5,-230 301.5,-230"/>
<text text-anchor="middle" x="341" y="-237" font-family="Helvetica,sans-Serif" font-size="10.00">HardConfig.h</text>
</a>
</g>
</g>
<!-- Node4&#45;&gt;Node17 -->
<g id="edge26" class="edge"><title>Node4&#45;&gt;Node17</title>
<path fill="none" stroke="midnightblue" d="M301.591,-291.475C308.491,-282.55 319.502,-268.307 328.134,-257.143"/>
<polygon fill="midnightblue" stroke="midnightblue" points="331.074,-259.061 334.422,-249.009 325.536,-254.78 331.074,-259.061"/>
</g>
<!-- Node7 -->
<g id="node7" class="node"><title>Node7</title>
<polygon fill="white" stroke="#bfbfbf" points="315.5,-0.5 315.5,-19.5 368.5,-19.5 368.5,-0.5 315.5,-0.5"/>
<text text-anchor="middle" x="342" y="-7.5" font-family="Helvetica,sans-Serif" font-size="10.00">stdint.h</text>
</g>
<!-- Node6&#45;&gt;Node7 -->
<g id="edge6" class="edge"><title>Node6&#45;&gt;Node7</title>
<path fill="none" stroke="midnightblue" d="M373.725,-56.083C368.358,-48.4554 360.482,-37.2645 353.921,-27.9408"/>
<polygon fill="midnightblue" stroke="midnightblue" points="356.775,-25.9149 348.158,-19.7511 351.051,-29.9434 356.775,-25.9149"/>
</g>
<!-- Node9&#45;&gt;Node5 -->
<g id="edge10" class="edge"><title>Node9&#45;&gt;Node5</title>
<path fill="none" stroke="midnightblue" d="M365.183,-168.444C388.428,-159.478 425.149,-145.314 451.415,-135.183"/>
<polygon fill="midnightblue" stroke="midnightblue" points="452.85,-138.381 460.92,-131.516 450.331,-131.85 452.85,-138.381"/>
</g>
<!-- Node9&#45;&gt;Node6 -->
<g id="edge13" class="edge"><title>Node9&#45;&gt;Node6</title>
<path fill="none" stroke="midnightblue" d="M345.315,-168.084C348.652,-155.479 355.17,-131.782 362,-112 365.128,-102.94 369.036,-93.0338 372.411,-84.8277"/>
<polygon fill="midnightblue" stroke="midnightblue" points="375.668,-86.1102 376.301,-75.5343 369.211,-83.4071 375.668,-86.1102"/>
</g>
<!-- Node9&#45;&gt;Node7 -->
<g id="edge11" class="edge"><title>Node9&#45;&gt;Node7</title>
<path fill="none" stroke="midnightblue" d="M339.627,-168.456C332.24,-148.627 315.917,-97.9701 324,-56 325.79,-46.7047 329.483,-36.8887 333.061,-28.8048"/>
<polygon fill="midnightblue" stroke="midnightblue" points="336.273,-30.1981 337.379,-19.6611 329.944,-27.2089 336.273,-30.1981"/>
</g>
<!-- Node9&#45;&gt;Node8 -->
<g id="edge12" class="edge"><title>Node9&#45;&gt;Node8</title>
<path fill="none" stroke="midnightblue" d="M353.122,-168.324C362.526,-160.263 376.744,-148.077 388.069,-138.369"/>
<polygon fill="midnightblue" stroke="midnightblue" points="390.379,-140.999 395.694,-131.834 385.823,-135.684 390.379,-140.999"/>
</g>
<!-- Node10 -->
<g id="node10" class="node"><title>Node10</title>
<polygon fill="white" stroke="#bfbfbf" points="219.5,-112.5 219.5,-131.5 276.5,-131.5 276.5,-112.5 219.5,-112.5"/>
<text text-anchor="middle" x="248" y="-119.5" font-family="Helvetica,sans-Serif" font-size="10.00">memory</text>
</g>
<!-- Node9&#45;&gt;Node10 -->
<g id="edge9" class="edge"><title>Node9&#45;&gt;Node10</title>
<path fill="none" stroke="midnightblue" d="M327.737,-168.324C312.779,-159.822 289.745,-146.729 272.273,-136.797"/>
<polygon fill="midnightblue" stroke="midnightblue" points="273.649,-133.553 263.226,-131.655 270.19,-139.639 273.649,-133.553"/>
</g>
<!-- Node11&#45;&gt;Node6 -->
<g id="edge15" class="edge"><title>Node11&#45;&gt;Node6</title>
<path fill="none" stroke="midnightblue" d="M189.81,-112.444C228.988,-103.083 291.877,-88.0561 334.515,-77.868"/>
<polygon fill="midnightblue" stroke="midnightblue" points="335.444,-81.2446 344.357,-75.5164 333.818,-74.4363 335.444,-81.2446"/>
</g>
<!-- Node12 -->
<g id="node12" class="node"><title>Node12</title>
<g id="a_node12"><a xlink:href="_i_logable_8h.html" target="_top" xlink:title="ILogable.h">
<polygon fill="white" stroke="black" points="121.5,-56.5 121.5,-75.5 186.5,-75.5 186.5,-56.5 121.5,-56.5"/>
<text text-anchor="middle" x="154" y="-63.5" font-family="Helvetica,sans-Serif" font-size="10.00">ILogable.h</text>
</a>
</g>
</g>
<!-- Node11&#45;&gt;Node12 -->
<g id="edge16" class="edge"><title>Node11&#45;&gt;Node12</title>
<path fill="none" stroke="midnightblue" d="M154,-112.083C154,-105.006 154,-94.8611 154,-85.9865"/>
<polygon fill="midnightblue" stroke="midnightblue" points="157.5,-85.751 154,-75.7511 150.5,-85.7511 157.5,-85.751"/>
</g>
<!-- Node13 -->
<g id="node13" class="node"><title>Node13</title>
<polygon fill="white" stroke="#bfbfbf" points="132,-0.5 132,-19.5 176,-19.5 176,-0.5 132,-0.5"/>
<text text-anchor="middle" x="154" y="-7.5" font-family="Helvetica,sans-Serif" font-size="10.00">string</text>
</g>
<!-- Node12&#45;&gt;Node13 -->
<g id="edge17" class="edge"><title>Node12&#45;&gt;Node13</title>
<path fill="none" stroke="midnightblue" d="M154,-56.083C154,-49.0059 154,-38.8611 154,-29.9865"/>
<polygon fill="midnightblue" stroke="midnightblue" points="157.5,-29.751 154,-19.7511 150.5,-29.7511 157.5,-29.751"/>
</g>
<!-- Node14&#45;&gt;Node9 -->
<g id="edge19" class="edge"><title>Node14&#45;&gt;Node9</title>
<path fill="none" stroke="midnightblue" d="M263.325,-229.975C278.38,-220.343 303.116,-204.517 321.037,-193.052"/>
<polygon fill="midnightblue" stroke="midnightblue" points="323.163,-195.847 329.7,-187.509 319.39,-189.95 323.163,-195.847"/>
</g>
<!-- Node14&#45;&gt;Node15 -->
<g id="edge20" class="edge"><title>Node14&#45;&gt;Node15</title>
<path fill="none" stroke="midnightblue" d="M247.134,-229.975C244.283,-221.492 239.817,-208.204 236.159,-197.322"/>
<polygon fill="midnightblue" stroke="midnightblue" points="239.364,-195.873 232.86,-187.509 232.729,-198.103 239.364,-195.873"/>
</g>
<!-- Node15&#45;&gt;Node11 -->
<g id="edge21" class="edge"><title>Node15&#45;&gt;Node11</title>
<path fill="none" stroke="midnightblue" d="M217.789,-168.324C206.224,-160.107 188.625,-147.602 174.839,-137.807"/>
<polygon fill="midnightblue" stroke="midnightblue" points="176.612,-134.773 166.433,-131.834 172.557,-140.479 176.612,-134.773"/>
</g>
<!-- Node16&#45;&gt;Node9 -->
<g id="edge24" class="edge"><title>Node16&#45;&gt;Node9</title>
<path fill="none" stroke="midnightblue" d="M122.19,-225.589C173.155,-214.836 244.863,-199.706 292.577,-189.639"/>
<polygon fill="midnightblue" stroke="midnightblue" points="293.316,-193.06 302.378,-187.571 291.871,-186.211 293.316,-193.06"/>
</g>
<!-- Node16&#45;&gt;Node11 -->
<g id="edge23" class="edge"><title>Node16&#45;&gt;Node11</title>
<path fill="none" stroke="midnightblue" d="M72.4036,-224.337C89.617,-202.96 122.171,-162.53 140.528,-139.731"/>
<polygon fill="midnightblue" stroke="midnightblue" points="143.474,-141.653 147.019,-131.669 138.022,-137.263 143.474,-141.653"/>
</g>
</g>
</svg>
        <g id="navigator" transform="translate(0 0)" fill="#404254">
                <rect fill="#f2f5e9" fill-opacity="0.5" stroke="#606060" stroke-width=".5" x="0" y="0" width="60" height="60"/>
                <use id="zoomplus" xlink:href="#zoomPlus" x="17" y="9" onmousedown="handleZoom(evt,'in')"/>
                <use id="zoomminus" xlink:href="#zoomMin" x="42" y="9" onmousedown="handleZoom(evt,'out')"/>
                <use id="reset" xlink:href="#resetDef" x="30" y="36" onmousedown="handleReset()"/>
                <g id="arrowUp" xlink:href="#dirArrow" transform="translate(30 24)" onmousedown="handlePan(0,-1)">
                  <use xlink:href="#rim" fill="#404040">
                        <set attributeName="fill" to="#808080" begin="arrowUp.mouseover" end="arrowUp.mouseout"/>
                  </use>
                  <path fill="none" stroke="white" stroke-width="1.5" d="M0,-3.0v7 M-2.5,-0.5L0,-3.0L2.5,-0.5"/>
                </g>
                <g id="arrowRight" xlink:href="#dirArrow" transform="rotate(90) translate(36 -43)" onmousedown="handlePan(1,0)">
                  <use xlink:href="#rim" fill="#404040">
                        <set attributeName="fill" to="#808080" begin="arrowRight.mouseover" end="arrowRight.mouseout"/>
                  </use>
                  <path fill="none" stroke="white" stroke-width="1.5" d="M0,-3.0v7 M-2.5,-0.5L0,-3.0L2.5,-0.5"/>
                </g>
                <g id="arrowDown" xlink:href="#dirArrow" transform="rotate(180) translate(-30 -48)" onmousedown="handlePan(0,1)">
                  <use xlink:href="#rim" fill="#404040">
                        <set attributeName="fill" to="#808080" begin="arrowDown.mouseover" end="arrowDown.mouseout"/>
                  </use>
                  <path fill="none" stroke="white" stroke-width="1.5" d="M0,-3.0v7 M-2.5,-0.5L0,-3.0L2.5,-0.5"/>
                </g>
                <g id="arrowLeft" xlink:href="#dirArrow" transform="rotate(270) translate(-36 17)" onmousedown="handlePan(-1,0)">
                  <use xlink:href="#rim" fill="#404040">
                        <set attributeName="fill" to="#808080" begin="arrowLeft.mouseover" end="arrowLeft.mouseout"/>
                  </use>
                  <path fill="none" stroke="white" stroke-width="1.5" d="M0,-3.0v7 M-2.5,-0.5L0,-3.0L2.5,-0.5"/>
                </g>
        </g>
        <svg viewBox="0 0 15 15" width="100%" height="30px" preserveAspectRatio="xMaxYMin meet">
         <g id="arrow_out" transform="scale(0.3 0.3)">
          <a xlink:href="_software_alive_8h__incl_org.svg" target="_base">
           <rect id="button" ry="5" rx="5" y="6" x="6" height="38" width="38"
                fill="#f2f5e9" fill-opacity="0.5" stroke="#606060" stroke-width="1.0"/>
           <path id="arrow"
             d="M 11.500037,31.436501 C 11.940474,20.09759 22.043105,11.32322 32.158766,21.979434 L 37.068811,17.246167 C 37.068811,17.246167 37.088388,32 37.088388,32 L 22.160133,31.978069 C 22.160133,31.978069 26.997745,27.140456 26.997745,27.140456 C 18.528582,18.264221 13.291696,25.230495 11.500037,31.436501 z"
             style="fill:#404040;"/>
          </a>
         </g>
        </svg>
</svg>
