<?xml version="1.0" encoding="UTF-8" standalone="no"?>
<!DOCTYPE svg PUBLIC "-//W3C//DTD SVG 1.1//EN"
 "http://www.w3.org/Graphics/SVG/1.1/DTD/svg11.dtd">
<!-- Generated by graphviz version 2.38.0 (20140413.2041)
 -->
<!-- Title: lib/carpi/src/steroido/src/Steroido.h Pages: 1 -->
<svg width="375pt" height="151pt"
 viewBox="0.00 0.00 375.00 151.00" xmlns="http://www.w3.org/2000/svg" xmlns:xlink="http://www.w3.org/1999/xlink">
<g id="graph0" class="graph" transform="scale(1 1) rotate(0) translate(4 147)">
<title>lib/carpi/src/steroido/src/Steroido.h</title>
<polygon fill="white" stroke="none" points="-4,4 -4,-147 371,-147 371,4 -4,4"/>
<!-- Node1 -->
<g id="node1" class="node"><title>Node1</title>
<polygon fill="#bfbfbf" stroke="black" points="134,-112.5 134,-142.5 247,-142.5 247,-112.5 134,-112.5"/>
<text text-anchor="start" x="142" y="-130.5" font-family="Helvetica,sans-Serif" font-size="10.00">lib/carpi/src/steroido</text>
<text text-anchor="middle" x="190.5" y="-119.5" font-family="Helvetica,sans-Serif" font-size="10.00">/src/Steroido.h</text>
</g>
<!-- Node2 -->
<g id="node2" class="node"><title>Node2</title>
<g id="a_node2"><a xlink:href="mem_cpy_8h.html" target="_top" xlink:title="Common/memCpy.h">
<polygon fill="white" stroke="black" points="0,-56.5 0,-75.5 115,-75.5 115,-56.5 0,-56.5"/>
<text text-anchor="middle" x="57.5" y="-63.5" font-family="Helvetica,sans-Serif" font-size="10.00">Common/memCpy.h</text>
</a>
</g>
</g>
<!-- Node1&#45;&gt;Node2 -->
<g id="edge1" class="edge"><title>Node1&#45;&gt;Node2</title>
<path fill="none" stroke="midnightblue" d="M158.981,-112.399C136.865,-102.505 107.533,-89.3832 86.0936,-79.7919"/>
<polygon fill="midnightblue" stroke="midnightblue" points="87.4102,-76.5466 76.8527,-75.6578 84.5516,-82.9364 87.4102,-76.5466"/>
</g>
<!-- Node4 -->
<g id="node4" class="node"><title>Node4</title>
<g id="a_node4"><a xlink:href="mem_set_8h.html" target="_top" xlink:title="Common/memSet.h">
<polygon fill="white" stroke="black" points="133,-56.5 133,-75.5 248,-75.5 248,-56.5 133,-56.5"/>
<text text-anchor="middle" x="190.5" y="-63.5" font-family="Helvetica,sans-Serif" font-size="10.00">Common/memSet.h</text>
</a>
</g>
</g>
<!-- Node1&#45;&gt;Node4 -->
<g id="edge3" class="edge"><title>Node1&#45;&gt;Node4</title>
<path fill="none" stroke="midnightblue" d="M190.5,-112.399C190.5,-104.466 190.5,-94.458 190.5,-85.8583"/>
<polygon fill="midnightblue" stroke="midnightblue" points="194,-85.6577 190.5,-75.6578 187,-85.6578 194,-85.6577"/>
</g>
<!-- Node5 -->
<g id="node5" class="node"><title>Node5</title>
<g id="a_node5"><a xlink:href="map_c_8h.html" target="_top" xlink:title="Common/mapC.h">
<polygon fill="white" stroke="black" points="266,-56.5 266,-75.5 367,-75.5 367,-56.5 266,-56.5"/>
<text text-anchor="middle" x="316.5" y="-63.5" font-family="Helvetica,sans-Serif" font-size="10.00">Common/mapC.h</text>
</a>
</g>
</g>
<!-- Node1&#45;&gt;Node5 -->
<g id="edge5" class="edge"><title>Node1&#45;&gt;Node5</title>
<path fill="none" stroke="midnightblue" d="M220.36,-112.399C241.123,-102.595 268.6,-89.6194 288.861,-80.052"/>
<polygon fill="midnightblue" stroke="midnightblue" points="290.618,-83.0928 298.166,-75.6578 287.629,-76.763 290.618,-83.0928"/>
</g>
<!-- Node3 -->
<g id="node3" class="node"><title>Node3</title>
<polygon fill="white" stroke="#bfbfbf" points="96,-0.5 96,-19.5 151,-19.5 151,-0.5 96,-0.5"/>
<text text-anchor="middle" x="123.5" y="-7.5" font-family="Helvetica,sans-Serif" font-size="10.00">stddef.h</text>
</g>
<!-- Node2&#45;&gt;Node3 -->
<g id="edge2" class="edge"><title>Node2&#45;&gt;Node3</title>
<path fill="none" stroke="midnightblue" d="M68.104,-56.324C77.9562,-48.2631 92.8509,-36.0765 104.715,-26.3695"/>
<polygon fill="midnightblue" stroke="midnightblue" points="107.18,-28.8752 112.703,-19.8339 102.747,-23.4575 107.18,-28.8752"/>
</g>
<!-- Node4&#45;&gt;Node3 -->
<g id="edge4" class="edge"><title>Node4&#45;&gt;Node3</title>
<path fill="none" stroke="midnightblue" d="M179.735,-56.324C169.734,-48.2631 154.613,-36.0765 142.57,-26.3695"/>
<polygon fill="midnightblue" stroke="midnightblue" points="144.443,-23.3841 134.461,-19.8339 140.05,-28.8343 144.443,-23.3841"/>
</g>
</g>
</svg>
