<?xml version="1.0" encoding="UTF-8" standalone="no"?>
<!DOCTYPE svg PUBLIC "-//W3C//DTD SVG 1.1//EN"
 "http://www.w3.org/Graphics/SVG/1.1/DTD/svg11.dtd">
<!-- Generated by graphviz version 2.38.0 (20140413.2041)
 -->
<!-- Title: lib/carpi/src/communication/Sync.h Pages: 1 -->
<!--zoomable 330 -->
<svg id="main" version="1.1" xmlns="http://www.w3.org/2000/svg" xmlns:xlink="http://www.w3.org/1999/xlink" xml:space="preserve" onload="init(evt)">
<style type="text/css"><![CDATA[
.edge:hover path { stroke: red; }
.edge:hover polygon { stroke: red; fill: red; }
]]></style>
<script type="text/javascript"><![CDATA[
var edges = document.getElementsByTagName('g');
if (edges && edges.length) {
  for (var i=0;i<edges.length;i++) {
    if (edges[i].id.substr(0,4)=='edge') {
      edges[i].setAttribute('class','edge');
    }
  }
}
]]></script>
        <defs>
                <circle id="rim" cx="0" cy="0" r="7"/>
                <circle id="rim2" cx="0" cy="0" r="3.5"/>
                <g id="zoomPlus">
                        <use xlink:href="#rim" fill="#404040">
                                <set attributeName="fill" to="#808080" begin="zoomplus.mouseover" end="zoomplus.mouseout"/>
                        </use>
                        <path d="M-4,0h8M0,-4v8" fill="none" stroke="white" stroke-width="1.5" pointer-events="none"/>
                </g>
                <g id="zoomMin">
                        <use xlink:href="#rim" fill="#404040">
                                <set attributeName="fill" to="#808080" begin="zoomminus.mouseover" end="zoomminus.mouseout"/>
                        </use>
                        <path d="M-4,0h8" fill="none" stroke="white" stroke-width="1.5" pointer-events="none"/>
                </g>
                <g id="dirArrow">
                        <path fill="none" stroke="white" stroke-width="1.5" d="M0,-3.0v7 M-2.5,-0.5L0,-3.0L2.5,-0.5"/>
                </g>
               <g id="resetDef">
                       <use xlink:href="#rim2" fill="#404040">
                               <set attributeName="fill" to="#808080" begin="reset.mouseover" end="reset.mouseout"/>
                       </use>
               </g>
        </defs>

<script type="text/javascript">
var viewWidth = 542;
var viewHeight = 330;
var sectionId = 'dynsection-0';
</script>
<script xlink:href="svgpan.js"/>
<svg id="graph" class="graph">
<g id="viewport">
<title>lib/carpi/src/communication/Sync.h</title>
<polygon fill="white" stroke="none" points="-4,4 -4,-326 538.101,-326 538.101,4 -4,4"/>
<!-- Node1 -->
<g id="node1" class="node"><title>Node1</title>
<polygon fill="#bfbfbf" stroke="black" points="139.601,-291.5 139.601,-321.5 287.601,-321.5 287.601,-291.5 139.601,-291.5"/>
<text text-anchor="start" x="147.601" y="-309.5" font-family="Helvetica,sans-Serif" font-size="10.00">lib/carpi/src/communication</text>
<text text-anchor="middle" x="213.601" y="-298.5" font-family="Helvetica,sans-Serif" font-size="10.00">/Sync.h</text>
</g>
<!-- Node2 -->
<g id="node2" class="node"><title>Node2</title>
<polygon fill="white" stroke="#bfbfbf" points="25.1013,-112.5 25.1013,-131.5 72.1013,-131.5 72.1013,-112.5 25.1013,-112.5"/>
<text text-anchor="middle" x="48.6013" y="-119.5" font-family="Helvetica,sans-Serif" font-size="10.00">vector</text>
</g>
<!-- Node1&#45;&gt;Node2 -->
<g id="edge1" class="edge"><title>Node1&#45;&gt;Node2</title>
<path fill="none" stroke="midnightblue" d="M175.977,-291.401C157.323,-282.995 135.456,-270.846 119.601,-255 86.131,-221.546 64.3843,-169.009 54.5954,-141.384"/>
<polygon fill="midnightblue" stroke="midnightblue" points="57.8688,-140.139 51.3298,-131.803 51.2431,-142.397 57.8688,-140.139"/>
</g>
<!-- Node3 -->
<g id="node3" class="node"><title>Node3</title>
<g id="a_node3"><a xlink:href="component_ids_8h.html" target="_top" xlink:title="componentIds.h">
<polygon fill="white" stroke="black" points="216.601,-56.5 216.601,-75.5 310.601,-75.5 310.601,-56.5 216.601,-56.5"/>
<text text-anchor="middle" x="263.601" y="-63.5" font-family="Helvetica,sans-Serif" font-size="10.00">componentIds.h</text>
</a>
</g>
</g>
<!-- Node1&#45;&gt;Node3 -->
<g id="edge2" class="edge"><title>Node1&#45;&gt;Node3</title>
<path fill="none" stroke="midnightblue" d="M160.878,-291.406C138.092,-283.427 112.218,-271.638 92.6013,-255 37.5517,-208.309 -30.66,-167.411 15.6013,-112 39.4263,-83.4629 140.873,-72.9835 206.409,-69.1626"/>
<polygon fill="midnightblue" stroke="midnightblue" points="206.807,-72.6461 216.601,-68.6048 206.425,-65.6566 206.807,-72.6461"/>
</g>
<!-- Node5 -->
<g id="node5" class="node"><title>Node5</title>
<g id="a_node5"><a xlink:href="device_ids_8h.html" target="_top" xlink:title="deviceIds.h">
<polygon fill="white" stroke="black" points="90.6013,-112.5 90.6013,-131.5 160.601,-131.5 160.601,-112.5 90.6013,-112.5"/>
<text text-anchor="middle" x="125.601" y="-119.5" font-family="Helvetica,sans-Serif" font-size="10.00">deviceIds.h</text>
</a>
</g>
</g>
<!-- Node1&#45;&gt;Node5 -->
<g id="edge4" class="edge"><title>Node1&#45;&gt;Node5</title>
<path fill="none" stroke="midnightblue" d="M178.111,-291.356C162.36,-283.171 145.239,-271.228 135.601,-255 114.551,-219.555 118.09,-168.975 122.095,-141.872"/>
<polygon fill="midnightblue" stroke="midnightblue" points="125.581,-142.245 123.769,-131.806 118.676,-141.096 125.581,-142.245"/>
</g>
<!-- Node6 -->
<g id="node6" class="node"><title>Node6</title>
<g id="a_node6"><a xlink:href="_car_message_8h.html" target="_top" xlink:title="CarMessage.h">
<polygon fill="white" stroke="black" points="148.101,-168.5 148.101,-187.5 233.101,-187.5 233.101,-168.5 148.101,-168.5"/>
<text text-anchor="middle" x="190.601" y="-175.5" font-family="Helvetica,sans-Serif" font-size="10.00">CarMessage.h</text>
</a>
</g>
</g>
<!-- Node1&#45;&gt;Node6 -->
<g id="edge5" class="edge"><title>Node1&#45;&gt;Node6</title>
<path fill="none" stroke="midnightblue" d="M182.259,-291.44C167.685,-283.105 151.792,-271.009 143.601,-255 137.326,-242.734 138.191,-236.671 143.601,-224 148.748,-211.947 158.883,-201.576 168.427,-193.839"/>
<polygon fill="midnightblue" stroke="midnightblue" points="170.641,-196.553 176.523,-187.741 166.43,-190.962 170.641,-196.553"/>
</g>
<!-- Node8 -->
<g id="node8" class="node"><title>Node8</title>
<g id="a_node8"><a xlink:href="_i_component_8h.html" target="_top" xlink:title="IComponent.h">
<polygon fill="white" stroke="black" points="330.601,-112.5 330.601,-131.5 414.601,-131.5 414.601,-112.5 330.601,-112.5"/>
<text text-anchor="middle" x="372.601" y="-119.5" font-family="Helvetica,sans-Serif" font-size="10.00">IComponent.h</text>
</a>
</g>
</g>
<!-- Node1&#45;&gt;Node8 -->
<g id="edge11" class="edge"><title>Node1&#45;&gt;Node8</title>
<path fill="none" stroke="midnightblue" d="M287.963,-299.33C321.601,-292.953 359.561,-280.228 385.601,-255 414.247,-227.248 420.545,-205.725 407.601,-168 403.882,-157.161 396.368,-146.922 389.252,-138.957"/>
<polygon fill="midnightblue" stroke="midnightblue" points="391.602,-136.35 382.157,-131.55 386.547,-141.192 391.602,-136.35"/>
</g>
<!-- Node11 -->
<g id="node11" class="node"><title>Node11</title>
<g id="a_node11"><a xlink:href="_i_channel_8h.html" target="_top" xlink:title="IChannel.h">
<polygon fill="white" stroke="black" points="293.101,-230 293.101,-249 360.101,-249 360.101,-230 293.101,-230"/>
<text text-anchor="middle" x="326.601" y="-237" font-family="Helvetica,sans-Serif" font-size="10.00">IChannel.h</text>
</a>
</g>
</g>
<!-- Node1&#45;&gt;Node11 -->
<g id="edge15" class="edge"><title>Node1&#45;&gt;Node11</title>
<path fill="none" stroke="midnightblue" d="M238.121,-291.396C257.334,-280.344 283.903,-265.061 302.903,-254.132"/>
<polygon fill="midnightblue" stroke="midnightblue" points="304.889,-257.027 311.812,-249.007 301.399,-250.959 304.889,-257.027"/>
</g>
<!-- Node12 -->
<g id="node12" class="node"><title>Node12</title>
<g id="a_node12"><a xlink:href="_i_runable_8h.html" target="_top" xlink:title="runable/IRunable.h">
<polygon fill="white" stroke="black" points="294.601,-168.5 294.601,-187.5 398.601,-187.5 398.601,-168.5 294.601,-168.5"/>
<text text-anchor="middle" x="346.601" y="-175.5" font-family="Helvetica,sans-Serif" font-size="10.00">runable/IRunable.h</text>
</a>
</g>
</g>
<!-- Node1&#45;&gt;Node12 -->
<g id="edge22" class="edge"><title>Node1&#45;&gt;Node12</title>
<path fill="none" stroke="midnightblue" d="M287.881,-299.889C317.984,-293.524 349.98,-280.652 368.601,-255 381.283,-237.531 370.103,-212.868 359.58,-196.428"/>
<polygon fill="midnightblue" stroke="midnightblue" points="362.201,-194.063 353.645,-187.815 356.437,-198.035 362.201,-194.063"/>
</g>
<!-- Node13 -->
<g id="node13" class="node"><title>Node13</title>
<g id="a_node13"><a xlink:href="_i_communication_8h.html" target="_top" xlink:title="components/interface\l/ICommunication.h">
<polygon fill="white" stroke="black" points="152.601,-224.5 152.601,-254.5 274.601,-254.5 274.601,-224.5 152.601,-224.5"/>
<text text-anchor="start" x="160.601" y="-242.5" font-family="Helvetica,sans-Serif" font-size="10.00">components/interface</text>
<text text-anchor="middle" x="213.601" y="-231.5" font-family="Helvetica,sans-Serif" font-size="10.00">/ICommunication.h</text>
</a>
</g>
</g>
<!-- Node1&#45;&gt;Node13 -->
<g id="edge19" class="edge"><title>Node1&#45;&gt;Node13</title>
<path fill="none" stroke="midnightblue" d="M213.601,-291.396C213.601,-283.645 213.601,-273.812 213.601,-264.86"/>
<polygon fill="midnightblue" stroke="midnightblue" points="217.101,-264.576 213.601,-254.577 210.101,-264.577 217.101,-264.576"/>
</g>
<!-- Node14 -->
<g id="node14" class="node"><title>Node14</title>
<g id="a_node14"><a xlink:href="_hard_config_8h.html" target="_top" xlink:title="HardConfig.h">
<polygon fill="white" stroke="black" points="455.101,-230 455.101,-249 534.101,-249 534.101,-230 455.101,-230"/>
<text text-anchor="middle" x="494.601" y="-237" font-family="Helvetica,sans-Serif" font-size="10.00">HardConfig.h</text>
</a>
</g>
</g>
<!-- Node1&#45;&gt;Node14 -->
<g id="edge23" class="edge"><title>Node1&#45;&gt;Node14</title>
<path fill="none" stroke="midnightblue" d="M280.328,-291.453C325.65,-281.717 386.884,-268.181 440.601,-255 444.962,-253.93 449.509,-252.774 454.033,-251.597"/>
<polygon fill="midnightblue" stroke="midnightblue" points="455.045,-254.95 463.82,-249.013 453.258,-248.181 455.045,-254.95"/>
</g>
<!-- Node4 -->
<g id="node4" class="node"><title>Node4</title>
<polygon fill="white" stroke="#bfbfbf" points="200.101,-0.5 200.101,-19.5 253.101,-19.5 253.101,-0.5 200.101,-0.5"/>
<text text-anchor="middle" x="226.601" y="-7.5" font-family="Helvetica,sans-Serif" font-size="10.00">stdint.h</text>
</g>
<!-- Node3&#45;&gt;Node4 -->
<g id="edge3" class="edge"><title>Node3&#45;&gt;Node4</title>
<path fill="none" stroke="midnightblue" d="M257.492,-56.083C252.319,-48.5341 244.755,-37.4948 238.407,-28.2298"/>
<polygon fill="midnightblue" stroke="midnightblue" points="241.137,-26.0221 232.597,-19.7511 235.363,-29.9787 241.137,-26.0221"/>
</g>
<!-- Node6&#45;&gt;Node2 -->
<g id="edge7" class="edge"><title>Node6&#45;&gt;Node2</title>
<path fill="none" stroke="midnightblue" d="M168.101,-168.444C144.524,-159.478 107.279,-145.314 80.6373,-135.183"/>
<polygon fill="midnightblue" stroke="midnightblue" points="81.5874,-131.8 70.9964,-131.516 79.0993,-138.342 81.5874,-131.8"/>
</g>
<!-- Node6&#45;&gt;Node3 -->
<g id="edge10" class="edge"><title>Node6&#45;&gt;Node3</title>
<path fill="none" stroke="midnightblue" d="M196.33,-168.368C208.377,-150.215 236.524,-107.802 252.326,-83.9902"/>
<polygon fill="midnightblue" stroke="midnightblue" points="255.286,-85.8589 257.9,-75.5914 249.454,-81.9882 255.286,-85.8589"/>
</g>
<!-- Node6&#45;&gt;Node4 -->
<g id="edge8" class="edge"><title>Node6&#45;&gt;Node4</title>
<path fill="none" stroke="midnightblue" d="M191.046,-168.336C192.242,-148.253 196.247,-97.099 207.601,-56 210.142,-46.8041 214.119,-37.0002 217.779,-28.8985"/>
<polygon fill="midnightblue" stroke="midnightblue" points="221.008,-30.2577 222.114,-19.7208 214.678,-27.2681 221.008,-30.2577"/>
</g>
<!-- Node6&#45;&gt;Node5 -->
<g id="edge9" class="edge"><title>Node6&#45;&gt;Node5</title>
<path fill="none" stroke="midnightblue" d="M180.158,-168.324C170.455,-160.263 155.786,-148.077 144.102,-138.369"/>
<polygon fill="midnightblue" stroke="midnightblue" points="146.163,-135.532 136.235,-131.834 141.69,-140.916 146.163,-135.532"/>
</g>
<!-- Node7 -->
<g id="node7" class="node"><title>Node7</title>
<polygon fill="white" stroke="#bfbfbf" points="255.101,-112.5 255.101,-131.5 312.101,-131.5 312.101,-112.5 255.101,-112.5"/>
<text text-anchor="middle" x="283.601" y="-119.5" font-family="Helvetica,sans-Serif" font-size="10.00">memory</text>
</g>
<!-- Node6&#45;&gt;Node7 -->
<g id="edge6" class="edge"><title>Node6&#45;&gt;Node7</title>
<path fill="none" stroke="midnightblue" d="M205.543,-168.324C220.187,-159.822 242.735,-146.729 259.839,-136.797"/>
<polygon fill="midnightblue" stroke="midnightblue" points="261.806,-139.703 268.696,-131.655 258.291,-133.649 261.806,-139.703"/>
</g>
<!-- Node8&#45;&gt;Node3 -->
<g id="edge12" class="edge"><title>Node8&#45;&gt;Node3</title>
<path fill="none" stroke="midnightblue" d="M355.089,-112.324C337.529,-103.625 310.27,-90.1202 290.07,-80.113"/>
<polygon fill="midnightblue" stroke="midnightblue" points="291.585,-76.9575 281.071,-75.6545 288.478,-83.23 291.585,-76.9575"/>
</g>
<!-- Node9 -->
<g id="node9" class="node"><title>Node9</title>
<g id="a_node9"><a xlink:href="_i_logable_8h.html" target="_top" xlink:title="ILogable.h">
<polygon fill="white" stroke="black" points="340.101,-56.5 340.101,-75.5 405.101,-75.5 405.101,-56.5 340.101,-56.5"/>
<text text-anchor="middle" x="372.601" y="-63.5" font-family="Helvetica,sans-Serif" font-size="10.00">ILogable.h</text>
</a>
</g>
</g>
<!-- Node8&#45;&gt;Node9 -->
<g id="edge13" class="edge"><title>Node8&#45;&gt;Node9</title>
<path fill="none" stroke="midnightblue" d="M372.601,-112.083C372.601,-105.006 372.601,-94.8611 372.601,-85.9865"/>
<polygon fill="midnightblue" stroke="midnightblue" points="376.101,-85.751 372.601,-75.7511 369.101,-85.7511 376.101,-85.751"/>
</g>
<!-- Node10 -->
<g id="node10" class="node"><title>Node10</title>
<polygon fill="white" stroke="#bfbfbf" points="350.601,-0.5 350.601,-19.5 394.601,-19.5 394.601,-0.5 350.601,-0.5"/>
<text text-anchor="middle" x="372.601" y="-7.5" font-family="Helvetica,sans-Serif" font-size="10.00">string</text>
</g>
<!-- Node9&#45;&gt;Node10 -->
<g id="edge14" class="edge"><title>Node9&#45;&gt;Node10</title>
<path fill="none" stroke="midnightblue" d="M372.601,-56.083C372.601,-49.0059 372.601,-38.8611 372.601,-29.9865"/>
<polygon fill="midnightblue" stroke="midnightblue" points="376.101,-29.751 372.601,-19.7511 369.101,-29.7511 376.101,-29.751"/>
</g>
<!-- Node11&#45;&gt;Node6 -->
<g id="edge16" class="edge"><title>Node11&#45;&gt;Node6</title>
<path fill="none" stroke="midnightblue" d="M307.116,-229.975C284.191,-219.945 245.916,-203.2 219.526,-191.655"/>
<polygon fill="midnightblue" stroke="midnightblue" points="220.615,-188.311 210.051,-187.509 217.809,-194.724 220.615,-188.311"/>
</g>
<!-- Node11&#45;&gt;Node12 -->
<g id="edge17" class="edge"><title>Node11&#45;&gt;Node12</title>
<path fill="none" stroke="midnightblue" d="M329.467,-229.975C332.318,-221.492 336.785,-208.204 340.443,-197.322"/>
<polygon fill="midnightblue" stroke="midnightblue" points="343.872,-198.103 343.741,-187.509 337.237,-195.873 343.872,-198.103"/>
</g>
<!-- Node12&#45;&gt;Node8 -->
<g id="edge18" class="edge"><title>Node12&#45;&gt;Node8</title>
<path fill="none" stroke="midnightblue" d="M350.895,-168.083C354.454,-160.691 359.624,-149.953 364.026,-140.811"/>
<polygon fill="midnightblue" stroke="midnightblue" points="367.203,-142.279 368.388,-131.751 360.896,-139.243 367.203,-142.279"/>
</g>
<!-- Node13&#45;&gt;Node6 -->
<g id="edge21" class="edge"><title>Node13&#45;&gt;Node6</title>
<path fill="none" stroke="midnightblue" d="M208.151,-224.399C204.981,-216.199 200.954,-205.781 197.557,-196.994"/>
<polygon fill="midnightblue" stroke="midnightblue" points="200.818,-195.723 193.948,-187.658 194.289,-198.247 200.818,-195.723"/>
</g>
<!-- Node13&#45;&gt;Node8 -->
<g id="edge20" class="edge"><title>Node13&#45;&gt;Node8</title>
<path fill="none" stroke="midnightblue" d="M225.807,-224.243C239.342,-209.017 262.353,-184.813 285.601,-168 303.39,-155.136 325.361,-143.803 342.773,-135.728"/>
<polygon fill="midnightblue" stroke="midnightblue" points="344.254,-138.899 351.922,-131.588 341.368,-132.522 344.254,-138.899"/>
</g>
</g>
</svg>
        <g id="navigator" transform="translate(0 0)" fill="#404254">
                <rect fill="#f2f5e9" fill-opacity="0.5" stroke="#606060" stroke-width=".5" x="0" y="0" width="60" height="60"/>
                <use id="zoomplus" xlink:href="#zoomPlus" x="17" y="9" onmousedown="handleZoom(evt,'in')"/>
                <use id="zoomminus" xlink:href="#zoomMin" x="42" y="9" onmousedown="handleZoom(evt,'out')"/>
                <use id="reset" xlink:href="#resetDef" x="30" y="36" onmousedown="handleReset()"/>
                <g id="arrowUp" xlink:href="#dirArrow" transform="translate(30 24)" onmousedown="handlePan(0,-1)">
                  <use xlink:href="#rim" fill="#404040">
                        <set attributeName="fill" to="#808080" begin="arrowUp.mouseover" end="arrowUp.mouseout"/>
                  </use>
                  <path fill="none" stroke="white" stroke-width="1.5" d="M0,-3.0v7 M-2.5,-0.5L0,-3.0L2.5,-0.5"/>
                </g>
                <g id="arrowRight" xlink:href="#dirArrow" transform="rotate(90) translate(36 -43)" onmousedown="handlePan(1,0)">
                  <use xlink:href="#rim" fill="#404040">
                        <set attributeName="fill" to="#808080" begin="arrowRight.mouseover" end="arrowRight.mouseout"/>
                  </use>
                  <path fill="none" stroke="white" stroke-width="1.5" d="M0,-3.0v7 M-2.5,-0.5L0,-3.0L2.5,-0.5"/>
                </g>
                <g id="arrowDown" xlink:href="#dirArrow" transform="rotate(180) translate(-30 -48)" onmousedown="handlePan(0,1)">
                  <use xlink:href="#rim" fill="#404040">
                        <set attributeName="fill" to="#808080" begin="arrowDown.mouseover" end="arrowDown.mouseout"/>
                  </use>
                  <path fill="none" stroke="white" stroke-width="1.5" d="M0,-3.0v7 M-2.5,-0.5L0,-3.0L2.5,-0.5"/>
                </g>
                <g id="arrowLeft" xlink:href="#dirArrow" transform="rotate(270) translate(-36 17)" onmousedown="handlePan(-1,0)">
                  <use xlink:href="#rim" fill="#404040">
                        <set attributeName="fill" to="#808080" begin="arrowLeft.mouseover" end="arrowLeft.mouseout"/>
                  </use>
                  <path fill="none" stroke="white" stroke-width="1.5" d="M0,-3.0v7 M-2.5,-0.5L0,-3.0L2.5,-0.5"/>
                </g>
        </g>
        <svg viewBox="0 0 15 15" width="100%" height="30px" preserveAspectRatio="xMaxYMin meet">
         <g id="arrow_out" transform="scale(0.3 0.3)">
          <a xlink:href="_sync_8h__incl_org.svg" target="_base">
           <rect id="button" ry="5" rx="5" y="6" x="6" height="38" width="38"
                fill="#f2f5e9" fill-opacity="0.5" stroke="#606060" stroke-width="1.0"/>
           <path id="arrow"
             d="M 11.500037,31.436501 C 11.940474,20.09759 22.043105,11.32322 32.158766,21.979434 L 37.068811,17.246167 C 37.068811,17.246167 37.088388,32 37.088388,32 L 22.160133,31.978069 C 22.160133,31.978069 26.997745,27.140456 26.997745,27.140456 C 18.528582,18.264221 13.291696,25.230495 11.500037,31.436501 z"
             style="fill:#404040;"/>
          </a>
         </g>
        </svg>
</svg>
