<?xml version="1.0" encoding="UTF-8" standalone="no"?>
<!DOCTYPE svg PUBLIC "-//W3C//DTD SVG 1.1//EN"
 "http://www.w3.org/Graphics/SVG/1.1/DTD/svg11.dtd">
<!-- Generated by graphviz version 2.38.0 (20140413.2041)
 -->
<!-- Title: lib/carpi/lib/BamocarD3/src/TemperaturGraph.h Pages: 1 -->
<svg width="203pt" height="173pt"
 viewBox="0.00 0.00 203.00 173.00" xmlns="http://www.w3.org/2000/svg" xmlns:xlink="http://www.w3.org/1999/xlink">
<g id="graph0" class="graph" transform="scale(1 1) rotate(0) translate(4 169)">
<title>lib/carpi/lib/BamocarD3/src/TemperaturGraph.h</title>
<polygon fill="white" stroke="none" points="-4,4 -4,-169 199,-169 199,4 -4,4"/>
<!-- Node1 -->
<g id="node1" class="node"><title>Node1</title>
<polygon fill="#bfbfbf" stroke="black" points="32.5,-134.5 32.5,-164.5 162.5,-164.5 162.5,-134.5 32.5,-134.5"/>
<text text-anchor="start" x="40.5" y="-152.5" font-family="Helvetica,sans-Serif" font-size="10.00">lib/carpi/lib/BamocarD3</text>
<text text-anchor="middle" x="97.5" y="-141.5" font-family="Helvetica,sans-Serif" font-size="10.00">/src/TemperaturGraph.h</text>
</g>
<!-- Node2 -->
<g id="node2" class="node"><title>Node2</title>
<g id="a_node2"><a xlink:href="_bamocar_d3_8h.html" target="_top" xlink:title="lib/carpi/lib/BamocarD3\l/src/BamocarD3.h">
<polygon fill="white" stroke="black" points="34,-67.5 34,-97.5 161,-97.5 161,-67.5 34,-67.5"/>
<text text-anchor="start" x="42" y="-85.5" font-family="Helvetica,sans-Serif" font-size="10.00">lib/carpi/lib/BamocarD3</text>
<text text-anchor="middle" x="97.5" y="-74.5" font-family="Helvetica,sans-Serif" font-size="10.00">/src/BamocarD3.h</text>
</a>
</g>
</g>
<!-- Node1&#45;&gt;Node2 -->
<g id="edge1" class="edge"><title>Node1&#45;&gt;Node2</title>
<path fill="none" stroke="midnightblue" d="M97.5,-124.108C97.5,-115.154 97.5,-105.323 97.5,-97.5765"/>
<polygon fill="midnightblue" stroke="midnightblue" points="94.0001,-124.396 97.5,-134.396 101,-124.396 94.0001,-124.396"/>
</g>
<!-- Node3 -->
<g id="node3" class="node"><title>Node3</title>
<g id="a_node3"><a xlink:href="_hardware_motor_controller_8h.html" target="_top" xlink:title="lib/carpi/src/components\l/hardware/HardwareMotorController.h">
<polygon fill="white" stroke="black" points="-1.42109e-14,-0.5 -1.42109e-14,-30.5 195,-30.5 195,-0.5 -1.42109e-14,-0.5"/>
<text text-anchor="start" x="8" y="-18.5" font-family="Helvetica,sans-Serif" font-size="10.00">lib/carpi/src/components</text>
<text text-anchor="middle" x="97.5" y="-7.5" font-family="Helvetica,sans-Serif" font-size="10.00">/hardware/HardwareMotorController.h</text>
</a>
</g>
</g>
<!-- Node2&#45;&gt;Node3 -->
<g id="edge2" class="edge"><title>Node2&#45;&gt;Node3</title>
<path fill="none" stroke="midnightblue" d="M97.5,-57.1081C97.5,-48.1539 97.5,-38.3227 97.5,-30.5765"/>
<polygon fill="midnightblue" stroke="midnightblue" points="94.0001,-57.3959 97.5,-67.396 101,-57.396 94.0001,-57.3959"/>
</g>
</g>
</svg>
