<?xml version="1.0" encoding="UTF-8" standalone="no"?>
<!DOCTYPE svg PUBLIC "-//W3C//DTD SVG 1.1//EN"
 "http://www.w3.org/Graphics/SVG/1.1/DTD/svg11.dtd">
<!-- Generated by graphviz version 2.38.0 (20140413.2041)
 -->
<!-- Title: car/hardwareTest/arduino/TouchDisplayCalibration.h Pages: 1 -->
<svg width="478pt" height="106pt"
 viewBox="0.00 0.00 477.50 106.00" xmlns="http://www.w3.org/2000/svg" xmlns:xlink="http://www.w3.org/1999/xlink">
<g id="graph0" class="graph" transform="scale(1 1) rotate(0) translate(4 102)">
<title>car/hardwareTest/arduino/TouchDisplayCalibration.h</title>
<polygon fill="white" stroke="none" points="-4,4 -4,-102 473.5,-102 473.5,4 -4,4"/>
<!-- Node1 -->
<g id="node1" class="node"><title>Node1</title>
<polygon fill="#bfbfbf" stroke="black" points="163.5,-67.5 163.5,-97.5 304.5,-97.5 304.5,-67.5 163.5,-67.5"/>
<text text-anchor="start" x="171.5" y="-85.5" font-family="Helvetica,sans-Serif" font-size="10.00">car/hardwareTest/arduino</text>
<text text-anchor="middle" x="234" y="-74.5" font-family="Helvetica,sans-Serif" font-size="10.00">/TouchDisplayCalibration.h</text>
</g>
<!-- Node2 -->
<g id="node2" class="node"><title>Node2</title>
<polygon fill="white" stroke="#bfbfbf" points="0,-6 0,-25 74,-25 74,-6 0,-6"/>
<text text-anchor="middle" x="37" y="-13" font-family="Helvetica,sans-Serif" font-size="10.00">ILI9341_t3.h</text>
</g>
<!-- Node1&#45;&gt;Node2 -->
<g id="edge1" class="edge"><title>Node1&#45;&gt;Node2</title>
<path fill="none" stroke="midnightblue" d="M191.254,-67.396C155.77,-55.6882 105.893,-39.2314 72.5617,-28.2336"/>
<polygon fill="midnightblue" stroke="midnightblue" points="73.3759,-24.8167 62.7828,-25.007 71.1825,-31.4642 73.3759,-24.8167"/>
</g>
<!-- Node3 -->
<g id="node3" class="node"><title>Node3</title>
<polygon fill="white" stroke="#bfbfbf" points="92.5,-6 92.5,-25 223.5,-25 223.5,-6 92.5,-6"/>
<text text-anchor="middle" x="158" y="-13" font-family="Helvetica,sans-Serif" font-size="10.00">XPT2046_Touchscreen.h</text>
</g>
<!-- Node1&#45;&gt;Node3 -->
<g id="edge2" class="edge"><title>Node1&#45;&gt;Node3</title>
<path fill="none" stroke="midnightblue" d="M217.509,-67.396C205.307,-56.96 188.693,-42.7507 176.121,-31.9978"/>
<polygon fill="midnightblue" stroke="midnightblue" points="178.04,-29.0344 168.166,-25.1945 173.491,-34.3541 178.04,-29.0344"/>
</g>
<!-- Node4 -->
<g id="node4" class="node"><title>Node4</title>
<g id="a_node4"><a xlink:href="_pins___display_8h.html" target="_top" xlink:title="../../Bonnie2019/hardware\l/Pins_Display.h">
<polygon fill="white" stroke="black" points="241.5,-0.5 241.5,-30.5 380.5,-30.5 380.5,-0.5 241.5,-0.5"/>
<text text-anchor="start" x="249.5" y="-18.5" font-family="Helvetica,sans-Serif" font-size="10.00">../../Bonnie2019/hardware</text>
<text text-anchor="middle" x="311" y="-7.5" font-family="Helvetica,sans-Serif" font-size="10.00">/Pins_Display.h</text>
</a>
</g>
</g>
<!-- Node1&#45;&gt;Node4 -->
<g id="edge3" class="edge"><title>Node1&#45;&gt;Node4</title>
<path fill="none" stroke="midnightblue" d="M250.708,-67.396C261.202,-58.5375 274.916,-46.9604 286.613,-37.0861"/>
<polygon fill="midnightblue" stroke="midnightblue" points="288.941,-39.7016 294.325,-30.5765 284.426,-34.3526 288.941,-39.7016"/>
</g>
<!-- Node5 -->
<g id="node5" class="node"><title>Node5</title>
<g id="a_node5"><a xlink:href="tiger_logo_8h.html" target="_top" xlink:title="tigerLogo.h">
<polygon fill="white" stroke="black" points="398.5,-6 398.5,-25 469.5,-25 469.5,-6 398.5,-6"/>
<text text-anchor="middle" x="434" y="-13" font-family="Helvetica,sans-Serif" font-size="10.00">tigerLogo.h</text>
</a>
</g>
</g>
<!-- Node1&#45;&gt;Node5 -->
<g id="edge4" class="edge"><title>Node1&#45;&gt;Node5</title>
<path fill="none" stroke="midnightblue" d="M277.728,-67.4124C309.012,-57.3172 352.116,-43.3741 390,-31 392.724,-30.1104 395.541,-29.1875 398.374,-28.258"/>
<polygon fill="midnightblue" stroke="midnightblue" points="399.543,-31.5582 407.949,-25.11 397.356,-24.9084 399.543,-31.5582"/>
</g>
</g>
</svg>
