<?xml version="1.0" encoding="UTF-8" standalone="no"?>
<!DOCTYPE svg PUBLIC "-//W3C//DTD SVG 1.1//EN"
 "http://www.w3.org/Graphics/SVG/1.1/DTD/svg11.dtd">
<!-- Generated by graphviz version 2.38.0 (20140413.2041)
 -->
<!-- Title: lib/carpi/lib/SDFileSystem/FATFileSystem/ccsbcs.cpp Pages: 1 -->
<svg width="698pt" height="575pt"
 viewBox="0.00 0.00 697.54 575.00" xmlns="http://www.w3.org/2000/svg" xmlns:xlink="http://www.w3.org/1999/xlink">
<g id="graph0" class="graph" transform="scale(1 1) rotate(0) translate(4 571)">
<title>lib/carpi/lib/SDFileSystem/FATFileSystem/ccsbcs.cpp</title>
<polygon fill="white" stroke="none" points="-4,4 -4,-571 693.538,-571 693.538,4 -4,4"/>
<!-- Node1 -->
<g id="node1" class="node"><title>Node1</title>
<polygon fill="#bfbfbf" stroke="black" points="404.5,-536.5 404.5,-566.5 547.5,-566.5 547.5,-536.5 404.5,-536.5"/>
<text text-anchor="start" x="412.5" y="-554.5" font-family="Helvetica,sans-Serif" font-size="10.00">lib/carpi/lib/SDFileSystem</text>
<text text-anchor="middle" x="476" y="-543.5" font-family="Helvetica,sans-Serif" font-size="10.00">/FATFileSystem/ccsbcs.cpp</text>
</g>
<!-- Node2 -->
<g id="node2" class="node"><title>Node2</title>
<g id="a_node2"><a xlink:href="ff_8h.html" target="_top" xlink:title="lib/carpi/lib/SDFileSystem\l/FATFileSystem/ff.h">
<polygon fill="white" stroke="black" points="408,-469.5 408,-499.5 544,-499.5 544,-469.5 408,-469.5"/>
<text text-anchor="start" x="416" y="-487.5" font-family="Helvetica,sans-Serif" font-size="10.00">lib/carpi/lib/SDFileSystem</text>
<text text-anchor="middle" x="476" y="-476.5" font-family="Helvetica,sans-Serif" font-size="10.00">/FATFileSystem/ff.h</text>
</a>
</g>
</g>
<!-- Node1&#45;&gt;Node2 -->
<g id="edge1" class="edge"><title>Node1&#45;&gt;Node2</title>
<path fill="none" stroke="midnightblue" d="M469.455,-526.403C469.005,-517.37 469.296,-507.408 470.325,-499.577"/>
<polygon fill="midnightblue" stroke="midnightblue" points="465.97,-526.736 470.322,-536.396 472.944,-526.131 465.97,-526.736"/>
</g>
<!-- Node2&#45;&gt;Node1 -->
<g id="edge2" class="edge"><title>Node2&#45;&gt;Node1</title>
<path fill="none" stroke="midnightblue" d="M482.544,-509.565C482.995,-518.596 482.706,-528.56 481.678,-536.396"/>
<polygon fill="midnightblue" stroke="midnightblue" points="486.028,-509.236 481.675,-499.577 479.055,-509.842 486.028,-509.236"/>
</g>
<!-- Node3 -->
<g id="node3" class="node"><title>Node3</title>
<g id="a_node3"><a xlink:href="_f_a_t_file_system_8h.html" target="_top" xlink:title="lib/carpi/lib/SDFileSystem\l/FATFileSystem/FATFileSystem.h">
<polygon fill="white" stroke="black" points="302.5,-201.5 302.5,-231.5 469.5,-231.5 469.5,-201.5 302.5,-201.5"/>
<text text-anchor="start" x="310.5" y="-219.5" font-family="Helvetica,sans-Serif" font-size="10.00">lib/carpi/lib/SDFileSystem</text>
<text text-anchor="middle" x="386" y="-208.5" font-family="Helvetica,sans-Serif" font-size="10.00">/FATFileSystem/FATFileSystem.h</text>
</a>
</g>
</g>
<!-- Node2&#45;&gt;Node3 -->
<g id="edge3" class="edge"><title>Node2&#45;&gt;Node3</title>
<path fill="none" stroke="midnightblue" d="M397.72,-472.726C351.072,-464.523 298.239,-451.469 284,-433 263.704,-406.676 205.976,-398.132 288,-268 298.818,-250.837 317.48,-239.229 335.634,-231.518"/>
<polygon fill="midnightblue" stroke="midnightblue" points="397.425,-476.226 407.87,-474.454 398.599,-469.326 397.425,-476.226"/>
</g>
<!-- Node6 -->
<g id="node6" class="node"><title>Node6</title>
<g id="a_node6"><a xlink:href="ff_8cpp.html" target="_top" xlink:title="lib/carpi/lib/SDFileSystem\l/FATFileSystem/ff.cpp">
<polygon fill="white" stroke="black" points="515,-0.5 515,-30.5 651,-30.5 651,-0.5 515,-0.5"/>
<text text-anchor="start" x="523" y="-18.5" font-family="Helvetica,sans-Serif" font-size="10.00">lib/carpi/lib/SDFileSystem</text>
<text text-anchor="middle" x="583" y="-7.5" font-family="Helvetica,sans-Serif" font-size="10.00">/FATFileSystem/ff.cpp</text>
</a>
</g>
</g>
<!-- Node2&#45;&gt;Node6 -->
<g id="edge24" class="edge"><title>Node2&#45;&gt;Node6</title>
<path fill="none" stroke="midnightblue" d="M554.422,-481.129C593.459,-475.872 638.492,-463.001 668,-433 694.154,-406.41 688,-388.797 688,-351.5 688,-351.5 688,-351.5 688,-148.5 688,-110.2 683.501,-97.2423 660,-67 647.934,-51.4735 629.687,-39.2091 613.985,-30.6563"/>
<polygon fill="midnightblue" stroke="midnightblue" points="553.629,-477.699 544.116,-482.363 554.461,-484.649 553.629,-477.699"/>
</g>
<!-- Node13 -->
<g id="node13" class="node"><title>Node13</title>
<g id="a_node13"><a xlink:href="_f_a_t_file_handle_8cpp.html" target="_top" xlink:title="lib/carpi/lib/SDFileSystem\l/FATFileSystem/FATFileHandle.cpp">
<polygon fill="white" stroke="black" points="484.5,-402.5 484.5,-432.5 659.5,-432.5 659.5,-402.5 484.5,-402.5"/>
<text text-anchor="start" x="492.5" y="-420.5" font-family="Helvetica,sans-Serif" font-size="10.00">lib/carpi/lib/SDFileSystem</text>
<text text-anchor="middle" x="572" y="-409.5" font-family="Helvetica,sans-Serif" font-size="10.00">/FATFileSystem/FATFileHandle.cpp</text>
</a>
</g>
</g>
<!-- Node2&#45;&gt;Node13 -->
<g id="edge16" class="edge"><title>Node2&#45;&gt;Node13</title>
<path fill="none" stroke="midnightblue" d="M505.193,-463.734C520.048,-453.676 537.758,-441.685 551.21,-432.577"/>
<polygon fill="midnightblue" stroke="midnightblue" points="503.149,-460.891 496.831,-469.396 507.073,-466.688 503.149,-460.891"/>
</g>
<!-- Node15 -->
<g id="node15" class="node"><title>Node15</title>
<g id="a_node15"><a xlink:href="_f_a_t_dir_handle_8cpp.html" target="_top" xlink:title="lib/carpi/lib/SDFileSystem\l/FATFileSystem/FATDirHandle.cpp">
<polygon fill="white" stroke="black" points="293.5,-402.5 293.5,-432.5 466.5,-432.5 466.5,-402.5 293.5,-402.5"/>
<text text-anchor="start" x="301.5" y="-420.5" font-family="Helvetica,sans-Serif" font-size="10.00">lib/carpi/lib/SDFileSystem</text>
<text text-anchor="middle" x="380" y="-409.5" font-family="Helvetica,sans-Serif" font-size="10.00">/FATFileSystem/FATDirHandle.cpp</text>
</a>
</g>
</g>
<!-- Node2&#45;&gt;Node15 -->
<g id="edge20" class="edge"><title>Node2&#45;&gt;Node15</title>
<path fill="none" stroke="midnightblue" d="M446.807,-463.734C431.952,-453.676 414.242,-441.685 400.79,-432.577"/>
<polygon fill="midnightblue" stroke="midnightblue" points="444.927,-466.688 455.169,-469.396 448.851,-460.891 444.927,-466.688"/>
</g>
<!-- Node4 -->
<g id="node4" class="node"><title>Node4</title>
<g id="a_node4"><a xlink:href="diskio_8cpp.html" target="_top" xlink:title="lib/carpi/lib/SDFileSystem\l/FATFileSystem/diskio.cpp">
<polygon fill="white" stroke="black" points="514.5,-134.5 514.5,-164.5 651.5,-164.5 651.5,-134.5 514.5,-134.5"/>
<text text-anchor="start" x="522.5" y="-152.5" font-family="Helvetica,sans-Serif" font-size="10.00">lib/carpi/lib/SDFileSystem</text>
<text text-anchor="middle" x="583" y="-141.5" font-family="Helvetica,sans-Serif" font-size="10.00">/FATFileSystem/diskio.cpp</text>
</a>
</g>
</g>
<!-- Node3&#45;&gt;Node4 -->
<g id="edge4" class="edge"><title>Node3&#45;&gt;Node4</title>
<path fill="none" stroke="midnightblue" d="M438.348,-198.228C470.216,-187.713 510.411,-174.451 540.337,-164.577"/>
<polygon fill="midnightblue" stroke="midnightblue" points="437.146,-194.939 428.746,-201.396 439.339,-201.586 437.146,-194.939"/>
</g>
<!-- Node7 -->
<g id="node7" class="node"><title>Node7</title>
<g id="a_node7"><a xlink:href="_f_a_t_file_system_8cpp.html" target="_top" xlink:title="lib/carpi/lib/SDFileSystem\l/FATFileSystem/FATFileSystem.cpp">
<polygon fill="white" stroke="black" points="297,-268.5 297,-298.5 475,-298.5 475,-268.5 297,-268.5"/>
<text text-anchor="start" x="305" y="-286.5" font-family="Helvetica,sans-Serif" font-size="10.00">lib/carpi/lib/SDFileSystem</text>
<text text-anchor="middle" x="386" y="-275.5" font-family="Helvetica,sans-Serif" font-size="10.00">/FATFileSystem/FATFileSystem.cpp</text>
</a>
</g>
</g>
<!-- Node3&#45;&gt;Node7 -->
<g id="edge9" class="edge"><title>Node3&#45;&gt;Node7</title>
<path fill="none" stroke="midnightblue" d="M392.544,-241.565C392.995,-250.596 392.706,-260.56 391.678,-268.396"/>
<polygon fill="midnightblue" stroke="midnightblue" points="396.028,-241.236 391.675,-231.577 389.055,-241.842 396.028,-241.236"/>
</g>
<!-- Node8 -->
<g id="node8" class="node"><title>Node8</title>
<g id="a_node8"><a xlink:href="_mem_file_system_8h.html" target="_top" xlink:title="lib/carpi/lib/SDFileSystem\l/FATFileSystem/MemFileSystem.h">
<polygon fill="white" stroke="black" points="124.5,-134.5 124.5,-164.5 299.5,-164.5 299.5,-134.5 124.5,-134.5"/>
<text text-anchor="start" x="132.5" y="-152.5" font-family="Helvetica,sans-Serif" font-size="10.00">lib/carpi/lib/SDFileSystem</text>
<text text-anchor="middle" x="212" y="-141.5" font-family="Helvetica,sans-Serif" font-size="10.00">/FATFileSystem/MemFileSystem.h</text>
</a>
</g>
</g>
<!-- Node3&#45;&gt;Node8 -->
<g id="edge11" class="edge"><title>Node3&#45;&gt;Node8</title>
<path fill="none" stroke="midnightblue" d="M338.668,-197.819C310.7,-187.371 275.773,-174.323 249.682,-164.577"/>
<polygon fill="midnightblue" stroke="midnightblue" points="337.652,-201.175 348.245,-201.396 340.102,-194.618 337.652,-201.175"/>
</g>
<!-- Node9 -->
<g id="node9" class="node"><title>Node9</title>
<g id="a_node9"><a xlink:href="_s_d_file_system_8h.html" target="_top" xlink:title="lib/carpi/lib/SDFileSystem\l/SDFileSystem.h">
<polygon fill="white" stroke="black" points="318,-134.5 318,-164.5 454,-164.5 454,-134.5 318,-134.5"/>
<text text-anchor="start" x="326" y="-152.5" font-family="Helvetica,sans-Serif" font-size="10.00">lib/carpi/lib/SDFileSystem</text>
<text text-anchor="middle" x="386" y="-141.5" font-family="Helvetica,sans-Serif" font-size="10.00">/SDFileSystem.h</text>
</a>
</g>
</g>
<!-- Node3&#45;&gt;Node9 -->
<g id="edge12" class="edge"><title>Node3&#45;&gt;Node9</title>
<path fill="none" stroke="midnightblue" d="M386,-191.108C386,-182.154 386,-172.323 386,-164.577"/>
<polygon fill="midnightblue" stroke="midnightblue" points="382.5,-191.396 386,-201.396 389.5,-191.396 382.5,-191.396"/>
</g>
<!-- Node5 -->
<g id="node5" class="node"><title>Node5</title>
<g id="a_node5"><a xlink:href="diskio_8h.html" target="_top" xlink:title="lib/carpi/lib/SDFileSystem\l/FATFileSystem/diskio.h">
<polygon fill="white" stroke="black" points="515,-67.5 515,-97.5 651,-97.5 651,-67.5 515,-67.5"/>
<text text-anchor="start" x="523" y="-85.5" font-family="Helvetica,sans-Serif" font-size="10.00">lib/carpi/lib/SDFileSystem</text>
<text text-anchor="middle" x="583" y="-74.5" font-family="Helvetica,sans-Serif" font-size="10.00">/FATFileSystem/diskio.h</text>
</a>
</g>
</g>
<!-- Node4&#45;&gt;Node5 -->
<g id="edge5" class="edge"><title>Node4&#45;&gt;Node5</title>
<path fill="none" stroke="midnightblue" d="M576.455,-124.403C576.005,-115.37 576.296,-105.408 577.325,-97.5765"/>
<polygon fill="midnightblue" stroke="midnightblue" points="572.97,-124.736 577.322,-134.396 579.944,-124.131 572.97,-124.736"/>
</g>
<!-- Node5&#45;&gt;Node4 -->
<g id="edge6" class="edge"><title>Node5&#45;&gt;Node4</title>
<path fill="none" stroke="midnightblue" d="M589.544,-107.565C589.995,-116.596 589.706,-126.56 588.678,-134.396"/>
<polygon fill="midnightblue" stroke="midnightblue" points="593.028,-107.236 588.675,-97.5765 586.055,-107.842 593.028,-107.236"/>
</g>
<!-- Node5&#45;&gt;Node6 -->
<g id="edge7" class="edge"><title>Node5&#45;&gt;Node6</title>
<path fill="none" stroke="midnightblue" d="M583,-57.1081C583,-48.1539 583,-38.3227 583,-30.5765"/>
<polygon fill="midnightblue" stroke="midnightblue" points="579.5,-57.3959 583,-67.396 586.5,-57.396 579.5,-57.3959"/>
</g>
<!-- Node6&#45;&gt;Node3 -->
<g id="edge8" class="edge"><title>Node6&#45;&gt;Node3</title>
<path fill="none" stroke="midnightblue" d="M544.574,-35.69C531.043,-43.8905 516.584,-54.4824 506,-67 475.289,-103.32 493.711,-128.68 463,-165 450.097,-180.26 431.437,-192.657 415.717,-201.35"/>
<polygon fill="midnightblue" stroke="midnightblue" points="546.381,-38.6885 553.283,-30.6501 542.874,-32.63 546.381,-38.6885"/>
</g>
<!-- Node7&#45;&gt;Node3 -->
<g id="edge10" class="edge"><title>Node7&#45;&gt;Node3</title>
<path fill="none" stroke="midnightblue" d="M379.455,-258.403C379.005,-249.37 379.296,-239.408 380.325,-231.577"/>
<polygon fill="midnightblue" stroke="midnightblue" points="375.97,-258.736 380.322,-268.396 382.944,-258.131 375.97,-258.736"/>
</g>
<!-- Node10 -->
<g id="node10" class="node"><title>Node10</title>
<g id="a_node10"><a xlink:href="_s_d_card_test_8h.html" target="_top" xlink:title="car/hardwareTest/mbed\l/SDCardTest.h">
<polygon fill="white" stroke="black" points="176,-67.5 176,-97.5 304,-97.5 304,-67.5 176,-67.5"/>
<text text-anchor="start" x="184" y="-85.5" font-family="Helvetica,sans-Serif" font-size="10.00">car/hardwareTest/mbed</text>
<text text-anchor="middle" x="240" y="-74.5" font-family="Helvetica,sans-Serif" font-size="10.00">/SDCardTest.h</text>
</a>
</g>
</g>
<!-- Node9&#45;&gt;Node10 -->
<g id="edge13" class="edge"><title>Node9&#45;&gt;Node10</title>
<path fill="none" stroke="midnightblue" d="M345.05,-130.269C321.796,-119.916 293.128,-107.153 271.618,-97.5765"/>
<polygon fill="midnightblue" stroke="midnightblue" points="343.761,-133.526 354.32,-134.396 346.608,-127.131 343.761,-133.526"/>
</g>
<!-- Node11 -->
<g id="node11" class="node"><title>Node11</title>
<g id="a_node11"><a xlink:href="_s_d_file_system_8cpp.html" target="_top" xlink:title="lib/carpi/lib/SDFileSystem\l/SDFileSystem.cpp">
<polygon fill="white" stroke="black" points="322,-67.5 322,-97.5 458,-97.5 458,-67.5 322,-67.5"/>
<text text-anchor="start" x="330" y="-85.5" font-family="Helvetica,sans-Serif" font-size="10.00">lib/carpi/lib/SDFileSystem</text>
<text text-anchor="middle" x="390" y="-74.5" font-family="Helvetica,sans-Serif" font-size="10.00">/SDFileSystem.cpp</text>
</a>
</g>
</g>
<!-- Node9&#45;&gt;Node11 -->
<g id="edge14" class="edge"><title>Node9&#45;&gt;Node11</title>
<path fill="none" stroke="midnightblue" d="M387.483,-124.403C388.039,-115.37 388.652,-105.408 389.134,-97.5765"/>
<polygon fill="midnightblue" stroke="midnightblue" points="383.989,-124.2 386.868,-134.396 390.976,-124.63 383.989,-124.2"/>
</g>
<!-- Node12 -->
<g id="node12" class="node"><title>Node12</title>
<g id="a_node12"><a xlink:href="_hardware_s_d_card_8h.html" target="_top" xlink:title="lib/carpi/src/components\l/hardware/HardwareSDCard.h">
<polygon fill="white" stroke="black" points="0,-67.5 0,-97.5 158,-97.5 158,-67.5 0,-67.5"/>
<text text-anchor="start" x="8" y="-85.5" font-family="Helvetica,sans-Serif" font-size="10.00">lib/carpi/src/components</text>
<text text-anchor="middle" x="79" y="-74.5" font-family="Helvetica,sans-Serif" font-size="10.00">/hardware/HardwareSDCard.h</text>
</a>
</g>
</g>
<!-- Node9&#45;&gt;Node12 -->
<g id="edge15" class="edge"><title>Node9&#45;&gt;Node12</title>
<path fill="none" stroke="midnightblue" d="M309.875,-132.382C259.378,-121.691 193.753,-107.796 145.382,-97.5549"/>
<polygon fill="midnightblue" stroke="midnightblue" points="309.255,-135.829 319.764,-134.476 310.705,-128.98 309.255,-135.829"/>
</g>
<!-- Node14 -->
<g id="node14" class="node"><title>Node14</title>
<g id="a_node14"><a xlink:href="_f_a_t_file_handle_8h.html" target="_top" xlink:title="lib/carpi/lib/SDFileSystem\l/FATFileSystem/FATFileHandle.h">
<polygon fill="white" stroke="black" points="490,-335.5 490,-365.5 654,-365.5 654,-335.5 490,-335.5"/>
<text text-anchor="start" x="498" y="-353.5" font-family="Helvetica,sans-Serif" font-size="10.00">lib/carpi/lib/SDFileSystem</text>
<text text-anchor="middle" x="572" y="-342.5" font-family="Helvetica,sans-Serif" font-size="10.00">/FATFileSystem/FATFileHandle.h</text>
</a>
</g>
</g>
<!-- Node13&#45;&gt;Node14 -->
<g id="edge17" class="edge"><title>Node13&#45;&gt;Node14</title>
<path fill="none" stroke="midnightblue" d="M565.455,-392.403C565.005,-383.37 565.296,-373.408 566.325,-365.577"/>
<polygon fill="midnightblue" stroke="midnightblue" points="561.97,-392.736 566.322,-402.396 568.944,-392.131 561.97,-392.736"/>
</g>
<!-- Node14&#45;&gt;Node7 -->
<g id="edge18" class="edge"><title>Node14&#45;&gt;Node7</title>
<path fill="none" stroke="midnightblue" d="M522.185,-332.092C492.16,-321.599 454.414,-308.408 426.28,-298.577"/>
<polygon fill="midnightblue" stroke="midnightblue" points="521.046,-335.401 531.641,-335.396 523.355,-328.793 521.046,-335.401"/>
</g>
<!-- Node14&#45;&gt;Node13 -->
<g id="edge19" class="edge"><title>Node14&#45;&gt;Node13</title>
<path fill="none" stroke="midnightblue" d="M578.544,-375.565C578.995,-384.596 578.706,-394.56 577.678,-402.396"/>
<polygon fill="midnightblue" stroke="midnightblue" points="582.028,-375.236 577.675,-365.577 575.055,-375.842 582.028,-375.236"/>
</g>
<!-- Node16 -->
<g id="node16" class="node"><title>Node16</title>
<g id="a_node16"><a xlink:href="_f_a_t_dir_handle_8h.html" target="_top" xlink:title="lib/carpi/lib/SDFileSystem\l/FATFileSystem/FATDirHandle.h">
<polygon fill="white" stroke="black" points="299,-335.5 299,-365.5 461,-365.5 461,-335.5 299,-335.5"/>
<text text-anchor="start" x="307" y="-353.5" font-family="Helvetica,sans-Serif" font-size="10.00">lib/carpi/lib/SDFileSystem</text>
<text text-anchor="middle" x="380" y="-342.5" font-family="Helvetica,sans-Serif" font-size="10.00">/FATFileSystem/FATDirHandle.h</text>
</a>
</g>
</g>
<!-- Node15&#45;&gt;Node16 -->
<g id="edge21" class="edge"><title>Node15&#45;&gt;Node16</title>
<path fill="none" stroke="midnightblue" d="M373.455,-392.403C373.005,-383.37 373.296,-373.408 374.325,-365.577"/>
<polygon fill="midnightblue" stroke="midnightblue" points="369.97,-392.736 374.322,-402.396 376.944,-392.131 369.97,-392.736"/>
</g>
<!-- Node16&#45;&gt;Node7 -->
<g id="edge22" class="edge"><title>Node16&#45;&gt;Node7</title>
<path fill="none" stroke="midnightblue" d="M382.224,-325.403C383.058,-316.37 383.978,-306.408 384.701,-298.577"/>
<polygon fill="midnightblue" stroke="midnightblue" points="378.736,-325.117 381.302,-335.396 385.706,-325.76 378.736,-325.117"/>
</g>
<!-- Node16&#45;&gt;Node15 -->
<g id="edge23" class="edge"><title>Node16&#45;&gt;Node15</title>
<path fill="none" stroke="midnightblue" d="M386.544,-375.565C386.995,-384.596 386.706,-394.56 385.678,-402.396"/>
<polygon fill="midnightblue" stroke="midnightblue" points="390.028,-375.236 385.675,-365.577 383.055,-375.842 390.028,-375.236"/>
</g>
</g>
</svg>
