<?xml version="1.0" encoding="UTF-8" standalone="no"?>
<!DOCTYPE svg PUBLIC "-//W3C//DTD SVG 1.1//EN"
 "http://www.w3.org/Graphics/SVG/1.1/DTD/svg11.dtd">
<!-- Generated by graphviz version 2.38.0 (20140413.2041)
 -->
<!-- Title: lib/carpi/lib/SDFileSystem/FATFileSystem/ccsbcs.cpp Pages: 1 -->
<svg width="151pt" height="151pt"
 viewBox="0.00 0.00 151.00 151.00" xmlns="http://www.w3.org/2000/svg" xmlns:xlink="http://www.w3.org/1999/xlink">
<g id="graph0" class="graph" transform="scale(1 1) rotate(0) translate(4 147)">
<title>lib/carpi/lib/SDFileSystem/FATFileSystem/ccsbcs.cpp</title>
<polygon fill="white" stroke="none" points="-4,4 -4,-147 147,-147 147,4 -4,4"/>
<!-- Node1 -->
<g id="node1" class="node"><title>Node1</title>
<polygon fill="#bfbfbf" stroke="black" points="0,-112.5 0,-142.5 143,-142.5 143,-112.5 0,-112.5"/>
<text text-anchor="start" x="8" y="-130.5" font-family="Helvetica,sans-Serif" font-size="10.00">lib/carpi/lib/SDFileSystem</text>
<text text-anchor="middle" x="71.5" y="-119.5" font-family="Helvetica,sans-Serif" font-size="10.00">/FATFileSystem/ccsbcs.cpp</text>
</g>
<!-- Node2 -->
<g id="node2" class="node"><title>Node2</title>
<g id="a_node2"><a xlink:href="ff_8h.html" target="_top" xlink:title="ff.h">
<polygon fill="white" stroke="black" points="55.5,-56.5 55.5,-75.5 87.5,-75.5 87.5,-56.5 55.5,-56.5"/>
<text text-anchor="middle" x="71.5" y="-63.5" font-family="Helvetica,sans-Serif" font-size="10.00">ff.h</text>
</a>
</g>
</g>
<!-- Node1&#45;&gt;Node2 -->
<g id="edge1" class="edge"><title>Node1&#45;&gt;Node2</title>
<path fill="none" stroke="midnightblue" d="M65.6601,-112.399C64.6301,-104.377 64.4744,-94.2328 65.1929,-85.569"/>
<polygon fill="midnightblue" stroke="midnightblue" points="68.6604,-86.0445 66.5706,-75.6578 61.7271,-85.0806 68.6604,-86.0445"/>
</g>
<!-- Node2&#45;&gt;Node1 -->
<g id="edge4" class="edge"><title>Node2&#45;&gt;Node1</title>
<path fill="none" stroke="midnightblue" d="M76.4294,-75.6578C77.9347,-82.6548 78.5066,-92.857 78.1449,-102.289"/>
<polygon fill="midnightblue" stroke="midnightblue" points="74.6448,-102.153 77.3399,-112.399 81.6227,-102.709 74.6448,-102.153"/>
</g>
<!-- Node3 -->
<g id="node3" class="node"><title>Node3</title>
<g id="a_node3"><a xlink:href="integer_8h.html" target="_top" xlink:title="integer.h">
<polygon fill="white" stroke="black" points="6,-0.5 6,-19.5 65,-19.5 65,-0.5 6,-0.5"/>
<text text-anchor="middle" x="35.5" y="-7.5" font-family="Helvetica,sans-Serif" font-size="10.00">integer.h</text>
</a>
</g>
</g>
<!-- Node2&#45;&gt;Node3 -->
<g id="edge2" class="edge"><title>Node2&#45;&gt;Node3</title>
<path fill="none" stroke="midnightblue" d="M65.5553,-56.083C60.5227,-48.5341 53.1632,-37.4948 46.9865,-28.2298"/>
<polygon fill="midnightblue" stroke="midnightblue" points="49.7933,-26.1301 41.3341,-19.7511 43.9689,-30.0131 49.7933,-26.1301"/>
</g>
<!-- Node4 -->
<g id="node4" class="node"><title>Node4</title>
<g id="a_node4"><a xlink:href="ffconf_8h.html" target="_top" xlink:title="ffconf.h">
<polygon fill="white" stroke="black" points="83,-0.5 83,-19.5 134,-19.5 134,-0.5 83,-0.5"/>
<text text-anchor="middle" x="108.5" y="-7.5" font-family="Helvetica,sans-Serif" font-size="10.00">ffconf.h</text>
</a>
</g>
</g>
<!-- Node2&#45;&gt;Node4 -->
<g id="edge3" class="edge"><title>Node2&#45;&gt;Node4</title>
<path fill="none" stroke="midnightblue" d="M77.6098,-56.083C82.7822,-48.5341 90.3461,-37.4948 96.6944,-28.2298"/>
<polygon fill="midnightblue" stroke="midnightblue" points="99.7388,-29.9787 102.504,-19.7511 93.9643,-26.0221 99.7388,-29.9787"/>
</g>
</g>
</svg>
