<?xml version="1.0" encoding="UTF-8" standalone="no"?>
<!DOCTYPE svg PUBLIC "-//W3C//DTD SVG 1.1//EN"
 "http://www.w3.org/Graphics/SVG/1.1/DTD/svg11.dtd">
<!-- Generated by graphviz version 2.38.0 (20140413.2041)
 -->
<!-- Title: DelayedSwitch Pages: 1 -->
<svg width="181pt" height="237pt"
 viewBox="0.00 0.00 181.00 237.00" xmlns="http://www.w3.org/2000/svg" xmlns:xlink="http://www.w3.org/1999/xlink">
<g id="graph0" class="graph" transform="scale(1 1) rotate(0) translate(4 233)">
<title>DelayedSwitch</title>
<polygon fill="white" stroke="none" points="-4,4 -4,-233 177,-233 177,4 -4,4"/>
<!-- Node1 -->
<g id="node1" class="node"><title>Node1</title>
<polygon fill="#bfbfbf" stroke="black" points="32,-0.5 32,-134.5 141,-134.5 141,-0.5 32,-0.5"/>
<text text-anchor="middle" x="86.5" y="-122.5" font-family="Helvetica,sans-Serif" font-size="10.00">DelayedSwitch</text>
<polyline fill="none" stroke="black" points="32,-115.5 141,-115.5 "/>
<text text-anchor="middle" x="86.5" y="-103.5" font-family="Helvetica,sans-Serif" font-size="10.00"> </text>
<polyline fill="none" stroke="black" points="32,-96.5 141,-96.5 "/>
<text text-anchor="start" x="40" y="-84.5" font-family="Helvetica,sans-Serif" font-size="10.00">+ DelayedSwitch()</text>
<text text-anchor="start" x="40" y="-73.5" font-family="Helvetica,sans-Serif" font-size="10.00">+ get()</text>
<text text-anchor="start" x="40" y="-62.5" font-family="Helvetica,sans-Serif" font-size="10.00">+ operator bool()</text>
<text text-anchor="start" x="40" y="-51.5" font-family="Helvetica,sans-Serif" font-size="10.00">+ set()</text>
<text text-anchor="start" x="40" y="-40.5" font-family="Helvetica,sans-Serif" font-size="10.00">+ operator=()</text>
<text text-anchor="start" x="40" y="-29.5" font-family="Helvetica,sans-Serif" font-size="10.00">+ setEnableTime()</text>
<text text-anchor="start" x="40" y="-18.5" font-family="Helvetica,sans-Serif" font-size="10.00">+ setDisableTime()</text>
<text text-anchor="start" x="40" y="-7.5" font-family="Helvetica,sans-Serif" font-size="10.00">+ reset()</text>
</g>
<!-- Node2 -->
<g id="node2" class="node"><title>Node2</title>
<g id="a_node2"><a xlink:href="class_non_copyable.html" target="_top" xlink:title="{NonCopyable\&lt; DelayedSwitch \&gt;\n||+ NonCopyable()\l}">
<polygon fill="white" stroke="black" points="0,-171.5 0,-228.5 173,-228.5 173,-171.5 0,-171.5"/>
<text text-anchor="middle" x="86.5" y="-216.5" font-family="Helvetica,sans-Serif" font-size="10.00">NonCopyable&lt; DelayedSwitch &gt;</text>
<polyline fill="none" stroke="black" points="0,-209.5 173,-209.5 "/>
<text text-anchor="middle" x="86.5" y="-197.5" font-family="Helvetica,sans-Serif" font-size="10.00"> </text>
<polyline fill="none" stroke="black" points="0,-190.5 173,-190.5 "/>
<text text-anchor="start" x="8" y="-178.5" font-family="Helvetica,sans-Serif" font-size="10.00">+ NonCopyable()</text>
</a>
</g>
</g>
<!-- Node2&#45;&gt;Node1 -->
<g id="edge1" class="edge"><title>Node2&#45;&gt;Node1</title>
<path fill="none" stroke="#8b1a1a" d="M86.5,-161.16C86.5,-152.782 86.5,-143.668 86.5,-134.533"/>
<polygon fill="none" stroke="#8b1a1a" points="83.0001,-161.324 86.5,-171.324 90.0001,-161.324 83.0001,-161.324"/>
</g>
</g>
</svg>
