<?xml version="1.0" encoding="UTF-8" standalone="no"?>
<!DOCTYPE svg PUBLIC "-//W3C//DTD SVG 1.1//EN"
 "http://www.w3.org/Graphics/SVG/1.1/DTD/svg11.dtd">
<!-- Generated by graphviz version 2.38.0 (20140413.2041)
 -->
<!-- Title: PLogger Pages: 1 -->
<!--zoomable 1167 -->
<svg id="main" version="1.1" xmlns="http://www.w3.org/2000/svg" xmlns:xlink="http://www.w3.org/1999/xlink" xml:space="preserve" onload="init(evt)">
<style type="text/css"><![CDATA[
.edge:hover path { stroke: red; }
.edge:hover polygon { stroke: red; fill: red; }
]]></style>
<script type="text/javascript"><![CDATA[
var edges = document.getElementsByTagName('g');
if (edges && edges.length) {
  for (var i=0;i<edges.length;i++) {
    if (edges[i].id.substr(0,4)=='edge') {
      edges[i].setAttribute('class','edge');
    }
  }
}
]]></script>
        <defs>
                <circle id="rim" cx="0" cy="0" r="7"/>
                <circle id="rim2" cx="0" cy="0" r="3.5"/>
                <g id="zoomPlus">
                        <use xlink:href="#rim" fill="#404040">
                                <set attributeName="fill" to="#808080" begin="zoomplus.mouseover" end="zoomplus.mouseout"/>
                        </use>
                        <path d="M-4,0h8M0,-4v8" fill="none" stroke="white" stroke-width="1.5" pointer-events="none"/>
                </g>
                <g id="zoomMin">
                        <use xlink:href="#rim" fill="#404040">
                                <set attributeName="fill" to="#808080" begin="zoomminus.mouseover" end="zoomminus.mouseout"/>
                        </use>
                        <path d="M-4,0h8" fill="none" stroke="white" stroke-width="1.5" pointer-events="none"/>
                </g>
                <g id="dirArrow">
                        <path fill="none" stroke="white" stroke-width="1.5" d="M0,-3.0v7 M-2.5,-0.5L0,-3.0L2.5,-0.5"/>
                </g>
               <g id="resetDef">
                       <use xlink:href="#rim2" fill="#404040">
                               <set attributeName="fill" to="#808080" begin="reset.mouseover" end="reset.mouseout"/>
                       </use>
               </g>
        </defs>

<script type="text/javascript">
var viewWidth = 563;
var viewHeight = 1167;
var sectionId = 'dynsection-1';
</script>
<script xlink:href="svgpan.js"/>
<svg id="graph" class="graph">
<g id="viewport">
<title>PLogger</title>
<polygon fill="white" stroke="none" points="-4,4 -4,-1163 559,-1163 559,4 -4,4"/>
<!-- Node1 -->
<g id="node1" class="node"><title>Node1</title>
<polygon fill="#bfbfbf" stroke="black" points="125.5,-0.5 125.5,-112.5 272.5,-112.5 272.5,-0.5 125.5,-0.5"/>
<text text-anchor="middle" x="199" y="-100.5" font-family="Helvetica,sans-Serif" font-size="10.00">PLogger</text>
<polyline fill="none" stroke="black" points="125.5,-93.5 272.5,-93.5 "/>
<text text-anchor="start" x="133.5" y="-81.5" font-family="Helvetica,sans-Serif" font-size="10.00"># begun</text>
<polyline fill="none" stroke="black" points="125.5,-74.5 272.5,-74.5 "/>
<text text-anchor="start" x="133.5" y="-62.5" font-family="Helvetica,sans-Serif" font-size="10.00">+ PLogger()</text>
<text text-anchor="start" x="133.5" y="-51.5" font-family="Helvetica,sans-Serif" font-size="10.00">+ begin()</text>
<text text-anchor="start" x="133.5" y="-40.5" font-family="Helvetica,sans-Serif" font-size="10.00">+ run()</text>
<text text-anchor="start" x="133.5" y="-29.5" font-family="Helvetica,sans-Serif" font-size="10.00">+ addLogableValue()</text>
<text text-anchor="start" x="133.5" y="-18.5" font-family="Helvetica,sans-Serif" font-size="10.00">+ addLogableComponent()</text>
<text text-anchor="start" x="133.5" y="-7.5" font-family="Helvetica,sans-Serif" font-size="10.00">+ finalize()</text>
</g>
<!-- Node2 -->
<g id="node2" class="node"><title>Node2</title>
<g id="a_node2"><a xlink:href="class_i_program.html" target="_top" xlink:title="{IProgram\n||}">
<polygon fill="white" stroke="black" points="0,-357.5 0,-414.5 60,-414.5 60,-357.5 0,-357.5"/>
<text text-anchor="middle" x="30" y="-402.5" font-family="Helvetica,sans-Serif" font-size="10.00">IProgram</text>
<polyline fill="none" stroke="black" points="0,-395.5 60,-395.5 "/>
<text text-anchor="middle" x="30" y="-383.5" font-family="Helvetica,sans-Serif" font-size="10.00"> </text>
<polyline fill="none" stroke="black" points="0,-376.5 60,-376.5 "/>
<text text-anchor="middle" x="30" y="-364.5" font-family="Helvetica,sans-Serif" font-size="10.00"> </text>
</a>
</g>
</g>
<!-- Node2&#45;&gt;Node1 -->
<g id="edge1" class="edge"><title>Node2&#45;&gt;Node1</title>
<path fill="none" stroke="midnightblue" d="M21.7041,-347.054C13.5054,-299.834 6.50848,-218.318 40,-160 58.9731,-126.963 93.398,-102.82 125.376,-86.2943"/>
<polygon fill="none" stroke="midnightblue" points="18.3113,-347.956 23.568,-357.154 25.1951,-346.685 18.3113,-347.956"/>
</g>
<!-- Node3 -->
<g id="node3" class="node"><title>Node3</title>
<g id="a_node3"><a xlink:href="class_i_runable.html" target="_top" xlink:title="{IRunable\n||+ IRunable()\l+ run()\l+ setStatus()\l+ getStatus()\l}">
<polygon fill="white" stroke="black" points="68.5,-662.5 68.5,-752.5 151.5,-752.5 151.5,-662.5 68.5,-662.5"/>
<text text-anchor="middle" x="110" y="-740.5" font-family="Helvetica,sans-Serif" font-size="10.00">IRunable</text>
<polyline fill="none" stroke="black" points="68.5,-733.5 151.5,-733.5 "/>
<text text-anchor="middle" x="110" y="-721.5" font-family="Helvetica,sans-Serif" font-size="10.00"> </text>
<polyline fill="none" stroke="black" points="68.5,-714.5 151.5,-714.5 "/>
<text text-anchor="start" x="76.5" y="-702.5" font-family="Helvetica,sans-Serif" font-size="10.00">+ IRunable()</text>
<text text-anchor="start" x="76.5" y="-691.5" font-family="Helvetica,sans-Serif" font-size="10.00">+ run()</text>
<text text-anchor="start" x="76.5" y="-680.5" font-family="Helvetica,sans-Serif" font-size="10.00">+ setStatus()</text>
<text text-anchor="start" x="76.5" y="-669.5" font-family="Helvetica,sans-Serif" font-size="10.00">+ getStatus()</text>
</a>
</g>
</g>
<!-- Node3&#45;&gt;Node2 -->
<g id="edge2" class="edge"><title>Node3&#45;&gt;Node2</title>
<path fill="none" stroke="midnightblue" d="M96.5105,-652.626C79.2973,-583.881 50.1701,-467.554 36.9259,-414.661"/>
<polygon fill="none" stroke="midnightblue" points="93.1361,-653.56 98.9603,-662.41 99.9265,-651.86 93.1361,-653.56"/>
</g>
<!-- Node8 -->
<g id="node8" class="node"><title>Node8</title>
<g id="a_node8"><a xlink:href="class_i_service.html" target="_top" xlink:title="{IService\n||}">
<polygon fill="white" stroke="black" points="83,-444.5 83,-501.5 137,-501.5 137,-444.5 83,-444.5"/>
<text text-anchor="middle" x="110" y="-489.5" font-family="Helvetica,sans-Serif" font-size="10.00">IService</text>
<polyline fill="none" stroke="black" points="83,-482.5 137,-482.5 "/>
<text text-anchor="middle" x="110" y="-470.5" font-family="Helvetica,sans-Serif" font-size="10.00"> </text>
<polyline fill="none" stroke="black" points="83,-463.5 137,-463.5 "/>
<text text-anchor="middle" x="110" y="-451.5" font-family="Helvetica,sans-Serif" font-size="10.00"> </text>
</a>
</g>
</g>
<!-- Node3&#45;&gt;Node8 -->
<g id="edge8" class="edge"><title>Node3&#45;&gt;Node8</title>
<path fill="none" stroke="midnightblue" d="M110,-652.452C110,-605.321 110,-538.856 110,-501.776"/>
<polygon fill="none" stroke="midnightblue" points="106.5,-652.495 110,-662.495 113.5,-652.495 106.5,-652.495"/>
</g>
<!-- Node4 -->
<g id="node4" class="node"><title>Node4</title>
<g id="a_node4"><a xlink:href="class_i_component.html" target="_top" xlink:title="{IComponent\n||+ IComponent()\l+ IComponent()\l+ setComponentSubId()\l+ getComponentType()\l+ getComponentSubId()\l+ getComponentId()\l+ getObjectType()\l# setComponentType()\l# setObjectType()\l}">
<polygon fill="white" stroke="black" points="93,-790.5 93,-935.5 227,-935.5 227,-790.5 93,-790.5"/>
<text text-anchor="middle" x="160" y="-923.5" font-family="Helvetica,sans-Serif" font-size="10.00">IComponent</text>
<polyline fill="none" stroke="black" points="93,-916.5 227,-916.5 "/>
<text text-anchor="middle" x="160" y="-904.5" font-family="Helvetica,sans-Serif" font-size="10.00"> </text>
<polyline fill="none" stroke="black" points="93,-897.5 227,-897.5 "/>
<text text-anchor="start" x="101" y="-885.5" font-family="Helvetica,sans-Serif" font-size="10.00">+ IComponent()</text>
<text text-anchor="start" x="101" y="-874.5" font-family="Helvetica,sans-Serif" font-size="10.00">+ IComponent()</text>
<text text-anchor="start" x="101" y="-863.5" font-family="Helvetica,sans-Serif" font-size="10.00">+ setComponentSubId()</text>
<text text-anchor="start" x="101" y="-852.5" font-family="Helvetica,sans-Serif" font-size="10.00">+ getComponentType()</text>
<text text-anchor="start" x="101" y="-841.5" font-family="Helvetica,sans-Serif" font-size="10.00">+ getComponentSubId()</text>
<text text-anchor="start" x="101" y="-830.5" font-family="Helvetica,sans-Serif" font-size="10.00">+ getComponentId()</text>
<text text-anchor="start" x="101" y="-819.5" font-family="Helvetica,sans-Serif" font-size="10.00">+ getObjectType()</text>
<text text-anchor="start" x="101" y="-808.5" font-family="Helvetica,sans-Serif" font-size="10.00"># setComponentType()</text>
<text text-anchor="start" x="101" y="-797.5" font-family="Helvetica,sans-Serif" font-size="10.00"># setObjectType()</text>
</a>
</g>
</g>
<!-- Node4&#45;&gt;Node3 -->
<g id="edge3" class="edge"><title>Node4&#45;&gt;Node3</title>
<path fill="none" stroke="midnightblue" d="M133.48,-780.584C130.353,-770.985 127.258,-761.483 124.392,-752.683"/>
<polygon fill="none" stroke="midnightblue" points="130.185,-781.769 136.61,-790.194 136.841,-779.601 130.185,-781.769"/>
</g>
<!-- Node9 -->
<g id="node9" class="node"><title>Node9</title>
<g id="a_node9"><a xlink:href="class_i_s_d_card.html" target="_top" xlink:title="{ISDCard\n||+ ISDCard()\l+ begin()\l+ open()\l+ close()\l+ reset()\l+ write()\l}">
<polygon fill="white" stroke="black" points="157,-531.5 157,-643.5 231,-643.5 231,-531.5 157,-531.5"/>
<text text-anchor="middle" x="194" y="-631.5" font-family="Helvetica,sans-Serif" font-size="10.00">ISDCard</text>
<polyline fill="none" stroke="black" points="157,-624.5 231,-624.5 "/>
<text text-anchor="middle" x="194" y="-612.5" font-family="Helvetica,sans-Serif" font-size="10.00"> </text>
<polyline fill="none" stroke="black" points="157,-605.5 231,-605.5 "/>
<text text-anchor="start" x="165" y="-593.5" font-family="Helvetica,sans-Serif" font-size="10.00">+ ISDCard()</text>
<text text-anchor="start" x="165" y="-582.5" font-family="Helvetica,sans-Serif" font-size="10.00">+ begin()</text>
<text text-anchor="start" x="165" y="-571.5" font-family="Helvetica,sans-Serif" font-size="10.00">+ open()</text>
<text text-anchor="start" x="165" y="-560.5" font-family="Helvetica,sans-Serif" font-size="10.00">+ close()</text>
<text text-anchor="start" x="165" y="-549.5" font-family="Helvetica,sans-Serif" font-size="10.00">+ reset()</text>
<text text-anchor="start" x="165" y="-538.5" font-family="Helvetica,sans-Serif" font-size="10.00">+ write()</text>
</a>
</g>
</g>
<!-- Node4&#45;&gt;Node9 -->
<g id="edge10" class="edge"><title>Node4&#45;&gt;Node9</title>
<path fill="none" stroke="midnightblue" d="M170.149,-780.358C175.639,-736.2 182.273,-682.835 187.149,-643.609"/>
<polygon fill="none" stroke="midnightblue" points="166.649,-780.143 168.889,-790.498 173.596,-781.007 166.649,-780.143"/>
</g>
<!-- Node5 -->
<g id="node5" class="node"><title>Node5</title>
<g id="a_node5"><a xlink:href="class_i_logable.html" target="_top" xlink:title="{ILogable\n||+ setStatus()\l+ getStatus()\l+ getLogValueCount()\l+ getLogValue()\l}">
<polygon fill="white" stroke="black" points="98.5,-973.5 98.5,-1063.5 221.5,-1063.5 221.5,-973.5 98.5,-973.5"/>
<text text-anchor="middle" x="160" y="-1051.5" font-family="Helvetica,sans-Serif" font-size="10.00">ILogable</text>
<polyline fill="none" stroke="black" points="98.5,-1044.5 221.5,-1044.5 "/>
<text text-anchor="middle" x="160" y="-1032.5" font-family="Helvetica,sans-Serif" font-size="10.00"> </text>
<polyline fill="none" stroke="black" points="98.5,-1025.5 221.5,-1025.5 "/>
<text text-anchor="start" x="106.5" y="-1013.5" font-family="Helvetica,sans-Serif" font-size="10.00">+ setStatus()</text>
<text text-anchor="start" x="106.5" y="-1002.5" font-family="Helvetica,sans-Serif" font-size="10.00">+ getStatus()</text>
<text text-anchor="start" x="106.5" y="-991.5" font-family="Helvetica,sans-Serif" font-size="10.00">+ getLogValueCount()</text>
<text text-anchor="start" x="106.5" y="-980.5" font-family="Helvetica,sans-Serif" font-size="10.00">+ getLogValue()</text>
</a>
</g>
</g>
<!-- Node5&#45;&gt;Node4 -->
<g id="edge4" class="edge"><title>Node5&#45;&gt;Node4</title>
<path fill="none" stroke="midnightblue" d="M160,-962.98C160,-954.165 160,-944.921 160,-935.771"/>
<polygon fill="none" stroke="midnightblue" points="156.5,-963.101 160,-973.101 163.5,-963.101 156.5,-963.101"/>
</g>
<!-- Node6 -->
<g id="node6" class="node"><title>Node6</title>
<g id="a_node6"><a xlink:href="class_non_copyable.html" target="_top" xlink:title="{NonCopyable\&lt; ILogable \&gt;\n||+ NonCopyable()\l}">
<polygon fill="white" stroke="black" points="88.5,-1101.5 88.5,-1158.5 231.5,-1158.5 231.5,-1101.5 88.5,-1101.5"/>
<text text-anchor="middle" x="160" y="-1146.5" font-family="Helvetica,sans-Serif" font-size="10.00">NonCopyable&lt; ILogable &gt;</text>
<polyline fill="none" stroke="black" points="88.5,-1139.5 231.5,-1139.5 "/>
<text text-anchor="middle" x="160" y="-1127.5" font-family="Helvetica,sans-Serif" font-size="10.00"> </text>
<polyline fill="none" stroke="black" points="88.5,-1120.5 231.5,-1120.5 "/>
<text text-anchor="start" x="96.5" y="-1108.5" font-family="Helvetica,sans-Serif" font-size="10.00">+ NonCopyable()</text>
</a>
</g>
</g>
<!-- Node6&#45;&gt;Node5 -->
<g id="edge5" class="edge"><title>Node6&#45;&gt;Node5</title>
<path fill="none" stroke="#8b1a1a" d="M160,-1091.31C160,-1082.43 160,-1072.88 160,-1063.74"/>
<polygon fill="none" stroke="#8b1a1a" points="156.5,-1091.37 160,-1101.37 163.5,-1091.37 156.5,-1091.37"/>
</g>
<!-- Node7 -->
<g id="node7" class="node"><title>Node7</title>
<g id="a_node7"><a xlink:href="class_s_car.html" target="_top" xlink:title="{SCar\n||+ SCar()\l+ run()\l+ addError()\l+ processErrors()\l+ getState()\l+ setState()\l+ calibrationNeeded()\l+ startUp()\l+ getMaxPower()\l+ setMaxPower()\l}">
<polygon fill="white" stroke="black" points="49,-171.5 49,-327.5 171,-327.5 171,-171.5 49,-171.5"/>
<text text-anchor="middle" x="110" y="-315.5" font-family="Helvetica,sans-Serif" font-size="10.00">SCar</text>
<polyline fill="none" stroke="black" points="49,-308.5 171,-308.5 "/>
<text text-anchor="middle" x="110" y="-296.5" font-family="Helvetica,sans-Serif" font-size="10.00"> </text>
<polyline fill="none" stroke="black" points="49,-289.5 171,-289.5 "/>
<text text-anchor="start" x="57" y="-277.5" font-family="Helvetica,sans-Serif" font-size="10.00">+ SCar()</text>
<text text-anchor="start" x="57" y="-266.5" font-family="Helvetica,sans-Serif" font-size="10.00">+ run()</text>
<text text-anchor="start" x="57" y="-255.5" font-family="Helvetica,sans-Serif" font-size="10.00">+ addError()</text>
<text text-anchor="start" x="57" y="-244.5" font-family="Helvetica,sans-Serif" font-size="10.00">+ processErrors()</text>
<text text-anchor="start" x="57" y="-233.5" font-family="Helvetica,sans-Serif" font-size="10.00">+ getState()</text>
<text text-anchor="start" x="57" y="-222.5" font-family="Helvetica,sans-Serif" font-size="10.00">+ setState()</text>
<text text-anchor="start" x="57" y="-211.5" font-family="Helvetica,sans-Serif" font-size="10.00">+ calibrationNeeded()</text>
<text text-anchor="start" x="57" y="-200.5" font-family="Helvetica,sans-Serif" font-size="10.00">+ startUp()</text>
<text text-anchor="start" x="57" y="-189.5" font-family="Helvetica,sans-Serif" font-size="10.00">+ getMaxPower()</text>
<text text-anchor="start" x="57" y="-178.5" font-family="Helvetica,sans-Serif" font-size="10.00">+ setMaxPower()</text>
</a>
</g>
</g>
<!-- Node7&#45;&gt;Node1 -->
<g id="edge6" class="edge"><title>Node7&#45;&gt;Node1</title>
<path fill="none" stroke="#404040" d="M106.841,-171.403C108.586,-157.462 111.985,-143.422 118,-131 119.34,-128.233 120.834,-125.523 122.457,-122.872"/>
<polygon fill="none" stroke="#404040" points="122.488,-122.827 122.608,-115.617 129.31,-112.954 129.19,-120.165 122.488,-122.827"/>
<text text-anchor="middle" x="151.5" y="-134" font-family="Helvetica,sans-Serif" font-size="10.00"> #_carService</text>
</g>
<!-- Node8&#45;&gt;Node7 -->
<g id="edge7" class="edge"><title>Node8&#45;&gt;Node7</title>
<path fill="none" stroke="midnightblue" d="M110,-434.228C110,-405.048 110,-363.687 110,-327.595"/>
<polygon fill="none" stroke="midnightblue" points="106.5,-434.395 110,-444.395 113.5,-434.395 106.5,-434.395"/>
</g>
<!-- Node9&#45;&gt;Node1 -->
<g id="edge9" class="edge"><title>Node9&#45;&gt;Node1</title>
<path fill="none" stroke="#404040" d="M194.521,-531.385C195.444,-433.765 197.362,-230.814 198.362,-124.989"/>
<polygon fill="none" stroke="#404040" points="198.363,-124.888 194.42,-118.85 198.476,-112.888 202.42,-118.926 198.363,-124.888"/>
<text text-anchor="middle" x="222.5" y="-383.5" font-family="Helvetica,sans-Serif" font-size="10.00"> #_sdCard</text>
</g>
<!-- Node10 -->
<g id="node10" class="node"><title>Node10</title>
<g id="a_node10"><a xlink:href="classstd_1_1vector.html" target="_top" xlink:title="{std::vector\&lt; PLogger\l::LoggingValue \&gt;\n||+ ~vector()\l+ at()\l+ operator[]()\l+ front()\l+ back()\l+ data()\l+ begin()\l+ end()\l+ empty()\l+ size()\land 7 more...\l}">
<polygon fill="white" stroke="black" points="233,-160.5 233,-338.5 351,-338.5 351,-160.5 233,-160.5"/>
<text text-anchor="start" x="241" y="-326.5" font-family="Helvetica,sans-Serif" font-size="10.00">std::vector&lt; PLogger</text>
<text text-anchor="middle" x="292" y="-315.5" font-family="Helvetica,sans-Serif" font-size="10.00">::LoggingValue &gt;</text>
<polyline fill="none" stroke="black" points="233,-308.5 351,-308.5 "/>
<text text-anchor="middle" x="292" y="-296.5" font-family="Helvetica,sans-Serif" font-size="10.00"> </text>
<polyline fill="none" stroke="black" points="233,-289.5 351,-289.5 "/>
<text text-anchor="start" x="241" y="-277.5" font-family="Helvetica,sans-Serif" font-size="10.00">+ ~vector()</text>
<text text-anchor="start" x="241" y="-266.5" font-family="Helvetica,sans-Serif" font-size="10.00">+ at()</text>
<text text-anchor="start" x="241" y="-255.5" font-family="Helvetica,sans-Serif" font-size="10.00">+ operator[]()</text>
<text text-anchor="start" x="241" y="-244.5" font-family="Helvetica,sans-Serif" font-size="10.00">+ front()</text>
<text text-anchor="start" x="241" y="-233.5" font-family="Helvetica,sans-Serif" font-size="10.00">+ back()</text>
<text text-anchor="start" x="241" y="-222.5" font-family="Helvetica,sans-Serif" font-size="10.00">+ data()</text>
<text text-anchor="start" x="241" y="-211.5" font-family="Helvetica,sans-Serif" font-size="10.00">+ begin()</text>
<text text-anchor="start" x="241" y="-200.5" font-family="Helvetica,sans-Serif" font-size="10.00">+ end()</text>
<text text-anchor="start" x="241" y="-189.5" font-family="Helvetica,sans-Serif" font-size="10.00">+ empty()</text>
<text text-anchor="start" x="241" y="-178.5" font-family="Helvetica,sans-Serif" font-size="10.00">+ size()</text>
<text text-anchor="start" x="241" y="-167.5" font-family="Helvetica,sans-Serif" font-size="10.00">and 7 more...</text>
</a>
</g>
</g>
<!-- Node10&#45;&gt;Node1 -->
<g id="edge11" class="edge"><title>Node10&#45;&gt;Node1</title>
<path fill="none" stroke="#404040" d="M249.039,-160.268C243.052,-147.972 236.986,-135.515 231.242,-123.717"/>
<polygon fill="none" stroke="#404040" points="231.099,-123.424 224.876,-119.781 225.846,-112.635 232.069,-116.278 231.099,-123.424"/>
<text text-anchor="middle" x="281.5" y="-134" font-family="Helvetica,sans-Serif" font-size="10.00"> #_loggingValues</text>
</g>
<!-- Node11 -->
<g id="node11" class="node"><title>Node11</title>
<g id="a_node11"><a xlink:href="class_non_copyable.html" target="_top" xlink:title="{NonCopyable\&lt; vector\l\&lt; PLogger::LoggingValue,\l unsigned int \&gt; \&gt;\n||+ NonCopyable()\l}">
<polygon fill="white" stroke="black" points="227,-433.5 227,-512.5 367,-512.5 367,-433.5 227,-433.5"/>
<text text-anchor="start" x="235" y="-500.5" font-family="Helvetica,sans-Serif" font-size="10.00">NonCopyable&lt; vector</text>
<text text-anchor="start" x="235" y="-489.5" font-family="Helvetica,sans-Serif" font-size="10.00">&lt; PLogger::LoggingValue,</text>
<text text-anchor="middle" x="297" y="-478.5" font-family="Helvetica,sans-Serif" font-size="10.00"> unsigned int &gt; &gt;</text>
<polyline fill="none" stroke="black" points="227,-471.5 367,-471.5 "/>
<text text-anchor="middle" x="297" y="-459.5" font-family="Helvetica,sans-Serif" font-size="10.00"> </text>
<polyline fill="none" stroke="black" points="227,-452.5 367,-452.5 "/>
<text text-anchor="start" x="235" y="-440.5" font-family="Helvetica,sans-Serif" font-size="10.00">+ NonCopyable()</text>
</a>
</g>
</g>
<!-- Node11&#45;&gt;Node10 -->
<g id="edge12" class="edge"><title>Node11&#45;&gt;Node10</title>
<path fill="none" stroke="#8b1a1a" d="M295.898,-423.188C295.338,-398.392 294.641,-367.49 293.991,-338.709"/>
<polygon fill="none" stroke="#8b1a1a" points="292.404,-423.499 296.129,-433.418 299.402,-423.341 292.404,-423.499"/>
</g>
<!-- Node12 -->
<g id="node12" class="node"><title>Node12</title>
<g id="a_node12"><a xlink:href="classstd_1_1vector.html" target="_top" xlink:title="{std::vector\&lt; PLogger\l::LoggingComponent \&gt;\n||+ ~vector()\l+ at()\l+ operator[]()\l+ front()\l+ back()\l+ data()\l+ begin()\l+ end()\l+ empty()\l+ size()\land 7 more...\l}">
<polygon fill="white" stroke="black" points="388,-160.5 388,-338.5 516,-338.5 516,-160.5 388,-160.5"/>
<text text-anchor="start" x="396" y="-326.5" font-family="Helvetica,sans-Serif" font-size="10.00">std::vector&lt; PLogger</text>
<text text-anchor="middle" x="452" y="-315.5" font-family="Helvetica,sans-Serif" font-size="10.00">::LoggingComponent &gt;</text>
<polyline fill="none" stroke="black" points="388,-308.5 516,-308.5 "/>
<text text-anchor="middle" x="452" y="-296.5" font-family="Helvetica,sans-Serif" font-size="10.00"> </text>
<polyline fill="none" stroke="black" points="388,-289.5 516,-289.5 "/>
<text text-anchor="start" x="396" y="-277.5" font-family="Helvetica,sans-Serif" font-size="10.00">+ ~vector()</text>
<text text-anchor="start" x="396" y="-266.5" font-family="Helvetica,sans-Serif" font-size="10.00">+ at()</text>
<text text-anchor="start" x="396" y="-255.5" font-family="Helvetica,sans-Serif" font-size="10.00">+ operator[]()</text>
<text text-anchor="start" x="396" y="-244.5" font-family="Helvetica,sans-Serif" font-size="10.00">+ front()</text>
<text text-anchor="start" x="396" y="-233.5" font-family="Helvetica,sans-Serif" font-size="10.00">+ back()</text>
<text text-anchor="start" x="396" y="-222.5" font-family="Helvetica,sans-Serif" font-size="10.00">+ data()</text>
<text text-anchor="start" x="396" y="-211.5" font-family="Helvetica,sans-Serif" font-size="10.00">+ begin()</text>
<text text-anchor="start" x="396" y="-200.5" font-family="Helvetica,sans-Serif" font-size="10.00">+ end()</text>
<text text-anchor="start" x="396" y="-189.5" font-family="Helvetica,sans-Serif" font-size="10.00">+ empty()</text>
<text text-anchor="start" x="396" y="-178.5" font-family="Helvetica,sans-Serif" font-size="10.00">+ size()</text>
<text text-anchor="start" x="396" y="-167.5" font-family="Helvetica,sans-Serif" font-size="10.00">and 7 more...</text>
</a>
</g>
</g>
<!-- Node12&#45;&gt;Node1 -->
<g id="edge13" class="edge"><title>Node12&#45;&gt;Node1</title>
<path fill="none" stroke="#404040" d="M387.759,-185.996C378.507,-177.201 369.054,-168.326 360,-160 345.627,-146.784 342.879,-142.362 327,-131 313.333,-121.22 298.268,-111.628 283.418,-102.768"/>
<polygon fill="none" stroke="#404040" points="283.014,-102.531 275.815,-102.942 272.667,-96.4541 279.866,-96.0431 283.014,-102.531"/>
<text text-anchor="middle" x="397.5" y="-134" font-family="Helvetica,sans-Serif" font-size="10.00"> #_loggingComponents</text>
</g>
<!-- Node13 -->
<g id="node13" class="node"><title>Node13</title>
<g id="a_node13"><a xlink:href="class_non_copyable.html" target="_top" xlink:title="{NonCopyable\&lt; vector\l\&lt; PLogger::LoggingComponent,\l unsigned int \&gt; \&gt;\n||+ NonCopyable()\l}">
<polygon fill="white" stroke="black" points="385,-433.5 385,-512.5 555,-512.5 555,-433.5 385,-433.5"/>
<text text-anchor="start" x="393" y="-500.5" font-family="Helvetica,sans-Serif" font-size="10.00">NonCopyable&lt; vector</text>
<text text-anchor="start" x="393" y="-489.5" font-family="Helvetica,sans-Serif" font-size="10.00">&lt; PLogger::LoggingComponent,</text>
<text text-anchor="middle" x="470" y="-478.5" font-family="Helvetica,sans-Serif" font-size="10.00"> unsigned int &gt; &gt;</text>
<polyline fill="none" stroke="black" points="385,-471.5 555,-471.5 "/>
<text text-anchor="middle" x="470" y="-459.5" font-family="Helvetica,sans-Serif" font-size="10.00"> </text>
<polyline fill="none" stroke="black" points="385,-452.5 555,-452.5 "/>
<text text-anchor="start" x="393" y="-440.5" font-family="Helvetica,sans-Serif" font-size="10.00">+ NonCopyable()</text>
</a>
</g>
</g>
<!-- Node13&#45;&gt;Node12 -->
<g id="edge14" class="edge"><title>Node13&#45;&gt;Node12</title>
<path fill="none" stroke="#8b1a1a" d="M466.033,-423.188C464.018,-398.392 461.507,-367.49 459.168,-338.709"/>
<polygon fill="none" stroke="#8b1a1a" points="462.566,-423.734 466.865,-433.418 469.543,-423.167 462.566,-423.734"/>
</g>
</g>
</svg>
        <g id="navigator" transform="translate(0 0)" fill="#404254">
                <rect fill="#f2f5e9" fill-opacity="0.5" stroke="#606060" stroke-width=".5" x="0" y="0" width="60" height="60"/>
                <use id="zoomplus" xlink:href="#zoomPlus" x="17" y="9" onmousedown="handleZoom(evt,'in')"/>
                <use id="zoomminus" xlink:href="#zoomMin" x="42" y="9" onmousedown="handleZoom(evt,'out')"/>
                <use id="reset" xlink:href="#resetDef" x="30" y="36" onmousedown="handleReset()"/>
                <g id="arrowUp" xlink:href="#dirArrow" transform="translate(30 24)" onmousedown="handlePan(0,-1)">
                  <use xlink:href="#rim" fill="#404040">
                        <set attributeName="fill" to="#808080" begin="arrowUp.mouseover" end="arrowUp.mouseout"/>
                  </use>
                  <path fill="none" stroke="white" stroke-width="1.5" d="M0,-3.0v7 M-2.5,-0.5L0,-3.0L2.5,-0.5"/>
                </g>
                <g id="arrowRight" xlink:href="#dirArrow" transform="rotate(90) translate(36 -43)" onmousedown="handlePan(1,0)">
                  <use xlink:href="#rim" fill="#404040">
                        <set attributeName="fill" to="#808080" begin="arrowRight.mouseover" end="arrowRight.mouseout"/>
                  </use>
                  <path fill="none" stroke="white" stroke-width="1.5" d="M0,-3.0v7 M-2.5,-0.5L0,-3.0L2.5,-0.5"/>
                </g>
                <g id="arrowDown" xlink:href="#dirArrow" transform="rotate(180) translate(-30 -48)" onmousedown="handlePan(0,1)">
                  <use xlink:href="#rim" fill="#404040">
                        <set attributeName="fill" to="#808080" begin="arrowDown.mouseover" end="arrowDown.mouseout"/>
                  </use>
                  <path fill="none" stroke="white" stroke-width="1.5" d="M0,-3.0v7 M-2.5,-0.5L0,-3.0L2.5,-0.5"/>
                </g>
                <g id="arrowLeft" xlink:href="#dirArrow" transform="rotate(270) translate(-36 17)" onmousedown="handlePan(-1,0)">
                  <use xlink:href="#rim" fill="#404040">
                        <set attributeName="fill" to="#808080" begin="arrowLeft.mouseover" end="arrowLeft.mouseout"/>
                  </use>
                  <path fill="none" stroke="white" stroke-width="1.5" d="M0,-3.0v7 M-2.5,-0.5L0,-3.0L2.5,-0.5"/>
                </g>
        </g>
        <svg viewBox="0 0 15 15" width="100%" height="30px" preserveAspectRatio="xMaxYMin meet">
         <g id="arrow_out" transform="scale(0.3 0.3)">
          <a xlink:href="class_p_logger__coll__graph_org.svg" target="_base">
           <rect id="button" ry="5" rx="5" y="6" x="6" height="38" width="38"
                fill="#f2f5e9" fill-opacity="0.5" stroke="#606060" stroke-width="1.0"/>
           <path id="arrow"
             d="M 11.500037,31.436501 C 11.940474,20.09759 22.043105,11.32322 32.158766,21.979434 L 37.068811,17.246167 C 37.068811,17.246167 37.088388,32 37.088388,32 L 22.160133,31.978069 C 22.160133,31.978069 26.997745,27.140456 26.997745,27.140456 C 18.528582,18.264221 13.291696,25.230495 11.500037,31.436501 z"
             style="fill:#404040;"/>
          </a>
         </g>
        </svg>
</svg>
