<?xml version="1.0" encoding="UTF-8" standalone="no"?>
<!DOCTYPE svg PUBLIC "-//W3C//DTD SVG 1.1//EN"
 "http://www.w3.org/Graphics/SVG/1.1/DTD/svg11.dtd">
<!-- Generated by graphviz version 2.38.0 (20140413.2041)
 -->
<!-- Title: CANMessage Pages: 1 -->
<svg width="107pt" height="226pt"
 viewBox="0.00 0.00 107.00 226.00" xmlns="http://www.w3.org/2000/svg" xmlns:xlink="http://www.w3.org/1999/xlink">
<g id="graph0" class="graph" transform="scale(1 1) rotate(0) translate(4 222)">
<title>CANMessage</title>
<polygon fill="white" stroke="none" points="-4,4 -4,-222 103,-222 103,4 -4,4"/>
<!-- Node1 -->
<g id="node1" class="node"><title>Node1</title>
<polygon fill="#bfbfbf" stroke="black" points="0,-0.5 0,-79.5 99,-79.5 99,-0.5 0,-0.5"/>
<text text-anchor="middle" x="49.5" y="-67.5" font-family="Helvetica,sans-Serif" font-size="10.00">CANMessage</text>
<polyline fill="none" stroke="black" points="0,-60.5 99,-60.5 "/>
<text text-anchor="middle" x="49.5" y="-48.5" font-family="Helvetica,sans-Serif" font-size="10.00"> </text>
<polyline fill="none" stroke="black" points="0,-41.5 99,-41.5 "/>
<text text-anchor="start" x="8" y="-29.5" font-family="Helvetica,sans-Serif" font-size="10.00">+ CANMessage()</text>
<text text-anchor="start" x="8" y="-18.5" font-family="Helvetica,sans-Serif" font-size="10.00">+ CANMessage()</text>
<text text-anchor="start" x="8" y="-7.5" font-family="Helvetica,sans-Serif" font-size="10.00">+ CANMessage()</text>
</g>
<!-- Node2 -->
<g id="node2" class="node"><title>Node2</title>
<g id="a_node2"><a xlink:href="struct_c_a_n___message.html" target="_top" xlink:title="{CAN_Message\n|+ id\l+ data\l+ len\l+ format\l+ type\l|}">
<polygon fill="white" stroke="black" points="6.5,-116.5 6.5,-217.5 92.5,-217.5 92.5,-116.5 6.5,-116.5"/>
<text text-anchor="middle" x="49.5" y="-205.5" font-family="Helvetica,sans-Serif" font-size="10.00">CAN_Message</text>
<polyline fill="none" stroke="black" points="6.5,-198.5 92.5,-198.5 "/>
<text text-anchor="start" x="14.5" y="-186.5" font-family="Helvetica,sans-Serif" font-size="10.00">+ id</text>
<text text-anchor="start" x="14.5" y="-175.5" font-family="Helvetica,sans-Serif" font-size="10.00">+ data</text>
<text text-anchor="start" x="14.5" y="-164.5" font-family="Helvetica,sans-Serif" font-size="10.00">+ len</text>
<text text-anchor="start" x="14.5" y="-153.5" font-family="Helvetica,sans-Serif" font-size="10.00">+ format</text>
<text text-anchor="start" x="14.5" y="-142.5" font-family="Helvetica,sans-Serif" font-size="10.00">+ type</text>
<polyline fill="none" stroke="black" points="6.5,-135.5 92.5,-135.5 "/>
<text text-anchor="middle" x="49.5" y="-123.5" font-family="Helvetica,sans-Serif" font-size="10.00"> </text>
</a>
</g>
</g>
<!-- Node2&#45;&gt;Node1 -->
<g id="edge1" class="edge"><title>Node2&#45;&gt;Node1</title>
<path fill="none" stroke="midnightblue" d="M49.5,-106.186C49.5,-97.2207 49.5,-88.1815 49.5,-79.8082"/>
<polygon fill="none" stroke="midnightblue" points="46.0001,-106.237 49.5,-116.238 53.0001,-106.238 46.0001,-106.237"/>
</g>
</g>
</svg>
