<?xml version="1.0" encoding="UTF-8" standalone="no"?>
<!DOCTYPE svg PUBLIC "-//W3C//DTD SVG 1.1//EN"
 "http://www.w3.org/Graphics/SVG/1.1/DTD/svg11.dtd">
<!-- Generated by graphviz version 2.38.0 (20140413.2041)
 -->
<!-- Title: HardwareLedPwm Pages: 1 -->
<!--zoomable 1545 -->
<svg id="main" version="1.1" xmlns="http://www.w3.org/2000/svg" xmlns:xlink="http://www.w3.org/1999/xlink" xml:space="preserve" onload="init(evt)">
<style type="text/css"><![CDATA[
.edge:hover path { stroke: red; }
.edge:hover polygon { stroke: red; fill: red; }
]]></style>
<script type="text/javascript"><![CDATA[
var edges = document.getElementsByTagName('g');
if (edges && edges.length) {
  for (var i=0;i<edges.length;i++) {
    if (edges[i].id.substr(0,4)=='edge') {
      edges[i].setAttribute('class','edge');
    }
  }
}
]]></script>
        <defs>
                <circle id="rim" cx="0" cy="0" r="7"/>
                <circle id="rim2" cx="0" cy="0" r="3.5"/>
                <g id="zoomPlus">
                        <use xlink:href="#rim" fill="#404040">
                                <set attributeName="fill" to="#808080" begin="zoomplus.mouseover" end="zoomplus.mouseout"/>
                        </use>
                        <path d="M-4,0h8M0,-4v8" fill="none" stroke="white" stroke-width="1.5" pointer-events="none"/>
                </g>
                <g id="zoomMin">
                        <use xlink:href="#rim" fill="#404040">
                                <set attributeName="fill" to="#808080" begin="zoomminus.mouseover" end="zoomminus.mouseout"/>
                        </use>
                        <path d="M-4,0h8" fill="none" stroke="white" stroke-width="1.5" pointer-events="none"/>
                </g>
                <g id="dirArrow">
                        <path fill="none" stroke="white" stroke-width="1.5" d="M0,-3.0v7 M-2.5,-0.5L0,-3.0L2.5,-0.5"/>
                </g>
               <g id="resetDef">
                       <use xlink:href="#rim2" fill="#404040">
                               <set attributeName="fill" to="#808080" begin="reset.mouseover" end="reset.mouseout"/>
                       </use>
               </g>
        </defs>

<script type="text/javascript">
var viewWidth = 625;
var viewHeight = 1545;
var sectionId = 'dynsection-1';
</script>
<script xlink:href="svgpan.js"/>
<svg id="graph" class="graph">
<g id="viewport">
<title>HardwareLedPwm</title>
<polygon fill="white" stroke="none" points="-4,4 -4,-1541 621,-1541 621,4 -4,4"/>
<!-- Node1 -->
<g id="node1" class="node"><title>Node1</title>
<polygon fill="#bfbfbf" stroke="black" points="285.5,-0.5 285.5,-244.5 421.5,-244.5 421.5,-0.5 285.5,-0.5"/>
<text text-anchor="middle" x="353.5" y="-232.5" font-family="Helvetica,sans-Serif" font-size="10.00">HardwareLedPwm</text>
<polyline fill="none" stroke="black" points="285.5,-225.5 421.5,-225.5 "/>
<text text-anchor="start" x="293.5" y="-213.5" font-family="Helvetica,sans-Serif" font-size="10.00"># _state</text>
<text text-anchor="start" x="293.5" y="-202.5" font-family="Helvetica,sans-Serif" font-size="10.00"># _stateLast</text>
<text text-anchor="start" x="293.5" y="-191.5" font-family="Helvetica,sans-Serif" font-size="10.00"># _brightness</text>
<text text-anchor="start" x="293.5" y="-180.5" font-family="Helvetica,sans-Serif" font-size="10.00"># _mode</text>
<text text-anchor="start" x="293.5" y="-169.5" font-family="Helvetica,sans-Serif" font-size="10.00"># _modeLast</text>
<text text-anchor="start" x="293.5" y="-158.5" font-family="Helvetica,sans-Serif" font-size="10.00"># _lastBlinkingState</text>
<polyline fill="none" stroke="black" points="285.5,-151.5 421.5,-151.5 "/>
<text text-anchor="start" x="293.5" y="-139.5" font-family="Helvetica,sans-Serif" font-size="10.00">+ HardwareLedPwm()</text>
<text text-anchor="start" x="293.5" y="-128.5" font-family="Helvetica,sans-Serif" font-size="10.00">+ setState()</text>
<text text-anchor="start" x="293.5" y="-117.5" font-family="Helvetica,sans-Serif" font-size="10.00">+ setBrightness()</text>
<text text-anchor="start" x="293.5" y="-106.5" font-family="Helvetica,sans-Serif" font-size="10.00">+ setBlinking()</text>
<text text-anchor="start" x="293.5" y="-95.5" font-family="Helvetica,sans-Serif" font-size="10.00">+ getState()</text>
<text text-anchor="start" x="293.5" y="-84.5" font-family="Helvetica,sans-Serif" font-size="10.00">+ getBrightness()</text>
<text text-anchor="start" x="293.5" y="-73.5" font-family="Helvetica,sans-Serif" font-size="10.00">+ getBlinking()</text>
<text text-anchor="start" x="293.5" y="-62.5" font-family="Helvetica,sans-Serif" font-size="10.00">+ receive()</text>
<text text-anchor="start" x="293.5" y="-51.5" font-family="Helvetica,sans-Serif" font-size="10.00">+ setStatus()</text>
<text text-anchor="start" x="293.5" y="-40.5" font-family="Helvetica,sans-Serif" font-size="10.00">+ getStatus()</text>
<text text-anchor="start" x="293.5" y="-29.5" font-family="Helvetica,sans-Serif" font-size="10.00"># _refresh()</text>
<text text-anchor="start" x="293.5" y="-18.5" font-family="Helvetica,sans-Serif" font-size="10.00"># _attachBlinkingTicker()</text>
<text text-anchor="start" x="293.5" y="-7.5" font-family="Helvetica,sans-Serif" font-size="10.00"># _blinkingLoop()</text>
</g>
<!-- Node2 -->
<g id="node2" class="node"><title>Node2</title>
<g id="a_node2"><a xlink:href="class_i_led.html" target="_top" xlink:title="{ILed\n||+ ILed()\l+ setState()\l+ setBrightness()\l+ setBlinking()\l+ getState()\l+ getBrightness()\l+ getBlinking()\l}">
<polygon fill="white" stroke="black" points="144.5,-314.5 144.5,-437.5 246.5,-437.5 246.5,-314.5 144.5,-314.5"/>
<text text-anchor="middle" x="195.5" y="-425.5" font-family="Helvetica,sans-Serif" font-size="10.00">ILed</text>
<polyline fill="none" stroke="black" points="144.5,-418.5 246.5,-418.5 "/>
<text text-anchor="middle" x="195.5" y="-406.5" font-family="Helvetica,sans-Serif" font-size="10.00"> </text>
<polyline fill="none" stroke="black" points="144.5,-399.5 246.5,-399.5 "/>
<text text-anchor="start" x="152.5" y="-387.5" font-family="Helvetica,sans-Serif" font-size="10.00">+ ILed()</text>
<text text-anchor="start" x="152.5" y="-376.5" font-family="Helvetica,sans-Serif" font-size="10.00">+ setState()</text>
<text text-anchor="start" x="152.5" y="-365.5" font-family="Helvetica,sans-Serif" font-size="10.00">+ setBrightness()</text>
<text text-anchor="start" x="152.5" y="-354.5" font-family="Helvetica,sans-Serif" font-size="10.00">+ setBlinking()</text>
<text text-anchor="start" x="152.5" y="-343.5" font-family="Helvetica,sans-Serif" font-size="10.00">+ getState()</text>
<text text-anchor="start" x="152.5" y="-332.5" font-family="Helvetica,sans-Serif" font-size="10.00">+ getBrightness()</text>
<text text-anchor="start" x="152.5" y="-321.5" font-family="Helvetica,sans-Serif" font-size="10.00">+ getBlinking()</text>
</a>
</g>
</g>
<!-- Node2&#45;&gt;Node1 -->
<g id="edge1" class="edge"><title>Node2&#45;&gt;Node1</title>
<path fill="none" stroke="midnightblue" d="M238.928,-305.872C253.237,-283.095 269.514,-257.186 285.216,-232.193"/>
<polygon fill="none" stroke="midnightblue" points="235.902,-304.11 233.546,-314.439 241.829,-307.834 235.902,-304.11"/>
</g>
<!-- Node3 -->
<g id="node3" class="node"><title>Node3</title>
<g id="a_node3"><a xlink:href="class_self_syncable.html" target="_top" xlink:title="{SelfSyncable\n|# _syncerAttached\l|+ attach()\l+ detach()\l# _sendCommand()\l# _sendCommand()\l# _sendCommand()\l# _send()\l# _convertFloat()\l# _reconvertFloat()\l# _disassambleFloat()\l# _reassambleFloat()\l}">
<polygon fill="white" stroke="black" points="167.5,-497.5 167.5,-653.5 291.5,-653.5 291.5,-497.5 167.5,-497.5"/>
<text text-anchor="middle" x="229.5" y="-641.5" font-family="Helvetica,sans-Serif" font-size="10.00">SelfSyncable</text>
<polyline fill="none" stroke="black" points="167.5,-634.5 291.5,-634.5 "/>
<text text-anchor="start" x="175.5" y="-622.5" font-family="Helvetica,sans-Serif" font-size="10.00"># _syncerAttached</text>
<polyline fill="none" stroke="black" points="167.5,-615.5 291.5,-615.5 "/>
<text text-anchor="start" x="175.5" y="-603.5" font-family="Helvetica,sans-Serif" font-size="10.00">+ attach()</text>
<text text-anchor="start" x="175.5" y="-592.5" font-family="Helvetica,sans-Serif" font-size="10.00">+ detach()</text>
<text text-anchor="start" x="175.5" y="-581.5" font-family="Helvetica,sans-Serif" font-size="10.00"># _sendCommand()</text>
<text text-anchor="start" x="175.5" y="-570.5" font-family="Helvetica,sans-Serif" font-size="10.00"># _sendCommand()</text>
<text text-anchor="start" x="175.5" y="-559.5" font-family="Helvetica,sans-Serif" font-size="10.00"># _sendCommand()</text>
<text text-anchor="start" x="175.5" y="-548.5" font-family="Helvetica,sans-Serif" font-size="10.00"># _send()</text>
<text text-anchor="start" x="175.5" y="-537.5" font-family="Helvetica,sans-Serif" font-size="10.00"># _convertFloat()</text>
<text text-anchor="start" x="175.5" y="-526.5" font-family="Helvetica,sans-Serif" font-size="10.00"># _reconvertFloat()</text>
<text text-anchor="start" x="175.5" y="-515.5" font-family="Helvetica,sans-Serif" font-size="10.00"># _disassambleFloat()</text>
<text text-anchor="start" x="175.5" y="-504.5" font-family="Helvetica,sans-Serif" font-size="10.00"># _reassambleFloat()</text>
</a>
</g>
</g>
<!-- Node3&#45;&gt;Node2 -->
<g id="edge2" class="edge"><title>Node3&#45;&gt;Node2</title>
<path fill="none" stroke="midnightblue" d="M214.436,-486.994C211.568,-470.335 208.626,-453.245 205.941,-437.651"/>
<polygon fill="none" stroke="midnightblue" points="211.063,-488.032 216.209,-497.293 217.961,-486.844 211.063,-488.032"/>
</g>
<!-- Node18 -->
<g id="node18" class="node"><title>Node18</title>
<g id="a_node18"><a xlink:href="class_i_registry.html" target="_top" xlink:title="{IRegistry\n||+ IRegistry()\l+ getReady()\l+ setReady()\l+ getFloat()\l+ getUInt8()\l+ getUInt16()\l+ getUInt32()\l+ getInt8()\l+ getInt16()\l+ getInt32()\land 9 more...\l}">
<polygon fill="white" stroke="black" points="265,-292.5 265,-459.5 348,-459.5 348,-292.5 265,-292.5"/>
<text text-anchor="middle" x="306.5" y="-447.5" font-family="Helvetica,sans-Serif" font-size="10.00">IRegistry</text>
<polyline fill="none" stroke="black" points="265,-440.5 348,-440.5 "/>
<text text-anchor="middle" x="306.5" y="-428.5" font-family="Helvetica,sans-Serif" font-size="10.00"> </text>
<polyline fill="none" stroke="black" points="265,-421.5 348,-421.5 "/>
<text text-anchor="start" x="273" y="-409.5" font-family="Helvetica,sans-Serif" font-size="10.00">+ IRegistry()</text>
<text text-anchor="start" x="273" y="-398.5" font-family="Helvetica,sans-Serif" font-size="10.00">+ getReady()</text>
<text text-anchor="start" x="273" y="-387.5" font-family="Helvetica,sans-Serif" font-size="10.00">+ setReady()</text>
<text text-anchor="start" x="273" y="-376.5" font-family="Helvetica,sans-Serif" font-size="10.00">+ getFloat()</text>
<text text-anchor="start" x="273" y="-365.5" font-family="Helvetica,sans-Serif" font-size="10.00">+ getUInt8()</text>
<text text-anchor="start" x="273" y="-354.5" font-family="Helvetica,sans-Serif" font-size="10.00">+ getUInt16()</text>
<text text-anchor="start" x="273" y="-343.5" font-family="Helvetica,sans-Serif" font-size="10.00">+ getUInt32()</text>
<text text-anchor="start" x="273" y="-332.5" font-family="Helvetica,sans-Serif" font-size="10.00">+ getInt8()</text>
<text text-anchor="start" x="273" y="-321.5" font-family="Helvetica,sans-Serif" font-size="10.00">+ getInt16()</text>
<text text-anchor="start" x="273" y="-310.5" font-family="Helvetica,sans-Serif" font-size="10.00">+ getInt32()</text>
<text text-anchor="start" x="273" y="-299.5" font-family="Helvetica,sans-Serif" font-size="10.00">and 9 more...</text>
</a>
</g>
</g>
<!-- Node3&#45;&gt;Node18 -->
<g id="edge20" class="edge"><title>Node3&#45;&gt;Node18</title>
<path fill="none" stroke="midnightblue" d="M263.237,-487.967C266.897,-478.579 270.616,-469.041 274.258,-459.699"/>
<polygon fill="none" stroke="midnightblue" points="259.973,-486.704 259.601,-497.293 266.494,-489.247 259.973,-486.704"/>
</g>
<!-- Node4 -->
<g id="node4" class="node"><title>Node4</title>
<g id="a_node4"><a xlink:href="class_i_communication.html" target="_top" xlink:title="{ICommunication\n||+ receive()\l}">
<polygon fill="white" stroke="black" points="244,-887.5 244,-944.5 339,-944.5 339,-887.5 244,-887.5"/>
<text text-anchor="middle" x="291.5" y="-932.5" font-family="Helvetica,sans-Serif" font-size="10.00">ICommunication</text>
<polyline fill="none" stroke="black" points="244,-925.5 339,-925.5 "/>
<text text-anchor="middle" x="291.5" y="-913.5" font-family="Helvetica,sans-Serif" font-size="10.00"> </text>
<polyline fill="none" stroke="black" points="244,-906.5 339,-906.5 "/>
<text text-anchor="start" x="252" y="-894.5" font-family="Helvetica,sans-Serif" font-size="10.00">+ receive()</text>
</a>
</g>
</g>
<!-- Node4&#45;&gt;Node3 -->
<g id="edge3" class="edge"><title>Node4&#45;&gt;Node3</title>
<path fill="none" stroke="midnightblue" d="M294.227,-877.177C296.534,-828.503 296.544,-741.889 274.5,-672 272.598,-665.97 270.391,-659.83 267.997,-653.721"/>
<polygon fill="none" stroke="midnightblue" points="290.727,-877.085 293.689,-887.257 297.717,-877.457 290.727,-877.085"/>
</g>
<!-- Node5 -->
<g id="node5" class="node"><title>Node5</title>
<g id="a_node5"><a xlink:href="class_i_component.html" target="_top" xlink:title="{IComponent\n||+ IComponent()\l+ IComponent()\l+ setComponentSubId()\l+ getComponentType()\l+ getComponentSubId()\l+ getComponentId()\l+ getObjectType()\l# setComponentType()\l# setObjectType()\l}">
<polygon fill="white" stroke="black" points="191.5,-1168.5 191.5,-1313.5 325.5,-1313.5 325.5,-1168.5 191.5,-1168.5"/>
<text text-anchor="middle" x="258.5" y="-1301.5" font-family="Helvetica,sans-Serif" font-size="10.00">IComponent</text>
<polyline fill="none" stroke="black" points="191.5,-1294.5 325.5,-1294.5 "/>
<text text-anchor="middle" x="258.5" y="-1282.5" font-family="Helvetica,sans-Serif" font-size="10.00"> </text>
<polyline fill="none" stroke="black" points="191.5,-1275.5 325.5,-1275.5 "/>
<text text-anchor="start" x="199.5" y="-1263.5" font-family="Helvetica,sans-Serif" font-size="10.00">+ IComponent()</text>
<text text-anchor="start" x="199.5" y="-1252.5" font-family="Helvetica,sans-Serif" font-size="10.00">+ IComponent()</text>
<text text-anchor="start" x="199.5" y="-1241.5" font-family="Helvetica,sans-Serif" font-size="10.00">+ setComponentSubId()</text>
<text text-anchor="start" x="199.5" y="-1230.5" font-family="Helvetica,sans-Serif" font-size="10.00">+ getComponentType()</text>
<text text-anchor="start" x="199.5" y="-1219.5" font-family="Helvetica,sans-Serif" font-size="10.00">+ getComponentSubId()</text>
<text text-anchor="start" x="199.5" y="-1208.5" font-family="Helvetica,sans-Serif" font-size="10.00">+ getComponentId()</text>
<text text-anchor="start" x="199.5" y="-1197.5" font-family="Helvetica,sans-Serif" font-size="10.00">+ getObjectType()</text>
<text text-anchor="start" x="199.5" y="-1186.5" font-family="Helvetica,sans-Serif" font-size="10.00"># setComponentType()</text>
<text text-anchor="start" x="199.5" y="-1175.5" font-family="Helvetica,sans-Serif" font-size="10.00"># setObjectType()</text>
</a>
</g>
</g>
<!-- Node5&#45;&gt;Node4 -->
<g id="edge4" class="edge"><title>Node5&#45;&gt;Node4</title>
<path fill="none" stroke="midnightblue" d="M266.857,-1158.2C274.003,-1088.26 283.868,-991.706 288.659,-944.805"/>
<polygon fill="none" stroke="midnightblue" points="263.358,-1158.01 265.824,-1168.32 270.322,-1158.72 263.358,-1158.01"/>
</g>
<!-- Node9 -->
<g id="node9" class="node"><title>Node9</title>
<g id="a_node9"><a xlink:href="class_i_runable.html" target="_top" xlink:title="{IRunable\n||+ IRunable()\l+ run()\l+ setStatus()\l+ getStatus()\l}">
<polygon fill="white" stroke="black" points="174,-1002 174,-1092 257,-1092 257,-1002 174,-1002"/>
<text text-anchor="middle" x="215.5" y="-1080" font-family="Helvetica,sans-Serif" font-size="10.00">IRunable</text>
<polyline fill="none" stroke="black" points="174,-1073 257,-1073 "/>
<text text-anchor="middle" x="215.5" y="-1061" font-family="Helvetica,sans-Serif" font-size="10.00"> </text>
<polyline fill="none" stroke="black" points="174,-1054 257,-1054 "/>
<text text-anchor="start" x="182" y="-1042" font-family="Helvetica,sans-Serif" font-size="10.00">+ IRunable()</text>
<text text-anchor="start" x="182" y="-1031" font-family="Helvetica,sans-Serif" font-size="10.00">+ run()</text>
<text text-anchor="start" x="182" y="-1020" font-family="Helvetica,sans-Serif" font-size="10.00">+ setStatus()</text>
<text text-anchor="start" x="182" y="-1009" font-family="Helvetica,sans-Serif" font-size="10.00">+ getStatus()</text>
</a>
</g>
</g>
<!-- Node5&#45;&gt;Node9 -->
<g id="edge9" class="edge"><title>Node5&#45;&gt;Node9</title>
<path fill="none" stroke="midnightblue" d="M240.19,-1158.24C235.105,-1135.54 229.777,-1111.75 225.377,-1092.1"/>
<polygon fill="none" stroke="midnightblue" points="236.826,-1159.24 242.427,-1168.23 243.657,-1157.71 236.826,-1159.24"/>
</g>
<!-- Node6 -->
<g id="node6" class="node"><title>Node6</title>
<g id="a_node6"><a xlink:href="class_i_logable.html" target="_top" xlink:title="{ILogable\n||+ setStatus()\l+ getStatus()\l+ getLogValueCount()\l+ getLogValue()\l}">
<polygon fill="white" stroke="black" points="197,-1351.5 197,-1441.5 320,-1441.5 320,-1351.5 197,-1351.5"/>
<text text-anchor="middle" x="258.5" y="-1429.5" font-family="Helvetica,sans-Serif" font-size="10.00">ILogable</text>
<polyline fill="none" stroke="black" points="197,-1422.5 320,-1422.5 "/>
<text text-anchor="middle" x="258.5" y="-1410.5" font-family="Helvetica,sans-Serif" font-size="10.00"> </text>
<polyline fill="none" stroke="black" points="197,-1403.5 320,-1403.5 "/>
<text text-anchor="start" x="205" y="-1391.5" font-family="Helvetica,sans-Serif" font-size="10.00">+ setStatus()</text>
<text text-anchor="start" x="205" y="-1380.5" font-family="Helvetica,sans-Serif" font-size="10.00">+ getStatus()</text>
<text text-anchor="start" x="205" y="-1369.5" font-family="Helvetica,sans-Serif" font-size="10.00">+ getLogValueCount()</text>
<text text-anchor="start" x="205" y="-1358.5" font-family="Helvetica,sans-Serif" font-size="10.00">+ getLogValue()</text>
</a>
</g>
</g>
<!-- Node6&#45;&gt;Node5 -->
<g id="edge5" class="edge"><title>Node6&#45;&gt;Node5</title>
<path fill="none" stroke="midnightblue" d="M258.5,-1340.98C258.5,-1332.16 258.5,-1322.92 258.5,-1313.77"/>
<polygon fill="none" stroke="midnightblue" points="255,-1341.1 258.5,-1351.1 262,-1341.1 255,-1341.1"/>
</g>
<!-- Node7 -->
<g id="node7" class="node"><title>Node7</title>
<g id="a_node7"><a xlink:href="class_non_copyable.html" target="_top" xlink:title="{NonCopyable\&lt; ILogable \&gt;\n||+ NonCopyable()\l}">
<polygon fill="white" stroke="black" points="187,-1479.5 187,-1536.5 330,-1536.5 330,-1479.5 187,-1479.5"/>
<text text-anchor="middle" x="258.5" y="-1524.5" font-family="Helvetica,sans-Serif" font-size="10.00">NonCopyable&lt; ILogable &gt;</text>
<polyline fill="none" stroke="black" points="187,-1517.5 330,-1517.5 "/>
<text text-anchor="middle" x="258.5" y="-1505.5" font-family="Helvetica,sans-Serif" font-size="10.00"> </text>
<polyline fill="none" stroke="black" points="187,-1498.5 330,-1498.5 "/>
<text text-anchor="start" x="195" y="-1486.5" font-family="Helvetica,sans-Serif" font-size="10.00">+ NonCopyable()</text>
</a>
</g>
</g>
<!-- Node7&#45;&gt;Node6 -->
<g id="edge6" class="edge"><title>Node7&#45;&gt;Node6</title>
<path fill="none" stroke="#8b1a1a" d="M258.5,-1469.31C258.5,-1460.43 258.5,-1450.88 258.5,-1441.74"/>
<polygon fill="none" stroke="#8b1a1a" points="255,-1469.37 258.5,-1479.37 262,-1469.37 255,-1469.37"/>
</g>
<!-- Node8 -->
<g id="node8" class="node"><title>Node8</title>
<g id="a_node8"><a xlink:href="class_sync.html" target="_top" xlink:title="{Sync\n||+ Sync()\l+ addComponent()\l+ addBridge()\l+ receive()\l+ send()\l+ run()\l+ messageInQueue()\l+ finalize()\l+ Sync()\l+ receive()\land 7 more...\l}">
<polygon fill="white" stroke="black" points="152,-701.5 152,-868.5 271,-868.5 271,-701.5 152,-701.5"/>
<text text-anchor="middle" x="211.5" y="-856.5" font-family="Helvetica,sans-Serif" font-size="10.00">Sync</text>
<polyline fill="none" stroke="black" points="152,-849.5 271,-849.5 "/>
<text text-anchor="middle" x="211.5" y="-837.5" font-family="Helvetica,sans-Serif" font-size="10.00"> </text>
<polyline fill="none" stroke="black" points="152,-830.5 271,-830.5 "/>
<text text-anchor="start" x="160" y="-818.5" font-family="Helvetica,sans-Serif" font-size="10.00">+ Sync()</text>
<text text-anchor="start" x="160" y="-807.5" font-family="Helvetica,sans-Serif" font-size="10.00">+ addComponent()</text>
<text text-anchor="start" x="160" y="-796.5" font-family="Helvetica,sans-Serif" font-size="10.00">+ addBridge()</text>
<text text-anchor="start" x="160" y="-785.5" font-family="Helvetica,sans-Serif" font-size="10.00">+ receive()</text>
<text text-anchor="start" x="160" y="-774.5" font-family="Helvetica,sans-Serif" font-size="10.00">+ send()</text>
<text text-anchor="start" x="160" y="-763.5" font-family="Helvetica,sans-Serif" font-size="10.00">+ run()</text>
<text text-anchor="start" x="160" y="-752.5" font-family="Helvetica,sans-Serif" font-size="10.00">+ messageInQueue()</text>
<text text-anchor="start" x="160" y="-741.5" font-family="Helvetica,sans-Serif" font-size="10.00">+ finalize()</text>
<text text-anchor="start" x="160" y="-730.5" font-family="Helvetica,sans-Serif" font-size="10.00">+ Sync()</text>
<text text-anchor="start" x="160" y="-719.5" font-family="Helvetica,sans-Serif" font-size="10.00">+ receive()</text>
<text text-anchor="start" x="160" y="-708.5" font-family="Helvetica,sans-Serif" font-size="10.00">and 7 more...</text>
</a>
</g>
</g>
<!-- Node8&#45;&gt;Node3 -->
<g id="edge7" class="edge"><title>Node8&#45;&gt;Node3</title>
<path fill="none" stroke="#404040" d="M218.666,-701.394C219.677,-689.735 220.721,-677.703 221.743,-665.923"/>
<polygon fill="none" stroke="#404040" points="221.76,-665.719 218.294,-659.396 222.798,-653.764 226.264,-660.087 221.76,-665.719"/>
<text text-anchor="middle" x="246" y="-675" font-family="Helvetica,sans-Serif" font-size="10.00"> #_syncer</text>
</g>
<!-- Node9&#45;&gt;Node8 -->
<g id="edge8" class="edge"><title>Node9&#45;&gt;Node8</title>
<path fill="none" stroke="midnightblue" d="M209.058,-991.718C207.291,-956.146 206.321,-908.965 206.436,-868.76"/>
<polygon fill="none" stroke="midnightblue" points="205.573,-992.097 209.604,-1001.89 212.563,-991.721 205.573,-992.097"/>
</g>
<!-- Node9&#45;&gt;Node8 -->
<g id="edge10" class="edge"><title>Node9&#45;&gt;Node8</title>
<path fill="none" stroke="midnightblue" d="M220.272,-991.718C220.945,-956.146 220.462,-908.965 219.11,-868.76"/>
<polygon fill="none" stroke="midnightblue" points="216.769,-991.817 220.038,-1001.89 223.767,-991.977 216.769,-991.817"/>
</g>
<!-- Node10 -->
<g id="node10" class="node"><title>Node10</title>
<g id="a_node10"><a xlink:href="classstd_1_1vector.html" target="_top" xlink:title="{std::vector\&lt; CarMessage \&gt;\n||+ ~vector()\l+ at()\l+ operator[]()\l+ front()\l+ back()\l+ data()\l+ begin()\l+ end()\l+ empty()\l+ size()\land 7 more...\l}">
<polygon fill="white" stroke="black" points="0,-963.5 0,-1130.5 149,-1130.5 149,-963.5 0,-963.5"/>
<text text-anchor="middle" x="74.5" y="-1118.5" font-family="Helvetica,sans-Serif" font-size="10.00">std::vector&lt; CarMessage &gt;</text>
<polyline fill="none" stroke="black" points="0,-1111.5 149,-1111.5 "/>
<text text-anchor="middle" x="74.5" y="-1099.5" font-family="Helvetica,sans-Serif" font-size="10.00"> </text>
<polyline fill="none" stroke="black" points="0,-1092.5 149,-1092.5 "/>
<text text-anchor="start" x="8" y="-1080.5" font-family="Helvetica,sans-Serif" font-size="10.00">+ ~vector()</text>
<text text-anchor="start" x="8" y="-1069.5" font-family="Helvetica,sans-Serif" font-size="10.00">+ at()</text>
<text text-anchor="start" x="8" y="-1058.5" font-family="Helvetica,sans-Serif" font-size="10.00">+ operator[]()</text>
<text text-anchor="start" x="8" y="-1047.5" font-family="Helvetica,sans-Serif" font-size="10.00">+ front()</text>
<text text-anchor="start" x="8" y="-1036.5" font-family="Helvetica,sans-Serif" font-size="10.00">+ back()</text>
<text text-anchor="start" x="8" y="-1025.5" font-family="Helvetica,sans-Serif" font-size="10.00">+ data()</text>
<text text-anchor="start" x="8" y="-1014.5" font-family="Helvetica,sans-Serif" font-size="10.00">+ begin()</text>
<text text-anchor="start" x="8" y="-1003.5" font-family="Helvetica,sans-Serif" font-size="10.00">+ end()</text>
<text text-anchor="start" x="8" y="-992.5" font-family="Helvetica,sans-Serif" font-size="10.00">+ empty()</text>
<text text-anchor="start" x="8" y="-981.5" font-family="Helvetica,sans-Serif" font-size="10.00">+ size()</text>
<text text-anchor="start" x="8" y="-970.5" font-family="Helvetica,sans-Serif" font-size="10.00">and 7 more...</text>
</a>
</g>
</g>
<!-- Node10&#45;&gt;Node8 -->
<g id="edge11" class="edge"><title>Node10&#45;&gt;Node8</title>
<path fill="none" stroke="#404040" d="M72.2405,-963.251C74.5224,-937.6 80.213,-910.042 92.5,-887 104.334,-864.808 123.228,-845.431 142.509,-829.746"/>
<polygon fill="none" stroke="#404040" points="142.521,-829.737 144.785,-822.89 151.975,-822.347 149.711,-829.193 142.521,-829.737"/>
<text text-anchor="middle" x="151" y="-913.5" font-family="Helvetica,sans-Serif" font-size="10.00"> +receivedCarMessages</text>
</g>
<!-- Node11 -->
<g id="node11" class="node"><title>Node11</title>
<g id="a_node11"><a xlink:href="class_non_copyable.html" target="_top" xlink:title="{NonCopyable\&lt; vector\l\&lt; CarMessage, unsigned\l int \&gt; \&gt;\n||+ NonCopyable()\l}">
<polygon fill="white" stroke="black" points="6,-1201.5 6,-1280.5 143,-1280.5 143,-1201.5 6,-1201.5"/>
<text text-anchor="start" x="14" y="-1268.5" font-family="Helvetica,sans-Serif" font-size="10.00">NonCopyable&lt; vector</text>
<text text-anchor="start" x="14" y="-1257.5" font-family="Helvetica,sans-Serif" font-size="10.00">&lt; CarMessage, unsigned</text>
<text text-anchor="middle" x="74.5" y="-1246.5" font-family="Helvetica,sans-Serif" font-size="10.00"> int &gt; &gt;</text>
<polyline fill="none" stroke="black" points="6,-1239.5 143,-1239.5 "/>
<text text-anchor="middle" x="74.5" y="-1227.5" font-family="Helvetica,sans-Serif" font-size="10.00"> </text>
<polyline fill="none" stroke="black" points="6,-1220.5 143,-1220.5 "/>
<text text-anchor="start" x="14" y="-1208.5" font-family="Helvetica,sans-Serif" font-size="10.00">+ NonCopyable()</text>
</a>
</g>
</g>
<!-- Node11&#45;&gt;Node10 -->
<g id="edge12" class="edge"><title>Node11&#45;&gt;Node10</title>
<path fill="none" stroke="#8b1a1a" d="M74.5,-1191.02C74.5,-1172.7 74.5,-1151.34 74.5,-1130.81"/>
<polygon fill="none" stroke="#8b1a1a" points="71.0001,-1191.15 74.5,-1201.15 78.0001,-1191.15 71.0001,-1191.15"/>
</g>
<!-- Node12 -->
<g id="node12" class="node"><title>Node12</title>
<g id="a_node12"><a xlink:href="class_ticker.html" target="_top" xlink:title="{Ticker\n||+ Ticker()\l+ ~Ticker()\l+ attach()\l+ detach()\l+ call()\l}">
<polygon fill="white" stroke="black" points="366,-325.5 366,-426.5 437,-426.5 437,-325.5 366,-325.5"/>
<text text-anchor="middle" x="401.5" y="-414.5" font-family="Helvetica,sans-Serif" font-size="10.00">Ticker</text>
<polyline fill="none" stroke="black" points="366,-407.5 437,-407.5 "/>
<text text-anchor="middle" x="401.5" y="-395.5" font-family="Helvetica,sans-Serif" font-size="10.00"> </text>
<polyline fill="none" stroke="black" points="366,-388.5 437,-388.5 "/>
<text text-anchor="start" x="374" y="-376.5" font-family="Helvetica,sans-Serif" font-size="10.00">+ Ticker()</text>
<text text-anchor="start" x="374" y="-365.5" font-family="Helvetica,sans-Serif" font-size="10.00">+ ~Ticker()</text>
<text text-anchor="start" x="374" y="-354.5" font-family="Helvetica,sans-Serif" font-size="10.00">+ attach()</text>
<text text-anchor="start" x="374" y="-343.5" font-family="Helvetica,sans-Serif" font-size="10.00">+ detach()</text>
<text text-anchor="start" x="374" y="-332.5" font-family="Helvetica,sans-Serif" font-size="10.00">+ call()</text>
</a>
</g>
</g>
<!-- Node12&#45;&gt;Node1 -->
<g id="edge13" class="edge"><title>Node12&#45;&gt;Node1</title>
<path fill="none" stroke="#404040" d="M392.017,-325.312C388.201,-305.32 383.602,-281.221 378.93,-256.742"/>
<polygon fill="none" stroke="#404040" points="378.883,-256.498 373.829,-251.354 376.634,-244.711 381.688,-249.854 378.883,-256.498"/>
<text text-anchor="middle" x="423" y="-266" font-family="Helvetica,sans-Serif" font-size="10.00"> #_blinkingTicker</text>
</g>
<!-- Node13 -->
<g id="node13" class="node"><title>Node13</title>
<g id="a_node13"><a xlink:href="class_scheduled_callable.html" target="_top" xlink:title="{ScheduledCallable\n||+ ScheduledCallable()\l+ ScheduledCallable()\l+ getSleepingSince()\l+ setSleeptime()\l+ getSleepTime()\l+ resetSleepTimer()\l}">
<polygon fill="white" stroke="black" points="333,-519.5 333,-631.5 456,-631.5 456,-519.5 333,-519.5"/>
<text text-anchor="middle" x="394.5" y="-619.5" font-family="Helvetica,sans-Serif" font-size="10.00">ScheduledCallable</text>
<polyline fill="none" stroke="black" points="333,-612.5 456,-612.5 "/>
<text text-anchor="middle" x="394.5" y="-600.5" font-family="Helvetica,sans-Serif" font-size="10.00"> </text>
<polyline fill="none" stroke="black" points="333,-593.5 456,-593.5 "/>
<text text-anchor="start" x="341" y="-581.5" font-family="Helvetica,sans-Serif" font-size="10.00">+ ScheduledCallable()</text>
<text text-anchor="start" x="341" y="-570.5" font-family="Helvetica,sans-Serif" font-size="10.00">+ ScheduledCallable()</text>
<text text-anchor="start" x="341" y="-559.5" font-family="Helvetica,sans-Serif" font-size="10.00">+ getSleepingSince()</text>
<text text-anchor="start" x="341" y="-548.5" font-family="Helvetica,sans-Serif" font-size="10.00">+ setSleeptime()</text>
<text text-anchor="start" x="341" y="-537.5" font-family="Helvetica,sans-Serif" font-size="10.00">+ getSleepTime()</text>
<text text-anchor="start" x="341" y="-526.5" font-family="Helvetica,sans-Serif" font-size="10.00">+ resetSleepTimer()</text>
</a>
</g>
</g>
<!-- Node13&#45;&gt;Node12 -->
<g id="edge14" class="edge"><title>Node13&#45;&gt;Node12</title>
<path fill="none" stroke="midnightblue" d="M396.808,-509.369C397.763,-482.439 398.852,-451.721 399.74,-426.66"/>
<polygon fill="none" stroke="midnightblue" points="393.306,-509.368 396.45,-519.485 400.302,-509.616 393.306,-509.368"/>
</g>
<!-- Node14 -->
<g id="node14" class="node"><title>Node14</title>
<g id="a_node14"><a xlink:href="class_i_callable.html" target="_top" xlink:title="{ICallable\n||+ call()\l}">
<polygon fill="white" stroke="black" points="366.5,-756.5 366.5,-813.5 422.5,-813.5 422.5,-756.5 366.5,-756.5"/>
<text text-anchor="middle" x="394.5" y="-801.5" font-family="Helvetica,sans-Serif" font-size="10.00">ICallable</text>
<polyline fill="none" stroke="black" points="366.5,-794.5 422.5,-794.5 "/>
<text text-anchor="middle" x="394.5" y="-782.5" font-family="Helvetica,sans-Serif" font-size="10.00"> </text>
<polyline fill="none" stroke="black" points="366.5,-775.5 422.5,-775.5 "/>
<text text-anchor="start" x="374.5" y="-763.5" font-family="Helvetica,sans-Serif" font-size="10.00">+ call()</text>
</a>
</g>
</g>
<!-- Node14&#45;&gt;Node13 -->
<g id="edge15" class="edge"><title>Node14&#45;&gt;Node13</title>
<path fill="none" stroke="midnightblue" d="M394.5,-746.189C394.5,-714.228 394.5,-668.012 394.5,-631.879"/>
<polygon fill="none" stroke="midnightblue" points="391,-746.446 394.5,-756.446 398,-746.446 391,-746.446"/>
</g>
<!-- Node15 -->
<g id="node15" class="node"><title>Node15</title>
<g id="a_node15"><a xlink:href="class_non_copyable.html" target="_top" xlink:title="{NonCopyable\&lt; ICallable \&gt;\n||+ NonCopyable()\l}">
<polygon fill="white" stroke="black" points="323,-1018.5 323,-1075.5 466,-1075.5 466,-1018.5 323,-1018.5"/>
<text text-anchor="middle" x="394.5" y="-1063.5" font-family="Helvetica,sans-Serif" font-size="10.00">NonCopyable&lt; ICallable &gt;</text>
<polyline fill="none" stroke="black" points="323,-1056.5 466,-1056.5 "/>
<text text-anchor="middle" x="394.5" y="-1044.5" font-family="Helvetica,sans-Serif" font-size="10.00"> </text>
<polyline fill="none" stroke="black" points="323,-1037.5 466,-1037.5 "/>
<text text-anchor="start" x="331" y="-1025.5" font-family="Helvetica,sans-Serif" font-size="10.00">+ NonCopyable()</text>
</a>
</g>
</g>
<!-- Node15&#45;&gt;Node14 -->
<g id="edge16" class="edge"><title>Node15&#45;&gt;Node14</title>
<path fill="none" stroke="#8b1a1a" d="M394.5,-1007.85C394.5,-954.875 394.5,-860.305 394.5,-813.624"/>
<polygon fill="none" stroke="#8b1a1a" points="391,-1008.18 394.5,-1018.18 398,-1008.18 391,-1008.18"/>
</g>
<!-- Node16 -->
<g id="node16" class="node"><title>Node16</title>
<g id="a_node16"><a xlink:href="class_pwm_out.html" target="_top" xlink:title="{PwmOut\n||+ PwmOut()\l+ write_u16()\l+ write()\l+ read()\l+ operator=()\l+ operator float()\l}">
<polygon fill="white" stroke="black" points="478,-320 478,-432 579,-432 579,-320 478,-320"/>
<text text-anchor="middle" x="528.5" y="-420" font-family="Helvetica,sans-Serif" font-size="10.00">PwmOut</text>
<polyline fill="none" stroke="black" points="478,-413 579,-413 "/>
<text text-anchor="middle" x="528.5" y="-401" font-family="Helvetica,sans-Serif" font-size="10.00"> </text>
<polyline fill="none" stroke="black" points="478,-394 579,-394 "/>
<text text-anchor="start" x="486" y="-382" font-family="Helvetica,sans-Serif" font-size="10.00">+ PwmOut()</text>
<text text-anchor="start" x="486" y="-371" font-family="Helvetica,sans-Serif" font-size="10.00">+ write_u16()</text>
<text text-anchor="start" x="486" y="-360" font-family="Helvetica,sans-Serif" font-size="10.00">+ write()</text>
<text text-anchor="start" x="486" y="-349" font-family="Helvetica,sans-Serif" font-size="10.00">+ read()</text>
<text text-anchor="start" x="486" y="-338" font-family="Helvetica,sans-Serif" font-size="10.00">+ operator=()</text>
<text text-anchor="start" x="486" y="-327" font-family="Helvetica,sans-Serif" font-size="10.00">+ operator float()</text>
</a>
</g>
</g>
<!-- Node16&#45;&gt;Node1 -->
<g id="edge17" class="edge"><title>Node16&#45;&gt;Node1</title>
<path fill="none" stroke="#404040" d="M501.157,-319.966C491.264,-301.43 479.545,-280.915 467.5,-263 455.902,-245.751 442.643,-228.056 429.367,-211.31"/>
<polygon fill="none" stroke="#404040" points="429.066,-210.934 422.192,-208.753 421.561,-201.57 428.435,-203.75 429.066,-210.934"/>
<text text-anchor="middle" x="492" y="-266" font-family="Helvetica,sans-Serif" font-size="10.00"> #_port</text>
</g>
<!-- Node17 -->
<g id="node17" class="node"><title>Node17</title>
<g id="a_node17"><a xlink:href="class_non_copyable.html" target="_top" xlink:title="{NonCopyable\&lt; PwmOut \&gt;\n||+ NonCopyable()\l}">
<polygon fill="white" stroke="black" points="474,-547 474,-604 617,-604 617,-547 474,-547"/>
<text text-anchor="middle" x="545.5" y="-592" font-family="Helvetica,sans-Serif" font-size="10.00">NonCopyable&lt; PwmOut &gt;</text>
<polyline fill="none" stroke="black" points="474,-585 617,-585 "/>
<text text-anchor="middle" x="545.5" y="-573" font-family="Helvetica,sans-Serif" font-size="10.00"> </text>
<polyline fill="none" stroke="black" points="474,-566 617,-566 "/>
<text text-anchor="start" x="482" y="-554" font-family="Helvetica,sans-Serif" font-size="10.00">+ NonCopyable()</text>
</a>
</g>
</g>
<!-- Node17&#45;&gt;Node16 -->
<g id="edge18" class="edge"><title>Node17&#45;&gt;Node16</title>
<path fill="none" stroke="#8b1a1a" d="M542.213,-536.317C539.673,-506.801 536.12,-465.525 533.267,-432.382"/>
<polygon fill="none" stroke="#8b1a1a" points="538.756,-536.959 543.1,-546.622 545.73,-536.359 538.756,-536.959"/>
</g>
<!-- Node18&#45;&gt;Node1 -->
<g id="edge19" class="edge"><title>Node18&#45;&gt;Node1</title>
<path fill="none" stroke="#404040" d="M316.699,-292.292C318.178,-282.4 319.786,-272.459 321.5,-263 321.873,-260.941 322.257,-258.866 322.649,-256.779"/>
<polygon fill="none" stroke="#404040" points="322.704,-256.497 319.918,-249.846 324.987,-244.716 327.772,-251.368 322.704,-256.497"/>
<text text-anchor="middle" x="348" y="-266" font-family="Helvetica,sans-Serif" font-size="10.00"> #_registry</text>
</g>
</g>
</svg>
        <g id="navigator" transform="translate(0 0)" fill="#404254">
                <rect fill="#f2f5e9" fill-opacity="0.5" stroke="#606060" stroke-width=".5" x="0" y="0" width="60" height="60"/>
                <use id="zoomplus" xlink:href="#zoomPlus" x="17" y="9" onmousedown="handleZoom(evt,'in')"/>
                <use id="zoomminus" xlink:href="#zoomMin" x="42" y="9" onmousedown="handleZoom(evt,'out')"/>
                <use id="reset" xlink:href="#resetDef" x="30" y="36" onmousedown="handleReset()"/>
                <g id="arrowUp" xlink:href="#dirArrow" transform="translate(30 24)" onmousedown="handlePan(0,-1)">
                  <use xlink:href="#rim" fill="#404040">
                        <set attributeName="fill" to="#808080" begin="arrowUp.mouseover" end="arrowUp.mouseout"/>
                  </use>
                  <path fill="none" stroke="white" stroke-width="1.5" d="M0,-3.0v7 M-2.5,-0.5L0,-3.0L2.5,-0.5"/>
                </g>
                <g id="arrowRight" xlink:href="#dirArrow" transform="rotate(90) translate(36 -43)" onmousedown="handlePan(1,0)">
                  <use xlink:href="#rim" fill="#404040">
                        <set attributeName="fill" to="#808080" begin="arrowRight.mouseover" end="arrowRight.mouseout"/>
                  </use>
                  <path fill="none" stroke="white" stroke-width="1.5" d="M0,-3.0v7 M-2.5,-0.5L0,-3.0L2.5,-0.5"/>
                </g>
                <g id="arrowDown" xlink:href="#dirArrow" transform="rotate(180) translate(-30 -48)" onmousedown="handlePan(0,1)">
                  <use xlink:href="#rim" fill="#404040">
                        <set attributeName="fill" to="#808080" begin="arrowDown.mouseover" end="arrowDown.mouseout"/>
                  </use>
                  <path fill="none" stroke="white" stroke-width="1.5" d="M0,-3.0v7 M-2.5,-0.5L0,-3.0L2.5,-0.5"/>
                </g>
                <g id="arrowLeft" xlink:href="#dirArrow" transform="rotate(270) translate(-36 17)" onmousedown="handlePan(-1,0)">
                  <use xlink:href="#rim" fill="#404040">
                        <set attributeName="fill" to="#808080" begin="arrowLeft.mouseover" end="arrowLeft.mouseout"/>
                  </use>
                  <path fill="none" stroke="white" stroke-width="1.5" d="M0,-3.0v7 M-2.5,-0.5L0,-3.0L2.5,-0.5"/>
                </g>
        </g>
        <svg viewBox="0 0 15 15" width="100%" height="30px" preserveAspectRatio="xMaxYMin meet">
         <g id="arrow_out" transform="scale(0.3 0.3)">
          <a xlink:href="class_hardware_led_pwm__coll__graph_org.svg" target="_base">
           <rect id="button" ry="5" rx="5" y="6" x="6" height="38" width="38"
                fill="#f2f5e9" fill-opacity="0.5" stroke="#606060" stroke-width="1.0"/>
           <path id="arrow"
             d="M 11.500037,31.436501 C 11.940474,20.09759 22.043105,11.32322 32.158766,21.979434 L 37.068811,17.246167 C 37.068811,17.246167 37.088388,32 37.088388,32 L 22.160133,31.978069 C 22.160133,31.978069 26.997745,27.140456 26.997745,27.140456 C 18.528582,18.264221 13.291696,25.230495 11.500037,31.436501 z"
             style="fill:#404040;"/>
          </a>
         </g>
        </svg>
</svg>
