<?xml version="1.0" encoding="UTF-8" standalone="no"?>
<!DOCTYPE svg PUBLIC "-//W3C//DTD SVG 1.1//EN"
 "http://www.w3.org/Graphics/SVG/1.1/DTD/svg11.dtd">
<!-- Generated by graphviz version 2.38.0 (20140413.2041)
 -->
<!-- Title: AnalogIn Pages: 1 -->
<svg width="152pt" height="193pt"
 viewBox="0.00 0.00 152.00 193.00" xmlns="http://www.w3.org/2000/svg" xmlns:xlink="http://www.w3.org/1999/xlink">
<g id="graph0" class="graph" transform="scale(1 1) rotate(0) translate(4 189)">
<title>AnalogIn</title>
<polygon fill="white" stroke="none" points="-4,4 -4,-189 148,-189 148,4 -4,4"/>
<!-- Node1 -->
<g id="node1" class="node"><title>Node1</title>
<polygon fill="#bfbfbf" stroke="black" points="21.5,-0.5 21.5,-90.5 122.5,-90.5 122.5,-0.5 21.5,-0.5"/>
<text text-anchor="middle" x="72" y="-78.5" font-family="Helvetica,sans-Serif" font-size="10.00">AnalogIn</text>
<polyline fill="none" stroke="black" points="21.5,-71.5 122.5,-71.5 "/>
<text text-anchor="middle" x="72" y="-59.5" font-family="Helvetica,sans-Serif" font-size="10.00"> </text>
<polyline fill="none" stroke="black" points="21.5,-52.5 122.5,-52.5 "/>
<text text-anchor="start" x="29.5" y="-40.5" font-family="Helvetica,sans-Serif" font-size="10.00">+ AnalogIn()</text>
<text text-anchor="start" x="29.5" y="-29.5" font-family="Helvetica,sans-Serif" font-size="10.00">+ read()</text>
<text text-anchor="start" x="29.5" y="-18.5" font-family="Helvetica,sans-Serif" font-size="10.00">+ read_u16()</text>
<text text-anchor="start" x="29.5" y="-7.5" font-family="Helvetica,sans-Serif" font-size="10.00">+ operator float()</text>
</g>
<!-- Node2 -->
<g id="node2" class="node"><title>Node2</title>
<g id="a_node2"><a xlink:href="class_non_copyable.html" target="_top" xlink:title="{NonCopyable\&lt; AnalogIn \&gt;\n||+ NonCopyable()\l}">
<polygon fill="white" stroke="black" points="0,-127.5 0,-184.5 144,-184.5 144,-127.5 0,-127.5"/>
<text text-anchor="middle" x="72" y="-172.5" font-family="Helvetica,sans-Serif" font-size="10.00">NonCopyable&lt; AnalogIn &gt;</text>
<polyline fill="none" stroke="black" points="0,-165.5 144,-165.5 "/>
<text text-anchor="middle" x="72" y="-153.5" font-family="Helvetica,sans-Serif" font-size="10.00"> </text>
<polyline fill="none" stroke="black" points="0,-146.5 144,-146.5 "/>
<text text-anchor="start" x="8" y="-134.5" font-family="Helvetica,sans-Serif" font-size="10.00">+ NonCopyable()</text>
</a>
</g>
</g>
<!-- Node2&#45;&gt;Node1 -->
<g id="edge1" class="edge"><title>Node2&#45;&gt;Node1</title>
<path fill="none" stroke="#8b1a1a" d="M72,-117.214C72,-108.609 72,-99.3943 72,-90.5541"/>
<polygon fill="none" stroke="#8b1a1a" points="68.5001,-117.34 72,-127.34 75.5001,-117.34 68.5001,-117.34"/>
</g>
</g>
</svg>
