<?xml version="1.0" encoding="UTF-8" standalone="no"?>
<!DOCTYPE svg PUBLIC "-//W3C//DTD SVG 1.1//EN"
 "http://www.w3.org/Graphics/SVG/1.1/DTD/svg11.dtd">
<!-- Generated by graphviz version 2.38.0 (20140413.2041)
 -->
<!-- Title: FATFileHandle Pages: 1 -->
<svg width="164pt" height="595pt"
 viewBox="0.00 0.00 164.00 595.00" xmlns="http://www.w3.org/2000/svg" xmlns:xlink="http://www.w3.org/1999/xlink">
<g id="graph0" class="graph" transform="scale(1 1) rotate(0) translate(4 591)">
<title>FATFileHandle</title>
<polygon fill="white" stroke="none" points="-4,4 -4,-591 160,-591 160,4 -4,4"/>
<!-- Node1 -->
<g id="node1" class="node"><title>Node1</title>
<polygon fill="#bfbfbf" stroke="black" points="11.5,-0.5 11.5,-156.5 111.5,-156.5 111.5,-0.5 11.5,-0.5"/>
<text text-anchor="middle" x="61.5" y="-144.5" font-family="Helvetica,sans-Serif" font-size="10.00">FATFileHandle</text>
<polyline fill="none" stroke="black" points="11.5,-137.5 111.5,-137.5 "/>
<text text-anchor="middle" x="61.5" y="-125.5" font-family="Helvetica,sans-Serif" font-size="10.00"> </text>
<polyline fill="none" stroke="black" points="11.5,-118.5 111.5,-118.5 "/>
<text text-anchor="start" x="19.5" y="-106.5" font-family="Helvetica,sans-Serif" font-size="10.00">+ FATFileHandle()</text>
<text text-anchor="start" x="19.5" y="-95.5" font-family="Helvetica,sans-Serif" font-size="10.00">+ close()</text>
<text text-anchor="start" x="19.5" y="-84.5" font-family="Helvetica,sans-Serif" font-size="10.00">+ write()</text>
<text text-anchor="start" x="19.5" y="-73.5" font-family="Helvetica,sans-Serif" font-size="10.00">+ read()</text>
<text text-anchor="start" x="19.5" y="-62.5" font-family="Helvetica,sans-Serif" font-size="10.00">+ isatty()</text>
<text text-anchor="start" x="19.5" y="-51.5" font-family="Helvetica,sans-Serif" font-size="10.00">+ lseek()</text>
<text text-anchor="start" x="19.5" y="-40.5" font-family="Helvetica,sans-Serif" font-size="10.00">+ fsync()</text>
<text text-anchor="start" x="19.5" y="-29.5" font-family="Helvetica,sans-Serif" font-size="10.00">+ flen()</text>
<text text-anchor="start" x="19.5" y="-18.5" font-family="Helvetica,sans-Serif" font-size="10.00">+ seek()</text>
<text text-anchor="start" x="19.5" y="-7.5" font-family="Helvetica,sans-Serif" font-size="10.00">+ size()</text>
</g>
<!-- Node2 -->
<g id="node2" class="node"><title>Node2</title>
<polygon fill="white" stroke="#bfbfbf" points="0,-259.5 0,-316.5 65,-316.5 65,-259.5 0,-259.5"/>
<text text-anchor="middle" x="32.5" y="-304.5" font-family="Helvetica,sans-Serif" font-size="10.00">FileHandle</text>
<polyline fill="none" stroke="#bfbfbf" points="0,-297.5 65,-297.5 "/>
<text text-anchor="middle" x="32.5" y="-285.5" font-family="Helvetica,sans-Serif" font-size="10.00"> </text>
<polyline fill="none" stroke="#bfbfbf" points="0,-278.5 65,-278.5 "/>
<text text-anchor="middle" x="32.5" y="-266.5" font-family="Helvetica,sans-Serif" font-size="10.00"> </text>
</g>
<!-- Node2&#45;&gt;Node1 -->
<g id="edge1" class="edge"><title>Node2&#45;&gt;Node1</title>
<path fill="none" stroke="midnightblue" d="M37.7612,-249.355C41.3639,-223.577 46.2708,-188.468 50.6884,-156.859"/>
<polygon fill="none" stroke="midnightblue" points="34.2689,-249.057 36.351,-259.446 41.2015,-250.026 34.2689,-249.057"/>
</g>
<!-- Node3 -->
<g id="node3" class="node"><title>Node3</title>
<g id="a_node3"><a xlink:href="struct_f_i_l.html" target="_top" xlink:title="{FIL\n|+ id\l+ flag\l+ err\l+ fptr\l+ fsize\l+ sclust\l+ clust\l+ dsect\l+ dir_sect\l+ dir_ptr\l+ buf\l|}">
<polygon fill="white" stroke="black" points="83,-204.5 83,-371.5 148,-371.5 148,-204.5 83,-204.5"/>
<text text-anchor="middle" x="115.5" y="-359.5" font-family="Helvetica,sans-Serif" font-size="10.00">FIL</text>
<polyline fill="none" stroke="black" points="83,-352.5 148,-352.5 "/>
<text text-anchor="start" x="91" y="-340.5" font-family="Helvetica,sans-Serif" font-size="10.00">+ id</text>
<text text-anchor="start" x="91" y="-329.5" font-family="Helvetica,sans-Serif" font-size="10.00">+ flag</text>
<text text-anchor="start" x="91" y="-318.5" font-family="Helvetica,sans-Serif" font-size="10.00">+ err</text>
<text text-anchor="start" x="91" y="-307.5" font-family="Helvetica,sans-Serif" font-size="10.00">+ fptr</text>
<text text-anchor="start" x="91" y="-296.5" font-family="Helvetica,sans-Serif" font-size="10.00">+ fsize</text>
<text text-anchor="start" x="91" y="-285.5" font-family="Helvetica,sans-Serif" font-size="10.00">+ sclust</text>
<text text-anchor="start" x="91" y="-274.5" font-family="Helvetica,sans-Serif" font-size="10.00">+ clust</text>
<text text-anchor="start" x="91" y="-263.5" font-family="Helvetica,sans-Serif" font-size="10.00">+ dsect</text>
<text text-anchor="start" x="91" y="-252.5" font-family="Helvetica,sans-Serif" font-size="10.00">+ dir_sect</text>
<text text-anchor="start" x="91" y="-241.5" font-family="Helvetica,sans-Serif" font-size="10.00">+ dir_ptr</text>
<text text-anchor="start" x="91" y="-230.5" font-family="Helvetica,sans-Serif" font-size="10.00">+ buf</text>
<polyline fill="none" stroke="black" points="83,-223.5 148,-223.5 "/>
<text text-anchor="middle" x="115.5" y="-211.5" font-family="Helvetica,sans-Serif" font-size="10.00"> </text>
</a>
</g>
</g>
<!-- Node3&#45;&gt;Node1 -->
<g id="edge2" class="edge"><title>Node3&#45;&gt;Node1</title>
<path fill="none" stroke="#404040" d="M94.0026,-204.394C90.9364,-192.612 87.7714,-180.45 84.6748,-168.551"/>
<polygon fill="none" stroke="#404040" points="84.6296,-168.377 79.2474,-163.578 81.6073,-156.764 86.9895,-161.563 84.6296,-168.377"/>
<text text-anchor="middle" x="101.5" y="-178" font-family="Helvetica,sans-Serif" font-size="10.00"> #_fh</text>
</g>
<!-- Node4 -->
<g id="node4" class="node"><title>Node4</title>
<g id="a_node4"><a xlink:href="struct_f_a_t_f_s.html" target="_top" xlink:title="{FATFS\n|+ fs_type\l+ drv\l+ csize\l+ n_fats\l+ wflag\l+ fsi_flag\l+ id\l+ n_rootdir\l+ last_clust\l+ free_clust\land 8 more...\l|}">
<polygon fill="white" stroke="black" points="75,-419.5 75,-586.5 156,-586.5 156,-419.5 75,-419.5"/>
<text text-anchor="middle" x="115.5" y="-574.5" font-family="Helvetica,sans-Serif" font-size="10.00">FATFS</text>
<polyline fill="none" stroke="black" points="75,-567.5 156,-567.5 "/>
<text text-anchor="start" x="83" y="-555.5" font-family="Helvetica,sans-Serif" font-size="10.00">+ fs_type</text>
<text text-anchor="start" x="83" y="-544.5" font-family="Helvetica,sans-Serif" font-size="10.00">+ drv</text>
<text text-anchor="start" x="83" y="-533.5" font-family="Helvetica,sans-Serif" font-size="10.00">+ csize</text>
<text text-anchor="start" x="83" y="-522.5" font-family="Helvetica,sans-Serif" font-size="10.00">+ n_fats</text>
<text text-anchor="start" x="83" y="-511.5" font-family="Helvetica,sans-Serif" font-size="10.00">+ wflag</text>
<text text-anchor="start" x="83" y="-500.5" font-family="Helvetica,sans-Serif" font-size="10.00">+ fsi_flag</text>
<text text-anchor="start" x="83" y="-489.5" font-family="Helvetica,sans-Serif" font-size="10.00">+ id</text>
<text text-anchor="start" x="83" y="-478.5" font-family="Helvetica,sans-Serif" font-size="10.00">+ n_rootdir</text>
<text text-anchor="start" x="83" y="-467.5" font-family="Helvetica,sans-Serif" font-size="10.00">+ last_clust</text>
<text text-anchor="start" x="83" y="-456.5" font-family="Helvetica,sans-Serif" font-size="10.00">+ free_clust</text>
<text text-anchor="start" x="83" y="-445.5" font-family="Helvetica,sans-Serif" font-size="10.00">and 8 more...</text>
<polyline fill="none" stroke="black" points="75,-438.5 156,-438.5 "/>
<text text-anchor="middle" x="115.5" y="-426.5" font-family="Helvetica,sans-Serif" font-size="10.00"> </text>
</a>
</g>
</g>
<!-- Node4&#45;&gt;Node3 -->
<g id="edge3" class="edge"><title>Node4&#45;&gt;Node3</title>
<path fill="none" stroke="#404040" d="M115.5,-419.344C115.5,-407.714 115.5,-395.684 115.5,-383.848"/>
<polygon fill="none" stroke="#404040" points="115.5,-383.61 111.5,-377.61 115.5,-371.61 119.5,-377.61 115.5,-383.61"/>
<text text-anchor="middle" x="125.5" y="-393" font-family="Helvetica,sans-Serif" font-size="10.00"> +fs</text>
</g>
</g>
</svg>
