<?xml version="1.0" encoding="UTF-8" standalone="no"?>
<!DOCTYPE svg PUBLIC "-//W3C//DTD SVG 1.1//EN"
 "http://www.w3.org/Graphics/SVG/1.1/DTD/svg11.dtd">
<!-- Generated by graphviz version 2.38.0 (20140413.2041)
 -->
<!-- Title: Pedal Pages: 1 -->
<svg width="120pt" height="204pt"
 viewBox="0.00 0.00 120.00 204.00" xmlns="http://www.w3.org/2000/svg" xmlns:xlink="http://www.w3.org/1999/xlink">
<g id="graph0" class="graph" transform="scale(1 1) rotate(0) translate(4 200)">
<title>Pedal</title>
<polygon fill="white" stroke="none" points="-4,4 -4,-200 116,-200 116,4 -4,4"/>
<!-- Node1 -->
<g id="node1" class="node"><title>Node1</title>
<polygon fill="#bfbfbf" stroke="black" points="25,-0.5 25,-68.5 87,-68.5 87,-0.5 25,-0.5"/>
<text text-anchor="middle" x="56" y="-56.5" font-family="Helvetica,sans-Serif" font-size="10.00">Pedal</text>
<polyline fill="none" stroke="black" points="25,-49.5 87,-49.5 "/>
<text text-anchor="middle" x="56" y="-37.5" font-family="Helvetica,sans-Serif" font-size="10.00"> </text>
<polyline fill="none" stroke="black" points="25,-30.5 87,-30.5 "/>
<text text-anchor="start" x="33" y="-18.5" font-family="Helvetica,sans-Serif" font-size="10.00">+ setup()</text>
<text text-anchor="start" x="33" y="-7.5" font-family="Helvetica,sans-Serif" font-size="10.00">+ loop()</text>
</g>
<!-- Node2 -->
<g id="node2" class="node"><title>Node2</title>
<g id="a_node2"><a xlink:href="class_carpi.html" target="_top" xlink:title="{Carpi\n||+ Carpi()\l+ printInfo()\l+ getVersion()\l+ getEnvironment()\l}">
<polygon fill="white" stroke="black" points="-7.10543e-15,-105.5 -7.10543e-15,-195.5 112,-195.5 112,-105.5 -7.10543e-15,-105.5"/>
<text text-anchor="middle" x="56" y="-183.5" font-family="Helvetica,sans-Serif" font-size="10.00">Carpi</text>
<polyline fill="none" stroke="black" points="-7.10543e-15,-176.5 112,-176.5 "/>
<text text-anchor="middle" x="56" y="-164.5" font-family="Helvetica,sans-Serif" font-size="10.00"> </text>
<polyline fill="none" stroke="black" points="-7.10543e-15,-157.5 112,-157.5 "/>
<text text-anchor="start" x="8" y="-145.5" font-family="Helvetica,sans-Serif" font-size="10.00">+ Carpi()</text>
<text text-anchor="start" x="8" y="-134.5" font-family="Helvetica,sans-Serif" font-size="10.00">+ printInfo()</text>
<text text-anchor="start" x="8" y="-123.5" font-family="Helvetica,sans-Serif" font-size="10.00">+ getVersion()</text>
<text text-anchor="start" x="8" y="-112.5" font-family="Helvetica,sans-Serif" font-size="10.00">+ getEnvironment()</text>
</a>
</g>
</g>
<!-- Node2&#45;&gt;Node1 -->
<g id="edge1" class="edge"><title>Node2&#45;&gt;Node1</title>
<path fill="none" stroke="midnightblue" d="M56,-95.3164C56,-86.2849 56,-77.1589 56,-68.8483"/>
<polygon fill="none" stroke="midnightblue" points="52.5001,-95.4246 56,-105.425 59.5001,-95.4247 52.5001,-95.4246"/>
</g>
</g>
</svg>
