<?xml version="1.0" encoding="UTF-8" standalone="no"?>
<!DOCTYPE svg PUBLIC "-//W3C//DTD SVG 1.1//EN"
 "http://www.w3.org/Graphics/SVG/1.1/DTD/svg11.dtd">
<!-- Generated by graphviz version 2.38.0 (20140413.2041)
 -->
<!-- Title: SSpeed Pages: 1 -->
<svg width="571pt" height="1613pt"
 viewBox="0.00 0.00 570.50 1613.00" xmlns="http://www.w3.org/2000/svg" xmlns:xlink="http://www.w3.org/1999/xlink">
<g id="graph0" class="graph" transform="scale(1 1) rotate(0) translate(4 1609)">
<title>SSpeed</title>
<polygon fill="white" stroke="none" points="-4,4 -4,-1609 566.5,-1609 566.5,4 -4,4"/>
<!-- Node1 -->
<g id="node1" class="node"><title>Node1</title>
<polygon fill="#bfbfbf" stroke="black" points="255.5,-0.5 255.5,-145.5 373.5,-145.5 373.5,-0.5 255.5,-0.5"/>
<text text-anchor="middle" x="314.5" y="-133.5" font-family="Helvetica,sans-Serif" font-size="10.00">SSpeed</text>
<polyline fill="none" stroke="black" points="255.5,-126.5 373.5,-126.5 "/>
<text text-anchor="start" x="263.5" y="-114.5" font-family="Helvetica,sans-Serif" font-size="10.00"># _speed</text>
<polyline fill="none" stroke="black" points="255.5,-107.5 373.5,-107.5 "/>
<text text-anchor="start" x="263.5" y="-95.5" font-family="Helvetica,sans-Serif" font-size="10.00">+ SSpeed()</text>
<text text-anchor="start" x="263.5" y="-84.5" font-family="Helvetica,sans-Serif" font-size="10.00">+ run()</text>
<text text-anchor="start" x="263.5" y="-73.5" font-family="Helvetica,sans-Serif" font-size="10.00">+ getSpeed()</text>
<text text-anchor="start" x="263.5" y="-62.5" font-family="Helvetica,sans-Serif" font-size="10.00"># _getSpeed()</text>
<text text-anchor="start" x="263.5" y="-51.5" font-family="Helvetica,sans-Serif" font-size="10.00"># _getSpeed()</text>
<text text-anchor="start" x="263.5" y="-40.5" font-family="Helvetica,sans-Serif" font-size="10.00"># _getSpeed()</text>
<text text-anchor="start" x="263.5" y="-29.5" font-family="Helvetica,sans-Serif" font-size="10.00"># _checkPlausibility()</text>
<text text-anchor="start" x="263.5" y="-18.5" font-family="Helvetica,sans-Serif" font-size="10.00"># _setThrottle()</text>
<text text-anchor="start" x="263.5" y="-7.5" font-family="Helvetica,sans-Serif" font-size="10.00"># _map()</text>
</g>
<!-- Node2 -->
<g id="node2" class="node"><title>Node2</title>
<g id="a_node2"><a xlink:href="class_i_service.html" target="_top" xlink:title="{IService\n||}">
<polygon fill="white" stroke="black" points="179.5,-458 179.5,-515 233.5,-515 233.5,-458 179.5,-458"/>
<text text-anchor="middle" x="206.5" y="-503" font-family="Helvetica,sans-Serif" font-size="10.00">IService</text>
<polyline fill="none" stroke="black" points="179.5,-496 233.5,-496 "/>
<text text-anchor="middle" x="206.5" y="-484" font-family="Helvetica,sans-Serif" font-size="10.00"> </text>
<polyline fill="none" stroke="black" points="179.5,-477 233.5,-477 "/>
<text text-anchor="middle" x="206.5" y="-465" font-family="Helvetica,sans-Serif" font-size="10.00"> </text>
</a>
</g>
</g>
<!-- Node2&#45;&gt;Node1 -->
<g id="edge1" class="edge"><title>Node2&#45;&gt;Node1</title>
<path fill="none" stroke="midnightblue" d="M193.58,-448.122C175.961,-390.632 150.562,-278.231 187.5,-193 201.558,-160.563 229.293,-132.919 255.268,-112.463"/>
<polygon fill="none" stroke="midnightblue" points="190.307,-449.382 196.654,-457.865 196.983,-447.276 190.307,-449.382"/>
</g>
<!-- Node7 -->
<g id="node7" class="node"><title>Node7</title>
<g id="a_node7"><a xlink:href="class_s_car.html" target="_top" xlink:title="{SCar\n||+ SCar()\l+ run()\l+ addError()\l+ processErrors()\l+ getState()\l+ setState()\l+ calibrationNeeded()\l+ startUp()\l+ getMaxPower()\l+ setMaxPower()\l}">
<polygon fill="white" stroke="black" points="196.5,-199 196.5,-355 318.5,-355 318.5,-199 196.5,-199"/>
<text text-anchor="middle" x="257.5" y="-343" font-family="Helvetica,sans-Serif" font-size="10.00">SCar</text>
<polyline fill="none" stroke="black" points="196.5,-336 318.5,-336 "/>
<text text-anchor="middle" x="257.5" y="-324" font-family="Helvetica,sans-Serif" font-size="10.00"> </text>
<polyline fill="none" stroke="black" points="196.5,-317 318.5,-317 "/>
<text text-anchor="start" x="204.5" y="-305" font-family="Helvetica,sans-Serif" font-size="10.00">+ SCar()</text>
<text text-anchor="start" x="204.5" y="-294" font-family="Helvetica,sans-Serif" font-size="10.00">+ run()</text>
<text text-anchor="start" x="204.5" y="-283" font-family="Helvetica,sans-Serif" font-size="10.00">+ addError()</text>
<text text-anchor="start" x="204.5" y="-272" font-family="Helvetica,sans-Serif" font-size="10.00">+ processErrors()</text>
<text text-anchor="start" x="204.5" y="-261" font-family="Helvetica,sans-Serif" font-size="10.00">+ getState()</text>
<text text-anchor="start" x="204.5" y="-250" font-family="Helvetica,sans-Serif" font-size="10.00">+ setState()</text>
<text text-anchor="start" x="204.5" y="-239" font-family="Helvetica,sans-Serif" font-size="10.00">+ calibrationNeeded()</text>
<text text-anchor="start" x="204.5" y="-228" font-family="Helvetica,sans-Serif" font-size="10.00">+ startUp()</text>
<text text-anchor="start" x="204.5" y="-217" font-family="Helvetica,sans-Serif" font-size="10.00">+ getMaxPower()</text>
<text text-anchor="start" x="204.5" y="-206" font-family="Helvetica,sans-Serif" font-size="10.00">+ setMaxPower()</text>
</a>
</g>
</g>
<!-- Node2&#45;&gt;Node7 -->
<g id="edge7" class="edge"><title>Node2&#45;&gt;Node7</title>
<path fill="none" stroke="midnightblue" d="M215.668,-448.199C222.012,-422.389 230.683,-387.108 238.487,-355.359"/>
<polygon fill="none" stroke="midnightblue" points="212.26,-447.399 213.272,-457.946 219.058,-449.07 212.26,-447.399"/>
</g>
<!-- Node3 -->
<g id="node3" class="node"><title>Node3</title>
<g id="a_node3"><a xlink:href="class_i_runable.html" target="_top" xlink:title="{IRunable\n||+ IRunable()\l+ run()\l+ setStatus()\l+ getStatus()\l}">
<polygon fill="white" stroke="black" points="253,-1070 253,-1160 336,-1160 336,-1070 253,-1070"/>
<text text-anchor="middle" x="294.5" y="-1148" font-family="Helvetica,sans-Serif" font-size="10.00">IRunable</text>
<polyline fill="none" stroke="black" points="253,-1141 336,-1141 "/>
<text text-anchor="middle" x="294.5" y="-1129" font-family="Helvetica,sans-Serif" font-size="10.00"> </text>
<polyline fill="none" stroke="black" points="253,-1122 336,-1122 "/>
<text text-anchor="start" x="261" y="-1110" font-family="Helvetica,sans-Serif" font-size="10.00">+ IRunable()</text>
<text text-anchor="start" x="261" y="-1099" font-family="Helvetica,sans-Serif" font-size="10.00">+ run()</text>
<text text-anchor="start" x="261" y="-1088" font-family="Helvetica,sans-Serif" font-size="10.00">+ setStatus()</text>
<text text-anchor="start" x="261" y="-1077" font-family="Helvetica,sans-Serif" font-size="10.00">+ getStatus()</text>
</a>
</g>
</g>
<!-- Node3&#45;&gt;Node2 -->
<g id="edge2" class="edge"><title>Node3&#45;&gt;Node2</title>
<path fill="none" stroke="midnightblue" d="M268.262,-1060.41C252.785,-1026.02 234.514,-979.928 225.5,-937 192.595,-780.296 200.206,-586.321 204.544,-515.254"/>
<polygon fill="none" stroke="midnightblue" points="265.206,-1062.14 272.543,-1069.79 271.573,-1059.24 265.206,-1062.14"/>
</g>
<!-- Node12 -->
<g id="node12" class="node"><title>Node12</title>
<g id="a_node12"><a xlink:href="class_sync.html" target="_top" xlink:title="{Sync\n||+ Sync()\l+ addComponent()\l+ addBridge()\l+ receive()\l+ send()\l+ run()\l+ messageInQueue()\l+ finalize()\l+ Sync()\l+ receive()\land 7 more...\l}">
<polygon fill="white" stroke="black" points="235,-769.5 235,-936.5 354,-936.5 354,-769.5 235,-769.5"/>
<text text-anchor="middle" x="294.5" y="-924.5" font-family="Helvetica,sans-Serif" font-size="10.00">Sync</text>
<polyline fill="none" stroke="black" points="235,-917.5 354,-917.5 "/>
<text text-anchor="middle" x="294.5" y="-905.5" font-family="Helvetica,sans-Serif" font-size="10.00"> </text>
<polyline fill="none" stroke="black" points="235,-898.5 354,-898.5 "/>
<text text-anchor="start" x="243" y="-886.5" font-family="Helvetica,sans-Serif" font-size="10.00">+ Sync()</text>
<text text-anchor="start" x="243" y="-875.5" font-family="Helvetica,sans-Serif" font-size="10.00">+ addComponent()</text>
<text text-anchor="start" x="243" y="-864.5" font-family="Helvetica,sans-Serif" font-size="10.00">+ addBridge()</text>
<text text-anchor="start" x="243" y="-853.5" font-family="Helvetica,sans-Serif" font-size="10.00">+ receive()</text>
<text text-anchor="start" x="243" y="-842.5" font-family="Helvetica,sans-Serif" font-size="10.00">+ send()</text>
<text text-anchor="start" x="243" y="-831.5" font-family="Helvetica,sans-Serif" font-size="10.00">+ run()</text>
<text text-anchor="start" x="243" y="-820.5" font-family="Helvetica,sans-Serif" font-size="10.00">+ messageInQueue()</text>
<text text-anchor="start" x="243" y="-809.5" font-family="Helvetica,sans-Serif" font-size="10.00">+ finalize()</text>
<text text-anchor="start" x="243" y="-798.5" font-family="Helvetica,sans-Serif" font-size="10.00">+ Sync()</text>
<text text-anchor="start" x="243" y="-787.5" font-family="Helvetica,sans-Serif" font-size="10.00">+ receive()</text>
<text text-anchor="start" x="243" y="-776.5" font-family="Helvetica,sans-Serif" font-size="10.00">and 7 more...</text>
</a>
</g>
</g>
<!-- Node3&#45;&gt;Node12 -->
<g id="edge15" class="edge"><title>Node3&#45;&gt;Node12</title>
<path fill="none" stroke="midnightblue" d="M288.893,-1059.72C287.673,-1024.15 287.43,-976.965 288.163,-936.76"/>
<polygon fill="none" stroke="midnightblue" points="285.403,-1060.04 289.283,-1069.89 292.398,-1059.77 285.403,-1060.04"/>
</g>
<!-- Node3&#45;&gt;Node12 -->
<g id="edge16" class="edge"><title>Node3&#45;&gt;Node12</title>
<path fill="none" stroke="midnightblue" d="M300.107,-1059.72C301.327,-1024.15 301.57,-976.965 300.837,-936.76"/>
<polygon fill="none" stroke="midnightblue" points="296.602,-1059.77 299.717,-1069.89 303.597,-1060.04 296.602,-1059.77"/>
</g>
<!-- Node4 -->
<g id="node4" class="node"><title>Node4</title>
<g id="a_node4"><a xlink:href="class_i_component.html" target="_top" xlink:title="{IComponent\n||+ IComponent()\l+ IComponent()\l+ setComponentSubId()\l+ getComponentType()\l+ getComponentSubId()\l+ getComponentId()\l+ getObjectType()\l# setComponentType()\l# setObjectType()\l}">
<polygon fill="white" stroke="black" points="315.5,-1236.5 315.5,-1381.5 449.5,-1381.5 449.5,-1236.5 315.5,-1236.5"/>
<text text-anchor="middle" x="382.5" y="-1369.5" font-family="Helvetica,sans-Serif" font-size="10.00">IComponent</text>
<polyline fill="none" stroke="black" points="315.5,-1362.5 449.5,-1362.5 "/>
<text text-anchor="middle" x="382.5" y="-1350.5" font-family="Helvetica,sans-Serif" font-size="10.00"> </text>
<polyline fill="none" stroke="black" points="315.5,-1343.5 449.5,-1343.5 "/>
<text text-anchor="start" x="323.5" y="-1331.5" font-family="Helvetica,sans-Serif" font-size="10.00">+ IComponent()</text>
<text text-anchor="start" x="323.5" y="-1320.5" font-family="Helvetica,sans-Serif" font-size="10.00">+ IComponent()</text>
<text text-anchor="start" x="323.5" y="-1309.5" font-family="Helvetica,sans-Serif" font-size="10.00">+ setComponentSubId()</text>
<text text-anchor="start" x="323.5" y="-1298.5" font-family="Helvetica,sans-Serif" font-size="10.00">+ getComponentType()</text>
<text text-anchor="start" x="323.5" y="-1287.5" font-family="Helvetica,sans-Serif" font-size="10.00">+ getComponentSubId()</text>
<text text-anchor="start" x="323.5" y="-1276.5" font-family="Helvetica,sans-Serif" font-size="10.00">+ getComponentId()</text>
<text text-anchor="start" x="323.5" y="-1265.5" font-family="Helvetica,sans-Serif" font-size="10.00">+ getObjectType()</text>
<text text-anchor="start" x="323.5" y="-1254.5" font-family="Helvetica,sans-Serif" font-size="10.00"># setComponentType()</text>
<text text-anchor="start" x="323.5" y="-1243.5" font-family="Helvetica,sans-Serif" font-size="10.00"># setObjectType()</text>
</a>
</g>
</g>
<!-- Node4&#45;&gt;Node3 -->
<g id="edge3" class="edge"><title>Node4&#45;&gt;Node3</title>
<path fill="none" stroke="midnightblue" d="M345.308,-1226.85C334.817,-1203.97 323.798,-1179.92 314.713,-1160.1"/>
<polygon fill="none" stroke="midnightblue" points="342.259,-1228.6 349.607,-1236.23 348.622,-1225.68 342.259,-1228.6"/>
</g>
<!-- Node8 -->
<g id="node8" class="node"><title>Node8</title>
<g id="a_node8"><a xlink:href="class_i_motor_controller.html" target="_top" xlink:title="{IMotorController\n||+ IMotorController()\l+ getState()\l+ setState()\l+ setTorque()\l+ getSpeed()\l+ getCurrent()\l+ getMotorTemp()\l+ getServoTemp()\l+ getAirTemp()\l+ setRFE()\land 6 more...\l}">
<polygon fill="white" stroke="black" points="397.5,-583.5 397.5,-750.5 509.5,-750.5 509.5,-583.5 397.5,-583.5"/>
<text text-anchor="middle" x="453.5" y="-738.5" font-family="Helvetica,sans-Serif" font-size="10.00">IMotorController</text>
<polyline fill="none" stroke="black" points="397.5,-731.5 509.5,-731.5 "/>
<text text-anchor="middle" x="453.5" y="-719.5" font-family="Helvetica,sans-Serif" font-size="10.00"> </text>
<polyline fill="none" stroke="black" points="397.5,-712.5 509.5,-712.5 "/>
<text text-anchor="start" x="405.5" y="-700.5" font-family="Helvetica,sans-Serif" font-size="10.00">+ IMotorController()</text>
<text text-anchor="start" x="405.5" y="-689.5" font-family="Helvetica,sans-Serif" font-size="10.00">+ getState()</text>
<text text-anchor="start" x="405.5" y="-678.5" font-family="Helvetica,sans-Serif" font-size="10.00">+ setState()</text>
<text text-anchor="start" x="405.5" y="-667.5" font-family="Helvetica,sans-Serif" font-size="10.00">+ setTorque()</text>
<text text-anchor="start" x="405.5" y="-656.5" font-family="Helvetica,sans-Serif" font-size="10.00">+ getSpeed()</text>
<text text-anchor="start" x="405.5" y="-645.5" font-family="Helvetica,sans-Serif" font-size="10.00">+ getCurrent()</text>
<text text-anchor="start" x="405.5" y="-634.5" font-family="Helvetica,sans-Serif" font-size="10.00">+ getMotorTemp()</text>
<text text-anchor="start" x="405.5" y="-623.5" font-family="Helvetica,sans-Serif" font-size="10.00">+ getServoTemp()</text>
<text text-anchor="start" x="405.5" y="-612.5" font-family="Helvetica,sans-Serif" font-size="10.00">+ getAirTemp()</text>
<text text-anchor="start" x="405.5" y="-601.5" font-family="Helvetica,sans-Serif" font-size="10.00">+ setRFE()</text>
<text text-anchor="start" x="405.5" y="-590.5" font-family="Helvetica,sans-Serif" font-size="10.00">and 6 more...</text>
</a>
</g>
</g>
<!-- Node4&#45;&gt;Node8 -->
<g id="edge9" class="edge"><title>Node4&#45;&gt;Node8</title>
<path fill="none" stroke="midnightblue" d="M400.041,-1226.24C411.996,-1167.25 427.122,-1085.56 435.5,-1013 445.801,-923.777 450.21,-820.886 452.095,-750.848"/>
<polygon fill="none" stroke="midnightblue" points="396.57,-1225.74 398,-1236.24 403.429,-1227.14 396.57,-1225.74"/>
</g>
<!-- Node11 -->
<g id="node11" class="node"><title>Node11</title>
<g id="a_node11"><a xlink:href="class_i_communication.html" target="_top" xlink:title="{ICommunication\n||+ receive()\l}">
<polygon fill="white" stroke="black" points="335,-955.5 335,-1012.5 430,-1012.5 430,-955.5 335,-955.5"/>
<text text-anchor="middle" x="382.5" y="-1000.5" font-family="Helvetica,sans-Serif" font-size="10.00">ICommunication</text>
<polyline fill="none" stroke="black" points="335,-993.5 430,-993.5 "/>
<text text-anchor="middle" x="382.5" y="-981.5" font-family="Helvetica,sans-Serif" font-size="10.00"> </text>
<polyline fill="none" stroke="black" points="335,-974.5 430,-974.5 "/>
<text text-anchor="start" x="343" y="-962.5" font-family="Helvetica,sans-Serif" font-size="10.00">+ receive()</text>
</a>
</g>
</g>
<!-- Node4&#45;&gt;Node11 -->
<g id="edge13" class="edge"><title>Node4&#45;&gt;Node11</title>
<path fill="none" stroke="midnightblue" d="M382.5,-1226.2C382.5,-1156.26 382.5,-1059.71 382.5,-1012.81"/>
<polygon fill="none" stroke="midnightblue" points="379,-1226.32 382.5,-1236.32 386,-1226.32 379,-1226.32"/>
</g>
<!-- Node5 -->
<g id="node5" class="node"><title>Node5</title>
<g id="a_node5"><a xlink:href="class_i_logable.html" target="_top" xlink:title="{ILogable\n||+ setStatus()\l+ getStatus()\l+ getLogValueCount()\l+ getLogValue()\l}">
<polygon fill="white" stroke="black" points="321,-1419.5 321,-1509.5 444,-1509.5 444,-1419.5 321,-1419.5"/>
<text text-anchor="middle" x="382.5" y="-1497.5" font-family="Helvetica,sans-Serif" font-size="10.00">ILogable</text>
<polyline fill="none" stroke="black" points="321,-1490.5 444,-1490.5 "/>
<text text-anchor="middle" x="382.5" y="-1478.5" font-family="Helvetica,sans-Serif" font-size="10.00"> </text>
<polyline fill="none" stroke="black" points="321,-1471.5 444,-1471.5 "/>
<text text-anchor="start" x="329" y="-1459.5" font-family="Helvetica,sans-Serif" font-size="10.00">+ setStatus()</text>
<text text-anchor="start" x="329" y="-1448.5" font-family="Helvetica,sans-Serif" font-size="10.00">+ getStatus()</text>
<text text-anchor="start" x="329" y="-1437.5" font-family="Helvetica,sans-Serif" font-size="10.00">+ getLogValueCount()</text>
<text text-anchor="start" x="329" y="-1426.5" font-family="Helvetica,sans-Serif" font-size="10.00">+ getLogValue()</text>
</a>
</g>
</g>
<!-- Node5&#45;&gt;Node4 -->
<g id="edge4" class="edge"><title>Node5&#45;&gt;Node4</title>
<path fill="none" stroke="midnightblue" d="M382.5,-1408.98C382.5,-1400.16 382.5,-1390.92 382.5,-1381.77"/>
<polygon fill="none" stroke="midnightblue" points="379,-1409.1 382.5,-1419.1 386,-1409.1 379,-1409.1"/>
</g>
<!-- Node6 -->
<g id="node6" class="node"><title>Node6</title>
<g id="a_node6"><a xlink:href="class_non_copyable.html" target="_top" xlink:title="{NonCopyable\&lt; ILogable \&gt;\n||+ NonCopyable()\l}">
<polygon fill="white" stroke="black" points="311,-1547.5 311,-1604.5 454,-1604.5 454,-1547.5 311,-1547.5"/>
<text text-anchor="middle" x="382.5" y="-1592.5" font-family="Helvetica,sans-Serif" font-size="10.00">NonCopyable&lt; ILogable &gt;</text>
<polyline fill="none" stroke="black" points="311,-1585.5 454,-1585.5 "/>
<text text-anchor="middle" x="382.5" y="-1573.5" font-family="Helvetica,sans-Serif" font-size="10.00"> </text>
<polyline fill="none" stroke="black" points="311,-1566.5 454,-1566.5 "/>
<text text-anchor="start" x="319" y="-1554.5" font-family="Helvetica,sans-Serif" font-size="10.00">+ NonCopyable()</text>
</a>
</g>
</g>
<!-- Node6&#45;&gt;Node5 -->
<g id="edge5" class="edge"><title>Node6&#45;&gt;Node5</title>
<path fill="none" stroke="#8b1a1a" d="M382.5,-1537.31C382.5,-1528.43 382.5,-1518.88 382.5,-1509.74"/>
<polygon fill="none" stroke="#8b1a1a" points="379,-1537.37 382.5,-1547.37 386,-1537.37 379,-1537.37"/>
</g>
<!-- Node7&#45;&gt;Node1 -->
<g id="edge6" class="edge"><title>Node7&#45;&gt;Node1</title>
<path fill="none" stroke="#404040" d="M266.423,-198.891C268.586,-187.09 271.244,-175.137 274.5,-164 275.166,-161.723 275.877,-159.428 276.626,-157.125"/>
<polygon fill="none" stroke="#404040" points="276.705,-156.9 274.908,-149.917 280.663,-145.572 282.46,-152.555 276.705,-156.9"/>
<text text-anchor="middle" x="308" y="-167" font-family="Helvetica,sans-Serif" font-size="10.00"> #_carService</text>
</g>
<!-- Node8&#45;&gt;Node1 -->
<g id="edge8" class="edge"><title>Node8&#45;&gt;Node1</title>
<path fill="none" stroke="#404040" d="M465.456,-583.329C475.957,-485.975 482.355,-321.291 429.5,-193 419.25,-168.121 401.108,-145.518 382.22,-126.856"/>
<polygon fill="none" stroke="#404040" points="382.205,-126.842 375.101,-125.6 373.515,-118.565 380.619,-119.807 382.205,-126.842"/>
<text text-anchor="middle" x="516" y="-382" font-family="Helvetica,sans-Serif" font-size="10.00"> #_motorController</text>
</g>
<!-- Node9 -->
<g id="node9" class="node"><title>Node9</title>
<g id="a_node9"><a xlink:href="class_i_registry.html" target="_top" xlink:title="{IRegistry\n||+ IRegistry()\l+ getReady()\l+ setReady()\l+ getFloat()\l+ getUInt8()\l+ getUInt16()\l+ getUInt32()\l+ getInt8()\l+ getInt16()\l+ getInt32()\land 9 more...\l}">
<polygon fill="white" stroke="black" points="337,-193.5 337,-360.5 420,-360.5 420,-193.5 337,-193.5"/>
<text text-anchor="middle" x="378.5" y="-348.5" font-family="Helvetica,sans-Serif" font-size="10.00">IRegistry</text>
<polyline fill="none" stroke="black" points="337,-341.5 420,-341.5 "/>
<text text-anchor="middle" x="378.5" y="-329.5" font-family="Helvetica,sans-Serif" font-size="10.00"> </text>
<polyline fill="none" stroke="black" points="337,-322.5 420,-322.5 "/>
<text text-anchor="start" x="345" y="-310.5" font-family="Helvetica,sans-Serif" font-size="10.00">+ IRegistry()</text>
<text text-anchor="start" x="345" y="-299.5" font-family="Helvetica,sans-Serif" font-size="10.00">+ getReady()</text>
<text text-anchor="start" x="345" y="-288.5" font-family="Helvetica,sans-Serif" font-size="10.00">+ setReady()</text>
<text text-anchor="start" x="345" y="-277.5" font-family="Helvetica,sans-Serif" font-size="10.00">+ getFloat()</text>
<text text-anchor="start" x="345" y="-266.5" font-family="Helvetica,sans-Serif" font-size="10.00">+ getUInt8()</text>
<text text-anchor="start" x="345" y="-255.5" font-family="Helvetica,sans-Serif" font-size="10.00">+ getUInt16()</text>
<text text-anchor="start" x="345" y="-244.5" font-family="Helvetica,sans-Serif" font-size="10.00">+ getUInt32()</text>
<text text-anchor="start" x="345" y="-233.5" font-family="Helvetica,sans-Serif" font-size="10.00">+ getInt8()</text>
<text text-anchor="start" x="345" y="-222.5" font-family="Helvetica,sans-Serif" font-size="10.00">+ getInt16()</text>
<text text-anchor="start" x="345" y="-211.5" font-family="Helvetica,sans-Serif" font-size="10.00">+ getInt32()</text>
<text text-anchor="start" x="345" y="-200.5" font-family="Helvetica,sans-Serif" font-size="10.00">and 9 more...</text>
</a>
</g>
</g>
<!-- Node9&#45;&gt;Node1 -->
<g id="edge10" class="edge"><title>Node9&#45;&gt;Node1</title>
<path fill="none" stroke="#404040" d="M352.284,-193.256C348.53,-181.407 344.666,-169.212 340.908,-157.351"/>
<polygon fill="none" stroke="#404040" points="340.818,-157.067 335.193,-152.555 337.194,-145.627 342.819,-150.139 340.818,-157.067"/>
<text text-anchor="middle" x="373" y="-167" font-family="Helvetica,sans-Serif" font-size="10.00"> #_registry</text>
</g>
<!-- Node10 -->
<g id="node10" class="node"><title>Node10</title>
<g id="a_node10"><a xlink:href="class_self_syncable.html" target="_top" xlink:title="{SelfSyncable\n|# _syncerAttached\l|+ attach()\l+ detach()\l# _sendCommand()\l# _sendCommand()\l# _sendCommand()\l# _send()\l# _convertFloat()\l# _reconvertFloat()\l# _disassambleFloat()\l# _reassambleFloat()\l}">
<polygon fill="white" stroke="black" points="301.5,-408.5 301.5,-564.5 425.5,-564.5 425.5,-408.5 301.5,-408.5"/>
<text text-anchor="middle" x="363.5" y="-552.5" font-family="Helvetica,sans-Serif" font-size="10.00">SelfSyncable</text>
<polyline fill="none" stroke="black" points="301.5,-545.5 425.5,-545.5 "/>
<text text-anchor="start" x="309.5" y="-533.5" font-family="Helvetica,sans-Serif" font-size="10.00"># _syncerAttached</text>
<polyline fill="none" stroke="black" points="301.5,-526.5 425.5,-526.5 "/>
<text text-anchor="start" x="309.5" y="-514.5" font-family="Helvetica,sans-Serif" font-size="10.00">+ attach()</text>
<text text-anchor="start" x="309.5" y="-503.5" font-family="Helvetica,sans-Serif" font-size="10.00">+ detach()</text>
<text text-anchor="start" x="309.5" y="-492.5" font-family="Helvetica,sans-Serif" font-size="10.00"># _sendCommand()</text>
<text text-anchor="start" x="309.5" y="-481.5" font-family="Helvetica,sans-Serif" font-size="10.00"># _sendCommand()</text>
<text text-anchor="start" x="309.5" y="-470.5" font-family="Helvetica,sans-Serif" font-size="10.00"># _sendCommand()</text>
<text text-anchor="start" x="309.5" y="-459.5" font-family="Helvetica,sans-Serif" font-size="10.00"># _send()</text>
<text text-anchor="start" x="309.5" y="-448.5" font-family="Helvetica,sans-Serif" font-size="10.00"># _convertFloat()</text>
<text text-anchor="start" x="309.5" y="-437.5" font-family="Helvetica,sans-Serif" font-size="10.00"># _reconvertFloat()</text>
<text text-anchor="start" x="309.5" y="-426.5" font-family="Helvetica,sans-Serif" font-size="10.00"># _disassambleFloat()</text>
<text text-anchor="start" x="309.5" y="-415.5" font-family="Helvetica,sans-Serif" font-size="10.00"># _reassambleFloat()</text>
</a>
</g>
</g>
<!-- Node10&#45;&gt;Node9 -->
<g id="edge11" class="edge"><title>Node10&#45;&gt;Node9</title>
<path fill="none" stroke="midnightblue" d="M369.831,-397.92C370.726,-385.534 371.645,-372.832 372.533,-360.545"/>
<polygon fill="none" stroke="midnightblue" points="366.316,-398.008 369.085,-408.235 373.297,-398.513 366.316,-398.008"/>
</g>
<!-- Node11&#45;&gt;Node10 -->
<g id="edge12" class="edge"><title>Node11&#45;&gt;Node10</title>
<path fill="none" stroke="midnightblue" d="M381.393,-945.116C379.268,-874.085 374.311,-716.053 368.5,-583 368.239,-577.029 367.953,-570.848 367.653,-564.636"/>
<polygon fill="none" stroke="midnightblue" points="377.901,-945.46 381.697,-955.352 384.898,-945.252 377.901,-945.46"/>
</g>
<!-- Node12&#45;&gt;Node10 -->
<g id="edge14" class="edge"><title>Node12&#45;&gt;Node10</title>
<path fill="none" stroke="#404040" d="M294.987,-769.209C297.055,-715.352 303.117,-644.041 319.5,-583 320.112,-580.719 320.775,-578.425 321.481,-576.124"/>
<polygon fill="none" stroke="#404040" points="321.53,-575.979 319.647,-569.018 325.348,-564.603 327.231,-571.564 321.53,-575.979"/>
<text text-anchor="middle" x="344" y="-664.5" font-family="Helvetica,sans-Serif" font-size="10.00"> #_syncer</text>
</g>
<!-- Node13 -->
<g id="node13" class="node"><title>Node13</title>
<g id="a_node13"><a xlink:href="classstd_1_1vector.html" target="_top" xlink:title="{std::vector\&lt; CarMessage \&gt;\n||+ ~vector()\l+ at()\l+ operator[]()\l+ front()\l+ back()\l+ data()\l+ begin()\l+ end()\l+ empty()\l+ size()\land 7 more...\l}">
<polygon fill="white" stroke="black" points="0,-1031.5 0,-1198.5 149,-1198.5 149,-1031.5 0,-1031.5"/>
<text text-anchor="middle" x="74.5" y="-1186.5" font-family="Helvetica,sans-Serif" font-size="10.00">std::vector&lt; CarMessage &gt;</text>
<polyline fill="none" stroke="black" points="0,-1179.5 149,-1179.5 "/>
<text text-anchor="middle" x="74.5" y="-1167.5" font-family="Helvetica,sans-Serif" font-size="10.00"> </text>
<polyline fill="none" stroke="black" points="0,-1160.5 149,-1160.5 "/>
<text text-anchor="start" x="8" y="-1148.5" font-family="Helvetica,sans-Serif" font-size="10.00">+ ~vector()</text>
<text text-anchor="start" x="8" y="-1137.5" font-family="Helvetica,sans-Serif" font-size="10.00">+ at()</text>
<text text-anchor="start" x="8" y="-1126.5" font-family="Helvetica,sans-Serif" font-size="10.00">+ operator[]()</text>
<text text-anchor="start" x="8" y="-1115.5" font-family="Helvetica,sans-Serif" font-size="10.00">+ front()</text>
<text text-anchor="start" x="8" y="-1104.5" font-family="Helvetica,sans-Serif" font-size="10.00">+ back()</text>
<text text-anchor="start" x="8" y="-1093.5" font-family="Helvetica,sans-Serif" font-size="10.00">+ data()</text>
<text text-anchor="start" x="8" y="-1082.5" font-family="Helvetica,sans-Serif" font-size="10.00">+ begin()</text>
<text text-anchor="start" x="8" y="-1071.5" font-family="Helvetica,sans-Serif" font-size="10.00">+ end()</text>
<text text-anchor="start" x="8" y="-1060.5" font-family="Helvetica,sans-Serif" font-size="10.00">+ empty()</text>
<text text-anchor="start" x="8" y="-1049.5" font-family="Helvetica,sans-Serif" font-size="10.00">+ size()</text>
<text text-anchor="start" x="8" y="-1038.5" font-family="Helvetica,sans-Serif" font-size="10.00">and 7 more...</text>
</a>
</g>
</g>
<!-- Node13&#45;&gt;Node12 -->
<g id="edge17" class="edge"><title>Node13&#45;&gt;Node12</title>
<path fill="none" stroke="#404040" d="M119.154,-1031.27C134.758,-1005.62 153.435,-978.059 173.5,-955 188.872,-937.334 207.49,-920.191 225.464,-905.197"/>
<polygon fill="none" stroke="#404040" points="225.502,-905.166 227.608,-898.269 234.784,-897.561 232.678,-904.457 225.502,-905.166"/>
<text text-anchor="middle" x="232" y="-981.5" font-family="Helvetica,sans-Serif" font-size="10.00"> +receivedCarMessages</text>
</g>
<!-- Node14 -->
<g id="node14" class="node"><title>Node14</title>
<g id="a_node14"><a xlink:href="class_non_copyable.html" target="_top" xlink:title="{NonCopyable\&lt; vector\l\&lt; CarMessage, unsigned\l int \&gt; \&gt;\n||+ NonCopyable()\l}">
<polygon fill="white" stroke="black" points="6,-1269.5 6,-1348.5 143,-1348.5 143,-1269.5 6,-1269.5"/>
<text text-anchor="start" x="14" y="-1336.5" font-family="Helvetica,sans-Serif" font-size="10.00">NonCopyable&lt; vector</text>
<text text-anchor="start" x="14" y="-1325.5" font-family="Helvetica,sans-Serif" font-size="10.00">&lt; CarMessage, unsigned</text>
<text text-anchor="middle" x="74.5" y="-1314.5" font-family="Helvetica,sans-Serif" font-size="10.00"> int &gt; &gt;</text>
<polyline fill="none" stroke="black" points="6,-1307.5 143,-1307.5 "/>
<text text-anchor="middle" x="74.5" y="-1295.5" font-family="Helvetica,sans-Serif" font-size="10.00"> </text>
<polyline fill="none" stroke="black" points="6,-1288.5 143,-1288.5 "/>
<text text-anchor="start" x="14" y="-1276.5" font-family="Helvetica,sans-Serif" font-size="10.00">+ NonCopyable()</text>
</a>
</g>
</g>
<!-- Node14&#45;&gt;Node13 -->
<g id="edge18" class="edge"><title>Node14&#45;&gt;Node13</title>
<path fill="none" stroke="#8b1a1a" d="M74.5,-1259.02C74.5,-1240.7 74.5,-1219.34 74.5,-1198.81"/>
<polygon fill="none" stroke="#8b1a1a" points="71.0001,-1259.15 74.5,-1269.15 78.0001,-1259.15 71.0001,-1259.15"/>
</g>
</g>
</svg>
