<?xml version="1.0" encoding="UTF-8" standalone="no"?>
<!DOCTYPE svg PUBLIC "-//W3C//DTD SVG 1.1//EN"
 "http://www.w3.org/Graphics/SVG/1.1/DTD/svg11.dtd">
<!-- Generated by graphviz version 2.38.0 (20140413.2041)
 -->
<!-- Title: HardwareAnalogSensor Pages: 1 -->
<svg width="1018pt" height="1533pt"
 viewBox="0.00 0.00 1018.00 1533.00" xmlns="http://www.w3.org/2000/svg" xmlns:xlink="http://www.w3.org/1999/xlink">
<g id="graph0" class="graph" transform="scale(1 1) rotate(0) translate(4 1529)">
<title>HardwareAnalogSensor</title>
<polygon fill="white" stroke="none" points="-4,4 -4,-1529 1014,-1529 1014,4 -4,4"/>
<!-- Node1 -->
<g id="node1" class="node"><title>Node1</title>
<polygon fill="#bfbfbf" stroke="black" points="477.5,-0.5 477.5,-222.5 632.5,-222.5 632.5,-0.5 477.5,-0.5"/>
<text text-anchor="middle" x="555" y="-210.5" font-family="Helvetica,sans-Serif" font-size="10.00">HardwareAnalogSensor</text>
<polyline fill="none" stroke="black" points="477.5,-203.5 632.5,-203.5 "/>
<text text-anchor="start" x="485.5" y="-191.5" font-family="Helvetica,sans-Serif" font-size="10.00"># _stdValuesLoaded</text>
<text text-anchor="start" x="485.5" y="-180.5" font-family="Helvetica,sans-Serif" font-size="10.00"># _status</text>
<polyline fill="none" stroke="black" points="477.5,-173.5 632.5,-173.5 "/>
<text text-anchor="start" x="485.5" y="-161.5" font-family="Helvetica,sans-Serif" font-size="10.00">+ HardwareAnalogSensor()</text>
<text text-anchor="start" x="485.5" y="-150.5" font-family="Helvetica,sans-Serif" font-size="10.00">+ setMapping()</text>
<text text-anchor="start" x="485.5" y="-139.5" font-family="Helvetica,sans-Serif" font-size="10.00">+ getMapping()</text>
<text text-anchor="start" x="485.5" y="-128.5" font-family="Helvetica,sans-Serif" font-size="10.00">+ setRawBoundary()</text>
<text text-anchor="start" x="485.5" y="-117.5" font-family="Helvetica,sans-Serif" font-size="10.00">+ setRawBoundaryOutTime()</text>
<text text-anchor="start" x="485.5" y="-106.5" font-family="Helvetica,sans-Serif" font-size="10.00">+ setBoundary()</text>
<text text-anchor="start" x="485.5" y="-95.5" font-family="Helvetica,sans-Serif" font-size="10.00">+ setBoundaryOutTime()</text>
<text text-anchor="start" x="485.5" y="-84.5" font-family="Helvetica,sans-Serif" font-size="10.00">+ getRawValue()</text>
<text text-anchor="start" x="485.5" y="-73.5" font-family="Helvetica,sans-Serif" font-size="10.00">+ getValue()</text>
<text text-anchor="start" x="485.5" y="-62.5" font-family="Helvetica,sans-Serif" font-size="10.00">+ setStatus()</text>
<text text-anchor="start" x="485.5" y="-51.5" font-family="Helvetica,sans-Serif" font-size="10.00">+ getStatus()</text>
<text text-anchor="start" x="485.5" y="-40.5" font-family="Helvetica,sans-Serif" font-size="10.00">+ reset()</text>
<text text-anchor="start" x="485.5" y="-29.5" font-family="Helvetica,sans-Serif" font-size="10.00"># _prepStdValues()</text>
<text text-anchor="start" x="485.5" y="-18.5" font-family="Helvetica,sans-Serif" font-size="10.00"># _restartTimer()</text>
<text text-anchor="start" x="485.5" y="-7.5" font-family="Helvetica,sans-Serif" font-size="10.00"># _getMapped()</text>
</g>
<!-- Node2 -->
<g id="node2" class="node"><title>Node2</title>
<g id="a_node2"><a xlink:href="class_i_analog_sensor.html" target="_top" xlink:title="{IAnalogSensor\n||+ setMapping()\l+ setRawBoundary()\l+ setRawBoundaryOutTime()\l+ setBoundary()\l+ setBoundaryOutTime()\l+ getRawValue()\l+ getValue()\l}">
<polygon fill="white" stroke="black" points="63.5,-292.5 63.5,-415.5 218.5,-415.5 218.5,-292.5 63.5,-292.5"/>
<text text-anchor="middle" x="141" y="-403.5" font-family="Helvetica,sans-Serif" font-size="10.00">IAnalogSensor</text>
<polyline fill="none" stroke="black" points="63.5,-396.5 218.5,-396.5 "/>
<text text-anchor="middle" x="141" y="-384.5" font-family="Helvetica,sans-Serif" font-size="10.00"> </text>
<polyline fill="none" stroke="black" points="63.5,-377.5 218.5,-377.5 "/>
<text text-anchor="start" x="71.5" y="-365.5" font-family="Helvetica,sans-Serif" font-size="10.00">+ setMapping()</text>
<text text-anchor="start" x="71.5" y="-354.5" font-family="Helvetica,sans-Serif" font-size="10.00">+ setRawBoundary()</text>
<text text-anchor="start" x="71.5" y="-343.5" font-family="Helvetica,sans-Serif" font-size="10.00">+ setRawBoundaryOutTime()</text>
<text text-anchor="start" x="71.5" y="-332.5" font-family="Helvetica,sans-Serif" font-size="10.00">+ setBoundary()</text>
<text text-anchor="start" x="71.5" y="-321.5" font-family="Helvetica,sans-Serif" font-size="10.00">+ setBoundaryOutTime()</text>
<text text-anchor="start" x="71.5" y="-310.5" font-family="Helvetica,sans-Serif" font-size="10.00">+ getRawValue()</text>
<text text-anchor="start" x="71.5" y="-299.5" font-family="Helvetica,sans-Serif" font-size="10.00">+ getValue()</text>
</a>
</g>
</g>
<!-- Node2&#45;&gt;Node1 -->
<g id="edge1" class="edge"><title>Node2&#45;&gt;Node1</title>
<path fill="none" stroke="midnightblue" d="M227.288,-302.045C245.347,-291.426 264.284,-280.325 282,-270 347.713,-231.704 422.55,-188.562 477.23,-157.126"/>
<polygon fill="none" stroke="midnightblue" points="225.346,-299.127 218.502,-307.214 228.895,-305.16 225.346,-299.127"/>
</g>
<!-- Node3 -->
<g id="node3" class="node"><title>Node3</title>
<g id="a_node3"><a xlink:href="class_non_copyable.html" target="_top" xlink:title="{NonCopyable\&lt; IAnalogSensor \&gt;\n||+ NonCopyable()\l}">
<polygon fill="white" stroke="black" points="0,-535 0,-592 172,-592 172,-535 0,-535"/>
<text text-anchor="middle" x="86" y="-580" font-family="Helvetica,sans-Serif" font-size="10.00">NonCopyable&lt; IAnalogSensor &gt;</text>
<polyline fill="none" stroke="black" points="0,-573 172,-573 "/>
<text text-anchor="middle" x="86" y="-561" font-family="Helvetica,sans-Serif" font-size="10.00"> </text>
<polyline fill="none" stroke="black" points="0,-554 172,-554 "/>
<text text-anchor="start" x="8" y="-542" font-family="Helvetica,sans-Serif" font-size="10.00">+ NonCopyable()</text>
</a>
</g>
</g>
<!-- Node3&#45;&gt;Node2 -->
<g id="edge2" class="edge"><title>Node3&#45;&gt;Node2</title>
<path fill="none" stroke="#8b1a1a" d="M95.8925,-525.178C103.943,-494.806 115.468,-451.326 124.853,-415.918"/>
<polygon fill="none" stroke="#8b1a1a" points="92.4826,-524.383 93.3036,-534.946 99.2489,-526.176 92.4826,-524.383"/>
</g>
<!-- Node4 -->
<g id="node4" class="node"><title>Node4</title>
<g id="a_node4"><a xlink:href="struct_hardware_analog_sensor_1_1__boundary.html" target="_top" xlink:title="{HardwareAnalogSensor\l::_boundary\n|+ percentage\l+ outTimerStarted\l+ outTimerLimit\l|}">
<polygon fill="white" stroke="black" points="291.5,-309 291.5,-399 420.5,-399 420.5,-309 291.5,-309"/>
<text text-anchor="start" x="299.5" y="-387" font-family="Helvetica,sans-Serif" font-size="10.00">HardwareAnalogSensor</text>
<text text-anchor="middle" x="356" y="-376" font-family="Helvetica,sans-Serif" font-size="10.00">::_boundary</text>
<polyline fill="none" stroke="black" points="291.5,-369 420.5,-369 "/>
<text text-anchor="start" x="299.5" y="-357" font-family="Helvetica,sans-Serif" font-size="10.00">+ percentage</text>
<text text-anchor="start" x="299.5" y="-346" font-family="Helvetica,sans-Serif" font-size="10.00">+ outTimerStarted</text>
<text text-anchor="start" x="299.5" y="-335" font-family="Helvetica,sans-Serif" font-size="10.00">+ outTimerLimit</text>
<polyline fill="none" stroke="black" points="291.5,-328 420.5,-328 "/>
<text text-anchor="middle" x="356" y="-316" font-family="Helvetica,sans-Serif" font-size="10.00"> </text>
</a>
</g>
</g>
<!-- Node4&#45;&gt;Node1 -->
<g id="edge3" class="edge"><title>Node4&#45;&gt;Node1</title>
<path fill="none" stroke="#404040" d="M392.5,-308.889C414.099,-282.785 442.427,-248.549 469.371,-215.986"/>
<polygon fill="none" stroke="#404040" points="469.652,-215.646 470.395,-208.474 477.302,-206.401 476.559,-213.574 469.652,-215.646"/>
<text text-anchor="middle" x="475" y="-244" font-family="Helvetica,sans-Serif" font-size="10.00"> #_boundary</text>
</g>
<!-- Node5 -->
<g id="node5" class="node"><title>Node5</title>
<g id="a_node5"><a xlink:href="struct_hardware_analog_sensor_1_1__boundary_1_1raw.html" target="_top" xlink:title="{HardwareAnalogSensor\l::_boundary::raw\n|+ lowerEnd\l+ upperEnd\l+ outTimerStarted\l+ outTimerLimit\l|}">
<polygon fill="white" stroke="black" points="190.5,-513 190.5,-614 319.5,-614 319.5,-513 190.5,-513"/>
<text text-anchor="start" x="198.5" y="-602" font-family="Helvetica,sans-Serif" font-size="10.00">HardwareAnalogSensor</text>
<text text-anchor="middle" x="255" y="-591" font-family="Helvetica,sans-Serif" font-size="10.00">::_boundary::raw</text>
<polyline fill="none" stroke="black" points="190.5,-584 319.5,-584 "/>
<text text-anchor="start" x="198.5" y="-572" font-family="Helvetica,sans-Serif" font-size="10.00">+ lowerEnd</text>
<text text-anchor="start" x="198.5" y="-561" font-family="Helvetica,sans-Serif" font-size="10.00">+ upperEnd</text>
<text text-anchor="start" x="198.5" y="-550" font-family="Helvetica,sans-Serif" font-size="10.00">+ outTimerStarted</text>
<text text-anchor="start" x="198.5" y="-539" font-family="Helvetica,sans-Serif" font-size="10.00">+ outTimerLimit</text>
<polyline fill="none" stroke="black" points="190.5,-532 319.5,-532 "/>
<text text-anchor="middle" x="255" y="-520" font-family="Helvetica,sans-Serif" font-size="10.00"> </text>
</a>
</g>
</g>
<!-- Node5&#45;&gt;Node4 -->
<g id="edge4" class="edge"><title>Node5&#45;&gt;Node4</title>
<path fill="none" stroke="#404040" d="M279.192,-512.799C294.279,-481.803 313.712,-441.878 329.257,-409.943"/>
<polygon fill="none" stroke="#404040" points="329.327,-409.798 328.357,-402.653 334.579,-399.008 335.55,-406.154 329.327,-409.798"/>
<text text-anchor="middle" x="320" y="-459" font-family="Helvetica,sans-Serif" font-size="10.00"> +raw</text>
</g>
<!-- Node6 -->
<g id="node6" class="node"><title>Node6</title>
<g id="a_node6"><a xlink:href="class_timer.html" target="_top" xlink:title="{Timer\n||}">
<polygon fill="white" stroke="black" points="266,-744.5 266,-801.5 310,-801.5 310,-744.5 266,-744.5"/>
<text text-anchor="middle" x="288" y="-789.5" font-family="Helvetica,sans-Serif" font-size="10.00">Timer</text>
<polyline fill="none" stroke="black" points="266,-782.5 310,-782.5 "/>
<text text-anchor="middle" x="288" y="-770.5" font-family="Helvetica,sans-Serif" font-size="10.00"> </text>
<polyline fill="none" stroke="black" points="266,-763.5 310,-763.5 "/>
<text text-anchor="middle" x="288" y="-751.5" font-family="Helvetica,sans-Serif" font-size="10.00"> </text>
</a>
</g>
</g>
<!-- Node6&#45;&gt;Node4 -->
<g id="edge9" class="edge"><title>Node6&#45;&gt;Node4</title>
<path fill="none" stroke="#404040" d="M302.778,-744.115C312.55,-724.292 324.685,-696.726 331,-671 352.833,-582.063 356.845,-475.228 356.979,-411.343"/>
<polygon fill="none" stroke="#404040" points="356.979,-411.156 352.969,-405.163 356.959,-399.156 360.969,-405.149 356.979,-411.156"/>
<text text-anchor="middle" x="383.5" y="-561" font-family="Helvetica,sans-Serif" font-size="10.00"> +outTimer</text>
</g>
<!-- Node6&#45;&gt;Node5 -->
<g id="edge5" class="edge"><title>Node6&#45;&gt;Node5</title>
<path fill="none" stroke="#404040" d="M283.618,-744.446C278.835,-714.374 271.026,-665.267 264.772,-625.945"/>
<polygon fill="none" stroke="#404040" points="264.771,-625.938 259.878,-620.641 262.886,-614.087 267.779,-619.384 264.771,-625.938"/>
<text text-anchor="middle" x="299.5" y="-663" font-family="Helvetica,sans-Serif" font-size="10.00"> +outTimer</text>
</g>
<!-- Node7 -->
<g id="node7" class="node"><title>Node7</title>
<g id="a_node7"><a xlink:href="class_i_timer.html" target="_top" xlink:title="{ITimer\n||+ ITimer()\l+ start()\l+ stop()\l+ reset()\l+ read()\l+ read_ms()\l+ operator float()\l# getMillis()\l}">
<polygon fill="white" stroke="black" points="237.5,-968 237.5,-1102 338.5,-1102 338.5,-968 237.5,-968"/>
<text text-anchor="middle" x="288" y="-1090" font-family="Helvetica,sans-Serif" font-size="10.00">ITimer</text>
<polyline fill="none" stroke="black" points="237.5,-1083 338.5,-1083 "/>
<text text-anchor="middle" x="288" y="-1071" font-family="Helvetica,sans-Serif" font-size="10.00"> </text>
<polyline fill="none" stroke="black" points="237.5,-1064 338.5,-1064 "/>
<text text-anchor="start" x="245.5" y="-1052" font-family="Helvetica,sans-Serif" font-size="10.00">+ ITimer()</text>
<text text-anchor="start" x="245.5" y="-1041" font-family="Helvetica,sans-Serif" font-size="10.00">+ start()</text>
<text text-anchor="start" x="245.5" y="-1030" font-family="Helvetica,sans-Serif" font-size="10.00">+ stop()</text>
<text text-anchor="start" x="245.5" y="-1019" font-family="Helvetica,sans-Serif" font-size="10.00">+ reset()</text>
<text text-anchor="start" x="245.5" y="-1008" font-family="Helvetica,sans-Serif" font-size="10.00">+ read()</text>
<text text-anchor="start" x="245.5" y="-997" font-family="Helvetica,sans-Serif" font-size="10.00">+ read_ms()</text>
<text text-anchor="start" x="245.5" y="-986" font-family="Helvetica,sans-Serif" font-size="10.00">+ operator float()</text>
<text text-anchor="start" x="245.5" y="-975" font-family="Helvetica,sans-Serif" font-size="10.00"># getMillis()</text>
</a>
</g>
</g>
<!-- Node7&#45;&gt;Node6 -->
<g id="edge6" class="edge"><title>Node7&#45;&gt;Node6</title>
<path fill="none" stroke="midnightblue" d="M281.785,-957.434C280.675,-905.015 281.292,-838.561 283.635,-801.745"/>
<polygon fill="none" stroke="midnightblue" points="278.292,-957.804 282.03,-967.718 285.29,-957.638 278.292,-957.804"/>
</g>
<!-- Node7&#45;&gt;Node6 -->
<g id="edge8" class="edge"><title>Node7&#45;&gt;Node6</title>
<path fill="none" stroke="midnightblue" d="M294.215,-957.434C295.325,-905.015 294.708,-838.561 292.365,-801.745"/>
<polygon fill="none" stroke="midnightblue" points="290.71,-957.638 293.97,-967.718 297.708,-957.804 290.71,-957.638"/>
</g>
<!-- Node8 -->
<g id="node8" class="node"><title>Node8</title>
<g id="a_node8"><a xlink:href="class_non_copyable.html" target="_top" xlink:title="{NonCopyable\&lt; ITimer \&gt;\n||+ NonCopyable()\l}">
<polygon fill="white" stroke="black" points="222,-1200.5 222,-1257.5 354,-1257.5 354,-1200.5 222,-1200.5"/>
<text text-anchor="middle" x="288" y="-1245.5" font-family="Helvetica,sans-Serif" font-size="10.00">NonCopyable&lt; ITimer &gt;</text>
<polyline fill="none" stroke="black" points="222,-1238.5 354,-1238.5 "/>
<text text-anchor="middle" x="288" y="-1226.5" font-family="Helvetica,sans-Serif" font-size="10.00"> </text>
<polyline fill="none" stroke="black" points="222,-1219.5 354,-1219.5 "/>
<text text-anchor="start" x="230" y="-1207.5" font-family="Helvetica,sans-Serif" font-size="10.00">+ NonCopyable()</text>
</a>
</g>
</g>
<!-- Node8&#45;&gt;Node7 -->
<g id="edge7" class="edge"><title>Node8&#45;&gt;Node7</title>
<path fill="none" stroke="#8b1a1a" d="M288,-1190.33C288,-1165.32 288,-1131.81 288,-1102.41"/>
<polygon fill="none" stroke="#8b1a1a" points="284.5,-1190.49 288,-1200.49 291.5,-1190.49 284.5,-1190.49"/>
</g>
<!-- Node9 -->
<g id="node9" class="node"><title>Node9</title>
<g id="a_node9"><a xlink:href="class_i_registry.html" target="_top" xlink:title="{IRegistry\n||+ IRegistry()\l+ getReady()\l+ setReady()\l+ getFloat()\l+ getUInt8()\l+ getUInt16()\l+ getUInt32()\l+ getInt8()\l+ getInt16()\l+ getInt32()\land 9 more...\l}">
<polygon fill="white" stroke="black" points="455.5,-270.5 455.5,-437.5 538.5,-437.5 538.5,-270.5 455.5,-270.5"/>
<text text-anchor="middle" x="497" y="-425.5" font-family="Helvetica,sans-Serif" font-size="10.00">IRegistry</text>
<polyline fill="none" stroke="black" points="455.5,-418.5 538.5,-418.5 "/>
<text text-anchor="middle" x="497" y="-406.5" font-family="Helvetica,sans-Serif" font-size="10.00"> </text>
<polyline fill="none" stroke="black" points="455.5,-399.5 538.5,-399.5 "/>
<text text-anchor="start" x="463.5" y="-387.5" font-family="Helvetica,sans-Serif" font-size="10.00">+ IRegistry()</text>
<text text-anchor="start" x="463.5" y="-376.5" font-family="Helvetica,sans-Serif" font-size="10.00">+ getReady()</text>
<text text-anchor="start" x="463.5" y="-365.5" font-family="Helvetica,sans-Serif" font-size="10.00">+ setReady()</text>
<text text-anchor="start" x="463.5" y="-354.5" font-family="Helvetica,sans-Serif" font-size="10.00">+ getFloat()</text>
<text text-anchor="start" x="463.5" y="-343.5" font-family="Helvetica,sans-Serif" font-size="10.00">+ getUInt8()</text>
<text text-anchor="start" x="463.5" y="-332.5" font-family="Helvetica,sans-Serif" font-size="10.00">+ getUInt16()</text>
<text text-anchor="start" x="463.5" y="-321.5" font-family="Helvetica,sans-Serif" font-size="10.00">+ getUInt32()</text>
<text text-anchor="start" x="463.5" y="-310.5" font-family="Helvetica,sans-Serif" font-size="10.00">+ getInt8()</text>
<text text-anchor="start" x="463.5" y="-299.5" font-family="Helvetica,sans-Serif" font-size="10.00">+ getInt16()</text>
<text text-anchor="start" x="463.5" y="-288.5" font-family="Helvetica,sans-Serif" font-size="10.00">+ getInt32()</text>
<text text-anchor="start" x="463.5" y="-277.5" font-family="Helvetica,sans-Serif" font-size="10.00">and 9 more...</text>
</a>
</g>
</g>
<!-- Node9&#45;&gt;Node1 -->
<g id="edge10" class="edge"><title>Node9&#45;&gt;Node1</title>
<path fill="none" stroke="#404040" d="M516.96,-270.234C519.737,-258.718 522.637,-246.693 525.544,-234.643"/>
<polygon fill="none" stroke="#404040" points="525.634,-234.268 523.152,-227.497 528.447,-222.602 530.929,-229.373 525.634,-234.268"/>
<text text-anchor="middle" x="549.5" y="-244" font-family="Helvetica,sans-Serif" font-size="10.00"> #_registry</text>
</g>
<!-- Node10 -->
<g id="node10" class="node"><title>Node10</title>
<g id="a_node10"><a xlink:href="class_self_syncable.html" target="_top" xlink:title="{SelfSyncable\n|# _syncerAttached\l|+ attach()\l+ detach()\l# _sendCommand()\l# _sendCommand()\l# _sendCommand()\l# _send()\l# _convertFloat()\l# _reconvertFloat()\l# _disassambleFloat()\l# _reassambleFloat()\l}">
<polygon fill="white" stroke="black" points="429,-485.5 429,-641.5 553,-641.5 553,-485.5 429,-485.5"/>
<text text-anchor="middle" x="491" y="-629.5" font-family="Helvetica,sans-Serif" font-size="10.00">SelfSyncable</text>
<polyline fill="none" stroke="black" points="429,-622.5 553,-622.5 "/>
<text text-anchor="start" x="437" y="-610.5" font-family="Helvetica,sans-Serif" font-size="10.00"># _syncerAttached</text>
<polyline fill="none" stroke="black" points="429,-603.5 553,-603.5 "/>
<text text-anchor="start" x="437" y="-591.5" font-family="Helvetica,sans-Serif" font-size="10.00">+ attach()</text>
<text text-anchor="start" x="437" y="-580.5" font-family="Helvetica,sans-Serif" font-size="10.00">+ detach()</text>
<text text-anchor="start" x="437" y="-569.5" font-family="Helvetica,sans-Serif" font-size="10.00"># _sendCommand()</text>
<text text-anchor="start" x="437" y="-558.5" font-family="Helvetica,sans-Serif" font-size="10.00"># _sendCommand()</text>
<text text-anchor="start" x="437" y="-547.5" font-family="Helvetica,sans-Serif" font-size="10.00"># _sendCommand()</text>
<text text-anchor="start" x="437" y="-536.5" font-family="Helvetica,sans-Serif" font-size="10.00"># _send()</text>
<text text-anchor="start" x="437" y="-525.5" font-family="Helvetica,sans-Serif" font-size="10.00"># _convertFloat()</text>
<text text-anchor="start" x="437" y="-514.5" font-family="Helvetica,sans-Serif" font-size="10.00"># _reconvertFloat()</text>
<text text-anchor="start" x="437" y="-503.5" font-family="Helvetica,sans-Serif" font-size="10.00"># _disassambleFloat()</text>
<text text-anchor="start" x="437" y="-492.5" font-family="Helvetica,sans-Serif" font-size="10.00"># _reassambleFloat()</text>
</a>
</g>
</g>
<!-- Node10&#45;&gt;Node9 -->
<g id="edge11" class="edge"><title>Node10&#45;&gt;Node9</title>
<path fill="none" stroke="midnightblue" d="M493.532,-474.92C493.891,-462.534 494.258,-449.832 494.613,-437.545"/>
<polygon fill="none" stroke="midnightblue" points="490.025,-475.138 493.234,-485.235 497.022,-475.34 490.025,-475.138"/>
</g>
<!-- Node11 -->
<g id="node11" class="node"><title>Node11</title>
<g id="a_node11"><a xlink:href="class_i_communication.html" target="_top" xlink:title="{ICommunication\n||+ receive()\l}">
<polygon fill="white" stroke="black" points="386.5,-875.5 386.5,-932.5 481.5,-932.5 481.5,-875.5 386.5,-875.5"/>
<text text-anchor="middle" x="434" y="-920.5" font-family="Helvetica,sans-Serif" font-size="10.00">ICommunication</text>
<polyline fill="none" stroke="black" points="386.5,-913.5 481.5,-913.5 "/>
<text text-anchor="middle" x="434" y="-901.5" font-family="Helvetica,sans-Serif" font-size="10.00"> </text>
<polyline fill="none" stroke="black" points="386.5,-894.5 481.5,-894.5 "/>
<text text-anchor="start" x="394.5" y="-882.5" font-family="Helvetica,sans-Serif" font-size="10.00">+ receive()</text>
</a>
</g>
</g>
<!-- Node11&#45;&gt;Node10 -->
<g id="edge12" class="edge"><title>Node11&#45;&gt;Node10</title>
<path fill="none" stroke="midnightblue" d="M433.751,-865.31C434.132,-822.257 436.804,-749.895 449,-689 452.113,-673.455 456.632,-657.174 461.563,-641.703"/>
<polygon fill="none" stroke="midnightblue" points="430.251,-865.321 433.7,-875.339 437.251,-865.357 430.251,-865.321"/>
</g>
<!-- Node12 -->
<g id="node12" class="node"><title>Node12</title>
<g id="a_node12"><a xlink:href="class_i_component.html" target="_top" xlink:title="{IComponent\n||+ IComponent()\l+ IComponent()\l+ setComponentSubId()\l+ getComponentType()\l+ getComponentSubId()\l+ getComponentId()\l+ getObjectType()\l# setComponentType()\l# setObjectType()\l}">
<polygon fill="white" stroke="black" points="404,-1156.5 404,-1301.5 538,-1301.5 538,-1156.5 404,-1156.5"/>
<text text-anchor="middle" x="471" y="-1289.5" font-family="Helvetica,sans-Serif" font-size="10.00">IComponent</text>
<polyline fill="none" stroke="black" points="404,-1282.5 538,-1282.5 "/>
<text text-anchor="middle" x="471" y="-1270.5" font-family="Helvetica,sans-Serif" font-size="10.00"> </text>
<polyline fill="none" stroke="black" points="404,-1263.5 538,-1263.5 "/>
<text text-anchor="start" x="412" y="-1251.5" font-family="Helvetica,sans-Serif" font-size="10.00">+ IComponent()</text>
<text text-anchor="start" x="412" y="-1240.5" font-family="Helvetica,sans-Serif" font-size="10.00">+ IComponent()</text>
<text text-anchor="start" x="412" y="-1229.5" font-family="Helvetica,sans-Serif" font-size="10.00">+ setComponentSubId()</text>
<text text-anchor="start" x="412" y="-1218.5" font-family="Helvetica,sans-Serif" font-size="10.00">+ getComponentType()</text>
<text text-anchor="start" x="412" y="-1207.5" font-family="Helvetica,sans-Serif" font-size="10.00">+ getComponentSubId()</text>
<text text-anchor="start" x="412" y="-1196.5" font-family="Helvetica,sans-Serif" font-size="10.00">+ getComponentId()</text>
<text text-anchor="start" x="412" y="-1185.5" font-family="Helvetica,sans-Serif" font-size="10.00">+ getObjectType()</text>
<text text-anchor="start" x="412" y="-1174.5" font-family="Helvetica,sans-Serif" font-size="10.00"># setComponentType()</text>
<text text-anchor="start" x="412" y="-1163.5" font-family="Helvetica,sans-Serif" font-size="10.00"># setObjectType()</text>
</a>
</g>
</g>
<!-- Node12&#45;&gt;Node11 -->
<g id="edge13" class="edge"><title>Node12&#45;&gt;Node11</title>
<path fill="none" stroke="midnightblue" d="M459.445,-1146.28C458.236,-1137.08 457.063,-1127.84 456,-1119 447.979,-1052.25 440.361,-973.57 436.545,-932.736"/>
<polygon fill="none" stroke="midnightblue" points="455.979,-1146.77 460.766,-1156.22 462.918,-1145.85 455.979,-1146.77"/>
</g>
<!-- Node16 -->
<g id="node16" class="node"><title>Node16</title>
<g id="a_node16"><a xlink:href="class_i_runable.html" target="_top" xlink:title="{IRunable\n||+ IRunable()\l+ run()\l+ setStatus()\l+ getStatus()\l}">
<polygon fill="white" stroke="black" points="465.5,-990 465.5,-1080 548.5,-1080 548.5,-990 465.5,-990"/>
<text text-anchor="middle" x="507" y="-1068" font-family="Helvetica,sans-Serif" font-size="10.00">IRunable</text>
<polyline fill="none" stroke="black" points="465.5,-1061 548.5,-1061 "/>
<text text-anchor="middle" x="507" y="-1049" font-family="Helvetica,sans-Serif" font-size="10.00"> </text>
<polyline fill="none" stroke="black" points="465.5,-1042 548.5,-1042 "/>
<text text-anchor="start" x="473.5" y="-1030" font-family="Helvetica,sans-Serif" font-size="10.00">+ IRunable()</text>
<text text-anchor="start" x="473.5" y="-1019" font-family="Helvetica,sans-Serif" font-size="10.00">+ run()</text>
<text text-anchor="start" x="473.5" y="-1008" font-family="Helvetica,sans-Serif" font-size="10.00">+ setStatus()</text>
<text text-anchor="start" x="473.5" y="-997" font-family="Helvetica,sans-Serif" font-size="10.00">+ getStatus()</text>
</a>
</g>
</g>
<!-- Node12&#45;&gt;Node16 -->
<g id="edge18" class="edge"><title>Node12&#45;&gt;Node16</title>
<path fill="none" stroke="midnightblue" d="M486.33,-1146.24C490.587,-1123.54 495.047,-1099.75 498.731,-1080.1"/>
<polygon fill="none" stroke="midnightblue" points="482.859,-1145.76 484.456,-1156.23 489.739,-1147.05 482.859,-1145.76"/>
</g>
<!-- Node13 -->
<g id="node13" class="node"><title>Node13</title>
<g id="a_node13"><a xlink:href="class_i_logable.html" target="_top" xlink:title="{ILogable\n||+ setStatus()\l+ getStatus()\l+ getLogValueCount()\l+ getLogValue()\l}">
<polygon fill="white" stroke="black" points="409.5,-1339.5 409.5,-1429.5 532.5,-1429.5 532.5,-1339.5 409.5,-1339.5"/>
<text text-anchor="middle" x="471" y="-1417.5" font-family="Helvetica,sans-Serif" font-size="10.00">ILogable</text>
<polyline fill="none" stroke="black" points="409.5,-1410.5 532.5,-1410.5 "/>
<text text-anchor="middle" x="471" y="-1398.5" font-family="Helvetica,sans-Serif" font-size="10.00"> </text>
<polyline fill="none" stroke="black" points="409.5,-1391.5 532.5,-1391.5 "/>
<text text-anchor="start" x="417.5" y="-1379.5" font-family="Helvetica,sans-Serif" font-size="10.00">+ setStatus()</text>
<text text-anchor="start" x="417.5" y="-1368.5" font-family="Helvetica,sans-Serif" font-size="10.00">+ getStatus()</text>
<text text-anchor="start" x="417.5" y="-1357.5" font-family="Helvetica,sans-Serif" font-size="10.00">+ getLogValueCount()</text>
<text text-anchor="start" x="417.5" y="-1346.5" font-family="Helvetica,sans-Serif" font-size="10.00">+ getLogValue()</text>
</a>
</g>
</g>
<!-- Node13&#45;&gt;Node12 -->
<g id="edge14" class="edge"><title>Node13&#45;&gt;Node12</title>
<path fill="none" stroke="midnightblue" d="M471,-1328.98C471,-1320.16 471,-1310.92 471,-1301.77"/>
<polygon fill="none" stroke="midnightblue" points="467.5,-1329.1 471,-1339.1 474.5,-1329.1 467.5,-1329.1"/>
</g>
<!-- Node14 -->
<g id="node14" class="node"><title>Node14</title>
<g id="a_node14"><a xlink:href="class_non_copyable.html" target="_top" xlink:title="{NonCopyable\&lt; ILogable \&gt;\n||+ NonCopyable()\l}">
<polygon fill="white" stroke="black" points="399.5,-1467.5 399.5,-1524.5 542.5,-1524.5 542.5,-1467.5 399.5,-1467.5"/>
<text text-anchor="middle" x="471" y="-1512.5" font-family="Helvetica,sans-Serif" font-size="10.00">NonCopyable&lt; ILogable &gt;</text>
<polyline fill="none" stroke="black" points="399.5,-1505.5 542.5,-1505.5 "/>
<text text-anchor="middle" x="471" y="-1493.5" font-family="Helvetica,sans-Serif" font-size="10.00"> </text>
<polyline fill="none" stroke="black" points="399.5,-1486.5 542.5,-1486.5 "/>
<text text-anchor="start" x="407.5" y="-1474.5" font-family="Helvetica,sans-Serif" font-size="10.00">+ NonCopyable()</text>
</a>
</g>
</g>
<!-- Node14&#45;&gt;Node13 -->
<g id="edge15" class="edge"><title>Node14&#45;&gt;Node13</title>
<path fill="none" stroke="#8b1a1a" d="M471,-1457.31C471,-1448.43 471,-1438.88 471,-1429.74"/>
<polygon fill="none" stroke="#8b1a1a" points="467.5,-1457.37 471,-1467.37 474.5,-1457.37 467.5,-1457.37"/>
</g>
<!-- Node15 -->
<g id="node15" class="node"><title>Node15</title>
<g id="a_node15"><a xlink:href="class_sync.html" target="_top" xlink:title="{Sync\n||+ Sync()\l+ addComponent()\l+ addBridge()\l+ receive()\l+ send()\l+ run()\l+ messageInQueue()\l+ finalize()\l+ Sync()\l+ receive()\land 7 more...\l}">
<polygon fill="white" stroke="black" points="458.5,-689.5 458.5,-856.5 577.5,-856.5 577.5,-689.5 458.5,-689.5"/>
<text text-anchor="middle" x="518" y="-844.5" font-family="Helvetica,sans-Serif" font-size="10.00">Sync</text>
<polyline fill="none" stroke="black" points="458.5,-837.5 577.5,-837.5 "/>
<text text-anchor="middle" x="518" y="-825.5" font-family="Helvetica,sans-Serif" font-size="10.00"> </text>
<polyline fill="none" stroke="black" points="458.5,-818.5 577.5,-818.5 "/>
<text text-anchor="start" x="466.5" y="-806.5" font-family="Helvetica,sans-Serif" font-size="10.00">+ Sync()</text>
<text text-anchor="start" x="466.5" y="-795.5" font-family="Helvetica,sans-Serif" font-size="10.00">+ addComponent()</text>
<text text-anchor="start" x="466.5" y="-784.5" font-family="Helvetica,sans-Serif" font-size="10.00">+ addBridge()</text>
<text text-anchor="start" x="466.5" y="-773.5" font-family="Helvetica,sans-Serif" font-size="10.00">+ receive()</text>
<text text-anchor="start" x="466.5" y="-762.5" font-family="Helvetica,sans-Serif" font-size="10.00">+ send()</text>
<text text-anchor="start" x="466.5" y="-751.5" font-family="Helvetica,sans-Serif" font-size="10.00">+ run()</text>
<text text-anchor="start" x="466.5" y="-740.5" font-family="Helvetica,sans-Serif" font-size="10.00">+ messageInQueue()</text>
<text text-anchor="start" x="466.5" y="-729.5" font-family="Helvetica,sans-Serif" font-size="10.00">+ finalize()</text>
<text text-anchor="start" x="466.5" y="-718.5" font-family="Helvetica,sans-Serif" font-size="10.00">+ Sync()</text>
<text text-anchor="start" x="466.5" y="-707.5" font-family="Helvetica,sans-Serif" font-size="10.00">+ receive()</text>
<text text-anchor="start" x="466.5" y="-696.5" font-family="Helvetica,sans-Serif" font-size="10.00">and 7 more...</text>
</a>
</g>
</g>
<!-- Node15&#45;&gt;Node10 -->
<g id="edge16" class="edge"><title>Node15&#45;&gt;Node10</title>
<path fill="none" stroke="#404040" d="M507.251,-689.394C505.734,-677.735 504.169,-665.703 502.636,-653.923"/>
<polygon fill="none" stroke="#404040" points="502.602,-653.664 497.861,-648.23 501.054,-641.764 505.794,-647.198 502.602,-653.664"/>
<text text-anchor="middle" x="529.5" y="-663" font-family="Helvetica,sans-Serif" font-size="10.00"> #_syncer</text>
</g>
<!-- Node16&#45;&gt;Node15 -->
<g id="edge17" class="edge"><title>Node16&#45;&gt;Node15</title>
<path fill="none" stroke="midnightblue" d="M503.69,-979.718C503.975,-944.146 505.727,-896.965 508.161,-856.76"/>
<polygon fill="none" stroke="midnightblue" points="500.189,-979.881 503.649,-989.895 507.189,-979.909 500.189,-979.881"/>
</g>
<!-- Node16&#45;&gt;Node15 -->
<g id="edge19" class="edge"><title>Node16&#45;&gt;Node15</title>
<path fill="none" stroke="midnightblue" d="M514.903,-979.718C517.628,-944.146 519.868,-896.965 520.836,-856.76"/>
<polygon fill="none" stroke="midnightblue" points="511.398,-979.646 514.083,-989.895 518.375,-980.208 511.398,-979.646"/>
</g>
<!-- Node17 -->
<g id="node17" class="node"><title>Node17</title>
<g id="a_node17"><a xlink:href="classstd_1_1vector.html" target="_top" xlink:title="{std::vector\&lt; CarMessage \&gt;\n||+ ~vector()\l+ at()\l+ operator[]()\l+ front()\l+ back()\l+ data()\l+ begin()\l+ end()\l+ empty()\l+ size()\land 7 more...\l}">
<polygon fill="white" stroke="black" points="566.5,-951.5 566.5,-1118.5 715.5,-1118.5 715.5,-951.5 566.5,-951.5"/>
<text text-anchor="middle" x="641" y="-1106.5" font-family="Helvetica,sans-Serif" font-size="10.00">std::vector&lt; CarMessage &gt;</text>
<polyline fill="none" stroke="black" points="566.5,-1099.5 715.5,-1099.5 "/>
<text text-anchor="middle" x="641" y="-1087.5" font-family="Helvetica,sans-Serif" font-size="10.00"> </text>
<polyline fill="none" stroke="black" points="566.5,-1080.5 715.5,-1080.5 "/>
<text text-anchor="start" x="574.5" y="-1068.5" font-family="Helvetica,sans-Serif" font-size="10.00">+ ~vector()</text>
<text text-anchor="start" x="574.5" y="-1057.5" font-family="Helvetica,sans-Serif" font-size="10.00">+ at()</text>
<text text-anchor="start" x="574.5" y="-1046.5" font-family="Helvetica,sans-Serif" font-size="10.00">+ operator[]()</text>
<text text-anchor="start" x="574.5" y="-1035.5" font-family="Helvetica,sans-Serif" font-size="10.00">+ front()</text>
<text text-anchor="start" x="574.5" y="-1024.5" font-family="Helvetica,sans-Serif" font-size="10.00">+ back()</text>
<text text-anchor="start" x="574.5" y="-1013.5" font-family="Helvetica,sans-Serif" font-size="10.00">+ data()</text>
<text text-anchor="start" x="574.5" y="-1002.5" font-family="Helvetica,sans-Serif" font-size="10.00">+ begin()</text>
<text text-anchor="start" x="574.5" y="-991.5" font-family="Helvetica,sans-Serif" font-size="10.00">+ end()</text>
<text text-anchor="start" x="574.5" y="-980.5" font-family="Helvetica,sans-Serif" font-size="10.00">+ empty()</text>
<text text-anchor="start" x="574.5" y="-969.5" font-family="Helvetica,sans-Serif" font-size="10.00">+ size()</text>
<text text-anchor="start" x="574.5" y="-958.5" font-family="Helvetica,sans-Serif" font-size="10.00">and 7 more...</text>
</a>
</g>
</g>
<!-- Node17&#45;&gt;Node15 -->
<g id="edge20" class="edge"><title>Node17&#45;&gt;Node15</title>
<path fill="none" stroke="#404040" d="M601.913,-951.377C589.362,-924.847 575.369,-895.268 562.463,-867.986"/>
<polygon fill="none" stroke="#404040" points="562.328,-867.701 556.146,-863.988 557.196,-856.854 563.378,-860.567 562.328,-867.701"/>
<text text-anchor="middle" x="649.5" y="-901.5" font-family="Helvetica,sans-Serif" font-size="10.00"> +receivedCarMessages</text>
</g>
<!-- Node18 -->
<g id="node18" class="node"><title>Node18</title>
<g id="a_node18"><a xlink:href="class_non_copyable.html" target="_top" xlink:title="{NonCopyable\&lt; vector\l\&lt; CarMessage, unsigned\l int \&gt; \&gt;\n||+ NonCopyable()\l}">
<polygon fill="white" stroke="black" points="572.5,-1189.5 572.5,-1268.5 709.5,-1268.5 709.5,-1189.5 572.5,-1189.5"/>
<text text-anchor="start" x="580.5" y="-1256.5" font-family="Helvetica,sans-Serif" font-size="10.00">NonCopyable&lt; vector</text>
<text text-anchor="start" x="580.5" y="-1245.5" font-family="Helvetica,sans-Serif" font-size="10.00">&lt; CarMessage, unsigned</text>
<text text-anchor="middle" x="641" y="-1234.5" font-family="Helvetica,sans-Serif" font-size="10.00"> int &gt; &gt;</text>
<polyline fill="none" stroke="black" points="572.5,-1227.5 709.5,-1227.5 "/>
<text text-anchor="middle" x="641" y="-1215.5" font-family="Helvetica,sans-Serif" font-size="10.00"> </text>
<polyline fill="none" stroke="black" points="572.5,-1208.5 709.5,-1208.5 "/>
<text text-anchor="start" x="580.5" y="-1196.5" font-family="Helvetica,sans-Serif" font-size="10.00">+ NonCopyable()</text>
</a>
</g>
</g>
<!-- Node18&#45;&gt;Node17 -->
<g id="edge21" class="edge"><title>Node18&#45;&gt;Node17</title>
<path fill="none" stroke="#8b1a1a" d="M641,-1179.02C641,-1160.7 641,-1139.34 641,-1118.81"/>
<polygon fill="none" stroke="#8b1a1a" points="637.5,-1179.15 641,-1189.15 644.5,-1179.15 637.5,-1179.15"/>
</g>
<!-- Node19 -->
<g id="node19" class="node"><title>Node19</title>
<g id="a_node19"><a xlink:href="struct_hardware_analog_sensor_1_1__map.html" target="_top" xlink:title="{HardwareAnalogSensor\l::_map\n|+ set\l|}">
<polygon fill="white" stroke="black" points="561.5,-320 561.5,-388 690.5,-388 690.5,-320 561.5,-320"/>
<text text-anchor="start" x="569.5" y="-376" font-family="Helvetica,sans-Serif" font-size="10.00">HardwareAnalogSensor</text>
<text text-anchor="middle" x="626" y="-365" font-family="Helvetica,sans-Serif" font-size="10.00">::_map</text>
<polyline fill="none" stroke="black" points="561.5,-358 690.5,-358 "/>
<text text-anchor="start" x="569.5" y="-346" font-family="Helvetica,sans-Serif" font-size="10.00">+ set</text>
<polyline fill="none" stroke="black" points="561.5,-339 690.5,-339 "/>
<text text-anchor="middle" x="626" y="-327" font-family="Helvetica,sans-Serif" font-size="10.00"> </text>
</a>
</g>
</g>
<!-- Node19&#45;&gt;Node1 -->
<g id="edge22" class="edge"><title>Node19&#45;&gt;Node1</title>
<path fill="none" stroke="#404040" d="M616.202,-319.812C609.528,-297.203 600.241,-265.745 590.915,-234.157"/>
<polygon fill="none" stroke="#404040" points="590.881,-234.039 585.345,-229.417 587.483,-222.53 593.018,-227.152 590.881,-234.039"/>
<text text-anchor="middle" x="614.5" y="-244" font-family="Helvetica,sans-Serif" font-size="10.00"> #_map</text>
</g>
<!-- Node20 -->
<g id="node20" class="node"><title>Node20</title>
<g id="a_node20"><a xlink:href="struct_hardware_analog_sensor_1_1__map_1_1to.html" target="_top" xlink:title="{HardwareAnalogSensor\l::_map::to\n|+ min\l+ max\l|}">
<polygon fill="white" stroke="black" points="718.5,-524 718.5,-603 847.5,-603 847.5,-524 718.5,-524"/>
<text text-anchor="start" x="726.5" y="-591" font-family="Helvetica,sans-Serif" font-size="10.00">HardwareAnalogSensor</text>
<text text-anchor="middle" x="783" y="-580" font-family="Helvetica,sans-Serif" font-size="10.00">::_map::to</text>
<polyline fill="none" stroke="black" points="718.5,-573 847.5,-573 "/>
<text text-anchor="start" x="726.5" y="-561" font-family="Helvetica,sans-Serif" font-size="10.00">+ min</text>
<text text-anchor="start" x="726.5" y="-550" font-family="Helvetica,sans-Serif" font-size="10.00">+ max</text>
<polyline fill="none" stroke="black" points="718.5,-543 847.5,-543 "/>
<text text-anchor="middle" x="783" y="-531" font-family="Helvetica,sans-Serif" font-size="10.00"> </text>
</a>
</g>
</g>
<!-- Node20&#45;&gt;Node19 -->
<g id="edge23" class="edge"><title>Node20&#45;&gt;Node19</title>
<path fill="none" stroke="#404040" d="M753.837,-523.957C726.845,-488.283 686.765,-435.311 658.699,-398.217"/>
<polygon fill="none" stroke="#404040" points="658.363,-397.772 651.552,-395.401 651.122,-388.203 657.932,-390.574 658.363,-397.772"/>
<text text-anchor="middle" x="721" y="-459" font-family="Helvetica,sans-Serif" font-size="10.00"> +to</text>
</g>
<!-- Node21 -->
<g id="node21" class="node"><title>Node21</title>
<g id="a_node21"><a xlink:href="struct_hardware_analog_sensor_1_1__map_1_1from.html" target="_top" xlink:title="{HardwareAnalogSensor\l::_map::from\n|+ min\l+ max\l|}">
<polygon fill="white" stroke="black" points="571.5,-524 571.5,-603 700.5,-603 700.5,-524 571.5,-524"/>
<text text-anchor="start" x="579.5" y="-591" font-family="Helvetica,sans-Serif" font-size="10.00">HardwareAnalogSensor</text>
<text text-anchor="middle" x="636" y="-580" font-family="Helvetica,sans-Serif" font-size="10.00">::_map::from</text>
<polyline fill="none" stroke="black" points="571.5,-573 700.5,-573 "/>
<text text-anchor="start" x="579.5" y="-561" font-family="Helvetica,sans-Serif" font-size="10.00">+ min</text>
<text text-anchor="start" x="579.5" y="-550" font-family="Helvetica,sans-Serif" font-size="10.00">+ max</text>
<polyline fill="none" stroke="black" points="571.5,-543 700.5,-543 "/>
<text text-anchor="middle" x="636" y="-531" font-family="Helvetica,sans-Serif" font-size="10.00"> </text>
</a>
</g>
</g>
<!-- Node21&#45;&gt;Node19 -->
<g id="edge24" class="edge"><title>Node21&#45;&gt;Node19</title>
<path fill="none" stroke="#404040" d="M634.143,-523.957C632.46,-489.045 629.979,-437.567 628.198,-400.616"/>
<polygon fill="none" stroke="#404040" points="628.178,-400.189 623.894,-394.388 627.6,-388.203 631.884,-394.003 628.178,-400.189"/>
<text text-anchor="middle" x="649" y="-459" font-family="Helvetica,sans-Serif" font-size="10.00"> +from</text>
</g>
<!-- Node22 -->
<g id="node22" class="node"><title>Node22</title>
<g id="a_node22"><a xlink:href="struct_hardware_analog_sensor_1_1__last.html" target="_top" xlink:title="{HardwareAnalogSensor\l::_last\n|+ normal\l+ raw\l|}">
<polygon fill="white" stroke="black" points="708.5,-314.5 708.5,-393.5 837.5,-393.5 837.5,-314.5 708.5,-314.5"/>
<text text-anchor="start" x="716.5" y="-381.5" font-family="Helvetica,sans-Serif" font-size="10.00">HardwareAnalogSensor</text>
<text text-anchor="middle" x="773" y="-370.5" font-family="Helvetica,sans-Serif" font-size="10.00">::_last</text>
<polyline fill="none" stroke="black" points="708.5,-363.5 837.5,-363.5 "/>
<text text-anchor="start" x="716.5" y="-351.5" font-family="Helvetica,sans-Serif" font-size="10.00">+ normal</text>
<text text-anchor="start" x="716.5" y="-340.5" font-family="Helvetica,sans-Serif" font-size="10.00">+ raw</text>
<polyline fill="none" stroke="black" points="708.5,-333.5 837.5,-333.5 "/>
<text text-anchor="middle" x="773" y="-321.5" font-family="Helvetica,sans-Serif" font-size="10.00"> </text>
</a>
</g>
</g>
<!-- Node22&#45;&gt;Node1 -->
<g id="edge25" class="edge"><title>Node22&#45;&gt;Node1</title>
<path fill="none" stroke="#404040" d="M738.837,-314.48C726.341,-300.444 712.067,-284.472 699,-270 680.208,-249.186 659.941,-226.912 640.713,-205.861"/>
<polygon fill="none" stroke="#404040" points="640.639,-205.78 633.638,-204.05 632.543,-196.922 639.544,-198.653 640.639,-205.78"/>
<text text-anchor="middle" x="697" y="-244" font-family="Helvetica,sans-Serif" font-size="10.00"> #_last</text>
</g>
<!-- Node23 -->
<g id="node23" class="node"><title>Node23</title>
<g id="a_node23"><a xlink:href="class_analog_in.html" target="_top" xlink:title="{AnalogIn\n||+ AnalogIn()\l+ read()\l+ read_u16()\l+ operator float()\l}">
<polygon fill="white" stroke="black" points="871.5,-309 871.5,-399 972.5,-399 972.5,-309 871.5,-309"/>
<text text-anchor="middle" x="922" y="-387" font-family="Helvetica,sans-Serif" font-size="10.00">AnalogIn</text>
<polyline fill="none" stroke="black" points="871.5,-380 972.5,-380 "/>
<text text-anchor="middle" x="922" y="-368" font-family="Helvetica,sans-Serif" font-size="10.00"> </text>
<polyline fill="none" stroke="black" points="871.5,-361 972.5,-361 "/>
<text text-anchor="start" x="879.5" y="-349" font-family="Helvetica,sans-Serif" font-size="10.00">+ AnalogIn()</text>
<text text-anchor="start" x="879.5" y="-338" font-family="Helvetica,sans-Serif" font-size="10.00">+ read()</text>
<text text-anchor="start" x="879.5" y="-327" font-family="Helvetica,sans-Serif" font-size="10.00">+ read_u16()</text>
<text text-anchor="start" x="879.5" y="-316" font-family="Helvetica,sans-Serif" font-size="10.00">+ operator float()</text>
</a>
</g>
</g>
<!-- Node23&#45;&gt;Node1 -->
<g id="edge26" class="edge"><title>Node23&#45;&gt;Node1</title>
<path fill="none" stroke="#404040" d="M886.608,-308.929C874.57,-295.492 860.478,-281.3 846,-270 783.545,-221.253 703.925,-179.317 643.761,-151.002"/>
<polygon fill="none" stroke="#404040" points="643.639,-150.945 636.51,-152.036 632.762,-145.875 639.89,-144.785 643.639,-150.945"/>
<text text-anchor="middle" x="833.5" y="-244" font-family="Helvetica,sans-Serif" font-size="10.00"> #_pin</text>
</g>
<!-- Node24 -->
<g id="node24" class="node"><title>Node24</title>
<g id="a_node24"><a xlink:href="class_non_copyable.html" target="_top" xlink:title="{NonCopyable\&lt; AnalogIn \&gt;\n||+ NonCopyable()\l}">
<polygon fill="white" stroke="black" points="866,-535 866,-592 1010,-592 1010,-535 866,-535"/>
<text text-anchor="middle" x="938" y="-580" font-family="Helvetica,sans-Serif" font-size="10.00">NonCopyable&lt; AnalogIn &gt;</text>
<polyline fill="none" stroke="black" points="866,-573 1010,-573 "/>
<text text-anchor="middle" x="938" y="-561" font-family="Helvetica,sans-Serif" font-size="10.00"> </text>
<polyline fill="none" stroke="black" points="866,-554 1010,-554 "/>
<text text-anchor="start" x="874" y="-542" font-family="Helvetica,sans-Serif" font-size="10.00">+ NonCopyable()</text>
</a>
</g>
</g>
<!-- Node24&#45;&gt;Node23 -->
<g id="edge27" class="edge"><title>Node24&#45;&gt;Node23</title>
<path fill="none" stroke="#8b1a1a" d="M935.076,-524.581C932.354,-489.275 928.295,-436.639 925.423,-399.389"/>
<polygon fill="none" stroke="#8b1a1a" points="931.617,-525.244 935.875,-534.946 938.596,-524.706 931.617,-525.244"/>
</g>
</g>
</svg>
