<?xml version="1.0" encoding="UTF-8" standalone="no"?>
<!DOCTYPE svg PUBLIC "-//W3C//DTD SVG 1.1//EN"
 "http://www.w3.org/Graphics/SVG/1.1/DTD/svg11.dtd">
<!-- Generated by graphviz version 2.38.0 (20140413.2041)
 -->
<!-- Title: SoftwareLed Pages: 1 -->
<svg width="151pt" height="1048pt"
 viewBox="0.00 0.00 151.00 1048.00" xmlns="http://www.w3.org/2000/svg" xmlns:xlink="http://www.w3.org/1999/xlink">
<g id="graph0" class="graph" transform="scale(1 1) rotate(0) translate(4 1044)">
<title>SoftwareLed</title>
<polygon fill="white" stroke="none" points="-4,4 -4,-1044 147,-1044 147,4 -4,4"/>
<!-- Node1 -->
<g id="node1" class="node"><title>Node1</title>
<polygon fill="#bfbfbf" stroke="black" points="20.5,-0.5 20.5,-178.5 122.5,-178.5 122.5,-0.5 20.5,-0.5"/>
<text text-anchor="middle" x="71.5" y="-166.5" font-family="Helvetica,sans-Serif" font-size="10.00">SoftwareLed</text>
<polyline fill="none" stroke="black" points="20.5,-159.5 122.5,-159.5 "/>
<text text-anchor="start" x="28.5" y="-147.5" font-family="Helvetica,sans-Serif" font-size="10.00"># _state</text>
<text text-anchor="start" x="28.5" y="-136.5" font-family="Helvetica,sans-Serif" font-size="10.00"># _brightness</text>
<text text-anchor="start" x="28.5" y="-125.5" font-family="Helvetica,sans-Serif" font-size="10.00"># _blinking</text>
<polyline fill="none" stroke="black" points="20.5,-118.5 122.5,-118.5 "/>
<text text-anchor="start" x="28.5" y="-106.5" font-family="Helvetica,sans-Serif" font-size="10.00">+ SoftwareLed()</text>
<text text-anchor="start" x="28.5" y="-95.5" font-family="Helvetica,sans-Serif" font-size="10.00">+ setState()</text>
<text text-anchor="start" x="28.5" y="-84.5" font-family="Helvetica,sans-Serif" font-size="10.00">+ setBrightness()</text>
<text text-anchor="start" x="28.5" y="-73.5" font-family="Helvetica,sans-Serif" font-size="10.00">+ setBlinking()</text>
<text text-anchor="start" x="28.5" y="-62.5" font-family="Helvetica,sans-Serif" font-size="10.00">+ getState()</text>
<text text-anchor="start" x="28.5" y="-51.5" font-family="Helvetica,sans-Serif" font-size="10.00">+ getBrightness()</text>
<text text-anchor="start" x="28.5" y="-40.5" font-family="Helvetica,sans-Serif" font-size="10.00">+ getBlinking()</text>
<text text-anchor="start" x="28.5" y="-29.5" font-family="Helvetica,sans-Serif" font-size="10.00">+ receive()</text>
<text text-anchor="start" x="28.5" y="-18.5" font-family="Helvetica,sans-Serif" font-size="10.00">+ setStatus()</text>
<text text-anchor="start" x="28.5" y="-7.5" font-family="Helvetica,sans-Serif" font-size="10.00">+ getStatus()</text>
</g>
<!-- Node2 -->
<g id="node2" class="node"><title>Node2</title>
<g id="a_node2"><a xlink:href="class_i_led.html" target="_top" xlink:title="{ILed\n||+ ILed()\l+ setState()\l+ setBrightness()\l+ setBlinking()\l+ getState()\l+ getBrightness()\l+ getBlinking()\l}">
<polygon fill="white" stroke="black" points="20.5,-215.5 20.5,-338.5 122.5,-338.5 122.5,-215.5 20.5,-215.5"/>
<text text-anchor="middle" x="71.5" y="-326.5" font-family="Helvetica,sans-Serif" font-size="10.00">ILed</text>
<polyline fill="none" stroke="black" points="20.5,-319.5 122.5,-319.5 "/>
<text text-anchor="middle" x="71.5" y="-307.5" font-family="Helvetica,sans-Serif" font-size="10.00"> </text>
<polyline fill="none" stroke="black" points="20.5,-300.5 122.5,-300.5 "/>
<text text-anchor="start" x="28.5" y="-288.5" font-family="Helvetica,sans-Serif" font-size="10.00">+ ILed()</text>
<text text-anchor="start" x="28.5" y="-277.5" font-family="Helvetica,sans-Serif" font-size="10.00">+ setState()</text>
<text text-anchor="start" x="28.5" y="-266.5" font-family="Helvetica,sans-Serif" font-size="10.00">+ setBrightness()</text>
<text text-anchor="start" x="28.5" y="-255.5" font-family="Helvetica,sans-Serif" font-size="10.00">+ setBlinking()</text>
<text text-anchor="start" x="28.5" y="-244.5" font-family="Helvetica,sans-Serif" font-size="10.00">+ getState()</text>
<text text-anchor="start" x="28.5" y="-233.5" font-family="Helvetica,sans-Serif" font-size="10.00">+ getBrightness()</text>
<text text-anchor="start" x="28.5" y="-222.5" font-family="Helvetica,sans-Serif" font-size="10.00">+ getBlinking()</text>
</a>
</g>
</g>
<!-- Node2&#45;&gt;Node1 -->
<g id="edge1" class="edge"><title>Node2&#45;&gt;Node1</title>
<path fill="none" stroke="midnightblue" d="M71.5,-205.199C71.5,-196.505 71.5,-187.538 71.5,-178.628"/>
<polygon fill="none" stroke="midnightblue" points="68.0001,-205.26 71.5,-215.26 75.0001,-205.26 68.0001,-205.26"/>
</g>
<!-- Node3 -->
<g id="node3" class="node"><title>Node3</title>
<g id="a_node3"><a xlink:href="class_self_syncable.html" target="_top" xlink:title="{SelfSyncable\n|# _syncer\l# _syncerAttached\l|+ attach()\l+ detach()\l# _sendCommand()\l# _sendCommand()\l# _sendCommand()\l# _send()\l# _convertFloat()\l# _reconvertFloat()\l# _disassambleFloat()\l# _reassambleFloat()\l}">
<polygon fill="white" stroke="black" points="9.5,-375.5 9.5,-542.5 133.5,-542.5 133.5,-375.5 9.5,-375.5"/>
<text text-anchor="middle" x="71.5" y="-530.5" font-family="Helvetica,sans-Serif" font-size="10.00">SelfSyncable</text>
<polyline fill="none" stroke="black" points="9.5,-523.5 133.5,-523.5 "/>
<text text-anchor="start" x="17.5" y="-511.5" font-family="Helvetica,sans-Serif" font-size="10.00"># _syncer</text>
<text text-anchor="start" x="17.5" y="-500.5" font-family="Helvetica,sans-Serif" font-size="10.00"># _syncerAttached</text>
<polyline fill="none" stroke="black" points="9.5,-493.5 133.5,-493.5 "/>
<text text-anchor="start" x="17.5" y="-481.5" font-family="Helvetica,sans-Serif" font-size="10.00">+ attach()</text>
<text text-anchor="start" x="17.5" y="-470.5" font-family="Helvetica,sans-Serif" font-size="10.00">+ detach()</text>
<text text-anchor="start" x="17.5" y="-459.5" font-family="Helvetica,sans-Serif" font-size="10.00"># _sendCommand()</text>
<text text-anchor="start" x="17.5" y="-448.5" font-family="Helvetica,sans-Serif" font-size="10.00"># _sendCommand()</text>
<text text-anchor="start" x="17.5" y="-437.5" font-family="Helvetica,sans-Serif" font-size="10.00"># _sendCommand()</text>
<text text-anchor="start" x="17.5" y="-426.5" font-family="Helvetica,sans-Serif" font-size="10.00"># _send()</text>
<text text-anchor="start" x="17.5" y="-415.5" font-family="Helvetica,sans-Serif" font-size="10.00"># _convertFloat()</text>
<text text-anchor="start" x="17.5" y="-404.5" font-family="Helvetica,sans-Serif" font-size="10.00"># _reconvertFloat()</text>
<text text-anchor="start" x="17.5" y="-393.5" font-family="Helvetica,sans-Serif" font-size="10.00"># _disassambleFloat()</text>
<text text-anchor="start" x="17.5" y="-382.5" font-family="Helvetica,sans-Serif" font-size="10.00"># _reassambleFloat()</text>
</a>
</g>
</g>
<!-- Node3&#45;&gt;Node2 -->
<g id="edge2" class="edge"><title>Node3&#45;&gt;Node2</title>
<path fill="none" stroke="midnightblue" d="M71.5,-365.194C71.5,-356.173 71.5,-347.189 71.5,-338.607"/>
<polygon fill="none" stroke="midnightblue" points="68.0001,-365.375 71.5,-375.375 75.0001,-365.375 68.0001,-365.375"/>
</g>
<!-- Node4 -->
<g id="node4" class="node"><title>Node4</title>
<g id="a_node4"><a xlink:href="class_i_communication.html" target="_top" xlink:title="{ICommunication\n||+ receive()\l}">
<polygon fill="white" stroke="black" points="24,-579.5 24,-636.5 119,-636.5 119,-579.5 24,-579.5"/>
<text text-anchor="middle" x="71.5" y="-624.5" font-family="Helvetica,sans-Serif" font-size="10.00">ICommunication</text>
<polyline fill="none" stroke="black" points="24,-617.5 119,-617.5 "/>
<text text-anchor="middle" x="71.5" y="-605.5" font-family="Helvetica,sans-Serif" font-size="10.00"> </text>
<polyline fill="none" stroke="black" points="24,-598.5 119,-598.5 "/>
<text text-anchor="start" x="32" y="-586.5" font-family="Helvetica,sans-Serif" font-size="10.00">+ receive()</text>
</a>
</g>
</g>
<!-- Node4&#45;&gt;Node3 -->
<g id="edge3" class="edge"><title>Node4&#45;&gt;Node3</title>
<path fill="none" stroke="midnightblue" d="M71.5,-569.35C71.5,-561.08 71.5,-552.008 71.5,-542.738"/>
<polygon fill="none" stroke="midnightblue" points="68.0001,-569.35 71.5,-579.35 75.0001,-569.35 68.0001,-569.35"/>
</g>
<!-- Node5 -->
<g id="node5" class="node"><title>Node5</title>
<g id="a_node5"><a xlink:href="class_i_component.html" target="_top" xlink:title="{IComponent\n||+ IComponent()\l+ IComponent()\l+ setComponentSubId()\l+ getComponentType()\l+ getComponentSubId()\l+ getComponentId()\l+ getObjectType()\l# setComponentType()\l# setObjectType()\l}">
<polygon fill="white" stroke="black" points="4.5,-673.5 4.5,-818.5 138.5,-818.5 138.5,-673.5 4.5,-673.5"/>
<text text-anchor="middle" x="71.5" y="-806.5" font-family="Helvetica,sans-Serif" font-size="10.00">IComponent</text>
<polyline fill="none" stroke="black" points="4.5,-799.5 138.5,-799.5 "/>
<text text-anchor="middle" x="71.5" y="-787.5" font-family="Helvetica,sans-Serif" font-size="10.00"> </text>
<polyline fill="none" stroke="black" points="4.5,-780.5 138.5,-780.5 "/>
<text text-anchor="start" x="12.5" y="-768.5" font-family="Helvetica,sans-Serif" font-size="10.00">+ IComponent()</text>
<text text-anchor="start" x="12.5" y="-757.5" font-family="Helvetica,sans-Serif" font-size="10.00">+ IComponent()</text>
<text text-anchor="start" x="12.5" y="-746.5" font-family="Helvetica,sans-Serif" font-size="10.00">+ setComponentSubId()</text>
<text text-anchor="start" x="12.5" y="-735.5" font-family="Helvetica,sans-Serif" font-size="10.00">+ getComponentType()</text>
<text text-anchor="start" x="12.5" y="-724.5" font-family="Helvetica,sans-Serif" font-size="10.00">+ getComponentSubId()</text>
<text text-anchor="start" x="12.5" y="-713.5" font-family="Helvetica,sans-Serif" font-size="10.00">+ getComponentId()</text>
<text text-anchor="start" x="12.5" y="-702.5" font-family="Helvetica,sans-Serif" font-size="10.00">+ getObjectType()</text>
<text text-anchor="start" x="12.5" y="-691.5" font-family="Helvetica,sans-Serif" font-size="10.00"># setComponentType()</text>
<text text-anchor="start" x="12.5" y="-680.5" font-family="Helvetica,sans-Serif" font-size="10.00"># setObjectType()</text>
</a>
</g>
</g>
<!-- Node5&#45;&gt;Node4 -->
<g id="edge4" class="edge"><title>Node5&#45;&gt;Node4</title>
<path fill="none" stroke="midnightblue" d="M71.5,-663.387C71.5,-653.861 71.5,-644.707 71.5,-636.714"/>
<polygon fill="none" stroke="midnightblue" points="68.0001,-663.416 71.5,-673.416 75.0001,-663.416 68.0001,-663.416"/>
</g>
<!-- Node6 -->
<g id="node6" class="node"><title>Node6</title>
<g id="a_node6"><a xlink:href="class_i_logable.html" target="_top" xlink:title="{ILogable\n||+ setStatus()\l+ getStatus()\l+ getLogValueCount()\l+ getLogValue()\l}">
<polygon fill="white" stroke="black" points="10,-855.5 10,-945.5 133,-945.5 133,-855.5 10,-855.5"/>
<text text-anchor="middle" x="71.5" y="-933.5" font-family="Helvetica,sans-Serif" font-size="10.00">ILogable</text>
<polyline fill="none" stroke="black" points="10,-926.5 133,-926.5 "/>
<text text-anchor="middle" x="71.5" y="-914.5" font-family="Helvetica,sans-Serif" font-size="10.00"> </text>
<polyline fill="none" stroke="black" points="10,-907.5 133,-907.5 "/>
<text text-anchor="start" x="18" y="-895.5" font-family="Helvetica,sans-Serif" font-size="10.00">+ setStatus()</text>
<text text-anchor="start" x="18" y="-884.5" font-family="Helvetica,sans-Serif" font-size="10.00">+ getStatus()</text>
<text text-anchor="start" x="18" y="-873.5" font-family="Helvetica,sans-Serif" font-size="10.00">+ getLogValueCount()</text>
<text text-anchor="start" x="18" y="-862.5" font-family="Helvetica,sans-Serif" font-size="10.00">+ getLogValue()</text>
</a>
</g>
</g>
<!-- Node6&#45;&gt;Node5 -->
<g id="edge5" class="edge"><title>Node6&#45;&gt;Node5</title>
<path fill="none" stroke="midnightblue" d="M71.5,-845.13C71.5,-836.526 71.5,-827.516 71.5,-818.591"/>
<polygon fill="none" stroke="midnightblue" points="68.0001,-845.391 71.5,-855.391 75.0001,-845.391 68.0001,-845.391"/>
</g>
<!-- Node7 -->
<g id="node7" class="node"><title>Node7</title>
<g id="a_node7"><a xlink:href="class_non_copyable.html" target="_top" xlink:title="{NonCopyable\&lt; ILogable \&gt;\n||+ NonCopyable()\l}">
<polygon fill="white" stroke="black" points="0,-982.5 0,-1039.5 143,-1039.5 143,-982.5 0,-982.5"/>
<text text-anchor="middle" x="71.5" y="-1027.5" font-family="Helvetica,sans-Serif" font-size="10.00">NonCopyable&lt; ILogable &gt;</text>
<polyline fill="none" stroke="black" points="0,-1020.5 143,-1020.5 "/>
<text text-anchor="middle" x="71.5" y="-1008.5" font-family="Helvetica,sans-Serif" font-size="10.00"> </text>
<polyline fill="none" stroke="black" points="0,-1001.5 143,-1001.5 "/>
<text text-anchor="start" x="8" y="-989.5" font-family="Helvetica,sans-Serif" font-size="10.00">+ NonCopyable()</text>
</a>
</g>
</g>
<!-- Node7&#45;&gt;Node6 -->
<g id="edge6" class="edge"><title>Node7&#45;&gt;Node6</title>
<path fill="none" stroke="#8b1a1a" d="M71.5,-972.214C71.5,-963.609 71.5,-954.394 71.5,-945.554"/>
<polygon fill="none" stroke="#8b1a1a" points="68.0001,-972.34 71.5,-982.34 75.0001,-972.34 68.0001,-972.34"/>
</g>
</g>
</svg>
