<?xml version="1.0" encoding="UTF-8" standalone="no"?>
<!DOCTYPE svg PUBLIC "-//W3C//DTD SVG 1.1//EN"
 "http://www.w3.org/Graphics/SVG/1.1/DTD/svg11.dtd">
<!-- Generated by graphviz version 2.38.0 (20140413.2041)
 -->
<!-- Title: HardwareLedPwm Pages: 1 -->
<svg width="151pt" height="1147pt"
 viewBox="0.00 0.00 151.00 1147.00" xmlns="http://www.w3.org/2000/svg" xmlns:xlink="http://www.w3.org/1999/xlink">
<g id="graph0" class="graph" transform="scale(1 1) rotate(0) translate(4 1143)">
<title>HardwareLedPwm</title>
<polygon fill="white" stroke="none" points="-4,4 -4,-1143 147,-1143 147,4 -4,4"/>
<!-- Node1 -->
<g id="node1" class="node"><title>Node1</title>
<polygon fill="#bfbfbf" stroke="black" points="3.5,-0.5 3.5,-277.5 139.5,-277.5 139.5,-0.5 3.5,-0.5"/>
<text text-anchor="middle" x="71.5" y="-265.5" font-family="Helvetica,sans-Serif" font-size="10.00">HardwareLedPwm</text>
<polyline fill="none" stroke="black" points="3.5,-258.5 139.5,-258.5 "/>
<text text-anchor="start" x="11.5" y="-246.5" font-family="Helvetica,sans-Serif" font-size="10.00"># _registry</text>
<text text-anchor="start" x="11.5" y="-235.5" font-family="Helvetica,sans-Serif" font-size="10.00"># _port</text>
<text text-anchor="start" x="11.5" y="-224.5" font-family="Helvetica,sans-Serif" font-size="10.00"># _state</text>
<text text-anchor="start" x="11.5" y="-213.5" font-family="Helvetica,sans-Serif" font-size="10.00"># _stateLast</text>
<text text-anchor="start" x="11.5" y="-202.5" font-family="Helvetica,sans-Serif" font-size="10.00"># _brightness</text>
<text text-anchor="start" x="11.5" y="-191.5" font-family="Helvetica,sans-Serif" font-size="10.00"># _mode</text>
<text text-anchor="start" x="11.5" y="-180.5" font-family="Helvetica,sans-Serif" font-size="10.00"># _modeLast</text>
<text text-anchor="start" x="11.5" y="-169.5" font-family="Helvetica,sans-Serif" font-size="10.00"># _lastBlinkingState</text>
<text text-anchor="start" x="11.5" y="-158.5" font-family="Helvetica,sans-Serif" font-size="10.00"># _blinkingTicker</text>
<polyline fill="none" stroke="black" points="3.5,-151.5 139.5,-151.5 "/>
<text text-anchor="start" x="11.5" y="-139.5" font-family="Helvetica,sans-Serif" font-size="10.00">+ HardwareLedPwm()</text>
<text text-anchor="start" x="11.5" y="-128.5" font-family="Helvetica,sans-Serif" font-size="10.00">+ setState()</text>
<text text-anchor="start" x="11.5" y="-117.5" font-family="Helvetica,sans-Serif" font-size="10.00">+ setBrightness()</text>
<text text-anchor="start" x="11.5" y="-106.5" font-family="Helvetica,sans-Serif" font-size="10.00">+ setBlinking()</text>
<text text-anchor="start" x="11.5" y="-95.5" font-family="Helvetica,sans-Serif" font-size="10.00">+ getState()</text>
<text text-anchor="start" x="11.5" y="-84.5" font-family="Helvetica,sans-Serif" font-size="10.00">+ getBrightness()</text>
<text text-anchor="start" x="11.5" y="-73.5" font-family="Helvetica,sans-Serif" font-size="10.00">+ getBlinking()</text>
<text text-anchor="start" x="11.5" y="-62.5" font-family="Helvetica,sans-Serif" font-size="10.00">+ receive()</text>
<text text-anchor="start" x="11.5" y="-51.5" font-family="Helvetica,sans-Serif" font-size="10.00">+ setStatus()</text>
<text text-anchor="start" x="11.5" y="-40.5" font-family="Helvetica,sans-Serif" font-size="10.00">+ getStatus()</text>
<text text-anchor="start" x="11.5" y="-29.5" font-family="Helvetica,sans-Serif" font-size="10.00"># _refresh()</text>
<text text-anchor="start" x="11.5" y="-18.5" font-family="Helvetica,sans-Serif" font-size="10.00"># _attachBlinkingTicker()</text>
<text text-anchor="start" x="11.5" y="-7.5" font-family="Helvetica,sans-Serif" font-size="10.00"># _blinkingLoop()</text>
</g>
<!-- Node2 -->
<g id="node2" class="node"><title>Node2</title>
<g id="a_node2"><a xlink:href="class_i_led.html" target="_top" xlink:title="{ILed\n||+ ILed()\l+ setState()\l+ setBrightness()\l+ setBlinking()\l+ getState()\l+ getBrightness()\l+ getBlinking()\l}">
<polygon fill="white" stroke="black" points="20.5,-314.5 20.5,-437.5 122.5,-437.5 122.5,-314.5 20.5,-314.5"/>
<text text-anchor="middle" x="71.5" y="-425.5" font-family="Helvetica,sans-Serif" font-size="10.00">ILed</text>
<polyline fill="none" stroke="black" points="20.5,-418.5 122.5,-418.5 "/>
<text text-anchor="middle" x="71.5" y="-406.5" font-family="Helvetica,sans-Serif" font-size="10.00"> </text>
<polyline fill="none" stroke="black" points="20.5,-399.5 122.5,-399.5 "/>
<text text-anchor="start" x="28.5" y="-387.5" font-family="Helvetica,sans-Serif" font-size="10.00">+ ILed()</text>
<text text-anchor="start" x="28.5" y="-376.5" font-family="Helvetica,sans-Serif" font-size="10.00">+ setState()</text>
<text text-anchor="start" x="28.5" y="-365.5" font-family="Helvetica,sans-Serif" font-size="10.00">+ setBrightness()</text>
<text text-anchor="start" x="28.5" y="-354.5" font-family="Helvetica,sans-Serif" font-size="10.00">+ setBlinking()</text>
<text text-anchor="start" x="28.5" y="-343.5" font-family="Helvetica,sans-Serif" font-size="10.00">+ getState()</text>
<text text-anchor="start" x="28.5" y="-332.5" font-family="Helvetica,sans-Serif" font-size="10.00">+ getBrightness()</text>
<text text-anchor="start" x="28.5" y="-321.5" font-family="Helvetica,sans-Serif" font-size="10.00">+ getBlinking()</text>
</a>
</g>
</g>
<!-- Node2&#45;&gt;Node1 -->
<g id="edge1" class="edge"><title>Node2&#45;&gt;Node1</title>
<path fill="none" stroke="midnightblue" d="M71.5,-304.23C71.5,-295.651 71.5,-286.675 71.5,-277.532"/>
<polygon fill="none" stroke="midnightblue" points="68.0001,-304.482 71.5,-314.482 75.0001,-304.482 68.0001,-304.482"/>
</g>
<!-- Node3 -->
<g id="node3" class="node"><title>Node3</title>
<g id="a_node3"><a xlink:href="class_self_syncable.html" target="_top" xlink:title="{SelfSyncable\n|# _syncer\l# _syncerAttached\l|+ attach()\l+ detach()\l# _sendCommand()\l# _sendCommand()\l# _sendCommand()\l# _send()\l# _convertFloat()\l# _reconvertFloat()\l# _disassambleFloat()\l# _reassambleFloat()\l}">
<polygon fill="white" stroke="black" points="9.5,-474.5 9.5,-641.5 133.5,-641.5 133.5,-474.5 9.5,-474.5"/>
<text text-anchor="middle" x="71.5" y="-629.5" font-family="Helvetica,sans-Serif" font-size="10.00">SelfSyncable</text>
<polyline fill="none" stroke="black" points="9.5,-622.5 133.5,-622.5 "/>
<text text-anchor="start" x="17.5" y="-610.5" font-family="Helvetica,sans-Serif" font-size="10.00"># _syncer</text>
<text text-anchor="start" x="17.5" y="-599.5" font-family="Helvetica,sans-Serif" font-size="10.00"># _syncerAttached</text>
<polyline fill="none" stroke="black" points="9.5,-592.5 133.5,-592.5 "/>
<text text-anchor="start" x="17.5" y="-580.5" font-family="Helvetica,sans-Serif" font-size="10.00">+ attach()</text>
<text text-anchor="start" x="17.5" y="-569.5" font-family="Helvetica,sans-Serif" font-size="10.00">+ detach()</text>
<text text-anchor="start" x="17.5" y="-558.5" font-family="Helvetica,sans-Serif" font-size="10.00"># _sendCommand()</text>
<text text-anchor="start" x="17.5" y="-547.5" font-family="Helvetica,sans-Serif" font-size="10.00"># _sendCommand()</text>
<text text-anchor="start" x="17.5" y="-536.5" font-family="Helvetica,sans-Serif" font-size="10.00"># _sendCommand()</text>
<text text-anchor="start" x="17.5" y="-525.5" font-family="Helvetica,sans-Serif" font-size="10.00"># _send()</text>
<text text-anchor="start" x="17.5" y="-514.5" font-family="Helvetica,sans-Serif" font-size="10.00"># _convertFloat()</text>
<text text-anchor="start" x="17.5" y="-503.5" font-family="Helvetica,sans-Serif" font-size="10.00"># _reconvertFloat()</text>
<text text-anchor="start" x="17.5" y="-492.5" font-family="Helvetica,sans-Serif" font-size="10.00"># _disassambleFloat()</text>
<text text-anchor="start" x="17.5" y="-481.5" font-family="Helvetica,sans-Serif" font-size="10.00"># _reassambleFloat()</text>
</a>
</g>
</g>
<!-- Node3&#45;&gt;Node2 -->
<g id="edge2" class="edge"><title>Node3&#45;&gt;Node2</title>
<path fill="none" stroke="midnightblue" d="M71.5,-464.194C71.5,-455.173 71.5,-446.189 71.5,-437.607"/>
<polygon fill="none" stroke="midnightblue" points="68.0001,-464.375 71.5,-474.375 75.0001,-464.375 68.0001,-464.375"/>
</g>
<!-- Node4 -->
<g id="node4" class="node"><title>Node4</title>
<g id="a_node4"><a xlink:href="class_i_communication.html" target="_top" xlink:title="{ICommunication\n||+ receive()\l}">
<polygon fill="white" stroke="black" points="24,-678.5 24,-735.5 119,-735.5 119,-678.5 24,-678.5"/>
<text text-anchor="middle" x="71.5" y="-723.5" font-family="Helvetica,sans-Serif" font-size="10.00">ICommunication</text>
<polyline fill="none" stroke="black" points="24,-716.5 119,-716.5 "/>
<text text-anchor="middle" x="71.5" y="-704.5" font-family="Helvetica,sans-Serif" font-size="10.00"> </text>
<polyline fill="none" stroke="black" points="24,-697.5 119,-697.5 "/>
<text text-anchor="start" x="32" y="-685.5" font-family="Helvetica,sans-Serif" font-size="10.00">+ receive()</text>
</a>
</g>
</g>
<!-- Node4&#45;&gt;Node3 -->
<g id="edge3" class="edge"><title>Node4&#45;&gt;Node3</title>
<path fill="none" stroke="midnightblue" d="M71.5,-668.35C71.5,-660.08 71.5,-651.008 71.5,-641.738"/>
<polygon fill="none" stroke="midnightblue" points="68.0001,-668.35 71.5,-678.35 75.0001,-668.35 68.0001,-668.35"/>
</g>
<!-- Node5 -->
<g id="node5" class="node"><title>Node5</title>
<g id="a_node5"><a xlink:href="class_i_component.html" target="_top" xlink:title="{IComponent\n||+ IComponent()\l+ IComponent()\l+ setComponentSubId()\l+ getComponentType()\l+ getComponentSubId()\l+ getComponentId()\l+ getObjectType()\l# setComponentType()\l# setObjectType()\l}">
<polygon fill="white" stroke="black" points="4.5,-772.5 4.5,-917.5 138.5,-917.5 138.5,-772.5 4.5,-772.5"/>
<text text-anchor="middle" x="71.5" y="-905.5" font-family="Helvetica,sans-Serif" font-size="10.00">IComponent</text>
<polyline fill="none" stroke="black" points="4.5,-898.5 138.5,-898.5 "/>
<text text-anchor="middle" x="71.5" y="-886.5" font-family="Helvetica,sans-Serif" font-size="10.00"> </text>
<polyline fill="none" stroke="black" points="4.5,-879.5 138.5,-879.5 "/>
<text text-anchor="start" x="12.5" y="-867.5" font-family="Helvetica,sans-Serif" font-size="10.00">+ IComponent()</text>
<text text-anchor="start" x="12.5" y="-856.5" font-family="Helvetica,sans-Serif" font-size="10.00">+ IComponent()</text>
<text text-anchor="start" x="12.5" y="-845.5" font-family="Helvetica,sans-Serif" font-size="10.00">+ setComponentSubId()</text>
<text text-anchor="start" x="12.5" y="-834.5" font-family="Helvetica,sans-Serif" font-size="10.00">+ getComponentType()</text>
<text text-anchor="start" x="12.5" y="-823.5" font-family="Helvetica,sans-Serif" font-size="10.00">+ getComponentSubId()</text>
<text text-anchor="start" x="12.5" y="-812.5" font-family="Helvetica,sans-Serif" font-size="10.00">+ getComponentId()</text>
<text text-anchor="start" x="12.5" y="-801.5" font-family="Helvetica,sans-Serif" font-size="10.00">+ getObjectType()</text>
<text text-anchor="start" x="12.5" y="-790.5" font-family="Helvetica,sans-Serif" font-size="10.00"># setComponentType()</text>
<text text-anchor="start" x="12.5" y="-779.5" font-family="Helvetica,sans-Serif" font-size="10.00"># setObjectType()</text>
</a>
</g>
</g>
<!-- Node5&#45;&gt;Node4 -->
<g id="edge4" class="edge"><title>Node5&#45;&gt;Node4</title>
<path fill="none" stroke="midnightblue" d="M71.5,-762.387C71.5,-752.861 71.5,-743.707 71.5,-735.714"/>
<polygon fill="none" stroke="midnightblue" points="68.0001,-762.416 71.5,-772.416 75.0001,-762.416 68.0001,-762.416"/>
</g>
<!-- Node6 -->
<g id="node6" class="node"><title>Node6</title>
<g id="a_node6"><a xlink:href="class_i_logable.html" target="_top" xlink:title="{ILogable\n||+ setStatus()\l+ getStatus()\l+ getLogValueCount()\l+ getLogValue()\l}">
<polygon fill="white" stroke="black" points="10,-954.5 10,-1044.5 133,-1044.5 133,-954.5 10,-954.5"/>
<text text-anchor="middle" x="71.5" y="-1032.5" font-family="Helvetica,sans-Serif" font-size="10.00">ILogable</text>
<polyline fill="none" stroke="black" points="10,-1025.5 133,-1025.5 "/>
<text text-anchor="middle" x="71.5" y="-1013.5" font-family="Helvetica,sans-Serif" font-size="10.00"> </text>
<polyline fill="none" stroke="black" points="10,-1006.5 133,-1006.5 "/>
<text text-anchor="start" x="18" y="-994.5" font-family="Helvetica,sans-Serif" font-size="10.00">+ setStatus()</text>
<text text-anchor="start" x="18" y="-983.5" font-family="Helvetica,sans-Serif" font-size="10.00">+ getStatus()</text>
<text text-anchor="start" x="18" y="-972.5" font-family="Helvetica,sans-Serif" font-size="10.00">+ getLogValueCount()</text>
<text text-anchor="start" x="18" y="-961.5" font-family="Helvetica,sans-Serif" font-size="10.00">+ getLogValue()</text>
</a>
</g>
</g>
<!-- Node6&#45;&gt;Node5 -->
<g id="edge5" class="edge"><title>Node6&#45;&gt;Node5</title>
<path fill="none" stroke="midnightblue" d="M71.5,-944.13C71.5,-935.526 71.5,-926.516 71.5,-917.591"/>
<polygon fill="none" stroke="midnightblue" points="68.0001,-944.391 71.5,-954.391 75.0001,-944.391 68.0001,-944.391"/>
</g>
<!-- Node7 -->
<g id="node7" class="node"><title>Node7</title>
<g id="a_node7"><a xlink:href="class_non_copyable.html" target="_top" xlink:title="{NonCopyable\&lt; ILogable \&gt;\n||+ NonCopyable()\l}">
<polygon fill="white" stroke="black" points="0,-1081.5 0,-1138.5 143,-1138.5 143,-1081.5 0,-1081.5"/>
<text text-anchor="middle" x="71.5" y="-1126.5" font-family="Helvetica,sans-Serif" font-size="10.00">NonCopyable&lt; ILogable &gt;</text>
<polyline fill="none" stroke="black" points="0,-1119.5 143,-1119.5 "/>
<text text-anchor="middle" x="71.5" y="-1107.5" font-family="Helvetica,sans-Serif" font-size="10.00"> </text>
<polyline fill="none" stroke="black" points="0,-1100.5 143,-1100.5 "/>
<text text-anchor="start" x="8" y="-1088.5" font-family="Helvetica,sans-Serif" font-size="10.00">+ NonCopyable()</text>
</a>
</g>
</g>
<!-- Node7&#45;&gt;Node6 -->
<g id="edge6" class="edge"><title>Node7&#45;&gt;Node6</title>
<path fill="none" stroke="#8b1a1a" d="M71.5,-1071.21C71.5,-1062.61 71.5,-1053.39 71.5,-1044.55"/>
<polygon fill="none" stroke="#8b1a1a" points="68.0001,-1071.34 71.5,-1081.34 75.0001,-1071.34 68.0001,-1071.34"/>
</g>
</g>
</svg>
