<?xml version="1.0" encoding="UTF-8" standalone="no"?>
<!DOCTYPE svg PUBLIC "-//W3C//DTD SVG 1.1//EN"
 "http://www.w3.org/Graphics/SVG/1.1/DTD/svg11.dtd">
<!-- Generated by graphviz version 2.38.0 (20140413.2041)
 -->
<!-- Title: CarMessage Pages: 1 -->
<svg width="174pt" height="552pt"
 viewBox="0.00 0.00 174.00 552.00" xmlns="http://www.w3.org/2000/svg" xmlns:xlink="http://www.w3.org/1999/xlink">
<g id="graph0" class="graph" transform="scale(1 1) rotate(0) translate(4 548)">
<title>CarMessage</title>
<polygon fill="white" stroke="none" points="-4,4 -4,-548 170,-548 170,4 -4,4"/>
<!-- Node1 -->
<g id="node1" class="node"><title>Node1</title>
<polygon fill="#bfbfbf" stroke="black" points="0,-0.5 0,-200.5 166,-200.5 166,-0.5 0,-0.5"/>
<text text-anchor="middle" x="83" y="-188.5" font-family="Helvetica,sans-Serif" font-size="10.00">CarMessage</text>
<polyline fill="none" stroke="black" points="0,-181.5 166,-181.5 "/>
<text text-anchor="start" x="8" y="-169.5" font-family="Helvetica,sans-Serif" font-size="10.00"># _senderId</text>
<text text-anchor="start" x="8" y="-158.5" font-family="Helvetica,sans-Serif" font-size="10.00"># _receiverId</text>
<text text-anchor="start" x="8" y="-147.5" font-family="Helvetica,sans-Serif" font-size="10.00"># _componentId</text>
<text text-anchor="start" x="8" y="-136.5" font-family="Helvetica,sans-Serif" font-size="10.00"># _dropable</text>
<polyline fill="none" stroke="black" points="0,-129.5 166,-129.5 "/>
<text text-anchor="start" x="8" y="-117.5" font-family="Helvetica,sans-Serif" font-size="10.00">+ CarMessage()</text>
<text text-anchor="start" x="8" y="-106.5" font-family="Helvetica,sans-Serif" font-size="10.00">+ CarMessage()</text>
<text text-anchor="start" x="8" y="-95.5" font-family="Helvetica,sans-Serif" font-size="10.00">+ reserve()</text>
<text text-anchor="start" x="8" y="-84.5" font-family="Helvetica,sans-Serif" font-size="10.00">+ setSenderId()</text>
<text text-anchor="start" x="8" y="-73.5" font-family="Helvetica,sans-Serif" font-size="10.00">+ getSenderId()</text>
<text text-anchor="start" x="8" y="-62.5" font-family="Helvetica,sans-Serif" font-size="10.00">+ setReceiverId()</text>
<text text-anchor="start" x="8" y="-51.5" font-family="Helvetica,sans-Serif" font-size="10.00">+ getReceiverId()</text>
<text text-anchor="start" x="8" y="-40.5" font-family="Helvetica,sans-Serif" font-size="10.00">+ setIdsFromMessageHeader()</text>
<text text-anchor="start" x="8" y="-29.5" font-family="Helvetica,sans-Serif" font-size="10.00">+ getMessageHeader()</text>
<text text-anchor="start" x="8" y="-18.5" font-family="Helvetica,sans-Serif" font-size="10.00">+ addSubMessage()</text>
<text text-anchor="start" x="8" y="-7.5" font-family="Helvetica,sans-Serif" font-size="10.00">and 6 more...</text>
</g>
<!-- Node2 -->
<g id="node2" class="node"><title>Node2</title>
<g id="a_node2"><a xlink:href="classstd_1_1vector.html" target="_top" xlink:title="{std::vector\&lt; car_sub\l_message_t \&gt;\n||+ ~vector()\l+ at()\l+ operator[]()\l+ front()\l+ back()\l+ data()\l+ begin()\l+ end()\l+ empty()\l+ size()\land 7 more...\l}">
<polygon fill="white" stroke="black" points="25,-248.5 25,-426.5 141,-426.5 141,-248.5 25,-248.5"/>
<text text-anchor="start" x="33" y="-414.5" font-family="Helvetica,sans-Serif" font-size="10.00">std::vector&lt; car_sub</text>
<text text-anchor="middle" x="83" y="-403.5" font-family="Helvetica,sans-Serif" font-size="10.00">_message_t &gt;</text>
<polyline fill="none" stroke="black" points="25,-396.5 141,-396.5 "/>
<text text-anchor="middle" x="83" y="-384.5" font-family="Helvetica,sans-Serif" font-size="10.00"> </text>
<polyline fill="none" stroke="black" points="25,-377.5 141,-377.5 "/>
<text text-anchor="start" x="33" y="-365.5" font-family="Helvetica,sans-Serif" font-size="10.00">+ ~vector()</text>
<text text-anchor="start" x="33" y="-354.5" font-family="Helvetica,sans-Serif" font-size="10.00">+ at()</text>
<text text-anchor="start" x="33" y="-343.5" font-family="Helvetica,sans-Serif" font-size="10.00">+ operator[]()</text>
<text text-anchor="start" x="33" y="-332.5" font-family="Helvetica,sans-Serif" font-size="10.00">+ front()</text>
<text text-anchor="start" x="33" y="-321.5" font-family="Helvetica,sans-Serif" font-size="10.00">+ back()</text>
<text text-anchor="start" x="33" y="-310.5" font-family="Helvetica,sans-Serif" font-size="10.00">+ data()</text>
<text text-anchor="start" x="33" y="-299.5" font-family="Helvetica,sans-Serif" font-size="10.00">+ begin()</text>
<text text-anchor="start" x="33" y="-288.5" font-family="Helvetica,sans-Serif" font-size="10.00">+ end()</text>
<text text-anchor="start" x="33" y="-277.5" font-family="Helvetica,sans-Serif" font-size="10.00">+ empty()</text>
<text text-anchor="start" x="33" y="-266.5" font-family="Helvetica,sans-Serif" font-size="10.00">+ size()</text>
<text text-anchor="start" x="33" y="-255.5" font-family="Helvetica,sans-Serif" font-size="10.00">and 7 more...</text>
</a>
</g>
</g>
<!-- Node2&#45;&gt;Node1 -->
<g id="edge1" class="edge"><title>Node2&#45;&gt;Node1</title>
<path fill="none" stroke="#404040" d="M83,-248.326C83,-236.823 83,-224.92 83,-213.097"/>
<polygon fill="none" stroke="#404040" points="83.0001,-212.825 79,-206.825 83,-200.825 87,-206.824 83.0001,-212.825"/>
<text text-anchor="middle" x="121.5" y="-222" font-family="Helvetica,sans-Serif" font-size="10.00"> +subMessages</text>
</g>
<!-- Node3 -->
<g id="node3" class="node"><title>Node3</title>
<g id="a_node3"><a xlink:href="class_non_copyable.html" target="_top" xlink:title="{NonCopyable\&lt; vector\l\&lt; car_sub_message_t,\l unsigned int \&gt; \&gt;\n||+ NonCopyable()\l}">
<polygon fill="white" stroke="black" points="19.5,-464.5 19.5,-543.5 146.5,-543.5 146.5,-464.5 19.5,-464.5"/>
<text text-anchor="start" x="27.5" y="-531.5" font-family="Helvetica,sans-Serif" font-size="10.00">NonCopyable&lt; vector</text>
<text text-anchor="start" x="27.5" y="-520.5" font-family="Helvetica,sans-Serif" font-size="10.00">&lt; car_sub_message_t,</text>
<text text-anchor="middle" x="83" y="-509.5" font-family="Helvetica,sans-Serif" font-size="10.00"> unsigned int &gt; &gt;</text>
<polyline fill="none" stroke="black" points="19.5,-502.5 146.5,-502.5 "/>
<text text-anchor="middle" x="83" y="-490.5" font-family="Helvetica,sans-Serif" font-size="10.00"> </text>
<polyline fill="none" stroke="black" points="19.5,-483.5 146.5,-483.5 "/>
<text text-anchor="start" x="27.5" y="-471.5" font-family="Helvetica,sans-Serif" font-size="10.00">+ NonCopyable()</text>
</a>
</g>
</g>
<!-- Node3&#45;&gt;Node2 -->
<g id="edge2" class="edge"><title>Node3&#45;&gt;Node2</title>
<path fill="none" stroke="#8b1a1a" d="M83,-454.388C83,-445.561 83,-436.109 83,-426.552"/>
<polygon fill="none" stroke="#8b1a1a" points="79.5001,-454.432 83,-464.432 86.5001,-454.432 79.5001,-454.432"/>
</g>
</g>
</svg>
