<?xml version="1.0" encoding="UTF-8" standalone="no"?>
<!DOCTYPE svg PUBLIC "-//W3C//DTD SVG 1.1//EN"
 "http://www.w3.org/Graphics/SVG/1.1/DTD/svg11.dtd">
<!-- Generated by graphviz version 2.38.0 (20140413.2041)
 -->
<!-- Title: HardwareFan Pages: 1 -->
<svg width="249pt" height="687pt"
 viewBox="0.00 0.00 249.00 687.00" xmlns="http://www.w3.org/2000/svg" xmlns:xlink="http://www.w3.org/1999/xlink">
<g id="graph0" class="graph" transform="scale(1 1) rotate(0) translate(4 683)">
<title>HardwareFan</title>
<polygon fill="white" stroke="none" points="-4,4 -4,-683 245,-683 245,4 -4,4"/>
<!-- Node1 -->
<g id="node1" class="node"><title>Node1</title>
<polygon fill="#bfbfbf" stroke="black" points="106.5,-0.5 106.5,-112.5 204.5,-112.5 204.5,-0.5 106.5,-0.5"/>
<text text-anchor="middle" x="155.5" y="-100.5" font-family="Helvetica,sans-Serif" font-size="10.00">HardwareFan</text>
<polyline fill="none" stroke="black" points="106.5,-93.5 204.5,-93.5 "/>
<text text-anchor="middle" x="155.5" y="-81.5" font-family="Helvetica,sans-Serif" font-size="10.00"> </text>
<polyline fill="none" stroke="black" points="106.5,-74.5 204.5,-74.5 "/>
<text text-anchor="start" x="114.5" y="-62.5" font-family="Helvetica,sans-Serif" font-size="10.00">+ HardwareFan()</text>
<text text-anchor="start" x="114.5" y="-51.5" font-family="Helvetica,sans-Serif" font-size="10.00">+ HardwareFan()</text>
<text text-anchor="start" x="114.5" y="-40.5" font-family="Helvetica,sans-Serif" font-size="10.00">+ setState()</text>
<text text-anchor="start" x="114.5" y="-29.5" font-family="Helvetica,sans-Serif" font-size="10.00">+ getState()</text>
<text text-anchor="start" x="114.5" y="-18.5" font-family="Helvetica,sans-Serif" font-size="10.00">+ setStatus()</text>
<text text-anchor="start" x="114.5" y="-7.5" font-family="Helvetica,sans-Serif" font-size="10.00">+ getStatus()</text>
</g>
<!-- Node2 -->
<g id="node2" class="node"><title>Node2</title>
<g id="a_node2"><a xlink:href="class_i_fan.html" target="_top" xlink:title="{IFan\n||+ setState()\l+ getState()\l}">
<polygon fill="white" stroke="black" points="33,-182.5 33,-250.5 110,-250.5 110,-182.5 33,-182.5"/>
<text text-anchor="middle" x="71.5" y="-238.5" font-family="Helvetica,sans-Serif" font-size="10.00">IFan</text>
<polyline fill="none" stroke="black" points="33,-231.5 110,-231.5 "/>
<text text-anchor="middle" x="71.5" y="-219.5" font-family="Helvetica,sans-Serif" font-size="10.00"> </text>
<polyline fill="none" stroke="black" points="33,-212.5 110,-212.5 "/>
<text text-anchor="start" x="41" y="-200.5" font-family="Helvetica,sans-Serif" font-size="10.00">+ setState()</text>
<text text-anchor="start" x="41" y="-189.5" font-family="Helvetica,sans-Serif" font-size="10.00">+ getState()</text>
</a>
</g>
</g>
<!-- Node2&#45;&gt;Node1 -->
<g id="edge1" class="edge"><title>Node2&#45;&gt;Node1</title>
<path fill="none" stroke="midnightblue" d="M93.8143,-173.528C103.736,-154.865 115.553,-132.639 126.176,-112.658"/>
<polygon fill="none" stroke="midnightblue" points="90.7131,-171.905 89.1092,-182.378 96.8939,-175.191 90.7131,-171.905"/>
</g>
<!-- Node3 -->
<g id="node3" class="node"><title>Node3</title>
<g id="a_node3"><a xlink:href="class_i_component.html" target="_top" xlink:title="{IComponent\n||+ IComponent()\l+ IComponent()\l+ setComponentSubId()\l+ getComponentType()\l+ getComponentSubId()\l+ getComponentId()\l+ getObjectType()\l# setComponentType()\l# setObjectType()\l}">
<polygon fill="white" stroke="black" points="4.5,-310.5 4.5,-455.5 138.5,-455.5 138.5,-310.5 4.5,-310.5"/>
<text text-anchor="middle" x="71.5" y="-443.5" font-family="Helvetica,sans-Serif" font-size="10.00">IComponent</text>
<polyline fill="none" stroke="black" points="4.5,-436.5 138.5,-436.5 "/>
<text text-anchor="middle" x="71.5" y="-424.5" font-family="Helvetica,sans-Serif" font-size="10.00"> </text>
<polyline fill="none" stroke="black" points="4.5,-417.5 138.5,-417.5 "/>
<text text-anchor="start" x="12.5" y="-405.5" font-family="Helvetica,sans-Serif" font-size="10.00">+ IComponent()</text>
<text text-anchor="start" x="12.5" y="-394.5" font-family="Helvetica,sans-Serif" font-size="10.00">+ IComponent()</text>
<text text-anchor="start" x="12.5" y="-383.5" font-family="Helvetica,sans-Serif" font-size="10.00">+ setComponentSubId()</text>
<text text-anchor="start" x="12.5" y="-372.5" font-family="Helvetica,sans-Serif" font-size="10.00">+ getComponentType()</text>
<text text-anchor="start" x="12.5" y="-361.5" font-family="Helvetica,sans-Serif" font-size="10.00">+ getComponentSubId()</text>
<text text-anchor="start" x="12.5" y="-350.5" font-family="Helvetica,sans-Serif" font-size="10.00">+ getComponentId()</text>
<text text-anchor="start" x="12.5" y="-339.5" font-family="Helvetica,sans-Serif" font-size="10.00">+ getObjectType()</text>
<text text-anchor="start" x="12.5" y="-328.5" font-family="Helvetica,sans-Serif" font-size="10.00"># setComponentType()</text>
<text text-anchor="start" x="12.5" y="-317.5" font-family="Helvetica,sans-Serif" font-size="10.00"># setObjectType()</text>
</a>
</g>
</g>
<!-- Node3&#45;&gt;Node2 -->
<g id="edge2" class="edge"><title>Node3&#45;&gt;Node2</title>
<path fill="none" stroke="midnightblue" d="M71.5,-300.049C71.5,-282.55 71.5,-265.032 71.5,-250.665"/>
<polygon fill="none" stroke="midnightblue" points="68.0001,-300.326 71.5,-310.326 75.0001,-300.326 68.0001,-300.326"/>
</g>
<!-- Node4 -->
<g id="node4" class="node"><title>Node4</title>
<g id="a_node4"><a xlink:href="class_i_logable.html" target="_top" xlink:title="{ILogable\n||+ setStatus()\l+ getStatus()\l+ getLogValueCount()\l+ getLogValue()\l}">
<polygon fill="white" stroke="black" points="10,-493.5 10,-583.5 133,-583.5 133,-493.5 10,-493.5"/>
<text text-anchor="middle" x="71.5" y="-571.5" font-family="Helvetica,sans-Serif" font-size="10.00">ILogable</text>
<polyline fill="none" stroke="black" points="10,-564.5 133,-564.5 "/>
<text text-anchor="middle" x="71.5" y="-552.5" font-family="Helvetica,sans-Serif" font-size="10.00"> </text>
<polyline fill="none" stroke="black" points="10,-545.5 133,-545.5 "/>
<text text-anchor="start" x="18" y="-533.5" font-family="Helvetica,sans-Serif" font-size="10.00">+ setStatus()</text>
<text text-anchor="start" x="18" y="-522.5" font-family="Helvetica,sans-Serif" font-size="10.00">+ getStatus()</text>
<text text-anchor="start" x="18" y="-511.5" font-family="Helvetica,sans-Serif" font-size="10.00">+ getLogValueCount()</text>
<text text-anchor="start" x="18" y="-500.5" font-family="Helvetica,sans-Serif" font-size="10.00">+ getLogValue()</text>
</a>
</g>
</g>
<!-- Node4&#45;&gt;Node3 -->
<g id="edge3" class="edge"><title>Node4&#45;&gt;Node3</title>
<path fill="none" stroke="midnightblue" d="M71.5,-482.98C71.5,-474.165 71.5,-464.921 71.5,-455.771"/>
<polygon fill="none" stroke="midnightblue" points="68.0001,-483.101 71.5,-493.101 75.0001,-483.101 68.0001,-483.101"/>
</g>
<!-- Node5 -->
<g id="node5" class="node"><title>Node5</title>
<g id="a_node5"><a xlink:href="class_non_copyable.html" target="_top" xlink:title="{NonCopyable\&lt; ILogable \&gt;\n||+ NonCopyable()\l}">
<polygon fill="white" stroke="black" points="0,-621.5 0,-678.5 143,-678.5 143,-621.5 0,-621.5"/>
<text text-anchor="middle" x="71.5" y="-666.5" font-family="Helvetica,sans-Serif" font-size="10.00">NonCopyable&lt; ILogable &gt;</text>
<polyline fill="none" stroke="black" points="0,-659.5 143,-659.5 "/>
<text text-anchor="middle" x="71.5" y="-647.5" font-family="Helvetica,sans-Serif" font-size="10.00"> </text>
<polyline fill="none" stroke="black" points="0,-640.5 143,-640.5 "/>
<text text-anchor="start" x="8" y="-628.5" font-family="Helvetica,sans-Serif" font-size="10.00">+ NonCopyable()</text>
</a>
</g>
</g>
<!-- Node5&#45;&gt;Node4 -->
<g id="edge4" class="edge"><title>Node5&#45;&gt;Node4</title>
<path fill="none" stroke="#8b1a1a" d="M71.5,-611.312C71.5,-602.43 71.5,-592.883 71.5,-583.742"/>
<polygon fill="none" stroke="#8b1a1a" points="68.0001,-611.368 71.5,-621.369 75.0001,-611.369 68.0001,-611.368"/>
</g>
<!-- Node6 -->
<g id="node6" class="node"><title>Node6</title>
<g id="a_node6"><a xlink:href="class_digital_out.html" target="_top" xlink:title="{DigitalOut\n||+ DigitalOut()\l+ DigitalOut()\l+ write()\l+ read()\l+ operator=()\l+ operator uint8_t()\l}">
<polygon fill="white" stroke="black" points="128,-160.5 128,-272.5 241,-272.5 241,-160.5 128,-160.5"/>
<text text-anchor="middle" x="184.5" y="-260.5" font-family="Helvetica,sans-Serif" font-size="10.00">DigitalOut</text>
<polyline fill="none" stroke="black" points="128,-253.5 241,-253.5 "/>
<text text-anchor="middle" x="184.5" y="-241.5" font-family="Helvetica,sans-Serif" font-size="10.00"> </text>
<polyline fill="none" stroke="black" points="128,-234.5 241,-234.5 "/>
<text text-anchor="start" x="136" y="-222.5" font-family="Helvetica,sans-Serif" font-size="10.00">+ DigitalOut()</text>
<text text-anchor="start" x="136" y="-211.5" font-family="Helvetica,sans-Serif" font-size="10.00">+ DigitalOut()</text>
<text text-anchor="start" x="136" y="-200.5" font-family="Helvetica,sans-Serif" font-size="10.00">+ write()</text>
<text text-anchor="start" x="136" y="-189.5" font-family="Helvetica,sans-Serif" font-size="10.00">+ read()</text>
<text text-anchor="start" x="136" y="-178.5" font-family="Helvetica,sans-Serif" font-size="10.00">+ operator=()</text>
<text text-anchor="start" x="136" y="-167.5" font-family="Helvetica,sans-Serif" font-size="10.00">+ operator uint8_t()</text>
</a>
</g>
</g>
<!-- Node6&#45;&gt;Node1 -->
<g id="edge5" class="edge"><title>Node6&#45;&gt;Node1</title>
<path fill="none" stroke="#404040" d="M174.357,-160.239C172.26,-148.813 170.029,-136.657 167.863,-124.855"/>
<polygon fill="none" stroke="#404040" points="167.803,-124.532 162.786,-119.353 165.637,-112.73 170.655,-117.909 167.803,-124.532"/>
<text text-anchor="middle" x="189" y="-134" font-family="Helvetica,sans-Serif" font-size="10.00"> #_port</text>
</g>
</g>
</svg>
