<?xml version="1.0" encoding="UTF-8" standalone="no"?>
<!DOCTYPE svg PUBLIC "-//W3C//DTD SVG 1.1//EN"
 "http://www.w3.org/Graphics/SVG/1.1/DTD/svg11.dtd">
<!-- Generated by graphviz version 2.38.0 (20140413.2041)
 -->
<!-- Title: IAlive Pages: 1 -->
<svg width="230pt" height="960pt"
 viewBox="0.00 0.00 230.00 960.00" xmlns="http://www.w3.org/2000/svg" xmlns:xlink="http://www.w3.org/1999/xlink">
<g id="graph0" class="graph" transform="scale(1 1) rotate(0) translate(4 956)">
<title>IAlive</title>
<polygon fill="white" stroke="none" points="-4,4 -4,-956 226,-956 226,4 -4,4"/>
<!-- Node1 -->
<g id="node1" class="node"><title>Node1</title>
<polygon fill="#bfbfbf" stroke="black" points="50.5,-160.5 50.5,-250.5 173.5,-250.5 173.5,-160.5 50.5,-160.5"/>
<text text-anchor="middle" x="112" y="-238.5" font-family="Helvetica,sans-Serif" font-size="10.00">IAlive</text>
<polyline fill="none" stroke="black" points="50.5,-231.5 173.5,-231.5 "/>
<text text-anchor="middle" x="112" y="-219.5" font-family="Helvetica,sans-Serif" font-size="10.00"> </text>
<polyline fill="none" stroke="black" points="50.5,-212.5 173.5,-212.5 "/>
<text text-anchor="start" x="58.5" y="-200.5" font-family="Helvetica,sans-Serif" font-size="10.00">+ setAlive()</text>
<text text-anchor="start" x="58.5" y="-189.5" font-family="Helvetica,sans-Serif" font-size="10.00">+ getAlive()</text>
<text text-anchor="start" x="58.5" y="-178.5" font-family="Helvetica,sans-Serif" font-size="10.00">+ getLogValueCount()</text>
<text text-anchor="start" x="58.5" y="-167.5" font-family="Helvetica,sans-Serif" font-size="10.00">+ getLogValue()</text>
</g>
<!-- Node7 -->
<g id="node7" class="node"><title>Node7</title>
<g id="a_node7"><a xlink:href="class_hardware_alive.html" target="_top" xlink:title="{HardwareAlive\n||+ HardwareAlive()\l+ HardwareAlive()\l+ setAlive()\l+ getAlive()\l+ setStatus()\l+ getStatus()\l+ receive()\l}">
<polygon fill="white" stroke="black" points="0,-0.5 0,-123.5 104,-123.5 104,-0.5 0,-0.5"/>
<text text-anchor="middle" x="52" y="-111.5" font-family="Helvetica,sans-Serif" font-size="10.00">HardwareAlive</text>
<polyline fill="none" stroke="black" points="0,-104.5 104,-104.5 "/>
<text text-anchor="middle" x="52" y="-92.5" font-family="Helvetica,sans-Serif" font-size="10.00"> </text>
<polyline fill="none" stroke="black" points="0,-85.5 104,-85.5 "/>
<text text-anchor="start" x="8" y="-73.5" font-family="Helvetica,sans-Serif" font-size="10.00">+ HardwareAlive()</text>
<text text-anchor="start" x="8" y="-62.5" font-family="Helvetica,sans-Serif" font-size="10.00">+ HardwareAlive()</text>
<text text-anchor="start" x="8" y="-51.5" font-family="Helvetica,sans-Serif" font-size="10.00">+ setAlive()</text>
<text text-anchor="start" x="8" y="-40.5" font-family="Helvetica,sans-Serif" font-size="10.00">+ getAlive()</text>
<text text-anchor="start" x="8" y="-29.5" font-family="Helvetica,sans-Serif" font-size="10.00">+ setStatus()</text>
<text text-anchor="start" x="8" y="-18.5" font-family="Helvetica,sans-Serif" font-size="10.00">+ getStatus()</text>
<text text-anchor="start" x="8" y="-7.5" font-family="Helvetica,sans-Serif" font-size="10.00">+ receive()</text>
</a>
</g>
</g>
<!-- Node1&#45;&gt;Node7 -->
<g id="edge6" class="edge"><title>Node1&#45;&gt;Node7</title>
<path fill="none" stroke="midnightblue" d="M89.1772,-150.676C85.4192,-141.814 81.5017,-132.575 77.6796,-123.561"/>
<polygon fill="none" stroke="midnightblue" points="86.0541,-152.277 93.1802,-160.117 92.4986,-149.544 86.0541,-152.277"/>
</g>
<!-- Node8 -->
<g id="node8" class="node"><title>Node8</title>
<g id="a_node8"><a xlink:href="class_software_alive.html" target="_top" xlink:title="{SoftwareAlive\n||+ SoftwareAlive()\l+ setAlive()\l+ getAlive()\l+ setStatus()\l+ getStatus()\l+ receive()\l}">
<polygon fill="white" stroke="black" points="122,-6 122,-118 222,-118 222,-6 122,-6"/>
<text text-anchor="middle" x="172" y="-106" font-family="Helvetica,sans-Serif" font-size="10.00">SoftwareAlive</text>
<polyline fill="none" stroke="black" points="122,-99 222,-99 "/>
<text text-anchor="middle" x="172" y="-87" font-family="Helvetica,sans-Serif" font-size="10.00"> </text>
<polyline fill="none" stroke="black" points="122,-80 222,-80 "/>
<text text-anchor="start" x="130" y="-68" font-family="Helvetica,sans-Serif" font-size="10.00">+ SoftwareAlive()</text>
<text text-anchor="start" x="130" y="-57" font-family="Helvetica,sans-Serif" font-size="10.00">+ setAlive()</text>
<text text-anchor="start" x="130" y="-46" font-family="Helvetica,sans-Serif" font-size="10.00">+ getAlive()</text>
<text text-anchor="start" x="130" y="-35" font-family="Helvetica,sans-Serif" font-size="10.00">+ setStatus()</text>
<text text-anchor="start" x="130" y="-24" font-family="Helvetica,sans-Serif" font-size="10.00">+ getStatus()</text>
<text text-anchor="start" x="130" y="-13" font-family="Helvetica,sans-Serif" font-size="10.00">+ receive()</text>
</a>
</g>
</g>
<!-- Node1&#45;&gt;Node8 -->
<g id="edge7" class="edge"><title>Node1&#45;&gt;Node8</title>
<path fill="none" stroke="midnightblue" d="M134.734,-150.886C139.27,-140.188 144.042,-128.935 148.6,-118.186"/>
<polygon fill="none" stroke="midnightblue" points="131.501,-149.544 130.82,-160.117 137.946,-152.277 131.501,-149.544"/>
</g>
<!-- Node2 -->
<g id="node2" class="node"><title>Node2</title>
<g id="a_node2"><a xlink:href="class_self_syncable.html" target="_top" xlink:title="{SelfSyncable\n|# _syncer\l# _syncerAttached\l|+ attach()\l+ detach()\l# _sendCommand()\l# _sendCommand()\l# _sendCommand()\l# _send()\l# _convertFloat()\l# _reconvertFloat()\l# _disassambleFloat()\l# _reassambleFloat()\l}">
<polygon fill="white" stroke="black" points="50,-287.5 50,-454.5 174,-454.5 174,-287.5 50,-287.5"/>
<text text-anchor="middle" x="112" y="-442.5" font-family="Helvetica,sans-Serif" font-size="10.00">SelfSyncable</text>
<polyline fill="none" stroke="black" points="50,-435.5 174,-435.5 "/>
<text text-anchor="start" x="58" y="-423.5" font-family="Helvetica,sans-Serif" font-size="10.00"># _syncer</text>
<text text-anchor="start" x="58" y="-412.5" font-family="Helvetica,sans-Serif" font-size="10.00"># _syncerAttached</text>
<polyline fill="none" stroke="black" points="50,-405.5 174,-405.5 "/>
<text text-anchor="start" x="58" y="-393.5" font-family="Helvetica,sans-Serif" font-size="10.00">+ attach()</text>
<text text-anchor="start" x="58" y="-382.5" font-family="Helvetica,sans-Serif" font-size="10.00">+ detach()</text>
<text text-anchor="start" x="58" y="-371.5" font-family="Helvetica,sans-Serif" font-size="10.00"># _sendCommand()</text>
<text text-anchor="start" x="58" y="-360.5" font-family="Helvetica,sans-Serif" font-size="10.00"># _sendCommand()</text>
<text text-anchor="start" x="58" y="-349.5" font-family="Helvetica,sans-Serif" font-size="10.00"># _sendCommand()</text>
<text text-anchor="start" x="58" y="-338.5" font-family="Helvetica,sans-Serif" font-size="10.00"># _send()</text>
<text text-anchor="start" x="58" y="-327.5" font-family="Helvetica,sans-Serif" font-size="10.00"># _convertFloat()</text>
<text text-anchor="start" x="58" y="-316.5" font-family="Helvetica,sans-Serif" font-size="10.00"># _reconvertFloat()</text>
<text text-anchor="start" x="58" y="-305.5" font-family="Helvetica,sans-Serif" font-size="10.00"># _disassambleFloat()</text>
<text text-anchor="start" x="58" y="-294.5" font-family="Helvetica,sans-Serif" font-size="10.00"># _reassambleFloat()</text>
</a>
</g>
</g>
<!-- Node2&#45;&gt;Node1 -->
<g id="edge1" class="edge"><title>Node2&#45;&gt;Node1</title>
<path fill="none" stroke="midnightblue" d="M112,-277.223C112,-267.991 112,-258.951 112,-250.584"/>
<polygon fill="none" stroke="midnightblue" points="108.5,-277.292 112,-287.292 115.5,-277.292 108.5,-277.292"/>
</g>
<!-- Node3 -->
<g id="node3" class="node"><title>Node3</title>
<g id="a_node3"><a xlink:href="class_i_communication.html" target="_top" xlink:title="{ICommunication\n||+ receive()\l}">
<polygon fill="white" stroke="black" points="64.5,-491.5 64.5,-548.5 159.5,-548.5 159.5,-491.5 64.5,-491.5"/>
<text text-anchor="middle" x="112" y="-536.5" font-family="Helvetica,sans-Serif" font-size="10.00">ICommunication</text>
<polyline fill="none" stroke="black" points="64.5,-529.5 159.5,-529.5 "/>
<text text-anchor="middle" x="112" y="-517.5" font-family="Helvetica,sans-Serif" font-size="10.00"> </text>
<polyline fill="none" stroke="black" points="64.5,-510.5 159.5,-510.5 "/>
<text text-anchor="start" x="72.5" y="-498.5" font-family="Helvetica,sans-Serif" font-size="10.00">+ receive()</text>
</a>
</g>
</g>
<!-- Node3&#45;&gt;Node2 -->
<g id="edge2" class="edge"><title>Node3&#45;&gt;Node2</title>
<path fill="none" stroke="midnightblue" d="M112,-481.35C112,-473.08 112,-464.008 112,-454.738"/>
<polygon fill="none" stroke="midnightblue" points="108.5,-481.35 112,-491.35 115.5,-481.35 108.5,-481.35"/>
</g>
<!-- Node4 -->
<g id="node4" class="node"><title>Node4</title>
<g id="a_node4"><a xlink:href="class_i_component.html" target="_top" xlink:title="{IComponent\n||+ IComponent()\l+ IComponent()\l+ setComponentSubId()\l+ getComponentType()\l+ getComponentSubId()\l+ getComponentId()\l+ getObjectType()\l# setComponentType()\l# setObjectType()\l}">
<polygon fill="white" stroke="black" points="45,-585.5 45,-730.5 179,-730.5 179,-585.5 45,-585.5"/>
<text text-anchor="middle" x="112" y="-718.5" font-family="Helvetica,sans-Serif" font-size="10.00">IComponent</text>
<polyline fill="none" stroke="black" points="45,-711.5 179,-711.5 "/>
<text text-anchor="middle" x="112" y="-699.5" font-family="Helvetica,sans-Serif" font-size="10.00"> </text>
<polyline fill="none" stroke="black" points="45,-692.5 179,-692.5 "/>
<text text-anchor="start" x="53" y="-680.5" font-family="Helvetica,sans-Serif" font-size="10.00">+ IComponent()</text>
<text text-anchor="start" x="53" y="-669.5" font-family="Helvetica,sans-Serif" font-size="10.00">+ IComponent()</text>
<text text-anchor="start" x="53" y="-658.5" font-family="Helvetica,sans-Serif" font-size="10.00">+ setComponentSubId()</text>
<text text-anchor="start" x="53" y="-647.5" font-family="Helvetica,sans-Serif" font-size="10.00">+ getComponentType()</text>
<text text-anchor="start" x="53" y="-636.5" font-family="Helvetica,sans-Serif" font-size="10.00">+ getComponentSubId()</text>
<text text-anchor="start" x="53" y="-625.5" font-family="Helvetica,sans-Serif" font-size="10.00">+ getComponentId()</text>
<text text-anchor="start" x="53" y="-614.5" font-family="Helvetica,sans-Serif" font-size="10.00">+ getObjectType()</text>
<text text-anchor="start" x="53" y="-603.5" font-family="Helvetica,sans-Serif" font-size="10.00"># setComponentType()</text>
<text text-anchor="start" x="53" y="-592.5" font-family="Helvetica,sans-Serif" font-size="10.00"># setObjectType()</text>
</a>
</g>
</g>
<!-- Node4&#45;&gt;Node3 -->
<g id="edge3" class="edge"><title>Node4&#45;&gt;Node3</title>
<path fill="none" stroke="midnightblue" d="M112,-575.387C112,-565.861 112,-556.707 112,-548.714"/>
<polygon fill="none" stroke="midnightblue" points="108.5,-575.416 112,-585.416 115.5,-575.416 108.5,-575.416"/>
</g>
<!-- Node5 -->
<g id="node5" class="node"><title>Node5</title>
<g id="a_node5"><a xlink:href="class_i_logable.html" target="_top" xlink:title="{ILogable\n||+ setStatus()\l+ getStatus()\l+ getLogValueCount()\l+ getLogValue()\l}">
<polygon fill="white" stroke="black" points="50.5,-767.5 50.5,-857.5 173.5,-857.5 173.5,-767.5 50.5,-767.5"/>
<text text-anchor="middle" x="112" y="-845.5" font-family="Helvetica,sans-Serif" font-size="10.00">ILogable</text>
<polyline fill="none" stroke="black" points="50.5,-838.5 173.5,-838.5 "/>
<text text-anchor="middle" x="112" y="-826.5" font-family="Helvetica,sans-Serif" font-size="10.00"> </text>
<polyline fill="none" stroke="black" points="50.5,-819.5 173.5,-819.5 "/>
<text text-anchor="start" x="58.5" y="-807.5" font-family="Helvetica,sans-Serif" font-size="10.00">+ setStatus()</text>
<text text-anchor="start" x="58.5" y="-796.5" font-family="Helvetica,sans-Serif" font-size="10.00">+ getStatus()</text>
<text text-anchor="start" x="58.5" y="-785.5" font-family="Helvetica,sans-Serif" font-size="10.00">+ getLogValueCount()</text>
<text text-anchor="start" x="58.5" y="-774.5" font-family="Helvetica,sans-Serif" font-size="10.00">+ getLogValue()</text>
</a>
</g>
</g>
<!-- Node5&#45;&gt;Node4 -->
<g id="edge4" class="edge"><title>Node5&#45;&gt;Node4</title>
<path fill="none" stroke="midnightblue" d="M112,-757.13C112,-748.526 112,-739.516 112,-730.591"/>
<polygon fill="none" stroke="midnightblue" points="108.5,-757.391 112,-767.391 115.5,-757.391 108.5,-757.391"/>
</g>
<!-- Node6 -->
<g id="node6" class="node"><title>Node6</title>
<g id="a_node6"><a xlink:href="class_non_copyable.html" target="_top" xlink:title="{NonCopyable\&lt; ILogable \&gt;\n||+ NonCopyable()\l}">
<polygon fill="white" stroke="black" points="40.5,-894.5 40.5,-951.5 183.5,-951.5 183.5,-894.5 40.5,-894.5"/>
<text text-anchor="middle" x="112" y="-939.5" font-family="Helvetica,sans-Serif" font-size="10.00">NonCopyable&lt; ILogable &gt;</text>
<polyline fill="none" stroke="black" points="40.5,-932.5 183.5,-932.5 "/>
<text text-anchor="middle" x="112" y="-920.5" font-family="Helvetica,sans-Serif" font-size="10.00"> </text>
<polyline fill="none" stroke="black" points="40.5,-913.5 183.5,-913.5 "/>
<text text-anchor="start" x="48.5" y="-901.5" font-family="Helvetica,sans-Serif" font-size="10.00">+ NonCopyable()</text>
</a>
</g>
</g>
<!-- Node6&#45;&gt;Node5 -->
<g id="edge5" class="edge"><title>Node6&#45;&gt;Node5</title>
<path fill="none" stroke="#8b1a1a" d="M112,-884.214C112,-875.609 112,-866.394 112,-857.554"/>
<polygon fill="none" stroke="#8b1a1a" points="108.5,-884.34 112,-894.34 115.5,-884.34 108.5,-884.34"/>
</g>
</g>
</svg>
