<?xml version="1.0" encoding="UTF-8" standalone="no"?>
<!DOCTYPE svg PUBLIC "-//W3C//DTD SVG 1.1//EN"
 "http://www.w3.org/Graphics/SVG/1.1/DTD/svg11.dtd">
<!-- Generated by graphviz version 2.38.0 (20140413.2041)
 -->
<!-- Title: HardwarePwmBuzzer Pages: 1 -->
<svg width="960pt" height="1599pt"
 viewBox="0.00 0.00 959.50 1599.00" xmlns="http://www.w3.org/2000/svg" xmlns:xlink="http://www.w3.org/1999/xlink">
<g id="graph0" class="graph" transform="scale(1 1) rotate(0) translate(4 1595)">
<title>HardwarePwmBuzzer</title>
<polygon fill="white" stroke="none" points="-4,4 -4,-1595 955.5,-1595 955.5,4 -4,4"/>
<!-- Node1 -->
<g id="node1" class="node"><title>Node1</title>
<polygon fill="#bfbfbf" stroke="black" points="270,-0.5 270,-222.5 407,-222.5 407,-0.5 270,-0.5"/>
<text text-anchor="middle" x="338.5" y="-210.5" font-family="Helvetica,sans-Serif" font-size="10.00">HardwarePwmBuzzer</text>
<polyline fill="none" stroke="black" points="270,-203.5 407,-203.5 "/>
<text text-anchor="start" x="278" y="-191.5" font-family="Helvetica,sans-Serif" font-size="10.00"># _stdValuesLoaded</text>
<text text-anchor="start" x="278" y="-180.5" font-family="Helvetica,sans-Serif" font-size="10.00"># _status</text>
<text text-anchor="start" x="278" y="-169.5" font-family="Helvetica,sans-Serif" font-size="10.00"># _pwmHighToLowRatio</text>
<polyline fill="none" stroke="black" points="270,-162.5 407,-162.5 "/>
<text text-anchor="start" x="278" y="-150.5" font-family="Helvetica,sans-Serif" font-size="10.00">+ HardwarePwmBuzzer()</text>
<text text-anchor="start" x="278" y="-139.5" font-family="Helvetica,sans-Serif" font-size="10.00">+ setStatus()</text>
<text text-anchor="start" x="278" y="-128.5" font-family="Helvetica,sans-Serif" font-size="10.00">+ getStatus()</text>
<text text-anchor="start" x="278" y="-117.5" font-family="Helvetica,sans-Serif" font-size="10.00">+ setState()</text>
<text text-anchor="start" x="278" y="-106.5" font-family="Helvetica,sans-Serif" font-size="10.00">+ getState()</text>
<text text-anchor="start" x="278" y="-95.5" font-family="Helvetica,sans-Serif" font-size="10.00">+ setBeep()</text>
<text text-anchor="start" x="278" y="-84.5" font-family="Helvetica,sans-Serif" font-size="10.00">+ getBeep()</text>
<text text-anchor="start" x="278" y="-73.5" font-family="Helvetica,sans-Serif" font-size="10.00">+ setHz()</text>
<text text-anchor="start" x="278" y="-62.5" font-family="Helvetica,sans-Serif" font-size="10.00">+ getHz()</text>
<text text-anchor="start" x="278" y="-51.5" font-family="Helvetica,sans-Serif" font-size="10.00"># _loadStdValues()</text>
<text text-anchor="start" x="278" y="-40.5" font-family="Helvetica,sans-Serif" font-size="10.00"># _beep()</text>
<text text-anchor="start" x="278" y="-29.5" font-family="Helvetica,sans-Serif" font-size="10.00"># _setHz()</text>
<text text-anchor="start" x="278" y="-18.5" font-family="Helvetica,sans-Serif" font-size="10.00"># _startBeep()</text>
<text text-anchor="start" x="278" y="-7.5" font-family="Helvetica,sans-Serif" font-size="10.00"># _update()</text>
</g>
<!-- Node2 -->
<g id="node2" class="node"><title>Node2</title>
<g id="a_node2"><a xlink:href="class_i_buzzer.html" target="_top" xlink:title="{IBuzzer\n||+ IBuzzer()\l+ setState()\l+ getState()\l+ setBeep()\l+ getBeep()\l+ setHz()\l+ getHz()\l}">
<polygon fill="white" stroke="black" points="0,-875.5 0,-998.5 77,-998.5 77,-875.5 0,-875.5"/>
<text text-anchor="middle" x="38.5" y="-986.5" font-family="Helvetica,sans-Serif" font-size="10.00">IBuzzer</text>
<polyline fill="none" stroke="black" points="0,-979.5 77,-979.5 "/>
<text text-anchor="middle" x="38.5" y="-967.5" font-family="Helvetica,sans-Serif" font-size="10.00"> </text>
<polyline fill="none" stroke="black" points="0,-960.5 77,-960.5 "/>
<text text-anchor="start" x="8" y="-948.5" font-family="Helvetica,sans-Serif" font-size="10.00">+ IBuzzer()</text>
<text text-anchor="start" x="8" y="-937.5" font-family="Helvetica,sans-Serif" font-size="10.00">+ setState()</text>
<text text-anchor="start" x="8" y="-926.5" font-family="Helvetica,sans-Serif" font-size="10.00">+ getState()</text>
<text text-anchor="start" x="8" y="-915.5" font-family="Helvetica,sans-Serif" font-size="10.00">+ setBeep()</text>
<text text-anchor="start" x="8" y="-904.5" font-family="Helvetica,sans-Serif" font-size="10.00">+ getBeep()</text>
<text text-anchor="start" x="8" y="-893.5" font-family="Helvetica,sans-Serif" font-size="10.00">+ setHz()</text>
<text text-anchor="start" x="8" y="-882.5" font-family="Helvetica,sans-Serif" font-size="10.00">+ getHz()</text>
</a>
</g>
</g>
<!-- Node2&#45;&gt;Node1 -->
<g id="edge1" class="edge"><title>Node2&#45;&gt;Node1</title>
<path fill="none" stroke="midnightblue" d="M34.431,-865.066C31.6628,-810.734 28.5,-733.908 28.5,-666.5 28.5,-666.5 28.5,-666.5 28.5,-353 28.5,-315.157 24.6017,-300.129 47.5,-270 103.115,-196.822 202.883,-153.593 269.889,-131.462"/>
<polygon fill="none" stroke="midnightblue" points="30.9474,-865.477 34.9603,-875.282 37.9381,-865.114 30.9474,-865.477"/>
</g>
<!-- Node3 -->
<g id="node3" class="node"><title>Node3</title>
<g id="a_node3"><a xlink:href="class_i_component.html" target="_top" xlink:title="{IComponent\n||+ IComponent()\l+ IComponent()\l+ setComponentSubId()\l+ getComponentType()\l+ getComponentSubId()\l+ getComponentId()\l+ getObjectType()\l# setComponentType()\l# setObjectType()\l}">
<polygon fill="white" stroke="black" points="598.5,-1222.5 598.5,-1367.5 732.5,-1367.5 732.5,-1222.5 598.5,-1222.5"/>
<text text-anchor="middle" x="665.5" y="-1355.5" font-family="Helvetica,sans-Serif" font-size="10.00">IComponent</text>
<polyline fill="none" stroke="black" points="598.5,-1348.5 732.5,-1348.5 "/>
<text text-anchor="middle" x="665.5" y="-1336.5" font-family="Helvetica,sans-Serif" font-size="10.00"> </text>
<polyline fill="none" stroke="black" points="598.5,-1329.5 732.5,-1329.5 "/>
<text text-anchor="start" x="606.5" y="-1317.5" font-family="Helvetica,sans-Serif" font-size="10.00">+ IComponent()</text>
<text text-anchor="start" x="606.5" y="-1306.5" font-family="Helvetica,sans-Serif" font-size="10.00">+ IComponent()</text>
<text text-anchor="start" x="606.5" y="-1295.5" font-family="Helvetica,sans-Serif" font-size="10.00">+ setComponentSubId()</text>
<text text-anchor="start" x="606.5" y="-1284.5" font-family="Helvetica,sans-Serif" font-size="10.00">+ getComponentType()</text>
<text text-anchor="start" x="606.5" y="-1273.5" font-family="Helvetica,sans-Serif" font-size="10.00">+ getComponentSubId()</text>
<text text-anchor="start" x="606.5" y="-1262.5" font-family="Helvetica,sans-Serif" font-size="10.00">+ getComponentId()</text>
<text text-anchor="start" x="606.5" y="-1251.5" font-family="Helvetica,sans-Serif" font-size="10.00">+ getObjectType()</text>
<text text-anchor="start" x="606.5" y="-1240.5" font-family="Helvetica,sans-Serif" font-size="10.00"># setComponentType()</text>
<text text-anchor="start" x="606.5" y="-1229.5" font-family="Helvetica,sans-Serif" font-size="10.00"># setObjectType()</text>
</a>
</g>
</g>
<!-- Node3&#45;&gt;Node2 -->
<g id="edge2" class="edge"><title>Node3&#45;&gt;Node2</title>
<path fill="none" stroke="midnightblue" d="M588.082,-1290C446.773,-1281.07 155.154,-1254.5 85.5,-1185 36.9851,-1136.6 30.2994,-1054.66 32.3839,-998.53"/>
<polygon fill="none" stroke="midnightblue" points="588.205,-1293.52 598.402,-1290.64 588.637,-1286.53 588.205,-1293.52"/>
</g>
<!-- Node19 -->
<g id="node19" class="node"><title>Node19</title>
<g id="a_node19"><a xlink:href="class_i_communication.html" target="_top" xlink:title="{ICommunication\n||+ receive()\l}">
<polygon fill="white" stroke="black" points="618,-908.5 618,-965.5 713,-965.5 713,-908.5 618,-908.5"/>
<text text-anchor="middle" x="665.5" y="-953.5" font-family="Helvetica,sans-Serif" font-size="10.00">ICommunication</text>
<polyline fill="none" stroke="black" points="618,-946.5 713,-946.5 "/>
<text text-anchor="middle" x="665.5" y="-934.5" font-family="Helvetica,sans-Serif" font-size="10.00"> </text>
<polyline fill="none" stroke="black" points="618,-927.5 713,-927.5 "/>
<text text-anchor="start" x="626" y="-915.5" font-family="Helvetica,sans-Serif" font-size="10.00">+ receive()</text>
</a>
</g>
</g>
<!-- Node3&#45;&gt;Node19 -->
<g id="edge19" class="edge"><title>Node3&#45;&gt;Node19</title>
<path fill="none" stroke="midnightblue" d="M665.5,-1211.97C665.5,-1132.95 665.5,-1017.93 665.5,-965.677"/>
<polygon fill="none" stroke="midnightblue" points="662,-1212.39 665.5,-1222.39 669,-1212.39 662,-1212.39"/>
</g>
<!-- Node21 -->
<g id="node21" class="node"><title>Node21</title>
<g id="a_node21"><a xlink:href="class_i_runable.html" target="_top" xlink:title="{IRunable\n||+ IRunable()\l+ run()\l+ setStatus()\l+ getStatus()\l}">
<polygon fill="white" stroke="black" points="699,-1056 699,-1146 782,-1146 782,-1056 699,-1056"/>
<text text-anchor="middle" x="740.5" y="-1134" font-family="Helvetica,sans-Serif" font-size="10.00">IRunable</text>
<polyline fill="none" stroke="black" points="699,-1127 782,-1127 "/>
<text text-anchor="middle" x="740.5" y="-1115" font-family="Helvetica,sans-Serif" font-size="10.00"> </text>
<polyline fill="none" stroke="black" points="699,-1108 782,-1108 "/>
<text text-anchor="start" x="707" y="-1096" font-family="Helvetica,sans-Serif" font-size="10.00">+ IRunable()</text>
<text text-anchor="start" x="707" y="-1085" font-family="Helvetica,sans-Serif" font-size="10.00">+ run()</text>
<text text-anchor="start" x="707" y="-1074" font-family="Helvetica,sans-Serif" font-size="10.00">+ setStatus()</text>
<text text-anchor="start" x="707" y="-1063" font-family="Helvetica,sans-Serif" font-size="10.00">+ getStatus()</text>
</a>
</g>
</g>
<!-- Node3&#45;&gt;Node21 -->
<g id="edge22" class="edge"><title>Node3&#45;&gt;Node21</title>
<path fill="none" stroke="midnightblue" d="M697.198,-1212.85C706.139,-1189.97 715.53,-1165.92 723.273,-1146.1"/>
<polygon fill="none" stroke="midnightblue" points="693.912,-1211.65 693.534,-1222.23 700.433,-1214.19 693.912,-1211.65"/>
</g>
<!-- Node4 -->
<g id="node4" class="node"><title>Node4</title>
<g id="a_node4"><a xlink:href="class_i_logable.html" target="_top" xlink:title="{ILogable\n||+ setStatus()\l+ getStatus()\l+ getLogValueCount()\l+ getLogValue()\l}">
<polygon fill="white" stroke="black" points="604,-1405.5 604,-1495.5 727,-1495.5 727,-1405.5 604,-1405.5"/>
<text text-anchor="middle" x="665.5" y="-1483.5" font-family="Helvetica,sans-Serif" font-size="10.00">ILogable</text>
<polyline fill="none" stroke="black" points="604,-1476.5 727,-1476.5 "/>
<text text-anchor="middle" x="665.5" y="-1464.5" font-family="Helvetica,sans-Serif" font-size="10.00"> </text>
<polyline fill="none" stroke="black" points="604,-1457.5 727,-1457.5 "/>
<text text-anchor="start" x="612" y="-1445.5" font-family="Helvetica,sans-Serif" font-size="10.00">+ setStatus()</text>
<text text-anchor="start" x="612" y="-1434.5" font-family="Helvetica,sans-Serif" font-size="10.00">+ getStatus()</text>
<text text-anchor="start" x="612" y="-1423.5" font-family="Helvetica,sans-Serif" font-size="10.00">+ getLogValueCount()</text>
<text text-anchor="start" x="612" y="-1412.5" font-family="Helvetica,sans-Serif" font-size="10.00">+ getLogValue()</text>
</a>
</g>
</g>
<!-- Node4&#45;&gt;Node3 -->
<g id="edge3" class="edge"><title>Node4&#45;&gt;Node3</title>
<path fill="none" stroke="midnightblue" d="M665.5,-1394.98C665.5,-1386.16 665.5,-1376.92 665.5,-1367.77"/>
<polygon fill="none" stroke="midnightblue" points="662,-1395.1 665.5,-1405.1 669,-1395.1 662,-1395.1"/>
</g>
<!-- Node5 -->
<g id="node5" class="node"><title>Node5</title>
<g id="a_node5"><a xlink:href="class_non_copyable.html" target="_top" xlink:title="{NonCopyable\&lt; ILogable \&gt;\n||+ NonCopyable()\l}">
<polygon fill="white" stroke="black" points="594,-1533.5 594,-1590.5 737,-1590.5 737,-1533.5 594,-1533.5"/>
<text text-anchor="middle" x="665.5" y="-1578.5" font-family="Helvetica,sans-Serif" font-size="10.00">NonCopyable&lt; ILogable &gt;</text>
<polyline fill="none" stroke="black" points="594,-1571.5 737,-1571.5 "/>
<text text-anchor="middle" x="665.5" y="-1559.5" font-family="Helvetica,sans-Serif" font-size="10.00"> </text>
<polyline fill="none" stroke="black" points="594,-1552.5 737,-1552.5 "/>
<text text-anchor="start" x="602" y="-1540.5" font-family="Helvetica,sans-Serif" font-size="10.00">+ NonCopyable()</text>
</a>
</g>
</g>
<!-- Node5&#45;&gt;Node4 -->
<g id="edge4" class="edge"><title>Node5&#45;&gt;Node4</title>
<path fill="none" stroke="#8b1a1a" d="M665.5,-1523.31C665.5,-1514.43 665.5,-1504.88 665.5,-1495.74"/>
<polygon fill="none" stroke="#8b1a1a" points="662,-1523.37 665.5,-1533.37 669,-1523.37 662,-1523.37"/>
</g>
<!-- Node6 -->
<g id="node6" class="node"><title>Node6</title>
<g id="a_node6"><a xlink:href="struct_hardware_pwm_buzzer_1_1__time.html" target="_top" xlink:title="{HardwarePwmBuzzer::\l_time\n|+ onOff\l+ highToLow\l+ fastHighToLow\l|}">
<polygon fill="white" stroke="black" points="56.5,-309 56.5,-399 180.5,-399 180.5,-309 56.5,-309"/>
<text text-anchor="start" x="64.5" y="-387" font-family="Helvetica,sans-Serif" font-size="10.00">HardwarePwmBuzzer::</text>
<text text-anchor="middle" x="118.5" y="-376" font-family="Helvetica,sans-Serif" font-size="10.00">_time</text>
<polyline fill="none" stroke="black" points="56.5,-369 180.5,-369 "/>
<text text-anchor="start" x="64.5" y="-357" font-family="Helvetica,sans-Serif" font-size="10.00">+ onOff</text>
<text text-anchor="start" x="64.5" y="-346" font-family="Helvetica,sans-Serif" font-size="10.00">+ highToLow</text>
<text text-anchor="start" x="64.5" y="-335" font-family="Helvetica,sans-Serif" font-size="10.00">+ fastHighToLow</text>
<polyline fill="none" stroke="black" points="56.5,-328 180.5,-328 "/>
<text text-anchor="middle" x="118.5" y="-316" font-family="Helvetica,sans-Serif" font-size="10.00"> </text>
</a>
</g>
</g>
<!-- Node6&#45;&gt;Node1 -->
<g id="edge5" class="edge"><title>Node6&#45;&gt;Node1</title>
<path fill="none" stroke="#404040" d="M155.679,-308.708C166.461,-296.089 178.339,-282.405 189.5,-270 212.483,-244.455 238.022,-217.101 261.371,-192.476"/>
<polygon fill="none" stroke="#404040" points="261.6,-192.235 262.833,-185.13 269.865,-183.535 268.632,-190.64 261.6,-192.235"/>
<text text-anchor="middle" x="233" y="-244" font-family="Helvetica,sans-Serif" font-size="10.00"> #_time</text>
</g>
<!-- Node7 -->
<g id="node7" class="node"><title>Node7</title>
<g id="a_node7"><a xlink:href="class_ticker.html" target="_top" xlink:title="{Ticker\n||+ Ticker()\l+ ~Ticker()\l+ attach()\l+ detach()\l+ call()\l}">
<polygon fill="white" stroke="black" points="199,-303.5 199,-404.5 270,-404.5 270,-303.5 199,-303.5"/>
<text text-anchor="middle" x="234.5" y="-392.5" font-family="Helvetica,sans-Serif" font-size="10.00">Ticker</text>
<polyline fill="none" stroke="black" points="199,-385.5 270,-385.5 "/>
<text text-anchor="middle" x="234.5" y="-373.5" font-family="Helvetica,sans-Serif" font-size="10.00"> </text>
<polyline fill="none" stroke="black" points="199,-366.5 270,-366.5 "/>
<text text-anchor="start" x="207" y="-354.5" font-family="Helvetica,sans-Serif" font-size="10.00">+ Ticker()</text>
<text text-anchor="start" x="207" y="-343.5" font-family="Helvetica,sans-Serif" font-size="10.00">+ ~Ticker()</text>
<text text-anchor="start" x="207" y="-332.5" font-family="Helvetica,sans-Serif" font-size="10.00">+ attach()</text>
<text text-anchor="start" x="207" y="-321.5" font-family="Helvetica,sans-Serif" font-size="10.00">+ detach()</text>
<text text-anchor="start" x="207" y="-310.5" font-family="Helvetica,sans-Serif" font-size="10.00">+ call()</text>
</a>
</g>
</g>
<!-- Node7&#45;&gt;Node1 -->
<g id="edge6" class="edge"><title>Node7&#45;&gt;Node1</title>
<path fill="none" stroke="#404040" d="M255.923,-303.46C264.689,-283.188 275.253,-258.759 285.853,-234.247"/>
<polygon fill="none" stroke="#404040" points="285.956,-234.007 284.666,-226.912 290.719,-222.993 292.009,-230.088 285.956,-234.007"/>
<text text-anchor="middle" x="302" y="-244" font-family="Helvetica,sans-Serif" font-size="10.00"> #_ticker</text>
</g>
<!-- Node8 -->
<g id="node8" class="node"><title>Node8</title>
<g id="a_node8"><a xlink:href="class_scheduled_callable.html" target="_top" xlink:title="{ScheduledCallable\n||+ ScheduledCallable()\l+ ScheduledCallable()\l+ getSleepingSince()\l+ setSleeptime()\l+ getSleepTime()\l+ resetSleepTimer()\l}">
<polygon fill="white" stroke="black" points="105,-507.5 105,-619.5 228,-619.5 228,-507.5 105,-507.5"/>
<text text-anchor="middle" x="166.5" y="-607.5" font-family="Helvetica,sans-Serif" font-size="10.00">ScheduledCallable</text>
<polyline fill="none" stroke="black" points="105,-600.5 228,-600.5 "/>
<text text-anchor="middle" x="166.5" y="-588.5" font-family="Helvetica,sans-Serif" font-size="10.00"> </text>
<polyline fill="none" stroke="black" points="105,-581.5 228,-581.5 "/>
<text text-anchor="start" x="113" y="-569.5" font-family="Helvetica,sans-Serif" font-size="10.00">+ ScheduledCallable()</text>
<text text-anchor="start" x="113" y="-558.5" font-family="Helvetica,sans-Serif" font-size="10.00">+ ScheduledCallable()</text>
<text text-anchor="start" x="113" y="-547.5" font-family="Helvetica,sans-Serif" font-size="10.00">+ getSleepingSince()</text>
<text text-anchor="start" x="113" y="-536.5" font-family="Helvetica,sans-Serif" font-size="10.00">+ setSleeptime()</text>
<text text-anchor="start" x="113" y="-525.5" font-family="Helvetica,sans-Serif" font-size="10.00">+ getSleepTime()</text>
<text text-anchor="start" x="113" y="-514.5" font-family="Helvetica,sans-Serif" font-size="10.00">+ resetSleepTimer()</text>
</a>
</g>
</g>
<!-- Node8&#45;&gt;Node7 -->
<g id="edge7" class="edge"><title>Node8&#45;&gt;Node7</title>
<path fill="none" stroke="midnightblue" d="M187.68,-497.87C197.536,-467.794 209.076,-432.58 218.233,-404.638"/>
<polygon fill="none" stroke="midnightblue" points="184.332,-496.846 184.544,-507.439 190.984,-499.026 184.332,-496.846"/>
</g>
<!-- Node9 -->
<g id="node9" class="node"><title>Node9</title>
<g id="a_node9"><a xlink:href="class_i_callable.html" target="_top" xlink:title="{ICallable\n||+ call()\l}">
<polygon fill="white" stroke="black" points="138.5,-744.5 138.5,-801.5 194.5,-801.5 194.5,-744.5 138.5,-744.5"/>
<text text-anchor="middle" x="166.5" y="-789.5" font-family="Helvetica,sans-Serif" font-size="10.00">ICallable</text>
<polyline fill="none" stroke="black" points="138.5,-782.5 194.5,-782.5 "/>
<text text-anchor="middle" x="166.5" y="-770.5" font-family="Helvetica,sans-Serif" font-size="10.00"> </text>
<polyline fill="none" stroke="black" points="138.5,-763.5 194.5,-763.5 "/>
<text text-anchor="start" x="146.5" y="-751.5" font-family="Helvetica,sans-Serif" font-size="10.00">+ call()</text>
</a>
</g>
</g>
<!-- Node9&#45;&gt;Node8 -->
<g id="edge8" class="edge"><title>Node9&#45;&gt;Node8</title>
<path fill="none" stroke="midnightblue" d="M166.5,-734.189C166.5,-702.228 166.5,-656.012 166.5,-619.879"/>
<polygon fill="none" stroke="midnightblue" points="163,-734.446 166.5,-744.446 170,-734.446 163,-734.446"/>
</g>
<!-- Node10 -->
<g id="node10" class="node"><title>Node10</title>
<g id="a_node10"><a xlink:href="class_non_copyable.html" target="_top" xlink:title="{NonCopyable\&lt; ICallable \&gt;\n||+ NonCopyable()\l}">
<polygon fill="white" stroke="black" points="95,-1072.5 95,-1129.5 238,-1129.5 238,-1072.5 95,-1072.5"/>
<text text-anchor="middle" x="166.5" y="-1117.5" font-family="Helvetica,sans-Serif" font-size="10.00">NonCopyable&lt; ICallable &gt;</text>
<polyline fill="none" stroke="black" points="95,-1110.5 238,-1110.5 "/>
<text text-anchor="middle" x="166.5" y="-1098.5" font-family="Helvetica,sans-Serif" font-size="10.00"> </text>
<polyline fill="none" stroke="black" points="95,-1091.5 238,-1091.5 "/>
<text text-anchor="start" x="103" y="-1079.5" font-family="Helvetica,sans-Serif" font-size="10.00">+ NonCopyable()</text>
</a>
</g>
</g>
<!-- Node10&#45;&gt;Node9 -->
<g id="edge9" class="edge"><title>Node10&#45;&gt;Node9</title>
<path fill="none" stroke="#8b1a1a" d="M166.5,-1062.08C166.5,-995.752 166.5,-860.19 166.5,-801.786"/>
<polygon fill="none" stroke="#8b1a1a" points="163,-1062.49 166.5,-1072.49 170,-1062.49 163,-1062.49"/>
</g>
<!-- Node11 -->
<g id="node11" class="node"><title>Node11</title>
<g id="a_node11"><a xlink:href="class_pwm_out.html" target="_top" xlink:title="{PwmOut\n||+ PwmOut()\l+ write_u16()\l+ write()\l+ read()\l+ operator=()\l+ operator float()\l}">
<polygon fill="white" stroke="black" points="288,-298 288,-410 389,-410 389,-298 288,-298"/>
<text text-anchor="middle" x="338.5" y="-398" font-family="Helvetica,sans-Serif" font-size="10.00">PwmOut</text>
<polyline fill="none" stroke="black" points="288,-391 389,-391 "/>
<text text-anchor="middle" x="338.5" y="-379" font-family="Helvetica,sans-Serif" font-size="10.00"> </text>
<polyline fill="none" stroke="black" points="288,-372 389,-372 "/>
<text text-anchor="start" x="296" y="-360" font-family="Helvetica,sans-Serif" font-size="10.00">+ PwmOut()</text>
<text text-anchor="start" x="296" y="-349" font-family="Helvetica,sans-Serif" font-size="10.00">+ write_u16()</text>
<text text-anchor="start" x="296" y="-338" font-family="Helvetica,sans-Serif" font-size="10.00">+ write()</text>
<text text-anchor="start" x="296" y="-327" font-family="Helvetica,sans-Serif" font-size="10.00">+ read()</text>
<text text-anchor="start" x="296" y="-316" font-family="Helvetica,sans-Serif" font-size="10.00">+ operator=()</text>
<text text-anchor="start" x="296" y="-305" font-family="Helvetica,sans-Serif" font-size="10.00">+ operator float()</text>
</a>
</g>
</g>
<!-- Node11&#45;&gt;Node1 -->
<g id="edge10" class="edge"><title>Node11&#45;&gt;Node1</title>
<path fill="none" stroke="#404040" d="M338.5,-297.824C338.5,-278.986 338.5,-257.098 338.5,-235.105"/>
<polygon fill="none" stroke="#404040" points="338.5,-234.894 334.5,-228.894 338.5,-222.894 342.5,-228.894 338.5,-234.894"/>
<text text-anchor="middle" x="357" y="-244" font-family="Helvetica,sans-Serif" font-size="10.00"> #_port</text>
</g>
<!-- Node12 -->
<g id="node12" class="node"><title>Node12</title>
<g id="a_node12"><a xlink:href="class_non_copyable.html" target="_top" xlink:title="{NonCopyable\&lt; PwmOut \&gt;\n||+ NonCopyable()\l}">
<polygon fill="white" stroke="black" points="246,-535 246,-592 389,-592 389,-535 246,-535"/>
<text text-anchor="middle" x="317.5" y="-580" font-family="Helvetica,sans-Serif" font-size="10.00">NonCopyable&lt; PwmOut &gt;</text>
<polyline fill="none" stroke="black" points="246,-573 389,-573 "/>
<text text-anchor="middle" x="317.5" y="-561" font-family="Helvetica,sans-Serif" font-size="10.00"> </text>
<polyline fill="none" stroke="black" points="246,-554 389,-554 "/>
<text text-anchor="start" x="254" y="-542" font-family="Helvetica,sans-Serif" font-size="10.00">+ NonCopyable()</text>
</a>
</g>
</g>
<!-- Node12&#45;&gt;Node11 -->
<g id="edge11" class="edge"><title>Node12&#45;&gt;Node11</title>
<path fill="none" stroke="#8b1a1a" d="M321.327,-524.689C324.561,-492.728 329.239,-446.512 332.895,-410.379"/>
<polygon fill="none" stroke="#8b1a1a" points="317.813,-524.644 320.289,-534.946 324.778,-525.349 317.813,-524.644"/>
</g>
<!-- Node13 -->
<g id="node13" class="node"><title>Node13</title>
<g id="a_node13"><a xlink:href="struct_hardware_pwm_buzzer_1_1__last.html" target="_top" xlink:title="{HardwarePwmBuzzer::\l_last\n|+ state\l|}">
<polygon fill="white" stroke="black" points="407.5,-320 407.5,-388 531.5,-388 531.5,-320 407.5,-320"/>
<text text-anchor="start" x="415.5" y="-376" font-family="Helvetica,sans-Serif" font-size="10.00">HardwarePwmBuzzer::</text>
<text text-anchor="middle" x="469.5" y="-365" font-family="Helvetica,sans-Serif" font-size="10.00">_last</text>
<polyline fill="none" stroke="black" points="407.5,-358 531.5,-358 "/>
<text text-anchor="start" x="415.5" y="-346" font-family="Helvetica,sans-Serif" font-size="10.00">+ state</text>
<polyline fill="none" stroke="black" points="407.5,-339 531.5,-339 "/>
<text text-anchor="middle" x="469.5" y="-327" font-family="Helvetica,sans-Serif" font-size="10.00"> </text>
</a>
</g>
</g>
<!-- Node13&#45;&gt;Node1 -->
<g id="edge12" class="edge"><title>Node13&#45;&gt;Node1</title>
<path fill="none" stroke="#404040" d="M451.423,-319.812C439,-297.005 421.671,-265.193 404.314,-233.326"/>
<polygon fill="none" stroke="#404040" points="404.173,-233.068 397.791,-229.712 398.433,-222.53 404.816,-225.886 404.173,-233.068"/>
<text text-anchor="middle" x="429.5" y="-244" font-family="Helvetica,sans-Serif" font-size="10.00"> #_last</text>
</g>
<!-- Node14 -->
<g id="node14" class="node"><title>Node14</title>
<g id="a_node14"><a xlink:href="struct_hardware_pwm_buzzer_1_1__last_1_1beep.html" target="_top" xlink:title="{HardwarePwmBuzzer::\l_last::beep\n|+ state\l+ type\l|}">
<polygon fill="white" stroke="black" points="407.5,-524 407.5,-603 531.5,-603 531.5,-524 407.5,-524"/>
<text text-anchor="start" x="415.5" y="-591" font-family="Helvetica,sans-Serif" font-size="10.00">HardwarePwmBuzzer::</text>
<text text-anchor="middle" x="469.5" y="-580" font-family="Helvetica,sans-Serif" font-size="10.00">_last::beep</text>
<polyline fill="none" stroke="black" points="407.5,-573 531.5,-573 "/>
<text text-anchor="start" x="415.5" y="-561" font-family="Helvetica,sans-Serif" font-size="10.00">+ state</text>
<text text-anchor="start" x="415.5" y="-550" font-family="Helvetica,sans-Serif" font-size="10.00">+ type</text>
<polyline fill="none" stroke="black" points="407.5,-543 531.5,-543 "/>
<text text-anchor="middle" x="469.5" y="-531" font-family="Helvetica,sans-Serif" font-size="10.00"> </text>
</a>
</g>
</g>
<!-- Node14&#45;&gt;Node13 -->
<g id="edge13" class="edge"><title>Node14&#45;&gt;Node13</title>
<path fill="none" stroke="#404040" d="M469.5,-523.957C469.5,-489.045 469.5,-437.567 469.5,-400.616"/>
<polygon fill="none" stroke="#404040" points="469.5,-400.203 465.5,-394.203 469.5,-388.203 473.5,-394.203 469.5,-400.203"/>
<text text-anchor="middle" x="487.5" y="-459" font-family="Helvetica,sans-Serif" font-size="10.00"> +beep</text>
</g>
<!-- Node15 -->
<g id="node15" class="node"><title>Node15</title>
<g id="a_node15"><a xlink:href="struct_hardware_pwm_buzzer_1_1__current.html" target="_top" xlink:title="{HardwarePwmBuzzer::\l_current\n|+ state\l+ hz\l+ highToLowRatio\l|}">
<polygon fill="white" stroke="black" points="549.5,-309 549.5,-399 673.5,-399 673.5,-309 549.5,-309"/>
<text text-anchor="start" x="557.5" y="-387" font-family="Helvetica,sans-Serif" font-size="10.00">HardwarePwmBuzzer::</text>
<text text-anchor="middle" x="611.5" y="-376" font-family="Helvetica,sans-Serif" font-size="10.00">_current</text>
<polyline fill="none" stroke="black" points="549.5,-369 673.5,-369 "/>
<text text-anchor="start" x="557.5" y="-357" font-family="Helvetica,sans-Serif" font-size="10.00">+ state</text>
<text text-anchor="start" x="557.5" y="-346" font-family="Helvetica,sans-Serif" font-size="10.00">+ hz</text>
<text text-anchor="start" x="557.5" y="-335" font-family="Helvetica,sans-Serif" font-size="10.00">+ highToLowRatio</text>
<polyline fill="none" stroke="black" points="549.5,-328 673.5,-328 "/>
<text text-anchor="middle" x="611.5" y="-316" font-family="Helvetica,sans-Serif" font-size="10.00"> </text>
</a>
</g>
</g>
<!-- Node15&#45;&gt;Node1 -->
<g id="edge14" class="edge"><title>Node15&#45;&gt;Node1</title>
<path fill="none" stroke="#404040" d="M576.584,-308.865C565.553,-295.856 552.976,-281.922 540.5,-270 502.118,-233.322 455.605,-196.601 416.891,-167.853"/>
<polygon fill="none" stroke="#404040" points="416.882,-167.847 409.679,-167.502 407.226,-160.721 414.429,-161.065 416.882,-167.847"/>
<text text-anchor="middle" x="546.5" y="-244" font-family="Helvetica,sans-Serif" font-size="10.00"> #_current</text>
</g>
<!-- Node16 -->
<g id="node16" class="node"><title>Node16</title>
<g id="a_node16"><a xlink:href="struct_hardware_pwm_buzzer_1_1__current_1_1beep.html" target="_top" xlink:title="{HardwarePwmBuzzer::\l_current::beep\n|+ valueHigh\l+ highToLowRatio\l+ switchTime\l+ type\l|}">
<polygon fill="white" stroke="black" points="549.5,-513 549.5,-614 673.5,-614 673.5,-513 549.5,-513"/>
<text text-anchor="start" x="557.5" y="-602" font-family="Helvetica,sans-Serif" font-size="10.00">HardwarePwmBuzzer::</text>
<text text-anchor="middle" x="611.5" y="-591" font-family="Helvetica,sans-Serif" font-size="10.00">_current::beep</text>
<polyline fill="none" stroke="black" points="549.5,-584 673.5,-584 "/>
<text text-anchor="start" x="557.5" y="-572" font-family="Helvetica,sans-Serif" font-size="10.00">+ valueHigh</text>
<text text-anchor="start" x="557.5" y="-561" font-family="Helvetica,sans-Serif" font-size="10.00">+ highToLowRatio</text>
<text text-anchor="start" x="557.5" y="-550" font-family="Helvetica,sans-Serif" font-size="10.00">+ switchTime</text>
<text text-anchor="start" x="557.5" y="-539" font-family="Helvetica,sans-Serif" font-size="10.00">+ type</text>
<polyline fill="none" stroke="black" points="549.5,-532 673.5,-532 "/>
<text text-anchor="middle" x="611.5" y="-520" font-family="Helvetica,sans-Serif" font-size="10.00"> </text>
</a>
</g>
</g>
<!-- Node16&#45;&gt;Node15 -->
<g id="edge15" class="edge"><title>Node16&#45;&gt;Node15</title>
<path fill="none" stroke="#404040" d="M611.5,-512.799C611.5,-482.209 611.5,-442.923 611.5,-411.202"/>
<polygon fill="none" stroke="#404040" points="611.5,-411.008 607.5,-405.008 611.5,-399.008 615.5,-405.008 611.5,-411.008"/>
<text text-anchor="middle" x="629.5" y="-459" font-family="Helvetica,sans-Serif" font-size="10.00"> +beep</text>
</g>
<!-- Node17 -->
<g id="node17" class="node"><title>Node17</title>
<g id="a_node17"><a xlink:href="class_i_registry.html" target="_top" xlink:title="{IRegistry\n||+ IRegistry()\l+ getReady()\l+ setReady()\l+ getFloat()\l+ getUInt8()\l+ getUInt16()\l+ getUInt32()\l+ getInt8()\l+ getInt16()\l+ getInt32()\land 9 more...\l}">
<polygon fill="white" stroke="black" points="697,-270.5 697,-437.5 780,-437.5 780,-270.5 697,-270.5"/>
<text text-anchor="middle" x="738.5" y="-425.5" font-family="Helvetica,sans-Serif" font-size="10.00">IRegistry</text>
<polyline fill="none" stroke="black" points="697,-418.5 780,-418.5 "/>
<text text-anchor="middle" x="738.5" y="-406.5" font-family="Helvetica,sans-Serif" font-size="10.00"> </text>
<polyline fill="none" stroke="black" points="697,-399.5 780,-399.5 "/>
<text text-anchor="start" x="705" y="-387.5" font-family="Helvetica,sans-Serif" font-size="10.00">+ IRegistry()</text>
<text text-anchor="start" x="705" y="-376.5" font-family="Helvetica,sans-Serif" font-size="10.00">+ getReady()</text>
<text text-anchor="start" x="705" y="-365.5" font-family="Helvetica,sans-Serif" font-size="10.00">+ setReady()</text>
<text text-anchor="start" x="705" y="-354.5" font-family="Helvetica,sans-Serif" font-size="10.00">+ getFloat()</text>
<text text-anchor="start" x="705" y="-343.5" font-family="Helvetica,sans-Serif" font-size="10.00">+ getUInt8()</text>
<text text-anchor="start" x="705" y="-332.5" font-family="Helvetica,sans-Serif" font-size="10.00">+ getUInt16()</text>
<text text-anchor="start" x="705" y="-321.5" font-family="Helvetica,sans-Serif" font-size="10.00">+ getUInt32()</text>
<text text-anchor="start" x="705" y="-310.5" font-family="Helvetica,sans-Serif" font-size="10.00">+ getInt8()</text>
<text text-anchor="start" x="705" y="-299.5" font-family="Helvetica,sans-Serif" font-size="10.00">+ getInt16()</text>
<text text-anchor="start" x="705" y="-288.5" font-family="Helvetica,sans-Serif" font-size="10.00">+ getInt32()</text>
<text text-anchor="start" x="705" y="-277.5" font-family="Helvetica,sans-Serif" font-size="10.00">and 9 more...</text>
</a>
</g>
</g>
<!-- Node17&#45;&gt;Node1 -->
<g id="edge16" class="edge"><title>Node17&#45;&gt;Node1</title>
<path fill="none" stroke="#404040" d="M696.795,-284.237C692.314,-279.105 687.538,-274.272 682.5,-270 604.155,-203.567 493.158,-159.524 418.638,-135.308"/>
<polygon fill="none" stroke="#404040" points="418.433,-135.242 411.5,-137.227 407.002,-131.591 413.934,-129.606 418.433,-135.242"/>
<text text-anchor="middle" x="686" y="-244" font-family="Helvetica,sans-Serif" font-size="10.00"> #_registry</text>
</g>
<!-- Node18 -->
<g id="node18" class="node"><title>Node18</title>
<g id="a_node18"><a xlink:href="class_self_syncable.html" target="_top" xlink:title="{SelfSyncable\n|# _syncerAttached\l|+ attach()\l+ detach()\l# _sendCommand()\l# _sendCommand()\l# _sendCommand()\l# _send()\l# _convertFloat()\l# _reconvertFloat()\l# _disassambleFloat()\l# _reassambleFloat()\l}">
<polygon fill="white" stroke="black" points="691.5,-485.5 691.5,-641.5 815.5,-641.5 815.5,-485.5 691.5,-485.5"/>
<text text-anchor="middle" x="753.5" y="-629.5" font-family="Helvetica,sans-Serif" font-size="10.00">SelfSyncable</text>
<polyline fill="none" stroke="black" points="691.5,-622.5 815.5,-622.5 "/>
<text text-anchor="start" x="699.5" y="-610.5" font-family="Helvetica,sans-Serif" font-size="10.00"># _syncerAttached</text>
<polyline fill="none" stroke="black" points="691.5,-603.5 815.5,-603.5 "/>
<text text-anchor="start" x="699.5" y="-591.5" font-family="Helvetica,sans-Serif" font-size="10.00">+ attach()</text>
<text text-anchor="start" x="699.5" y="-580.5" font-family="Helvetica,sans-Serif" font-size="10.00">+ detach()</text>
<text text-anchor="start" x="699.5" y="-569.5" font-family="Helvetica,sans-Serif" font-size="10.00"># _sendCommand()</text>
<text text-anchor="start" x="699.5" y="-558.5" font-family="Helvetica,sans-Serif" font-size="10.00"># _sendCommand()</text>
<text text-anchor="start" x="699.5" y="-547.5" font-family="Helvetica,sans-Serif" font-size="10.00"># _sendCommand()</text>
<text text-anchor="start" x="699.5" y="-536.5" font-family="Helvetica,sans-Serif" font-size="10.00"># _send()</text>
<text text-anchor="start" x="699.5" y="-525.5" font-family="Helvetica,sans-Serif" font-size="10.00"># _convertFloat()</text>
<text text-anchor="start" x="699.5" y="-514.5" font-family="Helvetica,sans-Serif" font-size="10.00"># _reconvertFloat()</text>
<text text-anchor="start" x="699.5" y="-503.5" font-family="Helvetica,sans-Serif" font-size="10.00"># _disassambleFloat()</text>
<text text-anchor="start" x="699.5" y="-492.5" font-family="Helvetica,sans-Serif" font-size="10.00"># _reassambleFloat()</text>
</a>
</g>
</g>
<!-- Node18&#45;&gt;Node17 -->
<g id="edge17" class="edge"><title>Node18&#45;&gt;Node17</title>
<path fill="none" stroke="midnightblue" d="M747.169,-474.92C746.274,-462.534 745.355,-449.832 744.467,-437.545"/>
<polygon fill="none" stroke="midnightblue" points="743.703,-475.513 747.915,-485.235 750.684,-475.008 743.703,-475.513"/>
</g>
<!-- Node19&#45;&gt;Node18 -->
<g id="edge18" class="edge"><title>Node19&#45;&gt;Node18</title>
<path fill="none" stroke="midnightblue" d="M663.475,-898.06C661.951,-848.775 663.029,-760.577 684.5,-689 689.293,-673.023 696.355,-656.815 704.157,-641.61"/>
<polygon fill="none" stroke="midnightblue" points="659.984,-898.392 663.845,-908.258 666.98,-898.137 659.984,-898.392"/>
</g>
<!-- Node20 -->
<g id="node20" class="node"><title>Node20</title>
<g id="a_node20"><a xlink:href="class_sync.html" target="_top" xlink:title="{Sync\n||+ Sync()\l+ addComponent()\l+ addBridge()\l+ receive()\l+ send()\l+ run()\l+ messageInQueue()\l+ finalize()\l+ Sync()\l+ receive()\land 7 more...\l}">
<polygon fill="white" stroke="black" points="694,-689.5 694,-856.5 813,-856.5 813,-689.5 694,-689.5"/>
<text text-anchor="middle" x="753.5" y="-844.5" font-family="Helvetica,sans-Serif" font-size="10.00">Sync</text>
<polyline fill="none" stroke="black" points="694,-837.5 813,-837.5 "/>
<text text-anchor="middle" x="753.5" y="-825.5" font-family="Helvetica,sans-Serif" font-size="10.00"> </text>
<polyline fill="none" stroke="black" points="694,-818.5 813,-818.5 "/>
<text text-anchor="start" x="702" y="-806.5" font-family="Helvetica,sans-Serif" font-size="10.00">+ Sync()</text>
<text text-anchor="start" x="702" y="-795.5" font-family="Helvetica,sans-Serif" font-size="10.00">+ addComponent()</text>
<text text-anchor="start" x="702" y="-784.5" font-family="Helvetica,sans-Serif" font-size="10.00">+ addBridge()</text>
<text text-anchor="start" x="702" y="-773.5" font-family="Helvetica,sans-Serif" font-size="10.00">+ receive()</text>
<text text-anchor="start" x="702" y="-762.5" font-family="Helvetica,sans-Serif" font-size="10.00">+ send()</text>
<text text-anchor="start" x="702" y="-751.5" font-family="Helvetica,sans-Serif" font-size="10.00">+ run()</text>
<text text-anchor="start" x="702" y="-740.5" font-family="Helvetica,sans-Serif" font-size="10.00">+ messageInQueue()</text>
<text text-anchor="start" x="702" y="-729.5" font-family="Helvetica,sans-Serif" font-size="10.00">+ finalize()</text>
<text text-anchor="start" x="702" y="-718.5" font-family="Helvetica,sans-Serif" font-size="10.00">+ Sync()</text>
<text text-anchor="start" x="702" y="-707.5" font-family="Helvetica,sans-Serif" font-size="10.00">+ receive()</text>
<text text-anchor="start" x="702" y="-696.5" font-family="Helvetica,sans-Serif" font-size="10.00">and 7 more...</text>
</a>
</g>
</g>
<!-- Node20&#45;&gt;Node18 -->
<g id="edge20" class="edge"><title>Node20&#45;&gt;Node18</title>
<path fill="none" stroke="#404040" d="M753.5,-689.394C753.5,-677.735 753.5,-665.703 753.5,-653.923"/>
<polygon fill="none" stroke="#404040" points="753.5,-653.764 749.5,-647.764 753.5,-641.764 757.5,-647.764 753.5,-653.764"/>
<text text-anchor="middle" x="778" y="-663" font-family="Helvetica,sans-Serif" font-size="10.00"> #_syncer</text>
</g>
<!-- Node21&#45;&gt;Node20 -->
<g id="edge21" class="edge"><title>Node21&#45;&gt;Node20</title>
<path fill="none" stroke="midnightblue" d="M737.484,-1045.42C737.762,-993.835 740.622,-915.728 744.251,-856.528"/>
<polygon fill="none" stroke="midnightblue" points="733.984,-1045.69 737.464,-1055.69 740.984,-1045.7 733.984,-1045.69"/>
</g>
<!-- Node21&#45;&gt;Node20 -->
<g id="edge23" class="edge"><title>Node21&#45;&gt;Node20</title>
<path fill="none" stroke="midnightblue" d="M747.868,-1045.42C751.705,-993.835 755.075,-915.728 756.167,-856.528"/>
<polygon fill="none" stroke="midnightblue" points="744.356,-1045.45 747.069,-1055.69 751.335,-1046 744.356,-1045.45"/>
</g>
<!-- Node22 -->
<g id="node22" class="node"><title>Node22</title>
<g id="a_node22"><a xlink:href="classstd_1_1vector.html" target="_top" xlink:title="{std::vector\&lt; CarMessage \&gt;\n||+ ~vector()\l+ at()\l+ operator[]()\l+ front()\l+ back()\l+ data()\l+ begin()\l+ end()\l+ empty()\l+ size()\land 7 more...\l}">
<polygon fill="white" stroke="black" points="800,-1017.5 800,-1184.5 949,-1184.5 949,-1017.5 800,-1017.5"/>
<text text-anchor="middle" x="874.5" y="-1172.5" font-family="Helvetica,sans-Serif" font-size="10.00">std::vector&lt; CarMessage &gt;</text>
<polyline fill="none" stroke="black" points="800,-1165.5 949,-1165.5 "/>
<text text-anchor="middle" x="874.5" y="-1153.5" font-family="Helvetica,sans-Serif" font-size="10.00"> </text>
<polyline fill="none" stroke="black" points="800,-1146.5 949,-1146.5 "/>
<text text-anchor="start" x="808" y="-1134.5" font-family="Helvetica,sans-Serif" font-size="10.00">+ ~vector()</text>
<text text-anchor="start" x="808" y="-1123.5" font-family="Helvetica,sans-Serif" font-size="10.00">+ at()</text>
<text text-anchor="start" x="808" y="-1112.5" font-family="Helvetica,sans-Serif" font-size="10.00">+ operator[]()</text>
<text text-anchor="start" x="808" y="-1101.5" font-family="Helvetica,sans-Serif" font-size="10.00">+ front()</text>
<text text-anchor="start" x="808" y="-1090.5" font-family="Helvetica,sans-Serif" font-size="10.00">+ back()</text>
<text text-anchor="start" x="808" y="-1079.5" font-family="Helvetica,sans-Serif" font-size="10.00">+ data()</text>
<text text-anchor="start" x="808" y="-1068.5" font-family="Helvetica,sans-Serif" font-size="10.00">+ begin()</text>
<text text-anchor="start" x="808" y="-1057.5" font-family="Helvetica,sans-Serif" font-size="10.00">+ end()</text>
<text text-anchor="start" x="808" y="-1046.5" font-family="Helvetica,sans-Serif" font-size="10.00">+ empty()</text>
<text text-anchor="start" x="808" y="-1035.5" font-family="Helvetica,sans-Serif" font-size="10.00">+ size()</text>
<text text-anchor="start" x="808" y="-1024.5" font-family="Helvetica,sans-Serif" font-size="10.00">and 7 more...</text>
</a>
</g>
</g>
<!-- Node22&#45;&gt;Node20 -->
<g id="edge24" class="edge"><title>Node22&#45;&gt;Node20</title>
<path fill="none" stroke="#404040" d="M843.81,-1017.32C826.928,-971.832 805.918,-915.225 788.412,-868.06"/>
<polygon fill="none" stroke="#404040" points="788.333,-867.847 782.495,-863.614 784.157,-856.597 789.995,-860.83 788.333,-867.847"/>
<text text-anchor="middle" x="893" y="-934.5" font-family="Helvetica,sans-Serif" font-size="10.00"> +receivedCarMessages</text>
</g>
<!-- Node23 -->
<g id="node23" class="node"><title>Node23</title>
<g id="a_node23"><a xlink:href="class_non_copyable.html" target="_top" xlink:title="{NonCopyable\&lt; vector\l\&lt; CarMessage, unsigned\l int \&gt; \&gt;\n||+ NonCopyable()\l}">
<polygon fill="white" stroke="black" points="806,-1255.5 806,-1334.5 943,-1334.5 943,-1255.5 806,-1255.5"/>
<text text-anchor="start" x="814" y="-1322.5" font-family="Helvetica,sans-Serif" font-size="10.00">NonCopyable&lt; vector</text>
<text text-anchor="start" x="814" y="-1311.5" font-family="Helvetica,sans-Serif" font-size="10.00">&lt; CarMessage, unsigned</text>
<text text-anchor="middle" x="874.5" y="-1300.5" font-family="Helvetica,sans-Serif" font-size="10.00"> int &gt; &gt;</text>
<polyline fill="none" stroke="black" points="806,-1293.5 943,-1293.5 "/>
<text text-anchor="middle" x="874.5" y="-1281.5" font-family="Helvetica,sans-Serif" font-size="10.00"> </text>
<polyline fill="none" stroke="black" points="806,-1274.5 943,-1274.5 "/>
<text text-anchor="start" x="814" y="-1262.5" font-family="Helvetica,sans-Serif" font-size="10.00">+ NonCopyable()</text>
</a>
</g>
</g>
<!-- Node23&#45;&gt;Node22 -->
<g id="edge25" class="edge"><title>Node23&#45;&gt;Node22</title>
<path fill="none" stroke="#8b1a1a" d="M874.5,-1245.02C874.5,-1226.7 874.5,-1205.34 874.5,-1184.81"/>
<polygon fill="none" stroke="#8b1a1a" points="871,-1245.15 874.5,-1255.15 878,-1245.15 871,-1245.15"/>
</g>
</g>
</svg>
