<?xml version="1.0" encoding="UTF-8" standalone="no"?>
<!DOCTYPE svg PUBLIC "-//W3C//DTD SVG 1.1//EN"
 "http://www.w3.org/Graphics/SVG/1.1/DTD/svg11.dtd">
<!-- Generated by graphviz version 2.38.0 (20140413.2041)
 -->
<!-- Title: IMotorController Pages: 1 -->
<svg width="151pt" height="579pt"
 viewBox="0.00 0.00 151.00 579.00" xmlns="http://www.w3.org/2000/svg" xmlns:xlink="http://www.w3.org/1999/xlink">
<g id="graph0" class="graph" transform="scale(1 1) rotate(0) translate(4 575)">
<title>IMotorController</title>
<polygon fill="white" stroke="none" points="-4,4 -4,-575 147,-575 147,4 -4,4"/>
<!-- Node1 -->
<g id="node1" class="node"><title>Node1</title>
<polygon fill="#bfbfbf" stroke="black" points="15.5,-0.5 15.5,-167.5 127.5,-167.5 127.5,-0.5 15.5,-0.5"/>
<text text-anchor="middle" x="71.5" y="-155.5" font-family="Helvetica,sans-Serif" font-size="10.00">IMotorController</text>
<polyline fill="none" stroke="black" points="15.5,-148.5 127.5,-148.5 "/>
<text text-anchor="middle" x="71.5" y="-136.5" font-family="Helvetica,sans-Serif" font-size="10.00"> </text>
<polyline fill="none" stroke="black" points="15.5,-129.5 127.5,-129.5 "/>
<text text-anchor="start" x="23.5" y="-117.5" font-family="Helvetica,sans-Serif" font-size="10.00">+ IMotorController()</text>
<text text-anchor="start" x="23.5" y="-106.5" font-family="Helvetica,sans-Serif" font-size="10.00">+ getState()</text>
<text text-anchor="start" x="23.5" y="-95.5" font-family="Helvetica,sans-Serif" font-size="10.00">+ setState()</text>
<text text-anchor="start" x="23.5" y="-84.5" font-family="Helvetica,sans-Serif" font-size="10.00">+ setTorque()</text>
<text text-anchor="start" x="23.5" y="-73.5" font-family="Helvetica,sans-Serif" font-size="10.00">+ getSpeed()</text>
<text text-anchor="start" x="23.5" y="-62.5" font-family="Helvetica,sans-Serif" font-size="10.00">+ getCurrent()</text>
<text text-anchor="start" x="23.5" y="-51.5" font-family="Helvetica,sans-Serif" font-size="10.00">+ getMotorTemp()</text>
<text text-anchor="start" x="23.5" y="-40.5" font-family="Helvetica,sans-Serif" font-size="10.00">+ getServoTemp()</text>
<text text-anchor="start" x="23.5" y="-29.5" font-family="Helvetica,sans-Serif" font-size="10.00">+ getAirTemp()</text>
<text text-anchor="start" x="23.5" y="-18.5" font-family="Helvetica,sans-Serif" font-size="10.00">+ setRFE()</text>
<text text-anchor="start" x="23.5" y="-7.5" font-family="Helvetica,sans-Serif" font-size="10.00">and 6 more...</text>
</g>
<!-- Node2 -->
<g id="node2" class="node"><title>Node2</title>
<g id="a_node2"><a xlink:href="class_i_component.html" target="_top" xlink:title="{IComponent\n||+ IComponent()\l+ IComponent()\l+ setComponentSubId()\l+ getComponentType()\l+ getComponentSubId()\l+ getComponentId()\l+ getObjectType()\l# setComponentType()\l# setObjectType()\l}">
<polygon fill="white" stroke="black" points="4.5,-204.5 4.5,-349.5 138.5,-349.5 138.5,-204.5 4.5,-204.5"/>
<text text-anchor="middle" x="71.5" y="-337.5" font-family="Helvetica,sans-Serif" font-size="10.00">IComponent</text>
<polyline fill="none" stroke="black" points="4.5,-330.5 138.5,-330.5 "/>
<text text-anchor="middle" x="71.5" y="-318.5" font-family="Helvetica,sans-Serif" font-size="10.00"> </text>
<polyline fill="none" stroke="black" points="4.5,-311.5 138.5,-311.5 "/>
<text text-anchor="start" x="12.5" y="-299.5" font-family="Helvetica,sans-Serif" font-size="10.00">+ IComponent()</text>
<text text-anchor="start" x="12.5" y="-288.5" font-family="Helvetica,sans-Serif" font-size="10.00">+ IComponent()</text>
<text text-anchor="start" x="12.5" y="-277.5" font-family="Helvetica,sans-Serif" font-size="10.00">+ setComponentSubId()</text>
<text text-anchor="start" x="12.5" y="-266.5" font-family="Helvetica,sans-Serif" font-size="10.00">+ getComponentType()</text>
<text text-anchor="start" x="12.5" y="-255.5" font-family="Helvetica,sans-Serif" font-size="10.00">+ getComponentSubId()</text>
<text text-anchor="start" x="12.5" y="-244.5" font-family="Helvetica,sans-Serif" font-size="10.00">+ getComponentId()</text>
<text text-anchor="start" x="12.5" y="-233.5" font-family="Helvetica,sans-Serif" font-size="10.00">+ getObjectType()</text>
<text text-anchor="start" x="12.5" y="-222.5" font-family="Helvetica,sans-Serif" font-size="10.00"># setComponentType()</text>
<text text-anchor="start" x="12.5" y="-211.5" font-family="Helvetica,sans-Serif" font-size="10.00"># setObjectType()</text>
</a>
</g>
</g>
<!-- Node2&#45;&gt;Node1 -->
<g id="edge1" class="edge"><title>Node2&#45;&gt;Node1</title>
<path fill="none" stroke="midnightblue" d="M71.5,-194.134C71.5,-185.368 71.5,-176.445 71.5,-167.67"/>
<polygon fill="none" stroke="midnightblue" points="68.0001,-194.335 71.5,-204.335 75.0001,-194.335 68.0001,-194.335"/>
</g>
<!-- Node3 -->
<g id="node3" class="node"><title>Node3</title>
<g id="a_node3"><a xlink:href="class_i_logable.html" target="_top" xlink:title="{ILogable\n||+ setStatus()\l+ getStatus()\l+ getLogValueCount()\l+ getLogValue()\l}">
<polygon fill="white" stroke="black" points="10,-386.5 10,-476.5 133,-476.5 133,-386.5 10,-386.5"/>
<text text-anchor="middle" x="71.5" y="-464.5" font-family="Helvetica,sans-Serif" font-size="10.00">ILogable</text>
<polyline fill="none" stroke="black" points="10,-457.5 133,-457.5 "/>
<text text-anchor="middle" x="71.5" y="-445.5" font-family="Helvetica,sans-Serif" font-size="10.00"> </text>
<polyline fill="none" stroke="black" points="10,-438.5 133,-438.5 "/>
<text text-anchor="start" x="18" y="-426.5" font-family="Helvetica,sans-Serif" font-size="10.00">+ setStatus()</text>
<text text-anchor="start" x="18" y="-415.5" font-family="Helvetica,sans-Serif" font-size="10.00">+ getStatus()</text>
<text text-anchor="start" x="18" y="-404.5" font-family="Helvetica,sans-Serif" font-size="10.00">+ getLogValueCount()</text>
<text text-anchor="start" x="18" y="-393.5" font-family="Helvetica,sans-Serif" font-size="10.00">+ getLogValue()</text>
</a>
</g>
</g>
<!-- Node3&#45;&gt;Node2 -->
<g id="edge2" class="edge"><title>Node3&#45;&gt;Node2</title>
<path fill="none" stroke="midnightblue" d="M71.5,-376.13C71.5,-367.526 71.5,-358.516 71.5,-349.591"/>
<polygon fill="none" stroke="midnightblue" points="68.0001,-376.391 71.5,-386.391 75.0001,-376.391 68.0001,-376.391"/>
</g>
<!-- Node4 -->
<g id="node4" class="node"><title>Node4</title>
<g id="a_node4"><a xlink:href="class_non_copyable.html" target="_top" xlink:title="{NonCopyable\&lt; ILogable \&gt;\n||+ NonCopyable()\l}">
<polygon fill="white" stroke="black" points="0,-513.5 0,-570.5 143,-570.5 143,-513.5 0,-513.5"/>
<text text-anchor="middle" x="71.5" y="-558.5" font-family="Helvetica,sans-Serif" font-size="10.00">NonCopyable&lt; ILogable &gt;</text>
<polyline fill="none" stroke="black" points="0,-551.5 143,-551.5 "/>
<text text-anchor="middle" x="71.5" y="-539.5" font-family="Helvetica,sans-Serif" font-size="10.00"> </text>
<polyline fill="none" stroke="black" points="0,-532.5 143,-532.5 "/>
<text text-anchor="start" x="8" y="-520.5" font-family="Helvetica,sans-Serif" font-size="10.00">+ NonCopyable()</text>
</a>
</g>
</g>
<!-- Node4&#45;&gt;Node3 -->
<g id="edge3" class="edge"><title>Node4&#45;&gt;Node3</title>
<path fill="none" stroke="#8b1a1a" d="M71.5,-503.214C71.5,-494.609 71.5,-485.394 71.5,-476.554"/>
<polygon fill="none" stroke="#8b1a1a" points="68.0001,-503.34 71.5,-513.34 75.0001,-503.34 68.0001,-503.34"/>
</g>
</g>
</svg>
