<?xml version="1.0" encoding="UTF-8" standalone="no"?>
<!DOCTYPE svg PUBLIC "-//W3C//DTD SVG 1.1//EN"
 "http://www.w3.org/Graphics/SVG/1.1/DTD/svg11.dtd">
<!-- Generated by graphviz version 2.38.0 (20140413.2041)
 -->
<!-- Title: FATFileHandle Pages: 1 -->
<svg width="108pt" height="259pt"
 viewBox="0.00 0.00 108.00 259.00" xmlns="http://www.w3.org/2000/svg" xmlns:xlink="http://www.w3.org/1999/xlink">
<g id="graph0" class="graph" transform="scale(1 1) rotate(0) translate(4 255)">
<title>FATFileHandle</title>
<polygon fill="white" stroke="none" points="-4,4 -4,-255 104,-255 104,4 -4,4"/>
<!-- Node1 -->
<g id="node1" class="node"><title>Node1</title>
<polygon fill="#bfbfbf" stroke="black" points="0,-0.5 0,-156.5 100,-156.5 100,-0.5 0,-0.5"/>
<text text-anchor="middle" x="50" y="-144.5" font-family="Helvetica,sans-Serif" font-size="10.00">FATFileHandle</text>
<polyline fill="none" stroke="black" points="0,-137.5 100,-137.5 "/>
<text text-anchor="start" x="8" y="-125.5" font-family="Helvetica,sans-Serif" font-size="10.00"># _fh</text>
<polyline fill="none" stroke="black" points="0,-118.5 100,-118.5 "/>
<text text-anchor="start" x="8" y="-106.5" font-family="Helvetica,sans-Serif" font-size="10.00">+ FATFileHandle()</text>
<text text-anchor="start" x="8" y="-95.5" font-family="Helvetica,sans-Serif" font-size="10.00">+ close()</text>
<text text-anchor="start" x="8" y="-84.5" font-family="Helvetica,sans-Serif" font-size="10.00">+ write()</text>
<text text-anchor="start" x="8" y="-73.5" font-family="Helvetica,sans-Serif" font-size="10.00">+ read()</text>
<text text-anchor="start" x="8" y="-62.5" font-family="Helvetica,sans-Serif" font-size="10.00">+ isatty()</text>
<text text-anchor="start" x="8" y="-51.5" font-family="Helvetica,sans-Serif" font-size="10.00">+ lseek()</text>
<text text-anchor="start" x="8" y="-40.5" font-family="Helvetica,sans-Serif" font-size="10.00">+ fsync()</text>
<text text-anchor="start" x="8" y="-29.5" font-family="Helvetica,sans-Serif" font-size="10.00">+ flen()</text>
<text text-anchor="start" x="8" y="-18.5" font-family="Helvetica,sans-Serif" font-size="10.00">+ seek()</text>
<text text-anchor="start" x="8" y="-7.5" font-family="Helvetica,sans-Serif" font-size="10.00">+ size()</text>
</g>
<!-- Node2 -->
<g id="node2" class="node"><title>Node2</title>
<polygon fill="white" stroke="#bfbfbf" points="17.5,-193.5 17.5,-250.5 82.5,-250.5 82.5,-193.5 17.5,-193.5"/>
<text text-anchor="middle" x="50" y="-238.5" font-family="Helvetica,sans-Serif" font-size="10.00">FileHandle</text>
<polyline fill="none" stroke="#bfbfbf" points="17.5,-231.5 82.5,-231.5 "/>
<text text-anchor="middle" x="50" y="-219.5" font-family="Helvetica,sans-Serif" font-size="10.00"> </text>
<polyline fill="none" stroke="#bfbfbf" points="17.5,-212.5 82.5,-212.5 "/>
<text text-anchor="middle" x="50" y="-200.5" font-family="Helvetica,sans-Serif" font-size="10.00"> </text>
</g>
<!-- Node2&#45;&gt;Node1 -->
<g id="edge1" class="edge"><title>Node2&#45;&gt;Node1</title>
<path fill="none" stroke="midnightblue" d="M50,-183.34C50,-175.044 50,-165.964 50,-156.736"/>
<polygon fill="none" stroke="midnightblue" points="46.5001,-183.381 50,-193.381 53.5001,-183.382 46.5001,-183.381"/>
</g>
</g>
</svg>
