<?xml version="1.0" encoding="UTF-8" standalone="no"?>
<!DOCTYPE svg PUBLIC "-//W3C//DTD SVG 1.1//EN"
 "http://www.w3.org/Graphics/SVG/1.1/DTD/svg11.dtd">
<!-- Generated by graphviz version 2.38.0 (20140413.2041)
 -->
<!-- Title: IRegistry Pages: 1 -->
<svg width="351pt" height="1253pt"
 viewBox="0.00 0.00 351.00 1253.00" xmlns="http://www.w3.org/2000/svg" xmlns:xlink="http://www.w3.org/1999/xlink">
<g id="graph0" class="graph" transform="scale(1 1) rotate(0) translate(4 1249)">
<title>IRegistry</title>
<polygon fill="white" stroke="none" points="-4,4 -4,-1249 347,-1249 347,4 -4,4"/>
<!-- Node1 -->
<g id="node1" class="node"><title>Node1</title>
<polygon fill="#bfbfbf" stroke="black" points="220,-0.5 220,-167.5 303,-167.5 303,-0.5 220,-0.5"/>
<text text-anchor="middle" x="261.5" y="-155.5" font-family="Helvetica,sans-Serif" font-size="10.00">IRegistry</text>
<polyline fill="none" stroke="black" points="220,-148.5 303,-148.5 "/>
<text text-anchor="middle" x="261.5" y="-136.5" font-family="Helvetica,sans-Serif" font-size="10.00"> </text>
<polyline fill="none" stroke="black" points="220,-129.5 303,-129.5 "/>
<text text-anchor="start" x="228" y="-117.5" font-family="Helvetica,sans-Serif" font-size="10.00">+ IRegistry()</text>
<text text-anchor="start" x="228" y="-106.5" font-family="Helvetica,sans-Serif" font-size="10.00">+ getReady()</text>
<text text-anchor="start" x="228" y="-95.5" font-family="Helvetica,sans-Serif" font-size="10.00">+ setReady()</text>
<text text-anchor="start" x="228" y="-84.5" font-family="Helvetica,sans-Serif" font-size="10.00">+ getFloat()</text>
<text text-anchor="start" x="228" y="-73.5" font-family="Helvetica,sans-Serif" font-size="10.00">+ getUInt8()</text>
<text text-anchor="start" x="228" y="-62.5" font-family="Helvetica,sans-Serif" font-size="10.00">+ getUInt16()</text>
<text text-anchor="start" x="228" y="-51.5" font-family="Helvetica,sans-Serif" font-size="10.00">+ getUInt32()</text>
<text text-anchor="start" x="228" y="-40.5" font-family="Helvetica,sans-Serif" font-size="10.00">+ getInt8()</text>
<text text-anchor="start" x="228" y="-29.5" font-family="Helvetica,sans-Serif" font-size="10.00">+ getInt16()</text>
<text text-anchor="start" x="228" y="-18.5" font-family="Helvetica,sans-Serif" font-size="10.00">+ getInt32()</text>
<text text-anchor="start" x="228" y="-7.5" font-family="Helvetica,sans-Serif" font-size="10.00">and 9 more...</text>
</g>
<!-- Node2 -->
<g id="node2" class="node"><title>Node2</title>
<g id="a_node2"><a xlink:href="class_self_syncable.html" target="_top" xlink:title="{SelfSyncable\n|# _syncerAttached\l|+ attach()\l+ detach()\l# _sendCommand()\l# _sendCommand()\l# _sendCommand()\l# _send()\l# _convertFloat()\l# _reconvertFloat()\l# _disassambleFloat()\l# _reassambleFloat()\l}">
<polygon fill="white" stroke="black" points="199.5,-205.5 199.5,-361.5 323.5,-361.5 323.5,-205.5 199.5,-205.5"/>
<text text-anchor="middle" x="261.5" y="-349.5" font-family="Helvetica,sans-Serif" font-size="10.00">SelfSyncable</text>
<polyline fill="none" stroke="black" points="199.5,-342.5 323.5,-342.5 "/>
<text text-anchor="start" x="207.5" y="-330.5" font-family="Helvetica,sans-Serif" font-size="10.00"># _syncerAttached</text>
<polyline fill="none" stroke="black" points="199.5,-323.5 323.5,-323.5 "/>
<text text-anchor="start" x="207.5" y="-311.5" font-family="Helvetica,sans-Serif" font-size="10.00">+ attach()</text>
<text text-anchor="start" x="207.5" y="-300.5" font-family="Helvetica,sans-Serif" font-size="10.00">+ detach()</text>
<text text-anchor="start" x="207.5" y="-289.5" font-family="Helvetica,sans-Serif" font-size="10.00"># _sendCommand()</text>
<text text-anchor="start" x="207.5" y="-278.5" font-family="Helvetica,sans-Serif" font-size="10.00"># _sendCommand()</text>
<text text-anchor="start" x="207.5" y="-267.5" font-family="Helvetica,sans-Serif" font-size="10.00"># _sendCommand()</text>
<text text-anchor="start" x="207.5" y="-256.5" font-family="Helvetica,sans-Serif" font-size="10.00"># _send()</text>
<text text-anchor="start" x="207.5" y="-245.5" font-family="Helvetica,sans-Serif" font-size="10.00"># _convertFloat()</text>
<text text-anchor="start" x="207.5" y="-234.5" font-family="Helvetica,sans-Serif" font-size="10.00"># _reconvertFloat()</text>
<text text-anchor="start" x="207.5" y="-223.5" font-family="Helvetica,sans-Serif" font-size="10.00"># _disassambleFloat()</text>
<text text-anchor="start" x="207.5" y="-212.5" font-family="Helvetica,sans-Serif" font-size="10.00"># _reassambleFloat()</text>
</a>
</g>
</g>
<!-- Node2&#45;&gt;Node1 -->
<g id="edge1" class="edge"><title>Node2&#45;&gt;Node1</title>
<path fill="none" stroke="midnightblue" d="M261.5,-195.086C261.5,-185.983 261.5,-176.749 261.5,-167.699"/>
<polygon fill="none" stroke="midnightblue" points="258,-195.293 261.5,-205.293 265,-195.293 258,-195.293"/>
</g>
<!-- Node3 -->
<g id="node3" class="node"><title>Node3</title>
<g id="a_node3"><a xlink:href="class_i_communication.html" target="_top" xlink:title="{ICommunication\n||+ receive()\l}">
<polygon fill="white" stroke="black" points="248,-595.5 248,-652.5 343,-652.5 343,-595.5 248,-595.5"/>
<text text-anchor="middle" x="295.5" y="-640.5" font-family="Helvetica,sans-Serif" font-size="10.00">ICommunication</text>
<polyline fill="none" stroke="black" points="248,-633.5 343,-633.5 "/>
<text text-anchor="middle" x="295.5" y="-621.5" font-family="Helvetica,sans-Serif" font-size="10.00"> </text>
<polyline fill="none" stroke="black" points="248,-614.5 343,-614.5 "/>
<text text-anchor="start" x="256" y="-602.5" font-family="Helvetica,sans-Serif" font-size="10.00">+ receive()</text>
</a>
</g>
</g>
<!-- Node3&#45;&gt;Node2 -->
<g id="edge2" class="edge"><title>Node3&#45;&gt;Node2</title>
<path fill="none" stroke="midnightblue" d="M296.331,-585.279C296.843,-537.314 295.926,-452.067 285.5,-380 284.631,-373.994 283.542,-367.817 282.31,-361.632"/>
<polygon fill="none" stroke="midnightblue" points="292.829,-585.454 296.194,-595.5 299.828,-585.548 292.829,-585.454"/>
</g>
<!-- Node4 -->
<g id="node4" class="node"><title>Node4</title>
<g id="a_node4"><a xlink:href="class_i_component.html" target="_top" xlink:title="{IComponent\n||+ IComponent()\l+ IComponent()\l+ setComponentSubId()\l+ getComponentType()\l+ getComponentSubId()\l+ getComponentId()\l+ getObjectType()\l# setComponentType()\l# setObjectType()\l}">
<polygon fill="white" stroke="black" points="191.5,-876.5 191.5,-1021.5 325.5,-1021.5 325.5,-876.5 191.5,-876.5"/>
<text text-anchor="middle" x="258.5" y="-1009.5" font-family="Helvetica,sans-Serif" font-size="10.00">IComponent</text>
<polyline fill="none" stroke="black" points="191.5,-1002.5 325.5,-1002.5 "/>
<text text-anchor="middle" x="258.5" y="-990.5" font-family="Helvetica,sans-Serif" font-size="10.00"> </text>
<polyline fill="none" stroke="black" points="191.5,-983.5 325.5,-983.5 "/>
<text text-anchor="start" x="199.5" y="-971.5" font-family="Helvetica,sans-Serif" font-size="10.00">+ IComponent()</text>
<text text-anchor="start" x="199.5" y="-960.5" font-family="Helvetica,sans-Serif" font-size="10.00">+ IComponent()</text>
<text text-anchor="start" x="199.5" y="-949.5" font-family="Helvetica,sans-Serif" font-size="10.00">+ setComponentSubId()</text>
<text text-anchor="start" x="199.5" y="-938.5" font-family="Helvetica,sans-Serif" font-size="10.00">+ getComponentType()</text>
<text text-anchor="start" x="199.5" y="-927.5" font-family="Helvetica,sans-Serif" font-size="10.00">+ getComponentSubId()</text>
<text text-anchor="start" x="199.5" y="-916.5" font-family="Helvetica,sans-Serif" font-size="10.00">+ getComponentId()</text>
<text text-anchor="start" x="199.5" y="-905.5" font-family="Helvetica,sans-Serif" font-size="10.00">+ getObjectType()</text>
<text text-anchor="start" x="199.5" y="-894.5" font-family="Helvetica,sans-Serif" font-size="10.00"># setComponentType()</text>
<text text-anchor="start" x="199.5" y="-883.5" font-family="Helvetica,sans-Serif" font-size="10.00"># setObjectType()</text>
</a>
</g>
</g>
<!-- Node4&#45;&gt;Node3 -->
<g id="edge3" class="edge"><title>Node4&#45;&gt;Node3</title>
<path fill="none" stroke="midnightblue" d="M267.87,-866.199C275.882,-796.259 286.942,-699.706 292.315,-652.805"/>
<polygon fill="none" stroke="midnightblue" points="264.372,-865.982 266.711,-876.316 271.327,-866.779 264.372,-865.982"/>
</g>
<!-- Node8 -->
<g id="node8" class="node"><title>Node8</title>
<g id="a_node8"><a xlink:href="class_i_runable.html" target="_top" xlink:title="{IRunable\n||+ IRunable()\l+ run()\l+ setStatus()\l+ getStatus()\l}">
<polygon fill="white" stroke="black" points="174,-710 174,-800 257,-800 257,-710 174,-710"/>
<text text-anchor="middle" x="215.5" y="-788" font-family="Helvetica,sans-Serif" font-size="10.00">IRunable</text>
<polyline fill="none" stroke="black" points="174,-781 257,-781 "/>
<text text-anchor="middle" x="215.5" y="-769" font-family="Helvetica,sans-Serif" font-size="10.00"> </text>
<polyline fill="none" stroke="black" points="174,-762 257,-762 "/>
<text text-anchor="start" x="182" y="-750" font-family="Helvetica,sans-Serif" font-size="10.00">+ IRunable()</text>
<text text-anchor="start" x="182" y="-739" font-family="Helvetica,sans-Serif" font-size="10.00">+ run()</text>
<text text-anchor="start" x="182" y="-728" font-family="Helvetica,sans-Serif" font-size="10.00">+ setStatus()</text>
<text text-anchor="start" x="182" y="-717" font-family="Helvetica,sans-Serif" font-size="10.00">+ getStatus()</text>
</a>
</g>
</g>
<!-- Node4&#45;&gt;Node8 -->
<g id="edge8" class="edge"><title>Node4&#45;&gt;Node8</title>
<path fill="none" stroke="midnightblue" d="M240.19,-866.242C235.105,-843.538 229.777,-819.747 225.377,-800.101"/>
<polygon fill="none" stroke="midnightblue" points="236.826,-867.24 242.427,-876.233 243.657,-865.71 236.826,-867.24"/>
</g>
<!-- Node5 -->
<g id="node5" class="node"><title>Node5</title>
<g id="a_node5"><a xlink:href="class_i_logable.html" target="_top" xlink:title="{ILogable\n||+ setStatus()\l+ getStatus()\l+ getLogValueCount()\l+ getLogValue()\l}">
<polygon fill="white" stroke="black" points="197,-1059.5 197,-1149.5 320,-1149.5 320,-1059.5 197,-1059.5"/>
<text text-anchor="middle" x="258.5" y="-1137.5" font-family="Helvetica,sans-Serif" font-size="10.00">ILogable</text>
<polyline fill="none" stroke="black" points="197,-1130.5 320,-1130.5 "/>
<text text-anchor="middle" x="258.5" y="-1118.5" font-family="Helvetica,sans-Serif" font-size="10.00"> </text>
<polyline fill="none" stroke="black" points="197,-1111.5 320,-1111.5 "/>
<text text-anchor="start" x="205" y="-1099.5" font-family="Helvetica,sans-Serif" font-size="10.00">+ setStatus()</text>
<text text-anchor="start" x="205" y="-1088.5" font-family="Helvetica,sans-Serif" font-size="10.00">+ getStatus()</text>
<text text-anchor="start" x="205" y="-1077.5" font-family="Helvetica,sans-Serif" font-size="10.00">+ getLogValueCount()</text>
<text text-anchor="start" x="205" y="-1066.5" font-family="Helvetica,sans-Serif" font-size="10.00">+ getLogValue()</text>
</a>
</g>
</g>
<!-- Node5&#45;&gt;Node4 -->
<g id="edge4" class="edge"><title>Node5&#45;&gt;Node4</title>
<path fill="none" stroke="midnightblue" d="M258.5,-1048.98C258.5,-1040.16 258.5,-1030.92 258.5,-1021.77"/>
<polygon fill="none" stroke="midnightblue" points="255,-1049.1 258.5,-1059.1 262,-1049.1 255,-1049.1"/>
</g>
<!-- Node6 -->
<g id="node6" class="node"><title>Node6</title>
<g id="a_node6"><a xlink:href="class_non_copyable.html" target="_top" xlink:title="{NonCopyable\&lt; ILogable \&gt;\n||+ NonCopyable()\l}">
<polygon fill="white" stroke="black" points="187,-1187.5 187,-1244.5 330,-1244.5 330,-1187.5 187,-1187.5"/>
<text text-anchor="middle" x="258.5" y="-1232.5" font-family="Helvetica,sans-Serif" font-size="10.00">NonCopyable&lt; ILogable &gt;</text>
<polyline fill="none" stroke="black" points="187,-1225.5 330,-1225.5 "/>
<text text-anchor="middle" x="258.5" y="-1213.5" font-family="Helvetica,sans-Serif" font-size="10.00"> </text>
<polyline fill="none" stroke="black" points="187,-1206.5 330,-1206.5 "/>
<text text-anchor="start" x="195" y="-1194.5" font-family="Helvetica,sans-Serif" font-size="10.00">+ NonCopyable()</text>
</a>
</g>
</g>
<!-- Node6&#45;&gt;Node5 -->
<g id="edge5" class="edge"><title>Node6&#45;&gt;Node5</title>
<path fill="none" stroke="#8b1a1a" d="M258.5,-1177.31C258.5,-1168.43 258.5,-1158.88 258.5,-1149.74"/>
<polygon fill="none" stroke="#8b1a1a" points="255,-1177.37 258.5,-1187.37 262,-1177.37 255,-1177.37"/>
</g>
<!-- Node7 -->
<g id="node7" class="node"><title>Node7</title>
<g id="a_node7"><a xlink:href="class_sync.html" target="_top" xlink:title="{Sync\n||+ Sync()\l+ addComponent()\l+ addBridge()\l+ receive()\l+ send()\l+ run()\l+ messageInQueue()\l+ finalize()\l+ Sync()\l+ receive()\land 7 more...\l}">
<polygon fill="white" stroke="black" points="152,-409.5 152,-576.5 271,-576.5 271,-409.5 152,-409.5"/>
<text text-anchor="middle" x="211.5" y="-564.5" font-family="Helvetica,sans-Serif" font-size="10.00">Sync</text>
<polyline fill="none" stroke="black" points="152,-557.5 271,-557.5 "/>
<text text-anchor="middle" x="211.5" y="-545.5" font-family="Helvetica,sans-Serif" font-size="10.00"> </text>
<polyline fill="none" stroke="black" points="152,-538.5 271,-538.5 "/>
<text text-anchor="start" x="160" y="-526.5" font-family="Helvetica,sans-Serif" font-size="10.00">+ Sync()</text>
<text text-anchor="start" x="160" y="-515.5" font-family="Helvetica,sans-Serif" font-size="10.00">+ addComponent()</text>
<text text-anchor="start" x="160" y="-504.5" font-family="Helvetica,sans-Serif" font-size="10.00">+ addBridge()</text>
<text text-anchor="start" x="160" y="-493.5" font-family="Helvetica,sans-Serif" font-size="10.00">+ receive()</text>
<text text-anchor="start" x="160" y="-482.5" font-family="Helvetica,sans-Serif" font-size="10.00">+ send()</text>
<text text-anchor="start" x="160" y="-471.5" font-family="Helvetica,sans-Serif" font-size="10.00">+ run()</text>
<text text-anchor="start" x="160" y="-460.5" font-family="Helvetica,sans-Serif" font-size="10.00">+ messageInQueue()</text>
<text text-anchor="start" x="160" y="-449.5" font-family="Helvetica,sans-Serif" font-size="10.00">+ finalize()</text>
<text text-anchor="start" x="160" y="-438.5" font-family="Helvetica,sans-Serif" font-size="10.00">+ Sync()</text>
<text text-anchor="start" x="160" y="-427.5" font-family="Helvetica,sans-Serif" font-size="10.00">+ receive()</text>
<text text-anchor="start" x="160" y="-416.5" font-family="Helvetica,sans-Serif" font-size="10.00">and 7 more...</text>
</a>
</g>
</g>
<!-- Node7&#45;&gt;Node2 -->
<g id="edge6" class="edge"><title>Node7&#45;&gt;Node2</title>
<path fill="none" stroke="#404040" d="M229.592,-409.348C231.865,-399.446 234.2,-389.487 236.5,-380 237.022,-377.845 237.556,-375.664 238.098,-373.465"/>
<polygon fill="none" stroke="#404040" points="238.158,-373.223 235.73,-366.433 241.065,-361.58 243.492,-368.371 238.158,-373.223"/>
<text text-anchor="middle" x="261" y="-383" font-family="Helvetica,sans-Serif" font-size="10.00"> #_syncer</text>
</g>
<!-- Node8&#45;&gt;Node7 -->
<g id="edge7" class="edge"><title>Node8&#45;&gt;Node7</title>
<path fill="none" stroke="midnightblue" d="M209.058,-699.718C207.291,-664.146 206.321,-616.965 206.436,-576.76"/>
<polygon fill="none" stroke="midnightblue" points="205.573,-700.097 209.604,-709.895 212.563,-699.721 205.573,-700.097"/>
</g>
<!-- Node8&#45;&gt;Node7 -->
<g id="edge9" class="edge"><title>Node8&#45;&gt;Node7</title>
<path fill="none" stroke="midnightblue" d="M220.272,-699.718C220.945,-664.146 220.462,-616.965 219.11,-576.76"/>
<polygon fill="none" stroke="midnightblue" points="216.769,-699.817 220.038,-709.895 223.767,-699.977 216.769,-699.817"/>
</g>
<!-- Node9 -->
<g id="node9" class="node"><title>Node9</title>
<g id="a_node9"><a xlink:href="classstd_1_1vector.html" target="_top" xlink:title="{std::vector\&lt; CarMessage \&gt;\n||+ ~vector()\l+ at()\l+ operator[]()\l+ front()\l+ back()\l+ data()\l+ begin()\l+ end()\l+ empty()\l+ size()\land 7 more...\l}">
<polygon fill="white" stroke="black" points="0,-671.5 0,-838.5 149,-838.5 149,-671.5 0,-671.5"/>
<text text-anchor="middle" x="74.5" y="-826.5" font-family="Helvetica,sans-Serif" font-size="10.00">std::vector&lt; CarMessage &gt;</text>
<polyline fill="none" stroke="black" points="0,-819.5 149,-819.5 "/>
<text text-anchor="middle" x="74.5" y="-807.5" font-family="Helvetica,sans-Serif" font-size="10.00"> </text>
<polyline fill="none" stroke="black" points="0,-800.5 149,-800.5 "/>
<text text-anchor="start" x="8" y="-788.5" font-family="Helvetica,sans-Serif" font-size="10.00">+ ~vector()</text>
<text text-anchor="start" x="8" y="-777.5" font-family="Helvetica,sans-Serif" font-size="10.00">+ at()</text>
<text text-anchor="start" x="8" y="-766.5" font-family="Helvetica,sans-Serif" font-size="10.00">+ operator[]()</text>
<text text-anchor="start" x="8" y="-755.5" font-family="Helvetica,sans-Serif" font-size="10.00">+ front()</text>
<text text-anchor="start" x="8" y="-744.5" font-family="Helvetica,sans-Serif" font-size="10.00">+ back()</text>
<text text-anchor="start" x="8" y="-733.5" font-family="Helvetica,sans-Serif" font-size="10.00">+ data()</text>
<text text-anchor="start" x="8" y="-722.5" font-family="Helvetica,sans-Serif" font-size="10.00">+ begin()</text>
<text text-anchor="start" x="8" y="-711.5" font-family="Helvetica,sans-Serif" font-size="10.00">+ end()</text>
<text text-anchor="start" x="8" y="-700.5" font-family="Helvetica,sans-Serif" font-size="10.00">+ empty()</text>
<text text-anchor="start" x="8" y="-689.5" font-family="Helvetica,sans-Serif" font-size="10.00">+ size()</text>
<text text-anchor="start" x="8" y="-678.5" font-family="Helvetica,sans-Serif" font-size="10.00">and 7 more...</text>
</a>
</g>
</g>
<!-- Node9&#45;&gt;Node7 -->
<g id="edge10" class="edge"><title>Node9&#45;&gt;Node7</title>
<path fill="none" stroke="#404040" d="M72.2405,-671.251C74.5224,-645.6 80.213,-618.042 92.5,-595 104.334,-572.808 123.228,-553.431 142.509,-537.746"/>
<polygon fill="none" stroke="#404040" points="142.521,-537.737 144.785,-530.89 151.975,-530.347 149.711,-537.193 142.521,-537.737"/>
<text text-anchor="middle" x="151" y="-621.5" font-family="Helvetica,sans-Serif" font-size="10.00"> +receivedCarMessages</text>
</g>
<!-- Node10 -->
<g id="node10" class="node"><title>Node10</title>
<g id="a_node10"><a xlink:href="class_non_copyable.html" target="_top" xlink:title="{NonCopyable\&lt; vector\l\&lt; CarMessage, unsigned\l int \&gt; \&gt;\n||+ NonCopyable()\l}">
<polygon fill="white" stroke="black" points="6,-909.5 6,-988.5 143,-988.5 143,-909.5 6,-909.5"/>
<text text-anchor="start" x="14" y="-976.5" font-family="Helvetica,sans-Serif" font-size="10.00">NonCopyable&lt; vector</text>
<text text-anchor="start" x="14" y="-965.5" font-family="Helvetica,sans-Serif" font-size="10.00">&lt; CarMessage, unsigned</text>
<text text-anchor="middle" x="74.5" y="-954.5" font-family="Helvetica,sans-Serif" font-size="10.00"> int &gt; &gt;</text>
<polyline fill="none" stroke="black" points="6,-947.5 143,-947.5 "/>
<text text-anchor="middle" x="74.5" y="-935.5" font-family="Helvetica,sans-Serif" font-size="10.00"> </text>
<polyline fill="none" stroke="black" points="6,-928.5 143,-928.5 "/>
<text text-anchor="start" x="14" y="-916.5" font-family="Helvetica,sans-Serif" font-size="10.00">+ NonCopyable()</text>
</a>
</g>
</g>
<!-- Node10&#45;&gt;Node9 -->
<g id="edge11" class="edge"><title>Node10&#45;&gt;Node9</title>
<path fill="none" stroke="#8b1a1a" d="M74.5,-899.022C74.5,-880.699 74.5,-859.342 74.5,-838.805"/>
<polygon fill="none" stroke="#8b1a1a" points="71.0001,-899.146 74.5,-909.146 78.0001,-899.146 71.0001,-899.146"/>
</g>
</g>
</svg>
