<?xml version="1.0" encoding="UTF-8" standalone="no"?>
<!DOCTYPE svg PUBLIC "-//W3C//DTD SVG 1.1//EN"
 "http://www.w3.org/Graphics/SVG/1.1/DTD/svg11.dtd">
<!-- Generated by graphviz version 2.38.0 (20140413.2041)
 -->
<!-- Title: SynteticSync Pages: 1 -->
<svg width="410pt" height="993pt"
 viewBox="0.00 0.00 410.00 993.00" xmlns="http://www.w3.org/2000/svg" xmlns:xlink="http://www.w3.org/1999/xlink">
<g id="graph0" class="graph" transform="scale(1 1) rotate(0) translate(4 989)">
<title>SynteticSync</title>
<polygon fill="white" stroke="none" points="-4,4 -4,-989 406,-989 406,4 -4,4"/>
<!-- Node1 -->
<g id="node1" class="node"><title>Node1</title>
<polygon fill="#bfbfbf" stroke="black" points="105.5,-0.5 105.5,-101.5 221.5,-101.5 221.5,-0.5 105.5,-0.5"/>
<text text-anchor="middle" x="163.5" y="-89.5" font-family="Helvetica,sans-Serif" font-size="10.00">SynteticSync</text>
<polyline fill="none" stroke="black" points="105.5,-82.5 221.5,-82.5 "/>
<text text-anchor="middle" x="163.5" y="-70.5" font-family="Helvetica,sans-Serif" font-size="10.00"> </text>
<polyline fill="none" stroke="black" points="105.5,-63.5 221.5,-63.5 "/>
<text text-anchor="start" x="113.5" y="-51.5" font-family="Helvetica,sans-Serif" font-size="10.00">+ SynteticSync()</text>
<text text-anchor="start" x="113.5" y="-40.5" font-family="Helvetica,sans-Serif" font-size="10.00">+ addComponent1()</text>
<text text-anchor="start" x="113.5" y="-29.5" font-family="Helvetica,sans-Serif" font-size="10.00">+ addComponent2()</text>
<text text-anchor="start" x="113.5" y="-18.5" font-family="Helvetica,sans-Serif" font-size="10.00">+ send()</text>
<text text-anchor="start" x="113.5" y="-7.5" font-family="Helvetica,sans-Serif" font-size="10.00">+ run()</text>
</g>
<!-- Node2 -->
<g id="node2" class="node"><title>Node2</title>
<g id="a_node2"><a xlink:href="class_sync.html" target="_top" xlink:title="{Sync\n||+ Sync()\l+ addComponent()\l+ addBridge()\l+ receive()\l+ send()\l+ run()\l+ messageInQueue()\l+ finalize()\l+ Sync()\l+ receive()\land 7 more...\l}">
<polygon fill="white" stroke="black" points="104,-149.5 104,-316.5 223,-316.5 223,-149.5 104,-149.5"/>
<text text-anchor="middle" x="163.5" y="-304.5" font-family="Helvetica,sans-Serif" font-size="10.00">Sync</text>
<polyline fill="none" stroke="black" points="104,-297.5 223,-297.5 "/>
<text text-anchor="middle" x="163.5" y="-285.5" font-family="Helvetica,sans-Serif" font-size="10.00"> </text>
<polyline fill="none" stroke="black" points="104,-278.5 223,-278.5 "/>
<text text-anchor="start" x="112" y="-266.5" font-family="Helvetica,sans-Serif" font-size="10.00">+ Sync()</text>
<text text-anchor="start" x="112" y="-255.5" font-family="Helvetica,sans-Serif" font-size="10.00">+ addComponent()</text>
<text text-anchor="start" x="112" y="-244.5" font-family="Helvetica,sans-Serif" font-size="10.00">+ addBridge()</text>
<text text-anchor="start" x="112" y="-233.5" font-family="Helvetica,sans-Serif" font-size="10.00">+ receive()</text>
<text text-anchor="start" x="112" y="-222.5" font-family="Helvetica,sans-Serif" font-size="10.00">+ send()</text>
<text text-anchor="start" x="112" y="-211.5" font-family="Helvetica,sans-Serif" font-size="10.00">+ run()</text>
<text text-anchor="start" x="112" y="-200.5" font-family="Helvetica,sans-Serif" font-size="10.00">+ messageInQueue()</text>
<text text-anchor="start" x="112" y="-189.5" font-family="Helvetica,sans-Serif" font-size="10.00">+ finalize()</text>
<text text-anchor="start" x="112" y="-178.5" font-family="Helvetica,sans-Serif" font-size="10.00">+ Sync()</text>
<text text-anchor="start" x="112" y="-167.5" font-family="Helvetica,sans-Serif" font-size="10.00">+ receive()</text>
<text text-anchor="start" x="112" y="-156.5" font-family="Helvetica,sans-Serif" font-size="10.00">and 7 more...</text>
</a>
</g>
</g>
<!-- Node2&#45;&gt;Node1 -->
<g id="edge1" class="edge"><title>Node2&#45;&gt;Node1</title>
<path fill="none" stroke="midnightblue" d="M163.5,-139.001C163.5,-126.06 163.5,-113.203 163.5,-101.5"/>
<polygon fill="none" stroke="midnightblue" points="160,-139.375 163.5,-149.375 167,-139.375 160,-139.375"/>
</g>
<!-- Node3 -->
<g id="node3" class="node"><title>Node3</title>
<g id="a_node3"><a xlink:href="class_i_runable.html" target="_top" xlink:title="{IRunable\n||+ IRunable()\l+ run()\l+ setStatus()\l+ getStatus()\l}">
<polygon fill="white" stroke="black" points="91,-450 91,-540 174,-540 174,-450 91,-450"/>
<text text-anchor="middle" x="132.5" y="-528" font-family="Helvetica,sans-Serif" font-size="10.00">IRunable</text>
<polyline fill="none" stroke="black" points="91,-521 174,-521 "/>
<text text-anchor="middle" x="132.5" y="-509" font-family="Helvetica,sans-Serif" font-size="10.00"> </text>
<polyline fill="none" stroke="black" points="91,-502 174,-502 "/>
<text text-anchor="start" x="99" y="-490" font-family="Helvetica,sans-Serif" font-size="10.00">+ IRunable()</text>
<text text-anchor="start" x="99" y="-479" font-family="Helvetica,sans-Serif" font-size="10.00">+ run()</text>
<text text-anchor="start" x="99" y="-468" font-family="Helvetica,sans-Serif" font-size="10.00">+ setStatus()</text>
<text text-anchor="start" x="99" y="-457" font-family="Helvetica,sans-Serif" font-size="10.00">+ getStatus()</text>
</a>
</g>
</g>
<!-- Node3&#45;&gt;Node2 -->
<g id="edge2" class="edge"><title>Node3&#45;&gt;Node2</title>
<path fill="none" stroke="midnightblue" d="M133.365,-439.718C136.386,-404.146 141.768,-356.965 147.295,-316.76"/>
<polygon fill="none" stroke="midnightblue" points="129.86,-439.645 132.542,-449.895 136.837,-440.209 129.86,-439.645"/>
</g>
<!-- Node3&#45;&gt;Node2 -->
<g id="edge6" class="edge"><title>Node3&#45;&gt;Node2</title>
<path fill="none" stroke="midnightblue" d="M144.579,-439.718C150.04,-404.146 155.909,-356.965 159.97,-316.76"/>
<polygon fill="none" stroke="midnightblue" points="141.075,-439.472 142.976,-449.895 147.989,-440.561 141.075,-439.472"/>
</g>
<!-- Node4 -->
<g id="node4" class="node"><title>Node4</title>
<g id="a_node4"><a xlink:href="class_i_component.html" target="_top" xlink:title="{IComponent\n||+ IComponent()\l+ IComponent()\l+ setComponentSubId()\l+ getComponentType()\l+ getComponentSubId()\l+ getComponentId()\l+ getObjectType()\l# setComponentType()\l# setObjectType()\l}">
<polygon fill="white" stroke="black" points="18.5,-616.5 18.5,-761.5 152.5,-761.5 152.5,-616.5 18.5,-616.5"/>
<text text-anchor="middle" x="85.5" y="-749.5" font-family="Helvetica,sans-Serif" font-size="10.00">IComponent</text>
<polyline fill="none" stroke="black" points="18.5,-742.5 152.5,-742.5 "/>
<text text-anchor="middle" x="85.5" y="-730.5" font-family="Helvetica,sans-Serif" font-size="10.00"> </text>
<polyline fill="none" stroke="black" points="18.5,-723.5 152.5,-723.5 "/>
<text text-anchor="start" x="26.5" y="-711.5" font-family="Helvetica,sans-Serif" font-size="10.00">+ IComponent()</text>
<text text-anchor="start" x="26.5" y="-700.5" font-family="Helvetica,sans-Serif" font-size="10.00">+ IComponent()</text>
<text text-anchor="start" x="26.5" y="-689.5" font-family="Helvetica,sans-Serif" font-size="10.00">+ setComponentSubId()</text>
<text text-anchor="start" x="26.5" y="-678.5" font-family="Helvetica,sans-Serif" font-size="10.00">+ getComponentType()</text>
<text text-anchor="start" x="26.5" y="-667.5" font-family="Helvetica,sans-Serif" font-size="10.00">+ getComponentSubId()</text>
<text text-anchor="start" x="26.5" y="-656.5" font-family="Helvetica,sans-Serif" font-size="10.00">+ getComponentId()</text>
<text text-anchor="start" x="26.5" y="-645.5" font-family="Helvetica,sans-Serif" font-size="10.00">+ getObjectType()</text>
<text text-anchor="start" x="26.5" y="-634.5" font-family="Helvetica,sans-Serif" font-size="10.00"># setComponentType()</text>
<text text-anchor="start" x="26.5" y="-623.5" font-family="Helvetica,sans-Serif" font-size="10.00"># setObjectType()</text>
</a>
</g>
</g>
<!-- Node4&#45;&gt;Node3 -->
<g id="edge3" class="edge"><title>Node4&#45;&gt;Node3</title>
<path fill="none" stroke="midnightblue" d="M105.514,-606.242C111.071,-583.538 116.895,-559.747 121.704,-540.101"/>
<polygon fill="none" stroke="midnightblue" points="102.046,-605.688 103.068,-616.233 108.845,-607.352 102.046,-605.688"/>
</g>
<!-- Node9 -->
<g id="node9" class="node"><title>Node9</title>
<g id="a_node9"><a xlink:href="class_i_communication.html" target="_top" xlink:title="{ICommunication\n||+ receive()\l}">
<polygon fill="white" stroke="black" points="0,-335.5 0,-392.5 95,-392.5 95,-335.5 0,-335.5"/>
<text text-anchor="middle" x="47.5" y="-380.5" font-family="Helvetica,sans-Serif" font-size="10.00">ICommunication</text>
<polyline fill="none" stroke="black" points="0,-373.5 95,-373.5 "/>
<text text-anchor="middle" x="47.5" y="-361.5" font-family="Helvetica,sans-Serif" font-size="10.00"> </text>
<polyline fill="none" stroke="black" points="0,-354.5 95,-354.5 "/>
<text text-anchor="start" x="8" y="-342.5" font-family="Helvetica,sans-Serif" font-size="10.00">+ receive()</text>
</a>
</g>
</g>
<!-- Node4&#45;&gt;Node9 -->
<g id="edge10" class="edge"><title>Node4&#45;&gt;Node9</title>
<path fill="none" stroke="midnightblue" d="M75.8764,-606.199C67.6481,-536.259 56.2889,-439.706 50.7712,-392.805"/>
<polygon fill="none" stroke="midnightblue" points="72.422,-606.793 77.0666,-616.316 79.3741,-605.975 72.422,-606.793"/>
</g>
<!-- Node5 -->
<g id="node5" class="node"><title>Node5</title>
<g id="a_node5"><a xlink:href="class_i_logable.html" target="_top" xlink:title="{ILogable\n||+ setStatus()\l+ getStatus()\l+ getLogValueCount()\l+ getLogValue()\l}">
<polygon fill="white" stroke="black" points="24,-799.5 24,-889.5 147,-889.5 147,-799.5 24,-799.5"/>
<text text-anchor="middle" x="85.5" y="-877.5" font-family="Helvetica,sans-Serif" font-size="10.00">ILogable</text>
<polyline fill="none" stroke="black" points="24,-870.5 147,-870.5 "/>
<text text-anchor="middle" x="85.5" y="-858.5" font-family="Helvetica,sans-Serif" font-size="10.00"> </text>
<polyline fill="none" stroke="black" points="24,-851.5 147,-851.5 "/>
<text text-anchor="start" x="32" y="-839.5" font-family="Helvetica,sans-Serif" font-size="10.00">+ setStatus()</text>
<text text-anchor="start" x="32" y="-828.5" font-family="Helvetica,sans-Serif" font-size="10.00">+ getStatus()</text>
<text text-anchor="start" x="32" y="-817.5" font-family="Helvetica,sans-Serif" font-size="10.00">+ getLogValueCount()</text>
<text text-anchor="start" x="32" y="-806.5" font-family="Helvetica,sans-Serif" font-size="10.00">+ getLogValue()</text>
</a>
</g>
</g>
<!-- Node5&#45;&gt;Node4 -->
<g id="edge4" class="edge"><title>Node5&#45;&gt;Node4</title>
<path fill="none" stroke="midnightblue" d="M85.5,-788.98C85.5,-780.165 85.5,-770.921 85.5,-761.771"/>
<polygon fill="none" stroke="midnightblue" points="82.0001,-789.101 85.5,-799.101 89.0001,-789.101 82.0001,-789.101"/>
</g>
<!-- Node6 -->
<g id="node6" class="node"><title>Node6</title>
<g id="a_node6"><a xlink:href="class_non_copyable.html" target="_top" xlink:title="{NonCopyable\&lt; ILogable \&gt;\n||+ NonCopyable()\l}">
<polygon fill="white" stroke="black" points="14,-927.5 14,-984.5 157,-984.5 157,-927.5 14,-927.5"/>
<text text-anchor="middle" x="85.5" y="-972.5" font-family="Helvetica,sans-Serif" font-size="10.00">NonCopyable&lt; ILogable &gt;</text>
<polyline fill="none" stroke="black" points="14,-965.5 157,-965.5 "/>
<text text-anchor="middle" x="85.5" y="-953.5" font-family="Helvetica,sans-Serif" font-size="10.00"> </text>
<polyline fill="none" stroke="black" points="14,-946.5 157,-946.5 "/>
<text text-anchor="start" x="22" y="-934.5" font-family="Helvetica,sans-Serif" font-size="10.00">+ NonCopyable()</text>
</a>
</g>
</g>
<!-- Node6&#45;&gt;Node5 -->
<g id="edge5" class="edge"><title>Node6&#45;&gt;Node5</title>
<path fill="none" stroke="#8b1a1a" d="M85.5,-917.312C85.5,-908.43 85.5,-898.883 85.5,-889.742"/>
<polygon fill="none" stroke="#8b1a1a" points="82.0001,-917.368 85.5,-927.369 89.0001,-917.369 82.0001,-917.368"/>
</g>
<!-- Node7 -->
<g id="node7" class="node"><title>Node7</title>
<g id="a_node7"><a xlink:href="classstd_1_1vector.html" target="_top" xlink:title="{std::vector\&lt; CarMessage \&gt;\n||+ ~vector()\l+ at()\l+ operator[]()\l+ front()\l+ back()\l+ data()\l+ begin()\l+ end()\l+ empty()\l+ size()\land 7 more...\l}">
<polygon fill="white" stroke="black" points="192,-411.5 192,-578.5 341,-578.5 341,-411.5 192,-411.5"/>
<text text-anchor="middle" x="266.5" y="-566.5" font-family="Helvetica,sans-Serif" font-size="10.00">std::vector&lt; CarMessage &gt;</text>
<polyline fill="none" stroke="black" points="192,-559.5 341,-559.5 "/>
<text text-anchor="middle" x="266.5" y="-547.5" font-family="Helvetica,sans-Serif" font-size="10.00"> </text>
<polyline fill="none" stroke="black" points="192,-540.5 341,-540.5 "/>
<text text-anchor="start" x="200" y="-528.5" font-family="Helvetica,sans-Serif" font-size="10.00">+ ~vector()</text>
<text text-anchor="start" x="200" y="-517.5" font-family="Helvetica,sans-Serif" font-size="10.00">+ at()</text>
<text text-anchor="start" x="200" y="-506.5" font-family="Helvetica,sans-Serif" font-size="10.00">+ operator[]()</text>
<text text-anchor="start" x="200" y="-495.5" font-family="Helvetica,sans-Serif" font-size="10.00">+ front()</text>
<text text-anchor="start" x="200" y="-484.5" font-family="Helvetica,sans-Serif" font-size="10.00">+ back()</text>
<text text-anchor="start" x="200" y="-473.5" font-family="Helvetica,sans-Serif" font-size="10.00">+ data()</text>
<text text-anchor="start" x="200" y="-462.5" font-family="Helvetica,sans-Serif" font-size="10.00">+ begin()</text>
<text text-anchor="start" x="200" y="-451.5" font-family="Helvetica,sans-Serif" font-size="10.00">+ end()</text>
<text text-anchor="start" x="200" y="-440.5" font-family="Helvetica,sans-Serif" font-size="10.00">+ empty()</text>
<text text-anchor="start" x="200" y="-429.5" font-family="Helvetica,sans-Serif" font-size="10.00">+ size()</text>
<text text-anchor="start" x="200" y="-418.5" font-family="Helvetica,sans-Serif" font-size="10.00">and 7 more...</text>
</a>
</g>
</g>
<!-- Node7&#45;&gt;Node2 -->
<g id="edge7" class="edge"><title>Node7&#45;&gt;Node2</title>
<path fill="none" stroke="#404040" d="M233.769,-411.377C223.305,-384.965 211.645,-355.531 200.877,-328.35"/>
<polygon fill="none" stroke="#404040" points="200.743,-328.01 194.814,-323.905 196.323,-316.854 202.252,-320.959 200.743,-328.01"/>
<text text-anchor="middle" x="283" y="-361.5" font-family="Helvetica,sans-Serif" font-size="10.00"> +receivedCarMessages</text>
</g>
<!-- Node8 -->
<g id="node8" class="node"><title>Node8</title>
<g id="a_node8"><a xlink:href="class_non_copyable.html" target="_top" xlink:title="{NonCopyable\&lt; vector\l\&lt; CarMessage, unsigned\l int \&gt; \&gt;\n||+ NonCopyable()\l}">
<polygon fill="white" stroke="black" points="198,-649.5 198,-728.5 335,-728.5 335,-649.5 198,-649.5"/>
<text text-anchor="start" x="206" y="-716.5" font-family="Helvetica,sans-Serif" font-size="10.00">NonCopyable&lt; vector</text>
<text text-anchor="start" x="206" y="-705.5" font-family="Helvetica,sans-Serif" font-size="10.00">&lt; CarMessage, unsigned</text>
<text text-anchor="middle" x="266.5" y="-694.5" font-family="Helvetica,sans-Serif" font-size="10.00"> int &gt; &gt;</text>
<polyline fill="none" stroke="black" points="198,-687.5 335,-687.5 "/>
<text text-anchor="middle" x="266.5" y="-675.5" font-family="Helvetica,sans-Serif" font-size="10.00"> </text>
<polyline fill="none" stroke="black" points="198,-668.5 335,-668.5 "/>
<text text-anchor="start" x="206" y="-656.5" font-family="Helvetica,sans-Serif" font-size="10.00">+ NonCopyable()</text>
</a>
</g>
</g>
<!-- Node8&#45;&gt;Node7 -->
<g id="edge8" class="edge"><title>Node8&#45;&gt;Node7</title>
<path fill="none" stroke="#8b1a1a" d="M266.5,-639.022C266.5,-620.699 266.5,-599.342 266.5,-578.805"/>
<polygon fill="none" stroke="#8b1a1a" points="263,-639.146 266.5,-649.146 270,-639.146 263,-639.146"/>
</g>
<!-- Node9&#45;&gt;Node1 -->
<g id="edge9" class="edge"><title>Node9&#45;&gt;Node1</title>
<path fill="none" stroke="#404040" d="M28.8559,-335.272C25.8178,-329.464 23.1336,-323.21 21.5,-317 2.50491,-244.79 -13.3599,-215.03 21.5,-149 37.1969,-119.268 66.562,-96.9235 94.5326,-81.2206"/>
<polygon fill="none" stroke="#404040" points="94.5773,-81.1967 97.9749,-74.8361 105.153,-75.526 101.755,-81.8865 94.5773,-81.1967"/>
<text text-anchor="middle" x="58" y="-236" font-family="Helvetica,sans-Serif" font-size="10.00"> #component1</text>
<text text-anchor="middle" x="58" y="-225" font-family="Helvetica,sans-Serif" font-size="10.00">#component2</text>
</g>
<!-- Node10 -->
<g id="node10" class="node"><title>Node10</title>
<g id="a_node10"><a xlink:href="class_circular_buffer.html" target="_top" xlink:title="{CircularBuffer\&lt; CarMessage,\l SYNC_INCOMING_MESSAGES\l_BUFFER_SIZE, uint8_t \&gt;\n||+ CircularBuffer()\l+ ~CircularBuffer()\l+ push()\l+ pop()\l+ empty()\l+ full()\l+ reset()\l+ size()\l+ peek()\l}">
<polygon fill="white" stroke="black" points="241,-149.5 241,-316.5 402,-316.5 402,-149.5 241,-149.5"/>
<text text-anchor="start" x="249" y="-304.5" font-family="Helvetica,sans-Serif" font-size="10.00">CircularBuffer&lt; CarMessage,</text>
<text text-anchor="start" x="249" y="-293.5" font-family="Helvetica,sans-Serif" font-size="10.00"> SYNC_INCOMING_MESSAGES</text>
<text text-anchor="middle" x="321.5" y="-282.5" font-family="Helvetica,sans-Serif" font-size="10.00">_BUFFER_SIZE, uint8_t &gt;</text>
<polyline fill="none" stroke="black" points="241,-275.5 402,-275.5 "/>
<text text-anchor="middle" x="321.5" y="-263.5" font-family="Helvetica,sans-Serif" font-size="10.00"> </text>
<polyline fill="none" stroke="black" points="241,-256.5 402,-256.5 "/>
<text text-anchor="start" x="249" y="-244.5" font-family="Helvetica,sans-Serif" font-size="10.00">+ CircularBuffer()</text>
<text text-anchor="start" x="249" y="-233.5" font-family="Helvetica,sans-Serif" font-size="10.00">+ ~CircularBuffer()</text>
<text text-anchor="start" x="249" y="-222.5" font-family="Helvetica,sans-Serif" font-size="10.00">+ push()</text>
<text text-anchor="start" x="249" y="-211.5" font-family="Helvetica,sans-Serif" font-size="10.00">+ pop()</text>
<text text-anchor="start" x="249" y="-200.5" font-family="Helvetica,sans-Serif" font-size="10.00">+ empty()</text>
<text text-anchor="start" x="249" y="-189.5" font-family="Helvetica,sans-Serif" font-size="10.00">+ full()</text>
<text text-anchor="start" x="249" y="-178.5" font-family="Helvetica,sans-Serif" font-size="10.00">+ reset()</text>
<text text-anchor="start" x="249" y="-167.5" font-family="Helvetica,sans-Serif" font-size="10.00">+ size()</text>
<text text-anchor="start" x="249" y="-156.5" font-family="Helvetica,sans-Serif" font-size="10.00">+ peek()</text>
</a>
</g>
</g>
<!-- Node10&#45;&gt;Node1 -->
<g id="edge11" class="edge"><title>Node10&#45;&gt;Node1</title>
<path fill="none" stroke="#404040" d="M248.974,-149.375C237.532,-136.34 225.907,-123.097 215.069,-110.749"/>
<polygon fill="none" stroke="#404040" points="214.866,-110.519 207.902,-108.648 206.95,-101.5 213.914,-103.371 214.866,-110.519"/>
<text text-anchor="middle" x="273.5" y="-123" font-family="Helvetica,sans-Serif" font-size="10.00"> #_messageBuffer</text>
</g>
</g>
</svg>
