<?xml version="1.0" encoding="UTF-8" standalone="no"?>
<!DOCTYPE svg PUBLIC "-//W3C//DTD SVG 1.1//EN"
 "http://www.w3.org/Graphics/SVG/1.1/DTD/svg11.dtd">
<!-- Generated by graphviz version 2.38.0 (20140413.2041)
 -->
<!-- Title: Master Pages: 1 -->
<svg width="409pt" height="858pt"
 viewBox="0.00 0.00 409.00 858.00" xmlns="http://www.w3.org/2000/svg" xmlns:xlink="http://www.w3.org/1999/xlink">
<g id="graph0" class="graph" transform="scale(1 1) rotate(0) translate(4 854)">
<title>Master</title>
<polygon fill="white" stroke="none" points="-4,4 -4,-854 405,-854 405,4 -4,4"/>
<!-- Node1 -->
<g id="node1" class="node"><title>Node1</title>
<polygon fill="#bfbfbf" stroke="black" points="149,-0.5 149,-68.5 211,-68.5 211,-0.5 149,-0.5"/>
<text text-anchor="middle" x="180" y="-56.5" font-family="Helvetica,sans-Serif" font-size="10.00">Master</text>
<polyline fill="none" stroke="black" points="149,-49.5 211,-49.5 "/>
<text text-anchor="middle" x="180" y="-37.5" font-family="Helvetica,sans-Serif" font-size="10.00"> </text>
<polyline fill="none" stroke="black" points="149,-30.5 211,-30.5 "/>
<text text-anchor="start" x="157" y="-18.5" font-family="Helvetica,sans-Serif" font-size="10.00">+ setup()</text>
<text text-anchor="start" x="157" y="-7.5" font-family="Helvetica,sans-Serif" font-size="10.00">+ loop()</text>
</g>
<!-- Node2 -->
<g id="node2" class="node"><title>Node2</title>
<g id="a_node2"><a xlink:href="class_carpi.html" target="_top" xlink:title="{Carpi\n||+ Carpi()\l+ printInfo()\l+ getVersion()\l+ getEnvironment()\l}">
<polygon fill="white" stroke="black" points="0,-138.5 0,-228.5 112,-228.5 112,-138.5 0,-138.5"/>
<text text-anchor="middle" x="56" y="-216.5" font-family="Helvetica,sans-Serif" font-size="10.00">Carpi</text>
<polyline fill="none" stroke="black" points="0,-209.5 112,-209.5 "/>
<text text-anchor="middle" x="56" y="-197.5" font-family="Helvetica,sans-Serif" font-size="10.00"> </text>
<polyline fill="none" stroke="black" points="0,-190.5 112,-190.5 "/>
<text text-anchor="start" x="8" y="-178.5" font-family="Helvetica,sans-Serif" font-size="10.00">+ Carpi()</text>
<text text-anchor="start" x="8" y="-167.5" font-family="Helvetica,sans-Serif" font-size="10.00">+ printInfo()</text>
<text text-anchor="start" x="8" y="-156.5" font-family="Helvetica,sans-Serif" font-size="10.00">+ getVersion()</text>
<text text-anchor="start" x="8" y="-145.5" font-family="Helvetica,sans-Serif" font-size="10.00">+ getEnvironment()</text>
</a>
</g>
</g>
<!-- Node2&#45;&gt;Node1 -->
<g id="edge1" class="edge"><title>Node2&#45;&gt;Node1</title>
<path fill="none" stroke="midnightblue" d="M99.7324,-130.656C117.066,-110.107 136.492,-87.0776 151.892,-68.8221"/>
<polygon fill="none" stroke="midnightblue" points="96.9766,-128.495 93.2041,-138.395 102.327,-133.008 96.9766,-128.495"/>
</g>
<!-- Node3 -->
<g id="node3" class="node"><title>Node3</title>
<g id="a_node3"><a xlink:href="class_runable_list.html" target="_top" xlink:title="{RunableList\n||+ run()\l+ addRunable()\l+ finalize()\l}">
<polygon fill="white" stroke="black" points="251.5,-144 251.5,-223 342.5,-223 342.5,-144 251.5,-144"/>
<text text-anchor="middle" x="297" y="-211" font-family="Helvetica,sans-Serif" font-size="10.00">RunableList</text>
<polyline fill="none" stroke="black" points="251.5,-204 342.5,-204 "/>
<text text-anchor="middle" x="297" y="-192" font-family="Helvetica,sans-Serif" font-size="10.00"> </text>
<polyline fill="none" stroke="black" points="251.5,-185 342.5,-185 "/>
<text text-anchor="start" x="259.5" y="-173" font-family="Helvetica,sans-Serif" font-size="10.00">+ run()</text>
<text text-anchor="start" x="259.5" y="-162" font-family="Helvetica,sans-Serif" font-size="10.00">+ addRunable()</text>
<text text-anchor="start" x="259.5" y="-151" font-family="Helvetica,sans-Serif" font-size="10.00">+ finalize()</text>
</a>
</g>
</g>
<!-- Node3&#45;&gt;Node1 -->
<g id="edge2" class="edge"><title>Node3&#45;&gt;Node1</title>
<path fill="none" stroke="#404040" d="M295.372,-143.568C292.872,-124.884 287.257,-103.115 275,-87 261.833,-69.6876 241.107,-57.4935 222.37,-49.3324"/>
<polygon fill="none" stroke="#404040" points="222.174,-49.2533 215.113,-50.7172 211.046,-44.7624 218.107,-43.2985 222.174,-49.2533"/>
<text text-anchor="middle" x="345.5" y="-112" font-family="Helvetica,sans-Serif" font-size="10.00"> #lowDemandServices</text>
<text text-anchor="middle" x="345.5" y="-101" font-family="Helvetica,sans-Serif" font-size="10.00">#services</text>
<text text-anchor="middle" x="345.5" y="-90" font-family="Helvetica,sans-Serif" font-size="10.00">#highDemandServices</text>
</g>
<!-- Node4 -->
<g id="node4" class="node"><title>Node4</title>
<g id="a_node4"><a xlink:href="class_i_runable.html" target="_top" xlink:title="{IRunable\n||+ IRunable()\l+ run()\l+ setStatus()\l+ getStatus()\l}">
<polygon fill="white" stroke="black" points="139.5,-315 139.5,-405 222.5,-405 222.5,-315 139.5,-315"/>
<text text-anchor="middle" x="181" y="-393" font-family="Helvetica,sans-Serif" font-size="10.00">IRunable</text>
<polyline fill="none" stroke="black" points="139.5,-386 222.5,-386 "/>
<text text-anchor="middle" x="181" y="-374" font-family="Helvetica,sans-Serif" font-size="10.00"> </text>
<polyline fill="none" stroke="black" points="139.5,-367 222.5,-367 "/>
<text text-anchor="start" x="147.5" y="-355" font-family="Helvetica,sans-Serif" font-size="10.00">+ IRunable()</text>
<text text-anchor="start" x="147.5" y="-344" font-family="Helvetica,sans-Serif" font-size="10.00">+ run()</text>
<text text-anchor="start" x="147.5" y="-333" font-family="Helvetica,sans-Serif" font-size="10.00">+ setStatus()</text>
<text text-anchor="start" x="147.5" y="-322" font-family="Helvetica,sans-Serif" font-size="10.00">+ getStatus()</text>
</a>
</g>
</g>
<!-- Node4&#45;&gt;Node3 -->
<g id="edge3" class="edge"><title>Node4&#45;&gt;Node3</title>
<path fill="none" stroke="midnightblue" d="M215.921,-306.468C233.728,-279.681 255.004,-247.676 271.292,-223.173"/>
<polygon fill="none" stroke="midnightblue" points="212.893,-304.701 210.272,-314.966 218.722,-308.576 212.893,-304.701"/>
</g>
<!-- Node10 -->
<g id="node10" class="node"><title>Node10</title>
<g id="a_node10"><a xlink:href="class_runable_scheduler.html" target="_top" xlink:title="{RunableScheduler\n||+ run()\l+ addRunable()\l+ finalize()\l}">
<polygon fill="white" stroke="black" points="130,-144 130,-223 232,-223 232,-144 130,-144"/>
<text text-anchor="middle" x="181" y="-211" font-family="Helvetica,sans-Serif" font-size="10.00">RunableScheduler</text>
<polyline fill="none" stroke="black" points="130,-204 232,-204 "/>
<text text-anchor="middle" x="181" y="-192" font-family="Helvetica,sans-Serif" font-size="10.00"> </text>
<polyline fill="none" stroke="black" points="130,-185 232,-185 "/>
<text text-anchor="start" x="138" y="-173" font-family="Helvetica,sans-Serif" font-size="10.00">+ run()</text>
<text text-anchor="start" x="138" y="-162" font-family="Helvetica,sans-Serif" font-size="10.00">+ addRunable()</text>
<text text-anchor="start" x="138" y="-151" font-family="Helvetica,sans-Serif" font-size="10.00">+ finalize()</text>
</a>
</g>
</g>
<!-- Node4&#45;&gt;Node10 -->
<g id="edge10" class="edge"><title>Node4&#45;&gt;Node10</title>
<path fill="none" stroke="midnightblue" d="M181,-304.722C181,-278.299 181,-247.145 181,-223.173"/>
<polygon fill="none" stroke="midnightblue" points="177.5,-304.966 181,-314.966 184.5,-304.966 177.5,-304.966"/>
</g>
<!-- Node5 -->
<g id="node5" class="node"><title>Node5</title>
<g id="a_node5"><a xlink:href="class_i_component.html" target="_top" xlink:title="{IComponent\n||+ IComponent()\l+ IComponent()\l+ setComponentSubId()\l+ getComponentType()\l+ getComponentSubId()\l+ getComponentId()\l+ getObjectType()\l# setComponentType()\l# setObjectType()\l}">
<polygon fill="white" stroke="black" points="106,-481.5 106,-626.5 240,-626.5 240,-481.5 106,-481.5"/>
<text text-anchor="middle" x="173" y="-614.5" font-family="Helvetica,sans-Serif" font-size="10.00">IComponent</text>
<polyline fill="none" stroke="black" points="106,-607.5 240,-607.5 "/>
<text text-anchor="middle" x="173" y="-595.5" font-family="Helvetica,sans-Serif" font-size="10.00"> </text>
<polyline fill="none" stroke="black" points="106,-588.5 240,-588.5 "/>
<text text-anchor="start" x="114" y="-576.5" font-family="Helvetica,sans-Serif" font-size="10.00">+ IComponent()</text>
<text text-anchor="start" x="114" y="-565.5" font-family="Helvetica,sans-Serif" font-size="10.00">+ IComponent()</text>
<text text-anchor="start" x="114" y="-554.5" font-family="Helvetica,sans-Serif" font-size="10.00">+ setComponentSubId()</text>
<text text-anchor="start" x="114" y="-543.5" font-family="Helvetica,sans-Serif" font-size="10.00">+ getComponentType()</text>
<text text-anchor="start" x="114" y="-532.5" font-family="Helvetica,sans-Serif" font-size="10.00">+ getComponentSubId()</text>
<text text-anchor="start" x="114" y="-521.5" font-family="Helvetica,sans-Serif" font-size="10.00">+ getComponentId()</text>
<text text-anchor="start" x="114" y="-510.5" font-family="Helvetica,sans-Serif" font-size="10.00">+ getObjectType()</text>
<text text-anchor="start" x="114" y="-499.5" font-family="Helvetica,sans-Serif" font-size="10.00"># setComponentType()</text>
<text text-anchor="start" x="114" y="-488.5" font-family="Helvetica,sans-Serif" font-size="10.00"># setObjectType()</text>
</a>
</g>
</g>
<!-- Node5&#45;&gt;Node4 -->
<g id="edge4" class="edge"><title>Node5&#45;&gt;Node4</title>
<path fill="none" stroke="midnightblue" d="M176.419,-470.937C177.361,-448.325 178.348,-424.659 179.162,-405.101"/>
<polygon fill="none" stroke="midnightblue" points="172.91,-471.096 175.99,-481.233 179.904,-471.388 172.91,-471.096"/>
</g>
<!-- Node6 -->
<g id="node6" class="node"><title>Node6</title>
<g id="a_node6"><a xlink:href="class_i_logable.html" target="_top" xlink:title="{ILogable\n||+ setStatus()\l+ getStatus()\l+ getLogValueCount()\l+ getLogValue()\l}">
<polygon fill="white" stroke="black" points="111.5,-664.5 111.5,-754.5 234.5,-754.5 234.5,-664.5 111.5,-664.5"/>
<text text-anchor="middle" x="173" y="-742.5" font-family="Helvetica,sans-Serif" font-size="10.00">ILogable</text>
<polyline fill="none" stroke="black" points="111.5,-735.5 234.5,-735.5 "/>
<text text-anchor="middle" x="173" y="-723.5" font-family="Helvetica,sans-Serif" font-size="10.00"> </text>
<polyline fill="none" stroke="black" points="111.5,-716.5 234.5,-716.5 "/>
<text text-anchor="start" x="119.5" y="-704.5" font-family="Helvetica,sans-Serif" font-size="10.00">+ setStatus()</text>
<text text-anchor="start" x="119.5" y="-693.5" font-family="Helvetica,sans-Serif" font-size="10.00">+ getStatus()</text>
<text text-anchor="start" x="119.5" y="-682.5" font-family="Helvetica,sans-Serif" font-size="10.00">+ getLogValueCount()</text>
<text text-anchor="start" x="119.5" y="-671.5" font-family="Helvetica,sans-Serif" font-size="10.00">+ getLogValue()</text>
</a>
</g>
</g>
<!-- Node6&#45;&gt;Node5 -->
<g id="edge5" class="edge"><title>Node6&#45;&gt;Node5</title>
<path fill="none" stroke="midnightblue" d="M173,-653.98C173,-645.165 173,-635.921 173,-626.771"/>
<polygon fill="none" stroke="midnightblue" points="169.5,-654.101 173,-664.101 176.5,-654.101 169.5,-654.101"/>
</g>
<!-- Node7 -->
<g id="node7" class="node"><title>Node7</title>
<g id="a_node7"><a xlink:href="class_non_copyable.html" target="_top" xlink:title="{NonCopyable\&lt; ILogable \&gt;\n||+ NonCopyable()\l}">
<polygon fill="white" stroke="black" points="101.5,-792.5 101.5,-849.5 244.5,-849.5 244.5,-792.5 101.5,-792.5"/>
<text text-anchor="middle" x="173" y="-837.5" font-family="Helvetica,sans-Serif" font-size="10.00">NonCopyable&lt; ILogable &gt;</text>
<polyline fill="none" stroke="black" points="101.5,-830.5 244.5,-830.5 "/>
<text text-anchor="middle" x="173" y="-818.5" font-family="Helvetica,sans-Serif" font-size="10.00"> </text>
<polyline fill="none" stroke="black" points="101.5,-811.5 244.5,-811.5 "/>
<text text-anchor="start" x="109.5" y="-799.5" font-family="Helvetica,sans-Serif" font-size="10.00">+ NonCopyable()</text>
</a>
</g>
</g>
<!-- Node7&#45;&gt;Node6 -->
<g id="edge6" class="edge"><title>Node7&#45;&gt;Node6</title>
<path fill="none" stroke="#8b1a1a" d="M173,-782.312C173,-773.43 173,-763.883 173,-754.742"/>
<polygon fill="none" stroke="#8b1a1a" points="169.5,-782.368 173,-792.369 176.5,-782.369 169.5,-782.368"/>
</g>
<!-- Node8 -->
<g id="node8" class="node"><title>Node8</title>
<g id="a_node8"><a xlink:href="classstd_1_1vector.html" target="_top" xlink:title="{std::vector\&lt; IRunable * \&gt;\n||+ ~vector()\l+ at()\l+ operator[]()\l+ front()\l+ back()\l+ data()\l+ begin()\l+ end()\l+ empty()\l+ size()\land 7 more...\l}">
<polygon fill="white" stroke="black" points="250,-276.5 250,-443.5 388,-443.5 388,-276.5 250,-276.5"/>
<text text-anchor="middle" x="319" y="-431.5" font-family="Helvetica,sans-Serif" font-size="10.00">std::vector&lt; IRunable * &gt;</text>
<polyline fill="none" stroke="black" points="250,-424.5 388,-424.5 "/>
<text text-anchor="middle" x="319" y="-412.5" font-family="Helvetica,sans-Serif" font-size="10.00"> </text>
<polyline fill="none" stroke="black" points="250,-405.5 388,-405.5 "/>
<text text-anchor="start" x="258" y="-393.5" font-family="Helvetica,sans-Serif" font-size="10.00">+ ~vector()</text>
<text text-anchor="start" x="258" y="-382.5" font-family="Helvetica,sans-Serif" font-size="10.00">+ at()</text>
<text text-anchor="start" x="258" y="-371.5" font-family="Helvetica,sans-Serif" font-size="10.00">+ operator[]()</text>
<text text-anchor="start" x="258" y="-360.5" font-family="Helvetica,sans-Serif" font-size="10.00">+ front()</text>
<text text-anchor="start" x="258" y="-349.5" font-family="Helvetica,sans-Serif" font-size="10.00">+ back()</text>
<text text-anchor="start" x="258" y="-338.5" font-family="Helvetica,sans-Serif" font-size="10.00">+ data()</text>
<text text-anchor="start" x="258" y="-327.5" font-family="Helvetica,sans-Serif" font-size="10.00">+ begin()</text>
<text text-anchor="start" x="258" y="-316.5" font-family="Helvetica,sans-Serif" font-size="10.00">+ end()</text>
<text text-anchor="start" x="258" y="-305.5" font-family="Helvetica,sans-Serif" font-size="10.00">+ empty()</text>
<text text-anchor="start" x="258" y="-294.5" font-family="Helvetica,sans-Serif" font-size="10.00">+ size()</text>
<text text-anchor="start" x="258" y="-283.5" font-family="Helvetica,sans-Serif" font-size="10.00">and 7 more...</text>
</a>
</g>
</g>
<!-- Node8&#45;&gt;Node3 -->
<g id="edge7" class="edge"><title>Node8&#45;&gt;Node3</title>
<path fill="none" stroke="#404040" d="M308.58,-276.349C306.812,-262.33 305.025,-248.153 303.401,-235.269"/>
<polygon fill="none" stroke="#404040" points="303.4,-235.267 298.681,-229.814 301.899,-223.361 306.619,-228.813 303.4,-235.267"/>
<text text-anchor="middle" x="336" y="-250" font-family="Helvetica,sans-Serif" font-size="10.00"> #_runables</text>
</g>
<!-- Node9 -->
<g id="node9" class="node"><title>Node9</title>
<g id="a_node9"><a xlink:href="class_non_copyable.html" target="_top" xlink:title="{NonCopyable\&lt; vector\l\&lt; IRunable *, unsigned\l int \&gt; \&gt;\n||+ NonCopyable()\l}">
<polygon fill="white" stroke="black" points="258.5,-514.5 258.5,-593.5 383.5,-593.5 383.5,-514.5 258.5,-514.5"/>
<text text-anchor="start" x="266.5" y="-581.5" font-family="Helvetica,sans-Serif" font-size="10.00">NonCopyable&lt; vector</text>
<text text-anchor="start" x="266.5" y="-570.5" font-family="Helvetica,sans-Serif" font-size="10.00">&lt; IRunable *, unsigned</text>
<text text-anchor="middle" x="321" y="-559.5" font-family="Helvetica,sans-Serif" font-size="10.00"> int &gt; &gt;</text>
<polyline fill="none" stroke="black" points="258.5,-552.5 383.5,-552.5 "/>
<text text-anchor="middle" x="321" y="-540.5" font-family="Helvetica,sans-Serif" font-size="10.00"> </text>
<polyline fill="none" stroke="black" points="258.5,-533.5 383.5,-533.5 "/>
<text text-anchor="start" x="266.5" y="-521.5" font-family="Helvetica,sans-Serif" font-size="10.00">+ NonCopyable()</text>
</a>
</g>
</g>
<!-- Node9&#45;&gt;Node8 -->
<g id="edge8" class="edge"><title>Node9&#45;&gt;Node8</title>
<path fill="none" stroke="#8b1a1a" d="M320.49,-504.022C320.299,-485.699 320.076,-464.342 319.863,-443.805"/>
<polygon fill="none" stroke="#8b1a1a" points="316.991,-504.183 320.595,-514.146 323.991,-504.11 316.991,-504.183"/>
</g>
<!-- Node10&#45;&gt;Node1 -->
<g id="edge9" class="edge"><title>Node10&#45;&gt;Node1</title>
<path fill="none" stroke="#404040" d="M180.737,-143.877C180.606,-124.576 180.446,-101.096 180.309,-80.9328"/>
<polygon fill="none" stroke="#404040" points="180.309,-80.8735 176.268,-74.9009 180.227,-68.8738 184.268,-74.8464 180.309,-80.8735"/>
<text text-anchor="middle" x="228" y="-101" font-family="Helvetica,sans-Serif" font-size="10.00"> #serviceScheduler</text>
</g>
</g>
</svg>
