<?xml version="1.0" encoding="UTF-8" standalone="no"?>
<!DOCTYPE svg PUBLIC "-//W3C//DTD SVG 1.1//EN"
 "http://www.w3.org/Graphics/SVG/1.1/DTD/svg11.dtd">
<!-- Generated by graphviz version 2.38.0 (20140413.2041)
 -->
<!-- Title: PLogger::LoggingValue Pages: 1 -->
<svg width="163pt" height="215pt"
 viewBox="0.00 0.00 163.00 215.00" xmlns="http://www.w3.org/2000/svg" xmlns:xlink="http://www.w3.org/1999/xlink">
<g id="graph0" class="graph" transform="scale(1 1) rotate(0) translate(4 211)">
<title>PLogger::LoggingValue</title>
<polygon fill="white" stroke="none" points="-4,4 -4,-211 159,-211 159,4 -4,4"/>
<!-- Node1 -->
<g id="node1" class="node"><title>Node1</title>
<polygon fill="#bfbfbf" stroke="black" points="15,-0.5 15,-68.5 140,-68.5 140,-0.5 15,-0.5"/>
<text text-anchor="middle" x="77.5" y="-56.5" font-family="Helvetica,sans-Serif" font-size="10.00">PLogger::LoggingValue</text>
<polyline fill="none" stroke="black" points="15,-49.5 140,-49.5 "/>
<text text-anchor="start" x="23" y="-37.5" font-family="Helvetica,sans-Serif" font-size="10.00">+ logId</text>
<polyline fill="none" stroke="black" points="15,-30.5 140,-30.5 "/>
<text text-anchor="start" x="23" y="-18.5" font-family="Helvetica,sans-Serif" font-size="10.00">+ LoggingValue()</text>
<text text-anchor="start" x="23" y="-7.5" font-family="Helvetica,sans-Serif" font-size="10.00">+ send()</text>
</g>
<!-- Node2 -->
<g id="node2" class="node"><title>Node2</title>
<g id="a_node2"><a xlink:href="class_p_logger_1_1_logging_component.html" target="_top" xlink:title="{PLogger::LoggingComponent\n|+ logable\l+ refreshRate\l+ logged\l+ lastRun\l|+ LoggingComponent()\l+ send()\l}">
<polygon fill="white" stroke="black" points="0,-105.5 0,-206.5 155,-206.5 155,-105.5 0,-105.5"/>
<text text-anchor="middle" x="77.5" y="-194.5" font-family="Helvetica,sans-Serif" font-size="10.00">PLogger::LoggingComponent</text>
<polyline fill="none" stroke="black" points="0,-187.5 155,-187.5 "/>
<text text-anchor="start" x="8" y="-175.5" font-family="Helvetica,sans-Serif" font-size="10.00">+ logable</text>
<text text-anchor="start" x="8" y="-164.5" font-family="Helvetica,sans-Serif" font-size="10.00">+ refreshRate</text>
<text text-anchor="start" x="8" y="-153.5" font-family="Helvetica,sans-Serif" font-size="10.00">+ logged</text>
<text text-anchor="start" x="8" y="-142.5" font-family="Helvetica,sans-Serif" font-size="10.00">+ lastRun</text>
<polyline fill="none" stroke="black" points="0,-135.5 155,-135.5 "/>
<text text-anchor="start" x="8" y="-123.5" font-family="Helvetica,sans-Serif" font-size="10.00">+ LoggingComponent()</text>
<text text-anchor="start" x="8" y="-112.5" font-family="Helvetica,sans-Serif" font-size="10.00">+ send()</text>
</a>
</g>
</g>
<!-- Node2&#45;&gt;Node1 -->
<g id="edge1" class="edge"><title>Node2&#45;&gt;Node1</title>
<path fill="none" stroke="midnightblue" d="M77.5,-95.1717C77.5,-86.1099 77.5,-77.0504 77.5,-68.8271"/>
<polygon fill="none" stroke="midnightblue" points="74.0001,-95.3594 77.5,-105.359 81.0001,-95.3594 74.0001,-95.3594"/>
</g>
</g>
</svg>
