<?xml version="1.0" encoding="UTF-8" standalone="no"?>
<!DOCTYPE svg PUBLIC "-//W3C//DTD SVG 1.1//EN"
 "http://www.w3.org/Graphics/SVG/1.1/DTD/svg11.dtd">
<!-- Generated by graphviz version 2.38.0 (20140413.2041)
 -->
<!-- Title: HardwareRpmSensor Pages: 1 -->
<svg width="637pt" height="1456pt"
 viewBox="0.00 0.00 636.50 1456.00" xmlns="http://www.w3.org/2000/svg" xmlns:xlink="http://www.w3.org/1999/xlink">
<g id="graph0" class="graph" transform="scale(1 1) rotate(0) translate(4 1452)">
<title>HardwareRpmSensor</title>
<polygon fill="white" stroke="none" points="-4,4 -4,-1452 632.5,-1452 632.5,4 -4,4"/>
<!-- Node1 -->
<g id="node1" class="node"><title>Node1</title>
<polygon fill="#bfbfbf" stroke="black" points="303,-0.5 303,-189.5 514,-189.5 514,-0.5 303,-0.5"/>
<text text-anchor="middle" x="408.5" y="-177.5" font-family="Helvetica,sans-Serif" font-size="10.00">HardwareRpmSensor</text>
<polyline fill="none" stroke="black" points="303,-170.5 514,-170.5 "/>
<text text-anchor="start" x="311" y="-158.5" font-family="Helvetica,sans-Serif" font-size="10.00"># _pin</text>
<text text-anchor="start" x="311" y="-147.5" font-family="Helvetica,sans-Serif" font-size="10.00"># _status</text>
<text text-anchor="start" x="311" y="-136.5" font-family="Helvetica,sans-Serif" font-size="10.00"># _lastSentStatus</text>
<polyline fill="none" stroke="black" points="303,-129.5 514,-129.5 "/>
<text text-anchor="start" x="311" y="-117.5" font-family="Helvetica,sans-Serif" font-size="10.00">+ HardwareRpmSensor()</text>
<text text-anchor="start" x="311" y="-106.5" font-family="Helvetica,sans-Serif" font-size="10.00">+ setStatus()</text>
<text text-anchor="start" x="311" y="-95.5" font-family="Helvetica,sans-Serif" font-size="10.00">+ getStatus()</text>
<text text-anchor="start" x="311" y="-84.5" font-family="Helvetica,sans-Serif" font-size="10.00">+ setMeasurementPointsPerRevolution()</text>
<text text-anchor="start" x="311" y="-73.5" font-family="Helvetica,sans-Serif" font-size="10.00">+ setFrequency()</text>
<text text-anchor="start" x="311" y="-62.5" font-family="Helvetica,sans-Serif" font-size="10.00">+ getMeasurementsPerRevolution()</text>
<text text-anchor="start" x="311" y="-51.5" font-family="Helvetica,sans-Serif" font-size="10.00">+ getFrequency()</text>
<text text-anchor="start" x="311" y="-40.5" font-family="Helvetica,sans-Serif" font-size="10.00">+ receive()</text>
<text text-anchor="start" x="311" y="-29.5" font-family="Helvetica,sans-Serif" font-size="10.00"># _measurementEvent()</text>
<text text-anchor="start" x="311" y="-18.5" font-family="Helvetica,sans-Serif" font-size="10.00"># _measurementTimeOut()</text>
<text text-anchor="start" x="311" y="-7.5" font-family="Helvetica,sans-Serif" font-size="10.00"># _updateValues()</text>
</g>
<!-- Node2 -->
<g id="node2" class="node"><title>Node2</title>
<g id="a_node2"><a xlink:href="class_i_rpm_sensor.html" target="_top" xlink:title="{IRpmSensor\n||+ IRpmSensor()\l+ setMeasurementPointsPerRevolution()\l+ setFrequency()\l+ getMeasurementsPerRevolution()\l+ getFrequency()\l+ getLogValueCount()\l+ getLogValue()\l}">
<polygon fill="white" stroke="black" points="118,-237.5 118,-360.5 329,-360.5 329,-237.5 118,-237.5"/>
<text text-anchor="middle" x="223.5" y="-348.5" font-family="Helvetica,sans-Serif" font-size="10.00">IRpmSensor</text>
<polyline fill="none" stroke="black" points="118,-341.5 329,-341.5 "/>
<text text-anchor="middle" x="223.5" y="-329.5" font-family="Helvetica,sans-Serif" font-size="10.00"> </text>
<polyline fill="none" stroke="black" points="118,-322.5 329,-322.5 "/>
<text text-anchor="start" x="126" y="-310.5" font-family="Helvetica,sans-Serif" font-size="10.00">+ IRpmSensor()</text>
<text text-anchor="start" x="126" y="-299.5" font-family="Helvetica,sans-Serif" font-size="10.00">+ setMeasurementPointsPerRevolution()</text>
<text text-anchor="start" x="126" y="-288.5" font-family="Helvetica,sans-Serif" font-size="10.00">+ setFrequency()</text>
<text text-anchor="start" x="126" y="-277.5" font-family="Helvetica,sans-Serif" font-size="10.00">+ getMeasurementsPerRevolution()</text>
<text text-anchor="start" x="126" y="-266.5" font-family="Helvetica,sans-Serif" font-size="10.00">+ getFrequency()</text>
<text text-anchor="start" x="126" y="-255.5" font-family="Helvetica,sans-Serif" font-size="10.00">+ getLogValueCount()</text>
<text text-anchor="start" x="126" y="-244.5" font-family="Helvetica,sans-Serif" font-size="10.00">+ getLogValue()</text>
</a>
</g>
</g>
<!-- Node2&#45;&gt;Node1 -->
<g id="edge1" class="edge"><title>Node2&#45;&gt;Node1</title>
<path fill="none" stroke="midnightblue" d="M285.862,-229.907C297.662,-217.023 310.196,-203.337 322.573,-189.823"/>
<polygon fill="none" stroke="midnightblue" points="283.179,-227.655 279.006,-237.393 288.341,-232.383 283.179,-227.655"/>
</g>
<!-- Node3 -->
<g id="node3" class="node"><title>Node3</title>
<g id="a_node3"><a xlink:href="class_self_syncable.html" target="_top" xlink:title="{SelfSyncable\n|# _syncerAttached\l|+ attach()\l+ detach()\l# _sendCommand()\l# _sendCommand()\l# _sendCommand()\l# _send()\l# _convertFloat()\l# _reconvertFloat()\l# _disassambleFloat()\l# _reassambleFloat()\l}">
<polygon fill="white" stroke="black" points="161.5,-408.5 161.5,-564.5 285.5,-564.5 285.5,-408.5 161.5,-408.5"/>
<text text-anchor="middle" x="223.5" y="-552.5" font-family="Helvetica,sans-Serif" font-size="10.00">SelfSyncable</text>
<polyline fill="none" stroke="black" points="161.5,-545.5 285.5,-545.5 "/>
<text text-anchor="start" x="169.5" y="-533.5" font-family="Helvetica,sans-Serif" font-size="10.00"># _syncerAttached</text>
<polyline fill="none" stroke="black" points="161.5,-526.5 285.5,-526.5 "/>
<text text-anchor="start" x="169.5" y="-514.5" font-family="Helvetica,sans-Serif" font-size="10.00">+ attach()</text>
<text text-anchor="start" x="169.5" y="-503.5" font-family="Helvetica,sans-Serif" font-size="10.00">+ detach()</text>
<text text-anchor="start" x="169.5" y="-492.5" font-family="Helvetica,sans-Serif" font-size="10.00"># _sendCommand()</text>
<text text-anchor="start" x="169.5" y="-481.5" font-family="Helvetica,sans-Serif" font-size="10.00"># _sendCommand()</text>
<text text-anchor="start" x="169.5" y="-470.5" font-family="Helvetica,sans-Serif" font-size="10.00"># _sendCommand()</text>
<text text-anchor="start" x="169.5" y="-459.5" font-family="Helvetica,sans-Serif" font-size="10.00"># _send()</text>
<text text-anchor="start" x="169.5" y="-448.5" font-family="Helvetica,sans-Serif" font-size="10.00"># _convertFloat()</text>
<text text-anchor="start" x="169.5" y="-437.5" font-family="Helvetica,sans-Serif" font-size="10.00"># _reconvertFloat()</text>
<text text-anchor="start" x="169.5" y="-426.5" font-family="Helvetica,sans-Serif" font-size="10.00"># _disassambleFloat()</text>
<text text-anchor="start" x="169.5" y="-415.5" font-family="Helvetica,sans-Serif" font-size="10.00"># _reassambleFloat()</text>
</a>
</g>
</g>
<!-- Node3&#45;&gt;Node2 -->
<g id="edge2" class="edge"><title>Node3&#45;&gt;Node2</title>
<path fill="none" stroke="midnightblue" d="M223.5,-398.298C223.5,-385.587 223.5,-372.737 223.5,-360.708"/>
<polygon fill="none" stroke="midnightblue" points="220,-398.443 223.5,-408.443 227,-398.443 220,-398.443"/>
</g>
<!-- Node4 -->
<g id="node4" class="node"><title>Node4</title>
<g id="a_node4"><a xlink:href="class_i_communication.html" target="_top" xlink:title="{ICommunication\n||+ receive()\l}">
<polygon fill="white" stroke="black" points="244,-798.5 244,-855.5 339,-855.5 339,-798.5 244,-798.5"/>
<text text-anchor="middle" x="291.5" y="-843.5" font-family="Helvetica,sans-Serif" font-size="10.00">ICommunication</text>
<polyline fill="none" stroke="black" points="244,-836.5 339,-836.5 "/>
<text text-anchor="middle" x="291.5" y="-824.5" font-family="Helvetica,sans-Serif" font-size="10.00"> </text>
<polyline fill="none" stroke="black" points="244,-817.5 339,-817.5 "/>
<text text-anchor="start" x="252" y="-805.5" font-family="Helvetica,sans-Serif" font-size="10.00">+ receive()</text>
</a>
</g>
</g>
<!-- Node4&#45;&gt;Node3 -->
<g id="edge3" class="edge"><title>Node4&#45;&gt;Node3</title>
<path fill="none" stroke="midnightblue" d="M293.466,-788.063C294.791,-739.268 293.039,-652.527 269.5,-583 267.464,-576.986 265.141,-570.859 262.646,-564.758"/>
<polygon fill="none" stroke="midnightblue" points="289.965,-788.059 293.132,-798.17 296.961,-788.291 289.965,-788.059"/>
</g>
<!-- Node5 -->
<g id="node5" class="node"><title>Node5</title>
<g id="a_node5"><a xlink:href="class_i_component.html" target="_top" xlink:title="{IComponent\n||+ IComponent()\l+ IComponent()\l+ setComponentSubId()\l+ getComponentType()\l+ getComponentSubId()\l+ getComponentId()\l+ getObjectType()\l# setComponentType()\l# setObjectType()\l}">
<polygon fill="white" stroke="black" points="190.5,-1079.5 190.5,-1224.5 324.5,-1224.5 324.5,-1079.5 190.5,-1079.5"/>
<text text-anchor="middle" x="257.5" y="-1212.5" font-family="Helvetica,sans-Serif" font-size="10.00">IComponent</text>
<polyline fill="none" stroke="black" points="190.5,-1205.5 324.5,-1205.5 "/>
<text text-anchor="middle" x="257.5" y="-1193.5" font-family="Helvetica,sans-Serif" font-size="10.00"> </text>
<polyline fill="none" stroke="black" points="190.5,-1186.5 324.5,-1186.5 "/>
<text text-anchor="start" x="198.5" y="-1174.5" font-family="Helvetica,sans-Serif" font-size="10.00">+ IComponent()</text>
<text text-anchor="start" x="198.5" y="-1163.5" font-family="Helvetica,sans-Serif" font-size="10.00">+ IComponent()</text>
<text text-anchor="start" x="198.5" y="-1152.5" font-family="Helvetica,sans-Serif" font-size="10.00">+ setComponentSubId()</text>
<text text-anchor="start" x="198.5" y="-1141.5" font-family="Helvetica,sans-Serif" font-size="10.00">+ getComponentType()</text>
<text text-anchor="start" x="198.5" y="-1130.5" font-family="Helvetica,sans-Serif" font-size="10.00">+ getComponentSubId()</text>
<text text-anchor="start" x="198.5" y="-1119.5" font-family="Helvetica,sans-Serif" font-size="10.00">+ getComponentId()</text>
<text text-anchor="start" x="198.5" y="-1108.5" font-family="Helvetica,sans-Serif" font-size="10.00">+ getObjectType()</text>
<text text-anchor="start" x="198.5" y="-1097.5" font-family="Helvetica,sans-Serif" font-size="10.00"># setComponentType()</text>
<text text-anchor="start" x="198.5" y="-1086.5" font-family="Helvetica,sans-Serif" font-size="10.00"># setObjectType()</text>
</a>
</g>
</g>
<!-- Node5&#45;&gt;Node4 -->
<g id="edge4" class="edge"><title>Node5&#45;&gt;Node4</title>
<path fill="none" stroke="midnightblue" d="M266.111,-1069.2C273.473,-999.259 283.636,-902.706 288.573,-855.805"/>
<polygon fill="none" stroke="midnightblue" points="262.612,-1069 265.046,-1079.32 269.573,-1069.74 262.612,-1069"/>
</g>
<!-- Node9 -->
<g id="node9" class="node"><title>Node9</title>
<g id="a_node9"><a xlink:href="class_i_runable.html" target="_top" xlink:title="{IRunable\n||+ IRunable()\l+ run()\l+ setStatus()\l+ getStatus()\l}">
<polygon fill="white" stroke="black" points="174,-913 174,-1003 257,-1003 257,-913 174,-913"/>
<text text-anchor="middle" x="215.5" y="-991" font-family="Helvetica,sans-Serif" font-size="10.00">IRunable</text>
<polyline fill="none" stroke="black" points="174,-984 257,-984 "/>
<text text-anchor="middle" x="215.5" y="-972" font-family="Helvetica,sans-Serif" font-size="10.00"> </text>
<polyline fill="none" stroke="black" points="174,-965 257,-965 "/>
<text text-anchor="start" x="182" y="-953" font-family="Helvetica,sans-Serif" font-size="10.00">+ IRunable()</text>
<text text-anchor="start" x="182" y="-942" font-family="Helvetica,sans-Serif" font-size="10.00">+ run()</text>
<text text-anchor="start" x="182" y="-931" font-family="Helvetica,sans-Serif" font-size="10.00">+ setStatus()</text>
<text text-anchor="start" x="182" y="-920" font-family="Helvetica,sans-Serif" font-size="10.00">+ getStatus()</text>
</a>
</g>
</g>
<!-- Node5&#45;&gt;Node9 -->
<g id="edge9" class="edge"><title>Node5&#45;&gt;Node9</title>
<path fill="none" stroke="midnightblue" d="M239.615,-1069.24C234.649,-1046.54 229.445,-1022.75 225.147,-1003.1"/>
<polygon fill="none" stroke="midnightblue" points="236.245,-1070.21 241.801,-1079.23 243.083,-1068.72 236.245,-1070.21"/>
</g>
<!-- Node6 -->
<g id="node6" class="node"><title>Node6</title>
<g id="a_node6"><a xlink:href="class_i_logable.html" target="_top" xlink:title="{ILogable\n||+ setStatus()\l+ getStatus()\l+ getLogValueCount()\l+ getLogValue()\l}">
<polygon fill="white" stroke="black" points="196,-1262.5 196,-1352.5 319,-1352.5 319,-1262.5 196,-1262.5"/>
<text text-anchor="middle" x="257.5" y="-1340.5" font-family="Helvetica,sans-Serif" font-size="10.00">ILogable</text>
<polyline fill="none" stroke="black" points="196,-1333.5 319,-1333.5 "/>
<text text-anchor="middle" x="257.5" y="-1321.5" font-family="Helvetica,sans-Serif" font-size="10.00"> </text>
<polyline fill="none" stroke="black" points="196,-1314.5 319,-1314.5 "/>
<text text-anchor="start" x="204" y="-1302.5" font-family="Helvetica,sans-Serif" font-size="10.00">+ setStatus()</text>
<text text-anchor="start" x="204" y="-1291.5" font-family="Helvetica,sans-Serif" font-size="10.00">+ getStatus()</text>
<text text-anchor="start" x="204" y="-1280.5" font-family="Helvetica,sans-Serif" font-size="10.00">+ getLogValueCount()</text>
<text text-anchor="start" x="204" y="-1269.5" font-family="Helvetica,sans-Serif" font-size="10.00">+ getLogValue()</text>
</a>
</g>
</g>
<!-- Node6&#45;&gt;Node5 -->
<g id="edge5" class="edge"><title>Node6&#45;&gt;Node5</title>
<path fill="none" stroke="midnightblue" d="M257.5,-1251.98C257.5,-1243.16 257.5,-1233.92 257.5,-1224.77"/>
<polygon fill="none" stroke="midnightblue" points="254,-1252.1 257.5,-1262.1 261,-1252.1 254,-1252.1"/>
</g>
<!-- Node7 -->
<g id="node7" class="node"><title>Node7</title>
<g id="a_node7"><a xlink:href="class_non_copyable.html" target="_top" xlink:title="{NonCopyable\&lt; ILogable \&gt;\n||+ NonCopyable()\l}">
<polygon fill="white" stroke="black" points="186,-1390.5 186,-1447.5 329,-1447.5 329,-1390.5 186,-1390.5"/>
<text text-anchor="middle" x="257.5" y="-1435.5" font-family="Helvetica,sans-Serif" font-size="10.00">NonCopyable&lt; ILogable &gt;</text>
<polyline fill="none" stroke="black" points="186,-1428.5 329,-1428.5 "/>
<text text-anchor="middle" x="257.5" y="-1416.5" font-family="Helvetica,sans-Serif" font-size="10.00"> </text>
<polyline fill="none" stroke="black" points="186,-1409.5 329,-1409.5 "/>
<text text-anchor="start" x="194" y="-1397.5" font-family="Helvetica,sans-Serif" font-size="10.00">+ NonCopyable()</text>
</a>
</g>
</g>
<!-- Node7&#45;&gt;Node6 -->
<g id="edge6" class="edge"><title>Node7&#45;&gt;Node6</title>
<path fill="none" stroke="#8b1a1a" d="M257.5,-1380.31C257.5,-1371.43 257.5,-1361.88 257.5,-1352.74"/>
<polygon fill="none" stroke="#8b1a1a" points="254,-1380.37 257.5,-1390.37 261,-1380.37 254,-1380.37"/>
</g>
<!-- Node8 -->
<g id="node8" class="node"><title>Node8</title>
<g id="a_node8"><a xlink:href="class_sync.html" target="_top" xlink:title="{Sync\n||+ Sync()\l+ addComponent()\l+ addBridge()\l+ receive()\l+ send()\l+ run()\l+ messageInQueue()\l+ finalize()\l+ Sync()\l+ receive()\land 7 more...\l}">
<polygon fill="white" stroke="black" points="148,-612.5 148,-779.5 267,-779.5 267,-612.5 148,-612.5"/>
<text text-anchor="middle" x="207.5" y="-767.5" font-family="Helvetica,sans-Serif" font-size="10.00">Sync</text>
<polyline fill="none" stroke="black" points="148,-760.5 267,-760.5 "/>
<text text-anchor="middle" x="207.5" y="-748.5" font-family="Helvetica,sans-Serif" font-size="10.00"> </text>
<polyline fill="none" stroke="black" points="148,-741.5 267,-741.5 "/>
<text text-anchor="start" x="156" y="-729.5" font-family="Helvetica,sans-Serif" font-size="10.00">+ Sync()</text>
<text text-anchor="start" x="156" y="-718.5" font-family="Helvetica,sans-Serif" font-size="10.00">+ addComponent()</text>
<text text-anchor="start" x="156" y="-707.5" font-family="Helvetica,sans-Serif" font-size="10.00">+ addBridge()</text>
<text text-anchor="start" x="156" y="-696.5" font-family="Helvetica,sans-Serif" font-size="10.00">+ receive()</text>
<text text-anchor="start" x="156" y="-685.5" font-family="Helvetica,sans-Serif" font-size="10.00">+ send()</text>
<text text-anchor="start" x="156" y="-674.5" font-family="Helvetica,sans-Serif" font-size="10.00">+ run()</text>
<text text-anchor="start" x="156" y="-663.5" font-family="Helvetica,sans-Serif" font-size="10.00">+ messageInQueue()</text>
<text text-anchor="start" x="156" y="-652.5" font-family="Helvetica,sans-Serif" font-size="10.00">+ finalize()</text>
<text text-anchor="start" x="156" y="-641.5" font-family="Helvetica,sans-Serif" font-size="10.00">+ Sync()</text>
<text text-anchor="start" x="156" y="-630.5" font-family="Helvetica,sans-Serif" font-size="10.00">+ receive()</text>
<text text-anchor="start" x="156" y="-619.5" font-family="Helvetica,sans-Serif" font-size="10.00">and 7 more...</text>
</a>
</g>
</g>
<!-- Node8&#45;&gt;Node3 -->
<g id="edge7" class="edge"><title>Node8&#45;&gt;Node3</title>
<path fill="none" stroke="#404040" d="M213.87,-612.394C214.769,-600.735 215.696,-588.703 216.605,-576.923"/>
<polygon fill="none" stroke="#404040" points="216.62,-576.729 213.093,-570.439 217.542,-564.764 221.069,-571.054 216.62,-576.729"/>
<text text-anchor="middle" x="241" y="-586" font-family="Helvetica,sans-Serif" font-size="10.00"> #_syncer</text>
</g>
<!-- Node9&#45;&gt;Node8 -->
<g id="edge8" class="edge"><title>Node9&#45;&gt;Node8</title>
<path fill="none" stroke="midnightblue" d="M208.223,-902.718C205.908,-867.146 204.213,-819.965 203.709,-779.76"/>
<polygon fill="none" stroke="midnightblue" points="204.745,-903.16 208.926,-912.895 211.728,-902.677 204.745,-903.16"/>
</g>
<!-- Node9&#45;&gt;Node8 -->
<g id="edge10" class="edge"><title>Node9&#45;&gt;Node8</title>
<path fill="none" stroke="midnightblue" d="M219.437,-902.718C219.562,-867.146 218.354,-819.965 216.384,-779.76"/>
<polygon fill="none" stroke="midnightblue" points="215.935,-902.868 219.36,-912.895 222.935,-902.921 215.935,-902.868"/>
</g>
<!-- Node10 -->
<g id="node10" class="node"><title>Node10</title>
<g id="a_node10"><a xlink:href="classstd_1_1vector.html" target="_top" xlink:title="{std::vector\&lt; CarMessage \&gt;\n||+ ~vector()\l+ at()\l+ operator[]()\l+ front()\l+ back()\l+ data()\l+ begin()\l+ end()\l+ empty()\l+ size()\land 7 more...\l}">
<polygon fill="white" stroke="black" points="0,-874.5 0,-1041.5 149,-1041.5 149,-874.5 0,-874.5"/>
<text text-anchor="middle" x="74.5" y="-1029.5" font-family="Helvetica,sans-Serif" font-size="10.00">std::vector&lt; CarMessage &gt;</text>
<polyline fill="none" stroke="black" points="0,-1022.5 149,-1022.5 "/>
<text text-anchor="middle" x="74.5" y="-1010.5" font-family="Helvetica,sans-Serif" font-size="10.00"> </text>
<polyline fill="none" stroke="black" points="0,-1003.5 149,-1003.5 "/>
<text text-anchor="start" x="8" y="-991.5" font-family="Helvetica,sans-Serif" font-size="10.00">+ ~vector()</text>
<text text-anchor="start" x="8" y="-980.5" font-family="Helvetica,sans-Serif" font-size="10.00">+ at()</text>
<text text-anchor="start" x="8" y="-969.5" font-family="Helvetica,sans-Serif" font-size="10.00">+ operator[]()</text>
<text text-anchor="start" x="8" y="-958.5" font-family="Helvetica,sans-Serif" font-size="10.00">+ front()</text>
<text text-anchor="start" x="8" y="-947.5" font-family="Helvetica,sans-Serif" font-size="10.00">+ back()</text>
<text text-anchor="start" x="8" y="-936.5" font-family="Helvetica,sans-Serif" font-size="10.00">+ data()</text>
<text text-anchor="start" x="8" y="-925.5" font-family="Helvetica,sans-Serif" font-size="10.00">+ begin()</text>
<text text-anchor="start" x="8" y="-914.5" font-family="Helvetica,sans-Serif" font-size="10.00">+ end()</text>
<text text-anchor="start" x="8" y="-903.5" font-family="Helvetica,sans-Serif" font-size="10.00">+ empty()</text>
<text text-anchor="start" x="8" y="-892.5" font-family="Helvetica,sans-Serif" font-size="10.00">+ size()</text>
<text text-anchor="start" x="8" y="-881.5" font-family="Helvetica,sans-Serif" font-size="10.00">and 7 more...</text>
</a>
</g>
</g>
<!-- Node10&#45;&gt;Node8 -->
<g id="edge11" class="edge"><title>Node10&#45;&gt;Node8</title>
<path fill="none" stroke="#404040" d="M71.1595,-874.366C73.1165,-848.722 78.4694,-821.138 90.5,-798 101.778,-776.309 119.848,-757.265 138.446,-741.731"/>
<polygon fill="none" stroke="#404040" points="138.525,-741.668 140.704,-734.794 147.888,-734.162 145.708,-741.036 138.525,-741.668"/>
<text text-anchor="middle" x="149" y="-824.5" font-family="Helvetica,sans-Serif" font-size="10.00"> +receivedCarMessages</text>
</g>
<!-- Node11 -->
<g id="node11" class="node"><title>Node11</title>
<g id="a_node11"><a xlink:href="class_non_copyable.html" target="_top" xlink:title="{NonCopyable\&lt; vector\l\&lt; CarMessage, unsigned\l int \&gt; \&gt;\n||+ NonCopyable()\l}">
<polygon fill="white" stroke="black" points="6,-1112.5 6,-1191.5 143,-1191.5 143,-1112.5 6,-1112.5"/>
<text text-anchor="start" x="14" y="-1179.5" font-family="Helvetica,sans-Serif" font-size="10.00">NonCopyable&lt; vector</text>
<text text-anchor="start" x="14" y="-1168.5" font-family="Helvetica,sans-Serif" font-size="10.00">&lt; CarMessage, unsigned</text>
<text text-anchor="middle" x="74.5" y="-1157.5" font-family="Helvetica,sans-Serif" font-size="10.00"> int &gt; &gt;</text>
<polyline fill="none" stroke="black" points="6,-1150.5 143,-1150.5 "/>
<text text-anchor="middle" x="74.5" y="-1138.5" font-family="Helvetica,sans-Serif" font-size="10.00"> </text>
<polyline fill="none" stroke="black" points="6,-1131.5 143,-1131.5 "/>
<text text-anchor="start" x="14" y="-1119.5" font-family="Helvetica,sans-Serif" font-size="10.00">+ NonCopyable()</text>
</a>
</g>
</g>
<!-- Node11&#45;&gt;Node10 -->
<g id="edge12" class="edge"><title>Node11&#45;&gt;Node10</title>
<path fill="none" stroke="#8b1a1a" d="M74.5,-1102.02C74.5,-1083.7 74.5,-1062.34 74.5,-1041.81"/>
<polygon fill="none" stroke="#8b1a1a" points="71.0001,-1102.15 74.5,-1112.15 78.0001,-1102.15 71.0001,-1102.15"/>
</g>
<!-- Node12 -->
<g id="node12" class="node"><title>Node12</title>
<g id="a_node12"><a xlink:href="class_ticker.html" target="_top" xlink:title="{Ticker\n||+ Ticker()\l+ ~Ticker()\l+ attach()\l+ detach()\l+ call()\l}">
<polygon fill="white" stroke="black" points="473,-436 473,-537 544,-537 544,-436 473,-436"/>
<text text-anchor="middle" x="508.5" y="-525" font-family="Helvetica,sans-Serif" font-size="10.00">Ticker</text>
<polyline fill="none" stroke="black" points="473,-518 544,-518 "/>
<text text-anchor="middle" x="508.5" y="-506" font-family="Helvetica,sans-Serif" font-size="10.00"> </text>
<polyline fill="none" stroke="black" points="473,-499 544,-499 "/>
<text text-anchor="start" x="481" y="-487" font-family="Helvetica,sans-Serif" font-size="10.00">+ Ticker()</text>
<text text-anchor="start" x="481" y="-476" font-family="Helvetica,sans-Serif" font-size="10.00">+ ~Ticker()</text>
<text text-anchor="start" x="481" y="-465" font-family="Helvetica,sans-Serif" font-size="10.00">+ attach()</text>
<text text-anchor="start" x="481" y="-454" font-family="Helvetica,sans-Serif" font-size="10.00">+ detach()</text>
<text text-anchor="start" x="481" y="-443" font-family="Helvetica,sans-Serif" font-size="10.00">+ call()</text>
</a>
</g>
</g>
<!-- Node12&#45;&gt;Node1 -->
<g id="edge13" class="edge"><title>Node12&#45;&gt;Node1</title>
<path fill="none" stroke="#404040" d="M514.665,-435.869C519.795,-378.942 522.363,-283.715 494.5,-208 493.571,-205.476 492.564,-202.963 491.487,-200.465"/>
<polygon fill="none" stroke="#404040" points="491.484,-200.457 485.299,-196.748 486.344,-189.613 492.529,-193.322 491.484,-200.457"/>
<text text-anchor="middle" x="573.5" y="-296.5" font-family="Helvetica,sans-Serif" font-size="10.00"> #_updateValuesTicker</text>
</g>
<!-- Node16 -->
<g id="node16" class="node"><title>Node16</title>
<g id="a_node16"><a xlink:href="struct_hardware_rpm_sensor_1_1__measurement.html" target="_top" xlink:title="{HardwareRpmSensor::\l_measurement\n|+ pointsPerRevolution\l+ started\l+ zero\l+ buffer\l+ bufferSize\l|}">
<polygon fill="white" stroke="black" points="347.5,-243 347.5,-355 471.5,-355 471.5,-243 347.5,-243"/>
<text text-anchor="start" x="355.5" y="-343" font-family="Helvetica,sans-Serif" font-size="10.00">HardwareRpmSensor::</text>
<text text-anchor="middle" x="409.5" y="-332" font-family="Helvetica,sans-Serif" font-size="10.00">_measurement</text>
<polyline fill="none" stroke="black" points="347.5,-325 471.5,-325 "/>
<text text-anchor="start" x="355.5" y="-313" font-family="Helvetica,sans-Serif" font-size="10.00">+ pointsPerRevolution</text>
<text text-anchor="start" x="355.5" y="-302" font-family="Helvetica,sans-Serif" font-size="10.00">+ started</text>
<text text-anchor="start" x="355.5" y="-291" font-family="Helvetica,sans-Serif" font-size="10.00">+ zero</text>
<text text-anchor="start" x="355.5" y="-280" font-family="Helvetica,sans-Serif" font-size="10.00">+ buffer</text>
<text text-anchor="start" x="355.5" y="-269" font-family="Helvetica,sans-Serif" font-size="10.00">+ bufferSize</text>
<polyline fill="none" stroke="black" points="347.5,-262 471.5,-262 "/>
<text text-anchor="middle" x="409.5" y="-250" font-family="Helvetica,sans-Serif" font-size="10.00"> </text>
</a>
</g>
</g>
<!-- Node12&#45;&gt;Node16 -->
<g id="edge18" class="edge"><title>Node12&#45;&gt;Node16</title>
<path fill="none" stroke="#404040" d="M472.792,-437.804C462.565,-422.941 451.918,-406.193 443.5,-390 439.625,-382.546 435.96,-374.547 432.573,-366.505"/>
<polygon fill="none" stroke="#404040" points="432.482,-366.28 426.521,-362.221 427.975,-355.158 433.936,-359.217 432.482,-366.28"/>
<text text-anchor="middle" x="469" y="-382" font-family="Helvetica,sans-Serif" font-size="10.00"> +timeOut</text>
</g>
<!-- Node13 -->
<g id="node13" class="node"><title>Node13</title>
<g id="a_node13"><a xlink:href="class_scheduled_callable.html" target="_top" xlink:title="{ScheduledCallable\n||+ ScheduledCallable()\l+ ScheduledCallable()\l+ getSleepingSince()\l+ setSleeptime()\l+ getSleepTime()\l+ resetSleepTimer()\l}">
<polygon fill="white" stroke="black" points="450,-640 450,-752 573,-752 573,-640 450,-640"/>
<text text-anchor="middle" x="511.5" y="-740" font-family="Helvetica,sans-Serif" font-size="10.00">ScheduledCallable</text>
<polyline fill="none" stroke="black" points="450,-733 573,-733 "/>
<text text-anchor="middle" x="511.5" y="-721" font-family="Helvetica,sans-Serif" font-size="10.00"> </text>
<polyline fill="none" stroke="black" points="450,-714 573,-714 "/>
<text text-anchor="start" x="458" y="-702" font-family="Helvetica,sans-Serif" font-size="10.00">+ ScheduledCallable()</text>
<text text-anchor="start" x="458" y="-691" font-family="Helvetica,sans-Serif" font-size="10.00">+ ScheduledCallable()</text>
<text text-anchor="start" x="458" y="-680" font-family="Helvetica,sans-Serif" font-size="10.00">+ getSleepingSince()</text>
<text text-anchor="start" x="458" y="-669" font-family="Helvetica,sans-Serif" font-size="10.00">+ setSleeptime()</text>
<text text-anchor="start" x="458" y="-658" font-family="Helvetica,sans-Serif" font-size="10.00">+ getSleepTime()</text>
<text text-anchor="start" x="458" y="-647" font-family="Helvetica,sans-Serif" font-size="10.00">+ resetSleepTimer()</text>
</a>
</g>
</g>
<!-- Node13&#45;&gt;Node12 -->
<g id="edge14" class="edge"><title>Node13&#45;&gt;Node12</title>
<path fill="none" stroke="midnightblue" d="M510.554,-629.588C510.122,-599.685 509.618,-564.838 509.218,-537.138"/>
<polygon fill="none" stroke="midnightblue" points="507.06,-629.99 510.704,-639.939 514.059,-629.889 507.06,-629.99"/>
</g>
<!-- Node14 -->
<g id="node14" class="node"><title>Node14</title>
<g id="a_node14"><a xlink:href="class_i_callable.html" target="_top" xlink:title="{ICallable\n||+ call()\l}">
<polygon fill="white" stroke="black" points="483.5,-929.5 483.5,-986.5 539.5,-986.5 539.5,-929.5 483.5,-929.5"/>
<text text-anchor="middle" x="511.5" y="-974.5" font-family="Helvetica,sans-Serif" font-size="10.00">ICallable</text>
<polyline fill="none" stroke="black" points="483.5,-967.5 539.5,-967.5 "/>
<text text-anchor="middle" x="511.5" y="-955.5" font-family="Helvetica,sans-Serif" font-size="10.00"> </text>
<polyline fill="none" stroke="black" points="483.5,-948.5 539.5,-948.5 "/>
<text text-anchor="start" x="491.5" y="-936.5" font-family="Helvetica,sans-Serif" font-size="10.00">+ call()</text>
</a>
</g>
</g>
<!-- Node14&#45;&gt;Node13 -->
<g id="edge15" class="edge"><title>Node14&#45;&gt;Node13</title>
<path fill="none" stroke="midnightblue" d="M511.5,-918.907C511.5,-874.907 511.5,-802.155 511.5,-752.015"/>
<polygon fill="none" stroke="midnightblue" points="508,-919.175 511.5,-929.175 515,-919.175 508,-919.175"/>
</g>
<!-- Node15 -->
<g id="node15" class="node"><title>Node15</title>
<g id="a_node15"><a xlink:href="class_non_copyable.html" target="_top" xlink:title="{NonCopyable\&lt; ICallable \&gt;\n||+ NonCopyable()\l}">
<polygon fill="white" stroke="black" points="440,-1123.5 440,-1180.5 583,-1180.5 583,-1123.5 440,-1123.5"/>
<text text-anchor="middle" x="511.5" y="-1168.5" font-family="Helvetica,sans-Serif" font-size="10.00">NonCopyable&lt; ICallable &gt;</text>
<polyline fill="none" stroke="black" points="440,-1161.5 583,-1161.5 "/>
<text text-anchor="middle" x="511.5" y="-1149.5" font-family="Helvetica,sans-Serif" font-size="10.00"> </text>
<polyline fill="none" stroke="black" points="440,-1142.5 583,-1142.5 "/>
<text text-anchor="start" x="448" y="-1130.5" font-family="Helvetica,sans-Serif" font-size="10.00">+ NonCopyable()</text>
</a>
</g>
</g>
<!-- Node15&#45;&gt;Node14 -->
<g id="edge16" class="edge"><title>Node15&#45;&gt;Node14</title>
<path fill="none" stroke="#8b1a1a" d="M511.5,-1113.06C511.5,-1075.85 511.5,-1020.01 511.5,-986.769"/>
<polygon fill="none" stroke="#8b1a1a" points="508,-1113.49 511.5,-1123.49 515,-1113.49 508,-1113.49"/>
</g>
<!-- Node16&#45;&gt;Node1 -->
<g id="edge17" class="edge"><title>Node16&#45;&gt;Node1</title>
<path fill="none" stroke="#404040" d="M409.227,-242.803C409.164,-230.064 409.095,-216.091 409.025,-201.989"/>
<polygon fill="none" stroke="#404040" points="409.023,-201.59 404.993,-195.61 408.963,-189.59 412.993,-195.57 409.023,-201.59"/>
<text text-anchor="middle" x="452" y="-211" font-family="Helvetica,sans-Serif" font-size="10.00"> #_measurement</text>
</g>
<!-- Node17 -->
<g id="node17" class="node"><title>Node17</title>
<g id="a_node17"><a xlink:href="class_timer.html" target="_top" xlink:title="{Timer\n||}">
<polygon fill="white" stroke="black" points="359.5,-458 359.5,-515 403.5,-515 403.5,-458 359.5,-458"/>
<text text-anchor="middle" x="381.5" y="-503" font-family="Helvetica,sans-Serif" font-size="10.00">Timer</text>
<polyline fill="none" stroke="black" points="359.5,-496 403.5,-496 "/>
<text text-anchor="middle" x="381.5" y="-484" font-family="Helvetica,sans-Serif" font-size="10.00"> </text>
<polyline fill="none" stroke="black" points="359.5,-477 403.5,-477 "/>
<text text-anchor="middle" x="381.5" y="-465" font-family="Helvetica,sans-Serif" font-size="10.00"> </text>
</a>
</g>
</g>
<!-- Node17&#45;&gt;Node16 -->
<g id="edge19" class="edge"><title>Node17&#45;&gt;Node16</title>
<path fill="none" stroke="#404040" d="M379.768,-457.706C378.962,-436.091 379.007,-405.435 383.5,-379 384.165,-375.085 384.988,-371.1 385.926,-367.105"/>
<polygon fill="none" stroke="#404040" points="386.016,-366.759 383.66,-359.944 389.046,-355.148 391.401,-361.964 386.016,-366.759"/>
<text text-anchor="middle" x="402" y="-382" font-family="Helvetica,sans-Serif" font-size="10.00"> +timer</text>
</g>
<!-- Node18 -->
<g id="node18" class="node"><title>Node18</title>
<g id="a_node18"><a xlink:href="class_i_timer.html" target="_top" xlink:title="{ITimer\n||+ ITimer()\l+ start()\l+ stop()\l+ reset()\l+ read()\l+ read_ms()\l+ operator float()\l# getMillis()\l}">
<polygon fill="white" stroke="black" points="331,-629 331,-763 432,-763 432,-629 331,-629"/>
<text text-anchor="middle" x="381.5" y="-751" font-family="Helvetica,sans-Serif" font-size="10.00">ITimer</text>
<polyline fill="none" stroke="black" points="331,-744 432,-744 "/>
<text text-anchor="middle" x="381.5" y="-732" font-family="Helvetica,sans-Serif" font-size="10.00"> </text>
<polyline fill="none" stroke="black" points="331,-725 432,-725 "/>
<text text-anchor="start" x="339" y="-713" font-family="Helvetica,sans-Serif" font-size="10.00">+ ITimer()</text>
<text text-anchor="start" x="339" y="-702" font-family="Helvetica,sans-Serif" font-size="10.00">+ start()</text>
<text text-anchor="start" x="339" y="-691" font-family="Helvetica,sans-Serif" font-size="10.00">+ stop()</text>
<text text-anchor="start" x="339" y="-680" font-family="Helvetica,sans-Serif" font-size="10.00">+ reset()</text>
<text text-anchor="start" x="339" y="-669" font-family="Helvetica,sans-Serif" font-size="10.00">+ read()</text>
<text text-anchor="start" x="339" y="-658" font-family="Helvetica,sans-Serif" font-size="10.00">+ read_ms()</text>
<text text-anchor="start" x="339" y="-647" font-family="Helvetica,sans-Serif" font-size="10.00">+ operator float()</text>
<text text-anchor="start" x="339" y="-636" font-family="Helvetica,sans-Serif" font-size="10.00"># getMillis()</text>
</a>
</g>
</g>
<!-- Node18&#45;&gt;Node17 -->
<g id="edge20" class="edge"><title>Node18&#45;&gt;Node17</title>
<path fill="none" stroke="midnightblue" d="M374.965,-618.708C374.386,-582.507 374.977,-541.5 376.736,-515.111"/>
<polygon fill="none" stroke="midnightblue" points="371.467,-618.845 375.159,-628.775 378.465,-618.71 371.467,-618.845"/>
</g>
<!-- Node18&#45;&gt;Node17 -->
<g id="edge22" class="edge"><title>Node18&#45;&gt;Node17</title>
<path fill="none" stroke="midnightblue" d="M388.035,-618.708C388.614,-582.507 388.023,-541.5 386.264,-515.111"/>
<polygon fill="none" stroke="midnightblue" points="384.535,-618.71 387.841,-628.775 391.533,-618.845 384.535,-618.71"/>
</g>
<!-- Node19 -->
<g id="node19" class="node"><title>Node19</title>
<g id="a_node19"><a xlink:href="class_non_copyable.html" target="_top" xlink:title="{NonCopyable\&lt; ITimer \&gt;\n||+ NonCopyable()\l}">
<polygon fill="white" stroke="black" points="315.5,-929.5 315.5,-986.5 447.5,-986.5 447.5,-929.5 315.5,-929.5"/>
<text text-anchor="middle" x="381.5" y="-974.5" font-family="Helvetica,sans-Serif" font-size="10.00">NonCopyable&lt; ITimer &gt;</text>
<polyline fill="none" stroke="black" points="315.5,-967.5 447.5,-967.5 "/>
<text text-anchor="middle" x="381.5" y="-955.5" font-family="Helvetica,sans-Serif" font-size="10.00"> </text>
<polyline fill="none" stroke="black" points="315.5,-948.5 447.5,-948.5 "/>
<text text-anchor="start" x="323.5" y="-936.5" font-family="Helvetica,sans-Serif" font-size="10.00">+ NonCopyable()</text>
</a>
</g>
</g>
<!-- Node19&#45;&gt;Node18 -->
<g id="edge21" class="edge"><title>Node19&#45;&gt;Node18</title>
<path fill="none" stroke="#8b1a1a" d="M381.5,-919.114C381.5,-878.314 381.5,-812.62 381.5,-763.24"/>
<polygon fill="none" stroke="#8b1a1a" points="378,-919.175 381.5,-929.175 385,-919.175 378,-919.175"/>
</g>
</g>
</svg>
