<?xml version="1.0" encoding="UTF-8" standalone="no"?>
<!DOCTYPE svg PUBLIC "-//W3C//DTD SVG 1.1//EN"
 "http://www.w3.org/Graphics/SVG/1.1/DTD/svg11.dtd">
<!-- Generated by graphviz version 2.38.0 (20140413.2041)
 -->
<!-- Title: IProgram Pages: 1 -->
<!--zoomable 976 -->
<svg id="main" version="1.1" xmlns="http://www.w3.org/2000/svg" xmlns:xlink="http://www.w3.org/1999/xlink" xml:space="preserve" onload="init(evt)">
<style type="text/css"><![CDATA[
.edge:hover path { stroke: red; }
.edge:hover polygon { stroke: red; fill: red; }
]]></style>
<script type="text/javascript"><![CDATA[
var edges = document.getElementsByTagName('g');
if (edges && edges.length) {
  for (var i=0;i<edges.length;i++) {
    if (edges[i].id.substr(0,4)=='edge') {
      edges[i].setAttribute('class','edge');
    }
  }
}
]]></script>
        <defs>
                <circle id="rim" cx="0" cy="0" r="7"/>
                <circle id="rim2" cx="0" cy="0" r="3.5"/>
                <g id="zoomPlus">
                        <use xlink:href="#rim" fill="#404040">
                                <set attributeName="fill" to="#808080" begin="zoomplus.mouseover" end="zoomplus.mouseout"/>
                        </use>
                        <path d="M-4,0h8M0,-4v8" fill="none" stroke="white" stroke-width="1.5" pointer-events="none"/>
                </g>
                <g id="zoomMin">
                        <use xlink:href="#rim" fill="#404040">
                                <set attributeName="fill" to="#808080" begin="zoomminus.mouseover" end="zoomminus.mouseout"/>
                        </use>
                        <path d="M-4,0h8" fill="none" stroke="white" stroke-width="1.5" pointer-events="none"/>
                </g>
                <g id="dirArrow">
                        <path fill="none" stroke="white" stroke-width="1.5" d="M0,-3.0v7 M-2.5,-0.5L0,-3.0L2.5,-0.5"/>
                </g>
               <g id="resetDef">
                       <use xlink:href="#rim2" fill="#404040">
                               <set attributeName="fill" to="#808080" begin="reset.mouseover" end="reset.mouseout"/>
                       </use>
               </g>
        </defs>

<script type="text/javascript">
var viewWidth = 690;
var viewHeight = 976;
var sectionId = 'dynsection-0';
</script>
<script xlink:href="svgpan.js"/>
<svg id="graph" class="graph">
<g id="viewport">
<title>IProgram</title>
<polygon fill="white" stroke="none" points="-4,4 -4,-972 685.5,-972 685.5,4 -4,4"/>
<!-- Node1 -->
<g id="node1" class="node"><title>Node1</title>
<polygon fill="#bfbfbf" stroke="black" points="271,-380.5 271,-437.5 331,-437.5 331,-380.5 271,-380.5"/>
<text text-anchor="middle" x="301" y="-425.5" font-family="Helvetica,sans-Serif" font-size="10.00">IProgram</text>
<polyline fill="none" stroke="black" points="271,-418.5 331,-418.5 "/>
<text text-anchor="middle" x="301" y="-406.5" font-family="Helvetica,sans-Serif" font-size="10.00"> </text>
<polyline fill="none" stroke="black" points="271,-399.5 331,-399.5 "/>
<text text-anchor="middle" x="301" y="-387.5" font-family="Helvetica,sans-Serif" font-size="10.00"> </text>
</g>
<!-- Node6 -->
<g id="node6" class="node"><title>Node6</title>
<g id="a_node6"><a xlink:href="class_p_brake_light.html" target="_top" xlink:title="{PBrakeLight\n|# _registry\l# _brakePedal\l# _brakeLight\l|+ PBrakeLight()\l+ run()\l}">
<polygon fill="white" stroke="black" points="0,-127 0,-217 92,-217 92,-127 0,-127"/>
<text text-anchor="middle" x="46" y="-205" font-family="Helvetica,sans-Serif" font-size="10.00">PBrakeLight</text>
<polyline fill="none" stroke="black" points="0,-198 92,-198 "/>
<text text-anchor="start" x="8" y="-186" font-family="Helvetica,sans-Serif" font-size="10.00"># _registry</text>
<text text-anchor="start" x="8" y="-175" font-family="Helvetica,sans-Serif" font-size="10.00"># _brakePedal</text>
<text text-anchor="start" x="8" y="-164" font-family="Helvetica,sans-Serif" font-size="10.00"># _brakeLight</text>
<polyline fill="none" stroke="black" points="0,-157 92,-157 "/>
<text text-anchor="start" x="8" y="-145" font-family="Helvetica,sans-Serif" font-size="10.00">+ PBrakeLight()</text>
<text text-anchor="start" x="8" y="-134" font-family="Helvetica,sans-Serif" font-size="10.00">+ run()</text>
</a>
</g>
</g>
<!-- Node1&#45;&gt;Node6 -->
<g id="edge5" class="edge"><title>Node1&#45;&gt;Node6</title>
<path fill="none" stroke="midnightblue" d="M260.904,-405.77C216.06,-401.145 144.08,-387.017 101,-344 67.1261,-310.176 54.1002,-255.435 49.0997,-217.021"/>
<polygon fill="none" stroke="midnightblue" points="260.584,-409.255 270.863,-406.687 261.226,-402.285 260.584,-409.255"/>
</g>
<!-- Node7 -->
<g id="node7" class="node"><title>Node7</title>
<g id="a_node7"><a xlink:href="class_p_cockpit_indicator.html" target="_top" xlink:title="{PCockpitIndicator\n|# _hvEnabled\l# _ciLed\l# greenActive\l|+ PCockpitIndicator()\l+ run()\l}">
<polygon fill="white" stroke="black" points="110,-127 110,-217 228,-217 228,-127 110,-127"/>
<text text-anchor="middle" x="169" y="-205" font-family="Helvetica,sans-Serif" font-size="10.00">PCockpitIndicator</text>
<polyline fill="none" stroke="black" points="110,-198 228,-198 "/>
<text text-anchor="start" x="118" y="-186" font-family="Helvetica,sans-Serif" font-size="10.00"># _hvEnabled</text>
<text text-anchor="start" x="118" y="-175" font-family="Helvetica,sans-Serif" font-size="10.00"># _ciLed</text>
<text text-anchor="start" x="118" y="-164" font-family="Helvetica,sans-Serif" font-size="10.00"># greenActive</text>
<polyline fill="none" stroke="black" points="110,-157 228,-157 "/>
<text text-anchor="start" x="118" y="-145" font-family="Helvetica,sans-Serif" font-size="10.00">+ PCockpitIndicator()</text>
<text text-anchor="start" x="118" y="-134" font-family="Helvetica,sans-Serif" font-size="10.00">+ run()</text>
</a>
</g>
</g>
<!-- Node1&#45;&gt;Node7 -->
<g id="edge6" class="edge"><title>Node1&#45;&gt;Node7</title>
<path fill="none" stroke="midnightblue" d="M263.662,-375.771C254.102,-366.232 244.433,-355.297 237,-344 210.923,-304.366 192.218,-253.173 181.107,-217.169"/>
<polygon fill="none" stroke="midnightblue" points="261.29,-378.345 270.914,-382.776 266.154,-373.311 261.29,-378.345"/>
</g>
<!-- Node8 -->
<g id="node8" class="node"><title>Node8</title>
<g id="a_node8"><a xlink:href="class_p_cooling.html" target="_top" xlink:title="{PCooling\n|# _registry\l# _carService\l# _speedService\l# _fan\l# _pump\l# _motorController\l# _hvEnabled\l|+ PCooling()\l+ run()\l}">
<polygon fill="white" stroke="black" points="246.5,-105 246.5,-239 355.5,-239 355.5,-105 246.5,-105"/>
<text text-anchor="middle" x="301" y="-227" font-family="Helvetica,sans-Serif" font-size="10.00">PCooling</text>
<polyline fill="none" stroke="black" points="246.5,-220 355.5,-220 "/>
<text text-anchor="start" x="254.5" y="-208" font-family="Helvetica,sans-Serif" font-size="10.00"># _registry</text>
<text text-anchor="start" x="254.5" y="-197" font-family="Helvetica,sans-Serif" font-size="10.00"># _carService</text>
<text text-anchor="start" x="254.5" y="-186" font-family="Helvetica,sans-Serif" font-size="10.00"># _speedService</text>
<text text-anchor="start" x="254.5" y="-175" font-family="Helvetica,sans-Serif" font-size="10.00"># _fan</text>
<text text-anchor="start" x="254.5" y="-164" font-family="Helvetica,sans-Serif" font-size="10.00"># _pump</text>
<text text-anchor="start" x="254.5" y="-153" font-family="Helvetica,sans-Serif" font-size="10.00"># _motorController</text>
<text text-anchor="start" x="254.5" y="-142" font-family="Helvetica,sans-Serif" font-size="10.00"># _hvEnabled</text>
<polyline fill="none" stroke="black" points="246.5,-135 355.5,-135 "/>
<text text-anchor="start" x="254.5" y="-123" font-family="Helvetica,sans-Serif" font-size="10.00">+ PCooling()</text>
<text text-anchor="start" x="254.5" y="-112" font-family="Helvetica,sans-Serif" font-size="10.00">+ run()</text>
</a>
</g>
</g>
<!-- Node1&#45;&gt;Node8 -->
<g id="edge7" class="edge"><title>Node1&#45;&gt;Node8</title>
<path fill="none" stroke="midnightblue" d="M301,-369.77C301,-334.468 301,-281.278 301,-239.096"/>
<polygon fill="none" stroke="midnightblue" points="297.5,-370.12 301,-380.12 304.5,-370.12 297.5,-370.12"/>
</g>
<!-- Node9 -->
<g id="node9" class="node"><title>Node9</title>
<g id="a_node9"><a xlink:href="class_p_logger.html" target="_top" xlink:title="{PLogger\n|# _sdCard\l# _carService\l# begun\l# _loggingValues\l# _loggingComponents\l|+ PLogger()\l+ begin()\l+ run()\l+ addLogableValue()\l+ addLogableComponent()\l+ finalize()\l}">
<polygon fill="white" stroke="black" points="373.5,-94 373.5,-250 520.5,-250 520.5,-94 373.5,-94"/>
<text text-anchor="middle" x="447" y="-238" font-family="Helvetica,sans-Serif" font-size="10.00">PLogger</text>
<polyline fill="none" stroke="black" points="373.5,-231 520.5,-231 "/>
<text text-anchor="start" x="381.5" y="-219" font-family="Helvetica,sans-Serif" font-size="10.00"># _sdCard</text>
<text text-anchor="start" x="381.5" y="-208" font-family="Helvetica,sans-Serif" font-size="10.00"># _carService</text>
<text text-anchor="start" x="381.5" y="-197" font-family="Helvetica,sans-Serif" font-size="10.00"># begun</text>
<text text-anchor="start" x="381.5" y="-186" font-family="Helvetica,sans-Serif" font-size="10.00"># _loggingValues</text>
<text text-anchor="start" x="381.5" y="-175" font-family="Helvetica,sans-Serif" font-size="10.00"># _loggingComponents</text>
<polyline fill="none" stroke="black" points="373.5,-168 520.5,-168 "/>
<text text-anchor="start" x="381.5" y="-156" font-family="Helvetica,sans-Serif" font-size="10.00">+ PLogger()</text>
<text text-anchor="start" x="381.5" y="-145" font-family="Helvetica,sans-Serif" font-size="10.00">+ begin()</text>
<text text-anchor="start" x="381.5" y="-134" font-family="Helvetica,sans-Serif" font-size="10.00">+ run()</text>
<text text-anchor="start" x="381.5" y="-123" font-family="Helvetica,sans-Serif" font-size="10.00">+ addLogableValue()</text>
<text text-anchor="start" x="381.5" y="-112" font-family="Helvetica,sans-Serif" font-size="10.00">+ addLogableComponent()</text>
<text text-anchor="start" x="381.5" y="-101" font-family="Helvetica,sans-Serif" font-size="10.00">+ finalize()</text>
</a>
</g>
</g>
<!-- Node1&#45;&gt;Node9 -->
<g id="edge8" class="edge"><title>Node1&#45;&gt;Node9</title>
<path fill="none" stroke="midnightblue" d="M338.638,-374.616C347.939,-365.274 357.404,-354.725 365,-344 385.362,-315.252 403.028,-280.662 416.694,-250.136"/>
<polygon fill="none" stroke="midnightblue" points="335.961,-372.339 331.253,-381.831 340.852,-377.347 335.961,-372.339"/>
</g>
<!-- Node10 -->
<g id="node10" class="node"><title>Node10</title>
<g id="a_node10"><a xlink:href="class_p_motor_controller.html" target="_top" xlink:title="{PMotorController\n|# _registry\l# _carService\l# _motorController\l# _ready\l# _communicationStarted\l# _gasPedal\l# _brakePedal\l# _gasPedalPrimed\l# _hardBrakeingSince\l# _hardBrakeingStarted\land 6 more...\l|+ PMotorController()\l+ PMotorController()\l+ run()\l+ unprimeGas()\l# _checkErrors()\l# _pedalError()\l# _asrError()\l# _getAge()\l# _getAge()\l# _updateValues()\l# _update()\l# _update()\l# _getPedalPower()\l# _mapToPowerLimit()\l# _ASR()\l# _applyGasCurve()\l# _applyMaxPower()\l}">
<polygon fill="white" stroke="black" points="538.5,-0.5 538.5,-343.5 681.5,-343.5 681.5,-0.5 538.5,-0.5"/>
<text text-anchor="middle" x="610" y="-331.5" font-family="Helvetica,sans-Serif" font-size="10.00">PMotorController</text>
<polyline fill="none" stroke="black" points="538.5,-324.5 681.5,-324.5 "/>
<text text-anchor="start" x="546.5" y="-312.5" font-family="Helvetica,sans-Serif" font-size="10.00"># _registry</text>
<text text-anchor="start" x="546.5" y="-301.5" font-family="Helvetica,sans-Serif" font-size="10.00"># _carService</text>
<text text-anchor="start" x="546.5" y="-290.5" font-family="Helvetica,sans-Serif" font-size="10.00"># _motorController</text>
<text text-anchor="start" x="546.5" y="-279.5" font-family="Helvetica,sans-Serif" font-size="10.00"># _ready</text>
<text text-anchor="start" x="546.5" y="-268.5" font-family="Helvetica,sans-Serif" font-size="10.00"># _communicationStarted</text>
<text text-anchor="start" x="546.5" y="-257.5" font-family="Helvetica,sans-Serif" font-size="10.00"># _gasPedal</text>
<text text-anchor="start" x="546.5" y="-246.5" font-family="Helvetica,sans-Serif" font-size="10.00"># _brakePedal</text>
<text text-anchor="start" x="546.5" y="-235.5" font-family="Helvetica,sans-Serif" font-size="10.00"># _gasPedalPrimed</text>
<text text-anchor="start" x="546.5" y="-224.5" font-family="Helvetica,sans-Serif" font-size="10.00"># _hardBrakeingSince</text>
<text text-anchor="start" x="546.5" y="-213.5" font-family="Helvetica,sans-Serif" font-size="10.00"># _hardBrakeingStarted</text>
<text text-anchor="start" x="546.5" y="-202.5" font-family="Helvetica,sans-Serif" font-size="10.00">and 6 more...</text>
<polyline fill="none" stroke="black" points="538.5,-195.5 681.5,-195.5 "/>
<text text-anchor="start" x="546.5" y="-183.5" font-family="Helvetica,sans-Serif" font-size="10.00">+ PMotorController()</text>
<text text-anchor="start" x="546.5" y="-172.5" font-family="Helvetica,sans-Serif" font-size="10.00">+ PMotorController()</text>
<text text-anchor="start" x="546.5" y="-161.5" font-family="Helvetica,sans-Serif" font-size="10.00">+ run()</text>
<text text-anchor="start" x="546.5" y="-150.5" font-family="Helvetica,sans-Serif" font-size="10.00">+ unprimeGas()</text>
<text text-anchor="start" x="546.5" y="-139.5" font-family="Helvetica,sans-Serif" font-size="10.00"># _checkErrors()</text>
<text text-anchor="start" x="546.5" y="-128.5" font-family="Helvetica,sans-Serif" font-size="10.00"># _pedalError()</text>
<text text-anchor="start" x="546.5" y="-117.5" font-family="Helvetica,sans-Serif" font-size="10.00"># _asrError()</text>
<text text-anchor="start" x="546.5" y="-106.5" font-family="Helvetica,sans-Serif" font-size="10.00"># _getAge()</text>
<text text-anchor="start" x="546.5" y="-95.5" font-family="Helvetica,sans-Serif" font-size="10.00"># _getAge()</text>
<text text-anchor="start" x="546.5" y="-84.5" font-family="Helvetica,sans-Serif" font-size="10.00"># _updateValues()</text>
<text text-anchor="start" x="546.5" y="-73.5" font-family="Helvetica,sans-Serif" font-size="10.00"># _update()</text>
<text text-anchor="start" x="546.5" y="-62.5" font-family="Helvetica,sans-Serif" font-size="10.00"># _update()</text>
<text text-anchor="start" x="546.5" y="-51.5" font-family="Helvetica,sans-Serif" font-size="10.00"># _getPedalPower()</text>
<text text-anchor="start" x="546.5" y="-40.5" font-family="Helvetica,sans-Serif" font-size="10.00"># _mapToPowerLimit()</text>
<text text-anchor="start" x="546.5" y="-29.5" font-family="Helvetica,sans-Serif" font-size="10.00"># _ASR()</text>
<text text-anchor="start" x="546.5" y="-18.5" font-family="Helvetica,sans-Serif" font-size="10.00"># _applyGasCurve()</text>
<text text-anchor="start" x="546.5" y="-7.5" font-family="Helvetica,sans-Serif" font-size="10.00"># _applyMaxPower()</text>
</a>
</g>
</g>
<!-- Node1&#45;&gt;Node10 -->
<g id="edge9" class="edge"><title>Node1&#45;&gt;Node10</title>
<path fill="none" stroke="midnightblue" d="M341.073,-406.69C390.829,-403.048 475.748,-389.963 530,-344 532.876,-341.564 535.655,-339.001 538.34,-336.328"/>
<polygon fill="none" stroke="midnightblue" points="340.77,-403.202 331.013,-407.333 341.216,-410.188 340.77,-403.202"/>
</g>
<!-- Node2 -->
<g id="node2" class="node"><title>Node2</title>
<g id="a_node2"><a xlink:href="class_i_runable.html" target="_top" xlink:title="{IRunable\n||+ IRunable()\l+ run()\l+ setStatus()\l+ getStatus()\l}">
<polygon fill="white" stroke="black" points="259.5,-474.5 259.5,-564.5 342.5,-564.5 342.5,-474.5 259.5,-474.5"/>
<text text-anchor="middle" x="301" y="-552.5" font-family="Helvetica,sans-Serif" font-size="10.00">IRunable</text>
<polyline fill="none" stroke="black" points="259.5,-545.5 342.5,-545.5 "/>
<text text-anchor="middle" x="301" y="-533.5" font-family="Helvetica,sans-Serif" font-size="10.00"> </text>
<polyline fill="none" stroke="black" points="259.5,-526.5 342.5,-526.5 "/>
<text text-anchor="start" x="267.5" y="-514.5" font-family="Helvetica,sans-Serif" font-size="10.00">+ IRunable()</text>
<text text-anchor="start" x="267.5" y="-503.5" font-family="Helvetica,sans-Serif" font-size="10.00">+ run()</text>
<text text-anchor="start" x="267.5" y="-492.5" font-family="Helvetica,sans-Serif" font-size="10.00">+ setStatus()</text>
<text text-anchor="start" x="267.5" y="-481.5" font-family="Helvetica,sans-Serif" font-size="10.00">+ getStatus()</text>
</a>
</g>
</g>
<!-- Node2&#45;&gt;Node1 -->
<g id="edge1" class="edge"><title>Node2&#45;&gt;Node1</title>
<path fill="none" stroke="midnightblue" d="M301,-464.353C301,-455.074 301,-445.791 301,-437.59"/>
<polygon fill="none" stroke="midnightblue" points="297.5,-464.369 301,-474.369 304.5,-464.369 297.5,-464.369"/>
</g>
<!-- Node3 -->
<g id="node3" class="node"><title>Node3</title>
<g id="a_node3"><a xlink:href="class_i_component.html" target="_top" xlink:title="{IComponent\n||+ IComponent()\l+ IComponent()\l+ setComponentSubId()\l+ getComponentType()\l+ getComponentSubId()\l+ getComponentId()\l+ getObjectType()\l# setComponentType()\l# setObjectType()\l}">
<polygon fill="white" stroke="black" points="234,-601.5 234,-746.5 368,-746.5 368,-601.5 234,-601.5"/>
<text text-anchor="middle" x="301" y="-734.5" font-family="Helvetica,sans-Serif" font-size="10.00">IComponent</text>
<polyline fill="none" stroke="black" points="234,-727.5 368,-727.5 "/>
<text text-anchor="middle" x="301" y="-715.5" font-family="Helvetica,sans-Serif" font-size="10.00"> </text>
<polyline fill="none" stroke="black" points="234,-708.5 368,-708.5 "/>
<text text-anchor="start" x="242" y="-696.5" font-family="Helvetica,sans-Serif" font-size="10.00">+ IComponent()</text>
<text text-anchor="start" x="242" y="-685.5" font-family="Helvetica,sans-Serif" font-size="10.00">+ IComponent()</text>
<text text-anchor="start" x="242" y="-674.5" font-family="Helvetica,sans-Serif" font-size="10.00">+ setComponentSubId()</text>
<text text-anchor="start" x="242" y="-663.5" font-family="Helvetica,sans-Serif" font-size="10.00">+ getComponentType()</text>
<text text-anchor="start" x="242" y="-652.5" font-family="Helvetica,sans-Serif" font-size="10.00">+ getComponentSubId()</text>
<text text-anchor="start" x="242" y="-641.5" font-family="Helvetica,sans-Serif" font-size="10.00">+ getComponentId()</text>
<text text-anchor="start" x="242" y="-630.5" font-family="Helvetica,sans-Serif" font-size="10.00">+ getObjectType()</text>
<text text-anchor="start" x="242" y="-619.5" font-family="Helvetica,sans-Serif" font-size="10.00"># setComponentType()</text>
<text text-anchor="start" x="242" y="-608.5" font-family="Helvetica,sans-Serif" font-size="10.00"># setObjectType()</text>
</a>
</g>
</g>
<!-- Node3&#45;&gt;Node2 -->
<g id="edge2" class="edge"><title>Node3&#45;&gt;Node2</title>
<path fill="none" stroke="midnightblue" d="M301,-590.941C301,-581.857 301,-572.885 301,-564.542"/>
<polygon fill="none" stroke="midnightblue" points="297.5,-591.215 301,-601.216 304.5,-591.216 297.5,-591.215"/>
</g>
<!-- Node4 -->
<g id="node4" class="node"><title>Node4</title>
<g id="a_node4"><a xlink:href="class_i_logable.html" target="_top" xlink:title="{ILogable\n||+ setStatus()\l+ getStatus()\l+ getLogValueCount()\l+ getLogValue()\l}">
<polygon fill="white" stroke="black" points="239.5,-783.5 239.5,-873.5 362.5,-873.5 362.5,-783.5 239.5,-783.5"/>
<text text-anchor="middle" x="301" y="-861.5" font-family="Helvetica,sans-Serif" font-size="10.00">ILogable</text>
<polyline fill="none" stroke="black" points="239.5,-854.5 362.5,-854.5 "/>
<text text-anchor="middle" x="301" y="-842.5" font-family="Helvetica,sans-Serif" font-size="10.00"> </text>
<polyline fill="none" stroke="black" points="239.5,-835.5 362.5,-835.5 "/>
<text text-anchor="start" x="247.5" y="-823.5" font-family="Helvetica,sans-Serif" font-size="10.00">+ setStatus()</text>
<text text-anchor="start" x="247.5" y="-812.5" font-family="Helvetica,sans-Serif" font-size="10.00">+ getStatus()</text>
<text text-anchor="start" x="247.5" y="-801.5" font-family="Helvetica,sans-Serif" font-size="10.00">+ getLogValueCount()</text>
<text text-anchor="start" x="247.5" y="-790.5" font-family="Helvetica,sans-Serif" font-size="10.00">+ getLogValue()</text>
</a>
</g>
</g>
<!-- Node4&#45;&gt;Node3 -->
<g id="edge3" class="edge"><title>Node4&#45;&gt;Node3</title>
<path fill="none" stroke="midnightblue" d="M301,-773.13C301,-764.526 301,-755.516 301,-746.591"/>
<polygon fill="none" stroke="midnightblue" points="297.5,-773.391 301,-783.391 304.5,-773.391 297.5,-773.391"/>
</g>
<!-- Node5 -->
<g id="node5" class="node"><title>Node5</title>
<g id="a_node5"><a xlink:href="class_non_copyable.html" target="_top" xlink:title="{NonCopyable\&lt; ILogable \&gt;\n||+ NonCopyable()\l}">
<polygon fill="white" stroke="black" points="229.5,-910.5 229.5,-967.5 372.5,-967.5 372.5,-910.5 229.5,-910.5"/>
<text text-anchor="middle" x="301" y="-955.5" font-family="Helvetica,sans-Serif" font-size="10.00">NonCopyable&lt; ILogable &gt;</text>
<polyline fill="none" stroke="black" points="229.5,-948.5 372.5,-948.5 "/>
<text text-anchor="middle" x="301" y="-936.5" font-family="Helvetica,sans-Serif" font-size="10.00"> </text>
<polyline fill="none" stroke="black" points="229.5,-929.5 372.5,-929.5 "/>
<text text-anchor="start" x="237.5" y="-917.5" font-family="Helvetica,sans-Serif" font-size="10.00">+ NonCopyable()</text>
</a>
</g>
</g>
<!-- Node5&#45;&gt;Node4 -->
<g id="edge4" class="edge"><title>Node5&#45;&gt;Node4</title>
<path fill="none" stroke="#8b1a1a" d="M301,-900.214C301,-891.609 301,-882.394 301,-873.554"/>
<polygon fill="none" stroke="#8b1a1a" points="297.5,-900.34 301,-910.34 304.5,-900.34 297.5,-900.34"/>
</g>
</g>
</svg>
        <g id="navigator" transform="translate(0 0)" fill="#404254">
                <rect fill="#f2f5e9" fill-opacity="0.5" stroke="#606060" stroke-width=".5" x="0" y="0" width="60" height="60"/>
                <use id="zoomplus" xlink:href="#zoomPlus" x="17" y="9" onmousedown="handleZoom(evt,'in')"/>
                <use id="zoomminus" xlink:href="#zoomMin" x="42" y="9" onmousedown="handleZoom(evt,'out')"/>
                <use id="reset" xlink:href="#resetDef" x="30" y="36" onmousedown="handleReset()"/>
                <g id="arrowUp" xlink:href="#dirArrow" transform="translate(30 24)" onmousedown="handlePan(0,-1)">
                  <use xlink:href="#rim" fill="#404040">
                        <set attributeName="fill" to="#808080" begin="arrowUp.mouseover" end="arrowUp.mouseout"/>
                  </use>
                  <path fill="none" stroke="white" stroke-width="1.5" d="M0,-3.0v7 M-2.5,-0.5L0,-3.0L2.5,-0.5"/>
                </g>
                <g id="arrowRight" xlink:href="#dirArrow" transform="rotate(90) translate(36 -43)" onmousedown="handlePan(1,0)">
                  <use xlink:href="#rim" fill="#404040">
                        <set attributeName="fill" to="#808080" begin="arrowRight.mouseover" end="arrowRight.mouseout"/>
                  </use>
                  <path fill="none" stroke="white" stroke-width="1.5" d="M0,-3.0v7 M-2.5,-0.5L0,-3.0L2.5,-0.5"/>
                </g>
                <g id="arrowDown" xlink:href="#dirArrow" transform="rotate(180) translate(-30 -48)" onmousedown="handlePan(0,1)">
                  <use xlink:href="#rim" fill="#404040">
                        <set attributeName="fill" to="#808080" begin="arrowDown.mouseover" end="arrowDown.mouseout"/>
                  </use>
                  <path fill="none" stroke="white" stroke-width="1.5" d="M0,-3.0v7 M-2.5,-0.5L0,-3.0L2.5,-0.5"/>
                </g>
                <g id="arrowLeft" xlink:href="#dirArrow" transform="rotate(270) translate(-36 17)" onmousedown="handlePan(-1,0)">
                  <use xlink:href="#rim" fill="#404040">
                        <set attributeName="fill" to="#808080" begin="arrowLeft.mouseover" end="arrowLeft.mouseout"/>
                  </use>
                  <path fill="none" stroke="white" stroke-width="1.5" d="M0,-3.0v7 M-2.5,-0.5L0,-3.0L2.5,-0.5"/>
                </g>
        </g>
        <svg viewBox="0 0 15 15" width="100%" height="30px" preserveAspectRatio="xMaxYMin meet">
         <g id="arrow_out" transform="scale(0.3 0.3)">
          <a xlink:href="class_i_program__inherit__graph_org.svg" target="_base">
           <rect id="button" ry="5" rx="5" y="6" x="6" height="38" width="38"
                fill="#f2f5e9" fill-opacity="0.5" stroke="#606060" stroke-width="1.0"/>
           <path id="arrow"
             d="M 11.500037,31.436501 C 11.940474,20.09759 22.043105,11.32322 32.158766,21.979434 L 37.068811,17.246167 C 37.068811,17.246167 37.088388,32 37.088388,32 L 22.160133,31.978069 C 22.160133,31.978069 26.997745,27.140456 26.997745,27.140456 C 18.528582,18.264221 13.291696,25.230495 11.500037,31.436501 z"
             style="fill:#404040;"/>
          </a>
         </g>
        </svg>
</svg>
