<?xml version="1.0" encoding="UTF-8" standalone="no"?>
<!DOCTYPE svg PUBLIC "-//W3C//DTD SVG 1.1//EN"
 "http://www.w3.org/Graphics/SVG/1.1/DTD/svg11.dtd">
<!-- Generated by graphviz version 2.38.0 (20140413.2041)
 -->
<!-- Title: HardwareMotorController Pages: 1 -->
<svg width="470pt" height="1611pt"
 viewBox="0.00 0.00 470.00 1611.00" xmlns="http://www.w3.org/2000/svg" xmlns:xlink="http://www.w3.org/1999/xlink">
<g id="graph0" class="graph" transform="scale(1 1) rotate(0) translate(4 1607)">
<title>HardwareMotorController</title>
<polygon fill="white" stroke="none" points="-4,4 -4,-1607 466,-1607 466,4 -4,4"/>
<!-- Node1 -->
<g id="node1" class="node"><title>Node1</title>
<polygon fill="#bfbfbf" stroke="black" points="104.5,-0.5 104.5,-167.5 259.5,-167.5 259.5,-0.5 104.5,-0.5"/>
<text text-anchor="middle" x="182" y="-155.5" font-family="Helvetica,sans-Serif" font-size="10.00">HardwareMotorController</text>
<polyline fill="none" stroke="black" points="104.5,-148.5 259.5,-148.5 "/>
<text text-anchor="start" x="112.5" y="-136.5" font-family="Helvetica,sans-Serif" font-size="10.00"># _status</text>
<polyline fill="none" stroke="black" points="104.5,-129.5 259.5,-129.5 "/>
<text text-anchor="start" x="112.5" y="-117.5" font-family="Helvetica,sans-Serif" font-size="10.00">+ HardwareMotorController()</text>
<text text-anchor="start" x="112.5" y="-106.5" font-family="Helvetica,sans-Serif" font-size="10.00">+ beginCommunication()</text>
<text text-anchor="start" x="112.5" y="-95.5" font-family="Helvetica,sans-Serif" font-size="10.00">+ getStatus()</text>
<text text-anchor="start" x="112.5" y="-84.5" font-family="Helvetica,sans-Serif" font-size="10.00">+ setStatus()</text>
<text text-anchor="start" x="112.5" y="-73.5" font-family="Helvetica,sans-Serif" font-size="10.00">+ getState()</text>
<text text-anchor="start" x="112.5" y="-62.5" font-family="Helvetica,sans-Serif" font-size="10.00">+ setState()</text>
<text text-anchor="start" x="112.5" y="-51.5" font-family="Helvetica,sans-Serif" font-size="10.00">+ setTorque()</text>
<text text-anchor="start" x="112.5" y="-40.5" font-family="Helvetica,sans-Serif" font-size="10.00">+ getSpeed()</text>
<text text-anchor="start" x="112.5" y="-29.5" font-family="Helvetica,sans-Serif" font-size="10.00">+ getCurrent()</text>
<text text-anchor="start" x="112.5" y="-18.5" font-family="Helvetica,sans-Serif" font-size="10.00">+ getMotorTemp()</text>
<text text-anchor="start" x="112.5" y="-7.5" font-family="Helvetica,sans-Serif" font-size="10.00">and 6 more...</text>
</g>
<!-- Node2 -->
<g id="node2" class="node"><title>Node2</title>
<g id="a_node2"><a xlink:href="class_i_motor_controller.html" target="_top" xlink:title="{IMotorController\n||+ IMotorController()\l+ getState()\l+ setState()\l+ setTorque()\l+ getSpeed()\l+ getCurrent()\l+ getMotorTemp()\l+ getServoTemp()\l+ getAirTemp()\l+ setRFE()\land 6 more...\l}">
<polygon fill="white" stroke="black" points="0,-843.5 0,-1010.5 112,-1010.5 112,-843.5 0,-843.5"/>
<text text-anchor="middle" x="56" y="-998.5" font-family="Helvetica,sans-Serif" font-size="10.00">IMotorController</text>
<polyline fill="none" stroke="black" points="0,-991.5 112,-991.5 "/>
<text text-anchor="middle" x="56" y="-979.5" font-family="Helvetica,sans-Serif" font-size="10.00"> </text>
<polyline fill="none" stroke="black" points="0,-972.5 112,-972.5 "/>
<text text-anchor="start" x="8" y="-960.5" font-family="Helvetica,sans-Serif" font-size="10.00">+ IMotorController()</text>
<text text-anchor="start" x="8" y="-949.5" font-family="Helvetica,sans-Serif" font-size="10.00">+ getState()</text>
<text text-anchor="start" x="8" y="-938.5" font-family="Helvetica,sans-Serif" font-size="10.00">+ setState()</text>
<text text-anchor="start" x="8" y="-927.5" font-family="Helvetica,sans-Serif" font-size="10.00">+ setTorque()</text>
<text text-anchor="start" x="8" y="-916.5" font-family="Helvetica,sans-Serif" font-size="10.00">+ getSpeed()</text>
<text text-anchor="start" x="8" y="-905.5" font-family="Helvetica,sans-Serif" font-size="10.00">+ getCurrent()</text>
<text text-anchor="start" x="8" y="-894.5" font-family="Helvetica,sans-Serif" font-size="10.00">+ getMotorTemp()</text>
<text text-anchor="start" x="8" y="-883.5" font-family="Helvetica,sans-Serif" font-size="10.00">+ getServoTemp()</text>
<text text-anchor="start" x="8" y="-872.5" font-family="Helvetica,sans-Serif" font-size="10.00">+ getAirTemp()</text>
<text text-anchor="start" x="8" y="-861.5" font-family="Helvetica,sans-Serif" font-size="10.00">+ setRFE()</text>
<text text-anchor="start" x="8" y="-850.5" font-family="Helvetica,sans-Serif" font-size="10.00">and 6 more...</text>
</a>
</g>
</g>
<!-- Node2&#45;&gt;Node1 -->
<g id="edge1" class="edge"><title>Node2&#45;&gt;Node1</title>
<path fill="none" stroke="midnightblue" d="M55.5197,-833.267C55.2633,-775.988 55,-700.98 55,-634.5 55,-634.5 55,-634.5 55,-320 55,-277.377 56.3661,-264.804 74,-226 83.1213,-205.928 95.5722,-186.07 108.781,-167.871"/>
<polygon fill="none" stroke="midnightblue" points="52.0202,-833.403 55.5657,-843.387 59.0201,-833.371 52.0202,-833.403"/>
</g>
<!-- Node3 -->
<g id="node3" class="node"><title>Node3</title>
<g id="a_node3"><a xlink:href="class_i_component.html" target="_top" xlink:title="{IComponent\n||+ IComponent()\l+ IComponent()\l+ setComponentSubId()\l+ getComponentType()\l+ getComponentSubId()\l+ getComponentId()\l+ getObjectType()\l# setComponentType()\l# setObjectType()\l}">
<polygon fill="white" stroke="black" points="98,-1234.5 98,-1379.5 232,-1379.5 232,-1234.5 98,-1234.5"/>
<text text-anchor="middle" x="165" y="-1367.5" font-family="Helvetica,sans-Serif" font-size="10.00">IComponent</text>
<polyline fill="none" stroke="black" points="98,-1360.5 232,-1360.5 "/>
<text text-anchor="middle" x="165" y="-1348.5" font-family="Helvetica,sans-Serif" font-size="10.00"> </text>
<polyline fill="none" stroke="black" points="98,-1341.5 232,-1341.5 "/>
<text text-anchor="start" x="106" y="-1329.5" font-family="Helvetica,sans-Serif" font-size="10.00">+ IComponent()</text>
<text text-anchor="start" x="106" y="-1318.5" font-family="Helvetica,sans-Serif" font-size="10.00">+ IComponent()</text>
<text text-anchor="start" x="106" y="-1307.5" font-family="Helvetica,sans-Serif" font-size="10.00">+ setComponentSubId()</text>
<text text-anchor="start" x="106" y="-1296.5" font-family="Helvetica,sans-Serif" font-size="10.00">+ getComponentType()</text>
<text text-anchor="start" x="106" y="-1285.5" font-family="Helvetica,sans-Serif" font-size="10.00">+ getComponentSubId()</text>
<text text-anchor="start" x="106" y="-1274.5" font-family="Helvetica,sans-Serif" font-size="10.00">+ getComponentId()</text>
<text text-anchor="start" x="106" y="-1263.5" font-family="Helvetica,sans-Serif" font-size="10.00">+ getObjectType()</text>
<text text-anchor="start" x="106" y="-1252.5" font-family="Helvetica,sans-Serif" font-size="10.00"># setComponentType()</text>
<text text-anchor="start" x="106" y="-1241.5" font-family="Helvetica,sans-Serif" font-size="10.00"># setObjectType()</text>
</a>
</g>
</g>
<!-- Node3&#45;&gt;Node2 -->
<g id="edge2" class="edge"><title>Node3&#45;&gt;Node2</title>
<path fill="none" stroke="midnightblue" d="M141.509,-1224.54C123.3,-1161.39 98.1699,-1074.24 79.8667,-1010.77"/>
<polygon fill="none" stroke="midnightblue" points="138.236,-1225.82 144.37,-1234.46 144.962,-1223.88 138.236,-1225.82"/>
</g>
<!-- Node9 -->
<g id="node9" class="node"><title>Node9</title>
<g id="a_node9"><a xlink:href="class_i_communication.html" target="_top" xlink:title="{ICommunication\n||+ receive()\l}">
<polygon fill="white" stroke="black" points="117.5,-898.5 117.5,-955.5 212.5,-955.5 212.5,-898.5 117.5,-898.5"/>
<text text-anchor="middle" x="165" y="-943.5" font-family="Helvetica,sans-Serif" font-size="10.00">ICommunication</text>
<polyline fill="none" stroke="black" points="117.5,-936.5 212.5,-936.5 "/>
<text text-anchor="middle" x="165" y="-924.5" font-family="Helvetica,sans-Serif" font-size="10.00"> </text>
<polyline fill="none" stroke="black" points="117.5,-917.5 212.5,-917.5 "/>
<text text-anchor="start" x="125.5" y="-905.5" font-family="Helvetica,sans-Serif" font-size="10.00">+ receive()</text>
</a>
</g>
</g>
<!-- Node3&#45;&gt;Node9 -->
<g id="edge9" class="edge"><title>Node3&#45;&gt;Node9</title>
<path fill="none" stroke="midnightblue" d="M165,-1224.35C165,-1139.62 165,-1011.83 165,-955.892"/>
<polygon fill="none" stroke="midnightblue" points="161.5,-1224.46 165,-1234.46 168.5,-1224.46 161.5,-1224.46"/>
</g>
<!-- Node11 -->
<g id="node11" class="node"><title>Node11</title>
<g id="a_node11"><a xlink:href="class_i_runable.html" target="_top" xlink:title="{IRunable\n||+ IRunable()\l+ run()\l+ setStatus()\l+ getStatus()\l}">
<polygon fill="white" stroke="black" points="198.5,-1068 198.5,-1158 281.5,-1158 281.5,-1068 198.5,-1068"/>
<text text-anchor="middle" x="240" y="-1146" font-family="Helvetica,sans-Serif" font-size="10.00">IRunable</text>
<polyline fill="none" stroke="black" points="198.5,-1139 281.5,-1139 "/>
<text text-anchor="middle" x="240" y="-1127" font-family="Helvetica,sans-Serif" font-size="10.00"> </text>
<polyline fill="none" stroke="black" points="198.5,-1120 281.5,-1120 "/>
<text text-anchor="start" x="206.5" y="-1108" font-family="Helvetica,sans-Serif" font-size="10.00">+ IRunable()</text>
<text text-anchor="start" x="206.5" y="-1097" font-family="Helvetica,sans-Serif" font-size="10.00">+ run()</text>
<text text-anchor="start" x="206.5" y="-1086" font-family="Helvetica,sans-Serif" font-size="10.00">+ setStatus()</text>
<text text-anchor="start" x="206.5" y="-1075" font-family="Helvetica,sans-Serif" font-size="10.00">+ getStatus()</text>
</a>
</g>
</g>
<!-- Node3&#45;&gt;Node11 -->
<g id="edge12" class="edge"><title>Node3&#45;&gt;Node11</title>
<path fill="none" stroke="midnightblue" d="M196.698,-1224.85C205.639,-1201.97 215.03,-1177.92 222.773,-1158.1"/>
<polygon fill="none" stroke="midnightblue" points="193.412,-1223.65 193.034,-1234.23 199.933,-1226.19 193.412,-1223.65"/>
</g>
<!-- Node4 -->
<g id="node4" class="node"><title>Node4</title>
<g id="a_node4"><a xlink:href="class_i_logable.html" target="_top" xlink:title="{ILogable\n||+ setStatus()\l+ getStatus()\l+ getLogValueCount()\l+ getLogValue()\l}">
<polygon fill="white" stroke="black" points="103.5,-1417.5 103.5,-1507.5 226.5,-1507.5 226.5,-1417.5 103.5,-1417.5"/>
<text text-anchor="middle" x="165" y="-1495.5" font-family="Helvetica,sans-Serif" font-size="10.00">ILogable</text>
<polyline fill="none" stroke="black" points="103.5,-1488.5 226.5,-1488.5 "/>
<text text-anchor="middle" x="165" y="-1476.5" font-family="Helvetica,sans-Serif" font-size="10.00"> </text>
<polyline fill="none" stroke="black" points="103.5,-1469.5 226.5,-1469.5 "/>
<text text-anchor="start" x="111.5" y="-1457.5" font-family="Helvetica,sans-Serif" font-size="10.00">+ setStatus()</text>
<text text-anchor="start" x="111.5" y="-1446.5" font-family="Helvetica,sans-Serif" font-size="10.00">+ getStatus()</text>
<text text-anchor="start" x="111.5" y="-1435.5" font-family="Helvetica,sans-Serif" font-size="10.00">+ getLogValueCount()</text>
<text text-anchor="start" x="111.5" y="-1424.5" font-family="Helvetica,sans-Serif" font-size="10.00">+ getLogValue()</text>
</a>
</g>
</g>
<!-- Node4&#45;&gt;Node3 -->
<g id="edge3" class="edge"><title>Node4&#45;&gt;Node3</title>
<path fill="none" stroke="midnightblue" d="M165,-1406.98C165,-1398.16 165,-1388.92 165,-1379.77"/>
<polygon fill="none" stroke="midnightblue" points="161.5,-1407.1 165,-1417.1 168.5,-1407.1 161.5,-1407.1"/>
</g>
<!-- Node5 -->
<g id="node5" class="node"><title>Node5</title>
<g id="a_node5"><a xlink:href="class_non_copyable.html" target="_top" xlink:title="{NonCopyable\&lt; ILogable \&gt;\n||+ NonCopyable()\l}">
<polygon fill="white" stroke="black" points="93.5,-1545.5 93.5,-1602.5 236.5,-1602.5 236.5,-1545.5 93.5,-1545.5"/>
<text text-anchor="middle" x="165" y="-1590.5" font-family="Helvetica,sans-Serif" font-size="10.00">NonCopyable&lt; ILogable &gt;</text>
<polyline fill="none" stroke="black" points="93.5,-1583.5 236.5,-1583.5 "/>
<text text-anchor="middle" x="165" y="-1571.5" font-family="Helvetica,sans-Serif" font-size="10.00"> </text>
<polyline fill="none" stroke="black" points="93.5,-1564.5 236.5,-1564.5 "/>
<text text-anchor="start" x="101.5" y="-1552.5" font-family="Helvetica,sans-Serif" font-size="10.00">+ NonCopyable()</text>
</a>
</g>
</g>
<!-- Node5&#45;&gt;Node4 -->
<g id="edge4" class="edge"><title>Node5&#45;&gt;Node4</title>
<path fill="none" stroke="#8b1a1a" d="M165,-1535.31C165,-1526.43 165,-1516.88 165,-1507.74"/>
<polygon fill="none" stroke="#8b1a1a" points="161.5,-1535.37 165,-1545.37 168.5,-1535.37 161.5,-1535.37"/>
</g>
<!-- Node6 -->
<g id="node6" class="node"><title>Node6</title>
<g id="a_node6"><a xlink:href="class_digital_out.html" target="_top" xlink:title="{DigitalOut\n||+ DigitalOut()\l+ DigitalOut()\l+ write()\l+ read()\l+ operator=()\l+ operator uint8_t()\l}">
<polygon fill="white" stroke="black" points="83.5,-265 83.5,-377 196.5,-377 196.5,-265 83.5,-265"/>
<text text-anchor="middle" x="140" y="-365" font-family="Helvetica,sans-Serif" font-size="10.00">DigitalOut</text>
<polyline fill="none" stroke="black" points="83.5,-358 196.5,-358 "/>
<text text-anchor="middle" x="140" y="-346" font-family="Helvetica,sans-Serif" font-size="10.00"> </text>
<polyline fill="none" stroke="black" points="83.5,-339 196.5,-339 "/>
<text text-anchor="start" x="91.5" y="-327" font-family="Helvetica,sans-Serif" font-size="10.00">+ DigitalOut()</text>
<text text-anchor="start" x="91.5" y="-316" font-family="Helvetica,sans-Serif" font-size="10.00">+ DigitalOut()</text>
<text text-anchor="start" x="91.5" y="-305" font-family="Helvetica,sans-Serif" font-size="10.00">+ write()</text>
<text text-anchor="start" x="91.5" y="-294" font-family="Helvetica,sans-Serif" font-size="10.00">+ read()</text>
<text text-anchor="start" x="91.5" y="-283" font-family="Helvetica,sans-Serif" font-size="10.00">+ operator=()</text>
<text text-anchor="start" x="91.5" y="-272" font-family="Helvetica,sans-Serif" font-size="10.00">+ operator uint8_t()</text>
</a>
</g>
</g>
<!-- Node6&#45;&gt;Node1 -->
<g id="edge5" class="edge"><title>Node6&#45;&gt;Node1</title>
<path fill="none" stroke="#404040" d="M149.847,-264.903C154.386,-239.506 159.904,-208.63 165.079,-179.677"/>
<polygon fill="none" stroke="#404040" points="165.084,-179.651 162.202,-173.041 167.195,-167.838 170.077,-174.448 165.084,-179.651"/>
<text text-anchor="middle" x="179" y="-200" font-family="Helvetica,sans-Serif" font-size="10.00"> #_rfe</text>
<text text-anchor="middle" x="179" y="-189" font-family="Helvetica,sans-Serif" font-size="10.00">#_run</text>
</g>
<!-- Node7 -->
<g id="node7" class="node"><title>Node7</title>
<g id="a_node7"><a xlink:href="class_i_registry.html" target="_top" xlink:title="{IRegistry\n||+ IRegistry()\l+ getReady()\l+ setReady()\l+ getFloat()\l+ getUInt8()\l+ getUInt16()\l+ getUInt32()\l+ getInt8()\l+ getInt16()\l+ getInt32()\land 9 more...\l}">
<polygon fill="white" stroke="black" points="214.5,-237.5 214.5,-404.5 297.5,-404.5 297.5,-237.5 214.5,-237.5"/>
<text text-anchor="middle" x="256" y="-392.5" font-family="Helvetica,sans-Serif" font-size="10.00">IRegistry</text>
<polyline fill="none" stroke="black" points="214.5,-385.5 297.5,-385.5 "/>
<text text-anchor="middle" x="256" y="-373.5" font-family="Helvetica,sans-Serif" font-size="10.00"> </text>
<polyline fill="none" stroke="black" points="214.5,-366.5 297.5,-366.5 "/>
<text text-anchor="start" x="222.5" y="-354.5" font-family="Helvetica,sans-Serif" font-size="10.00">+ IRegistry()</text>
<text text-anchor="start" x="222.5" y="-343.5" font-family="Helvetica,sans-Serif" font-size="10.00">+ getReady()</text>
<text text-anchor="start" x="222.5" y="-332.5" font-family="Helvetica,sans-Serif" font-size="10.00">+ setReady()</text>
<text text-anchor="start" x="222.5" y="-321.5" font-family="Helvetica,sans-Serif" font-size="10.00">+ getFloat()</text>
<text text-anchor="start" x="222.5" y="-310.5" font-family="Helvetica,sans-Serif" font-size="10.00">+ getUInt8()</text>
<text text-anchor="start" x="222.5" y="-299.5" font-family="Helvetica,sans-Serif" font-size="10.00">+ getUInt16()</text>
<text text-anchor="start" x="222.5" y="-288.5" font-family="Helvetica,sans-Serif" font-size="10.00">+ getUInt32()</text>
<text text-anchor="start" x="222.5" y="-277.5" font-family="Helvetica,sans-Serif" font-size="10.00">+ getInt8()</text>
<text text-anchor="start" x="222.5" y="-266.5" font-family="Helvetica,sans-Serif" font-size="10.00">+ getInt16()</text>
<text text-anchor="start" x="222.5" y="-255.5" font-family="Helvetica,sans-Serif" font-size="10.00">+ getInt32()</text>
<text text-anchor="start" x="222.5" y="-244.5" font-family="Helvetica,sans-Serif" font-size="10.00">and 9 more...</text>
</a>
</g>
</g>
<!-- Node7&#45;&gt;Node1 -->
<g id="edge6" class="edge"><title>Node7&#45;&gt;Node1</title>
<path fill="none" stroke="#404040" d="M230.014,-237.478C224.089,-218.662 217.749,-198.529 211.683,-179.263"/>
<polygon fill="none" stroke="#404040" points="211.652,-179.166 206.035,-174.644 208.048,-167.72 213.665,-172.241 211.652,-179.166"/>
<text text-anchor="middle" x="245.5" y="-194.5" font-family="Helvetica,sans-Serif" font-size="10.00"> #_registry</text>
</g>
<!-- Node8 -->
<g id="node8" class="node"><title>Node8</title>
<g id="a_node8"><a xlink:href="class_self_syncable.html" target="_top" xlink:title="{SelfSyncable\n|# _syncerAttached\l|+ attach()\l+ detach()\l# _sendCommand()\l# _sendCommand()\l# _sendCommand()\l# _send()\l# _convertFloat()\l# _reconvertFloat()\l# _disassambleFloat()\l# _reassambleFloat()\l}">
<polygon fill="white" stroke="black" points="191,-453.5 191,-609.5 315,-609.5 315,-453.5 191,-453.5"/>
<text text-anchor="middle" x="253" y="-597.5" font-family="Helvetica,sans-Serif" font-size="10.00">SelfSyncable</text>
<polyline fill="none" stroke="black" points="191,-590.5 315,-590.5 "/>
<text text-anchor="start" x="199" y="-578.5" font-family="Helvetica,sans-Serif" font-size="10.00"># _syncerAttached</text>
<polyline fill="none" stroke="black" points="191,-571.5 315,-571.5 "/>
<text text-anchor="start" x="199" y="-559.5" font-family="Helvetica,sans-Serif" font-size="10.00">+ attach()</text>
<text text-anchor="start" x="199" y="-548.5" font-family="Helvetica,sans-Serif" font-size="10.00">+ detach()</text>
<text text-anchor="start" x="199" y="-537.5" font-family="Helvetica,sans-Serif" font-size="10.00"># _sendCommand()</text>
<text text-anchor="start" x="199" y="-526.5" font-family="Helvetica,sans-Serif" font-size="10.00"># _sendCommand()</text>
<text text-anchor="start" x="199" y="-515.5" font-family="Helvetica,sans-Serif" font-size="10.00"># _sendCommand()</text>
<text text-anchor="start" x="199" y="-504.5" font-family="Helvetica,sans-Serif" font-size="10.00"># _send()</text>
<text text-anchor="start" x="199" y="-493.5" font-family="Helvetica,sans-Serif" font-size="10.00"># _convertFloat()</text>
<text text-anchor="start" x="199" y="-482.5" font-family="Helvetica,sans-Serif" font-size="10.00"># _reconvertFloat()</text>
<text text-anchor="start" x="199" y="-471.5" font-family="Helvetica,sans-Serif" font-size="10.00"># _disassambleFloat()</text>
<text text-anchor="start" x="199" y="-460.5" font-family="Helvetica,sans-Serif" font-size="10.00"># _reassambleFloat()</text>
</a>
</g>
</g>
<!-- Node8&#45;&gt;Node7 -->
<g id="edge7" class="edge"><title>Node8&#45;&gt;Node7</title>
<path fill="none" stroke="midnightblue" d="M254.255,-443.292C254.439,-430.507 254.628,-417.37 254.81,-404.68"/>
<polygon fill="none" stroke="midnightblue" points="250.753,-443.405 254.109,-453.455 257.752,-443.506 250.753,-443.405"/>
</g>
<!-- Node9&#45;&gt;Node8 -->
<g id="edge8" class="edge"><title>Node9&#45;&gt;Node8</title>
<path fill="none" stroke="midnightblue" d="M162.591,-887.914C160.376,-834.945 160.401,-736.576 184,-657 188.743,-641.008 195.781,-624.793 203.576,-609.586"/>
<polygon fill="none" stroke="midnightblue" points="159.108,-888.369 163.074,-898.194 166.101,-888.041 159.108,-888.369"/>
</g>
<!-- Node10 -->
<g id="node10" class="node"><title>Node10</title>
<g id="a_node10"><a xlink:href="class_sync.html" target="_top" xlink:title="{Sync\n||+ Sync()\l+ addComponent()\l+ addBridge()\l+ receive()\l+ send()\l+ run()\l+ messageInQueue()\l+ finalize()\l+ Sync()\l+ receive()\land 7 more...\l}">
<polygon fill="white" stroke="black" points="193.5,-657.5 193.5,-824.5 312.5,-824.5 312.5,-657.5 193.5,-657.5"/>
<text text-anchor="middle" x="253" y="-812.5" font-family="Helvetica,sans-Serif" font-size="10.00">Sync</text>
<polyline fill="none" stroke="black" points="193.5,-805.5 312.5,-805.5 "/>
<text text-anchor="middle" x="253" y="-793.5" font-family="Helvetica,sans-Serif" font-size="10.00"> </text>
<polyline fill="none" stroke="black" points="193.5,-786.5 312.5,-786.5 "/>
<text text-anchor="start" x="201.5" y="-774.5" font-family="Helvetica,sans-Serif" font-size="10.00">+ Sync()</text>
<text text-anchor="start" x="201.5" y="-763.5" font-family="Helvetica,sans-Serif" font-size="10.00">+ addComponent()</text>
<text text-anchor="start" x="201.5" y="-752.5" font-family="Helvetica,sans-Serif" font-size="10.00">+ addBridge()</text>
<text text-anchor="start" x="201.5" y="-741.5" font-family="Helvetica,sans-Serif" font-size="10.00">+ receive()</text>
<text text-anchor="start" x="201.5" y="-730.5" font-family="Helvetica,sans-Serif" font-size="10.00">+ send()</text>
<text text-anchor="start" x="201.5" y="-719.5" font-family="Helvetica,sans-Serif" font-size="10.00">+ run()</text>
<text text-anchor="start" x="201.5" y="-708.5" font-family="Helvetica,sans-Serif" font-size="10.00">+ messageInQueue()</text>
<text text-anchor="start" x="201.5" y="-697.5" font-family="Helvetica,sans-Serif" font-size="10.00">+ finalize()</text>
<text text-anchor="start" x="201.5" y="-686.5" font-family="Helvetica,sans-Serif" font-size="10.00">+ Sync()</text>
<text text-anchor="start" x="201.5" y="-675.5" font-family="Helvetica,sans-Serif" font-size="10.00">+ receive()</text>
<text text-anchor="start" x="201.5" y="-664.5" font-family="Helvetica,sans-Serif" font-size="10.00">and 7 more...</text>
</a>
</g>
</g>
<!-- Node10&#45;&gt;Node8 -->
<g id="edge10" class="edge"><title>Node10&#45;&gt;Node8</title>
<path fill="none" stroke="#404040" d="M253,-657.394C253,-645.735 253,-633.703 253,-621.923"/>
<polygon fill="none" stroke="#404040" points="253,-621.764 249,-615.764 253,-609.764 257,-615.764 253,-621.764"/>
<text text-anchor="middle" x="277.5" y="-631" font-family="Helvetica,sans-Serif" font-size="10.00"> #_syncer</text>
</g>
<!-- Node11&#45;&gt;Node10 -->
<g id="edge11" class="edge"><title>Node11&#45;&gt;Node10</title>
<path fill="none" stroke="midnightblue" d="M236.963,-1057.48C237.019,-996.068 240.292,-895.567 244.371,-824.523"/>
<polygon fill="none" stroke="midnightblue" points="233.463,-1057.74 236.986,-1067.74 240.463,-1057.73 233.463,-1057.74"/>
</g>
<!-- Node11&#45;&gt;Node10 -->
<g id="edge13" class="edge"><title>Node11&#45;&gt;Node10</title>
<path fill="none" stroke="midnightblue" d="M246.868,-1057.48C251.127,-996.068 254.917,-895.567 255.83,-824.523"/>
<polygon fill="none" stroke="midnightblue" points="243.357,-1057.51 246.125,-1067.74 250.339,-1058.02 243.357,-1057.51"/>
</g>
<!-- Node12 -->
<g id="node12" class="node"><title>Node12</title>
<g id="a_node12"><a xlink:href="classstd_1_1vector.html" target="_top" xlink:title="{std::vector\&lt; CarMessage \&gt;\n||+ ~vector()\l+ at()\l+ operator[]()\l+ front()\l+ back()\l+ data()\l+ begin()\l+ end()\l+ empty()\l+ size()\land 7 more...\l}">
<polygon fill="white" stroke="black" points="299.5,-1029.5 299.5,-1196.5 448.5,-1196.5 448.5,-1029.5 299.5,-1029.5"/>
<text text-anchor="middle" x="374" y="-1184.5" font-family="Helvetica,sans-Serif" font-size="10.00">std::vector&lt; CarMessage &gt;</text>
<polyline fill="none" stroke="black" points="299.5,-1177.5 448.5,-1177.5 "/>
<text text-anchor="middle" x="374" y="-1165.5" font-family="Helvetica,sans-Serif" font-size="10.00"> </text>
<polyline fill="none" stroke="black" points="299.5,-1158.5 448.5,-1158.5 "/>
<text text-anchor="start" x="307.5" y="-1146.5" font-family="Helvetica,sans-Serif" font-size="10.00">+ ~vector()</text>
<text text-anchor="start" x="307.5" y="-1135.5" font-family="Helvetica,sans-Serif" font-size="10.00">+ at()</text>
<text text-anchor="start" x="307.5" y="-1124.5" font-family="Helvetica,sans-Serif" font-size="10.00">+ operator[]()</text>
<text text-anchor="start" x="307.5" y="-1113.5" font-family="Helvetica,sans-Serif" font-size="10.00">+ front()</text>
<text text-anchor="start" x="307.5" y="-1102.5" font-family="Helvetica,sans-Serif" font-size="10.00">+ back()</text>
<text text-anchor="start" x="307.5" y="-1091.5" font-family="Helvetica,sans-Serif" font-size="10.00">+ data()</text>
<text text-anchor="start" x="307.5" y="-1080.5" font-family="Helvetica,sans-Serif" font-size="10.00">+ begin()</text>
<text text-anchor="start" x="307.5" y="-1069.5" font-family="Helvetica,sans-Serif" font-size="10.00">+ end()</text>
<text text-anchor="start" x="307.5" y="-1058.5" font-family="Helvetica,sans-Serif" font-size="10.00">+ empty()</text>
<text text-anchor="start" x="307.5" y="-1047.5" font-family="Helvetica,sans-Serif" font-size="10.00">+ size()</text>
<text text-anchor="start" x="307.5" y="-1036.5" font-family="Helvetica,sans-Serif" font-size="10.00">and 7 more...</text>
</a>
</g>
</g>
<!-- Node12&#45;&gt;Node10 -->
<g id="edge14" class="edge"><title>Node12&#45;&gt;Node10</title>
<path fill="none" stroke="#404040" d="M346.996,-1029.43C328.288,-972.219 303.34,-895.933 283.848,-836.329"/>
<polygon fill="none" stroke="#404040" points="283.756,-836.047 278.089,-831.588 280.026,-824.642 285.693,-829.101 283.756,-836.047"/>
<text text-anchor="middle" x="397.5" y="-924.5" font-family="Helvetica,sans-Serif" font-size="10.00"> +receivedCarMessages</text>
</g>
<!-- Node13 -->
<g id="node13" class="node"><title>Node13</title>
<g id="a_node13"><a xlink:href="class_non_copyable.html" target="_top" xlink:title="{NonCopyable\&lt; vector\l\&lt; CarMessage, unsigned\l int \&gt; \&gt;\n||+ NonCopyable()\l}">
<polygon fill="white" stroke="black" points="305.5,-1267.5 305.5,-1346.5 442.5,-1346.5 442.5,-1267.5 305.5,-1267.5"/>
<text text-anchor="start" x="313.5" y="-1334.5" font-family="Helvetica,sans-Serif" font-size="10.00">NonCopyable&lt; vector</text>
<text text-anchor="start" x="313.5" y="-1323.5" font-family="Helvetica,sans-Serif" font-size="10.00">&lt; CarMessage, unsigned</text>
<text text-anchor="middle" x="374" y="-1312.5" font-family="Helvetica,sans-Serif" font-size="10.00"> int &gt; &gt;</text>
<polyline fill="none" stroke="black" points="305.5,-1305.5 442.5,-1305.5 "/>
<text text-anchor="middle" x="374" y="-1293.5" font-family="Helvetica,sans-Serif" font-size="10.00"> </text>
<polyline fill="none" stroke="black" points="305.5,-1286.5 442.5,-1286.5 "/>
<text text-anchor="start" x="313.5" y="-1274.5" font-family="Helvetica,sans-Serif" font-size="10.00">+ NonCopyable()</text>
</a>
</g>
</g>
<!-- Node13&#45;&gt;Node12 -->
<g id="edge15" class="edge"><title>Node13&#45;&gt;Node12</title>
<path fill="none" stroke="#8b1a1a" d="M374,-1257.02C374,-1238.7 374,-1217.34 374,-1196.81"/>
<polygon fill="none" stroke="#8b1a1a" points="370.5,-1257.15 374,-1267.15 377.5,-1257.15 370.5,-1257.15"/>
</g>
<!-- Node14 -->
<g id="node14" class="node"><title>Node14</title>
<g id="a_node14"><a xlink:href="class_bamocar_d3.html" target="_top" xlink:title="{BamocarD3\n||+ BamocarD3()\l+ requestSpeed()\l+ getSpeed()\l+ requestCurrent()\l+ getCurrent()\l+ setTorque()\l+ requestTemp()\l+ getMotorTemp()\l+ getServoTemp()\l+ getAirTemp()\l+ requestDcVoltage()\l+ getDcVoltage()\l+ getDcVoltageGotCount()\l}">
<polygon fill="white" stroke="black" points="316,-226.5 316,-415.5 462,-415.5 462,-226.5 316,-226.5"/>
<text text-anchor="middle" x="389" y="-403.5" font-family="Helvetica,sans-Serif" font-size="10.00">BamocarD3</text>
<polyline fill="none" stroke="black" points="316,-396.5 462,-396.5 "/>
<text text-anchor="middle" x="389" y="-384.5" font-family="Helvetica,sans-Serif" font-size="10.00"> </text>
<polyline fill="none" stroke="black" points="316,-377.5 462,-377.5 "/>
<text text-anchor="start" x="324" y="-365.5" font-family="Helvetica,sans-Serif" font-size="10.00">+ BamocarD3()</text>
<text text-anchor="start" x="324" y="-354.5" font-family="Helvetica,sans-Serif" font-size="10.00">+ requestSpeed()</text>
<text text-anchor="start" x="324" y="-343.5" font-family="Helvetica,sans-Serif" font-size="10.00">+ getSpeed()</text>
<text text-anchor="start" x="324" y="-332.5" font-family="Helvetica,sans-Serif" font-size="10.00">+ requestCurrent()</text>
<text text-anchor="start" x="324" y="-321.5" font-family="Helvetica,sans-Serif" font-size="10.00">+ getCurrent()</text>
<text text-anchor="start" x="324" y="-310.5" font-family="Helvetica,sans-Serif" font-size="10.00">+ setTorque()</text>
<text text-anchor="start" x="324" y="-299.5" font-family="Helvetica,sans-Serif" font-size="10.00">+ requestTemp()</text>
<text text-anchor="start" x="324" y="-288.5" font-family="Helvetica,sans-Serif" font-size="10.00">+ getMotorTemp()</text>
<text text-anchor="start" x="324" y="-277.5" font-family="Helvetica,sans-Serif" font-size="10.00">+ getServoTemp()</text>
<text text-anchor="start" x="324" y="-266.5" font-family="Helvetica,sans-Serif" font-size="10.00">+ getAirTemp()</text>
<text text-anchor="start" x="324" y="-255.5" font-family="Helvetica,sans-Serif" font-size="10.00">+ requestDcVoltage()</text>
<text text-anchor="start" x="324" y="-244.5" font-family="Helvetica,sans-Serif" font-size="10.00">+ getDcVoltage()</text>
<text text-anchor="start" x="324" y="-233.5" font-family="Helvetica,sans-Serif" font-size="10.00">+ getDcVoltageGotCount()</text>
</a>
</g>
</g>
<!-- Node14&#45;&gt;Node1 -->
<g id="edge16" class="edge"><title>Node14&#45;&gt;Node1</title>
<path fill="none" stroke="#404040" d="M315.757,-231.895C302.648,-216.486 289.017,-200.691 276,-186 273.256,-182.903 270.454,-179.764 267.615,-176.603"/>
<polygon fill="none" stroke="#404040" points="267.575,-176.559 260.585,-174.787 259.532,-167.653 266.522,-169.425 267.575,-176.559"/>
<text text-anchor="middle" x="325" y="-194.5" font-family="Helvetica,sans-Serif" font-size="10.00"> #_bamocar</text>
</g>
</g>
</svg>
