<?xml version="1.0" encoding="UTF-8" standalone="no"?>
<!DOCTYPE svg PUBLIC "-//W3C//DTD SVG 1.1//EN"
 "http://www.w3.org/Graphics/SVG/1.1/DTD/svg11.dtd">
<!-- Generated by graphviz version 2.38.0 (20140413.2041)
 -->
<!-- Title: HardwareBuzzer Pages: 1 -->
<svg width="151pt" height="838pt"
 viewBox="0.00 0.00 151.00 838.00" xmlns="http://www.w3.org/2000/svg" xmlns:xlink="http://www.w3.org/1999/xlink">
<g id="graph0" class="graph" transform="scale(1 1) rotate(0) translate(4 834)">
<title>HardwareBuzzer</title>
<polygon fill="white" stroke="none" points="-4,4 -4,-834 147,-834 147,4 -4,4"/>
<!-- Node1 -->
<g id="node1" class="node"><title>Node1</title>
<polygon fill="#bfbfbf" stroke="black" points="14,-0.5 14,-266.5 129,-266.5 129,-0.5 14,-0.5"/>
<text text-anchor="middle" x="71.5" y="-254.5" font-family="Helvetica,sans-Serif" font-size="10.00">HardwareBuzzer</text>
<polyline fill="none" stroke="black" points="14,-247.5 129,-247.5 "/>
<text text-anchor="start" x="22" y="-235.5" font-family="Helvetica,sans-Serif" font-size="10.00"># _registry</text>
<text text-anchor="start" x="22" y="-224.5" font-family="Helvetica,sans-Serif" font-size="10.00"># _stdValuesLoaded</text>
<text text-anchor="start" x="22" y="-213.5" font-family="Helvetica,sans-Serif" font-size="10.00"># _port</text>
<text text-anchor="start" x="22" y="-202.5" font-family="Helvetica,sans-Serif" font-size="10.00"># _ticker</text>
<text text-anchor="start" x="22" y="-191.5" font-family="Helvetica,sans-Serif" font-size="10.00"># _status</text>
<text text-anchor="start" x="22" y="-180.5" font-family="Helvetica,sans-Serif" font-size="10.00"># _current</text>
<text text-anchor="start" x="22" y="-169.5" font-family="Helvetica,sans-Serif" font-size="10.00"># _lastBeepState</text>
<text text-anchor="start" x="22" y="-158.5" font-family="Helvetica,sans-Serif" font-size="10.00"># _time</text>
<polyline fill="none" stroke="black" points="14,-151.5 129,-151.5 "/>
<text text-anchor="start" x="22" y="-139.5" font-family="Helvetica,sans-Serif" font-size="10.00">+ HardwareBuzzer()</text>
<text text-anchor="start" x="22" y="-128.5" font-family="Helvetica,sans-Serif" font-size="10.00">+ setStatus()</text>
<text text-anchor="start" x="22" y="-117.5" font-family="Helvetica,sans-Serif" font-size="10.00">+ getStatus()</text>
<text text-anchor="start" x="22" y="-106.5" font-family="Helvetica,sans-Serif" font-size="10.00">+ setState()</text>
<text text-anchor="start" x="22" y="-95.5" font-family="Helvetica,sans-Serif" font-size="10.00">+ getState()</text>
<text text-anchor="start" x="22" y="-84.5" font-family="Helvetica,sans-Serif" font-size="10.00">+ setBeep()</text>
<text text-anchor="start" x="22" y="-73.5" font-family="Helvetica,sans-Serif" font-size="10.00">+ getBeep()</text>
<text text-anchor="start" x="22" y="-62.5" font-family="Helvetica,sans-Serif" font-size="10.00">+ setHz()</text>
<text text-anchor="start" x="22" y="-51.5" font-family="Helvetica,sans-Serif" font-size="10.00">+ getHz()</text>
<text text-anchor="start" x="22" y="-40.5" font-family="Helvetica,sans-Serif" font-size="10.00"># _loadStdValues()</text>
<text text-anchor="start" x="22" y="-29.5" font-family="Helvetica,sans-Serif" font-size="10.00"># _beep()</text>
<text text-anchor="start" x="22" y="-18.5" font-family="Helvetica,sans-Serif" font-size="10.00"># _startBeep()</text>
<text text-anchor="start" x="22" y="-7.5" font-family="Helvetica,sans-Serif" font-size="10.00"># _update()</text>
</g>
<!-- Node2 -->
<g id="node2" class="node"><title>Node2</title>
<g id="a_node2"><a xlink:href="class_i_buzzer.html" target="_top" xlink:title="{IBuzzer\n||+ IBuzzer()\l+ setState()\l+ getState()\l+ setBeep()\l+ getBeep()\l+ setHz()\l+ getHz()\l}">
<polygon fill="white" stroke="black" points="33,-303.5 33,-426.5 110,-426.5 110,-303.5 33,-303.5"/>
<text text-anchor="middle" x="71.5" y="-414.5" font-family="Helvetica,sans-Serif" font-size="10.00">IBuzzer</text>
<polyline fill="none" stroke="black" points="33,-407.5 110,-407.5 "/>
<text text-anchor="middle" x="71.5" y="-395.5" font-family="Helvetica,sans-Serif" font-size="10.00"> </text>
<polyline fill="none" stroke="black" points="33,-388.5 110,-388.5 "/>
<text text-anchor="start" x="41" y="-376.5" font-family="Helvetica,sans-Serif" font-size="10.00">+ IBuzzer()</text>
<text text-anchor="start" x="41" y="-365.5" font-family="Helvetica,sans-Serif" font-size="10.00">+ setState()</text>
<text text-anchor="start" x="41" y="-354.5" font-family="Helvetica,sans-Serif" font-size="10.00">+ getState()</text>
<text text-anchor="start" x="41" y="-343.5" font-family="Helvetica,sans-Serif" font-size="10.00">+ setBeep()</text>
<text text-anchor="start" x="41" y="-332.5" font-family="Helvetica,sans-Serif" font-size="10.00">+ getBeep()</text>
<text text-anchor="start" x="41" y="-321.5" font-family="Helvetica,sans-Serif" font-size="10.00">+ setHz()</text>
<text text-anchor="start" x="41" y="-310.5" font-family="Helvetica,sans-Serif" font-size="10.00">+ getHz()</text>
</a>
</g>
</g>
<!-- Node2&#45;&gt;Node1 -->
<g id="edge1" class="edge"><title>Node2&#45;&gt;Node1</title>
<path fill="none" stroke="midnightblue" d="M71.5,-293.16C71.5,-284.594 71.5,-275.644 71.5,-266.546"/>
<polygon fill="none" stroke="midnightblue" points="68.0001,-293.401 71.5,-303.401 75.0001,-293.401 68.0001,-293.401"/>
</g>
<!-- Node3 -->
<g id="node3" class="node"><title>Node3</title>
<g id="a_node3"><a xlink:href="class_i_component.html" target="_top" xlink:title="{IComponent\n||+ IComponent()\l+ IComponent()\l+ setComponentSubId()\l+ getComponentType()\l+ getComponentSubId()\l+ getComponentId()\l+ getObjectType()\l# setComponentType()\l# setObjectType()\l}">
<polygon fill="white" stroke="black" points="4.5,-463.5 4.5,-608.5 138.5,-608.5 138.5,-463.5 4.5,-463.5"/>
<text text-anchor="middle" x="71.5" y="-596.5" font-family="Helvetica,sans-Serif" font-size="10.00">IComponent</text>
<polyline fill="none" stroke="black" points="4.5,-589.5 138.5,-589.5 "/>
<text text-anchor="middle" x="71.5" y="-577.5" font-family="Helvetica,sans-Serif" font-size="10.00"> </text>
<polyline fill="none" stroke="black" points="4.5,-570.5 138.5,-570.5 "/>
<text text-anchor="start" x="12.5" y="-558.5" font-family="Helvetica,sans-Serif" font-size="10.00">+ IComponent()</text>
<text text-anchor="start" x="12.5" y="-547.5" font-family="Helvetica,sans-Serif" font-size="10.00">+ IComponent()</text>
<text text-anchor="start" x="12.5" y="-536.5" font-family="Helvetica,sans-Serif" font-size="10.00">+ setComponentSubId()</text>
<text text-anchor="start" x="12.5" y="-525.5" font-family="Helvetica,sans-Serif" font-size="10.00">+ getComponentType()</text>
<text text-anchor="start" x="12.5" y="-514.5" font-family="Helvetica,sans-Serif" font-size="10.00">+ getComponentSubId()</text>
<text text-anchor="start" x="12.5" y="-503.5" font-family="Helvetica,sans-Serif" font-size="10.00">+ getComponentId()</text>
<text text-anchor="start" x="12.5" y="-492.5" font-family="Helvetica,sans-Serif" font-size="10.00">+ getObjectType()</text>
<text text-anchor="start" x="12.5" y="-481.5" font-family="Helvetica,sans-Serif" font-size="10.00"># setComponentType()</text>
<text text-anchor="start" x="12.5" y="-470.5" font-family="Helvetica,sans-Serif" font-size="10.00"># setObjectType()</text>
</a>
</g>
</g>
<!-- Node3&#45;&gt;Node2 -->
<g id="edge2" class="edge"><title>Node3&#45;&gt;Node2</title>
<path fill="none" stroke="midnightblue" d="M71.5,-453.232C71.5,-444.254 71.5,-435.235 71.5,-426.58"/>
<polygon fill="none" stroke="midnightblue" points="68.0001,-453.329 71.5,-463.329 75.0001,-453.329 68.0001,-453.329"/>
</g>
<!-- Node4 -->
<g id="node4" class="node"><title>Node4</title>
<g id="a_node4"><a xlink:href="class_i_logable.html" target="_top" xlink:title="{ILogable\n||+ setStatus()\l+ getStatus()\l+ getLogValueCount()\l+ getLogValue()\l}">
<polygon fill="white" stroke="black" points="10,-645.5 10,-735.5 133,-735.5 133,-645.5 10,-645.5"/>
<text text-anchor="middle" x="71.5" y="-723.5" font-family="Helvetica,sans-Serif" font-size="10.00">ILogable</text>
<polyline fill="none" stroke="black" points="10,-716.5 133,-716.5 "/>
<text text-anchor="middle" x="71.5" y="-704.5" font-family="Helvetica,sans-Serif" font-size="10.00"> </text>
<polyline fill="none" stroke="black" points="10,-697.5 133,-697.5 "/>
<text text-anchor="start" x="18" y="-685.5" font-family="Helvetica,sans-Serif" font-size="10.00">+ setStatus()</text>
<text text-anchor="start" x="18" y="-674.5" font-family="Helvetica,sans-Serif" font-size="10.00">+ getStatus()</text>
<text text-anchor="start" x="18" y="-663.5" font-family="Helvetica,sans-Serif" font-size="10.00">+ getLogValueCount()</text>
<text text-anchor="start" x="18" y="-652.5" font-family="Helvetica,sans-Serif" font-size="10.00">+ getLogValue()</text>
</a>
</g>
</g>
<!-- Node4&#45;&gt;Node3 -->
<g id="edge3" class="edge"><title>Node4&#45;&gt;Node3</title>
<path fill="none" stroke="midnightblue" d="M71.5,-635.13C71.5,-626.526 71.5,-617.516 71.5,-608.591"/>
<polygon fill="none" stroke="midnightblue" points="68.0001,-635.391 71.5,-645.391 75.0001,-635.391 68.0001,-635.391"/>
</g>
<!-- Node5 -->
<g id="node5" class="node"><title>Node5</title>
<g id="a_node5"><a xlink:href="class_non_copyable.html" target="_top" xlink:title="{NonCopyable\&lt; ILogable \&gt;\n||+ NonCopyable()\l}">
<polygon fill="white" stroke="black" points="0,-772.5 0,-829.5 143,-829.5 143,-772.5 0,-772.5"/>
<text text-anchor="middle" x="71.5" y="-817.5" font-family="Helvetica,sans-Serif" font-size="10.00">NonCopyable&lt; ILogable &gt;</text>
<polyline fill="none" stroke="black" points="0,-810.5 143,-810.5 "/>
<text text-anchor="middle" x="71.5" y="-798.5" font-family="Helvetica,sans-Serif" font-size="10.00"> </text>
<polyline fill="none" stroke="black" points="0,-791.5 143,-791.5 "/>
<text text-anchor="start" x="8" y="-779.5" font-family="Helvetica,sans-Serif" font-size="10.00">+ NonCopyable()</text>
</a>
</g>
</g>
<!-- Node5&#45;&gt;Node4 -->
<g id="edge4" class="edge"><title>Node5&#45;&gt;Node4</title>
<path fill="none" stroke="#8b1a1a" d="M71.5,-762.214C71.5,-753.609 71.5,-744.394 71.5,-735.554"/>
<polygon fill="none" stroke="#8b1a1a" points="68.0001,-762.34 71.5,-772.34 75.0001,-762.34 68.0001,-762.34"/>
</g>
</g>
</svg>
