<?xml version="1.0" encoding="UTF-8" standalone="no"?>
<!DOCTYPE svg PUBLIC "-//W3C//DTD SVG 1.1//EN"
 "http://www.w3.org/Graphics/SVG/1.1/DTD/svg11.dtd">
<!-- Generated by graphviz version 2.38.0 (20140413.2041)
 -->
<!-- Title: HardwareLed Pages: 1 -->
<!--zoomable 1534 -->
<svg id="main" version="1.1" xmlns="http://www.w3.org/2000/svg" xmlns:xlink="http://www.w3.org/1999/xlink" xml:space="preserve" onload="init(evt)">
<style type="text/css"><![CDATA[
.edge:hover path { stroke: red; }
.edge:hover polygon { stroke: red; fill: red; }
]]></style>
<script type="text/javascript"><![CDATA[
var edges = document.getElementsByTagName('g');
if (edges && edges.length) {
  for (var i=0;i<edges.length;i++) {
    if (edges[i].id.substr(0,4)=='edge') {
      edges[i].setAttribute('class','edge');
    }
  }
}
]]></script>
        <defs>
                <circle id="rim" cx="0" cy="0" r="7"/>
                <circle id="rim2" cx="0" cy="0" r="3.5"/>
                <g id="zoomPlus">
                        <use xlink:href="#rim" fill="#404040">
                                <set attributeName="fill" to="#808080" begin="zoomplus.mouseover" end="zoomplus.mouseout"/>
                        </use>
                        <path d="M-4,0h8M0,-4v8" fill="none" stroke="white" stroke-width="1.5" pointer-events="none"/>
                </g>
                <g id="zoomMin">
                        <use xlink:href="#rim" fill="#404040">
                                <set attributeName="fill" to="#808080" begin="zoomminus.mouseover" end="zoomminus.mouseout"/>
                        </use>
                        <path d="M-4,0h8" fill="none" stroke="white" stroke-width="1.5" pointer-events="none"/>
                </g>
                <g id="dirArrow">
                        <path fill="none" stroke="white" stroke-width="1.5" d="M0,-3.0v7 M-2.5,-0.5L0,-3.0L2.5,-0.5"/>
                </g>
               <g id="resetDef">
                       <use xlink:href="#rim2" fill="#404040">
                               <set attributeName="fill" to="#808080" begin="reset.mouseover" end="reset.mouseout"/>
                       </use>
               </g>
        </defs>

<script type="text/javascript">
var viewWidth = 588;
var viewHeight = 1534;
var sectionId = 'dynsection-1';
</script>
<script xlink:href="svgpan.js"/>
<svg id="graph" class="graph">
<g id="viewport">
<title>HardwareLed</title>
<polygon fill="white" stroke="none" points="-4,4 -4,-1530 584,-1530 584,4 -4,4"/>
<!-- Node1 -->
<g id="node1" class="node"><title>Node1</title>
<polygon fill="#bfbfbf" stroke="black" points="292.5,-0.5 292.5,-233.5 428.5,-233.5 428.5,-0.5 292.5,-0.5"/>
<text text-anchor="middle" x="360.5" y="-221.5" font-family="Helvetica,sans-Serif" font-size="10.00">HardwareLed</text>
<polyline fill="none" stroke="black" points="292.5,-214.5 428.5,-214.5 "/>
<text text-anchor="start" x="300.5" y="-202.5" font-family="Helvetica,sans-Serif" font-size="10.00"># _state</text>
<text text-anchor="start" x="300.5" y="-191.5" font-family="Helvetica,sans-Serif" font-size="10.00"># _stateLast</text>
<text text-anchor="start" x="300.5" y="-180.5" font-family="Helvetica,sans-Serif" font-size="10.00"># _mode</text>
<text text-anchor="start" x="300.5" y="-169.5" font-family="Helvetica,sans-Serif" font-size="10.00"># _modeLast</text>
<text text-anchor="start" x="300.5" y="-158.5" font-family="Helvetica,sans-Serif" font-size="10.00"># _lastBlinkingState</text>
<polyline fill="none" stroke="black" points="292.5,-151.5 428.5,-151.5 "/>
<text text-anchor="start" x="300.5" y="-139.5" font-family="Helvetica,sans-Serif" font-size="10.00">+ HardwareLed()</text>
<text text-anchor="start" x="300.5" y="-128.5" font-family="Helvetica,sans-Serif" font-size="10.00">+ setState()</text>
<text text-anchor="start" x="300.5" y="-117.5" font-family="Helvetica,sans-Serif" font-size="10.00">+ setBrightness()</text>
<text text-anchor="start" x="300.5" y="-106.5" font-family="Helvetica,sans-Serif" font-size="10.00">+ setBlinking()</text>
<text text-anchor="start" x="300.5" y="-95.5" font-family="Helvetica,sans-Serif" font-size="10.00">+ getState()</text>
<text text-anchor="start" x="300.5" y="-84.5" font-family="Helvetica,sans-Serif" font-size="10.00">+ getBrightness()</text>
<text text-anchor="start" x="300.5" y="-73.5" font-family="Helvetica,sans-Serif" font-size="10.00">+ getBlinking()</text>
<text text-anchor="start" x="300.5" y="-62.5" font-family="Helvetica,sans-Serif" font-size="10.00">+ receive()</text>
<text text-anchor="start" x="300.5" y="-51.5" font-family="Helvetica,sans-Serif" font-size="10.00">+ setStatus()</text>
<text text-anchor="start" x="300.5" y="-40.5" font-family="Helvetica,sans-Serif" font-size="10.00">+ getStatus()</text>
<text text-anchor="start" x="300.5" y="-29.5" font-family="Helvetica,sans-Serif" font-size="10.00"># _refresh()</text>
<text text-anchor="start" x="300.5" y="-18.5" font-family="Helvetica,sans-Serif" font-size="10.00"># _attachBlinkingTicker()</text>
<text text-anchor="start" x="300.5" y="-7.5" font-family="Helvetica,sans-Serif" font-size="10.00"># _blinkingLoop()</text>
</g>
<!-- Node2 -->
<g id="node2" class="node"><title>Node2</title>
<g id="a_node2"><a xlink:href="class_i_led.html" target="_top" xlink:title="{ILed\n||+ ILed()\l+ setState()\l+ setBrightness()\l+ setBlinking()\l+ getState()\l+ getBrightness()\l+ getBlinking()\l}">
<polygon fill="white" stroke="black" points="257.5,-303.5 257.5,-426.5 359.5,-426.5 359.5,-303.5 257.5,-303.5"/>
<text text-anchor="middle" x="308.5" y="-414.5" font-family="Helvetica,sans-Serif" font-size="10.00">ILed</text>
<polyline fill="none" stroke="black" points="257.5,-407.5 359.5,-407.5 "/>
<text text-anchor="middle" x="308.5" y="-395.5" font-family="Helvetica,sans-Serif" font-size="10.00"> </text>
<polyline fill="none" stroke="black" points="257.5,-388.5 359.5,-388.5 "/>
<text text-anchor="start" x="265.5" y="-376.5" font-family="Helvetica,sans-Serif" font-size="10.00">+ ILed()</text>
<text text-anchor="start" x="265.5" y="-365.5" font-family="Helvetica,sans-Serif" font-size="10.00">+ setState()</text>
<text text-anchor="start" x="265.5" y="-354.5" font-family="Helvetica,sans-Serif" font-size="10.00">+ setBrightness()</text>
<text text-anchor="start" x="265.5" y="-343.5" font-family="Helvetica,sans-Serif" font-size="10.00">+ setBlinking()</text>
<text text-anchor="start" x="265.5" y="-332.5" font-family="Helvetica,sans-Serif" font-size="10.00">+ getState()</text>
<text text-anchor="start" x="265.5" y="-321.5" font-family="Helvetica,sans-Serif" font-size="10.00">+ getBrightness()</text>
<text text-anchor="start" x="265.5" y="-310.5" font-family="Helvetica,sans-Serif" font-size="10.00">+ getBlinking()</text>
</a>
</g>
</g>
<!-- Node2&#45;&gt;Node1 -->
<g id="edge1" class="edge"><title>Node2&#45;&gt;Node1</title>
<path fill="none" stroke="midnightblue" d="M323.434,-293.35C327.372,-274.721 331.726,-254.121 336.025,-233.785"/>
<polygon fill="none" stroke="midnightblue" points="319.998,-292.683 321.354,-303.191 326.846,-294.131 319.998,-292.683"/>
</g>
<!-- Node3 -->
<g id="node3" class="node"><title>Node3</title>
<g id="a_node3"><a xlink:href="class_self_syncable.html" target="_top" xlink:title="{SelfSyncable\n|# _syncerAttached\l|+ attach()\l+ detach()\l# _sendCommand()\l# _sendCommand()\l# _sendCommand()\l# _send()\l# _convertFloat()\l# _reconvertFloat()\l# _disassambleFloat()\l# _reassambleFloat()\l}">
<polygon fill="white" stroke="black" points="177.5,-486.5 177.5,-642.5 301.5,-642.5 301.5,-486.5 177.5,-486.5"/>
<text text-anchor="middle" x="239.5" y="-630.5" font-family="Helvetica,sans-Serif" font-size="10.00">SelfSyncable</text>
<polyline fill="none" stroke="black" points="177.5,-623.5 301.5,-623.5 "/>
<text text-anchor="start" x="185.5" y="-611.5" font-family="Helvetica,sans-Serif" font-size="10.00"># _syncerAttached</text>
<polyline fill="none" stroke="black" points="177.5,-604.5 301.5,-604.5 "/>
<text text-anchor="start" x="185.5" y="-592.5" font-family="Helvetica,sans-Serif" font-size="10.00">+ attach()</text>
<text text-anchor="start" x="185.5" y="-581.5" font-family="Helvetica,sans-Serif" font-size="10.00">+ detach()</text>
<text text-anchor="start" x="185.5" y="-570.5" font-family="Helvetica,sans-Serif" font-size="10.00"># _sendCommand()</text>
<text text-anchor="start" x="185.5" y="-559.5" font-family="Helvetica,sans-Serif" font-size="10.00"># _sendCommand()</text>
<text text-anchor="start" x="185.5" y="-548.5" font-family="Helvetica,sans-Serif" font-size="10.00"># _sendCommand()</text>
<text text-anchor="start" x="185.5" y="-537.5" font-family="Helvetica,sans-Serif" font-size="10.00"># _send()</text>
<text text-anchor="start" x="185.5" y="-526.5" font-family="Helvetica,sans-Serif" font-size="10.00"># _convertFloat()</text>
<text text-anchor="start" x="185.5" y="-515.5" font-family="Helvetica,sans-Serif" font-size="10.00"># _reconvertFloat()</text>
<text text-anchor="start" x="185.5" y="-504.5" font-family="Helvetica,sans-Serif" font-size="10.00"># _disassambleFloat()</text>
<text text-anchor="start" x="185.5" y="-493.5" font-family="Helvetica,sans-Serif" font-size="10.00"># _reassambleFloat()</text>
</a>
</g>
</g>
<!-- Node3&#45;&gt;Node2 -->
<g id="edge2" class="edge"><title>Node3&#45;&gt;Node2</title>
<path fill="none" stroke="midnightblue" d="M269.907,-476.465C275.779,-459.658 281.811,-442.392 287.311,-426.651"/>
<polygon fill="none" stroke="midnightblue" points="266.468,-475.698 266.474,-486.293 273.076,-478.007 266.468,-475.698"/>
</g>
<!-- Node17 -->
<g id="node17" class="node"><title>Node17</title>
<g id="a_node17"><a xlink:href="class_i_registry.html" target="_top" xlink:title="{IRegistry\n||+ IRegistry()\l+ getReady()\l+ setReady()\l+ getFloat()\l+ getUInt8()\l+ getUInt16()\l+ getUInt32()\l+ getInt8()\l+ getInt16()\l+ getInt32()\land 9 more...\l}">
<polygon fill="white" stroke="black" points="156,-281.5 156,-448.5 239,-448.5 239,-281.5 156,-281.5"/>
<text text-anchor="middle" x="197.5" y="-436.5" font-family="Helvetica,sans-Serif" font-size="10.00">IRegistry</text>
<polyline fill="none" stroke="black" points="156,-429.5 239,-429.5 "/>
<text text-anchor="middle" x="197.5" y="-417.5" font-family="Helvetica,sans-Serif" font-size="10.00"> </text>
<polyline fill="none" stroke="black" points="156,-410.5 239,-410.5 "/>
<text text-anchor="start" x="164" y="-398.5" font-family="Helvetica,sans-Serif" font-size="10.00">+ IRegistry()</text>
<text text-anchor="start" x="164" y="-387.5" font-family="Helvetica,sans-Serif" font-size="10.00">+ getReady()</text>
<text text-anchor="start" x="164" y="-376.5" font-family="Helvetica,sans-Serif" font-size="10.00">+ setReady()</text>
<text text-anchor="start" x="164" y="-365.5" font-family="Helvetica,sans-Serif" font-size="10.00">+ getFloat()</text>
<text text-anchor="start" x="164" y="-354.5" font-family="Helvetica,sans-Serif" font-size="10.00">+ getUInt8()</text>
<text text-anchor="start" x="164" y="-343.5" font-family="Helvetica,sans-Serif" font-size="10.00">+ getUInt16()</text>
<text text-anchor="start" x="164" y="-332.5" font-family="Helvetica,sans-Serif" font-size="10.00">+ getUInt32()</text>
<text text-anchor="start" x="164" y="-321.5" font-family="Helvetica,sans-Serif" font-size="10.00">+ getInt8()</text>
<text text-anchor="start" x="164" y="-310.5" font-family="Helvetica,sans-Serif" font-size="10.00">+ getInt16()</text>
<text text-anchor="start" x="164" y="-299.5" font-family="Helvetica,sans-Serif" font-size="10.00">+ getInt32()</text>
<text text-anchor="start" x="164" y="-288.5" font-family="Helvetica,sans-Serif" font-size="10.00">and 9 more...</text>
</a>
</g>
</g>
<!-- Node3&#45;&gt;Node17 -->
<g id="edge19" class="edge"><title>Node3&#45;&gt;Node17</title>
<path fill="none" stroke="midnightblue" d="M220.973,-476.38C219.017,-467.181 217.032,-457.846 215.087,-448.699"/>
<polygon fill="none" stroke="midnightblue" points="217.578,-477.24 223.081,-486.293 224.425,-475.783 217.578,-477.24"/>
</g>
<!-- Node4 -->
<g id="node4" class="node"><title>Node4</title>
<g id="a_node4"><a xlink:href="class_i_communication.html" target="_top" xlink:title="{ICommunication\n||+ receive()\l}">
<polygon fill="white" stroke="black" points="243,-876.5 243,-933.5 338,-933.5 338,-876.5 243,-876.5"/>
<text text-anchor="middle" x="290.5" y="-921.5" font-family="Helvetica,sans-Serif" font-size="10.00">ICommunication</text>
<polyline fill="none" stroke="black" points="243,-914.5 338,-914.5 "/>
<text text-anchor="middle" x="290.5" y="-902.5" font-family="Helvetica,sans-Serif" font-size="10.00"> </text>
<polyline fill="none" stroke="black" points="243,-895.5 338,-895.5 "/>
<text text-anchor="start" x="251" y="-883.5" font-family="Helvetica,sans-Serif" font-size="10.00">+ receive()</text>
</a>
</g>
</g>
<!-- Node4&#45;&gt;Node3 -->
<g id="edge3" class="edge"><title>Node4&#45;&gt;Node3</title>
<path fill="none" stroke="midnightblue" d="M292.241,-865.991C293.595,-817.726 293.121,-732.165 277.5,-661 276.18,-654.987 274.526,-648.86 272.651,-642.759"/>
<polygon fill="none" stroke="midnightblue" points="288.733,-866.171 291.908,-876.279 295.73,-866.398 288.733,-866.171"/>
</g>
<!-- Node5 -->
<g id="node5" class="node"><title>Node5</title>
<g id="a_node5"><a xlink:href="class_i_component.html" target="_top" xlink:title="{IComponent\n||+ IComponent()\l+ IComponent()\l+ setComponentSubId()\l+ getComponentType()\l+ getComponentSubId()\l+ getComponentId()\l+ getObjectType()\l# setComponentType()\l# setObjectType()\l}">
<polygon fill="white" stroke="black" points="190.5,-1157.5 190.5,-1302.5 324.5,-1302.5 324.5,-1157.5 190.5,-1157.5"/>
<text text-anchor="middle" x="257.5" y="-1290.5" font-family="Helvetica,sans-Serif" font-size="10.00">IComponent</text>
<polyline fill="none" stroke="black" points="190.5,-1283.5 324.5,-1283.5 "/>
<text text-anchor="middle" x="257.5" y="-1271.5" font-family="Helvetica,sans-Serif" font-size="10.00"> </text>
<polyline fill="none" stroke="black" points="190.5,-1264.5 324.5,-1264.5 "/>
<text text-anchor="start" x="198.5" y="-1252.5" font-family="Helvetica,sans-Serif" font-size="10.00">+ IComponent()</text>
<text text-anchor="start" x="198.5" y="-1241.5" font-family="Helvetica,sans-Serif" font-size="10.00">+ IComponent()</text>
<text text-anchor="start" x="198.5" y="-1230.5" font-family="Helvetica,sans-Serif" font-size="10.00">+ setComponentSubId()</text>
<text text-anchor="start" x="198.5" y="-1219.5" font-family="Helvetica,sans-Serif" font-size="10.00">+ getComponentType()</text>
<text text-anchor="start" x="198.5" y="-1208.5" font-family="Helvetica,sans-Serif" font-size="10.00">+ getComponentSubId()</text>
<text text-anchor="start" x="198.5" y="-1197.5" font-family="Helvetica,sans-Serif" font-size="10.00">+ getComponentId()</text>
<text text-anchor="start" x="198.5" y="-1186.5" font-family="Helvetica,sans-Serif" font-size="10.00">+ getObjectType()</text>
<text text-anchor="start" x="198.5" y="-1175.5" font-family="Helvetica,sans-Serif" font-size="10.00"># setComponentType()</text>
<text text-anchor="start" x="198.5" y="-1164.5" font-family="Helvetica,sans-Serif" font-size="10.00"># setObjectType()</text>
</a>
</g>
</g>
<!-- Node5&#45;&gt;Node4 -->
<g id="edge4" class="edge"><title>Node5&#45;&gt;Node4</title>
<path fill="none" stroke="midnightblue" d="M265.857,-1147.2C273.003,-1077.26 282.868,-980.706 287.659,-933.805"/>
<polygon fill="none" stroke="midnightblue" points="262.358,-1147.01 264.824,-1157.32 269.322,-1147.72 262.358,-1147.01"/>
</g>
<!-- Node9 -->
<g id="node9" class="node"><title>Node9</title>
<g id="a_node9"><a xlink:href="class_i_runable.html" target="_top" xlink:title="{IRunable\n||+ IRunable()\l+ run()\l+ setStatus()\l+ getStatus()\l}">
<polygon fill="white" stroke="black" points="174,-991 174,-1081 257,-1081 257,-991 174,-991"/>
<text text-anchor="middle" x="215.5" y="-1069" font-family="Helvetica,sans-Serif" font-size="10.00">IRunable</text>
<polyline fill="none" stroke="black" points="174,-1062 257,-1062 "/>
<text text-anchor="middle" x="215.5" y="-1050" font-family="Helvetica,sans-Serif" font-size="10.00"> </text>
<polyline fill="none" stroke="black" points="174,-1043 257,-1043 "/>
<text text-anchor="start" x="182" y="-1031" font-family="Helvetica,sans-Serif" font-size="10.00">+ IRunable()</text>
<text text-anchor="start" x="182" y="-1020" font-family="Helvetica,sans-Serif" font-size="10.00">+ run()</text>
<text text-anchor="start" x="182" y="-1009" font-family="Helvetica,sans-Serif" font-size="10.00">+ setStatus()</text>
<text text-anchor="start" x="182" y="-998" font-family="Helvetica,sans-Serif" font-size="10.00">+ getStatus()</text>
</a>
</g>
</g>
<!-- Node5&#45;&gt;Node9 -->
<g id="edge9" class="edge"><title>Node5&#45;&gt;Node9</title>
<path fill="none" stroke="midnightblue" d="M239.615,-1147.24C234.649,-1124.54 229.445,-1100.75 225.147,-1081.1"/>
<polygon fill="none" stroke="midnightblue" points="236.245,-1148.21 241.801,-1157.23 243.083,-1146.72 236.245,-1148.21"/>
</g>
<!-- Node6 -->
<g id="node6" class="node"><title>Node6</title>
<g id="a_node6"><a xlink:href="class_i_logable.html" target="_top" xlink:title="{ILogable\n||+ setStatus()\l+ getStatus()\l+ getLogValueCount()\l+ getLogValue()\l}">
<polygon fill="white" stroke="black" points="196,-1340.5 196,-1430.5 319,-1430.5 319,-1340.5 196,-1340.5"/>
<text text-anchor="middle" x="257.5" y="-1418.5" font-family="Helvetica,sans-Serif" font-size="10.00">ILogable</text>
<polyline fill="none" stroke="black" points="196,-1411.5 319,-1411.5 "/>
<text text-anchor="middle" x="257.5" y="-1399.5" font-family="Helvetica,sans-Serif" font-size="10.00"> </text>
<polyline fill="none" stroke="black" points="196,-1392.5 319,-1392.5 "/>
<text text-anchor="start" x="204" y="-1380.5" font-family="Helvetica,sans-Serif" font-size="10.00">+ setStatus()</text>
<text text-anchor="start" x="204" y="-1369.5" font-family="Helvetica,sans-Serif" font-size="10.00">+ getStatus()</text>
<text text-anchor="start" x="204" y="-1358.5" font-family="Helvetica,sans-Serif" font-size="10.00">+ getLogValueCount()</text>
<text text-anchor="start" x="204" y="-1347.5" font-family="Helvetica,sans-Serif" font-size="10.00">+ getLogValue()</text>
</a>
</g>
</g>
<!-- Node6&#45;&gt;Node5 -->
<g id="edge5" class="edge"><title>Node6&#45;&gt;Node5</title>
<path fill="none" stroke="midnightblue" d="M257.5,-1329.98C257.5,-1321.16 257.5,-1311.92 257.5,-1302.77"/>
<polygon fill="none" stroke="midnightblue" points="254,-1330.1 257.5,-1340.1 261,-1330.1 254,-1330.1"/>
</g>
<!-- Node7 -->
<g id="node7" class="node"><title>Node7</title>
<g id="a_node7"><a xlink:href="class_non_copyable.html" target="_top" xlink:title="{NonCopyable\&lt; ILogable \&gt;\n||+ NonCopyable()\l}">
<polygon fill="white" stroke="black" points="186,-1468.5 186,-1525.5 329,-1525.5 329,-1468.5 186,-1468.5"/>
<text text-anchor="middle" x="257.5" y="-1513.5" font-family="Helvetica,sans-Serif" font-size="10.00">NonCopyable&lt; ILogable &gt;</text>
<polyline fill="none" stroke="black" points="186,-1506.5 329,-1506.5 "/>
<text text-anchor="middle" x="257.5" y="-1494.5" font-family="Helvetica,sans-Serif" font-size="10.00"> </text>
<polyline fill="none" stroke="black" points="186,-1487.5 329,-1487.5 "/>
<text text-anchor="start" x="194" y="-1475.5" font-family="Helvetica,sans-Serif" font-size="10.00">+ NonCopyable()</text>
</a>
</g>
</g>
<!-- Node7&#45;&gt;Node6 -->
<g id="edge6" class="edge"><title>Node7&#45;&gt;Node6</title>
<path fill="none" stroke="#8b1a1a" d="M257.5,-1458.31C257.5,-1449.43 257.5,-1439.88 257.5,-1430.74"/>
<polygon fill="none" stroke="#8b1a1a" points="254,-1458.37 257.5,-1468.37 261,-1458.37 254,-1458.37"/>
</g>
<!-- Node8 -->
<g id="node8" class="node"><title>Node8</title>
<g id="a_node8"><a xlink:href="class_sync.html" target="_top" xlink:title="{Sync\n||+ Sync()\l+ addComponent()\l+ addBridge()\l+ receive()\l+ send()\l+ run()\l+ messageInQueue()\l+ finalize()\l+ Sync()\l+ receive()\land 7 more...\l}">
<polygon fill="white" stroke="black" points="148,-690.5 148,-857.5 267,-857.5 267,-690.5 148,-690.5"/>
<text text-anchor="middle" x="207.5" y="-845.5" font-family="Helvetica,sans-Serif" font-size="10.00">Sync</text>
<polyline fill="none" stroke="black" points="148,-838.5 267,-838.5 "/>
<text text-anchor="middle" x="207.5" y="-826.5" font-family="Helvetica,sans-Serif" font-size="10.00"> </text>
<polyline fill="none" stroke="black" points="148,-819.5 267,-819.5 "/>
<text text-anchor="start" x="156" y="-807.5" font-family="Helvetica,sans-Serif" font-size="10.00">+ Sync()</text>
<text text-anchor="start" x="156" y="-796.5" font-family="Helvetica,sans-Serif" font-size="10.00">+ addComponent()</text>
<text text-anchor="start" x="156" y="-785.5" font-family="Helvetica,sans-Serif" font-size="10.00">+ addBridge()</text>
<text text-anchor="start" x="156" y="-774.5" font-family="Helvetica,sans-Serif" font-size="10.00">+ receive()</text>
<text text-anchor="start" x="156" y="-763.5" font-family="Helvetica,sans-Serif" font-size="10.00">+ send()</text>
<text text-anchor="start" x="156" y="-752.5" font-family="Helvetica,sans-Serif" font-size="10.00">+ run()</text>
<text text-anchor="start" x="156" y="-741.5" font-family="Helvetica,sans-Serif" font-size="10.00">+ messageInQueue()</text>
<text text-anchor="start" x="156" y="-730.5" font-family="Helvetica,sans-Serif" font-size="10.00">+ finalize()</text>
<text text-anchor="start" x="156" y="-719.5" font-family="Helvetica,sans-Serif" font-size="10.00">+ Sync()</text>
<text text-anchor="start" x="156" y="-708.5" font-family="Helvetica,sans-Serif" font-size="10.00">+ receive()</text>
<text text-anchor="start" x="156" y="-697.5" font-family="Helvetica,sans-Serif" font-size="10.00">and 7 more...</text>
</a>
</g>
</g>
<!-- Node8&#45;&gt;Node3 -->
<g id="edge7" class="edge"><title>Node8&#45;&gt;Node3</title>
<path fill="none" stroke="#404040" d="M220.239,-690.394C222.037,-678.735 223.893,-666.703 225.709,-654.923"/>
<polygon fill="none" stroke="#404040" points="225.755,-654.624 222.717,-648.084 227.585,-642.764 230.623,-649.304 225.755,-654.624"/>
<text text-anchor="middle" x="249" y="-664" font-family="Helvetica,sans-Serif" font-size="10.00"> #_syncer</text>
</g>
<!-- Node9&#45;&gt;Node8 -->
<g id="edge8" class="edge"><title>Node9&#45;&gt;Node8</title>
<path fill="none" stroke="midnightblue" d="M208.223,-980.718C205.908,-945.146 204.213,-897.965 203.709,-857.76"/>
<polygon fill="none" stroke="midnightblue" points="204.745,-981.16 208.926,-990.895 211.728,-980.677 204.745,-981.16"/>
</g>
<!-- Node9&#45;&gt;Node8 -->
<g id="edge10" class="edge"><title>Node9&#45;&gt;Node8</title>
<path fill="none" stroke="midnightblue" d="M219.437,-980.718C219.562,-945.146 218.354,-897.965 216.384,-857.76"/>
<polygon fill="none" stroke="midnightblue" points="215.935,-980.868 219.36,-990.895 222.935,-980.921 215.935,-980.868"/>
</g>
<!-- Node10 -->
<g id="node10" class="node"><title>Node10</title>
<g id="a_node10"><a xlink:href="classstd_1_1vector.html" target="_top" xlink:title="{std::vector\&lt; CarMessage \&gt;\n||+ ~vector()\l+ at()\l+ operator[]()\l+ front()\l+ back()\l+ data()\l+ begin()\l+ end()\l+ empty()\l+ size()\land 7 more...\l}">
<polygon fill="white" stroke="black" points="0,-952.5 0,-1119.5 149,-1119.5 149,-952.5 0,-952.5"/>
<text text-anchor="middle" x="74.5" y="-1107.5" font-family="Helvetica,sans-Serif" font-size="10.00">std::vector&lt; CarMessage &gt;</text>
<polyline fill="none" stroke="black" points="0,-1100.5 149,-1100.5 "/>
<text text-anchor="middle" x="74.5" y="-1088.5" font-family="Helvetica,sans-Serif" font-size="10.00"> </text>
<polyline fill="none" stroke="black" points="0,-1081.5 149,-1081.5 "/>
<text text-anchor="start" x="8" y="-1069.5" font-family="Helvetica,sans-Serif" font-size="10.00">+ ~vector()</text>
<text text-anchor="start" x="8" y="-1058.5" font-family="Helvetica,sans-Serif" font-size="10.00">+ at()</text>
<text text-anchor="start" x="8" y="-1047.5" font-family="Helvetica,sans-Serif" font-size="10.00">+ operator[]()</text>
<text text-anchor="start" x="8" y="-1036.5" font-family="Helvetica,sans-Serif" font-size="10.00">+ front()</text>
<text text-anchor="start" x="8" y="-1025.5" font-family="Helvetica,sans-Serif" font-size="10.00">+ back()</text>
<text text-anchor="start" x="8" y="-1014.5" font-family="Helvetica,sans-Serif" font-size="10.00">+ data()</text>
<text text-anchor="start" x="8" y="-1003.5" font-family="Helvetica,sans-Serif" font-size="10.00">+ begin()</text>
<text text-anchor="start" x="8" y="-992.5" font-family="Helvetica,sans-Serif" font-size="10.00">+ end()</text>
<text text-anchor="start" x="8" y="-981.5" font-family="Helvetica,sans-Serif" font-size="10.00">+ empty()</text>
<text text-anchor="start" x="8" y="-970.5" font-family="Helvetica,sans-Serif" font-size="10.00">+ size()</text>
<text text-anchor="start" x="8" y="-959.5" font-family="Helvetica,sans-Serif" font-size="10.00">and 7 more...</text>
</a>
</g>
</g>
<!-- Node10&#45;&gt;Node8 -->
<g id="edge11" class="edge"><title>Node10&#45;&gt;Node8</title>
<path fill="none" stroke="#404040" d="M71.1595,-952.366C73.1165,-926.722 78.4694,-899.138 90.5,-876 101.778,-854.309 119.848,-835.265 138.446,-819.731"/>
<polygon fill="none" stroke="#404040" points="138.525,-819.668 140.704,-812.794 147.888,-812.162 145.708,-819.036 138.525,-819.668"/>
<text text-anchor="middle" x="149" y="-902.5" font-family="Helvetica,sans-Serif" font-size="10.00"> +receivedCarMessages</text>
</g>
<!-- Node11 -->
<g id="node11" class="node"><title>Node11</title>
<g id="a_node11"><a xlink:href="class_non_copyable.html" target="_top" xlink:title="{NonCopyable\&lt; vector\l\&lt; CarMessage, unsigned\l int \&gt; \&gt;\n||+ NonCopyable()\l}">
<polygon fill="white" stroke="black" points="6,-1190.5 6,-1269.5 143,-1269.5 143,-1190.5 6,-1190.5"/>
<text text-anchor="start" x="14" y="-1257.5" font-family="Helvetica,sans-Serif" font-size="10.00">NonCopyable&lt; vector</text>
<text text-anchor="start" x="14" y="-1246.5" font-family="Helvetica,sans-Serif" font-size="10.00">&lt; CarMessage, unsigned</text>
<text text-anchor="middle" x="74.5" y="-1235.5" font-family="Helvetica,sans-Serif" font-size="10.00"> int &gt; &gt;</text>
<polyline fill="none" stroke="black" points="6,-1228.5 143,-1228.5 "/>
<text text-anchor="middle" x="74.5" y="-1216.5" font-family="Helvetica,sans-Serif" font-size="10.00"> </text>
<polyline fill="none" stroke="black" points="6,-1209.5 143,-1209.5 "/>
<text text-anchor="start" x="14" y="-1197.5" font-family="Helvetica,sans-Serif" font-size="10.00">+ NonCopyable()</text>
</a>
</g>
</g>
<!-- Node11&#45;&gt;Node10 -->
<g id="edge12" class="edge"><title>Node11&#45;&gt;Node10</title>
<path fill="none" stroke="#8b1a1a" d="M74.5,-1180.02C74.5,-1161.7 74.5,-1140.34 74.5,-1119.81"/>
<polygon fill="none" stroke="#8b1a1a" points="71.0001,-1180.15 74.5,-1190.15 78.0001,-1180.15 71.0001,-1180.15"/>
</g>
<!-- Node12 -->
<g id="node12" class="node"><title>Node12</title>
<g id="a_node12"><a xlink:href="class_ticker.html" target="_top" xlink:title="{Ticker\n||+ Ticker()\l+ ~Ticker()\l+ attach()\l+ detach()\l+ call()\l}">
<polygon fill="white" stroke="black" points="378,-314.5 378,-415.5 449,-415.5 449,-314.5 378,-314.5"/>
<text text-anchor="middle" x="413.5" y="-403.5" font-family="Helvetica,sans-Serif" font-size="10.00">Ticker</text>
<polyline fill="none" stroke="black" points="378,-396.5 449,-396.5 "/>
<text text-anchor="middle" x="413.5" y="-384.5" font-family="Helvetica,sans-Serif" font-size="10.00"> </text>
<polyline fill="none" stroke="black" points="378,-377.5 449,-377.5 "/>
<text text-anchor="start" x="386" y="-365.5" font-family="Helvetica,sans-Serif" font-size="10.00">+ Ticker()</text>
<text text-anchor="start" x="386" y="-354.5" font-family="Helvetica,sans-Serif" font-size="10.00">+ ~Ticker()</text>
<text text-anchor="start" x="386" y="-343.5" font-family="Helvetica,sans-Serif" font-size="10.00">+ attach()</text>
<text text-anchor="start" x="386" y="-332.5" font-family="Helvetica,sans-Serif" font-size="10.00">+ detach()</text>
<text text-anchor="start" x="386" y="-321.5" font-family="Helvetica,sans-Serif" font-size="10.00">+ call()</text>
</a>
</g>
</g>
<!-- Node12&#45;&gt;Node1 -->
<g id="edge13" class="edge"><title>Node12&#45;&gt;Node1</title>
<path fill="none" stroke="#404040" d="M402.775,-314.218C398.447,-294.13 393.236,-269.945 387.974,-245.521"/>
<polygon fill="none" stroke="#404040" points="387.918,-245.26 382.744,-240.238 385.391,-233.53 390.565,-238.553 387.918,-245.26"/>
<text text-anchor="middle" x="431" y="-255" font-family="Helvetica,sans-Serif" font-size="10.00"> #_blinkingTicker</text>
</g>
<!-- Node13 -->
<g id="node13" class="node"><title>Node13</title>
<g id="a_node13"><a xlink:href="class_scheduled_callable.html" target="_top" xlink:title="{ScheduledCallable\n||+ ScheduledCallable()\l+ ScheduledCallable()\l+ getSleepingSince()\l+ setSleeptime()\l+ getSleepTime()\l+ resetSleepTimer()\l}">
<polygon fill="white" stroke="black" points="352,-508.5 352,-620.5 475,-620.5 475,-508.5 352,-508.5"/>
<text text-anchor="middle" x="413.5" y="-608.5" font-family="Helvetica,sans-Serif" font-size="10.00">ScheduledCallable</text>
<polyline fill="none" stroke="black" points="352,-601.5 475,-601.5 "/>
<text text-anchor="middle" x="413.5" y="-589.5" font-family="Helvetica,sans-Serif" font-size="10.00"> </text>
<polyline fill="none" stroke="black" points="352,-582.5 475,-582.5 "/>
<text text-anchor="start" x="360" y="-570.5" font-family="Helvetica,sans-Serif" font-size="10.00">+ ScheduledCallable()</text>
<text text-anchor="start" x="360" y="-559.5" font-family="Helvetica,sans-Serif" font-size="10.00">+ ScheduledCallable()</text>
<text text-anchor="start" x="360" y="-548.5" font-family="Helvetica,sans-Serif" font-size="10.00">+ getSleepingSince()</text>
<text text-anchor="start" x="360" y="-537.5" font-family="Helvetica,sans-Serif" font-size="10.00">+ setSleeptime()</text>
<text text-anchor="start" x="360" y="-526.5" font-family="Helvetica,sans-Serif" font-size="10.00">+ getSleepTime()</text>
<text text-anchor="start" x="360" y="-515.5" font-family="Helvetica,sans-Serif" font-size="10.00">+ resetSleepTimer()</text>
</a>
</g>
</g>
<!-- Node13&#45;&gt;Node12 -->
<g id="edge14" class="edge"><title>Node13&#45;&gt;Node12</title>
<path fill="none" stroke="midnightblue" d="M413.5,-498.369C413.5,-471.439 413.5,-440.721 413.5,-415.66"/>
<polygon fill="none" stroke="midnightblue" points="410,-498.485 413.5,-508.485 417,-498.485 410,-498.485"/>
</g>
<!-- Node14 -->
<g id="node14" class="node"><title>Node14</title>
<g id="a_node14"><a xlink:href="class_i_callable.html" target="_top" xlink:title="{ICallable\n||+ call()\l}">
<polygon fill="white" stroke="black" points="385.5,-745.5 385.5,-802.5 441.5,-802.5 441.5,-745.5 385.5,-745.5"/>
<text text-anchor="middle" x="413.5" y="-790.5" font-family="Helvetica,sans-Serif" font-size="10.00">ICallable</text>
<polyline fill="none" stroke="black" points="385.5,-783.5 441.5,-783.5 "/>
<text text-anchor="middle" x="413.5" y="-771.5" font-family="Helvetica,sans-Serif" font-size="10.00"> </text>
<polyline fill="none" stroke="black" points="385.5,-764.5 441.5,-764.5 "/>
<text text-anchor="start" x="393.5" y="-752.5" font-family="Helvetica,sans-Serif" font-size="10.00">+ call()</text>
</a>
</g>
</g>
<!-- Node14&#45;&gt;Node13 -->
<g id="edge15" class="edge"><title>Node14&#45;&gt;Node13</title>
<path fill="none" stroke="midnightblue" d="M413.5,-735.189C413.5,-703.228 413.5,-657.012 413.5,-620.879"/>
<polygon fill="none" stroke="midnightblue" points="410,-735.446 413.5,-745.446 417,-735.446 410,-735.446"/>
</g>
<!-- Node15 -->
<g id="node15" class="node"><title>Node15</title>
<g id="a_node15"><a xlink:href="class_non_copyable.html" target="_top" xlink:title="{NonCopyable\&lt; ICallable \&gt;\n||+ NonCopyable()\l}">
<polygon fill="white" stroke="black" points="342,-1007.5 342,-1064.5 485,-1064.5 485,-1007.5 342,-1007.5"/>
<text text-anchor="middle" x="413.5" y="-1052.5" font-family="Helvetica,sans-Serif" font-size="10.00">NonCopyable&lt; ICallable &gt;</text>
<polyline fill="none" stroke="black" points="342,-1045.5 485,-1045.5 "/>
<text text-anchor="middle" x="413.5" y="-1033.5" font-family="Helvetica,sans-Serif" font-size="10.00"> </text>
<polyline fill="none" stroke="black" points="342,-1026.5 485,-1026.5 "/>
<text text-anchor="start" x="350" y="-1014.5" font-family="Helvetica,sans-Serif" font-size="10.00">+ NonCopyable()</text>
</a>
</g>
</g>
<!-- Node15&#45;&gt;Node14 -->
<g id="edge16" class="edge"><title>Node15&#45;&gt;Node14</title>
<path fill="none" stroke="#8b1a1a" d="M413.5,-996.848C413.5,-943.875 413.5,-849.305 413.5,-802.624"/>
<polygon fill="none" stroke="#8b1a1a" points="410,-997.175 413.5,-1007.18 417,-997.175 410,-997.175"/>
</g>
<!-- Node16 -->
<g id="node16" class="node"><title>Node16</title>
<g id="a_node16"><a xlink:href="class_digital_out.html" target="_top" xlink:title="{DigitalOut\n||+ DigitalOut()\l+ DigitalOut()\l+ write()\l+ read()\l+ operator=()\l+ operator uint8_t()\l}">
<polygon fill="white" stroke="black" points="467,-309 467,-421 580,-421 580,-309 467,-309"/>
<text text-anchor="middle" x="523.5" y="-409" font-family="Helvetica,sans-Serif" font-size="10.00">DigitalOut</text>
<polyline fill="none" stroke="black" points="467,-402 580,-402 "/>
<text text-anchor="middle" x="523.5" y="-390" font-family="Helvetica,sans-Serif" font-size="10.00"> </text>
<polyline fill="none" stroke="black" points="467,-383 580,-383 "/>
<text text-anchor="start" x="475" y="-371" font-family="Helvetica,sans-Serif" font-size="10.00">+ DigitalOut()</text>
<text text-anchor="start" x="475" y="-360" font-family="Helvetica,sans-Serif" font-size="10.00">+ DigitalOut()</text>
<text text-anchor="start" x="475" y="-349" font-family="Helvetica,sans-Serif" font-size="10.00">+ write()</text>
<text text-anchor="start" x="475" y="-338" font-family="Helvetica,sans-Serif" font-size="10.00">+ read()</text>
<text text-anchor="start" x="475" y="-327" font-family="Helvetica,sans-Serif" font-size="10.00">+ operator=()</text>
<text text-anchor="start" x="475" y="-316" font-family="Helvetica,sans-Serif" font-size="10.00">+ operator uint8_t()</text>
</a>
</g>
</g>
<!-- Node16&#45;&gt;Node1 -->
<g id="edge17" class="edge"><title>Node16&#45;&gt;Node1</title>
<path fill="none" stroke="#404040" d="M503.743,-308.783C496.064,-290.135 486.461,-269.597 475.5,-252 464.149,-233.777 450.403,-215.496 436.421,-198.553"/>
<polygon fill="none" stroke="#404040" points="436.358,-198.478 429.436,-196.454 428.642,-189.286 435.564,-191.31 436.358,-198.478"/>
<text text-anchor="middle" x="500" y="-255" font-family="Helvetica,sans-Serif" font-size="10.00"> #_port</text>
</g>
<!-- Node17&#45;&gt;Node1 -->
<g id="edge18" class="edge"><title>Node17&#45;&gt;Node1</title>
<path fill="none" stroke="#404040" d="M239.251,-295.434C242.352,-290.531 245.458,-285.679 248.5,-281 260.265,-262.906 273.005,-243.869 285.532,-225.445"/>
<polygon fill="none" stroke="#404040" points="285.701,-225.197 285.776,-217.986 292.461,-215.282 292.386,-222.493 285.701,-225.197"/>
<text text-anchor="middle" x="293" y="-255" font-family="Helvetica,sans-Serif" font-size="10.00"> #_registry</text>
</g>
</g>
</svg>
        <g id="navigator" transform="translate(0 0)" fill="#404254">
                <rect fill="#f2f5e9" fill-opacity="0.5" stroke="#606060" stroke-width=".5" x="0" y="0" width="60" height="60"/>
                <use id="zoomplus" xlink:href="#zoomPlus" x="17" y="9" onmousedown="handleZoom(evt,'in')"/>
                <use id="zoomminus" xlink:href="#zoomMin" x="42" y="9" onmousedown="handleZoom(evt,'out')"/>
                <use id="reset" xlink:href="#resetDef" x="30" y="36" onmousedown="handleReset()"/>
                <g id="arrowUp" xlink:href="#dirArrow" transform="translate(30 24)" onmousedown="handlePan(0,-1)">
                  <use xlink:href="#rim" fill="#404040">
                        <set attributeName="fill" to="#808080" begin="arrowUp.mouseover" end="arrowUp.mouseout"/>
                  </use>
                  <path fill="none" stroke="white" stroke-width="1.5" d="M0,-3.0v7 M-2.5,-0.5L0,-3.0L2.5,-0.5"/>
                </g>
                <g id="arrowRight" xlink:href="#dirArrow" transform="rotate(90) translate(36 -43)" onmousedown="handlePan(1,0)">
                  <use xlink:href="#rim" fill="#404040">
                        <set attributeName="fill" to="#808080" begin="arrowRight.mouseover" end="arrowRight.mouseout"/>
                  </use>
                  <path fill="none" stroke="white" stroke-width="1.5" d="M0,-3.0v7 M-2.5,-0.5L0,-3.0L2.5,-0.5"/>
                </g>
                <g id="arrowDown" xlink:href="#dirArrow" transform="rotate(180) translate(-30 -48)" onmousedown="handlePan(0,1)">
                  <use xlink:href="#rim" fill="#404040">
                        <set attributeName="fill" to="#808080" begin="arrowDown.mouseover" end="arrowDown.mouseout"/>
                  </use>
                  <path fill="none" stroke="white" stroke-width="1.5" d="M0,-3.0v7 M-2.5,-0.5L0,-3.0L2.5,-0.5"/>
                </g>
                <g id="arrowLeft" xlink:href="#dirArrow" transform="rotate(270) translate(-36 17)" onmousedown="handlePan(-1,0)">
                  <use xlink:href="#rim" fill="#404040">
                        <set attributeName="fill" to="#808080" begin="arrowLeft.mouseover" end="arrowLeft.mouseout"/>
                  </use>
                  <path fill="none" stroke="white" stroke-width="1.5" d="M0,-3.0v7 M-2.5,-0.5L0,-3.0L2.5,-0.5"/>
                </g>
        </g>
        <svg viewBox="0 0 15 15" width="100%" height="30px" preserveAspectRatio="xMaxYMin meet">
         <g id="arrow_out" transform="scale(0.3 0.3)">
          <a xlink:href="class_hardware_led__coll__graph_org.svg" target="_base">
           <rect id="button" ry="5" rx="5" y="6" x="6" height="38" width="38"
                fill="#f2f5e9" fill-opacity="0.5" stroke="#606060" stroke-width="1.0"/>
           <path id="arrow"
             d="M 11.500037,31.436501 C 11.940474,20.09759 22.043105,11.32322 32.158766,21.979434 L 37.068811,17.246167 C 37.068811,17.246167 37.088388,32 37.088388,32 L 22.160133,31.978069 C 22.160133,31.978069 26.997745,27.140456 26.997745,27.140456 C 18.528582,18.264221 13.291696,25.230495 11.500037,31.436501 z"
             style="fill:#404040;"/>
          </a>
         </g>
        </svg>
</svg>
