<?xml version="1.0" encoding="UTF-8" standalone="no"?>
<!DOCTYPE svg PUBLIC "-//W3C//DTD SVG 1.1//EN"
 "http://www.w3.org/Graphics/SVG/1.1/DTD/svg11.dtd">
<!-- Generated by graphviz version 2.38.0 (20140413.2041)
 -->
<!-- Title: BufferedSerial Pages: 1 -->
<svg width="119pt" height="270pt"
 viewBox="0.00 0.00 119.00 270.00" xmlns="http://www.w3.org/2000/svg" xmlns:xlink="http://www.w3.org/1999/xlink">
<g id="graph0" class="graph" transform="scale(1 1) rotate(0) translate(4 266)">
<title>BufferedSerial</title>
<polygon fill="white" stroke="none" points="-4,4 -4,-266 115,-266 115,4 -4,4"/>
<!-- Node1 -->
<g id="node1" class="node"><title>Node1</title>
<polygon fill="#bfbfbf" stroke="black" points="-7.10543e-15,-0.5 -7.10543e-15,-167.5 111,-167.5 111,-0.5 -7.10543e-15,-0.5"/>
<text text-anchor="middle" x="55.5" y="-155.5" font-family="Helvetica,sans-Serif" font-size="10.00">BufferedSerial</text>
<polyline fill="none" stroke="black" points="-7.10543e-15,-148.5 111,-148.5 "/>
<text text-anchor="middle" x="55.5" y="-136.5" font-family="Helvetica,sans-Serif" font-size="10.00"> </text>
<polyline fill="none" stroke="black" points="-7.10543e-15,-129.5 111,-129.5 "/>
<text text-anchor="start" x="8" y="-117.5" font-family="Helvetica,sans-Serif" font-size="10.00">+ BufferedSerial()</text>
<text text-anchor="start" x="8" y="-106.5" font-family="Helvetica,sans-Serif" font-size="10.00">+ ~BufferedSerial()</text>
<text text-anchor="start" x="8" y="-95.5" font-family="Helvetica,sans-Serif" font-size="10.00">+ readable()</text>
<text text-anchor="start" x="8" y="-84.5" font-family="Helvetica,sans-Serif" font-size="10.00">+ writeable()</text>
<text text-anchor="start" x="8" y="-73.5" font-family="Helvetica,sans-Serif" font-size="10.00">+ getc()</text>
<text text-anchor="start" x="8" y="-62.5" font-family="Helvetica,sans-Serif" font-size="10.00">+ putc()</text>
<text text-anchor="start" x="8" y="-51.5" font-family="Helvetica,sans-Serif" font-size="10.00">+ puts()</text>
<text text-anchor="start" x="8" y="-40.5" font-family="Helvetica,sans-Serif" font-size="10.00">+ printf()</text>
<text text-anchor="start" x="8" y="-29.5" font-family="Helvetica,sans-Serif" font-size="10.00">+ write()</text>
<text text-anchor="start" x="8" y="-18.5" font-family="Helvetica,sans-Serif" font-size="10.00">+ BufferedSerial()</text>
<text text-anchor="start" x="8" y="-7.5" font-family="Helvetica,sans-Serif" font-size="10.00">and 8 more...</text>
</g>
<!-- Node2 -->
<g id="node2" class="node"><title>Node2</title>
<polygon fill="white" stroke="#bfbfbf" points="24.5,-204.5 24.5,-261.5 86.5,-261.5 86.5,-204.5 24.5,-204.5"/>
<text text-anchor="middle" x="55.5" y="-249.5" font-family="Helvetica,sans-Serif" font-size="10.00">RawSerial</text>
<polyline fill="none" stroke="#bfbfbf" points="24.5,-242.5 86.5,-242.5 "/>
<text text-anchor="middle" x="55.5" y="-230.5" font-family="Helvetica,sans-Serif" font-size="10.00"> </text>
<polyline fill="none" stroke="#bfbfbf" points="24.5,-223.5 86.5,-223.5 "/>
<text text-anchor="middle" x="55.5" y="-211.5" font-family="Helvetica,sans-Serif" font-size="10.00"> </text>
</g>
<!-- Node2&#45;&gt;Node1 -->
<g id="edge1" class="edge"><title>Node2&#45;&gt;Node1</title>
<path fill="none" stroke="midnightblue" d="M55.5,-194.35C55.5,-186.08 55.5,-177.008 55.5,-167.738"/>
<polygon fill="none" stroke="midnightblue" points="52.0001,-194.35 55.5,-204.35 59.0001,-194.35 52.0001,-194.35"/>
</g>
</g>
</svg>
