<?xml version="1.0" encoding="UTF-8" standalone="no"?>
<!DOCTYPE svg PUBLIC "-//W3C//DTD SVG 1.1//EN"
 "http://www.w3.org/Graphics/SVG/1.1/DTD/svg11.dtd">
<!-- Generated by graphviz version 2.38.0 (20140413.2041)
 -->
<!-- Title: IMotorController Pages: 1 -->
<svg width="163pt" height="827pt"
 viewBox="0.00 0.00 163.00 827.00" xmlns="http://www.w3.org/2000/svg" xmlns:xlink="http://www.w3.org/1999/xlink">
<g id="graph0" class="graph" transform="scale(1 1) rotate(0) translate(4 823)">
<title>IMotorController</title>
<polygon fill="white" stroke="none" points="-4,4 -4,-823 159,-823 159,4 -4,4"/>
<!-- Node1 -->
<g id="node1" class="node"><title>Node1</title>
<polygon fill="#bfbfbf" stroke="black" points="21.5,-248.5 21.5,-415.5 133.5,-415.5 133.5,-248.5 21.5,-248.5"/>
<text text-anchor="middle" x="77.5" y="-403.5" font-family="Helvetica,sans-Serif" font-size="10.00">IMotorController</text>
<polyline fill="none" stroke="black" points="21.5,-396.5 133.5,-396.5 "/>
<text text-anchor="middle" x="77.5" y="-384.5" font-family="Helvetica,sans-Serif" font-size="10.00"> </text>
<polyline fill="none" stroke="black" points="21.5,-377.5 133.5,-377.5 "/>
<text text-anchor="start" x="29.5" y="-365.5" font-family="Helvetica,sans-Serif" font-size="10.00">+ IMotorController()</text>
<text text-anchor="start" x="29.5" y="-354.5" font-family="Helvetica,sans-Serif" font-size="10.00">+ getState()</text>
<text text-anchor="start" x="29.5" y="-343.5" font-family="Helvetica,sans-Serif" font-size="10.00">+ setState()</text>
<text text-anchor="start" x="29.5" y="-332.5" font-family="Helvetica,sans-Serif" font-size="10.00">+ setTorque()</text>
<text text-anchor="start" x="29.5" y="-321.5" font-family="Helvetica,sans-Serif" font-size="10.00">+ getSpeed()</text>
<text text-anchor="start" x="29.5" y="-310.5" font-family="Helvetica,sans-Serif" font-size="10.00">+ getCurrent()</text>
<text text-anchor="start" x="29.5" y="-299.5" font-family="Helvetica,sans-Serif" font-size="10.00">+ getMotorTemp()</text>
<text text-anchor="start" x="29.5" y="-288.5" font-family="Helvetica,sans-Serif" font-size="10.00">+ getServoTemp()</text>
<text text-anchor="start" x="29.5" y="-277.5" font-family="Helvetica,sans-Serif" font-size="10.00">+ getAirTemp()</text>
<text text-anchor="start" x="29.5" y="-266.5" font-family="Helvetica,sans-Serif" font-size="10.00">+ setRFE()</text>
<text text-anchor="start" x="29.5" y="-255.5" font-family="Helvetica,sans-Serif" font-size="10.00">and 6 more...</text>
</g>
<!-- Node5 -->
<g id="node5" class="node"><title>Node5</title>
<g id="a_node5"><a xlink:href="class_hardware_motor_controller.html" target="_top" xlink:title="{HardwareMotorController\n|# _registry\l# _bamocar\l# _rfe\l# _run\l# _status\l|+ HardwareMotorController()\l+ beginCommunication()\l+ getStatus()\l+ setStatus()\l+ getState()\l+ setState()\l+ setTorque()\l+ getSpeed()\l+ getCurrent()\l+ getMotorTemp()\land 6 more...\l}">
<polygon fill="white" stroke="black" points="0,-0.5 0,-211.5 155,-211.5 155,-0.5 0,-0.5"/>
<text text-anchor="middle" x="77.5" y="-199.5" font-family="Helvetica,sans-Serif" font-size="10.00">HardwareMotorController</text>
<polyline fill="none" stroke="black" points="0,-192.5 155,-192.5 "/>
<text text-anchor="start" x="8" y="-180.5" font-family="Helvetica,sans-Serif" font-size="10.00"># _registry</text>
<text text-anchor="start" x="8" y="-169.5" font-family="Helvetica,sans-Serif" font-size="10.00"># _bamocar</text>
<text text-anchor="start" x="8" y="-158.5" font-family="Helvetica,sans-Serif" font-size="10.00"># _rfe</text>
<text text-anchor="start" x="8" y="-147.5" font-family="Helvetica,sans-Serif" font-size="10.00"># _run</text>
<text text-anchor="start" x="8" y="-136.5" font-family="Helvetica,sans-Serif" font-size="10.00"># _status</text>
<polyline fill="none" stroke="black" points="0,-129.5 155,-129.5 "/>
<text text-anchor="start" x="8" y="-117.5" font-family="Helvetica,sans-Serif" font-size="10.00">+ HardwareMotorController()</text>
<text text-anchor="start" x="8" y="-106.5" font-family="Helvetica,sans-Serif" font-size="10.00">+ beginCommunication()</text>
<text text-anchor="start" x="8" y="-95.5" font-family="Helvetica,sans-Serif" font-size="10.00">+ getStatus()</text>
<text text-anchor="start" x="8" y="-84.5" font-family="Helvetica,sans-Serif" font-size="10.00">+ setStatus()</text>
<text text-anchor="start" x="8" y="-73.5" font-family="Helvetica,sans-Serif" font-size="10.00">+ getState()</text>
<text text-anchor="start" x="8" y="-62.5" font-family="Helvetica,sans-Serif" font-size="10.00">+ setState()</text>
<text text-anchor="start" x="8" y="-51.5" font-family="Helvetica,sans-Serif" font-size="10.00">+ setTorque()</text>
<text text-anchor="start" x="8" y="-40.5" font-family="Helvetica,sans-Serif" font-size="10.00">+ getSpeed()</text>
<text text-anchor="start" x="8" y="-29.5" font-family="Helvetica,sans-Serif" font-size="10.00">+ getCurrent()</text>
<text text-anchor="start" x="8" y="-18.5" font-family="Helvetica,sans-Serif" font-size="10.00">+ getMotorTemp()</text>
<text text-anchor="start" x="8" y="-7.5" font-family="Helvetica,sans-Serif" font-size="10.00">and 6 more...</text>
</a>
</g>
</g>
<!-- Node1&#45;&gt;Node5 -->
<g id="edge4" class="edge"><title>Node1&#45;&gt;Node5</title>
<path fill="none" stroke="midnightblue" d="M77.5,-238.139C77.5,-229.473 77.5,-220.649 77.5,-211.884"/>
<polygon fill="none" stroke="midnightblue" points="74.0001,-238.227 77.5,-248.227 81.0001,-238.227 74.0001,-238.227"/>
</g>
<!-- Node2 -->
<g id="node2" class="node"><title>Node2</title>
<g id="a_node2"><a xlink:href="class_i_component.html" target="_top" xlink:title="{IComponent\n||+ IComponent()\l+ IComponent()\l+ setComponentSubId()\l+ getComponentType()\l+ getComponentSubId()\l+ getComponentId()\l+ getObjectType()\l# setComponentType()\l# setObjectType()\l}">
<polygon fill="white" stroke="black" points="10.5,-452.5 10.5,-597.5 144.5,-597.5 144.5,-452.5 10.5,-452.5"/>
<text text-anchor="middle" x="77.5" y="-585.5" font-family="Helvetica,sans-Serif" font-size="10.00">IComponent</text>
<polyline fill="none" stroke="black" points="10.5,-578.5 144.5,-578.5 "/>
<text text-anchor="middle" x="77.5" y="-566.5" font-family="Helvetica,sans-Serif" font-size="10.00"> </text>
<polyline fill="none" stroke="black" points="10.5,-559.5 144.5,-559.5 "/>
<text text-anchor="start" x="18.5" y="-547.5" font-family="Helvetica,sans-Serif" font-size="10.00">+ IComponent()</text>
<text text-anchor="start" x="18.5" y="-536.5" font-family="Helvetica,sans-Serif" font-size="10.00">+ IComponent()</text>
<text text-anchor="start" x="18.5" y="-525.5" font-family="Helvetica,sans-Serif" font-size="10.00">+ setComponentSubId()</text>
<text text-anchor="start" x="18.5" y="-514.5" font-family="Helvetica,sans-Serif" font-size="10.00">+ getComponentType()</text>
<text text-anchor="start" x="18.5" y="-503.5" font-family="Helvetica,sans-Serif" font-size="10.00">+ getComponentSubId()</text>
<text text-anchor="start" x="18.5" y="-492.5" font-family="Helvetica,sans-Serif" font-size="10.00">+ getComponentId()</text>
<text text-anchor="start" x="18.5" y="-481.5" font-family="Helvetica,sans-Serif" font-size="10.00">+ getObjectType()</text>
<text text-anchor="start" x="18.5" y="-470.5" font-family="Helvetica,sans-Serif" font-size="10.00"># setComponentType()</text>
<text text-anchor="start" x="18.5" y="-459.5" font-family="Helvetica,sans-Serif" font-size="10.00"># setObjectType()</text>
</a>
</g>
</g>
<!-- Node2&#45;&gt;Node1 -->
<g id="edge1" class="edge"><title>Node2&#45;&gt;Node1</title>
<path fill="none" stroke="midnightblue" d="M77.5,-442.134C77.5,-433.368 77.5,-424.445 77.5,-415.67"/>
<polygon fill="none" stroke="midnightblue" points="74.0001,-442.335 77.5,-452.335 81.0001,-442.335 74.0001,-442.335"/>
</g>
<!-- Node3 -->
<g id="node3" class="node"><title>Node3</title>
<g id="a_node3"><a xlink:href="class_i_logable.html" target="_top" xlink:title="{ILogable\n||+ setStatus()\l+ getStatus()\l+ getLogValueCount()\l+ getLogValue()\l}">
<polygon fill="white" stroke="black" points="16,-634.5 16,-724.5 139,-724.5 139,-634.5 16,-634.5"/>
<text text-anchor="middle" x="77.5" y="-712.5" font-family="Helvetica,sans-Serif" font-size="10.00">ILogable</text>
<polyline fill="none" stroke="black" points="16,-705.5 139,-705.5 "/>
<text text-anchor="middle" x="77.5" y="-693.5" font-family="Helvetica,sans-Serif" font-size="10.00"> </text>
<polyline fill="none" stroke="black" points="16,-686.5 139,-686.5 "/>
<text text-anchor="start" x="24" y="-674.5" font-family="Helvetica,sans-Serif" font-size="10.00">+ setStatus()</text>
<text text-anchor="start" x="24" y="-663.5" font-family="Helvetica,sans-Serif" font-size="10.00">+ getStatus()</text>
<text text-anchor="start" x="24" y="-652.5" font-family="Helvetica,sans-Serif" font-size="10.00">+ getLogValueCount()</text>
<text text-anchor="start" x="24" y="-641.5" font-family="Helvetica,sans-Serif" font-size="10.00">+ getLogValue()</text>
</a>
</g>
</g>
<!-- Node3&#45;&gt;Node2 -->
<g id="edge2" class="edge"><title>Node3&#45;&gt;Node2</title>
<path fill="none" stroke="midnightblue" d="M77.5,-624.13C77.5,-615.526 77.5,-606.516 77.5,-597.591"/>
<polygon fill="none" stroke="midnightblue" points="74.0001,-624.391 77.5,-634.391 81.0001,-624.391 74.0001,-624.391"/>
</g>
<!-- Node4 -->
<g id="node4" class="node"><title>Node4</title>
<g id="a_node4"><a xlink:href="class_non_copyable.html" target="_top" xlink:title="{NonCopyable\&lt; ILogable \&gt;\n||+ NonCopyable()\l}">
<polygon fill="white" stroke="black" points="6,-761.5 6,-818.5 149,-818.5 149,-761.5 6,-761.5"/>
<text text-anchor="middle" x="77.5" y="-806.5" font-family="Helvetica,sans-Serif" font-size="10.00">NonCopyable&lt; ILogable &gt;</text>
<polyline fill="none" stroke="black" points="6,-799.5 149,-799.5 "/>
<text text-anchor="middle" x="77.5" y="-787.5" font-family="Helvetica,sans-Serif" font-size="10.00"> </text>
<polyline fill="none" stroke="black" points="6,-780.5 149,-780.5 "/>
<text text-anchor="start" x="14" y="-768.5" font-family="Helvetica,sans-Serif" font-size="10.00">+ NonCopyable()</text>
</a>
</g>
</g>
<!-- Node4&#45;&gt;Node3 -->
<g id="edge3" class="edge"><title>Node4&#45;&gt;Node3</title>
<path fill="none" stroke="#8b1a1a" d="M77.5,-751.214C77.5,-742.609 77.5,-733.394 77.5,-724.554"/>
<polygon fill="none" stroke="#8b1a1a" points="74.0001,-751.34 77.5,-761.34 81.0001,-751.34 74.0001,-751.34"/>
</g>
</g>
</svg>
