<?xml version="1.0" encoding="UTF-8" standalone="no"?>
<!DOCTYPE svg PUBLIC "-//W3C//DTD SVG 1.1//EN"
 "http://www.w3.org/Graphics/SVG/1.1/DTD/svg11.dtd">
<!-- Generated by graphviz version 2.38.0 (20140413.2041)
 -->
<!-- Title: HardwarePump Pages: 1 -->
<svg width="411pt" height="709pt"
 viewBox="0.00 0.00 411.00 709.00" xmlns="http://www.w3.org/2000/svg" xmlns:xlink="http://www.w3.org/1999/xlink">
<g id="graph0" class="graph" transform="scale(1 1) rotate(0) translate(4 705)">
<title>HardwarePump</title>
<polygon fill="white" stroke="none" points="-4,4 -4,-705 407,-705 407,4 -4,4"/>
<!-- Node1 -->
<g id="node1" class="node"><title>Node1</title>
<polygon fill="#bfbfbf" stroke="black" points="167,-0.5 167,-123.5 276,-123.5 276,-0.5 167,-0.5"/>
<text text-anchor="middle" x="221.5" y="-111.5" font-family="Helvetica,sans-Serif" font-size="10.00">HardwarePump</text>
<polyline fill="none" stroke="black" points="167,-104.5 276,-104.5 "/>
<text text-anchor="middle" x="221.5" y="-92.5" font-family="Helvetica,sans-Serif" font-size="10.00"> </text>
<polyline fill="none" stroke="black" points="167,-85.5 276,-85.5 "/>
<text text-anchor="start" x="175" y="-73.5" font-family="Helvetica,sans-Serif" font-size="10.00">+ HardwarePump()</text>
<text text-anchor="start" x="175" y="-62.5" font-family="Helvetica,sans-Serif" font-size="10.00">+ setSpeed()</text>
<text text-anchor="start" x="175" y="-51.5" font-family="Helvetica,sans-Serif" font-size="10.00">+ getSpeed()</text>
<text text-anchor="start" x="175" y="-40.5" font-family="Helvetica,sans-Serif" font-size="10.00">+ setEnable()</text>
<text text-anchor="start" x="175" y="-29.5" font-family="Helvetica,sans-Serif" font-size="10.00">+ getEnable()</text>
<text text-anchor="start" x="175" y="-18.5" font-family="Helvetica,sans-Serif" font-size="10.00">+ setStatus()</text>
<text text-anchor="start" x="175" y="-7.5" font-family="Helvetica,sans-Serif" font-size="10.00">+ getStatus()</text>
</g>
<!-- Node2 -->
<g id="node2" class="node"><title>Node2</title>
<g id="a_node2"><a xlink:href="class_i_pump.html" target="_top" xlink:title="{IPump\n||+ IPump()\l+ setSpeed()\l+ getSpeed()\l+ setEnable()\l+ getEnable()\l+ getLogValueCount()\l+ getLogValue()\l}">
<polygon fill="white" stroke="black" points="26,-171.5 26,-294.5 149,-294.5 149,-171.5 26,-171.5"/>
<text text-anchor="middle" x="87.5" y="-282.5" font-family="Helvetica,sans-Serif" font-size="10.00">IPump</text>
<polyline fill="none" stroke="black" points="26,-275.5 149,-275.5 "/>
<text text-anchor="middle" x="87.5" y="-263.5" font-family="Helvetica,sans-Serif" font-size="10.00"> </text>
<polyline fill="none" stroke="black" points="26,-256.5 149,-256.5 "/>
<text text-anchor="start" x="34" y="-244.5" font-family="Helvetica,sans-Serif" font-size="10.00">+ IPump()</text>
<text text-anchor="start" x="34" y="-233.5" font-family="Helvetica,sans-Serif" font-size="10.00">+ setSpeed()</text>
<text text-anchor="start" x="34" y="-222.5" font-family="Helvetica,sans-Serif" font-size="10.00">+ getSpeed()</text>
<text text-anchor="start" x="34" y="-211.5" font-family="Helvetica,sans-Serif" font-size="10.00">+ setEnable()</text>
<text text-anchor="start" x="34" y="-200.5" font-family="Helvetica,sans-Serif" font-size="10.00">+ getEnable()</text>
<text text-anchor="start" x="34" y="-189.5" font-family="Helvetica,sans-Serif" font-size="10.00">+ getLogValueCount()</text>
<text text-anchor="start" x="34" y="-178.5" font-family="Helvetica,sans-Serif" font-size="10.00">+ getLogValue()</text>
</a>
</g>
</g>
<!-- Node2&#45;&gt;Node1 -->
<g id="edge1" class="edge"><title>Node2&#45;&gt;Node1</title>
<path fill="none" stroke="midnightblue" d="M141.922,-163.363C152.342,-150.222 163.182,-136.55 173.386,-123.681"/>
<polygon fill="none" stroke="midnightblue" points="138.969,-161.454 135.499,-171.464 144.454,-165.803 138.969,-161.454"/>
</g>
<!-- Node3 -->
<g id="node3" class="node"><title>Node3</title>
<g id="a_node3"><a xlink:href="class_i_component.html" target="_top" xlink:title="{IComponent\n||+ IComponent()\l+ IComponent()\l+ setComponentSubId()\l+ getComponentType()\l+ getComponentSubId()\l+ getComponentId()\l+ getObjectType()\l# setComponentType()\l# setObjectType()\l}">
<polygon fill="white" stroke="black" points="4.5,-332.5 4.5,-477.5 138.5,-477.5 138.5,-332.5 4.5,-332.5"/>
<text text-anchor="middle" x="71.5" y="-465.5" font-family="Helvetica,sans-Serif" font-size="10.00">IComponent</text>
<polyline fill="none" stroke="black" points="4.5,-458.5 138.5,-458.5 "/>
<text text-anchor="middle" x="71.5" y="-446.5" font-family="Helvetica,sans-Serif" font-size="10.00"> </text>
<polyline fill="none" stroke="black" points="4.5,-439.5 138.5,-439.5 "/>
<text text-anchor="start" x="12.5" y="-427.5" font-family="Helvetica,sans-Serif" font-size="10.00">+ IComponent()</text>
<text text-anchor="start" x="12.5" y="-416.5" font-family="Helvetica,sans-Serif" font-size="10.00">+ IComponent()</text>
<text text-anchor="start" x="12.5" y="-405.5" font-family="Helvetica,sans-Serif" font-size="10.00">+ setComponentSubId()</text>
<text text-anchor="start" x="12.5" y="-394.5" font-family="Helvetica,sans-Serif" font-size="10.00">+ getComponentType()</text>
<text text-anchor="start" x="12.5" y="-383.5" font-family="Helvetica,sans-Serif" font-size="10.00">+ getComponentSubId()</text>
<text text-anchor="start" x="12.5" y="-372.5" font-family="Helvetica,sans-Serif" font-size="10.00">+ getComponentId()</text>
<text text-anchor="start" x="12.5" y="-361.5" font-family="Helvetica,sans-Serif" font-size="10.00">+ getObjectType()</text>
<text text-anchor="start" x="12.5" y="-350.5" font-family="Helvetica,sans-Serif" font-size="10.00"># setComponentType()</text>
<text text-anchor="start" x="12.5" y="-339.5" font-family="Helvetica,sans-Serif" font-size="10.00"># setObjectType()</text>
</a>
</g>
</g>
<!-- Node3&#45;&gt;Node2 -->
<g id="edge2" class="edge"><title>Node3&#45;&gt;Node2</title>
<path fill="none" stroke="midnightblue" d="M79.1842,-322.355C80.0588,-313.062 80.9385,-303.716 81.7813,-294.761"/>
<polygon fill="none" stroke="midnightblue" points="75.6916,-322.113 78.2391,-332.397 82.6608,-322.769 75.6916,-322.113"/>
</g>
<!-- Node4 -->
<g id="node4" class="node"><title>Node4</title>
<g id="a_node4"><a xlink:href="class_i_logable.html" target="_top" xlink:title="{ILogable\n||+ setStatus()\l+ getStatus()\l+ getLogValueCount()\l+ getLogValue()\l}">
<polygon fill="white" stroke="black" points="10,-515.5 10,-605.5 133,-605.5 133,-515.5 10,-515.5"/>
<text text-anchor="middle" x="71.5" y="-593.5" font-family="Helvetica,sans-Serif" font-size="10.00">ILogable</text>
<polyline fill="none" stroke="black" points="10,-586.5 133,-586.5 "/>
<text text-anchor="middle" x="71.5" y="-574.5" font-family="Helvetica,sans-Serif" font-size="10.00"> </text>
<polyline fill="none" stroke="black" points="10,-567.5 133,-567.5 "/>
<text text-anchor="start" x="18" y="-555.5" font-family="Helvetica,sans-Serif" font-size="10.00">+ setStatus()</text>
<text text-anchor="start" x="18" y="-544.5" font-family="Helvetica,sans-Serif" font-size="10.00">+ getStatus()</text>
<text text-anchor="start" x="18" y="-533.5" font-family="Helvetica,sans-Serif" font-size="10.00">+ getLogValueCount()</text>
<text text-anchor="start" x="18" y="-522.5" font-family="Helvetica,sans-Serif" font-size="10.00">+ getLogValue()</text>
</a>
</g>
</g>
<!-- Node4&#45;&gt;Node3 -->
<g id="edge3" class="edge"><title>Node4&#45;&gt;Node3</title>
<path fill="none" stroke="midnightblue" d="M71.5,-504.98C71.5,-496.165 71.5,-486.921 71.5,-477.771"/>
<polygon fill="none" stroke="midnightblue" points="68.0001,-505.101 71.5,-515.101 75.0001,-505.101 68.0001,-505.101"/>
</g>
<!-- Node5 -->
<g id="node5" class="node"><title>Node5</title>
<g id="a_node5"><a xlink:href="class_non_copyable.html" target="_top" xlink:title="{NonCopyable\&lt; ILogable \&gt;\n||+ NonCopyable()\l}">
<polygon fill="white" stroke="black" points="0,-643.5 0,-700.5 143,-700.5 143,-643.5 0,-643.5"/>
<text text-anchor="middle" x="71.5" y="-688.5" font-family="Helvetica,sans-Serif" font-size="10.00">NonCopyable&lt; ILogable &gt;</text>
<polyline fill="none" stroke="black" points="0,-681.5 143,-681.5 "/>
<text text-anchor="middle" x="71.5" y="-669.5" font-family="Helvetica,sans-Serif" font-size="10.00"> </text>
<polyline fill="none" stroke="black" points="0,-662.5 143,-662.5 "/>
<text text-anchor="start" x="8" y="-650.5" font-family="Helvetica,sans-Serif" font-size="10.00">+ NonCopyable()</text>
</a>
</g>
</g>
<!-- Node5&#45;&gt;Node4 -->
<g id="edge4" class="edge"><title>Node5&#45;&gt;Node4</title>
<path fill="none" stroke="#8b1a1a" d="M71.5,-633.312C71.5,-624.43 71.5,-614.883 71.5,-605.742"/>
<polygon fill="none" stroke="#8b1a1a" points="68.0001,-633.368 71.5,-643.369 75.0001,-633.369 68.0001,-633.368"/>
</g>
<!-- Node6 -->
<g id="node6" class="node"><title>Node6</title>
<g id="a_node6"><a xlink:href="class_pwm_out.html" target="_top" xlink:title="{PwmOut\n||+ PwmOut()\l+ write_u16()\l+ write()\l+ read()\l+ operator=()\l+ operator float()\l}">
<polygon fill="white" stroke="black" points="171,-177 171,-289 272,-289 272,-177 171,-177"/>
<text text-anchor="middle" x="221.5" y="-277" font-family="Helvetica,sans-Serif" font-size="10.00">PwmOut</text>
<polyline fill="none" stroke="black" points="171,-270 272,-270 "/>
<text text-anchor="middle" x="221.5" y="-258" font-family="Helvetica,sans-Serif" font-size="10.00"> </text>
<polyline fill="none" stroke="black" points="171,-251 272,-251 "/>
<text text-anchor="start" x="179" y="-239" font-family="Helvetica,sans-Serif" font-size="10.00">+ PwmOut()</text>
<text text-anchor="start" x="179" y="-228" font-family="Helvetica,sans-Serif" font-size="10.00">+ write_u16()</text>
<text text-anchor="start" x="179" y="-217" font-family="Helvetica,sans-Serif" font-size="10.00">+ write()</text>
<text text-anchor="start" x="179" y="-206" font-family="Helvetica,sans-Serif" font-size="10.00">+ read()</text>
<text text-anchor="start" x="179" y="-195" font-family="Helvetica,sans-Serif" font-size="10.00">+ operator=()</text>
<text text-anchor="start" x="179" y="-184" font-family="Helvetica,sans-Serif" font-size="10.00">+ operator float()</text>
</a>
</g>
</g>
<!-- Node6&#45;&gt;Node1 -->
<g id="edge5" class="edge"><title>Node6&#45;&gt;Node1</title>
<path fill="none" stroke="#404040" d="M221.5,-176.663C221.5,-163.691 221.5,-149.675 221.5,-136.061"/>
<polygon fill="none" stroke="#404040" points="221.5,-135.714 217.5,-129.714 221.5,-123.714 225.5,-129.714 221.5,-135.714"/>
<text text-anchor="middle" x="251" y="-145" font-family="Helvetica,sans-Serif" font-size="10.00"> #_pwmPort</text>
</g>
<!-- Node7 -->
<g id="node7" class="node"><title>Node7</title>
<g id="a_node7"><a xlink:href="class_non_copyable.html" target="_top" xlink:title="{NonCopyable\&lt; PwmOut \&gt;\n||+ NonCopyable()\l}">
<polygon fill="white" stroke="black" points="157,-376.5 157,-433.5 300,-433.5 300,-376.5 157,-376.5"/>
<text text-anchor="middle" x="228.5" y="-421.5" font-family="Helvetica,sans-Serif" font-size="10.00">NonCopyable&lt; PwmOut &gt;</text>
<polyline fill="none" stroke="black" points="157,-414.5 300,-414.5 "/>
<text text-anchor="middle" x="228.5" y="-402.5" font-family="Helvetica,sans-Serif" font-size="10.00"> </text>
<polyline fill="none" stroke="black" points="157,-395.5 300,-395.5 "/>
<text text-anchor="start" x="165" y="-383.5" font-family="Helvetica,sans-Serif" font-size="10.00">+ NonCopyable()</text>
</a>
</g>
</g>
<!-- Node7&#45;&gt;Node6 -->
<g id="edge6" class="edge"><title>Node7&#45;&gt;Node6</title>
<path fill="none" stroke="#8b1a1a" d="M226.939,-366.088C226.007,-343.459 224.807,-314.324 223.772,-289.178"/>
<polygon fill="none" stroke="#8b1a1a" points="223.451,-366.461 227.36,-376.308 230.445,-366.173 223.451,-366.461"/>
</g>
<!-- Node8 -->
<g id="node8" class="node"><title>Node8</title>
<g id="a_node8"><a xlink:href="class_digital_out.html" target="_top" xlink:title="{DigitalOut\n||+ DigitalOut()\l+ DigitalOut()\l+ write()\l+ read()\l+ operator=()\l+ operator uint8_t()\l}">
<polygon fill="white" stroke="black" points="290,-177 290,-289 403,-289 403,-177 290,-177"/>
<text text-anchor="middle" x="346.5" y="-277" font-family="Helvetica,sans-Serif" font-size="10.00">DigitalOut</text>
<polyline fill="none" stroke="black" points="290,-270 403,-270 "/>
<text text-anchor="middle" x="346.5" y="-258" font-family="Helvetica,sans-Serif" font-size="10.00"> </text>
<polyline fill="none" stroke="black" points="290,-251 403,-251 "/>
<text text-anchor="start" x="298" y="-239" font-family="Helvetica,sans-Serif" font-size="10.00">+ DigitalOut()</text>
<text text-anchor="start" x="298" y="-228" font-family="Helvetica,sans-Serif" font-size="10.00">+ DigitalOut()</text>
<text text-anchor="start" x="298" y="-217" font-family="Helvetica,sans-Serif" font-size="10.00">+ write()</text>
<text text-anchor="start" x="298" y="-206" font-family="Helvetica,sans-Serif" font-size="10.00">+ read()</text>
<text text-anchor="start" x="298" y="-195" font-family="Helvetica,sans-Serif" font-size="10.00">+ operator=()</text>
<text text-anchor="start" x="298" y="-184" font-family="Helvetica,sans-Serif" font-size="10.00">+ operator uint8_t()</text>
</a>
</g>
</g>
<!-- Node8&#45;&gt;Node1 -->
<g id="edge7" class="edge"><title>Node8&#45;&gt;Node1</title>
<path fill="none" stroke="#404040" d="M309.399,-176.835C301.339,-165.223 292.752,-153.124 284.5,-142 282.442,-139.226 280.329,-136.412 278.18,-133.579"/>
<polygon fill="none" stroke="#404040" points="278.07,-133.436 271.244,-131.108 270.767,-123.913 277.593,-126.24 278.07,-133.436"/>
<text text-anchor="middle" x="327" y="-145" font-family="Helvetica,sans-Serif" font-size="10.00"> #_enablePort</text>
</g>
</g>
</svg>
