<?xml version="1.0" encoding="UTF-8" standalone="no"?>
<!DOCTYPE svg PUBLIC "-//W3C//DTD SVG 1.1//EN"
 "http://www.w3.org/Graphics/SVG/1.1/DTD/svg11.dtd">
<!-- Generated by graphviz version 2.38.0 (20140413.2041)
 -->
<!-- Title: SoftwareButton Pages: 1 -->
<svg width="351pt" height="1337pt"
 viewBox="0.00 0.00 351.00 1337.00" xmlns="http://www.w3.org/2000/svg" xmlns:xlink="http://www.w3.org/1999/xlink">
<g id="graph0" class="graph" transform="scale(1 1) rotate(0) translate(4 1333)">
<title>SoftwareButton</title>
<polygon fill="white" stroke="none" points="-4,4 -4,-1333 347,-1333 347,4 -4,4"/>
<!-- Node1 -->
<g id="node1" class="node"><title>Node1</title>
<polygon fill="#bfbfbf" stroke="black" points="201.5,-0.5 201.5,-123.5 321.5,-123.5 321.5,-0.5 201.5,-0.5"/>
<text text-anchor="middle" x="261.5" y="-111.5" font-family="Helvetica,sans-Serif" font-size="10.00">SoftwareButton</text>
<polyline fill="none" stroke="black" points="201.5,-104.5 321.5,-104.5 "/>
<text text-anchor="middle" x="261.5" y="-92.5" font-family="Helvetica,sans-Serif" font-size="10.00"> </text>
<polyline fill="none" stroke="black" points="201.5,-85.5 321.5,-85.5 "/>
<text text-anchor="start" x="209.5" y="-73.5" font-family="Helvetica,sans-Serif" font-size="10.00">+ SoftwareButton()</text>
<text text-anchor="start" x="209.5" y="-62.5" font-family="Helvetica,sans-Serif" font-size="10.00">+ setStatus()</text>
<text text-anchor="start" x="209.5" y="-51.5" font-family="Helvetica,sans-Serif" font-size="10.00">+ getStatus()</text>
<text text-anchor="start" x="209.5" y="-40.5" font-family="Helvetica,sans-Serif" font-size="10.00">+ setState()</text>
<text text-anchor="start" x="209.5" y="-29.5" font-family="Helvetica,sans-Serif" font-size="10.00">+ getState()</text>
<text text-anchor="start" x="209.5" y="-18.5" font-family="Helvetica,sans-Serif" font-size="10.00">+ getStateChanged()</text>
<text text-anchor="start" x="209.5" y="-7.5" font-family="Helvetica,sans-Serif" font-size="10.00">+ receive()</text>
</g>
<!-- Node2 -->
<g id="node2" class="node"><title>Node2</title>
<g id="a_node2"><a xlink:href="class_i_button.html" target="_top" xlink:title="{IButton\n||+ IButton()\l+ setState()\l+ getState()\l+ getStateChanged()\l}">
<polygon fill="white" stroke="black" points="201.5,-161.5 201.5,-251.5 321.5,-251.5 321.5,-161.5 201.5,-161.5"/>
<text text-anchor="middle" x="261.5" y="-239.5" font-family="Helvetica,sans-Serif" font-size="10.00">IButton</text>
<polyline fill="none" stroke="black" points="201.5,-232.5 321.5,-232.5 "/>
<text text-anchor="middle" x="261.5" y="-220.5" font-family="Helvetica,sans-Serif" font-size="10.00"> </text>
<polyline fill="none" stroke="black" points="201.5,-213.5 321.5,-213.5 "/>
<text text-anchor="start" x="209.5" y="-201.5" font-family="Helvetica,sans-Serif" font-size="10.00">+ IButton()</text>
<text text-anchor="start" x="209.5" y="-190.5" font-family="Helvetica,sans-Serif" font-size="10.00">+ setState()</text>
<text text-anchor="start" x="209.5" y="-179.5" font-family="Helvetica,sans-Serif" font-size="10.00">+ getState()</text>
<text text-anchor="start" x="209.5" y="-168.5" font-family="Helvetica,sans-Serif" font-size="10.00">+ getStateChanged()</text>
</a>
</g>
</g>
<!-- Node2&#45;&gt;Node1 -->
<g id="edge1" class="edge"><title>Node2&#45;&gt;Node1</title>
<path fill="none" stroke="midnightblue" d="M261.5,-151.177C261.5,-142.13 261.5,-132.696 261.5,-123.507"/>
<polygon fill="none" stroke="midnightblue" points="258,-151.193 261.5,-161.193 265,-151.193 258,-151.193"/>
</g>
<!-- Node3 -->
<g id="node3" class="node"><title>Node3</title>
<g id="a_node3"><a xlink:href="class_self_syncable.html" target="_top" xlink:title="{SelfSyncable\n|# _syncerAttached\l|+ attach()\l+ detach()\l# _sendCommand()\l# _sendCommand()\l# _sendCommand()\l# _send()\l# _convertFloat()\l# _reconvertFloat()\l# _disassambleFloat()\l# _reassambleFloat()\l}">
<polygon fill="white" stroke="black" points="199.5,-289.5 199.5,-445.5 323.5,-445.5 323.5,-289.5 199.5,-289.5"/>
<text text-anchor="middle" x="261.5" y="-433.5" font-family="Helvetica,sans-Serif" font-size="10.00">SelfSyncable</text>
<polyline fill="none" stroke="black" points="199.5,-426.5 323.5,-426.5 "/>
<text text-anchor="start" x="207.5" y="-414.5" font-family="Helvetica,sans-Serif" font-size="10.00"># _syncerAttached</text>
<polyline fill="none" stroke="black" points="199.5,-407.5 323.5,-407.5 "/>
<text text-anchor="start" x="207.5" y="-395.5" font-family="Helvetica,sans-Serif" font-size="10.00">+ attach()</text>
<text text-anchor="start" x="207.5" y="-384.5" font-family="Helvetica,sans-Serif" font-size="10.00">+ detach()</text>
<text text-anchor="start" x="207.5" y="-373.5" font-family="Helvetica,sans-Serif" font-size="10.00"># _sendCommand()</text>
<text text-anchor="start" x="207.5" y="-362.5" font-family="Helvetica,sans-Serif" font-size="10.00"># _sendCommand()</text>
<text text-anchor="start" x="207.5" y="-351.5" font-family="Helvetica,sans-Serif" font-size="10.00"># _sendCommand()</text>
<text text-anchor="start" x="207.5" y="-340.5" font-family="Helvetica,sans-Serif" font-size="10.00"># _send()</text>
<text text-anchor="start" x="207.5" y="-329.5" font-family="Helvetica,sans-Serif" font-size="10.00"># _convertFloat()</text>
<text text-anchor="start" x="207.5" y="-318.5" font-family="Helvetica,sans-Serif" font-size="10.00"># _reconvertFloat()</text>
<text text-anchor="start" x="207.5" y="-307.5" font-family="Helvetica,sans-Serif" font-size="10.00"># _disassambleFloat()</text>
<text text-anchor="start" x="207.5" y="-296.5" font-family="Helvetica,sans-Serif" font-size="10.00"># _reassambleFloat()</text>
</a>
</g>
</g>
<!-- Node3&#45;&gt;Node2 -->
<g id="edge2" class="edge"><title>Node3&#45;&gt;Node2</title>
<path fill="none" stroke="midnightblue" d="M261.5,-279.3C261.5,-269.706 261.5,-260.263 261.5,-251.536"/>
<polygon fill="none" stroke="midnightblue" points="258,-279.329 261.5,-289.329 265,-279.329 258,-279.329"/>
</g>
<!-- Node4 -->
<g id="node4" class="node"><title>Node4</title>
<g id="a_node4"><a xlink:href="class_i_communication.html" target="_top" xlink:title="{ICommunication\n||+ receive()\l}">
<polygon fill="white" stroke="black" points="248,-679.5 248,-736.5 343,-736.5 343,-679.5 248,-679.5"/>
<text text-anchor="middle" x="295.5" y="-724.5" font-family="Helvetica,sans-Serif" font-size="10.00">ICommunication</text>
<polyline fill="none" stroke="black" points="248,-717.5 343,-717.5 "/>
<text text-anchor="middle" x="295.5" y="-705.5" font-family="Helvetica,sans-Serif" font-size="10.00"> </text>
<polyline fill="none" stroke="black" points="248,-698.5 343,-698.5 "/>
<text text-anchor="start" x="256" y="-686.5" font-family="Helvetica,sans-Serif" font-size="10.00">+ receive()</text>
</a>
</g>
</g>
<!-- Node4&#45;&gt;Node3 -->
<g id="edge3" class="edge"><title>Node4&#45;&gt;Node3</title>
<path fill="none" stroke="midnightblue" d="M296.331,-669.279C296.843,-621.314 295.926,-536.067 285.5,-464 284.631,-457.994 283.542,-451.817 282.31,-445.632"/>
<polygon fill="none" stroke="midnightblue" points="292.829,-669.454 296.194,-679.5 299.828,-669.548 292.829,-669.454"/>
</g>
<!-- Node5 -->
<g id="node5" class="node"><title>Node5</title>
<g id="a_node5"><a xlink:href="class_i_component.html" target="_top" xlink:title="{IComponent\n||+ IComponent()\l+ IComponent()\l+ setComponentSubId()\l+ getComponentType()\l+ getComponentSubId()\l+ getComponentId()\l+ getObjectType()\l# setComponentType()\l# setObjectType()\l}">
<polygon fill="white" stroke="black" points="191.5,-960.5 191.5,-1105.5 325.5,-1105.5 325.5,-960.5 191.5,-960.5"/>
<text text-anchor="middle" x="258.5" y="-1093.5" font-family="Helvetica,sans-Serif" font-size="10.00">IComponent</text>
<polyline fill="none" stroke="black" points="191.5,-1086.5 325.5,-1086.5 "/>
<text text-anchor="middle" x="258.5" y="-1074.5" font-family="Helvetica,sans-Serif" font-size="10.00"> </text>
<polyline fill="none" stroke="black" points="191.5,-1067.5 325.5,-1067.5 "/>
<text text-anchor="start" x="199.5" y="-1055.5" font-family="Helvetica,sans-Serif" font-size="10.00">+ IComponent()</text>
<text text-anchor="start" x="199.5" y="-1044.5" font-family="Helvetica,sans-Serif" font-size="10.00">+ IComponent()</text>
<text text-anchor="start" x="199.5" y="-1033.5" font-family="Helvetica,sans-Serif" font-size="10.00">+ setComponentSubId()</text>
<text text-anchor="start" x="199.5" y="-1022.5" font-family="Helvetica,sans-Serif" font-size="10.00">+ getComponentType()</text>
<text text-anchor="start" x="199.5" y="-1011.5" font-family="Helvetica,sans-Serif" font-size="10.00">+ getComponentSubId()</text>
<text text-anchor="start" x="199.5" y="-1000.5" font-family="Helvetica,sans-Serif" font-size="10.00">+ getComponentId()</text>
<text text-anchor="start" x="199.5" y="-989.5" font-family="Helvetica,sans-Serif" font-size="10.00">+ getObjectType()</text>
<text text-anchor="start" x="199.5" y="-978.5" font-family="Helvetica,sans-Serif" font-size="10.00"># setComponentType()</text>
<text text-anchor="start" x="199.5" y="-967.5" font-family="Helvetica,sans-Serif" font-size="10.00"># setObjectType()</text>
</a>
</g>
</g>
<!-- Node5&#45;&gt;Node4 -->
<g id="edge4" class="edge"><title>Node5&#45;&gt;Node4</title>
<path fill="none" stroke="midnightblue" d="M267.87,-950.199C275.882,-880.259 286.942,-783.706 292.315,-736.805"/>
<polygon fill="none" stroke="midnightblue" points="264.372,-949.982 266.711,-960.316 271.327,-950.779 264.372,-949.982"/>
</g>
<!-- Node9 -->
<g id="node9" class="node"><title>Node9</title>
<g id="a_node9"><a xlink:href="class_i_runable.html" target="_top" xlink:title="{IRunable\n||+ IRunable()\l+ run()\l+ setStatus()\l+ getStatus()\l}">
<polygon fill="white" stroke="black" points="174,-794 174,-884 257,-884 257,-794 174,-794"/>
<text text-anchor="middle" x="215.5" y="-872" font-family="Helvetica,sans-Serif" font-size="10.00">IRunable</text>
<polyline fill="none" stroke="black" points="174,-865 257,-865 "/>
<text text-anchor="middle" x="215.5" y="-853" font-family="Helvetica,sans-Serif" font-size="10.00"> </text>
<polyline fill="none" stroke="black" points="174,-846 257,-846 "/>
<text text-anchor="start" x="182" y="-834" font-family="Helvetica,sans-Serif" font-size="10.00">+ IRunable()</text>
<text text-anchor="start" x="182" y="-823" font-family="Helvetica,sans-Serif" font-size="10.00">+ run()</text>
<text text-anchor="start" x="182" y="-812" font-family="Helvetica,sans-Serif" font-size="10.00">+ setStatus()</text>
<text text-anchor="start" x="182" y="-801" font-family="Helvetica,sans-Serif" font-size="10.00">+ getStatus()</text>
</a>
</g>
</g>
<!-- Node5&#45;&gt;Node9 -->
<g id="edge9" class="edge"><title>Node5&#45;&gt;Node9</title>
<path fill="none" stroke="midnightblue" d="M240.19,-950.242C235.105,-927.538 229.777,-903.747 225.377,-884.101"/>
<polygon fill="none" stroke="midnightblue" points="236.826,-951.24 242.427,-960.233 243.657,-949.71 236.826,-951.24"/>
</g>
<!-- Node6 -->
<g id="node6" class="node"><title>Node6</title>
<g id="a_node6"><a xlink:href="class_i_logable.html" target="_top" xlink:title="{ILogable\n||+ setStatus()\l+ getStatus()\l+ getLogValueCount()\l+ getLogValue()\l}">
<polygon fill="white" stroke="black" points="197,-1143.5 197,-1233.5 320,-1233.5 320,-1143.5 197,-1143.5"/>
<text text-anchor="middle" x="258.5" y="-1221.5" font-family="Helvetica,sans-Serif" font-size="10.00">ILogable</text>
<polyline fill="none" stroke="black" points="197,-1214.5 320,-1214.5 "/>
<text text-anchor="middle" x="258.5" y="-1202.5" font-family="Helvetica,sans-Serif" font-size="10.00"> </text>
<polyline fill="none" stroke="black" points="197,-1195.5 320,-1195.5 "/>
<text text-anchor="start" x="205" y="-1183.5" font-family="Helvetica,sans-Serif" font-size="10.00">+ setStatus()</text>
<text text-anchor="start" x="205" y="-1172.5" font-family="Helvetica,sans-Serif" font-size="10.00">+ getStatus()</text>
<text text-anchor="start" x="205" y="-1161.5" font-family="Helvetica,sans-Serif" font-size="10.00">+ getLogValueCount()</text>
<text text-anchor="start" x="205" y="-1150.5" font-family="Helvetica,sans-Serif" font-size="10.00">+ getLogValue()</text>
</a>
</g>
</g>
<!-- Node6&#45;&gt;Node5 -->
<g id="edge5" class="edge"><title>Node6&#45;&gt;Node5</title>
<path fill="none" stroke="midnightblue" d="M258.5,-1132.98C258.5,-1124.16 258.5,-1114.92 258.5,-1105.77"/>
<polygon fill="none" stroke="midnightblue" points="255,-1133.1 258.5,-1143.1 262,-1133.1 255,-1133.1"/>
</g>
<!-- Node7 -->
<g id="node7" class="node"><title>Node7</title>
<g id="a_node7"><a xlink:href="class_non_copyable.html" target="_top" xlink:title="{NonCopyable\&lt; ILogable \&gt;\n||+ NonCopyable()\l}">
<polygon fill="white" stroke="black" points="187,-1271.5 187,-1328.5 330,-1328.5 330,-1271.5 187,-1271.5"/>
<text text-anchor="middle" x="258.5" y="-1316.5" font-family="Helvetica,sans-Serif" font-size="10.00">NonCopyable&lt; ILogable &gt;</text>
<polyline fill="none" stroke="black" points="187,-1309.5 330,-1309.5 "/>
<text text-anchor="middle" x="258.5" y="-1297.5" font-family="Helvetica,sans-Serif" font-size="10.00"> </text>
<polyline fill="none" stroke="black" points="187,-1290.5 330,-1290.5 "/>
<text text-anchor="start" x="195" y="-1278.5" font-family="Helvetica,sans-Serif" font-size="10.00">+ NonCopyable()</text>
</a>
</g>
</g>
<!-- Node7&#45;&gt;Node6 -->
<g id="edge6" class="edge"><title>Node7&#45;&gt;Node6</title>
<path fill="none" stroke="#8b1a1a" d="M258.5,-1261.31C258.5,-1252.43 258.5,-1242.88 258.5,-1233.74"/>
<polygon fill="none" stroke="#8b1a1a" points="255,-1261.37 258.5,-1271.37 262,-1261.37 255,-1261.37"/>
</g>
<!-- Node8 -->
<g id="node8" class="node"><title>Node8</title>
<g id="a_node8"><a xlink:href="class_sync.html" target="_top" xlink:title="{Sync\n||+ Sync()\l+ addComponent()\l+ addBridge()\l+ receive()\l+ send()\l+ run()\l+ messageInQueue()\l+ finalize()\l+ Sync()\l+ receive()\land 7 more...\l}">
<polygon fill="white" stroke="black" points="152,-493.5 152,-660.5 271,-660.5 271,-493.5 152,-493.5"/>
<text text-anchor="middle" x="211.5" y="-648.5" font-family="Helvetica,sans-Serif" font-size="10.00">Sync</text>
<polyline fill="none" stroke="black" points="152,-641.5 271,-641.5 "/>
<text text-anchor="middle" x="211.5" y="-629.5" font-family="Helvetica,sans-Serif" font-size="10.00"> </text>
<polyline fill="none" stroke="black" points="152,-622.5 271,-622.5 "/>
<text text-anchor="start" x="160" y="-610.5" font-family="Helvetica,sans-Serif" font-size="10.00">+ Sync()</text>
<text text-anchor="start" x="160" y="-599.5" font-family="Helvetica,sans-Serif" font-size="10.00">+ addComponent()</text>
<text text-anchor="start" x="160" y="-588.5" font-family="Helvetica,sans-Serif" font-size="10.00">+ addBridge()</text>
<text text-anchor="start" x="160" y="-577.5" font-family="Helvetica,sans-Serif" font-size="10.00">+ receive()</text>
<text text-anchor="start" x="160" y="-566.5" font-family="Helvetica,sans-Serif" font-size="10.00">+ send()</text>
<text text-anchor="start" x="160" y="-555.5" font-family="Helvetica,sans-Serif" font-size="10.00">+ run()</text>
<text text-anchor="start" x="160" y="-544.5" font-family="Helvetica,sans-Serif" font-size="10.00">+ messageInQueue()</text>
<text text-anchor="start" x="160" y="-533.5" font-family="Helvetica,sans-Serif" font-size="10.00">+ finalize()</text>
<text text-anchor="start" x="160" y="-522.5" font-family="Helvetica,sans-Serif" font-size="10.00">+ Sync()</text>
<text text-anchor="start" x="160" y="-511.5" font-family="Helvetica,sans-Serif" font-size="10.00">+ receive()</text>
<text text-anchor="start" x="160" y="-500.5" font-family="Helvetica,sans-Serif" font-size="10.00">and 7 more...</text>
</a>
</g>
</g>
<!-- Node8&#45;&gt;Node3 -->
<g id="edge7" class="edge"><title>Node8&#45;&gt;Node3</title>
<path fill="none" stroke="#404040" d="M229.592,-493.348C231.865,-483.446 234.2,-473.487 236.5,-464 237.022,-461.845 237.556,-459.664 238.098,-457.465"/>
<polygon fill="none" stroke="#404040" points="238.158,-457.223 235.73,-450.433 241.065,-445.58 243.492,-452.371 238.158,-457.223"/>
<text text-anchor="middle" x="261" y="-467" font-family="Helvetica,sans-Serif" font-size="10.00"> #_syncer</text>
</g>
<!-- Node9&#45;&gt;Node8 -->
<g id="edge8" class="edge"><title>Node9&#45;&gt;Node8</title>
<path fill="none" stroke="midnightblue" d="M209.058,-783.718C207.291,-748.146 206.321,-700.965 206.436,-660.76"/>
<polygon fill="none" stroke="midnightblue" points="205.573,-784.097 209.604,-793.895 212.563,-783.721 205.573,-784.097"/>
</g>
<!-- Node9&#45;&gt;Node8 -->
<g id="edge10" class="edge"><title>Node9&#45;&gt;Node8</title>
<path fill="none" stroke="midnightblue" d="M220.272,-783.718C220.945,-748.146 220.462,-700.965 219.11,-660.76"/>
<polygon fill="none" stroke="midnightblue" points="216.769,-783.817 220.038,-793.895 223.767,-783.977 216.769,-783.817"/>
</g>
<!-- Node10 -->
<g id="node10" class="node"><title>Node10</title>
<g id="a_node10"><a xlink:href="classstd_1_1vector.html" target="_top" xlink:title="{std::vector\&lt; CarMessage \&gt;\n||+ ~vector()\l+ at()\l+ operator[]()\l+ front()\l+ back()\l+ data()\l+ begin()\l+ end()\l+ empty()\l+ size()\land 7 more...\l}">
<polygon fill="white" stroke="black" points="0,-755.5 0,-922.5 149,-922.5 149,-755.5 0,-755.5"/>
<text text-anchor="middle" x="74.5" y="-910.5" font-family="Helvetica,sans-Serif" font-size="10.00">std::vector&lt; CarMessage &gt;</text>
<polyline fill="none" stroke="black" points="0,-903.5 149,-903.5 "/>
<text text-anchor="middle" x="74.5" y="-891.5" font-family="Helvetica,sans-Serif" font-size="10.00"> </text>
<polyline fill="none" stroke="black" points="0,-884.5 149,-884.5 "/>
<text text-anchor="start" x="8" y="-872.5" font-family="Helvetica,sans-Serif" font-size="10.00">+ ~vector()</text>
<text text-anchor="start" x="8" y="-861.5" font-family="Helvetica,sans-Serif" font-size="10.00">+ at()</text>
<text text-anchor="start" x="8" y="-850.5" font-family="Helvetica,sans-Serif" font-size="10.00">+ operator[]()</text>
<text text-anchor="start" x="8" y="-839.5" font-family="Helvetica,sans-Serif" font-size="10.00">+ front()</text>
<text text-anchor="start" x="8" y="-828.5" font-family="Helvetica,sans-Serif" font-size="10.00">+ back()</text>
<text text-anchor="start" x="8" y="-817.5" font-family="Helvetica,sans-Serif" font-size="10.00">+ data()</text>
<text text-anchor="start" x="8" y="-806.5" font-family="Helvetica,sans-Serif" font-size="10.00">+ begin()</text>
<text text-anchor="start" x="8" y="-795.5" font-family="Helvetica,sans-Serif" font-size="10.00">+ end()</text>
<text text-anchor="start" x="8" y="-784.5" font-family="Helvetica,sans-Serif" font-size="10.00">+ empty()</text>
<text text-anchor="start" x="8" y="-773.5" font-family="Helvetica,sans-Serif" font-size="10.00">+ size()</text>
<text text-anchor="start" x="8" y="-762.5" font-family="Helvetica,sans-Serif" font-size="10.00">and 7 more...</text>
</a>
</g>
</g>
<!-- Node10&#45;&gt;Node8 -->
<g id="edge11" class="edge"><title>Node10&#45;&gt;Node8</title>
<path fill="none" stroke="#404040" d="M72.2405,-755.251C74.5224,-729.6 80.213,-702.042 92.5,-679 104.334,-656.808 123.228,-637.431 142.509,-621.746"/>
<polygon fill="none" stroke="#404040" points="142.521,-621.737 144.785,-614.89 151.975,-614.347 149.711,-621.193 142.521,-621.737"/>
<text text-anchor="middle" x="151" y="-705.5" font-family="Helvetica,sans-Serif" font-size="10.00"> +receivedCarMessages</text>
</g>
<!-- Node11 -->
<g id="node11" class="node"><title>Node11</title>
<g id="a_node11"><a xlink:href="class_non_copyable.html" target="_top" xlink:title="{NonCopyable\&lt; vector\l\&lt; CarMessage, unsigned\l int \&gt; \&gt;\n||+ NonCopyable()\l}">
<polygon fill="white" stroke="black" points="6,-993.5 6,-1072.5 143,-1072.5 143,-993.5 6,-993.5"/>
<text text-anchor="start" x="14" y="-1060.5" font-family="Helvetica,sans-Serif" font-size="10.00">NonCopyable&lt; vector</text>
<text text-anchor="start" x="14" y="-1049.5" font-family="Helvetica,sans-Serif" font-size="10.00">&lt; CarMessage, unsigned</text>
<text text-anchor="middle" x="74.5" y="-1038.5" font-family="Helvetica,sans-Serif" font-size="10.00"> int &gt; &gt;</text>
<polyline fill="none" stroke="black" points="6,-1031.5 143,-1031.5 "/>
<text text-anchor="middle" x="74.5" y="-1019.5" font-family="Helvetica,sans-Serif" font-size="10.00"> </text>
<polyline fill="none" stroke="black" points="6,-1012.5 143,-1012.5 "/>
<text text-anchor="start" x="14" y="-1000.5" font-family="Helvetica,sans-Serif" font-size="10.00">+ NonCopyable()</text>
</a>
</g>
</g>
<!-- Node11&#45;&gt;Node10 -->
<g id="edge12" class="edge"><title>Node11&#45;&gt;Node10</title>
<path fill="none" stroke="#8b1a1a" d="M74.5,-983.022C74.5,-964.699 74.5,-943.342 74.5,-922.805"/>
<polygon fill="none" stroke="#8b1a1a" points="71.0001,-983.146 74.5,-993.146 78.0001,-983.146 71.0001,-983.146"/>
</g>
</g>
</svg>
