<?xml version="1.0" encoding="UTF-8" standalone="no"?>
<!DOCTYPE svg PUBLIC "-//W3C//DTD SVG 1.1//EN"
 "http://www.w3.org/Graphics/SVG/1.1/DTD/svg11.dtd">
<!-- Generated by graphviz version 2.38.0 (20140413.2041)
 -->
<!-- Title: IAnalogSensor Pages: 1 -->
<svg width="180pt" height="226pt"
 viewBox="0.00 0.00 180.00 226.00" xmlns="http://www.w3.org/2000/svg" xmlns:xlink="http://www.w3.org/1999/xlink">
<g id="graph0" class="graph" transform="scale(1 1) rotate(0) translate(4 222)">
<title>IAnalogSensor</title>
<polygon fill="white" stroke="none" points="-4,4 -4,-222 176,-222 176,4 -4,4"/>
<!-- Node1 -->
<g id="node1" class="node"><title>Node1</title>
<polygon fill="#bfbfbf" stroke="black" points="8.5,-0.5 8.5,-123.5 163.5,-123.5 163.5,-0.5 8.5,-0.5"/>
<text text-anchor="middle" x="86" y="-111.5" font-family="Helvetica,sans-Serif" font-size="10.00">IAnalogSensor</text>
<polyline fill="none" stroke="black" points="8.5,-104.5 163.5,-104.5 "/>
<text text-anchor="middle" x="86" y="-92.5" font-family="Helvetica,sans-Serif" font-size="10.00"> </text>
<polyline fill="none" stroke="black" points="8.5,-85.5 163.5,-85.5 "/>
<text text-anchor="start" x="16.5" y="-73.5" font-family="Helvetica,sans-Serif" font-size="10.00">+ setMapping()</text>
<text text-anchor="start" x="16.5" y="-62.5" font-family="Helvetica,sans-Serif" font-size="10.00">+ setRawBoundary()</text>
<text text-anchor="start" x="16.5" y="-51.5" font-family="Helvetica,sans-Serif" font-size="10.00">+ setRawBoundaryOutTime()</text>
<text text-anchor="start" x="16.5" y="-40.5" font-family="Helvetica,sans-Serif" font-size="10.00">+ setBoundary()</text>
<text text-anchor="start" x="16.5" y="-29.5" font-family="Helvetica,sans-Serif" font-size="10.00">+ setBoundaryOutTime()</text>
<text text-anchor="start" x="16.5" y="-18.5" font-family="Helvetica,sans-Serif" font-size="10.00">+ getRawValue()</text>
<text text-anchor="start" x="16.5" y="-7.5" font-family="Helvetica,sans-Serif" font-size="10.00">+ getValue()</text>
</g>
<!-- Node2 -->
<g id="node2" class="node"><title>Node2</title>
<g id="a_node2"><a xlink:href="class_non_copyable.html" target="_top" xlink:title="{NonCopyable\&lt; IAnalogSensor \&gt;\n||+ NonCopyable()\l}">
<polygon fill="white" stroke="black" points="0,-160.5 0,-217.5 172,-217.5 172,-160.5 0,-160.5"/>
<text text-anchor="middle" x="86" y="-205.5" font-family="Helvetica,sans-Serif" font-size="10.00">NonCopyable&lt; IAnalogSensor &gt;</text>
<polyline fill="none" stroke="black" points="0,-198.5 172,-198.5 "/>
<text text-anchor="middle" x="86" y="-186.5" font-family="Helvetica,sans-Serif" font-size="10.00"> </text>
<polyline fill="none" stroke="black" points="0,-179.5 172,-179.5 "/>
<text text-anchor="start" x="8" y="-167.5" font-family="Helvetica,sans-Serif" font-size="10.00">+ NonCopyable()</text>
</a>
</g>
</g>
<!-- Node2&#45;&gt;Node1 -->
<g id="edge1" class="edge"><title>Node2&#45;&gt;Node1</title>
<path fill="none" stroke="#8b1a1a" d="M86,-150.099C86,-141.739 86,-132.68 86,-123.672"/>
<polygon fill="none" stroke="#8b1a1a" points="82.5001,-150.258 86,-160.258 89.5001,-150.258 82.5001,-150.258"/>
</g>
</g>
</svg>
