<?xml version="1.0" encoding="UTF-8" standalone="no"?>
<!DOCTYPE svg PUBLIC "-//W3C//DTD SVG 1.1//EN"
 "http://www.w3.org/Graphics/SVG/1.1/DTD/svg11.dtd">
<!-- Generated by graphviz version 2.38.0 (20140413.2041)
 -->
<!-- Title: SoftwareLed Pages: 1 -->
<svg width="351pt" height="1425pt"
 viewBox="0.00 0.00 351.00 1425.00" xmlns="http://www.w3.org/2000/svg" xmlns:xlink="http://www.w3.org/1999/xlink">
<g id="graph0" class="graph" transform="scale(1 1) rotate(0) translate(4 1421)">
<title>SoftwareLed</title>
<polygon fill="white" stroke="none" points="-4,4 -4,-1421 347,-1421 347,4 -4,4"/>
<!-- Node1 -->
<g id="node1" class="node"><title>Node1</title>
<polygon fill="#bfbfbf" stroke="black" points="210.5,-0.5 210.5,-178.5 312.5,-178.5 312.5,-0.5 210.5,-0.5"/>
<text text-anchor="middle" x="261.5" y="-166.5" font-family="Helvetica,sans-Serif" font-size="10.00">SoftwareLed</text>
<polyline fill="none" stroke="black" points="210.5,-159.5 312.5,-159.5 "/>
<text text-anchor="start" x="218.5" y="-147.5" font-family="Helvetica,sans-Serif" font-size="10.00"># _state</text>
<text text-anchor="start" x="218.5" y="-136.5" font-family="Helvetica,sans-Serif" font-size="10.00"># _brightness</text>
<text text-anchor="start" x="218.5" y="-125.5" font-family="Helvetica,sans-Serif" font-size="10.00"># _blinking</text>
<polyline fill="none" stroke="black" points="210.5,-118.5 312.5,-118.5 "/>
<text text-anchor="start" x="218.5" y="-106.5" font-family="Helvetica,sans-Serif" font-size="10.00">+ SoftwareLed()</text>
<text text-anchor="start" x="218.5" y="-95.5" font-family="Helvetica,sans-Serif" font-size="10.00">+ setState()</text>
<text text-anchor="start" x="218.5" y="-84.5" font-family="Helvetica,sans-Serif" font-size="10.00">+ setBrightness()</text>
<text text-anchor="start" x="218.5" y="-73.5" font-family="Helvetica,sans-Serif" font-size="10.00">+ setBlinking()</text>
<text text-anchor="start" x="218.5" y="-62.5" font-family="Helvetica,sans-Serif" font-size="10.00">+ getState()</text>
<text text-anchor="start" x="218.5" y="-51.5" font-family="Helvetica,sans-Serif" font-size="10.00">+ getBrightness()</text>
<text text-anchor="start" x="218.5" y="-40.5" font-family="Helvetica,sans-Serif" font-size="10.00">+ getBlinking()</text>
<text text-anchor="start" x="218.5" y="-29.5" font-family="Helvetica,sans-Serif" font-size="10.00">+ receive()</text>
<text text-anchor="start" x="218.5" y="-18.5" font-family="Helvetica,sans-Serif" font-size="10.00">+ setStatus()</text>
<text text-anchor="start" x="218.5" y="-7.5" font-family="Helvetica,sans-Serif" font-size="10.00">+ getStatus()</text>
</g>
<!-- Node2 -->
<g id="node2" class="node"><title>Node2</title>
<g id="a_node2"><a xlink:href="class_i_led.html" target="_top" xlink:title="{ILed\n||+ ILed()\l+ setState()\l+ setBrightness()\l+ setBlinking()\l+ getState()\l+ getBrightness()\l+ getBlinking()\l}">
<polygon fill="white" stroke="black" points="210.5,-216.5 210.5,-339.5 312.5,-339.5 312.5,-216.5 210.5,-216.5"/>
<text text-anchor="middle" x="261.5" y="-327.5" font-family="Helvetica,sans-Serif" font-size="10.00">ILed</text>
<polyline fill="none" stroke="black" points="210.5,-320.5 312.5,-320.5 "/>
<text text-anchor="middle" x="261.5" y="-308.5" font-family="Helvetica,sans-Serif" font-size="10.00"> </text>
<polyline fill="none" stroke="black" points="210.5,-301.5 312.5,-301.5 "/>
<text text-anchor="start" x="218.5" y="-289.5" font-family="Helvetica,sans-Serif" font-size="10.00">+ ILed()</text>
<text text-anchor="start" x="218.5" y="-278.5" font-family="Helvetica,sans-Serif" font-size="10.00">+ setState()</text>
<text text-anchor="start" x="218.5" y="-267.5" font-family="Helvetica,sans-Serif" font-size="10.00">+ setBrightness()</text>
<text text-anchor="start" x="218.5" y="-256.5" font-family="Helvetica,sans-Serif" font-size="10.00">+ setBlinking()</text>
<text text-anchor="start" x="218.5" y="-245.5" font-family="Helvetica,sans-Serif" font-size="10.00">+ getState()</text>
<text text-anchor="start" x="218.5" y="-234.5" font-family="Helvetica,sans-Serif" font-size="10.00">+ getBrightness()</text>
<text text-anchor="start" x="218.5" y="-223.5" font-family="Helvetica,sans-Serif" font-size="10.00">+ getBlinking()</text>
</a>
</g>
</g>
<!-- Node2&#45;&gt;Node1 -->
<g id="edge1" class="edge"><title>Node2&#45;&gt;Node1</title>
<path fill="none" stroke="midnightblue" d="M261.5,-206.333C261.5,-197.241 261.5,-187.844 261.5,-178.517"/>
<polygon fill="none" stroke="midnightblue" points="258,-206.449 261.5,-216.449 265,-206.449 258,-206.449"/>
</g>
<!-- Node3 -->
<g id="node3" class="node"><title>Node3</title>
<g id="a_node3"><a xlink:href="class_self_syncable.html" target="_top" xlink:title="{SelfSyncable\n|# _syncerAttached\l|+ attach()\l+ detach()\l# _sendCommand()\l# _sendCommand()\l# _sendCommand()\l# _send()\l# _convertFloat()\l# _reconvertFloat()\l# _disassambleFloat()\l# _reassambleFloat()\l}">
<polygon fill="white" stroke="black" points="199.5,-377.5 199.5,-533.5 323.5,-533.5 323.5,-377.5 199.5,-377.5"/>
<text text-anchor="middle" x="261.5" y="-521.5" font-family="Helvetica,sans-Serif" font-size="10.00">SelfSyncable</text>
<polyline fill="none" stroke="black" points="199.5,-514.5 323.5,-514.5 "/>
<text text-anchor="start" x="207.5" y="-502.5" font-family="Helvetica,sans-Serif" font-size="10.00"># _syncerAttached</text>
<polyline fill="none" stroke="black" points="199.5,-495.5 323.5,-495.5 "/>
<text text-anchor="start" x="207.5" y="-483.5" font-family="Helvetica,sans-Serif" font-size="10.00">+ attach()</text>
<text text-anchor="start" x="207.5" y="-472.5" font-family="Helvetica,sans-Serif" font-size="10.00">+ detach()</text>
<text text-anchor="start" x="207.5" y="-461.5" font-family="Helvetica,sans-Serif" font-size="10.00"># _sendCommand()</text>
<text text-anchor="start" x="207.5" y="-450.5" font-family="Helvetica,sans-Serif" font-size="10.00"># _sendCommand()</text>
<text text-anchor="start" x="207.5" y="-439.5" font-family="Helvetica,sans-Serif" font-size="10.00"># _sendCommand()</text>
<text text-anchor="start" x="207.5" y="-428.5" font-family="Helvetica,sans-Serif" font-size="10.00"># _send()</text>
<text text-anchor="start" x="207.5" y="-417.5" font-family="Helvetica,sans-Serif" font-size="10.00"># _convertFloat()</text>
<text text-anchor="start" x="207.5" y="-406.5" font-family="Helvetica,sans-Serif" font-size="10.00"># _reconvertFloat()</text>
<text text-anchor="start" x="207.5" y="-395.5" font-family="Helvetica,sans-Serif" font-size="10.00"># _disassambleFloat()</text>
<text text-anchor="start" x="207.5" y="-384.5" font-family="Helvetica,sans-Serif" font-size="10.00"># _reassambleFloat()</text>
</a>
</g>
</g>
<!-- Node3&#45;&gt;Node2 -->
<g id="edge2" class="edge"><title>Node3&#45;&gt;Node2</title>
<path fill="none" stroke="midnightblue" d="M261.5,-367.186C261.5,-357.874 261.5,-348.556 261.5,-339.65"/>
<polygon fill="none" stroke="midnightblue" points="258,-367.268 261.5,-377.268 265,-367.268 258,-367.268"/>
</g>
<!-- Node4 -->
<g id="node4" class="node"><title>Node4</title>
<g id="a_node4"><a xlink:href="class_i_communication.html" target="_top" xlink:title="{ICommunication\n||+ receive()\l}">
<polygon fill="white" stroke="black" points="248,-767.5 248,-824.5 343,-824.5 343,-767.5 248,-767.5"/>
<text text-anchor="middle" x="295.5" y="-812.5" font-family="Helvetica,sans-Serif" font-size="10.00">ICommunication</text>
<polyline fill="none" stroke="black" points="248,-805.5 343,-805.5 "/>
<text text-anchor="middle" x="295.5" y="-793.5" font-family="Helvetica,sans-Serif" font-size="10.00"> </text>
<polyline fill="none" stroke="black" points="248,-786.5 343,-786.5 "/>
<text text-anchor="start" x="256" y="-774.5" font-family="Helvetica,sans-Serif" font-size="10.00">+ receive()</text>
</a>
</g>
</g>
<!-- Node4&#45;&gt;Node3 -->
<g id="edge3" class="edge"><title>Node4&#45;&gt;Node3</title>
<path fill="none" stroke="midnightblue" d="M296.331,-757.279C296.843,-709.314 295.926,-624.067 285.5,-552 284.631,-545.994 283.542,-539.817 282.31,-533.632"/>
<polygon fill="none" stroke="midnightblue" points="292.829,-757.454 296.194,-767.5 299.828,-757.548 292.829,-757.454"/>
</g>
<!-- Node5 -->
<g id="node5" class="node"><title>Node5</title>
<g id="a_node5"><a xlink:href="class_i_component.html" target="_top" xlink:title="{IComponent\n||+ IComponent()\l+ IComponent()\l+ setComponentSubId()\l+ getComponentType()\l+ getComponentSubId()\l+ getComponentId()\l+ getObjectType()\l# setComponentType()\l# setObjectType()\l}">
<polygon fill="white" stroke="black" points="191.5,-1048.5 191.5,-1193.5 325.5,-1193.5 325.5,-1048.5 191.5,-1048.5"/>
<text text-anchor="middle" x="258.5" y="-1181.5" font-family="Helvetica,sans-Serif" font-size="10.00">IComponent</text>
<polyline fill="none" stroke="black" points="191.5,-1174.5 325.5,-1174.5 "/>
<text text-anchor="middle" x="258.5" y="-1162.5" font-family="Helvetica,sans-Serif" font-size="10.00"> </text>
<polyline fill="none" stroke="black" points="191.5,-1155.5 325.5,-1155.5 "/>
<text text-anchor="start" x="199.5" y="-1143.5" font-family="Helvetica,sans-Serif" font-size="10.00">+ IComponent()</text>
<text text-anchor="start" x="199.5" y="-1132.5" font-family="Helvetica,sans-Serif" font-size="10.00">+ IComponent()</text>
<text text-anchor="start" x="199.5" y="-1121.5" font-family="Helvetica,sans-Serif" font-size="10.00">+ setComponentSubId()</text>
<text text-anchor="start" x="199.5" y="-1110.5" font-family="Helvetica,sans-Serif" font-size="10.00">+ getComponentType()</text>
<text text-anchor="start" x="199.5" y="-1099.5" font-family="Helvetica,sans-Serif" font-size="10.00">+ getComponentSubId()</text>
<text text-anchor="start" x="199.5" y="-1088.5" font-family="Helvetica,sans-Serif" font-size="10.00">+ getComponentId()</text>
<text text-anchor="start" x="199.5" y="-1077.5" font-family="Helvetica,sans-Serif" font-size="10.00">+ getObjectType()</text>
<text text-anchor="start" x="199.5" y="-1066.5" font-family="Helvetica,sans-Serif" font-size="10.00"># setComponentType()</text>
<text text-anchor="start" x="199.5" y="-1055.5" font-family="Helvetica,sans-Serif" font-size="10.00"># setObjectType()</text>
</a>
</g>
</g>
<!-- Node5&#45;&gt;Node4 -->
<g id="edge4" class="edge"><title>Node5&#45;&gt;Node4</title>
<path fill="none" stroke="midnightblue" d="M267.87,-1038.2C275.882,-968.259 286.942,-871.706 292.315,-824.805"/>
<polygon fill="none" stroke="midnightblue" points="264.372,-1037.98 266.711,-1048.32 271.327,-1038.78 264.372,-1037.98"/>
</g>
<!-- Node9 -->
<g id="node9" class="node"><title>Node9</title>
<g id="a_node9"><a xlink:href="class_i_runable.html" target="_top" xlink:title="{IRunable\n||+ IRunable()\l+ run()\l+ setStatus()\l+ getStatus()\l}">
<polygon fill="white" stroke="black" points="174,-882 174,-972 257,-972 257,-882 174,-882"/>
<text text-anchor="middle" x="215.5" y="-960" font-family="Helvetica,sans-Serif" font-size="10.00">IRunable</text>
<polyline fill="none" stroke="black" points="174,-953 257,-953 "/>
<text text-anchor="middle" x="215.5" y="-941" font-family="Helvetica,sans-Serif" font-size="10.00"> </text>
<polyline fill="none" stroke="black" points="174,-934 257,-934 "/>
<text text-anchor="start" x="182" y="-922" font-family="Helvetica,sans-Serif" font-size="10.00">+ IRunable()</text>
<text text-anchor="start" x="182" y="-911" font-family="Helvetica,sans-Serif" font-size="10.00">+ run()</text>
<text text-anchor="start" x="182" y="-900" font-family="Helvetica,sans-Serif" font-size="10.00">+ setStatus()</text>
<text text-anchor="start" x="182" y="-889" font-family="Helvetica,sans-Serif" font-size="10.00">+ getStatus()</text>
</a>
</g>
</g>
<!-- Node5&#45;&gt;Node9 -->
<g id="edge9" class="edge"><title>Node5&#45;&gt;Node9</title>
<path fill="none" stroke="midnightblue" d="M240.19,-1038.24C235.105,-1015.54 229.777,-991.747 225.377,-972.101"/>
<polygon fill="none" stroke="midnightblue" points="236.826,-1039.24 242.427,-1048.23 243.657,-1037.71 236.826,-1039.24"/>
</g>
<!-- Node6 -->
<g id="node6" class="node"><title>Node6</title>
<g id="a_node6"><a xlink:href="class_i_logable.html" target="_top" xlink:title="{ILogable\n||+ setStatus()\l+ getStatus()\l+ getLogValueCount()\l+ getLogValue()\l}">
<polygon fill="white" stroke="black" points="197,-1231.5 197,-1321.5 320,-1321.5 320,-1231.5 197,-1231.5"/>
<text text-anchor="middle" x="258.5" y="-1309.5" font-family="Helvetica,sans-Serif" font-size="10.00">ILogable</text>
<polyline fill="none" stroke="black" points="197,-1302.5 320,-1302.5 "/>
<text text-anchor="middle" x="258.5" y="-1290.5" font-family="Helvetica,sans-Serif" font-size="10.00"> </text>
<polyline fill="none" stroke="black" points="197,-1283.5 320,-1283.5 "/>
<text text-anchor="start" x="205" y="-1271.5" font-family="Helvetica,sans-Serif" font-size="10.00">+ setStatus()</text>
<text text-anchor="start" x="205" y="-1260.5" font-family="Helvetica,sans-Serif" font-size="10.00">+ getStatus()</text>
<text text-anchor="start" x="205" y="-1249.5" font-family="Helvetica,sans-Serif" font-size="10.00">+ getLogValueCount()</text>
<text text-anchor="start" x="205" y="-1238.5" font-family="Helvetica,sans-Serif" font-size="10.00">+ getLogValue()</text>
</a>
</g>
</g>
<!-- Node6&#45;&gt;Node5 -->
<g id="edge5" class="edge"><title>Node6&#45;&gt;Node5</title>
<path fill="none" stroke="midnightblue" d="M258.5,-1220.98C258.5,-1212.16 258.5,-1202.92 258.5,-1193.77"/>
<polygon fill="none" stroke="midnightblue" points="255,-1221.1 258.5,-1231.1 262,-1221.1 255,-1221.1"/>
</g>
<!-- Node7 -->
<g id="node7" class="node"><title>Node7</title>
<g id="a_node7"><a xlink:href="class_non_copyable.html" target="_top" xlink:title="{NonCopyable\&lt; ILogable \&gt;\n||+ NonCopyable()\l}">
<polygon fill="white" stroke="black" points="187,-1359.5 187,-1416.5 330,-1416.5 330,-1359.5 187,-1359.5"/>
<text text-anchor="middle" x="258.5" y="-1404.5" font-family="Helvetica,sans-Serif" font-size="10.00">NonCopyable&lt; ILogable &gt;</text>
<polyline fill="none" stroke="black" points="187,-1397.5 330,-1397.5 "/>
<text text-anchor="middle" x="258.5" y="-1385.5" font-family="Helvetica,sans-Serif" font-size="10.00"> </text>
<polyline fill="none" stroke="black" points="187,-1378.5 330,-1378.5 "/>
<text text-anchor="start" x="195" y="-1366.5" font-family="Helvetica,sans-Serif" font-size="10.00">+ NonCopyable()</text>
</a>
</g>
</g>
<!-- Node7&#45;&gt;Node6 -->
<g id="edge6" class="edge"><title>Node7&#45;&gt;Node6</title>
<path fill="none" stroke="#8b1a1a" d="M258.5,-1349.31C258.5,-1340.43 258.5,-1330.88 258.5,-1321.74"/>
<polygon fill="none" stroke="#8b1a1a" points="255,-1349.37 258.5,-1359.37 262,-1349.37 255,-1349.37"/>
</g>
<!-- Node8 -->
<g id="node8" class="node"><title>Node8</title>
<g id="a_node8"><a xlink:href="class_sync.html" target="_top" xlink:title="{Sync\n||+ Sync()\l+ addComponent()\l+ addBridge()\l+ receive()\l+ send()\l+ run()\l+ messageInQueue()\l+ finalize()\l+ Sync()\l+ receive()\land 7 more...\l}">
<polygon fill="white" stroke="black" points="152,-581.5 152,-748.5 271,-748.5 271,-581.5 152,-581.5"/>
<text text-anchor="middle" x="211.5" y="-736.5" font-family="Helvetica,sans-Serif" font-size="10.00">Sync</text>
<polyline fill="none" stroke="black" points="152,-729.5 271,-729.5 "/>
<text text-anchor="middle" x="211.5" y="-717.5" font-family="Helvetica,sans-Serif" font-size="10.00"> </text>
<polyline fill="none" stroke="black" points="152,-710.5 271,-710.5 "/>
<text text-anchor="start" x="160" y="-698.5" font-family="Helvetica,sans-Serif" font-size="10.00">+ Sync()</text>
<text text-anchor="start" x="160" y="-687.5" font-family="Helvetica,sans-Serif" font-size="10.00">+ addComponent()</text>
<text text-anchor="start" x="160" y="-676.5" font-family="Helvetica,sans-Serif" font-size="10.00">+ addBridge()</text>
<text text-anchor="start" x="160" y="-665.5" font-family="Helvetica,sans-Serif" font-size="10.00">+ receive()</text>
<text text-anchor="start" x="160" y="-654.5" font-family="Helvetica,sans-Serif" font-size="10.00">+ send()</text>
<text text-anchor="start" x="160" y="-643.5" font-family="Helvetica,sans-Serif" font-size="10.00">+ run()</text>
<text text-anchor="start" x="160" y="-632.5" font-family="Helvetica,sans-Serif" font-size="10.00">+ messageInQueue()</text>
<text text-anchor="start" x="160" y="-621.5" font-family="Helvetica,sans-Serif" font-size="10.00">+ finalize()</text>
<text text-anchor="start" x="160" y="-610.5" font-family="Helvetica,sans-Serif" font-size="10.00">+ Sync()</text>
<text text-anchor="start" x="160" y="-599.5" font-family="Helvetica,sans-Serif" font-size="10.00">+ receive()</text>
<text text-anchor="start" x="160" y="-588.5" font-family="Helvetica,sans-Serif" font-size="10.00">and 7 more...</text>
</a>
</g>
</g>
<!-- Node8&#45;&gt;Node3 -->
<g id="edge7" class="edge"><title>Node8&#45;&gt;Node3</title>
<path fill="none" stroke="#404040" d="M229.592,-581.348C231.865,-571.446 234.2,-561.487 236.5,-552 237.022,-549.845 237.556,-547.664 238.098,-545.465"/>
<polygon fill="none" stroke="#404040" points="238.158,-545.223 235.73,-538.433 241.065,-533.58 243.492,-540.371 238.158,-545.223"/>
<text text-anchor="middle" x="261" y="-555" font-family="Helvetica,sans-Serif" font-size="10.00"> #_syncer</text>
</g>
<!-- Node9&#45;&gt;Node8 -->
<g id="edge8" class="edge"><title>Node9&#45;&gt;Node8</title>
<path fill="none" stroke="midnightblue" d="M209.058,-871.718C207.291,-836.146 206.321,-788.965 206.436,-748.76"/>
<polygon fill="none" stroke="midnightblue" points="205.573,-872.097 209.604,-881.895 212.563,-871.721 205.573,-872.097"/>
</g>
<!-- Node9&#45;&gt;Node8 -->
<g id="edge10" class="edge"><title>Node9&#45;&gt;Node8</title>
<path fill="none" stroke="midnightblue" d="M220.272,-871.718C220.945,-836.146 220.462,-788.965 219.11,-748.76"/>
<polygon fill="none" stroke="midnightblue" points="216.769,-871.817 220.038,-881.895 223.767,-871.977 216.769,-871.817"/>
</g>
<!-- Node10 -->
<g id="node10" class="node"><title>Node10</title>
<g id="a_node10"><a xlink:href="classstd_1_1vector.html" target="_top" xlink:title="{std::vector\&lt; CarMessage \&gt;\n||+ ~vector()\l+ at()\l+ operator[]()\l+ front()\l+ back()\l+ data()\l+ begin()\l+ end()\l+ empty()\l+ size()\land 7 more...\l}">
<polygon fill="white" stroke="black" points="0,-843.5 0,-1010.5 149,-1010.5 149,-843.5 0,-843.5"/>
<text text-anchor="middle" x="74.5" y="-998.5" font-family="Helvetica,sans-Serif" font-size="10.00">std::vector&lt; CarMessage &gt;</text>
<polyline fill="none" stroke="black" points="0,-991.5 149,-991.5 "/>
<text text-anchor="middle" x="74.5" y="-979.5" font-family="Helvetica,sans-Serif" font-size="10.00"> </text>
<polyline fill="none" stroke="black" points="0,-972.5 149,-972.5 "/>
<text text-anchor="start" x="8" y="-960.5" font-family="Helvetica,sans-Serif" font-size="10.00">+ ~vector()</text>
<text text-anchor="start" x="8" y="-949.5" font-family="Helvetica,sans-Serif" font-size="10.00">+ at()</text>
<text text-anchor="start" x="8" y="-938.5" font-family="Helvetica,sans-Serif" font-size="10.00">+ operator[]()</text>
<text text-anchor="start" x="8" y="-927.5" font-family="Helvetica,sans-Serif" font-size="10.00">+ front()</text>
<text text-anchor="start" x="8" y="-916.5" font-family="Helvetica,sans-Serif" font-size="10.00">+ back()</text>
<text text-anchor="start" x="8" y="-905.5" font-family="Helvetica,sans-Serif" font-size="10.00">+ data()</text>
<text text-anchor="start" x="8" y="-894.5" font-family="Helvetica,sans-Serif" font-size="10.00">+ begin()</text>
<text text-anchor="start" x="8" y="-883.5" font-family="Helvetica,sans-Serif" font-size="10.00">+ end()</text>
<text text-anchor="start" x="8" y="-872.5" font-family="Helvetica,sans-Serif" font-size="10.00">+ empty()</text>
<text text-anchor="start" x="8" y="-861.5" font-family="Helvetica,sans-Serif" font-size="10.00">+ size()</text>
<text text-anchor="start" x="8" y="-850.5" font-family="Helvetica,sans-Serif" font-size="10.00">and 7 more...</text>
</a>
</g>
</g>
<!-- Node10&#45;&gt;Node8 -->
<g id="edge11" class="edge"><title>Node10&#45;&gt;Node8</title>
<path fill="none" stroke="#404040" d="M72.2405,-843.251C74.5224,-817.6 80.213,-790.042 92.5,-767 104.334,-744.808 123.228,-725.431 142.509,-709.746"/>
<polygon fill="none" stroke="#404040" points="142.521,-709.737 144.785,-702.89 151.975,-702.347 149.711,-709.193 142.521,-709.737"/>
<text text-anchor="middle" x="151" y="-793.5" font-family="Helvetica,sans-Serif" font-size="10.00"> +receivedCarMessages</text>
</g>
<!-- Node11 -->
<g id="node11" class="node"><title>Node11</title>
<g id="a_node11"><a xlink:href="class_non_copyable.html" target="_top" xlink:title="{NonCopyable\&lt; vector\l\&lt; CarMessage, unsigned\l int \&gt; \&gt;\n||+ NonCopyable()\l}">
<polygon fill="white" stroke="black" points="6,-1081.5 6,-1160.5 143,-1160.5 143,-1081.5 6,-1081.5"/>
<text text-anchor="start" x="14" y="-1148.5" font-family="Helvetica,sans-Serif" font-size="10.00">NonCopyable&lt; vector</text>
<text text-anchor="start" x="14" y="-1137.5" font-family="Helvetica,sans-Serif" font-size="10.00">&lt; CarMessage, unsigned</text>
<text text-anchor="middle" x="74.5" y="-1126.5" font-family="Helvetica,sans-Serif" font-size="10.00"> int &gt; &gt;</text>
<polyline fill="none" stroke="black" points="6,-1119.5 143,-1119.5 "/>
<text text-anchor="middle" x="74.5" y="-1107.5" font-family="Helvetica,sans-Serif" font-size="10.00"> </text>
<polyline fill="none" stroke="black" points="6,-1100.5 143,-1100.5 "/>
<text text-anchor="start" x="14" y="-1088.5" font-family="Helvetica,sans-Serif" font-size="10.00">+ NonCopyable()</text>
</a>
</g>
</g>
<!-- Node11&#45;&gt;Node10 -->
<g id="edge12" class="edge"><title>Node11&#45;&gt;Node10</title>
<path fill="none" stroke="#8b1a1a" d="M74.5,-1071.02C74.5,-1052.7 74.5,-1031.34 74.5,-1010.81"/>
<polygon fill="none" stroke="#8b1a1a" points="71.0001,-1071.15 74.5,-1081.15 78.0001,-1071.15 71.0001,-1071.15"/>
</g>
</g>
</svg>
