<?xml version="1.0" encoding="UTF-8" standalone="no"?>
<!DOCTYPE svg PUBLIC "-//W3C//DTD SVG 1.1//EN"
 "http://www.w3.org/Graphics/SVG/1.1/DTD/svg11.dtd">
<!-- Generated by graphviz version 2.38.0 (20140413.2041)
 -->
<!-- Title: HardwareBuzzer Pages: 1 -->
<!--zoomable 1588 -->
<svg id="main" version="1.1" xmlns="http://www.w3.org/2000/svg" xmlns:xlink="http://www.w3.org/1999/xlink" xml:space="preserve" onload="init(evt)">
<style type="text/css"><![CDATA[
.edge:hover path { stroke: red; }
.edge:hover polygon { stroke: red; fill: red; }
]]></style>
<script type="text/javascript"><![CDATA[
var edges = document.getElementsByTagName('g');
if (edges && edges.length) {
  for (var i=0;i<edges.length;i++) {
    if (edges[i].id.substr(0,4)=='edge') {
      edges[i].setAttribute('class','edge');
    }
  }
}
]]></script>
        <defs>
                <circle id="rim" cx="0" cy="0" r="7"/>
                <circle id="rim2" cx="0" cy="0" r="3.5"/>
                <g id="zoomPlus">
                        <use xlink:href="#rim" fill="#404040">
                                <set attributeName="fill" to="#808080" begin="zoomplus.mouseover" end="zoomplus.mouseout"/>
                        </use>
                        <path d="M-4,0h8M0,-4v8" fill="none" stroke="white" stroke-width="1.5" pointer-events="none"/>
                </g>
                <g id="zoomMin">
                        <use xlink:href="#rim" fill="#404040">
                                <set attributeName="fill" to="#808080" begin="zoomminus.mouseover" end="zoomminus.mouseout"/>
                        </use>
                        <path d="M-4,0h8" fill="none" stroke="white" stroke-width="1.5" pointer-events="none"/>
                </g>
                <g id="dirArrow">
                        <path fill="none" stroke="white" stroke-width="1.5" d="M0,-3.0v7 M-2.5,-0.5L0,-3.0L2.5,-0.5"/>
                </g>
               <g id="resetDef">
                       <use xlink:href="#rim2" fill="#404040">
                               <set attributeName="fill" to="#808080" begin="reset.mouseover" end="reset.mouseout"/>
                       </use>
               </g>
        </defs>

<script type="text/javascript">
var viewWidth = 684;
var viewHeight = 1588;
var sectionId = 'dynsection-1';
</script>
<script xlink:href="svgpan.js"/>
<svg id="graph" class="graph">
<g id="viewport">
<title>HardwareBuzzer</title>
<polygon fill="white" stroke="none" points="-4,4 -4,-1584 679.975,-1584 679.975,4 -4,4"/>
<!-- Node1 -->
<g id="node1" class="node"><title>Node1</title>
<polygon fill="#bfbfbf" stroke="black" points="243.475,-0.5 243.475,-211.5 358.475,-211.5 358.475,-0.5 243.475,-0.5"/>
<text text-anchor="middle" x="300.975" y="-199.5" font-family="Helvetica,sans-Serif" font-size="10.00">HardwareBuzzer</text>
<polyline fill="none" stroke="black" points="243.475,-192.5 358.475,-192.5 "/>
<text text-anchor="start" x="251.475" y="-180.5" font-family="Helvetica,sans-Serif" font-size="10.00"># _stdValuesLoaded</text>
<text text-anchor="start" x="251.475" y="-169.5" font-family="Helvetica,sans-Serif" font-size="10.00"># _status</text>
<text text-anchor="start" x="251.475" y="-158.5" font-family="Helvetica,sans-Serif" font-size="10.00"># _lastBeepState</text>
<polyline fill="none" stroke="black" points="243.475,-151.5 358.475,-151.5 "/>
<text text-anchor="start" x="251.475" y="-139.5" font-family="Helvetica,sans-Serif" font-size="10.00">+ HardwareBuzzer()</text>
<text text-anchor="start" x="251.475" y="-128.5" font-family="Helvetica,sans-Serif" font-size="10.00">+ setStatus()</text>
<text text-anchor="start" x="251.475" y="-117.5" font-family="Helvetica,sans-Serif" font-size="10.00">+ getStatus()</text>
<text text-anchor="start" x="251.475" y="-106.5" font-family="Helvetica,sans-Serif" font-size="10.00">+ setState()</text>
<text text-anchor="start" x="251.475" y="-95.5" font-family="Helvetica,sans-Serif" font-size="10.00">+ getState()</text>
<text text-anchor="start" x="251.475" y="-84.5" font-family="Helvetica,sans-Serif" font-size="10.00">+ setBeep()</text>
<text text-anchor="start" x="251.475" y="-73.5" font-family="Helvetica,sans-Serif" font-size="10.00">+ getBeep()</text>
<text text-anchor="start" x="251.475" y="-62.5" font-family="Helvetica,sans-Serif" font-size="10.00">+ setHz()</text>
<text text-anchor="start" x="251.475" y="-51.5" font-family="Helvetica,sans-Serif" font-size="10.00">+ getHz()</text>
<text text-anchor="start" x="251.475" y="-40.5" font-family="Helvetica,sans-Serif" font-size="10.00"># _loadStdValues()</text>
<text text-anchor="start" x="251.475" y="-29.5" font-family="Helvetica,sans-Serif" font-size="10.00"># _beep()</text>
<text text-anchor="start" x="251.475" y="-18.5" font-family="Helvetica,sans-Serif" font-size="10.00"># _startBeep()</text>
<text text-anchor="start" x="251.475" y="-7.5" font-family="Helvetica,sans-Serif" font-size="10.00"># _update()</text>
</g>
<!-- Node2 -->
<g id="node2" class="node"><title>Node2</title>
<g id="a_node2"><a xlink:href="class_i_buzzer.html" target="_top" xlink:title="{IBuzzer\n||+ IBuzzer()\l+ setState()\l+ getState()\l+ setBeep()\l+ getBeep()\l+ setHz()\l+ getHz()\l}">
<polygon fill="white" stroke="black" points="0.475474,-864.5 0.475474,-987.5 77.4755,-987.5 77.4755,-864.5 0.475474,-864.5"/>
<text text-anchor="middle" x="38.9755" y="-975.5" font-family="Helvetica,sans-Serif" font-size="10.00">IBuzzer</text>
<polyline fill="none" stroke="black" points="0.475474,-968.5 77.4755,-968.5 "/>
<text text-anchor="middle" x="38.9755" y="-956.5" font-family="Helvetica,sans-Serif" font-size="10.00"> </text>
<polyline fill="none" stroke="black" points="0.475474,-949.5 77.4755,-949.5 "/>
<text text-anchor="start" x="8.47547" y="-937.5" font-family="Helvetica,sans-Serif" font-size="10.00">+ IBuzzer()</text>
<text text-anchor="start" x="8.47547" y="-926.5" font-family="Helvetica,sans-Serif" font-size="10.00">+ setState()</text>
<text text-anchor="start" x="8.47547" y="-915.5" font-family="Helvetica,sans-Serif" font-size="10.00">+ getState()</text>
<text text-anchor="start" x="8.47547" y="-904.5" font-family="Helvetica,sans-Serif" font-size="10.00">+ setBeep()</text>
<text text-anchor="start" x="8.47547" y="-893.5" font-family="Helvetica,sans-Serif" font-size="10.00">+ getBeep()</text>
<text text-anchor="start" x="8.47547" y="-882.5" font-family="Helvetica,sans-Serif" font-size="10.00">+ setHz()</text>
<text text-anchor="start" x="8.47547" y="-871.5" font-family="Helvetica,sans-Serif" font-size="10.00">+ getHz()</text>
</a>
</g>
</g>
<!-- Node2&#45;&gt;Node1 -->
<g id="edge1" class="edge"><title>Node2&#45;&gt;Node1</title>
<path fill="none" stroke="midnightblue" d="M23.5271,-854.494C13.0048,-800.345 0.975474,-723.558 0.975474,-655.5 0.975474,-655.5 0.975474,-655.5 0.975474,-342 0.975474,-304.157 -2.92642,-289.126 19.9755,-259 76.1148,-185.151 178.839,-142.918 243.316,-122.512"/>
<polygon fill="none" stroke="midnightblue" points="20.0993,-855.203 25.4711,-864.335 26.9666,-853.846 20.0993,-855.203"/>
</g>
<!-- Node3 -->
<g id="node3" class="node"><title>Node3</title>
<g id="a_node3"><a xlink:href="class_i_component.html" target="_top" xlink:title="{IComponent\n||+ IComponent()\l+ IComponent()\l+ setComponentSubId()\l+ getComponentType()\l+ getComponentSubId()\l+ getComponentId()\l+ getObjectType()\l# setComponentType()\l# setObjectType()\l}">
<polygon fill="white" stroke="black" points="322.975,-1211.5 322.975,-1356.5 456.975,-1356.5 456.975,-1211.5 322.975,-1211.5"/>
<text text-anchor="middle" x="389.975" y="-1344.5" font-family="Helvetica,sans-Serif" font-size="10.00">IComponent</text>
<polyline fill="none" stroke="black" points="322.975,-1337.5 456.975,-1337.5 "/>
<text text-anchor="middle" x="389.975" y="-1325.5" font-family="Helvetica,sans-Serif" font-size="10.00"> </text>
<polyline fill="none" stroke="black" points="322.975,-1318.5 456.975,-1318.5 "/>
<text text-anchor="start" x="330.975" y="-1306.5" font-family="Helvetica,sans-Serif" font-size="10.00">+ IComponent()</text>
<text text-anchor="start" x="330.975" y="-1295.5" font-family="Helvetica,sans-Serif" font-size="10.00">+ IComponent()</text>
<text text-anchor="start" x="330.975" y="-1284.5" font-family="Helvetica,sans-Serif" font-size="10.00">+ setComponentSubId()</text>
<text text-anchor="start" x="330.975" y="-1273.5" font-family="Helvetica,sans-Serif" font-size="10.00">+ getComponentType()</text>
<text text-anchor="start" x="330.975" y="-1262.5" font-family="Helvetica,sans-Serif" font-size="10.00">+ getComponentSubId()</text>
<text text-anchor="start" x="330.975" y="-1251.5" font-family="Helvetica,sans-Serif" font-size="10.00">+ getComponentId()</text>
<text text-anchor="start" x="330.975" y="-1240.5" font-family="Helvetica,sans-Serif" font-size="10.00">+ getObjectType()</text>
<text text-anchor="start" x="330.975" y="-1229.5" font-family="Helvetica,sans-Serif" font-size="10.00"># setComponentType()</text>
<text text-anchor="start" x="330.975" y="-1218.5" font-family="Helvetica,sans-Serif" font-size="10.00"># setObjectType()</text>
</a>
</g>
</g>
<!-- Node3&#45;&gt;Node2 -->
<g id="edge2" class="edge"><title>Node3&#45;&gt;Node2</title>
<path fill="none" stroke="midnightblue" d="M313.525,-1258.94C267.252,-1241.31 209.544,-1213.52 168.975,-1174 115.171,-1121.59 78.8633,-1042.1 58.5893,-987.53"/>
<polygon fill="none" stroke="midnightblue" points="312.323,-1262.23 322.916,-1262.44 314.768,-1255.67 312.323,-1262.23"/>
</g>
<!-- Node16 -->
<g id="node16" class="node"><title>Node16</title>
<g id="a_node16"><a xlink:href="class_i_communication.html" target="_top" xlink:title="{ICommunication\n||+ receive()\l}">
<polygon fill="white" stroke="black" points="342.475,-897.5 342.475,-954.5 437.475,-954.5 437.475,-897.5 342.475,-897.5"/>
<text text-anchor="middle" x="389.975" y="-942.5" font-family="Helvetica,sans-Serif" font-size="10.00">ICommunication</text>
<polyline fill="none" stroke="black" points="342.475,-935.5 437.475,-935.5 "/>
<text text-anchor="middle" x="389.975" y="-923.5" font-family="Helvetica,sans-Serif" font-size="10.00"> </text>
<polyline fill="none" stroke="black" points="342.475,-916.5 437.475,-916.5 "/>
<text text-anchor="start" x="350.475" y="-904.5" font-family="Helvetica,sans-Serif" font-size="10.00">+ receive()</text>
</a>
</g>
</g>
<!-- Node3&#45;&gt;Node16 -->
<g id="edge16" class="edge"><title>Node3&#45;&gt;Node16</title>
<path fill="none" stroke="midnightblue" d="M389.975,-1200.97C389.975,-1121.95 389.975,-1006.93 389.975,-954.677"/>
<polygon fill="none" stroke="midnightblue" points="386.476,-1201.39 389.975,-1211.39 393.476,-1201.39 386.476,-1201.39"/>
</g>
<!-- Node18 -->
<g id="node18" class="node"><title>Node18</title>
<g id="a_node18"><a xlink:href="class_i_runable.html" target="_top" xlink:title="{IRunable\n||+ IRunable()\l+ run()\l+ setStatus()\l+ getStatus()\l}">
<polygon fill="white" stroke="black" points="423.475,-1045 423.475,-1135 506.475,-1135 506.475,-1045 423.475,-1045"/>
<text text-anchor="middle" x="464.975" y="-1123" font-family="Helvetica,sans-Serif" font-size="10.00">IRunable</text>
<polyline fill="none" stroke="black" points="423.475,-1116 506.475,-1116 "/>
<text text-anchor="middle" x="464.975" y="-1104" font-family="Helvetica,sans-Serif" font-size="10.00"> </text>
<polyline fill="none" stroke="black" points="423.475,-1097 506.475,-1097 "/>
<text text-anchor="start" x="431.475" y="-1085" font-family="Helvetica,sans-Serif" font-size="10.00">+ IRunable()</text>
<text text-anchor="start" x="431.475" y="-1074" font-family="Helvetica,sans-Serif" font-size="10.00">+ run()</text>
<text text-anchor="start" x="431.475" y="-1063" font-family="Helvetica,sans-Serif" font-size="10.00">+ setStatus()</text>
<text text-anchor="start" x="431.475" y="-1052" font-family="Helvetica,sans-Serif" font-size="10.00">+ getStatus()</text>
</a>
</g>
</g>
<!-- Node3&#45;&gt;Node18 -->
<g id="edge19" class="edge"><title>Node3&#45;&gt;Node18</title>
<path fill="none" stroke="midnightblue" d="M421.674,-1201.85C430.614,-1178.97 440.006,-1154.92 447.748,-1135.1"/>
<polygon fill="none" stroke="midnightblue" points="418.388,-1200.65 418.009,-1211.23 424.908,-1203.19 418.388,-1200.65"/>
</g>
<!-- Node4 -->
<g id="node4" class="node"><title>Node4</title>
<g id="a_node4"><a xlink:href="class_i_logable.html" target="_top" xlink:title="{ILogable\n||+ setStatus()\l+ getStatus()\l+ getLogValueCount()\l+ getLogValue()\l}">
<polygon fill="white" stroke="black" points="328.475,-1394.5 328.475,-1484.5 451.475,-1484.5 451.475,-1394.5 328.475,-1394.5"/>
<text text-anchor="middle" x="389.975" y="-1472.5" font-family="Helvetica,sans-Serif" font-size="10.00">ILogable</text>
<polyline fill="none" stroke="black" points="328.475,-1465.5 451.475,-1465.5 "/>
<text text-anchor="middle" x="389.975" y="-1453.5" font-family="Helvetica,sans-Serif" font-size="10.00"> </text>
<polyline fill="none" stroke="black" points="328.475,-1446.5 451.475,-1446.5 "/>
<text text-anchor="start" x="336.475" y="-1434.5" font-family="Helvetica,sans-Serif" font-size="10.00">+ setStatus()</text>
<text text-anchor="start" x="336.475" y="-1423.5" font-family="Helvetica,sans-Serif" font-size="10.00">+ getStatus()</text>
<text text-anchor="start" x="336.475" y="-1412.5" font-family="Helvetica,sans-Serif" font-size="10.00">+ getLogValueCount()</text>
<text text-anchor="start" x="336.475" y="-1401.5" font-family="Helvetica,sans-Serif" font-size="10.00">+ getLogValue()</text>
</a>
</g>
</g>
<!-- Node4&#45;&gt;Node3 -->
<g id="edge3" class="edge"><title>Node4&#45;&gt;Node3</title>
<path fill="none" stroke="midnightblue" d="M389.975,-1383.98C389.975,-1375.16 389.975,-1365.92 389.975,-1356.77"/>
<polygon fill="none" stroke="midnightblue" points="386.476,-1384.1 389.975,-1394.1 393.476,-1384.1 386.476,-1384.1"/>
</g>
<!-- Node5 -->
<g id="node5" class="node"><title>Node5</title>
<g id="a_node5"><a xlink:href="class_non_copyable.html" target="_top" xlink:title="{NonCopyable\&lt; ILogable \&gt;\n||+ NonCopyable()\l}">
<polygon fill="white" stroke="black" points="318.475,-1522.5 318.475,-1579.5 461.475,-1579.5 461.475,-1522.5 318.475,-1522.5"/>
<text text-anchor="middle" x="389.975" y="-1567.5" font-family="Helvetica,sans-Serif" font-size="10.00">NonCopyable&lt; ILogable &gt;</text>
<polyline fill="none" stroke="black" points="318.475,-1560.5 461.475,-1560.5 "/>
<text text-anchor="middle" x="389.975" y="-1548.5" font-family="Helvetica,sans-Serif" font-size="10.00"> </text>
<polyline fill="none" stroke="black" points="318.475,-1541.5 461.475,-1541.5 "/>
<text text-anchor="start" x="326.475" y="-1529.5" font-family="Helvetica,sans-Serif" font-size="10.00">+ NonCopyable()</text>
</a>
</g>
</g>
<!-- Node5&#45;&gt;Node4 -->
<g id="edge4" class="edge"><title>Node5&#45;&gt;Node4</title>
<path fill="none" stroke="#8b1a1a" d="M389.975,-1512.31C389.975,-1503.43 389.975,-1493.88 389.975,-1484.74"/>
<polygon fill="none" stroke="#8b1a1a" points="386.476,-1512.37 389.975,-1522.37 393.476,-1512.37 386.476,-1512.37"/>
</g>
<!-- Node6 -->
<g id="node6" class="node"><title>Node6</title>
<g id="a_node6"><a xlink:href="struct_hardware_buzzer_1_1__current.html" target="_top" xlink:title="{HardwareBuzzer::_current\n|+ state\l|}">
<polygon fill="white" stroke="black" points="29.4755,-314.5 29.4755,-371.5 170.475,-371.5 170.475,-314.5 29.4755,-314.5"/>
<text text-anchor="middle" x="99.9755" y="-359.5" font-family="Helvetica,sans-Serif" font-size="10.00">HardwareBuzzer::_current</text>
<polyline fill="none" stroke="black" points="29.4755,-352.5 170.475,-352.5 "/>
<text text-anchor="start" x="37.4755" y="-340.5" font-family="Helvetica,sans-Serif" font-size="10.00">+ state</text>
<polyline fill="none" stroke="black" points="29.4755,-333.5 170.475,-333.5 "/>
<text text-anchor="middle" x="99.9755" y="-321.5" font-family="Helvetica,sans-Serif" font-size="10.00"> </text>
</a>
</g>
</g>
<!-- Node6&#45;&gt;Node1 -->
<g id="edge5" class="edge"><title>Node6&#45;&gt;Node1</title>
<path fill="none" stroke="#404040" d="M123.822,-314.12C151.103,-282.224 196.936,-228.638 235.148,-183.962"/>
<polygon fill="none" stroke="#404040" points="235.377,-183.695 236.237,-176.535 243.177,-174.575 242.317,-181.735 235.377,-183.695"/>
<text text-anchor="middle" x="220.975" y="-233" font-family="Helvetica,sans-Serif" font-size="10.00"> #_current</text>
</g>
<!-- Node7 -->
<g id="node7" class="node"><title>Node7</title>
<g id="a_node7"><a xlink:href="struct_hardware_buzzer_1_1__current_1_1beep.html" target="_top" xlink:title="{HardwareBuzzer::_current\l::beep\n|+ switchTime\l+ type\l|}">
<polygon fill="white" stroke="black" points="29.4755,-513 29.4755,-592 170.475,-592 170.475,-513 29.4755,-513"/>
<text text-anchor="start" x="37.4755" y="-580" font-family="Helvetica,sans-Serif" font-size="10.00">HardwareBuzzer::_current</text>
<text text-anchor="middle" x="99.9755" y="-569" font-family="Helvetica,sans-Serif" font-size="10.00">::beep</text>
<polyline fill="none" stroke="black" points="29.4755,-562 170.475,-562 "/>
<text text-anchor="start" x="37.4755" y="-550" font-family="Helvetica,sans-Serif" font-size="10.00">+ switchTime</text>
<text text-anchor="start" x="37.4755" y="-539" font-family="Helvetica,sans-Serif" font-size="10.00">+ type</text>
<polyline fill="none" stroke="black" points="29.4755,-532 170.475,-532 "/>
<text text-anchor="middle" x="99.9755" y="-520" font-family="Helvetica,sans-Serif" font-size="10.00"> </text>
</a>
</g>
</g>
<!-- Node7&#45;&gt;Node6 -->
<g id="edge6" class="edge"><title>Node7&#45;&gt;Node6</title>
<path fill="none" stroke="#404040" d="M99.9755,-512.957C99.9755,-476.263 99.9755,-421.268 99.9755,-384.074"/>
<polygon fill="none" stroke="#404040" points="99.9756,-383.72 95.9755,-377.72 99.9755,-371.72 103.976,-377.72 99.9756,-383.72"/>
<text text-anchor="middle" x="117.975" y="-448" font-family="Helvetica,sans-Serif" font-size="10.00"> +beep</text>
</g>
<!-- Node8 -->
<g id="node8" class="node"><title>Node8</title>
<g id="a_node8"><a xlink:href="class_ticker.html" target="_top" xlink:title="{Ticker\n||+ Ticker()\l+ ~Ticker()\l+ attach()\l+ detach()\l+ call()\l}">
<polygon fill="white" stroke="black" points="188.475,-292.5 188.475,-393.5 259.475,-393.5 259.475,-292.5 188.475,-292.5"/>
<text text-anchor="middle" x="223.975" y="-381.5" font-family="Helvetica,sans-Serif" font-size="10.00">Ticker</text>
<polyline fill="none" stroke="black" points="188.475,-374.5 259.475,-374.5 "/>
<text text-anchor="middle" x="223.975" y="-362.5" font-family="Helvetica,sans-Serif" font-size="10.00"> </text>
<polyline fill="none" stroke="black" points="188.475,-355.5 259.475,-355.5 "/>
<text text-anchor="start" x="196.475" y="-343.5" font-family="Helvetica,sans-Serif" font-size="10.00">+ Ticker()</text>
<text text-anchor="start" x="196.475" y="-332.5" font-family="Helvetica,sans-Serif" font-size="10.00">+ ~Ticker()</text>
<text text-anchor="start" x="196.475" y="-321.5" font-family="Helvetica,sans-Serif" font-size="10.00">+ attach()</text>
<text text-anchor="start" x="196.475" y="-310.5" font-family="Helvetica,sans-Serif" font-size="10.00">+ detach()</text>
<text text-anchor="start" x="196.475" y="-299.5" font-family="Helvetica,sans-Serif" font-size="10.00">+ call()</text>
</a>
</g>
</g>
<!-- Node8&#45;&gt;Node1 -->
<g id="edge7" class="edge"><title>Node8&#45;&gt;Node1</title>
<path fill="none" stroke="#404040" d="M240.211,-292.45C246.877,-272.106 254.899,-247.622 262.898,-223.211"/>
<polygon fill="none" stroke="#404040" points="262.954,-223.04 261.021,-216.092 266.69,-211.636 268.623,-218.583 262.954,-223.04"/>
<text text-anchor="middle" x="282.475" y="-233" font-family="Helvetica,sans-Serif" font-size="10.00"> #_ticker</text>
</g>
<!-- Node9 -->
<g id="node9" class="node"><title>Node9</title>
<g id="a_node9"><a xlink:href="class_scheduled_callable.html" target="_top" xlink:title="{ScheduledCallable\n||+ ScheduledCallable()\l+ ScheduledCallable()\l+ getSleepingSince()\l+ setSleeptime()\l+ getSleepTime()\l+ resetSleepTimer()\l}">
<polygon fill="white" stroke="black" points="188.475,-496.5 188.475,-608.5 311.475,-608.5 311.475,-496.5 188.475,-496.5"/>
<text text-anchor="middle" x="249.975" y="-596.5" font-family="Helvetica,sans-Serif" font-size="10.00">ScheduledCallable</text>
<polyline fill="none" stroke="black" points="188.475,-589.5 311.475,-589.5 "/>
<text text-anchor="middle" x="249.975" y="-577.5" font-family="Helvetica,sans-Serif" font-size="10.00"> </text>
<polyline fill="none" stroke="black" points="188.475,-570.5 311.475,-570.5 "/>
<text text-anchor="start" x="196.475" y="-558.5" font-family="Helvetica,sans-Serif" font-size="10.00">+ ScheduledCallable()</text>
<text text-anchor="start" x="196.475" y="-547.5" font-family="Helvetica,sans-Serif" font-size="10.00">+ ScheduledCallable()</text>
<text text-anchor="start" x="196.475" y="-536.5" font-family="Helvetica,sans-Serif" font-size="10.00">+ getSleepingSince()</text>
<text text-anchor="start" x="196.475" y="-525.5" font-family="Helvetica,sans-Serif" font-size="10.00">+ setSleeptime()</text>
<text text-anchor="start" x="196.475" y="-514.5" font-family="Helvetica,sans-Serif" font-size="10.00">+ getSleepTime()</text>
<text text-anchor="start" x="196.475" y="-503.5" font-family="Helvetica,sans-Serif" font-size="10.00">+ resetSleepTimer()</text>
</a>
</g>
</g>
<!-- Node9&#45;&gt;Node8 -->
<g id="edge8" class="edge"><title>Node9&#45;&gt;Node8</title>
<path fill="none" stroke="midnightblue" d="M241.828,-486.479C238.071,-456.489 233.681,-421.459 230.195,-393.638"/>
<polygon fill="none" stroke="midnightblue" points="238.36,-486.951 243.076,-496.439 245.306,-486.081 238.36,-486.951"/>
</g>
<!-- Node10 -->
<g id="node10" class="node"><title>Node10</title>
<g id="a_node10"><a xlink:href="class_i_callable.html" target="_top" xlink:title="{ICallable\n||+ call()\l}">
<polygon fill="white" stroke="black" points="221.975,-733.5 221.975,-790.5 277.975,-790.5 277.975,-733.5 221.975,-733.5"/>
<text text-anchor="middle" x="249.975" y="-778.5" font-family="Helvetica,sans-Serif" font-size="10.00">ICallable</text>
<polyline fill="none" stroke="black" points="221.975,-771.5 277.975,-771.5 "/>
<text text-anchor="middle" x="249.975" y="-759.5" font-family="Helvetica,sans-Serif" font-size="10.00"> </text>
<polyline fill="none" stroke="black" points="221.975,-752.5 277.975,-752.5 "/>
<text text-anchor="start" x="229.975" y="-740.5" font-family="Helvetica,sans-Serif" font-size="10.00">+ call()</text>
</a>
</g>
</g>
<!-- Node10&#45;&gt;Node9 -->
<g id="edge9" class="edge"><title>Node10&#45;&gt;Node9</title>
<path fill="none" stroke="midnightblue" d="M249.975,-723.189C249.975,-691.228 249.975,-645.012 249.975,-608.879"/>
<polygon fill="none" stroke="midnightblue" points="246.476,-723.446 249.975,-733.446 253.476,-723.446 246.476,-723.446"/>
</g>
<!-- Node11 -->
<g id="node11" class="node"><title>Node11</title>
<g id="a_node11"><a xlink:href="class_non_copyable.html" target="_top" xlink:title="{NonCopyable\&lt; ICallable \&gt;\n||+ NonCopyable()\l}">
<polygon fill="white" stroke="black" points="178.475,-1061.5 178.475,-1118.5 321.475,-1118.5 321.475,-1061.5 178.475,-1061.5"/>
<text text-anchor="middle" x="249.975" y="-1106.5" font-family="Helvetica,sans-Serif" font-size="10.00">NonCopyable&lt; ICallable &gt;</text>
<polyline fill="none" stroke="black" points="178.475,-1099.5 321.475,-1099.5 "/>
<text text-anchor="middle" x="249.975" y="-1087.5" font-family="Helvetica,sans-Serif" font-size="10.00"> </text>
<polyline fill="none" stroke="black" points="178.475,-1080.5 321.475,-1080.5 "/>
<text text-anchor="start" x="186.475" y="-1068.5" font-family="Helvetica,sans-Serif" font-size="10.00">+ NonCopyable()</text>
</a>
</g>
</g>
<!-- Node11&#45;&gt;Node10 -->
<g id="edge10" class="edge"><title>Node11&#45;&gt;Node10</title>
<path fill="none" stroke="#8b1a1a" d="M249.975,-1051.08C249.975,-984.752 249.975,-849.19 249.975,-790.786"/>
<polygon fill="none" stroke="#8b1a1a" points="246.476,-1051.49 249.975,-1061.49 253.476,-1051.49 246.476,-1051.49"/>
</g>
<!-- Node12 -->
<g id="node12" class="node"><title>Node12</title>
<g id="a_node12"><a xlink:href="class_digital_out.html" target="_top" xlink:title="{DigitalOut\n||+ DigitalOut()\l+ DigitalOut()\l+ write()\l+ read()\l+ operator=()\l+ operator uint8_t()\l}">
<polygon fill="white" stroke="black" points="277.475,-287 277.475,-399 390.475,-399 390.475,-287 277.475,-287"/>
<text text-anchor="middle" x="333.975" y="-387" font-family="Helvetica,sans-Serif" font-size="10.00">DigitalOut</text>
<polyline fill="none" stroke="black" points="277.475,-380 390.475,-380 "/>
<text text-anchor="middle" x="333.975" y="-368" font-family="Helvetica,sans-Serif" font-size="10.00"> </text>
<polyline fill="none" stroke="black" points="277.475,-361 390.475,-361 "/>
<text text-anchor="start" x="285.475" y="-349" font-family="Helvetica,sans-Serif" font-size="10.00">+ DigitalOut()</text>
<text text-anchor="start" x="285.475" y="-338" font-family="Helvetica,sans-Serif" font-size="10.00">+ DigitalOut()</text>
<text text-anchor="start" x="285.475" y="-327" font-family="Helvetica,sans-Serif" font-size="10.00">+ write()</text>
<text text-anchor="start" x="285.475" y="-316" font-family="Helvetica,sans-Serif" font-size="10.00">+ read()</text>
<text text-anchor="start" x="285.475" y="-305" font-family="Helvetica,sans-Serif" font-size="10.00">+ operator=()</text>
<text text-anchor="start" x="285.475" y="-294" font-family="Helvetica,sans-Serif" font-size="10.00">+ operator uint8_t()</text>
</a>
</g>
</g>
<!-- Node12&#45;&gt;Node1 -->
<g id="edge11" class="edge"><title>Node12&#45;&gt;Node1</title>
<path fill="none" stroke="#404040" d="M326.238,-286.903C323.558,-267.814 320.443,-245.629 317.334,-223.492"/>
<polygon fill="none" stroke="#404040" points="317.33,-223.463 312.534,-218.077 315.661,-211.579 320.457,-216.965 317.33,-223.463"/>
<text text-anchor="middle" x="338.475" y="-233" font-family="Helvetica,sans-Serif" font-size="10.00"> #_port</text>
</g>
<!-- Node13 -->
<g id="node13" class="node"><title>Node13</title>
<g id="a_node13"><a xlink:href="struct_hardware_buzzer_1_1__time.html" target="_top" xlink:title="{HardwareBuzzer::_time\n|+ onOff\l+ fastHighToLow\l|}">
<polygon fill="white" stroke="black" points="408.975,-309 408.975,-377 536.975,-377 536.975,-309 408.975,-309"/>
<text text-anchor="middle" x="472.975" y="-365" font-family="Helvetica,sans-Serif" font-size="10.00">HardwareBuzzer::_time</text>
<polyline fill="none" stroke="black" points="408.975,-358 536.975,-358 "/>
<text text-anchor="start" x="416.975" y="-346" font-family="Helvetica,sans-Serif" font-size="10.00">+ onOff</text>
<text text-anchor="start" x="416.975" y="-335" font-family="Helvetica,sans-Serif" font-size="10.00">+ fastHighToLow</text>
<polyline fill="none" stroke="black" points="408.975,-328 536.975,-328 "/>
<text text-anchor="middle" x="472.975" y="-316" font-family="Helvetica,sans-Serif" font-size="10.00"> </text>
</a>
</g>
</g>
<!-- Node13&#45;&gt;Node1 -->
<g id="edge12" class="edge"><title>Node13&#45;&gt;Node1</title>
<path fill="none" stroke="#404040" d="M448.697,-308.829C427.139,-279.374 394.644,-234.978 365.616,-195.317"/>
<polygon fill="none" stroke="#404040" points="365.602,-195.297 358.83,-192.818 358.514,-185.614 365.286,-188.093 365.602,-195.297"/>
<text text-anchor="middle" x="417.475" y="-233" font-family="Helvetica,sans-Serif" font-size="10.00"> #_time</text>
</g>
<!-- Node14 -->
<g id="node14" class="node"><title>Node14</title>
<g id="a_node14"><a xlink:href="class_i_registry.html" target="_top" xlink:title="{IRegistry\n||+ IRegistry()\l+ getReady()\l+ setReady()\l+ getFloat()\l+ getUInt8()\l+ getUInt16()\l+ getUInt32()\l+ getInt8()\l+ getInt16()\l+ getInt32()\land 9 more...\l}">
<polygon fill="white" stroke="black" points="555.475,-259.5 555.475,-426.5 638.475,-426.5 638.475,-259.5 555.475,-259.5"/>
<text text-anchor="middle" x="596.975" y="-414.5" font-family="Helvetica,sans-Serif" font-size="10.00">IRegistry</text>
<polyline fill="none" stroke="black" points="555.475,-407.5 638.475,-407.5 "/>
<text text-anchor="middle" x="596.975" y="-395.5" font-family="Helvetica,sans-Serif" font-size="10.00"> </text>
<polyline fill="none" stroke="black" points="555.475,-388.5 638.475,-388.5 "/>
<text text-anchor="start" x="563.475" y="-376.5" font-family="Helvetica,sans-Serif" font-size="10.00">+ IRegistry()</text>
<text text-anchor="start" x="563.475" y="-365.5" font-family="Helvetica,sans-Serif" font-size="10.00">+ getReady()</text>
<text text-anchor="start" x="563.475" y="-354.5" font-family="Helvetica,sans-Serif" font-size="10.00">+ setReady()</text>
<text text-anchor="start" x="563.475" y="-343.5" font-family="Helvetica,sans-Serif" font-size="10.00">+ getFloat()</text>
<text text-anchor="start" x="563.475" y="-332.5" font-family="Helvetica,sans-Serif" font-size="10.00">+ getUInt8()</text>
<text text-anchor="start" x="563.475" y="-321.5" font-family="Helvetica,sans-Serif" font-size="10.00">+ getUInt16()</text>
<text text-anchor="start" x="563.475" y="-310.5" font-family="Helvetica,sans-Serif" font-size="10.00">+ getUInt32()</text>
<text text-anchor="start" x="563.475" y="-299.5" font-family="Helvetica,sans-Serif" font-size="10.00">+ getInt8()</text>
<text text-anchor="start" x="563.475" y="-288.5" font-family="Helvetica,sans-Serif" font-size="10.00">+ getInt16()</text>
<text text-anchor="start" x="563.475" y="-277.5" font-family="Helvetica,sans-Serif" font-size="10.00">+ getInt32()</text>
<text text-anchor="start" x="563.475" y="-266.5" font-family="Helvetica,sans-Serif" font-size="10.00">and 9 more...</text>
</a>
</g>
</g>
<!-- Node14&#45;&gt;Node1 -->
<g id="edge13" class="edge"><title>Node14&#45;&gt;Node1</title>
<path fill="none" stroke="#404040" d="M555.292,-269.343C552.307,-265.712 549.197,-262.236 545.975,-259 494.538,-207.34 422.331,-165.264 369.634,-138.587"/>
<polygon fill="none" stroke="#404040" points="369.437,-138.489 362.282,-139.388 358.7,-133.13 365.855,-132.23 369.437,-138.489"/>
<text text-anchor="middle" x="550.475" y="-233" font-family="Helvetica,sans-Serif" font-size="10.00"> #_registry</text>
</g>
<!-- Node15 -->
<g id="node15" class="node"><title>Node15</title>
<g id="a_node15"><a xlink:href="class_self_syncable.html" target="_top" xlink:title="{SelfSyncable\n|# _syncerAttached\l|+ attach()\l+ detach()\l# _sendCommand()\l# _sendCommand()\l# _sendCommand()\l# _send()\l# _convertFloat()\l# _reconvertFloat()\l# _disassambleFloat()\l# _reassambleFloat()\l}">
<polygon fill="white" stroke="black" points="415.975,-474.5 415.975,-630.5 539.975,-630.5 539.975,-474.5 415.975,-474.5"/>
<text text-anchor="middle" x="477.975" y="-618.5" font-family="Helvetica,sans-Serif" font-size="10.00">SelfSyncable</text>
<polyline fill="none" stroke="black" points="415.975,-611.5 539.975,-611.5 "/>
<text text-anchor="start" x="423.975" y="-599.5" font-family="Helvetica,sans-Serif" font-size="10.00"># _syncerAttached</text>
<polyline fill="none" stroke="black" points="415.975,-592.5 539.975,-592.5 "/>
<text text-anchor="start" x="423.975" y="-580.5" font-family="Helvetica,sans-Serif" font-size="10.00">+ attach()</text>
<text text-anchor="start" x="423.975" y="-569.5" font-family="Helvetica,sans-Serif" font-size="10.00">+ detach()</text>
<text text-anchor="start" x="423.975" y="-558.5" font-family="Helvetica,sans-Serif" font-size="10.00"># _sendCommand()</text>
<text text-anchor="start" x="423.975" y="-547.5" font-family="Helvetica,sans-Serif" font-size="10.00"># _sendCommand()</text>
<text text-anchor="start" x="423.975" y="-536.5" font-family="Helvetica,sans-Serif" font-size="10.00"># _sendCommand()</text>
<text text-anchor="start" x="423.975" y="-525.5" font-family="Helvetica,sans-Serif" font-size="10.00"># _send()</text>
<text text-anchor="start" x="423.975" y="-514.5" font-family="Helvetica,sans-Serif" font-size="10.00"># _convertFloat()</text>
<text text-anchor="start" x="423.975" y="-503.5" font-family="Helvetica,sans-Serif" font-size="10.00"># _reconvertFloat()</text>
<text text-anchor="start" x="423.975" y="-492.5" font-family="Helvetica,sans-Serif" font-size="10.00"># _disassambleFloat()</text>
<text text-anchor="start" x="423.975" y="-481.5" font-family="Helvetica,sans-Serif" font-size="10.00"># _reassambleFloat()</text>
</a>
</g>
</g>
<!-- Node15&#45;&gt;Node14 -->
<g id="edge14" class="edge"><title>Node15&#45;&gt;Node14</title>
<path fill="none" stroke="midnightblue" d="M527.413,-465.295C536.715,-449.076 546.354,-432.268 555.386,-416.519"/>
<polygon fill="none" stroke="midnightblue" points="524.225,-463.819 522.287,-474.235 530.298,-467.301 524.225,-463.819"/>
</g>
<!-- Node16&#45;&gt;Node15 -->
<g id="edge15" class="edge"><title>Node16&#45;&gt;Node15</title>
<path fill="none" stroke="midnightblue" d="M387.95,-887.06C386.427,-837.775 387.505,-749.577 408.975,-678 413.768,-662.023 420.83,-645.815 428.632,-630.61"/>
<polygon fill="none" stroke="midnightblue" points="384.46,-887.392 388.321,-897.258 391.455,-887.137 384.46,-887.392"/>
</g>
<!-- Node17 -->
<g id="node17" class="node"><title>Node17</title>
<g id="a_node17"><a xlink:href="class_sync.html" target="_top" xlink:title="{Sync\n||+ Sync()\l+ addComponent()\l+ addBridge()\l+ receive()\l+ send()\l+ run()\l+ messageInQueue()\l+ finalize()\l+ Sync()\l+ receive()\land 7 more...\l}">
<polygon fill="white" stroke="black" points="418.475,-678.5 418.475,-845.5 537.475,-845.5 537.475,-678.5 418.475,-678.5"/>
<text text-anchor="middle" x="477.975" y="-833.5" font-family="Helvetica,sans-Serif" font-size="10.00">Sync</text>
<polyline fill="none" stroke="black" points="418.475,-826.5 537.475,-826.5 "/>
<text text-anchor="middle" x="477.975" y="-814.5" font-family="Helvetica,sans-Serif" font-size="10.00"> </text>
<polyline fill="none" stroke="black" points="418.475,-807.5 537.475,-807.5 "/>
<text text-anchor="start" x="426.475" y="-795.5" font-family="Helvetica,sans-Serif" font-size="10.00">+ Sync()</text>
<text text-anchor="start" x="426.475" y="-784.5" font-family="Helvetica,sans-Serif" font-size="10.00">+ addComponent()</text>
<text text-anchor="start" x="426.475" y="-773.5" font-family="Helvetica,sans-Serif" font-size="10.00">+ addBridge()</text>
<text text-anchor="start" x="426.475" y="-762.5" font-family="Helvetica,sans-Serif" font-size="10.00">+ receive()</text>
<text text-anchor="start" x="426.475" y="-751.5" font-family="Helvetica,sans-Serif" font-size="10.00">+ send()</text>
<text text-anchor="start" x="426.475" y="-740.5" font-family="Helvetica,sans-Serif" font-size="10.00">+ run()</text>
<text text-anchor="start" x="426.475" y="-729.5" font-family="Helvetica,sans-Serif" font-size="10.00">+ messageInQueue()</text>
<text text-anchor="start" x="426.475" y="-718.5" font-family="Helvetica,sans-Serif" font-size="10.00">+ finalize()</text>
<text text-anchor="start" x="426.475" y="-707.5" font-family="Helvetica,sans-Serif" font-size="10.00">+ Sync()</text>
<text text-anchor="start" x="426.475" y="-696.5" font-family="Helvetica,sans-Serif" font-size="10.00">+ receive()</text>
<text text-anchor="start" x="426.475" y="-685.5" font-family="Helvetica,sans-Serif" font-size="10.00">and 7 more...</text>
</a>
</g>
</g>
<!-- Node17&#45;&gt;Node15 -->
<g id="edge17" class="edge"><title>Node17&#45;&gt;Node15</title>
<path fill="none" stroke="#404040" d="M477.975,-678.394C477.975,-666.735 477.975,-654.703 477.975,-642.923"/>
<polygon fill="none" stroke="#404040" points="477.976,-642.764 473.976,-636.764 477.975,-630.764 481.976,-636.764 477.976,-642.764"/>
<text text-anchor="middle" x="502.475" y="-652" font-family="Helvetica,sans-Serif" font-size="10.00"> #_syncer</text>
</g>
<!-- Node18&#45;&gt;Node17 -->
<g id="edge18" class="edge"><title>Node18&#45;&gt;Node17</title>
<path fill="none" stroke="midnightblue" d="M461.96,-1034.42C462.238,-982.835 465.097,-904.728 468.726,-845.528"/>
<polygon fill="none" stroke="midnightblue" points="458.459,-1034.69 461.94,-1044.69 465.459,-1034.7 458.459,-1034.69"/>
</g>
<!-- Node18&#45;&gt;Node17 -->
<g id="edge20" class="edge"><title>Node18&#45;&gt;Node17</title>
<path fill="none" stroke="midnightblue" d="M472.344,-1034.42C476.18,-982.835 479.55,-904.728 480.643,-845.528"/>
<polygon fill="none" stroke="midnightblue" points="468.831,-1034.45 471.545,-1044.69 475.81,-1035 468.831,-1034.45"/>
</g>
<!-- Node19 -->
<g id="node19" class="node"><title>Node19</title>
<g id="a_node19"><a xlink:href="classstd_1_1vector.html" target="_top" xlink:title="{std::vector\&lt; CarMessage \&gt;\n||+ ~vector()\l+ at()\l+ operator[]()\l+ front()\l+ back()\l+ data()\l+ begin()\l+ end()\l+ empty()\l+ size()\land 7 more...\l}">
<polygon fill="white" stroke="black" points="524.475,-1006.5 524.475,-1173.5 673.475,-1173.5 673.475,-1006.5 524.475,-1006.5"/>
<text text-anchor="middle" x="598.975" y="-1161.5" font-family="Helvetica,sans-Serif" font-size="10.00">std::vector&lt; CarMessage &gt;</text>
<polyline fill="none" stroke="black" points="524.475,-1154.5 673.475,-1154.5 "/>
<text text-anchor="middle" x="598.975" y="-1142.5" font-family="Helvetica,sans-Serif" font-size="10.00"> </text>
<polyline fill="none" stroke="black" points="524.475,-1135.5 673.475,-1135.5 "/>
<text text-anchor="start" x="532.475" y="-1123.5" font-family="Helvetica,sans-Serif" font-size="10.00">+ ~vector()</text>
<text text-anchor="start" x="532.475" y="-1112.5" font-family="Helvetica,sans-Serif" font-size="10.00">+ at()</text>
<text text-anchor="start" x="532.475" y="-1101.5" font-family="Helvetica,sans-Serif" font-size="10.00">+ operator[]()</text>
<text text-anchor="start" x="532.475" y="-1090.5" font-family="Helvetica,sans-Serif" font-size="10.00">+ front()</text>
<text text-anchor="start" x="532.475" y="-1079.5" font-family="Helvetica,sans-Serif" font-size="10.00">+ back()</text>
<text text-anchor="start" x="532.475" y="-1068.5" font-family="Helvetica,sans-Serif" font-size="10.00">+ data()</text>
<text text-anchor="start" x="532.475" y="-1057.5" font-family="Helvetica,sans-Serif" font-size="10.00">+ begin()</text>
<text text-anchor="start" x="532.475" y="-1046.5" font-family="Helvetica,sans-Serif" font-size="10.00">+ end()</text>
<text text-anchor="start" x="532.475" y="-1035.5" font-family="Helvetica,sans-Serif" font-size="10.00">+ empty()</text>
<text text-anchor="start" x="532.475" y="-1024.5" font-family="Helvetica,sans-Serif" font-size="10.00">+ size()</text>
<text text-anchor="start" x="532.475" y="-1013.5" font-family="Helvetica,sans-Serif" font-size="10.00">and 7 more...</text>
</a>
</g>
</g>
<!-- Node19&#45;&gt;Node17 -->
<g id="edge21" class="edge"><title>Node19&#45;&gt;Node17</title>
<path fill="none" stroke="#404040" d="M568.286,-1006.32C551.404,-960.832 530.393,-904.225 512.887,-857.06"/>
<polygon fill="none" stroke="#404040" points="512.808,-856.847 506.97,-852.614 508.633,-845.597 514.47,-849.83 512.808,-856.847"/>
<text text-anchor="middle" x="617.475" y="-923.5" font-family="Helvetica,sans-Serif" font-size="10.00"> +receivedCarMessages</text>
</g>
<!-- Node20 -->
<g id="node20" class="node"><title>Node20</title>
<g id="a_node20"><a xlink:href="class_non_copyable.html" target="_top" xlink:title="{NonCopyable\&lt; vector\l\&lt; CarMessage, unsigned\l int \&gt; \&gt;\n||+ NonCopyable()\l}">
<polygon fill="white" stroke="black" points="530.475,-1244.5 530.475,-1323.5 667.475,-1323.5 667.475,-1244.5 530.475,-1244.5"/>
<text text-anchor="start" x="538.475" y="-1311.5" font-family="Helvetica,sans-Serif" font-size="10.00">NonCopyable&lt; vector</text>
<text text-anchor="start" x="538.475" y="-1300.5" font-family="Helvetica,sans-Serif" font-size="10.00">&lt; CarMessage, unsigned</text>
<text text-anchor="middle" x="598.975" y="-1289.5" font-family="Helvetica,sans-Serif" font-size="10.00"> int &gt; &gt;</text>
<polyline fill="none" stroke="black" points="530.475,-1282.5 667.475,-1282.5 "/>
<text text-anchor="middle" x="598.975" y="-1270.5" font-family="Helvetica,sans-Serif" font-size="10.00"> </text>
<polyline fill="none" stroke="black" points="530.475,-1263.5 667.475,-1263.5 "/>
<text text-anchor="start" x="538.475" y="-1251.5" font-family="Helvetica,sans-Serif" font-size="10.00">+ NonCopyable()</text>
</a>
</g>
</g>
<!-- Node20&#45;&gt;Node19 -->
<g id="edge22" class="edge"><title>Node20&#45;&gt;Node19</title>
<path fill="none" stroke="#8b1a1a" d="M598.975,-1234.02C598.975,-1215.7 598.975,-1194.34 598.975,-1173.81"/>
<polygon fill="none" stroke="#8b1a1a" points="595.476,-1234.15 598.975,-1244.15 602.476,-1234.15 595.476,-1234.15"/>
</g>
</g>
</svg>
        <g id="navigator" transform="translate(0 0)" fill="#404254">
                <rect fill="#f2f5e9" fill-opacity="0.5" stroke="#606060" stroke-width=".5" x="0" y="0" width="60" height="60"/>
                <use id="zoomplus" xlink:href="#zoomPlus" x="17" y="9" onmousedown="handleZoom(evt,'in')"/>
                <use id="zoomminus" xlink:href="#zoomMin" x="42" y="9" onmousedown="handleZoom(evt,'out')"/>
                <use id="reset" xlink:href="#resetDef" x="30" y="36" onmousedown="handleReset()"/>
                <g id="arrowUp" xlink:href="#dirArrow" transform="translate(30 24)" onmousedown="handlePan(0,-1)">
                  <use xlink:href="#rim" fill="#404040">
                        <set attributeName="fill" to="#808080" begin="arrowUp.mouseover" end="arrowUp.mouseout"/>
                  </use>
                  <path fill="none" stroke="white" stroke-width="1.5" d="M0,-3.0v7 M-2.5,-0.5L0,-3.0L2.5,-0.5"/>
                </g>
                <g id="arrowRight" xlink:href="#dirArrow" transform="rotate(90) translate(36 -43)" onmousedown="handlePan(1,0)">
                  <use xlink:href="#rim" fill="#404040">
                        <set attributeName="fill" to="#808080" begin="arrowRight.mouseover" end="arrowRight.mouseout"/>
                  </use>
                  <path fill="none" stroke="white" stroke-width="1.5" d="M0,-3.0v7 M-2.5,-0.5L0,-3.0L2.5,-0.5"/>
                </g>
                <g id="arrowDown" xlink:href="#dirArrow" transform="rotate(180) translate(-30 -48)" onmousedown="handlePan(0,1)">
                  <use xlink:href="#rim" fill="#404040">
                        <set attributeName="fill" to="#808080" begin="arrowDown.mouseover" end="arrowDown.mouseout"/>
                  </use>
                  <path fill="none" stroke="white" stroke-width="1.5" d="M0,-3.0v7 M-2.5,-0.5L0,-3.0L2.5,-0.5"/>
                </g>
                <g id="arrowLeft" xlink:href="#dirArrow" transform="rotate(270) translate(-36 17)" onmousedown="handlePan(-1,0)">
                  <use xlink:href="#rim" fill="#404040">
                        <set attributeName="fill" to="#808080" begin="arrowLeft.mouseover" end="arrowLeft.mouseout"/>
                  </use>
                  <path fill="none" stroke="white" stroke-width="1.5" d="M0,-3.0v7 M-2.5,-0.5L0,-3.0L2.5,-0.5"/>
                </g>
        </g>
        <svg viewBox="0 0 15 15" width="100%" height="30px" preserveAspectRatio="xMaxYMin meet">
         <g id="arrow_out" transform="scale(0.3 0.3)">
          <a xlink:href="class_hardware_buzzer__coll__graph_org.svg" target="_base">
           <rect id="button" ry="5" rx="5" y="6" x="6" height="38" width="38"
                fill="#f2f5e9" fill-opacity="0.5" stroke="#606060" stroke-width="1.0"/>
           <path id="arrow"
             d="M 11.500037,31.436501 C 11.940474,20.09759 22.043105,11.32322 32.158766,21.979434 L 37.068811,17.246167 C 37.068811,17.246167 37.088388,32 37.088388,32 L 22.160133,31.978069 C 22.160133,31.978069 26.997745,27.140456 26.997745,27.140456 C 18.528582,18.264221 13.291696,25.230495 11.500037,31.436501 z"
             style="fill:#404040;"/>
          </a>
         </g>
        </svg>
</svg>
