<?xml version="1.0" encoding="UTF-8" standalone="no"?>
<!DOCTYPE svg PUBLIC "-//W3C//DTD SVG 1.1//EN"
 "http://www.w3.org/Graphics/SVG/1.1/DTD/svg11.dtd">
<!-- Generated by graphviz version 2.38.0 (20140413.2041)
 -->
<!-- Title: HardwareAnalogSensor Pages: 1 -->
<svg width="180pt" height="540pt"
 viewBox="0.00 0.00 180.00 540.00" xmlns="http://www.w3.org/2000/svg" xmlns:xlink="http://www.w3.org/1999/xlink">
<g id="graph0" class="graph" transform="scale(1 1) rotate(0) translate(4 536)">
<title>HardwareAnalogSensor</title>
<polygon fill="white" stroke="none" points="-4,4 -4,-536 176,-536 176,4 -4,4"/>
<!-- Node1 -->
<g id="node1" class="node"><title>Node1</title>
<polygon fill="#bfbfbf" stroke="black" points="8.5,-0.5 8.5,-277.5 163.5,-277.5 163.5,-0.5 8.5,-0.5"/>
<text text-anchor="middle" x="86" y="-265.5" font-family="Helvetica,sans-Serif" font-size="10.00">HardwareAnalogSensor</text>
<polyline fill="none" stroke="black" points="8.5,-258.5 163.5,-258.5 "/>
<text text-anchor="start" x="16.5" y="-246.5" font-family="Helvetica,sans-Serif" font-size="10.00"># _registry</text>
<text text-anchor="start" x="16.5" y="-235.5" font-family="Helvetica,sans-Serif" font-size="10.00"># _stdValuesLoaded</text>
<text text-anchor="start" x="16.5" y="-224.5" font-family="Helvetica,sans-Serif" font-size="10.00"># _pin</text>
<text text-anchor="start" x="16.5" y="-213.5" font-family="Helvetica,sans-Serif" font-size="10.00"># _status</text>
<text text-anchor="start" x="16.5" y="-202.5" font-family="Helvetica,sans-Serif" font-size="10.00"># _last</text>
<text text-anchor="start" x="16.5" y="-191.5" font-family="Helvetica,sans-Serif" font-size="10.00"># _map</text>
<text text-anchor="start" x="16.5" y="-180.5" font-family="Helvetica,sans-Serif" font-size="10.00"># _boundary</text>
<polyline fill="none" stroke="black" points="8.5,-173.5 163.5,-173.5 "/>
<text text-anchor="start" x="16.5" y="-161.5" font-family="Helvetica,sans-Serif" font-size="10.00">+ HardwareAnalogSensor()</text>
<text text-anchor="start" x="16.5" y="-150.5" font-family="Helvetica,sans-Serif" font-size="10.00">+ setMapping()</text>
<text text-anchor="start" x="16.5" y="-139.5" font-family="Helvetica,sans-Serif" font-size="10.00">+ getMapping()</text>
<text text-anchor="start" x="16.5" y="-128.5" font-family="Helvetica,sans-Serif" font-size="10.00">+ setRawBoundary()</text>
<text text-anchor="start" x="16.5" y="-117.5" font-family="Helvetica,sans-Serif" font-size="10.00">+ setRawBoundaryOutTime()</text>
<text text-anchor="start" x="16.5" y="-106.5" font-family="Helvetica,sans-Serif" font-size="10.00">+ setBoundary()</text>
<text text-anchor="start" x="16.5" y="-95.5" font-family="Helvetica,sans-Serif" font-size="10.00">+ setBoundaryOutTime()</text>
<text text-anchor="start" x="16.5" y="-84.5" font-family="Helvetica,sans-Serif" font-size="10.00">+ getRawValue()</text>
<text text-anchor="start" x="16.5" y="-73.5" font-family="Helvetica,sans-Serif" font-size="10.00">+ getValue()</text>
<text text-anchor="start" x="16.5" y="-62.5" font-family="Helvetica,sans-Serif" font-size="10.00">+ setStatus()</text>
<text text-anchor="start" x="16.5" y="-51.5" font-family="Helvetica,sans-Serif" font-size="10.00">+ getStatus()</text>
<text text-anchor="start" x="16.5" y="-40.5" font-family="Helvetica,sans-Serif" font-size="10.00">+ reset()</text>
<text text-anchor="start" x="16.5" y="-29.5" font-family="Helvetica,sans-Serif" font-size="10.00"># _prepStdValues()</text>
<text text-anchor="start" x="16.5" y="-18.5" font-family="Helvetica,sans-Serif" font-size="10.00"># _restartTimer()</text>
<text text-anchor="start" x="16.5" y="-7.5" font-family="Helvetica,sans-Serif" font-size="10.00"># _getMapped()</text>
</g>
<!-- Node2 -->
<g id="node2" class="node"><title>Node2</title>
<g id="a_node2"><a xlink:href="class_i_analog_sensor.html" target="_top" xlink:title="{IAnalogSensor\n||+ setMapping()\l+ setRawBoundary()\l+ setRawBoundaryOutTime()\l+ setBoundary()\l+ setBoundaryOutTime()\l+ getRawValue()\l+ getValue()\l}">
<polygon fill="white" stroke="black" points="8.5,-314.5 8.5,-437.5 163.5,-437.5 163.5,-314.5 8.5,-314.5"/>
<text text-anchor="middle" x="86" y="-425.5" font-family="Helvetica,sans-Serif" font-size="10.00">IAnalogSensor</text>
<polyline fill="none" stroke="black" points="8.5,-418.5 163.5,-418.5 "/>
<text text-anchor="middle" x="86" y="-406.5" font-family="Helvetica,sans-Serif" font-size="10.00"> </text>
<polyline fill="none" stroke="black" points="8.5,-399.5 163.5,-399.5 "/>
<text text-anchor="start" x="16.5" y="-387.5" font-family="Helvetica,sans-Serif" font-size="10.00">+ setMapping()</text>
<text text-anchor="start" x="16.5" y="-376.5" font-family="Helvetica,sans-Serif" font-size="10.00">+ setRawBoundary()</text>
<text text-anchor="start" x="16.5" y="-365.5" font-family="Helvetica,sans-Serif" font-size="10.00">+ setRawBoundaryOutTime()</text>
<text text-anchor="start" x="16.5" y="-354.5" font-family="Helvetica,sans-Serif" font-size="10.00">+ setBoundary()</text>
<text text-anchor="start" x="16.5" y="-343.5" font-family="Helvetica,sans-Serif" font-size="10.00">+ setBoundaryOutTime()</text>
<text text-anchor="start" x="16.5" y="-332.5" font-family="Helvetica,sans-Serif" font-size="10.00">+ getRawValue()</text>
<text text-anchor="start" x="16.5" y="-321.5" font-family="Helvetica,sans-Serif" font-size="10.00">+ getValue()</text>
</a>
</g>
</g>
<!-- Node2&#45;&gt;Node1 -->
<g id="edge1" class="edge"><title>Node2&#45;&gt;Node1</title>
<path fill="none" stroke="midnightblue" d="M86,-304.23C86,-295.651 86,-286.675 86,-277.532"/>
<polygon fill="none" stroke="midnightblue" points="82.5001,-304.482 86,-314.482 89.5001,-304.482 82.5001,-304.482"/>
</g>
<!-- Node3 -->
<g id="node3" class="node"><title>Node3</title>
<g id="a_node3"><a xlink:href="class_non_copyable.html" target="_top" xlink:title="{NonCopyable\&lt; IAnalogSensor \&gt;\n||+ NonCopyable()\l}">
<polygon fill="white" stroke="black" points="0,-474.5 0,-531.5 172,-531.5 172,-474.5 0,-474.5"/>
<text text-anchor="middle" x="86" y="-519.5" font-family="Helvetica,sans-Serif" font-size="10.00">NonCopyable&lt; IAnalogSensor &gt;</text>
<polyline fill="none" stroke="black" points="0,-512.5 172,-512.5 "/>
<text text-anchor="middle" x="86" y="-500.5" font-family="Helvetica,sans-Serif" font-size="10.00"> </text>
<polyline fill="none" stroke="black" points="0,-493.5 172,-493.5 "/>
<text text-anchor="start" x="8" y="-481.5" font-family="Helvetica,sans-Serif" font-size="10.00">+ NonCopyable()</text>
</a>
</g>
</g>
<!-- Node3&#45;&gt;Node2 -->
<g id="edge2" class="edge"><title>Node3&#45;&gt;Node2</title>
<path fill="none" stroke="#8b1a1a" d="M86,-464.099C86,-455.739 86,-446.68 86,-437.672"/>
<polygon fill="none" stroke="#8b1a1a" points="82.5001,-464.258 86,-474.258 89.5001,-464.258 82.5001,-464.258"/>
</g>
</g>
</svg>
