<?xml version="1.0" encoding="UTF-8" standalone="no"?>
<!DOCTYPE svg PUBLIC "-//W3C//DTD SVG 1.1//EN"
 "http://www.w3.org/Graphics/SVG/1.1/DTD/svg11.dtd">
<!-- Generated by graphviz version 2.38.0 (20140413.2041)
 -->
<!-- Title: mbed::MemFileSystem Pages: 1 -->
<svg width="134pt" height="430pt"
 viewBox="0.00 0.00 134.00 430.00" xmlns="http://www.w3.org/2000/svg" xmlns:xlink="http://www.w3.org/1999/xlink">
<g id="graph0" class="graph" transform="scale(1 1) rotate(0) translate(4 426)">
<title>mbed::MemFileSystem</title>
<polygon fill="white" stroke="none" points="-4,4 -4,-426 130,-426 130,4 -4,4"/>
<!-- Node1 -->
<g id="node1" class="node"><title>Node1</title>
<polygon fill="#bfbfbf" stroke="black" points="0,-0.5 0,-101.5 126,-101.5 126,-0.5 0,-0.5"/>
<text text-anchor="middle" x="63" y="-89.5" font-family="Helvetica,sans-Serif" font-size="10.00">mbed::MemFileSystem</text>
<polyline fill="none" stroke="black" points="0,-82.5 126,-82.5 "/>
<text text-anchor="start" x="8" y="-70.5" font-family="Helvetica,sans-Serif" font-size="10.00">+ sectors</text>
<polyline fill="none" stroke="black" points="0,-63.5 126,-63.5 "/>
<text text-anchor="start" x="8" y="-51.5" font-family="Helvetica,sans-Serif" font-size="10.00">+ MemFileSystem()</text>
<text text-anchor="start" x="8" y="-40.5" font-family="Helvetica,sans-Serif" font-size="10.00">+ ~MemFileSystem()</text>
<text text-anchor="start" x="8" y="-29.5" font-family="Helvetica,sans-Serif" font-size="10.00">+ disk_read()</text>
<text text-anchor="start" x="8" y="-18.5" font-family="Helvetica,sans-Serif" font-size="10.00">+ disk_write()</text>
<text text-anchor="start" x="8" y="-7.5" font-family="Helvetica,sans-Serif" font-size="10.00">+ disk_sectors()</text>
</g>
<!-- Node2 -->
<g id="node2" class="node"><title>Node2</title>
<g id="a_node2"><a xlink:href="class_f_a_t_file_system.html" target="_top" xlink:title="{FATFileSystem\n|+ _fs\l+ _fsid\l+ _ffs\l|+ FATFileSystem()\l+ ~FATFileSystem()\l+ open()\l+ open()\l+ remove()\l+ rename()\l+ format()\l+ opendir()\l+ open()\l+ mkdir()\land 8 more...\l}">
<polygon fill="white" stroke="black" points="7.5,-138.5 7.5,-327.5 118.5,-327.5 118.5,-138.5 7.5,-138.5"/>
<text text-anchor="middle" x="63" y="-315.5" font-family="Helvetica,sans-Serif" font-size="10.00">FATFileSystem</text>
<polyline fill="none" stroke="black" points="7.5,-308.5 118.5,-308.5 "/>
<text text-anchor="start" x="15.5" y="-296.5" font-family="Helvetica,sans-Serif" font-size="10.00">+ _fs</text>
<text text-anchor="start" x="15.5" y="-285.5" font-family="Helvetica,sans-Serif" font-size="10.00">+ _fsid</text>
<text text-anchor="start" x="15.5" y="-274.5" font-family="Helvetica,sans-Serif" font-size="10.00">+ _ffs</text>
<polyline fill="none" stroke="black" points="7.5,-267.5 118.5,-267.5 "/>
<text text-anchor="start" x="15.5" y="-255.5" font-family="Helvetica,sans-Serif" font-size="10.00">+ FATFileSystem()</text>
<text text-anchor="start" x="15.5" y="-244.5" font-family="Helvetica,sans-Serif" font-size="10.00">+ ~FATFileSystem()</text>
<text text-anchor="start" x="15.5" y="-233.5" font-family="Helvetica,sans-Serif" font-size="10.00">+ open()</text>
<text text-anchor="start" x="15.5" y="-222.5" font-family="Helvetica,sans-Serif" font-size="10.00">+ open()</text>
<text text-anchor="start" x="15.5" y="-211.5" font-family="Helvetica,sans-Serif" font-size="10.00">+ remove()</text>
<text text-anchor="start" x="15.5" y="-200.5" font-family="Helvetica,sans-Serif" font-size="10.00">+ rename()</text>
<text text-anchor="start" x="15.5" y="-189.5" font-family="Helvetica,sans-Serif" font-size="10.00">+ format()</text>
<text text-anchor="start" x="15.5" y="-178.5" font-family="Helvetica,sans-Serif" font-size="10.00">+ opendir()</text>
<text text-anchor="start" x="15.5" y="-167.5" font-family="Helvetica,sans-Serif" font-size="10.00">+ open()</text>
<text text-anchor="start" x="15.5" y="-156.5" font-family="Helvetica,sans-Serif" font-size="10.00">+ mkdir()</text>
<text text-anchor="start" x="15.5" y="-145.5" font-family="Helvetica,sans-Serif" font-size="10.00">and 8 more...</text>
</a>
</g>
</g>
<!-- Node2&#45;&gt;Node1 -->
<g id="edge1" class="edge"><title>Node2&#45;&gt;Node1</title>
<path fill="none" stroke="midnightblue" d="M63,-128.274C63,-119.08 63,-110.081 63,-101.673"/>
<polygon fill="none" stroke="midnightblue" points="59.5001,-128.309 63,-138.31 66.5001,-128.31 59.5001,-128.309"/>
</g>
<!-- Node3 -->
<g id="node3" class="node"><title>Node3</title>
<polygon fill="white" stroke="#bfbfbf" points="19.5,-364.5 19.5,-421.5 106.5,-421.5 106.5,-364.5 19.5,-364.5"/>
<text text-anchor="middle" x="63" y="-409.5" font-family="Helvetica,sans-Serif" font-size="10.00">FileSystemLike</text>
<polyline fill="none" stroke="#bfbfbf" points="19.5,-402.5 106.5,-402.5 "/>
<text text-anchor="middle" x="63" y="-390.5" font-family="Helvetica,sans-Serif" font-size="10.00"> </text>
<polyline fill="none" stroke="#bfbfbf" points="19.5,-383.5 106.5,-383.5 "/>
<text text-anchor="middle" x="63" y="-371.5" font-family="Helvetica,sans-Serif" font-size="10.00"> </text>
</g>
<!-- Node3&#45;&gt;Node2 -->
<g id="edge2" class="edge"><title>Node3&#45;&gt;Node2</title>
<path fill="none" stroke="midnightblue" d="M63,-354.215C63,-346.012 63,-336.986 63,-327.678"/>
<polygon fill="none" stroke="midnightblue" points="59.5001,-354.478 63,-364.479 66.5001,-354.479 59.5001,-354.478"/>
</g>
</g>
</svg>
