<?xml version="1.0" encoding="UTF-8" standalone="no"?>
<!DOCTYPE svg PUBLIC "-//W3C//DTD SVG 1.1//EN"
 "http://www.w3.org/Graphics/SVG/1.1/DTD/svg11.dtd">
<!-- Generated by graphviz version 2.38.0 (20140413.2041)
 -->
<!-- Title: HardwarePump Pages: 1 -->
<svg width="151pt" height="706pt"
 viewBox="0.00 0.00 151.00 706.00" xmlns="http://www.w3.org/2000/svg" xmlns:xlink="http://www.w3.org/1999/xlink">
<g id="graph0" class="graph" transform="scale(1 1) rotate(0) translate(4 702)">
<title>HardwarePump</title>
<polygon fill="white" stroke="none" points="-4,4 -4,-702 147,-702 147,4 -4,4"/>
<!-- Node1 -->
<g id="node1" class="node"><title>Node1</title>
<polygon fill="#bfbfbf" stroke="black" points="17,-0.5 17,-134.5 126,-134.5 126,-0.5 17,-0.5"/>
<text text-anchor="middle" x="71.5" y="-122.5" font-family="Helvetica,sans-Serif" font-size="10.00">HardwarePump</text>
<polyline fill="none" stroke="black" points="17,-115.5 126,-115.5 "/>
<text text-anchor="start" x="25" y="-103.5" font-family="Helvetica,sans-Serif" font-size="10.00"># _pwmPort</text>
<text text-anchor="start" x="25" y="-92.5" font-family="Helvetica,sans-Serif" font-size="10.00"># _enablePort</text>
<polyline fill="none" stroke="black" points="17,-85.5 126,-85.5 "/>
<text text-anchor="start" x="25" y="-73.5" font-family="Helvetica,sans-Serif" font-size="10.00">+ HardwarePump()</text>
<text text-anchor="start" x="25" y="-62.5" font-family="Helvetica,sans-Serif" font-size="10.00">+ setSpeed()</text>
<text text-anchor="start" x="25" y="-51.5" font-family="Helvetica,sans-Serif" font-size="10.00">+ getSpeed()</text>
<text text-anchor="start" x="25" y="-40.5" font-family="Helvetica,sans-Serif" font-size="10.00">+ setEnable()</text>
<text text-anchor="start" x="25" y="-29.5" font-family="Helvetica,sans-Serif" font-size="10.00">+ getEnable()</text>
<text text-anchor="start" x="25" y="-18.5" font-family="Helvetica,sans-Serif" font-size="10.00">+ setStatus()</text>
<text text-anchor="start" x="25" y="-7.5" font-family="Helvetica,sans-Serif" font-size="10.00">+ getStatus()</text>
</g>
<!-- Node2 -->
<g id="node2" class="node"><title>Node2</title>
<g id="a_node2"><a xlink:href="class_i_pump.html" target="_top" xlink:title="{IPump\n||+ IPump()\l+ setSpeed()\l+ getSpeed()\l+ setEnable()\l+ getEnable()\l+ getLogValueCount()\l+ getLogValue()\l}">
<polygon fill="white" stroke="black" points="10,-171.5 10,-294.5 133,-294.5 133,-171.5 10,-171.5"/>
<text text-anchor="middle" x="71.5" y="-282.5" font-family="Helvetica,sans-Serif" font-size="10.00">IPump</text>
<polyline fill="none" stroke="black" points="10,-275.5 133,-275.5 "/>
<text text-anchor="middle" x="71.5" y="-263.5" font-family="Helvetica,sans-Serif" font-size="10.00"> </text>
<polyline fill="none" stroke="black" points="10,-256.5 133,-256.5 "/>
<text text-anchor="start" x="18" y="-244.5" font-family="Helvetica,sans-Serif" font-size="10.00">+ IPump()</text>
<text text-anchor="start" x="18" y="-233.5" font-family="Helvetica,sans-Serif" font-size="10.00">+ setSpeed()</text>
<text text-anchor="start" x="18" y="-222.5" font-family="Helvetica,sans-Serif" font-size="10.00">+ getSpeed()</text>
<text text-anchor="start" x="18" y="-211.5" font-family="Helvetica,sans-Serif" font-size="10.00">+ setEnable()</text>
<text text-anchor="start" x="18" y="-200.5" font-family="Helvetica,sans-Serif" font-size="10.00">+ getEnable()</text>
<text text-anchor="start" x="18" y="-189.5" font-family="Helvetica,sans-Serif" font-size="10.00">+ getLogValueCount()</text>
<text text-anchor="start" x="18" y="-178.5" font-family="Helvetica,sans-Serif" font-size="10.00">+ getLogValue()</text>
</a>
</g>
</g>
<!-- Node2&#45;&gt;Node1 -->
<g id="edge1" class="edge"><title>Node2&#45;&gt;Node1</title>
<path fill="none" stroke="midnightblue" d="M71.5,-160.958C71.5,-152.217 71.5,-143.309 71.5,-134.645"/>
<polygon fill="none" stroke="midnightblue" points="68.0001,-161.119 71.5,-171.119 75.0001,-161.119 68.0001,-161.119"/>
</g>
<!-- Node3 -->
<g id="node3" class="node"><title>Node3</title>
<g id="a_node3"><a xlink:href="class_i_component.html" target="_top" xlink:title="{IComponent\n||+ IComponent()\l+ IComponent()\l+ setComponentSubId()\l+ getComponentType()\l+ getComponentSubId()\l+ getComponentId()\l+ getObjectType()\l# setComponentType()\l# setObjectType()\l}">
<polygon fill="white" stroke="black" points="4.5,-331.5 4.5,-476.5 138.5,-476.5 138.5,-331.5 4.5,-331.5"/>
<text text-anchor="middle" x="71.5" y="-464.5" font-family="Helvetica,sans-Serif" font-size="10.00">IComponent</text>
<polyline fill="none" stroke="black" points="4.5,-457.5 138.5,-457.5 "/>
<text text-anchor="middle" x="71.5" y="-445.5" font-family="Helvetica,sans-Serif" font-size="10.00"> </text>
<polyline fill="none" stroke="black" points="4.5,-438.5 138.5,-438.5 "/>
<text text-anchor="start" x="12.5" y="-426.5" font-family="Helvetica,sans-Serif" font-size="10.00">+ IComponent()</text>
<text text-anchor="start" x="12.5" y="-415.5" font-family="Helvetica,sans-Serif" font-size="10.00">+ IComponent()</text>
<text text-anchor="start" x="12.5" y="-404.5" font-family="Helvetica,sans-Serif" font-size="10.00">+ setComponentSubId()</text>
<text text-anchor="start" x="12.5" y="-393.5" font-family="Helvetica,sans-Serif" font-size="10.00">+ getComponentType()</text>
<text text-anchor="start" x="12.5" y="-382.5" font-family="Helvetica,sans-Serif" font-size="10.00">+ getComponentSubId()</text>
<text text-anchor="start" x="12.5" y="-371.5" font-family="Helvetica,sans-Serif" font-size="10.00">+ getComponentId()</text>
<text text-anchor="start" x="12.5" y="-360.5" font-family="Helvetica,sans-Serif" font-size="10.00">+ getObjectType()</text>
<text text-anchor="start" x="12.5" y="-349.5" font-family="Helvetica,sans-Serif" font-size="10.00"># setComponentType()</text>
<text text-anchor="start" x="12.5" y="-338.5" font-family="Helvetica,sans-Serif" font-size="10.00"># setObjectType()</text>
</a>
</g>
</g>
<!-- Node3&#45;&gt;Node2 -->
<g id="edge2" class="edge"><title>Node3&#45;&gt;Node2</title>
<path fill="none" stroke="midnightblue" d="M71.5,-321.232C71.5,-312.254 71.5,-303.235 71.5,-294.58"/>
<polygon fill="none" stroke="midnightblue" points="68.0001,-321.329 71.5,-331.329 75.0001,-321.329 68.0001,-321.329"/>
</g>
<!-- Node4 -->
<g id="node4" class="node"><title>Node4</title>
<g id="a_node4"><a xlink:href="class_i_logable.html" target="_top" xlink:title="{ILogable\n||+ setStatus()\l+ getStatus()\l+ getLogValueCount()\l+ getLogValue()\l}">
<polygon fill="white" stroke="black" points="10,-513.5 10,-603.5 133,-603.5 133,-513.5 10,-513.5"/>
<text text-anchor="middle" x="71.5" y="-591.5" font-family="Helvetica,sans-Serif" font-size="10.00">ILogable</text>
<polyline fill="none" stroke="black" points="10,-584.5 133,-584.5 "/>
<text text-anchor="middle" x="71.5" y="-572.5" font-family="Helvetica,sans-Serif" font-size="10.00"> </text>
<polyline fill="none" stroke="black" points="10,-565.5 133,-565.5 "/>
<text text-anchor="start" x="18" y="-553.5" font-family="Helvetica,sans-Serif" font-size="10.00">+ setStatus()</text>
<text text-anchor="start" x="18" y="-542.5" font-family="Helvetica,sans-Serif" font-size="10.00">+ getStatus()</text>
<text text-anchor="start" x="18" y="-531.5" font-family="Helvetica,sans-Serif" font-size="10.00">+ getLogValueCount()</text>
<text text-anchor="start" x="18" y="-520.5" font-family="Helvetica,sans-Serif" font-size="10.00">+ getLogValue()</text>
</a>
</g>
</g>
<!-- Node4&#45;&gt;Node3 -->
<g id="edge3" class="edge"><title>Node4&#45;&gt;Node3</title>
<path fill="none" stroke="midnightblue" d="M71.5,-503.13C71.5,-494.526 71.5,-485.516 71.5,-476.591"/>
<polygon fill="none" stroke="midnightblue" points="68.0001,-503.391 71.5,-513.391 75.0001,-503.391 68.0001,-503.391"/>
</g>
<!-- Node5 -->
<g id="node5" class="node"><title>Node5</title>
<g id="a_node5"><a xlink:href="class_non_copyable.html" target="_top" xlink:title="{NonCopyable\&lt; ILogable \&gt;\n||+ NonCopyable()\l}">
<polygon fill="white" stroke="black" points="0,-640.5 0,-697.5 143,-697.5 143,-640.5 0,-640.5"/>
<text text-anchor="middle" x="71.5" y="-685.5" font-family="Helvetica,sans-Serif" font-size="10.00">NonCopyable&lt; ILogable &gt;</text>
<polyline fill="none" stroke="black" points="0,-678.5 143,-678.5 "/>
<text text-anchor="middle" x="71.5" y="-666.5" font-family="Helvetica,sans-Serif" font-size="10.00"> </text>
<polyline fill="none" stroke="black" points="0,-659.5 143,-659.5 "/>
<text text-anchor="start" x="8" y="-647.5" font-family="Helvetica,sans-Serif" font-size="10.00">+ NonCopyable()</text>
</a>
</g>
</g>
<!-- Node5&#45;&gt;Node4 -->
<g id="edge4" class="edge"><title>Node5&#45;&gt;Node4</title>
<path fill="none" stroke="#8b1a1a" d="M71.5,-630.214C71.5,-621.609 71.5,-612.394 71.5,-603.554"/>
<polygon fill="none" stroke="#8b1a1a" points="68.0001,-630.34 71.5,-640.34 75.0001,-630.34 68.0001,-630.34"/>
</g>
</g>
</svg>
