<?xml version="1.0" encoding="UTF-8" standalone="no"?>
<!DOCTYPE svg PUBLIC "-//W3C//DTD SVG 1.1//EN"
 "http://www.w3.org/Graphics/SVG/1.1/DTD/svg11.dtd">
<!-- Generated by graphviz version 2.38.0 (20140413.2041)
 -->
<!-- Title: DigitalIn Pages: 1 -->
<svg width="149pt" height="182pt"
 viewBox="0.00 0.00 149.00 182.00" xmlns="http://www.w3.org/2000/svg" xmlns:xlink="http://www.w3.org/1999/xlink">
<g id="graph0" class="graph" transform="scale(1 1) rotate(0) translate(4 178)">
<title>DigitalIn</title>
<polygon fill="white" stroke="none" points="-4,4 -4,-178 145,-178 145,4 -4,4"/>
<!-- Node1 -->
<g id="node1" class="node"><title>Node1</title>
<polygon fill="#bfbfbf" stroke="black" points="14,-0.5 14,-79.5 127,-79.5 127,-0.5 14,-0.5"/>
<text text-anchor="middle" x="70.5" y="-67.5" font-family="Helvetica,sans-Serif" font-size="10.00">DigitalIn</text>
<polyline fill="none" stroke="black" points="14,-60.5 127,-60.5 "/>
<text text-anchor="middle" x="70.5" y="-48.5" font-family="Helvetica,sans-Serif" font-size="10.00"> </text>
<polyline fill="none" stroke="black" points="14,-41.5 127,-41.5 "/>
<text text-anchor="start" x="22" y="-29.5" font-family="Helvetica,sans-Serif" font-size="10.00">+ DigitalIn()</text>
<text text-anchor="start" x="22" y="-18.5" font-family="Helvetica,sans-Serif" font-size="10.00">+ read()</text>
<text text-anchor="start" x="22" y="-7.5" font-family="Helvetica,sans-Serif" font-size="10.00">+ operator uint8_t()</text>
</g>
<!-- Node2 -->
<g id="node2" class="node"><title>Node2</title>
<g id="a_node2"><a xlink:href="class_non_copyable.html" target="_top" xlink:title="{NonCopyable\&lt; DigitalIn \&gt;\n||+ NonCopyable()\l}">
<polygon fill="white" stroke="black" points="0,-116.5 0,-173.5 141,-173.5 141,-116.5 0,-116.5"/>
<text text-anchor="middle" x="70.5" y="-161.5" font-family="Helvetica,sans-Serif" font-size="10.00">NonCopyable&lt; DigitalIn &gt;</text>
<polyline fill="none" stroke="black" points="0,-154.5 141,-154.5 "/>
<text text-anchor="middle" x="70.5" y="-142.5" font-family="Helvetica,sans-Serif" font-size="10.00"> </text>
<polyline fill="none" stroke="black" points="0,-135.5 141,-135.5 "/>
<text text-anchor="start" x="8" y="-123.5" font-family="Helvetica,sans-Serif" font-size="10.00">+ NonCopyable()</text>
</a>
</g>
</g>
<!-- Node2&#45;&gt;Node1 -->
<g id="edge1" class="edge"><title>Node2&#45;&gt;Node1</title>
<path fill="none" stroke="#8b1a1a" d="M70.5,-106.156C70.5,-97.4733 70.5,-88.2318 70.5,-79.5205"/>
<polygon fill="none" stroke="#8b1a1a" points="67.0001,-106.398 70.5,-116.398 74.0001,-106.398 67.0001,-106.398"/>
</g>
</g>
</svg>
