<?xml version="1.0" encoding="UTF-8" standalone="no"?>
<!DOCTYPE svg PUBLIC "-//W3C//DTD SVG 1.1//EN"
 "http://www.w3.org/Graphics/SVG/1.1/DTD/svg11.dtd">
<!-- Generated by graphviz version 2.38.0 (20140413.2041)
 -->
<!-- Title: ILed Pages: 1 -->
<svg width="418pt" height="1147pt"
 viewBox="0.00 0.00 418.00 1147.00" xmlns="http://www.w3.org/2000/svg" xmlns:xlink="http://www.w3.org/1999/xlink">
<g id="graph0" class="graph" transform="scale(1 1) rotate(0) translate(4 1143)">
<title>ILed</title>
<polygon fill="white" stroke="none" points="-4,4 -4,-1143 414,-1143 414,4 -4,4"/>
<!-- Node1 -->
<g id="node1" class="node"><title>Node1</title>
<polygon fill="#bfbfbf" stroke="black" points="171,-314.5 171,-437.5 273,-437.5 273,-314.5 171,-314.5"/>
<text text-anchor="middle" x="222" y="-425.5" font-family="Helvetica,sans-Serif" font-size="10.00">ILed</text>
<polyline fill="none" stroke="black" points="171,-418.5 273,-418.5 "/>
<text text-anchor="middle" x="222" y="-406.5" font-family="Helvetica,sans-Serif" font-size="10.00"> </text>
<polyline fill="none" stroke="black" points="171,-399.5 273,-399.5 "/>
<text text-anchor="start" x="179" y="-387.5" font-family="Helvetica,sans-Serif" font-size="10.00">+ ILed()</text>
<text text-anchor="start" x="179" y="-376.5" font-family="Helvetica,sans-Serif" font-size="10.00">+ setState()</text>
<text text-anchor="start" x="179" y="-365.5" font-family="Helvetica,sans-Serif" font-size="10.00">+ setBrightness()</text>
<text text-anchor="start" x="179" y="-354.5" font-family="Helvetica,sans-Serif" font-size="10.00">+ setBlinking()</text>
<text text-anchor="start" x="179" y="-343.5" font-family="Helvetica,sans-Serif" font-size="10.00">+ getState()</text>
<text text-anchor="start" x="179" y="-332.5" font-family="Helvetica,sans-Serif" font-size="10.00">+ getBrightness()</text>
<text text-anchor="start" x="179" y="-321.5" font-family="Helvetica,sans-Serif" font-size="10.00">+ getBlinking()</text>
</g>
<!-- Node7 -->
<g id="node7" class="node"><title>Node7</title>
<g id="a_node7"><a xlink:href="class_hardware_led.html" target="_top" xlink:title="{HardwareLed\n|# _registry\l# _port\l# _state\l# _stateLast\l# _mode\l# _modeLast\l# _lastBlinkingState\l# _blinkingTicker\l|+ HardwareLed()\l+ setState()\l+ setBrightness()\l+ setBlinking()\l+ getState()\l+ getBrightness()\l+ getBlinking()\l+ receive()\l+ setStatus()\l+ getStatus()\l# _refresh()\l# _attachBlinkingTicker()\l# _blinkingLoop()\l}">
<polygon fill="white" stroke="black" points="0,-6 0,-272 136,-272 136,-6 0,-6"/>
<text text-anchor="middle" x="68" y="-260" font-family="Helvetica,sans-Serif" font-size="10.00">HardwareLed</text>
<polyline fill="none" stroke="black" points="0,-253 136,-253 "/>
<text text-anchor="start" x="8" y="-241" font-family="Helvetica,sans-Serif" font-size="10.00"># _registry</text>
<text text-anchor="start" x="8" y="-230" font-family="Helvetica,sans-Serif" font-size="10.00"># _port</text>
<text text-anchor="start" x="8" y="-219" font-family="Helvetica,sans-Serif" font-size="10.00"># _state</text>
<text text-anchor="start" x="8" y="-208" font-family="Helvetica,sans-Serif" font-size="10.00"># _stateLast</text>
<text text-anchor="start" x="8" y="-197" font-family="Helvetica,sans-Serif" font-size="10.00"># _mode</text>
<text text-anchor="start" x="8" y="-186" font-family="Helvetica,sans-Serif" font-size="10.00"># _modeLast</text>
<text text-anchor="start" x="8" y="-175" font-family="Helvetica,sans-Serif" font-size="10.00"># _lastBlinkingState</text>
<text text-anchor="start" x="8" y="-164" font-family="Helvetica,sans-Serif" font-size="10.00"># _blinkingTicker</text>
<polyline fill="none" stroke="black" points="0,-157 136,-157 "/>
<text text-anchor="start" x="8" y="-145" font-family="Helvetica,sans-Serif" font-size="10.00">+ HardwareLed()</text>
<text text-anchor="start" x="8" y="-134" font-family="Helvetica,sans-Serif" font-size="10.00">+ setState()</text>
<text text-anchor="start" x="8" y="-123" font-family="Helvetica,sans-Serif" font-size="10.00">+ setBrightness()</text>
<text text-anchor="start" x="8" y="-112" font-family="Helvetica,sans-Serif" font-size="10.00">+ setBlinking()</text>
<text text-anchor="start" x="8" y="-101" font-family="Helvetica,sans-Serif" font-size="10.00">+ getState()</text>
<text text-anchor="start" x="8" y="-90" font-family="Helvetica,sans-Serif" font-size="10.00">+ getBrightness()</text>
<text text-anchor="start" x="8" y="-79" font-family="Helvetica,sans-Serif" font-size="10.00">+ getBlinking()</text>
<text text-anchor="start" x="8" y="-68" font-family="Helvetica,sans-Serif" font-size="10.00">+ receive()</text>
<text text-anchor="start" x="8" y="-57" font-family="Helvetica,sans-Serif" font-size="10.00">+ setStatus()</text>
<text text-anchor="start" x="8" y="-46" font-family="Helvetica,sans-Serif" font-size="10.00">+ getStatus()</text>
<text text-anchor="start" x="8" y="-35" font-family="Helvetica,sans-Serif" font-size="10.00"># _refresh()</text>
<text text-anchor="start" x="8" y="-24" font-family="Helvetica,sans-Serif" font-size="10.00"># _attachBlinkingTicker()</text>
<text text-anchor="start" x="8" y="-13" font-family="Helvetica,sans-Serif" font-size="10.00"># _blinkingLoop()</text>
</a>
</g>
</g>
<!-- Node1&#45;&gt;Node7 -->
<g id="edge6" class="edge"><title>Node1&#45;&gt;Node7</title>
<path fill="none" stroke="midnightblue" d="M165.173,-306.191C158.145,-296.885 151.245,-287.328 145,-278 142.024,-273.554 139.054,-268.985 136.107,-264.337"/>
<polygon fill="none" stroke="midnightblue" points="162.514,-308.475 171.369,-314.291 168.074,-304.222 162.514,-308.475"/>
</g>
<!-- Node8 -->
<g id="node8" class="node"><title>Node8</title>
<g id="a_node8"><a xlink:href="class_hardware_led_pwm.html" target="_top" xlink:title="{HardwareLedPwm\n|# _registry\l# _port\l# _state\l# _stateLast\l# _brightness\l# _mode\l# _modeLast\l# _lastBlinkingState\l# _blinkingTicker\l|+ HardwareLedPwm()\l+ setState()\l+ setBrightness()\l+ setBlinking()\l+ getState()\l+ getBrightness()\l+ getBlinking()\l+ receive()\l+ setStatus()\l+ getStatus()\l# _refresh()\l# _attachBlinkingTicker()\l# _blinkingLoop()\l}">
<polygon fill="white" stroke="black" points="154,-0.5 154,-277.5 290,-277.5 290,-0.5 154,-0.5"/>
<text text-anchor="middle" x="222" y="-265.5" font-family="Helvetica,sans-Serif" font-size="10.00">HardwareLedPwm</text>
<polyline fill="none" stroke="black" points="154,-258.5 290,-258.5 "/>
<text text-anchor="start" x="162" y="-246.5" font-family="Helvetica,sans-Serif" font-size="10.00"># _registry</text>
<text text-anchor="start" x="162" y="-235.5" font-family="Helvetica,sans-Serif" font-size="10.00"># _port</text>
<text text-anchor="start" x="162" y="-224.5" font-family="Helvetica,sans-Serif" font-size="10.00"># _state</text>
<text text-anchor="start" x="162" y="-213.5" font-family="Helvetica,sans-Serif" font-size="10.00"># _stateLast</text>
<text text-anchor="start" x="162" y="-202.5" font-family="Helvetica,sans-Serif" font-size="10.00"># _brightness</text>
<text text-anchor="start" x="162" y="-191.5" font-family="Helvetica,sans-Serif" font-size="10.00"># _mode</text>
<text text-anchor="start" x="162" y="-180.5" font-family="Helvetica,sans-Serif" font-size="10.00"># _modeLast</text>
<text text-anchor="start" x="162" y="-169.5" font-family="Helvetica,sans-Serif" font-size="10.00"># _lastBlinkingState</text>
<text text-anchor="start" x="162" y="-158.5" font-family="Helvetica,sans-Serif" font-size="10.00"># _blinkingTicker</text>
<polyline fill="none" stroke="black" points="154,-151.5 290,-151.5 "/>
<text text-anchor="start" x="162" y="-139.5" font-family="Helvetica,sans-Serif" font-size="10.00">+ HardwareLedPwm()</text>
<text text-anchor="start" x="162" y="-128.5" font-family="Helvetica,sans-Serif" font-size="10.00">+ setState()</text>
<text text-anchor="start" x="162" y="-117.5" font-family="Helvetica,sans-Serif" font-size="10.00">+ setBrightness()</text>
<text text-anchor="start" x="162" y="-106.5" font-family="Helvetica,sans-Serif" font-size="10.00">+ setBlinking()</text>
<text text-anchor="start" x="162" y="-95.5" font-family="Helvetica,sans-Serif" font-size="10.00">+ getState()</text>
<text text-anchor="start" x="162" y="-84.5" font-family="Helvetica,sans-Serif" font-size="10.00">+ getBrightness()</text>
<text text-anchor="start" x="162" y="-73.5" font-family="Helvetica,sans-Serif" font-size="10.00">+ getBlinking()</text>
<text text-anchor="start" x="162" y="-62.5" font-family="Helvetica,sans-Serif" font-size="10.00">+ receive()</text>
<text text-anchor="start" x="162" y="-51.5" font-family="Helvetica,sans-Serif" font-size="10.00">+ setStatus()</text>
<text text-anchor="start" x="162" y="-40.5" font-family="Helvetica,sans-Serif" font-size="10.00">+ getStatus()</text>
<text text-anchor="start" x="162" y="-29.5" font-family="Helvetica,sans-Serif" font-size="10.00"># _refresh()</text>
<text text-anchor="start" x="162" y="-18.5" font-family="Helvetica,sans-Serif" font-size="10.00"># _attachBlinkingTicker()</text>
<text text-anchor="start" x="162" y="-7.5" font-family="Helvetica,sans-Serif" font-size="10.00"># _blinkingLoop()</text>
</a>
</g>
</g>
<!-- Node1&#45;&gt;Node8 -->
<g id="edge7" class="edge"><title>Node1&#45;&gt;Node8</title>
<path fill="none" stroke="midnightblue" d="M222,-304.23C222,-295.651 222,-286.675 222,-277.532"/>
<polygon fill="none" stroke="midnightblue" points="218.5,-304.482 222,-314.482 225.5,-304.482 218.5,-304.482"/>
</g>
<!-- Node9 -->
<g id="node9" class="node"><title>Node9</title>
<g id="a_node9"><a xlink:href="class_software_led.html" target="_top" xlink:title="{SoftwareLed\n|# _state\l# _brightness\l# _blinking\l|+ SoftwareLed()\l+ setState()\l+ setBrightness()\l+ setBlinking()\l+ getState()\l+ getBrightness()\l+ getBlinking()\l+ receive()\l+ setStatus()\l+ getStatus()\l}">
<polygon fill="white" stroke="black" points="308,-50 308,-228 410,-228 410,-50 308,-50"/>
<text text-anchor="middle" x="359" y="-216" font-family="Helvetica,sans-Serif" font-size="10.00">SoftwareLed</text>
<polyline fill="none" stroke="black" points="308,-209 410,-209 "/>
<text text-anchor="start" x="316" y="-197" font-family="Helvetica,sans-Serif" font-size="10.00"># _state</text>
<text text-anchor="start" x="316" y="-186" font-family="Helvetica,sans-Serif" font-size="10.00"># _brightness</text>
<text text-anchor="start" x="316" y="-175" font-family="Helvetica,sans-Serif" font-size="10.00"># _blinking</text>
<polyline fill="none" stroke="black" points="308,-168 410,-168 "/>
<text text-anchor="start" x="316" y="-156" font-family="Helvetica,sans-Serif" font-size="10.00">+ SoftwareLed()</text>
<text text-anchor="start" x="316" y="-145" font-family="Helvetica,sans-Serif" font-size="10.00">+ setState()</text>
<text text-anchor="start" x="316" y="-134" font-family="Helvetica,sans-Serif" font-size="10.00">+ setBrightness()</text>
<text text-anchor="start" x="316" y="-123" font-family="Helvetica,sans-Serif" font-size="10.00">+ setBlinking()</text>
<text text-anchor="start" x="316" y="-112" font-family="Helvetica,sans-Serif" font-size="10.00">+ getState()</text>
<text text-anchor="start" x="316" y="-101" font-family="Helvetica,sans-Serif" font-size="10.00">+ getBrightness()</text>
<text text-anchor="start" x="316" y="-90" font-family="Helvetica,sans-Serif" font-size="10.00">+ getBlinking()</text>
<text text-anchor="start" x="316" y="-79" font-family="Helvetica,sans-Serif" font-size="10.00">+ receive()</text>
<text text-anchor="start" x="316" y="-68" font-family="Helvetica,sans-Serif" font-size="10.00">+ setStatus()</text>
<text text-anchor="start" x="316" y="-57" font-family="Helvetica,sans-Serif" font-size="10.00">+ getStatus()</text>
</a>
</g>
</g>
<!-- Node1&#45;&gt;Node9 -->
<g id="edge8" class="edge"><title>Node1&#45;&gt;Node9</title>
<path fill="none" stroke="midnightblue" d="M279.044,-307.672C286.169,-297.992 293.036,-287.938 299,-278 308.344,-262.432 317.036,-245.146 324.742,-228.222"/>
<polygon fill="none" stroke="midnightblue" points="276.218,-305.606 273.013,-315.704 281.816,-309.809 276.218,-305.606"/>
</g>
<!-- Node2 -->
<g id="node2" class="node"><title>Node2</title>
<g id="a_node2"><a xlink:href="class_self_syncable.html" target="_top" xlink:title="{SelfSyncable\n|# _syncer\l# _syncerAttached\l|+ attach()\l+ detach()\l# _sendCommand()\l# _sendCommand()\l# _sendCommand()\l# _send()\l# _convertFloat()\l# _reconvertFloat()\l# _disassambleFloat()\l# _reassambleFloat()\l}">
<polygon fill="white" stroke="black" points="160,-474.5 160,-641.5 284,-641.5 284,-474.5 160,-474.5"/>
<text text-anchor="middle" x="222" y="-629.5" font-family="Helvetica,sans-Serif" font-size="10.00">SelfSyncable</text>
<polyline fill="none" stroke="black" points="160,-622.5 284,-622.5 "/>
<text text-anchor="start" x="168" y="-610.5" font-family="Helvetica,sans-Serif" font-size="10.00"># _syncer</text>
<text text-anchor="start" x="168" y="-599.5" font-family="Helvetica,sans-Serif" font-size="10.00"># _syncerAttached</text>
<polyline fill="none" stroke="black" points="160,-592.5 284,-592.5 "/>
<text text-anchor="start" x="168" y="-580.5" font-family="Helvetica,sans-Serif" font-size="10.00">+ attach()</text>
<text text-anchor="start" x="168" y="-569.5" font-family="Helvetica,sans-Serif" font-size="10.00">+ detach()</text>
<text text-anchor="start" x="168" y="-558.5" font-family="Helvetica,sans-Serif" font-size="10.00"># _sendCommand()</text>
<text text-anchor="start" x="168" y="-547.5" font-family="Helvetica,sans-Serif" font-size="10.00"># _sendCommand()</text>
<text text-anchor="start" x="168" y="-536.5" font-family="Helvetica,sans-Serif" font-size="10.00"># _sendCommand()</text>
<text text-anchor="start" x="168" y="-525.5" font-family="Helvetica,sans-Serif" font-size="10.00"># _send()</text>
<text text-anchor="start" x="168" y="-514.5" font-family="Helvetica,sans-Serif" font-size="10.00"># _convertFloat()</text>
<text text-anchor="start" x="168" y="-503.5" font-family="Helvetica,sans-Serif" font-size="10.00"># _reconvertFloat()</text>
<text text-anchor="start" x="168" y="-492.5" font-family="Helvetica,sans-Serif" font-size="10.00"># _disassambleFloat()</text>
<text text-anchor="start" x="168" y="-481.5" font-family="Helvetica,sans-Serif" font-size="10.00"># _reassambleFloat()</text>
</a>
</g>
</g>
<!-- Node2&#45;&gt;Node1 -->
<g id="edge1" class="edge"><title>Node2&#45;&gt;Node1</title>
<path fill="none" stroke="midnightblue" d="M222,-464.194C222,-455.173 222,-446.189 222,-437.607"/>
<polygon fill="none" stroke="midnightblue" points="218.5,-464.375 222,-474.375 225.5,-464.375 218.5,-464.375"/>
</g>
<!-- Node3 -->
<g id="node3" class="node"><title>Node3</title>
<g id="a_node3"><a xlink:href="class_i_communication.html" target="_top" xlink:title="{ICommunication\n||+ receive()\l}">
<polygon fill="white" stroke="black" points="174.5,-678.5 174.5,-735.5 269.5,-735.5 269.5,-678.5 174.5,-678.5"/>
<text text-anchor="middle" x="222" y="-723.5" font-family="Helvetica,sans-Serif" font-size="10.00">ICommunication</text>
<polyline fill="none" stroke="black" points="174.5,-716.5 269.5,-716.5 "/>
<text text-anchor="middle" x="222" y="-704.5" font-family="Helvetica,sans-Serif" font-size="10.00"> </text>
<polyline fill="none" stroke="black" points="174.5,-697.5 269.5,-697.5 "/>
<text text-anchor="start" x="182.5" y="-685.5" font-family="Helvetica,sans-Serif" font-size="10.00">+ receive()</text>
</a>
</g>
</g>
<!-- Node3&#45;&gt;Node2 -->
<g id="edge2" class="edge"><title>Node3&#45;&gt;Node2</title>
<path fill="none" stroke="midnightblue" d="M222,-668.35C222,-660.08 222,-651.008 222,-641.738"/>
<polygon fill="none" stroke="midnightblue" points="218.5,-668.35 222,-678.35 225.5,-668.35 218.5,-668.35"/>
</g>
<!-- Node4 -->
<g id="node4" class="node"><title>Node4</title>
<g id="a_node4"><a xlink:href="class_i_component.html" target="_top" xlink:title="{IComponent\n||+ IComponent()\l+ IComponent()\l+ setComponentSubId()\l+ getComponentType()\l+ getComponentSubId()\l+ getComponentId()\l+ getObjectType()\l# setComponentType()\l# setObjectType()\l}">
<polygon fill="white" stroke="black" points="155,-772.5 155,-917.5 289,-917.5 289,-772.5 155,-772.5"/>
<text text-anchor="middle" x="222" y="-905.5" font-family="Helvetica,sans-Serif" font-size="10.00">IComponent</text>
<polyline fill="none" stroke="black" points="155,-898.5 289,-898.5 "/>
<text text-anchor="middle" x="222" y="-886.5" font-family="Helvetica,sans-Serif" font-size="10.00"> </text>
<polyline fill="none" stroke="black" points="155,-879.5 289,-879.5 "/>
<text text-anchor="start" x="163" y="-867.5" font-family="Helvetica,sans-Serif" font-size="10.00">+ IComponent()</text>
<text text-anchor="start" x="163" y="-856.5" font-family="Helvetica,sans-Serif" font-size="10.00">+ IComponent()</text>
<text text-anchor="start" x="163" y="-845.5" font-family="Helvetica,sans-Serif" font-size="10.00">+ setComponentSubId()</text>
<text text-anchor="start" x="163" y="-834.5" font-family="Helvetica,sans-Serif" font-size="10.00">+ getComponentType()</text>
<text text-anchor="start" x="163" y="-823.5" font-family="Helvetica,sans-Serif" font-size="10.00">+ getComponentSubId()</text>
<text text-anchor="start" x="163" y="-812.5" font-family="Helvetica,sans-Serif" font-size="10.00">+ getComponentId()</text>
<text text-anchor="start" x="163" y="-801.5" font-family="Helvetica,sans-Serif" font-size="10.00">+ getObjectType()</text>
<text text-anchor="start" x="163" y="-790.5" font-family="Helvetica,sans-Serif" font-size="10.00"># setComponentType()</text>
<text text-anchor="start" x="163" y="-779.5" font-family="Helvetica,sans-Serif" font-size="10.00"># setObjectType()</text>
</a>
</g>
</g>
<!-- Node4&#45;&gt;Node3 -->
<g id="edge3" class="edge"><title>Node4&#45;&gt;Node3</title>
<path fill="none" stroke="midnightblue" d="M222,-762.387C222,-752.861 222,-743.707 222,-735.714"/>
<polygon fill="none" stroke="midnightblue" points="218.5,-762.416 222,-772.416 225.5,-762.416 218.5,-762.416"/>
</g>
<!-- Node5 -->
<g id="node5" class="node"><title>Node5</title>
<g id="a_node5"><a xlink:href="class_i_logable.html" target="_top" xlink:title="{ILogable\n||+ setStatus()\l+ getStatus()\l+ getLogValueCount()\l+ getLogValue()\l}">
<polygon fill="white" stroke="black" points="160.5,-954.5 160.5,-1044.5 283.5,-1044.5 283.5,-954.5 160.5,-954.5"/>
<text text-anchor="middle" x="222" y="-1032.5" font-family="Helvetica,sans-Serif" font-size="10.00">ILogable</text>
<polyline fill="none" stroke="black" points="160.5,-1025.5 283.5,-1025.5 "/>
<text text-anchor="middle" x="222" y="-1013.5" font-family="Helvetica,sans-Serif" font-size="10.00"> </text>
<polyline fill="none" stroke="black" points="160.5,-1006.5 283.5,-1006.5 "/>
<text text-anchor="start" x="168.5" y="-994.5" font-family="Helvetica,sans-Serif" font-size="10.00">+ setStatus()</text>
<text text-anchor="start" x="168.5" y="-983.5" font-family="Helvetica,sans-Serif" font-size="10.00">+ getStatus()</text>
<text text-anchor="start" x="168.5" y="-972.5" font-family="Helvetica,sans-Serif" font-size="10.00">+ getLogValueCount()</text>
<text text-anchor="start" x="168.5" y="-961.5" font-family="Helvetica,sans-Serif" font-size="10.00">+ getLogValue()</text>
</a>
</g>
</g>
<!-- Node5&#45;&gt;Node4 -->
<g id="edge4" class="edge"><title>Node5&#45;&gt;Node4</title>
<path fill="none" stroke="midnightblue" d="M222,-944.13C222,-935.526 222,-926.516 222,-917.591"/>
<polygon fill="none" stroke="midnightblue" points="218.5,-944.391 222,-954.391 225.5,-944.391 218.5,-944.391"/>
</g>
<!-- Node6 -->
<g id="node6" class="node"><title>Node6</title>
<g id="a_node6"><a xlink:href="class_non_copyable.html" target="_top" xlink:title="{NonCopyable\&lt; ILogable \&gt;\n||+ NonCopyable()\l}">
<polygon fill="white" stroke="black" points="150.5,-1081.5 150.5,-1138.5 293.5,-1138.5 293.5,-1081.5 150.5,-1081.5"/>
<text text-anchor="middle" x="222" y="-1126.5" font-family="Helvetica,sans-Serif" font-size="10.00">NonCopyable&lt; ILogable &gt;</text>
<polyline fill="none" stroke="black" points="150.5,-1119.5 293.5,-1119.5 "/>
<text text-anchor="middle" x="222" y="-1107.5" font-family="Helvetica,sans-Serif" font-size="10.00"> </text>
<polyline fill="none" stroke="black" points="150.5,-1100.5 293.5,-1100.5 "/>
<text text-anchor="start" x="158.5" y="-1088.5" font-family="Helvetica,sans-Serif" font-size="10.00">+ NonCopyable()</text>
</a>
</g>
</g>
<!-- Node6&#45;&gt;Node5 -->
<g id="edge5" class="edge"><title>Node6&#45;&gt;Node5</title>
<path fill="none" stroke="#8b1a1a" d="M222,-1071.21C222,-1062.61 222,-1053.39 222,-1044.55"/>
<polygon fill="none" stroke="#8b1a1a" points="218.5,-1071.34 222,-1081.34 225.5,-1071.34 218.5,-1071.34"/>
</g>
</g>
</svg>
