<?xml version="1.0" encoding="UTF-8" standalone="no"?>
<!DOCTYPE svg PUBLIC "-//W3C//DTD SVG 1.1//EN"
 "http://www.w3.org/Graphics/SVG/1.1/DTD/svg11.dtd">
<!-- Generated by graphviz version 2.38.0 (20140413.2041)
 -->
<!-- Title: PCockpitIndicator Pages: 1 -->
<!--zoomable 1451 -->
<svg id="main" version="1.1" xmlns="http://www.w3.org/2000/svg" xmlns:xlink="http://www.w3.org/1999/xlink" xml:space="preserve" onload="init(evt)">
<style type="text/css"><![CDATA[
.edge:hover path { stroke: red; }
.edge:hover polygon { stroke: red; fill: red; }
]]></style>
<script type="text/javascript"><![CDATA[
var edges = document.getElementsByTagName('g');
if (edges && edges.length) {
  for (var i=0;i<edges.length;i++) {
    if (edges[i].id.substr(0,4)=='edge') {
      edges[i].setAttribute('class','edge');
    }
  }
}
]]></script>
        <defs>
                <circle id="rim" cx="0" cy="0" r="7"/>
                <circle id="rim2" cx="0" cy="0" r="3.5"/>
                <g id="zoomPlus">
                        <use xlink:href="#rim" fill="#404040">
                                <set attributeName="fill" to="#808080" begin="zoomplus.mouseover" end="zoomplus.mouseout"/>
                        </use>
                        <path d="M-4,0h8M0,-4v8" fill="none" stroke="white" stroke-width="1.5" pointer-events="none"/>
                </g>
                <g id="zoomMin">
                        <use xlink:href="#rim" fill="#404040">
                                <set attributeName="fill" to="#808080" begin="zoomminus.mouseover" end="zoomminus.mouseout"/>
                        </use>
                        <path d="M-4,0h8" fill="none" stroke="white" stroke-width="1.5" pointer-events="none"/>
                </g>
                <g id="dirArrow">
                        <path fill="none" stroke="white" stroke-width="1.5" d="M0,-3.0v7 M-2.5,-0.5L0,-3.0L2.5,-0.5"/>
                </g>
               <g id="resetDef">
                       <use xlink:href="#rim2" fill="#404040">
                               <set attributeName="fill" to="#808080" begin="reset.mouseover" end="reset.mouseout"/>
                       </use>
               </g>
        </defs>

<script type="text/javascript">
var viewWidth = 421;
var viewHeight = 1451;
var sectionId = 'dynsection-1';
</script>
<script xlink:href="svgpan.js"/>
<svg id="graph" class="graph">
<g id="viewport">
<title>PCockpitIndicator</title>
<polygon fill="white" stroke="none" points="-4,4 -4,-1447 416.5,-1447 416.5,4 -4,4"/>
<!-- Node1 -->
<g id="node1" class="node"><title>Node1</title>
<polygon fill="#bfbfbf" stroke="black" points="213.5,-0.5 213.5,-68.5 331.5,-68.5 331.5,-0.5 213.5,-0.5"/>
<text text-anchor="middle" x="272.5" y="-56.5" font-family="Helvetica,sans-Serif" font-size="10.00">PCockpitIndicator</text>
<polyline fill="none" stroke="black" points="213.5,-49.5 331.5,-49.5 "/>
<text text-anchor="start" x="221.5" y="-37.5" font-family="Helvetica,sans-Serif" font-size="10.00"># greenActive</text>
<polyline fill="none" stroke="black" points="213.5,-30.5 331.5,-30.5 "/>
<text text-anchor="start" x="221.5" y="-18.5" font-family="Helvetica,sans-Serif" font-size="10.00">+ PCockpitIndicator()</text>
<text text-anchor="start" x="221.5" y="-7.5" font-family="Helvetica,sans-Serif" font-size="10.00">+ run()</text>
</g>
<!-- Node2 -->
<g id="node2" class="node"><title>Node2</title>
<g id="a_node2"><a xlink:href="class_i_program.html" target="_top" xlink:title="{IProgram\n||}">
<polygon fill="white" stroke="black" points="229.5,-531.5 229.5,-588.5 289.5,-588.5 289.5,-531.5 229.5,-531.5"/>
<text text-anchor="middle" x="259.5" y="-576.5" font-family="Helvetica,sans-Serif" font-size="10.00">IProgram</text>
<polyline fill="none" stroke="black" points="229.5,-569.5 289.5,-569.5 "/>
<text text-anchor="middle" x="259.5" y="-557.5" font-family="Helvetica,sans-Serif" font-size="10.00"> </text>
<polyline fill="none" stroke="black" points="229.5,-550.5 289.5,-550.5 "/>
<text text-anchor="middle" x="259.5" y="-538.5" font-family="Helvetica,sans-Serif" font-size="10.00"> </text>
</a>
</g>
</g>
<!-- Node2&#45;&gt;Node1 -->
<g id="edge1" class="edge"><title>Node2&#45;&gt;Node1</title>
<path fill="none" stroke="midnightblue" d="M260.44,-521.167C262.876,-423.068 269.366,-161.697 271.673,-68.8216"/>
<polygon fill="none" stroke="midnightblue" points="256.939,-521.14 260.19,-531.224 263.937,-521.314 256.939,-521.14"/>
</g>
<!-- Node3 -->
<g id="node3" class="node"><title>Node3</title>
<g id="a_node3"><a xlink:href="class_i_runable.html" target="_top" xlink:title="{IRunable\n||+ IRunable()\l+ run()\l+ setStatus()\l+ getStatus()\l}">
<polygon fill="white" stroke="black" points="187,-908 187,-998 270,-998 270,-908 187,-908"/>
<text text-anchor="middle" x="228.5" y="-986" font-family="Helvetica,sans-Serif" font-size="10.00">IRunable</text>
<polyline fill="none" stroke="black" points="187,-979 270,-979 "/>
<text text-anchor="middle" x="228.5" y="-967" font-family="Helvetica,sans-Serif" font-size="10.00"> </text>
<polyline fill="none" stroke="black" points="187,-960 270,-960 "/>
<text text-anchor="start" x="195" y="-948" font-family="Helvetica,sans-Serif" font-size="10.00">+ IRunable()</text>
<text text-anchor="start" x="195" y="-937" font-family="Helvetica,sans-Serif" font-size="10.00">+ run()</text>
<text text-anchor="start" x="195" y="-926" font-family="Helvetica,sans-Serif" font-size="10.00">+ setStatus()</text>
<text text-anchor="start" x="195" y="-915" font-family="Helvetica,sans-Serif" font-size="10.00">+ getStatus()</text>
</a>
</g>
</g>
<!-- Node3&#45;&gt;Node2 -->
<g id="edge2" class="edge"><title>Node3&#45;&gt;Node2</title>
<path fill="none" stroke="midnightblue" d="M232.803,-897.723C239.515,-813.074 252.231,-652.681 257.317,-588.53"/>
<polygon fill="none" stroke="midnightblue" points="229.297,-897.662 231.996,-907.907 236.275,-898.215 229.297,-897.662"/>
</g>
<!-- Node10 -->
<g id="node10" class="node"><title>Node10</title>
<g id="a_node10"><a xlink:href="class_sync.html" target="_top" xlink:title="{Sync\n||+ Sync()\l+ addComponent()\l+ addBridge()\l+ receive()\l+ send()\l+ run()\l+ messageInQueue()\l+ finalize()\l+ Sync()\l+ receive()\land 7 more...\l}">
<polygon fill="white" stroke="black" points="102,-607.5 102,-774.5 221,-774.5 221,-607.5 102,-607.5"/>
<text text-anchor="middle" x="161.5" y="-762.5" font-family="Helvetica,sans-Serif" font-size="10.00">Sync</text>
<polyline fill="none" stroke="black" points="102,-755.5 221,-755.5 "/>
<text text-anchor="middle" x="161.5" y="-743.5" font-family="Helvetica,sans-Serif" font-size="10.00"> </text>
<polyline fill="none" stroke="black" points="102,-736.5 221,-736.5 "/>
<text text-anchor="start" x="110" y="-724.5" font-family="Helvetica,sans-Serif" font-size="10.00">+ Sync()</text>
<text text-anchor="start" x="110" y="-713.5" font-family="Helvetica,sans-Serif" font-size="10.00">+ addComponent()</text>
<text text-anchor="start" x="110" y="-702.5" font-family="Helvetica,sans-Serif" font-size="10.00">+ addBridge()</text>
<text text-anchor="start" x="110" y="-691.5" font-family="Helvetica,sans-Serif" font-size="10.00">+ receive()</text>
<text text-anchor="start" x="110" y="-680.5" font-family="Helvetica,sans-Serif" font-size="10.00">+ send()</text>
<text text-anchor="start" x="110" y="-669.5" font-family="Helvetica,sans-Serif" font-size="10.00">+ run()</text>
<text text-anchor="start" x="110" y="-658.5" font-family="Helvetica,sans-Serif" font-size="10.00">+ messageInQueue()</text>
<text text-anchor="start" x="110" y="-647.5" font-family="Helvetica,sans-Serif" font-size="10.00">+ finalize()</text>
<text text-anchor="start" x="110" y="-636.5" font-family="Helvetica,sans-Serif" font-size="10.00">+ Sync()</text>
<text text-anchor="start" x="110" y="-625.5" font-family="Helvetica,sans-Serif" font-size="10.00">+ receive()</text>
<text text-anchor="start" x="110" y="-614.5" font-family="Helvetica,sans-Serif" font-size="10.00">and 7 more...</text>
</a>
</g>
</g>
<!-- Node3&#45;&gt;Node10 -->
<g id="edge11" class="edge"><title>Node3&#45;&gt;Node10</title>
<path fill="none" stroke="midnightblue" d="M209.475,-898.196C201.713,-867.28 192.766,-827.797 183.5,-793 181.895,-786.974 180.17,-780.767 178.406,-774.533"/>
<polygon fill="none" stroke="midnightblue" points="206.091,-899.09 211.953,-907.916 212.874,-897.361 206.091,-899.09"/>
</g>
<!-- Node3&#45;&gt;Node10 -->
<g id="edge12" class="edge"><title>Node3&#45;&gt;Node10</title>
<path fill="none" stroke="midnightblue" d="M225.193,-897.794C219.636,-866.938 210.725,-827.647 201.5,-793 199.895,-786.974 198.17,-780.767 196.364,-774.533"/>
<polygon fill="none" stroke="midnightblue" points="221.791,-898.659 226.945,-907.916 228.689,-897.465 221.791,-898.659"/>
</g>
<!-- Node4 -->
<g id="node4" class="node"><title>Node4</title>
<g id="a_node4"><a xlink:href="class_i_component.html" target="_top" xlink:title="{IComponent\n||+ IComponent()\l+ IComponent()\l+ setComponentSubId()\l+ getComponentType()\l+ getComponentSubId()\l+ getComponentId()\l+ getObjectType()\l# setComponentType()\l# setObjectType()\l}">
<polygon fill="white" stroke="black" points="245.5,-1074.5 245.5,-1219.5 379.5,-1219.5 379.5,-1074.5 245.5,-1074.5"/>
<text text-anchor="middle" x="312.5" y="-1207.5" font-family="Helvetica,sans-Serif" font-size="10.00">IComponent</text>
<polyline fill="none" stroke="black" points="245.5,-1200.5 379.5,-1200.5 "/>
<text text-anchor="middle" x="312.5" y="-1188.5" font-family="Helvetica,sans-Serif" font-size="10.00"> </text>
<polyline fill="none" stroke="black" points="245.5,-1181.5 379.5,-1181.5 "/>
<text text-anchor="start" x="253.5" y="-1169.5" font-family="Helvetica,sans-Serif" font-size="10.00">+ IComponent()</text>
<text text-anchor="start" x="253.5" y="-1158.5" font-family="Helvetica,sans-Serif" font-size="10.00">+ IComponent()</text>
<text text-anchor="start" x="253.5" y="-1147.5" font-family="Helvetica,sans-Serif" font-size="10.00">+ setComponentSubId()</text>
<text text-anchor="start" x="253.5" y="-1136.5" font-family="Helvetica,sans-Serif" font-size="10.00">+ getComponentType()</text>
<text text-anchor="start" x="253.5" y="-1125.5" font-family="Helvetica,sans-Serif" font-size="10.00">+ getComponentSubId()</text>
<text text-anchor="start" x="253.5" y="-1114.5" font-family="Helvetica,sans-Serif" font-size="10.00">+ getComponentId()</text>
<text text-anchor="start" x="253.5" y="-1103.5" font-family="Helvetica,sans-Serif" font-size="10.00">+ getObjectType()</text>
<text text-anchor="start" x="253.5" y="-1092.5" font-family="Helvetica,sans-Serif" font-size="10.00"># setComponentType()</text>
<text text-anchor="start" x="253.5" y="-1081.5" font-family="Helvetica,sans-Serif" font-size="10.00"># setObjectType()</text>
</a>
</g>
</g>
<!-- Node4&#45;&gt;Node3 -->
<g id="edge3" class="edge"><title>Node4&#45;&gt;Node3</title>
<path fill="none" stroke="midnightblue" d="M276.998,-1064.85C266.985,-1041.97 256.466,-1017.92 247.794,-998.101"/>
<polygon fill="none" stroke="midnightblue" points="273.887,-1066.47 281.102,-1074.23 280.3,-1063.67 273.887,-1066.47"/>
</g>
<!-- Node9 -->
<g id="node9" class="node"><title>Node9</title>
<g id="a_node9"><a xlink:href="class_i_communication.html" target="_top" xlink:title="{ICommunication\n||+ receive()\l}">
<polygon fill="white" stroke="black" points="265,-793.5 265,-850.5 360,-850.5 360,-793.5 265,-793.5"/>
<text text-anchor="middle" x="312.5" y="-838.5" font-family="Helvetica,sans-Serif" font-size="10.00">ICommunication</text>
<polyline fill="none" stroke="black" points="265,-831.5 360,-831.5 "/>
<text text-anchor="middle" x="312.5" y="-819.5" font-family="Helvetica,sans-Serif" font-size="10.00"> </text>
<polyline fill="none" stroke="black" points="265,-812.5 360,-812.5 "/>
<text text-anchor="start" x="273" y="-800.5" font-family="Helvetica,sans-Serif" font-size="10.00">+ receive()</text>
</a>
</g>
</g>
<!-- Node4&#45;&gt;Node9 -->
<g id="edge9" class="edge"><title>Node4&#45;&gt;Node9</title>
<path fill="none" stroke="midnightblue" d="M312.5,-1064.2C312.5,-994.259 312.5,-897.706 312.5,-850.805"/>
<polygon fill="none" stroke="midnightblue" points="309,-1064.32 312.5,-1074.32 316,-1064.32 309,-1064.32"/>
</g>
<!-- Node13 -->
<g id="node13" class="node"><title>Node13</title>
<g id="a_node13"><a xlink:href="class_i_hv_enabled.html" target="_top" xlink:title="{IHvEnabled\n||+ IHvEnabled()\l+ read()\l+ operator bool()\l}">
<polygon fill="white" stroke="black" points="312.5,-258.5 312.5,-337.5 412.5,-337.5 412.5,-258.5 312.5,-258.5"/>
<text text-anchor="middle" x="362.5" y="-325.5" font-family="Helvetica,sans-Serif" font-size="10.00">IHvEnabled</text>
<polyline fill="none" stroke="black" points="312.5,-318.5 412.5,-318.5 "/>
<text text-anchor="middle" x="362.5" y="-306.5" font-family="Helvetica,sans-Serif" font-size="10.00"> </text>
<polyline fill="none" stroke="black" points="312.5,-299.5 412.5,-299.5 "/>
<text text-anchor="start" x="320.5" y="-287.5" font-family="Helvetica,sans-Serif" font-size="10.00">+ IHvEnabled()</text>
<text text-anchor="start" x="320.5" y="-276.5" font-family="Helvetica,sans-Serif" font-size="10.00">+ read()</text>
<text text-anchor="start" x="320.5" y="-265.5" font-family="Helvetica,sans-Serif" font-size="10.00">+ operator bool()</text>
</a>
</g>
</g>
<!-- Node4&#45;&gt;Node13 -->
<g id="edge16" class="edge"><title>Node4&#45;&gt;Node13</title>
<path fill="none" stroke="midnightblue" d="M351.703,-1064.68C364.506,-1031.2 375.5,-991.518 375.5,-954 375.5,-954 375.5,-954 375.5,-559 375.5,-480.36 369.494,-388.508 365.647,-337.733"/>
<polygon fill="none" stroke="midnightblue" points="348.279,-1063.82 347.867,-1074.41 354.791,-1066.39 348.279,-1063.82"/>
</g>
<!-- Node5 -->
<g id="node5" class="node"><title>Node5</title>
<g id="a_node5"><a xlink:href="class_i_logable.html" target="_top" xlink:title="{ILogable\n||+ setStatus()\l+ getStatus()\l+ getLogValueCount()\l+ getLogValue()\l}">
<polygon fill="white" stroke="black" points="251,-1257.5 251,-1347.5 374,-1347.5 374,-1257.5 251,-1257.5"/>
<text text-anchor="middle" x="312.5" y="-1335.5" font-family="Helvetica,sans-Serif" font-size="10.00">ILogable</text>
<polyline fill="none" stroke="black" points="251,-1328.5 374,-1328.5 "/>
<text text-anchor="middle" x="312.5" y="-1316.5" font-family="Helvetica,sans-Serif" font-size="10.00"> </text>
<polyline fill="none" stroke="black" points="251,-1309.5 374,-1309.5 "/>
<text text-anchor="start" x="259" y="-1297.5" font-family="Helvetica,sans-Serif" font-size="10.00">+ setStatus()</text>
<text text-anchor="start" x="259" y="-1286.5" font-family="Helvetica,sans-Serif" font-size="10.00">+ getStatus()</text>
<text text-anchor="start" x="259" y="-1275.5" font-family="Helvetica,sans-Serif" font-size="10.00">+ getLogValueCount()</text>
<text text-anchor="start" x="259" y="-1264.5" font-family="Helvetica,sans-Serif" font-size="10.00">+ getLogValue()</text>
</a>
</g>
</g>
<!-- Node5&#45;&gt;Node4 -->
<g id="edge4" class="edge"><title>Node5&#45;&gt;Node4</title>
<path fill="none" stroke="midnightblue" d="M312.5,-1246.98C312.5,-1238.16 312.5,-1228.92 312.5,-1219.77"/>
<polygon fill="none" stroke="midnightblue" points="309,-1247.1 312.5,-1257.1 316,-1247.1 309,-1247.1"/>
</g>
<!-- Node6 -->
<g id="node6" class="node"><title>Node6</title>
<g id="a_node6"><a xlink:href="class_non_copyable.html" target="_top" xlink:title="{NonCopyable\&lt; ILogable \&gt;\n||+ NonCopyable()\l}">
<polygon fill="white" stroke="black" points="241,-1385.5 241,-1442.5 384,-1442.5 384,-1385.5 241,-1385.5"/>
<text text-anchor="middle" x="312.5" y="-1430.5" font-family="Helvetica,sans-Serif" font-size="10.00">NonCopyable&lt; ILogable &gt;</text>
<polyline fill="none" stroke="black" points="241,-1423.5 384,-1423.5 "/>
<text text-anchor="middle" x="312.5" y="-1411.5" font-family="Helvetica,sans-Serif" font-size="10.00"> </text>
<polyline fill="none" stroke="black" points="241,-1404.5 384,-1404.5 "/>
<text text-anchor="start" x="249" y="-1392.5" font-family="Helvetica,sans-Serif" font-size="10.00">+ NonCopyable()</text>
</a>
</g>
</g>
<!-- Node6&#45;&gt;Node5 -->
<g id="edge5" class="edge"><title>Node6&#45;&gt;Node5</title>
<path fill="none" stroke="#8b1a1a" d="M312.5,-1375.31C312.5,-1366.43 312.5,-1356.88 312.5,-1347.74"/>
<polygon fill="none" stroke="#8b1a1a" points="309,-1375.37 312.5,-1385.37 316,-1375.37 309,-1375.37"/>
</g>
<!-- Node7 -->
<g id="node7" class="node"><title>Node7</title>
<g id="a_node7"><a xlink:href="class_i_led.html" target="_top" xlink:title="{ILed\n||+ ILed()\l+ setState()\l+ setBrightness()\l+ setBlinking()\l+ getState()\l+ getBrightness()\l+ getBlinking()\l}">
<polygon fill="white" stroke="black" points="139.5,-116.5 139.5,-239.5 241.5,-239.5 241.5,-116.5 139.5,-116.5"/>
<text text-anchor="middle" x="190.5" y="-227.5" font-family="Helvetica,sans-Serif" font-size="10.00">ILed</text>
<polyline fill="none" stroke="black" points="139.5,-220.5 241.5,-220.5 "/>
<text text-anchor="middle" x="190.5" y="-208.5" font-family="Helvetica,sans-Serif" font-size="10.00"> </text>
<polyline fill="none" stroke="black" points="139.5,-201.5 241.5,-201.5 "/>
<text text-anchor="start" x="147.5" y="-189.5" font-family="Helvetica,sans-Serif" font-size="10.00">+ ILed()</text>
<text text-anchor="start" x="147.5" y="-178.5" font-family="Helvetica,sans-Serif" font-size="10.00">+ setState()</text>
<text text-anchor="start" x="147.5" y="-167.5" font-family="Helvetica,sans-Serif" font-size="10.00">+ setBrightness()</text>
<text text-anchor="start" x="147.5" y="-156.5" font-family="Helvetica,sans-Serif" font-size="10.00">+ setBlinking()</text>
<text text-anchor="start" x="147.5" y="-145.5" font-family="Helvetica,sans-Serif" font-size="10.00">+ getState()</text>
<text text-anchor="start" x="147.5" y="-134.5" font-family="Helvetica,sans-Serif" font-size="10.00">+ getBrightness()</text>
<text text-anchor="start" x="147.5" y="-123.5" font-family="Helvetica,sans-Serif" font-size="10.00">+ getBlinking()</text>
</a>
</g>
</g>
<!-- Node7&#45;&gt;Node1 -->
<g id="edge6" class="edge"><title>Node7&#45;&gt;Node1</title>
<path fill="none" stroke="#404040" d="M203.031,-116.471C206.522,-106.215 210.936,-95.989 216.5,-87 218.453,-83.8447 220.652,-80.7618 223.019,-77.7733"/>
<polygon fill="none" stroke="#404040" points="223.159,-77.6122 224.096,-70.4622 231.057,-68.577 230.12,-75.727 223.159,-77.6122"/>
<text text-anchor="middle" x="237.5" y="-90" font-family="Helvetica,sans-Serif" font-size="10.00"> #_ciLed</text>
</g>
<!-- Node8 -->
<g id="node8" class="node"><title>Node8</title>
<g id="a_node8"><a xlink:href="class_self_syncable.html" target="_top" xlink:title="{SelfSyncable\n|# _syncerAttached\l|+ attach()\l+ detach()\l# _sendCommand()\l# _sendCommand()\l# _sendCommand()\l# _send()\l# _convertFloat()\l# _reconvertFloat()\l# _disassambleFloat()\l# _reassambleFloat()\l}">
<polygon fill="white" stroke="black" points="120.5,-356.5 120.5,-512.5 244.5,-512.5 244.5,-356.5 120.5,-356.5"/>
<text text-anchor="middle" x="182.5" y="-500.5" font-family="Helvetica,sans-Serif" font-size="10.00">SelfSyncable</text>
<polyline fill="none" stroke="black" points="120.5,-493.5 244.5,-493.5 "/>
<text text-anchor="start" x="128.5" y="-481.5" font-family="Helvetica,sans-Serif" font-size="10.00"># _syncerAttached</text>
<polyline fill="none" stroke="black" points="120.5,-474.5 244.5,-474.5 "/>
<text text-anchor="start" x="128.5" y="-462.5" font-family="Helvetica,sans-Serif" font-size="10.00">+ attach()</text>
<text text-anchor="start" x="128.5" y="-451.5" font-family="Helvetica,sans-Serif" font-size="10.00">+ detach()</text>
<text text-anchor="start" x="128.5" y="-440.5" font-family="Helvetica,sans-Serif" font-size="10.00"># _sendCommand()</text>
<text text-anchor="start" x="128.5" y="-429.5" font-family="Helvetica,sans-Serif" font-size="10.00"># _sendCommand()</text>
<text text-anchor="start" x="128.5" y="-418.5" font-family="Helvetica,sans-Serif" font-size="10.00"># _sendCommand()</text>
<text text-anchor="start" x="128.5" y="-407.5" font-family="Helvetica,sans-Serif" font-size="10.00"># _send()</text>
<text text-anchor="start" x="128.5" y="-396.5" font-family="Helvetica,sans-Serif" font-size="10.00"># _convertFloat()</text>
<text text-anchor="start" x="128.5" y="-385.5" font-family="Helvetica,sans-Serif" font-size="10.00"># _reconvertFloat()</text>
<text text-anchor="start" x="128.5" y="-374.5" font-family="Helvetica,sans-Serif" font-size="10.00"># _disassambleFloat()</text>
<text text-anchor="start" x="128.5" y="-363.5" font-family="Helvetica,sans-Serif" font-size="10.00"># _reassambleFloat()</text>
</a>
</g>
</g>
<!-- Node8&#45;&gt;Node7 -->
<g id="edge7" class="edge"><title>Node8&#45;&gt;Node7</title>
<path fill="none" stroke="midnightblue" d="M185.244,-346.201C186.347,-311.102 187.593,-271.491 188.594,-239.636"/>
<polygon fill="none" stroke="midnightblue" points="181.738,-346.346 184.922,-356.451 188.735,-346.566 181.738,-346.346"/>
</g>
<!-- Node9&#45;&gt;Node8 -->
<g id="edge8" class="edge"><title>Node9&#45;&gt;Node8</title>
<path fill="none" stroke="midnightblue" d="M319.331,-783.046C327.818,-725.233 336.602,-613.164 295.5,-531 284.066,-508.143 264.45,-488.627 244.739,-473.308"/>
<polygon fill="none" stroke="midnightblue" points="315.832,-782.773 317.762,-793.191 322.75,-783.843 315.832,-782.773"/>
</g>
<!-- Node10&#45;&gt;Node8 -->
<g id="edge10" class="edge"><title>Node10&#45;&gt;Node8</title>
<path fill="none" stroke="#404040" d="M165.878,-607.414C167.403,-582.808 169.294,-555.795 171.5,-531 171.683,-528.943 171.874,-526.861 172.072,-524.763"/>
<polygon fill="none" stroke="#404040" points="172.093,-524.548 168.701,-518.185 173.271,-512.606 176.663,-518.97 172.093,-524.548"/>
<text text-anchor="middle" x="196" y="-557.5" font-family="Helvetica,sans-Serif" font-size="10.00"> #_syncer</text>
</g>
<!-- Node11 -->
<g id="node11" class="node"><title>Node11</title>
<g id="a_node11"><a xlink:href="classstd_1_1vector.html" target="_top" xlink:title="{std::vector\&lt; CarMessage \&gt;\n||+ ~vector()\l+ at()\l+ operator[]()\l+ front()\l+ back()\l+ data()\l+ begin()\l+ end()\l+ empty()\l+ size()\land 7 more...\l}">
<polygon fill="white" stroke="black" points="0,-869.5 0,-1036.5 149,-1036.5 149,-869.5 0,-869.5"/>
<text text-anchor="middle" x="74.5" y="-1024.5" font-family="Helvetica,sans-Serif" font-size="10.00">std::vector&lt; CarMessage &gt;</text>
<polyline fill="none" stroke="black" points="0,-1017.5 149,-1017.5 "/>
<text text-anchor="middle" x="74.5" y="-1005.5" font-family="Helvetica,sans-Serif" font-size="10.00"> </text>
<polyline fill="none" stroke="black" points="0,-998.5 149,-998.5 "/>
<text text-anchor="start" x="8" y="-986.5" font-family="Helvetica,sans-Serif" font-size="10.00">+ ~vector()</text>
<text text-anchor="start" x="8" y="-975.5" font-family="Helvetica,sans-Serif" font-size="10.00">+ at()</text>
<text text-anchor="start" x="8" y="-964.5" font-family="Helvetica,sans-Serif" font-size="10.00">+ operator[]()</text>
<text text-anchor="start" x="8" y="-953.5" font-family="Helvetica,sans-Serif" font-size="10.00">+ front()</text>
<text text-anchor="start" x="8" y="-942.5" font-family="Helvetica,sans-Serif" font-size="10.00">+ back()</text>
<text text-anchor="start" x="8" y="-931.5" font-family="Helvetica,sans-Serif" font-size="10.00">+ data()</text>
<text text-anchor="start" x="8" y="-920.5" font-family="Helvetica,sans-Serif" font-size="10.00">+ begin()</text>
<text text-anchor="start" x="8" y="-909.5" font-family="Helvetica,sans-Serif" font-size="10.00">+ end()</text>
<text text-anchor="start" x="8" y="-898.5" font-family="Helvetica,sans-Serif" font-size="10.00">+ empty()</text>
<text text-anchor="start" x="8" y="-887.5" font-family="Helvetica,sans-Serif" font-size="10.00">+ size()</text>
<text text-anchor="start" x="8" y="-876.5" font-family="Helvetica,sans-Serif" font-size="10.00">and 7 more...</text>
</a>
</g>
</g>
<!-- Node11&#45;&gt;Node10 -->
<g id="edge13" class="edge"><title>Node11&#45;&gt;Node10</title>
<path fill="none" stroke="#404040" d="M61.2679,-869.479C60.28,-844.243 62.4095,-816.866 71.5,-793 76.7773,-779.145 84.9242,-765.982 94.2048,-754.012"/>
<polygon fill="none" stroke="#404040" points="94.2495,-753.957 94.9601,-746.781 101.857,-744.677 101.147,-751.853 94.2495,-753.957"/>
<text text-anchor="middle" x="130" y="-819.5" font-family="Helvetica,sans-Serif" font-size="10.00"> +receivedCarMessages</text>
</g>
<!-- Node12 -->
<g id="node12" class="node"><title>Node12</title>
<g id="a_node12"><a xlink:href="class_non_copyable.html" target="_top" xlink:title="{NonCopyable\&lt; vector\l\&lt; CarMessage, unsigned\l int \&gt; \&gt;\n||+ NonCopyable()\l}">
<polygon fill="white" stroke="black" points="6,-1107.5 6,-1186.5 143,-1186.5 143,-1107.5 6,-1107.5"/>
<text text-anchor="start" x="14" y="-1174.5" font-family="Helvetica,sans-Serif" font-size="10.00">NonCopyable&lt; vector</text>
<text text-anchor="start" x="14" y="-1163.5" font-family="Helvetica,sans-Serif" font-size="10.00">&lt; CarMessage, unsigned</text>
<text text-anchor="middle" x="74.5" y="-1152.5" font-family="Helvetica,sans-Serif" font-size="10.00"> int &gt; &gt;</text>
<polyline fill="none" stroke="black" points="6,-1145.5 143,-1145.5 "/>
<text text-anchor="middle" x="74.5" y="-1133.5" font-family="Helvetica,sans-Serif" font-size="10.00"> </text>
<polyline fill="none" stroke="black" points="6,-1126.5 143,-1126.5 "/>
<text text-anchor="start" x="14" y="-1114.5" font-family="Helvetica,sans-Serif" font-size="10.00">+ NonCopyable()</text>
</a>
</g>
</g>
<!-- Node12&#45;&gt;Node11 -->
<g id="edge14" class="edge"><title>Node12&#45;&gt;Node11</title>
<path fill="none" stroke="#8b1a1a" d="M74.5,-1097.02C74.5,-1078.7 74.5,-1057.34 74.5,-1036.81"/>
<polygon fill="none" stroke="#8b1a1a" points="71.0001,-1097.15 74.5,-1107.15 78.0001,-1097.15 71.0001,-1097.15"/>
</g>
<!-- Node13&#45;&gt;Node1 -->
<g id="edge15" class="edge"><title>Node13&#45;&gt;Node1</title>
<path fill="none" stroke="#404040" d="M349.22,-258.415C332.879,-210.933 305.182,-130.459 287.917,-80.2951"/>
<polygon fill="none" stroke="#404040" points="287.882,-80.1942 282.147,-75.8225 283.977,-68.8474 289.712,-73.219 287.882,-80.1942"/>
<text text-anchor="middle" x="374" y="-175.5" font-family="Helvetica,sans-Serif" font-size="10.00"> #_hvEnabled</text>
</g>
</g>
</svg>
        <g id="navigator" transform="translate(0 0)" fill="#404254">
                <rect fill="#f2f5e9" fill-opacity="0.5" stroke="#606060" stroke-width=".5" x="0" y="0" width="60" height="60"/>
                <use id="zoomplus" xlink:href="#zoomPlus" x="17" y="9" onmousedown="handleZoom(evt,'in')"/>
                <use id="zoomminus" xlink:href="#zoomMin" x="42" y="9" onmousedown="handleZoom(evt,'out')"/>
                <use id="reset" xlink:href="#resetDef" x="30" y="36" onmousedown="handleReset()"/>
                <g id="arrowUp" xlink:href="#dirArrow" transform="translate(30 24)" onmousedown="handlePan(0,-1)">
                  <use xlink:href="#rim" fill="#404040">
                        <set attributeName="fill" to="#808080" begin="arrowUp.mouseover" end="arrowUp.mouseout"/>
                  </use>
                  <path fill="none" stroke="white" stroke-width="1.5" d="M0,-3.0v7 M-2.5,-0.5L0,-3.0L2.5,-0.5"/>
                </g>
                <g id="arrowRight" xlink:href="#dirArrow" transform="rotate(90) translate(36 -43)" onmousedown="handlePan(1,0)">
                  <use xlink:href="#rim" fill="#404040">
                        <set attributeName="fill" to="#808080" begin="arrowRight.mouseover" end="arrowRight.mouseout"/>
                  </use>
                  <path fill="none" stroke="white" stroke-width="1.5" d="M0,-3.0v7 M-2.5,-0.5L0,-3.0L2.5,-0.5"/>
                </g>
                <g id="arrowDown" xlink:href="#dirArrow" transform="rotate(180) translate(-30 -48)" onmousedown="handlePan(0,1)">
                  <use xlink:href="#rim" fill="#404040">
                        <set attributeName="fill" to="#808080" begin="arrowDown.mouseover" end="arrowDown.mouseout"/>
                  </use>
                  <path fill="none" stroke="white" stroke-width="1.5" d="M0,-3.0v7 M-2.5,-0.5L0,-3.0L2.5,-0.5"/>
                </g>
                <g id="arrowLeft" xlink:href="#dirArrow" transform="rotate(270) translate(-36 17)" onmousedown="handlePan(-1,0)">
                  <use xlink:href="#rim" fill="#404040">
                        <set attributeName="fill" to="#808080" begin="arrowLeft.mouseover" end="arrowLeft.mouseout"/>
                  </use>
                  <path fill="none" stroke="white" stroke-width="1.5" d="M0,-3.0v7 M-2.5,-0.5L0,-3.0L2.5,-0.5"/>
                </g>
        </g>
        <svg viewBox="0 0 15 15" width="100%" height="30px" preserveAspectRatio="xMaxYMin meet">
         <g id="arrow_out" transform="scale(0.3 0.3)">
          <a xlink:href="class_p_cockpit_indicator__coll__graph_org.svg" target="_base">
           <rect id="button" ry="5" rx="5" y="6" x="6" height="38" width="38"
                fill="#f2f5e9" fill-opacity="0.5" stroke="#606060" stroke-width="1.0"/>
           <path id="arrow"
             d="M 11.500037,31.436501 C 11.940474,20.09759 22.043105,11.32322 32.158766,21.979434 L 37.068811,17.246167 C 37.068811,17.246167 37.088388,32 37.088388,32 L 22.160133,31.978069 C 22.160133,31.978069 26.997745,27.140456 26.997745,27.140456 C 18.528582,18.264221 13.291696,25.230495 11.500037,31.436501 z"
             style="fill:#404040;"/>
          </a>
         </g>
        </svg>
</svg>
