<?xml version="1.0" encoding="UTF-8" standalone="no"?>
<!DOCTYPE svg PUBLIC "-//W3C//DTD SVG 1.1//EN"
 "http://www.w3.org/Graphics/SVG/1.1/DTD/svg11.dtd">
<!-- Generated by graphviz version 2.38.0 (20140413.2041)
 -->
<!-- Title: FATFileSystem Pages: 1 -->
<svg width="204pt" height="391pt"
 viewBox="0.00 0.00 204.00 391.00" xmlns="http://www.w3.org/2000/svg" xmlns:xlink="http://www.w3.org/1999/xlink">
<g id="graph0" class="graph" transform="scale(1 1) rotate(0) translate(4 387)">
<title>FATFileSystem</title>
<polygon fill="white" stroke="none" points="-4,4 -4,-387 200,-387 200,4 -4,4"/>
<!-- Node1 -->
<g id="node1" class="node"><title>Node1</title>
<polygon fill="#bfbfbf" stroke="black" points="39,-0.5 39,-167.5 150,-167.5 150,-0.5 39,-0.5"/>
<text text-anchor="middle" x="94.5" y="-155.5" font-family="Helvetica,sans-Serif" font-size="10.00">FATFileSystem</text>
<polyline fill="none" stroke="black" points="39,-148.5 150,-148.5 "/>
<text text-anchor="start" x="47" y="-136.5" font-family="Helvetica,sans-Serif" font-size="10.00">+ _fsid</text>
<polyline fill="none" stroke="black" points="39,-129.5 150,-129.5 "/>
<text text-anchor="start" x="47" y="-117.5" font-family="Helvetica,sans-Serif" font-size="10.00">+ FATFileSystem()</text>
<text text-anchor="start" x="47" y="-106.5" font-family="Helvetica,sans-Serif" font-size="10.00">+ ~FATFileSystem()</text>
<text text-anchor="start" x="47" y="-95.5" font-family="Helvetica,sans-Serif" font-size="10.00">+ open()</text>
<text text-anchor="start" x="47" y="-84.5" font-family="Helvetica,sans-Serif" font-size="10.00">+ open()</text>
<text text-anchor="start" x="47" y="-73.5" font-family="Helvetica,sans-Serif" font-size="10.00">+ remove()</text>
<text text-anchor="start" x="47" y="-62.5" font-family="Helvetica,sans-Serif" font-size="10.00">+ rename()</text>
<text text-anchor="start" x="47" y="-51.5" font-family="Helvetica,sans-Serif" font-size="10.00">+ format()</text>
<text text-anchor="start" x="47" y="-40.5" font-family="Helvetica,sans-Serif" font-size="10.00">+ opendir()</text>
<text text-anchor="start" x="47" y="-29.5" font-family="Helvetica,sans-Serif" font-size="10.00">+ open()</text>
<text text-anchor="start" x="47" y="-18.5" font-family="Helvetica,sans-Serif" font-size="10.00">+ mkdir()</text>
<text text-anchor="start" x="47" y="-7.5" font-family="Helvetica,sans-Serif" font-size="10.00">and 8 more...</text>
</g>
<!-- Node1&#45;&gt;Node1 -->
<g id="edge3" class="edge"><title>Node1&#45;&gt;Node1</title>
<path fill="none" stroke="#404040" d="M150.267,-102.855C160.672,-100.533 168,-94.248 168,-84 168,-78.0753 165.551,-73.4753 161.474,-70.1998"/>
<polygon fill="none" stroke="#404040" points="161.206,-70.079 154.092,-71.2584 150.267,-65.1452 157.381,-63.9658 161.206,-70.079"/>
<text text-anchor="middle" x="182" y="-81.5" font-family="Helvetica,sans-Serif" font-size="10.00"> +_ffs</text>
</g>
<!-- Node2 -->
<g id="node2" class="node"><title>Node2</title>
<polygon fill="white" stroke="#bfbfbf" points="0,-270.5 0,-327.5 87,-327.5 87,-270.5 0,-270.5"/>
<text text-anchor="middle" x="43.5" y="-315.5" font-family="Helvetica,sans-Serif" font-size="10.00">FileSystemLike</text>
<polyline fill="none" stroke="#bfbfbf" points="0,-308.5 87,-308.5 "/>
<text text-anchor="middle" x="43.5" y="-296.5" font-family="Helvetica,sans-Serif" font-size="10.00"> </text>
<polyline fill="none" stroke="#bfbfbf" points="0,-289.5 87,-289.5 "/>
<text text-anchor="middle" x="43.5" y="-277.5" font-family="Helvetica,sans-Serif" font-size="10.00"> </text>
</g>
<!-- Node2&#45;&gt;Node1 -->
<g id="edge1" class="edge"><title>Node2&#45;&gt;Node1</title>
<path fill="none" stroke="midnightblue" d="M52.5749,-260.099C58.7237,-234.419 67.0906,-199.474 74.733,-167.556"/>
<polygon fill="none" stroke="midnightblue" points="49.0922,-259.614 50.1674,-270.154 55.8998,-261.244 49.0922,-259.614"/>
</g>
<!-- Node3 -->
<g id="node3" class="node"><title>Node3</title>
<g id="a_node3"><a xlink:href="struct_f_a_t_f_s.html" target="_top" xlink:title="{FATFS\n|+ fs_type\l+ drv\l+ csize\l+ n_fats\l+ wflag\l+ fsi_flag\l+ id\l+ n_rootdir\l+ last_clust\l+ free_clust\land 8 more...\l|}">
<polygon fill="white" stroke="black" points="105,-215.5 105,-382.5 186,-382.5 186,-215.5 105,-215.5"/>
<text text-anchor="middle" x="145.5" y="-370.5" font-family="Helvetica,sans-Serif" font-size="10.00">FATFS</text>
<polyline fill="none" stroke="black" points="105,-363.5 186,-363.5 "/>
<text text-anchor="start" x="113" y="-351.5" font-family="Helvetica,sans-Serif" font-size="10.00">+ fs_type</text>
<text text-anchor="start" x="113" y="-340.5" font-family="Helvetica,sans-Serif" font-size="10.00">+ drv</text>
<text text-anchor="start" x="113" y="-329.5" font-family="Helvetica,sans-Serif" font-size="10.00">+ csize</text>
<text text-anchor="start" x="113" y="-318.5" font-family="Helvetica,sans-Serif" font-size="10.00">+ n_fats</text>
<text text-anchor="start" x="113" y="-307.5" font-family="Helvetica,sans-Serif" font-size="10.00">+ wflag</text>
<text text-anchor="start" x="113" y="-296.5" font-family="Helvetica,sans-Serif" font-size="10.00">+ fsi_flag</text>
<text text-anchor="start" x="113" y="-285.5" font-family="Helvetica,sans-Serif" font-size="10.00">+ id</text>
<text text-anchor="start" x="113" y="-274.5" font-family="Helvetica,sans-Serif" font-size="10.00">+ n_rootdir</text>
<text text-anchor="start" x="113" y="-263.5" font-family="Helvetica,sans-Serif" font-size="10.00">+ last_clust</text>
<text text-anchor="start" x="113" y="-252.5" font-family="Helvetica,sans-Serif" font-size="10.00">+ free_clust</text>
<text text-anchor="start" x="113" y="-241.5" font-family="Helvetica,sans-Serif" font-size="10.00">and 8 more...</text>
<polyline fill="none" stroke="black" points="105,-234.5 186,-234.5 "/>
<text text-anchor="middle" x="145.5" y="-222.5" font-family="Helvetica,sans-Serif" font-size="10.00"> </text>
</a>
</g>
</g>
<!-- Node3&#45;&gt;Node1 -->
<g id="edge2" class="edge"><title>Node3&#45;&gt;Node1</title>
<path fill="none" stroke="#404040" d="M125.709,-215.344C122.895,-203.591 119.983,-191.431 117.121,-179.475"/>
<polygon fill="none" stroke="#404040" points="117.074,-179.28 111.787,-174.376 114.28,-167.61 119.567,-172.513 117.074,-179.28"/>
<text text-anchor="middle" x="132" y="-189" font-family="Helvetica,sans-Serif" font-size="10.00"> +_fs</text>
</g>
</g>
</svg>
