<?xml version="1.0" encoding="UTF-8" standalone="no"?>
<!DOCTYPE svg PUBLIC "-//W3C//DTD SVG 1.1//EN"
 "http://www.w3.org/Graphics/SVG/1.1/DTD/svg11.dtd">
<!-- Generated by graphviz version 2.38.0 (20140413.2041)
 -->
<!-- Title: PCooling Pages: 1 -->
<svg width="151pt" height="767pt"
 viewBox="0.00 0.00 151.00 767.00" xmlns="http://www.w3.org/2000/svg" xmlns:xlink="http://www.w3.org/1999/xlink">
<g id="graph0" class="graph" transform="scale(1 1) rotate(0) translate(4 763)">
<title>PCooling</title>
<polygon fill="white" stroke="none" points="-4,4 -4,-763 147,-763 147,4 -4,4"/>
<!-- Node1 -->
<g id="node1" class="node"><title>Node1</title>
<polygon fill="#bfbfbf" stroke="black" points="17,-0.5 17,-134.5 126,-134.5 126,-0.5 17,-0.5"/>
<text text-anchor="middle" x="71.5" y="-122.5" font-family="Helvetica,sans-Serif" font-size="10.00">PCooling</text>
<polyline fill="none" stroke="black" points="17,-115.5 126,-115.5 "/>
<text text-anchor="start" x="25" y="-103.5" font-family="Helvetica,sans-Serif" font-size="10.00"># _registry</text>
<text text-anchor="start" x="25" y="-92.5" font-family="Helvetica,sans-Serif" font-size="10.00"># _carService</text>
<text text-anchor="start" x="25" y="-81.5" font-family="Helvetica,sans-Serif" font-size="10.00"># _speedService</text>
<text text-anchor="start" x="25" y="-70.5" font-family="Helvetica,sans-Serif" font-size="10.00"># _fan</text>
<text text-anchor="start" x="25" y="-59.5" font-family="Helvetica,sans-Serif" font-size="10.00"># _pump</text>
<text text-anchor="start" x="25" y="-48.5" font-family="Helvetica,sans-Serif" font-size="10.00"># _motorController</text>
<text text-anchor="start" x="25" y="-37.5" font-family="Helvetica,sans-Serif" font-size="10.00"># _hvEnabled</text>
<polyline fill="none" stroke="black" points="17,-30.5 126,-30.5 "/>
<text text-anchor="start" x="25" y="-18.5" font-family="Helvetica,sans-Serif" font-size="10.00">+ PCooling()</text>
<text text-anchor="start" x="25" y="-7.5" font-family="Helvetica,sans-Serif" font-size="10.00">+ run()</text>
</g>
<!-- Node2 -->
<g id="node2" class="node"><title>Node2</title>
<g id="a_node2"><a xlink:href="class_i_program.html" target="_top" xlink:title="{IProgram\n||}">
<polygon fill="white" stroke="black" points="41.5,-171.5 41.5,-228.5 101.5,-228.5 101.5,-171.5 41.5,-171.5"/>
<text text-anchor="middle" x="71.5" y="-216.5" font-family="Helvetica,sans-Serif" font-size="10.00">IProgram</text>
<polyline fill="none" stroke="black" points="41.5,-209.5 101.5,-209.5 "/>
<text text-anchor="middle" x="71.5" y="-197.5" font-family="Helvetica,sans-Serif" font-size="10.00"> </text>
<polyline fill="none" stroke="black" points="41.5,-190.5 101.5,-190.5 "/>
<text text-anchor="middle" x="71.5" y="-178.5" font-family="Helvetica,sans-Serif" font-size="10.00"> </text>
</a>
</g>
</g>
<!-- Node2&#45;&gt;Node1 -->
<g id="edge1" class="edge"><title>Node2&#45;&gt;Node1</title>
<path fill="none" stroke="midnightblue" d="M71.5,-161.16C71.5,-152.782 71.5,-143.668 71.5,-134.533"/>
<polygon fill="none" stroke="midnightblue" points="68.0001,-161.324 71.5,-171.324 75.0001,-161.324 68.0001,-161.324"/>
</g>
<!-- Node3 -->
<g id="node3" class="node"><title>Node3</title>
<g id="a_node3"><a xlink:href="class_i_runable.html" target="_top" xlink:title="{IRunable\n||+ IRunable()\l+ run()\l+ setStatus()\l+ getStatus()\l}">
<polygon fill="white" stroke="black" points="30,-265.5 30,-355.5 113,-355.5 113,-265.5 30,-265.5"/>
<text text-anchor="middle" x="71.5" y="-343.5" font-family="Helvetica,sans-Serif" font-size="10.00">IRunable</text>
<polyline fill="none" stroke="black" points="30,-336.5 113,-336.5 "/>
<text text-anchor="middle" x="71.5" y="-324.5" font-family="Helvetica,sans-Serif" font-size="10.00"> </text>
<polyline fill="none" stroke="black" points="30,-317.5 113,-317.5 "/>
<text text-anchor="start" x="38" y="-305.5" font-family="Helvetica,sans-Serif" font-size="10.00">+ IRunable()</text>
<text text-anchor="start" x="38" y="-294.5" font-family="Helvetica,sans-Serif" font-size="10.00">+ run()</text>
<text text-anchor="start" x="38" y="-283.5" font-family="Helvetica,sans-Serif" font-size="10.00">+ setStatus()</text>
<text text-anchor="start" x="38" y="-272.5" font-family="Helvetica,sans-Serif" font-size="10.00">+ getStatus()</text>
</a>
</g>
</g>
<!-- Node3&#45;&gt;Node2 -->
<g id="edge2" class="edge"><title>Node3&#45;&gt;Node2</title>
<path fill="none" stroke="midnightblue" d="M71.5,-255.353C71.5,-246.074 71.5,-236.791 71.5,-228.59"/>
<polygon fill="none" stroke="midnightblue" points="68.0001,-255.369 71.5,-265.369 75.0001,-255.369 68.0001,-255.369"/>
</g>
<!-- Node4 -->
<g id="node4" class="node"><title>Node4</title>
<g id="a_node4"><a xlink:href="class_i_component.html" target="_top" xlink:title="{IComponent\n||+ IComponent()\l+ IComponent()\l+ setComponentSubId()\l+ getComponentType()\l+ getComponentSubId()\l+ getComponentId()\l+ getObjectType()\l# setComponentType()\l# setObjectType()\l}">
<polygon fill="white" stroke="black" points="4.5,-392.5 4.5,-537.5 138.5,-537.5 138.5,-392.5 4.5,-392.5"/>
<text text-anchor="middle" x="71.5" y="-525.5" font-family="Helvetica,sans-Serif" font-size="10.00">IComponent</text>
<polyline fill="none" stroke="black" points="4.5,-518.5 138.5,-518.5 "/>
<text text-anchor="middle" x="71.5" y="-506.5" font-family="Helvetica,sans-Serif" font-size="10.00"> </text>
<polyline fill="none" stroke="black" points="4.5,-499.5 138.5,-499.5 "/>
<text text-anchor="start" x="12.5" y="-487.5" font-family="Helvetica,sans-Serif" font-size="10.00">+ IComponent()</text>
<text text-anchor="start" x="12.5" y="-476.5" font-family="Helvetica,sans-Serif" font-size="10.00">+ IComponent()</text>
<text text-anchor="start" x="12.5" y="-465.5" font-family="Helvetica,sans-Serif" font-size="10.00">+ setComponentSubId()</text>
<text text-anchor="start" x="12.5" y="-454.5" font-family="Helvetica,sans-Serif" font-size="10.00">+ getComponentType()</text>
<text text-anchor="start" x="12.5" y="-443.5" font-family="Helvetica,sans-Serif" font-size="10.00">+ getComponentSubId()</text>
<text text-anchor="start" x="12.5" y="-432.5" font-family="Helvetica,sans-Serif" font-size="10.00">+ getComponentId()</text>
<text text-anchor="start" x="12.5" y="-421.5" font-family="Helvetica,sans-Serif" font-size="10.00">+ getObjectType()</text>
<text text-anchor="start" x="12.5" y="-410.5" font-family="Helvetica,sans-Serif" font-size="10.00"># setComponentType()</text>
<text text-anchor="start" x="12.5" y="-399.5" font-family="Helvetica,sans-Serif" font-size="10.00"># setObjectType()</text>
</a>
</g>
</g>
<!-- Node4&#45;&gt;Node3 -->
<g id="edge3" class="edge"><title>Node4&#45;&gt;Node3</title>
<path fill="none" stroke="midnightblue" d="M71.5,-381.941C71.5,-372.857 71.5,-363.885 71.5,-355.542"/>
<polygon fill="none" stroke="midnightblue" points="68.0001,-382.215 71.5,-392.216 75.0001,-382.216 68.0001,-382.215"/>
</g>
<!-- Node5 -->
<g id="node5" class="node"><title>Node5</title>
<g id="a_node5"><a xlink:href="class_i_logable.html" target="_top" xlink:title="{ILogable\n||+ setStatus()\l+ getStatus()\l+ getLogValueCount()\l+ getLogValue()\l}">
<polygon fill="white" stroke="black" points="10,-574.5 10,-664.5 133,-664.5 133,-574.5 10,-574.5"/>
<text text-anchor="middle" x="71.5" y="-652.5" font-family="Helvetica,sans-Serif" font-size="10.00">ILogable</text>
<polyline fill="none" stroke="black" points="10,-645.5 133,-645.5 "/>
<text text-anchor="middle" x="71.5" y="-633.5" font-family="Helvetica,sans-Serif" font-size="10.00"> </text>
<polyline fill="none" stroke="black" points="10,-626.5 133,-626.5 "/>
<text text-anchor="start" x="18" y="-614.5" font-family="Helvetica,sans-Serif" font-size="10.00">+ setStatus()</text>
<text text-anchor="start" x="18" y="-603.5" font-family="Helvetica,sans-Serif" font-size="10.00">+ getStatus()</text>
<text text-anchor="start" x="18" y="-592.5" font-family="Helvetica,sans-Serif" font-size="10.00">+ getLogValueCount()</text>
<text text-anchor="start" x="18" y="-581.5" font-family="Helvetica,sans-Serif" font-size="10.00">+ getLogValue()</text>
</a>
</g>
</g>
<!-- Node5&#45;&gt;Node4 -->
<g id="edge4" class="edge"><title>Node5&#45;&gt;Node4</title>
<path fill="none" stroke="midnightblue" d="M71.5,-564.13C71.5,-555.526 71.5,-546.516 71.5,-537.591"/>
<polygon fill="none" stroke="midnightblue" points="68.0001,-564.391 71.5,-574.391 75.0001,-564.391 68.0001,-564.391"/>
</g>
<!-- Node6 -->
<g id="node6" class="node"><title>Node6</title>
<g id="a_node6"><a xlink:href="class_non_copyable.html" target="_top" xlink:title="{NonCopyable\&lt; ILogable \&gt;\n||+ NonCopyable()\l}">
<polygon fill="white" stroke="black" points="0,-701.5 0,-758.5 143,-758.5 143,-701.5 0,-701.5"/>
<text text-anchor="middle" x="71.5" y="-746.5" font-family="Helvetica,sans-Serif" font-size="10.00">NonCopyable&lt; ILogable &gt;</text>
<polyline fill="none" stroke="black" points="0,-739.5 143,-739.5 "/>
<text text-anchor="middle" x="71.5" y="-727.5" font-family="Helvetica,sans-Serif" font-size="10.00"> </text>
<polyline fill="none" stroke="black" points="0,-720.5 143,-720.5 "/>
<text text-anchor="start" x="8" y="-708.5" font-family="Helvetica,sans-Serif" font-size="10.00">+ NonCopyable()</text>
</a>
</g>
</g>
<!-- Node6&#45;&gt;Node5 -->
<g id="edge5" class="edge"><title>Node6&#45;&gt;Node5</title>
<path fill="none" stroke="#8b1a1a" d="M71.5,-691.214C71.5,-682.609 71.5,-673.394 71.5,-664.554"/>
<polygon fill="none" stroke="#8b1a1a" points="68.0001,-691.34 71.5,-701.34 75.0001,-691.34 68.0001,-691.34"/>
</g>
</g>
</svg>
