<?xml version="1.0" encoding="UTF-8" standalone="no"?>
<!DOCTYPE svg PUBLIC "-//W3C//DTD SVG 1.1//EN"
 "http://www.w3.org/Graphics/SVG/1.1/DTD/svg11.dtd">
<!-- Generated by graphviz version 2.38.0 (20140413.2041)
 -->
<!-- Title: Radio Pages: 1 -->
<svg width="141pt" height="369pt"
 viewBox="0.00 0.00 140.50 369.00" xmlns="http://www.w3.org/2000/svg" xmlns:xlink="http://www.w3.org/1999/xlink">
<g id="graph0" class="graph" transform="scale(1 1) rotate(0) translate(4 365)">
<title>Radio</title>
<polygon fill="white" stroke="none" points="-4,4 -4,-365 136.5,-365 136.5,4 -4,4"/>
<!-- Node1 -->
<g id="node1" class="node"><title>Node1</title>
<polygon fill="#bfbfbf" stroke="black" points="11.5,-0.5 11.5,-167.5 113.5,-167.5 113.5,-0.5 11.5,-0.5"/>
<text text-anchor="middle" x="62.5" y="-155.5" font-family="Helvetica,sans-Serif" font-size="10.00">Radio</text>
<polyline fill="none" stroke="black" points="11.5,-148.5 113.5,-148.5 "/>
<text text-anchor="middle" x="62.5" y="-136.5" font-family="Helvetica,sans-Serif" font-size="10.00"> </text>
<polyline fill="none" stroke="black" points="11.5,-129.5 113.5,-129.5 "/>
<text text-anchor="start" x="19.5" y="-117.5" font-family="Helvetica,sans-Serif" font-size="10.00">+ Radio()</text>
<text text-anchor="start" x="19.5" y="-106.5" font-family="Helvetica,sans-Serif" font-size="10.00">+ ~Radio()</text>
<text text-anchor="start" x="19.5" y="-95.5" font-family="Helvetica,sans-Serif" font-size="10.00">+ Init()</text>
<text text-anchor="start" x="19.5" y="-84.5" font-family="Helvetica,sans-Serif" font-size="10.00">+ GetStatus()</text>
<text text-anchor="start" x="19.5" y="-73.5" font-family="Helvetica,sans-Serif" font-size="10.00">+ SetModem()</text>
<text text-anchor="start" x="19.5" y="-62.5" font-family="Helvetica,sans-Serif" font-size="10.00">+ SetChannel()</text>
<text text-anchor="start" x="19.5" y="-51.5" font-family="Helvetica,sans-Serif" font-size="10.00">+ IsChannelFree()</text>
<text text-anchor="start" x="19.5" y="-40.5" font-family="Helvetica,sans-Serif" font-size="10.00">+ Random()</text>
<text text-anchor="start" x="19.5" y="-29.5" font-family="Helvetica,sans-Serif" font-size="10.00">+ SetRxConfig()</text>
<text text-anchor="start" x="19.5" y="-18.5" font-family="Helvetica,sans-Serif" font-size="10.00">+ SetTxConfig()</text>
<text text-anchor="start" x="19.5" y="-7.5" font-family="Helvetica,sans-Serif" font-size="10.00">and 22 more...</text>
</g>
<!-- Node2 -->
<g id="node2" class="node"><title>Node2</title>
<g id="a_node2"><a xlink:href="struct_radio_events__t.html" target="_top" xlink:title="Radio driver callback functions. ">
<polygon fill="white" stroke="black" points="-7.10543e-15,-215.5 -7.10543e-15,-360.5 125,-360.5 125,-215.5 -7.10543e-15,-215.5"/>
<text text-anchor="middle" x="62.5" y="-348.5" font-family="Helvetica,sans-Serif" font-size="10.00">RadioEvents_t</text>
<polyline fill="none" stroke="black" points="-7.10543e-15,-341.5 125,-341.5 "/>
<text text-anchor="start" x="8" y="-329.5" font-family="Helvetica,sans-Serif" font-size="10.00">+ TxDone</text>
<text text-anchor="start" x="8" y="-318.5" font-family="Helvetica,sans-Serif" font-size="10.00">+ TxTimeout</text>
<text text-anchor="start" x="8" y="-307.5" font-family="Helvetica,sans-Serif" font-size="10.00">+ RxDone</text>
<text text-anchor="start" x="8" y="-296.5" font-family="Helvetica,sans-Serif" font-size="10.00">+ RxTimeout</text>
<text text-anchor="start" x="8" y="-285.5" font-family="Helvetica,sans-Serif" font-size="10.00">+ RxError</text>
<text text-anchor="start" x="8" y="-274.5" font-family="Helvetica,sans-Serif" font-size="10.00">+ FhssChangeChannel</text>
<text text-anchor="start" x="8" y="-263.5" font-family="Helvetica,sans-Serif" font-size="10.00">+ CadDone</text>
<text text-anchor="start" x="8" y="-252.5" font-family="Helvetica,sans-Serif" font-size="10.00">+ userThisPtr</text>
<text text-anchor="start" x="8" y="-241.5" font-family="Helvetica,sans-Serif" font-size="10.00">+ userData</text>
<polyline fill="none" stroke="black" points="-7.10543e-15,-234.5 125,-234.5 "/>
<text text-anchor="middle" x="62.5" y="-222.5" font-family="Helvetica,sans-Serif" font-size="10.00"> </text>
</a>
</g>
</g>
<!-- Node2&#45;&gt;Node1 -->
<g id="edge1" class="edge"><title>Node2&#45;&gt;Node1</title>
<path fill="none" stroke="#404040" d="M62.5,-215.498C62.5,-204.042 62.5,-192.031 62.5,-180.13"/>
<polygon fill="none" stroke="#404040" points="62.5001,-179.794 58.5,-173.794 62.5,-167.794 66.5,-173.794 62.5001,-179.794"/>
<text text-anchor="middle" x="97.5" y="-189" font-family="Helvetica,sans-Serif" font-size="10.00"> #RadioEvents</text>
</g>
</g>
</svg>
