<?xml version="1.0" encoding="UTF-8" standalone="no"?>
<!DOCTYPE svg PUBLIC "-//W3C//DTD SVG 1.1//EN"
 "http://www.w3.org/Graphics/SVG/1.1/DTD/svg11.dtd">
<!-- Generated by graphviz version 2.38.0 (20140413.2041)
 -->
<!-- Title: SoftwareRpmSensor Pages: 1 -->
<svg width="375pt" height="1381pt"
 viewBox="0.00 0.00 375.00 1381.00" xmlns="http://www.w3.org/2000/svg" xmlns:xlink="http://www.w3.org/1999/xlink">
<g id="graph0" class="graph" transform="scale(1 1) rotate(0) translate(4 1377)">
<title>SoftwareRpmSensor</title>
<polygon fill="white" stroke="none" points="-4,4 -4,-1377 371,-1377 371,4 -4,4"/>
<!-- Node1 -->
<g id="node1" class="node"><title>Node1</title>
<polygon fill="#bfbfbf" stroke="black" points="156,-0.5 156,-134.5 367,-134.5 367,-0.5 156,-0.5"/>
<text text-anchor="middle" x="261.5" y="-122.5" font-family="Helvetica,sans-Serif" font-size="10.00">SoftwareRpmSensor</text>
<polyline fill="none" stroke="black" points="156,-115.5 367,-115.5 "/>
<text text-anchor="middle" x="261.5" y="-103.5" font-family="Helvetica,sans-Serif" font-size="10.00"> </text>
<polyline fill="none" stroke="black" points="156,-96.5 367,-96.5 "/>
<text text-anchor="start" x="164" y="-84.5" font-family="Helvetica,sans-Serif" font-size="10.00">+ SoftwareRpmSensor()</text>
<text text-anchor="start" x="164" y="-73.5" font-family="Helvetica,sans-Serif" font-size="10.00">+ setStatus()</text>
<text text-anchor="start" x="164" y="-62.5" font-family="Helvetica,sans-Serif" font-size="10.00">+ getStatus()</text>
<text text-anchor="start" x="164" y="-51.5" font-family="Helvetica,sans-Serif" font-size="10.00">+ setMeasurementPointsPerRevolution()</text>
<text text-anchor="start" x="164" y="-40.5" font-family="Helvetica,sans-Serif" font-size="10.00">+ setFrequency()</text>
<text text-anchor="start" x="164" y="-29.5" font-family="Helvetica,sans-Serif" font-size="10.00">+ getMeasurementsPerRevolution()</text>
<text text-anchor="start" x="164" y="-18.5" font-family="Helvetica,sans-Serif" font-size="10.00">+ getFrequency()</text>
<text text-anchor="start" x="164" y="-7.5" font-family="Helvetica,sans-Serif" font-size="10.00">+ receive()</text>
</g>
<!-- Node2 -->
<g id="node2" class="node"><title>Node2</title>
<g id="a_node2"><a xlink:href="class_i_rpm_sensor.html" target="_top" xlink:title="{IRpmSensor\n||+ IRpmSensor()\l+ setMeasurementPointsPerRevolution()\l+ setFrequency()\l+ getMeasurementsPerRevolution()\l+ getFrequency()\l+ getLogValueCount()\l+ getLogValue()\l}">
<polygon fill="white" stroke="black" points="156,-172.5 156,-295.5 367,-295.5 367,-172.5 156,-172.5"/>
<text text-anchor="middle" x="261.5" y="-283.5" font-family="Helvetica,sans-Serif" font-size="10.00">IRpmSensor</text>
<polyline fill="none" stroke="black" points="156,-276.5 367,-276.5 "/>
<text text-anchor="middle" x="261.5" y="-264.5" font-family="Helvetica,sans-Serif" font-size="10.00"> </text>
<polyline fill="none" stroke="black" points="156,-257.5 367,-257.5 "/>
<text text-anchor="start" x="164" y="-245.5" font-family="Helvetica,sans-Serif" font-size="10.00">+ IRpmSensor()</text>
<text text-anchor="start" x="164" y="-234.5" font-family="Helvetica,sans-Serif" font-size="10.00">+ setMeasurementPointsPerRevolution()</text>
<text text-anchor="start" x="164" y="-223.5" font-family="Helvetica,sans-Serif" font-size="10.00">+ setFrequency()</text>
<text text-anchor="start" x="164" y="-212.5" font-family="Helvetica,sans-Serif" font-size="10.00">+ getMeasurementsPerRevolution()</text>
<text text-anchor="start" x="164" y="-201.5" font-family="Helvetica,sans-Serif" font-size="10.00">+ getFrequency()</text>
<text text-anchor="start" x="164" y="-190.5" font-family="Helvetica,sans-Serif" font-size="10.00">+ getLogValueCount()</text>
<text text-anchor="start" x="164" y="-179.5" font-family="Helvetica,sans-Serif" font-size="10.00">+ getLogValue()</text>
</a>
</g>
</g>
<!-- Node2&#45;&gt;Node1 -->
<g id="edge1" class="edge"><title>Node2&#45;&gt;Node1</title>
<path fill="none" stroke="midnightblue" d="M261.5,-162.024C261.5,-152.907 261.5,-143.601 261.5,-134.566"/>
<polygon fill="none" stroke="midnightblue" points="258,-162.214 261.5,-172.214 265,-162.214 258,-162.214"/>
</g>
<!-- Node3 -->
<g id="node3" class="node"><title>Node3</title>
<g id="a_node3"><a xlink:href="class_self_syncable.html" target="_top" xlink:title="{SelfSyncable\n|# _syncerAttached\l|+ attach()\l+ detach()\l# _sendCommand()\l# _sendCommand()\l# _sendCommand()\l# _send()\l# _convertFloat()\l# _reconvertFloat()\l# _disassambleFloat()\l# _reassambleFloat()\l}">
<polygon fill="white" stroke="black" points="199.5,-333.5 199.5,-489.5 323.5,-489.5 323.5,-333.5 199.5,-333.5"/>
<text text-anchor="middle" x="261.5" y="-477.5" font-family="Helvetica,sans-Serif" font-size="10.00">SelfSyncable</text>
<polyline fill="none" stroke="black" points="199.5,-470.5 323.5,-470.5 "/>
<text text-anchor="start" x="207.5" y="-458.5" font-family="Helvetica,sans-Serif" font-size="10.00"># _syncerAttached</text>
<polyline fill="none" stroke="black" points="199.5,-451.5 323.5,-451.5 "/>
<text text-anchor="start" x="207.5" y="-439.5" font-family="Helvetica,sans-Serif" font-size="10.00">+ attach()</text>
<text text-anchor="start" x="207.5" y="-428.5" font-family="Helvetica,sans-Serif" font-size="10.00">+ detach()</text>
<text text-anchor="start" x="207.5" y="-417.5" font-family="Helvetica,sans-Serif" font-size="10.00"># _sendCommand()</text>
<text text-anchor="start" x="207.5" y="-406.5" font-family="Helvetica,sans-Serif" font-size="10.00"># _sendCommand()</text>
<text text-anchor="start" x="207.5" y="-395.5" font-family="Helvetica,sans-Serif" font-size="10.00"># _sendCommand()</text>
<text text-anchor="start" x="207.5" y="-384.5" font-family="Helvetica,sans-Serif" font-size="10.00"># _send()</text>
<text text-anchor="start" x="207.5" y="-373.5" font-family="Helvetica,sans-Serif" font-size="10.00"># _convertFloat()</text>
<text text-anchor="start" x="207.5" y="-362.5" font-family="Helvetica,sans-Serif" font-size="10.00"># _reconvertFloat()</text>
<text text-anchor="start" x="207.5" y="-351.5" font-family="Helvetica,sans-Serif" font-size="10.00"># _disassambleFloat()</text>
<text text-anchor="start" x="207.5" y="-340.5" font-family="Helvetica,sans-Serif" font-size="10.00"># _reassambleFloat()</text>
</a>
</g>
</g>
<!-- Node3&#45;&gt;Node2 -->
<g id="edge2" class="edge"><title>Node3&#45;&gt;Node2</title>
<path fill="none" stroke="midnightblue" d="M261.5,-323.186C261.5,-313.874 261.5,-304.556 261.5,-295.65"/>
<polygon fill="none" stroke="midnightblue" points="258,-323.268 261.5,-333.268 265,-323.268 258,-323.268"/>
</g>
<!-- Node4 -->
<g id="node4" class="node"><title>Node4</title>
<g id="a_node4"><a xlink:href="class_i_communication.html" target="_top" xlink:title="{ICommunication\n||+ receive()\l}">
<polygon fill="white" stroke="black" points="248,-723.5 248,-780.5 343,-780.5 343,-723.5 248,-723.5"/>
<text text-anchor="middle" x="295.5" y="-768.5" font-family="Helvetica,sans-Serif" font-size="10.00">ICommunication</text>
<polyline fill="none" stroke="black" points="248,-761.5 343,-761.5 "/>
<text text-anchor="middle" x="295.5" y="-749.5" font-family="Helvetica,sans-Serif" font-size="10.00"> </text>
<polyline fill="none" stroke="black" points="248,-742.5 343,-742.5 "/>
<text text-anchor="start" x="256" y="-730.5" font-family="Helvetica,sans-Serif" font-size="10.00">+ receive()</text>
</a>
</g>
</g>
<!-- Node4&#45;&gt;Node3 -->
<g id="edge3" class="edge"><title>Node4&#45;&gt;Node3</title>
<path fill="none" stroke="midnightblue" d="M296.331,-713.279C296.843,-665.314 295.926,-580.067 285.5,-508 284.631,-501.994 283.542,-495.817 282.31,-489.632"/>
<polygon fill="none" stroke="midnightblue" points="292.829,-713.454 296.194,-723.5 299.828,-713.548 292.829,-713.454"/>
</g>
<!-- Node5 -->
<g id="node5" class="node"><title>Node5</title>
<g id="a_node5"><a xlink:href="class_i_component.html" target="_top" xlink:title="{IComponent\n||+ IComponent()\l+ IComponent()\l+ setComponentSubId()\l+ getComponentType()\l+ getComponentSubId()\l+ getComponentId()\l+ getObjectType()\l# setComponentType()\l# setObjectType()\l}">
<polygon fill="white" stroke="black" points="191.5,-1004.5 191.5,-1149.5 325.5,-1149.5 325.5,-1004.5 191.5,-1004.5"/>
<text text-anchor="middle" x="258.5" y="-1137.5" font-family="Helvetica,sans-Serif" font-size="10.00">IComponent</text>
<polyline fill="none" stroke="black" points="191.5,-1130.5 325.5,-1130.5 "/>
<text text-anchor="middle" x="258.5" y="-1118.5" font-family="Helvetica,sans-Serif" font-size="10.00"> </text>
<polyline fill="none" stroke="black" points="191.5,-1111.5 325.5,-1111.5 "/>
<text text-anchor="start" x="199.5" y="-1099.5" font-family="Helvetica,sans-Serif" font-size="10.00">+ IComponent()</text>
<text text-anchor="start" x="199.5" y="-1088.5" font-family="Helvetica,sans-Serif" font-size="10.00">+ IComponent()</text>
<text text-anchor="start" x="199.5" y="-1077.5" font-family="Helvetica,sans-Serif" font-size="10.00">+ setComponentSubId()</text>
<text text-anchor="start" x="199.5" y="-1066.5" font-family="Helvetica,sans-Serif" font-size="10.00">+ getComponentType()</text>
<text text-anchor="start" x="199.5" y="-1055.5" font-family="Helvetica,sans-Serif" font-size="10.00">+ getComponentSubId()</text>
<text text-anchor="start" x="199.5" y="-1044.5" font-family="Helvetica,sans-Serif" font-size="10.00">+ getComponentId()</text>
<text text-anchor="start" x="199.5" y="-1033.5" font-family="Helvetica,sans-Serif" font-size="10.00">+ getObjectType()</text>
<text text-anchor="start" x="199.5" y="-1022.5" font-family="Helvetica,sans-Serif" font-size="10.00"># setComponentType()</text>
<text text-anchor="start" x="199.5" y="-1011.5" font-family="Helvetica,sans-Serif" font-size="10.00"># setObjectType()</text>
</a>
</g>
</g>
<!-- Node5&#45;&gt;Node4 -->
<g id="edge4" class="edge"><title>Node5&#45;&gt;Node4</title>
<path fill="none" stroke="midnightblue" d="M267.87,-994.199C275.882,-924.259 286.942,-827.706 292.315,-780.805"/>
<polygon fill="none" stroke="midnightblue" points="264.372,-993.982 266.711,-1004.32 271.327,-994.779 264.372,-993.982"/>
</g>
<!-- Node9 -->
<g id="node9" class="node"><title>Node9</title>
<g id="a_node9"><a xlink:href="class_i_runable.html" target="_top" xlink:title="{IRunable\n||+ IRunable()\l+ run()\l+ setStatus()\l+ getStatus()\l}">
<polygon fill="white" stroke="black" points="174,-838 174,-928 257,-928 257,-838 174,-838"/>
<text text-anchor="middle" x="215.5" y="-916" font-family="Helvetica,sans-Serif" font-size="10.00">IRunable</text>
<polyline fill="none" stroke="black" points="174,-909 257,-909 "/>
<text text-anchor="middle" x="215.5" y="-897" font-family="Helvetica,sans-Serif" font-size="10.00"> </text>
<polyline fill="none" stroke="black" points="174,-890 257,-890 "/>
<text text-anchor="start" x="182" y="-878" font-family="Helvetica,sans-Serif" font-size="10.00">+ IRunable()</text>
<text text-anchor="start" x="182" y="-867" font-family="Helvetica,sans-Serif" font-size="10.00">+ run()</text>
<text text-anchor="start" x="182" y="-856" font-family="Helvetica,sans-Serif" font-size="10.00">+ setStatus()</text>
<text text-anchor="start" x="182" y="-845" font-family="Helvetica,sans-Serif" font-size="10.00">+ getStatus()</text>
</a>
</g>
</g>
<!-- Node5&#45;&gt;Node9 -->
<g id="edge9" class="edge"><title>Node5&#45;&gt;Node9</title>
<path fill="none" stroke="midnightblue" d="M240.19,-994.242C235.105,-971.538 229.777,-947.747 225.377,-928.101"/>
<polygon fill="none" stroke="midnightblue" points="236.826,-995.24 242.427,-1004.23 243.657,-993.71 236.826,-995.24"/>
</g>
<!-- Node6 -->
<g id="node6" class="node"><title>Node6</title>
<g id="a_node6"><a xlink:href="class_i_logable.html" target="_top" xlink:title="{ILogable\n||+ setStatus()\l+ getStatus()\l+ getLogValueCount()\l+ getLogValue()\l}">
<polygon fill="white" stroke="black" points="197,-1187.5 197,-1277.5 320,-1277.5 320,-1187.5 197,-1187.5"/>
<text text-anchor="middle" x="258.5" y="-1265.5" font-family="Helvetica,sans-Serif" font-size="10.00">ILogable</text>
<polyline fill="none" stroke="black" points="197,-1258.5 320,-1258.5 "/>
<text text-anchor="middle" x="258.5" y="-1246.5" font-family="Helvetica,sans-Serif" font-size="10.00"> </text>
<polyline fill="none" stroke="black" points="197,-1239.5 320,-1239.5 "/>
<text text-anchor="start" x="205" y="-1227.5" font-family="Helvetica,sans-Serif" font-size="10.00">+ setStatus()</text>
<text text-anchor="start" x="205" y="-1216.5" font-family="Helvetica,sans-Serif" font-size="10.00">+ getStatus()</text>
<text text-anchor="start" x="205" y="-1205.5" font-family="Helvetica,sans-Serif" font-size="10.00">+ getLogValueCount()</text>
<text text-anchor="start" x="205" y="-1194.5" font-family="Helvetica,sans-Serif" font-size="10.00">+ getLogValue()</text>
</a>
</g>
</g>
<!-- Node6&#45;&gt;Node5 -->
<g id="edge5" class="edge"><title>Node6&#45;&gt;Node5</title>
<path fill="none" stroke="midnightblue" d="M258.5,-1176.98C258.5,-1168.16 258.5,-1158.92 258.5,-1149.77"/>
<polygon fill="none" stroke="midnightblue" points="255,-1177.1 258.5,-1187.1 262,-1177.1 255,-1177.1"/>
</g>
<!-- Node7 -->
<g id="node7" class="node"><title>Node7</title>
<g id="a_node7"><a xlink:href="class_non_copyable.html" target="_top" xlink:title="{NonCopyable\&lt; ILogable \&gt;\n||+ NonCopyable()\l}">
<polygon fill="white" stroke="black" points="187,-1315.5 187,-1372.5 330,-1372.5 330,-1315.5 187,-1315.5"/>
<text text-anchor="middle" x="258.5" y="-1360.5" font-family="Helvetica,sans-Serif" font-size="10.00">NonCopyable&lt; ILogable &gt;</text>
<polyline fill="none" stroke="black" points="187,-1353.5 330,-1353.5 "/>
<text text-anchor="middle" x="258.5" y="-1341.5" font-family="Helvetica,sans-Serif" font-size="10.00"> </text>
<polyline fill="none" stroke="black" points="187,-1334.5 330,-1334.5 "/>
<text text-anchor="start" x="195" y="-1322.5" font-family="Helvetica,sans-Serif" font-size="10.00">+ NonCopyable()</text>
</a>
</g>
</g>
<!-- Node7&#45;&gt;Node6 -->
<g id="edge6" class="edge"><title>Node7&#45;&gt;Node6</title>
<path fill="none" stroke="#8b1a1a" d="M258.5,-1305.31C258.5,-1296.43 258.5,-1286.88 258.5,-1277.74"/>
<polygon fill="none" stroke="#8b1a1a" points="255,-1305.37 258.5,-1315.37 262,-1305.37 255,-1305.37"/>
</g>
<!-- Node8 -->
<g id="node8" class="node"><title>Node8</title>
<g id="a_node8"><a xlink:href="class_sync.html" target="_top" xlink:title="{Sync\n||+ Sync()\l+ addComponent()\l+ addBridge()\l+ receive()\l+ send()\l+ run()\l+ messageInQueue()\l+ finalize()\l+ Sync()\l+ receive()\land 7 more...\l}">
<polygon fill="white" stroke="black" points="152,-537.5 152,-704.5 271,-704.5 271,-537.5 152,-537.5"/>
<text text-anchor="middle" x="211.5" y="-692.5" font-family="Helvetica,sans-Serif" font-size="10.00">Sync</text>
<polyline fill="none" stroke="black" points="152,-685.5 271,-685.5 "/>
<text text-anchor="middle" x="211.5" y="-673.5" font-family="Helvetica,sans-Serif" font-size="10.00"> </text>
<polyline fill="none" stroke="black" points="152,-666.5 271,-666.5 "/>
<text text-anchor="start" x="160" y="-654.5" font-family="Helvetica,sans-Serif" font-size="10.00">+ Sync()</text>
<text text-anchor="start" x="160" y="-643.5" font-family="Helvetica,sans-Serif" font-size="10.00">+ addComponent()</text>
<text text-anchor="start" x="160" y="-632.5" font-family="Helvetica,sans-Serif" font-size="10.00">+ addBridge()</text>
<text text-anchor="start" x="160" y="-621.5" font-family="Helvetica,sans-Serif" font-size="10.00">+ receive()</text>
<text text-anchor="start" x="160" y="-610.5" font-family="Helvetica,sans-Serif" font-size="10.00">+ send()</text>
<text text-anchor="start" x="160" y="-599.5" font-family="Helvetica,sans-Serif" font-size="10.00">+ run()</text>
<text text-anchor="start" x="160" y="-588.5" font-family="Helvetica,sans-Serif" font-size="10.00">+ messageInQueue()</text>
<text text-anchor="start" x="160" y="-577.5" font-family="Helvetica,sans-Serif" font-size="10.00">+ finalize()</text>
<text text-anchor="start" x="160" y="-566.5" font-family="Helvetica,sans-Serif" font-size="10.00">+ Sync()</text>
<text text-anchor="start" x="160" y="-555.5" font-family="Helvetica,sans-Serif" font-size="10.00">+ receive()</text>
<text text-anchor="start" x="160" y="-544.5" font-family="Helvetica,sans-Serif" font-size="10.00">and 7 more...</text>
</a>
</g>
</g>
<!-- Node8&#45;&gt;Node3 -->
<g id="edge7" class="edge"><title>Node8&#45;&gt;Node3</title>
<path fill="none" stroke="#404040" d="M229.592,-537.348C231.865,-527.446 234.2,-517.487 236.5,-508 237.022,-505.845 237.556,-503.664 238.098,-501.465"/>
<polygon fill="none" stroke="#404040" points="238.158,-501.223 235.73,-494.433 241.065,-489.58 243.492,-496.371 238.158,-501.223"/>
<text text-anchor="middle" x="261" y="-511" font-family="Helvetica,sans-Serif" font-size="10.00"> #_syncer</text>
</g>
<!-- Node9&#45;&gt;Node8 -->
<g id="edge8" class="edge"><title>Node9&#45;&gt;Node8</title>
<path fill="none" stroke="midnightblue" d="M209.058,-827.718C207.291,-792.146 206.321,-744.965 206.436,-704.76"/>
<polygon fill="none" stroke="midnightblue" points="205.573,-828.097 209.604,-837.895 212.563,-827.721 205.573,-828.097"/>
</g>
<!-- Node9&#45;&gt;Node8 -->
<g id="edge10" class="edge"><title>Node9&#45;&gt;Node8</title>
<path fill="none" stroke="midnightblue" d="M220.272,-827.718C220.945,-792.146 220.462,-744.965 219.11,-704.76"/>
<polygon fill="none" stroke="midnightblue" points="216.769,-827.817 220.038,-837.895 223.767,-827.977 216.769,-827.817"/>
</g>
<!-- Node10 -->
<g id="node10" class="node"><title>Node10</title>
<g id="a_node10"><a xlink:href="classstd_1_1vector.html" target="_top" xlink:title="{std::vector\&lt; CarMessage \&gt;\n||+ ~vector()\l+ at()\l+ operator[]()\l+ front()\l+ back()\l+ data()\l+ begin()\l+ end()\l+ empty()\l+ size()\land 7 more...\l}">
<polygon fill="white" stroke="black" points="0,-799.5 0,-966.5 149,-966.5 149,-799.5 0,-799.5"/>
<text text-anchor="middle" x="74.5" y="-954.5" font-family="Helvetica,sans-Serif" font-size="10.00">std::vector&lt; CarMessage &gt;</text>
<polyline fill="none" stroke="black" points="0,-947.5 149,-947.5 "/>
<text text-anchor="middle" x="74.5" y="-935.5" font-family="Helvetica,sans-Serif" font-size="10.00"> </text>
<polyline fill="none" stroke="black" points="0,-928.5 149,-928.5 "/>
<text text-anchor="start" x="8" y="-916.5" font-family="Helvetica,sans-Serif" font-size="10.00">+ ~vector()</text>
<text text-anchor="start" x="8" y="-905.5" font-family="Helvetica,sans-Serif" font-size="10.00">+ at()</text>
<text text-anchor="start" x="8" y="-894.5" font-family="Helvetica,sans-Serif" font-size="10.00">+ operator[]()</text>
<text text-anchor="start" x="8" y="-883.5" font-family="Helvetica,sans-Serif" font-size="10.00">+ front()</text>
<text text-anchor="start" x="8" y="-872.5" font-family="Helvetica,sans-Serif" font-size="10.00">+ back()</text>
<text text-anchor="start" x="8" y="-861.5" font-family="Helvetica,sans-Serif" font-size="10.00">+ data()</text>
<text text-anchor="start" x="8" y="-850.5" font-family="Helvetica,sans-Serif" font-size="10.00">+ begin()</text>
<text text-anchor="start" x="8" y="-839.5" font-family="Helvetica,sans-Serif" font-size="10.00">+ end()</text>
<text text-anchor="start" x="8" y="-828.5" font-family="Helvetica,sans-Serif" font-size="10.00">+ empty()</text>
<text text-anchor="start" x="8" y="-817.5" font-family="Helvetica,sans-Serif" font-size="10.00">+ size()</text>
<text text-anchor="start" x="8" y="-806.5" font-family="Helvetica,sans-Serif" font-size="10.00">and 7 more...</text>
</a>
</g>
</g>
<!-- Node10&#45;&gt;Node8 -->
<g id="edge11" class="edge"><title>Node10&#45;&gt;Node8</title>
<path fill="none" stroke="#404040" d="M72.2405,-799.251C74.5224,-773.6 80.213,-746.042 92.5,-723 104.334,-700.808 123.228,-681.431 142.509,-665.746"/>
<polygon fill="none" stroke="#404040" points="142.521,-665.737 144.785,-658.89 151.975,-658.347 149.711,-665.193 142.521,-665.737"/>
<text text-anchor="middle" x="151" y="-749.5" font-family="Helvetica,sans-Serif" font-size="10.00"> +receivedCarMessages</text>
</g>
<!-- Node11 -->
<g id="node11" class="node"><title>Node11</title>
<g id="a_node11"><a xlink:href="class_non_copyable.html" target="_top" xlink:title="{NonCopyable\&lt; vector\l\&lt; CarMessage, unsigned\l int \&gt; \&gt;\n||+ NonCopyable()\l}">
<polygon fill="white" stroke="black" points="6,-1037.5 6,-1116.5 143,-1116.5 143,-1037.5 6,-1037.5"/>
<text text-anchor="start" x="14" y="-1104.5" font-family="Helvetica,sans-Serif" font-size="10.00">NonCopyable&lt; vector</text>
<text text-anchor="start" x="14" y="-1093.5" font-family="Helvetica,sans-Serif" font-size="10.00">&lt; CarMessage, unsigned</text>
<text text-anchor="middle" x="74.5" y="-1082.5" font-family="Helvetica,sans-Serif" font-size="10.00"> int &gt; &gt;</text>
<polyline fill="none" stroke="black" points="6,-1075.5 143,-1075.5 "/>
<text text-anchor="middle" x="74.5" y="-1063.5" font-family="Helvetica,sans-Serif" font-size="10.00"> </text>
<polyline fill="none" stroke="black" points="6,-1056.5 143,-1056.5 "/>
<text text-anchor="start" x="14" y="-1044.5" font-family="Helvetica,sans-Serif" font-size="10.00">+ NonCopyable()</text>
</a>
</g>
</g>
<!-- Node11&#45;&gt;Node10 -->
<g id="edge12" class="edge"><title>Node11&#45;&gt;Node10</title>
<path fill="none" stroke="#8b1a1a" d="M74.5,-1027.02C74.5,-1008.7 74.5,-987.342 74.5,-966.805"/>
<polygon fill="none" stroke="#8b1a1a" points="71.0001,-1027.15 74.5,-1037.15 78.0001,-1027.15 71.0001,-1027.15"/>
</g>
</g>
</svg>
