<?xml version="1.0" encoding="UTF-8" standalone="no"?>
<!DOCTYPE svg PUBLIC "-//W3C//DTD SVG 1.1//EN"
 "http://www.w3.org/Graphics/SVG/1.1/DTD/svg11.dtd">
<!-- Generated by graphviz version 2.38.0 (20140413.2041)
 -->
<!-- Title: IChannel Pages: 1 -->
<!--zoomable 767 -->
<svg id="main" version="1.1" xmlns="http://www.w3.org/2000/svg" xmlns:xlink="http://www.w3.org/1999/xlink" xml:space="preserve" onload="init(evt)">
<style type="text/css"><![CDATA[
.edge:hover path { stroke: red; }
.edge:hover polygon { stroke: red; fill: red; }
]]></style>
<script type="text/javascript"><![CDATA[
var edges = document.getElementsByTagName('g');
if (edges && edges.length) {
  for (var i=0;i<edges.length;i++) {
    if (edges[i].id.substr(0,4)=='edge') {
      edges[i].setAttribute('class','edge');
    }
  }
}
]]></script>
        <defs>
                <circle id="rim" cx="0" cy="0" r="7"/>
                <circle id="rim2" cx="0" cy="0" r="3.5"/>
                <g id="zoomPlus">
                        <use xlink:href="#rim" fill="#404040">
                                <set attributeName="fill" to="#808080" begin="zoomplus.mouseover" end="zoomplus.mouseout"/>
                        </use>
                        <path d="M-4,0h8M0,-4v8" fill="none" stroke="white" stroke-width="1.5" pointer-events="none"/>
                </g>
                <g id="zoomMin">
                        <use xlink:href="#rim" fill="#404040">
                                <set attributeName="fill" to="#808080" begin="zoomminus.mouseover" end="zoomminus.mouseout"/>
                        </use>
                        <path d="M-4,0h8" fill="none" stroke="white" stroke-width="1.5" pointer-events="none"/>
                </g>
                <g id="dirArrow">
                        <path fill="none" stroke="white" stroke-width="1.5" d="M0,-3.0v7 M-2.5,-0.5L0,-3.0L2.5,-0.5"/>
                </g>
               <g id="resetDef">
                       <use xlink:href="#rim2" fill="#404040">
                               <set attributeName="fill" to="#808080" begin="reset.mouseover" end="reset.mouseout"/>
                       </use>
               </g>
        </defs>

<script type="text/javascript">
var viewWidth = 576;
var viewHeight = 767;
var sectionId = 'dynsection-0';
</script>
<script xlink:href="svgpan.js"/>
<svg id="graph" class="graph">
<g id="viewport">
<title>IChannel</title>
<polygon fill="white" stroke="none" points="-4,4 -4,-763 572,-763 572,4 -4,4"/>
<!-- Node1 -->
<g id="node1" class="node"><title>Node1</title>
<polygon fill="#bfbfbf" stroke="black" points="213,-160.5 213,-228.5 332,-228.5 332,-160.5 213,-160.5"/>
<text text-anchor="middle" x="272.5" y="-216.5" font-family="Helvetica,sans-Serif" font-size="10.00">IChannel</text>
<polyline fill="none" stroke="black" points="213,-209.5 332,-209.5 "/>
<text text-anchor="middle" x="272.5" y="-197.5" font-family="Helvetica,sans-Serif" font-size="10.00"> </text>
<polyline fill="none" stroke="black" points="213,-190.5 332,-190.5 "/>
<text text-anchor="start" x="221" y="-178.5" font-family="Helvetica,sans-Serif" font-size="10.00">+ send()</text>
<text text-anchor="start" x="221" y="-167.5" font-family="Helvetica,sans-Serif" font-size="10.00">+ messageInQueue()</text>
</g>
<!-- Node6 -->
<g id="node6" class="node"><title>Node6</title>
<g id="a_node6"><a xlink:href="class_c_can.html" target="_top" xlink:title="{CCan\n||+ CCan()\l+ CCan()\l+ send()\l+ messageInQueue()\l+ run()\l}">
<polygon fill="white" stroke="black" points="0,-11.5 0,-112.5 119,-112.5 119,-11.5 0,-11.5"/>
<text text-anchor="middle" x="59.5" y="-100.5" font-family="Helvetica,sans-Serif" font-size="10.00">CCan</text>
<polyline fill="none" stroke="black" points="0,-93.5 119,-93.5 "/>
<text text-anchor="middle" x="59.5" y="-81.5" font-family="Helvetica,sans-Serif" font-size="10.00"> </text>
<polyline fill="none" stroke="black" points="0,-74.5 119,-74.5 "/>
<text text-anchor="start" x="8" y="-62.5" font-family="Helvetica,sans-Serif" font-size="10.00">+ CCan()</text>
<text text-anchor="start" x="8" y="-51.5" font-family="Helvetica,sans-Serif" font-size="10.00">+ CCan()</text>
<text text-anchor="start" x="8" y="-40.5" font-family="Helvetica,sans-Serif" font-size="10.00">+ send()</text>
<text text-anchor="start" x="8" y="-29.5" font-family="Helvetica,sans-Serif" font-size="10.00">+ messageInQueue()</text>
<text text-anchor="start" x="8" y="-18.5" font-family="Helvetica,sans-Serif" font-size="10.00">+ run()</text>
</a>
</g>
</g>
<!-- Node1&#45;&gt;Node6 -->
<g id="edge5" class="edge"><title>Node1&#45;&gt;Node6</title>
<path fill="none" stroke="midnightblue" d="M203.571,-165.324C178.746,-153.935 151.066,-139.747 127.5,-124 122.357,-120.564 117.203,-116.758 112.161,-112.777"/>
<polygon fill="none" stroke="midnightblue" points="202.377,-168.625 212.931,-169.55 205.257,-162.245 202.377,-168.625"/>
</g>
<!-- Node7 -->
<g id="node7" class="node"><title>Node7</title>
<g id="a_node7"><a xlink:href="class_test_channel.html" target="_top" xlink:title="{TestChannel\n|+ _syncer\l+ _messageInQueue\l|+ TestChannel()\l+ send()\l+ messageInQueue()\l+ giveToSyncer()\l+ run()\l}">
<polygon fill="white" stroke="black" points="137,-6 137,-118 256,-118 256,-6 137,-6"/>
<text text-anchor="middle" x="196.5" y="-106" font-family="Helvetica,sans-Serif" font-size="10.00">TestChannel</text>
<polyline fill="none" stroke="black" points="137,-99 256,-99 "/>
<text text-anchor="start" x="145" y="-87" font-family="Helvetica,sans-Serif" font-size="10.00">+ _syncer</text>
<text text-anchor="start" x="145" y="-76" font-family="Helvetica,sans-Serif" font-size="10.00">+ _messageInQueue</text>
<polyline fill="none" stroke="black" points="137,-69 256,-69 "/>
<text text-anchor="start" x="145" y="-57" font-family="Helvetica,sans-Serif" font-size="10.00">+ TestChannel()</text>
<text text-anchor="start" x="145" y="-46" font-family="Helvetica,sans-Serif" font-size="10.00">+ send()</text>
<text text-anchor="start" x="145" y="-35" font-family="Helvetica,sans-Serif" font-size="10.00">+ messageInQueue()</text>
<text text-anchor="start" x="145" y="-24" font-family="Helvetica,sans-Serif" font-size="10.00">+ giveToSyncer()</text>
<text text-anchor="start" x="145" y="-13" font-family="Helvetica,sans-Serif" font-size="10.00">+ run()</text>
</a>
</g>
</g>
<!-- Node1&#45;&gt;Node7 -->
<g id="edge6" class="edge"><title>Node1&#45;&gt;Node7</title>
<path fill="none" stroke="midnightblue" d="M248.053,-151.522C241.838,-140.85 235.066,-129.222 228.536,-118.008"/>
<polygon fill="none" stroke="midnightblue" points="245.068,-153.352 253.125,-160.232 251.117,-149.829 245.068,-153.352"/>
</g>
<!-- Node8 -->
<g id="node8" class="node"><title>Node8</title>
<g id="a_node8"><a xlink:href="class_test_destination_channel.html" target="_top" xlink:title="{TestDestinationChannel\n|+ _sync\l+ _receivedMessages\l|+ TestDestinationChannel()\l+ send()\l+ run()\l+ messageInQueue()\l+ setStatus()\l+ getStatus()\l}">
<polygon fill="white" stroke="black" points="274.5,-0.5 274.5,-123.5 422.5,-123.5 422.5,-0.5 274.5,-0.5"/>
<text text-anchor="middle" x="348.5" y="-111.5" font-family="Helvetica,sans-Serif" font-size="10.00">TestDestinationChannel</text>
<polyline fill="none" stroke="black" points="274.5,-104.5 422.5,-104.5 "/>
<text text-anchor="start" x="282.5" y="-92.5" font-family="Helvetica,sans-Serif" font-size="10.00">+ _sync</text>
<text text-anchor="start" x="282.5" y="-81.5" font-family="Helvetica,sans-Serif" font-size="10.00">+ _receivedMessages</text>
<polyline fill="none" stroke="black" points="274.5,-74.5 422.5,-74.5 "/>
<text text-anchor="start" x="282.5" y="-62.5" font-family="Helvetica,sans-Serif" font-size="10.00">+ TestDestinationChannel()</text>
<text text-anchor="start" x="282.5" y="-51.5" font-family="Helvetica,sans-Serif" font-size="10.00">+ send()</text>
<text text-anchor="start" x="282.5" y="-40.5" font-family="Helvetica,sans-Serif" font-size="10.00">+ run()</text>
<text text-anchor="start" x="282.5" y="-29.5" font-family="Helvetica,sans-Serif" font-size="10.00">+ messageInQueue()</text>
<text text-anchor="start" x="282.5" y="-18.5" font-family="Helvetica,sans-Serif" font-size="10.00">+ setStatus()</text>
<text text-anchor="start" x="282.5" y="-7.5" font-family="Helvetica,sans-Serif" font-size="10.00">+ getStatus()</text>
</a>
</g>
</g>
<!-- Node1&#45;&gt;Node8 -->
<g id="edge7" class="edge"><title>Node1&#45;&gt;Node8</title>
<path fill="none" stroke="midnightblue" d="M296.921,-151.567C302.114,-142.65 307.696,-133.064 313.203,-123.609"/>
<polygon fill="none" stroke="midnightblue" points="293.883,-149.829 291.875,-160.232 299.932,-153.352 293.883,-149.829"/>
</g>
<!-- Node9 -->
<g id="node9" class="node"><title>Node9</title>
<g id="a_node9"><a xlink:href="class_test_source_channel.html" target="_top" xlink:title="{TestSourceChannel\n|+ _sync\l|+ TestSourceChannel()\l+ synteticSend()\l+ send()\l+ run()\l+ messageInQueue()\l+ setStatus()\l+ getStatus()\l}">
<polygon fill="white" stroke="black" points="441,-0.5 441,-123.5 568,-123.5 568,-0.5 441,-0.5"/>
<text text-anchor="middle" x="504.5" y="-111.5" font-family="Helvetica,sans-Serif" font-size="10.00">TestSourceChannel</text>
<polyline fill="none" stroke="black" points="441,-104.5 568,-104.5 "/>
<text text-anchor="start" x="449" y="-92.5" font-family="Helvetica,sans-Serif" font-size="10.00">+ _sync</text>
<polyline fill="none" stroke="black" points="441,-85.5 568,-85.5 "/>
<text text-anchor="start" x="449" y="-73.5" font-family="Helvetica,sans-Serif" font-size="10.00">+ TestSourceChannel()</text>
<text text-anchor="start" x="449" y="-62.5" font-family="Helvetica,sans-Serif" font-size="10.00">+ synteticSend()</text>
<text text-anchor="start" x="449" y="-51.5" font-family="Helvetica,sans-Serif" font-size="10.00">+ send()</text>
<text text-anchor="start" x="449" y="-40.5" font-family="Helvetica,sans-Serif" font-size="10.00">+ run()</text>
<text text-anchor="start" x="449" y="-29.5" font-family="Helvetica,sans-Serif" font-size="10.00">+ messageInQueue()</text>
<text text-anchor="start" x="449" y="-18.5" font-family="Helvetica,sans-Serif" font-size="10.00">+ setStatus()</text>
<text text-anchor="start" x="449" y="-7.5" font-family="Helvetica,sans-Serif" font-size="10.00">+ getStatus()</text>
</a>
</g>
</g>
<!-- Node1&#45;&gt;Node9 -->
<g id="edge8" class="edge"><title>Node1&#45;&gt;Node9</title>
<path fill="none" stroke="midnightblue" d="M341.823,-168.212C370.509,-156.487 403.535,-141.303 431.5,-124 434.59,-122.088 437.688,-120.054 440.77,-117.934"/>
<polygon fill="none" stroke="midnightblue" points="340.245,-165.074 332.274,-172.054 342.858,-171.568 340.245,-165.074"/>
</g>
<!-- Node2 -->
<g id="node2" class="node"><title>Node2</title>
<g id="a_node2"><a xlink:href="class_i_runable.html" target="_top" xlink:title="{IRunable\n||+ IRunable()\l+ run()\l+ setStatus()\l+ getStatus()\l}">
<polygon fill="white" stroke="black" points="231,-265.5 231,-355.5 314,-355.5 314,-265.5 231,-265.5"/>
<text text-anchor="middle" x="272.5" y="-343.5" font-family="Helvetica,sans-Serif" font-size="10.00">IRunable</text>
<polyline fill="none" stroke="black" points="231,-336.5 314,-336.5 "/>
<text text-anchor="middle" x="272.5" y="-324.5" font-family="Helvetica,sans-Serif" font-size="10.00"> </text>
<polyline fill="none" stroke="black" points="231,-317.5 314,-317.5 "/>
<text text-anchor="start" x="239" y="-305.5" font-family="Helvetica,sans-Serif" font-size="10.00">+ IRunable()</text>
<text text-anchor="start" x="239" y="-294.5" font-family="Helvetica,sans-Serif" font-size="10.00">+ run()</text>
<text text-anchor="start" x="239" y="-283.5" font-family="Helvetica,sans-Serif" font-size="10.00">+ setStatus()</text>
<text text-anchor="start" x="239" y="-272.5" font-family="Helvetica,sans-Serif" font-size="10.00">+ getStatus()</text>
</a>
</g>
</g>
<!-- Node2&#45;&gt;Node1 -->
<g id="edge1" class="edge"><title>Node2&#45;&gt;Node1</title>
<path fill="none" stroke="midnightblue" d="M272.5,-255.316C272.5,-246.285 272.5,-237.159 272.5,-228.848"/>
<polygon fill="none" stroke="midnightblue" points="269,-255.425 272.5,-265.425 276,-255.425 269,-255.425"/>
</g>
<!-- Node3 -->
<g id="node3" class="node"><title>Node3</title>
<g id="a_node3"><a xlink:href="class_i_component.html" target="_top" xlink:title="{IComponent\n||+ IComponent()\l+ IComponent()\l+ setComponentSubId()\l+ getComponentType()\l+ getComponentSubId()\l+ getComponentId()\l+ getObjectType()\l# setComponentType()\l# setObjectType()\l}">
<polygon fill="white" stroke="black" points="205.5,-392.5 205.5,-537.5 339.5,-537.5 339.5,-392.5 205.5,-392.5"/>
<text text-anchor="middle" x="272.5" y="-525.5" font-family="Helvetica,sans-Serif" font-size="10.00">IComponent</text>
<polyline fill="none" stroke="black" points="205.5,-518.5 339.5,-518.5 "/>
<text text-anchor="middle" x="272.5" y="-506.5" font-family="Helvetica,sans-Serif" font-size="10.00"> </text>
<polyline fill="none" stroke="black" points="205.5,-499.5 339.5,-499.5 "/>
<text text-anchor="start" x="213.5" y="-487.5" font-family="Helvetica,sans-Serif" font-size="10.00">+ IComponent()</text>
<text text-anchor="start" x="213.5" y="-476.5" font-family="Helvetica,sans-Serif" font-size="10.00">+ IComponent()</text>
<text text-anchor="start" x="213.5" y="-465.5" font-family="Helvetica,sans-Serif" font-size="10.00">+ setComponentSubId()</text>
<text text-anchor="start" x="213.5" y="-454.5" font-family="Helvetica,sans-Serif" font-size="10.00">+ getComponentType()</text>
<text text-anchor="start" x="213.5" y="-443.5" font-family="Helvetica,sans-Serif" font-size="10.00">+ getComponentSubId()</text>
<text text-anchor="start" x="213.5" y="-432.5" font-family="Helvetica,sans-Serif" font-size="10.00">+ getComponentId()</text>
<text text-anchor="start" x="213.5" y="-421.5" font-family="Helvetica,sans-Serif" font-size="10.00">+ getObjectType()</text>
<text text-anchor="start" x="213.5" y="-410.5" font-family="Helvetica,sans-Serif" font-size="10.00"># setComponentType()</text>
<text text-anchor="start" x="213.5" y="-399.5" font-family="Helvetica,sans-Serif" font-size="10.00"># setObjectType()</text>
</a>
</g>
</g>
<!-- Node3&#45;&gt;Node2 -->
<g id="edge2" class="edge"><title>Node3&#45;&gt;Node2</title>
<path fill="none" stroke="midnightblue" d="M272.5,-381.941C272.5,-372.857 272.5,-363.885 272.5,-355.542"/>
<polygon fill="none" stroke="midnightblue" points="269,-382.215 272.5,-392.216 276,-382.216 269,-382.215"/>
</g>
<!-- Node4 -->
<g id="node4" class="node"><title>Node4</title>
<g id="a_node4"><a xlink:href="class_i_logable.html" target="_top" xlink:title="{ILogable\n||+ setStatus()\l+ getStatus()\l+ getLogValueCount()\l+ getLogValue()\l}">
<polygon fill="white" stroke="black" points="211,-574.5 211,-664.5 334,-664.5 334,-574.5 211,-574.5"/>
<text text-anchor="middle" x="272.5" y="-652.5" font-family="Helvetica,sans-Serif" font-size="10.00">ILogable</text>
<polyline fill="none" stroke="black" points="211,-645.5 334,-645.5 "/>
<text text-anchor="middle" x="272.5" y="-633.5" font-family="Helvetica,sans-Serif" font-size="10.00"> </text>
<polyline fill="none" stroke="black" points="211,-626.5 334,-626.5 "/>
<text text-anchor="start" x="219" y="-614.5" font-family="Helvetica,sans-Serif" font-size="10.00">+ setStatus()</text>
<text text-anchor="start" x="219" y="-603.5" font-family="Helvetica,sans-Serif" font-size="10.00">+ getStatus()</text>
<text text-anchor="start" x="219" y="-592.5" font-family="Helvetica,sans-Serif" font-size="10.00">+ getLogValueCount()</text>
<text text-anchor="start" x="219" y="-581.5" font-family="Helvetica,sans-Serif" font-size="10.00">+ getLogValue()</text>
</a>
</g>
</g>
<!-- Node4&#45;&gt;Node3 -->
<g id="edge3" class="edge"><title>Node4&#45;&gt;Node3</title>
<path fill="none" stroke="midnightblue" d="M272.5,-564.13C272.5,-555.526 272.5,-546.516 272.5,-537.591"/>
<polygon fill="none" stroke="midnightblue" points="269,-564.391 272.5,-574.391 276,-564.391 269,-564.391"/>
</g>
<!-- Node5 -->
<g id="node5" class="node"><title>Node5</title>
<g id="a_node5"><a xlink:href="class_non_copyable.html" target="_top" xlink:title="{NonCopyable\&lt; ILogable \&gt;\n||+ NonCopyable()\l}">
<polygon fill="white" stroke="black" points="201,-701.5 201,-758.5 344,-758.5 344,-701.5 201,-701.5"/>
<text text-anchor="middle" x="272.5" y="-746.5" font-family="Helvetica,sans-Serif" font-size="10.00">NonCopyable&lt; ILogable &gt;</text>
<polyline fill="none" stroke="black" points="201,-739.5 344,-739.5 "/>
<text text-anchor="middle" x="272.5" y="-727.5" font-family="Helvetica,sans-Serif" font-size="10.00"> </text>
<polyline fill="none" stroke="black" points="201,-720.5 344,-720.5 "/>
<text text-anchor="start" x="209" y="-708.5" font-family="Helvetica,sans-Serif" font-size="10.00">+ NonCopyable()</text>
</a>
</g>
</g>
<!-- Node5&#45;&gt;Node4 -->
<g id="edge4" class="edge"><title>Node5&#45;&gt;Node4</title>
<path fill="none" stroke="#8b1a1a" d="M272.5,-691.214C272.5,-682.609 272.5,-673.394 272.5,-664.554"/>
<polygon fill="none" stroke="#8b1a1a" points="269,-691.34 272.5,-701.34 276,-691.34 269,-691.34"/>
</g>
</g>
</svg>
        <g id="navigator" transform="translate(0 0)" fill="#404254">
                <rect fill="#f2f5e9" fill-opacity="0.5" stroke="#606060" stroke-width=".5" x="0" y="0" width="60" height="60"/>
                <use id="zoomplus" xlink:href="#zoomPlus" x="17" y="9" onmousedown="handleZoom(evt,'in')"/>
                <use id="zoomminus" xlink:href="#zoomMin" x="42" y="9" onmousedown="handleZoom(evt,'out')"/>
                <use id="reset" xlink:href="#resetDef" x="30" y="36" onmousedown="handleReset()"/>
                <g id="arrowUp" xlink:href="#dirArrow" transform="translate(30 24)" onmousedown="handlePan(0,-1)">
                  <use xlink:href="#rim" fill="#404040">
                        <set attributeName="fill" to="#808080" begin="arrowUp.mouseover" end="arrowUp.mouseout"/>
                  </use>
                  <path fill="none" stroke="white" stroke-width="1.5" d="M0,-3.0v7 M-2.5,-0.5L0,-3.0L2.5,-0.5"/>
                </g>
                <g id="arrowRight" xlink:href="#dirArrow" transform="rotate(90) translate(36 -43)" onmousedown="handlePan(1,0)">
                  <use xlink:href="#rim" fill="#404040">
                        <set attributeName="fill" to="#808080" begin="arrowRight.mouseover" end="arrowRight.mouseout"/>
                  </use>
                  <path fill="none" stroke="white" stroke-width="1.5" d="M0,-3.0v7 M-2.5,-0.5L0,-3.0L2.5,-0.5"/>
                </g>
                <g id="arrowDown" xlink:href="#dirArrow" transform="rotate(180) translate(-30 -48)" onmousedown="handlePan(0,1)">
                  <use xlink:href="#rim" fill="#404040">
                        <set attributeName="fill" to="#808080" begin="arrowDown.mouseover" end="arrowDown.mouseout"/>
                  </use>
                  <path fill="none" stroke="white" stroke-width="1.5" d="M0,-3.0v7 M-2.5,-0.5L0,-3.0L2.5,-0.5"/>
                </g>
                <g id="arrowLeft" xlink:href="#dirArrow" transform="rotate(270) translate(-36 17)" onmousedown="handlePan(-1,0)">
                  <use xlink:href="#rim" fill="#404040">
                        <set attributeName="fill" to="#808080" begin="arrowLeft.mouseover" end="arrowLeft.mouseout"/>
                  </use>
                  <path fill="none" stroke="white" stroke-width="1.5" d="M0,-3.0v7 M-2.5,-0.5L0,-3.0L2.5,-0.5"/>
                </g>
        </g>
        <svg viewBox="0 0 15 15" width="100%" height="30px" preserveAspectRatio="xMaxYMin meet">
         <g id="arrow_out" transform="scale(0.3 0.3)">
          <a xlink:href="class_i_channel__inherit__graph_org.svg" target="_base">
           <rect id="button" ry="5" rx="5" y="6" x="6" height="38" width="38"
                fill="#f2f5e9" fill-opacity="0.5" stroke="#606060" stroke-width="1.0"/>
           <path id="arrow"
             d="M 11.500037,31.436501 C 11.940474,20.09759 22.043105,11.32322 32.158766,21.979434 L 37.068811,17.246167 C 37.068811,17.246167 37.088388,32 37.088388,32 L 22.160133,31.978069 C 22.160133,31.978069 26.997745,27.140456 26.997745,27.140456 C 18.528582,18.264221 13.291696,25.230495 11.500037,31.436501 z"
             style="fill:#404040;"/>
          </a>
         </g>
        </svg>
</svg>
