<?xml version="1.0" encoding="UTF-8" standalone="no"?>
<!DOCTYPE svg PUBLIC "-//W3C//DTD SVG 1.1//EN"
 "http://www.w3.org/Graphics/SVG/1.1/DTD/svg11.dtd">
<!-- Generated by graphviz version 2.38.0 (20140413.2041)
 -->
<!-- Title: HardwarePwmBuzzer Pages: 1 -->
<!--zoomable 860 -->
<svg id="main" version="1.1" xmlns="http://www.w3.org/2000/svg" xmlns:xlink="http://www.w3.org/1999/xlink" xml:space="preserve" onload="init(evt)">
<style type="text/css"><![CDATA[
.edge:hover path { stroke: red; }
.edge:hover polygon { stroke: red; fill: red; }
]]></style>
<script type="text/javascript"><![CDATA[
var edges = document.getElementsByTagName('g');
if (edges && edges.length) {
  for (var i=0;i<edges.length;i++) {
    if (edges[i].id.substr(0,4)=='edge') {
      edges[i].setAttribute('class','edge');
    }
  }
}
]]></script>
        <defs>
                <circle id="rim" cx="0" cy="0" r="7"/>
                <circle id="rim2" cx="0" cy="0" r="3.5"/>
                <g id="zoomPlus">
                        <use xlink:href="#rim" fill="#404040">
                                <set attributeName="fill" to="#808080" begin="zoomplus.mouseover" end="zoomplus.mouseout"/>
                        </use>
                        <path d="M-4,0h8M0,-4v8" fill="none" stroke="white" stroke-width="1.5" pointer-events="none"/>
                </g>
                <g id="zoomMin">
                        <use xlink:href="#rim" fill="#404040">
                                <set attributeName="fill" to="#808080" begin="zoomminus.mouseover" end="zoomminus.mouseout"/>
                        </use>
                        <path d="M-4,0h8" fill="none" stroke="white" stroke-width="1.5" pointer-events="none"/>
                </g>
                <g id="dirArrow">
                        <path fill="none" stroke="white" stroke-width="1.5" d="M0,-3.0v7 M-2.5,-0.5L0,-3.0L2.5,-0.5"/>
                </g>
               <g id="resetDef">
                       <use xlink:href="#rim2" fill="#404040">
                               <set attributeName="fill" to="#808080" begin="reset.mouseover" end="reset.mouseout"/>
                       </use>
               </g>
        </defs>

<script type="text/javascript">
var viewWidth = 151;
var viewHeight = 860;
var sectionId = 'dynsection-0';
</script>
<script xlink:href="svgpan.js"/>
<svg id="graph" class="graph">
<g id="viewport">
<title>HardwarePwmBuzzer</title>
<polygon fill="white" stroke="none" points="-4,4 -4,-856 147,-856 147,4 -4,4"/>
<!-- Node1 -->
<g id="node1" class="node"><title>Node1</title>
<polygon fill="#bfbfbf" stroke="black" points="3,-0.5 3,-288.5 140,-288.5 140,-0.5 3,-0.5"/>
<text text-anchor="middle" x="71.5" y="-276.5" font-family="Helvetica,sans-Serif" font-size="10.00">HardwarePwmBuzzer</text>
<polyline fill="none" stroke="black" points="3,-269.5 140,-269.5 "/>
<text text-anchor="start" x="11" y="-257.5" font-family="Helvetica,sans-Serif" font-size="10.00"># _registry</text>
<text text-anchor="start" x="11" y="-246.5" font-family="Helvetica,sans-Serif" font-size="10.00"># _stdValuesLoaded</text>
<text text-anchor="start" x="11" y="-235.5" font-family="Helvetica,sans-Serif" font-size="10.00"># _port</text>
<text text-anchor="start" x="11" y="-224.5" font-family="Helvetica,sans-Serif" font-size="10.00"># _ticker</text>
<text text-anchor="start" x="11" y="-213.5" font-family="Helvetica,sans-Serif" font-size="10.00"># _status</text>
<text text-anchor="start" x="11" y="-202.5" font-family="Helvetica,sans-Serif" font-size="10.00"># _current</text>
<text text-anchor="start" x="11" y="-191.5" font-family="Helvetica,sans-Serif" font-size="10.00"># _last</text>
<text text-anchor="start" x="11" y="-180.5" font-family="Helvetica,sans-Serif" font-size="10.00"># _time</text>
<text text-anchor="start" x="11" y="-169.5" font-family="Helvetica,sans-Serif" font-size="10.00"># _pwmHighToLowRatio</text>
<polyline fill="none" stroke="black" points="3,-162.5 140,-162.5 "/>
<text text-anchor="start" x="11" y="-150.5" font-family="Helvetica,sans-Serif" font-size="10.00">+ HardwarePwmBuzzer()</text>
<text text-anchor="start" x="11" y="-139.5" font-family="Helvetica,sans-Serif" font-size="10.00">+ setStatus()</text>
<text text-anchor="start" x="11" y="-128.5" font-family="Helvetica,sans-Serif" font-size="10.00">+ getStatus()</text>
<text text-anchor="start" x="11" y="-117.5" font-family="Helvetica,sans-Serif" font-size="10.00">+ setState()</text>
<text text-anchor="start" x="11" y="-106.5" font-family="Helvetica,sans-Serif" font-size="10.00">+ getState()</text>
<text text-anchor="start" x="11" y="-95.5" font-family="Helvetica,sans-Serif" font-size="10.00">+ setBeep()</text>
<text text-anchor="start" x="11" y="-84.5" font-family="Helvetica,sans-Serif" font-size="10.00">+ getBeep()</text>
<text text-anchor="start" x="11" y="-73.5" font-family="Helvetica,sans-Serif" font-size="10.00">+ setHz()</text>
<text text-anchor="start" x="11" y="-62.5" font-family="Helvetica,sans-Serif" font-size="10.00">+ getHz()</text>
<text text-anchor="start" x="11" y="-51.5" font-family="Helvetica,sans-Serif" font-size="10.00"># _loadStdValues()</text>
<text text-anchor="start" x="11" y="-40.5" font-family="Helvetica,sans-Serif" font-size="10.00"># _beep()</text>
<text text-anchor="start" x="11" y="-29.5" font-family="Helvetica,sans-Serif" font-size="10.00"># _setHz()</text>
<text text-anchor="start" x="11" y="-18.5" font-family="Helvetica,sans-Serif" font-size="10.00"># _startBeep()</text>
<text text-anchor="start" x="11" y="-7.5" font-family="Helvetica,sans-Serif" font-size="10.00"># _update()</text>
</g>
<!-- Node2 -->
<g id="node2" class="node"><title>Node2</title>
<g id="a_node2"><a xlink:href="class_i_buzzer.html" target="_top" xlink:title="{IBuzzer\n||+ IBuzzer()\l+ setState()\l+ getState()\l+ setBeep()\l+ getBeep()\l+ setHz()\l+ getHz()\l}">
<polygon fill="white" stroke="black" points="33,-325.5 33,-448.5 110,-448.5 110,-325.5 33,-325.5"/>
<text text-anchor="middle" x="71.5" y="-436.5" font-family="Helvetica,sans-Serif" font-size="10.00">IBuzzer</text>
<polyline fill="none" stroke="black" points="33,-429.5 110,-429.5 "/>
<text text-anchor="middle" x="71.5" y="-417.5" font-family="Helvetica,sans-Serif" font-size="10.00"> </text>
<polyline fill="none" stroke="black" points="33,-410.5 110,-410.5 "/>
<text text-anchor="start" x="41" y="-398.5" font-family="Helvetica,sans-Serif" font-size="10.00">+ IBuzzer()</text>
<text text-anchor="start" x="41" y="-387.5" font-family="Helvetica,sans-Serif" font-size="10.00">+ setState()</text>
<text text-anchor="start" x="41" y="-376.5" font-family="Helvetica,sans-Serif" font-size="10.00">+ getState()</text>
<text text-anchor="start" x="41" y="-365.5" font-family="Helvetica,sans-Serif" font-size="10.00">+ setBeep()</text>
<text text-anchor="start" x="41" y="-354.5" font-family="Helvetica,sans-Serif" font-size="10.00">+ getBeep()</text>
<text text-anchor="start" x="41" y="-343.5" font-family="Helvetica,sans-Serif" font-size="10.00">+ setHz()</text>
<text text-anchor="start" x="41" y="-332.5" font-family="Helvetica,sans-Serif" font-size="10.00">+ getHz()</text>
</a>
</g>
</g>
<!-- Node2&#45;&gt;Node1 -->
<g id="edge1" class="edge"><title>Node2&#45;&gt;Node1</title>
<path fill="none" stroke="midnightblue" d="M71.5,-315.191C71.5,-306.721 71.5,-297.855 71.5,-288.808"/>
<polygon fill="none" stroke="midnightblue" points="68.0001,-315.312 71.5,-325.312 75.0001,-315.312 68.0001,-315.312"/>
</g>
<!-- Node3 -->
<g id="node3" class="node"><title>Node3</title>
<g id="a_node3"><a xlink:href="class_i_component.html" target="_top" xlink:title="{IComponent\n||+ IComponent()\l+ IComponent()\l+ setComponentSubId()\l+ getComponentType()\l+ getComponentSubId()\l+ getComponentId()\l+ getObjectType()\l# setComponentType()\l# setObjectType()\l}">
<polygon fill="white" stroke="black" points="4.5,-485.5 4.5,-630.5 138.5,-630.5 138.5,-485.5 4.5,-485.5"/>
<text text-anchor="middle" x="71.5" y="-618.5" font-family="Helvetica,sans-Serif" font-size="10.00">IComponent</text>
<polyline fill="none" stroke="black" points="4.5,-611.5 138.5,-611.5 "/>
<text text-anchor="middle" x="71.5" y="-599.5" font-family="Helvetica,sans-Serif" font-size="10.00"> </text>
<polyline fill="none" stroke="black" points="4.5,-592.5 138.5,-592.5 "/>
<text text-anchor="start" x="12.5" y="-580.5" font-family="Helvetica,sans-Serif" font-size="10.00">+ IComponent()</text>
<text text-anchor="start" x="12.5" y="-569.5" font-family="Helvetica,sans-Serif" font-size="10.00">+ IComponent()</text>
<text text-anchor="start" x="12.5" y="-558.5" font-family="Helvetica,sans-Serif" font-size="10.00">+ setComponentSubId()</text>
<text text-anchor="start" x="12.5" y="-547.5" font-family="Helvetica,sans-Serif" font-size="10.00">+ getComponentType()</text>
<text text-anchor="start" x="12.5" y="-536.5" font-family="Helvetica,sans-Serif" font-size="10.00">+ getComponentSubId()</text>
<text text-anchor="start" x="12.5" y="-525.5" font-family="Helvetica,sans-Serif" font-size="10.00">+ getComponentId()</text>
<text text-anchor="start" x="12.5" y="-514.5" font-family="Helvetica,sans-Serif" font-size="10.00">+ getObjectType()</text>
<text text-anchor="start" x="12.5" y="-503.5" font-family="Helvetica,sans-Serif" font-size="10.00"># setComponentType()</text>
<text text-anchor="start" x="12.5" y="-492.5" font-family="Helvetica,sans-Serif" font-size="10.00"># setObjectType()</text>
</a>
</g>
</g>
<!-- Node3&#45;&gt;Node2 -->
<g id="edge2" class="edge"><title>Node3&#45;&gt;Node2</title>
<path fill="none" stroke="midnightblue" d="M71.5,-475.232C71.5,-466.254 71.5,-457.235 71.5,-448.58"/>
<polygon fill="none" stroke="midnightblue" points="68.0001,-475.329 71.5,-485.329 75.0001,-475.329 68.0001,-475.329"/>
</g>
<!-- Node4 -->
<g id="node4" class="node"><title>Node4</title>
<g id="a_node4"><a xlink:href="class_i_logable.html" target="_top" xlink:title="{ILogable\n||+ setStatus()\l+ getStatus()\l+ getLogValueCount()\l+ getLogValue()\l}">
<polygon fill="white" stroke="black" points="10,-667.5 10,-757.5 133,-757.5 133,-667.5 10,-667.5"/>
<text text-anchor="middle" x="71.5" y="-745.5" font-family="Helvetica,sans-Serif" font-size="10.00">ILogable</text>
<polyline fill="none" stroke="black" points="10,-738.5 133,-738.5 "/>
<text text-anchor="middle" x="71.5" y="-726.5" font-family="Helvetica,sans-Serif" font-size="10.00"> </text>
<polyline fill="none" stroke="black" points="10,-719.5 133,-719.5 "/>
<text text-anchor="start" x="18" y="-707.5" font-family="Helvetica,sans-Serif" font-size="10.00">+ setStatus()</text>
<text text-anchor="start" x="18" y="-696.5" font-family="Helvetica,sans-Serif" font-size="10.00">+ getStatus()</text>
<text text-anchor="start" x="18" y="-685.5" font-family="Helvetica,sans-Serif" font-size="10.00">+ getLogValueCount()</text>
<text text-anchor="start" x="18" y="-674.5" font-family="Helvetica,sans-Serif" font-size="10.00">+ getLogValue()</text>
</a>
</g>
</g>
<!-- Node4&#45;&gt;Node3 -->
<g id="edge3" class="edge"><title>Node4&#45;&gt;Node3</title>
<path fill="none" stroke="midnightblue" d="M71.5,-657.13C71.5,-648.526 71.5,-639.516 71.5,-630.591"/>
<polygon fill="none" stroke="midnightblue" points="68.0001,-657.391 71.5,-667.391 75.0001,-657.391 68.0001,-657.391"/>
</g>
<!-- Node5 -->
<g id="node5" class="node"><title>Node5</title>
<g id="a_node5"><a xlink:href="class_non_copyable.html" target="_top" xlink:title="{NonCopyable\&lt; ILogable \&gt;\n||+ NonCopyable()\l}">
<polygon fill="white" stroke="black" points="0,-794.5 0,-851.5 143,-851.5 143,-794.5 0,-794.5"/>
<text text-anchor="middle" x="71.5" y="-839.5" font-family="Helvetica,sans-Serif" font-size="10.00">NonCopyable&lt; ILogable &gt;</text>
<polyline fill="none" stroke="black" points="0,-832.5 143,-832.5 "/>
<text text-anchor="middle" x="71.5" y="-820.5" font-family="Helvetica,sans-Serif" font-size="10.00"> </text>
<polyline fill="none" stroke="black" points="0,-813.5 143,-813.5 "/>
<text text-anchor="start" x="8" y="-801.5" font-family="Helvetica,sans-Serif" font-size="10.00">+ NonCopyable()</text>
</a>
</g>
</g>
<!-- Node5&#45;&gt;Node4 -->
<g id="edge4" class="edge"><title>Node5&#45;&gt;Node4</title>
<path fill="none" stroke="#8b1a1a" d="M71.5,-784.214C71.5,-775.609 71.5,-766.394 71.5,-757.554"/>
<polygon fill="none" stroke="#8b1a1a" points="68.0001,-784.34 71.5,-794.34 75.0001,-784.34 68.0001,-784.34"/>
</g>
</g>
</svg>
        <g id="navigator" transform="translate(0 0)" fill="#404254">
                <rect fill="#f2f5e9" fill-opacity="0.5" stroke="#606060" stroke-width=".5" x="0" y="0" width="60" height="60"/>
                <use id="zoomplus" xlink:href="#zoomPlus" x="17" y="9" onmousedown="handleZoom(evt,'in')"/>
                <use id="zoomminus" xlink:href="#zoomMin" x="42" y="9" onmousedown="handleZoom(evt,'out')"/>
                <use id="reset" xlink:href="#resetDef" x="30" y="36" onmousedown="handleReset()"/>
                <g id="arrowUp" xlink:href="#dirArrow" transform="translate(30 24)" onmousedown="handlePan(0,-1)">
                  <use xlink:href="#rim" fill="#404040">
                        <set attributeName="fill" to="#808080" begin="arrowUp.mouseover" end="arrowUp.mouseout"/>
                  </use>
                  <path fill="none" stroke="white" stroke-width="1.5" d="M0,-3.0v7 M-2.5,-0.5L0,-3.0L2.5,-0.5"/>
                </g>
                <g id="arrowRight" xlink:href="#dirArrow" transform="rotate(90) translate(36 -43)" onmousedown="handlePan(1,0)">
                  <use xlink:href="#rim" fill="#404040">
                        <set attributeName="fill" to="#808080" begin="arrowRight.mouseover" end="arrowRight.mouseout"/>
                  </use>
                  <path fill="none" stroke="white" stroke-width="1.5" d="M0,-3.0v7 M-2.5,-0.5L0,-3.0L2.5,-0.5"/>
                </g>
                <g id="arrowDown" xlink:href="#dirArrow" transform="rotate(180) translate(-30 -48)" onmousedown="handlePan(0,1)">
                  <use xlink:href="#rim" fill="#404040">
                        <set attributeName="fill" to="#808080" begin="arrowDown.mouseover" end="arrowDown.mouseout"/>
                  </use>
                  <path fill="none" stroke="white" stroke-width="1.5" d="M0,-3.0v7 M-2.5,-0.5L0,-3.0L2.5,-0.5"/>
                </g>
                <g id="arrowLeft" xlink:href="#dirArrow" transform="rotate(270) translate(-36 17)" onmousedown="handlePan(-1,0)">
                  <use xlink:href="#rim" fill="#404040">
                        <set attributeName="fill" to="#808080" begin="arrowLeft.mouseover" end="arrowLeft.mouseout"/>
                  </use>
                  <path fill="none" stroke="white" stroke-width="1.5" d="M0,-3.0v7 M-2.5,-0.5L0,-3.0L2.5,-0.5"/>
                </g>
        </g>
        <svg viewBox="0 0 15 15" width="100%" height="30px" preserveAspectRatio="xMaxYMin meet">
         <g id="arrow_out" transform="scale(0.3 0.3)">
          <a xlink:href="class_hardware_pwm_buzzer__inherit__graph_org.svg" target="_base">
           <rect id="button" ry="5" rx="5" y="6" x="6" height="38" width="38"
                fill="#f2f5e9" fill-opacity="0.5" stroke="#606060" stroke-width="1.0"/>
           <path id="arrow"
             d="M 11.500037,31.436501 C 11.940474,20.09759 22.043105,11.32322 32.158766,21.979434 L 37.068811,17.246167 C 37.068811,17.246167 37.088388,32 37.088388,32 L 22.160133,31.978069 C 22.160133,31.978069 26.997745,27.140456 26.997745,27.140456 C 18.528582,18.264221 13.291696,25.230495 11.500037,31.436501 z"
             style="fill:#404040;"/>
          </a>
         </g>
        </svg>
</svg>
