<?xml version="1.0" encoding="UTF-8" standalone="no"?>
<!DOCTYPE svg PUBLIC "-//W3C//DTD SVG 1.1//EN"
 "http://www.w3.org/Graphics/SVG/1.1/DTD/svg11.dtd">
<!-- Generated by graphviz version 2.38.0 (20140413.2041)
 -->
<!-- Title: ICallable Pages: 1 -->
<svg width="151pt" height="447pt"
 viewBox="0.00 0.00 151.00 447.00" xmlns="http://www.w3.org/2000/svg" xmlns:xlink="http://www.w3.org/1999/xlink">
<g id="graph0" class="graph" transform="scale(1 1) rotate(0) translate(4 443)">
<title>ICallable</title>
<polygon fill="white" stroke="none" points="-4,4 -4,-443 147,-443 147,4 -4,4"/>
<!-- Node1 -->
<g id="node1" class="node"><title>Node1</title>
<polygon fill="#bfbfbf" stroke="black" points="43.5,-287.5 43.5,-344.5 99.5,-344.5 99.5,-287.5 43.5,-287.5"/>
<text text-anchor="middle" x="71.5" y="-332.5" font-family="Helvetica,sans-Serif" font-size="10.00">ICallable</text>
<polyline fill="none" stroke="black" points="43.5,-325.5 99.5,-325.5 "/>
<text text-anchor="middle" x="71.5" y="-313.5" font-family="Helvetica,sans-Serif" font-size="10.00"> </text>
<polyline fill="none" stroke="black" points="43.5,-306.5 99.5,-306.5 "/>
<text text-anchor="start" x="51.5" y="-294.5" font-family="Helvetica,sans-Serif" font-size="10.00">+ call()</text>
</g>
<!-- Node3 -->
<g id="node3" class="node"><title>Node3</title>
<g id="a_node3"><a xlink:href="class_scheduled_callable.html" target="_top" xlink:title="{ScheduledCallable\n||+ ScheduledCallable()\l+ ScheduledCallable()\l+ getSleepingSince()\l+ setSleeptime()\l+ getSleepTime()\l+ resetSleepTimer()\l}">
<polygon fill="white" stroke="black" points="10,-138.5 10,-250.5 133,-250.5 133,-138.5 10,-138.5"/>
<text text-anchor="middle" x="71.5" y="-238.5" font-family="Helvetica,sans-Serif" font-size="10.00">ScheduledCallable</text>
<polyline fill="none" stroke="black" points="10,-231.5 133,-231.5 "/>
<text text-anchor="middle" x="71.5" y="-219.5" font-family="Helvetica,sans-Serif" font-size="10.00"> </text>
<polyline fill="none" stroke="black" points="10,-212.5 133,-212.5 "/>
<text text-anchor="start" x="18" y="-200.5" font-family="Helvetica,sans-Serif" font-size="10.00">+ ScheduledCallable()</text>
<text text-anchor="start" x="18" y="-189.5" font-family="Helvetica,sans-Serif" font-size="10.00">+ ScheduledCallable()</text>
<text text-anchor="start" x="18" y="-178.5" font-family="Helvetica,sans-Serif" font-size="10.00">+ getSleepingSince()</text>
<text text-anchor="start" x="18" y="-167.5" font-family="Helvetica,sans-Serif" font-size="10.00">+ setSleeptime()</text>
<text text-anchor="start" x="18" y="-156.5" font-family="Helvetica,sans-Serif" font-size="10.00">+ getSleepTime()</text>
<text text-anchor="start" x="18" y="-145.5" font-family="Helvetica,sans-Serif" font-size="10.00">+ resetSleepTimer()</text>
</a>
</g>
</g>
<!-- Node1&#45;&gt;Node3 -->
<g id="edge2" class="edge"><title>Node1&#45;&gt;Node3</title>
<path fill="none" stroke="midnightblue" d="M71.5,-277.108C71.5,-268.748 71.5,-259.725 71.5,-250.834"/>
<polygon fill="none" stroke="midnightblue" points="68.0001,-277.284 71.5,-287.284 75.0001,-277.284 68.0001,-277.284"/>
</g>
<!-- Node2 -->
<g id="node2" class="node"><title>Node2</title>
<g id="a_node2"><a xlink:href="class_non_copyable.html" target="_top" xlink:title="{NonCopyable\&lt; ICallable \&gt;\n||+ NonCopyable()\l}">
<polygon fill="white" stroke="black" points="0,-381.5 0,-438.5 143,-438.5 143,-381.5 0,-381.5"/>
<text text-anchor="middle" x="71.5" y="-426.5" font-family="Helvetica,sans-Serif" font-size="10.00">NonCopyable&lt; ICallable &gt;</text>
<polyline fill="none" stroke="black" points="0,-419.5 143,-419.5 "/>
<text text-anchor="middle" x="71.5" y="-407.5" font-family="Helvetica,sans-Serif" font-size="10.00"> </text>
<polyline fill="none" stroke="black" points="0,-400.5 143,-400.5 "/>
<text text-anchor="start" x="8" y="-388.5" font-family="Helvetica,sans-Serif" font-size="10.00">+ NonCopyable()</text>
</a>
</g>
</g>
<!-- Node2&#45;&gt;Node1 -->
<g id="edge1" class="edge"><title>Node2&#45;&gt;Node1</title>
<path fill="none" stroke="#8b1a1a" d="M71.5,-371.209C71.5,-362.293 71.5,-352.951 71.5,-344.584"/>
<polygon fill="none" stroke="#8b1a1a" points="68.0001,-371.397 71.5,-381.397 75.0001,-371.397 68.0001,-371.397"/>
</g>
<!-- Node4 -->
<g id="node4" class="node"><title>Node4</title>
<g id="a_node4"><a xlink:href="class_ticker.html" target="_top" xlink:title="{Ticker\n||+ Ticker()\l+ ~Ticker()\l+ attach()\l+ detach()\l+ call()\l}">
<polygon fill="white" stroke="black" points="36,-0.5 36,-101.5 107,-101.5 107,-0.5 36,-0.5"/>
<text text-anchor="middle" x="71.5" y="-89.5" font-family="Helvetica,sans-Serif" font-size="10.00">Ticker</text>
<polyline fill="none" stroke="black" points="36,-82.5 107,-82.5 "/>
<text text-anchor="middle" x="71.5" y="-70.5" font-family="Helvetica,sans-Serif" font-size="10.00"> </text>
<polyline fill="none" stroke="black" points="36,-63.5 107,-63.5 "/>
<text text-anchor="start" x="44" y="-51.5" font-family="Helvetica,sans-Serif" font-size="10.00">+ Ticker()</text>
<text text-anchor="start" x="44" y="-40.5" font-family="Helvetica,sans-Serif" font-size="10.00">+ ~Ticker()</text>
<text text-anchor="start" x="44" y="-29.5" font-family="Helvetica,sans-Serif" font-size="10.00">+ attach()</text>
<text text-anchor="start" x="44" y="-18.5" font-family="Helvetica,sans-Serif" font-size="10.00">+ detach()</text>
<text text-anchor="start" x="44" y="-7.5" font-family="Helvetica,sans-Serif" font-size="10.00">+ call()</text>
</a>
</g>
</g>
<!-- Node3&#45;&gt;Node4 -->
<g id="edge3" class="edge"><title>Node3&#45;&gt;Node4</title>
<path fill="none" stroke="midnightblue" d="M71.5,-128.344C71.5,-119.375 71.5,-110.286 71.5,-101.658"/>
<polygon fill="none" stroke="midnightblue" points="68.0001,-128.387 71.5,-138.387 75.0001,-128.387 68.0001,-128.387"/>
</g>
</g>
</svg>
