<?xml version="1.0" encoding="UTF-8" standalone="no"?>
<!DOCTYPE svg PUBLIC "-//W3C//DTD SVG 1.1//EN"
 "http://www.w3.org/Graphics/SVG/1.1/DTD/svg11.dtd">
<!-- Generated by graphviz version 2.38.0 (20140413.2041)
 -->
<!-- Title: PCooling Pages: 1 -->
<svg width="766pt" height="1812pt"
 viewBox="0.00 0.00 766.34 1812.00" xmlns="http://www.w3.org/2000/svg" xmlns:xlink="http://www.w3.org/1999/xlink">
<g id="graph0" class="graph" transform="scale(1 1) rotate(0) translate(4 1808)">
<title>PCooling</title>
<polygon fill="white" stroke="none" points="-4,4 -4,-1808 762.339,-1808 762.339,4 -4,4"/>
<!-- Node1 -->
<g id="node1" class="node"><title>Node1</title>
<polygon fill="#bfbfbf" stroke="black" points="309.839,-0.5 309.839,-68.5 386.839,-68.5 386.839,-0.5 309.839,-0.5"/>
<text text-anchor="middle" x="348.339" y="-56.5" font-family="Helvetica,sans-Serif" font-size="10.00">PCooling</text>
<polyline fill="none" stroke="black" points="309.839,-49.5 386.839,-49.5 "/>
<text text-anchor="middle" x="348.339" y="-37.5" font-family="Helvetica,sans-Serif" font-size="10.00"> </text>
<polyline fill="none" stroke="black" points="309.839,-30.5 386.839,-30.5 "/>
<text text-anchor="start" x="317.839" y="-18.5" font-family="Helvetica,sans-Serif" font-size="10.00">+ PCooling()</text>
<text text-anchor="start" x="317.839" y="-7.5" font-family="Helvetica,sans-Serif" font-size="10.00">+ run()</text>
</g>
<!-- Node2 -->
<g id="node2" class="node"><title>Node2</title>
<g id="a_node2"><a xlink:href="class_i_program.html" target="_top" xlink:title="{IProgram\n||}">
<polygon fill="white" stroke="black" points="268.339,-870.5 268.339,-927.5 328.339,-927.5 328.339,-870.5 268.339,-870.5"/>
<text text-anchor="middle" x="298.339" y="-915.5" font-family="Helvetica,sans-Serif" font-size="10.00">IProgram</text>
<polyline fill="none" stroke="black" points="268.339,-908.5 328.339,-908.5 "/>
<text text-anchor="middle" x="298.339" y="-896.5" font-family="Helvetica,sans-Serif" font-size="10.00"> </text>
<polyline fill="none" stroke="black" points="268.339,-889.5 328.339,-889.5 "/>
<text text-anchor="middle" x="298.339" y="-877.5" font-family="Helvetica,sans-Serif" font-size="10.00"> </text>
</a>
</g>
</g>
<!-- Node2&#45;&gt;Node1 -->
<g id="edge1" class="edge"><title>Node2&#45;&gt;Node1</title>
<path fill="none" stroke="midnightblue" d="M300.531,-860.177C308.876,-716.235 338.576,-203.917 346.425,-68.5187"/>
<polygon fill="none" stroke="midnightblue" points="297.03,-860.094 299.946,-870.28 304.019,-860.499 297.03,-860.094"/>
</g>
<!-- Node3 -->
<g id="node3" class="node"><title>Node3</title>
<g id="a_node3"><a xlink:href="class_i_runable.html" target="_top" xlink:title="{IRunable\n||+ IRunable()\l+ run()\l+ setStatus()\l+ getStatus()\l}">
<polygon fill="white" stroke="black" points="285.839,-1269 285.839,-1359 368.839,-1359 368.839,-1269 285.839,-1269"/>
<text text-anchor="middle" x="327.339" y="-1347" font-family="Helvetica,sans-Serif" font-size="10.00">IRunable</text>
<polyline fill="none" stroke="black" points="285.839,-1340 368.839,-1340 "/>
<text text-anchor="middle" x="327.339" y="-1328" font-family="Helvetica,sans-Serif" font-size="10.00"> </text>
<polyline fill="none" stroke="black" points="285.839,-1321 368.839,-1321 "/>
<text text-anchor="start" x="293.839" y="-1309" font-family="Helvetica,sans-Serif" font-size="10.00">+ IRunable()</text>
<text text-anchor="start" x="293.839" y="-1298" font-family="Helvetica,sans-Serif" font-size="10.00">+ run()</text>
<text text-anchor="start" x="293.839" y="-1287" font-family="Helvetica,sans-Serif" font-size="10.00">+ setStatus()</text>
<text text-anchor="start" x="293.839" y="-1276" font-family="Helvetica,sans-Serif" font-size="10.00">+ getStatus()</text>
</a>
</g>
</g>
<!-- Node3&#45;&gt;Node2 -->
<g id="edge2" class="edge"><title>Node3&#45;&gt;Node2</title>
<path fill="none" stroke="midnightblue" d="M323.52,-1258.62C317.257,-1169.42 305.023,-995.188 300.281,-927.664"/>
<polygon fill="none" stroke="midnightblue" points="320.043,-1259.07 324.235,-1268.8 327.026,-1258.58 320.043,-1259.07"/>
</g>
<!-- Node8 -->
<g id="node8" class="node"><title>Node8</title>
<g id="a_node8"><a xlink:href="class_i_service.html" target="_top" xlink:title="{IService\n||}">
<polygon fill="white" stroke="black" points="392.339,-745 392.339,-802 446.339,-802 446.339,-745 392.339,-745"/>
<text text-anchor="middle" x="419.339" y="-790" font-family="Helvetica,sans-Serif" font-size="10.00">IService</text>
<polyline fill="none" stroke="black" points="392.339,-783 446.339,-783 "/>
<text text-anchor="middle" x="419.339" y="-771" font-family="Helvetica,sans-Serif" font-size="10.00"> </text>
<polyline fill="none" stroke="black" points="392.339,-764 446.339,-764 "/>
<text text-anchor="middle" x="419.339" y="-752" font-family="Helvetica,sans-Serif" font-size="10.00"> </text>
</a>
</g>
</g>
<!-- Node3&#45;&gt;Node8 -->
<g id="edge8" class="edge"><title>Node3&#45;&gt;Node8</title>
<path fill="none" stroke="midnightblue" d="M329.262,-1258.56C332.619,-1186.42 341.525,-1055.5 364.339,-946 375.149,-894.115 395.755,-835.753 408.447,-802.237"/>
<polygon fill="none" stroke="midnightblue" points="325.756,-1258.62 328.806,-1268.76 332.749,-1258.93 325.756,-1258.62"/>
</g>
<!-- Node15 -->
<g id="node15" class="node"><title>Node15</title>
<g id="a_node15"><a xlink:href="class_sync.html" target="_top" xlink:title="{Sync\n||+ Sync()\l+ addComponent()\l+ addBridge()\l+ receive()\l+ send()\l+ run()\l+ messageInQueue()\l+ finalize()\l+ Sync()\l+ receive()\land 7 more...\l}">
<polygon fill="white" stroke="black" points="373.839,-946.5 373.839,-1113.5 492.839,-1113.5 492.839,-946.5 373.839,-946.5"/>
<text text-anchor="middle" x="433.339" y="-1101.5" font-family="Helvetica,sans-Serif" font-size="10.00">Sync</text>
<polyline fill="none" stroke="black" points="373.839,-1094.5 492.839,-1094.5 "/>
<text text-anchor="middle" x="433.339" y="-1082.5" font-family="Helvetica,sans-Serif" font-size="10.00"> </text>
<polyline fill="none" stroke="black" points="373.839,-1075.5 492.839,-1075.5 "/>
<text text-anchor="start" x="381.839" y="-1063.5" font-family="Helvetica,sans-Serif" font-size="10.00">+ Sync()</text>
<text text-anchor="start" x="381.839" y="-1052.5" font-family="Helvetica,sans-Serif" font-size="10.00">+ addComponent()</text>
<text text-anchor="start" x="381.839" y="-1041.5" font-family="Helvetica,sans-Serif" font-size="10.00">+ addBridge()</text>
<text text-anchor="start" x="381.839" y="-1030.5" font-family="Helvetica,sans-Serif" font-size="10.00">+ receive()</text>
<text text-anchor="start" x="381.839" y="-1019.5" font-family="Helvetica,sans-Serif" font-size="10.00">+ send()</text>
<text text-anchor="start" x="381.839" y="-1008.5" font-family="Helvetica,sans-Serif" font-size="10.00">+ run()</text>
<text text-anchor="start" x="381.839" y="-997.5" font-family="Helvetica,sans-Serif" font-size="10.00">+ messageInQueue()</text>
<text text-anchor="start" x="381.839" y="-986.5" font-family="Helvetica,sans-Serif" font-size="10.00">+ finalize()</text>
<text text-anchor="start" x="381.839" y="-975.5" font-family="Helvetica,sans-Serif" font-size="10.00">+ Sync()</text>
<text text-anchor="start" x="381.839" y="-964.5" font-family="Helvetica,sans-Serif" font-size="10.00">+ receive()</text>
<text text-anchor="start" x="381.839" y="-953.5" font-family="Helvetica,sans-Serif" font-size="10.00">and 7 more...</text>
</a>
</g>
</g>
<!-- Node3&#45;&gt;Node15 -->
<g id="edge22" class="edge"><title>Node3&#45;&gt;Node15</title>
<path fill="none" stroke="midnightblue" d="M342.066,-1259.37C356.097,-1218.2 377.475,-1160.64 396.08,-1113.61"/>
<polygon fill="none" stroke="midnightblue" points="338.718,-1258.34 338.839,-1268.94 345.351,-1260.58 338.718,-1258.34"/>
</g>
<!-- Node3&#45;&gt;Node15 -->
<g id="edge23" class="edge"><title>Node3&#45;&gt;Node15</title>
<path fill="none" stroke="midnightblue" d="M352.824,-1259.63C369.754,-1218.45 391.706,-1160.74 408.494,-1113.61"/>
<polygon fill="none" stroke="midnightblue" points="349.561,-1258.36 348.964,-1268.94 356.027,-1261.04 349.561,-1258.36"/>
</g>
<!-- Node4 -->
<g id="node4" class="node"><title>Node4</title>
<g id="a_node4"><a xlink:href="class_i_component.html" target="_top" xlink:title="{IComponent\n||+ IComponent()\l+ IComponent()\l+ setComponentSubId()\l+ getComponentType()\l+ getComponentSubId()\l+ getComponentId()\l+ getObjectType()\l# setComponentType()\l# setObjectType()\l}">
<polygon fill="white" stroke="black" points="235.339,-1435.5 235.339,-1580.5 369.339,-1580.5 369.339,-1435.5 235.339,-1435.5"/>
<text text-anchor="middle" x="302.339" y="-1568.5" font-family="Helvetica,sans-Serif" font-size="10.00">IComponent</text>
<polyline fill="none" stroke="black" points="235.339,-1561.5 369.339,-1561.5 "/>
<text text-anchor="middle" x="302.339" y="-1549.5" font-family="Helvetica,sans-Serif" font-size="10.00"> </text>
<polyline fill="none" stroke="black" points="235.339,-1542.5 369.339,-1542.5 "/>
<text text-anchor="start" x="243.339" y="-1530.5" font-family="Helvetica,sans-Serif" font-size="10.00">+ IComponent()</text>
<text text-anchor="start" x="243.339" y="-1519.5" font-family="Helvetica,sans-Serif" font-size="10.00">+ IComponent()</text>
<text text-anchor="start" x="243.339" y="-1508.5" font-family="Helvetica,sans-Serif" font-size="10.00">+ setComponentSubId()</text>
<text text-anchor="start" x="243.339" y="-1497.5" font-family="Helvetica,sans-Serif" font-size="10.00">+ getComponentType()</text>
<text text-anchor="start" x="243.339" y="-1486.5" font-family="Helvetica,sans-Serif" font-size="10.00">+ getComponentSubId()</text>
<text text-anchor="start" x="243.339" y="-1475.5" font-family="Helvetica,sans-Serif" font-size="10.00">+ getComponentId()</text>
<text text-anchor="start" x="243.339" y="-1464.5" font-family="Helvetica,sans-Serif" font-size="10.00">+ getObjectType()</text>
<text text-anchor="start" x="243.339" y="-1453.5" font-family="Helvetica,sans-Serif" font-size="10.00"># setComponentType()</text>
<text text-anchor="start" x="243.339" y="-1442.5" font-family="Helvetica,sans-Serif" font-size="10.00"># setObjectType()</text>
</a>
</g>
</g>
<!-- Node4&#45;&gt;Node3 -->
<g id="edge3" class="edge"><title>Node4&#45;&gt;Node3</title>
<path fill="none" stroke="midnightblue" d="M312.984,-1425.24C315.941,-1402.54 319.038,-1378.75 321.596,-1359.1"/>
<polygon fill="none" stroke="midnightblue" points="309.504,-1424.87 311.683,-1435.23 316.445,-1425.77 309.504,-1424.87"/>
</g>
<!-- Node9 -->
<g id="node9" class="node"><title>Node9</title>
<g id="a_node9"><a xlink:href="class_i_motor_controller.html" target="_top" xlink:title="{IMotorController\n||+ IMotorController()\l+ getState()\l+ setState()\l+ setTorque()\l+ getSpeed()\l+ getCurrent()\l+ getMotorTemp()\l+ getServoTemp()\l+ getAirTemp()\l+ setRFE()\land 6 more...\l}">
<polygon fill="white" stroke="black" points="167.339,-422.5 167.339,-589.5 279.339,-589.5 279.339,-422.5 167.339,-422.5"/>
<text text-anchor="middle" x="223.339" y="-577.5" font-family="Helvetica,sans-Serif" font-size="10.00">IMotorController</text>
<polyline fill="none" stroke="black" points="167.339,-570.5 279.339,-570.5 "/>
<text text-anchor="middle" x="223.339" y="-558.5" font-family="Helvetica,sans-Serif" font-size="10.00"> </text>
<polyline fill="none" stroke="black" points="167.339,-551.5 279.339,-551.5 "/>
<text text-anchor="start" x="175.339" y="-539.5" font-family="Helvetica,sans-Serif" font-size="10.00">+ IMotorController()</text>
<text text-anchor="start" x="175.339" y="-528.5" font-family="Helvetica,sans-Serif" font-size="10.00">+ getState()</text>
<text text-anchor="start" x="175.339" y="-517.5" font-family="Helvetica,sans-Serif" font-size="10.00">+ setState()</text>
<text text-anchor="start" x="175.339" y="-506.5" font-family="Helvetica,sans-Serif" font-size="10.00">+ setTorque()</text>
<text text-anchor="start" x="175.339" y="-495.5" font-family="Helvetica,sans-Serif" font-size="10.00">+ getSpeed()</text>
<text text-anchor="start" x="175.339" y="-484.5" font-family="Helvetica,sans-Serif" font-size="10.00">+ getCurrent()</text>
<text text-anchor="start" x="175.339" y="-473.5" font-family="Helvetica,sans-Serif" font-size="10.00">+ getMotorTemp()</text>
<text text-anchor="start" x="175.339" y="-462.5" font-family="Helvetica,sans-Serif" font-size="10.00">+ getServoTemp()</text>
<text text-anchor="start" x="175.339" y="-451.5" font-family="Helvetica,sans-Serif" font-size="10.00">+ getAirTemp()</text>
<text text-anchor="start" x="175.339" y="-440.5" font-family="Helvetica,sans-Serif" font-size="10.00">+ setRFE()</text>
<text text-anchor="start" x="175.339" y="-429.5" font-family="Helvetica,sans-Serif" font-size="10.00">and 6 more...</text>
</a>
</g>
</g>
<!-- Node4&#45;&gt;Node9 -->
<g id="edge10" class="edge"><title>Node4&#45;&gt;Node9</title>
<path fill="none" stroke="midnightblue" d="M262.681,-1426.17C249.604,-1392.6 238.339,-1352.74 238.339,-1315 238.339,-1315 238.339,-1315 238.339,-772.5 238.339,-711.213 234.305,-642.095 230.422,-589.747"/>
<polygon fill="none" stroke="midnightblue" points="259.438,-1427.49 266.41,-1435.47 265.935,-1424.88 259.438,-1427.49"/>
</g>
<!-- Node10 -->
<g id="node10" class="node"><title>Node10</title>
<g id="a_node10"><a xlink:href="class_i_hv_enabled.html" target="_top" xlink:title="{IHvEnabled\n||+ IHvEnabled()\l+ read()\l+ operator bool()\l}">
<polygon fill="white" stroke="black" points="642.339,-1132.5 642.339,-1211.5 742.339,-1211.5 742.339,-1132.5 642.339,-1132.5"/>
<text text-anchor="middle" x="692.339" y="-1199.5" font-family="Helvetica,sans-Serif" font-size="10.00">IHvEnabled</text>
<polyline fill="none" stroke="black" points="642.339,-1192.5 742.339,-1192.5 "/>
<text text-anchor="middle" x="692.339" y="-1180.5" font-family="Helvetica,sans-Serif" font-size="10.00"> </text>
<polyline fill="none" stroke="black" points="642.339,-1173.5 742.339,-1173.5 "/>
<text text-anchor="start" x="650.339" y="-1161.5" font-family="Helvetica,sans-Serif" font-size="10.00">+ IHvEnabled()</text>
<text text-anchor="start" x="650.339" y="-1150.5" font-family="Helvetica,sans-Serif" font-size="10.00">+ read()</text>
<text text-anchor="start" x="650.339" y="-1139.5" font-family="Helvetica,sans-Serif" font-size="10.00">+ operator bool()</text>
</a>
</g>
</g>
<!-- Node4&#45;&gt;Node10 -->
<g id="edge12" class="edge"><title>Node4&#45;&gt;Node10</title>
<path fill="none" stroke="midnightblue" d="M376.654,-1445.74C390.52,-1431.32 403.668,-1415.12 413.339,-1398 451.084,-1331.17 395.511,-1280.47 453.339,-1230 484.126,-1203.13 597.998,-1226.13 636.339,-1212 638.34,-1211.26 640.336,-1210.44 642.319,-1209.54"/>
<polygon fill="none" stroke="midnightblue" points="373.903,-1443.54 369.353,-1453.11 378.877,-1448.47 373.903,-1443.54"/>
</g>
<!-- Node14 -->
<g id="node14" class="node"><title>Node14</title>
<g id="a_node14"><a xlink:href="class_i_communication.html" target="_top" xlink:title="{ICommunication\n||+ receive()\l}">
<polygon fill="white" stroke="black" points="401.839,-1143.5 401.839,-1200.5 496.839,-1200.5 496.839,-1143.5 401.839,-1143.5"/>
<text text-anchor="middle" x="449.339" y="-1188.5" font-family="Helvetica,sans-Serif" font-size="10.00">ICommunication</text>
<polyline fill="none" stroke="black" points="401.839,-1181.5 496.839,-1181.5 "/>
<text text-anchor="middle" x="449.339" y="-1169.5" font-family="Helvetica,sans-Serif" font-size="10.00"> </text>
<polyline fill="none" stroke="black" points="401.839,-1162.5 496.839,-1162.5 "/>
<text text-anchor="start" x="409.839" y="-1150.5" font-family="Helvetica,sans-Serif" font-size="10.00">+ receive()</text>
</a>
</g>
</g>
<!-- Node4&#45;&gt;Node14 -->
<g id="edge20" class="edge"><title>Node4&#45;&gt;Node14</title>
<path fill="none" stroke="midnightblue" d="M361.946,-1426.88C367.627,-1417.42 372.909,-1407.67 377.339,-1398 409.474,-1327.82 394.41,-1302.34 421.339,-1230 424.993,-1220.18 429.791,-1209.8 434.381,-1200.63"/>
<polygon fill="none" stroke="midnightblue" points="358.906,-1425.15 356.629,-1435.49 364.862,-1428.82 358.906,-1425.15"/>
</g>
<!-- Node18 -->
<g id="node18" class="node"><title>Node18</title>
<g id="a_node18"><a xlink:href="class_i_fan.html" target="_top" xlink:title="{IFan\n||+ setState()\l+ getState()\l}">
<polygon fill="white" stroke="black" points="11.8388,-608.5 11.8388,-676.5 88.8388,-676.5 88.8388,-608.5 11.8388,-608.5"/>
<text text-anchor="middle" x="50.3388" y="-664.5" font-family="Helvetica,sans-Serif" font-size="10.00">IFan</text>
<polyline fill="none" stroke="black" points="11.8388,-657.5 88.8388,-657.5 "/>
<text text-anchor="middle" x="50.3388" y="-645.5" font-family="Helvetica,sans-Serif" font-size="10.00"> </text>
<polyline fill="none" stroke="black" points="11.8388,-638.5 88.8388,-638.5 "/>
<text text-anchor="start" x="19.8388" y="-626.5" font-family="Helvetica,sans-Serif" font-size="10.00">+ setState()</text>
<text text-anchor="start" x="19.8388" y="-615.5" font-family="Helvetica,sans-Serif" font-size="10.00">+ getState()</text>
</a>
</g>
</g>
<!-- Node4&#45;&gt;Node18 -->
<g id="edge27" class="edge"><title>Node4&#45;&gt;Node18</title>
<path fill="none" stroke="midnightblue" d="M225.272,-1486.65C186.541,-1472.82 141.72,-1450.76 112.339,-1417 81.1457,-1381.16 80.3388,-1362.51 80.3388,-1315 80.3388,-1315 80.3388,-1315 80.3388,-898 80.3388,-818.141 65.5896,-725.149 56.7746,-676.703"/>
<polygon fill="none" stroke="midnightblue" points="224.38,-1490.05 234.975,-1489.99 226.659,-1483.43 224.38,-1490.05"/>
</g>
<!-- Node19 -->
<g id="node19" class="node"><title>Node19</title>
<g id="a_node19"><a xlink:href="class_i_pump.html" target="_top" xlink:title="{IPump\n||+ IPump()\l+ setSpeed()\l+ getSpeed()\l+ setEnable()\l+ getEnable()\l+ getLogValueCount()\l+ getLogValue()\l}">
<polygon fill="white" stroke="black" points="51.8388,-280.5 51.8388,-403.5 174.839,-403.5 174.839,-280.5 51.8388,-280.5"/>
<text text-anchor="middle" x="113.339" y="-391.5" font-family="Helvetica,sans-Serif" font-size="10.00">IPump</text>
<polyline fill="none" stroke="black" points="51.8388,-384.5 174.839,-384.5 "/>
<text text-anchor="middle" x="113.339" y="-372.5" font-family="Helvetica,sans-Serif" font-size="10.00"> </text>
<polyline fill="none" stroke="black" points="51.8388,-365.5 174.839,-365.5 "/>
<text text-anchor="start" x="59.8388" y="-353.5" font-family="Helvetica,sans-Serif" font-size="10.00">+ IPump()</text>
<text text-anchor="start" x="59.8388" y="-342.5" font-family="Helvetica,sans-Serif" font-size="10.00">+ setSpeed()</text>
<text text-anchor="start" x="59.8388" y="-331.5" font-family="Helvetica,sans-Serif" font-size="10.00">+ getSpeed()</text>
<text text-anchor="start" x="59.8388" y="-320.5" font-family="Helvetica,sans-Serif" font-size="10.00">+ setEnable()</text>
<text text-anchor="start" x="59.8388" y="-309.5" font-family="Helvetica,sans-Serif" font-size="10.00">+ getEnable()</text>
<text text-anchor="start" x="59.8388" y="-298.5" font-family="Helvetica,sans-Serif" font-size="10.00">+ getLogValueCount()</text>
<text text-anchor="start" x="59.8388" y="-287.5" font-family="Helvetica,sans-Serif" font-size="10.00">+ getLogValue()</text>
</a>
</g>
</g>
<!-- Node4&#45;&gt;Node19 -->
<g id="edge29" class="edge"><title>Node4&#45;&gt;Node19</title>
<path fill="none" stroke="midnightblue" d="M226.768,-1463.52C179.042,-1429.86 126.339,-1378.35 126.339,-1315 126.339,-1315 126.339,-1315 126.339,-641.5 126.339,-559.023 121.324,-463.85 117.524,-403.567"/>
<polygon fill="none" stroke="midnightblue" points="225.076,-1466.6 235.299,-1469.39 229.044,-1460.84 225.076,-1466.6"/>
</g>
<!-- Node5 -->
<g id="node5" class="node"><title>Node5</title>
<g id="a_node5"><a xlink:href="class_i_logable.html" target="_top" xlink:title="{ILogable\n||+ setStatus()\l+ getStatus()\l+ getLogValueCount()\l+ getLogValue()\l}">
<polygon fill="white" stroke="black" points="240.839,-1618.5 240.839,-1708.5 363.839,-1708.5 363.839,-1618.5 240.839,-1618.5"/>
<text text-anchor="middle" x="302.339" y="-1696.5" font-family="Helvetica,sans-Serif" font-size="10.00">ILogable</text>
<polyline fill="none" stroke="black" points="240.839,-1689.5 363.839,-1689.5 "/>
<text text-anchor="middle" x="302.339" y="-1677.5" font-family="Helvetica,sans-Serif" font-size="10.00"> </text>
<polyline fill="none" stroke="black" points="240.839,-1670.5 363.839,-1670.5 "/>
<text text-anchor="start" x="248.839" y="-1658.5" font-family="Helvetica,sans-Serif" font-size="10.00">+ setStatus()</text>
<text text-anchor="start" x="248.839" y="-1647.5" font-family="Helvetica,sans-Serif" font-size="10.00">+ getStatus()</text>
<text text-anchor="start" x="248.839" y="-1636.5" font-family="Helvetica,sans-Serif" font-size="10.00">+ getLogValueCount()</text>
<text text-anchor="start" x="248.839" y="-1625.5" font-family="Helvetica,sans-Serif" font-size="10.00">+ getLogValue()</text>
</a>
</g>
</g>
<!-- Node5&#45;&gt;Node4 -->
<g id="edge4" class="edge"><title>Node5&#45;&gt;Node4</title>
<path fill="none" stroke="midnightblue" d="M302.339,-1607.98C302.339,-1599.16 302.339,-1589.92 302.339,-1580.77"/>
<polygon fill="none" stroke="midnightblue" points="298.839,-1608.1 302.339,-1618.1 305.839,-1608.1 298.839,-1608.1"/>
</g>
<!-- Node6 -->
<g id="node6" class="node"><title>Node6</title>
<g id="a_node6"><a xlink:href="class_non_copyable.html" target="_top" xlink:title="{NonCopyable\&lt; ILogable \&gt;\n||+ NonCopyable()\l}">
<polygon fill="white" stroke="black" points="230.839,-1746.5 230.839,-1803.5 373.839,-1803.5 373.839,-1746.5 230.839,-1746.5"/>
<text text-anchor="middle" x="302.339" y="-1791.5" font-family="Helvetica,sans-Serif" font-size="10.00">NonCopyable&lt; ILogable &gt;</text>
<polyline fill="none" stroke="black" points="230.839,-1784.5 373.839,-1784.5 "/>
<text text-anchor="middle" x="302.339" y="-1772.5" font-family="Helvetica,sans-Serif" font-size="10.00"> </text>
<polyline fill="none" stroke="black" points="230.839,-1765.5 373.839,-1765.5 "/>
<text text-anchor="start" x="238.839" y="-1753.5" font-family="Helvetica,sans-Serif" font-size="10.00">+ NonCopyable()</text>
</a>
</g>
</g>
<!-- Node6&#45;&gt;Node5 -->
<g id="edge5" class="edge"><title>Node6&#45;&gt;Node5</title>
<path fill="none" stroke="#8b1a1a" d="M302.339,-1736.31C302.339,-1727.43 302.339,-1717.88 302.339,-1708.74"/>
<polygon fill="none" stroke="#8b1a1a" points="298.839,-1736.37 302.339,-1746.37 305.839,-1736.37 298.839,-1736.37"/>
</g>
<!-- Node7 -->
<g id="node7" class="node"><title>Node7</title>
<g id="a_node7"><a xlink:href="class_s_car.html" target="_top" xlink:title="{SCar\n||+ SCar()\l+ run()\l+ addError()\l+ processErrors()\l+ getState()\l+ setState()\l+ calibrationNeeded()\l+ startUp()\l+ getMaxPower()\l+ setMaxPower()\l}">
<polygon fill="white" stroke="black" points="359.339,-428 359.339,-584 481.339,-584 481.339,-428 359.339,-428"/>
<text text-anchor="middle" x="420.339" y="-572" font-family="Helvetica,sans-Serif" font-size="10.00">SCar</text>
<polyline fill="none" stroke="black" points="359.339,-565 481.339,-565 "/>
<text text-anchor="middle" x="420.339" y="-553" font-family="Helvetica,sans-Serif" font-size="10.00"> </text>
<polyline fill="none" stroke="black" points="359.339,-546 481.339,-546 "/>
<text text-anchor="start" x="367.339" y="-534" font-family="Helvetica,sans-Serif" font-size="10.00">+ SCar()</text>
<text text-anchor="start" x="367.339" y="-523" font-family="Helvetica,sans-Serif" font-size="10.00">+ run()</text>
<text text-anchor="start" x="367.339" y="-512" font-family="Helvetica,sans-Serif" font-size="10.00">+ addError()</text>
<text text-anchor="start" x="367.339" y="-501" font-family="Helvetica,sans-Serif" font-size="10.00">+ processErrors()</text>
<text text-anchor="start" x="367.339" y="-490" font-family="Helvetica,sans-Serif" font-size="10.00">+ getState()</text>
<text text-anchor="start" x="367.339" y="-479" font-family="Helvetica,sans-Serif" font-size="10.00">+ setState()</text>
<text text-anchor="start" x="367.339" y="-468" font-family="Helvetica,sans-Serif" font-size="10.00">+ calibrationNeeded()</text>
<text text-anchor="start" x="367.339" y="-457" font-family="Helvetica,sans-Serif" font-size="10.00">+ startUp()</text>
<text text-anchor="start" x="367.339" y="-446" font-family="Helvetica,sans-Serif" font-size="10.00">+ getMaxPower()</text>
<text text-anchor="start" x="367.339" y="-435" font-family="Helvetica,sans-Serif" font-size="10.00">+ setMaxPower()</text>
</a>
</g>
</g>
<!-- Node7&#45;&gt;Node1 -->
<g id="edge6" class="edge"><title>Node7&#45;&gt;Node1</title>
<path fill="none" stroke="#404040" d="M407.189,-427.917C399.16,-380.175 388.838,-317.577 380.339,-262 370.736,-199.204 360.64,-126.451 354.416,-80.701"/>
<polygon fill="none" stroke="#404040" points="354.38,-80.4352 349.61,-75.0274 352.767,-68.5441 357.537,-73.952 354.38,-80.4352"/>
<text text-anchor="middle" x="413.839" y="-186.5" font-family="Helvetica,sans-Serif" font-size="10.00"> #_carService</text>
</g>
<!-- Node11 -->
<g id="node11" class="node"><title>Node11</title>
<g id="a_node11"><a xlink:href="class_s_speed.html" target="_top" xlink:title="{SSpeed\n|# _speed\l|+ SSpeed()\l+ run()\l+ getSpeed()\l# _getSpeed()\l# _getSpeed()\l# _getSpeed()\l# _checkPlausibility()\l# _setThrottle()\l# _map()\l}">
<polygon fill="white" stroke="black" points="456.339,-116.5 456.339,-261.5 574.339,-261.5 574.339,-116.5 456.339,-116.5"/>
<text text-anchor="middle" x="515.339" y="-249.5" font-family="Helvetica,sans-Serif" font-size="10.00">SSpeed</text>
<polyline fill="none" stroke="black" points="456.339,-242.5 574.339,-242.5 "/>
<text text-anchor="start" x="464.339" y="-230.5" font-family="Helvetica,sans-Serif" font-size="10.00"># _speed</text>
<polyline fill="none" stroke="black" points="456.339,-223.5 574.339,-223.5 "/>
<text text-anchor="start" x="464.339" y="-211.5" font-family="Helvetica,sans-Serif" font-size="10.00">+ SSpeed()</text>
<text text-anchor="start" x="464.339" y="-200.5" font-family="Helvetica,sans-Serif" font-size="10.00">+ run()</text>
<text text-anchor="start" x="464.339" y="-189.5" font-family="Helvetica,sans-Serif" font-size="10.00">+ getSpeed()</text>
<text text-anchor="start" x="464.339" y="-178.5" font-family="Helvetica,sans-Serif" font-size="10.00"># _getSpeed()</text>
<text text-anchor="start" x="464.339" y="-167.5" font-family="Helvetica,sans-Serif" font-size="10.00"># _getSpeed()</text>
<text text-anchor="start" x="464.339" y="-156.5" font-family="Helvetica,sans-Serif" font-size="10.00"># _getSpeed()</text>
<text text-anchor="start" x="464.339" y="-145.5" font-family="Helvetica,sans-Serif" font-size="10.00"># _checkPlausibility()</text>
<text text-anchor="start" x="464.339" y="-134.5" font-family="Helvetica,sans-Serif" font-size="10.00"># _setThrottle()</text>
<text text-anchor="start" x="464.339" y="-123.5" font-family="Helvetica,sans-Serif" font-size="10.00"># _map()</text>
</a>
</g>
</g>
<!-- Node7&#45;&gt;Node11 -->
<g id="edge15" class="edge"><title>Node7&#45;&gt;Node11</title>
<path fill="none" stroke="#404040" d="M409.709,-427.818C406.741,-382.953 408.649,-326.313 428.339,-280 429.865,-276.41 437.38,-267.753 447.403,-257.154"/>
<polygon fill="none" stroke="#404040" points="447.599,-256.951 448.872,-249.853 455.914,-248.298 454.641,-255.396 447.599,-256.951"/>
<text text-anchor="middle" x="461.839" y="-339.5" font-family="Helvetica,sans-Serif" font-size="10.00"> #_carService</text>
</g>
<!-- Node8&#45;&gt;Node7 -->
<g id="edge7" class="edge"><title>Node8&#45;&gt;Node7</title>
<path fill="none" stroke="midnightblue" d="M419.483,-734.199C419.63,-695.131 419.863,-633.425 420.048,-584.173"/>
<polygon fill="none" stroke="midnightblue" points="415.982,-734.576 419.444,-744.589 422.982,-734.602 415.982,-734.576"/>
</g>
<!-- Node8&#45;&gt;Node11 -->
<g id="edge14" class="edge"><title>Node8&#45;&gt;Node11</title>
<path fill="none" stroke="midnightblue" d="M435.262,-735.583C454.201,-691.027 484.056,-618.535 490.339,-590 515.175,-477.199 518.314,-342.498 517.451,-261.729"/>
<polygon fill="none" stroke="midnightblue" points="431.987,-734.34 431.282,-744.911 438.425,-737.087 431.987,-734.34"/>
</g>
<!-- Node9&#45;&gt;Node1 -->
<g id="edge9" class="edge"><title>Node9&#45;&gt;Node1</title>
<path fill="none" stroke="#404040" d="M199.661,-422.135C180.902,-339.161 165.674,-210.556 218.339,-116 235.387,-85.3916 269.409,-64.9473 298.373,-52.3224"/>
<polygon fill="none" stroke="#404040" points="298.493,-52.2731 302.517,-46.2894 309.588,-47.7026 305.564,-53.6864 298.493,-52.2731"/>
<text text-anchor="middle" x="264.839" y="-186.5" font-family="Helvetica,sans-Serif" font-size="10.00"> #_motorController</text>
</g>
<!-- Node9&#45;&gt;Node11 -->
<g id="edge16" class="edge"><title>Node9&#45;&gt;Node11</title>
<path fill="none" stroke="#404040" d="M234.933,-422.436C246.265,-373.449 268.569,-314.383 312.339,-280 358.208,-243.968 390.022,-287.793 442.339,-262 443.536,-261.41 444.726,-260.792 445.908,-260.149"/>
<polygon fill="none" stroke="#404040" points="446.092,-260.036 449.104,-253.484 456.31,-253.744 453.298,-260.296 446.092,-260.036"/>
<text text-anchor="middle" x="358.839" y="-339.5" font-family="Helvetica,sans-Serif" font-size="10.00"> #_motorController</text>
</g>
<!-- Node10&#45;&gt;Node1 -->
<g id="edge11" class="edge"><title>Node10&#45;&gt;Node1</title>
<path fill="none" stroke="#404040" d="M692.107,-1132.41C691.811,-1079.84 691.339,-982.806 691.339,-900 691.339,-900 691.339,-900 691.339,-188 691.339,-155.401 699.39,-140.009 677.339,-116 640.166,-75.5273 481.902,-51.2427 399.178,-41.0821"/>
<polygon fill="none" stroke="#404040" points="398.976,-41.058 392.542,-44.3149 387.062,-39.6287 393.495,-36.3718 398.976,-41.058"/>
<text text-anchor="middle" x="724.839" y="-640" font-family="Helvetica,sans-Serif" font-size="10.00"> #_hvEnabled</text>
</g>
<!-- Node11&#45;&gt;Node1 -->
<g id="edge13" class="edge"><title>Node11&#45;&gt;Node1</title>
<path fill="none" stroke="#404040" d="M456.314,-129.096C451.623,-124.626 446.926,-120.216 442.339,-116 427.806,-102.641 411.597,-88.502 396.787,-75.864"/>
<polygon fill="none" stroke="#404040" points="396.436,-75.5659 389.274,-74.7316 387.289,-67.799 394.451,-68.6333 396.436,-75.5659"/>
<text text-anchor="middle" x="463.339" y="-90" font-family="Helvetica,sans-Serif" font-size="10.00"> #_speedService</text>
</g>
<!-- Node12 -->
<g id="node12" class="node"><title>Node12</title>
<g id="a_node12"><a xlink:href="class_i_registry.html" target="_top" xlink:title="{IRegistry\n||+ IRegistry()\l+ getReady()\l+ setReady()\l+ getFloat()\l+ getUInt8()\l+ getUInt16()\l+ getUInt32()\l+ getInt8()\l+ getInt16()\l+ getInt32()\land 9 more...\l}">
<polygon fill="white" stroke="black" points="537.839,-422.5 537.839,-589.5 620.839,-589.5 620.839,-422.5 537.839,-422.5"/>
<text text-anchor="middle" x="579.339" y="-577.5" font-family="Helvetica,sans-Serif" font-size="10.00">IRegistry</text>
<polyline fill="none" stroke="black" points="537.839,-570.5 620.839,-570.5 "/>
<text text-anchor="middle" x="579.339" y="-558.5" font-family="Helvetica,sans-Serif" font-size="10.00"> </text>
<polyline fill="none" stroke="black" points="537.839,-551.5 620.839,-551.5 "/>
<text text-anchor="start" x="545.839" y="-539.5" font-family="Helvetica,sans-Serif" font-size="10.00">+ IRegistry()</text>
<text text-anchor="start" x="545.839" y="-528.5" font-family="Helvetica,sans-Serif" font-size="10.00">+ getReady()</text>
<text text-anchor="start" x="545.839" y="-517.5" font-family="Helvetica,sans-Serif" font-size="10.00">+ setReady()</text>
<text text-anchor="start" x="545.839" y="-506.5" font-family="Helvetica,sans-Serif" font-size="10.00">+ getFloat()</text>
<text text-anchor="start" x="545.839" y="-495.5" font-family="Helvetica,sans-Serif" font-size="10.00">+ getUInt8()</text>
<text text-anchor="start" x="545.839" y="-484.5" font-family="Helvetica,sans-Serif" font-size="10.00">+ getUInt16()</text>
<text text-anchor="start" x="545.839" y="-473.5" font-family="Helvetica,sans-Serif" font-size="10.00">+ getUInt32()</text>
<text text-anchor="start" x="545.839" y="-462.5" font-family="Helvetica,sans-Serif" font-size="10.00">+ getInt8()</text>
<text text-anchor="start" x="545.839" y="-451.5" font-family="Helvetica,sans-Serif" font-size="10.00">+ getInt16()</text>
<text text-anchor="start" x="545.839" y="-440.5" font-family="Helvetica,sans-Serif" font-size="10.00">+ getInt32()</text>
<text text-anchor="start" x="545.839" y="-429.5" font-family="Helvetica,sans-Serif" font-size="10.00">and 9 more...</text>
</a>
</g>
</g>
<!-- Node12&#45;&gt;Node1 -->
<g id="edge30" class="edge"><title>Node12&#45;&gt;Node1</title>
<path fill="none" stroke="#404040" d="M594.383,-422.463C595.166,-416.231 595.835,-410.025 596.339,-404 607.01,-276.315 659.906,-218.737 583.339,-116 540.572,-58.6164 454.501,-41.8021 399.24,-37.0734"/>
<polygon fill="none" stroke="#404040" points="399.231,-37.0728 392.954,-40.6234 387.263,-36.1955 393.539,-32.6448 399.231,-37.0728"/>
<text text-anchor="middle" x="650.839" y="-186.5" font-family="Helvetica,sans-Serif" font-size="10.00"> #_registry</text>
</g>
<!-- Node12&#45;&gt;Node11 -->
<g id="edge17" class="edge"><title>Node12&#45;&gt;Node11</title>
<path fill="none" stroke="#404040" d="M548.335,-422.476C546.493,-416.269 544.798,-410.063 543.339,-404 533.126,-361.578 526.411,-313.468 522.124,-273.623"/>
<polygon fill="none" stroke="#404040" points="522.109,-273.475 517.511,-267.919 520.871,-261.539 525.468,-267.094 522.109,-273.475"/>
<text text-anchor="middle" x="569.839" y="-339.5" font-family="Helvetica,sans-Serif" font-size="10.00"> #_registry</text>
</g>
<!-- Node13 -->
<g id="node13" class="node"><title>Node13</title>
<g id="a_node13"><a xlink:href="class_self_syncable.html" target="_top" xlink:title="{SelfSyncable\n|# _syncerAttached\l|+ attach()\l+ detach()\l# _sendCommand()\l# _sendCommand()\l# _sendCommand()\l# _send()\l# _convertFloat()\l# _reconvertFloat()\l# _disassambleFloat()\l# _reassambleFloat()\l}">
<polygon fill="white" stroke="black" points="464.339,-695.5 464.339,-851.5 588.339,-851.5 588.339,-695.5 464.339,-695.5"/>
<text text-anchor="middle" x="526.339" y="-839.5" font-family="Helvetica,sans-Serif" font-size="10.00">SelfSyncable</text>
<polyline fill="none" stroke="black" points="464.339,-832.5 588.339,-832.5 "/>
<text text-anchor="start" x="472.339" y="-820.5" font-family="Helvetica,sans-Serif" font-size="10.00"># _syncerAttached</text>
<polyline fill="none" stroke="black" points="464.339,-813.5 588.339,-813.5 "/>
<text text-anchor="start" x="472.339" y="-801.5" font-family="Helvetica,sans-Serif" font-size="10.00">+ attach()</text>
<text text-anchor="start" x="472.339" y="-790.5" font-family="Helvetica,sans-Serif" font-size="10.00">+ detach()</text>
<text text-anchor="start" x="472.339" y="-779.5" font-family="Helvetica,sans-Serif" font-size="10.00"># _sendCommand()</text>
<text text-anchor="start" x="472.339" y="-768.5" font-family="Helvetica,sans-Serif" font-size="10.00"># _sendCommand()</text>
<text text-anchor="start" x="472.339" y="-757.5" font-family="Helvetica,sans-Serif" font-size="10.00"># _sendCommand()</text>
<text text-anchor="start" x="472.339" y="-746.5" font-family="Helvetica,sans-Serif" font-size="10.00"># _send()</text>
<text text-anchor="start" x="472.339" y="-735.5" font-family="Helvetica,sans-Serif" font-size="10.00"># _convertFloat()</text>
<text text-anchor="start" x="472.339" y="-724.5" font-family="Helvetica,sans-Serif" font-size="10.00"># _reconvertFloat()</text>
<text text-anchor="start" x="472.339" y="-713.5" font-family="Helvetica,sans-Serif" font-size="10.00"># _disassambleFloat()</text>
<text text-anchor="start" x="472.339" y="-702.5" font-family="Helvetica,sans-Serif" font-size="10.00"># _reassambleFloat()</text>
</a>
</g>
</g>
<!-- Node13&#45;&gt;Node12 -->
<g id="edge18" class="edge"><title>Node13&#45;&gt;Node12</title>
<path fill="none" stroke="midnightblue" d="M543.704,-685.51C549.84,-654.77 556.721,-620.3 562.788,-589.908"/>
<polygon fill="none" stroke="midnightblue" points="540.265,-684.858 541.74,-695.35 547.13,-686.228 540.265,-684.858"/>
</g>
<!-- Node14&#45;&gt;Node13 -->
<g id="edge19" class="edge"><title>Node14&#45;&gt;Node13</title>
<path fill="none" stroke="midnightblue" d="M488.22,-1135.29C493.438,-1128.71 498.099,-1121.53 501.339,-1114 537.621,-1029.72 539.091,-922.806 534.629,-851.703"/>
<polygon fill="none" stroke="midnightblue" points="485.228,-1133.4 481.379,-1143.27 490.544,-1137.95 485.228,-1133.4"/>
</g>
<!-- Node15&#45;&gt;Node13 -->
<g id="edge21" class="edge"><title>Node15&#45;&gt;Node13</title>
<path fill="none" stroke="#404040" d="M439.723,-946.186C443.539,-921.068 449.628,-893.831 459.339,-870 460.363,-867.486 461.464,-864.973 462.631,-862.468"/>
<polygon fill="none" stroke="#404040" points="462.729,-862.273 461.86,-855.115 468.133,-851.559 469.003,-858.717 462.729,-862.273"/>
<text text-anchor="middle" x="483.839" y="-896.5" font-family="Helvetica,sans-Serif" font-size="10.00"> #_syncer</text>
</g>
<!-- Node16 -->
<g id="node16" class="node"><title>Node16</title>
<g id="a_node16"><a xlink:href="classstd_1_1vector.html" target="_top" xlink:title="{std::vector\&lt; CarMessage \&gt;\n||+ ~vector()\l+ at()\l+ operator[]()\l+ front()\l+ back()\l+ data()\l+ begin()\l+ end()\l+ empty()\l+ size()\land 7 more...\l}">
<polygon fill="white" stroke="black" points="462.839,-1230.5 462.839,-1397.5 611.839,-1397.5 611.839,-1230.5 462.839,-1230.5"/>
<text text-anchor="middle" x="537.339" y="-1385.5" font-family="Helvetica,sans-Serif" font-size="10.00">std::vector&lt; CarMessage &gt;</text>
<polyline fill="none" stroke="black" points="462.839,-1378.5 611.839,-1378.5 "/>
<text text-anchor="middle" x="537.339" y="-1366.5" font-family="Helvetica,sans-Serif" font-size="10.00"> </text>
<polyline fill="none" stroke="black" points="462.839,-1359.5 611.839,-1359.5 "/>
<text text-anchor="start" x="470.839" y="-1347.5" font-family="Helvetica,sans-Serif" font-size="10.00">+ ~vector()</text>
<text text-anchor="start" x="470.839" y="-1336.5" font-family="Helvetica,sans-Serif" font-size="10.00">+ at()</text>
<text text-anchor="start" x="470.839" y="-1325.5" font-family="Helvetica,sans-Serif" font-size="10.00">+ operator[]()</text>
<text text-anchor="start" x="470.839" y="-1314.5" font-family="Helvetica,sans-Serif" font-size="10.00">+ front()</text>
<text text-anchor="start" x="470.839" y="-1303.5" font-family="Helvetica,sans-Serif" font-size="10.00">+ back()</text>
<text text-anchor="start" x="470.839" y="-1292.5" font-family="Helvetica,sans-Serif" font-size="10.00">+ data()</text>
<text text-anchor="start" x="470.839" y="-1281.5" font-family="Helvetica,sans-Serif" font-size="10.00">+ begin()</text>
<text text-anchor="start" x="470.839" y="-1270.5" font-family="Helvetica,sans-Serif" font-size="10.00">+ end()</text>
<text text-anchor="start" x="470.839" y="-1259.5" font-family="Helvetica,sans-Serif" font-size="10.00">+ empty()</text>
<text text-anchor="start" x="470.839" y="-1248.5" font-family="Helvetica,sans-Serif" font-size="10.00">+ size()</text>
<text text-anchor="start" x="470.839" y="-1237.5" font-family="Helvetica,sans-Serif" font-size="10.00">and 7 more...</text>
</a>
</g>
</g>
<!-- Node16&#45;&gt;Node15 -->
<g id="edge24" class="edge"><title>Node16&#45;&gt;Node15</title>
<path fill="none" stroke="#404040" d="M519.854,-1230.29C509.965,-1183.78 499.365,-1134.48 498.339,-1132 497.319,-1129.53 496.239,-1127.06 495.107,-1124.59"/>
<polygon fill="none" stroke="#404040" points="495.097,-1124.57 488.873,-1120.93 489.839,-1113.78 496.063,-1117.42 495.097,-1124.57"/>
<text text-anchor="middle" x="573.839" y="-1169.5" font-family="Helvetica,sans-Serif" font-size="10.00"> +receivedCarMessages</text>
</g>
<!-- Node17 -->
<g id="node17" class="node"><title>Node17</title>
<g id="a_node17"><a xlink:href="class_non_copyable.html" target="_top" xlink:title="{NonCopyable\&lt; vector\l\&lt; CarMessage, unsigned\l int \&gt; \&gt;\n||+ NonCopyable()\l}">
<polygon fill="white" stroke="black" points="468.839,-1468.5 468.839,-1547.5 605.839,-1547.5 605.839,-1468.5 468.839,-1468.5"/>
<text text-anchor="start" x="476.839" y="-1535.5" font-family="Helvetica,sans-Serif" font-size="10.00">NonCopyable&lt; vector</text>
<text text-anchor="start" x="476.839" y="-1524.5" font-family="Helvetica,sans-Serif" font-size="10.00">&lt; CarMessage, unsigned</text>
<text text-anchor="middle" x="537.339" y="-1513.5" font-family="Helvetica,sans-Serif" font-size="10.00"> int &gt; &gt;</text>
<polyline fill="none" stroke="black" points="468.839,-1506.5 605.839,-1506.5 "/>
<text text-anchor="middle" x="537.339" y="-1494.5" font-family="Helvetica,sans-Serif" font-size="10.00"> </text>
<polyline fill="none" stroke="black" points="468.839,-1487.5 605.839,-1487.5 "/>
<text text-anchor="start" x="476.839" y="-1475.5" font-family="Helvetica,sans-Serif" font-size="10.00">+ NonCopyable()</text>
</a>
</g>
</g>
<!-- Node17&#45;&gt;Node16 -->
<g id="edge25" class="edge"><title>Node17&#45;&gt;Node16</title>
<path fill="none" stroke="#8b1a1a" d="M537.339,-1458.02C537.339,-1439.7 537.339,-1418.34 537.339,-1397.81"/>
<polygon fill="none" stroke="#8b1a1a" points="533.839,-1458.15 537.339,-1468.15 540.839,-1458.15 533.839,-1458.15"/>
</g>
<!-- Node18&#45;&gt;Node1 -->
<g id="edge26" class="edge"><title>Node18&#45;&gt;Node1</title>
<path fill="none" stroke="#404040" d="M39.1242,-608.133C19.1509,-543.811 -17.9489,-398.538 10.3388,-280 34.1171,-180.359 42.6291,-128.38 136.339,-87 188.8,-63.8343 253.364,-50.056 297.364,-42.6644"/>
<polygon fill="none" stroke="#404040" points="297.636,-42.6205 302.919,-37.7131 309.482,-40.7028 304.198,-45.6103 297.636,-42.6205"/>
<text text-anchor="middle" x="26.3388" y="-339.5" font-family="Helvetica,sans-Serif" font-size="10.00"> #_fan</text>
</g>
<!-- Node19&#45;&gt;Node1 -->
<g id="edge28" class="edge"><title>Node19&#45;&gt;Node1</title>
<path fill="none" stroke="#404040" d="M100.768,-280.387C94.1637,-232.185 92.8366,-164.948 123.339,-116 159.674,-57.6915 243.152,-41.1346 297.577,-36.7122"/>
<polygon fill="none" stroke="#404040" points="297.758,-36.7 303.472,-32.3021 309.73,-35.8857 304.015,-40.2836 297.758,-36.7"/>
<text text-anchor="middle" x="145.839" y="-186.5" font-family="Helvetica,sans-Serif" font-size="10.00"> #_pump</text>
</g>
</g>
</svg>
