<?xml version="1.0" encoding="UTF-8" standalone="no"?>
<!DOCTYPE svg PUBLIC "-//W3C//DTD SVG 1.1//EN"
 "http://www.w3.org/Graphics/SVG/1.1/DTD/svg11.dtd">
<!-- Generated by graphviz version 2.38.0 (20140413.2041)
 -->
<!-- Title: PLogger::LoggingValue Pages: 1 -->
<svg width="163pt" height="621pt"
 viewBox="0.00 0.00 163.00 621.00" xmlns="http://www.w3.org/2000/svg" xmlns:xlink="http://www.w3.org/1999/xlink">
<g id="graph0" class="graph" transform="scale(1 1) rotate(0) translate(4 617)">
<title>PLogger::LoggingValue</title>
<polygon fill="white" stroke="none" points="-4,4 -4,-617 159,-617 159,4 -4,4"/>
<!-- Node1 -->
<g id="node1" class="node"><title>Node1</title>
<polygon fill="#bfbfbf" stroke="black" points="15,-0.5 15,-68.5 140,-68.5 140,-0.5 15,-0.5"/>
<text text-anchor="middle" x="77.5" y="-56.5" font-family="Helvetica,sans-Serif" font-size="10.00">PLogger::LoggingValue</text>
<polyline fill="none" stroke="black" points="15,-49.5 140,-49.5 "/>
<text text-anchor="start" x="23" y="-37.5" font-family="Helvetica,sans-Serif" font-size="10.00">+ logId</text>
<polyline fill="none" stroke="black" points="15,-30.5 140,-30.5 "/>
<text text-anchor="start" x="23" y="-18.5" font-family="Helvetica,sans-Serif" font-size="10.00">+ LoggingValue()</text>
<text text-anchor="start" x="23" y="-7.5" font-family="Helvetica,sans-Serif" font-size="10.00">+ send()</text>
</g>
<!-- Node2 -->
<g id="node2" class="node"><title>Node2</title>
<g id="a_node2"><a xlink:href="class_p_logger_1_1_logging_component.html" target="_top" xlink:title="{PLogger::LoggingComponent\n|+ refreshRate\l+ logged\l+ lastRun\l|+ LoggingComponent()\l+ send()\l}">
<polygon fill="white" stroke="black" points="0,-106.5 0,-196.5 155,-196.5 155,-106.5 0,-106.5"/>
<text text-anchor="middle" x="77.5" y="-184.5" font-family="Helvetica,sans-Serif" font-size="10.00">PLogger::LoggingComponent</text>
<polyline fill="none" stroke="black" points="0,-177.5 155,-177.5 "/>
<text text-anchor="start" x="8" y="-165.5" font-family="Helvetica,sans-Serif" font-size="10.00">+ refreshRate</text>
<text text-anchor="start" x="8" y="-154.5" font-family="Helvetica,sans-Serif" font-size="10.00">+ logged</text>
<text text-anchor="start" x="8" y="-143.5" font-family="Helvetica,sans-Serif" font-size="10.00">+ lastRun</text>
<polyline fill="none" stroke="black" points="0,-136.5 155,-136.5 "/>
<text text-anchor="start" x="8" y="-124.5" font-family="Helvetica,sans-Serif" font-size="10.00">+ LoggingComponent()</text>
<text text-anchor="start" x="8" y="-113.5" font-family="Helvetica,sans-Serif" font-size="10.00">+ send()</text>
</a>
</g>
</g>
<!-- Node2&#45;&gt;Node1 -->
<g id="edge1" class="edge"><title>Node2&#45;&gt;Node1</title>
<path fill="none" stroke="midnightblue" d="M77.5,-96.2309C77.5,-86.8035 77.5,-77.2599 77.5,-68.6181"/>
<polygon fill="none" stroke="midnightblue" points="74.0001,-96.3669 77.5,-106.367 81.0001,-96.3669 74.0001,-96.3669"/>
</g>
<!-- Node3 -->
<g id="node3" class="node"><title>Node3</title>
<g id="a_node3"><a xlink:href="class_i_component.html" target="_top" xlink:title="{IComponent\n||+ IComponent()\l+ IComponent()\l+ setComponentSubId()\l+ getComponentType()\l+ getComponentSubId()\l+ getComponentId()\l+ getObjectType()\l# setComponentType()\l# setObjectType()\l}">
<polygon fill="white" stroke="black" points="10.5,-244.5 10.5,-389.5 144.5,-389.5 144.5,-244.5 10.5,-244.5"/>
<text text-anchor="middle" x="77.5" y="-377.5" font-family="Helvetica,sans-Serif" font-size="10.00">IComponent</text>
<polyline fill="none" stroke="black" points="10.5,-370.5 144.5,-370.5 "/>
<text text-anchor="middle" x="77.5" y="-358.5" font-family="Helvetica,sans-Serif" font-size="10.00"> </text>
<polyline fill="none" stroke="black" points="10.5,-351.5 144.5,-351.5 "/>
<text text-anchor="start" x="18.5" y="-339.5" font-family="Helvetica,sans-Serif" font-size="10.00">+ IComponent()</text>
<text text-anchor="start" x="18.5" y="-328.5" font-family="Helvetica,sans-Serif" font-size="10.00">+ IComponent()</text>
<text text-anchor="start" x="18.5" y="-317.5" font-family="Helvetica,sans-Serif" font-size="10.00">+ setComponentSubId()</text>
<text text-anchor="start" x="18.5" y="-306.5" font-family="Helvetica,sans-Serif" font-size="10.00">+ getComponentType()</text>
<text text-anchor="start" x="18.5" y="-295.5" font-family="Helvetica,sans-Serif" font-size="10.00">+ getComponentSubId()</text>
<text text-anchor="start" x="18.5" y="-284.5" font-family="Helvetica,sans-Serif" font-size="10.00">+ getComponentId()</text>
<text text-anchor="start" x="18.5" y="-273.5" font-family="Helvetica,sans-Serif" font-size="10.00">+ getObjectType()</text>
<text text-anchor="start" x="18.5" y="-262.5" font-family="Helvetica,sans-Serif" font-size="10.00"># setComponentType()</text>
<text text-anchor="start" x="18.5" y="-251.5" font-family="Helvetica,sans-Serif" font-size="10.00"># setObjectType()</text>
</a>
</g>
</g>
<!-- Node3&#45;&gt;Node2 -->
<g id="edge2" class="edge"><title>Node3&#45;&gt;Node2</title>
<path fill="none" stroke="#404040" d="M77.5,-244.287C77.5,-232.441 77.5,-220.309 77.5,-208.908"/>
<polygon fill="none" stroke="#404040" points="77.5001,-208.87 73.5,-202.87 77.5,-196.87 81.5,-202.87 77.5001,-208.87"/>
<text text-anchor="middle" x="100.5" y="-218" font-family="Helvetica,sans-Serif" font-size="10.00"> +logable</text>
</g>
<!-- Node4 -->
<g id="node4" class="node"><title>Node4</title>
<g id="a_node4"><a xlink:href="class_i_logable.html" target="_top" xlink:title="{ILogable\n||+ setStatus()\l+ getStatus()\l+ getLogValueCount()\l+ getLogValue()\l}">
<polygon fill="white" stroke="black" points="16,-427.5 16,-517.5 139,-517.5 139,-427.5 16,-427.5"/>
<text text-anchor="middle" x="77.5" y="-505.5" font-family="Helvetica,sans-Serif" font-size="10.00">ILogable</text>
<polyline fill="none" stroke="black" points="16,-498.5 139,-498.5 "/>
<text text-anchor="middle" x="77.5" y="-486.5" font-family="Helvetica,sans-Serif" font-size="10.00"> </text>
<polyline fill="none" stroke="black" points="16,-479.5 139,-479.5 "/>
<text text-anchor="start" x="24" y="-467.5" font-family="Helvetica,sans-Serif" font-size="10.00">+ setStatus()</text>
<text text-anchor="start" x="24" y="-456.5" font-family="Helvetica,sans-Serif" font-size="10.00">+ getStatus()</text>
<text text-anchor="start" x="24" y="-445.5" font-family="Helvetica,sans-Serif" font-size="10.00">+ getLogValueCount()</text>
<text text-anchor="start" x="24" y="-434.5" font-family="Helvetica,sans-Serif" font-size="10.00">+ getLogValue()</text>
</a>
</g>
</g>
<!-- Node4&#45;&gt;Node3 -->
<g id="edge3" class="edge"><title>Node4&#45;&gt;Node3</title>
<path fill="none" stroke="midnightblue" d="M77.5,-416.98C77.5,-408.165 77.5,-398.921 77.5,-389.771"/>
<polygon fill="none" stroke="midnightblue" points="74.0001,-417.101 77.5,-427.101 81.0001,-417.101 74.0001,-417.101"/>
</g>
<!-- Node5 -->
<g id="node5" class="node"><title>Node5</title>
<g id="a_node5"><a xlink:href="class_non_copyable.html" target="_top" xlink:title="{NonCopyable\&lt; ILogable \&gt;\n||+ NonCopyable()\l}">
<polygon fill="white" stroke="black" points="6,-555.5 6,-612.5 149,-612.5 149,-555.5 6,-555.5"/>
<text text-anchor="middle" x="77.5" y="-600.5" font-family="Helvetica,sans-Serif" font-size="10.00">NonCopyable&lt; ILogable &gt;</text>
<polyline fill="none" stroke="black" points="6,-593.5 149,-593.5 "/>
<text text-anchor="middle" x="77.5" y="-581.5" font-family="Helvetica,sans-Serif" font-size="10.00"> </text>
<polyline fill="none" stroke="black" points="6,-574.5 149,-574.5 "/>
<text text-anchor="start" x="14" y="-562.5" font-family="Helvetica,sans-Serif" font-size="10.00">+ NonCopyable()</text>
</a>
</g>
</g>
<!-- Node5&#45;&gt;Node4 -->
<g id="edge4" class="edge"><title>Node5&#45;&gt;Node4</title>
<path fill="none" stroke="#8b1a1a" d="M77.5,-545.312C77.5,-536.43 77.5,-526.883 77.5,-517.742"/>
<polygon fill="none" stroke="#8b1a1a" points="74.0001,-545.368 77.5,-555.369 81.0001,-545.369 74.0001,-545.368"/>
</g>
</g>
</svg>
