<?xml version="1.0" encoding="UTF-8" standalone="no"?>
<!DOCTYPE svg PUBLIC "-//W3C//DTD SVG 1.1//EN"
 "http://www.w3.org/Graphics/SVG/1.1/DTD/svg11.dtd">
<!-- Generated by graphviz version 2.38.0 (20140413.2041)
 -->
<!-- Title: Dashboard Pages: 1 -->
<svg width="120pt" height="226pt"
 viewBox="0.00 0.00 120.00 226.00" xmlns="http://www.w3.org/2000/svg" xmlns:xlink="http://www.w3.org/1999/xlink">
<g id="graph0" class="graph" transform="scale(1 1) rotate(0) translate(4 222)">
<title>Dashboard</title>
<polygon fill="white" stroke="none" points="-4,4 -4,-222 116,-222 116,4 -4,4"/>
<!-- Node1 -->
<g id="node1" class="node"><title>Node1</title>
<polygon fill="#bfbfbf" stroke="black" points="21.5,-0.5 21.5,-90.5 90.5,-90.5 90.5,-0.5 21.5,-0.5"/>
<text text-anchor="middle" x="56" y="-78.5" font-family="Helvetica,sans-Serif" font-size="10.00">Dashboard</text>
<polyline fill="none" stroke="black" points="21.5,-71.5 90.5,-71.5 "/>
<text text-anchor="middle" x="56" y="-59.5" font-family="Helvetica,sans-Serif" font-size="10.00"> </text>
<polyline fill="none" stroke="black" points="21.5,-52.5 90.5,-52.5 "/>
<text text-anchor="start" x="29.5" y="-40.5" font-family="Helvetica,sans-Serif" font-size="10.00">+ setup()</text>
<text text-anchor="start" x="29.5" y="-29.5" font-family="Helvetica,sans-Serif" font-size="10.00">+ loop()</text>
<text text-anchor="start" x="29.5" y="-18.5" font-family="Helvetica,sans-Serif" font-size="10.00">+ setup()</text>
<text text-anchor="start" x="29.5" y="-7.5" font-family="Helvetica,sans-Serif" font-size="10.00">+ loop()</text>
</g>
<!-- Node2 -->
<g id="node2" class="node"><title>Node2</title>
<g id="a_node2"><a xlink:href="class_carpi.html" target="_top" xlink:title="{Carpi\n||+ Carpi()\l+ printInfo()\l+ getVersion()\l+ getEnvironment()\l}">
<polygon fill="white" stroke="black" points="-7.10543e-15,-127.5 -7.10543e-15,-217.5 112,-217.5 112,-127.5 -7.10543e-15,-127.5"/>
<text text-anchor="middle" x="56" y="-205.5" font-family="Helvetica,sans-Serif" font-size="10.00">Carpi</text>
<polyline fill="none" stroke="black" points="-7.10543e-15,-198.5 112,-198.5 "/>
<text text-anchor="middle" x="56" y="-186.5" font-family="Helvetica,sans-Serif" font-size="10.00"> </text>
<polyline fill="none" stroke="black" points="-7.10543e-15,-179.5 112,-179.5 "/>
<text text-anchor="start" x="8" y="-167.5" font-family="Helvetica,sans-Serif" font-size="10.00">+ Carpi()</text>
<text text-anchor="start" x="8" y="-156.5" font-family="Helvetica,sans-Serif" font-size="10.00">+ printInfo()</text>
<text text-anchor="start" x="8" y="-145.5" font-family="Helvetica,sans-Serif" font-size="10.00">+ getVersion()</text>
<text text-anchor="start" x="8" y="-134.5" font-family="Helvetica,sans-Serif" font-size="10.00">+ getEnvironment()</text>
</a>
</g>
</g>
<!-- Node2&#45;&gt;Node1 -->
<g id="edge1" class="edge"><title>Node2&#45;&gt;Node1</title>
<path fill="none" stroke="midnightblue" d="M56,-117.157C56,-108.282 56,-99.1831 56,-90.5937"/>
<polygon fill="none" stroke="midnightblue" points="52.5001,-117.43 56,-127.43 59.5001,-117.43 52.5001,-117.43"/>
</g>
</g>
</svg>
