<?xml version="1.0" encoding="UTF-8" standalone="no"?>
<!DOCTYPE svg PUBLIC "-//W3C//DTD SVG 1.1//EN"
 "http://www.w3.org/Graphics/SVG/1.1/DTD/svg11.dtd">
<!-- Generated by graphviz version 2.38.0 (20140413.2041)
 -->
<!-- Title: Carpi Pages: 1 -->
<svg width="466pt" height="237pt"
 viewBox="0.00 0.00 465.50 237.00" xmlns="http://www.w3.org/2000/svg" xmlns:xlink="http://www.w3.org/1999/xlink">
<g id="graph0" class="graph" transform="scale(1 1) rotate(0) translate(4 233)">
<title>Carpi</title>
<polygon fill="white" stroke="none" points="-4,4 -4,-233 461.5,-233 461.5,4 -4,4"/>
<!-- Node1 -->
<g id="node1" class="node"><title>Node1</title>
<polygon fill="#bfbfbf" stroke="black" points="142.5,-138.5 142.5,-228.5 254.5,-228.5 254.5,-138.5 142.5,-138.5"/>
<text text-anchor="middle" x="198.5" y="-216.5" font-family="Helvetica,sans-Serif" font-size="10.00">Carpi</text>
<polyline fill="none" stroke="black" points="142.5,-209.5 254.5,-209.5 "/>
<text text-anchor="middle" x="198.5" y="-197.5" font-family="Helvetica,sans-Serif" font-size="10.00"> </text>
<polyline fill="none" stroke="black" points="142.5,-190.5 254.5,-190.5 "/>
<text text-anchor="start" x="150.5" y="-178.5" font-family="Helvetica,sans-Serif" font-size="10.00">+ Carpi()</text>
<text text-anchor="start" x="150.5" y="-167.5" font-family="Helvetica,sans-Serif" font-size="10.00">+ printInfo()</text>
<text text-anchor="start" x="150.5" y="-156.5" font-family="Helvetica,sans-Serif" font-size="10.00">+ getVersion()</text>
<text text-anchor="start" x="150.5" y="-145.5" font-family="Helvetica,sans-Serif" font-size="10.00">+ getEnvironment()</text>
</g>
<!-- Node2 -->
<g id="node2" class="node"><title>Node2</title>
<g id="a_node2"><a xlink:href="class_dashboard.html" target="_top" xlink:title="{Dashboard\n||+ setup()\l+ loop()\l+ setup()\l+ loop()\l}">
<polygon fill="white" stroke="black" points="0,-6 0,-96 69,-96 69,-6 0,-6"/>
<text text-anchor="middle" x="34.5" y="-84" font-family="Helvetica,sans-Serif" font-size="10.00">Dashboard</text>
<polyline fill="none" stroke="black" points="0,-77 69,-77 "/>
<text text-anchor="middle" x="34.5" y="-65" font-family="Helvetica,sans-Serif" font-size="10.00"> </text>
<polyline fill="none" stroke="black" points="0,-58 69,-58 "/>
<text text-anchor="start" x="8" y="-46" font-family="Helvetica,sans-Serif" font-size="10.00">+ setup()</text>
<text text-anchor="start" x="8" y="-35" font-family="Helvetica,sans-Serif" font-size="10.00">+ loop()</text>
<text text-anchor="start" x="8" y="-24" font-family="Helvetica,sans-Serif" font-size="10.00">+ setup()</text>
<text text-anchor="start" x="8" y="-13" font-family="Helvetica,sans-Serif" font-size="10.00">+ loop()</text>
</a>
</g>
</g>
<!-- Node1&#45;&gt;Node2 -->
<g id="edge1" class="edge"><title>Node1&#45;&gt;Node2</title>
<path fill="none" stroke="midnightblue" d="M133.825,-143.531C115.236,-131.179 95.4278,-116.847 78.5,-102 75.3705,-99.2551 72.251,-96.2935 69.2007,-93.2303"/>
<polygon fill="none" stroke="midnightblue" points="131.982,-146.508 142.265,-149.062 135.819,-140.653 131.982,-146.508"/>
</g>
<!-- Node3 -->
<g id="node3" class="node"><title>Node3</title>
<g id="a_node3"><a xlink:href="class_display.html" target="_top" xlink:title="{Display\n||+ setup()\l+ loop()\l}">
<polygon fill="white" stroke="black" points="87.5,-17 87.5,-85 149.5,-85 149.5,-17 87.5,-17"/>
<text text-anchor="middle" x="118.5" y="-73" font-family="Helvetica,sans-Serif" font-size="10.00">Display</text>
<polyline fill="none" stroke="black" points="87.5,-66 149.5,-66 "/>
<text text-anchor="middle" x="118.5" y="-54" font-family="Helvetica,sans-Serif" font-size="10.00"> </text>
<polyline fill="none" stroke="black" points="87.5,-47 149.5,-47 "/>
<text text-anchor="start" x="95.5" y="-35" font-family="Helvetica,sans-Serif" font-size="10.00">+ setup()</text>
<text text-anchor="start" x="95.5" y="-24" font-family="Helvetica,sans-Serif" font-size="10.00">+ loop()</text>
</a>
</g>
</g>
<!-- Node1&#45;&gt;Node3 -->
<g id="edge2" class="edge"><title>Node1&#45;&gt;Node3</title>
<path fill="none" stroke="midnightblue" d="M166.101,-129.649C156.939,-114.704 147.226,-98.8586 138.979,-85.4058"/>
<polygon fill="none" stroke="midnightblue" points="163.205,-131.622 171.416,-138.319 169.173,-127.964 163.205,-131.622"/>
</g>
<!-- Node4 -->
<g id="node4" class="node"><title>Node4</title>
<g id="a_node4"><a xlink:href="class_lo_ra.html" target="_top" xlink:title="{LoRa\n||+ setup()\l+ loop()\l}">
<polygon fill="white" stroke="black" points="167.5,-17 167.5,-85 229.5,-85 229.5,-17 167.5,-17"/>
<text text-anchor="middle" x="198.5" y="-73" font-family="Helvetica,sans-Serif" font-size="10.00">LoRa</text>
<polyline fill="none" stroke="black" points="167.5,-66 229.5,-66 "/>
<text text-anchor="middle" x="198.5" y="-54" font-family="Helvetica,sans-Serif" font-size="10.00"> </text>
<polyline fill="none" stroke="black" points="167.5,-47 229.5,-47 "/>
<text text-anchor="start" x="175.5" y="-35" font-family="Helvetica,sans-Serif" font-size="10.00">+ setup()</text>
<text text-anchor="start" x="175.5" y="-24" font-family="Helvetica,sans-Serif" font-size="10.00">+ loop()</text>
</a>
</g>
</g>
<!-- Node1&#45;&gt;Node4 -->
<g id="edge3" class="edge"><title>Node1&#45;&gt;Node4</title>
<path fill="none" stroke="midnightblue" d="M198.5,-127.969C198.5,-113.523 198.5,-98.3557 198.5,-85.4058"/>
<polygon fill="none" stroke="midnightblue" points="195,-128.319 198.5,-138.319 202,-128.319 195,-128.319"/>
</g>
<!-- Node5 -->
<g id="node5" class="node"><title>Node5</title>
<g id="a_node5"><a xlink:href="class_master.html" target="_top" xlink:title="{Master\n|# highDemandServices\l# lowDemandServices\l# serviceScheduler\l# services\l|+ setup()\l+ loop()\l}">
<polygon fill="white" stroke="black" points="247.5,-0.5 247.5,-101.5 377.5,-101.5 377.5,-0.5 247.5,-0.5"/>
<text text-anchor="middle" x="312.5" y="-89.5" font-family="Helvetica,sans-Serif" font-size="10.00">Master</text>
<polyline fill="none" stroke="black" points="247.5,-82.5 377.5,-82.5 "/>
<text text-anchor="start" x="255.5" y="-70.5" font-family="Helvetica,sans-Serif" font-size="10.00"># highDemandServices</text>
<text text-anchor="start" x="255.5" y="-59.5" font-family="Helvetica,sans-Serif" font-size="10.00"># lowDemandServices</text>
<text text-anchor="start" x="255.5" y="-48.5" font-family="Helvetica,sans-Serif" font-size="10.00"># serviceScheduler</text>
<text text-anchor="start" x="255.5" y="-37.5" font-family="Helvetica,sans-Serif" font-size="10.00"># services</text>
<polyline fill="none" stroke="black" points="247.5,-30.5 377.5,-30.5 "/>
<text text-anchor="start" x="255.5" y="-18.5" font-family="Helvetica,sans-Serif" font-size="10.00">+ setup()</text>
<text text-anchor="start" x="255.5" y="-7.5" font-family="Helvetica,sans-Serif" font-size="10.00">+ loop()</text>
</a>
</g>
</g>
<!-- Node1&#45;&gt;Node5 -->
<g id="edge4" class="edge"><title>Node1&#45;&gt;Node5</title>
<path fill="none" stroke="midnightblue" d="M243.741,-130.711C252.142,-121.094 260.899,-111.069 269.239,-101.523"/>
<polygon fill="none" stroke="midnightblue" points="241.038,-128.485 237.095,-138.319 246.31,-133.09 241.038,-128.485"/>
</g>
<!-- Node6 -->
<g id="node6" class="node"><title>Node6</title>
<g id="a_node6"><a xlink:href="class_pedal.html" target="_top" xlink:title="{Pedal\n||+ setup()\l+ loop()\l}">
<polygon fill="white" stroke="black" points="395.5,-17 395.5,-85 457.5,-85 457.5,-17 395.5,-17"/>
<text text-anchor="middle" x="426.5" y="-73" font-family="Helvetica,sans-Serif" font-size="10.00">Pedal</text>
<polyline fill="none" stroke="black" points="395.5,-66 457.5,-66 "/>
<text text-anchor="middle" x="426.5" y="-54" font-family="Helvetica,sans-Serif" font-size="10.00"> </text>
<polyline fill="none" stroke="black" points="395.5,-47 457.5,-47 "/>
<text text-anchor="start" x="403.5" y="-35" font-family="Helvetica,sans-Serif" font-size="10.00">+ setup()</text>
<text text-anchor="start" x="403.5" y="-24" font-family="Helvetica,sans-Serif" font-size="10.00">+ loop()</text>
</a>
</g>
</g>
<!-- Node1&#45;&gt;Node6 -->
<g id="edge5" class="edge"><title>Node1&#45;&gt;Node6</title>
<path fill="none" stroke="midnightblue" d="M264.021,-163.356C302.209,-150.118 349.899,-129.842 386.5,-102 392.782,-97.2215 398.656,-91.2475 403.865,-85.1089"/>
<polygon fill="none" stroke="midnightblue" points="262.878,-160.048 254.529,-166.571 265.123,-166.678 262.878,-160.048"/>
</g>
</g>
</svg>
