<?xml version="1.0" encoding="UTF-8" standalone="no"?>
<!DOCTYPE svg PUBLIC "-//W3C//DTD SVG 1.1//EN"
 "http://www.w3.org/Graphics/SVG/1.1/DTD/svg11.dtd">
<!-- Generated by graphviz version 2.38.0 (20140413.2041)
 -->
<!-- Title: HardwareSDCard Pages: 1 -->
<svg width="151pt" height="750pt"
 viewBox="0.00 0.00 151.00 750.00" xmlns="http://www.w3.org/2000/svg" xmlns:xlink="http://www.w3.org/1999/xlink">
<g id="graph0" class="graph" transform="scale(1 1) rotate(0) translate(4 746)">
<title>HardwareSDCard</title>
<polygon fill="white" stroke="none" points="-4,4 -4,-746 147,-746 147,4 -4,4"/>
<!-- Node1 -->
<g id="node1" class="node"><title>Node1</title>
<polygon fill="#bfbfbf" stroke="black" points="12.5,-0.5 12.5,-189.5 130.5,-189.5 130.5,-0.5 12.5,-0.5"/>
<text text-anchor="middle" x="71.5" y="-177.5" font-family="Helvetica,sans-Serif" font-size="10.00">HardwareSDCard</text>
<polyline fill="none" stroke="black" points="12.5,-170.5 130.5,-170.5 "/>
<text text-anchor="start" x="20.5" y="-158.5" font-family="Helvetica,sans-Serif" font-size="10.00"># sd</text>
<text text-anchor="start" x="20.5" y="-147.5" font-family="Helvetica,sans-Serif" font-size="10.00"># _status</text>
<text text-anchor="start" x="20.5" y="-136.5" font-family="Helvetica,sans-Serif" font-size="10.00"># _fileOpen</text>
<text text-anchor="start" x="20.5" y="-125.5" font-family="Helvetica,sans-Serif" font-size="10.00"># fp</text>
<polyline fill="none" stroke="black" points="12.5,-118.5 130.5,-118.5 "/>
<text text-anchor="start" x="20.5" y="-106.5" font-family="Helvetica,sans-Serif" font-size="10.00">+ HardwareSDCard()</text>
<text text-anchor="start" x="20.5" y="-95.5" font-family="Helvetica,sans-Serif" font-size="10.00">+ begin()</text>
<text text-anchor="start" x="20.5" y="-84.5" font-family="Helvetica,sans-Serif" font-size="10.00">+ open()</text>
<text text-anchor="start" x="20.5" y="-73.5" font-family="Helvetica,sans-Serif" font-size="10.00">+ close()</text>
<text text-anchor="start" x="20.5" y="-62.5" font-family="Helvetica,sans-Serif" font-size="10.00">+ reset()</text>
<text text-anchor="start" x="20.5" y="-51.5" font-family="Helvetica,sans-Serif" font-size="10.00">+ setStatus()</text>
<text text-anchor="start" x="20.5" y="-40.5" font-family="Helvetica,sans-Serif" font-size="10.00">+ getStatus()</text>
<text text-anchor="start" x="20.5" y="-29.5" font-family="Helvetica,sans-Serif" font-size="10.00">+ write()</text>
<text text-anchor="start" x="20.5" y="-18.5" font-family="Helvetica,sans-Serif" font-size="10.00"># _addLineHeader()</text>
<text text-anchor="start" x="20.5" y="-7.5" font-family="Helvetica,sans-Serif" font-size="10.00"># _writeLine()</text>
</g>
<!-- Node2 -->
<g id="node2" class="node"><title>Node2</title>
<g id="a_node2"><a xlink:href="class_i_s_d_card.html" target="_top" xlink:title="{ISDCard\n||+ ISDCard()\l+ begin()\l+ open()\l+ close()\l+ reset()\l+ write()\l}">
<polygon fill="white" stroke="black" points="34.5,-226.5 34.5,-338.5 108.5,-338.5 108.5,-226.5 34.5,-226.5"/>
<text text-anchor="middle" x="71.5" y="-326.5" font-family="Helvetica,sans-Serif" font-size="10.00">ISDCard</text>
<polyline fill="none" stroke="black" points="34.5,-319.5 108.5,-319.5 "/>
<text text-anchor="middle" x="71.5" y="-307.5" font-family="Helvetica,sans-Serif" font-size="10.00"> </text>
<polyline fill="none" stroke="black" points="34.5,-300.5 108.5,-300.5 "/>
<text text-anchor="start" x="42.5" y="-288.5" font-family="Helvetica,sans-Serif" font-size="10.00">+ ISDCard()</text>
<text text-anchor="start" x="42.5" y="-277.5" font-family="Helvetica,sans-Serif" font-size="10.00">+ begin()</text>
<text text-anchor="start" x="42.5" y="-266.5" font-family="Helvetica,sans-Serif" font-size="10.00">+ open()</text>
<text text-anchor="start" x="42.5" y="-255.5" font-family="Helvetica,sans-Serif" font-size="10.00">+ close()</text>
<text text-anchor="start" x="42.5" y="-244.5" font-family="Helvetica,sans-Serif" font-size="10.00">+ reset()</text>
<text text-anchor="start" x="42.5" y="-233.5" font-family="Helvetica,sans-Serif" font-size="10.00">+ write()</text>
</a>
</g>
</g>
<!-- Node2&#45;&gt;Node1 -->
<g id="edge1" class="edge"><title>Node2&#45;&gt;Node1</title>
<path fill="none" stroke="midnightblue" d="M71.5,-216.319C71.5,-207.621 71.5,-198.566 71.5,-189.503"/>
<polygon fill="none" stroke="midnightblue" points="68.0001,-216.346 71.5,-226.346 75.0001,-216.346 68.0001,-216.346"/>
</g>
<!-- Node3 -->
<g id="node3" class="node"><title>Node3</title>
<g id="a_node3"><a xlink:href="class_i_component.html" target="_top" xlink:title="{IComponent\n||+ IComponent()\l+ IComponent()\l+ setComponentSubId()\l+ getComponentType()\l+ getComponentSubId()\l+ getComponentId()\l+ getObjectType()\l# setComponentType()\l# setObjectType()\l}">
<polygon fill="white" stroke="black" points="4.5,-375.5 4.5,-520.5 138.5,-520.5 138.5,-375.5 4.5,-375.5"/>
<text text-anchor="middle" x="71.5" y="-508.5" font-family="Helvetica,sans-Serif" font-size="10.00">IComponent</text>
<polyline fill="none" stroke="black" points="4.5,-501.5 138.5,-501.5 "/>
<text text-anchor="middle" x="71.5" y="-489.5" font-family="Helvetica,sans-Serif" font-size="10.00"> </text>
<polyline fill="none" stroke="black" points="4.5,-482.5 138.5,-482.5 "/>
<text text-anchor="start" x="12.5" y="-470.5" font-family="Helvetica,sans-Serif" font-size="10.00">+ IComponent()</text>
<text text-anchor="start" x="12.5" y="-459.5" font-family="Helvetica,sans-Serif" font-size="10.00">+ IComponent()</text>
<text text-anchor="start" x="12.5" y="-448.5" font-family="Helvetica,sans-Serif" font-size="10.00">+ setComponentSubId()</text>
<text text-anchor="start" x="12.5" y="-437.5" font-family="Helvetica,sans-Serif" font-size="10.00">+ getComponentType()</text>
<text text-anchor="start" x="12.5" y="-426.5" font-family="Helvetica,sans-Serif" font-size="10.00">+ getComponentSubId()</text>
<text text-anchor="start" x="12.5" y="-415.5" font-family="Helvetica,sans-Serif" font-size="10.00">+ getComponentId()</text>
<text text-anchor="start" x="12.5" y="-404.5" font-family="Helvetica,sans-Serif" font-size="10.00">+ getObjectType()</text>
<text text-anchor="start" x="12.5" y="-393.5" font-family="Helvetica,sans-Serif" font-size="10.00"># setComponentType()</text>
<text text-anchor="start" x="12.5" y="-382.5" font-family="Helvetica,sans-Serif" font-size="10.00"># setObjectType()</text>
</a>
</g>
</g>
<!-- Node3&#45;&gt;Node2 -->
<g id="edge2" class="edge"><title>Node3&#45;&gt;Node2</title>
<path fill="none" stroke="midnightblue" d="M71.5,-365.247C71.5,-356.335 71.5,-347.422 71.5,-338.934"/>
<polygon fill="none" stroke="midnightblue" points="68.0001,-365.286 71.5,-375.287 75.0001,-365.287 68.0001,-365.286"/>
</g>
<!-- Node4 -->
<g id="node4" class="node"><title>Node4</title>
<g id="a_node4"><a xlink:href="class_i_logable.html" target="_top" xlink:title="{ILogable\n||+ setStatus()\l+ getStatus()\l+ getLogValueCount()\l+ getLogValue()\l}">
<polygon fill="white" stroke="black" points="10,-557.5 10,-647.5 133,-647.5 133,-557.5 10,-557.5"/>
<text text-anchor="middle" x="71.5" y="-635.5" font-family="Helvetica,sans-Serif" font-size="10.00">ILogable</text>
<polyline fill="none" stroke="black" points="10,-628.5 133,-628.5 "/>
<text text-anchor="middle" x="71.5" y="-616.5" font-family="Helvetica,sans-Serif" font-size="10.00"> </text>
<polyline fill="none" stroke="black" points="10,-609.5 133,-609.5 "/>
<text text-anchor="start" x="18" y="-597.5" font-family="Helvetica,sans-Serif" font-size="10.00">+ setStatus()</text>
<text text-anchor="start" x="18" y="-586.5" font-family="Helvetica,sans-Serif" font-size="10.00">+ getStatus()</text>
<text text-anchor="start" x="18" y="-575.5" font-family="Helvetica,sans-Serif" font-size="10.00">+ getLogValueCount()</text>
<text text-anchor="start" x="18" y="-564.5" font-family="Helvetica,sans-Serif" font-size="10.00">+ getLogValue()</text>
</a>
</g>
</g>
<!-- Node4&#45;&gt;Node3 -->
<g id="edge3" class="edge"><title>Node4&#45;&gt;Node3</title>
<path fill="none" stroke="midnightblue" d="M71.5,-547.13C71.5,-538.526 71.5,-529.516 71.5,-520.591"/>
<polygon fill="none" stroke="midnightblue" points="68.0001,-547.391 71.5,-557.391 75.0001,-547.391 68.0001,-547.391"/>
</g>
<!-- Node5 -->
<g id="node5" class="node"><title>Node5</title>
<g id="a_node5"><a xlink:href="class_non_copyable.html" target="_top" xlink:title="{NonCopyable\&lt; ILogable \&gt;\n||+ NonCopyable()\l}">
<polygon fill="white" stroke="black" points="0,-684.5 0,-741.5 143,-741.5 143,-684.5 0,-684.5"/>
<text text-anchor="middle" x="71.5" y="-729.5" font-family="Helvetica,sans-Serif" font-size="10.00">NonCopyable&lt; ILogable &gt;</text>
<polyline fill="none" stroke="black" points="0,-722.5 143,-722.5 "/>
<text text-anchor="middle" x="71.5" y="-710.5" font-family="Helvetica,sans-Serif" font-size="10.00"> </text>
<polyline fill="none" stroke="black" points="0,-703.5 143,-703.5 "/>
<text text-anchor="start" x="8" y="-691.5" font-family="Helvetica,sans-Serif" font-size="10.00">+ NonCopyable()</text>
</a>
</g>
</g>
<!-- Node5&#45;&gt;Node4 -->
<g id="edge4" class="edge"><title>Node5&#45;&gt;Node4</title>
<path fill="none" stroke="#8b1a1a" d="M71.5,-674.214C71.5,-665.609 71.5,-656.394 71.5,-647.554"/>
<polygon fill="none" stroke="#8b1a1a" points="68.0001,-674.34 71.5,-684.34 75.0001,-674.34 68.0001,-674.34"/>
</g>
</g>
</svg>
