<?xml version="1.0" encoding="UTF-8" standalone="no"?>
<!DOCTYPE svg PUBLIC "-//W3C//DTD SVG 1.1//EN"
 "http://www.w3.org/Graphics/SVG/1.1/DTD/svg11.dtd">
<!-- Generated by graphviz version 2.38.0 (20140413.2041)
 -->
<!-- Title: std::vector&lt; T, counter_type_t &gt; Pages: 1 -->
<svg width="142pt" height="292pt"
 viewBox="0.00 0.00 142.00 292.00" xmlns="http://www.w3.org/2000/svg" xmlns:xlink="http://www.w3.org/1999/xlink">
<g id="graph0" class="graph" transform="scale(1 1) rotate(0) translate(4 288)">
<title>std::vector&lt; T, counter_type_t &gt;</title>
<polygon fill="white" stroke="none" points="-4,4 -4,-288 138,-288 138,4 -4,4"/>
<!-- Node1 -->
<g id="node1" class="node"><title>Node1</title>
<polygon fill="#bfbfbf" stroke="black" points="3.5,-0.5 3.5,-178.5 130.5,-178.5 130.5,-0.5 3.5,-0.5"/>
<text text-anchor="start" x="11.5" y="-166.5" font-family="Helvetica,sans-Serif" font-size="10.00">std::vector&lt; T, counter</text>
<text text-anchor="middle" x="67" y="-155.5" font-family="Helvetica,sans-Serif" font-size="10.00">_type_t &gt;</text>
<polyline fill="none" stroke="black" points="3.5,-148.5 130.5,-148.5 "/>
<text text-anchor="middle" x="67" y="-136.5" font-family="Helvetica,sans-Serif" font-size="10.00"> </text>
<polyline fill="none" stroke="black" points="3.5,-129.5 130.5,-129.5 "/>
<text text-anchor="start" x="11.5" y="-117.5" font-family="Helvetica,sans-Serif" font-size="10.00">+ ~vector()</text>
<text text-anchor="start" x="11.5" y="-106.5" font-family="Helvetica,sans-Serif" font-size="10.00">+ at()</text>
<text text-anchor="start" x="11.5" y="-95.5" font-family="Helvetica,sans-Serif" font-size="10.00">+ operator[]()</text>
<text text-anchor="start" x="11.5" y="-84.5" font-family="Helvetica,sans-Serif" font-size="10.00">+ front()</text>
<text text-anchor="start" x="11.5" y="-73.5" font-family="Helvetica,sans-Serif" font-size="10.00">+ back()</text>
<text text-anchor="start" x="11.5" y="-62.5" font-family="Helvetica,sans-Serif" font-size="10.00">+ data()</text>
<text text-anchor="start" x="11.5" y="-51.5" font-family="Helvetica,sans-Serif" font-size="10.00">+ begin()</text>
<text text-anchor="start" x="11.5" y="-40.5" font-family="Helvetica,sans-Serif" font-size="10.00">+ end()</text>
<text text-anchor="start" x="11.5" y="-29.5" font-family="Helvetica,sans-Serif" font-size="10.00">+ empty()</text>
<text text-anchor="start" x="11.5" y="-18.5" font-family="Helvetica,sans-Serif" font-size="10.00">+ size()</text>
<text text-anchor="start" x="11.5" y="-7.5" font-family="Helvetica,sans-Serif" font-size="10.00">and 7 more...</text>
</g>
<!-- Node2 -->
<g id="node2" class="node"><title>Node2</title>
<g id="a_node2"><a xlink:href="class_non_copyable.html" target="_top" xlink:title="{NonCopyable\&lt; vector\l\&lt; T, counter_type_t \&gt; \&gt;\n||+ NonCopyable()\l}">
<polygon fill="white" stroke="black" points="0,-215.5 0,-283.5 134,-283.5 134,-215.5 0,-215.5"/>
<text text-anchor="start" x="8" y="-271.5" font-family="Helvetica,sans-Serif" font-size="10.00">NonCopyable&lt; vector</text>
<text text-anchor="middle" x="67" y="-260.5" font-family="Helvetica,sans-Serif" font-size="10.00">&lt; T, counter_type_t &gt; &gt;</text>
<polyline fill="none" stroke="black" points="0,-253.5 134,-253.5 "/>
<text text-anchor="middle" x="67" y="-241.5" font-family="Helvetica,sans-Serif" font-size="10.00"> </text>
<polyline fill="none" stroke="black" points="0,-234.5 134,-234.5 "/>
<text text-anchor="start" x="8" y="-222.5" font-family="Helvetica,sans-Serif" font-size="10.00">+ NonCopyable()</text>
</a>
</g>
</g>
<!-- Node2&#45;&gt;Node1 -->
<g id="edge1" class="edge"><title>Node2&#45;&gt;Node1</title>
<path fill="none" stroke="#8b1a1a" d="M67,-205.189C67,-196.83 67,-187.795 67,-178.594"/>
<polygon fill="none" stroke="#8b1a1a" points="63.5001,-205.378 67,-215.378 70.5001,-205.378 63.5001,-205.378"/>
</g>
</g>
</svg>
