<?xml version="1.0" encoding="UTF-8" standalone="no"?>
<!DOCTYPE svg PUBLIC "-//W3C//DTD SVG 1.1//EN"
 "http://www.w3.org/Graphics/SVG/1.1/DTD/svg11.dtd">
<!-- Generated by graphviz version 2.38.0 (20140413.2041)
 -->
<!-- Title: PMotorController Pages: 1 -->
<svg width="916pt" height="2197pt"
 viewBox="0.00 0.00 916.00 2197.00" xmlns="http://www.w3.org/2000/svg" xmlns:xlink="http://www.w3.org/1999/xlink">
<g id="graph0" class="graph" transform="scale(1 1) rotate(0) translate(4 2193)">
<title>PMotorController</title>
<polygon fill="white" stroke="none" points="-4,4 -4,-2193 912,-2193 912,4 -4,4"/>
<!-- Node1 -->
<g id="node1" class="node"><title>Node1</title>
<polygon fill="#bfbfbf" stroke="black" points="284.5,-0.5 284.5,-277.5 427.5,-277.5 427.5,-0.5 284.5,-0.5"/>
<text text-anchor="middle" x="356" y="-265.5" font-family="Helvetica,sans-Serif" font-size="10.00">PMotorController</text>
<polyline fill="none" stroke="black" points="284.5,-258.5 427.5,-258.5 "/>
<text text-anchor="start" x="292.5" y="-246.5" font-family="Helvetica,sans-Serif" font-size="10.00"># _ready</text>
<text text-anchor="start" x="292.5" y="-235.5" font-family="Helvetica,sans-Serif" font-size="10.00"># _communicationStarted</text>
<text text-anchor="start" x="292.5" y="-224.5" font-family="Helvetica,sans-Serif" font-size="10.00"># _gasPedalPrimed</text>
<text text-anchor="start" x="292.5" y="-213.5" font-family="Helvetica,sans-Serif" font-size="10.00"># _hardBrakeingStarted</text>
<text text-anchor="start" x="292.5" y="-202.5" font-family="Helvetica,sans-Serif" font-size="10.00"># _asrActive</text>
<polyline fill="none" stroke="black" points="284.5,-195.5 427.5,-195.5 "/>
<text text-anchor="start" x="292.5" y="-183.5" font-family="Helvetica,sans-Serif" font-size="10.00">+ PMotorController()</text>
<text text-anchor="start" x="292.5" y="-172.5" font-family="Helvetica,sans-Serif" font-size="10.00">+ PMotorController()</text>
<text text-anchor="start" x="292.5" y="-161.5" font-family="Helvetica,sans-Serif" font-size="10.00">+ run()</text>
<text text-anchor="start" x="292.5" y="-150.5" font-family="Helvetica,sans-Serif" font-size="10.00">+ unprimeGas()</text>
<text text-anchor="start" x="292.5" y="-139.5" font-family="Helvetica,sans-Serif" font-size="10.00"># _checkErrors()</text>
<text text-anchor="start" x="292.5" y="-128.5" font-family="Helvetica,sans-Serif" font-size="10.00"># _pedalError()</text>
<text text-anchor="start" x="292.5" y="-117.5" font-family="Helvetica,sans-Serif" font-size="10.00"># _asrError()</text>
<text text-anchor="start" x="292.5" y="-106.5" font-family="Helvetica,sans-Serif" font-size="10.00"># _getAge()</text>
<text text-anchor="start" x="292.5" y="-95.5" font-family="Helvetica,sans-Serif" font-size="10.00"># _getAge()</text>
<text text-anchor="start" x="292.5" y="-84.5" font-family="Helvetica,sans-Serif" font-size="10.00"># _updateValues()</text>
<text text-anchor="start" x="292.5" y="-73.5" font-family="Helvetica,sans-Serif" font-size="10.00"># _update()</text>
<text text-anchor="start" x="292.5" y="-62.5" font-family="Helvetica,sans-Serif" font-size="10.00"># _update()</text>
<text text-anchor="start" x="292.5" y="-51.5" font-family="Helvetica,sans-Serif" font-size="10.00"># _getPedalPower()</text>
<text text-anchor="start" x="292.5" y="-40.5" font-family="Helvetica,sans-Serif" font-size="10.00"># _mapToPowerLimit()</text>
<text text-anchor="start" x="292.5" y="-29.5" font-family="Helvetica,sans-Serif" font-size="10.00"># _ASR()</text>
<text text-anchor="start" x="292.5" y="-18.5" font-family="Helvetica,sans-Serif" font-size="10.00"># _applyGasCurve()</text>
<text text-anchor="start" x="292.5" y="-7.5" font-family="Helvetica,sans-Serif" font-size="10.00"># _applyMaxPower()</text>
</g>
<!-- Node2 -->
<g id="node2" class="node"><title>Node2</title>
<g id="a_node2"><a xlink:href="class_i_program.html" target="_top" xlink:title="{IProgram\n||}">
<polygon fill="white" stroke="black" points="119,-1167.5 119,-1224.5 179,-1224.5 179,-1167.5 119,-1167.5"/>
<text text-anchor="middle" x="149" y="-1212.5" font-family="Helvetica,sans-Serif" font-size="10.00">IProgram</text>
<polyline fill="none" stroke="black" points="119,-1205.5 179,-1205.5 "/>
<text text-anchor="middle" x="149" y="-1193.5" font-family="Helvetica,sans-Serif" font-size="10.00"> </text>
<polyline fill="none" stroke="black" points="119,-1186.5 179,-1186.5 "/>
<text text-anchor="middle" x="149" y="-1174.5" font-family="Helvetica,sans-Serif" font-size="10.00"> </text>
</a>
</g>
</g>
<!-- Node2&#45;&gt;Node1 -->
<g id="edge1" class="edge"><title>Node2&#45;&gt;Node1</title>
<path fill="none" stroke="midnightblue" d="M148.376,-1157.16C147.497,-1100.49 146,-990.224 146,-896.5 146,-896.5 146,-896.5 146,-397 146,-307.402 223.482,-231.829 284.317,-186.3"/>
<polygon fill="none" stroke="midnightblue" points="144.881,-1157.48 148.538,-1167.43 151.88,-1157.37 144.881,-1157.48"/>
</g>
<!-- Node3 -->
<g id="node3" class="node"><title>Node3</title>
<g id="a_node3"><a xlink:href="class_i_runable.html" target="_top" xlink:title="{IRunable\n||+ IRunable()\l+ run()\l+ setStatus()\l+ getStatus()\l}">
<polygon fill="white" stroke="black" points="178.5,-1654 178.5,-1744 261.5,-1744 261.5,-1654 178.5,-1654"/>
<text text-anchor="middle" x="220" y="-1732" font-family="Helvetica,sans-Serif" font-size="10.00">IRunable</text>
<polyline fill="none" stroke="black" points="178.5,-1725 261.5,-1725 "/>
<text text-anchor="middle" x="220" y="-1713" font-family="Helvetica,sans-Serif" font-size="10.00"> </text>
<polyline fill="none" stroke="black" points="178.5,-1706 261.5,-1706 "/>
<text text-anchor="start" x="186.5" y="-1694" font-family="Helvetica,sans-Serif" font-size="10.00">+ IRunable()</text>
<text text-anchor="start" x="186.5" y="-1683" font-family="Helvetica,sans-Serif" font-size="10.00">+ run()</text>
<text text-anchor="start" x="186.5" y="-1672" font-family="Helvetica,sans-Serif" font-size="10.00">+ setStatus()</text>
<text text-anchor="start" x="186.5" y="-1661" font-family="Helvetica,sans-Serif" font-size="10.00">+ getStatus()</text>
</a>
</g>
</g>
<!-- Node3&#45;&gt;Node2 -->
<g id="edge2" class="edge"><title>Node3&#45;&gt;Node2</title>
<path fill="none" stroke="midnightblue" d="M212.317,-1643.78C197.246,-1537.44 164.286,-1304.86 152.934,-1224.76"/>
<polygon fill="none" stroke="midnightblue" points="208.893,-1644.57 213.761,-1653.98 215.824,-1643.59 208.893,-1644.57"/>
</g>
<!-- Node8 -->
<g id="node8" class="node"><title>Node8</title>
<g id="a_node8"><a xlink:href="class_i_service.html" target="_top" xlink:title="{IService\n||}">
<polygon fill="white" stroke="black" points="192,-1298.5 192,-1355.5 246,-1355.5 246,-1298.5 192,-1298.5"/>
<text text-anchor="middle" x="219" y="-1343.5" font-family="Helvetica,sans-Serif" font-size="10.00">IService</text>
<polyline fill="none" stroke="black" points="192,-1336.5 246,-1336.5 "/>
<text text-anchor="middle" x="219" y="-1324.5" font-family="Helvetica,sans-Serif" font-size="10.00"> </text>
<polyline fill="none" stroke="black" points="192,-1317.5 246,-1317.5 "/>
<text text-anchor="middle" x="219" y="-1305.5" font-family="Helvetica,sans-Serif" font-size="10.00"> </text>
</a>
</g>
</g>
<!-- Node3&#45;&gt;Node8 -->
<g id="edge8" class="edge"><title>Node3&#45;&gt;Node8</title>
<path fill="none" stroke="midnightblue" d="M219.852,-1643.37C219.636,-1563.32 219.241,-1417.05 219.076,-1355.97"/>
<polygon fill="none" stroke="midnightblue" points="216.353,-1643.75 219.88,-1653.74 223.353,-1643.73 216.353,-1643.75"/>
</g>
<!-- Node14 -->
<g id="node14" class="node"><title>Node14</title>
<g id="a_node14"><a xlink:href="class_sync.html" target="_top" xlink:title="{Sync\n||+ Sync()\l+ addComponent()\l+ addBridge()\l+ receive()\l+ send()\l+ run()\l+ messageInQueue()\l+ finalize()\l+ Sync()\l+ receive()\land 7 more...\l}">
<polygon fill="white" stroke="black" points="264.5,-1243.5 264.5,-1410.5 383.5,-1410.5 383.5,-1243.5 264.5,-1243.5"/>
<text text-anchor="middle" x="324" y="-1398.5" font-family="Helvetica,sans-Serif" font-size="10.00">Sync</text>
<polyline fill="none" stroke="black" points="264.5,-1391.5 383.5,-1391.5 "/>
<text text-anchor="middle" x="324" y="-1379.5" font-family="Helvetica,sans-Serif" font-size="10.00"> </text>
<polyline fill="none" stroke="black" points="264.5,-1372.5 383.5,-1372.5 "/>
<text text-anchor="start" x="272.5" y="-1360.5" font-family="Helvetica,sans-Serif" font-size="10.00">+ Sync()</text>
<text text-anchor="start" x="272.5" y="-1349.5" font-family="Helvetica,sans-Serif" font-size="10.00">+ addComponent()</text>
<text text-anchor="start" x="272.5" y="-1338.5" font-family="Helvetica,sans-Serif" font-size="10.00">+ addBridge()</text>
<text text-anchor="start" x="272.5" y="-1327.5" font-family="Helvetica,sans-Serif" font-size="10.00">+ receive()</text>
<text text-anchor="start" x="272.5" y="-1316.5" font-family="Helvetica,sans-Serif" font-size="10.00">+ send()</text>
<text text-anchor="start" x="272.5" y="-1305.5" font-family="Helvetica,sans-Serif" font-size="10.00">+ run()</text>
<text text-anchor="start" x="272.5" y="-1294.5" font-family="Helvetica,sans-Serif" font-size="10.00">+ messageInQueue()</text>
<text text-anchor="start" x="272.5" y="-1283.5" font-family="Helvetica,sans-Serif" font-size="10.00">+ finalize()</text>
<text text-anchor="start" x="272.5" y="-1272.5" font-family="Helvetica,sans-Serif" font-size="10.00">+ Sync()</text>
<text text-anchor="start" x="272.5" y="-1261.5" font-family="Helvetica,sans-Serif" font-size="10.00">+ receive()</text>
<text text-anchor="start" x="272.5" y="-1250.5" font-family="Helvetica,sans-Serif" font-size="10.00">and 7 more...</text>
</a>
</g>
</g>
<!-- Node3&#45;&gt;Node14 -->
<g id="edge17" class="edge"><title>Node3&#45;&gt;Node14</title>
<path fill="none" stroke="midnightblue" d="M220.631,-1643.59C226.842,-1588.53 242.642,-1501.42 267,-1429 269.042,-1422.93 271.356,-1416.74 273.856,-1410.57"/>
<polygon fill="none" stroke="midnightblue" points="217.12,-1643.51 219.55,-1653.82 224.081,-1644.25 217.12,-1643.51"/>
</g>
<!-- Node3&#45;&gt;Node14 -->
<g id="edge18" class="edge"><title>Node3&#45;&gt;Node14</title>
<path fill="none" stroke="midnightblue" d="M234.155,-1643.93C244.776,-1588.89 260.591,-1501.57 285,-1429 287.042,-1422.93 289.356,-1416.74 291.817,-1410.57"/>
<polygon fill="none" stroke="midnightblue" points="230.705,-1643.34 232.232,-1653.82 237.577,-1644.67 230.705,-1643.34"/>
</g>
<!-- Node4 -->
<g id="node4" class="node"><title>Node4</title>
<g id="a_node4"><a xlink:href="class_i_component.html" target="_top" xlink:title="{IComponent\n||+ IComponent()\l+ IComponent()\l+ setComponentSubId()\l+ getComponentType()\l+ getComponentSubId()\l+ getComponentId()\l+ getObjectType()\l# setComponentType()\l# setObjectType()\l}">
<polygon fill="white" stroke="black" points="153,-1820.5 153,-1965.5 287,-1965.5 287,-1820.5 153,-1820.5"/>
<text text-anchor="middle" x="220" y="-1953.5" font-family="Helvetica,sans-Serif" font-size="10.00">IComponent</text>
<polyline fill="none" stroke="black" points="153,-1946.5 287,-1946.5 "/>
<text text-anchor="middle" x="220" y="-1934.5" font-family="Helvetica,sans-Serif" font-size="10.00"> </text>
<polyline fill="none" stroke="black" points="153,-1927.5 287,-1927.5 "/>
<text text-anchor="start" x="161" y="-1915.5" font-family="Helvetica,sans-Serif" font-size="10.00">+ IComponent()</text>
<text text-anchor="start" x="161" y="-1904.5" font-family="Helvetica,sans-Serif" font-size="10.00">+ IComponent()</text>
<text text-anchor="start" x="161" y="-1893.5" font-family="Helvetica,sans-Serif" font-size="10.00">+ setComponentSubId()</text>
<text text-anchor="start" x="161" y="-1882.5" font-family="Helvetica,sans-Serif" font-size="10.00">+ getComponentType()</text>
<text text-anchor="start" x="161" y="-1871.5" font-family="Helvetica,sans-Serif" font-size="10.00">+ getComponentSubId()</text>
<text text-anchor="start" x="161" y="-1860.5" font-family="Helvetica,sans-Serif" font-size="10.00">+ getComponentId()</text>
<text text-anchor="start" x="161" y="-1849.5" font-family="Helvetica,sans-Serif" font-size="10.00">+ getObjectType()</text>
<text text-anchor="start" x="161" y="-1838.5" font-family="Helvetica,sans-Serif" font-size="10.00"># setComponentType()</text>
<text text-anchor="start" x="161" y="-1827.5" font-family="Helvetica,sans-Serif" font-size="10.00"># setObjectType()</text>
</a>
</g>
</g>
<!-- Node4&#45;&gt;Node3 -->
<g id="edge3" class="edge"><title>Node4&#45;&gt;Node3</title>
<path fill="none" stroke="midnightblue" d="M220,-1809.94C220,-1787.32 220,-1763.66 220,-1744.1"/>
<polygon fill="none" stroke="midnightblue" points="216.5,-1810.23 220,-1820.23 223.5,-1810.23 216.5,-1810.23"/>
</g>
<!-- Node9 -->
<g id="node9" class="node"><title>Node9</title>
<g id="a_node9"><a xlink:href="class_i_motor_controller.html" target="_top" xlink:title="{IMotorController\n||+ IMotorController()\l+ getState()\l+ setState()\l+ setTorque()\l+ getSpeed()\l+ getCurrent()\l+ getMotorTemp()\l+ getServoTemp()\l+ getAirTemp()\l+ setRFE()\land 6 more...\l}">
<polygon fill="white" stroke="black" points="0,-1429.5 0,-1596.5 112,-1596.5 112,-1429.5 0,-1429.5"/>
<text text-anchor="middle" x="56" y="-1584.5" font-family="Helvetica,sans-Serif" font-size="10.00">IMotorController</text>
<polyline fill="none" stroke="black" points="0,-1577.5 112,-1577.5 "/>
<text text-anchor="middle" x="56" y="-1565.5" font-family="Helvetica,sans-Serif" font-size="10.00"> </text>
<polyline fill="none" stroke="black" points="0,-1558.5 112,-1558.5 "/>
<text text-anchor="start" x="8" y="-1546.5" font-family="Helvetica,sans-Serif" font-size="10.00">+ IMotorController()</text>
<text text-anchor="start" x="8" y="-1535.5" font-family="Helvetica,sans-Serif" font-size="10.00">+ getState()</text>
<text text-anchor="start" x="8" y="-1524.5" font-family="Helvetica,sans-Serif" font-size="10.00">+ setState()</text>
<text text-anchor="start" x="8" y="-1513.5" font-family="Helvetica,sans-Serif" font-size="10.00">+ setTorque()</text>
<text text-anchor="start" x="8" y="-1502.5" font-family="Helvetica,sans-Serif" font-size="10.00">+ getSpeed()</text>
<text text-anchor="start" x="8" y="-1491.5" font-family="Helvetica,sans-Serif" font-size="10.00">+ getCurrent()</text>
<text text-anchor="start" x="8" y="-1480.5" font-family="Helvetica,sans-Serif" font-size="10.00">+ getMotorTemp()</text>
<text text-anchor="start" x="8" y="-1469.5" font-family="Helvetica,sans-Serif" font-size="10.00">+ getServoTemp()</text>
<text text-anchor="start" x="8" y="-1458.5" font-family="Helvetica,sans-Serif" font-size="10.00">+ getAirTemp()</text>
<text text-anchor="start" x="8" y="-1447.5" font-family="Helvetica,sans-Serif" font-size="10.00">+ setRFE()</text>
<text text-anchor="start" x="8" y="-1436.5" font-family="Helvetica,sans-Serif" font-size="10.00">and 6 more...</text>
</a>
</g>
</g>
<!-- Node4&#45;&gt;Node9 -->
<g id="edge10" class="edge"><title>Node4&#45;&gt;Node9</title>
<path fill="none" stroke="midnightblue" d="M181.66,-1810.99C177.335,-1801.58 173.036,-1792.09 169,-1783 141.467,-1720.96 111.797,-1650.16 89.7713,-1596.78"/>
<polygon fill="none" stroke="midnightblue" points="178.617,-1812.75 185.985,-1820.36 184.973,-1809.82 178.617,-1812.75"/>
</g>
<!-- Node13 -->
<g id="node13" class="node"><title>Node13</title>
<g id="a_node13"><a xlink:href="class_i_communication.html" target="_top" xlink:title="{ICommunication\n||+ receive()\l}">
<polygon fill="white" stroke="black" points="277.5,-1484.5 277.5,-1541.5 372.5,-1541.5 372.5,-1484.5 277.5,-1484.5"/>
<text text-anchor="middle" x="325" y="-1529.5" font-family="Helvetica,sans-Serif" font-size="10.00">ICommunication</text>
<polyline fill="none" stroke="black" points="277.5,-1522.5 372.5,-1522.5 "/>
<text text-anchor="middle" x="325" y="-1510.5" font-family="Helvetica,sans-Serif" font-size="10.00"> </text>
<polyline fill="none" stroke="black" points="277.5,-1503.5 372.5,-1503.5 "/>
<text text-anchor="start" x="285.5" y="-1491.5" font-family="Helvetica,sans-Serif" font-size="10.00">+ receive()</text>
</a>
</g>
</g>
<!-- Node4&#45;&gt;Node13 -->
<g id="edge15" class="edge"><title>Node4&#45;&gt;Node13</title>
<path fill="none" stroke="midnightblue" d="M259.608,-1810.97C263.428,-1801.66 266.993,-1792.2 270,-1783 298.061,-1697.14 314.716,-1590.99 321.475,-1541.64"/>
<polygon fill="none" stroke="midnightblue" points="256.368,-1809.65 255.714,-1820.22 262.819,-1812.36 256.368,-1809.65"/>
</g>
<!-- Node5 -->
<g id="node5" class="node"><title>Node5</title>
<g id="a_node5"><a xlink:href="class_i_logable.html" target="_top" xlink:title="{ILogable\n||+ setStatus()\l+ getStatus()\l+ getLogValueCount()\l+ getLogValue()\l}">
<polygon fill="white" stroke="black" points="158.5,-2003.5 158.5,-2093.5 281.5,-2093.5 281.5,-2003.5 158.5,-2003.5"/>
<text text-anchor="middle" x="220" y="-2081.5" font-family="Helvetica,sans-Serif" font-size="10.00">ILogable</text>
<polyline fill="none" stroke="black" points="158.5,-2074.5 281.5,-2074.5 "/>
<text text-anchor="middle" x="220" y="-2062.5" font-family="Helvetica,sans-Serif" font-size="10.00"> </text>
<polyline fill="none" stroke="black" points="158.5,-2055.5 281.5,-2055.5 "/>
<text text-anchor="start" x="166.5" y="-2043.5" font-family="Helvetica,sans-Serif" font-size="10.00">+ setStatus()</text>
<text text-anchor="start" x="166.5" y="-2032.5" font-family="Helvetica,sans-Serif" font-size="10.00">+ getStatus()</text>
<text text-anchor="start" x="166.5" y="-2021.5" font-family="Helvetica,sans-Serif" font-size="10.00">+ getLogValueCount()</text>
<text text-anchor="start" x="166.5" y="-2010.5" font-family="Helvetica,sans-Serif" font-size="10.00">+ getLogValue()</text>
</a>
</g>
</g>
<!-- Node5&#45;&gt;Node4 -->
<g id="edge4" class="edge"><title>Node5&#45;&gt;Node4</title>
<path fill="none" stroke="midnightblue" d="M220,-1992.98C220,-1984.16 220,-1974.92 220,-1965.77"/>
<polygon fill="none" stroke="midnightblue" points="216.5,-1993.1 220,-2003.1 223.5,-1993.1 216.5,-1993.1"/>
</g>
<!-- Node6 -->
<g id="node6" class="node"><title>Node6</title>
<g id="a_node6"><a xlink:href="class_non_copyable.html" target="_top" xlink:title="{NonCopyable\&lt; ILogable \&gt;\n||+ NonCopyable()\l}">
<polygon fill="white" stroke="black" points="148.5,-2131.5 148.5,-2188.5 291.5,-2188.5 291.5,-2131.5 148.5,-2131.5"/>
<text text-anchor="middle" x="220" y="-2176.5" font-family="Helvetica,sans-Serif" font-size="10.00">NonCopyable&lt; ILogable &gt;</text>
<polyline fill="none" stroke="black" points="148.5,-2169.5 291.5,-2169.5 "/>
<text text-anchor="middle" x="220" y="-2157.5" font-family="Helvetica,sans-Serif" font-size="10.00"> </text>
<polyline fill="none" stroke="black" points="148.5,-2150.5 291.5,-2150.5 "/>
<text text-anchor="start" x="156.5" y="-2138.5" font-family="Helvetica,sans-Serif" font-size="10.00">+ NonCopyable()</text>
</a>
</g>
</g>
<!-- Node6&#45;&gt;Node5 -->
<g id="edge5" class="edge"><title>Node6&#45;&gt;Node5</title>
<path fill="none" stroke="#8b1a1a" d="M220,-2121.31C220,-2112.43 220,-2102.88 220,-2093.74"/>
<polygon fill="none" stroke="#8b1a1a" points="216.5,-2121.37 220,-2131.37 223.5,-2121.37 216.5,-2121.37"/>
</g>
<!-- Node7 -->
<g id="node7" class="node"><title>Node7</title>
<g id="a_node7"><a xlink:href="class_s_car.html" target="_top" xlink:title="{SCar\n||+ SCar()\l+ run()\l+ addError()\l+ processErrors()\l+ getState()\l+ setState()\l+ calibrationNeeded()\l+ startUp()\l+ getMaxPower()\l+ setMaxPower()\l}">
<polygon fill="white" stroke="black" points="161,-817.5 161,-973.5 283,-973.5 283,-817.5 161,-817.5"/>
<text text-anchor="middle" x="222" y="-961.5" font-family="Helvetica,sans-Serif" font-size="10.00">SCar</text>
<polyline fill="none" stroke="black" points="161,-954.5 283,-954.5 "/>
<text text-anchor="middle" x="222" y="-942.5" font-family="Helvetica,sans-Serif" font-size="10.00"> </text>
<polyline fill="none" stroke="black" points="161,-935.5 283,-935.5 "/>
<text text-anchor="start" x="169" y="-923.5" font-family="Helvetica,sans-Serif" font-size="10.00">+ SCar()</text>
<text text-anchor="start" x="169" y="-912.5" font-family="Helvetica,sans-Serif" font-size="10.00">+ run()</text>
<text text-anchor="start" x="169" y="-901.5" font-family="Helvetica,sans-Serif" font-size="10.00">+ addError()</text>
<text text-anchor="start" x="169" y="-890.5" font-family="Helvetica,sans-Serif" font-size="10.00">+ processErrors()</text>
<text text-anchor="start" x="169" y="-879.5" font-family="Helvetica,sans-Serif" font-size="10.00">+ getState()</text>
<text text-anchor="start" x="169" y="-868.5" font-family="Helvetica,sans-Serif" font-size="10.00">+ setState()</text>
<text text-anchor="start" x="169" y="-857.5" font-family="Helvetica,sans-Serif" font-size="10.00">+ calibrationNeeded()</text>
<text text-anchor="start" x="169" y="-846.5" font-family="Helvetica,sans-Serif" font-size="10.00">+ startUp()</text>
<text text-anchor="start" x="169" y="-835.5" font-family="Helvetica,sans-Serif" font-size="10.00">+ getMaxPower()</text>
<text text-anchor="start" x="169" y="-824.5" font-family="Helvetica,sans-Serif" font-size="10.00">+ setMaxPower()</text>
</a>
</g>
</g>
<!-- Node7&#45;&gt;Node1 -->
<g id="edge6" class="edge"><title>Node7&#45;&gt;Node1</title>
<path fill="none" stroke="#404040" d="M210.108,-817.435C198.873,-729.054 187.348,-580.331 214,-456 227.091,-394.929 252.928,-331.406 279.015,-277.471"/>
<polygon fill="none" stroke="#404040" points="279.128,-277.241 278.175,-270.093 284.406,-266.464 285.359,-273.612 279.128,-277.241"/>
<text text-anchor="middle" x="247.5" y="-537.5" font-family="Helvetica,sans-Serif" font-size="10.00"> #_carService</text>
</g>
<!-- Node8&#45;&gt;Node7 -->
<g id="edge7" class="edge"><title>Node8&#45;&gt;Node7</title>
<path fill="none" stroke="midnightblue" d="M219.263,-1288.34C219.753,-1218.2 220.814,-1066.27 221.462,-973.556"/>
<polygon fill="none" stroke="midnightblue" points="215.762,-1288.46 219.192,-1298.48 222.762,-1288.5 215.762,-1288.46"/>
</g>
<!-- Node9&#45;&gt;Node1 -->
<g id="edge9" class="edge"><title>Node9&#45;&gt;Node1</title>
<path fill="none" stroke="#404040" d="M48.6787,-1429.17C43.6953,-1365.69 38,-1275.88 38,-1197 38,-1197 38,-1197 38,-397 38,-276.096 178.77,-202.309 272.991,-166.462"/>
<polygon fill="none" stroke="#404040" points="272.991,-166.462 277.22,-160.621 284.238,-162.278 280.009,-168.119 272.991,-166.462"/>
<text text-anchor="middle" x="84.5" y="-893" font-family="Helvetica,sans-Serif" font-size="10.00"> #_motorController</text>
</g>
<!-- Node10 -->
<g id="node10" class="node"><title>Node10</title>
<g id="a_node10"><a xlink:href="struct_p_motor_controller_1_1__pedal_struct__t.html" target="_top" xlink:title="{PMotorController::\l_pedalStruct_t\n|+ lastValue\l+ ageStarted\l|+ _pedalStruct_t()\l}">
<polygon fill="white" stroke="black" points="518.5,-358.5 518.5,-437.5 623.5,-437.5 623.5,-358.5 518.5,-358.5"/>
<text text-anchor="start" x="526.5" y="-425.5" font-family="Helvetica,sans-Serif" font-size="10.00">PMotorController::</text>
<text text-anchor="middle" x="571" y="-414.5" font-family="Helvetica,sans-Serif" font-size="10.00">_pedalStruct_t</text>
<polyline fill="none" stroke="black" points="518.5,-407.5 623.5,-407.5 "/>
<text text-anchor="start" x="526.5" y="-395.5" font-family="Helvetica,sans-Serif" font-size="10.00">+ lastValue</text>
<text text-anchor="start" x="526.5" y="-384.5" font-family="Helvetica,sans-Serif" font-size="10.00">+ ageStarted</text>
<polyline fill="none" stroke="black" points="518.5,-377.5 623.5,-377.5 "/>
<text text-anchor="start" x="526.5" y="-365.5" font-family="Helvetica,sans-Serif" font-size="10.00">+ _pedalStruct_t()</text>
</a>
</g>
</g>
<!-- Node10&#45;&gt;Node1 -->
<g id="edge11" class="edge"><title>Node10&#45;&gt;Node1</title>
<path fill="none" stroke="#404040" d="M553.418,-358.427C543.674,-338.873 530.589,-315.257 516,-296 492.847,-265.439 463.725,-235.225 436.693,-209.645"/>
<polygon fill="none" stroke="#404040" points="436.38,-209.352 429.266,-208.173 427.618,-201.153 434.732,-202.332 436.38,-209.352"/>
<text text-anchor="middle" x="578" y="-321" font-family="Helvetica,sans-Serif" font-size="10.00"> #_brakePedal</text>
<text text-anchor="middle" x="578" y="-310" font-family="Helvetica,sans-Serif" font-size="10.00">#_gasPedal</text>
</g>
<!-- Node11 -->
<g id="node11" class="node"><title>Node11</title>
<g id="a_node11"><a xlink:href="class_i_pedal.html" target="_top" xlink:title="{IPedal\n||+ IPedal()\l+ setProportionality()\l+ getValue()\l+ setCalibrationStatus()\l+ getCalibrationStatus()\l+ setMaxDeviance()\l+ setMaxDevianceTime()\l+ setValue()\l+ getLogValueCount()\l+ getLogValue()\l}">
<polygon fill="white" stroke="black" points="555.5,-642.5 555.5,-798.5 692.5,-798.5 692.5,-642.5 555.5,-642.5"/>
<text text-anchor="middle" x="624" y="-786.5" font-family="Helvetica,sans-Serif" font-size="10.00">IPedal</text>
<polyline fill="none" stroke="black" points="555.5,-779.5 692.5,-779.5 "/>
<text text-anchor="middle" x="624" y="-767.5" font-family="Helvetica,sans-Serif" font-size="10.00"> </text>
<polyline fill="none" stroke="black" points="555.5,-760.5 692.5,-760.5 "/>
<text text-anchor="start" x="563.5" y="-748.5" font-family="Helvetica,sans-Serif" font-size="10.00">+ IPedal()</text>
<text text-anchor="start" x="563.5" y="-737.5" font-family="Helvetica,sans-Serif" font-size="10.00">+ setProportionality()</text>
<text text-anchor="start" x="563.5" y="-726.5" font-family="Helvetica,sans-Serif" font-size="10.00">+ getValue()</text>
<text text-anchor="start" x="563.5" y="-715.5" font-family="Helvetica,sans-Serif" font-size="10.00">+ setCalibrationStatus()</text>
<text text-anchor="start" x="563.5" y="-704.5" font-family="Helvetica,sans-Serif" font-size="10.00">+ getCalibrationStatus()</text>
<text text-anchor="start" x="563.5" y="-693.5" font-family="Helvetica,sans-Serif" font-size="10.00">+ setMaxDeviance()</text>
<text text-anchor="start" x="563.5" y="-682.5" font-family="Helvetica,sans-Serif" font-size="10.00">+ setMaxDevianceTime()</text>
<text text-anchor="start" x="563.5" y="-671.5" font-family="Helvetica,sans-Serif" font-size="10.00">+ setValue()</text>
<text text-anchor="start" x="563.5" y="-660.5" font-family="Helvetica,sans-Serif" font-size="10.00">+ getLogValueCount()</text>
<text text-anchor="start" x="563.5" y="-649.5" font-family="Helvetica,sans-Serif" font-size="10.00">+ getLogValue()</text>
</a>
</g>
</g>
<!-- Node11&#45;&gt;Node10 -->
<g id="edge12" class="edge"><title>Node11&#45;&gt;Node10</title>
<path fill="none" stroke="#404040" d="M567.148,-642.418C564.327,-636.375 561.887,-630.206 560,-624 542.4,-566.124 550.084,-496.046 558.924,-449.639"/>
<polygon fill="none" stroke="#404040" points="558.94,-449.556 556.2,-442.886 561.304,-437.791 564.044,-444.462 558.94,-449.556"/>
<text text-anchor="middle" x="580.5" y="-537.5" font-family="Helvetica,sans-Serif" font-size="10.00"> +object</text>
</g>
<!-- Node12 -->
<g id="node12" class="node"><title>Node12</title>
<g id="a_node12"><a xlink:href="class_self_syncable.html" target="_top" xlink:title="{SelfSyncable\n|# _syncerAttached\l|+ attach()\l+ detach()\l# _sendCommand()\l# _sendCommand()\l# _sendCommand()\l# _send()\l# _convertFloat()\l# _reconvertFloat()\l# _disassambleFloat()\l# _reassambleFloat()\l}">
<polygon fill="white" stroke="black" points="350,-992.5 350,-1148.5 474,-1148.5 474,-992.5 350,-992.5"/>
<text text-anchor="middle" x="412" y="-1136.5" font-family="Helvetica,sans-Serif" font-size="10.00">SelfSyncable</text>
<polyline fill="none" stroke="black" points="350,-1129.5 474,-1129.5 "/>
<text text-anchor="start" x="358" y="-1117.5" font-family="Helvetica,sans-Serif" font-size="10.00"># _syncerAttached</text>
<polyline fill="none" stroke="black" points="350,-1110.5 474,-1110.5 "/>
<text text-anchor="start" x="358" y="-1098.5" font-family="Helvetica,sans-Serif" font-size="10.00">+ attach()</text>
<text text-anchor="start" x="358" y="-1087.5" font-family="Helvetica,sans-Serif" font-size="10.00">+ detach()</text>
<text text-anchor="start" x="358" y="-1076.5" font-family="Helvetica,sans-Serif" font-size="10.00"># _sendCommand()</text>
<text text-anchor="start" x="358" y="-1065.5" font-family="Helvetica,sans-Serif" font-size="10.00"># _sendCommand()</text>
<text text-anchor="start" x="358" y="-1054.5" font-family="Helvetica,sans-Serif" font-size="10.00"># _sendCommand()</text>
<text text-anchor="start" x="358" y="-1043.5" font-family="Helvetica,sans-Serif" font-size="10.00"># _send()</text>
<text text-anchor="start" x="358" y="-1032.5" font-family="Helvetica,sans-Serif" font-size="10.00"># _convertFloat()</text>
<text text-anchor="start" x="358" y="-1021.5" font-family="Helvetica,sans-Serif" font-size="10.00"># _reconvertFloat()</text>
<text text-anchor="start" x="358" y="-1010.5" font-family="Helvetica,sans-Serif" font-size="10.00"># _disassambleFloat()</text>
<text text-anchor="start" x="358" y="-999.5" font-family="Helvetica,sans-Serif" font-size="10.00"># _reassambleFloat()</text>
</a>
</g>
</g>
<!-- Node12&#45;&gt;Node11 -->
<g id="edge13" class="edge"><title>Node12&#45;&gt;Node11</title>
<path fill="none" stroke="midnightblue" d="M464.284,-983.676C498.819,-926.985 543.695,-853.321 577.082,-798.517"/>
<polygon fill="none" stroke="midnightblue" points="461.263,-981.906 459.05,-992.268 467.241,-985.548 461.263,-981.906"/>
</g>
<!-- Node21 -->
<g id="node21" class="node"><title>Node21</title>
<g id="a_node21"><a xlink:href="class_i_registry.html" target="_top" xlink:title="{IRegistry\n||+ IRegistry()\l+ getReady()\l+ setReady()\l+ getFloat()\l+ getUInt8()\l+ getUInt16()\l+ getUInt32()\l+ getInt8()\l+ getInt16()\l+ getInt32()\land 9 more...\l}">
<polygon fill="white" stroke="black" points="290.5,-456.5 290.5,-623.5 373.5,-623.5 373.5,-456.5 290.5,-456.5"/>
<text text-anchor="middle" x="332" y="-611.5" font-family="Helvetica,sans-Serif" font-size="10.00">IRegistry</text>
<polyline fill="none" stroke="black" points="290.5,-604.5 373.5,-604.5 "/>
<text text-anchor="middle" x="332" y="-592.5" font-family="Helvetica,sans-Serif" font-size="10.00"> </text>
<polyline fill="none" stroke="black" points="290.5,-585.5 373.5,-585.5 "/>
<text text-anchor="start" x="298.5" y="-573.5" font-family="Helvetica,sans-Serif" font-size="10.00">+ IRegistry()</text>
<text text-anchor="start" x="298.5" y="-562.5" font-family="Helvetica,sans-Serif" font-size="10.00">+ getReady()</text>
<text text-anchor="start" x="298.5" y="-551.5" font-family="Helvetica,sans-Serif" font-size="10.00">+ setReady()</text>
<text text-anchor="start" x="298.5" y="-540.5" font-family="Helvetica,sans-Serif" font-size="10.00">+ getFloat()</text>
<text text-anchor="start" x="298.5" y="-529.5" font-family="Helvetica,sans-Serif" font-size="10.00">+ getUInt8()</text>
<text text-anchor="start" x="298.5" y="-518.5" font-family="Helvetica,sans-Serif" font-size="10.00">+ getUInt16()</text>
<text text-anchor="start" x="298.5" y="-507.5" font-family="Helvetica,sans-Serif" font-size="10.00">+ getUInt32()</text>
<text text-anchor="start" x="298.5" y="-496.5" font-family="Helvetica,sans-Serif" font-size="10.00">+ getInt8()</text>
<text text-anchor="start" x="298.5" y="-485.5" font-family="Helvetica,sans-Serif" font-size="10.00">+ getInt16()</text>
<text text-anchor="start" x="298.5" y="-474.5" font-family="Helvetica,sans-Serif" font-size="10.00">+ getInt32()</text>
<text text-anchor="start" x="298.5" y="-463.5" font-family="Helvetica,sans-Serif" font-size="10.00">and 9 more...</text>
</a>
</g>
</g>
<!-- Node12&#45;&gt;Node21 -->
<g id="edge28" class="edge"><title>Node12&#45;&gt;Node21</title>
<path fill="none" stroke="midnightblue" d="M373.127,-982.819C351.907,-930.706 327.809,-862.397 317,-799 305.272,-730.215 311.861,-711.588 317,-642 317.444,-635.989 318.035,-629.793 318.725,-623.568"/>
<polygon fill="none" stroke="midnightblue" points="370.009,-984.441 377.052,-992.356 376.483,-981.777 370.009,-984.441"/>
</g>
<!-- Node23 -->
<g id="node23" class="node"><title>Node23</title>
<g id="a_node23"><a xlink:href="class_i_rpm_sensor.html" target="_top" xlink:title="{IRpmSensor\n||+ IRpmSensor()\l+ setMeasurementPointsPerRevolution()\l+ setFrequency()\l+ getMeasurementsPerRevolution()\l+ getFrequency()\l+ getLogValueCount()\l+ getLogValue()\l}">
<polygon fill="white" stroke="black" points="326.5,-659 326.5,-782 537.5,-782 537.5,-659 326.5,-659"/>
<text text-anchor="middle" x="432" y="-770" font-family="Helvetica,sans-Serif" font-size="10.00">IRpmSensor</text>
<polyline fill="none" stroke="black" points="326.5,-763 537.5,-763 "/>
<text text-anchor="middle" x="432" y="-751" font-family="Helvetica,sans-Serif" font-size="10.00"> </text>
<polyline fill="none" stroke="black" points="326.5,-744 537.5,-744 "/>
<text text-anchor="start" x="334.5" y="-732" font-family="Helvetica,sans-Serif" font-size="10.00">+ IRpmSensor()</text>
<text text-anchor="start" x="334.5" y="-721" font-family="Helvetica,sans-Serif" font-size="10.00">+ setMeasurementPointsPerRevolution()</text>
<text text-anchor="start" x="334.5" y="-710" font-family="Helvetica,sans-Serif" font-size="10.00">+ setFrequency()</text>
<text text-anchor="start" x="334.5" y="-699" font-family="Helvetica,sans-Serif" font-size="10.00">+ getMeasurementsPerRevolution()</text>
<text text-anchor="start" x="334.5" y="-688" font-family="Helvetica,sans-Serif" font-size="10.00">+ getFrequency()</text>
<text text-anchor="start" x="334.5" y="-677" font-family="Helvetica,sans-Serif" font-size="10.00">+ getLogValueCount()</text>
<text text-anchor="start" x="334.5" y="-666" font-family="Helvetica,sans-Serif" font-size="10.00">+ getLogValue()</text>
</a>
</g>
</g>
<!-- Node12&#45;&gt;Node23 -->
<g id="edge31" class="edge"><title>Node12&#45;&gt;Node23</title>
<path fill="none" stroke="midnightblue" d="M417.026,-982.04C420.613,-919.642 425.343,-837.325 428.519,-782.064"/>
<polygon fill="none" stroke="midnightblue" points="413.518,-982.083 416.439,-992.268 420.507,-982.485 413.518,-982.083"/>
</g>
<!-- Node13&#45;&gt;Node12 -->
<g id="edge14" class="edge"><title>Node13&#45;&gt;Node12</title>
<path fill="none" stroke="midnightblue" d="M345.592,-1475.41C354.399,-1460.62 365.144,-1443.62 376,-1429 382.382,-1420.41 387.903,-1420.89 392,-1411 427.082,-1326.31 426.969,-1219.48 421.446,-1148.51"/>
<polygon fill="none" stroke="midnightblue" points="342.42,-1473.9 340.375,-1484.3 348.456,-1477.45 342.42,-1473.9"/>
</g>
<!-- Node14&#45;&gt;Node12 -->
<g id="edge16" class="edge"><title>Node14&#45;&gt;Node12</title>
<path fill="none" stroke="#404040" d="M330.202,-1243.36C333.874,-1218.25 339.714,-1190.97 349,-1167 349.925,-1164.61 350.916,-1162.22 351.965,-1159.84"/>
<polygon fill="none" stroke="#404040" points="352.095,-1159.57 351.067,-1152.43 357.26,-1148.73 358.288,-1155.87 352.095,-1159.57"/>
<text text-anchor="middle" x="373.5" y="-1193.5" font-family="Helvetica,sans-Serif" font-size="10.00"> #_syncer</text>
</g>
<!-- Node15 -->
<g id="node15" class="node"><title>Node15</title>
<g id="a_node15"><a xlink:href="classstd_1_1vector.html" target="_top" xlink:title="{std::vector\&lt; CarMessage \&gt;\n||+ ~vector()\l+ at()\l+ operator[]()\l+ front()\l+ back()\l+ data()\l+ begin()\l+ end()\l+ empty()\l+ size()\land 7 more...\l}">
<polygon fill="white" stroke="black" points="321.5,-1615.5 321.5,-1782.5 470.5,-1782.5 470.5,-1615.5 321.5,-1615.5"/>
<text text-anchor="middle" x="396" y="-1770.5" font-family="Helvetica,sans-Serif" font-size="10.00">std::vector&lt; CarMessage &gt;</text>
<polyline fill="none" stroke="black" points="321.5,-1763.5 470.5,-1763.5 "/>
<text text-anchor="middle" x="396" y="-1751.5" font-family="Helvetica,sans-Serif" font-size="10.00"> </text>
<polyline fill="none" stroke="black" points="321.5,-1744.5 470.5,-1744.5 "/>
<text text-anchor="start" x="329.5" y="-1732.5" font-family="Helvetica,sans-Serif" font-size="10.00">+ ~vector()</text>
<text text-anchor="start" x="329.5" y="-1721.5" font-family="Helvetica,sans-Serif" font-size="10.00">+ at()</text>
<text text-anchor="start" x="329.5" y="-1710.5" font-family="Helvetica,sans-Serif" font-size="10.00">+ operator[]()</text>
<text text-anchor="start" x="329.5" y="-1699.5" font-family="Helvetica,sans-Serif" font-size="10.00">+ front()</text>
<text text-anchor="start" x="329.5" y="-1688.5" font-family="Helvetica,sans-Serif" font-size="10.00">+ back()</text>
<text text-anchor="start" x="329.5" y="-1677.5" font-family="Helvetica,sans-Serif" font-size="10.00">+ data()</text>
<text text-anchor="start" x="329.5" y="-1666.5" font-family="Helvetica,sans-Serif" font-size="10.00">+ begin()</text>
<text text-anchor="start" x="329.5" y="-1655.5" font-family="Helvetica,sans-Serif" font-size="10.00">+ end()</text>
<text text-anchor="start" x="329.5" y="-1644.5" font-family="Helvetica,sans-Serif" font-size="10.00">+ empty()</text>
<text text-anchor="start" x="329.5" y="-1633.5" font-family="Helvetica,sans-Serif" font-size="10.00">+ size()</text>
<text text-anchor="start" x="329.5" y="-1622.5" font-family="Helvetica,sans-Serif" font-size="10.00">and 7 more...</text>
</a>
</g>
</g>
<!-- Node15&#45;&gt;Node14 -->
<g id="edge19" class="edge"><title>Node15&#45;&gt;Node14</title>
<path fill="none" stroke="#404040" d="M397.236,-1615.37C396.105,-1561.43 390.912,-1489.95 374,-1429 373.362,-1426.7 372.672,-1424.39 371.936,-1422.08"/>
<polygon fill="none" stroke="#404040" points="371.854,-1421.85 366.1,-1417.5 367.9,-1410.52 373.654,-1414.87 371.854,-1421.85"/>
<text text-anchor="middle" x="455.5" y="-1510.5" font-family="Helvetica,sans-Serif" font-size="10.00"> +receivedCarMessages</text>
</g>
<!-- Node16 -->
<g id="node16" class="node"><title>Node16</title>
<g id="a_node16"><a xlink:href="class_non_copyable.html" target="_top" xlink:title="{NonCopyable\&lt; vector\l\&lt; CarMessage, unsigned\l int \&gt; \&gt;\n||+ NonCopyable()\l}">
<polygon fill="white" stroke="black" points="327.5,-1853.5 327.5,-1932.5 464.5,-1932.5 464.5,-1853.5 327.5,-1853.5"/>
<text text-anchor="start" x="335.5" y="-1920.5" font-family="Helvetica,sans-Serif" font-size="10.00">NonCopyable&lt; vector</text>
<text text-anchor="start" x="335.5" y="-1909.5" font-family="Helvetica,sans-Serif" font-size="10.00">&lt; CarMessage, unsigned</text>
<text text-anchor="middle" x="396" y="-1898.5" font-family="Helvetica,sans-Serif" font-size="10.00"> int &gt; &gt;</text>
<polyline fill="none" stroke="black" points="327.5,-1891.5 464.5,-1891.5 "/>
<text text-anchor="middle" x="396" y="-1879.5" font-family="Helvetica,sans-Serif" font-size="10.00"> </text>
<polyline fill="none" stroke="black" points="327.5,-1872.5 464.5,-1872.5 "/>
<text text-anchor="start" x="335.5" y="-1860.5" font-family="Helvetica,sans-Serif" font-size="10.00">+ NonCopyable()</text>
</a>
</g>
</g>
<!-- Node16&#45;&gt;Node15 -->
<g id="edge20" class="edge"><title>Node16&#45;&gt;Node15</title>
<path fill="none" stroke="#8b1a1a" d="M396,-1843.02C396,-1824.7 396,-1803.34 396,-1782.81"/>
<polygon fill="none" stroke="#8b1a1a" points="392.5,-1843.15 396,-1853.15 399.5,-1843.15 392.5,-1843.15"/>
</g>
<!-- Node17 -->
<g id="node17" class="node"><title>Node17</title>
<g id="a_node17"><a xlink:href="class_timer.html" target="_top" xlink:title="{Timer\n||}">
<polygon fill="white" stroke="black" points="711,-692 711,-749 755,-749 755,-692 711,-692"/>
<text text-anchor="middle" x="733" y="-737" font-family="Helvetica,sans-Serif" font-size="10.00">Timer</text>
<polyline fill="none" stroke="black" points="711,-730 755,-730 "/>
<text text-anchor="middle" x="733" y="-718" font-family="Helvetica,sans-Serif" font-size="10.00"> </text>
<polyline fill="none" stroke="black" points="711,-711 755,-711 "/>
<text text-anchor="middle" x="733" y="-699" font-family="Helvetica,sans-Serif" font-size="10.00"> </text>
</a>
</g>
</g>
<!-- Node17&#45;&gt;Node1 -->
<g id="edge33" class="edge"><title>Node17&#45;&gt;Node1</title>
<path fill="none" stroke="#404040" d="M748.908,-691.701C758.566,-673.178 769.971,-647.929 775,-624 805.418,-479.275 831.933,-391.482 719,-296 636.542,-226.284 518.235,-183.32 439.346,-160.569"/>
<polygon fill="none" stroke="#404040" points="439.066,-160.489 432.204,-162.706 427.519,-157.224 434.381,-155.007 439.066,-160.489"/>
<text text-anchor="middle" x="854.5" y="-395.5" font-family="Helvetica,sans-Serif" font-size="10.00"> #_hardBrakeingSince</text>
</g>
<!-- Node17&#45;&gt;Node10 -->
<g id="edge21" class="edge"><title>Node17&#45;&gt;Node10</title>
<path fill="none" stroke="#404040" d="M726.072,-691.848C721.064,-675.983 713.033,-656.416 701,-642 691.52,-630.642 680.809,-636.565 673,-624 633.338,-560.177 692.686,-520.419 654,-456 650.828,-450.718 643.108,-444.022 633.586,-437.091"/>
<polygon fill="none" stroke="#404040" points="633.419,-436.975 626.209,-436.836 623.565,-430.127 630.775,-430.266 633.419,-436.975"/>
<text text-anchor="middle" x="688" y="-537.5" font-family="Helvetica,sans-Serif" font-size="10.00"> +age</text>
</g>
<!-- Node20 -->
<g id="node20" class="node"><title>Node20</title>
<g id="a_node20"><a xlink:href="struct_p_motor_controller_1_1__asr_save.html" target="_top" xlink:title="{PMotorController::\l_asrSave\n|+ lastTorque\l+ lastA\l|}">
<polygon fill="white" stroke="black" points="647.5,-358.5 647.5,-437.5 750.5,-437.5 750.5,-358.5 647.5,-358.5"/>
<text text-anchor="start" x="655.5" y="-425.5" font-family="Helvetica,sans-Serif" font-size="10.00">PMotorController::</text>
<text text-anchor="middle" x="699" y="-414.5" font-family="Helvetica,sans-Serif" font-size="10.00">_asrSave</text>
<polyline fill="none" stroke="black" points="647.5,-407.5 750.5,-407.5 "/>
<text text-anchor="start" x="655.5" y="-395.5" font-family="Helvetica,sans-Serif" font-size="10.00">+ lastTorque</text>
<text text-anchor="start" x="655.5" y="-384.5" font-family="Helvetica,sans-Serif" font-size="10.00">+ lastA</text>
<polyline fill="none" stroke="black" points="647.5,-377.5 750.5,-377.5 "/>
<text text-anchor="middle" x="699" y="-365.5" font-family="Helvetica,sans-Serif" font-size="10.00"> </text>
</a>
</g>
</g>
<!-- Node17&#45;&gt;Node20 -->
<g id="edge26" class="edge"><title>Node17&#45;&gt;Node20</title>
<path fill="none" stroke="#404040" d="M730.641,-691.765C726.468,-643.694 717.251,-541.811 707,-456 706.756,-453.954 706.499,-451.867 706.233,-449.76"/>
<polygon fill="none" stroke="#404040" points="706.199,-449.503 701.452,-444.075 704.637,-437.605 709.384,-443.033 706.199,-449.503"/>
<text text-anchor="middle" x="748" y="-537.5" font-family="Helvetica,sans-Serif" font-size="10.00"> +lastRun</text>
</g>
<!-- Node22 -->
<g id="node22" class="node"><title>Node22</title>
<g id="a_node22"><a xlink:href="struct_p_motor_controller_1_1__rpm_sensor_struct__t.html" target="_top" xlink:title="{PMotorController::\l_rpmSensorStruct_t\n|+ lastValue\l+ ageStarted\l|}">
<polygon fill="white" stroke="black" points="387.5,-358.5 387.5,-437.5 500.5,-437.5 500.5,-358.5 387.5,-358.5"/>
<text text-anchor="start" x="395.5" y="-425.5" font-family="Helvetica,sans-Serif" font-size="10.00">PMotorController::</text>
<text text-anchor="middle" x="444" y="-414.5" font-family="Helvetica,sans-Serif" font-size="10.00">_rpmSensorStruct_t</text>
<polyline fill="none" stroke="black" points="387.5,-407.5 500.5,-407.5 "/>
<text text-anchor="start" x="395.5" y="-395.5" font-family="Helvetica,sans-Serif" font-size="10.00">+ lastValue</text>
<text text-anchor="start" x="395.5" y="-384.5" font-family="Helvetica,sans-Serif" font-size="10.00">+ ageStarted</text>
<polyline fill="none" stroke="black" points="387.5,-377.5 500.5,-377.5 "/>
<text text-anchor="middle" x="444" y="-365.5" font-family="Helvetica,sans-Serif" font-size="10.00"> </text>
</a>
</g>
</g>
<!-- Node17&#45;&gt;Node22 -->
<g id="edge32" class="edge"><title>Node17&#45;&gt;Node22</title>
<path fill="none" stroke="#404040" d="M728.201,-691.646C723.879,-674.888 715.821,-654.457 701,-642 672.769,-618.272 644.658,-651.422 620,-624 569.757,-568.125 651.95,-511.231 601,-456 575.178,-428.008 552.19,-448.634 512.517,-438.365"/>
<polygon fill="none" stroke="#404040" points="512.282,-438.288 505.34,-440.24 500.868,-434.583 507.81,-432.631 512.282,-438.288"/>
<text text-anchor="middle" x="635" y="-537.5" font-family="Helvetica,sans-Serif" font-size="10.00"> +age</text>
</g>
<!-- Node18 -->
<g id="node18" class="node"><title>Node18</title>
<g id="a_node18"><a xlink:href="class_i_timer.html" target="_top" xlink:title="{ITimer\n||+ ITimer()\l+ start()\l+ stop()\l+ reset()\l+ read()\l+ read_ms()\l+ operator float()\l# getMillis()\l}">
<polygon fill="white" stroke="black" points="682.5,-1003.5 682.5,-1137.5 783.5,-1137.5 783.5,-1003.5 682.5,-1003.5"/>
<text text-anchor="middle" x="733" y="-1125.5" font-family="Helvetica,sans-Serif" font-size="10.00">ITimer</text>
<polyline fill="none" stroke="black" points="682.5,-1118.5 783.5,-1118.5 "/>
<text text-anchor="middle" x="733" y="-1106.5" font-family="Helvetica,sans-Serif" font-size="10.00"> </text>
<polyline fill="none" stroke="black" points="682.5,-1099.5 783.5,-1099.5 "/>
<text text-anchor="start" x="690.5" y="-1087.5" font-family="Helvetica,sans-Serif" font-size="10.00">+ ITimer()</text>
<text text-anchor="start" x="690.5" y="-1076.5" font-family="Helvetica,sans-Serif" font-size="10.00">+ start()</text>
<text text-anchor="start" x="690.5" y="-1065.5" font-family="Helvetica,sans-Serif" font-size="10.00">+ stop()</text>
<text text-anchor="start" x="690.5" y="-1054.5" font-family="Helvetica,sans-Serif" font-size="10.00">+ reset()</text>
<text text-anchor="start" x="690.5" y="-1043.5" font-family="Helvetica,sans-Serif" font-size="10.00">+ read()</text>
<text text-anchor="start" x="690.5" y="-1032.5" font-family="Helvetica,sans-Serif" font-size="10.00">+ read_ms()</text>
<text text-anchor="start" x="690.5" y="-1021.5" font-family="Helvetica,sans-Serif" font-size="10.00">+ operator float()</text>
<text text-anchor="start" x="690.5" y="-1010.5" font-family="Helvetica,sans-Serif" font-size="10.00"># getMillis()</text>
</a>
</g>
</g>
<!-- Node18&#45;&gt;Node17 -->
<g id="edge22" class="edge"><title>Node18&#45;&gt;Node17</title>
<path fill="none" stroke="midnightblue" d="M727.3,-993.09C725.44,-916.087 726.051,-801.398 729.135,-749.183"/>
<polygon fill="none" stroke="midnightblue" points="723.804,-993.32 727.565,-1003.22 730.802,-993.136 723.804,-993.32"/>
</g>
<!-- Node18&#45;&gt;Node17 -->
<g id="edge24" class="edge"><title>Node18&#45;&gt;Node17</title>
<path fill="none" stroke="midnightblue" d="M738.7,-993.09C740.56,-916.087 739.949,-801.398 736.865,-749.183"/>
<polygon fill="none" stroke="midnightblue" points="735.198,-993.136 738.435,-1003.22 742.196,-993.32 735.198,-993.136"/>
</g>
<!-- Node19 -->
<g id="node19" class="node"><title>Node19</title>
<g id="a_node19"><a xlink:href="class_non_copyable.html" target="_top" xlink:title="{NonCopyable\&lt; ITimer \&gt;\n||+ NonCopyable()\l}">
<polygon fill="white" stroke="black" points="667,-1298.5 667,-1355.5 799,-1355.5 799,-1298.5 667,-1298.5"/>
<text text-anchor="middle" x="733" y="-1343.5" font-family="Helvetica,sans-Serif" font-size="10.00">NonCopyable&lt; ITimer &gt;</text>
<polyline fill="none" stroke="black" points="667,-1336.5 799,-1336.5 "/>
<text text-anchor="middle" x="733" y="-1324.5" font-family="Helvetica,sans-Serif" font-size="10.00"> </text>
<polyline fill="none" stroke="black" points="667,-1317.5 799,-1317.5 "/>
<text text-anchor="start" x="675" y="-1305.5" font-family="Helvetica,sans-Serif" font-size="10.00">+ NonCopyable()</text>
</a>
</g>
</g>
<!-- Node19&#45;&gt;Node18 -->
<g id="edge23" class="edge"><title>Node19&#45;&gt;Node18</title>
<path fill="none" stroke="#8b1a1a" d="M733,-1288.25C733,-1248.62 733,-1185.55 733,-1137.64"/>
<polygon fill="none" stroke="#8b1a1a" points="729.5,-1288.28 733,-1298.28 736.5,-1288.28 729.5,-1288.28"/>
</g>
<!-- Node20&#45;&gt;Node1 -->
<g id="edge25" class="edge"><title>Node20&#45;&gt;Node1</title>
<path fill="none" stroke="#404040" d="M672.603,-358.27C657.749,-338.215 637.999,-314.188 617,-296 562.777,-249.035 492.578,-207.974 438.642,-179.783"/>
<polygon fill="none" stroke="#404040" points="438.395,-179.655 431.228,-180.451 427.737,-174.142 434.904,-173.346 438.395,-179.655"/>
<text text-anchor="middle" x="687" y="-315.5" font-family="Helvetica,sans-Serif" font-size="10.00"> #_asrSave</text>
</g>
<!-- Node21&#45;&gt;Node1 -->
<g id="edge27" class="edge"><title>Node21&#45;&gt;Node1</title>
<path fill="none" stroke="#404040" d="M325.804,-456.346C325.482,-450.14 325.207,-443.973 325,-438 323.77,-402.466 322.491,-393.467 325,-358 326.561,-335.939 328.999,-312.716 331.839,-289.983"/>
<polygon fill="none" stroke="#404040" points="331.877,-289.685 328.674,-283.224 333.406,-277.783 336.609,-284.243 331.877,-289.685"/>
<text text-anchor="middle" x="351.5" y="-395.5" font-family="Helvetica,sans-Serif" font-size="10.00"> #_registry</text>
</g>
<!-- Node22&#45;&gt;Node1 -->
<g id="edge29" class="edge"><title>Node22&#45;&gt;Node1</title>
<path fill="none" stroke="#404040" d="M430.73,-358.246C424.164,-339.069 415.773,-314.565 407.002,-288.948"/>
<polygon fill="none" stroke="#404040" points="406.975,-288.869 401.247,-284.488 403.087,-277.516 408.815,-281.897 406.975,-288.869"/>
<text text-anchor="middle" x="467.5" y="-332" font-family="Helvetica,sans-Serif" font-size="10.00"> #_rearLeftWheel</text>
<text text-anchor="middle" x="467.5" y="-321" font-family="Helvetica,sans-Serif" font-size="10.00">#_frontRightWheel</text>
<text text-anchor="middle" x="467.5" y="-310" font-family="Helvetica,sans-Serif" font-size="10.00">#_rearRightWheel</text>
<text text-anchor="middle" x="467.5" y="-299" font-family="Helvetica,sans-Serif" font-size="10.00">#_frontLeftWheel</text>
</g>
<!-- Node23&#45;&gt;Node22 -->
<g id="edge30" class="edge"><title>Node23&#45;&gt;Node22</title>
<path fill="none" stroke="#404040" d="M434.271,-658.84C436.533,-598.439 439.965,-506.765 442.09,-450"/>
<polygon fill="none" stroke="#404040" points="442.1,-449.74 438.327,-443.594 442.549,-437.748 446.322,-443.894 442.1,-449.74"/>
<text text-anchor="middle" x="462.5" y="-537.5" font-family="Helvetica,sans-Serif" font-size="10.00"> +object</text>
</g>
</g>
</svg>
