<?xml version="1.0" encoding="UTF-8" standalone="no"?>
<!DOCTYPE svg PUBLIC "-//W3C//DTD SVG 1.1//EN"
 "http://www.w3.org/Graphics/SVG/1.1/DTD/svg11.dtd">
<!-- Generated by graphviz version 2.38.0 (20140413.2041)
 -->
<!-- Title: SoftwareRpmSensor Pages: 1 -->
<!--zoomable 1004 -->
<svg id="main" version="1.1" xmlns="http://www.w3.org/2000/svg" xmlns:xlink="http://www.w3.org/1999/xlink" xml:space="preserve" onload="init(evt)">
<style type="text/css"><![CDATA[
.edge:hover path { stroke: red; }
.edge:hover polygon { stroke: red; fill: red; }
]]></style>
<script type="text/javascript"><![CDATA[
var edges = document.getElementsByTagName('g');
if (edges && edges.length) {
  for (var i=0;i<edges.length;i++) {
    if (edges[i].id.substr(0,4)=='edge') {
      edges[i].setAttribute('class','edge');
    }
  }
}
]]></script>
        <defs>
                <circle id="rim" cx="0" cy="0" r="7"/>
                <circle id="rim2" cx="0" cy="0" r="3.5"/>
                <g id="zoomPlus">
                        <use xlink:href="#rim" fill="#404040">
                                <set attributeName="fill" to="#808080" begin="zoomplus.mouseover" end="zoomplus.mouseout"/>
                        </use>
                        <path d="M-4,0h8M0,-4v8" fill="none" stroke="white" stroke-width="1.5" pointer-events="none"/>
                </g>
                <g id="zoomMin">
                        <use xlink:href="#rim" fill="#404040">
                                <set attributeName="fill" to="#808080" begin="zoomminus.mouseover" end="zoomminus.mouseout"/>
                        </use>
                        <path d="M-4,0h8" fill="none" stroke="white" stroke-width="1.5" pointer-events="none"/>
                </g>
                <g id="dirArrow">
                        <path fill="none" stroke="white" stroke-width="1.5" d="M0,-3.0v7 M-2.5,-0.5L0,-3.0L2.5,-0.5"/>
                </g>
               <g id="resetDef">
                       <use xlink:href="#rim2" fill="#404040">
                               <set attributeName="fill" to="#808080" begin="reset.mouseover" end="reset.mouseout"/>
                       </use>
               </g>
        </defs>

<script type="text/javascript">
var viewWidth = 219;
var viewHeight = 1004;
var sectionId = 'dynsection-0';
</script>
<script xlink:href="svgpan.js"/>
<svg id="graph" class="graph">
<g id="viewport">
<title>SoftwareRpmSensor</title>
<polygon fill="white" stroke="none" points="-4,4 -4,-1000 215,-1000 215,4 -4,4"/>
<!-- Node1 -->
<g id="node1" class="node"><title>Node1</title>
<polygon fill="#bfbfbf" stroke="black" points="0,-0.5 0,-134.5 211,-134.5 211,-0.5 0,-0.5"/>
<text text-anchor="middle" x="105.5" y="-122.5" font-family="Helvetica,sans-Serif" font-size="10.00">SoftwareRpmSensor</text>
<polyline fill="none" stroke="black" points="0,-115.5 211,-115.5 "/>
<text text-anchor="middle" x="105.5" y="-103.5" font-family="Helvetica,sans-Serif" font-size="10.00"> </text>
<polyline fill="none" stroke="black" points="0,-96.5 211,-96.5 "/>
<text text-anchor="start" x="8" y="-84.5" font-family="Helvetica,sans-Serif" font-size="10.00">+ SoftwareRpmSensor()</text>
<text text-anchor="start" x="8" y="-73.5" font-family="Helvetica,sans-Serif" font-size="10.00">+ setStatus()</text>
<text text-anchor="start" x="8" y="-62.5" font-family="Helvetica,sans-Serif" font-size="10.00">+ getStatus()</text>
<text text-anchor="start" x="8" y="-51.5" font-family="Helvetica,sans-Serif" font-size="10.00">+ setMeasurementPointsPerRevolution()</text>
<text text-anchor="start" x="8" y="-40.5" font-family="Helvetica,sans-Serif" font-size="10.00">+ setFrequency()</text>
<text text-anchor="start" x="8" y="-29.5" font-family="Helvetica,sans-Serif" font-size="10.00">+ getMeasurementsPerRevolution()</text>
<text text-anchor="start" x="8" y="-18.5" font-family="Helvetica,sans-Serif" font-size="10.00">+ getFrequency()</text>
<text text-anchor="start" x="8" y="-7.5" font-family="Helvetica,sans-Serif" font-size="10.00">+ receive()</text>
</g>
<!-- Node2 -->
<g id="node2" class="node"><title>Node2</title>
<g id="a_node2"><a xlink:href="class_i_rpm_sensor.html" target="_top" xlink:title="{IRpmSensor\n||+ IRpmSensor()\l+ setMeasurementPointsPerRevolution()\l+ setFrequency()\l+ getMeasurementsPerRevolution()\l+ getFrequency()\l+ getLogValueCount()\l+ getLogValue()\l}">
<polygon fill="white" stroke="black" points="0,-171.5 0,-294.5 211,-294.5 211,-171.5 0,-171.5"/>
<text text-anchor="middle" x="105.5" y="-282.5" font-family="Helvetica,sans-Serif" font-size="10.00">IRpmSensor</text>
<polyline fill="none" stroke="black" points="0,-275.5 211,-275.5 "/>
<text text-anchor="middle" x="105.5" y="-263.5" font-family="Helvetica,sans-Serif" font-size="10.00"> </text>
<polyline fill="none" stroke="black" points="0,-256.5 211,-256.5 "/>
<text text-anchor="start" x="8" y="-244.5" font-family="Helvetica,sans-Serif" font-size="10.00">+ IRpmSensor()</text>
<text text-anchor="start" x="8" y="-233.5" font-family="Helvetica,sans-Serif" font-size="10.00">+ setMeasurementPointsPerRevolution()</text>
<text text-anchor="start" x="8" y="-222.5" font-family="Helvetica,sans-Serif" font-size="10.00">+ setFrequency()</text>
<text text-anchor="start" x="8" y="-211.5" font-family="Helvetica,sans-Serif" font-size="10.00">+ getMeasurementsPerRevolution()</text>
<text text-anchor="start" x="8" y="-200.5" font-family="Helvetica,sans-Serif" font-size="10.00">+ getFrequency()</text>
<text text-anchor="start" x="8" y="-189.5" font-family="Helvetica,sans-Serif" font-size="10.00">+ getLogValueCount()</text>
<text text-anchor="start" x="8" y="-178.5" font-family="Helvetica,sans-Serif" font-size="10.00">+ getLogValue()</text>
</a>
</g>
</g>
<!-- Node2&#45;&gt;Node1 -->
<g id="edge1" class="edge"><title>Node2&#45;&gt;Node1</title>
<path fill="none" stroke="midnightblue" d="M105.5,-160.958C105.5,-152.217 105.5,-143.309 105.5,-134.645"/>
<polygon fill="none" stroke="midnightblue" points="102,-161.119 105.5,-171.119 109,-161.119 102,-161.119"/>
</g>
<!-- Node3 -->
<g id="node3" class="node"><title>Node3</title>
<g id="a_node3"><a xlink:href="class_self_syncable.html" target="_top" xlink:title="{SelfSyncable\n|# _syncer\l# _syncerAttached\l|+ attach()\l+ detach()\l# _sendCommand()\l# _sendCommand()\l# _sendCommand()\l# _send()\l# _convertFloat()\l# _reconvertFloat()\l# _disassambleFloat()\l# _reassambleFloat()\l}">
<polygon fill="white" stroke="black" points="43.5,-331.5 43.5,-498.5 167.5,-498.5 167.5,-331.5 43.5,-331.5"/>
<text text-anchor="middle" x="105.5" y="-486.5" font-family="Helvetica,sans-Serif" font-size="10.00">SelfSyncable</text>
<polyline fill="none" stroke="black" points="43.5,-479.5 167.5,-479.5 "/>
<text text-anchor="start" x="51.5" y="-467.5" font-family="Helvetica,sans-Serif" font-size="10.00"># _syncer</text>
<text text-anchor="start" x="51.5" y="-456.5" font-family="Helvetica,sans-Serif" font-size="10.00"># _syncerAttached</text>
<polyline fill="none" stroke="black" points="43.5,-449.5 167.5,-449.5 "/>
<text text-anchor="start" x="51.5" y="-437.5" font-family="Helvetica,sans-Serif" font-size="10.00">+ attach()</text>
<text text-anchor="start" x="51.5" y="-426.5" font-family="Helvetica,sans-Serif" font-size="10.00">+ detach()</text>
<text text-anchor="start" x="51.5" y="-415.5" font-family="Helvetica,sans-Serif" font-size="10.00"># _sendCommand()</text>
<text text-anchor="start" x="51.5" y="-404.5" font-family="Helvetica,sans-Serif" font-size="10.00"># _sendCommand()</text>
<text text-anchor="start" x="51.5" y="-393.5" font-family="Helvetica,sans-Serif" font-size="10.00"># _sendCommand()</text>
<text text-anchor="start" x="51.5" y="-382.5" font-family="Helvetica,sans-Serif" font-size="10.00"># _send()</text>
<text text-anchor="start" x="51.5" y="-371.5" font-family="Helvetica,sans-Serif" font-size="10.00"># _convertFloat()</text>
<text text-anchor="start" x="51.5" y="-360.5" font-family="Helvetica,sans-Serif" font-size="10.00"># _reconvertFloat()</text>
<text text-anchor="start" x="51.5" y="-349.5" font-family="Helvetica,sans-Serif" font-size="10.00"># _disassambleFloat()</text>
<text text-anchor="start" x="51.5" y="-338.5" font-family="Helvetica,sans-Serif" font-size="10.00"># _reassambleFloat()</text>
</a>
</g>
</g>
<!-- Node3&#45;&gt;Node2 -->
<g id="edge2" class="edge"><title>Node3&#45;&gt;Node2</title>
<path fill="none" stroke="midnightblue" d="M105.5,-321.194C105.5,-312.173 105.5,-303.189 105.5,-294.607"/>
<polygon fill="none" stroke="midnightblue" points="102,-321.375 105.5,-331.375 109,-321.375 102,-321.375"/>
</g>
<!-- Node4 -->
<g id="node4" class="node"><title>Node4</title>
<g id="a_node4"><a xlink:href="class_i_communication.html" target="_top" xlink:title="{ICommunication\n||+ receive()\l}">
<polygon fill="white" stroke="black" points="58,-535.5 58,-592.5 153,-592.5 153,-535.5 58,-535.5"/>
<text text-anchor="middle" x="105.5" y="-580.5" font-family="Helvetica,sans-Serif" font-size="10.00">ICommunication</text>
<polyline fill="none" stroke="black" points="58,-573.5 153,-573.5 "/>
<text text-anchor="middle" x="105.5" y="-561.5" font-family="Helvetica,sans-Serif" font-size="10.00"> </text>
<polyline fill="none" stroke="black" points="58,-554.5 153,-554.5 "/>
<text text-anchor="start" x="66" y="-542.5" font-family="Helvetica,sans-Serif" font-size="10.00">+ receive()</text>
</a>
</g>
</g>
<!-- Node4&#45;&gt;Node3 -->
<g id="edge3" class="edge"><title>Node4&#45;&gt;Node3</title>
<path fill="none" stroke="midnightblue" d="M105.5,-525.35C105.5,-517.08 105.5,-508.008 105.5,-498.738"/>
<polygon fill="none" stroke="midnightblue" points="102,-525.35 105.5,-535.35 109,-525.35 102,-525.35"/>
</g>
<!-- Node5 -->
<g id="node5" class="node"><title>Node5</title>
<g id="a_node5"><a xlink:href="class_i_component.html" target="_top" xlink:title="{IComponent\n||+ IComponent()\l+ IComponent()\l+ setComponentSubId()\l+ getComponentType()\l+ getComponentSubId()\l+ getComponentId()\l+ getObjectType()\l# setComponentType()\l# setObjectType()\l}">
<polygon fill="white" stroke="black" points="38.5,-629.5 38.5,-774.5 172.5,-774.5 172.5,-629.5 38.5,-629.5"/>
<text text-anchor="middle" x="105.5" y="-762.5" font-family="Helvetica,sans-Serif" font-size="10.00">IComponent</text>
<polyline fill="none" stroke="black" points="38.5,-755.5 172.5,-755.5 "/>
<text text-anchor="middle" x="105.5" y="-743.5" font-family="Helvetica,sans-Serif" font-size="10.00"> </text>
<polyline fill="none" stroke="black" points="38.5,-736.5 172.5,-736.5 "/>
<text text-anchor="start" x="46.5" y="-724.5" font-family="Helvetica,sans-Serif" font-size="10.00">+ IComponent()</text>
<text text-anchor="start" x="46.5" y="-713.5" font-family="Helvetica,sans-Serif" font-size="10.00">+ IComponent()</text>
<text text-anchor="start" x="46.5" y="-702.5" font-family="Helvetica,sans-Serif" font-size="10.00">+ setComponentSubId()</text>
<text text-anchor="start" x="46.5" y="-691.5" font-family="Helvetica,sans-Serif" font-size="10.00">+ getComponentType()</text>
<text text-anchor="start" x="46.5" y="-680.5" font-family="Helvetica,sans-Serif" font-size="10.00">+ getComponentSubId()</text>
<text text-anchor="start" x="46.5" y="-669.5" font-family="Helvetica,sans-Serif" font-size="10.00">+ getComponentId()</text>
<text text-anchor="start" x="46.5" y="-658.5" font-family="Helvetica,sans-Serif" font-size="10.00">+ getObjectType()</text>
<text text-anchor="start" x="46.5" y="-647.5" font-family="Helvetica,sans-Serif" font-size="10.00"># setComponentType()</text>
<text text-anchor="start" x="46.5" y="-636.5" font-family="Helvetica,sans-Serif" font-size="10.00"># setObjectType()</text>
</a>
</g>
</g>
<!-- Node5&#45;&gt;Node4 -->
<g id="edge4" class="edge"><title>Node5&#45;&gt;Node4</title>
<path fill="none" stroke="midnightblue" d="M105.5,-619.387C105.5,-609.861 105.5,-600.707 105.5,-592.714"/>
<polygon fill="none" stroke="midnightblue" points="102,-619.416 105.5,-629.416 109,-619.416 102,-619.416"/>
</g>
<!-- Node6 -->
<g id="node6" class="node"><title>Node6</title>
<g id="a_node6"><a xlink:href="class_i_logable.html" target="_top" xlink:title="{ILogable\n||+ setStatus()\l+ getStatus()\l+ getLogValueCount()\l+ getLogValue()\l}">
<polygon fill="white" stroke="black" points="44,-811.5 44,-901.5 167,-901.5 167,-811.5 44,-811.5"/>
<text text-anchor="middle" x="105.5" y="-889.5" font-family="Helvetica,sans-Serif" font-size="10.00">ILogable</text>
<polyline fill="none" stroke="black" points="44,-882.5 167,-882.5 "/>
<text text-anchor="middle" x="105.5" y="-870.5" font-family="Helvetica,sans-Serif" font-size="10.00"> </text>
<polyline fill="none" stroke="black" points="44,-863.5 167,-863.5 "/>
<text text-anchor="start" x="52" y="-851.5" font-family="Helvetica,sans-Serif" font-size="10.00">+ setStatus()</text>
<text text-anchor="start" x="52" y="-840.5" font-family="Helvetica,sans-Serif" font-size="10.00">+ getStatus()</text>
<text text-anchor="start" x="52" y="-829.5" font-family="Helvetica,sans-Serif" font-size="10.00">+ getLogValueCount()</text>
<text text-anchor="start" x="52" y="-818.5" font-family="Helvetica,sans-Serif" font-size="10.00">+ getLogValue()</text>
</a>
</g>
</g>
<!-- Node6&#45;&gt;Node5 -->
<g id="edge5" class="edge"><title>Node6&#45;&gt;Node5</title>
<path fill="none" stroke="midnightblue" d="M105.5,-801.13C105.5,-792.526 105.5,-783.516 105.5,-774.591"/>
<polygon fill="none" stroke="midnightblue" points="102,-801.391 105.5,-811.391 109,-801.391 102,-801.391"/>
</g>
<!-- Node7 -->
<g id="node7" class="node"><title>Node7</title>
<g id="a_node7"><a xlink:href="class_non_copyable.html" target="_top" xlink:title="{NonCopyable\&lt; ILogable \&gt;\n||+ NonCopyable()\l}">
<polygon fill="white" stroke="black" points="34,-938.5 34,-995.5 177,-995.5 177,-938.5 34,-938.5"/>
<text text-anchor="middle" x="105.5" y="-983.5" font-family="Helvetica,sans-Serif" font-size="10.00">NonCopyable&lt; ILogable &gt;</text>
<polyline fill="none" stroke="black" points="34,-976.5 177,-976.5 "/>
<text text-anchor="middle" x="105.5" y="-964.5" font-family="Helvetica,sans-Serif" font-size="10.00"> </text>
<polyline fill="none" stroke="black" points="34,-957.5 177,-957.5 "/>
<text text-anchor="start" x="42" y="-945.5" font-family="Helvetica,sans-Serif" font-size="10.00">+ NonCopyable()</text>
</a>
</g>
</g>
<!-- Node7&#45;&gt;Node6 -->
<g id="edge6" class="edge"><title>Node7&#45;&gt;Node6</title>
<path fill="none" stroke="#8b1a1a" d="M105.5,-928.214C105.5,-919.609 105.5,-910.394 105.5,-901.554"/>
<polygon fill="none" stroke="#8b1a1a" points="102,-928.34 105.5,-938.34 109,-928.34 102,-928.34"/>
</g>
</g>
</svg>
        <g id="navigator" transform="translate(0 0)" fill="#404254">
                <rect fill="#f2f5e9" fill-opacity="0.5" stroke="#606060" stroke-width=".5" x="0" y="0" width="60" height="60"/>
                <use id="zoomplus" xlink:href="#zoomPlus" x="17" y="9" onmousedown="handleZoom(evt,'in')"/>
                <use id="zoomminus" xlink:href="#zoomMin" x="42" y="9" onmousedown="handleZoom(evt,'out')"/>
                <use id="reset" xlink:href="#resetDef" x="30" y="36" onmousedown="handleReset()"/>
                <g id="arrowUp" xlink:href="#dirArrow" transform="translate(30 24)" onmousedown="handlePan(0,-1)">
                  <use xlink:href="#rim" fill="#404040">
                        <set attributeName="fill" to="#808080" begin="arrowUp.mouseover" end="arrowUp.mouseout"/>
                  </use>
                  <path fill="none" stroke="white" stroke-width="1.5" d="M0,-3.0v7 M-2.5,-0.5L0,-3.0L2.5,-0.5"/>
                </g>
                <g id="arrowRight" xlink:href="#dirArrow" transform="rotate(90) translate(36 -43)" onmousedown="handlePan(1,0)">
                  <use xlink:href="#rim" fill="#404040">
                        <set attributeName="fill" to="#808080" begin="arrowRight.mouseover" end="arrowRight.mouseout"/>
                  </use>
                  <path fill="none" stroke="white" stroke-width="1.5" d="M0,-3.0v7 M-2.5,-0.5L0,-3.0L2.5,-0.5"/>
                </g>
                <g id="arrowDown" xlink:href="#dirArrow" transform="rotate(180) translate(-30 -48)" onmousedown="handlePan(0,1)">
                  <use xlink:href="#rim" fill="#404040">
                        <set attributeName="fill" to="#808080" begin="arrowDown.mouseover" end="arrowDown.mouseout"/>
                  </use>
                  <path fill="none" stroke="white" stroke-width="1.5" d="M0,-3.0v7 M-2.5,-0.5L0,-3.0L2.5,-0.5"/>
                </g>
                <g id="arrowLeft" xlink:href="#dirArrow" transform="rotate(270) translate(-36 17)" onmousedown="handlePan(-1,0)">
                  <use xlink:href="#rim" fill="#404040">
                        <set attributeName="fill" to="#808080" begin="arrowLeft.mouseover" end="arrowLeft.mouseout"/>
                  </use>
                  <path fill="none" stroke="white" stroke-width="1.5" d="M0,-3.0v7 M-2.5,-0.5L0,-3.0L2.5,-0.5"/>
                </g>
        </g>
        <svg viewBox="0 0 15 15" width="100%" height="30px" preserveAspectRatio="xMaxYMin meet">
         <g id="arrow_out" transform="scale(0.3 0.3)">
          <a xlink:href="class_software_rpm_sensor__inherit__graph_org.svg" target="_base">
           <rect id="button" ry="5" rx="5" y="6" x="6" height="38" width="38"
                fill="#f2f5e9" fill-opacity="0.5" stroke="#606060" stroke-width="1.0"/>
           <path id="arrow"
             d="M 11.500037,31.436501 C 11.940474,20.09759 22.043105,11.32322 32.158766,21.979434 L 37.068811,17.246167 C 37.068811,17.246167 37.088388,32 37.088388,32 L 22.160133,31.978069 C 22.160133,31.978069 26.997745,27.140456 26.997745,27.140456 C 18.528582,18.264221 13.291696,25.230495 11.500037,31.436501 z"
             style="fill:#404040;"/>
          </a>
         </g>
        </svg>
</svg>
