<?xml version="1.0" encoding="UTF-8" standalone="no"?>
<!DOCTYPE svg PUBLIC "-//W3C//DTD SVG 1.1//EN"
 "http://www.w3.org/Graphics/SVG/1.1/DTD/svg11.dtd">
<!-- Generated by graphviz version 2.38.0 (20140413.2041)
 -->
<!-- Title: HardwareInterruptButton Pages: 1 -->
<svg width="691pt" height="1556pt"
 viewBox="0.00 0.00 691.00 1556.00" xmlns="http://www.w3.org/2000/svg" xmlns:xlink="http://www.w3.org/1999/xlink">
<g id="graph0" class="graph" transform="scale(1 1) rotate(0) translate(4 1552)">
<title>HardwareInterruptButton</title>
<polygon fill="white" stroke="none" points="-4,4 -4,-1552 687,-1552 687,4 -4,4"/>
<!-- Node1 -->
<g id="node1" class="node"><title>Node1</title>
<polygon fill="#bfbfbf" stroke="black" points="368,-0.5 368,-255.5 523,-255.5 523,-0.5 368,-0.5"/>
<text text-anchor="middle" x="445.5" y="-243.5" font-family="Helvetica,sans-Serif" font-size="10.00">HardwareInterruptButton</text>
<polyline fill="none" stroke="black" points="368,-236.5 523,-236.5 "/>
<text text-anchor="start" x="376" y="-224.5" font-family="Helvetica,sans-Serif" font-size="10.00"># _interruptPin</text>
<text text-anchor="start" x="376" y="-213.5" font-family="Helvetica,sans-Serif" font-size="10.00"># _lastHardwareState</text>
<text text-anchor="start" x="376" y="-202.5" font-family="Helvetica,sans-Serif" font-size="10.00"># _debouncing</text>
<text text-anchor="start" x="376" y="-191.5" font-family="Helvetica,sans-Serif" font-size="10.00"># _debounced</text>
<text text-anchor="start" x="376" y="-180.5" font-family="Helvetica,sans-Serif" font-size="10.00"># _status</text>
<text text-anchor="start" x="376" y="-169.5" font-family="Helvetica,sans-Serif" font-size="10.00"># _lastState</text>
<polyline fill="none" stroke="black" points="368,-162.5 523,-162.5 "/>
<text text-anchor="start" x="376" y="-150.5" font-family="Helvetica,sans-Serif" font-size="10.00">+ HardwareInterruptButton()</text>
<text text-anchor="start" x="376" y="-139.5" font-family="Helvetica,sans-Serif" font-size="10.00">+ setStatus()</text>
<text text-anchor="start" x="376" y="-128.5" font-family="Helvetica,sans-Serif" font-size="10.00">+ getStatus()</text>
<text text-anchor="start" x="376" y="-117.5" font-family="Helvetica,sans-Serif" font-size="10.00">+ setState()</text>
<text text-anchor="start" x="376" y="-106.5" font-family="Helvetica,sans-Serif" font-size="10.00">+ getState()</text>
<text text-anchor="start" x="376" y="-95.5" font-family="Helvetica,sans-Serif" font-size="10.00">+ getStateChanged()</text>
<text text-anchor="start" x="376" y="-84.5" font-family="Helvetica,sans-Serif" font-size="10.00">+ receive()</text>
<text text-anchor="start" x="376" y="-73.5" font-family="Helvetica,sans-Serif" font-size="10.00"># _debounce()</text>
<text text-anchor="start" x="376" y="-62.5" font-family="Helvetica,sans-Serif" font-size="10.00"># _checkLongClick()</text>
<text text-anchor="start" x="376" y="-51.5" font-family="Helvetica,sans-Serif" font-size="10.00"># _pressed()</text>
<text text-anchor="start" x="376" y="-40.5" font-family="Helvetica,sans-Serif" font-size="10.00"># _released()</text>
<text text-anchor="start" x="376" y="-29.5" font-family="Helvetica,sans-Serif" font-size="10.00"># _addState()</text>
<text text-anchor="start" x="376" y="-18.5" font-family="Helvetica,sans-Serif" font-size="10.00"># _readState()</text>
<text text-anchor="start" x="376" y="-7.5" font-family="Helvetica,sans-Serif" font-size="10.00"># _stateBufferFull()</text>
</g>
<!-- Node2 -->
<g id="node2" class="node"><title>Node2</title>
<g id="a_node2"><a xlink:href="class_i_button.html" target="_top" xlink:title="{IButton\n||+ IButton()\l+ setState()\l+ getState()\l+ getStateChanged()\l}">
<polygon fill="white" stroke="black" points="284.5,-342 284.5,-432 404.5,-432 404.5,-342 284.5,-342"/>
<text text-anchor="middle" x="344.5" y="-420" font-family="Helvetica,sans-Serif" font-size="10.00">IButton</text>
<polyline fill="none" stroke="black" points="284.5,-413 404.5,-413 "/>
<text text-anchor="middle" x="344.5" y="-401" font-family="Helvetica,sans-Serif" font-size="10.00"> </text>
<polyline fill="none" stroke="black" points="284.5,-394 404.5,-394 "/>
<text text-anchor="start" x="292.5" y="-382" font-family="Helvetica,sans-Serif" font-size="10.00">+ IButton()</text>
<text text-anchor="start" x="292.5" y="-371" font-family="Helvetica,sans-Serif" font-size="10.00">+ setState()</text>
<text text-anchor="start" x="292.5" y="-360" font-family="Helvetica,sans-Serif" font-size="10.00">+ getState()</text>
<text text-anchor="start" x="292.5" y="-349" font-family="Helvetica,sans-Serif" font-size="10.00">+ getStateChanged()</text>
</a>
</g>
</g>
<!-- Node2&#45;&gt;Node1 -->
<g id="edge1" class="edge"><title>Node2&#45;&gt;Node1</title>
<path fill="none" stroke="midnightblue" d="M365.53,-332.489C374.363,-310.011 385.048,-282.825 395.691,-255.742"/>
<polygon fill="none" stroke="midnightblue" points="362.263,-331.233 361.863,-341.82 368.778,-333.793 362.263,-331.233"/>
</g>
<!-- Node3 -->
<g id="node3" class="node"><title>Node3</title>
<g id="a_node3"><a xlink:href="class_self_syncable.html" target="_top" xlink:title="{SelfSyncable\n|# _syncerAttached\l|+ attach()\l+ detach()\l# _sendCommand()\l# _sendCommand()\l# _sendCommand()\l# _send()\l# _convertFloat()\l# _reconvertFloat()\l# _disassambleFloat()\l# _reassambleFloat()\l}">
<polygon fill="white" stroke="black" points="199.5,-508.5 199.5,-664.5 323.5,-664.5 323.5,-508.5 199.5,-508.5"/>
<text text-anchor="middle" x="261.5" y="-652.5" font-family="Helvetica,sans-Serif" font-size="10.00">SelfSyncable</text>
<polyline fill="none" stroke="black" points="199.5,-645.5 323.5,-645.5 "/>
<text text-anchor="start" x="207.5" y="-633.5" font-family="Helvetica,sans-Serif" font-size="10.00"># _syncerAttached</text>
<polyline fill="none" stroke="black" points="199.5,-626.5 323.5,-626.5 "/>
<text text-anchor="start" x="207.5" y="-614.5" font-family="Helvetica,sans-Serif" font-size="10.00">+ attach()</text>
<text text-anchor="start" x="207.5" y="-603.5" font-family="Helvetica,sans-Serif" font-size="10.00">+ detach()</text>
<text text-anchor="start" x="207.5" y="-592.5" font-family="Helvetica,sans-Serif" font-size="10.00"># _sendCommand()</text>
<text text-anchor="start" x="207.5" y="-581.5" font-family="Helvetica,sans-Serif" font-size="10.00"># _sendCommand()</text>
<text text-anchor="start" x="207.5" y="-570.5" font-family="Helvetica,sans-Serif" font-size="10.00"># _sendCommand()</text>
<text text-anchor="start" x="207.5" y="-559.5" font-family="Helvetica,sans-Serif" font-size="10.00"># _send()</text>
<text text-anchor="start" x="207.5" y="-548.5" font-family="Helvetica,sans-Serif" font-size="10.00"># _convertFloat()</text>
<text text-anchor="start" x="207.5" y="-537.5" font-family="Helvetica,sans-Serif" font-size="10.00"># _reconvertFloat()</text>
<text text-anchor="start" x="207.5" y="-526.5" font-family="Helvetica,sans-Serif" font-size="10.00"># _disassambleFloat()</text>
<text text-anchor="start" x="207.5" y="-515.5" font-family="Helvetica,sans-Serif" font-size="10.00"># _reassambleFloat()</text>
</a>
</g>
</g>
<!-- Node3&#45;&gt;Node2 -->
<g id="edge2" class="edge"><title>Node3&#45;&gt;Node2</title>
<path fill="none" stroke="midnightblue" d="M297.927,-498.822C307.622,-475.752 317.692,-451.79 325.977,-432.075"/>
<polygon fill="none" stroke="midnightblue" points="294.594,-497.718 293.947,-508.293 301.048,-500.43 294.594,-497.718"/>
</g>
<!-- Node17 -->
<g id="node17" class="node"><title>Node17</title>
<g id="a_node17"><a xlink:href="class_i_registry.html" target="_top" xlink:title="{IRegistry\n||+ IRegistry()\l+ getReady()\l+ setReady()\l+ getFloat()\l+ getUInt8()\l+ getUInt16()\l+ getUInt32()\l+ getInt8()\l+ getInt16()\l+ getInt32()\land 9 more...\l}">
<polygon fill="white" stroke="black" points="183,-303.5 183,-470.5 266,-470.5 266,-303.5 183,-303.5"/>
<text text-anchor="middle" x="224.5" y="-458.5" font-family="Helvetica,sans-Serif" font-size="10.00">IRegistry</text>
<polyline fill="none" stroke="black" points="183,-451.5 266,-451.5 "/>
<text text-anchor="middle" x="224.5" y="-439.5" font-family="Helvetica,sans-Serif" font-size="10.00"> </text>
<polyline fill="none" stroke="black" points="183,-432.5 266,-432.5 "/>
<text text-anchor="start" x="191" y="-420.5" font-family="Helvetica,sans-Serif" font-size="10.00">+ IRegistry()</text>
<text text-anchor="start" x="191" y="-409.5" font-family="Helvetica,sans-Serif" font-size="10.00">+ getReady()</text>
<text text-anchor="start" x="191" y="-398.5" font-family="Helvetica,sans-Serif" font-size="10.00">+ setReady()</text>
<text text-anchor="start" x="191" y="-387.5" font-family="Helvetica,sans-Serif" font-size="10.00">+ getFloat()</text>
<text text-anchor="start" x="191" y="-376.5" font-family="Helvetica,sans-Serif" font-size="10.00">+ getUInt8()</text>
<text text-anchor="start" x="191" y="-365.5" font-family="Helvetica,sans-Serif" font-size="10.00">+ getUInt16()</text>
<text text-anchor="start" x="191" y="-354.5" font-family="Helvetica,sans-Serif" font-size="10.00">+ getUInt32()</text>
<text text-anchor="start" x="191" y="-343.5" font-family="Helvetica,sans-Serif" font-size="10.00">+ getInt8()</text>
<text text-anchor="start" x="191" y="-332.5" font-family="Helvetica,sans-Serif" font-size="10.00">+ getInt16()</text>
<text text-anchor="start" x="191" y="-321.5" font-family="Helvetica,sans-Serif" font-size="10.00">+ getInt32()</text>
<text text-anchor="start" x="191" y="-310.5" font-family="Helvetica,sans-Serif" font-size="10.00">and 9 more...</text>
</a>
</g>
</g>
<!-- Node3&#45;&gt;Node17 -->
<g id="edge19" class="edge"><title>Node3&#45;&gt;Node17</title>
<path fill="none" stroke="midnightblue" d="M245.179,-498.38C243.455,-489.181 241.707,-479.846 239.993,-470.699"/>
<polygon fill="none" stroke="midnightblue" points="241.754,-499.108 247.036,-508.293 248.635,-497.819 241.754,-499.108"/>
</g>
<!-- Node4 -->
<g id="node4" class="node"><title>Node4</title>
<g id="a_node4"><a xlink:href="class_i_communication.html" target="_top" xlink:title="{ICommunication\n||+ receive()\l}">
<polygon fill="white" stroke="black" points="248,-898.5 248,-955.5 343,-955.5 343,-898.5 248,-898.5"/>
<text text-anchor="middle" x="295.5" y="-943.5" font-family="Helvetica,sans-Serif" font-size="10.00">ICommunication</text>
<polyline fill="none" stroke="black" points="248,-936.5 343,-936.5 "/>
<text text-anchor="middle" x="295.5" y="-924.5" font-family="Helvetica,sans-Serif" font-size="10.00"> </text>
<polyline fill="none" stroke="black" points="248,-917.5 343,-917.5 "/>
<text text-anchor="start" x="256" y="-905.5" font-family="Helvetica,sans-Serif" font-size="10.00">+ receive()</text>
</a>
</g>
</g>
<!-- Node4&#45;&gt;Node3 -->
<g id="edge3" class="edge"><title>Node4&#45;&gt;Node3</title>
<path fill="none" stroke="midnightblue" d="M296.331,-888.279C296.843,-840.314 295.926,-755.067 285.5,-683 284.631,-676.994 283.542,-670.817 282.31,-664.632"/>
<polygon fill="none" stroke="midnightblue" points="292.829,-888.454 296.194,-898.5 299.828,-888.548 292.829,-888.454"/>
</g>
<!-- Node5 -->
<g id="node5" class="node"><title>Node5</title>
<g id="a_node5"><a xlink:href="class_i_component.html" target="_top" xlink:title="{IComponent\n||+ IComponent()\l+ IComponent()\l+ setComponentSubId()\l+ getComponentType()\l+ getComponentSubId()\l+ getComponentId()\l+ getObjectType()\l# setComponentType()\l# setObjectType()\l}">
<polygon fill="white" stroke="black" points="192.5,-1179.5 192.5,-1324.5 326.5,-1324.5 326.5,-1179.5 192.5,-1179.5"/>
<text text-anchor="middle" x="259.5" y="-1312.5" font-family="Helvetica,sans-Serif" font-size="10.00">IComponent</text>
<polyline fill="none" stroke="black" points="192.5,-1305.5 326.5,-1305.5 "/>
<text text-anchor="middle" x="259.5" y="-1293.5" font-family="Helvetica,sans-Serif" font-size="10.00"> </text>
<polyline fill="none" stroke="black" points="192.5,-1286.5 326.5,-1286.5 "/>
<text text-anchor="start" x="200.5" y="-1274.5" font-family="Helvetica,sans-Serif" font-size="10.00">+ IComponent()</text>
<text text-anchor="start" x="200.5" y="-1263.5" font-family="Helvetica,sans-Serif" font-size="10.00">+ IComponent()</text>
<text text-anchor="start" x="200.5" y="-1252.5" font-family="Helvetica,sans-Serif" font-size="10.00">+ setComponentSubId()</text>
<text text-anchor="start" x="200.5" y="-1241.5" font-family="Helvetica,sans-Serif" font-size="10.00">+ getComponentType()</text>
<text text-anchor="start" x="200.5" y="-1230.5" font-family="Helvetica,sans-Serif" font-size="10.00">+ getComponentSubId()</text>
<text text-anchor="start" x="200.5" y="-1219.5" font-family="Helvetica,sans-Serif" font-size="10.00">+ getComponentId()</text>
<text text-anchor="start" x="200.5" y="-1208.5" font-family="Helvetica,sans-Serif" font-size="10.00">+ getObjectType()</text>
<text text-anchor="start" x="200.5" y="-1197.5" font-family="Helvetica,sans-Serif" font-size="10.00"># setComponentType()</text>
<text text-anchor="start" x="200.5" y="-1186.5" font-family="Helvetica,sans-Serif" font-size="10.00"># setObjectType()</text>
</a>
</g>
</g>
<!-- Node5&#45;&gt;Node4 -->
<g id="edge4" class="edge"><title>Node5&#45;&gt;Node4</title>
<path fill="none" stroke="midnightblue" d="M268.617,-1169.2C276.412,-1099.26 287.174,-1002.71 292.401,-955.805"/>
<polygon fill="none" stroke="midnightblue" points="265.119,-1168.99 267.49,-1179.32 272.076,-1169.77 265.119,-1168.99"/>
</g>
<!-- Node9 -->
<g id="node9" class="node"><title>Node9</title>
<g id="a_node9"><a xlink:href="class_i_runable.html" target="_top" xlink:title="{IRunable\n||+ IRunable()\l+ run()\l+ setStatus()\l+ getStatus()\l}">
<polygon fill="white" stroke="black" points="174,-1013 174,-1103 257,-1103 257,-1013 174,-1013"/>
<text text-anchor="middle" x="215.5" y="-1091" font-family="Helvetica,sans-Serif" font-size="10.00">IRunable</text>
<polyline fill="none" stroke="black" points="174,-1084 257,-1084 "/>
<text text-anchor="middle" x="215.5" y="-1072" font-family="Helvetica,sans-Serif" font-size="10.00"> </text>
<polyline fill="none" stroke="black" points="174,-1065 257,-1065 "/>
<text text-anchor="start" x="182" y="-1053" font-family="Helvetica,sans-Serif" font-size="10.00">+ IRunable()</text>
<text text-anchor="start" x="182" y="-1042" font-family="Helvetica,sans-Serif" font-size="10.00">+ run()</text>
<text text-anchor="start" x="182" y="-1031" font-family="Helvetica,sans-Serif" font-size="10.00">+ setStatus()</text>
<text text-anchor="start" x="182" y="-1020" font-family="Helvetica,sans-Serif" font-size="10.00">+ getStatus()</text>
</a>
</g>
</g>
<!-- Node5&#45;&gt;Node9 -->
<g id="edge9" class="edge"><title>Node5&#45;&gt;Node9</title>
<path fill="none" stroke="midnightblue" d="M240.764,-1169.24C235.561,-1146.54 230.109,-1122.75 225.607,-1103.1"/>
<polygon fill="none" stroke="midnightblue" points="237.408,-1170.27 243.053,-1179.23 244.231,-1168.7 237.408,-1170.27"/>
</g>
<!-- Node6 -->
<g id="node6" class="node"><title>Node6</title>
<g id="a_node6"><a xlink:href="class_i_logable.html" target="_top" xlink:title="{ILogable\n||+ setStatus()\l+ getStatus()\l+ getLogValueCount()\l+ getLogValue()\l}">
<polygon fill="white" stroke="black" points="198,-1362.5 198,-1452.5 321,-1452.5 321,-1362.5 198,-1362.5"/>
<text text-anchor="middle" x="259.5" y="-1440.5" font-family="Helvetica,sans-Serif" font-size="10.00">ILogable</text>
<polyline fill="none" stroke="black" points="198,-1433.5 321,-1433.5 "/>
<text text-anchor="middle" x="259.5" y="-1421.5" font-family="Helvetica,sans-Serif" font-size="10.00"> </text>
<polyline fill="none" stroke="black" points="198,-1414.5 321,-1414.5 "/>
<text text-anchor="start" x="206" y="-1402.5" font-family="Helvetica,sans-Serif" font-size="10.00">+ setStatus()</text>
<text text-anchor="start" x="206" y="-1391.5" font-family="Helvetica,sans-Serif" font-size="10.00">+ getStatus()</text>
<text text-anchor="start" x="206" y="-1380.5" font-family="Helvetica,sans-Serif" font-size="10.00">+ getLogValueCount()</text>
<text text-anchor="start" x="206" y="-1369.5" font-family="Helvetica,sans-Serif" font-size="10.00">+ getLogValue()</text>
</a>
</g>
</g>
<!-- Node6&#45;&gt;Node5 -->
<g id="edge5" class="edge"><title>Node6&#45;&gt;Node5</title>
<path fill="none" stroke="midnightblue" d="M259.5,-1351.98C259.5,-1343.16 259.5,-1333.92 259.5,-1324.77"/>
<polygon fill="none" stroke="midnightblue" points="256,-1352.1 259.5,-1362.1 263,-1352.1 256,-1352.1"/>
</g>
<!-- Node7 -->
<g id="node7" class="node"><title>Node7</title>
<g id="a_node7"><a xlink:href="class_non_copyable.html" target="_top" xlink:title="{NonCopyable\&lt; ILogable \&gt;\n||+ NonCopyable()\l}">
<polygon fill="white" stroke="black" points="188,-1490.5 188,-1547.5 331,-1547.5 331,-1490.5 188,-1490.5"/>
<text text-anchor="middle" x="259.5" y="-1535.5" font-family="Helvetica,sans-Serif" font-size="10.00">NonCopyable&lt; ILogable &gt;</text>
<polyline fill="none" stroke="black" points="188,-1528.5 331,-1528.5 "/>
<text text-anchor="middle" x="259.5" y="-1516.5" font-family="Helvetica,sans-Serif" font-size="10.00"> </text>
<polyline fill="none" stroke="black" points="188,-1509.5 331,-1509.5 "/>
<text text-anchor="start" x="196" y="-1497.5" font-family="Helvetica,sans-Serif" font-size="10.00">+ NonCopyable()</text>
</a>
</g>
</g>
<!-- Node7&#45;&gt;Node6 -->
<g id="edge6" class="edge"><title>Node7&#45;&gt;Node6</title>
<path fill="none" stroke="#8b1a1a" d="M259.5,-1480.31C259.5,-1471.43 259.5,-1461.88 259.5,-1452.74"/>
<polygon fill="none" stroke="#8b1a1a" points="256,-1480.37 259.5,-1490.37 263,-1480.37 256,-1480.37"/>
</g>
<!-- Node8 -->
<g id="node8" class="node"><title>Node8</title>
<g id="a_node8"><a xlink:href="class_sync.html" target="_top" xlink:title="{Sync\n||+ Sync()\l+ addComponent()\l+ addBridge()\l+ receive()\l+ send()\l+ run()\l+ messageInQueue()\l+ finalize()\l+ Sync()\l+ receive()\land 7 more...\l}">
<polygon fill="white" stroke="black" points="152,-712.5 152,-879.5 271,-879.5 271,-712.5 152,-712.5"/>
<text text-anchor="middle" x="211.5" y="-867.5" font-family="Helvetica,sans-Serif" font-size="10.00">Sync</text>
<polyline fill="none" stroke="black" points="152,-860.5 271,-860.5 "/>
<text text-anchor="middle" x="211.5" y="-848.5" font-family="Helvetica,sans-Serif" font-size="10.00"> </text>
<polyline fill="none" stroke="black" points="152,-841.5 271,-841.5 "/>
<text text-anchor="start" x="160" y="-829.5" font-family="Helvetica,sans-Serif" font-size="10.00">+ Sync()</text>
<text text-anchor="start" x="160" y="-818.5" font-family="Helvetica,sans-Serif" font-size="10.00">+ addComponent()</text>
<text text-anchor="start" x="160" y="-807.5" font-family="Helvetica,sans-Serif" font-size="10.00">+ addBridge()</text>
<text text-anchor="start" x="160" y="-796.5" font-family="Helvetica,sans-Serif" font-size="10.00">+ receive()</text>
<text text-anchor="start" x="160" y="-785.5" font-family="Helvetica,sans-Serif" font-size="10.00">+ send()</text>
<text text-anchor="start" x="160" y="-774.5" font-family="Helvetica,sans-Serif" font-size="10.00">+ run()</text>
<text text-anchor="start" x="160" y="-763.5" font-family="Helvetica,sans-Serif" font-size="10.00">+ messageInQueue()</text>
<text text-anchor="start" x="160" y="-752.5" font-family="Helvetica,sans-Serif" font-size="10.00">+ finalize()</text>
<text text-anchor="start" x="160" y="-741.5" font-family="Helvetica,sans-Serif" font-size="10.00">+ Sync()</text>
<text text-anchor="start" x="160" y="-730.5" font-family="Helvetica,sans-Serif" font-size="10.00">+ receive()</text>
<text text-anchor="start" x="160" y="-719.5" font-family="Helvetica,sans-Serif" font-size="10.00">and 7 more...</text>
</a>
</g>
</g>
<!-- Node8&#45;&gt;Node3 -->
<g id="edge7" class="edge"><title>Node8&#45;&gt;Node3</title>
<path fill="none" stroke="#404040" d="M229.592,-712.348C231.865,-702.446 234.2,-692.487 236.5,-683 237.022,-680.845 237.556,-678.664 238.098,-676.465"/>
<polygon fill="none" stroke="#404040" points="238.158,-676.223 235.73,-669.433 241.065,-664.58 243.492,-671.371 238.158,-676.223"/>
<text text-anchor="middle" x="261" y="-686" font-family="Helvetica,sans-Serif" font-size="10.00"> #_syncer</text>
</g>
<!-- Node9&#45;&gt;Node8 -->
<g id="edge8" class="edge"><title>Node9&#45;&gt;Node8</title>
<path fill="none" stroke="midnightblue" d="M209.058,-1002.72C207.291,-967.146 206.321,-919.965 206.436,-879.76"/>
<polygon fill="none" stroke="midnightblue" points="205.573,-1003.1 209.604,-1012.89 212.563,-1002.72 205.573,-1003.1"/>
</g>
<!-- Node9&#45;&gt;Node8 -->
<g id="edge10" class="edge"><title>Node9&#45;&gt;Node8</title>
<path fill="none" stroke="midnightblue" d="M220.272,-1002.72C220.945,-967.146 220.462,-919.965 219.11,-879.76"/>
<polygon fill="none" stroke="midnightblue" points="216.769,-1002.82 220.038,-1012.89 223.767,-1002.98 216.769,-1002.82"/>
</g>
<!-- Node10 -->
<g id="node10" class="node"><title>Node10</title>
<g id="a_node10"><a xlink:href="classstd_1_1vector.html" target="_top" xlink:title="{std::vector\&lt; CarMessage \&gt;\n||+ ~vector()\l+ at()\l+ operator[]()\l+ front()\l+ back()\l+ data()\l+ begin()\l+ end()\l+ empty()\l+ size()\land 7 more...\l}">
<polygon fill="white" stroke="black" points="0,-974.5 0,-1141.5 149,-1141.5 149,-974.5 0,-974.5"/>
<text text-anchor="middle" x="74.5" y="-1129.5" font-family="Helvetica,sans-Serif" font-size="10.00">std::vector&lt; CarMessage &gt;</text>
<polyline fill="none" stroke="black" points="0,-1122.5 149,-1122.5 "/>
<text text-anchor="middle" x="74.5" y="-1110.5" font-family="Helvetica,sans-Serif" font-size="10.00"> </text>
<polyline fill="none" stroke="black" points="0,-1103.5 149,-1103.5 "/>
<text text-anchor="start" x="8" y="-1091.5" font-family="Helvetica,sans-Serif" font-size="10.00">+ ~vector()</text>
<text text-anchor="start" x="8" y="-1080.5" font-family="Helvetica,sans-Serif" font-size="10.00">+ at()</text>
<text text-anchor="start" x="8" y="-1069.5" font-family="Helvetica,sans-Serif" font-size="10.00">+ operator[]()</text>
<text text-anchor="start" x="8" y="-1058.5" font-family="Helvetica,sans-Serif" font-size="10.00">+ front()</text>
<text text-anchor="start" x="8" y="-1047.5" font-family="Helvetica,sans-Serif" font-size="10.00">+ back()</text>
<text text-anchor="start" x="8" y="-1036.5" font-family="Helvetica,sans-Serif" font-size="10.00">+ data()</text>
<text text-anchor="start" x="8" y="-1025.5" font-family="Helvetica,sans-Serif" font-size="10.00">+ begin()</text>
<text text-anchor="start" x="8" y="-1014.5" font-family="Helvetica,sans-Serif" font-size="10.00">+ end()</text>
<text text-anchor="start" x="8" y="-1003.5" font-family="Helvetica,sans-Serif" font-size="10.00">+ empty()</text>
<text text-anchor="start" x="8" y="-992.5" font-family="Helvetica,sans-Serif" font-size="10.00">+ size()</text>
<text text-anchor="start" x="8" y="-981.5" font-family="Helvetica,sans-Serif" font-size="10.00">and 7 more...</text>
</a>
</g>
</g>
<!-- Node10&#45;&gt;Node8 -->
<g id="edge11" class="edge"><title>Node10&#45;&gt;Node8</title>
<path fill="none" stroke="#404040" d="M72.2405,-974.251C74.5224,-948.6 80.213,-921.042 92.5,-898 104.334,-875.808 123.228,-856.431 142.509,-840.746"/>
<polygon fill="none" stroke="#404040" points="142.521,-840.737 144.785,-833.89 151.975,-833.347 149.711,-840.193 142.521,-840.737"/>
<text text-anchor="middle" x="151" y="-924.5" font-family="Helvetica,sans-Serif" font-size="10.00"> +receivedCarMessages</text>
</g>
<!-- Node11 -->
<g id="node11" class="node"><title>Node11</title>
<g id="a_node11"><a xlink:href="class_non_copyable.html" target="_top" xlink:title="{NonCopyable\&lt; vector\l\&lt; CarMessage, unsigned\l int \&gt; \&gt;\n||+ NonCopyable()\l}">
<polygon fill="white" stroke="black" points="6,-1212.5 6,-1291.5 143,-1291.5 143,-1212.5 6,-1212.5"/>
<text text-anchor="start" x="14" y="-1279.5" font-family="Helvetica,sans-Serif" font-size="10.00">NonCopyable&lt; vector</text>
<text text-anchor="start" x="14" y="-1268.5" font-family="Helvetica,sans-Serif" font-size="10.00">&lt; CarMessage, unsigned</text>
<text text-anchor="middle" x="74.5" y="-1257.5" font-family="Helvetica,sans-Serif" font-size="10.00"> int &gt; &gt;</text>
<polyline fill="none" stroke="black" points="6,-1250.5 143,-1250.5 "/>
<text text-anchor="middle" x="74.5" y="-1238.5" font-family="Helvetica,sans-Serif" font-size="10.00"> </text>
<polyline fill="none" stroke="black" points="6,-1231.5 143,-1231.5 "/>
<text text-anchor="start" x="14" y="-1219.5" font-family="Helvetica,sans-Serif" font-size="10.00">+ NonCopyable()</text>
</a>
</g>
</g>
<!-- Node11&#45;&gt;Node10 -->
<g id="edge12" class="edge"><title>Node11&#45;&gt;Node10</title>
<path fill="none" stroke="#8b1a1a" d="M74.5,-1202.02C74.5,-1183.7 74.5,-1162.34 74.5,-1141.81"/>
<polygon fill="none" stroke="#8b1a1a" points="71.0001,-1202.15 74.5,-1212.15 78.0001,-1202.15 71.0001,-1202.15"/>
</g>
<!-- Node12 -->
<g id="node12" class="node"><title>Node12</title>
<g id="a_node12"><a xlink:href="class_circular_buffer.html" target="_top" xlink:title="{CircularBuffer\&lt; button\l_state_t, BUTTON_STATE\l_BUFFER_SIZE \&gt;\n||+ CircularBuffer()\l+ ~CircularBuffer()\l+ push()\l+ pop()\l+ empty()\l+ full()\l+ reset()\l+ size()\l+ peek()\l}">
<polygon fill="white" stroke="black" points="423,-303.5 423,-470.5 558,-470.5 558,-303.5 423,-303.5"/>
<text text-anchor="start" x="431" y="-458.5" font-family="Helvetica,sans-Serif" font-size="10.00">CircularBuffer&lt; button</text>
<text text-anchor="start" x="431" y="-447.5" font-family="Helvetica,sans-Serif" font-size="10.00">_state_t, BUTTON_STATE</text>
<text text-anchor="middle" x="490.5" y="-436.5" font-family="Helvetica,sans-Serif" font-size="10.00">_BUFFER_SIZE &gt;</text>
<polyline fill="none" stroke="black" points="423,-429.5 558,-429.5 "/>
<text text-anchor="middle" x="490.5" y="-417.5" font-family="Helvetica,sans-Serif" font-size="10.00"> </text>
<polyline fill="none" stroke="black" points="423,-410.5 558,-410.5 "/>
<text text-anchor="start" x="431" y="-398.5" font-family="Helvetica,sans-Serif" font-size="10.00">+ CircularBuffer()</text>
<text text-anchor="start" x="431" y="-387.5" font-family="Helvetica,sans-Serif" font-size="10.00">+ ~CircularBuffer()</text>
<text text-anchor="start" x="431" y="-376.5" font-family="Helvetica,sans-Serif" font-size="10.00">+ push()</text>
<text text-anchor="start" x="431" y="-365.5" font-family="Helvetica,sans-Serif" font-size="10.00">+ pop()</text>
<text text-anchor="start" x="431" y="-354.5" font-family="Helvetica,sans-Serif" font-size="10.00">+ empty()</text>
<text text-anchor="start" x="431" y="-343.5" font-family="Helvetica,sans-Serif" font-size="10.00">+ full()</text>
<text text-anchor="start" x="431" y="-332.5" font-family="Helvetica,sans-Serif" font-size="10.00">+ reset()</text>
<text text-anchor="start" x="431" y="-321.5" font-family="Helvetica,sans-Serif" font-size="10.00">+ size()</text>
<text text-anchor="start" x="431" y="-310.5" font-family="Helvetica,sans-Serif" font-size="10.00">+ peek()</text>
</a>
</g>
</g>
<!-- Node12&#45;&gt;Node1 -->
<g id="edge13" class="edge"><title>Node12&#45;&gt;Node1</title>
<path fill="none" stroke="#404040" d="M476.014,-303.269C474.01,-291.823 471.908,-279.821 469.785,-267.696"/>
<polygon fill="none" stroke="#404040" points="469.728,-267.367 464.753,-262.147 467.658,-255.547 472.633,-260.767 469.728,-267.367"/>
<text text-anchor="middle" x="507.5" y="-277" font-family="Helvetica,sans-Serif" font-size="10.00"> #_stateBuffer</text>
</g>
<!-- Node13 -->
<g id="node13" class="node"><title>Node13</title>
<g id="a_node13"><a xlink:href="class_ticker.html" target="_top" xlink:title="{Ticker\n||+ Ticker()\l+ ~Ticker()\l+ attach()\l+ detach()\l+ call()\l}">
<polygon fill="white" stroke="black" points="576,-336.5 576,-437.5 647,-437.5 647,-336.5 576,-336.5"/>
<text text-anchor="middle" x="611.5" y="-425.5" font-family="Helvetica,sans-Serif" font-size="10.00">Ticker</text>
<polyline fill="none" stroke="black" points="576,-418.5 647,-418.5 "/>
<text text-anchor="middle" x="611.5" y="-406.5" font-family="Helvetica,sans-Serif" font-size="10.00"> </text>
<polyline fill="none" stroke="black" points="576,-399.5 647,-399.5 "/>
<text text-anchor="start" x="584" y="-387.5" font-family="Helvetica,sans-Serif" font-size="10.00">+ Ticker()</text>
<text text-anchor="start" x="584" y="-376.5" font-family="Helvetica,sans-Serif" font-size="10.00">+ ~Ticker()</text>
<text text-anchor="start" x="584" y="-365.5" font-family="Helvetica,sans-Serif" font-size="10.00">+ attach()</text>
<text text-anchor="start" x="584" y="-354.5" font-family="Helvetica,sans-Serif" font-size="10.00">+ detach()</text>
<text text-anchor="start" x="584" y="-343.5" font-family="Helvetica,sans-Serif" font-size="10.00">+ call()</text>
</a>
</g>
</g>
<!-- Node13&#45;&gt;Node1 -->
<g id="edge14" class="edge"><title>Node13&#45;&gt;Node1</title>
<path fill="none" stroke="#404040" d="M585.705,-336.351C579.627,-325.247 573.014,-313.618 566.5,-303 555.165,-284.523 542.639,-265.336 530.07,-246.744"/>
<polygon fill="none" stroke="#404040" points="530.045,-246.707 523.363,-243.995 523.296,-236.784 529.978,-239.496 530.045,-246.707"/>
<text text-anchor="middle" x="576" y="-277" font-family="Helvetica,sans-Serif" font-size="10.00"> #_ticker</text>
</g>
<!-- Node14 -->
<g id="node14" class="node"><title>Node14</title>
<g id="a_node14"><a xlink:href="class_scheduled_callable.html" target="_top" xlink:title="{ScheduledCallable\n||+ ScheduledCallable()\l+ ScheduledCallable()\l+ getSleepingSince()\l+ setSleeptime()\l+ getSleepTime()\l+ resetSleepTimer()\l}">
<polygon fill="white" stroke="black" points="550,-530.5 550,-642.5 673,-642.5 673,-530.5 550,-530.5"/>
<text text-anchor="middle" x="611.5" y="-630.5" font-family="Helvetica,sans-Serif" font-size="10.00">ScheduledCallable</text>
<polyline fill="none" stroke="black" points="550,-623.5 673,-623.5 "/>
<text text-anchor="middle" x="611.5" y="-611.5" font-family="Helvetica,sans-Serif" font-size="10.00"> </text>
<polyline fill="none" stroke="black" points="550,-604.5 673,-604.5 "/>
<text text-anchor="start" x="558" y="-592.5" font-family="Helvetica,sans-Serif" font-size="10.00">+ ScheduledCallable()</text>
<text text-anchor="start" x="558" y="-581.5" font-family="Helvetica,sans-Serif" font-size="10.00">+ ScheduledCallable()</text>
<text text-anchor="start" x="558" y="-570.5" font-family="Helvetica,sans-Serif" font-size="10.00">+ getSleepingSince()</text>
<text text-anchor="start" x="558" y="-559.5" font-family="Helvetica,sans-Serif" font-size="10.00">+ setSleeptime()</text>
<text text-anchor="start" x="558" y="-548.5" font-family="Helvetica,sans-Serif" font-size="10.00">+ getSleepTime()</text>
<text text-anchor="start" x="558" y="-537.5" font-family="Helvetica,sans-Serif" font-size="10.00">+ resetSleepTimer()</text>
</a>
</g>
</g>
<!-- Node14&#45;&gt;Node13 -->
<g id="edge15" class="edge"><title>Node14&#45;&gt;Node13</title>
<path fill="none" stroke="midnightblue" d="M611.5,-520.369C611.5,-493.439 611.5,-462.721 611.5,-437.66"/>
<polygon fill="none" stroke="midnightblue" points="608,-520.485 611.5,-530.485 615,-520.485 608,-520.485"/>
</g>
<!-- Node15 -->
<g id="node15" class="node"><title>Node15</title>
<g id="a_node15"><a xlink:href="class_i_callable.html" target="_top" xlink:title="{ICallable\n||+ call()\l}">
<polygon fill="white" stroke="black" points="583.5,-767.5 583.5,-824.5 639.5,-824.5 639.5,-767.5 583.5,-767.5"/>
<text text-anchor="middle" x="611.5" y="-812.5" font-family="Helvetica,sans-Serif" font-size="10.00">ICallable</text>
<polyline fill="none" stroke="black" points="583.5,-805.5 639.5,-805.5 "/>
<text text-anchor="middle" x="611.5" y="-793.5" font-family="Helvetica,sans-Serif" font-size="10.00"> </text>
<polyline fill="none" stroke="black" points="583.5,-786.5 639.5,-786.5 "/>
<text text-anchor="start" x="591.5" y="-774.5" font-family="Helvetica,sans-Serif" font-size="10.00">+ call()</text>
</a>
</g>
</g>
<!-- Node15&#45;&gt;Node14 -->
<g id="edge16" class="edge"><title>Node15&#45;&gt;Node14</title>
<path fill="none" stroke="midnightblue" d="M611.5,-757.189C611.5,-725.228 611.5,-679.012 611.5,-642.879"/>
<polygon fill="none" stroke="midnightblue" points="608,-757.446 611.5,-767.446 615,-757.446 608,-757.446"/>
</g>
<!-- Node16 -->
<g id="node16" class="node"><title>Node16</title>
<g id="a_node16"><a xlink:href="class_non_copyable.html" target="_top" xlink:title="{NonCopyable\&lt; ICallable \&gt;\n||+ NonCopyable()\l}">
<polygon fill="white" stroke="black" points="540,-1029.5 540,-1086.5 683,-1086.5 683,-1029.5 540,-1029.5"/>
<text text-anchor="middle" x="611.5" y="-1074.5" font-family="Helvetica,sans-Serif" font-size="10.00">NonCopyable&lt; ICallable &gt;</text>
<polyline fill="none" stroke="black" points="540,-1067.5 683,-1067.5 "/>
<text text-anchor="middle" x="611.5" y="-1055.5" font-family="Helvetica,sans-Serif" font-size="10.00"> </text>
<polyline fill="none" stroke="black" points="540,-1048.5 683,-1048.5 "/>
<text text-anchor="start" x="548" y="-1036.5" font-family="Helvetica,sans-Serif" font-size="10.00">+ NonCopyable()</text>
</a>
</g>
</g>
<!-- Node16&#45;&gt;Node15 -->
<g id="edge17" class="edge"><title>Node16&#45;&gt;Node15</title>
<path fill="none" stroke="#8b1a1a" d="M611.5,-1018.85C611.5,-965.875 611.5,-871.305 611.5,-824.624"/>
<polygon fill="none" stroke="#8b1a1a" points="608,-1019.18 611.5,-1029.18 615,-1019.18 608,-1019.18"/>
</g>
<!-- Node17&#45;&gt;Node1 -->
<g id="edge18" class="edge"><title>Node17&#45;&gt;Node1</title>
<path fill="none" stroke="#404040" d="M266.267,-315.507C269.29,-311.204 272.38,-307.001 275.5,-303 300.568,-270.858 330.898,-238.22 358.958,-210.028"/>
<polygon fill="none" stroke="#404040" points="359.088,-209.9 360.513,-202.831 367.586,-201.427 366.161,-208.496 359.088,-209.9"/>
<text text-anchor="middle" x="323" y="-277" font-family="Helvetica,sans-Serif" font-size="10.00"> #_registry</text>
</g>
</g>
</svg>
