<?xml version="1.0" encoding="UTF-8" standalone="no"?>
<!DOCTYPE svg PUBLIC "-//W3C//DTD SVG 1.1//EN"
 "http://www.w3.org/Graphics/SVG/1.1/DTD/svg11.dtd">
<!-- Generated by graphviz version 2.38.0 (20140413.2041)
 -->
<!-- Title: IRegistry Pages: 1 -->
<svg width="151pt" height="1081pt"
 viewBox="0.00 0.00 151.00 1081.00" xmlns="http://www.w3.org/2000/svg" xmlns:xlink="http://www.w3.org/1999/xlink">
<g id="graph0" class="graph" transform="scale(1 1) rotate(0) translate(4 1077)">
<title>IRegistry</title>
<polygon fill="white" stroke="none" points="-4,4 -4,-1077 147,-1077 147,4 -4,4"/>
<!-- Node1 -->
<g id="node1" class="node"><title>Node1</title>
<polygon fill="#bfbfbf" stroke="black" points="30,-204.5 30,-371.5 113,-371.5 113,-204.5 30,-204.5"/>
<text text-anchor="middle" x="71.5" y="-359.5" font-family="Helvetica,sans-Serif" font-size="10.00">IRegistry</text>
<polyline fill="none" stroke="black" points="30,-352.5 113,-352.5 "/>
<text text-anchor="middle" x="71.5" y="-340.5" font-family="Helvetica,sans-Serif" font-size="10.00"> </text>
<polyline fill="none" stroke="black" points="30,-333.5 113,-333.5 "/>
<text text-anchor="start" x="38" y="-321.5" font-family="Helvetica,sans-Serif" font-size="10.00">+ IRegistry()</text>
<text text-anchor="start" x="38" y="-310.5" font-family="Helvetica,sans-Serif" font-size="10.00">+ getReady()</text>
<text text-anchor="start" x="38" y="-299.5" font-family="Helvetica,sans-Serif" font-size="10.00">+ setReady()</text>
<text text-anchor="start" x="38" y="-288.5" font-family="Helvetica,sans-Serif" font-size="10.00">+ getFloat()</text>
<text text-anchor="start" x="38" y="-277.5" font-family="Helvetica,sans-Serif" font-size="10.00">+ getUInt8()</text>
<text text-anchor="start" x="38" y="-266.5" font-family="Helvetica,sans-Serif" font-size="10.00">+ getUInt16()</text>
<text text-anchor="start" x="38" y="-255.5" font-family="Helvetica,sans-Serif" font-size="10.00">+ getUInt32()</text>
<text text-anchor="start" x="38" y="-244.5" font-family="Helvetica,sans-Serif" font-size="10.00">+ getInt8()</text>
<text text-anchor="start" x="38" y="-233.5" font-family="Helvetica,sans-Serif" font-size="10.00">+ getInt16()</text>
<text text-anchor="start" x="38" y="-222.5" font-family="Helvetica,sans-Serif" font-size="10.00">+ getInt32()</text>
<text text-anchor="start" x="38" y="-211.5" font-family="Helvetica,sans-Serif" font-size="10.00">and 9 more...</text>
</g>
<!-- Node7 -->
<g id="node7" class="node"><title>Node7</title>
<g id="a_node7"><a xlink:href="class_internal_registry.html" target="_top" xlink:title="{InternalRegistry\n||+ InternalRegistry()\l+ getReady()\l+ setReady()\l+ getFloat()\l+ getUInt8()\l+ getUInt16()\l+ getUInt32()\l+ getInt8()\l+ getInt16()\l+ getInt32()\land 12 more...\l}">
<polygon fill="white" stroke="black" points="17,-0.5 17,-167.5 126,-167.5 126,-0.5 17,-0.5"/>
<text text-anchor="middle" x="71.5" y="-155.5" font-family="Helvetica,sans-Serif" font-size="10.00">InternalRegistry</text>
<polyline fill="none" stroke="black" points="17,-148.5 126,-148.5 "/>
<text text-anchor="middle" x="71.5" y="-136.5" font-family="Helvetica,sans-Serif" font-size="10.00"> </text>
<polyline fill="none" stroke="black" points="17,-129.5 126,-129.5 "/>
<text text-anchor="start" x="25" y="-117.5" font-family="Helvetica,sans-Serif" font-size="10.00">+ InternalRegistry()</text>
<text text-anchor="start" x="25" y="-106.5" font-family="Helvetica,sans-Serif" font-size="10.00">+ getReady()</text>
<text text-anchor="start" x="25" y="-95.5" font-family="Helvetica,sans-Serif" font-size="10.00">+ setReady()</text>
<text text-anchor="start" x="25" y="-84.5" font-family="Helvetica,sans-Serif" font-size="10.00">+ getFloat()</text>
<text text-anchor="start" x="25" y="-73.5" font-family="Helvetica,sans-Serif" font-size="10.00">+ getUInt8()</text>
<text text-anchor="start" x="25" y="-62.5" font-family="Helvetica,sans-Serif" font-size="10.00">+ getUInt16()</text>
<text text-anchor="start" x="25" y="-51.5" font-family="Helvetica,sans-Serif" font-size="10.00">+ getUInt32()</text>
<text text-anchor="start" x="25" y="-40.5" font-family="Helvetica,sans-Serif" font-size="10.00">+ getInt8()</text>
<text text-anchor="start" x="25" y="-29.5" font-family="Helvetica,sans-Serif" font-size="10.00">+ getInt16()</text>
<text text-anchor="start" x="25" y="-18.5" font-family="Helvetica,sans-Serif" font-size="10.00">+ getInt32()</text>
<text text-anchor="start" x="25" y="-7.5" font-family="Helvetica,sans-Serif" font-size="10.00">and 12 more...</text>
</a>
</g>
</g>
<!-- Node1&#45;&gt;Node7 -->
<g id="edge6" class="edge"><title>Node1&#45;&gt;Node7</title>
<path fill="none" stroke="midnightblue" d="M71.5,-193.982C71.5,-185.185 71.5,-176.306 71.5,-167.615"/>
<polygon fill="none" stroke="midnightblue" points="68.0001,-194.256 71.5,-204.256 75.0001,-194.256 68.0001,-194.256"/>
</g>
<!-- Node2 -->
<g id="node2" class="node"><title>Node2</title>
<g id="a_node2"><a xlink:href="class_self_syncable.html" target="_top" xlink:title="{SelfSyncable\n|# _syncer\l# _syncerAttached\l|+ attach()\l+ detach()\l# _sendCommand()\l# _sendCommand()\l# _sendCommand()\l# _send()\l# _convertFloat()\l# _reconvertFloat()\l# _disassambleFloat()\l# _reassambleFloat()\l}">
<polygon fill="white" stroke="black" points="9.5,-408.5 9.5,-575.5 133.5,-575.5 133.5,-408.5 9.5,-408.5"/>
<text text-anchor="middle" x="71.5" y="-563.5" font-family="Helvetica,sans-Serif" font-size="10.00">SelfSyncable</text>
<polyline fill="none" stroke="black" points="9.5,-556.5 133.5,-556.5 "/>
<text text-anchor="start" x="17.5" y="-544.5" font-family="Helvetica,sans-Serif" font-size="10.00"># _syncer</text>
<text text-anchor="start" x="17.5" y="-533.5" font-family="Helvetica,sans-Serif" font-size="10.00"># _syncerAttached</text>
<polyline fill="none" stroke="black" points="9.5,-526.5 133.5,-526.5 "/>
<text text-anchor="start" x="17.5" y="-514.5" font-family="Helvetica,sans-Serif" font-size="10.00">+ attach()</text>
<text text-anchor="start" x="17.5" y="-503.5" font-family="Helvetica,sans-Serif" font-size="10.00">+ detach()</text>
<text text-anchor="start" x="17.5" y="-492.5" font-family="Helvetica,sans-Serif" font-size="10.00"># _sendCommand()</text>
<text text-anchor="start" x="17.5" y="-481.5" font-family="Helvetica,sans-Serif" font-size="10.00"># _sendCommand()</text>
<text text-anchor="start" x="17.5" y="-470.5" font-family="Helvetica,sans-Serif" font-size="10.00"># _sendCommand()</text>
<text text-anchor="start" x="17.5" y="-459.5" font-family="Helvetica,sans-Serif" font-size="10.00"># _send()</text>
<text text-anchor="start" x="17.5" y="-448.5" font-family="Helvetica,sans-Serif" font-size="10.00"># _convertFloat()</text>
<text text-anchor="start" x="17.5" y="-437.5" font-family="Helvetica,sans-Serif" font-size="10.00"># _reconvertFloat()</text>
<text text-anchor="start" x="17.5" y="-426.5" font-family="Helvetica,sans-Serif" font-size="10.00"># _disassambleFloat()</text>
<text text-anchor="start" x="17.5" y="-415.5" font-family="Helvetica,sans-Serif" font-size="10.00"># _reassambleFloat()</text>
</a>
</g>
</g>
<!-- Node2&#45;&gt;Node1 -->
<g id="edge1" class="edge"><title>Node2&#45;&gt;Node1</title>
<path fill="none" stroke="midnightblue" d="M71.5,-397.982C71.5,-389.185 71.5,-380.306 71.5,-371.615"/>
<polygon fill="none" stroke="midnightblue" points="68.0001,-398.256 71.5,-408.256 75.0001,-398.256 68.0001,-398.256"/>
</g>
<!-- Node3 -->
<g id="node3" class="node"><title>Node3</title>
<g id="a_node3"><a xlink:href="class_i_communication.html" target="_top" xlink:title="{ICommunication\n||+ receive()\l}">
<polygon fill="white" stroke="black" points="24,-612.5 24,-669.5 119,-669.5 119,-612.5 24,-612.5"/>
<text text-anchor="middle" x="71.5" y="-657.5" font-family="Helvetica,sans-Serif" font-size="10.00">ICommunication</text>
<polyline fill="none" stroke="black" points="24,-650.5 119,-650.5 "/>
<text text-anchor="middle" x="71.5" y="-638.5" font-family="Helvetica,sans-Serif" font-size="10.00"> </text>
<polyline fill="none" stroke="black" points="24,-631.5 119,-631.5 "/>
<text text-anchor="start" x="32" y="-619.5" font-family="Helvetica,sans-Serif" font-size="10.00">+ receive()</text>
</a>
</g>
</g>
<!-- Node3&#45;&gt;Node2 -->
<g id="edge2" class="edge"><title>Node3&#45;&gt;Node2</title>
<path fill="none" stroke="midnightblue" d="M71.5,-602.35C71.5,-594.08 71.5,-585.008 71.5,-575.738"/>
<polygon fill="none" stroke="midnightblue" points="68.0001,-602.35 71.5,-612.35 75.0001,-602.35 68.0001,-602.35"/>
</g>
<!-- Node4 -->
<g id="node4" class="node"><title>Node4</title>
<g id="a_node4"><a xlink:href="class_i_component.html" target="_top" xlink:title="{IComponent\n||+ IComponent()\l+ IComponent()\l+ setComponentSubId()\l+ getComponentType()\l+ getComponentSubId()\l+ getComponentId()\l+ getObjectType()\l# setComponentType()\l# setObjectType()\l}">
<polygon fill="white" stroke="black" points="4.5,-706.5 4.5,-851.5 138.5,-851.5 138.5,-706.5 4.5,-706.5"/>
<text text-anchor="middle" x="71.5" y="-839.5" font-family="Helvetica,sans-Serif" font-size="10.00">IComponent</text>
<polyline fill="none" stroke="black" points="4.5,-832.5 138.5,-832.5 "/>
<text text-anchor="middle" x="71.5" y="-820.5" font-family="Helvetica,sans-Serif" font-size="10.00"> </text>
<polyline fill="none" stroke="black" points="4.5,-813.5 138.5,-813.5 "/>
<text text-anchor="start" x="12.5" y="-801.5" font-family="Helvetica,sans-Serif" font-size="10.00">+ IComponent()</text>
<text text-anchor="start" x="12.5" y="-790.5" font-family="Helvetica,sans-Serif" font-size="10.00">+ IComponent()</text>
<text text-anchor="start" x="12.5" y="-779.5" font-family="Helvetica,sans-Serif" font-size="10.00">+ setComponentSubId()</text>
<text text-anchor="start" x="12.5" y="-768.5" font-family="Helvetica,sans-Serif" font-size="10.00">+ getComponentType()</text>
<text text-anchor="start" x="12.5" y="-757.5" font-family="Helvetica,sans-Serif" font-size="10.00">+ getComponentSubId()</text>
<text text-anchor="start" x="12.5" y="-746.5" font-family="Helvetica,sans-Serif" font-size="10.00">+ getComponentId()</text>
<text text-anchor="start" x="12.5" y="-735.5" font-family="Helvetica,sans-Serif" font-size="10.00">+ getObjectType()</text>
<text text-anchor="start" x="12.5" y="-724.5" font-family="Helvetica,sans-Serif" font-size="10.00"># setComponentType()</text>
<text text-anchor="start" x="12.5" y="-713.5" font-family="Helvetica,sans-Serif" font-size="10.00"># setObjectType()</text>
</a>
</g>
</g>
<!-- Node4&#45;&gt;Node3 -->
<g id="edge3" class="edge"><title>Node4&#45;&gt;Node3</title>
<path fill="none" stroke="midnightblue" d="M71.5,-696.387C71.5,-686.861 71.5,-677.707 71.5,-669.714"/>
<polygon fill="none" stroke="midnightblue" points="68.0001,-696.416 71.5,-706.416 75.0001,-696.416 68.0001,-696.416"/>
</g>
<!-- Node5 -->
<g id="node5" class="node"><title>Node5</title>
<g id="a_node5"><a xlink:href="class_i_logable.html" target="_top" xlink:title="{ILogable\n||+ setStatus()\l+ getStatus()\l+ getLogValueCount()\l+ getLogValue()\l}">
<polygon fill="white" stroke="black" points="10,-888.5 10,-978.5 133,-978.5 133,-888.5 10,-888.5"/>
<text text-anchor="middle" x="71.5" y="-966.5" font-family="Helvetica,sans-Serif" font-size="10.00">ILogable</text>
<polyline fill="none" stroke="black" points="10,-959.5 133,-959.5 "/>
<text text-anchor="middle" x="71.5" y="-947.5" font-family="Helvetica,sans-Serif" font-size="10.00"> </text>
<polyline fill="none" stroke="black" points="10,-940.5 133,-940.5 "/>
<text text-anchor="start" x="18" y="-928.5" font-family="Helvetica,sans-Serif" font-size="10.00">+ setStatus()</text>
<text text-anchor="start" x="18" y="-917.5" font-family="Helvetica,sans-Serif" font-size="10.00">+ getStatus()</text>
<text text-anchor="start" x="18" y="-906.5" font-family="Helvetica,sans-Serif" font-size="10.00">+ getLogValueCount()</text>
<text text-anchor="start" x="18" y="-895.5" font-family="Helvetica,sans-Serif" font-size="10.00">+ getLogValue()</text>
</a>
</g>
</g>
<!-- Node5&#45;&gt;Node4 -->
<g id="edge4" class="edge"><title>Node5&#45;&gt;Node4</title>
<path fill="none" stroke="midnightblue" d="M71.5,-878.13C71.5,-869.526 71.5,-860.516 71.5,-851.591"/>
<polygon fill="none" stroke="midnightblue" points="68.0001,-878.391 71.5,-888.391 75.0001,-878.391 68.0001,-878.391"/>
</g>
<!-- Node6 -->
<g id="node6" class="node"><title>Node6</title>
<g id="a_node6"><a xlink:href="class_non_copyable.html" target="_top" xlink:title="{NonCopyable\&lt; ILogable \&gt;\n||+ NonCopyable()\l}">
<polygon fill="white" stroke="black" points="0,-1015.5 0,-1072.5 143,-1072.5 143,-1015.5 0,-1015.5"/>
<text text-anchor="middle" x="71.5" y="-1060.5" font-family="Helvetica,sans-Serif" font-size="10.00">NonCopyable&lt; ILogable &gt;</text>
<polyline fill="none" stroke="black" points="0,-1053.5 143,-1053.5 "/>
<text text-anchor="middle" x="71.5" y="-1041.5" font-family="Helvetica,sans-Serif" font-size="10.00"> </text>
<polyline fill="none" stroke="black" points="0,-1034.5 143,-1034.5 "/>
<text text-anchor="start" x="8" y="-1022.5" font-family="Helvetica,sans-Serif" font-size="10.00">+ NonCopyable()</text>
</a>
</g>
</g>
<!-- Node6&#45;&gt;Node5 -->
<g id="edge5" class="edge"><title>Node6&#45;&gt;Node5</title>
<path fill="none" stroke="#8b1a1a" d="M71.5,-1005.21C71.5,-996.609 71.5,-987.394 71.5,-978.554"/>
<polygon fill="none" stroke="#8b1a1a" points="68.0001,-1005.34 71.5,-1015.34 75.0001,-1005.34 68.0001,-1005.34"/>
</g>
</g>
</svg>
