<?xml version="1.0" encoding="UTF-8" standalone="no"?>
<!DOCTYPE svg PUBLIC "-//W3C//DTD SVG 1.1//EN"
 "http://www.w3.org/Graphics/SVG/1.1/DTD/svg11.dtd">
<!-- Generated by graphviz version 2.38.0 (20140413.2041)
 -->
<!-- Title: IService Pages: 1 -->
<svg width="266pt" height="916pt"
 viewBox="0.00 0.00 266.00 916.00" xmlns="http://www.w3.org/2000/svg" xmlns:xlink="http://www.w3.org/1999/xlink">
<g id="graph0" class="graph" transform="scale(1 1) rotate(0) translate(4 912)">
<title>IService</title>
<polygon fill="white" stroke="none" points="-4,4 -4,-912 262,-912 262,4 -4,4"/>
<!-- Node1 -->
<g id="node1" class="node"><title>Node1</title>
<polygon fill="#bfbfbf" stroke="black" points="103,-320.5 103,-377.5 157,-377.5 157,-320.5 103,-320.5"/>
<text text-anchor="middle" x="130" y="-365.5" font-family="Helvetica,sans-Serif" font-size="10.00">IService</text>
<polyline fill="none" stroke="black" points="103,-358.5 157,-358.5 "/>
<text text-anchor="middle" x="130" y="-346.5" font-family="Helvetica,sans-Serif" font-size="10.00"> </text>
<polyline fill="none" stroke="black" points="103,-339.5 157,-339.5 "/>
<text text-anchor="middle" x="130" y="-327.5" font-family="Helvetica,sans-Serif" font-size="10.00"> </text>
</g>
<!-- Node6 -->
<g id="node6" class="node"><title>Node6</title>
<g id="a_node6"><a xlink:href="class_s_car.html" target="_top" xlink:title="{SCar\n||+ SCar()\l+ run()\l+ addError()\l+ processErrors()\l+ getState()\l+ setState()\l+ calibrationNeeded()\l+ startUp()\l+ getMaxPower()\l+ setMaxPower()\l}">
<polygon fill="white" stroke="black" points="0,-116.5 0,-272.5 122,-272.5 122,-116.5 0,-116.5"/>
<text text-anchor="middle" x="61" y="-260.5" font-family="Helvetica,sans-Serif" font-size="10.00">SCar</text>
<polyline fill="none" stroke="black" points="0,-253.5 122,-253.5 "/>
<text text-anchor="middle" x="61" y="-241.5" font-family="Helvetica,sans-Serif" font-size="10.00"> </text>
<polyline fill="none" stroke="black" points="0,-234.5 122,-234.5 "/>
<text text-anchor="start" x="8" y="-222.5" font-family="Helvetica,sans-Serif" font-size="10.00">+ SCar()</text>
<text text-anchor="start" x="8" y="-211.5" font-family="Helvetica,sans-Serif" font-size="10.00">+ run()</text>
<text text-anchor="start" x="8" y="-200.5" font-family="Helvetica,sans-Serif" font-size="10.00">+ addError()</text>
<text text-anchor="start" x="8" y="-189.5" font-family="Helvetica,sans-Serif" font-size="10.00">+ processErrors()</text>
<text text-anchor="start" x="8" y="-178.5" font-family="Helvetica,sans-Serif" font-size="10.00">+ getState()</text>
<text text-anchor="start" x="8" y="-167.5" font-family="Helvetica,sans-Serif" font-size="10.00">+ setState()</text>
<text text-anchor="start" x="8" y="-156.5" font-family="Helvetica,sans-Serif" font-size="10.00">+ calibrationNeeded()</text>
<text text-anchor="start" x="8" y="-145.5" font-family="Helvetica,sans-Serif" font-size="10.00">+ startUp()</text>
<text text-anchor="start" x="8" y="-134.5" font-family="Helvetica,sans-Serif" font-size="10.00">+ getMaxPower()</text>
<text text-anchor="start" x="8" y="-123.5" font-family="Helvetica,sans-Serif" font-size="10.00">+ setMaxPower()</text>
</a>
</g>
</g>
<!-- Node1&#45;&gt;Node6 -->
<g id="edge5" class="edge"><title>Node1&#45;&gt;Node6</title>
<path fill="none" stroke="midnightblue" d="M113.265,-311.014C107.986,-299.345 101.942,-285.988 95.883,-272.596"/>
<polygon fill="none" stroke="midnightblue" points="110.194,-312.715 117.505,-320.383 116.571,-309.83 110.194,-312.715"/>
</g>
<!-- Node8 -->
<g id="node8" class="node"><title>Node8</title>
<g id="a_node8"><a xlink:href="class_s_speed.html" target="_top" xlink:title="{SSpeed\n|# _registry\l# _carService\l# _motorController\l# _speed\l|+ SSpeed()\l+ run()\l+ getSpeed()\l# _getSpeed()\l# _getSpeed()\l# _getSpeed()\l# _checkPlausibility()\l# _setThrottle()\l# _map()\l}">
<polygon fill="white" stroke="black" points="140,-105.5 140,-283.5 258,-283.5 258,-105.5 140,-105.5"/>
<text text-anchor="middle" x="199" y="-271.5" font-family="Helvetica,sans-Serif" font-size="10.00">SSpeed</text>
<polyline fill="none" stroke="black" points="140,-264.5 258,-264.5 "/>
<text text-anchor="start" x="148" y="-252.5" font-family="Helvetica,sans-Serif" font-size="10.00"># _registry</text>
<text text-anchor="start" x="148" y="-241.5" font-family="Helvetica,sans-Serif" font-size="10.00"># _carService</text>
<text text-anchor="start" x="148" y="-230.5" font-family="Helvetica,sans-Serif" font-size="10.00"># _motorController</text>
<text text-anchor="start" x="148" y="-219.5" font-family="Helvetica,sans-Serif" font-size="10.00"># _speed</text>
<polyline fill="none" stroke="black" points="140,-212.5 258,-212.5 "/>
<text text-anchor="start" x="148" y="-200.5" font-family="Helvetica,sans-Serif" font-size="10.00">+ SSpeed()</text>
<text text-anchor="start" x="148" y="-189.5" font-family="Helvetica,sans-Serif" font-size="10.00">+ run()</text>
<text text-anchor="start" x="148" y="-178.5" font-family="Helvetica,sans-Serif" font-size="10.00">+ getSpeed()</text>
<text text-anchor="start" x="148" y="-167.5" font-family="Helvetica,sans-Serif" font-size="10.00"># _getSpeed()</text>
<text text-anchor="start" x="148" y="-156.5" font-family="Helvetica,sans-Serif" font-size="10.00"># _getSpeed()</text>
<text text-anchor="start" x="148" y="-145.5" font-family="Helvetica,sans-Serif" font-size="10.00"># _getSpeed()</text>
<text text-anchor="start" x="148" y="-134.5" font-family="Helvetica,sans-Serif" font-size="10.00"># _checkPlausibility()</text>
<text text-anchor="start" x="148" y="-123.5" font-family="Helvetica,sans-Serif" font-size="10.00"># _setThrottle()</text>
<text text-anchor="start" x="148" y="-112.5" font-family="Helvetica,sans-Serif" font-size="10.00"># _map()</text>
</a>
</g>
</g>
<!-- Node1&#45;&gt;Node8 -->
<g id="edge7" class="edge"><title>Node1&#45;&gt;Node8</title>
<path fill="none" stroke="midnightblue" d="M146.65,-311.2C150.498,-302.696 154.755,-293.288 159.129,-283.62"/>
<polygon fill="none" stroke="midnightblue" points="143.429,-309.83 142.495,-320.383 149.806,-312.715 143.429,-309.83"/>
</g>
<!-- Node2 -->
<g id="node2" class="node"><title>Node2</title>
<g id="a_node2"><a xlink:href="class_i_runable.html" target="_top" xlink:title="{IRunable\n||+ IRunable()\l+ run()\l+ setStatus()\l+ getStatus()\l}">
<polygon fill="white" stroke="black" points="88.5,-414.5 88.5,-504.5 171.5,-504.5 171.5,-414.5 88.5,-414.5"/>
<text text-anchor="middle" x="130" y="-492.5" font-family="Helvetica,sans-Serif" font-size="10.00">IRunable</text>
<polyline fill="none" stroke="black" points="88.5,-485.5 171.5,-485.5 "/>
<text text-anchor="middle" x="130" y="-473.5" font-family="Helvetica,sans-Serif" font-size="10.00"> </text>
<polyline fill="none" stroke="black" points="88.5,-466.5 171.5,-466.5 "/>
<text text-anchor="start" x="96.5" y="-454.5" font-family="Helvetica,sans-Serif" font-size="10.00">+ IRunable()</text>
<text text-anchor="start" x="96.5" y="-443.5" font-family="Helvetica,sans-Serif" font-size="10.00">+ run()</text>
<text text-anchor="start" x="96.5" y="-432.5" font-family="Helvetica,sans-Serif" font-size="10.00">+ setStatus()</text>
<text text-anchor="start" x="96.5" y="-421.5" font-family="Helvetica,sans-Serif" font-size="10.00">+ getStatus()</text>
</a>
</g>
</g>
<!-- Node2&#45;&gt;Node1 -->
<g id="edge1" class="edge"><title>Node2&#45;&gt;Node1</title>
<path fill="none" stroke="midnightblue" d="M130,-404.353C130,-395.074 130,-385.791 130,-377.59"/>
<polygon fill="none" stroke="midnightblue" points="126.5,-404.369 130,-414.369 133.5,-404.369 126.5,-404.369"/>
</g>
<!-- Node3 -->
<g id="node3" class="node"><title>Node3</title>
<g id="a_node3"><a xlink:href="class_i_component.html" target="_top" xlink:title="{IComponent\n||+ IComponent()\l+ IComponent()\l+ setComponentSubId()\l+ getComponentType()\l+ getComponentSubId()\l+ getComponentId()\l+ getObjectType()\l# setComponentType()\l# setObjectType()\l}">
<polygon fill="white" stroke="black" points="63,-541.5 63,-686.5 197,-686.5 197,-541.5 63,-541.5"/>
<text text-anchor="middle" x="130" y="-674.5" font-family="Helvetica,sans-Serif" font-size="10.00">IComponent</text>
<polyline fill="none" stroke="black" points="63,-667.5 197,-667.5 "/>
<text text-anchor="middle" x="130" y="-655.5" font-family="Helvetica,sans-Serif" font-size="10.00"> </text>
<polyline fill="none" stroke="black" points="63,-648.5 197,-648.5 "/>
<text text-anchor="start" x="71" y="-636.5" font-family="Helvetica,sans-Serif" font-size="10.00">+ IComponent()</text>
<text text-anchor="start" x="71" y="-625.5" font-family="Helvetica,sans-Serif" font-size="10.00">+ IComponent()</text>
<text text-anchor="start" x="71" y="-614.5" font-family="Helvetica,sans-Serif" font-size="10.00">+ setComponentSubId()</text>
<text text-anchor="start" x="71" y="-603.5" font-family="Helvetica,sans-Serif" font-size="10.00">+ getComponentType()</text>
<text text-anchor="start" x="71" y="-592.5" font-family="Helvetica,sans-Serif" font-size="10.00">+ getComponentSubId()</text>
<text text-anchor="start" x="71" y="-581.5" font-family="Helvetica,sans-Serif" font-size="10.00">+ getComponentId()</text>
<text text-anchor="start" x="71" y="-570.5" font-family="Helvetica,sans-Serif" font-size="10.00">+ getObjectType()</text>
<text text-anchor="start" x="71" y="-559.5" font-family="Helvetica,sans-Serif" font-size="10.00"># setComponentType()</text>
<text text-anchor="start" x="71" y="-548.5" font-family="Helvetica,sans-Serif" font-size="10.00"># setObjectType()</text>
</a>
</g>
</g>
<!-- Node3&#45;&gt;Node2 -->
<g id="edge2" class="edge"><title>Node3&#45;&gt;Node2</title>
<path fill="none" stroke="midnightblue" d="M130,-530.941C130,-521.857 130,-512.885 130,-504.542"/>
<polygon fill="none" stroke="midnightblue" points="126.5,-531.215 130,-541.216 133.5,-531.216 126.5,-531.215"/>
</g>
<!-- Node4 -->
<g id="node4" class="node"><title>Node4</title>
<g id="a_node4"><a xlink:href="class_i_logable.html" target="_top" xlink:title="{ILogable\n||+ setStatus()\l+ getStatus()\l+ getLogValueCount()\l+ getLogValue()\l}">
<polygon fill="white" stroke="black" points="68.5,-723.5 68.5,-813.5 191.5,-813.5 191.5,-723.5 68.5,-723.5"/>
<text text-anchor="middle" x="130" y="-801.5" font-family="Helvetica,sans-Serif" font-size="10.00">ILogable</text>
<polyline fill="none" stroke="black" points="68.5,-794.5 191.5,-794.5 "/>
<text text-anchor="middle" x="130" y="-782.5" font-family="Helvetica,sans-Serif" font-size="10.00"> </text>
<polyline fill="none" stroke="black" points="68.5,-775.5 191.5,-775.5 "/>
<text text-anchor="start" x="76.5" y="-763.5" font-family="Helvetica,sans-Serif" font-size="10.00">+ setStatus()</text>
<text text-anchor="start" x="76.5" y="-752.5" font-family="Helvetica,sans-Serif" font-size="10.00">+ getStatus()</text>
<text text-anchor="start" x="76.5" y="-741.5" font-family="Helvetica,sans-Serif" font-size="10.00">+ getLogValueCount()</text>
<text text-anchor="start" x="76.5" y="-730.5" font-family="Helvetica,sans-Serif" font-size="10.00">+ getLogValue()</text>
</a>
</g>
</g>
<!-- Node4&#45;&gt;Node3 -->
<g id="edge3" class="edge"><title>Node4&#45;&gt;Node3</title>
<path fill="none" stroke="midnightblue" d="M130,-713.13C130,-704.526 130,-695.516 130,-686.591"/>
<polygon fill="none" stroke="midnightblue" points="126.5,-713.391 130,-723.391 133.5,-713.391 126.5,-713.391"/>
</g>
<!-- Node5 -->
<g id="node5" class="node"><title>Node5</title>
<g id="a_node5"><a xlink:href="class_non_copyable.html" target="_top" xlink:title="{NonCopyable\&lt; ILogable \&gt;\n||+ NonCopyable()\l}">
<polygon fill="white" stroke="black" points="58.5,-850.5 58.5,-907.5 201.5,-907.5 201.5,-850.5 58.5,-850.5"/>
<text text-anchor="middle" x="130" y="-895.5" font-family="Helvetica,sans-Serif" font-size="10.00">NonCopyable&lt; ILogable &gt;</text>
<polyline fill="none" stroke="black" points="58.5,-888.5 201.5,-888.5 "/>
<text text-anchor="middle" x="130" y="-876.5" font-family="Helvetica,sans-Serif" font-size="10.00"> </text>
<polyline fill="none" stroke="black" points="58.5,-869.5 201.5,-869.5 "/>
<text text-anchor="start" x="66.5" y="-857.5" font-family="Helvetica,sans-Serif" font-size="10.00">+ NonCopyable()</text>
</a>
</g>
</g>
<!-- Node5&#45;&gt;Node4 -->
<g id="edge4" class="edge"><title>Node5&#45;&gt;Node4</title>
<path fill="none" stroke="#8b1a1a" d="M130,-840.214C130,-831.609 130,-822.394 130,-813.554"/>
<polygon fill="none" stroke="#8b1a1a" points="126.5,-840.34 130,-850.34 133.5,-840.34 126.5,-840.34"/>
</g>
<!-- Node7 -->
<g id="node7" class="node"><title>Node7</title>
<g id="a_node7"><a xlink:href="class_dummy_s_car.html" target="_top" xlink:title="{DummySCar\n||+ DummySCar()\l+ setState()\l}">
<polygon fill="white" stroke="black" points="12.5,-0.5 12.5,-68.5 109.5,-68.5 109.5,-0.5 12.5,-0.5"/>
<text text-anchor="middle" x="61" y="-56.5" font-family="Helvetica,sans-Serif" font-size="10.00">DummySCar</text>
<polyline fill="none" stroke="black" points="12.5,-49.5 109.5,-49.5 "/>
<text text-anchor="middle" x="61" y="-37.5" font-family="Helvetica,sans-Serif" font-size="10.00"> </text>
<polyline fill="none" stroke="black" points="12.5,-30.5 109.5,-30.5 "/>
<text text-anchor="start" x="20.5" y="-18.5" font-family="Helvetica,sans-Serif" font-size="10.00">+ DummySCar()</text>
<text text-anchor="start" x="20.5" y="-7.5" font-family="Helvetica,sans-Serif" font-size="10.00">+ setState()</text>
</a>
</g>
</g>
<!-- Node6&#45;&gt;Node7 -->
<g id="edge6" class="edge"><title>Node6&#45;&gt;Node7</title>
<path fill="none" stroke="midnightblue" d="M61,-106.148C61,-92.8524 61,-79.8764 61,-68.7484"/>
<polygon fill="none" stroke="midnightblue" points="57.5001,-106.351 61,-116.351 64.5001,-106.351 57.5001,-106.351"/>
</g>
</g>
</svg>
