<?xml version="1.0" encoding="UTF-8" standalone="no"?>
<!DOCTYPE svg PUBLIC "-//W3C//DTD SVG 1.1//EN"
 "http://www.w3.org/Graphics/SVG/1.1/DTD/svg11.dtd">
<!-- Generated by graphviz version 2.38.0 (20140413.2041)
 -->
<!-- Title: CAN Pages: 1 -->
<!--zoomable 585 -->
<svg id="main" version="1.1" xmlns="http://www.w3.org/2000/svg" xmlns:xlink="http://www.w3.org/1999/xlink" xml:space="preserve" onload="init(evt)">
<style type="text/css"><![CDATA[
.edge:hover path { stroke: red; }
.edge:hover polygon { stroke: red; fill: red; }
]]></style>
<script type="text/javascript"><![CDATA[
var edges = document.getElementsByTagName('g');
if (edges && edges.length) {
  for (var i=0;i<edges.length;i++) {
    if (edges[i].id.substr(0,4)=='edge') {
      edges[i].setAttribute('class','edge');
    }
  }
}
]]></script>
        <defs>
                <circle id="rim" cx="0" cy="0" r="7"/>
                <circle id="rim2" cx="0" cy="0" r="3.5"/>
                <g id="zoomPlus">
                        <use xlink:href="#rim" fill="#404040">
                                <set attributeName="fill" to="#808080" begin="zoomplus.mouseover" end="zoomplus.mouseout"/>
                        </use>
                        <path d="M-4,0h8M0,-4v8" fill="none" stroke="white" stroke-width="1.5" pointer-events="none"/>
                </g>
                <g id="zoomMin">
                        <use xlink:href="#rim" fill="#404040">
                                <set attributeName="fill" to="#808080" begin="zoomminus.mouseover" end="zoomminus.mouseout"/>
                        </use>
                        <path d="M-4,0h8" fill="none" stroke="white" stroke-width="1.5" pointer-events="none"/>
                </g>
                <g id="dirArrow">
                        <path fill="none" stroke="white" stroke-width="1.5" d="M0,-3.0v7 M-2.5,-0.5L0,-3.0L2.5,-0.5"/>
                </g>
               <g id="resetDef">
                       <use xlink:href="#rim2" fill="#404040">
                               <set attributeName="fill" to="#808080" begin="reset.mouseover" end="reset.mouseout"/>
                       </use>
               </g>
        </defs>

<script type="text/javascript">
var viewWidth = 400;
var viewHeight = 585;
var sectionId = 'dynsection-1';
</script>
<script xlink:href="svgpan.js"/>
<svg id="graph" class="graph">
<g id="viewport">
<title>CAN</title>
<polygon fill="white" stroke="none" points="-4,4 -4,-581 395.5,-581 395.5,4 -4,4"/>
<!-- Node1 -->
<g id="node1" class="node"><title>Node1</title>
<polygon fill="#bfbfbf" stroke="black" points="155,-0.5 155,-233.5 283,-233.5 283,-0.5 155,-0.5"/>
<text text-anchor="middle" x="219" y="-221.5" font-family="Helvetica,sans-Serif" font-size="10.00">CAN</text>
<polyline fill="none" stroke="black" points="155,-214.5 283,-214.5 "/>
<text text-anchor="start" x="163" y="-202.5" font-family="Helvetica,sans-Serif" font-size="10.00">+ RxIrq</text>
<text text-anchor="start" x="163" y="-191.5" font-family="Helvetica,sans-Serif" font-size="10.00">+ maxMsgInWriteBuffer</text>
<text text-anchor="start" x="163" y="-180.5" font-family="Helvetica,sans-Serif" font-size="10.00">+ writtenMsgCount</text>
<polyline fill="none" stroke="black" points="155,-173.5 283,-173.5 "/>
<text text-anchor="start" x="163" y="-161.5" font-family="Helvetica,sans-Serif" font-size="10.00">+ CAN()</text>
<text text-anchor="start" x="163" y="-150.5" font-family="Helvetica,sans-Serif" font-size="10.00">+ ~CAN()</text>
<text text-anchor="start" x="163" y="-139.5" font-family="Helvetica,sans-Serif" font-size="10.00">+ write()</text>
<text text-anchor="start" x="163" y="-128.5" font-family="Helvetica,sans-Serif" font-size="10.00">+ read()</text>
<text text-anchor="start" x="163" y="-117.5" font-family="Helvetica,sans-Serif" font-size="10.00">+ available()</text>
<text text-anchor="start" x="163" y="-106.5" font-family="Helvetica,sans-Serif" font-size="10.00">+ reset()</text>
<text text-anchor="start" x="163" y="-95.5" font-family="Helvetica,sans-Serif" font-size="10.00">+ rderror()</text>
<text text-anchor="start" x="163" y="-84.5" font-family="Helvetica,sans-Serif" font-size="10.00">+ tderror()</text>
<text text-anchor="start" x="163" y="-73.5" font-family="Helvetica,sans-Serif" font-size="10.00">+ CAN()</text>
<text text-anchor="start" x="163" y="-62.5" font-family="Helvetica,sans-Serif" font-size="10.00">+ available()</text>
<text text-anchor="start" x="163" y="-51.5" font-family="Helvetica,sans-Serif" font-size="10.00">+ read()</text>
<text text-anchor="start" x="163" y="-40.5" font-family="Helvetica,sans-Serif" font-size="10.00">+ write()</text>
<text text-anchor="start" x="163" y="-29.5" font-family="Helvetica,sans-Serif" font-size="10.00">+ clearWrite()</text>
<text text-anchor="start" x="163" y="-18.5" font-family="Helvetica,sans-Serif" font-size="10.00">+ clear()</text>
<text text-anchor="start" x="163" y="-7.5" font-family="Helvetica,sans-Serif" font-size="10.00">+ addCustomIn()</text>
</g>
<!-- Node2 -->
<g id="node2" class="node"><title>Node2</title>
<g id="a_node2"><a xlink:href="class_non_copyable.html" target="_top" xlink:title="{NonCopyable\&lt; CAN \&gt;\n||+ NonCopyable()\l}">
<polygon fill="white" stroke="black" points="0,-347.5 0,-404.5 124,-404.5 124,-347.5 0,-347.5"/>
<text text-anchor="middle" x="62" y="-392.5" font-family="Helvetica,sans-Serif" font-size="10.00">NonCopyable&lt; CAN &gt;</text>
<polyline fill="none" stroke="black" points="0,-385.5 124,-385.5 "/>
<text text-anchor="middle" x="62" y="-373.5" font-family="Helvetica,sans-Serif" font-size="10.00"> </text>
<polyline fill="none" stroke="black" points="0,-366.5 124,-366.5 "/>
<text text-anchor="start" x="8" y="-354.5" font-family="Helvetica,sans-Serif" font-size="10.00">+ NonCopyable()</text>
</a>
</g>
</g>
<!-- Node2&#45;&gt;Node1 -->
<g id="edge1" class="edge"><title>Node2&#45;&gt;Node1</title>
<path fill="none" stroke="#8b1a1a" d="M84.2344,-338.604C102.682,-308.406 129.866,-263.907 154.997,-222.769"/>
<polygon fill="none" stroke="#8b1a1a" points="81.0282,-337.138 78.8018,-347.496 87.0017,-340.787 81.0282,-337.138"/>
</g>
<!-- Node3 -->
<g id="node3" class="node"><title>Node3</title>
<g id="a_node3"><a xlink:href="classstd_1_1vector.html" target="_top" xlink:title="{std::vector\&lt; CANMessage \&gt;\n||+ ~vector()\l+ at()\l+ operator[]()\l+ front()\l+ back()\l+ data()\l+ begin()\l+ end()\l+ empty()\l+ size()\land 7 more...\l}">
<polygon fill="white" stroke="black" points="142,-292.5 142,-459.5 296,-459.5 296,-292.5 142,-292.5"/>
<text text-anchor="middle" x="219" y="-447.5" font-family="Helvetica,sans-Serif" font-size="10.00">std::vector&lt; CANMessage &gt;</text>
<polyline fill="none" stroke="black" points="142,-440.5 296,-440.5 "/>
<text text-anchor="middle" x="219" y="-428.5" font-family="Helvetica,sans-Serif" font-size="10.00"> </text>
<polyline fill="none" stroke="black" points="142,-421.5 296,-421.5 "/>
<text text-anchor="start" x="150" y="-409.5" font-family="Helvetica,sans-Serif" font-size="10.00">+ ~vector()</text>
<text text-anchor="start" x="150" y="-398.5" font-family="Helvetica,sans-Serif" font-size="10.00">+ at()</text>
<text text-anchor="start" x="150" y="-387.5" font-family="Helvetica,sans-Serif" font-size="10.00">+ operator[]()</text>
<text text-anchor="start" x="150" y="-376.5" font-family="Helvetica,sans-Serif" font-size="10.00">+ front()</text>
<text text-anchor="start" x="150" y="-365.5" font-family="Helvetica,sans-Serif" font-size="10.00">+ back()</text>
<text text-anchor="start" x="150" y="-354.5" font-family="Helvetica,sans-Serif" font-size="10.00">+ data()</text>
<text text-anchor="start" x="150" y="-343.5" font-family="Helvetica,sans-Serif" font-size="10.00">+ begin()</text>
<text text-anchor="start" x="150" y="-332.5" font-family="Helvetica,sans-Serif" font-size="10.00">+ end()</text>
<text text-anchor="start" x="150" y="-321.5" font-family="Helvetica,sans-Serif" font-size="10.00">+ empty()</text>
<text text-anchor="start" x="150" y="-310.5" font-family="Helvetica,sans-Serif" font-size="10.00">+ size()</text>
<text text-anchor="start" x="150" y="-299.5" font-family="Helvetica,sans-Serif" font-size="10.00">and 7 more...</text>
</a>
</g>
</g>
<!-- Node3&#45;&gt;Node1 -->
<g id="edge2" class="edge"><title>Node3&#45;&gt;Node1</title>
<path fill="none" stroke="#404040" d="M219,-292.269C219,-277.419 219,-261.63 219,-245.855"/>
<polygon fill="none" stroke="#404040" points="219,-245.81 215,-239.81 219,-233.81 223,-239.81 219,-245.81"/>
<text text-anchor="middle" x="265.5" y="-266" font-family="Helvetica,sans-Serif" font-size="10.00"> +messageInBuffer</text>
<text text-anchor="middle" x="265.5" y="-255" font-family="Helvetica,sans-Serif" font-size="10.00">+sentMessages</text>
</g>
<!-- Node4 -->
<g id="node4" class="node"><title>Node4</title>
<g id="a_node4"><a xlink:href="class_non_copyable.html" target="_top" xlink:title="{NonCopyable\&lt; vector\l\&lt; CANMessage, unsigned\l int \&gt; \&gt;\n||+ NonCopyable()\l}">
<polygon fill="white" stroke="black" points="148.5,-497.5 148.5,-576.5 289.5,-576.5 289.5,-497.5 148.5,-497.5"/>
<text text-anchor="start" x="156.5" y="-564.5" font-family="Helvetica,sans-Serif" font-size="10.00">NonCopyable&lt; vector</text>
<text text-anchor="start" x="156.5" y="-553.5" font-family="Helvetica,sans-Serif" font-size="10.00">&lt; CANMessage, unsigned</text>
<text text-anchor="middle" x="219" y="-542.5" font-family="Helvetica,sans-Serif" font-size="10.00"> int &gt; &gt;</text>
<polyline fill="none" stroke="black" points="148.5,-535.5 289.5,-535.5 "/>
<text text-anchor="middle" x="219" y="-523.5" font-family="Helvetica,sans-Serif" font-size="10.00"> </text>
<polyline fill="none" stroke="black" points="148.5,-516.5 289.5,-516.5 "/>
<text text-anchor="start" x="156.5" y="-504.5" font-family="Helvetica,sans-Serif" font-size="10.00">+ NonCopyable()</text>
</a>
</g>
</g>
<!-- Node4&#45;&gt;Node3 -->
<g id="edge3" class="edge"><title>Node4&#45;&gt;Node3</title>
<path fill="none" stroke="#8b1a1a" d="M219,-486.87C219,-478.223 219,-469.012 219,-459.742"/>
<polygon fill="none" stroke="#8b1a1a" points="215.5,-487.104 219,-497.104 222.5,-487.104 215.5,-487.104"/>
</g>
<!-- Node5 -->
<g id="node5" class="node"><title>Node5</title>
<g id="a_node5"><a xlink:href="class_flex_c_a_n.html" target="_top" xlink:title="{FlexCAN\n||+ FlexCAN()\l+ begin()\l+ begin()\l+ setFilter()\l+ end()\l+ available()\l+ write()\l+ read()\l}">
<polygon fill="white" stroke="black" points="314.5,-309 314.5,-443 391.5,-443 391.5,-309 314.5,-309"/>
<text text-anchor="middle" x="353" y="-431" font-family="Helvetica,sans-Serif" font-size="10.00">FlexCAN</text>
<polyline fill="none" stroke="black" points="314.5,-424 391.5,-424 "/>
<text text-anchor="middle" x="353" y="-412" font-family="Helvetica,sans-Serif" font-size="10.00"> </text>
<polyline fill="none" stroke="black" points="314.5,-405 391.5,-405 "/>
<text text-anchor="start" x="322.5" y="-393" font-family="Helvetica,sans-Serif" font-size="10.00">+ FlexCAN()</text>
<text text-anchor="start" x="322.5" y="-382" font-family="Helvetica,sans-Serif" font-size="10.00">+ begin()</text>
<text text-anchor="start" x="322.5" y="-371" font-family="Helvetica,sans-Serif" font-size="10.00">+ begin()</text>
<text text-anchor="start" x="322.5" y="-360" font-family="Helvetica,sans-Serif" font-size="10.00">+ setFilter()</text>
<text text-anchor="start" x="322.5" y="-349" font-family="Helvetica,sans-Serif" font-size="10.00">+ end()</text>
<text text-anchor="start" x="322.5" y="-338" font-family="Helvetica,sans-Serif" font-size="10.00">+ available()</text>
<text text-anchor="start" x="322.5" y="-327" font-family="Helvetica,sans-Serif" font-size="10.00">+ write()</text>
<text text-anchor="start" x="322.5" y="-316" font-family="Helvetica,sans-Serif" font-size="10.00">+ read()</text>
</a>
</g>
</g>
<!-- Node5&#45;&gt;Node1 -->
<g id="edge4" class="edge"><title>Node5&#45;&gt;Node1</title>
<path fill="none" stroke="#404040" d="M337.541,-308.973C331.953,-290.075 324.8,-269.789 316,-252 308.622,-237.086 299.615,-222.059 290.095,-207.734"/>
<polygon fill="none" stroke="#404040" points="289.84,-207.359 283.157,-204.65 283.088,-197.439 289.771,-200.149 289.84,-207.359"/>
<text text-anchor="middle" x="342" y="-260.5" font-family="Helvetica,sans-Serif" font-size="10.00"> #_can</text>
</g>
</g>
</svg>
        <g id="navigator" transform="translate(0 0)" fill="#404254">
                <rect fill="#f2f5e9" fill-opacity="0.5" stroke="#606060" stroke-width=".5" x="0" y="0" width="60" height="60"/>
                <use id="zoomplus" xlink:href="#zoomPlus" x="17" y="9" onmousedown="handleZoom(evt,'in')"/>
                <use id="zoomminus" xlink:href="#zoomMin" x="42" y="9" onmousedown="handleZoom(evt,'out')"/>
                <use id="reset" xlink:href="#resetDef" x="30" y="36" onmousedown="handleReset()"/>
                <g id="arrowUp" xlink:href="#dirArrow" transform="translate(30 24)" onmousedown="handlePan(0,-1)">
                  <use xlink:href="#rim" fill="#404040">
                        <set attributeName="fill" to="#808080" begin="arrowUp.mouseover" end="arrowUp.mouseout"/>
                  </use>
                  <path fill="none" stroke="white" stroke-width="1.5" d="M0,-3.0v7 M-2.5,-0.5L0,-3.0L2.5,-0.5"/>
                </g>
                <g id="arrowRight" xlink:href="#dirArrow" transform="rotate(90) translate(36 -43)" onmousedown="handlePan(1,0)">
                  <use xlink:href="#rim" fill="#404040">
                        <set attributeName="fill" to="#808080" begin="arrowRight.mouseover" end="arrowRight.mouseout"/>
                  </use>
                  <path fill="none" stroke="white" stroke-width="1.5" d="M0,-3.0v7 M-2.5,-0.5L0,-3.0L2.5,-0.5"/>
                </g>
                <g id="arrowDown" xlink:href="#dirArrow" transform="rotate(180) translate(-30 -48)" onmousedown="handlePan(0,1)">
                  <use xlink:href="#rim" fill="#404040">
                        <set attributeName="fill" to="#808080" begin="arrowDown.mouseover" end="arrowDown.mouseout"/>
                  </use>
                  <path fill="none" stroke="white" stroke-width="1.5" d="M0,-3.0v7 M-2.5,-0.5L0,-3.0L2.5,-0.5"/>
                </g>
                <g id="arrowLeft" xlink:href="#dirArrow" transform="rotate(270) translate(-36 17)" onmousedown="handlePan(-1,0)">
                  <use xlink:href="#rim" fill="#404040">
                        <set attributeName="fill" to="#808080" begin="arrowLeft.mouseover" end="arrowLeft.mouseout"/>
                  </use>
                  <path fill="none" stroke="white" stroke-width="1.5" d="M0,-3.0v7 M-2.5,-0.5L0,-3.0L2.5,-0.5"/>
                </g>
        </g>
        <svg viewBox="0 0 15 15" width="100%" height="30px" preserveAspectRatio="xMaxYMin meet">
         <g id="arrow_out" transform="scale(0.3 0.3)">
          <a xlink:href="class_c_a_n__coll__graph_org.svg" target="_base">
           <rect id="button" ry="5" rx="5" y="6" x="6" height="38" width="38"
                fill="#f2f5e9" fill-opacity="0.5" stroke="#606060" stroke-width="1.0"/>
           <path id="arrow"
             d="M 11.500037,31.436501 C 11.940474,20.09759 22.043105,11.32322 32.158766,21.979434 L 37.068811,17.246167 C 37.068811,17.246167 37.088388,32 37.088388,32 L 22.160133,31.978069 C 22.160133,31.978069 26.997745,27.140456 26.997745,27.140456 C 18.528582,18.264221 13.291696,25.230495 11.500037,31.436501 z"
             style="fill:#404040;"/>
          </a>
         </g>
        </svg>
</svg>
