<?xml version="1.0" encoding="UTF-8" standalone="no"?>
<!DOCTYPE svg PUBLIC "-//W3C//DTD SVG 1.1//EN"
 "http://www.w3.org/Graphics/SVG/1.1/DTD/svg11.dtd">
<!-- Generated by graphviz version 2.38.0 (20140413.2041)
 -->
<!-- Title: mbed::MemFileSystem Pages: 1 -->
<!--zoomable 530 -->
<svg id="main" version="1.1" xmlns="http://www.w3.org/2000/svg" xmlns:xlink="http://www.w3.org/1999/xlink" xml:space="preserve" onload="init(evt)">
<style type="text/css"><![CDATA[
.edge:hover path { stroke: red; }
.edge:hover polygon { stroke: red; fill: red; }
]]></style>
<script type="text/javascript"><![CDATA[
var edges = document.getElementsByTagName('g');
if (edges && edges.length) {
  for (var i=0;i<edges.length;i++) {
    if (edges[i].id.substr(0,4)=='edge') {
      edges[i].setAttribute('class','edge');
    }
  }
}
]]></script>
        <defs>
                <circle id="rim" cx="0" cy="0" r="7"/>
                <circle id="rim2" cx="0" cy="0" r="3.5"/>
                <g id="zoomPlus">
                        <use xlink:href="#rim" fill="#404040">
                                <set attributeName="fill" to="#808080" begin="zoomplus.mouseover" end="zoomplus.mouseout"/>
                        </use>
                        <path d="M-4,0h8M0,-4v8" fill="none" stroke="white" stroke-width="1.5" pointer-events="none"/>
                </g>
                <g id="zoomMin">
                        <use xlink:href="#rim" fill="#404040">
                                <set attributeName="fill" to="#808080" begin="zoomminus.mouseover" end="zoomminus.mouseout"/>
                        </use>
                        <path d="M-4,0h8" fill="none" stroke="white" stroke-width="1.5" pointer-events="none"/>
                </g>
                <g id="dirArrow">
                        <path fill="none" stroke="white" stroke-width="1.5" d="M0,-3.0v7 M-2.5,-0.5L0,-3.0L2.5,-0.5"/>
                </g>
               <g id="resetDef">
                       <use xlink:href="#rim2" fill="#404040">
                               <set attributeName="fill" to="#808080" begin="reset.mouseover" end="reset.mouseout"/>
                       </use>
               </g>
        </defs>

<script type="text/javascript">
var viewWidth = 204;
var viewHeight = 530;
var sectionId = 'dynsection-1';
</script>
<script xlink:href="svgpan.js"/>
<svg id="graph" class="graph">
<g id="viewport">
<title>mbed::MemFileSystem</title>
<polygon fill="white" stroke="none" points="-4,4 -4,-526 200,-526 200,4 -4,4"/>
<!-- Node1 -->
<g id="node1" class="node"><title>Node1</title>
<polygon fill="#bfbfbf" stroke="black" points="31.5,-0.5 31.5,-101.5 157.5,-101.5 157.5,-0.5 31.5,-0.5"/>
<text text-anchor="middle" x="94.5" y="-89.5" font-family="Helvetica,sans-Serif" font-size="10.00">mbed::MemFileSystem</text>
<polyline fill="none" stroke="black" points="31.5,-82.5 157.5,-82.5 "/>
<text text-anchor="start" x="39.5" y="-70.5" font-family="Helvetica,sans-Serif" font-size="10.00">+ sectors</text>
<polyline fill="none" stroke="black" points="31.5,-63.5 157.5,-63.5 "/>
<text text-anchor="start" x="39.5" y="-51.5" font-family="Helvetica,sans-Serif" font-size="10.00">+ MemFileSystem()</text>
<text text-anchor="start" x="39.5" y="-40.5" font-family="Helvetica,sans-Serif" font-size="10.00">+ ~MemFileSystem()</text>
<text text-anchor="start" x="39.5" y="-29.5" font-family="Helvetica,sans-Serif" font-size="10.00">+ disk_read()</text>
<text text-anchor="start" x="39.5" y="-18.5" font-family="Helvetica,sans-Serif" font-size="10.00">+ disk_write()</text>
<text text-anchor="start" x="39.5" y="-7.5" font-family="Helvetica,sans-Serif" font-size="10.00">+ disk_sectors()</text>
</g>
<!-- Node2 -->
<g id="node2" class="node"><title>Node2</title>
<g id="a_node2"><a xlink:href="class_f_a_t_file_system.html" target="_top" xlink:title="{FATFileSystem\n|+ _fsid\l|+ FATFileSystem()\l+ ~FATFileSystem()\l+ open()\l+ open()\l+ remove()\l+ rename()\l+ format()\l+ opendir()\l+ open()\l+ mkdir()\land 8 more...\l}">
<polygon fill="white" stroke="black" points="39,-139.5 39,-306.5 150,-306.5 150,-139.5 39,-139.5"/>
<text text-anchor="middle" x="94.5" y="-294.5" font-family="Helvetica,sans-Serif" font-size="10.00">FATFileSystem</text>
<polyline fill="none" stroke="black" points="39,-287.5 150,-287.5 "/>
<text text-anchor="start" x="47" y="-275.5" font-family="Helvetica,sans-Serif" font-size="10.00">+ _fsid</text>
<polyline fill="none" stroke="black" points="39,-268.5 150,-268.5 "/>
<text text-anchor="start" x="47" y="-256.5" font-family="Helvetica,sans-Serif" font-size="10.00">+ FATFileSystem()</text>
<text text-anchor="start" x="47" y="-245.5" font-family="Helvetica,sans-Serif" font-size="10.00">+ ~FATFileSystem()</text>
<text text-anchor="start" x="47" y="-234.5" font-family="Helvetica,sans-Serif" font-size="10.00">+ open()</text>
<text text-anchor="start" x="47" y="-223.5" font-family="Helvetica,sans-Serif" font-size="10.00">+ open()</text>
<text text-anchor="start" x="47" y="-212.5" font-family="Helvetica,sans-Serif" font-size="10.00">+ remove()</text>
<text text-anchor="start" x="47" y="-201.5" font-family="Helvetica,sans-Serif" font-size="10.00">+ rename()</text>
<text text-anchor="start" x="47" y="-190.5" font-family="Helvetica,sans-Serif" font-size="10.00">+ format()</text>
<text text-anchor="start" x="47" y="-179.5" font-family="Helvetica,sans-Serif" font-size="10.00">+ opendir()</text>
<text text-anchor="start" x="47" y="-168.5" font-family="Helvetica,sans-Serif" font-size="10.00">+ open()</text>
<text text-anchor="start" x="47" y="-157.5" font-family="Helvetica,sans-Serif" font-size="10.00">+ mkdir()</text>
<text text-anchor="start" x="47" y="-146.5" font-family="Helvetica,sans-Serif" font-size="10.00">and 8 more...</text>
</a>
</g>
</g>
<!-- Node2&#45;&gt;Node1 -->
<g id="edge1" class="edge"><title>Node2&#45;&gt;Node1</title>
<path fill="none" stroke="midnightblue" d="M94.5,-129.249C94.5,-119.837 94.5,-110.553 94.5,-101.864"/>
<polygon fill="none" stroke="midnightblue" points="91.0001,-129.49 94.5,-139.49 98.0001,-129.49 91.0001,-129.49"/>
</g>
<!-- Node2&#45;&gt;Node2 -->
<g id="edge4" class="edge"><title>Node2&#45;&gt;Node2</title>
<path fill="none" stroke="#404040" d="M150.267,-241.143C160.672,-238.909 168,-232.861 168,-223 168,-217.299 165.551,-212.872 161.474,-209.721"/>
<polygon fill="none" stroke="#404040" points="161.275,-209.634 154.178,-210.915 150.267,-204.857 157.363,-203.576 161.275,-209.634"/>
<text text-anchor="middle" x="182" y="-220.5" font-family="Helvetica,sans-Serif" font-size="10.00"> +_ffs</text>
</g>
<!-- Node3 -->
<g id="node3" class="node"><title>Node3</title>
<polygon fill="white" stroke="#bfbfbf" points="0,-409.5 0,-466.5 87,-466.5 87,-409.5 0,-409.5"/>
<text text-anchor="middle" x="43.5" y="-454.5" font-family="Helvetica,sans-Serif" font-size="10.00">FileSystemLike</text>
<polyline fill="none" stroke="#bfbfbf" points="0,-447.5 87,-447.5 "/>
<text text-anchor="middle" x="43.5" y="-435.5" font-family="Helvetica,sans-Serif" font-size="10.00"> </text>
<polyline fill="none" stroke="#bfbfbf" points="0,-428.5 87,-428.5 "/>
<text text-anchor="middle" x="43.5" y="-416.5" font-family="Helvetica,sans-Serif" font-size="10.00"> </text>
</g>
<!-- Node3&#45;&gt;Node2 -->
<g id="edge2" class="edge"><title>Node3&#45;&gt;Node2</title>
<path fill="none" stroke="midnightblue" d="M52.5749,-399.099C58.7237,-373.419 67.0906,-338.474 74.733,-306.556"/>
<polygon fill="none" stroke="midnightblue" points="49.0922,-398.614 50.1674,-409.154 55.8998,-400.244 49.0922,-398.614"/>
</g>
<!-- Node4 -->
<g id="node4" class="node"><title>Node4</title>
<g id="a_node4"><a xlink:href="struct_f_a_t_f_s.html" target="_top" xlink:title="{FATFS\n|+ fs_type\l+ drv\l+ csize\l+ n_fats\l+ wflag\l+ fsi_flag\l+ id\l+ n_rootdir\l+ last_clust\l+ free_clust\land 8 more...\l|}">
<polygon fill="white" stroke="black" points="105,-354.5 105,-521.5 186,-521.5 186,-354.5 105,-354.5"/>
<text text-anchor="middle" x="145.5" y="-509.5" font-family="Helvetica,sans-Serif" font-size="10.00">FATFS</text>
<polyline fill="none" stroke="black" points="105,-502.5 186,-502.5 "/>
<text text-anchor="start" x="113" y="-490.5" font-family="Helvetica,sans-Serif" font-size="10.00">+ fs_type</text>
<text text-anchor="start" x="113" y="-479.5" font-family="Helvetica,sans-Serif" font-size="10.00">+ drv</text>
<text text-anchor="start" x="113" y="-468.5" font-family="Helvetica,sans-Serif" font-size="10.00">+ csize</text>
<text text-anchor="start" x="113" y="-457.5" font-family="Helvetica,sans-Serif" font-size="10.00">+ n_fats</text>
<text text-anchor="start" x="113" y="-446.5" font-family="Helvetica,sans-Serif" font-size="10.00">+ wflag</text>
<text text-anchor="start" x="113" y="-435.5" font-family="Helvetica,sans-Serif" font-size="10.00">+ fsi_flag</text>
<text text-anchor="start" x="113" y="-424.5" font-family="Helvetica,sans-Serif" font-size="10.00">+ id</text>
<text text-anchor="start" x="113" y="-413.5" font-family="Helvetica,sans-Serif" font-size="10.00">+ n_rootdir</text>
<text text-anchor="start" x="113" y="-402.5" font-family="Helvetica,sans-Serif" font-size="10.00">+ last_clust</text>
<text text-anchor="start" x="113" y="-391.5" font-family="Helvetica,sans-Serif" font-size="10.00">+ free_clust</text>
<text text-anchor="start" x="113" y="-380.5" font-family="Helvetica,sans-Serif" font-size="10.00">and 8 more...</text>
<polyline fill="none" stroke="black" points="105,-373.5 186,-373.5 "/>
<text text-anchor="middle" x="145.5" y="-361.5" font-family="Helvetica,sans-Serif" font-size="10.00"> </text>
</a>
</g>
</g>
<!-- Node4&#45;&gt;Node2 -->
<g id="edge3" class="edge"><title>Node4&#45;&gt;Node2</title>
<path fill="none" stroke="#404040" d="M125.709,-354.344C122.895,-342.591 119.983,-330.431 117.121,-318.475"/>
<polygon fill="none" stroke="#404040" points="117.074,-318.28 111.787,-313.376 114.28,-306.61 119.567,-311.513 117.074,-318.28"/>
<text text-anchor="middle" x="132" y="-328" font-family="Helvetica,sans-Serif" font-size="10.00"> +_fs</text>
</g>
</g>
</svg>
        <g id="navigator" transform="translate(0 0)" fill="#404254">
                <rect fill="#f2f5e9" fill-opacity="0.5" stroke="#606060" stroke-width=".5" x="0" y="0" width="60" height="60"/>
                <use id="zoomplus" xlink:href="#zoomPlus" x="17" y="9" onmousedown="handleZoom(evt,'in')"/>
                <use id="zoomminus" xlink:href="#zoomMin" x="42" y="9" onmousedown="handleZoom(evt,'out')"/>
                <use id="reset" xlink:href="#resetDef" x="30" y="36" onmousedown="handleReset()"/>
                <g id="arrowUp" xlink:href="#dirArrow" transform="translate(30 24)" onmousedown="handlePan(0,-1)">
                  <use xlink:href="#rim" fill="#404040">
                        <set attributeName="fill" to="#808080" begin="arrowUp.mouseover" end="arrowUp.mouseout"/>
                  </use>
                  <path fill="none" stroke="white" stroke-width="1.5" d="M0,-3.0v7 M-2.5,-0.5L0,-3.0L2.5,-0.5"/>
                </g>
                <g id="arrowRight" xlink:href="#dirArrow" transform="rotate(90) translate(36 -43)" onmousedown="handlePan(1,0)">
                  <use xlink:href="#rim" fill="#404040">
                        <set attributeName="fill" to="#808080" begin="arrowRight.mouseover" end="arrowRight.mouseout"/>
                  </use>
                  <path fill="none" stroke="white" stroke-width="1.5" d="M0,-3.0v7 M-2.5,-0.5L0,-3.0L2.5,-0.5"/>
                </g>
                <g id="arrowDown" xlink:href="#dirArrow" transform="rotate(180) translate(-30 -48)" onmousedown="handlePan(0,1)">
                  <use xlink:href="#rim" fill="#404040">
                        <set attributeName="fill" to="#808080" begin="arrowDown.mouseover" end="arrowDown.mouseout"/>
                  </use>
                  <path fill="none" stroke="white" stroke-width="1.5" d="M0,-3.0v7 M-2.5,-0.5L0,-3.0L2.5,-0.5"/>
                </g>
                <g id="arrowLeft" xlink:href="#dirArrow" transform="rotate(270) translate(-36 17)" onmousedown="handlePan(-1,0)">
                  <use xlink:href="#rim" fill="#404040">
                        <set attributeName="fill" to="#808080" begin="arrowLeft.mouseover" end="arrowLeft.mouseout"/>
                  </use>
                  <path fill="none" stroke="white" stroke-width="1.5" d="M0,-3.0v7 M-2.5,-0.5L0,-3.0L2.5,-0.5"/>
                </g>
        </g>
        <svg viewBox="0 0 15 15" width="100%" height="30px" preserveAspectRatio="xMaxYMin meet">
         <g id="arrow_out" transform="scale(0.3 0.3)">
          <a xlink:href="classmbed_1_1_mem_file_system__coll__graph_org.svg" target="_base">
           <rect id="button" ry="5" rx="5" y="6" x="6" height="38" width="38"
                fill="#f2f5e9" fill-opacity="0.5" stroke="#606060" stroke-width="1.0"/>
           <path id="arrow"
             d="M 11.500037,31.436501 C 11.940474,20.09759 22.043105,11.32322 32.158766,21.979434 L 37.068811,17.246167 C 37.068811,17.246167 37.088388,32 37.088388,32 L 22.160133,31.978069 C 22.160133,31.978069 26.997745,27.140456 26.997745,27.140456 C 18.528582,18.264221 13.291696,25.230495 11.500037,31.436501 z"
             style="fill:#404040;"/>
          </a>
         </g>
        </svg>
</svg>
