<?xml version="1.0" encoding="UTF-8" standalone="no"?>
<!DOCTYPE svg PUBLIC "-//W3C//DTD SVG 1.1//EN"
 "http://www.w3.org/Graphics/SVG/1.1/DTD/svg11.dtd">
<!-- Generated by graphviz version 2.38.0 (20140413.2041)
 -->
<!-- Title: IButton Pages: 1 -->
<svg width="302pt" height="1125pt"
 viewBox="0.00 0.00 301.50 1125.00" xmlns="http://www.w3.org/2000/svg" xmlns:xlink="http://www.w3.org/1999/xlink">
<g id="graph0" class="graph" transform="scale(1 1) rotate(0) translate(4 1121)">
<title>IButton</title>
<polygon fill="white" stroke="none" points="-4,4 -4,-1121 297.5,-1121 297.5,4 -4,4"/>
<!-- Node1 -->
<g id="node1" class="node"><title>Node1</title>
<polygon fill="#bfbfbf" stroke="black" points="95.5,-325.5 95.5,-415.5 215.5,-415.5 215.5,-325.5 95.5,-325.5"/>
<text text-anchor="middle" x="155.5" y="-403.5" font-family="Helvetica,sans-Serif" font-size="10.00">IButton</text>
<polyline fill="none" stroke="black" points="95.5,-396.5 215.5,-396.5 "/>
<text text-anchor="middle" x="155.5" y="-384.5" font-family="Helvetica,sans-Serif" font-size="10.00"> </text>
<polyline fill="none" stroke="black" points="95.5,-377.5 215.5,-377.5 "/>
<text text-anchor="start" x="103.5" y="-365.5" font-family="Helvetica,sans-Serif" font-size="10.00">+ IButton()</text>
<text text-anchor="start" x="103.5" y="-354.5" font-family="Helvetica,sans-Serif" font-size="10.00">+ setState()</text>
<text text-anchor="start" x="103.5" y="-343.5" font-family="Helvetica,sans-Serif" font-size="10.00">+ getState()</text>
<text text-anchor="start" x="103.5" y="-332.5" font-family="Helvetica,sans-Serif" font-size="10.00">+ getStateChanged()</text>
</g>
<!-- Node7 -->
<g id="node7" class="node"><title>Node7</title>
<g id="a_node7"><a xlink:href="class_hardware_interrupt_button.html" target="_top" xlink:title="{HardwareInterruptButton\n|# _registry\l# _interruptPin\l# _ticker\l# _lastHardwareState\l# _debouncing\l# _debounced\l# _status\l# _lastState\l# _stateBuffer\l|+ HardwareInterruptButton()\l+ setStatus()\l+ getStatus()\l+ setState()\l+ getState()\l+ getStateChanged()\l+ receive()\l# _debounce()\l# _checkLongClick()\l# _pressed()\l# _released()\l# _addState()\l# _readState()\l# _stateBufferFull()\l}">
<polygon fill="white" stroke="black" points="0,-0.5 0,-288.5 155,-288.5 155,-0.5 0,-0.5"/>
<text text-anchor="middle" x="77.5" y="-276.5" font-family="Helvetica,sans-Serif" font-size="10.00">HardwareInterruptButton</text>
<polyline fill="none" stroke="black" points="0,-269.5 155,-269.5 "/>
<text text-anchor="start" x="8" y="-257.5" font-family="Helvetica,sans-Serif" font-size="10.00"># _registry</text>
<text text-anchor="start" x="8" y="-246.5" font-family="Helvetica,sans-Serif" font-size="10.00"># _interruptPin</text>
<text text-anchor="start" x="8" y="-235.5" font-family="Helvetica,sans-Serif" font-size="10.00"># _ticker</text>
<text text-anchor="start" x="8" y="-224.5" font-family="Helvetica,sans-Serif" font-size="10.00"># _lastHardwareState</text>
<text text-anchor="start" x="8" y="-213.5" font-family="Helvetica,sans-Serif" font-size="10.00"># _debouncing</text>
<text text-anchor="start" x="8" y="-202.5" font-family="Helvetica,sans-Serif" font-size="10.00"># _debounced</text>
<text text-anchor="start" x="8" y="-191.5" font-family="Helvetica,sans-Serif" font-size="10.00"># _status</text>
<text text-anchor="start" x="8" y="-180.5" font-family="Helvetica,sans-Serif" font-size="10.00"># _lastState</text>
<text text-anchor="start" x="8" y="-169.5" font-family="Helvetica,sans-Serif" font-size="10.00"># _stateBuffer</text>
<polyline fill="none" stroke="black" points="0,-162.5 155,-162.5 "/>
<text text-anchor="start" x="8" y="-150.5" font-family="Helvetica,sans-Serif" font-size="10.00">+ HardwareInterruptButton()</text>
<text text-anchor="start" x="8" y="-139.5" font-family="Helvetica,sans-Serif" font-size="10.00">+ setStatus()</text>
<text text-anchor="start" x="8" y="-128.5" font-family="Helvetica,sans-Serif" font-size="10.00">+ getStatus()</text>
<text text-anchor="start" x="8" y="-117.5" font-family="Helvetica,sans-Serif" font-size="10.00">+ setState()</text>
<text text-anchor="start" x="8" y="-106.5" font-family="Helvetica,sans-Serif" font-size="10.00">+ getState()</text>
<text text-anchor="start" x="8" y="-95.5" font-family="Helvetica,sans-Serif" font-size="10.00">+ getStateChanged()</text>
<text text-anchor="start" x="8" y="-84.5" font-family="Helvetica,sans-Serif" font-size="10.00">+ receive()</text>
<text text-anchor="start" x="8" y="-73.5" font-family="Helvetica,sans-Serif" font-size="10.00"># _debounce()</text>
<text text-anchor="start" x="8" y="-62.5" font-family="Helvetica,sans-Serif" font-size="10.00"># _checkLongClick()</text>
<text text-anchor="start" x="8" y="-51.5" font-family="Helvetica,sans-Serif" font-size="10.00"># _pressed()</text>
<text text-anchor="start" x="8" y="-40.5" font-family="Helvetica,sans-Serif" font-size="10.00"># _released()</text>
<text text-anchor="start" x="8" y="-29.5" font-family="Helvetica,sans-Serif" font-size="10.00"># _addState()</text>
<text text-anchor="start" x="8" y="-18.5" font-family="Helvetica,sans-Serif" font-size="10.00"># _readState()</text>
<text text-anchor="start" x="8" y="-7.5" font-family="Helvetica,sans-Serif" font-size="10.00"># _stateBufferFull()</text>
</a>
</g>
</g>
<!-- Node1&#45;&gt;Node7 -->
<g id="edge6" class="edge"><title>Node1&#45;&gt;Node7</title>
<path fill="none" stroke="midnightblue" d="M136.72,-315.566C133.759,-307.065 130.584,-297.947 127.298,-288.51"/>
<polygon fill="none" stroke="midnightblue" points="133.496,-316.952 140.09,-325.245 140.107,-314.65 133.496,-316.952"/>
</g>
<!-- Node8 -->
<g id="node8" class="node"><title>Node8</title>
<g id="a_node8"><a xlink:href="class_software_button.html" target="_top" xlink:title="{SoftwareButton\n||+ SoftwareButton()\l+ setStatus()\l+ getStatus()\l+ setState()\l+ getState()\l+ getStateChanged()\l+ receive()\l}">
<polygon fill="white" stroke="black" points="173.5,-83 173.5,-206 293.5,-206 293.5,-83 173.5,-83"/>
<text text-anchor="middle" x="233.5" y="-194" font-family="Helvetica,sans-Serif" font-size="10.00">SoftwareButton</text>
<polyline fill="none" stroke="black" points="173.5,-187 293.5,-187 "/>
<text text-anchor="middle" x="233.5" y="-175" font-family="Helvetica,sans-Serif" font-size="10.00"> </text>
<polyline fill="none" stroke="black" points="173.5,-168 293.5,-168 "/>
<text text-anchor="start" x="181.5" y="-156" font-family="Helvetica,sans-Serif" font-size="10.00">+ SoftwareButton()</text>
<text text-anchor="start" x="181.5" y="-145" font-family="Helvetica,sans-Serif" font-size="10.00">+ setStatus()</text>
<text text-anchor="start" x="181.5" y="-134" font-family="Helvetica,sans-Serif" font-size="10.00">+ getStatus()</text>
<text text-anchor="start" x="181.5" y="-123" font-family="Helvetica,sans-Serif" font-size="10.00">+ setState()</text>
<text text-anchor="start" x="181.5" y="-112" font-family="Helvetica,sans-Serif" font-size="10.00">+ getState()</text>
<text text-anchor="start" x="181.5" y="-101" font-family="Helvetica,sans-Serif" font-size="10.00">+ getStateChanged()</text>
<text text-anchor="start" x="181.5" y="-90" font-family="Helvetica,sans-Serif" font-size="10.00">+ receive()</text>
</a>
</g>
</g>
<!-- Node1&#45;&gt;Node8 -->
<g id="edge7" class="edge"><title>Node1&#45;&gt;Node8</title>
<path fill="none" stroke="midnightblue" d="M174.212,-315.762C185.704,-282.761 200.452,-240.407 212.364,-206.198"/>
<polygon fill="none" stroke="midnightblue" points="170.893,-314.65 170.91,-325.245 177.504,-316.952 170.893,-314.65"/>
</g>
<!-- Node2 -->
<g id="node2" class="node"><title>Node2</title>
<g id="a_node2"><a xlink:href="class_self_syncable.html" target="_top" xlink:title="{SelfSyncable\n|# _syncer\l# _syncerAttached\l|+ attach()\l+ detach()\l# _sendCommand()\l# _sendCommand()\l# _sendCommand()\l# _send()\l# _convertFloat()\l# _reconvertFloat()\l# _disassambleFloat()\l# _reassambleFloat()\l}">
<polygon fill="white" stroke="black" points="93.5,-452.5 93.5,-619.5 217.5,-619.5 217.5,-452.5 93.5,-452.5"/>
<text text-anchor="middle" x="155.5" y="-607.5" font-family="Helvetica,sans-Serif" font-size="10.00">SelfSyncable</text>
<polyline fill="none" stroke="black" points="93.5,-600.5 217.5,-600.5 "/>
<text text-anchor="start" x="101.5" y="-588.5" font-family="Helvetica,sans-Serif" font-size="10.00"># _syncer</text>
<text text-anchor="start" x="101.5" y="-577.5" font-family="Helvetica,sans-Serif" font-size="10.00"># _syncerAttached</text>
<polyline fill="none" stroke="black" points="93.5,-570.5 217.5,-570.5 "/>
<text text-anchor="start" x="101.5" y="-558.5" font-family="Helvetica,sans-Serif" font-size="10.00">+ attach()</text>
<text text-anchor="start" x="101.5" y="-547.5" font-family="Helvetica,sans-Serif" font-size="10.00">+ detach()</text>
<text text-anchor="start" x="101.5" y="-536.5" font-family="Helvetica,sans-Serif" font-size="10.00"># _sendCommand()</text>
<text text-anchor="start" x="101.5" y="-525.5" font-family="Helvetica,sans-Serif" font-size="10.00"># _sendCommand()</text>
<text text-anchor="start" x="101.5" y="-514.5" font-family="Helvetica,sans-Serif" font-size="10.00"># _sendCommand()</text>
<text text-anchor="start" x="101.5" y="-503.5" font-family="Helvetica,sans-Serif" font-size="10.00"># _send()</text>
<text text-anchor="start" x="101.5" y="-492.5" font-family="Helvetica,sans-Serif" font-size="10.00"># _convertFloat()</text>
<text text-anchor="start" x="101.5" y="-481.5" font-family="Helvetica,sans-Serif" font-size="10.00"># _reconvertFloat()</text>
<text text-anchor="start" x="101.5" y="-470.5" font-family="Helvetica,sans-Serif" font-size="10.00"># _disassambleFloat()</text>
<text text-anchor="start" x="101.5" y="-459.5" font-family="Helvetica,sans-Serif" font-size="10.00"># _reassambleFloat()</text>
</a>
</g>
</g>
<!-- Node2&#45;&gt;Node1 -->
<g id="edge1" class="edge"><title>Node2&#45;&gt;Node1</title>
<path fill="none" stroke="midnightblue" d="M155.5,-442.223C155.5,-432.991 155.5,-423.951 155.5,-415.584"/>
<polygon fill="none" stroke="midnightblue" points="152,-442.292 155.5,-452.292 159,-442.292 152,-442.292"/>
</g>
<!-- Node3 -->
<g id="node3" class="node"><title>Node3</title>
<g id="a_node3"><a xlink:href="class_i_communication.html" target="_top" xlink:title="{ICommunication\n||+ receive()\l}">
<polygon fill="white" stroke="black" points="108,-656.5 108,-713.5 203,-713.5 203,-656.5 108,-656.5"/>
<text text-anchor="middle" x="155.5" y="-701.5" font-family="Helvetica,sans-Serif" font-size="10.00">ICommunication</text>
<polyline fill="none" stroke="black" points="108,-694.5 203,-694.5 "/>
<text text-anchor="middle" x="155.5" y="-682.5" font-family="Helvetica,sans-Serif" font-size="10.00"> </text>
<polyline fill="none" stroke="black" points="108,-675.5 203,-675.5 "/>
<text text-anchor="start" x="116" y="-663.5" font-family="Helvetica,sans-Serif" font-size="10.00">+ receive()</text>
</a>
</g>
</g>
<!-- Node3&#45;&gt;Node2 -->
<g id="edge2" class="edge"><title>Node3&#45;&gt;Node2</title>
<path fill="none" stroke="midnightblue" d="M155.5,-646.35C155.5,-638.08 155.5,-629.008 155.5,-619.738"/>
<polygon fill="none" stroke="midnightblue" points="152,-646.35 155.5,-656.35 159,-646.35 152,-646.35"/>
</g>
<!-- Node4 -->
<g id="node4" class="node"><title>Node4</title>
<g id="a_node4"><a xlink:href="class_i_component.html" target="_top" xlink:title="{IComponent\n||+ IComponent()\l+ IComponent()\l+ setComponentSubId()\l+ getComponentType()\l+ getComponentSubId()\l+ getComponentId()\l+ getObjectType()\l# setComponentType()\l# setObjectType()\l}">
<polygon fill="white" stroke="black" points="88.5,-750.5 88.5,-895.5 222.5,-895.5 222.5,-750.5 88.5,-750.5"/>
<text text-anchor="middle" x="155.5" y="-883.5" font-family="Helvetica,sans-Serif" font-size="10.00">IComponent</text>
<polyline fill="none" stroke="black" points="88.5,-876.5 222.5,-876.5 "/>
<text text-anchor="middle" x="155.5" y="-864.5" font-family="Helvetica,sans-Serif" font-size="10.00"> </text>
<polyline fill="none" stroke="black" points="88.5,-857.5 222.5,-857.5 "/>
<text text-anchor="start" x="96.5" y="-845.5" font-family="Helvetica,sans-Serif" font-size="10.00">+ IComponent()</text>
<text text-anchor="start" x="96.5" y="-834.5" font-family="Helvetica,sans-Serif" font-size="10.00">+ IComponent()</text>
<text text-anchor="start" x="96.5" y="-823.5" font-family="Helvetica,sans-Serif" font-size="10.00">+ setComponentSubId()</text>
<text text-anchor="start" x="96.5" y="-812.5" font-family="Helvetica,sans-Serif" font-size="10.00">+ getComponentType()</text>
<text text-anchor="start" x="96.5" y="-801.5" font-family="Helvetica,sans-Serif" font-size="10.00">+ getComponentSubId()</text>
<text text-anchor="start" x="96.5" y="-790.5" font-family="Helvetica,sans-Serif" font-size="10.00">+ getComponentId()</text>
<text text-anchor="start" x="96.5" y="-779.5" font-family="Helvetica,sans-Serif" font-size="10.00">+ getObjectType()</text>
<text text-anchor="start" x="96.5" y="-768.5" font-family="Helvetica,sans-Serif" font-size="10.00"># setComponentType()</text>
<text text-anchor="start" x="96.5" y="-757.5" font-family="Helvetica,sans-Serif" font-size="10.00"># setObjectType()</text>
</a>
</g>
</g>
<!-- Node4&#45;&gt;Node3 -->
<g id="edge3" class="edge"><title>Node4&#45;&gt;Node3</title>
<path fill="none" stroke="midnightblue" d="M155.5,-740.387C155.5,-730.861 155.5,-721.707 155.5,-713.714"/>
<polygon fill="none" stroke="midnightblue" points="152,-740.416 155.5,-750.416 159,-740.416 152,-740.416"/>
</g>
<!-- Node5 -->
<g id="node5" class="node"><title>Node5</title>
<g id="a_node5"><a xlink:href="class_i_logable.html" target="_top" xlink:title="{ILogable\n||+ setStatus()\l+ getStatus()\l+ getLogValueCount()\l+ getLogValue()\l}">
<polygon fill="white" stroke="black" points="94,-932.5 94,-1022.5 217,-1022.5 217,-932.5 94,-932.5"/>
<text text-anchor="middle" x="155.5" y="-1010.5" font-family="Helvetica,sans-Serif" font-size="10.00">ILogable</text>
<polyline fill="none" stroke="black" points="94,-1003.5 217,-1003.5 "/>
<text text-anchor="middle" x="155.5" y="-991.5" font-family="Helvetica,sans-Serif" font-size="10.00"> </text>
<polyline fill="none" stroke="black" points="94,-984.5 217,-984.5 "/>
<text text-anchor="start" x="102" y="-972.5" font-family="Helvetica,sans-Serif" font-size="10.00">+ setStatus()</text>
<text text-anchor="start" x="102" y="-961.5" font-family="Helvetica,sans-Serif" font-size="10.00">+ getStatus()</text>
<text text-anchor="start" x="102" y="-950.5" font-family="Helvetica,sans-Serif" font-size="10.00">+ getLogValueCount()</text>
<text text-anchor="start" x="102" y="-939.5" font-family="Helvetica,sans-Serif" font-size="10.00">+ getLogValue()</text>
</a>
</g>
</g>
<!-- Node5&#45;&gt;Node4 -->
<g id="edge4" class="edge"><title>Node5&#45;&gt;Node4</title>
<path fill="none" stroke="midnightblue" d="M155.5,-922.13C155.5,-913.526 155.5,-904.516 155.5,-895.591"/>
<polygon fill="none" stroke="midnightblue" points="152,-922.391 155.5,-932.391 159,-922.391 152,-922.391"/>
</g>
<!-- Node6 -->
<g id="node6" class="node"><title>Node6</title>
<g id="a_node6"><a xlink:href="class_non_copyable.html" target="_top" xlink:title="{NonCopyable\&lt; ILogable \&gt;\n||+ NonCopyable()\l}">
<polygon fill="white" stroke="black" points="84,-1059.5 84,-1116.5 227,-1116.5 227,-1059.5 84,-1059.5"/>
<text text-anchor="middle" x="155.5" y="-1104.5" font-family="Helvetica,sans-Serif" font-size="10.00">NonCopyable&lt; ILogable &gt;</text>
<polyline fill="none" stroke="black" points="84,-1097.5 227,-1097.5 "/>
<text text-anchor="middle" x="155.5" y="-1085.5" font-family="Helvetica,sans-Serif" font-size="10.00"> </text>
<polyline fill="none" stroke="black" points="84,-1078.5 227,-1078.5 "/>
<text text-anchor="start" x="92" y="-1066.5" font-family="Helvetica,sans-Serif" font-size="10.00">+ NonCopyable()</text>
</a>
</g>
</g>
<!-- Node6&#45;&gt;Node5 -->
<g id="edge5" class="edge"><title>Node6&#45;&gt;Node5</title>
<path fill="none" stroke="#8b1a1a" d="M155.5,-1049.21C155.5,-1040.61 155.5,-1031.39 155.5,-1022.55"/>
<polygon fill="none" stroke="#8b1a1a" points="152,-1049.34 155.5,-1059.34 159,-1049.34 152,-1049.34"/>
</g>
</g>
</svg>
