<?xml version="1.0" encoding="UTF-8" standalone="no"?>
<!DOCTYPE svg PUBLIC "-//W3C//DTD SVG 1.1//EN"
 "http://www.w3.org/Graphics/SVG/1.1/DTD/svg11.dtd">
<!-- Generated by graphviz version 2.38.0 (20140413.2041)
 -->
<!-- Title: IRunable Pages: 1 -->
<!--zoomable 1191 -->
<svg id="main" version="1.1" xmlns="http://www.w3.org/2000/svg" xmlns:xlink="http://www.w3.org/1999/xlink" xml:space="preserve" onload="init(evt)">
<style type="text/css"><![CDATA[
.edge:hover path { stroke: red; }
.edge:hover polygon { stroke: red; fill: red; }
]]></style>
<script type="text/javascript"><![CDATA[
var edges = document.getElementsByTagName('g');
if (edges && edges.length) {
  for (var i=0;i<edges.length;i++) {
    if (edges[i].id.substr(0,4)=='edge') {
      edges[i].setAttribute('class','edge');
    }
  }
}
]]></script>
        <defs>
                <circle id="rim" cx="0" cy="0" r="7"/>
                <circle id="rim2" cx="0" cy="0" r="3.5"/>
                <g id="zoomPlus">
                        <use xlink:href="#rim" fill="#404040">
                                <set attributeName="fill" to="#808080" begin="zoomplus.mouseover" end="zoomplus.mouseout"/>
                        </use>
                        <path d="M-4,0h8M0,-4v8" fill="none" stroke="white" stroke-width="1.5" pointer-events="none"/>
                </g>
                <g id="zoomMin">
                        <use xlink:href="#rim" fill="#404040">
                                <set attributeName="fill" to="#808080" begin="zoomminus.mouseover" end="zoomminus.mouseout"/>
                        </use>
                        <path d="M-4,0h8" fill="none" stroke="white" stroke-width="1.5" pointer-events="none"/>
                </g>
                <g id="dirArrow">
                        <path fill="none" stroke="white" stroke-width="1.5" d="M0,-3.0v7 M-2.5,-0.5L0,-3.0L2.5,-0.5"/>
                </g>
               <g id="resetDef">
                       <use xlink:href="#rim2" fill="#404040">
                               <set attributeName="fill" to="#808080" begin="reset.mouseover" end="reset.mouseout"/>
                       </use>
               </g>
        </defs>

<script type="text/javascript">
var viewWidth = 1729;
var viewHeight = 1191;
var sectionId = 'dynsection-0';
</script>
<script xlink:href="svgpan.js"/>
<svg id="graph" class="graph">
<g id="viewport">
<title>IRunable</title>
<polygon fill="white" stroke="none" points="-4,4 -4,-1187 1725,-1187 1725,4 -4,4"/>
<!-- Node1 -->
<g id="node1" class="node"><title>Node1</title>
<polygon fill="#bfbfbf" stroke="black" points="1362,-689.5 1362,-779.5 1445,-779.5 1445,-689.5 1362,-689.5"/>
<text text-anchor="middle" x="1403.5" y="-767.5" font-family="Helvetica,sans-Serif" font-size="10.00">IRunable</text>
<polyline fill="none" stroke="black" points="1362,-760.5 1445,-760.5 "/>
<text text-anchor="middle" x="1403.5" y="-748.5" font-family="Helvetica,sans-Serif" font-size="10.00"> </text>
<polyline fill="none" stroke="black" points="1362,-741.5 1445,-741.5 "/>
<text text-anchor="start" x="1370" y="-729.5" font-family="Helvetica,sans-Serif" font-size="10.00">+ IRunable()</text>
<text text-anchor="start" x="1370" y="-718.5" font-family="Helvetica,sans-Serif" font-size="10.00">+ run()</text>
<text text-anchor="start" x="1370" y="-707.5" font-family="Helvetica,sans-Serif" font-size="10.00">+ setStatus()</text>
<text text-anchor="start" x="1370" y="-696.5" font-family="Helvetica,sans-Serif" font-size="10.00">+ getStatus()</text>
</g>
<!-- Node5 -->
<g id="node5" class="node"><title>Node5</title>
<g id="a_node5"><a xlink:href="class_i_channel.html" target="_top" xlink:title="{IChannel\n||+ send()\l+ messageInQueue()\l}">
<polygon fill="white" stroke="black" points="289,-535 289,-603 408,-603 408,-535 289,-535"/>
<text text-anchor="middle" x="348.5" y="-591" font-family="Helvetica,sans-Serif" font-size="10.00">IChannel</text>
<polyline fill="none" stroke="black" points="289,-584 408,-584 "/>
<text text-anchor="middle" x="348.5" y="-572" font-family="Helvetica,sans-Serif" font-size="10.00"> </text>
<polyline fill="none" stroke="black" points="289,-565 408,-565 "/>
<text text-anchor="start" x="297" y="-553" font-family="Helvetica,sans-Serif" font-size="10.00">+ send()</text>
<text text-anchor="start" x="297" y="-542" font-family="Helvetica,sans-Serif" font-size="10.00">+ messageInQueue()</text>
</a>
</g>
</g>
<!-- Node1&#45;&gt;Node5 -->
<g id="edge4" class="edge"><title>Node1&#45;&gt;Node5</title>
<path fill="none" stroke="midnightblue" d="M1351.74,-725.479C1175.06,-698.098 596.311,-608.405 408.17,-579.247"/>
<polygon fill="none" stroke="midnightblue" points="1351.4,-728.967 1361.82,-727.04 1352.47,-722.05 1351.4,-728.967"/>
</g>
<!-- Node10 -->
<g id="node10" class="node"><title>Node10</title>
<g id="a_node10"><a xlink:href="class_i_program.html" target="_top" xlink:title="{IProgram\n||}">
<polygon fill="white" stroke="black" points="930.5,-540.5 930.5,-597.5 990.5,-597.5 990.5,-540.5 930.5,-540.5"/>
<text text-anchor="middle" x="960.5" y="-585.5" font-family="Helvetica,sans-Serif" font-size="10.00">IProgram</text>
<polyline fill="none" stroke="black" points="930.5,-578.5 990.5,-578.5 "/>
<text text-anchor="middle" x="960.5" y="-566.5" font-family="Helvetica,sans-Serif" font-size="10.00"> </text>
<polyline fill="none" stroke="black" points="930.5,-559.5 990.5,-559.5 "/>
<text text-anchor="middle" x="960.5" y="-547.5" font-family="Helvetica,sans-Serif" font-size="10.00"> </text>
</a>
</g>
</g>
<!-- Node1&#45;&gt;Node10 -->
<g id="edge9" class="edge"><title>Node1&#45;&gt;Node10</title>
<path fill="none" stroke="midnightblue" d="M1352.34,-714.617C1259.3,-680.28 1065.15,-608.625 990.573,-581.099"/>
<polygon fill="none" stroke="midnightblue" points="1351.23,-717.939 1361.82,-718.118 1353.65,-711.372 1351.23,-717.939"/>
</g>
<!-- Node16 -->
<g id="node16" class="node"><title>Node16</title>
<g id="a_node16"><a xlink:href="class_i_service.html" target="_top" xlink:title="{IService\n||}">
<polygon fill="white" stroke="black" points="1285.5,-540.5 1285.5,-597.5 1339.5,-597.5 1339.5,-540.5 1285.5,-540.5"/>
<text text-anchor="middle" x="1312.5" y="-585.5" font-family="Helvetica,sans-Serif" font-size="10.00">IService</text>
<polyline fill="none" stroke="black" points="1285.5,-578.5 1339.5,-578.5 "/>
<text text-anchor="middle" x="1312.5" y="-566.5" font-family="Helvetica,sans-Serif" font-size="10.00"> </text>
<polyline fill="none" stroke="black" points="1285.5,-559.5 1339.5,-559.5 "/>
<text text-anchor="middle" x="1312.5" y="-547.5" font-family="Helvetica,sans-Serif" font-size="10.00"> </text>
</a>
</g>
</g>
<!-- Node1&#45;&gt;Node16 -->
<g id="edge15" class="edge"><title>Node1&#45;&gt;Node16</title>
<path fill="none" stroke="midnightblue" d="M1365.39,-680.769C1359.44,-671.69 1353.58,-662.209 1348.5,-653 1338.63,-635.123 1329.5,-613.999 1322.91,-597.536"/>
<polygon fill="none" stroke="midnightblue" points="1362.64,-682.956 1371.11,-689.328 1368.47,-679.068 1362.64,-682.956"/>
</g>
<!-- Node20 -->
<g id="node20" class="node"><title>Node20</title>
<g id="a_node20"><a xlink:href="class_runable_list.html" target="_top" xlink:title="{RunableList\n|# _runables\l|+ run()\l+ addRunable()\l+ finalize()\l}">
<polygon fill="white" stroke="black" points="1358,-529.5 1358,-608.5 1449,-608.5 1449,-529.5 1358,-529.5"/>
<text text-anchor="middle" x="1403.5" y="-596.5" font-family="Helvetica,sans-Serif" font-size="10.00">RunableList</text>
<polyline fill="none" stroke="black" points="1358,-589.5 1449,-589.5 "/>
<text text-anchor="start" x="1366" y="-577.5" font-family="Helvetica,sans-Serif" font-size="10.00"># _runables</text>
<polyline fill="none" stroke="black" points="1358,-570.5 1449,-570.5 "/>
<text text-anchor="start" x="1366" y="-558.5" font-family="Helvetica,sans-Serif" font-size="10.00">+ run()</text>
<text text-anchor="start" x="1366" y="-547.5" font-family="Helvetica,sans-Serif" font-size="10.00">+ addRunable()</text>
<text text-anchor="start" x="1366" y="-536.5" font-family="Helvetica,sans-Serif" font-size="10.00">+ finalize()</text>
</a>
</g>
</g>
<!-- Node1&#45;&gt;Node20 -->
<g id="edge19" class="edge"><title>Node1&#45;&gt;Node20</title>
<path fill="none" stroke="midnightblue" d="M1403.5,-679.253C1403.5,-656.17 1403.5,-629.776 1403.5,-608.713"/>
<polygon fill="none" stroke="midnightblue" points="1400,-679.255 1403.5,-689.255 1407,-679.255 1400,-679.255"/>
</g>
<!-- Node21 -->
<g id="node21" class="node"><title>Node21</title>
<g id="a_node21"><a xlink:href="class_runable_scheduler.html" target="_top" xlink:title="{RunableScheduler\n||+ run()\l+ addRunable()\l+ finalize()\l}">
<polygon fill="white" stroke="black" points="1467.5,-529.5 1467.5,-608.5 1569.5,-608.5 1569.5,-529.5 1467.5,-529.5"/>
<text text-anchor="middle" x="1518.5" y="-596.5" font-family="Helvetica,sans-Serif" font-size="10.00">RunableScheduler</text>
<polyline fill="none" stroke="black" points="1467.5,-589.5 1569.5,-589.5 "/>
<text text-anchor="middle" x="1518.5" y="-577.5" font-family="Helvetica,sans-Serif" font-size="10.00"> </text>
<polyline fill="none" stroke="black" points="1467.5,-570.5 1569.5,-570.5 "/>
<text text-anchor="start" x="1475.5" y="-558.5" font-family="Helvetica,sans-Serif" font-size="10.00">+ run()</text>
<text text-anchor="start" x="1475.5" y="-547.5" font-family="Helvetica,sans-Serif" font-size="10.00">+ addRunable()</text>
<text text-anchor="start" x="1475.5" y="-536.5" font-family="Helvetica,sans-Serif" font-size="10.00">+ finalize()</text>
</a>
</g>
</g>
<!-- Node1&#45;&gt;Node21 -->
<g id="edge20" class="edge"><title>Node1&#45;&gt;Node21</title>
<path fill="none" stroke="midnightblue" d="M1440.57,-680.8C1457.06,-657.356 1476.12,-630.248 1491.27,-608.713"/>
<polygon fill="none" stroke="midnightblue" points="1437.51,-679.062 1434.62,-689.255 1443.24,-683.089 1437.51,-679.062"/>
</g>
<!-- Node22 -->
<g id="node22" class="node"><title>Node22</title>
<g id="a_node22"><a xlink:href="class_sync.html" target="_top" xlink:title="{Sync\n|+ receivedCarMessages\l|+ Sync()\l+ addComponent()\l+ addBridge()\l+ receive()\l+ send()\l+ run()\l+ messageInQueue()\l+ finalize()\l+ Sync()\l+ receive()\land 7 more...\l}">
<polygon fill="white" stroke="black" points="1588,-485.5 1588,-652.5 1721,-652.5 1721,-485.5 1588,-485.5"/>
<text text-anchor="middle" x="1654.5" y="-640.5" font-family="Helvetica,sans-Serif" font-size="10.00">Sync</text>
<polyline fill="none" stroke="black" points="1588,-633.5 1721,-633.5 "/>
<text text-anchor="start" x="1596" y="-621.5" font-family="Helvetica,sans-Serif" font-size="10.00">+ receivedCarMessages</text>
<polyline fill="none" stroke="black" points="1588,-614.5 1721,-614.5 "/>
<text text-anchor="start" x="1596" y="-602.5" font-family="Helvetica,sans-Serif" font-size="10.00">+ Sync()</text>
<text text-anchor="start" x="1596" y="-591.5" font-family="Helvetica,sans-Serif" font-size="10.00">+ addComponent()</text>
<text text-anchor="start" x="1596" y="-580.5" font-family="Helvetica,sans-Serif" font-size="10.00">+ addBridge()</text>
<text text-anchor="start" x="1596" y="-569.5" font-family="Helvetica,sans-Serif" font-size="10.00">+ receive()</text>
<text text-anchor="start" x="1596" y="-558.5" font-family="Helvetica,sans-Serif" font-size="10.00">+ send()</text>
<text text-anchor="start" x="1596" y="-547.5" font-family="Helvetica,sans-Serif" font-size="10.00">+ run()</text>
<text text-anchor="start" x="1596" y="-536.5" font-family="Helvetica,sans-Serif" font-size="10.00">+ messageInQueue()</text>
<text text-anchor="start" x="1596" y="-525.5" font-family="Helvetica,sans-Serif" font-size="10.00">+ finalize()</text>
<text text-anchor="start" x="1596" y="-514.5" font-family="Helvetica,sans-Serif" font-size="10.00">+ Sync()</text>
<text text-anchor="start" x="1596" y="-503.5" font-family="Helvetica,sans-Serif" font-size="10.00">+ receive()</text>
<text text-anchor="start" x="1596" y="-492.5" font-family="Helvetica,sans-Serif" font-size="10.00">and 7 more...</text>
</a>
</g>
</g>
<!-- Node1&#45;&gt;Node22 -->
<g id="edge21" class="edge"><title>Node1&#45;&gt;Node22</title>
<path fill="none" stroke="midnightblue" d="M1454.68,-713.186C1489,-699.346 1534.06,-678.853 1569.5,-653 1575.66,-648.509 1581.7,-643.46 1587.56,-638.128"/>
<polygon fill="none" stroke="midnightblue" points="1453.31,-709.966 1445.31,-716.911 1455.89,-716.471 1453.31,-709.966"/>
</g>
<!-- Node1&#45;&gt;Node22 -->
<g id="edge23" class="edge"><title>Node1&#45;&gt;Node22</title>
<path fill="none" stroke="midnightblue" d="M1454.8,-718.803C1493.67,-705.2 1546.9,-682.617 1587.5,-653 1587.66,-652.885 1587.82,-652.769 1587.97,-652.653"/>
<polygon fill="none" stroke="midnightblue" points="1453.58,-715.523 1445.25,-722.067 1455.84,-722.147 1453.58,-715.523"/>
</g>
<!-- Node2 -->
<g id="node2" class="node"><title>Node2</title>
<g id="a_node2"><a xlink:href="class_i_component.html" target="_top" xlink:title="{IComponent\n||+ IComponent()\l+ IComponent()\l+ setComponentSubId()\l+ getComponentType()\l+ getComponentSubId()\l+ getComponentId()\l+ getObjectType()\l# setComponentType()\l# setObjectType()\l}">
<polygon fill="white" stroke="black" points="1336.5,-816.5 1336.5,-961.5 1470.5,-961.5 1470.5,-816.5 1336.5,-816.5"/>
<text text-anchor="middle" x="1403.5" y="-949.5" font-family="Helvetica,sans-Serif" font-size="10.00">IComponent</text>
<polyline fill="none" stroke="black" points="1336.5,-942.5 1470.5,-942.5 "/>
<text text-anchor="middle" x="1403.5" y="-930.5" font-family="Helvetica,sans-Serif" font-size="10.00"> </text>
<polyline fill="none" stroke="black" points="1336.5,-923.5 1470.5,-923.5 "/>
<text text-anchor="start" x="1344.5" y="-911.5" font-family="Helvetica,sans-Serif" font-size="10.00">+ IComponent()</text>
<text text-anchor="start" x="1344.5" y="-900.5" font-family="Helvetica,sans-Serif" font-size="10.00">+ IComponent()</text>
<text text-anchor="start" x="1344.5" y="-889.5" font-family="Helvetica,sans-Serif" font-size="10.00">+ setComponentSubId()</text>
<text text-anchor="start" x="1344.5" y="-878.5" font-family="Helvetica,sans-Serif" font-size="10.00">+ getComponentType()</text>
<text text-anchor="start" x="1344.5" y="-867.5" font-family="Helvetica,sans-Serif" font-size="10.00">+ getComponentSubId()</text>
<text text-anchor="start" x="1344.5" y="-856.5" font-family="Helvetica,sans-Serif" font-size="10.00">+ getComponentId()</text>
<text text-anchor="start" x="1344.5" y="-845.5" font-family="Helvetica,sans-Serif" font-size="10.00">+ getObjectType()</text>
<text text-anchor="start" x="1344.5" y="-834.5" font-family="Helvetica,sans-Serif" font-size="10.00"># setComponentType()</text>
<text text-anchor="start" x="1344.5" y="-823.5" font-family="Helvetica,sans-Serif" font-size="10.00"># setObjectType()</text>
</a>
</g>
</g>
<!-- Node2&#45;&gt;Node1 -->
<g id="edge1" class="edge"><title>Node2&#45;&gt;Node1</title>
<path fill="none" stroke="midnightblue" d="M1403.5,-805.941C1403.5,-796.857 1403.5,-787.885 1403.5,-779.542"/>
<polygon fill="none" stroke="midnightblue" points="1400,-806.215 1403.5,-816.216 1407,-806.216 1400,-806.215"/>
</g>
<!-- Node3 -->
<g id="node3" class="node"><title>Node3</title>
<g id="a_node3"><a xlink:href="class_i_logable.html" target="_top" xlink:title="{ILogable\n||+ setStatus()\l+ getStatus()\l+ getLogValueCount()\l+ getLogValue()\l}">
<polygon fill="white" stroke="black" points="1342,-998.5 1342,-1088.5 1465,-1088.5 1465,-998.5 1342,-998.5"/>
<text text-anchor="middle" x="1403.5" y="-1076.5" font-family="Helvetica,sans-Serif" font-size="10.00">ILogable</text>
<polyline fill="none" stroke="black" points="1342,-1069.5 1465,-1069.5 "/>
<text text-anchor="middle" x="1403.5" y="-1057.5" font-family="Helvetica,sans-Serif" font-size="10.00"> </text>
<polyline fill="none" stroke="black" points="1342,-1050.5 1465,-1050.5 "/>
<text text-anchor="start" x="1350" y="-1038.5" font-family="Helvetica,sans-Serif" font-size="10.00">+ setStatus()</text>
<text text-anchor="start" x="1350" y="-1027.5" font-family="Helvetica,sans-Serif" font-size="10.00">+ getStatus()</text>
<text text-anchor="start" x="1350" y="-1016.5" font-family="Helvetica,sans-Serif" font-size="10.00">+ getLogValueCount()</text>
<text text-anchor="start" x="1350" y="-1005.5" font-family="Helvetica,sans-Serif" font-size="10.00">+ getLogValue()</text>
</a>
</g>
</g>
<!-- Node3&#45;&gt;Node2 -->
<g id="edge2" class="edge"><title>Node3&#45;&gt;Node2</title>
<path fill="none" stroke="midnightblue" d="M1403.5,-988.13C1403.5,-979.526 1403.5,-970.516 1403.5,-961.591"/>
<polygon fill="none" stroke="midnightblue" points="1400,-988.391 1403.5,-998.391 1407,-988.391 1400,-988.391"/>
</g>
<!-- Node4 -->
<g id="node4" class="node"><title>Node4</title>
<g id="a_node4"><a xlink:href="class_non_copyable.html" target="_top" xlink:title="{NonCopyable\&lt; ILogable \&gt;\n||+ NonCopyable()\l}">
<polygon fill="white" stroke="black" points="1332,-1125.5 1332,-1182.5 1475,-1182.5 1475,-1125.5 1332,-1125.5"/>
<text text-anchor="middle" x="1403.5" y="-1170.5" font-family="Helvetica,sans-Serif" font-size="10.00">NonCopyable&lt; ILogable &gt;</text>
<polyline fill="none" stroke="black" points="1332,-1163.5 1475,-1163.5 "/>
<text text-anchor="middle" x="1403.5" y="-1151.5" font-family="Helvetica,sans-Serif" font-size="10.00"> </text>
<polyline fill="none" stroke="black" points="1332,-1144.5 1475,-1144.5 "/>
<text text-anchor="start" x="1340" y="-1132.5" font-family="Helvetica,sans-Serif" font-size="10.00">+ NonCopyable()</text>
</a>
</g>
</g>
<!-- Node4&#45;&gt;Node3 -->
<g id="edge3" class="edge"><title>Node4&#45;&gt;Node3</title>
<path fill="none" stroke="#8b1a1a" d="M1403.5,-1115.21C1403.5,-1106.61 1403.5,-1097.39 1403.5,-1088.55"/>
<polygon fill="none" stroke="#8b1a1a" points="1400,-1115.34 1403.5,-1125.34 1407,-1115.34 1400,-1115.34"/>
</g>
<!-- Node6 -->
<g id="node6" class="node"><title>Node6</title>
<g id="a_node6"><a xlink:href="class_c_can.html" target="_top" xlink:title="{CCan\n||+ CCan()\l+ CCan()\l+ send()\l+ messageInQueue()\l+ run()\l}">
<polygon fill="white" stroke="black" points="0,-226.5 0,-327.5 119,-327.5 119,-226.5 0,-226.5"/>
<text text-anchor="middle" x="59.5" y="-315.5" font-family="Helvetica,sans-Serif" font-size="10.00">CCan</text>
<polyline fill="none" stroke="black" points="0,-308.5 119,-308.5 "/>
<text text-anchor="middle" x="59.5" y="-296.5" font-family="Helvetica,sans-Serif" font-size="10.00"> </text>
<polyline fill="none" stroke="black" points="0,-289.5 119,-289.5 "/>
<text text-anchor="start" x="8" y="-277.5" font-family="Helvetica,sans-Serif" font-size="10.00">+ CCan()</text>
<text text-anchor="start" x="8" y="-266.5" font-family="Helvetica,sans-Serif" font-size="10.00">+ CCan()</text>
<text text-anchor="start" x="8" y="-255.5" font-family="Helvetica,sans-Serif" font-size="10.00">+ send()</text>
<text text-anchor="start" x="8" y="-244.5" font-family="Helvetica,sans-Serif" font-size="10.00">+ messageInQueue()</text>
<text text-anchor="start" x="8" y="-233.5" font-family="Helvetica,sans-Serif" font-size="10.00">+ run()</text>
</a>
</g>
</g>
<!-- Node5&#45;&gt;Node6 -->
<g id="edge5" class="edge"><title>Node5&#45;&gt;Node6</title>
<path fill="none" stroke="midnightblue" d="M279.132,-545.158C230.925,-526.154 168.259,-494.759 127.5,-449 96.8998,-414.646 79.2092,-364.835 69.587,-327.826"/>
<polygon fill="none" stroke="midnightblue" points="277.98,-548.465 288.57,-548.794 280.497,-541.933 277.98,-548.465"/>
</g>
<!-- Node7 -->
<g id="node7" class="node"><title>Node7</title>
<g id="a_node7"><a xlink:href="class_test_channel.html" target="_top" xlink:title="{TestChannel\n|+ _syncer\l+ _messageInQueue\l|+ TestChannel()\l+ send()\l+ messageInQueue()\l+ giveToSyncer()\l+ run()\l}">
<polygon fill="white" stroke="black" points="137,-221 137,-333 256,-333 256,-221 137,-221"/>
<text text-anchor="middle" x="196.5" y="-321" font-family="Helvetica,sans-Serif" font-size="10.00">TestChannel</text>
<polyline fill="none" stroke="black" points="137,-314 256,-314 "/>
<text text-anchor="start" x="145" y="-302" font-family="Helvetica,sans-Serif" font-size="10.00">+ _syncer</text>
<text text-anchor="start" x="145" y="-291" font-family="Helvetica,sans-Serif" font-size="10.00">+ _messageInQueue</text>
<polyline fill="none" stroke="black" points="137,-284 256,-284 "/>
<text text-anchor="start" x="145" y="-272" font-family="Helvetica,sans-Serif" font-size="10.00">+ TestChannel()</text>
<text text-anchor="start" x="145" y="-261" font-family="Helvetica,sans-Serif" font-size="10.00">+ send()</text>
<text text-anchor="start" x="145" y="-250" font-family="Helvetica,sans-Serif" font-size="10.00">+ messageInQueue()</text>
<text text-anchor="start" x="145" y="-239" font-family="Helvetica,sans-Serif" font-size="10.00">+ giveToSyncer()</text>
<text text-anchor="start" x="145" y="-228" font-family="Helvetica,sans-Serif" font-size="10.00">+ run()</text>
</a>
</g>
</g>
<!-- Node5&#45;&gt;Node7 -->
<g id="edge6" class="edge"><title>Node5&#45;&gt;Node7</title>
<path fill="none" stroke="midnightblue" d="M316.26,-526.732C299.786,-504.486 280.176,-476.104 265.5,-449 245.379,-411.84 227.663,-367.538 215.221,-333.338"/>
<polygon fill="none" stroke="midnightblue" points="313.61,-529.032 322.403,-534.941 319.214,-524.838 313.61,-529.032"/>
</g>
<!-- Node8 -->
<g id="node8" class="node"><title>Node8</title>
<g id="a_node8"><a xlink:href="class_test_destination_channel.html" target="_top" xlink:title="{TestDestinationChannel\n|+ _sync\l+ _receivedMessages\l|+ TestDestinationChannel()\l+ send()\l+ run()\l+ messageInQueue()\l+ setStatus()\l+ getStatus()\l}">
<polygon fill="white" stroke="black" points="274.5,-215.5 274.5,-338.5 422.5,-338.5 422.5,-215.5 274.5,-215.5"/>
<text text-anchor="middle" x="348.5" y="-326.5" font-family="Helvetica,sans-Serif" font-size="10.00">TestDestinationChannel</text>
<polyline fill="none" stroke="black" points="274.5,-319.5 422.5,-319.5 "/>
<text text-anchor="start" x="282.5" y="-307.5" font-family="Helvetica,sans-Serif" font-size="10.00">+ _sync</text>
<text text-anchor="start" x="282.5" y="-296.5" font-family="Helvetica,sans-Serif" font-size="10.00">+ _receivedMessages</text>
<polyline fill="none" stroke="black" points="274.5,-289.5 422.5,-289.5 "/>
<text text-anchor="start" x="282.5" y="-277.5" font-family="Helvetica,sans-Serif" font-size="10.00">+ TestDestinationChannel()</text>
<text text-anchor="start" x="282.5" y="-266.5" font-family="Helvetica,sans-Serif" font-size="10.00">+ send()</text>
<text text-anchor="start" x="282.5" y="-255.5" font-family="Helvetica,sans-Serif" font-size="10.00">+ run()</text>
<text text-anchor="start" x="282.5" y="-244.5" font-family="Helvetica,sans-Serif" font-size="10.00">+ messageInQueue()</text>
<text text-anchor="start" x="282.5" y="-233.5" font-family="Helvetica,sans-Serif" font-size="10.00">+ setStatus()</text>
<text text-anchor="start" x="282.5" y="-222.5" font-family="Helvetica,sans-Serif" font-size="10.00">+ getStatus()</text>
</a>
</g>
</g>
<!-- Node5&#45;&gt;Node8 -->
<g id="edge7" class="edge"><title>Node5&#45;&gt;Node8</title>
<path fill="none" stroke="midnightblue" d="M348.5,-524.697C348.5,-475.313 348.5,-394.23 348.5,-338.589"/>
<polygon fill="none" stroke="midnightblue" points="345,-524.733 348.5,-534.733 352,-524.733 345,-524.733"/>
</g>
<!-- Node9 -->
<g id="node9" class="node"><title>Node9</title>
<g id="a_node9"><a xlink:href="class_test_source_channel.html" target="_top" xlink:title="{TestSourceChannel\n|+ _sync\l|+ TestSourceChannel()\l+ synteticSend()\l+ send()\l+ run()\l+ messageInQueue()\l+ setStatus()\l+ getStatus()\l}">
<polygon fill="white" stroke="black" points="441,-215.5 441,-338.5 568,-338.5 568,-215.5 441,-215.5"/>
<text text-anchor="middle" x="504.5" y="-326.5" font-family="Helvetica,sans-Serif" font-size="10.00">TestSourceChannel</text>
<polyline fill="none" stroke="black" points="441,-319.5 568,-319.5 "/>
<text text-anchor="start" x="449" y="-307.5" font-family="Helvetica,sans-Serif" font-size="10.00">+ _sync</text>
<polyline fill="none" stroke="black" points="441,-300.5 568,-300.5 "/>
<text text-anchor="start" x="449" y="-288.5" font-family="Helvetica,sans-Serif" font-size="10.00">+ TestSourceChannel()</text>
<text text-anchor="start" x="449" y="-277.5" font-family="Helvetica,sans-Serif" font-size="10.00">+ synteticSend()</text>
<text text-anchor="start" x="449" y="-266.5" font-family="Helvetica,sans-Serif" font-size="10.00">+ send()</text>
<text text-anchor="start" x="449" y="-255.5" font-family="Helvetica,sans-Serif" font-size="10.00">+ run()</text>
<text text-anchor="start" x="449" y="-244.5" font-family="Helvetica,sans-Serif" font-size="10.00">+ messageInQueue()</text>
<text text-anchor="start" x="449" y="-233.5" font-family="Helvetica,sans-Serif" font-size="10.00">+ setStatus()</text>
<text text-anchor="start" x="449" y="-222.5" font-family="Helvetica,sans-Serif" font-size="10.00">+ getStatus()</text>
</a>
</g>
</g>
<!-- Node5&#45;&gt;Node9 -->
<g id="edge8" class="edge"><title>Node5&#45;&gt;Node9</title>
<path fill="none" stroke="midnightblue" d="M380.52,-526.611C396.932,-504.332 416.554,-475.956 431.5,-449 451.066,-413.712 468.929,-372.115 482.087,-338.784"/>
<polygon fill="none" stroke="midnightblue" points="377.562,-524.722 374.403,-534.835 383.179,-528.9 377.562,-524.722"/>
</g>
<!-- Node11 -->
<g id="node11" class="node"><title>Node11</title>
<g id="a_node11"><a xlink:href="class_p_brake_light.html" target="_top" xlink:title="{PBrakeLight\n|# _registry\l# _brakePedal\l# _brakeLight\l|+ PBrakeLight()\l+ run()\l}">
<polygon fill="white" stroke="black" points="586.5,-232 586.5,-322 678.5,-322 678.5,-232 586.5,-232"/>
<text text-anchor="middle" x="632.5" y="-310" font-family="Helvetica,sans-Serif" font-size="10.00">PBrakeLight</text>
<polyline fill="none" stroke="black" points="586.5,-303 678.5,-303 "/>
<text text-anchor="start" x="594.5" y="-291" font-family="Helvetica,sans-Serif" font-size="10.00"># _registry</text>
<text text-anchor="start" x="594.5" y="-280" font-family="Helvetica,sans-Serif" font-size="10.00"># _brakePedal</text>
<text text-anchor="start" x="594.5" y="-269" font-family="Helvetica,sans-Serif" font-size="10.00"># _brakeLight</text>
<polyline fill="none" stroke="black" points="586.5,-262 678.5,-262 "/>
<text text-anchor="start" x="594.5" y="-250" font-family="Helvetica,sans-Serif" font-size="10.00">+ PBrakeLight()</text>
<text text-anchor="start" x="594.5" y="-239" font-family="Helvetica,sans-Serif" font-size="10.00">+ run()</text>
</a>
</g>
</g>
<!-- Node10&#45;&gt;Node11 -->
<g id="edge10" class="edge"><title>Node10&#45;&gt;Node11</title>
<path fill="none" stroke="midnightblue" d="M920.224,-561.236C860.913,-549.19 750.33,-518.441 687.5,-449 655.697,-413.851 642.27,-360.157 636.61,-322.332"/>
<polygon fill="none" stroke="midnightblue" points="919.847,-564.729 930.332,-563.208 921.187,-557.858 919.847,-564.729"/>
</g>
<!-- Node12 -->
<g id="node12" class="node"><title>Node12</title>
<g id="a_node12"><a xlink:href="class_p_cockpit_indicator.html" target="_top" xlink:title="{PCockpitIndicator\n|# _hvEnabled\l# _ciLed\l# greenActive\l|+ PCockpitIndicator()\l+ run()\l}">
<polygon fill="white" stroke="black" points="696.5,-232 696.5,-322 814.5,-322 814.5,-232 696.5,-232"/>
<text text-anchor="middle" x="755.5" y="-310" font-family="Helvetica,sans-Serif" font-size="10.00">PCockpitIndicator</text>
<polyline fill="none" stroke="black" points="696.5,-303 814.5,-303 "/>
<text text-anchor="start" x="704.5" y="-291" font-family="Helvetica,sans-Serif" font-size="10.00"># _hvEnabled</text>
<text text-anchor="start" x="704.5" y="-280" font-family="Helvetica,sans-Serif" font-size="10.00"># _ciLed</text>
<text text-anchor="start" x="704.5" y="-269" font-family="Helvetica,sans-Serif" font-size="10.00"># greenActive</text>
<polyline fill="none" stroke="black" points="696.5,-262 814.5,-262 "/>
<text text-anchor="start" x="704.5" y="-250" font-family="Helvetica,sans-Serif" font-size="10.00">+ PCockpitIndicator()</text>
<text text-anchor="start" x="704.5" y="-239" font-family="Helvetica,sans-Serif" font-size="10.00">+ run()</text>
</a>
</g>
</g>
<!-- Node10&#45;&gt;Node12 -->
<g id="edge11" class="edge"><title>Node10&#45;&gt;Node12</title>
<path fill="none" stroke="midnightblue" d="M922.097,-542.469C891.84,-520.686 850.41,-486.931 823.5,-449 795.955,-410.175 777.439,-358.617 766.772,-322.3"/>
<polygon fill="none" stroke="midnightblue" points="920.129,-545.365 930.313,-548.289 924.176,-539.653 920.129,-545.365"/>
</g>
<!-- Node13 -->
<g id="node13" class="node"><title>Node13</title>
<g id="a_node13"><a xlink:href="class_p_cooling.html" target="_top" xlink:title="{PCooling\n|# _registry\l# _carService\l# _speedService\l# _fan\l# _pump\l# _motorController\l# _hvEnabled\l|+ PCooling()\l+ run()\l}">
<polygon fill="white" stroke="black" points="833,-210 833,-344 942,-344 942,-210 833,-210"/>
<text text-anchor="middle" x="887.5" y="-332" font-family="Helvetica,sans-Serif" font-size="10.00">PCooling</text>
<polyline fill="none" stroke="black" points="833,-325 942,-325 "/>
<text text-anchor="start" x="841" y="-313" font-family="Helvetica,sans-Serif" font-size="10.00"># _registry</text>
<text text-anchor="start" x="841" y="-302" font-family="Helvetica,sans-Serif" font-size="10.00"># _carService</text>
<text text-anchor="start" x="841" y="-291" font-family="Helvetica,sans-Serif" font-size="10.00"># _speedService</text>
<text text-anchor="start" x="841" y="-280" font-family="Helvetica,sans-Serif" font-size="10.00"># _fan</text>
<text text-anchor="start" x="841" y="-269" font-family="Helvetica,sans-Serif" font-size="10.00"># _pump</text>
<text text-anchor="start" x="841" y="-258" font-family="Helvetica,sans-Serif" font-size="10.00"># _motorController</text>
<text text-anchor="start" x="841" y="-247" font-family="Helvetica,sans-Serif" font-size="10.00"># _hvEnabled</text>
<polyline fill="none" stroke="black" points="833,-240 942,-240 "/>
<text text-anchor="start" x="841" y="-228" font-family="Helvetica,sans-Serif" font-size="10.00">+ PCooling()</text>
<text text-anchor="start" x="841" y="-217" font-family="Helvetica,sans-Serif" font-size="10.00">+ run()</text>
</a>
</g>
</g>
<!-- Node10&#45;&gt;Node13 -->
<g id="edge12" class="edge"><title>Node10&#45;&gt;Node13</title>
<path fill="none" stroke="midnightblue" d="M951.104,-530.672C939.247,-483.572 918.652,-401.754 904.114,-344.002"/>
<polygon fill="none" stroke="midnightblue" points="947.731,-531.613 953.567,-540.456 954.519,-529.904 947.731,-531.613"/>
</g>
<!-- Node14 -->
<g id="node14" class="node"><title>Node14</title>
<g id="a_node14"><a xlink:href="class_p_logger.html" target="_top" xlink:title="{PLogger\n|# _sdCard\l# _carService\l# begun\l# _loggingValues\l# _loggingComponents\l|+ PLogger()\l+ begin()\l+ run()\l+ addLogableValue()\l+ addLogableComponent()\l+ finalize()\l}">
<polygon fill="white" stroke="black" points="960,-199 960,-355 1107,-355 1107,-199 960,-199"/>
<text text-anchor="middle" x="1033.5" y="-343" font-family="Helvetica,sans-Serif" font-size="10.00">PLogger</text>
<polyline fill="none" stroke="black" points="960,-336 1107,-336 "/>
<text text-anchor="start" x="968" y="-324" font-family="Helvetica,sans-Serif" font-size="10.00"># _sdCard</text>
<text text-anchor="start" x="968" y="-313" font-family="Helvetica,sans-Serif" font-size="10.00"># _carService</text>
<text text-anchor="start" x="968" y="-302" font-family="Helvetica,sans-Serif" font-size="10.00"># begun</text>
<text text-anchor="start" x="968" y="-291" font-family="Helvetica,sans-Serif" font-size="10.00"># _loggingValues</text>
<text text-anchor="start" x="968" y="-280" font-family="Helvetica,sans-Serif" font-size="10.00"># _loggingComponents</text>
<polyline fill="none" stroke="black" points="960,-273 1107,-273 "/>
<text text-anchor="start" x="968" y="-261" font-family="Helvetica,sans-Serif" font-size="10.00">+ PLogger()</text>
<text text-anchor="start" x="968" y="-250" font-family="Helvetica,sans-Serif" font-size="10.00">+ begin()</text>
<text text-anchor="start" x="968" y="-239" font-family="Helvetica,sans-Serif" font-size="10.00">+ run()</text>
<text text-anchor="start" x="968" y="-228" font-family="Helvetica,sans-Serif" font-size="10.00">+ addLogableValue()</text>
<text text-anchor="start" x="968" y="-217" font-family="Helvetica,sans-Serif" font-size="10.00">+ addLogableComponent()</text>
<text text-anchor="start" x="968" y="-206" font-family="Helvetica,sans-Serif" font-size="10.00">+ finalize()</text>
</a>
</g>
</g>
<!-- Node10&#45;&gt;Node14 -->
<g id="edge13" class="edge"><title>Node10&#45;&gt;Node14</title>
<path fill="none" stroke="midnightblue" d="M969.884,-530.72C980.995,-486.581 999.793,-411.905 1014.08,-355.142"/>
<polygon fill="none" stroke="midnightblue" points="966.481,-529.904 967.433,-540.456 973.269,-531.613 966.481,-529.904"/>
</g>
<!-- Node15 -->
<g id="node15" class="node"><title>Node15</title>
<g id="a_node15"><a xlink:href="class_p_motor_controller.html" target="_top" xlink:title="{PMotorController\n|# _registry\l# _carService\l# _motorController\l# _ready\l# _communicationStarted\l# _gasPedal\l# _brakePedal\l# _gasPedalPrimed\l# _hardBrakeingSince\l# _hardBrakeingStarted\land 6 more...\l|+ PMotorController()\l+ PMotorController()\l+ run()\l+ unprimeGas()\l# _checkErrors()\l# _pedalError()\l# _asrError()\l# _getAge()\l# _getAge()\l# _updateValues()\l# _update()\l# _update()\l# _getPedalPower()\l# _mapToPowerLimit()\l# _ASR()\l# _applyGasCurve()\l# _applyMaxPower()\l}">
<polygon fill="white" stroke="black" points="1125,-105.5 1125,-448.5 1268,-448.5 1268,-105.5 1125,-105.5"/>
<text text-anchor="middle" x="1196.5" y="-436.5" font-family="Helvetica,sans-Serif" font-size="10.00">PMotorController</text>
<polyline fill="none" stroke="black" points="1125,-429.5 1268,-429.5 "/>
<text text-anchor="start" x="1133" y="-417.5" font-family="Helvetica,sans-Serif" font-size="10.00"># _registry</text>
<text text-anchor="start" x="1133" y="-406.5" font-family="Helvetica,sans-Serif" font-size="10.00"># _carService</text>
<text text-anchor="start" x="1133" y="-395.5" font-family="Helvetica,sans-Serif" font-size="10.00"># _motorController</text>
<text text-anchor="start" x="1133" y="-384.5" font-family="Helvetica,sans-Serif" font-size="10.00"># _ready</text>
<text text-anchor="start" x="1133" y="-373.5" font-family="Helvetica,sans-Serif" font-size="10.00"># _communicationStarted</text>
<text text-anchor="start" x="1133" y="-362.5" font-family="Helvetica,sans-Serif" font-size="10.00"># _gasPedal</text>
<text text-anchor="start" x="1133" y="-351.5" font-family="Helvetica,sans-Serif" font-size="10.00"># _brakePedal</text>
<text text-anchor="start" x="1133" y="-340.5" font-family="Helvetica,sans-Serif" font-size="10.00"># _gasPedalPrimed</text>
<text text-anchor="start" x="1133" y="-329.5" font-family="Helvetica,sans-Serif" font-size="10.00"># _hardBrakeingSince</text>
<text text-anchor="start" x="1133" y="-318.5" font-family="Helvetica,sans-Serif" font-size="10.00"># _hardBrakeingStarted</text>
<text text-anchor="start" x="1133" y="-307.5" font-family="Helvetica,sans-Serif" font-size="10.00">and 6 more...</text>
<polyline fill="none" stroke="black" points="1125,-300.5 1268,-300.5 "/>
<text text-anchor="start" x="1133" y="-288.5" font-family="Helvetica,sans-Serif" font-size="10.00">+ PMotorController()</text>
<text text-anchor="start" x="1133" y="-277.5" font-family="Helvetica,sans-Serif" font-size="10.00">+ PMotorController()</text>
<text text-anchor="start" x="1133" y="-266.5" font-family="Helvetica,sans-Serif" font-size="10.00">+ run()</text>
<text text-anchor="start" x="1133" y="-255.5" font-family="Helvetica,sans-Serif" font-size="10.00">+ unprimeGas()</text>
<text text-anchor="start" x="1133" y="-244.5" font-family="Helvetica,sans-Serif" font-size="10.00"># _checkErrors()</text>
<text text-anchor="start" x="1133" y="-233.5" font-family="Helvetica,sans-Serif" font-size="10.00"># _pedalError()</text>
<text text-anchor="start" x="1133" y="-222.5" font-family="Helvetica,sans-Serif" font-size="10.00"># _asrError()</text>
<text text-anchor="start" x="1133" y="-211.5" font-family="Helvetica,sans-Serif" font-size="10.00"># _getAge()</text>
<text text-anchor="start" x="1133" y="-200.5" font-family="Helvetica,sans-Serif" font-size="10.00"># _getAge()</text>
<text text-anchor="start" x="1133" y="-189.5" font-family="Helvetica,sans-Serif" font-size="10.00"># _updateValues()</text>
<text text-anchor="start" x="1133" y="-178.5" font-family="Helvetica,sans-Serif" font-size="10.00"># _update()</text>
<text text-anchor="start" x="1133" y="-167.5" font-family="Helvetica,sans-Serif" font-size="10.00"># _update()</text>
<text text-anchor="start" x="1133" y="-156.5" font-family="Helvetica,sans-Serif" font-size="10.00"># _getPedalPower()</text>
<text text-anchor="start" x="1133" y="-145.5" font-family="Helvetica,sans-Serif" font-size="10.00"># _mapToPowerLimit()</text>
<text text-anchor="start" x="1133" y="-134.5" font-family="Helvetica,sans-Serif" font-size="10.00"># _ASR()</text>
<text text-anchor="start" x="1133" y="-123.5" font-family="Helvetica,sans-Serif" font-size="10.00"># _applyGasCurve()</text>
<text text-anchor="start" x="1133" y="-112.5" font-family="Helvetica,sans-Serif" font-size="10.00"># _applyMaxPower()</text>
</a>
</g>
</g>
<!-- Node10&#45;&gt;Node15 -->
<g id="edge14" class="edge"><title>Node10&#45;&gt;Node15</title>
<path fill="none" stroke="midnightblue" d="M999.547,-545.449C1033.7,-524.141 1082.83,-489.466 1115.5,-449 1118.7,-445.038 1121.81,-440.929 1124.82,-436.706"/>
<polygon fill="none" stroke="midnightblue" points="997.463,-542.622 990.771,-550.836 1001.12,-548.588 997.463,-542.622"/>
</g>
<!-- Node17 -->
<g id="node17" class="node"><title>Node17</title>
<g id="a_node17"><a xlink:href="class_s_car.html" target="_top" xlink:title="{SCar\n||+ SCar()\l+ run()\l+ addError()\l+ processErrors()\l+ getState()\l+ setState()\l+ calibrationNeeded()\l+ startUp()\l+ getMaxPower()\l+ setMaxPower()\l}">
<polygon fill="white" stroke="black" points="1286.5,-199 1286.5,-355 1408.5,-355 1408.5,-199 1286.5,-199"/>
<text text-anchor="middle" x="1347.5" y="-343" font-family="Helvetica,sans-Serif" font-size="10.00">SCar</text>
<polyline fill="none" stroke="black" points="1286.5,-336 1408.5,-336 "/>
<text text-anchor="middle" x="1347.5" y="-324" font-family="Helvetica,sans-Serif" font-size="10.00"> </text>
<polyline fill="none" stroke="black" points="1286.5,-317 1408.5,-317 "/>
<text text-anchor="start" x="1294.5" y="-305" font-family="Helvetica,sans-Serif" font-size="10.00">+ SCar()</text>
<text text-anchor="start" x="1294.5" y="-294" font-family="Helvetica,sans-Serif" font-size="10.00">+ run()</text>
<text text-anchor="start" x="1294.5" y="-283" font-family="Helvetica,sans-Serif" font-size="10.00">+ addError()</text>
<text text-anchor="start" x="1294.5" y="-272" font-family="Helvetica,sans-Serif" font-size="10.00">+ processErrors()</text>
<text text-anchor="start" x="1294.5" y="-261" font-family="Helvetica,sans-Serif" font-size="10.00">+ getState()</text>
<text text-anchor="start" x="1294.5" y="-250" font-family="Helvetica,sans-Serif" font-size="10.00">+ setState()</text>
<text text-anchor="start" x="1294.5" y="-239" font-family="Helvetica,sans-Serif" font-size="10.00">+ calibrationNeeded()</text>
<text text-anchor="start" x="1294.5" y="-228" font-family="Helvetica,sans-Serif" font-size="10.00">+ startUp()</text>
<text text-anchor="start" x="1294.5" y="-217" font-family="Helvetica,sans-Serif" font-size="10.00">+ getMaxPower()</text>
<text text-anchor="start" x="1294.5" y="-206" font-family="Helvetica,sans-Serif" font-size="10.00">+ setMaxPower()</text>
</a>
</g>
</g>
<!-- Node16&#45;&gt;Node17 -->
<g id="edge16" class="edge"><title>Node16&#45;&gt;Node17</title>
<path fill="none" stroke="midnightblue" d="M1317.03,-530.441C1322.36,-486.267 1331.35,-411.785 1338.19,-355.142"/>
<polygon fill="none" stroke="midnightblue" points="1313.55,-530.109 1315.82,-540.456 1320.5,-530.948 1313.55,-530.109"/>
</g>
<!-- Node19 -->
<g id="node19" class="node"><title>Node19</title>
<g id="a_node19"><a xlink:href="class_s_speed.html" target="_top" xlink:title="{SSpeed\n|# _registry\l# _carService\l# _motorController\l# _speed\l|+ SSpeed()\l+ run()\l+ getSpeed()\l# _getSpeed()\l# _getSpeed()\l# _getSpeed()\l# _checkPlausibility()\l# _setThrottle()\l# _map()\l}">
<polygon fill="white" stroke="black" points="1426.5,-188 1426.5,-366 1544.5,-366 1544.5,-188 1426.5,-188"/>
<text text-anchor="middle" x="1485.5" y="-354" font-family="Helvetica,sans-Serif" font-size="10.00">SSpeed</text>
<polyline fill="none" stroke="black" points="1426.5,-347 1544.5,-347 "/>
<text text-anchor="start" x="1434.5" y="-335" font-family="Helvetica,sans-Serif" font-size="10.00"># _registry</text>
<text text-anchor="start" x="1434.5" y="-324" font-family="Helvetica,sans-Serif" font-size="10.00"># _carService</text>
<text text-anchor="start" x="1434.5" y="-313" font-family="Helvetica,sans-Serif" font-size="10.00"># _motorController</text>
<text text-anchor="start" x="1434.5" y="-302" font-family="Helvetica,sans-Serif" font-size="10.00"># _speed</text>
<polyline fill="none" stroke="black" points="1426.5,-295 1544.5,-295 "/>
<text text-anchor="start" x="1434.5" y="-283" font-family="Helvetica,sans-Serif" font-size="10.00">+ SSpeed()</text>
<text text-anchor="start" x="1434.5" y="-272" font-family="Helvetica,sans-Serif" font-size="10.00">+ run()</text>
<text text-anchor="start" x="1434.5" y="-261" font-family="Helvetica,sans-Serif" font-size="10.00">+ getSpeed()</text>
<text text-anchor="start" x="1434.5" y="-250" font-family="Helvetica,sans-Serif" font-size="10.00"># _getSpeed()</text>
<text text-anchor="start" x="1434.5" y="-239" font-family="Helvetica,sans-Serif" font-size="10.00"># _getSpeed()</text>
<text text-anchor="start" x="1434.5" y="-228" font-family="Helvetica,sans-Serif" font-size="10.00"># _getSpeed()</text>
<text text-anchor="start" x="1434.5" y="-217" font-family="Helvetica,sans-Serif" font-size="10.00"># _checkPlausibility()</text>
<text text-anchor="start" x="1434.5" y="-206" font-family="Helvetica,sans-Serif" font-size="10.00"># _setThrottle()</text>
<text text-anchor="start" x="1434.5" y="-195" font-family="Helvetica,sans-Serif" font-size="10.00"># _map()</text>
</a>
</g>
</g>
<!-- Node16&#45;&gt;Node19 -->
<g id="edge18" class="edge"><title>Node16&#45;&gt;Node19</title>
<path fill="none" stroke="midnightblue" d="M1322.67,-530.455C1328.31,-514.981 1336.65,-497.732 1348.5,-485 1372.07,-459.681 1394.33,-474.678 1417.5,-449 1438.58,-425.638 1453.51,-394.938 1463.9,-366.006"/>
<polygon fill="none" stroke="midnightblue" points="1319.23,-529.709 1319.34,-540.303 1325.86,-531.951 1319.23,-529.709"/>
</g>
<!-- Node18 -->
<g id="node18" class="node"><title>Node18</title>
<g id="a_node18"><a xlink:href="class_dummy_s_car.html" target="_top" xlink:title="{DummySCar\n||+ DummySCar()\l+ setState()\l}">
<polygon fill="white" stroke="black" points="1299,-0.5 1299,-68.5 1396,-68.5 1396,-0.5 1299,-0.5"/>
<text text-anchor="middle" x="1347.5" y="-56.5" font-family="Helvetica,sans-Serif" font-size="10.00">DummySCar</text>
<polyline fill="none" stroke="black" points="1299,-49.5 1396,-49.5 "/>
<text text-anchor="middle" x="1347.5" y="-37.5" font-family="Helvetica,sans-Serif" font-size="10.00"> </text>
<polyline fill="none" stroke="black" points="1299,-30.5 1396,-30.5 "/>
<text text-anchor="start" x="1307" y="-18.5" font-family="Helvetica,sans-Serif" font-size="10.00">+ DummySCar()</text>
<text text-anchor="start" x="1307" y="-7.5" font-family="Helvetica,sans-Serif" font-size="10.00">+ setState()</text>
</a>
</g>
</g>
<!-- Node17&#45;&gt;Node18 -->
<g id="edge17" class="edge"><title>Node17&#45;&gt;Node18</title>
<path fill="none" stroke="midnightblue" d="M1347.5,-188.723C1347.5,-147.009 1347.5,-99.557 1347.5,-68.6565"/>
<polygon fill="none" stroke="midnightblue" points="1344,-188.912 1347.5,-198.912 1351,-188.912 1344,-188.912"/>
</g>
<!-- Node23 -->
<g id="node23" class="node"><title>Node23</title>
<g id="a_node23"><a xlink:href="class_syntetic_sync.html" target="_top" xlink:title="{SynteticSync\n|# component1\l# component2\l# _messageBuffer\l|+ SynteticSync()\l+ addComponent1()\l+ addComponent2()\l+ send()\l+ run()\l}">
<polygon fill="white" stroke="black" points="1596.5,-215.5 1596.5,-338.5 1712.5,-338.5 1712.5,-215.5 1596.5,-215.5"/>
<text text-anchor="middle" x="1654.5" y="-326.5" font-family="Helvetica,sans-Serif" font-size="10.00">SynteticSync</text>
<polyline fill="none" stroke="black" points="1596.5,-319.5 1712.5,-319.5 "/>
<text text-anchor="start" x="1604.5" y="-307.5" font-family="Helvetica,sans-Serif" font-size="10.00"># component1</text>
<text text-anchor="start" x="1604.5" y="-296.5" font-family="Helvetica,sans-Serif" font-size="10.00"># component2</text>
<text text-anchor="start" x="1604.5" y="-285.5" font-family="Helvetica,sans-Serif" font-size="10.00"># _messageBuffer</text>
<polyline fill="none" stroke="black" points="1596.5,-278.5 1712.5,-278.5 "/>
<text text-anchor="start" x="1604.5" y="-266.5" font-family="Helvetica,sans-Serif" font-size="10.00">+ SynteticSync()</text>
<text text-anchor="start" x="1604.5" y="-255.5" font-family="Helvetica,sans-Serif" font-size="10.00">+ addComponent1()</text>
<text text-anchor="start" x="1604.5" y="-244.5" font-family="Helvetica,sans-Serif" font-size="10.00">+ addComponent2()</text>
<text text-anchor="start" x="1604.5" y="-233.5" font-family="Helvetica,sans-Serif" font-size="10.00">+ send()</text>
<text text-anchor="start" x="1604.5" y="-222.5" font-family="Helvetica,sans-Serif" font-size="10.00">+ run()</text>
</a>
</g>
</g>
<!-- Node22&#45;&gt;Node23 -->
<g id="edge22" class="edge"><title>Node22&#45;&gt;Node23</title>
<path fill="none" stroke="midnightblue" d="M1654.5,-475.284C1654.5,-430.585 1654.5,-378.232 1654.5,-338.693"/>
<polygon fill="none" stroke="midnightblue" points="1651,-475.286 1654.5,-485.286 1658,-475.286 1651,-475.286"/>
</g>
</g>
</svg>
        <g id="navigator" transform="translate(0 0)" fill="#404254">
                <rect fill="#f2f5e9" fill-opacity="0.5" stroke="#606060" stroke-width=".5" x="0" y="0" width="60" height="60"/>
                <use id="zoomplus" xlink:href="#zoomPlus" x="17" y="9" onmousedown="handleZoom(evt,'in')"/>
                <use id="zoomminus" xlink:href="#zoomMin" x="42" y="9" onmousedown="handleZoom(evt,'out')"/>
                <use id="reset" xlink:href="#resetDef" x="30" y="36" onmousedown="handleReset()"/>
                <g id="arrowUp" xlink:href="#dirArrow" transform="translate(30 24)" onmousedown="handlePan(0,-1)">
                  <use xlink:href="#rim" fill="#404040">
                        <set attributeName="fill" to="#808080" begin="arrowUp.mouseover" end="arrowUp.mouseout"/>
                  </use>
                  <path fill="none" stroke="white" stroke-width="1.5" d="M0,-3.0v7 M-2.5,-0.5L0,-3.0L2.5,-0.5"/>
                </g>
                <g id="arrowRight" xlink:href="#dirArrow" transform="rotate(90) translate(36 -43)" onmousedown="handlePan(1,0)">
                  <use xlink:href="#rim" fill="#404040">
                        <set attributeName="fill" to="#808080" begin="arrowRight.mouseover" end="arrowRight.mouseout"/>
                  </use>
                  <path fill="none" stroke="white" stroke-width="1.5" d="M0,-3.0v7 M-2.5,-0.5L0,-3.0L2.5,-0.5"/>
                </g>
                <g id="arrowDown" xlink:href="#dirArrow" transform="rotate(180) translate(-30 -48)" onmousedown="handlePan(0,1)">
                  <use xlink:href="#rim" fill="#404040">
                        <set attributeName="fill" to="#808080" begin="arrowDown.mouseover" end="arrowDown.mouseout"/>
                  </use>
                  <path fill="none" stroke="white" stroke-width="1.5" d="M0,-3.0v7 M-2.5,-0.5L0,-3.0L2.5,-0.5"/>
                </g>
                <g id="arrowLeft" xlink:href="#dirArrow" transform="rotate(270) translate(-36 17)" onmousedown="handlePan(-1,0)">
                  <use xlink:href="#rim" fill="#404040">
                        <set attributeName="fill" to="#808080" begin="arrowLeft.mouseover" end="arrowLeft.mouseout"/>
                  </use>
                  <path fill="none" stroke="white" stroke-width="1.5" d="M0,-3.0v7 M-2.5,-0.5L0,-3.0L2.5,-0.5"/>
                </g>
        </g>
        <svg viewBox="0 0 15 15" width="100%" height="30px" preserveAspectRatio="xMaxYMin meet">
         <g id="arrow_out" transform="scale(0.3 0.3)">
          <a xlink:href="class_i_runable__inherit__graph_org.svg" target="_base">
           <rect id="button" ry="5" rx="5" y="6" x="6" height="38" width="38"
                fill="#f2f5e9" fill-opacity="0.5" stroke="#606060" stroke-width="1.0"/>
           <path id="arrow"
             d="M 11.500037,31.436501 C 11.940474,20.09759 22.043105,11.32322 32.158766,21.979434 L 37.068811,17.246167 C 37.068811,17.246167 37.088388,32 37.088388,32 L 22.160133,31.978069 C 22.160133,31.978069 26.997745,27.140456 26.997745,27.140456 C 18.528582,18.264221 13.291696,25.230495 11.500037,31.436501 z"
             style="fill:#404040;"/>
          </a>
         </g>
        </svg>
</svg>
