<?xml version="1.0" encoding="UTF-8" standalone="no"?>
<!DOCTYPE svg PUBLIC "-//W3C//DTD SVG 1.1//EN"
 "http://www.w3.org/Graphics/SVG/1.1/DTD/svg11.dtd">
<!-- Generated by graphviz version 2.38.0 (20140413.2041)
 -->
<!-- Title: SCar Pages: 1 -->
<svg width="151pt" height="894pt"
 viewBox="0.00 0.00 151.00 894.00" xmlns="http://www.w3.org/2000/svg" xmlns:xlink="http://www.w3.org/1999/xlink">
<g id="graph0" class="graph" transform="scale(1 1) rotate(0) translate(4 890)">
<title>SCar</title>
<polygon fill="white" stroke="none" points="-4,4 -4,-890 147,-890 147,4 -4,4"/>
<!-- Node1 -->
<g id="node1" class="node"><title>Node1</title>
<polygon fill="#bfbfbf" stroke="black" points="10.5,-105.5 10.5,-261.5 132.5,-261.5 132.5,-105.5 10.5,-105.5"/>
<text text-anchor="middle" x="71.5" y="-249.5" font-family="Helvetica,sans-Serif" font-size="10.00">SCar</text>
<polyline fill="none" stroke="black" points="10.5,-242.5 132.5,-242.5 "/>
<text text-anchor="middle" x="71.5" y="-230.5" font-family="Helvetica,sans-Serif" font-size="10.00"> </text>
<polyline fill="none" stroke="black" points="10.5,-223.5 132.5,-223.5 "/>
<text text-anchor="start" x="18.5" y="-211.5" font-family="Helvetica,sans-Serif" font-size="10.00">+ SCar()</text>
<text text-anchor="start" x="18.5" y="-200.5" font-family="Helvetica,sans-Serif" font-size="10.00">+ run()</text>
<text text-anchor="start" x="18.5" y="-189.5" font-family="Helvetica,sans-Serif" font-size="10.00">+ addError()</text>
<text text-anchor="start" x="18.5" y="-178.5" font-family="Helvetica,sans-Serif" font-size="10.00">+ processErrors()</text>
<text text-anchor="start" x="18.5" y="-167.5" font-family="Helvetica,sans-Serif" font-size="10.00">+ getState()</text>
<text text-anchor="start" x="18.5" y="-156.5" font-family="Helvetica,sans-Serif" font-size="10.00">+ setState()</text>
<text text-anchor="start" x="18.5" y="-145.5" font-family="Helvetica,sans-Serif" font-size="10.00">+ calibrationNeeded()</text>
<text text-anchor="start" x="18.5" y="-134.5" font-family="Helvetica,sans-Serif" font-size="10.00">+ startUp()</text>
<text text-anchor="start" x="18.5" y="-123.5" font-family="Helvetica,sans-Serif" font-size="10.00">+ getMaxPower()</text>
<text text-anchor="start" x="18.5" y="-112.5" font-family="Helvetica,sans-Serif" font-size="10.00">+ setMaxPower()</text>
</g>
<!-- Node7 -->
<g id="node7" class="node"><title>Node7</title>
<g id="a_node7"><a xlink:href="class_dummy_s_car.html" target="_top" xlink:title="{DummySCar\n||+ DummySCar()\l+ setState()\l}">
<polygon fill="white" stroke="black" points="23,-0.5 23,-68.5 120,-68.5 120,-0.5 23,-0.5"/>
<text text-anchor="middle" x="71.5" y="-56.5" font-family="Helvetica,sans-Serif" font-size="10.00">DummySCar</text>
<polyline fill="none" stroke="black" points="23,-49.5 120,-49.5 "/>
<text text-anchor="middle" x="71.5" y="-37.5" font-family="Helvetica,sans-Serif" font-size="10.00"> </text>
<polyline fill="none" stroke="black" points="23,-30.5 120,-30.5 "/>
<text text-anchor="start" x="31" y="-18.5" font-family="Helvetica,sans-Serif" font-size="10.00">+ DummySCar()</text>
<text text-anchor="start" x="31" y="-7.5" font-family="Helvetica,sans-Serif" font-size="10.00">+ setState()</text>
</a>
</g>
</g>
<!-- Node1&#45;&gt;Node7 -->
<g id="edge6" class="edge"><title>Node1&#45;&gt;Node7</title>
<path fill="none" stroke="midnightblue" d="M71.5,-94.9368C71.5,-85.6328 71.5,-76.6411 71.5,-68.5884"/>
<polygon fill="none" stroke="midnightblue" points="68.0001,-95.1256 71.5,-105.126 75.0001,-95.1257 68.0001,-95.1256"/>
</g>
<!-- Node2 -->
<g id="node2" class="node"><title>Node2</title>
<g id="a_node2"><a xlink:href="class_i_service.html" target="_top" xlink:title="{IService\n||}">
<polygon fill="white" stroke="black" points="44.5,-298.5 44.5,-355.5 98.5,-355.5 98.5,-298.5 44.5,-298.5"/>
<text text-anchor="middle" x="71.5" y="-343.5" font-family="Helvetica,sans-Serif" font-size="10.00">IService</text>
<polyline fill="none" stroke="black" points="44.5,-336.5 98.5,-336.5 "/>
<text text-anchor="middle" x="71.5" y="-324.5" font-family="Helvetica,sans-Serif" font-size="10.00"> </text>
<polyline fill="none" stroke="black" points="44.5,-317.5 98.5,-317.5 "/>
<text text-anchor="middle" x="71.5" y="-305.5" font-family="Helvetica,sans-Serif" font-size="10.00"> </text>
</a>
</g>
</g>
<!-- Node2&#45;&gt;Node1 -->
<g id="edge1" class="edge"><title>Node2&#45;&gt;Node1</title>
<path fill="none" stroke="midnightblue" d="M71.5,-288.34C71.5,-280.044 71.5,-270.964 71.5,-261.736"/>
<polygon fill="none" stroke="midnightblue" points="68.0001,-288.381 71.5,-298.381 75.0001,-288.382 68.0001,-288.381"/>
</g>
<!-- Node3 -->
<g id="node3" class="node"><title>Node3</title>
<g id="a_node3"><a xlink:href="class_i_runable.html" target="_top" xlink:title="{IRunable\n||+ IRunable()\l+ run()\l+ setStatus()\l+ getStatus()\l}">
<polygon fill="white" stroke="black" points="30,-392.5 30,-482.5 113,-482.5 113,-392.5 30,-392.5"/>
<text text-anchor="middle" x="71.5" y="-470.5" font-family="Helvetica,sans-Serif" font-size="10.00">IRunable</text>
<polyline fill="none" stroke="black" points="30,-463.5 113,-463.5 "/>
<text text-anchor="middle" x="71.5" y="-451.5" font-family="Helvetica,sans-Serif" font-size="10.00"> </text>
<polyline fill="none" stroke="black" points="30,-444.5 113,-444.5 "/>
<text text-anchor="start" x="38" y="-432.5" font-family="Helvetica,sans-Serif" font-size="10.00">+ IRunable()</text>
<text text-anchor="start" x="38" y="-421.5" font-family="Helvetica,sans-Serif" font-size="10.00">+ run()</text>
<text text-anchor="start" x="38" y="-410.5" font-family="Helvetica,sans-Serif" font-size="10.00">+ setStatus()</text>
<text text-anchor="start" x="38" y="-399.5" font-family="Helvetica,sans-Serif" font-size="10.00">+ getStatus()</text>
</a>
</g>
</g>
<!-- Node3&#45;&gt;Node2 -->
<g id="edge2" class="edge"><title>Node3&#45;&gt;Node2</title>
<path fill="none" stroke="midnightblue" d="M71.5,-382.353C71.5,-373.074 71.5,-363.791 71.5,-355.59"/>
<polygon fill="none" stroke="midnightblue" points="68.0001,-382.369 71.5,-392.369 75.0001,-382.369 68.0001,-382.369"/>
</g>
<!-- Node4 -->
<g id="node4" class="node"><title>Node4</title>
<g id="a_node4"><a xlink:href="class_i_component.html" target="_top" xlink:title="{IComponent\n||+ IComponent()\l+ IComponent()\l+ setComponentSubId()\l+ getComponentType()\l+ getComponentSubId()\l+ getComponentId()\l+ getObjectType()\l# setComponentType()\l# setObjectType()\l}">
<polygon fill="white" stroke="black" points="4.5,-519.5 4.5,-664.5 138.5,-664.5 138.5,-519.5 4.5,-519.5"/>
<text text-anchor="middle" x="71.5" y="-652.5" font-family="Helvetica,sans-Serif" font-size="10.00">IComponent</text>
<polyline fill="none" stroke="black" points="4.5,-645.5 138.5,-645.5 "/>
<text text-anchor="middle" x="71.5" y="-633.5" font-family="Helvetica,sans-Serif" font-size="10.00"> </text>
<polyline fill="none" stroke="black" points="4.5,-626.5 138.5,-626.5 "/>
<text text-anchor="start" x="12.5" y="-614.5" font-family="Helvetica,sans-Serif" font-size="10.00">+ IComponent()</text>
<text text-anchor="start" x="12.5" y="-603.5" font-family="Helvetica,sans-Serif" font-size="10.00">+ IComponent()</text>
<text text-anchor="start" x="12.5" y="-592.5" font-family="Helvetica,sans-Serif" font-size="10.00">+ setComponentSubId()</text>
<text text-anchor="start" x="12.5" y="-581.5" font-family="Helvetica,sans-Serif" font-size="10.00">+ getComponentType()</text>
<text text-anchor="start" x="12.5" y="-570.5" font-family="Helvetica,sans-Serif" font-size="10.00">+ getComponentSubId()</text>
<text text-anchor="start" x="12.5" y="-559.5" font-family="Helvetica,sans-Serif" font-size="10.00">+ getComponentId()</text>
<text text-anchor="start" x="12.5" y="-548.5" font-family="Helvetica,sans-Serif" font-size="10.00">+ getObjectType()</text>
<text text-anchor="start" x="12.5" y="-537.5" font-family="Helvetica,sans-Serif" font-size="10.00"># setComponentType()</text>
<text text-anchor="start" x="12.5" y="-526.5" font-family="Helvetica,sans-Serif" font-size="10.00"># setObjectType()</text>
</a>
</g>
</g>
<!-- Node4&#45;&gt;Node3 -->
<g id="edge3" class="edge"><title>Node4&#45;&gt;Node3</title>
<path fill="none" stroke="midnightblue" d="M71.5,-508.941C71.5,-499.857 71.5,-490.885 71.5,-482.542"/>
<polygon fill="none" stroke="midnightblue" points="68.0001,-509.215 71.5,-519.216 75.0001,-509.216 68.0001,-509.215"/>
</g>
<!-- Node5 -->
<g id="node5" class="node"><title>Node5</title>
<g id="a_node5"><a xlink:href="class_i_logable.html" target="_top" xlink:title="{ILogable\n||+ setStatus()\l+ getStatus()\l+ getLogValueCount()\l+ getLogValue()\l}">
<polygon fill="white" stroke="black" points="10,-701.5 10,-791.5 133,-791.5 133,-701.5 10,-701.5"/>
<text text-anchor="middle" x="71.5" y="-779.5" font-family="Helvetica,sans-Serif" font-size="10.00">ILogable</text>
<polyline fill="none" stroke="black" points="10,-772.5 133,-772.5 "/>
<text text-anchor="middle" x="71.5" y="-760.5" font-family="Helvetica,sans-Serif" font-size="10.00"> </text>
<polyline fill="none" stroke="black" points="10,-753.5 133,-753.5 "/>
<text text-anchor="start" x="18" y="-741.5" font-family="Helvetica,sans-Serif" font-size="10.00">+ setStatus()</text>
<text text-anchor="start" x="18" y="-730.5" font-family="Helvetica,sans-Serif" font-size="10.00">+ getStatus()</text>
<text text-anchor="start" x="18" y="-719.5" font-family="Helvetica,sans-Serif" font-size="10.00">+ getLogValueCount()</text>
<text text-anchor="start" x="18" y="-708.5" font-family="Helvetica,sans-Serif" font-size="10.00">+ getLogValue()</text>
</a>
</g>
</g>
<!-- Node5&#45;&gt;Node4 -->
<g id="edge4" class="edge"><title>Node5&#45;&gt;Node4</title>
<path fill="none" stroke="midnightblue" d="M71.5,-691.13C71.5,-682.526 71.5,-673.516 71.5,-664.591"/>
<polygon fill="none" stroke="midnightblue" points="68.0001,-691.391 71.5,-701.391 75.0001,-691.391 68.0001,-691.391"/>
</g>
<!-- Node6 -->
<g id="node6" class="node"><title>Node6</title>
<g id="a_node6"><a xlink:href="class_non_copyable.html" target="_top" xlink:title="{NonCopyable\&lt; ILogable \&gt;\n||+ NonCopyable()\l}">
<polygon fill="white" stroke="black" points="0,-828.5 0,-885.5 143,-885.5 143,-828.5 0,-828.5"/>
<text text-anchor="middle" x="71.5" y="-873.5" font-family="Helvetica,sans-Serif" font-size="10.00">NonCopyable&lt; ILogable &gt;</text>
<polyline fill="none" stroke="black" points="0,-866.5 143,-866.5 "/>
<text text-anchor="middle" x="71.5" y="-854.5" font-family="Helvetica,sans-Serif" font-size="10.00"> </text>
<polyline fill="none" stroke="black" points="0,-847.5 143,-847.5 "/>
<text text-anchor="start" x="8" y="-835.5" font-family="Helvetica,sans-Serif" font-size="10.00">+ NonCopyable()</text>
</a>
</g>
</g>
<!-- Node6&#45;&gt;Node5 -->
<g id="edge5" class="edge"><title>Node6&#45;&gt;Node5</title>
<path fill="none" stroke="#8b1a1a" d="M71.5,-818.214C71.5,-809.609 71.5,-800.394 71.5,-791.554"/>
<polygon fill="none" stroke="#8b1a1a" points="68.0001,-818.34 71.5,-828.34 75.0001,-818.34 68.0001,-818.34"/>
</g>
</g>
</svg>
