<?xml version="1.0" encoding="UTF-8" standalone="no"?>
<!DOCTYPE svg PUBLIC "-//W3C//DTD SVG 1.1//EN"
 "http://www.w3.org/Graphics/SVG/1.1/DTD/svg11.dtd">
<!-- Generated by graphviz version 2.38.0 (20140413.2041)
 -->
<!-- Title: lib/carpi/src/components/hardware Pages: 1 -->
<svg width="140pt" height="151pt"
 viewBox="0.00 0.00 139.50 151.00" xmlns="http://www.w3.org/2000/svg" xmlns:xlink="http://www.w3.org/1999/xlink">
<g id="graph0" class="graph" transform="scale(1 1) rotate(0) translate(4 147)">
<title>lib/carpi/src/components/hardware</title>
<polygon fill="white" stroke="none" points="-4,4 -4,-147 135.5,-147 135.5,4 -4,4"/>
<g id="clust1" class="cluster"><title>clusterdir_8337518d9ebdf5c8cf630c74e469df69</title>
<g id="a_clust1"><a xlink:href="dir_8337518d9ebdf5c8cf630c74e469df69.html" target="_top" xlink:title="components">
<polygon fill="#ddddee" stroke="black" points="25,-64 25,-135 103,-135 103,-64 25,-64"/>
<text text-anchor="middle" x="64" y="-123" font-family="Helvetica,sans-Serif" font-size="10.00">components</text>
</a>
</g>
</g>
<!-- dir_262efc26b75c3a65ab79a45133483bb9 -->
<g id="node1" class="node"><title>dir_262efc26b75c3a65ab79a45133483bb9</title>
<g id="a_node1"><a xlink:href="dir_262efc26b75c3a65ab79a45133483bb9.html" target="_top" xlink:title="hardware">
<polygon fill="#eeeeff" stroke="black" points="94.5,-108 33.5,-108 33.5,-72 94.5,-72 94.5,-108"/>
<text text-anchor="middle" x="64" y="-87.5" font-family="Helvetica,sans-Serif" font-size="10.00">hardware</text>
</a>
</g>
</g>
<!-- dir_8e74068b69cf999946bec30f6b9bbe53 -->
<g id="node2" class="node"><title>dir_8e74068b69cf999946bec30f6b9bbe53</title>
<g id="a_node2"><a xlink:href="dir_8e74068b69cf999946bec30f6b9bbe53.html" target="_top" xlink:title="lib">
<polygon fill="white" stroke="red" points="54,-36 0,-36 0,-0 54,-0 54,-36"/>
<text text-anchor="middle" x="27" y="-15.5" font-family="Helvetica,sans-Serif" font-size="10.00">lib</text>
</a>
</g>
</g>
<!-- dir_262efc26b75c3a65ab79a45133483bb9&#45;&gt;dir_8e74068b69cf999946bec30f6b9bbe53 -->
<g id="edge1" class="edge"><title>dir_262efc26b75c3a65ab79a45133483bb9&#45;&gt;dir_8e74068b69cf999946bec30f6b9bbe53</title>
<path fill="none" stroke="black" d="M54.8539,-71.6966C50.5974,-63.6436 45.4442,-53.8945 40.7336,-44.9824"/>
<polygon fill="black" stroke="black" points="43.8083,-43.3097 36.0409,-36.1043 37.6197,-46.5809 43.8083,-43.3097"/>
<g id="a_edge1&#45;headlabel"><a xlink:href="dir_000025_000012.html" target="_top" xlink:title="2">
<text text-anchor="middle" x="47.9982" y="-42.6609" font-family="Helvetica,sans-Serif" font-size="10.00">2</text>
</a>
</g>
</g>
<!-- dir_806cf985678c674b01ac4d1257f2de82 -->
<g id="node3" class="node"><title>dir_806cf985678c674b01ac4d1257f2de82</title>
<g id="a_node3"><a xlink:href="dir_806cf985678c674b01ac4d1257f2de82.html" target="_top" xlink:title="interface">
<polygon fill="none" stroke="black" points="131.5,-36 72.5,-36 72.5,-0 131.5,-0 131.5,-36"/>
<text text-anchor="middle" x="102" y="-15.5" font-family="Helvetica,sans-Serif" font-size="10.00">interface</text>
</a>
</g>
</g>
<!-- dir_262efc26b75c3a65ab79a45133483bb9&#45;&gt;dir_806cf985678c674b01ac4d1257f2de82 -->
<g id="edge2" class="edge"><title>dir_262efc26b75c3a65ab79a45133483bb9&#45;&gt;dir_806cf985678c674b01ac4d1257f2de82</title>
<path fill="none" stroke="black" d="M73.3933,-71.6966C77.7649,-63.6436 83.0573,-53.8945 87.8953,-44.9824"/>
<polygon fill="black" stroke="black" points="91.0198,-46.5627 92.7148,-36.1043 84.8678,-43.223 91.0198,-46.5627"/>
<g id="a_edge2&#45;headlabel"><a xlink:href="dir_000025_000026.html" target="_top" xlink:title="14">
<text text-anchor="middle" x="91.8002" y="-48.5764" font-family="Helvetica,sans-Serif" font-size="10.00">14</text>
</a>
</g>
</g>
</g>
</svg>
