<?xml version="1.0" encoding="UTF-8" standalone="no"?>
<!DOCTYPE svg PUBLIC "-//W3C//DTD SVG 1.1//EN"
 "http://www.w3.org/Graphics/SVG/1.1/DTD/svg11.dtd">
<!-- Generated by graphviz version 2.38.0 (20140413.2041)
 -->
<!-- Title: lib/carpi/src/runable/programs Pages: 1 -->
<svg width="162pt" height="223pt"
 viewBox="0.00 0.00 162.00 223.00" xmlns="http://www.w3.org/2000/svg" xmlns:xlink="http://www.w3.org/1999/xlink">
<g id="graph0" class="graph" transform="scale(1 1) rotate(0) translate(4 219)">
<title>lib/carpi/src/runable/programs</title>
<polygon fill="white" stroke="none" points="-4,4 -4,-219 158,-219 158,4 -4,4"/>
<g id="clust1" class="cluster"><title>clusterdir_f639c376628dea03a18f8c749703dfac</title>
<g id="a_clust1"><a xlink:href="dir_f639c376628dea03a18f8c749703dfac.html" target="_top" xlink:title="runable">
<polygon fill="#ddddee" stroke="black" points="8,-136 8,-207 88,-207 88,-136 8,-136"/>
<text text-anchor="middle" x="48" y="-195" font-family="Helvetica,sans-Serif" font-size="10.00">runable</text>
</a>
</g>
</g>
<!-- dir_81c39652c91038c556591c5f9ea4b7c4 -->
<g id="node1" class="node"><title>dir_81c39652c91038c556591c5f9ea4b7c4</title>
<g id="a_node1"><a xlink:href="dir_81c39652c91038c556591c5f9ea4b7c4.html" target="_top" xlink:title="programs">
<polygon fill="#eeeeff" stroke="black" points="79.5,-180 16.5,-180 16.5,-144 79.5,-144 79.5,-180"/>
<text text-anchor="middle" x="48" y="-159.5" font-family="Helvetica,sans-Serif" font-size="10.00">programs</text>
</a>
</g>
</g>
<!-- dir_d69ee1dad79c3f250af3dd434c215ea7 -->
<g id="node2" class="node"><title>dir_d69ee1dad79c3f250af3dd434c215ea7</title>
<g id="a_node2"><a xlink:href="dir_d69ee1dad79c3f250af3dd434c215ea7.html" target="_top" xlink:title="communication">
<polygon fill="none" stroke="black" points="132.5,-108 41.5,-108 41.5,-72 132.5,-72 132.5,-108"/>
<text text-anchor="middle" x="87" y="-87.5" font-family="Helvetica,sans-Serif" font-size="10.00">communication</text>
</a>
</g>
</g>
<!-- dir_81c39652c91038c556591c5f9ea4b7c4&#45;&gt;dir_d69ee1dad79c3f250af3dd434c215ea7 -->
<g id="edge2" class="edge"><title>dir_81c39652c91038c556591c5f9ea4b7c4&#45;&gt;dir_d69ee1dad79c3f250af3dd434c215ea7</title>
<path fill="none" stroke="black" d="M57.6405,-143.697C62.1271,-135.644 67.5588,-125.894 72.5241,-116.982"/>
<polygon fill="black" stroke="black" points="75.6609,-118.544 77.4704,-108.104 69.5459,-115.137 75.6609,-118.544"/>
<g id="a_edge2&#45;headlabel"><a xlink:href="dir_000030_000023.html" target="_top" xlink:title="1">
<text text-anchor="middle" x="76.3917" y="-120.565" font-family="Helvetica,sans-Serif" font-size="10.00">1</text>
</a>
</g>
</g>
<!-- dir_b5c865d296ad7bd0e57f9d4ddb17c381 -->
<g id="node3" class="node"><title>dir_b5c865d296ad7bd0e57f9d4ddb17c381</title>
<g id="a_node3"><a xlink:href="dir_b5c865d296ad7bd0e57f9d4ddb17c381.html" target="_top" xlink:title="services">
<polygon fill="none" stroke="black" points="154,-180 98,-180 98,-144 154,-144 154,-180"/>
<text text-anchor="middle" x="126" y="-159.5" font-family="Helvetica,sans-Serif" font-size="10.00">services</text>
</a>
</g>
</g>
<!-- dir_81c39652c91038c556591c5f9ea4b7c4&#45;&gt;dir_b5c865d296ad7bd0e57f9d4ddb17c381 -->
<g id="edge3" class="edge"><title>dir_81c39652c91038c556591c5f9ea4b7c4&#45;&gt;dir_b5c865d296ad7bd0e57f9d4ddb17c381</title>
<path fill="none" stroke="black" d="M79.6875,-162C82.3257,-162 84.964,-162 87.6022,-162"/>
<polygon fill="black" stroke="black" points="87.7784,-165.5 97.7783,-162 87.7783,-158.5 87.7784,-165.5"/>
<g id="a_edge3&#45;headlabel"><a xlink:href="dir_000030_000031.html" target="_top" xlink:title="4">
<text text-anchor="middle" x="84.1837" y="-165.839" font-family="Helvetica,sans-Serif" font-size="10.00">4</text>
</a>
</g>
</g>
<!-- dir_8337518d9ebdf5c8cf630c74e469df69 -->
<g id="node4" class="node"><title>dir_8337518d9ebdf5c8cf630c74e469df69</title>
<g id="a_node4"><a xlink:href="dir_8337518d9ebdf5c8cf630c74e469df69.html" target="_top" xlink:title="components">
<polygon fill="white" stroke="red" points="125.5,-36 48.5,-36 48.5,-0 125.5,-0 125.5,-36"/>
<text text-anchor="middle" x="87" y="-15.5" font-family="Helvetica,sans-Serif" font-size="10.00">components</text>
</a>
</g>
</g>
<!-- dir_81c39652c91038c556591c5f9ea4b7c4&#45;&gt;dir_8337518d9ebdf5c8cf630c74e469df69 -->
<g id="edge4" class="edge"><title>dir_81c39652c91038c556591c5f9ea4b7c4&#45;&gt;dir_8337518d9ebdf5c8cf630c74e469df69</title>
<path fill="none" stroke="black" d="M39.3834,-143.959C31.3268,-125.556 21.9274,-95.6944 32,-72 36.7347,-60.8623 45.0838,-50.9298 53.8684,-42.7587"/>
<polygon fill="black" stroke="black" points="56.3523,-45.2377 61.6205,-36.0455 51.7698,-39.9461 56.3523,-45.2377"/>
<g id="a_edge4&#45;headlabel"><a xlink:href="dir_000030_000024.html" target="_top" xlink:title="13">
<text text-anchor="middle" x="55.4937" y="-47.2372" font-family="Helvetica,sans-Serif" font-size="10.00">13</text>
</a>
</g>
</g>
<!-- dir_d69ee1dad79c3f250af3dd434c215ea7&#45;&gt;dir_8337518d9ebdf5c8cf630c74e469df69 -->
<g id="edge1" class="edge"><title>dir_d69ee1dad79c3f250af3dd434c215ea7&#45;&gt;dir_8337518d9ebdf5c8cf630c74e469df69</title>
<path fill="none" stroke="black" d="M81.0843,-71.6966C80.2886,-63.9827 80.0621,-54.7125 80.4047,-46.1124"/>
<polygon fill="black" stroke="black" points="83.8984,-46.3243 81.105,-36.1043 76.9154,-45.8356 83.8984,-46.3243"/>
<g id="a_edge1&#45;headlabel"><a xlink:href="dir_000023_000024.html" target="_top" xlink:title="3">
<text text-anchor="middle" x="86.4799" y="-47.6083" font-family="Helvetica,sans-Serif" font-size="10.00">3</text>
</a>
</g>
</g>
<!-- dir_b5c865d296ad7bd0e57f9d4ddb17c381&#45;&gt;dir_81c39652c91038c556591c5f9ea4b7c4 -->
<g id="edge6" class="edge"><title>dir_b5c865d296ad7bd0e57f9d4ddb17c381&#45;&gt;dir_81c39652c91038c556591c5f9ea4b7c4</title>
<path fill="none" stroke="black" d="M97.7783,-162C95.1401,-162 92.5018,-162 89.8636,-162"/>
<polygon fill="black" stroke="black" points="89.6875,-158.5 79.6875,-162 89.6875,-165.5 89.6875,-158.5"/>
<g id="a_edge6&#45;headlabel"><a xlink:href="dir_000031_000030.html" target="_top" xlink:title="2">
<text text-anchor="middle" x="93.2821" y="-153.161" font-family="Helvetica,sans-Serif" font-size="10.00">2</text>
</a>
</g>
</g>
<!-- dir_b5c865d296ad7bd0e57f9d4ddb17c381&#45;&gt;dir_d69ee1dad79c3f250af3dd434c215ea7 -->
<g id="edge5" class="edge"><title>dir_b5c865d296ad7bd0e57f9d4ddb17c381&#45;&gt;dir_d69ee1dad79c3f250af3dd434c215ea7</title>
<path fill="none" stroke="black" d="M116.36,-143.697C111.873,-135.644 106.441,-125.894 101.476,-116.982"/>
<polygon fill="black" stroke="black" points="104.454,-115.137 96.5296,-108.104 98.3391,-118.544 104.454,-115.137"/>
<g id="a_edge5&#45;headlabel"><a xlink:href="dir_000031_000023.html" target="_top" xlink:title="2">
<text text-anchor="middle" x="108.684" y="-114.395" font-family="Helvetica,sans-Serif" font-size="10.00">2</text>
</a>
</g>
</g>
<!-- dir_b5c865d296ad7bd0e57f9d4ddb17c381&#45;&gt;dir_8337518d9ebdf5c8cf630c74e469df69 -->
<g id="edge7" class="edge"><title>dir_b5c865d296ad7bd0e57f9d4ddb17c381&#45;&gt;dir_8337518d9ebdf5c8cf630c74e469df69</title>
<path fill="none" stroke="black" d="M134.617,-143.959C142.673,-125.556 152.073,-95.6944 142,-72 137.265,-60.8623 128.916,-50.9298 120.132,-42.7587"/>
<polygon fill="black" stroke="black" points="122.23,-39.9461 112.38,-36.0455 117.648,-45.2377 122.23,-39.9461"/>
<g id="a_edge7&#45;headlabel"><a xlink:href="dir_000031_000024.html" target="_top" xlink:title="7">
<text text-anchor="middle" x="126.806" y="-37.6529" font-family="Helvetica,sans-Serif" font-size="10.00">7</text>
</a>
</g>
</g>
<!-- dir_8337518d9ebdf5c8cf630c74e469df69&#45;&gt;dir_d69ee1dad79c3f250af3dd434c215ea7 -->
<g id="edge8" class="edge"><title>dir_8337518d9ebdf5c8cf630c74e469df69&#45;&gt;dir_d69ee1dad79c3f250af3dd434c215ea7</title>
<path fill="none" stroke="black" d="M92.895,-36.1043C93.7005,-43.7913 93.9369,-53.0537 93.604,-61.6651"/>
<polygon fill="black" stroke="black" points="90.1085,-61.4805 92.9157,-71.6966 97.0921,-61.9597 90.1085,-61.4805"/>
<g id="a_edge8&#45;headlabel"><a xlink:href="dir_000024_000023.html" target="_top" xlink:title="9">
<text text-anchor="middle" x="87.5219" y="-55.2" font-family="Helvetica,sans-Serif" font-size="10.00">9</text>
</a>
</g>
</g>
</g>
</svg>
