<?xml version="1.0" encoding="UTF-8" standalone="no"?>
<!DOCTYPE svg PUBLIC "-//W3C//DTD SVG 1.1//EN"
 "http://www.w3.org/Graphics/SVG/1.1/DTD/svg11.dtd">
<!-- Generated by graphviz version 2.38.0 (20140413.2041)
 -->
<!-- Title: test/common_test_RegistrySync Pages: 1 -->
<svg width="188pt" height="151pt"
 viewBox="0.00 0.00 188.00 151.00" xmlns="http://www.w3.org/2000/svg" xmlns:xlink="http://www.w3.org/1999/xlink">
<g id="graph0" class="graph" transform="scale(1 1) rotate(0) translate(4 147)">
<title>test/common_test_RegistrySync</title>
<polygon fill="white" stroke="none" points="-4,4 -4,-147 184,-147 184,4 -4,4"/>
<g id="clust1" class="cluster"><title>clusterdir_13e138d54eb8818da29c3992edef070a</title>
<g id="a_clust1"><a xlink:href="dir_13e138d54eb8818da29c3992edef070a.html" target="_top" xlink:title="test">
<polygon fill="#ddddee" stroke="black" points="8,-64 8,-135 172,-135 172,-64 8,-64"/>
<text text-anchor="middle" x="90" y="-123" font-family="Helvetica,sans-Serif" font-size="10.00">test</text>
</a>
</g>
</g>
<!-- dir_55736a38d75eff31fa03f3357e3ca408 -->
<g id="node1" class="node"><title>dir_55736a38d75eff31fa03f3357e3ca408</title>
<g id="a_node1"><a xlink:href="dir_55736a38d75eff31fa03f3357e3ca408.html" target="_top" xlink:title="common_test_RegistrySync">
<polygon fill="#eeeeff" stroke="black" points="164.5,-108 15.5,-108 15.5,-72 164.5,-72 164.5,-108"/>
<text text-anchor="middle" x="90" y="-87.5" font-family="Helvetica,sans-Serif" font-size="10.00">common_test_RegistrySync</text>
</a>
</g>
</g>
<!-- dir_97aefd0d527b934f1d99a682da8fe6a9 -->
<g id="node2" class="node"><title>dir_97aefd0d527b934f1d99a682da8fe6a9</title>
<g id="a_node2"><a xlink:href="dir_97aefd0d527b934f1d99a682da8fe6a9.html" target="_top" xlink:title="lib">
<polygon fill="white" stroke="red" points="117,-36 63,-36 63,-0 117,-0 117,-36"/>
<text text-anchor="middle" x="90" y="-15.5" font-family="Helvetica,sans-Serif" font-size="10.00">lib</text>
</a>
</g>
</g>
<!-- dir_55736a38d75eff31fa03f3357e3ca408&#45;&gt;dir_97aefd0d527b934f1d99a682da8fe6a9 -->
<g id="edge1" class="edge"><title>dir_55736a38d75eff31fa03f3357e3ca408&#45;&gt;dir_97aefd0d527b934f1d99a682da8fe6a9</title>
<path fill="none" stroke="black" d="M90,-71.6966C90,-63.9827 90,-54.7125 90,-46.1124"/>
<polygon fill="black" stroke="black" points="93.5001,-46.1043 90,-36.1043 86.5001,-46.1044 93.5001,-46.1043"/>
<g id="a_edge1&#45;headlabel"><a xlink:href="dir_000046_000007.html" target="_top" xlink:title="6">
<text text-anchor="middle" x="96.3393" y="-47.199" font-family="Helvetica,sans-Serif" font-size="10.00">6</text>
</a>
</g>
</g>
</g>
</svg>
