<?xml version="1.0" encoding="UTF-8" standalone="no"?>
<!DOCTYPE svg PUBLIC "-//W3C//DTD SVG 1.1//EN"
 "http://www.w3.org/Graphics/SVG/1.1/DTD/svg11.dtd">
<!-- Generated by graphviz version 2.38.0 (20140413.2041)
 -->
<!-- Title: car/hardwareTest Pages: 1 -->
<svg width="280pt" height="231pt"
 viewBox="0.00 0.00 280.00 231.00" xmlns="http://www.w3.org/2000/svg" xmlns:xlink="http://www.w3.org/1999/xlink">
<g id="graph0" class="graph" transform="scale(1 1) rotate(0) translate(4 227)">
<title>car/hardwareTest</title>
<polygon fill="white" stroke="none" points="-4,4 -4,-227 276,-227 276,4 -4,4"/>
<g id="clust1" class="cluster"><title>clusterdir_733846acb3c736eedaa0fe551b6fb44f</title>
<g id="a_clust1"><a xlink:href="dir_733846acb3c736eedaa0fe551b6fb44f.html" target="_top" xlink:title="car">
<polygon fill="#ddddee" stroke="black" points="8,-128 8,-215 264,-215 264,-128 8,-128"/>
<text text-anchor="middle" x="136" y="-203" font-family="Helvetica,sans-Serif" font-size="10.00">car</text>
</a>
</g>
</g>
<g id="clust2" class="cluster"><title>clusterdir_ff08913ff6265c10211fca5a85bdc8d2</title>
<g id="a_clust2"><a xlink:href="dir_ff08913ff6265c10211fca5a85bdc8d2.html" target="_top">
<polygon fill="#eeeeff" stroke="black" points="16,-136 16,-188 256,-188 256,-136 16,-136"/>
</a>
</g>
</g>
<!-- dir_ff08913ff6265c10211fca5a85bdc8d2 -->
<g id="node1" class="node"><title>dir_ff08913ff6265c10211fca5a85bdc8d2</title>
<text text-anchor="middle" x="208" y="-159.5" font-family="Helvetica,sans-Serif" font-size="10.00">hardwareTest</text>
</g>
<!-- dir_d6ad85ff2d2cc6da48c7795ebc3ae733 -->
<g id="node2" class="node"><title>dir_d6ad85ff2d2cc6da48c7795ebc3ae733</title>
<g id="a_node2"><a xlink:href="dir_d6ad85ff2d2cc6da48c7795ebc3ae733.html" target="_top" xlink:title="arduino">
<polygon fill="white" stroke="black" points="78,-180 24,-180 24,-144 78,-144 78,-180"/>
<text text-anchor="middle" x="51" y="-159.5" font-family="Helvetica,sans-Serif" font-size="10.00">arduino</text>
</a>
</g>
</g>
<!-- dir_3e541d6e814c5579165be0c634c47cf7 -->
<g id="node4" class="node"><title>dir_3e541d6e814c5579165be0c634c47cf7</title>
<g id="a_node4"><a xlink:href="dir_3e541d6e814c5579165be0c634c47cf7.html" target="_top" xlink:title="Bonnie2019">
<polygon fill="white" stroke="red" points="95,-108 21,-108 21,-72 95,-72 95,-108"/>
<text text-anchor="middle" x="58" y="-87.5" font-family="Helvetica,sans-Serif" font-size="10.00">Bonnie2019</text>
</a>
</g>
</g>
<!-- dir_d6ad85ff2d2cc6da48c7795ebc3ae733&#45;&gt;dir_3e541d6e814c5579165be0c634c47cf7 -->
<g id="edge1" class="edge"><title>dir_d6ad85ff2d2cc6da48c7795ebc3ae733&#45;&gt;dir_3e541d6e814c5579165be0c634c47cf7</title>
<path fill="none" stroke="black" d="M52.7303,-143.697C53.5017,-135.983 54.4288,-126.712 55.2888,-118.112"/>
<polygon fill="black" stroke="black" points="58.7771,-118.403 56.2896,-108.104 51.8118,-117.706 58.7771,-118.403"/>
<g id="a_edge1&#45;headlabel"><a xlink:href="dir_000004_000001.html" target="_top" xlink:title="3">
<text text-anchor="middle" x="61.2447" y="-119.762" font-family="Helvetica,sans-Serif" font-size="10.00">3</text>
</a>
</g>
</g>
<!-- dir_629b8d3ad1e31817781dd53b3d433ceb -->
<g id="node3" class="node"><title>dir_629b8d3ad1e31817781dd53b3d433ceb</title>
<g id="a_node3"><a xlink:href="dir_629b8d3ad1e31817781dd53b3d433ceb.html" target="_top" xlink:title="mbed">
<polygon fill="white" stroke="red" points="150,-180 96,-180 96,-144 150,-144 150,-180"/>
<text text-anchor="middle" x="123" y="-159.5" font-family="Helvetica,sans-Serif" font-size="10.00">mbed</text>
</a>
</g>
</g>
<!-- dir_629b8d3ad1e31817781dd53b3d433ceb&#45;&gt;dir_3e541d6e814c5579165be0c634c47cf7 -->
<g id="edge2" class="edge"><title>dir_629b8d3ad1e31817781dd53b3d433ceb&#45;&gt;dir_3e541d6e814c5579165be0c634c47cf7</title>
<path fill="none" stroke="black" d="M106.933,-143.697C99.0612,-135.22 89.4447,-124.864 80.8267,-115.583"/>
<polygon fill="black" stroke="black" points="83.2519,-113.051 73.8826,-108.104 78.1224,-117.814 83.2519,-113.051"/>
<g id="a_edge2&#45;headlabel"><a xlink:href="dir_000005_000001.html" target="_top" xlink:title="7">
<text text-anchor="middle" x="87.7784" y="-111.253" font-family="Helvetica,sans-Serif" font-size="10.00">7</text>
</a>
</g>
</g>
<!-- dir_97aefd0d527b934f1d99a682da8fe6a9 -->
<g id="node5" class="node"><title>dir_97aefd0d527b934f1d99a682da8fe6a9</title>
<g id="a_node5"><a xlink:href="dir_97aefd0d527b934f1d99a682da8fe6a9.html" target="_top" xlink:title="lib">
<polygon fill="white" stroke="red" points="117,-36 63,-36 63,-0 117,-0 117,-36"/>
<text text-anchor="middle" x="90" y="-15.5" font-family="Helvetica,sans-Serif" font-size="10.00">lib</text>
</a>
</g>
</g>
<!-- dir_629b8d3ad1e31817781dd53b3d433ceb&#45;&gt;dir_97aefd0d527b934f1d99a682da8fe6a9 -->
<g id="edge3" class="edge"><title>dir_629b8d3ad1e31817781dd53b3d433ceb&#45;&gt;dir_97aefd0d527b934f1d99a682da8fe6a9</title>
<path fill="none" stroke="black" d="M119.6,-143.883C115.972,-125.923 109.942,-96.896 104,-72 101.98,-63.5385 99.6183,-54.3626 97.4156,-46.0611"/>
<polygon fill="black" stroke="black" points="100.723,-44.8828 94.7486,-36.1332 93.9629,-46.6989 100.723,-44.8828"/>
<g id="a_edge3&#45;headlabel"><a xlink:href="dir_000005_000007.html" target="_top" xlink:title="18">
<text text-anchor="middle" x="104.398" y="-45.1177" font-family="Helvetica,sans-Serif" font-size="10.00">18</text>
</a>
</g>
</g>
<!-- dir_3e541d6e814c5579165be0c634c47cf7&#45;&gt;dir_97aefd0d527b934f1d99a682da8fe6a9 -->
<g id="edge4" class="edge"><title>dir_3e541d6e814c5579165be0c634c47cf7&#45;&gt;dir_97aefd0d527b934f1d99a682da8fe6a9</title>
<path fill="none" stroke="black" d="M65.9101,-71.6966C69.5527,-63.7284 73.9545,-54.0995 77.9935,-45.2641"/>
<polygon fill="black" stroke="black" points="81.2064,-46.6543 82.1809,-36.1043 74.8401,-43.7439 81.2064,-46.6543"/>
<g id="a_edge4&#45;headlabel"><a xlink:href="dir_000001_000007.html" target="_top" xlink:title="5">
<text text-anchor="middle" x="82.2942" y="-48.6039" font-family="Helvetica,sans-Serif" font-size="10.00">5</text>
</a>
</g>
</g>
</g>
</svg>
