<?xml version="1.0" encoding="UTF-8" standalone="no"?>
<!DOCTYPE svg PUBLIC "-//W3C//DTD SVG 1.1//EN"
 "http://www.w3.org/Graphics/SVG/1.1/DTD/svg11.dtd">
<!-- Generated by graphviz version 2.38.0 (20140413.2041)
 -->
<!-- Title: lib/carpi/src/steroido Pages: 1 -->
<svg width="256pt" height="111pt"
 viewBox="0.00 0.00 256.00 111.00" xmlns="http://www.w3.org/2000/svg" xmlns:xlink="http://www.w3.org/1999/xlink">
<g id="graph0" class="graph" transform="scale(1 1) rotate(0) translate(4 107)">
<title>lib/carpi/src/steroido</title>
<polygon fill="white" stroke="none" points="-4,4 -4,-107 252,-107 252,4 -4,4"/>
<g id="clust1" class="cluster"><title>clusterdir_9f1b2df1a73c72454ed24c30e17e9fb0</title>
<g id="a_clust1"><a xlink:href="dir_9f1b2df1a73c72454ed24c30e17e9fb0.html" target="_top" xlink:title="src">
<polygon fill="#ddddee" stroke="black" points="8,-8 8,-95 240,-95 240,-8 8,-8"/>
<text text-anchor="middle" x="124" y="-83" font-family="Helvetica,sans-Serif" font-size="10.00">src</text>
</a>
</g>
</g>
<g id="clust2" class="cluster"><title>clusterdir_00e139bf007fde4cecf54b4e2a01ad3e</title>
<g id="a_clust2"><a xlink:href="dir_00e139bf007fde4cecf54b4e2a01ad3e.html" target="_top">
<polygon fill="#eeeeff" stroke="black" points="16,-16 16,-68 232,-68 232,-16 16,-16"/>
</a>
</g>
</g>
<!-- dir_00e139bf007fde4cecf54b4e2a01ad3e -->
<g id="node1" class="node"><title>dir_00e139bf007fde4cecf54b4e2a01ad3e</title>
<text text-anchor="middle" x="196" y="-39.5" font-family="Helvetica,sans-Serif" font-size="10.00">steroido</text>
</g>
<!-- dir_4cd30f507b7213ba24c3b7115cfe4042 -->
<g id="node2" class="node"><title>dir_4cd30f507b7213ba24c3b7115cfe4042</title>
<g id="a_node2"><a xlink:href="dir_4cd30f507b7213ba24c3b7115cfe4042.html" target="_top" xlink:title="src">
<polygon fill="white" stroke="red" points="150,-60 96,-60 96,-24 150,-24 150,-60"/>
<text text-anchor="middle" x="123" y="-39.5" font-family="Helvetica,sans-Serif" font-size="10.00">src</text>
</a>
</g>
</g>
<!-- dir_19f718d98ffdb844fe0707234bb46470 -->
<g id="node3" class="node"><title>dir_19f718d98ffdb844fe0707234bb46470</title>
<g id="a_node3"><a xlink:href="dir_19f718d98ffdb844fe0707234bb46470.html" target="_top" xlink:title="test">
<polygon fill="white" stroke="red" points="78,-60 24,-60 24,-24 78,-24 78,-60"/>
<text text-anchor="middle" x="51" y="-39.5" font-family="Helvetica,sans-Serif" font-size="10.00">test</text>
</a>
</g>
</g>
</g>
</svg>
