<?xml version="1.0" encoding="UTF-8" standalone="no"?>
<!DOCTYPE svg PUBLIC "-//W3C//DTD SVG 1.1//EN"
 "http://www.w3.org/Graphics/SVG/1.1/DTD/svg11.dtd">
<!-- Generated by graphviz version 2.38.0 (20140413.2041)
 -->
<!-- Title: lib/carpi/src/steroido/src/AbstractionLayer/Teensyduino Pages: 1 -->
<svg width="176pt" height="151pt"
 viewBox="0.00 0.00 175.50 151.00" xmlns="http://www.w3.org/2000/svg" xmlns:xlink="http://www.w3.org/1999/xlink">
<g id="graph0" class="graph" transform="scale(1 1) rotate(0) translate(4 147)">
<title>lib/carpi/src/steroido/src/AbstractionLayer/Teensyduino</title>
<polygon fill="white" stroke="none" points="-4,4 -4,-147 171.5,-147 171.5,4 -4,4"/>
<g id="clust1" class="cluster"><title>clusterdir_689b865dfd5391ba24857908fa524491</title>
<g id="a_clust1"><a xlink:href="dir_689b865dfd5391ba24857908fa524491.html" target="_top" xlink:title="AbstractionLayer">
<polygon fill="#ddddee" stroke="black" points="43,-64 43,-135 141,-135 141,-64 43,-64"/>
<text text-anchor="middle" x="92" y="-123" font-family="Helvetica,sans-Serif" font-size="10.00">AbstractionLayer</text>
</a>
</g>
</g>
<!-- dir_9ebc83beef73b5d14d166fda004daaad -->
<g id="node1" class="node"><title>dir_9ebc83beef73b5d14d166fda004daaad</title>
<g id="a_node1"><a xlink:href="dir_9ebc83beef73b5d14d166fda004daaad.html" target="_top" xlink:title="Teensyduino">
<polygon fill="#eeeeff" stroke="black" points="129.5,-108 54.5,-108 54.5,-72 129.5,-72 129.5,-108"/>
<text text-anchor="middle" x="92" y="-87.5" font-family="Helvetica,sans-Serif" font-size="10.00">Teensyduino</text>
</a>
</g>
</g>
<!-- dir_49424ba507177705edd7baab1a8b67e8 -->
<g id="node2" class="node"><title>dir_49424ba507177705edd7baab1a8b67e8</title>
<g id="a_node2"><a xlink:href="dir_49424ba507177705edd7baab1a8b67e8.html" target="_top" xlink:title="Communication">
<polygon fill="none" stroke="black" points="92,-36 0,-36 0,-0 92,-0 92,-36"/>
<text text-anchor="middle" x="46" y="-15.5" font-family="Helvetica,sans-Serif" font-size="10.00">Communication</text>
</a>
</g>
</g>
<!-- dir_9ebc83beef73b5d14d166fda004daaad&#45;&gt;dir_49424ba507177705edd7baab1a8b67e8 -->
<g id="edge1" class="edge"><title>dir_9ebc83beef73b5d14d166fda004daaad&#45;&gt;dir_49424ba507177705edd7baab1a8b67e8</title>
<path fill="none" stroke="black" d="M80.6292,-71.6966C75.2815,-63.5589 68.7957,-53.689 62.8894,-44.7013"/>
<polygon fill="black" stroke="black" points="65.6568,-42.5393 57.24,-36.1043 59.8068,-46.3835 65.6568,-42.5393"/>
<g id="a_edge1&#45;headlabel"><a xlink:href="dir_000034_000036.html" target="_top" xlink:title="1">
<text text-anchor="middle" x="70.0036" y="-41.484" font-family="Helvetica,sans-Serif" font-size="10.00">1</text>
</a>
</g>
</g>
<!-- dir_74fdfba6cf28a24de33c93157f600aaf -->
<g id="node3" class="node"><title>dir_74fdfba6cf28a24de33c93157f600aaf</title>
<g id="a_node3"><a xlink:href="dir_74fdfba6cf28a24de33c93157f600aaf.html" target="_top" xlink:title="Libraries">
<polygon fill="white" stroke="red" points="167.5,-36 110.5,-36 110.5,-0 167.5,-0 167.5,-36"/>
<text text-anchor="middle" x="139" y="-15.5" font-family="Helvetica,sans-Serif" font-size="10.00">Libraries</text>
</a>
</g>
</g>
<!-- dir_9ebc83beef73b5d14d166fda004daaad&#45;&gt;dir_74fdfba6cf28a24de33c93157f600aaf -->
<g id="edge2" class="edge"><title>dir_9ebc83beef73b5d14d166fda004daaad&#45;&gt;dir_74fdfba6cf28a24de33c93157f600aaf</title>
<path fill="none" stroke="black" d="M103.618,-71.6966C109.139,-63.4741 115.847,-53.4832 121.932,-44.4207"/>
<polygon fill="black" stroke="black" points="124.847,-46.3576 127.516,-36.1043 119.035,-42.4555 124.847,-46.3576"/>
<g id="a_edge2&#45;headlabel"><a xlink:href="dir_000034_000037.html" target="_top" xlink:title="1">
<text text-anchor="middle" x="125.201" y="-48.4246" font-family="Helvetica,sans-Serif" font-size="10.00">1</text>
</a>
</g>
</g>
</g>
</svg>
