<?xml version="1.0" encoding="UTF-8" standalone="no"?>
<!DOCTYPE svg PUBLIC "-//W3C//DTD SVG 1.1//EN"
 "http://www.w3.org/Graphics/SVG/1.1/DTD/svg11.dtd">
<!-- Generated by graphviz version 2.38.0 (20140413.2041)
 -->
<!-- Title: lib/carpi/lib Pages: 1 -->
<svg width="376pt" height="111pt"
 viewBox="0.00 0.00 376.00 111.00" xmlns="http://www.w3.org/2000/svg" xmlns:xlink="http://www.w3.org/1999/xlink">
<g id="graph0" class="graph" transform="scale(1 1) rotate(0) translate(4 107)">
<title>lib/carpi/lib</title>
<polygon fill="white" stroke="none" points="-4,4 -4,-107 372,-107 372,4 -4,4"/>
<g id="clust1" class="cluster"><title>clusterdir_8abc5adb3954e2c705782810422567dd</title>
<g id="a_clust1"><a xlink:href="dir_8abc5adb3954e2c705782810422567dd.html" target="_top" xlink:title="carpi">
<polygon fill="#ddddee" stroke="black" points="8,-8 8,-95 360,-95 360,-8 8,-8"/>
<text text-anchor="middle" x="184" y="-83" font-family="Helvetica,sans-Serif" font-size="10.00">carpi</text>
</a>
</g>
</g>
<g id="clust2" class="cluster"><title>clusterdir_8e74068b69cf999946bec30f6b9bbe53</title>
<g id="a_clust2"><a xlink:href="dir_8e74068b69cf999946bec30f6b9bbe53.html" target="_top">
<polygon fill="#eeeeff" stroke="black" points="16,-16 16,-68 352,-68 352,-16 16,-16"/>
</a>
</g>
</g>
<!-- dir_8e74068b69cf999946bec30f6b9bbe53 -->
<g id="node1" class="node"><title>dir_8e74068b69cf999946bec30f6b9bbe53</title>
<text text-anchor="middle" x="317" y="-39.5" font-family="Helvetica,sans-Serif" font-size="10.00">lib</text>
</g>
<!-- dir_aef6236eb443120c67304eb942f15c24 -->
<g id="node2" class="node"><title>dir_aef6236eb443120c67304eb942f15c24</title>
<g id="a_node2"><a xlink:href="dir_aef6236eb443120c67304eb942f15c24.html" target="_top" xlink:title="BamocarD3">
<polygon fill="white" stroke="red" points="272,-60 198,-60 198,-24 272,-24 272,-60"/>
<text text-anchor="middle" x="235" y="-39.5" font-family="Helvetica,sans-Serif" font-size="10.00">BamocarD3</text>
</a>
</g>
</g>
<!-- dir_a2707b44ef44c660b63cc22c1e8f4d65 -->
<g id="node3" class="node"><title>dir_a2707b44ef44c660b63cc22c1e8f4d65</title>
<g id="a_node3"><a xlink:href="dir_a2707b44ef44c660b63cc22c1e8f4d65.html" target="_top" xlink:title="LoRa">
<polygon fill="white" stroke="red" points="180,-60 126,-60 126,-24 180,-24 180,-60"/>
<text text-anchor="middle" x="153" y="-39.5" font-family="Helvetica,sans-Serif" font-size="10.00">LoRa</text>
</a>
</g>
</g>
<!-- dir_921e0bd80983b952e7ac891fc046114b -->
<g id="node4" class="node"><title>dir_921e0bd80983b952e7ac891fc046114b</title>
<g id="a_node4"><a xlink:href="dir_921e0bd80983b952e7ac891fc046114b.html" target="_top" xlink:title="SDFileSystem">
<polygon fill="white" stroke="red" points="107.5,-60 24.5,-60 24.5,-24 107.5,-24 107.5,-60"/>
<text text-anchor="middle" x="66" y="-39.5" font-family="Helvetica,sans-Serif" font-size="10.00">SDFileSystem</text>
</a>
</g>
</g>
</g>
</svg>
