<?xml version="1.0" encoding="UTF-8" standalone="no"?>
<!DOCTYPE svg PUBLIC "-//W3C//DTD SVG 1.1//EN"
 "http://www.w3.org/Graphics/SVG/1.1/DTD/svg11.dtd">
<!-- Generated by graphviz version 2.38.0 (20140413.2041)
 -->
<!-- Title: lib/carpi/src/steroido/src/AbstractionLayer Pages: 1 -->
<svg width="337pt" height="159pt"
 viewBox="0.00 0.00 336.50 159.00" xmlns="http://www.w3.org/2000/svg" xmlns:xlink="http://www.w3.org/1999/xlink">
<g id="graph0" class="graph" transform="scale(1 1) rotate(0) translate(4 155)">
<title>lib/carpi/src/steroido/src/AbstractionLayer</title>
<polygon fill="white" stroke="none" points="-4,4 -4,-155 332.5,-155 332.5,4 -4,4"/>
<g id="clust1" class="cluster"><title>clusterdir_4cd30f507b7213ba24c3b7115cfe4042</title>
<g id="a_clust1"><a xlink:href="dir_4cd30f507b7213ba24c3b7115cfe4042.html" target="_top" xlink:title="src">
<polygon fill="#ddddee" stroke="black" points="25.5,-56 25.5,-143 320.5,-143 320.5,-56 25.5,-56"/>
<text text-anchor="middle" x="173" y="-131" font-family="Helvetica,sans-Serif" font-size="10.00">src</text>
</a>
</g>
</g>
<g id="clust2" class="cluster"><title>clusterdir_689b865dfd5391ba24857908fa524491</title>
<g id="a_clust2"><a xlink:href="dir_689b865dfd5391ba24857908fa524491.html" target="_top">
<polygon fill="#eeeeff" stroke="black" points="33.5,-64 33.5,-116 312.5,-116 312.5,-64 33.5,-64"/>
</a>
</g>
</g>
<!-- dir_689b865dfd5391ba24857908fa524491 -->
<g id="node1" class="node"><title>dir_689b865dfd5391ba24857908fa524491</title>
<text text-anchor="middle" x="255.5" y="-87.5" font-family="Helvetica,sans-Serif" font-size="10.00">AbstractionLayer</text>
</g>
<!-- dir_c0893bb7f29f25093845f2e528a10b70 -->
<g id="node2" class="node"><title>dir_c0893bb7f29f25093845f2e528a10b70</title>
<g id="a_node2"><a xlink:href="dir_c0893bb7f29f25093845f2e528a10b70.html" target="_top" xlink:title="Arduino">
<polygon fill="white" stroke="black" points="95.5,-108 41.5,-108 41.5,-72 95.5,-72 95.5,-108"/>
<text text-anchor="middle" x="68.5" y="-87.5" font-family="Helvetica,sans-Serif" font-size="10.00">Arduino</text>
</a>
</g>
</g>
<!-- dir_e72600e3a96a281888a3fc55d8b8f691 -->
<g id="node4" class="node"><title>dir_e72600e3a96a281888a3fc55d8b8f691</title>
<g id="a_node4"><a xlink:href="dir_e72600e3a96a281888a3fc55d8b8f691.html" target="_top" xlink:title="Common">
<polygon fill="none" stroke="black" points="61,-36 -3.55271e-15,-36 -3.55271e-15,-0 61,-0 61,-36"/>
<text text-anchor="middle" x="30.5" y="-15.5" font-family="Helvetica,sans-Serif" font-size="10.00">Common</text>
</a>
</g>
</g>
<!-- dir_c0893bb7f29f25093845f2e528a10b70&#45;&gt;dir_e72600e3a96a281888a3fc55d8b8f691 -->
<g id="edge3" class="edge"><title>dir_c0893bb7f29f25093845f2e528a10b70&#45;&gt;dir_e72600e3a96a281888a3fc55d8b8f691</title>
<path fill="none" stroke="black" d="M59.1067,-71.6966C54.7351,-63.6436 49.4427,-53.8945 44.6047,-44.9824"/>
<polygon fill="black" stroke="black" points="47.6322,-43.223 39.7852,-36.1043 41.4802,-46.5627 47.6322,-43.223"/>
<g id="a_edge3&#45;headlabel"><a xlink:href="dir_000033_000035.html" target="_top" xlink:title="1">
<text text-anchor="middle" x="51.8424" y="-42.5276" font-family="Helvetica,sans-Serif" font-size="10.00">1</text>
</a>
</g>
</g>
<!-- dir_74fdfba6cf28a24de33c93157f600aaf -->
<g id="node6" class="node"><title>dir_74fdfba6cf28a24de33c93157f600aaf</title>
<g id="a_node6"><a xlink:href="dir_74fdfba6cf28a24de33c93157f600aaf.html" target="_top" xlink:title="Libraries">
<polygon fill="white" stroke="red" points="136,-36 79,-36 79,-0 136,-0 136,-36"/>
<text text-anchor="middle" x="107.5" y="-15.5" font-family="Helvetica,sans-Serif" font-size="10.00">Libraries</text>
</a>
</g>
</g>
<!-- dir_c0893bb7f29f25093845f2e528a10b70&#45;&gt;dir_74fdfba6cf28a24de33c93157f600aaf -->
<g id="edge4" class="edge"><title>dir_c0893bb7f29f25093845f2e528a10b70&#45;&gt;dir_74fdfba6cf28a24de33c93157f600aaf</title>
<path fill="none" stroke="black" d="M78.1405,-71.6966C82.6271,-63.6436 88.0588,-53.8945 93.0241,-44.9824"/>
<polygon fill="black" stroke="black" points="96.1609,-46.5435 97.9704,-36.1043 90.0459,-43.1366 96.1609,-46.5435"/>
<g id="a_edge4&#45;headlabel"><a xlink:href="dir_000033_000037.html" target="_top" xlink:title="1">
<text text-anchor="middle" x="96.8917" y="-48.5655" font-family="Helvetica,sans-Serif" font-size="10.00">1</text>
</a>
</g>
</g>
<!-- dir_9ebc83beef73b5d14d166fda004daaad -->
<g id="node3" class="node"><title>dir_9ebc83beef73b5d14d166fda004daaad</title>
<g id="a_node3"><a xlink:href="dir_9ebc83beef73b5d14d166fda004daaad.html" target="_top" xlink:title="Teensyduino">
<polygon fill="white" stroke="black" points="189,-108 114,-108 114,-72 189,-72 189,-108"/>
<text text-anchor="middle" x="151.5" y="-87.5" font-family="Helvetica,sans-Serif" font-size="10.00">Teensyduino</text>
</a>
</g>
</g>
<!-- dir_49424ba507177705edd7baab1a8b67e8 -->
<g id="node5" class="node"><title>dir_49424ba507177705edd7baab1a8b67e8</title>
<g id="a_node5"><a xlink:href="dir_49424ba507177705edd7baab1a8b67e8.html" target="_top" xlink:title="Communication">
<polygon fill="none" stroke="black" points="246.5,-36 154.5,-36 154.5,-0 246.5,-0 246.5,-36"/>
<text text-anchor="middle" x="200.5" y="-15.5" font-family="Helvetica,sans-Serif" font-size="10.00">Communication</text>
</a>
</g>
</g>
<!-- dir_9ebc83beef73b5d14d166fda004daaad&#45;&gt;dir_49424ba507177705edd7baab1a8b67e8 -->
<g id="edge1" class="edge"><title>dir_9ebc83beef73b5d14d166fda004daaad&#45;&gt;dir_49424ba507177705edd7baab1a8b67e8</title>
<path fill="none" stroke="black" d="M163.612,-71.6966C169.368,-63.4741 176.362,-53.4832 182.706,-44.4207"/>
<polygon fill="black" stroke="black" points="185.66,-46.3038 188.527,-36.1043 179.925,-42.2895 185.66,-46.3038"/>
<g id="a_edge1&#45;headlabel"><a xlink:href="dir_000034_000036.html" target="_top" xlink:title="1">
<text text-anchor="middle" x="185.924" y="-48.3768" font-family="Helvetica,sans-Serif" font-size="10.00">1</text>
</a>
</g>
</g>
<!-- dir_9ebc83beef73b5d14d166fda004daaad&#45;&gt;dir_74fdfba6cf28a24de33c93157f600aaf -->
<g id="edge2" class="edge"><title>dir_9ebc83beef73b5d14d166fda004daaad&#45;&gt;dir_74fdfba6cf28a24de33c93157f600aaf</title>
<path fill="none" stroke="black" d="M140.624,-71.6966C135.508,-63.5589 129.305,-53.689 123.655,-44.7013"/>
<polygon fill="black" stroke="black" points="126.536,-42.7081 118.251,-36.1043 120.61,-46.4333 126.536,-42.7081"/>
<g id="a_edge2&#45;headlabel"><a xlink:href="dir_000034_000037.html" target="_top" xlink:title="1">
<text text-anchor="middle" x="130.853" y="-41.7405" font-family="Helvetica,sans-Serif" font-size="10.00">1</text>
</a>
</g>
</g>
</g>
</svg>
