<?xml version="1.0" encoding="UTF-8" standalone="no"?>
<!DOCTYPE svg PUBLIC "-//W3C//DTD SVG 1.1//EN"
 "http://www.w3.org/Graphics/SVG/1.1/DTD/svg11.dtd">
<!-- Generated by graphviz version 2.38.0 (20140413.2041)
 -->
<!-- Title: lib/carpi/src/steroido/src/AbstractionLayer/Arduino Pages: 1 -->
<svg width="144pt" height="151pt"
 viewBox="0.00 0.00 144.00 151.00" xmlns="http://www.w3.org/2000/svg" xmlns:xlink="http://www.w3.org/1999/xlink">
<g id="graph0" class="graph" transform="scale(1 1) rotate(0) translate(4 147)">
<title>lib/carpi/src/steroido/src/AbstractionLayer/Arduino</title>
<polygon fill="white" stroke="none" points="-4,4 -4,-147 140,-147 140,4 -4,4"/>
<g id="clust1" class="cluster"><title>clusterdir_689b865dfd5391ba24857908fa524491</title>
<g id="a_clust1"><a xlink:href="dir_689b865dfd5391ba24857908fa524491.html" target="_top" xlink:title="AbstractionLayer">
<polygon fill="#ddddee" stroke="black" points="19.5,-64 19.5,-135 117.5,-135 117.5,-64 19.5,-64"/>
<text text-anchor="middle" x="68.5" y="-123" font-family="Helvetica,sans-Serif" font-size="10.00">AbstractionLayer</text>
</a>
</g>
</g>
<!-- dir_c0893bb7f29f25093845f2e528a10b70 -->
<g id="node1" class="node"><title>dir_c0893bb7f29f25093845f2e528a10b70</title>
<g id="a_node1"><a xlink:href="dir_c0893bb7f29f25093845f2e528a10b70.html" target="_top" xlink:title="Arduino">
<polygon fill="#eeeeff" stroke="black" points="95.5,-108 41.5,-108 41.5,-72 95.5,-72 95.5,-108"/>
<text text-anchor="middle" x="68.5" y="-87.5" font-family="Helvetica,sans-Serif" font-size="10.00">Arduino</text>
</a>
</g>
</g>
<!-- dir_e72600e3a96a281888a3fc55d8b8f691 -->
<g id="node2" class="node"><title>dir_e72600e3a96a281888a3fc55d8b8f691</title>
<g id="a_node2"><a xlink:href="dir_e72600e3a96a281888a3fc55d8b8f691.html" target="_top" xlink:title="Common">
<polygon fill="none" stroke="black" points="61,-36 -3.55271e-15,-36 -3.55271e-15,-0 61,-0 61,-36"/>
<text text-anchor="middle" x="30.5" y="-15.5" font-family="Helvetica,sans-Serif" font-size="10.00">Common</text>
</a>
</g>
</g>
<!-- dir_c0893bb7f29f25093845f2e528a10b70&#45;&gt;dir_e72600e3a96a281888a3fc55d8b8f691 -->
<g id="edge1" class="edge"><title>dir_c0893bb7f29f25093845f2e528a10b70&#45;&gt;dir_e72600e3a96a281888a3fc55d8b8f691</title>
<path fill="none" stroke="black" d="M59.1067,-71.6966C54.7351,-63.6436 49.4427,-53.8945 44.6047,-44.9824"/>
<polygon fill="black" stroke="black" points="47.6322,-43.223 39.7852,-36.1043 41.4802,-46.5627 47.6322,-43.223"/>
<g id="a_edge1&#45;headlabel"><a xlink:href="dir_000033_000035.html" target="_top" xlink:title="1">
<text text-anchor="middle" x="51.8424" y="-42.5276" font-family="Helvetica,sans-Serif" font-size="10.00">1</text>
</a>
</g>
</g>
<!-- dir_74fdfba6cf28a24de33c93157f600aaf -->
<g id="node3" class="node"><title>dir_74fdfba6cf28a24de33c93157f600aaf</title>
<g id="a_node3"><a xlink:href="dir_74fdfba6cf28a24de33c93157f600aaf.html" target="_top" xlink:title="Libraries">
<polygon fill="white" stroke="red" points="136,-36 79,-36 79,-0 136,-0 136,-36"/>
<text text-anchor="middle" x="107.5" y="-15.5" font-family="Helvetica,sans-Serif" font-size="10.00">Libraries</text>
</a>
</g>
</g>
<!-- dir_c0893bb7f29f25093845f2e528a10b70&#45;&gt;dir_74fdfba6cf28a24de33c93157f600aaf -->
<g id="edge2" class="edge"><title>dir_c0893bb7f29f25093845f2e528a10b70&#45;&gt;dir_74fdfba6cf28a24de33c93157f600aaf</title>
<path fill="none" stroke="black" d="M78.1405,-71.6966C82.6271,-63.6436 88.0588,-53.8945 93.0241,-44.9824"/>
<polygon fill="black" stroke="black" points="96.1609,-46.5435 97.9704,-36.1043 90.0459,-43.1366 96.1609,-46.5435"/>
<g id="a_edge2&#45;headlabel"><a xlink:href="dir_000033_000037.html" target="_top" xlink:title="1">
<text text-anchor="middle" x="96.8917" y="-48.5655" font-family="Helvetica,sans-Serif" font-size="10.00">1</text>
</a>
</g>
</g>
</g>
</svg>
