<?xml version="1.0" encoding="UTF-8" standalone="no"?>
<!DOCTYPE svg PUBLIC "-//W3C//DTD SVG 1.1//EN"
 "http://www.w3.org/Graphics/SVG/1.1/DTD/svg11.dtd">
<!-- Generated by graphviz version 2.38.0 (20140413.2041)
 -->
<!-- Title: lib/carpi/src/components/software Pages: 1 -->
<svg width="101pt" height="151pt"
 viewBox="0.00 0.00 101.00 151.00" xmlns="http://www.w3.org/2000/svg" xmlns:xlink="http://www.w3.org/1999/xlink">
<g id="graph0" class="graph" transform="scale(1 1) rotate(0) translate(4 147)">
<title>lib/carpi/src/components/software</title>
<polygon fill="white" stroke="none" points="-4,4 -4,-147 97,-147 97,4 -4,4"/>
<g id="clust1" class="cluster"><title>clusterdir_8337518d9ebdf5c8cf630c74e469df69</title>
<g id="a_clust1"><a xlink:href="dir_8337518d9ebdf5c8cf630c74e469df69.html" target="_top" xlink:title="components">
<polygon fill="#ddddee" stroke="black" points="8,-64 8,-135 85,-135 85,-64 8,-64"/>
<text text-anchor="middle" x="46.5" y="-123" font-family="Helvetica,sans-Serif" font-size="10.00">components</text>
</a>
</g>
</g>
<!-- dir_28073075f4ef231abd9dc8618e266c8b -->
<g id="node1" class="node"><title>dir_28073075f4ef231abd9dc8618e266c8b</title>
<g id="a_node1"><a xlink:href="dir_28073075f4ef231abd9dc8618e266c8b.html" target="_top" xlink:title="software">
<polygon fill="#eeeeff" stroke="black" points="74.5,-108 17.5,-108 17.5,-72 74.5,-72 74.5,-108"/>
<text text-anchor="middle" x="46" y="-87.5" font-family="Helvetica,sans-Serif" font-size="10.00">software</text>
</a>
</g>
</g>
<!-- dir_806cf985678c674b01ac4d1257f2de82 -->
<g id="node2" class="node"><title>dir_806cf985678c674b01ac4d1257f2de82</title>
<g id="a_node2"><a xlink:href="dir_806cf985678c674b01ac4d1257f2de82.html" target="_top" xlink:title="interface">
<polygon fill="none" stroke="black" points="75.5,-36 16.5,-36 16.5,-0 75.5,-0 75.5,-36"/>
<text text-anchor="middle" x="46" y="-15.5" font-family="Helvetica,sans-Serif" font-size="10.00">interface</text>
</a>
</g>
</g>
<!-- dir_28073075f4ef231abd9dc8618e266c8b&#45;&gt;dir_806cf985678c674b01ac4d1257f2de82 -->
<g id="edge1" class="edge"><title>dir_28073075f4ef231abd9dc8618e266c8b&#45;&gt;dir_806cf985678c674b01ac4d1257f2de82</title>
<path fill="none" stroke="black" d="M46,-71.6966C46,-63.9827 46,-54.7125 46,-46.1124"/>
<polygon fill="black" stroke="black" points="49.5001,-46.1043 46,-36.1043 42.5001,-46.1044 49.5001,-46.1043"/>
<g id="a_edge1&#45;headlabel"><a xlink:href="dir_000028_000026.html" target="_top" xlink:title="5">
<text text-anchor="middle" x="52.3393" y="-47.199" font-family="Helvetica,sans-Serif" font-size="10.00">5</text>
</a>
</g>
</g>
</g>
</svg>
