<?xml version="1.0" encoding="UTF-8" standalone="no"?>
<!DOCTYPE svg PUBLIC "-//W3C//DTD SVG 1.1//EN"
 "http://www.w3.org/Graphics/SVG/1.1/DTD/svg11.dtd">
<!-- Generated by graphviz version 2.38.0 (20140413.2041)
 -->
<!-- Title: car Pages: 1 -->
<svg width="192pt" height="204pt"
 viewBox="0.00 0.00 192.00 204.00" xmlns="http://www.w3.org/2000/svg" xmlns:xlink="http://www.w3.org/1999/xlink">
<g id="graph0" class="graph" transform="scale(1 1) rotate(0) translate(4 200)">
<title>car</title>
<polygon fill="white" stroke="none" points="-4,4 -4,-200 188,-200 188,4 -4,4"/>
<g id="clust1" class="cluster"><title>clusterdir_733846acb3c736eedaa0fe551b6fb44f</title>
<g id="a_clust1"><a xlink:href="dir_733846acb3c736eedaa0fe551b6fb44f.html" target="_top">
<polygon fill="#eeeeff" stroke="black" points="8,-64 8,-188 176,-188 176,-64 8,-64"/>
</a>
</g>
</g>
<!-- dir_733846acb3c736eedaa0fe551b6fb44f -->
<g id="node1" class="node"><title>dir_733846acb3c736eedaa0fe551b6fb44f</title>
<text text-anchor="middle" x="141" y="-159.5" font-family="Helvetica,sans-Serif" font-size="10.00">car</text>
</g>
<!-- dir_3e541d6e814c5579165be0c634c47cf7 -->
<g id="node2" class="node"><title>dir_3e541d6e814c5579165be0c634c47cf7</title>
<g id="a_node2"><a xlink:href="dir_3e541d6e814c5579165be0c634c47cf7.html" target="_top" xlink:title="Bonnie2019">
<polygon fill="white" stroke="red" points="91,-108 17,-108 17,-72 91,-72 91,-108"/>
<text text-anchor="middle" x="54" y="-87.5" font-family="Helvetica,sans-Serif" font-size="10.00">Bonnie2019</text>
</a>
</g>
</g>
<!-- dir_97aefd0d527b934f1d99a682da8fe6a9 -->
<g id="node4" class="node"><title>dir_97aefd0d527b934f1d99a682da8fe6a9</title>
<g id="a_node4"><a xlink:href="dir_97aefd0d527b934f1d99a682da8fe6a9.html" target="_top" xlink:title="lib">
<polygon fill="white" stroke="red" points="113,-36 59,-36 59,-0 113,-0 113,-36"/>
<text text-anchor="middle" x="86" y="-15.5" font-family="Helvetica,sans-Serif" font-size="10.00">lib</text>
</a>
</g>
</g>
<!-- dir_3e541d6e814c5579165be0c634c47cf7&#45;&gt;dir_97aefd0d527b934f1d99a682da8fe6a9 -->
<g id="edge3" class="edge"><title>dir_3e541d6e814c5579165be0c634c47cf7&#45;&gt;dir_97aefd0d527b934f1d99a682da8fe6a9</title>
<path fill="none" stroke="black" d="M61.9101,-71.6966C65.5527,-63.7284 69.9545,-54.0995 73.9935,-45.2641"/>
<polygon fill="black" stroke="black" points="77.2064,-46.6543 78.1809,-36.1043 70.8401,-43.7439 77.2064,-46.6543"/>
<g id="a_edge3&#45;headlabel"><a xlink:href="dir_000001_000007.html" target="_top" xlink:title="5">
<text text-anchor="middle" x="78.2942" y="-48.6039" font-family="Helvetica,sans-Serif" font-size="10.00">5</text>
</a>
</g>
</g>
<!-- dir_ff08913ff6265c10211fca5a85bdc8d2 -->
<g id="node3" class="node"><title>dir_ff08913ff6265c10211fca5a85bdc8d2</title>
<g id="a_node3"><a xlink:href="dir_ff08913ff6265c10211fca5a85bdc8d2.html" target="_top" xlink:title="hardwareTest">
<polygon fill="white" stroke="red" points="96,-180 16,-180 16,-144 96,-144 96,-180"/>
<text text-anchor="middle" x="56" y="-159.5" font-family="Helvetica,sans-Serif" font-size="10.00">hardwareTest</text>
</a>
</g>
</g>
<!-- dir_ff08913ff6265c10211fca5a85bdc8d2&#45;&gt;dir_3e541d6e814c5579165be0c634c47cf7 -->
<g id="edge1" class="edge"><title>dir_ff08913ff6265c10211fca5a85bdc8d2&#45;&gt;dir_3e541d6e814c5579165be0c634c47cf7</title>
<path fill="none" stroke="black" d="M55.5056,-143.697C55.2852,-135.983 55.0204,-126.712 54.7746,-118.112"/>
<polygon fill="black" stroke="black" points="58.273,-118 54.4887,-108.104 51.2758,-118.2 58.273,-118"/>
<g id="a_edge1&#45;headlabel"><a xlink:href="dir_000003_000001.html" target="_top" xlink:title="10">
<text text-anchor="middle" x="61.2136" y="-119.012" font-family="Helvetica,sans-Serif" font-size="10.00">10</text>
</a>
</g>
</g>
<!-- dir_ff08913ff6265c10211fca5a85bdc8d2&#45;&gt;dir_97aefd0d527b934f1d99a682da8fe6a9 -->
<g id="edge2" class="edge"><title>dir_ff08913ff6265c10211fca5a85bdc8d2&#45;&gt;dir_97aefd0d527b934f1d99a682da8fe6a9</title>
<path fill="none" stroke="black" d="M75.4737,-143.918C84.8208,-134.403 95.0459,-121.723 100,-108 107.271,-87.8599 102.762,-63.8098 96.993,-45.7904"/>
<polygon fill="black" stroke="black" points="100.244,-44.4839 93.6279,-36.2085 93.6392,-46.8033 100.244,-44.4839"/>
<g id="a_edge2&#45;headlabel"><a xlink:href="dir_000003_000007.html" target="_top" xlink:title="18">
<text text-anchor="middle" x="104.114" y="-44.4347" font-family="Helvetica,sans-Serif" font-size="10.00">18</text>
</a>
</g>
</g>
</g>
</svg>
