<?xml version="1.0" encoding="UTF-8" standalone="no"?>
<!DOCTYPE svg PUBLIC "-//W3C//DTD SVG 1.1//EN"
 "http://www.w3.org/Graphics/SVG/1.1/DTD/svg11.dtd">
<!-- Generated by graphviz version 2.38.0 (20140413.2041)
 -->
<!-- Title: lib/carpi/src Pages: 1 -->
<svg width="294pt" height="303pt"
 viewBox="0.00 0.00 294.00 303.00" xmlns="http://www.w3.org/2000/svg" xmlns:xlink="http://www.w3.org/1999/xlink">
<g id="graph0" class="graph" transform="scale(1 1) rotate(0) translate(4 299)">
<title>lib/carpi/src</title>
<polygon fill="white" stroke="none" points="-4,4 -4,-299 290,-299 290,4 -4,4"/>
<g id="clust1" class="cluster"><title>clusterdir_8abc5adb3954e2c705782810422567dd</title>
<g id="a_clust1"><a xlink:href="dir_8abc5adb3954e2c705782810422567dd.html" target="_top" xlink:title="carpi">
<polygon fill="#ddddee" stroke="black" points="8,-56 8,-287 278,-287 278,-56 8,-56"/>
<text text-anchor="middle" x="143" y="-275" font-family="Helvetica,sans-Serif" font-size="10.00">carpi</text>
</a>
</g>
</g>
<g id="clust2" class="cluster"><title>clusterdir_9f1b2df1a73c72454ed24c30e17e9fb0</title>
<g id="a_clust2"><a xlink:href="dir_9f1b2df1a73c72454ed24c30e17e9fb0.html" target="_top">
<polygon fill="#eeeeff" stroke="black" points="16,-64 16,-260 270,-260 270,-64 16,-64"/>
</a>
</g>
</g>
<!-- dir_9f1b2df1a73c72454ed24c30e17e9fb0 -->
<g id="node1" class="node"><title>dir_9f1b2df1a73c72454ed24c30e17e9fb0</title>
<text text-anchor="middle" x="235" y="-231.5" font-family="Helvetica,sans-Serif" font-size="10.00">src</text>
</g>
<!-- dir_d69ee1dad79c3f250af3dd434c215ea7 -->
<g id="node2" class="node"><title>dir_d69ee1dad79c3f250af3dd434c215ea7</title>
<g id="a_node2"><a xlink:href="dir_d69ee1dad79c3f250af3dd434c215ea7.html" target="_top" xlink:title="communication">
<polygon fill="white" stroke="black" points="189.5,-252 98.5,-252 98.5,-216 189.5,-216 189.5,-252"/>
<text text-anchor="middle" x="144" y="-231.5" font-family="Helvetica,sans-Serif" font-size="10.00">communication</text>
</a>
</g>
</g>
<!-- dir_8337518d9ebdf5c8cf630c74e469df69 -->
<g id="node3" class="node"><title>dir_8337518d9ebdf5c8cf630c74e469df69</title>
<g id="a_node3"><a xlink:href="dir_8337518d9ebdf5c8cf630c74e469df69.html" target="_top" xlink:title="components">
<polygon fill="white" stroke="red" points="159.5,-108 82.5,-108 82.5,-72 159.5,-72 159.5,-108"/>
<text text-anchor="middle" x="121" y="-87.5" font-family="Helvetica,sans-Serif" font-size="10.00">components</text>
</a>
</g>
</g>
<!-- dir_d69ee1dad79c3f250af3dd434c215ea7&#45;&gt;dir_8337518d9ebdf5c8cf630c74e469df69 -->
<g id="edge4" class="edge"><title>dir_d69ee1dad79c3f250af3dd434c215ea7&#45;&gt;dir_8337518d9ebdf5c8cf630c74e469df69</title>
<path fill="none" stroke="black" d="M131.4,-215.933C127.478,-205.603 124.159,-192.126 122,-180 118.343,-159.464 115.773,-136.01 115.45,-118.336"/>
<polygon fill="black" stroke="black" points="118.951,-118.19 115.549,-108.156 111.952,-118.121 118.951,-118.19"/>
<g id="a_edge4&#45;headlabel"><a xlink:href="dir_000023_000024.html" target="_top" xlink:title="3">
<text text-anchor="middle" x="121.755" y="-119.312" font-family="Helvetica,sans-Serif" font-size="10.00">3</text>
</a>
</g>
</g>
<!-- dir_f639c376628dea03a18f8c749703dfac -->
<g id="node4" class="node"><title>dir_f639c376628dea03a18f8c749703dfac</title>
<g id="a_node4"><a xlink:href="dir_f639c376628dea03a18f8c749703dfac.html" target="_top" xlink:title="runable">
<polygon fill="white" stroke="red" points="194,-180 140,-180 140,-144 194,-144 194,-180"/>
<text text-anchor="middle" x="167" y="-159.5" font-family="Helvetica,sans-Serif" font-size="10.00">runable</text>
</a>
</g>
</g>
<!-- dir_d69ee1dad79c3f250af3dd434c215ea7&#45;&gt;dir_f639c376628dea03a18f8c749703dfac -->
<g id="edge3" class="edge"><title>dir_d69ee1dad79c3f250af3dd434c215ea7&#45;&gt;dir_f639c376628dea03a18f8c749703dfac</title>
<path fill="none" stroke="black" d="M143.77,-215.697C145.547,-207.813 148.452,-198.304 151.706,-189.546"/>
<polygon fill="black" stroke="black" points="155.018,-190.689 155.485,-180.104 148.52,-188.088 155.018,-190.689"/>
<g id="a_edge3&#45;headlabel"><a xlink:href="dir_000023_000029.html" target="_top" xlink:title="2">
<text text-anchor="middle" x="156.319" y="-192.581" font-family="Helvetica,sans-Serif" font-size="10.00">2</text>
</a>
</g>
</g>
<!-- dir_8337518d9ebdf5c8cf630c74e469df69&#45;&gt;dir_d69ee1dad79c3f250af3dd434c215ea7 -->
<g id="edge6" class="edge"><title>dir_8337518d9ebdf5c8cf630c74e469df69&#45;&gt;dir_d69ee1dad79c3f250af3dd434c215ea7</title>
<path fill="none" stroke="black" d="M128.988,-108.156C132.753,-126.148 135.584,-155.201 140,-180 141.518,-188.526 143.609,-197.72 145.261,-206.019"/>
<polygon fill="black" stroke="black" points="141.83,-206.71 147.043,-215.933 148.719,-205.472 141.83,-206.71"/>
<g id="a_edge6&#45;headlabel"><a xlink:href="dir_000024_000023.html" target="_top" xlink:title="9">
<text text-anchor="middle" x="138.399" y="-201.174" font-family="Helvetica,sans-Serif" font-size="10.00">9</text>
</a>
</g>
</g>
<!-- dir_8e74068b69cf999946bec30f6b9bbe53 -->
<g id="node6" class="node"><title>dir_8e74068b69cf999946bec30f6b9bbe53</title>
<g id="a_node6"><a xlink:href="dir_8e74068b69cf999946bec30f6b9bbe53.html" target="_top" xlink:title="lib">
<polygon fill="white" stroke="red" points="148,-36 94,-36 94,-0 148,-0 148,-36"/>
<text text-anchor="middle" x="121" y="-15.5" font-family="Helvetica,sans-Serif" font-size="10.00">lib</text>
</a>
</g>
</g>
<!-- dir_8337518d9ebdf5c8cf630c74e469df69&#45;&gt;dir_8e74068b69cf999946bec30f6b9bbe53 -->
<g id="edge5" class="edge"><title>dir_8337518d9ebdf5c8cf630c74e469df69&#45;&gt;dir_8e74068b69cf999946bec30f6b9bbe53</title>
<path fill="none" stroke="black" d="M121,-71.6966C121,-63.9827 121,-54.7125 121,-46.1124"/>
<polygon fill="black" stroke="black" points="124.5,-46.1043 121,-36.1043 117.5,-46.1044 124.5,-46.1043"/>
<g id="a_edge5&#45;headlabel"><a xlink:href="dir_000024_000012.html" target="_top" xlink:title="2">
<text text-anchor="middle" x="127.339" y="-47.199" font-family="Helvetica,sans-Serif" font-size="10.00">2</text>
</a>
</g>
</g>
<!-- dir_f639c376628dea03a18f8c749703dfac&#45;&gt;dir_d69ee1dad79c3f250af3dd434c215ea7 -->
<g id="edge1" class="edge"><title>dir_f639c376628dea03a18f8c749703dfac&#45;&gt;dir_d69ee1dad79c3f250af3dd434c215ea7</title>
<path fill="none" stroke="black" d="M167.275,-180.104C165.517,-187.96 162.624,-197.462 159.376,-206.232"/>
<polygon fill="black" stroke="black" points="156.055,-205.112 155.601,-215.697 162.557,-207.705 156.055,-205.112"/>
<g id="a_edge1&#45;headlabel"><a xlink:href="dir_000029_000023.html" target="_top" xlink:title="3">
<text text-anchor="middle" x="154.75" y="-198.221" font-family="Helvetica,sans-Serif" font-size="10.00">3</text>
</a>
</g>
</g>
<!-- dir_f639c376628dea03a18f8c749703dfac&#45;&gt;dir_8337518d9ebdf5c8cf630c74e469df69 -->
<g id="edge2" class="edge"><title>dir_f639c376628dea03a18f8c749703dfac&#45;&gt;dir_8337518d9ebdf5c8cf630c74e469df69</title>
<path fill="none" stroke="black" d="M155.629,-143.697C150.282,-135.559 143.796,-125.689 137.889,-116.701"/>
<polygon fill="black" stroke="black" points="140.657,-114.539 132.24,-108.104 134.807,-118.384 140.657,-114.539"/>
<g id="a_edge2&#45;headlabel"><a xlink:href="dir_000029_000024.html" target="_top" xlink:title="21">
<text text-anchor="middle" x="145.004" y="-113.484" font-family="Helvetica,sans-Serif" font-size="10.00">21</text>
</a>
</g>
</g>
<!-- dir_00e139bf007fde4cecf54b4e2a01ad3e -->
<g id="node5" class="node"><title>dir_00e139bf007fde4cecf54b4e2a01ad3e</title>
<g id="a_node5"><a xlink:href="dir_00e139bf007fde4cecf54b4e2a01ad3e.html" target="_top" xlink:title="steroido">
<polygon fill="white" stroke="red" points="80,-252 24,-252 24,-216 80,-216 80,-252"/>
<text text-anchor="middle" x="52" y="-231.5" font-family="Helvetica,sans-Serif" font-size="10.00">steroido</text>
</a>
</g>
</g>
</g>
</svg>
