<?xml version="1.0" encoding="UTF-8" standalone="no"?>
<!DOCTYPE svg PUBLIC "-//W3C//DTD SVG 1.1//EN"
 "http://www.w3.org/Graphics/SVG/1.1/DTD/svg11.dtd">
<!-- Generated by graphviz version 2.38.0 (20140413.2041)
 -->
<!-- Title: lib/carpi/src/runable/services Pages: 1 -->
<svg width="162pt" height="223pt"
 viewBox="0.00 0.00 161.50 223.00" xmlns="http://www.w3.org/2000/svg" xmlns:xlink="http://www.w3.org/1999/xlink">
<g id="graph0" class="graph" transform="scale(1 1) rotate(0) translate(4 219)">
<title>lib/carpi/src/runable/services</title>
<polygon fill="white" stroke="none" points="-4,4 -4,-219 157.5,-219 157.5,4 -4,4"/>
<g id="clust1" class="cluster"><title>clusterdir_f639c376628dea03a18f8c749703dfac</title>
<g id="a_clust1"><a xlink:href="dir_f639c376628dea03a18f8c749703dfac.html" target="_top" xlink:title="runable">
<polygon fill="#ddddee" stroke="black" points="8,-136 8,-207 80,-207 80,-136 8,-136"/>
<text text-anchor="middle" x="44" y="-195" font-family="Helvetica,sans-Serif" font-size="10.00">runable</text>
</a>
</g>
</g>
<!-- dir_b5c865d296ad7bd0e57f9d4ddb17c381 -->
<g id="node1" class="node"><title>dir_b5c865d296ad7bd0e57f9d4ddb17c381</title>
<g id="a_node1"><a xlink:href="dir_b5c865d296ad7bd0e57f9d4ddb17c381.html" target="_top" xlink:title="services">
<polygon fill="#eeeeff" stroke="black" points="72,-180 16,-180 16,-144 72,-144 72,-180"/>
<text text-anchor="middle" x="44" y="-159.5" font-family="Helvetica,sans-Serif" font-size="10.00">services</text>
</a>
</g>
</g>
<!-- dir_d69ee1dad79c3f250af3dd434c215ea7 -->
<g id="node2" class="node"><title>dir_d69ee1dad79c3f250af3dd434c215ea7</title>
<g id="a_node2"><a xlink:href="dir_d69ee1dad79c3f250af3dd434c215ea7.html" target="_top" xlink:title="communication">
<polygon fill="none" stroke="black" points="128.5,-108 37.5,-108 37.5,-72 128.5,-72 128.5,-108"/>
<text text-anchor="middle" x="83" y="-87.5" font-family="Helvetica,sans-Serif" font-size="10.00">communication</text>
</a>
</g>
</g>
<!-- dir_b5c865d296ad7bd0e57f9d4ddb17c381&#45;&gt;dir_d69ee1dad79c3f250af3dd434c215ea7 -->
<g id="edge5" class="edge"><title>dir_b5c865d296ad7bd0e57f9d4ddb17c381&#45;&gt;dir_d69ee1dad79c3f250af3dd434c215ea7</title>
<path fill="none" stroke="black" d="M53.6405,-143.697C58.1271,-135.644 63.5588,-125.894 68.5241,-116.982"/>
<polygon fill="black" stroke="black" points="71.6609,-118.544 73.4704,-108.104 65.5459,-115.137 71.6609,-118.544"/>
<g id="a_edge5&#45;headlabel"><a xlink:href="dir_000031_000023.html" target="_top" xlink:title="2">
<text text-anchor="middle" x="72.3917" y="-120.565" font-family="Helvetica,sans-Serif" font-size="10.00">2</text>
</a>
</g>
</g>
<!-- dir_81c39652c91038c556591c5f9ea4b7c4 -->
<g id="node3" class="node"><title>dir_81c39652c91038c556591c5f9ea4b7c4</title>
<g id="a_node3"><a xlink:href="dir_81c39652c91038c556591c5f9ea4b7c4.html" target="_top" xlink:title="programs">
<polygon fill="none" stroke="black" points="153.5,-180 90.5,-180 90.5,-144 153.5,-144 153.5,-180"/>
<text text-anchor="middle" x="122" y="-159.5" font-family="Helvetica,sans-Serif" font-size="10.00">programs</text>
</a>
</g>
</g>
<!-- dir_b5c865d296ad7bd0e57f9d4ddb17c381&#45;&gt;dir_81c39652c91038c556591c5f9ea4b7c4 -->
<g id="edge6" class="edge"><title>dir_b5c865d296ad7bd0e57f9d4ddb17c381&#45;&gt;dir_81c39652c91038c556591c5f9ea4b7c4</title>
<path fill="none" stroke="black" d="M72.0312,-162C74.8025,-162 77.5738,-162 80.3451,-162"/>
<polygon fill="black" stroke="black" points="80.3792,-165.5 90.3792,-162 80.3791,-158.5 80.3792,-165.5"/>
<g id="a_edge6&#45;headlabel"><a xlink:href="dir_000031_000030.html" target="_top" xlink:title="2">
<text text-anchor="middle" x="76.7845" y="-165.839" font-family="Helvetica,sans-Serif" font-size="10.00">2</text>
</a>
</g>
</g>
<!-- dir_8337518d9ebdf5c8cf630c74e469df69 -->
<g id="node4" class="node"><title>dir_8337518d9ebdf5c8cf630c74e469df69</title>
<g id="a_node4"><a xlink:href="dir_8337518d9ebdf5c8cf630c74e469df69.html" target="_top" xlink:title="components">
<polygon fill="white" stroke="red" points="121.5,-36 44.5,-36 44.5,-0 121.5,-0 121.5,-36"/>
<text text-anchor="middle" x="83" y="-15.5" font-family="Helvetica,sans-Serif" font-size="10.00">components</text>
</a>
</g>
</g>
<!-- dir_b5c865d296ad7bd0e57f9d4ddb17c381&#45;&gt;dir_8337518d9ebdf5c8cf630c74e469df69 -->
<g id="edge7" class="edge"><title>dir_b5c865d296ad7bd0e57f9d4ddb17c381&#45;&gt;dir_8337518d9ebdf5c8cf630c74e469df69</title>
<path fill="none" stroke="black" d="M35.3834,-143.959C27.3268,-125.556 17.9274,-95.6944 28,-72 32.7347,-60.8623 41.0838,-50.9298 49.8684,-42.7587"/>
<polygon fill="black" stroke="black" points="52.3523,-45.2377 57.6205,-36.0455 47.7698,-39.9461 52.3523,-45.2377"/>
<g id="a_edge7&#45;headlabel"><a xlink:href="dir_000031_000024.html" target="_top" xlink:title="7">
<text text-anchor="middle" x="51.4937" y="-47.2372" font-family="Helvetica,sans-Serif" font-size="10.00">7</text>
</a>
</g>
</g>
<!-- dir_d69ee1dad79c3f250af3dd434c215ea7&#45;&gt;dir_8337518d9ebdf5c8cf630c74e469df69 -->
<g id="edge1" class="edge"><title>dir_d69ee1dad79c3f250af3dd434c215ea7&#45;&gt;dir_8337518d9ebdf5c8cf630c74e469df69</title>
<path fill="none" stroke="black" d="M77.0843,-71.6966C76.2886,-63.9827 76.0621,-54.7125 76.4047,-46.1124"/>
<polygon fill="black" stroke="black" points="79.8984,-46.3243 77.105,-36.1043 72.9154,-45.8356 79.8984,-46.3243"/>
<g id="a_edge1&#45;headlabel"><a xlink:href="dir_000023_000024.html" target="_top" xlink:title="3">
<text text-anchor="middle" x="82.4799" y="-47.6083" font-family="Helvetica,sans-Serif" font-size="10.00">3</text>
</a>
</g>
</g>
<!-- dir_81c39652c91038c556591c5f9ea4b7c4&#45;&gt;dir_b5c865d296ad7bd0e57f9d4ddb17c381 -->
<g id="edge3" class="edge"><title>dir_81c39652c91038c556591c5f9ea4b7c4&#45;&gt;dir_b5c865d296ad7bd0e57f9d4ddb17c381</title>
<path fill="none" stroke="black" d="M90.3792,-162C87.6079,-162 84.8366,-162 82.0653,-162"/>
<polygon fill="black" stroke="black" points="82.0313,-158.5 72.0312,-162 82.0312,-165.5 82.0313,-158.5"/>
<g id="a_edge3&#45;headlabel"><a xlink:href="dir_000030_000031.html" target="_top" xlink:title="4">
<text text-anchor="middle" x="85.6259" y="-153.161" font-family="Helvetica,sans-Serif" font-size="10.00">4</text>
</a>
</g>
</g>
<!-- dir_81c39652c91038c556591c5f9ea4b7c4&#45;&gt;dir_d69ee1dad79c3f250af3dd434c215ea7 -->
<g id="edge2" class="edge"><title>dir_81c39652c91038c556591c5f9ea4b7c4&#45;&gt;dir_d69ee1dad79c3f250af3dd434c215ea7</title>
<path fill="none" stroke="black" d="M112.36,-143.697C107.873,-135.644 102.441,-125.894 97.4759,-116.982"/>
<polygon fill="black" stroke="black" points="100.454,-115.137 92.5296,-108.104 94.3391,-118.544 100.454,-115.137"/>
<g id="a_edge2&#45;headlabel"><a xlink:href="dir_000030_000023.html" target="_top" xlink:title="1">
<text text-anchor="middle" x="104.684" y="-114.395" font-family="Helvetica,sans-Serif" font-size="10.00">1</text>
</a>
</g>
</g>
<!-- dir_81c39652c91038c556591c5f9ea4b7c4&#45;&gt;dir_8337518d9ebdf5c8cf630c74e469df69 -->
<g id="edge4" class="edge"><title>dir_81c39652c91038c556591c5f9ea4b7c4&#45;&gt;dir_8337518d9ebdf5c8cf630c74e469df69</title>
<path fill="none" stroke="black" d="M130.617,-143.959C138.673,-125.556 148.073,-95.6944 138,-72 133.265,-60.8623 124.916,-50.9298 116.132,-42.7587"/>
<polygon fill="black" stroke="black" points="118.23,-39.9461 108.38,-36.0455 113.648,-45.2377 118.23,-39.9461"/>
<g id="a_edge4&#45;headlabel"><a xlink:href="dir_000030_000024.html" target="_top" xlink:title="13">
<text text-anchor="middle" x="122.806" y="-37.6529" font-family="Helvetica,sans-Serif" font-size="10.00">13</text>
</a>
</g>
</g>
<!-- dir_8337518d9ebdf5c8cf630c74e469df69&#45;&gt;dir_d69ee1dad79c3f250af3dd434c215ea7 -->
<g id="edge8" class="edge"><title>dir_8337518d9ebdf5c8cf630c74e469df69&#45;&gt;dir_d69ee1dad79c3f250af3dd434c215ea7</title>
<path fill="none" stroke="black" d="M88.895,-36.1043C89.7005,-43.7913 89.9369,-53.0537 89.604,-61.6651"/>
<polygon fill="black" stroke="black" points="86.1085,-61.4805 88.9157,-71.6966 93.0921,-61.9597 86.1085,-61.4805"/>
<g id="a_edge8&#45;headlabel"><a xlink:href="dir_000024_000023.html" target="_top" xlink:title="9">
<text text-anchor="middle" x="83.5219" y="-55.2" font-family="Helvetica,sans-Serif" font-size="10.00">9</text>
</a>
</g>
</g>
</g>
</svg>
