<?xml version="1.0" encoding="UTF-8" standalone="no"?>
<!DOCTYPE svg PUBLIC "-//W3C//DTD SVG 1.1//EN"
 "http://www.w3.org/Graphics/SVG/1.1/DTD/svg11.dtd">
<!-- Generated by graphviz version 2.38.0 (20140413.2041)
 -->
<!-- Title: car/hardwareTest/mbed Pages: 1 -->
<svg width="184pt" height="231pt"
 viewBox="0.00 0.00 184.00 231.00" xmlns="http://www.w3.org/2000/svg" xmlns:xlink="http://www.w3.org/1999/xlink">
<g id="graph0" class="graph" transform="scale(1 1) rotate(0) translate(4 227)">
<title>car/hardwareTest/mbed</title>
<polygon fill="white" stroke="none" points="-4,4 -4,-227 180,-227 180,4 -4,4"/>
<g id="clust1" class="cluster"><title>clusterdir_ff08913ff6265c10211fca5a85bdc8d2</title>
<g id="a_clust1"><a xlink:href="dir_ff08913ff6265c10211fca5a85bdc8d2.html" target="_top" xlink:title="hardwareTest">
<polygon fill="#ddddee" stroke="black" points="8,-56 8,-215 94,-215 94,-56 8,-56"/>
<text text-anchor="middle" x="51" y="-203" font-family="Helvetica,sans-Serif" font-size="10.00">hardwareTest</text>
</a>
</g>
</g>
<g id="clust2" class="cluster"><title>clusterdir_629b8d3ad1e31817781dd53b3d433ceb</title>
<g id="a_clust2"><a xlink:href="dir_629b8d3ad1e31817781dd53b3d433ceb.html" target="_top">
<polygon fill="#eeeeff" stroke="black" points="16,-64 16,-188 86,-188 86,-64 16,-64"/>
</a>
</g>
</g>
<!-- dir_629b8d3ad1e31817781dd53b3d433ceb -->
<g id="node1" class="node"><title>dir_629b8d3ad1e31817781dd53b3d433ceb</title>
<text text-anchor="middle" x="51" y="-159.5" font-family="Helvetica,sans-Serif" font-size="10.00">mbed</text>
</g>
<!-- dir_568fa4e5c32ff5da6b11b5c2bfea4064 -->
<g id="node2" class="node"><title>dir_568fa4e5c32ff5da6b11b5c2bfea4064</title>
<g id="a_node2"><a xlink:href="dir_568fa4e5c32ff5da6b11b5c2bfea4064.html" target="_top" xlink:title="helper">
<polygon fill="white" stroke="black" points="78,-108 24,-108 24,-72 78,-72 78,-108"/>
<text text-anchor="middle" x="51" y="-87.5" font-family="Helvetica,sans-Serif" font-size="10.00">helper</text>
</a>
</g>
</g>
<!-- dir_629b8d3ad1e31817781dd53b3d433ceb&#45;&gt;dir_568fa4e5c32ff5da6b11b5c2bfea4064 -->
<g id="edge1" class="edge"><title>dir_629b8d3ad1e31817781dd53b3d433ceb&#45;&gt;dir_568fa4e5c32ff5da6b11b5c2bfea4064</title>
<path fill="none" stroke="black" d="M51,-143.697C51,-135.983 51,-126.712 51,-118.112"/>
<polygon fill="black" stroke="black" points="54.5001,-118.104 51,-108.104 47.5001,-118.104 54.5001,-118.104"/>
<g id="a_edge1&#45;headlabel"><a xlink:href="dir_000005_000006.html" target="_top" xlink:title="5">
<text text-anchor="middle" x="57.3393" y="-119.199" font-family="Helvetica,sans-Serif" font-size="10.00">5</text>
</a>
</g>
</g>
<!-- dir_3e541d6e814c5579165be0c634c47cf7 -->
<g id="node3" class="node"><title>dir_3e541d6e814c5579165be0c634c47cf7</title>
<g id="a_node3"><a xlink:href="dir_3e541d6e814c5579165be0c634c47cf7.html" target="_top" xlink:title="Bonnie2019">
<polygon fill="white" stroke="red" points="176,-108 102,-108 102,-72 176,-72 176,-108"/>
<text text-anchor="middle" x="139" y="-87.5" font-family="Helvetica,sans-Serif" font-size="10.00">Bonnie2019</text>
</a>
</g>
</g>
<!-- dir_629b8d3ad1e31817781dd53b3d433ceb&#45;&gt;dir_3e541d6e814c5579165be0c634c47cf7 -->
<g id="edge2" class="edge"><title>dir_629b8d3ad1e31817781dd53b3d433ceb&#45;&gt;dir_3e541d6e814c5579165be0c634c47cf7</title>
<path fill="none" stroke="black" d="M72.7528,-143.697C83.8357,-134.881 97.474,-124.032 109.49,-114.474"/>
<polygon fill="black" stroke="black" points="111.85,-117.069 117.497,-108.104 107.493,-111.59 111.85,-117.069"/>
<g id="a_edge2&#45;headlabel"><a xlink:href="dir_000005_000001.html" target="_top" xlink:title="7">
<text text-anchor="middle" x="110.805" y="-119.028" font-family="Helvetica,sans-Serif" font-size="10.00">7</text>
</a>
</g>
</g>
<!-- dir_97aefd0d527b934f1d99a682da8fe6a9 -->
<g id="node4" class="node"><title>dir_97aefd0d527b934f1d99a682da8fe6a9</title>
<g id="a_node4"><a xlink:href="dir_97aefd0d527b934f1d99a682da8fe6a9.html" target="_top" xlink:title="lib">
<polygon fill="white" stroke="red" points="122,-36 68,-36 68,-0 122,-0 122,-36"/>
<text text-anchor="middle" x="95" y="-15.5" font-family="Helvetica,sans-Serif" font-size="10.00">lib</text>
</a>
</g>
</g>
<!-- dir_568fa4e5c32ff5da6b11b5c2bfea4064&#45;&gt;dir_97aefd0d527b934f1d99a682da8fe6a9 -->
<g id="edge3" class="edge"><title>dir_568fa4e5c32ff5da6b11b5c2bfea4064&#45;&gt;dir_97aefd0d527b934f1d99a682da8fe6a9</title>
<path fill="none" stroke="black" d="M61.8764,-71.6966C66.9916,-63.5589 73.1955,-53.689 78.8449,-44.7013"/>
<polygon fill="black" stroke="black" points="81.8902,-46.4333 84.2487,-36.1043 75.9637,-42.7081 81.8902,-46.4333"/>
<g id="a_edge3&#45;headlabel"><a xlink:href="dir_000006_000007.html" target="_top" xlink:title="2">
<text text-anchor="middle" x="82.3811" y="-48.4876" font-family="Helvetica,sans-Serif" font-size="10.00">2</text>
</a>
</g>
</g>
<!-- dir_3e541d6e814c5579165be0c634c47cf7&#45;&gt;dir_97aefd0d527b934f1d99a682da8fe6a9 -->
<g id="edge4" class="edge"><title>dir_3e541d6e814c5579165be0c634c47cf7&#45;&gt;dir_97aefd0d527b934f1d99a682da8fe6a9</title>
<path fill="none" stroke="black" d="M128.124,-71.6966C123.008,-63.5589 116.805,-53.689 111.155,-44.7013"/>
<polygon fill="black" stroke="black" points="114.036,-42.7081 105.751,-36.1043 108.11,-46.4333 114.036,-42.7081"/>
<g id="a_edge4&#45;headlabel"><a xlink:href="dir_000001_000007.html" target="_top" xlink:title="5">
<text text-anchor="middle" x="118.353" y="-41.7405" font-family="Helvetica,sans-Serif" font-size="10.00">5</text>
</a>
</g>
</g>
</g>
</svg>
