<?xml version="1.0" encoding="UTF-8" standalone="no"?>
<!DOCTYPE svg PUBLIC "-//W3C//DTD SVG 1.1//EN"
 "http://www.w3.org/Graphics/SVG/1.1/DTD/svg11.dtd">
<!-- Generated by graphviz version 2.38.0 (20140413.2041)
 -->
<!-- Title: test/common_test_Sync Pages: 1 -->
<svg width="152pt" height="151pt"
 viewBox="0.00 0.00 152.00 151.00" xmlns="http://www.w3.org/2000/svg" xmlns:xlink="http://www.w3.org/1999/xlink">
<g id="graph0" class="graph" transform="scale(1 1) rotate(0) translate(4 147)">
<title>test/common_test_Sync</title>
<polygon fill="white" stroke="none" points="-4,4 -4,-147 148,-147 148,4 -4,4"/>
<g id="clust1" class="cluster"><title>clusterdir_13e138d54eb8818da29c3992edef070a</title>
<g id="a_clust1"><a xlink:href="dir_13e138d54eb8818da29c3992edef070a.html" target="_top" xlink:title="test">
<polygon fill="#ddddee" stroke="black" points="8,-64 8,-135 136,-135 136,-64 8,-64"/>
<text text-anchor="middle" x="72" y="-123" font-family="Helvetica,sans-Serif" font-size="10.00">test</text>
</a>
</g>
</g>
<!-- dir_de3480ba266432d75f7352d2e893c4ca -->
<g id="node1" class="node"><title>dir_de3480ba266432d75f7352d2e893c4ca</title>
<g id="a_node1"><a xlink:href="dir_de3480ba266432d75f7352d2e893c4ca.html" target="_top" xlink:title="common_test_Sync">
<polygon fill="#eeeeff" stroke="black" points="128,-108 16,-108 16,-72 128,-72 128,-108"/>
<text text-anchor="middle" x="72" y="-87.5" font-family="Helvetica,sans-Serif" font-size="10.00">common_test_Sync</text>
</a>
</g>
</g>
<!-- dir_97aefd0d527b934f1d99a682da8fe6a9 -->
<g id="node2" class="node"><title>dir_97aefd0d527b934f1d99a682da8fe6a9</title>
<g id="a_node2"><a xlink:href="dir_97aefd0d527b934f1d99a682da8fe6a9.html" target="_top" xlink:title="lib">
<polygon fill="white" stroke="red" points="99,-36 45,-36 45,-0 99,-0 99,-36"/>
<text text-anchor="middle" x="72" y="-15.5" font-family="Helvetica,sans-Serif" font-size="10.00">lib</text>
</a>
</g>
</g>
<!-- dir_de3480ba266432d75f7352d2e893c4ca&#45;&gt;dir_97aefd0d527b934f1d99a682da8fe6a9 -->
<g id="edge1" class="edge"><title>dir_de3480ba266432d75f7352d2e893c4ca&#45;&gt;dir_97aefd0d527b934f1d99a682da8fe6a9</title>
<path fill="none" stroke="black" d="M72,-71.6966C72,-63.9827 72,-54.7125 72,-46.1124"/>
<polygon fill="black" stroke="black" points="75.5001,-46.1043 72,-36.1043 68.5001,-46.1044 75.5001,-46.1043"/>
<g id="a_edge1&#45;headlabel"><a xlink:href="dir_000047_000007.html" target="_top" xlink:title="4">
<text text-anchor="middle" x="78.3393" y="-47.199" font-family="Helvetica,sans-Serif" font-size="10.00">4</text>
</a>
</g>
</g>
</g>
</svg>
