<?xml version="1.0" encoding="UTF-8" standalone="no"?>
<!DOCTYPE svg PUBLIC "-//W3C//DTD SVG 1.1//EN"
 "http://www.w3.org/Graphics/SVG/1.1/DTD/svg11.dtd">
<!-- Generated by graphviz version 2.38.0 (20140413.2041)
 -->
<!-- Title: lib/carpi/src/components Pages: 1 -->
<!--zoomable 183 -->
<svg id="main" version="1.1" xmlns="http://www.w3.org/2000/svg" xmlns:xlink="http://www.w3.org/1999/xlink" xml:space="preserve" onload="init(evt)">
<style type="text/css"><![CDATA[
.edge:hover path { stroke: red; }
.edge:hover polygon { stroke: red; fill: red; }
]]></style>
<script type="text/javascript"><![CDATA[
var edges = document.getElementsByTagName('g');
if (edges && edges.length) {
  for (var i=0;i<edges.length;i++) {
    if (edges[i].id.substr(0,4)=='edge') {
      edges[i].setAttribute('class','edge');
    }
  }
}
]]></script>
        <defs>
                <circle id="rim" cx="0" cy="0" r="7"/>
                <circle id="rim2" cx="0" cy="0" r="3.5"/>
                <g id="zoomPlus">
                        <use xlink:href="#rim" fill="#404040">
                                <set attributeName="fill" to="#808080" begin="zoomplus.mouseover" end="zoomplus.mouseout"/>
                        </use>
                        <path d="M-4,0h8M0,-4v8" fill="none" stroke="white" stroke-width="1.5" pointer-events="none"/>
                </g>
                <g id="zoomMin">
                        <use xlink:href="#rim" fill="#404040">
                                <set attributeName="fill" to="#808080" begin="zoomminus.mouseover" end="zoomminus.mouseout"/>
                        </use>
                        <path d="M-4,0h8" fill="none" stroke="white" stroke-width="1.5" pointer-events="none"/>
                </g>
                <g id="dirArrow">
                        <path fill="none" stroke="white" stroke-width="1.5" d="M0,-3.0v7 M-2.5,-0.5L0,-3.0L2.5,-0.5"/>
                </g>
               <g id="resetDef">
                       <use xlink:href="#rim2" fill="#404040">
                               <set attributeName="fill" to="#808080" begin="reset.mouseover" end="reset.mouseout"/>
                       </use>
               </g>
        </defs>

<script type="text/javascript">
var viewWidth = 525;
var viewHeight = 183;
var sectionId = 'dynsection-0';
</script>
<script xlink:href="svgpan.js"/>
<svg id="graph" class="graph">
<g id="viewport">
<title>lib/carpi/src/components</title>
<polygon fill="white" stroke="none" points="-4,4 -4,-179 520.5,-179 520.5,4 -4,4"/>
<g id="clust1" class="cluster"><title>clusterdir_9f1b2df1a73c72454ed24c30e17e9fb0</title>
<g id="a_clust1"><a xlink:href="dir_9f1b2df1a73c72454ed24c30e17e9fb0.html" target="_top" xlink:title="src">
<polygon fill="#ddddee" stroke="black" points="8,-8 8,-167 345,-167 345,-8 8,-8"/>
<text text-anchor="middle" x="176.5" y="-155" font-family="Helvetica,sans-Serif" font-size="10.00">src</text>
</a>
</g>
</g>
<g id="clust2" class="cluster"><title>clusterdir_8337518d9ebdf5c8cf630c74e469df69</title>
<g id="a_clust2"><a xlink:href="dir_8337518d9ebdf5c8cf630c74e469df69.html" target="_top">
<polygon fill="#eeeeff" stroke="black" points="16,-16 16,-140 337,-140 337,-16 16,-16"/>
</a>
</g>
</g>
<!-- dir_8337518d9ebdf5c8cf630c74e469df69 -->
<g id="node1" class="node"><title>dir_8337518d9ebdf5c8cf630c74e469df69</title>
<text text-anchor="middle" x="290" y="-111.5" font-family="Helvetica,sans-Serif" font-size="10.00">components</text>
</g>
<!-- dir_262efc26b75c3a65ab79a45133483bb9 -->
<g id="node2" class="node"><title>dir_262efc26b75c3a65ab79a45133483bb9</title>
<g id="a_node2"><a xlink:href="dir_262efc26b75c3a65ab79a45133483bb9.html" target="_top" xlink:title="hardware">
<polygon fill="white" stroke="black" points="160.5,-132 99.5,-132 99.5,-96 160.5,-96 160.5,-132"/>
<text text-anchor="middle" x="130" y="-111.5" font-family="Helvetica,sans-Serif" font-size="10.00">hardware</text>
</a>
</g>
</g>
<!-- dir_806cf985678c674b01ac4d1257f2de82 -->
<g id="node3" class="node"><title>dir_806cf985678c674b01ac4d1257f2de82</title>
<g id="a_node3"><a xlink:href="dir_806cf985678c674b01ac4d1257f2de82.html" target="_top" xlink:title="interface">
<polygon fill="white" stroke="black" points="197.5,-60 138.5,-60 138.5,-24 197.5,-24 197.5,-60"/>
<text text-anchor="middle" x="168" y="-39.5" font-family="Helvetica,sans-Serif" font-size="10.00">interface</text>
</a>
</g>
</g>
<!-- dir_262efc26b75c3a65ab79a45133483bb9&#45;&gt;dir_806cf985678c674b01ac4d1257f2de82 -->
<g id="edge6" class="edge"><title>dir_262efc26b75c3a65ab79a45133483bb9&#45;&gt;dir_806cf985678c674b01ac4d1257f2de82</title>
<path fill="none" stroke="black" d="M139.393,-95.6966C143.765,-87.6436 149.057,-77.8945 153.895,-68.9824"/>
<polygon fill="black" stroke="black" points="157.02,-70.5627 158.715,-60.1043 150.868,-67.223 157.02,-70.5627"/>
<g id="a_edge6&#45;headlabel"><a xlink:href="dir_000025_000026.html" target="_top" xlink:title="14">
<text text-anchor="middle" x="157.8" y="-72.5764" font-family="Helvetica,sans-Serif" font-size="10.00">14</text>
</a>
</g>
</g>
<!-- dir_8e74068b69cf999946bec30f6b9bbe53 -->
<g id="node6" class="node"><title>dir_8e74068b69cf999946bec30f6b9bbe53</title>
<g id="a_node6"><a xlink:href="dir_8e74068b69cf999946bec30f6b9bbe53.html" target="_top" xlink:title="lib">
<polygon fill="white" stroke="red" points="407,-60 353,-60 353,-24 407,-24 407,-60"/>
<text text-anchor="middle" x="380" y="-39.5" font-family="Helvetica,sans-Serif" font-size="10.00">lib</text>
</a>
</g>
</g>
<!-- dir_262efc26b75c3a65ab79a45133483bb9&#45;&gt;dir_8e74068b69cf999946bec30f6b9bbe53 -->
<g id="edge5" class="edge"><title>dir_262efc26b75c3a65ab79a45133483bb9&#45;&gt;dir_8e74068b69cf999946bec30f6b9bbe53</title>
<path fill="none" stroke="black" d="M160.786,-99.2157C163.869,-98.0471 166.977,-96.9507 170,-96 244.089,-72.7009 267.019,-83.6394 341,-60 341.862,-59.7246 342.731,-59.4366 343.603,-59.1379"/>
<polygon fill="black" stroke="black" points="344.865,-62.4027 352.996,-55.6102 342.404,-55.8496 344.865,-62.4027"/>
<g id="a_edge5&#45;headlabel"><a xlink:href="dir_000025_000012.html" target="_top" xlink:title="2">
<text text-anchor="middle" x="342.499" y="-63.8245" font-family="Helvetica,sans-Serif" font-size="10.00">2</text>
</a>
</g>
</g>
<!-- dir_d69ee1dad79c3f250af3dd434c215ea7 -->
<g id="node7" class="node"><title>dir_d69ee1dad79c3f250af3dd434c215ea7</title>
<g id="a_node7"><a xlink:href="dir_d69ee1dad79c3f250af3dd434c215ea7.html" target="_top" xlink:title="communication">
<polygon fill="none" stroke="black" points="516.5,-60 425.5,-60 425.5,-24 516.5,-24 516.5,-60"/>
<text text-anchor="middle" x="471" y="-39.5" font-family="Helvetica,sans-Serif" font-size="10.00">communication</text>
</a>
</g>
</g>
<!-- dir_806cf985678c674b01ac4d1257f2de82&#45;&gt;dir_d69ee1dad79c3f250af3dd434c215ea7 -->
<g id="edge4" class="edge"><title>dir_806cf985678c674b01ac4d1257f2de82&#45;&gt;dir_d69ee1dad79c3f250af3dd434c215ea7</title>
<path fill="none" stroke="black" d="M197.846,-54.1361C243.492,-70.9924 333.123,-97.3521 407,-78 417.374,-75.2826 427.84,-70.4642 437.218,-65.2189"/>
<polygon fill="black" stroke="black" points="439.017,-68.2213 445.837,-60.1137 435.449,-62.1985 439.017,-68.2213"/>
<g id="a_edge4&#45;headlabel"><a xlink:href="dir_000026_000023.html" target="_top" xlink:title="8">
<text text-anchor="middle" x="437.371" y="-69.996" font-family="Helvetica,sans-Serif" font-size="10.00">8</text>
</a>
</g>
</g>
<!-- dir_59869a183126d91dcfdee395d683f6e3 -->
<g id="node4" class="node"><title>dir_59869a183126d91dcfdee395d683f6e3</title>
<g id="a_node4"><a xlink:href="dir_59869a183126d91dcfdee395d683f6e3.html" target="_top" xlink:title="internal">
<polygon fill="white" stroke="black" points="233,-132 179,-132 179,-96 233,-96 233,-132"/>
<text text-anchor="middle" x="206" y="-111.5" font-family="Helvetica,sans-Serif" font-size="10.00">internal</text>
</a>
</g>
</g>
<!-- dir_59869a183126d91dcfdee395d683f6e3&#45;&gt;dir_806cf985678c674b01ac4d1257f2de82 -->
<g id="edge2" class="edge"><title>dir_59869a183126d91dcfdee395d683f6e3&#45;&gt;dir_806cf985678c674b01ac4d1257f2de82</title>
<path fill="none" stroke="black" d="M196.607,-95.6966C192.235,-87.6436 186.943,-77.8945 182.105,-68.9824"/>
<polygon fill="black" stroke="black" points="185.132,-67.223 177.285,-60.1043 178.98,-70.5627 185.132,-67.223"/>
<g id="a_edge2&#45;headlabel"><a xlink:href="dir_000027_000026.html" target="_top" xlink:title="2">
<text text-anchor="middle" x="189.342" y="-66.5276" font-family="Helvetica,sans-Serif" font-size="10.00">2</text>
</a>
</g>
</g>
<!-- dir_59869a183126d91dcfdee395d683f6e3&#45;&gt;dir_d69ee1dad79c3f250af3dd434c215ea7 -->
<g id="edge3" class="edge"><title>dir_59869a183126d91dcfdee395d683f6e3&#45;&gt;dir_d69ee1dad79c3f250af3dd434c215ea7</title>
<path fill="none" stroke="black" d="M233.241,-99.3176C236.159,-98.0991 239.116,-96.9642 242,-96 313.972,-71.9416 337.674,-79.0532 415.687,-59.9075"/>
<polygon fill="black" stroke="black" points="416.637,-63.2777 425.477,-57.4386 414.925,-56.4902 416.637,-63.2777"/>
<g id="a_edge3&#45;headlabel"><a xlink:href="dir_000027_000023.html" target="_top" xlink:title="1">
<text text-anchor="middle" x="413.846" y="-64.4097" font-family="Helvetica,sans-Serif" font-size="10.00">1</text>
</a>
</g>
</g>
<!-- dir_28073075f4ef231abd9dc8618e266c8b -->
<g id="node5" class="node"><title>dir_28073075f4ef231abd9dc8618e266c8b</title>
<g id="a_node5"><a xlink:href="dir_28073075f4ef231abd9dc8618e266c8b.html" target="_top" xlink:title="software">
<polygon fill="white" stroke="black" points="81.5,-132 24.5,-132 24.5,-96 81.5,-96 81.5,-132"/>
<text text-anchor="middle" x="53" y="-111.5" font-family="Helvetica,sans-Serif" font-size="10.00">software</text>
</a>
</g>
</g>
<!-- dir_28073075f4ef231abd9dc8618e266c8b&#45;&gt;dir_806cf985678c674b01ac4d1257f2de82 -->
<g id="edge1" class="edge"><title>dir_28073075f4ef231abd9dc8618e266c8b&#45;&gt;dir_806cf985678c674b01ac4d1257f2de82</title>
<path fill="none" stroke="black" d="M81.1322,-95.8761C96.1684,-86.7236 114.867,-75.3417 131.06,-65.485"/>
<polygon fill="black" stroke="black" points="133.038,-68.379 139.76,-60.1898 129.398,-62.3996 133.038,-68.379"/>
<g id="a_edge1&#45;headlabel"><a xlink:href="dir_000028_000026.html" target="_top" xlink:title="5">
<text text-anchor="middle" x="131.443" y="-70.1732" font-family="Helvetica,sans-Serif" font-size="10.00">5</text>
</a>
</g>
</g>
<!-- dir_d69ee1dad79c3f250af3dd434c215ea7&#45;&gt;dir_8337518d9ebdf5c8cf630c74e469df69 -->
<g id="edge8" class="edge"><title>dir_d69ee1dad79c3f250af3dd434c215ea7&#45;&gt;dir_8337518d9ebdf5c8cf630c74e469df69</title>
<path fill="none" stroke="black" d="M426.826,-60.0837C400.016,-70.4523 365.779,-83.6932 338.26,-94.3361"/>
<polygon fill="black" stroke="black" points="336.893,-91.1117 328.829,-97.9832 339.418,-97.6405 336.893,-91.1117"/>
<g id="a_edge8&#45;headlabel"><a xlink:href="dir_000023_000024.html" target="_top" xlink:title="3">
<text text-anchor="middle" x="339.222" y="-84.6671" font-family="Helvetica,sans-Serif" font-size="10.00">3</text>
</a>
</g>
</g>
<!-- dir_d69ee1dad79c3f250af3dd434c215ea7&#45;&gt;dir_806cf985678c674b01ac4d1257f2de82 -->
<g id="edge7" class="edge"><title>dir_d69ee1dad79c3f250af3dd434c215ea7&#45;&gt;dir_806cf985678c674b01ac4d1257f2de82</title>
<path fill="none" stroke="black" d="M445.837,-60.1137C434.539,-67.1698 420.689,-74.4142 407,-78 338.029,-96.067 255.326,-74.2917 207.504,-57.6038"/>
<polygon fill="black" stroke="black" points="208.441,-54.2214 197.846,-54.1361 206.075,-60.8096 208.441,-54.2214"/>
<g id="a_edge7&#45;headlabel"><a xlink:href="dir_000023_000026.html" target="_top" xlink:title="3">
<text text-anchor="middle" x="212.784" y="-50.2638" font-family="Helvetica,sans-Serif" font-size="10.00">3</text>
</a>
</g>
</g>
</g>
</svg>
        <g id="navigator" transform="translate(0 0)" fill="#404254">
                <rect fill="#f2f5e9" fill-opacity="0.5" stroke="#606060" stroke-width=".5" x="0" y="0" width="60" height="60"/>
                <use id="zoomplus" xlink:href="#zoomPlus" x="17" y="9" onmousedown="handleZoom(evt,'in')"/>
                <use id="zoomminus" xlink:href="#zoomMin" x="42" y="9" onmousedown="handleZoom(evt,'out')"/>
                <use id="reset" xlink:href="#resetDef" x="30" y="36" onmousedown="handleReset()"/>
                <g id="arrowUp" xlink:href="#dirArrow" transform="translate(30 24)" onmousedown="handlePan(0,-1)">
                  <use xlink:href="#rim" fill="#404040">
                        <set attributeName="fill" to="#808080" begin="arrowUp.mouseover" end="arrowUp.mouseout"/>
                  </use>
                  <path fill="none" stroke="white" stroke-width="1.5" d="M0,-3.0v7 M-2.5,-0.5L0,-3.0L2.5,-0.5"/>
                </g>
                <g id="arrowRight" xlink:href="#dirArrow" transform="rotate(90) translate(36 -43)" onmousedown="handlePan(1,0)">
                  <use xlink:href="#rim" fill="#404040">
                        <set attributeName="fill" to="#808080" begin="arrowRight.mouseover" end="arrowRight.mouseout"/>
                  </use>
                  <path fill="none" stroke="white" stroke-width="1.5" d="M0,-3.0v7 M-2.5,-0.5L0,-3.0L2.5,-0.5"/>
                </g>
                <g id="arrowDown" xlink:href="#dirArrow" transform="rotate(180) translate(-30 -48)" onmousedown="handlePan(0,1)">
                  <use xlink:href="#rim" fill="#404040">
                        <set attributeName="fill" to="#808080" begin="arrowDown.mouseover" end="arrowDown.mouseout"/>
                  </use>
                  <path fill="none" stroke="white" stroke-width="1.5" d="M0,-3.0v7 M-2.5,-0.5L0,-3.0L2.5,-0.5"/>
                </g>
                <g id="arrowLeft" xlink:href="#dirArrow" transform="rotate(270) translate(-36 17)" onmousedown="handlePan(-1,0)">
                  <use xlink:href="#rim" fill="#404040">
                        <set attributeName="fill" to="#808080" begin="arrowLeft.mouseover" end="arrowLeft.mouseout"/>
                  </use>
                  <path fill="none" stroke="white" stroke-width="1.5" d="M0,-3.0v7 M-2.5,-0.5L0,-3.0L2.5,-0.5"/>
                </g>
        </g>
        <svg viewBox="0 0 15 15" width="100%" height="30px" preserveAspectRatio="xMaxYMin meet">
         <g id="arrow_out" transform="scale(0.3 0.3)">
          <a xlink:href="dir_8337518d9ebdf5c8cf630c74e469df69_dep_org.svg" target="_base">
           <rect id="button" ry="5" rx="5" y="6" x="6" height="38" width="38"
                fill="#f2f5e9" fill-opacity="0.5" stroke="#606060" stroke-width="1.0"/>
           <path id="arrow"
             d="M 11.500037,31.436501 C 11.940474,20.09759 22.043105,11.32322 32.158766,21.979434 L 37.068811,17.246167 C 37.068811,17.246167 37.088388,32 37.088388,32 L 22.160133,31.978069 C 22.160133,31.978069 26.997745,27.140456 26.997745,27.140456 C 18.528582,18.264221 13.291696,25.230495 11.500037,31.436501 z"
             style="fill:#404040;"/>
          </a>
         </g>
        </svg>
</svg>
