<?xml version="1.0" encoding="UTF-8" standalone="no"?>
<!DOCTYPE svg PUBLIC "-//W3C//DTD SVG 1.1//EN"
 "http://www.w3.org/Graphics/SVG/1.1/DTD/svg11.dtd">
<!-- Generated by graphviz version 2.38.0 (20140413.2041)
 -->
<!-- Title: lib/carpi/src/steroido/src Pages: 1 -->
<svg width="304pt" height="183pt"
 viewBox="0.00 0.00 304.00 183.00" xmlns="http://www.w3.org/2000/svg" xmlns:xlink="http://www.w3.org/1999/xlink">
<g id="graph0" class="graph" transform="scale(1 1) rotate(0) translate(4 179)">
<title>lib/carpi/src/steroido/src</title>
<polygon fill="white" stroke="none" points="-4,4 -4,-179 300,-179 300,4 -4,4"/>
<g id="clust1" class="cluster"><title>clusterdir_00e139bf007fde4cecf54b4e2a01ad3e</title>
<g id="a_clust1"><a xlink:href="dir_00e139bf007fde4cecf54b4e2a01ad3e.html" target="_top" xlink:title="steroido">
<polygon fill="#ddddee" stroke="black" points="8,-8 8,-167 288,-167 288,-8 8,-8"/>
<text text-anchor="middle" x="148" y="-155" font-family="Helvetica,sans-Serif" font-size="10.00">steroido</text>
</a>
</g>
</g>
<g id="clust2" class="cluster"><title>clusterdir_4cd30f507b7213ba24c3b7115cfe4042</title>
<g id="a_clust2"><a xlink:href="dir_4cd30f507b7213ba24c3b7115cfe4042.html" target="_top">
<polygon fill="#eeeeff" stroke="black" points="16,-16 16,-140 280,-140 280,-16 16,-16"/>
</a>
</g>
</g>
<!-- dir_4cd30f507b7213ba24c3b7115cfe4042 -->
<g id="node1" class="node"><title>dir_4cd30f507b7213ba24c3b7115cfe4042</title>
<text text-anchor="middle" x="244" y="-111.5" font-family="Helvetica,sans-Serif" font-size="10.00">src</text>
</g>
<!-- dir_689b865dfd5391ba24857908fa524491 -->
<g id="node2" class="node"><title>dir_689b865dfd5391ba24857908fa524491</title>
<g id="a_node2"><a xlink:href="dir_689b865dfd5391ba24857908fa524491.html" target="_top" xlink:title="AbstractionLayer">
<polygon fill="white" stroke="red" points="199,-132 101,-132 101,-96 199,-96 199,-132"/>
<text text-anchor="middle" x="150" y="-111.5" font-family="Helvetica,sans-Serif" font-size="10.00">AbstractionLayer</text>
</a>
</g>
</g>
<!-- dir_e72600e3a96a281888a3fc55d8b8f691 -->
<g id="node3" class="node"><title>dir_e72600e3a96a281888a3fc55d8b8f691</title>
<g id="a_node3"><a xlink:href="dir_e72600e3a96a281888a3fc55d8b8f691.html" target="_top" xlink:title="Common">
<polygon fill="white" stroke="black" points="85.5,-60 24.5,-60 24.5,-24 85.5,-24 85.5,-60"/>
<text text-anchor="middle" x="55" y="-39.5" font-family="Helvetica,sans-Serif" font-size="10.00">Common</text>
</a>
</g>
</g>
<!-- dir_689b865dfd5391ba24857908fa524491&#45;&gt;dir_e72600e3a96a281888a3fc55d8b8f691 -->
<g id="edge1" class="edge"><title>dir_689b865dfd5391ba24857908fa524491&#45;&gt;dir_e72600e3a96a281888a3fc55d8b8f691</title>
<path fill="none" stroke="black" d="M126.517,-95.6966C114.437,-86.796 99.5458,-75.8232 86.4842,-66.1989"/>
<polygon fill="black" stroke="black" points="88.3398,-63.2187 78.213,-60.1043 84.1874,-68.8541 88.3398,-63.2187"/>
<g id="a_edge1&#45;headlabel"><a xlink:href="dir_000032_000035.html" target="_top" xlink:title="1">
<text text-anchor="middle" x="92.9179" y="-60.5652" font-family="Helvetica,sans-Serif" font-size="10.00">1</text>
</a>
</g>
</g>
<!-- dir_49424ba507177705edd7baab1a8b67e8 -->
<g id="node4" class="node"><title>dir_49424ba507177705edd7baab1a8b67e8</title>
<g id="a_node4"><a xlink:href="dir_49424ba507177705edd7baab1a8b67e8.html" target="_top" xlink:title="Communication">
<polygon fill="white" stroke="black" points="196,-60 104,-60 104,-24 196,-24 196,-60"/>
<text text-anchor="middle" x="150" y="-39.5" font-family="Helvetica,sans-Serif" font-size="10.00">Communication</text>
</a>
</g>
</g>
<!-- dir_689b865dfd5391ba24857908fa524491&#45;&gt;dir_49424ba507177705edd7baab1a8b67e8 -->
<g id="edge2" class="edge"><title>dir_689b865dfd5391ba24857908fa524491&#45;&gt;dir_49424ba507177705edd7baab1a8b67e8</title>
<path fill="none" stroke="black" d="M150,-95.6966C150,-87.9827 150,-78.7125 150,-70.1124"/>
<polygon fill="black" stroke="black" points="153.5,-70.1043 150,-60.1043 146.5,-70.1044 153.5,-70.1043"/>
<g id="a_edge2&#45;headlabel"><a xlink:href="dir_000032_000036.html" target="_top" xlink:title="1">
<text text-anchor="middle" x="156.339" y="-71.199" font-family="Helvetica,sans-Serif" font-size="10.00">1</text>
</a>
</g>
</g>
<!-- dir_74fdfba6cf28a24de33c93157f600aaf -->
<g id="node5" class="node"><title>dir_74fdfba6cf28a24de33c93157f600aaf</title>
<g id="a_node5"><a xlink:href="dir_74fdfba6cf28a24de33c93157f600aaf.html" target="_top" xlink:title="Libraries">
<polygon fill="white" stroke="red" points="271.5,-60 214.5,-60 214.5,-24 271.5,-24 271.5,-60"/>
<text text-anchor="middle" x="243" y="-39.5" font-family="Helvetica,sans-Serif" font-size="10.00">Libraries</text>
</a>
</g>
</g>
<!-- dir_689b865dfd5391ba24857908fa524491&#45;&gt;dir_74fdfba6cf28a24de33c93157f600aaf -->
<g id="edge3" class="edge"><title>dir_689b865dfd5391ba24857908fa524491&#45;&gt;dir_74fdfba6cf28a24de33c93157f600aaf</title>
<path fill="none" stroke="black" d="M172.989,-95.6966C184.814,-86.796 199.392,-75.8232 212.179,-66.1989"/>
<polygon fill="black" stroke="black" points="214.391,-68.9145 220.276,-60.1043 210.181,-63.3217 214.391,-68.9145"/>
<g id="a_edge3&#45;headlabel"><a xlink:href="dir_000032_000037.html" target="_top" xlink:title="2">
<text text-anchor="middle" x="213.226" y="-70.8447" font-family="Helvetica,sans-Serif" font-size="10.00">2</text>
</a>
</g>
</g>
<!-- dir_88590d383be65f36d8ccf3cced1698de -->
<g id="node6" class="node"><title>dir_88590d383be65f36d8ccf3cced1698de</title>
<g id="a_node6"><a xlink:href="dir_88590d383be65f36d8ccf3cced1698de.html" target="_top" xlink:title="OS">
<polygon fill="white" stroke="black" points="81,-132 27,-132 27,-96 81,-96 81,-132"/>
<text text-anchor="middle" x="54" y="-111.5" font-family="Helvetica,sans-Serif" font-size="10.00">OS</text>
</a>
</g>
</g>
</g>
</svg>
