<?xml version="1.0" encoding="UTF-8" standalone="no"?>
<!DOCTYPE svg PUBLIC "-//W3C//DTD SVG 1.1//EN"
 "http://www.w3.org/Graphics/SVG/1.1/DTD/svg11.dtd">
<!-- Generated by graphviz version 2.38.0 (20140413.2041)
 -->
<!-- Title: test Pages: 1 -->
<svg width="510pt" height="132pt"
 viewBox="0.00 0.00 510.00 132.00" xmlns="http://www.w3.org/2000/svg" xmlns:xlink="http://www.w3.org/1999/xlink">
<g id="graph0" class="graph" transform="scale(1 1) rotate(0) translate(4 128)">
<title>test</title>
<polygon fill="white" stroke="none" points="-4,4 -4,-128 506,-128 506,4 -4,4"/>
<g id="clust1" class="cluster"><title>clusterdir_13e138d54eb8818da29c3992edef070a</title>
<g id="a_clust1"><a xlink:href="dir_13e138d54eb8818da29c3992edef070a.html" target="_top">
<polygon fill="#eeeeff" stroke="black" points="8,-64 8,-116 494,-116 494,-64 8,-64"/>
</a>
</g>
</g>
<!-- dir_13e138d54eb8818da29c3992edef070a -->
<g id="node1" class="node"><title>dir_13e138d54eb8818da29c3992edef070a</title>
<text text-anchor="middle" x="459" y="-87.5" font-family="Helvetica,sans-Serif" font-size="10.00">test</text>
</g>
<!-- dir_55736a38d75eff31fa03f3357e3ca408 -->
<g id="node2" class="node"><title>dir_55736a38d75eff31fa03f3357e3ca408</title>
<g id="a_node2"><a xlink:href="dir_55736a38d75eff31fa03f3357e3ca408.html" target="_top" xlink:title="common_test_RegistrySync">
<polygon fill="white" stroke="black" points="414.5,-108 265.5,-108 265.5,-72 414.5,-72 414.5,-108"/>
<text text-anchor="middle" x="340" y="-87.5" font-family="Helvetica,sans-Serif" font-size="10.00">common_test_RegistrySync</text>
</a>
</g>
</g>
<!-- dir_97aefd0d527b934f1d99a682da8fe6a9 -->
<g id="node5" class="node"><title>dir_97aefd0d527b934f1d99a682da8fe6a9</title>
<g id="a_node5"><a xlink:href="dir_97aefd0d527b934f1d99a682da8fe6a9.html" target="_top" xlink:title="lib">
<polygon fill="white" stroke="red" points="219,-36 165,-36 165,-0 219,-0 219,-36"/>
<text text-anchor="middle" x="192" y="-15.5" font-family="Helvetica,sans-Serif" font-size="10.00">lib</text>
</a>
</g>
</g>
<!-- dir_55736a38d75eff31fa03f3357e3ca408&#45;&gt;dir_97aefd0d527b934f1d99a682da8fe6a9 -->
<g id="edge3" class="edge"><title>dir_55736a38d75eff31fa03f3357e3ca408&#45;&gt;dir_97aefd0d527b934f1d99a682da8fe6a9</title>
<path fill="none" stroke="black" d="M303.795,-71.8761C280.78,-60.9904 251.097,-46.9511 228.101,-36.0749"/>
<polygon fill="black" stroke="black" points="229.549,-32.8878 219.012,-31.7761 226.556,-39.2157 229.549,-32.8878"/>
<g id="a_edge3&#45;headlabel"><a xlink:href="dir_000046_000007.html" target="_top" xlink:title="6">
<text text-anchor="middle" x="234.012" y="-29.358" font-family="Helvetica,sans-Serif" font-size="10.00">6</text>
</a>
</g>
</g>
<!-- dir_de3480ba266432d75f7352d2e893c4ca -->
<g id="node3" class="node"><title>dir_de3480ba266432d75f7352d2e893c4ca</title>
<g id="a_node3"><a xlink:href="dir_de3480ba266432d75f7352d2e893c4ca.html" target="_top" xlink:title="common_test_Sync">
<polygon fill="white" stroke="black" points="248,-108 136,-108 136,-72 248,-72 248,-108"/>
<text text-anchor="middle" x="192" y="-87.5" font-family="Helvetica,sans-Serif" font-size="10.00">common_test_Sync</text>
</a>
</g>
</g>
<!-- dir_de3480ba266432d75f7352d2e893c4ca&#45;&gt;dir_97aefd0d527b934f1d99a682da8fe6a9 -->
<g id="edge2" class="edge"><title>dir_de3480ba266432d75f7352d2e893c4ca&#45;&gt;dir_97aefd0d527b934f1d99a682da8fe6a9</title>
<path fill="none" stroke="black" d="M192,-71.6966C192,-63.9827 192,-54.7125 192,-46.1124"/>
<polygon fill="black" stroke="black" points="195.5,-46.1043 192,-36.1043 188.5,-46.1044 195.5,-46.1043"/>
<g id="a_edge2&#45;headlabel"><a xlink:href="dir_000047_000007.html" target="_top" xlink:title="4">
<text text-anchor="middle" x="198.339" y="-47.199" font-family="Helvetica,sans-Serif" font-size="10.00">4</text>
</a>
</g>
</g>
<!-- dir_14a9000df4103bb1a78a5acf09ac69c2 -->
<g id="node4" class="node"><title>dir_14a9000df4103bb1a78a5acf09ac69c2</title>
<g id="a_node4"><a xlink:href="dir_14a9000df4103bb1a78a5acf09ac69c2.html" target="_top" xlink:title="native_test_CCan">
<polygon fill="white" stroke="black" points="117.5,-108 16.5,-108 16.5,-72 117.5,-72 117.5,-108"/>
<text text-anchor="middle" x="67" y="-87.5" font-family="Helvetica,sans-Serif" font-size="10.00">native_test_CCan</text>
</a>
</g>
</g>
<!-- dir_14a9000df4103bb1a78a5acf09ac69c2&#45;&gt;dir_97aefd0d527b934f1d99a682da8fe6a9 -->
<g id="edge1" class="edge"><title>dir_14a9000df4103bb1a78a5acf09ac69c2&#45;&gt;dir_97aefd0d527b934f1d99a682da8fe6a9</title>
<path fill="none" stroke="black" d="M97.5784,-71.8761C115.219,-61.9975 137.496,-49.522 155.982,-39.17"/>
<polygon fill="black" stroke="black" points="157.701,-42.2192 164.715,-34.2793 154.28,-36.1117 157.701,-42.2192"/>
<g id="a_edge1&#45;headlabel"><a xlink:href="dir_000048_000007.html" target="_top" xlink:title="7">
<text text-anchor="middle" x="155.951" y="-43.9528" font-family="Helvetica,sans-Serif" font-size="10.00">7</text>
</a>
</g>
</g>
</g>
</svg>
