<?xml version="1.0" encoding="UTF-8" standalone="no"?>
<!DOCTYPE svg PUBLIC "-//W3C//DTD SVG 1.1//EN"
 "http://www.w3.org/Graphics/SVG/1.1/DTD/svg11.dtd">
<!-- Generated by graphviz version 2.38.0 (20140413.2041)
 -->
<!-- Title: lib/carpi/lib/SDFileSystem Pages: 1 -->
<svg width="140pt" height="183pt"
 viewBox="0.00 0.00 140.00 183.00" xmlns="http://www.w3.org/2000/svg" xmlns:xlink="http://www.w3.org/1999/xlink">
<g id="graph0" class="graph" transform="scale(1 1) rotate(0) translate(4 179)">
<title>lib/carpi/lib/SDFileSystem</title>
<polygon fill="white" stroke="none" points="-4,4 -4,-179 136,-179 136,4 -4,4"/>
<g id="clust1" class="cluster"><title>clusterdir_8e74068b69cf999946bec30f6b9bbe53</title>
<g id="a_clust1"><a xlink:href="dir_8e74068b69cf999946bec30f6b9bbe53.html" target="_top" xlink:title="lib">
<polygon fill="#ddddee" stroke="black" points="8,-8 8,-167 124,-167 124,-8 8,-8"/>
<text text-anchor="middle" x="66" y="-155" font-family="Helvetica,sans-Serif" font-size="10.00">lib</text>
</a>
</g>
</g>
<g id="clust2" class="cluster"><title>clusterdir_921e0bd80983b952e7ac891fc046114b</title>
<g id="a_clust2"><a xlink:href="dir_921e0bd80983b952e7ac891fc046114b.html" target="_top">
<polygon fill="#eeeeff" stroke="black" points="16,-16 16,-140 116,-140 116,-16 16,-16"/>
</a>
</g>
</g>
<!-- dir_921e0bd80983b952e7ac891fc046114b -->
<g id="node1" class="node"><title>dir_921e0bd80983b952e7ac891fc046114b</title>
<text text-anchor="middle" x="66" y="-111.5" font-family="Helvetica,sans-Serif" font-size="10.00">SDFileSystem</text>
</g>
<!-- dir_8b2456834a0ef50a5ed0551d1d5a658c -->
<g id="node2" class="node"><title>dir_8b2456834a0ef50a5ed0551d1d5a658c</title>
<g id="a_node2"><a xlink:href="dir_8b2456834a0ef50a5ed0551d1d5a658c.html" target="_top" xlink:title="FATFileSystem">
<polygon fill="white" stroke="black" points="108,-60 24,-60 24,-24 108,-24 108,-60"/>
<text text-anchor="middle" x="66" y="-39.5" font-family="Helvetica,sans-Serif" font-size="10.00">FATFileSystem</text>
</a>
</g>
</g>
<!-- dir_921e0bd80983b952e7ac891fc046114b&#45;&gt;dir_8b2456834a0ef50a5ed0551d1d5a658c -->
<g id="edge1" class="edge"><title>dir_921e0bd80983b952e7ac891fc046114b&#45;&gt;dir_8b2456834a0ef50a5ed0551d1d5a658c</title>
<path fill="none" stroke="black" d="M66,-95.6966C66,-87.9827 66,-78.7125 66,-70.1124"/>
<polygon fill="black" stroke="black" points="69.5001,-70.1043 66,-60.1043 62.5001,-70.1044 69.5001,-70.1043"/>
<g id="a_edge1&#45;headlabel"><a xlink:href="dir_000021_000022.html" target="_top" xlink:title="1">
<text text-anchor="middle" x="72.3393" y="-71.199" font-family="Helvetica,sans-Serif" font-size="10.00">1</text>
</a>
</g>
</g>
</g>
</svg>
