<?xml version="1.0" encoding="UTF-8" standalone="no"?>
<!DOCTYPE svg PUBLIC "-//W3C//DTD SVG 1.1//EN"
 "http://www.w3.org/Graphics/SVG/1.1/DTD/svg11.dtd">
<!-- Generated by graphviz version 2.38.0 (20140413.2041)
 -->
<!-- Title: lib/carpi/src/runable Pages: 1 -->
<svg width="284pt" height="231pt"
 viewBox="0.00 0.00 283.50 231.00" xmlns="http://www.w3.org/2000/svg" xmlns:xlink="http://www.w3.org/1999/xlink">
<g id="graph0" class="graph" transform="scale(1 1) rotate(0) translate(4 227)">
<title>lib/carpi/src/runable</title>
<polygon fill="white" stroke="none" points="-4,4 -4,-227 279.5,-227 279.5,4 -4,4"/>
<g id="clust1" class="cluster"><title>clusterdir_9f1b2df1a73c72454ed24c30e17e9fb0</title>
<g id="a_clust1"><a xlink:href="dir_9f1b2df1a73c72454ed24c30e17e9fb0.html" target="_top" xlink:title="src">
<polygon fill="#ddddee" stroke="black" points="8,-56 8,-215 176,-215 176,-56 8,-56"/>
<text text-anchor="middle" x="92" y="-203" font-family="Helvetica,sans-Serif" font-size="10.00">src</text>
</a>
</g>
</g>
<g id="clust2" class="cluster"><title>clusterdir_f639c376628dea03a18f8c749703dfac</title>
<g id="a_clust2"><a xlink:href="dir_f639c376628dea03a18f8c749703dfac.html" target="_top">
<polygon fill="#eeeeff" stroke="black" points="16,-64 16,-188 168,-188 168,-64 16,-64"/>
</a>
</g>
</g>
<!-- dir_f639c376628dea03a18f8c749703dfac -->
<g id="node1" class="node"><title>dir_f639c376628dea03a18f8c749703dfac</title>
<text text-anchor="middle" x="133" y="-159.5" font-family="Helvetica,sans-Serif" font-size="10.00">runable</text>
</g>
<!-- dir_81c39652c91038c556591c5f9ea4b7c4 -->
<g id="node2" class="node"><title>dir_81c39652c91038c556591c5f9ea4b7c4</title>
<g id="a_node2"><a xlink:href="dir_81c39652c91038c556591c5f9ea4b7c4.html" target="_top" xlink:title="programs">
<polygon fill="white" stroke="black" points="87.5,-180 24.5,-180 24.5,-144 87.5,-144 87.5,-180"/>
<text text-anchor="middle" x="56" y="-159.5" font-family="Helvetica,sans-Serif" font-size="10.00">programs</text>
</a>
</g>
</g>
<!-- dir_b5c865d296ad7bd0e57f9d4ddb17c381 -->
<g id="node3" class="node"><title>dir_b5c865d296ad7bd0e57f9d4ddb17c381</title>
<g id="a_node3"><a xlink:href="dir_b5c865d296ad7bd0e57f9d4ddb17c381.html" target="_top" xlink:title="services">
<polygon fill="white" stroke="black" points="95,-108 39,-108 39,-72 95,-72 95,-108"/>
<text text-anchor="middle" x="67" y="-87.5" font-family="Helvetica,sans-Serif" font-size="10.00">services</text>
</a>
</g>
</g>
<!-- dir_81c39652c91038c556591c5f9ea4b7c4&#45;&gt;dir_b5c865d296ad7bd0e57f9d4ddb17c381 -->
<g id="edge4" class="edge"><title>dir_81c39652c91038c556591c5f9ea4b7c4&#45;&gt;dir_b5c865d296ad7bd0e57f9d4ddb17c381</title>
<path fill="none" stroke="black" d="M52.8034,-143.697C53.2199,-135.983 54.4501,-126.712 56.1442,-118.112"/>
<polygon fill="black" stroke="black" points="59.6154,-118.631 58.4171,-108.104 52.7893,-117.081 59.6154,-118.631"/>
<g id="a_edge4&#45;headlabel"><a xlink:href="dir_000030_000031.html" target="_top" xlink:title="4">
<text text-anchor="middle" x="61.5882" y="-120.265" font-family="Helvetica,sans-Serif" font-size="10.00">4</text>
</a>
</g>
</g>
<!-- dir_d69ee1dad79c3f250af3dd434c215ea7 -->
<g id="node4" class="node"><title>dir_d69ee1dad79c3f250af3dd434c215ea7</title>
<g id="a_node4"><a xlink:href="dir_d69ee1dad79c3f250af3dd434c215ea7.html" target="_top" xlink:title="communication">
<polygon fill="none" stroke="black" points="275.5,-108 184.5,-108 184.5,-72 275.5,-72 275.5,-108"/>
<text text-anchor="middle" x="230" y="-87.5" font-family="Helvetica,sans-Serif" font-size="10.00">communication</text>
</a>
</g>
</g>
<!-- dir_81c39652c91038c556591c5f9ea4b7c4&#45;&gt;dir_d69ee1dad79c3f250af3dd434c215ea7 -->
<g id="edge3" class="edge"><title>dir_81c39652c91038c556591c5f9ea4b7c4&#45;&gt;dir_d69ee1dad79c3f250af3dd434c215ea7</title>
<path fill="none" stroke="black" d="M87.7663,-147.778C90.884,-146.495 94.0019,-145.219 97,-144 123.426,-133.257 152.888,-121.494 177.353,-111.785"/>
<polygon fill="black" stroke="black" points="178.807,-114.974 186.813,-108.035 176.227,-108.467 178.807,-114.974"/>
<g id="a_edge3&#45;headlabel"><a xlink:href="dir_000030_000023.html" target="_top" xlink:title="1">
<text text-anchor="middle" x="176.512" y="-116.438" font-family="Helvetica,sans-Serif" font-size="10.00">1</text>
</a>
</g>
</g>
<!-- dir_8337518d9ebdf5c8cf630c74e469df69 -->
<g id="node5" class="node"><title>dir_8337518d9ebdf5c8cf630c74e469df69</title>
<g id="a_node5"><a xlink:href="dir_8337518d9ebdf5c8cf630c74e469df69.html" target="_top" xlink:title="components">
<polygon fill="white" stroke="red" points="231.5,-36 154.5,-36 154.5,-0 231.5,-0 231.5,-36"/>
<text text-anchor="middle" x="193" y="-15.5" font-family="Helvetica,sans-Serif" font-size="10.00">components</text>
</a>
</g>
</g>
<!-- dir_81c39652c91038c556591c5f9ea4b7c4&#45;&gt;dir_8337518d9ebdf5c8cf630c74e469df69 -->
<g id="edge5" class="edge"><title>dir_81c39652c91038c556591c5f9ea4b7c4&#45;&gt;dir_8337518d9ebdf5c8cf630c74e469df69</title>
<path fill="none" stroke="black" d="M72.5254,-143.871C96.6974,-118.817 141.816,-72.0519 169.453,-43.4062"/>
<polygon fill="black" stroke="black" points="171.992,-45.8161 176.416,-36.1893 166.954,-40.9558 171.992,-45.8161"/>
<g id="a_edge5&#45;headlabel"><a xlink:href="dir_000030_000024.html" target="_top" xlink:title="13">
<text text-anchor="middle" x="171.539" y="-47.8743" font-family="Helvetica,sans-Serif" font-size="10.00">13</text>
</a>
</g>
</g>
<!-- dir_b5c865d296ad7bd0e57f9d4ddb17c381&#45;&gt;dir_81c39652c91038c556591c5f9ea4b7c4 -->
<g id="edge7" class="edge"><title>dir_b5c865d296ad7bd0e57f9d4ddb17c381&#45;&gt;dir_81c39652c91038c556591c5f9ea4b7c4</title>
<path fill="none" stroke="black" d="M70.2072,-108.104C69.8048,-115.791 68.5856,-125.054 66.8995,-133.665"/>
<polygon fill="black" stroke="black" points="63.423,-133.171 64.6348,-143.697 70.2511,-134.713 63.423,-133.171"/>
<g id="a_edge7&#45;headlabel"><a xlink:href="dir_000031_000030.html" target="_top" xlink:title="2">
<text text-anchor="middle" x="61.4449" y="-126.54" font-family="Helvetica,sans-Serif" font-size="10.00">2</text>
</a>
</g>
</g>
<!-- dir_b5c865d296ad7bd0e57f9d4ddb17c381&#45;&gt;dir_d69ee1dad79c3f250af3dd434c215ea7 -->
<g id="edge6" class="edge"><title>dir_b5c865d296ad7bd0e57f9d4ddb17c381&#45;&gt;dir_d69ee1dad79c3f250af3dd434c215ea7</title>
<path fill="none" stroke="black" d="M95.0156,-90C121.432,-90 147.849,-90 174.266,-90"/>
<polygon fill="black" stroke="black" points="174.39,-93.5001 184.39,-90 174.39,-86.5001 174.39,-93.5001"/>
<g id="a_edge6&#45;headlabel"><a xlink:href="dir_000031_000023.html" target="_top" xlink:title="2">
<text text-anchor="middle" x="170.795" y="-93.8393" font-family="Helvetica,sans-Serif" font-size="10.00">2</text>
</a>
</g>
</g>
<!-- dir_b5c865d296ad7bd0e57f9d4ddb17c381&#45;&gt;dir_8337518d9ebdf5c8cf630c74e469df69 -->
<g id="edge8" class="edge"><title>dir_b5c865d296ad7bd0e57f9d4ddb17c381&#45;&gt;dir_8337518d9ebdf5c8cf630c74e469df69</title>
<path fill="none" stroke="black" d="M95.2769,-73.2906C112.362,-63.7991 134.401,-51.5549 153.224,-41.0976"/>
<polygon fill="black" stroke="black" points="155.129,-44.0435 162.171,-36.1274 151.729,-37.9244 155.129,-44.0435"/>
<g id="a_edge8&#45;headlabel"><a xlink:href="dir_000031_000024.html" target="_top" xlink:title="7">
<text text-anchor="middle" x="153.365" y="-45.7711" font-family="Helvetica,sans-Serif" font-size="10.00">7</text>
</a>
</g>
</g>
<!-- dir_d69ee1dad79c3f250af3dd434c215ea7&#45;&gt;dir_f639c376628dea03a18f8c749703dfac -->
<g id="edge1" class="edge"><title>dir_d69ee1dad79c3f250af3dd434c215ea7&#45;&gt;dir_f639c376628dea03a18f8c749703dfac</title>
<path fill="none" stroke="black" d="M206.298,-108.104C194.008,-116.974 178.81,-127.941 165.446,-137.585"/>
<polygon fill="black" stroke="black" points="163.038,-135.007 156.978,-143.697 167.135,-140.683 163.038,-135.007"/>
<g id="a_edge1&#45;headlabel"><a xlink:href="dir_000023_000029.html" target="_top" xlink:title="2">
<text text-anchor="middle" x="164.292" y="-128.101" font-family="Helvetica,sans-Serif" font-size="10.00">2</text>
</a>
</g>
</g>
<!-- dir_d69ee1dad79c3f250af3dd434c215ea7&#45;&gt;dir_8337518d9ebdf5c8cf630c74e469df69 -->
<g id="edge2" class="edge"><title>dir_d69ee1dad79c3f250af3dd434c215ea7&#45;&gt;dir_8337518d9ebdf5c8cf630c74e469df69</title>
<path fill="none" stroke="black" d="M214.938,-71.6966C209.905,-63.7284 204.6,-54.0995 200.323,-45.2641"/>
<polygon fill="black" stroke="black" points="203.48,-43.7507 196.146,-36.1043 197.111,-46.6552 203.48,-43.7507"/>
<g id="a_edge2&#45;headlabel"><a xlink:href="dir_000023_000024.html" target="_top" xlink:title="3">
<text text-anchor="middle" x="207.554" y="-43.3432" font-family="Helvetica,sans-Serif" font-size="10.00">3</text>
</a>
</g>
</g>
<!-- dir_8337518d9ebdf5c8cf630c74e469df69&#45;&gt;dir_d69ee1dad79c3f250af3dd434c215ea7 -->
<g id="edge9" class="edge"><title>dir_8337518d9ebdf5c8cf630c74e469df69&#45;&gt;dir_d69ee1dad79c3f250af3dd434c215ea7</title>
<path fill="none" stroke="black" d="M207.936,-36.1043C212.965,-44.0447 218.275,-53.6661 222.57,-62.5146"/>
<polygon fill="black" stroke="black" points="219.427,-64.0586 226.77,-71.6966 225.793,-61.1469 219.427,-64.0586"/>
<g id="a_edge9&#45;headlabel"><a xlink:href="dir_000024_000023.html" target="_top" xlink:title="9">
<text text-anchor="middle" x="215.35" y="-59.4707" font-family="Helvetica,sans-Serif" font-size="10.00">9</text>
</a>
</g>
</g>
</g>
</svg>
