<?xml version="1.0" encoding="UTF-8" standalone="no"?>
<!DOCTYPE svg PUBLIC "-//W3C//DTD SVG 1.1//EN"
 "http://www.w3.org/Graphics/SVG/1.1/DTD/svg11.dtd">
<!-- Generated by graphviz version 2.38.0 (20140413.2041)
 -->
<!-- Title: car/Bonnie2019 Pages: 1 -->
<svg width="184pt" height="183pt"
 viewBox="0.00 0.00 184.00 183.00" xmlns="http://www.w3.org/2000/svg" xmlns:xlink="http://www.w3.org/1999/xlink">
<g id="graph0" class="graph" transform="scale(1 1) rotate(0) translate(4 179)">
<title>car/Bonnie2019</title>
<polygon fill="white" stroke="none" points="-4,4 -4,-179 180,-179 180,4 -4,4"/>
<g id="clust1" class="cluster"><title>clusterdir_733846acb3c736eedaa0fe551b6fb44f</title>
<g id="a_clust1"><a xlink:href="dir_733846acb3c736eedaa0fe551b6fb44f.html" target="_top" xlink:title="car">
<polygon fill="#ddddee" stroke="black" points="8,-8 8,-167 114,-167 114,-8 8,-8"/>
<text text-anchor="middle" x="61" y="-155" font-family="Helvetica,sans-Serif" font-size="10.00">car</text>
</a>
</g>
</g>
<g id="clust2" class="cluster"><title>clusterdir_3e541d6e814c5579165be0c634c47cf7</title>
<g id="a_clust2"><a xlink:href="dir_3e541d6e814c5579165be0c634c47cf7.html" target="_top">
<polygon fill="#eeeeff" stroke="black" points="16,-16 16,-140 106,-140 106,-16 16,-16"/>
</a>
</g>
</g>
<!-- dir_3e541d6e814c5579165be0c634c47cf7 -->
<g id="node1" class="node"><title>dir_3e541d6e814c5579165be0c634c47cf7</title>
<text text-anchor="middle" x="61" y="-111.5" font-family="Helvetica,sans-Serif" font-size="10.00">Bonnie2019</text>
</g>
<!-- dir_d4f9680239168a2e532d48a52b8a97d2 -->
<g id="node2" class="node"><title>dir_d4f9680239168a2e532d48a52b8a97d2</title>
<g id="a_node2"><a xlink:href="dir_d4f9680239168a2e532d48a52b8a97d2.html" target="_top" xlink:title="hardware">
<polygon fill="white" stroke="black" points="91.5,-60 30.5,-60 30.5,-24 91.5,-24 91.5,-60"/>
<text text-anchor="middle" x="61" y="-39.5" font-family="Helvetica,sans-Serif" font-size="10.00">hardware</text>
</a>
</g>
</g>
<!-- dir_3e541d6e814c5579165be0c634c47cf7&#45;&gt;dir_d4f9680239168a2e532d48a52b8a97d2 -->
<g id="edge2" class="edge"><title>dir_3e541d6e814c5579165be0c634c47cf7&#45;&gt;dir_d4f9680239168a2e532d48a52b8a97d2</title>
<path fill="none" stroke="black" d="M61,-95.6966C61,-87.9827 61,-78.7125 61,-70.1124"/>
<polygon fill="black" stroke="black" points="64.5001,-70.1043 61,-60.1043 57.5001,-70.1044 64.5001,-70.1043"/>
<g id="a_edge2&#45;headlabel"><a xlink:href="dir_000001_000002.html" target="_top" xlink:title="4">
<text text-anchor="middle" x="67.3393" y="-71.199" font-family="Helvetica,sans-Serif" font-size="10.00">4</text>
</a>
</g>
</g>
<!-- dir_97aefd0d527b934f1d99a682da8fe6a9 -->
<g id="node3" class="node"><title>dir_97aefd0d527b934f1d99a682da8fe6a9</title>
<g id="a_node3"><a xlink:href="dir_97aefd0d527b934f1d99a682da8fe6a9.html" target="_top" xlink:title="lib">
<polygon fill="white" stroke="red" points="176,-60 122,-60 122,-24 176,-24 176,-60"/>
<text text-anchor="middle" x="149" y="-39.5" font-family="Helvetica,sans-Serif" font-size="10.00">lib</text>
</a>
</g>
</g>
<!-- dir_3e541d6e814c5579165be0c634c47cf7&#45;&gt;dir_97aefd0d527b934f1d99a682da8fe6a9 -->
<g id="edge1" class="edge"><title>dir_3e541d6e814c5579165be0c634c47cf7&#45;&gt;dir_97aefd0d527b934f1d99a682da8fe6a9</title>
<path fill="none" stroke="black" d="M82.7528,-95.6966C93.8357,-86.8807 107.474,-76.0321 119.49,-66.4742"/>
<polygon fill="black" stroke="black" points="121.85,-69.0687 127.497,-60.1043 117.493,-63.5905 121.85,-69.0687"/>
<g id="a_edge1&#45;headlabel"><a xlink:href="dir_000001_000007.html" target="_top" xlink:title="5">
<text text-anchor="middle" x="120.805" y="-71.0284" font-family="Helvetica,sans-Serif" font-size="10.00">5</text>
</a>
</g>
</g>
</g>
</svg>
