<?xml version="1.0" encoding="UTF-8" standalone="no"?>
<!DOCTYPE svg PUBLIC "-//W3C//DTD SVG 1.1//EN"
 "http://www.w3.org/Graphics/SVG/1.1/DTD/svg11.dtd">
<!-- Generated by graphviz version 2.38.0 (20140413.2041)
 -->
<!-- Title: lib/carpi/src/components/internal Pages: 1 -->
<svg width="130pt" height="223pt"
 viewBox="0.00 0.00 129.50 223.00" xmlns="http://www.w3.org/2000/svg" xmlns:xlink="http://www.w3.org/1999/xlink">
<g id="graph0" class="graph" transform="scale(1 1) rotate(0) translate(4 219)">
<title>lib/carpi/src/components/internal</title>
<polygon fill="white" stroke="none" points="-4,4 -4,-219 125.5,-219 125.5,4 -4,4"/>
<g id="clust1" class="cluster"><title>clusterdir_8337518d9ebdf5c8cf630c74e469df69</title>
<g id="a_clust1"><a xlink:href="dir_8337518d9ebdf5c8cf630c74e469df69.html" target="_top" xlink:title="components">
<polygon fill="#ddddee" stroke="black" points="36.5,-136 36.5,-207 113.5,-207 113.5,-136 36.5,-136"/>
<text text-anchor="middle" x="75" y="-195" font-family="Helvetica,sans-Serif" font-size="10.00">components</text>
</a>
</g>
</g>
<!-- dir_59869a183126d91dcfdee395d683f6e3 -->
<g id="node1" class="node"><title>dir_59869a183126d91dcfdee395d683f6e3</title>
<g id="a_node1"><a xlink:href="dir_59869a183126d91dcfdee395d683f6e3.html" target="_top" xlink:title="internal">
<polygon fill="#eeeeff" stroke="black" points="101.5,-180 47.5,-180 47.5,-144 101.5,-144 101.5,-180"/>
<text text-anchor="middle" x="74.5" y="-159.5" font-family="Helvetica,sans-Serif" font-size="10.00">internal</text>
</a>
</g>
</g>
<!-- dir_806cf985678c674b01ac4d1257f2de82 -->
<g id="node2" class="node"><title>dir_806cf985678c674b01ac4d1257f2de82</title>
<g id="a_node2"><a xlink:href="dir_806cf985678c674b01ac4d1257f2de82.html" target="_top" xlink:title="interface">
<polygon fill="none" stroke="black" points="75,-108 16,-108 16,-72 75,-72 75,-108"/>
<text text-anchor="middle" x="45.5" y="-87.5" font-family="Helvetica,sans-Serif" font-size="10.00">interface</text>
</a>
</g>
</g>
<!-- dir_59869a183126d91dcfdee395d683f6e3&#45;&gt;dir_806cf985678c674b01ac4d1257f2de82 -->
<g id="edge1" class="edge"><title>dir_59869a183126d91dcfdee395d683f6e3&#45;&gt;dir_806cf985678c674b01ac4d1257f2de82</title>
<path fill="none" stroke="black" d="M67.3315,-143.697C64.0655,-135.813 60.126,-126.304 56.4978,-117.546"/>
<polygon fill="black" stroke="black" points="59.647,-116.003 52.5861,-108.104 53.18,-118.683 59.647,-116.003"/>
<g id="a_edge1&#45;headlabel"><a xlink:href="dir_000027_000026.html" target="_top" xlink:title="2">
<text text-anchor="middle" x="63.6459" y="-115.738" font-family="Helvetica,sans-Serif" font-size="10.00">2</text>
</a>
</g>
</g>
<!-- dir_d69ee1dad79c3f250af3dd434c215ea7 -->
<g id="node3" class="node"><title>dir_d69ee1dad79c3f250af3dd434c215ea7</title>
<g id="a_node3"><a xlink:href="dir_d69ee1dad79c3f250af3dd434c215ea7.html" target="_top" xlink:title="communication">
<polygon fill="none" stroke="black" points="91,-36 0,-36 0,-0 91,-0 91,-36"/>
<text text-anchor="middle" x="45.5" y="-15.5" font-family="Helvetica,sans-Serif" font-size="10.00">communication</text>
</a>
</g>
</g>
<!-- dir_59869a183126d91dcfdee395d683f6e3&#45;&gt;dir_d69ee1dad79c3f250af3dd434c215ea7 -->
<g id="edge2" class="edge"><title>dir_59869a183126d91dcfdee395d683f6e3&#45;&gt;dir_d69ee1dad79c3f250af3dd434c215ea7</title>
<path fill="none" stroke="black" d="M80.63,-143.831C86.1893,-125.577 92.4049,-96.08 84.5,-72 81.1863,-61.9056 75.1332,-52.1508 68.7684,-43.8211"/>
<polygon fill="black" stroke="black" points="71.4246,-41.5402 62.3897,-36.0066 66.0018,-45.9667 71.4246,-41.5402"/>
<g id="a_edge2&#45;headlabel"><a xlink:href="dir_000027_000023.html" target="_top" xlink:title="1">
<text text-anchor="middle" x="75.8972" y="-40.0295" font-family="Helvetica,sans-Serif" font-size="10.00">1</text>
</a>
</g>
</g>
<!-- dir_806cf985678c674b01ac4d1257f2de82&#45;&gt;dir_d69ee1dad79c3f250af3dd434c215ea7 -->
<g id="edge3" class="edge"><title>dir_806cf985678c674b01ac4d1257f2de82&#45;&gt;dir_d69ee1dad79c3f250af3dd434c215ea7</title>
<path fill="none" stroke="black" d="M39.5843,-71.6966C38.7886,-63.9827 38.5621,-54.7125 38.9047,-46.1124"/>
<polygon fill="black" stroke="black" points="42.3984,-46.3243 39.605,-36.1043 35.4154,-45.8356 42.3984,-46.3243"/>
<g id="a_edge3&#45;headlabel"><a xlink:href="dir_000026_000023.html" target="_top" xlink:title="8">
<text text-anchor="middle" x="44.9799" y="-47.6083" font-family="Helvetica,sans-Serif" font-size="10.00">8</text>
</a>
</g>
</g>
<!-- dir_d69ee1dad79c3f250af3dd434c215ea7&#45;&gt;dir_806cf985678c674b01ac4d1257f2de82 -->
<g id="edge4" class="edge"><title>dir_d69ee1dad79c3f250af3dd434c215ea7&#45;&gt;dir_806cf985678c674b01ac4d1257f2de82</title>
<path fill="none" stroke="black" d="M51.395,-36.1043C52.2005,-43.7913 52.4369,-53.0537 52.104,-61.6651"/>
<polygon fill="black" stroke="black" points="48.6085,-61.4805 51.4157,-71.6966 55.5921,-61.9597 48.6085,-61.4805"/>
<g id="a_edge4&#45;headlabel"><a xlink:href="dir_000023_000026.html" target="_top" xlink:title="3">
<text text-anchor="middle" x="46.0219" y="-55.2" font-family="Helvetica,sans-Serif" font-size="10.00">3</text>
</a>
</g>
</g>
</g>
</svg>
