<?xml version="1.0" encoding="UTF-8" standalone="no"?>
<!DOCTYPE svg PUBLIC "-//W3C//DTD SVG 1.1//EN"
 "http://www.w3.org/Graphics/SVG/1.1/DTD/svg11.dtd">
<!-- Generated by graphviz version 2.38.0 (20140413.2041)
 -->
<!-- Title: lib/carpi/lib/SDFileSystem/FATFileSystem/diskio.h Pages: 1 -->
<svg width="631pt" height="431pt"
 viewBox="0.00 0.00 630.50 431.00" xmlns="http://www.w3.org/2000/svg" xmlns:xlink="http://www.w3.org/1999/xlink">
<g id="graph0" class="graph" transform="scale(1 1) rotate(0) translate(4 427)">
<title>lib/carpi/lib/SDFileSystem/FATFileSystem/diskio.h</title>
<polygon fill="white" stroke="none" points="-4,4 -4,-427 626.5,-427 626.5,4 -4,4"/>
<!-- Node1 -->
<g id="node1" class="node"><title>Node1</title>
<polygon fill="#bfbfbf" stroke="black" points="70.5,-392.5 70.5,-422.5 206.5,-422.5 206.5,-392.5 70.5,-392.5"/>
<text text-anchor="start" x="78.5" y="-410.5" font-family="Helvetica,sans-Serif" font-size="10.00">lib/carpi/lib/SDFileSystem</text>
<text text-anchor="middle" x="138.5" y="-399.5" font-family="Helvetica,sans-Serif" font-size="10.00">/FATFileSystem/diskio.h</text>
</g>
<!-- Node2 -->
<g id="node2" class="node"><title>Node2</title>
<g id="a_node2"><a xlink:href="integer_8h.html" target="_top" xlink:title="integer.h">
<polygon fill="white" stroke="black" points="0,-0.5 0,-19.5 59,-19.5 59,-0.5 0,-0.5"/>
<text text-anchor="middle" x="29.5" y="-7.5" font-family="Helvetica,sans-Serif" font-size="10.00">integer.h</text>
</a>
</g>
</g>
<!-- Node1&#45;&gt;Node2 -->
<g id="edge1" class="edge"><title>Node1&#45;&gt;Node2</title>
<path fill="none" stroke="midnightblue" d="M99.1632,-392.468C58.9972,-375.318 2.5,-342.112 2.5,-291 2.5,-291 2.5,-291 2.5,-121 2.5,-87.8606 14.201,-50.6823 22.1973,-29.1445"/>
<polygon fill="midnightblue" stroke="midnightblue" points="25.5216,-30.2517 25.8587,-19.6622 18.9915,-27.7302 25.5216,-30.2517"/>
</g>
<!-- Node3 -->
<g id="node3" class="node"><title>Node3</title>
<g id="a_node3"><a xlink:href="diskio_8cpp.html" target="_top" xlink:title="diskio.cpp">
<polygon fill="white" stroke="black" points="150.5,-336.5 150.5,-355.5 214.5,-355.5 214.5,-336.5 150.5,-336.5"/>
<text text-anchor="middle" x="182.5" y="-343.5" font-family="Helvetica,sans-Serif" font-size="10.00">diskio.cpp</text>
</a>
</g>
</g>
<!-- Node1&#45;&gt;Node3 -->
<g id="edge2" class="edge"><title>Node1&#45;&gt;Node3</title>
<path fill="none" stroke="midnightblue" d="M143.087,-392.399C148.426,-383.664 156.661,-372.413 164.354,-363.296"/>
<polygon fill="midnightblue" stroke="midnightblue" points="167.123,-365.45 171.168,-355.658 161.9,-360.79 167.123,-365.45"/>
</g>
<!-- Node3&#45;&gt;Node1 -->
<g id="edge3" class="edge"><title>Node3&#45;&gt;Node1</title>
<path fill="none" stroke="midnightblue" d="M181.027,-355.658C177.082,-363.181 169.317,-374.411 161.387,-384.404"/>
<polygon fill="midnightblue" stroke="midnightblue" points="158.449,-382.465 154.767,-392.399 163.841,-386.929 158.449,-382.465"/>
</g>
<!-- Node4 -->
<g id="node4" class="node"><title>Node4</title>
<polygon fill="white" stroke="#bfbfbf" points="467,-56.5 467,-75.5 556,-75.5 556,-56.5 467,-56.5"/>
<text text-anchor="middle" x="511.5" y="-63.5" font-family="Helvetica,sans-Serif" font-size="10.00">mbed_debug.h</text>
</g>
<!-- Node3&#45;&gt;Node4 -->
<g id="edge4" class="edge"><title>Node3&#45;&gt;Node4</title>
<path fill="none" stroke="midnightblue" d="M214.854,-343.861C316.467,-339.417 622.5,-319.055 622.5,-235 622.5,-235 622.5,-235 622.5,-177 622.5,-130.824 573.437,-97.4259 540.548,-80.2256"/>
<polygon fill="midnightblue" stroke="midnightblue" points="541.852,-76.9641 531.345,-75.6087 538.714,-83.221 541.852,-76.9641"/>
</g>
<!-- Node5 -->
<g id="node5" class="node"><title>Node5</title>
<g id="a_node5"><a xlink:href="_f_a_t_file_system_8h.html" target="_top" xlink:title="FATFileSystem.h">
<polygon fill="white" stroke="black" points="165,-280.5 165,-299.5 258,-299.5 258,-280.5 165,-280.5"/>
<text text-anchor="middle" x="211.5" y="-287.5" font-family="Helvetica,sans-Serif" font-size="10.00">FATFileSystem.h</text>
</a>
</g>
</g>
<!-- Node3&#45;&gt;Node5 -->
<g id="edge5" class="edge"><title>Node3&#45;&gt;Node5</title>
<path fill="none" stroke="midnightblue" d="M187.289,-336.083C191.258,-328.691 197.025,-317.953 201.935,-308.811"/>
<polygon fill="midnightblue" stroke="midnightblue" points="205.153,-310.217 206.8,-299.751 198.986,-306.905 205.153,-310.217"/>
</g>
<!-- Node6 -->
<g id="node6" class="node"><title>Node6</title>
<polygon fill="white" stroke="#bfbfbf" points="201.5,-224.5 201.5,-243.5 297.5,-243.5 297.5,-224.5 201.5,-224.5"/>
<text text-anchor="middle" x="249.5" y="-231.5" font-family="Helvetica,sans-Serif" font-size="10.00">FileSystemLike.h</text>
</g>
<!-- Node5&#45;&gt;Node6 -->
<g id="edge6" class="edge"><title>Node5&#45;&gt;Node6</title>
<path fill="none" stroke="midnightblue" d="M217.775,-280.083C223.142,-272.455 231.018,-261.264 237.579,-251.941"/>
<polygon fill="midnightblue" stroke="midnightblue" points="240.449,-253.943 243.342,-243.751 234.725,-249.915 240.449,-253.943"/>
</g>
<!-- Node7 -->
<g id="node7" class="node"><title>Node7</title>
<polygon fill="white" stroke="#bfbfbf" points="324.5,-112.5 324.5,-131.5 398.5,-131.5 398.5,-112.5 324.5,-112.5"/>
<text text-anchor="middle" x="361.5" y="-119.5" font-family="Helvetica,sans-Serif" font-size="10.00">FileHandle.h</text>
</g>
<!-- Node5&#45;&gt;Node7 -->
<g id="edge7" class="edge"><title>Node5&#45;&gt;Node7</title>
<path fill="none" stroke="midnightblue" d="M242.629,-280.419C262.986,-273.453 288.96,-261.818 306.5,-244 321.638,-228.622 344.014,-171.129 354.971,-141.266"/>
<polygon fill="midnightblue" stroke="midnightblue" points="358.342,-142.238 358.457,-131.644 351.76,-139.854 358.342,-142.238"/>
</g>
<!-- Node8 -->
<g id="node8" class="node"><title>Node8</title>
<g id="a_node8"><a xlink:href="ff_8h.html" target="_top" xlink:title="ff.h">
<polygon fill="white" stroke="black" points="149.5,-56.5 149.5,-75.5 181.5,-75.5 181.5,-56.5 149.5,-56.5"/>
<text text-anchor="middle" x="165.5" y="-63.5" font-family="Helvetica,sans-Serif" font-size="10.00">ff.h</text>
</a>
</g>
</g>
<!-- Node5&#45;&gt;Node8 -->
<g id="edge8" class="edge"><title>Node5&#45;&gt;Node8</title>
<path fill="none" stroke="midnightblue" d="M202.904,-280.466C181.332,-258.363 125.226,-196.47 105.5,-132 102.899,-123.5 101.525,-119.95 105.5,-112 112.81,-97.3804 127.378,-86.2782 140.328,-78.7591"/>
<polygon fill="midnightblue" stroke="midnightblue" points="142.19,-81.7321 149.345,-73.9183 138.879,-75.5646 142.19,-81.7321"/>
</g>
<!-- Node11 -->
<g id="node11" class="node"><title>Node11</title>
<polygon fill="white" stroke="#bfbfbf" points="92,-224.5 92,-243.5 145,-243.5 145,-224.5 92,-224.5"/>
<text text-anchor="middle" x="118.5" y="-231.5" font-family="Helvetica,sans-Serif" font-size="10.00">stdint.h</text>
</g>
<!-- Node5&#45;&gt;Node11 -->
<g id="edge13" class="edge"><title>Node5&#45;&gt;Node11</title>
<path fill="none" stroke="midnightblue" d="M196.558,-280.324C181.915,-271.822 159.366,-258.729 142.262,-248.797"/>
<polygon fill="midnightblue" stroke="midnightblue" points="143.81,-245.649 133.405,-243.655 140.295,-251.703 143.81,-245.649"/>
</g>
<!-- Node12 -->
<g id="node12" class="node"><title>Node12</title>
<g id="a_node12"><a xlink:href="_f_a_t_file_system_8cpp.html" target="_top" xlink:title="FATFileSystem.cpp">
<polygon fill="white" stroke="black" points="356.5,-224.5 356.5,-243.5 460.5,-243.5 460.5,-224.5 356.5,-224.5"/>
<text text-anchor="middle" x="408.5" y="-231.5" font-family="Helvetica,sans-Serif" font-size="10.00">FATFileSystem.cpp</text>
</a>
</g>
</g>
<!-- Node5&#45;&gt;Node12 -->
<g id="edge14" class="edge"><title>Node5&#45;&gt;Node12</title>
<path fill="none" stroke="midnightblue" d="M237.626,-280.444C269.452,-271.162 323.471,-256.309 362.325,-246.127"/>
<polygon fill="midnightblue" stroke="midnightblue" points="363.555,-249.423 372.351,-243.516 361.792,-242.649 363.555,-249.423"/>
</g>
<!-- Node20 -->
<g id="node20" class="node"><title>Node20</title>
<g id="a_node20"><a xlink:href="ff_8cpp.html" target="_top" xlink:title="ff.cpp">
<polygon fill="white" stroke="black" points="31,-224.5 31,-243.5 74,-243.5 74,-224.5 31,-224.5"/>
<text text-anchor="middle" x="52.5" y="-231.5" font-family="Helvetica,sans-Serif" font-size="10.00">ff.cpp</text>
</a>
</g>
</g>
<!-- Node5&#45;&gt;Node20 -->
<g id="edge32" class="edge"><title>Node5&#45;&gt;Node20</title>
<path fill="none" stroke="midnightblue" d="M186.306,-280.444C158.456,-270.985 113.574,-255.742 83.5668,-245.551"/>
<polygon fill="midnightblue" stroke="midnightblue" points="84.6011,-242.206 74.0067,-242.304 82.35,-248.834 84.6011,-242.206"/>
</g>
<!-- Node8&#45;&gt;Node2 -->
<g id="edge9" class="edge"><title>Node8&#45;&gt;Node2</title>
<path fill="none" stroke="midnightblue" d="M149.365,-58.5934C127.557,-49.9345 88.2282,-34.3185 60.582,-23.3414"/>
<polygon fill="midnightblue" stroke="midnightblue" points="61.5651,-19.966 50.9792,-19.5285 58.9818,-26.4719 61.5651,-19.966"/>
</g>
<!-- Node9 -->
<g id="node9" class="node"><title>Node9</title>
<g id="a_node9"><a xlink:href="ffconf_8h.html" target="_top" xlink:title="ffconf.h">
<polygon fill="white" stroke="black" points="413,-0.5 413,-19.5 464,-19.5 464,-0.5 413,-0.5"/>
<text text-anchor="middle" x="438.5" y="-7.5" font-family="Helvetica,sans-Serif" font-size="10.00">ffconf.h</text>
</a>
</g>
</g>
<!-- Node8&#45;&gt;Node9 -->
<g id="edge10" class="edge"><title>Node8&#45;&gt;Node9</title>
<path fill="none" stroke="midnightblue" d="M181.76,-61.7838C224.858,-53.2588 342.809,-29.9278 402.656,-18.0901"/>
<polygon fill="midnightblue" stroke="midnightblue" points="403.648,-21.4618 412.778,-16.0878 402.289,-14.5948 403.648,-21.4618"/>
</g>
<!-- Node10 -->
<g id="node10" class="node"><title>Node10</title>
<g id="a_node10"><a xlink:href="ccsbcs_8cpp.html" target="_top" xlink:title="ccsbcs.cpp">
<polygon fill="white" stroke="black" points="131,-0.5 131,-19.5 200,-19.5 200,-0.5 131,-0.5"/>
<text text-anchor="middle" x="165.5" y="-7.5" font-family="Helvetica,sans-Serif" font-size="10.00">ccsbcs.cpp</text>
</a>
</g>
</g>
<!-- Node8&#45;&gt;Node10 -->
<g id="edge11" class="edge"><title>Node8&#45;&gt;Node10</title>
<path fill="none" stroke="midnightblue" d="M160.334,-56.083C158.824,-48.9272 158.394,-38.6353 159.042,-29.6911"/>
<polygon fill="midnightblue" stroke="midnightblue" points="162.515,-30.1262 160.369,-19.7511 155.577,-29.2002 162.515,-30.1262"/>
</g>
<!-- Node10&#45;&gt;Node8 -->
<g id="edge12" class="edge"><title>Node10&#45;&gt;Node8</title>
<path fill="none" stroke="midnightblue" d="M170.631,-19.7511C172.157,-26.8579 172.604,-37.1357 171.972,-46.1005"/>
<polygon fill="midnightblue" stroke="midnightblue" points="168.493,-45.7134 170.666,-56.083 175.434,-46.6216 168.493,-45.7134"/>
</g>
<!-- Node12&#45;&gt;Node4 -->
<g id="edge17" class="edge"><title>Node12&#45;&gt;Node4</title>
<path fill="none" stroke="midnightblue" d="M460.691,-226.665C484.937,-220.815 511.636,-209.576 526.5,-188 548.031,-156.745 532.044,-109.917 520.532,-84.6609"/>
<polygon fill="midnightblue" stroke="midnightblue" points="523.633,-83.035 516.138,-75.5474 517.328,-86.0752 523.633,-83.035"/>
</g>
<!-- Node12&#45;&gt;Node5 -->
<g id="edge18" class="edge"><title>Node12&#45;&gt;Node5</title>
<path fill="none" stroke="midnightblue" d="M382.511,-243.516C350.749,-252.782 296.74,-267.633 257.843,-277.829"/>
<polygon fill="midnightblue" stroke="midnightblue" points="256.599,-274.536 247.804,-280.444 258.363,-281.31 256.599,-274.536"/>
</g>
<!-- Node12&#45;&gt;Node9 -->
<g id="edge16" class="edge"><title>Node12&#45;&gt;Node9</title>
<path fill="none" stroke="midnightblue" d="M460.641,-228.835C489.808,-223.711 524.431,-212.476 545.5,-188 578.439,-149.735 560.263,-126.311 564.5,-76 565.246,-67.1425 569.62,-63.2659 564.5,-56 544.212,-27.2112 503.756,-16.7386 474.14,-12.9846"/>
<polygon fill="midnightblue" stroke="midnightblue" points="474.482,-9.50138 464.167,-11.918 473.738,-16.4617 474.482,-9.50138"/>
</g>
<!-- Node13 -->
<g id="node13" class="node"><title>Node13</title>
<polygon fill="white" stroke="#bfbfbf" points="465,-168.5 465,-187.5 518,-187.5 518,-168.5 465,-168.5"/>
<text text-anchor="middle" x="491.5" y="-175.5" font-family="Helvetica,sans-Serif" font-size="10.00">mbed.h</text>
</g>
<!-- Node12&#45;&gt;Node13 -->
<g id="edge15" class="edge"><title>Node12&#45;&gt;Node13</title>
<path fill="none" stroke="midnightblue" d="M421.835,-224.324C434.662,-215.979 454.285,-203.212 469.44,-193.352"/>
<polygon fill="midnightblue" stroke="midnightblue" points="471.724,-196.042 478.198,-187.655 467.907,-190.174 471.724,-196.042"/>
</g>
<!-- Node14 -->
<g id="node14" class="node"><title>Node14</title>
<g id="a_node14"><a xlink:href="_f_a_t_file_handle_8h.html" target="_top" xlink:title="FATFileHandle.h">
<polygon fill="white" stroke="black" points="356.5,-168.5 356.5,-187.5 446.5,-187.5 446.5,-168.5 356.5,-168.5"/>
<text text-anchor="middle" x="401.5" y="-175.5" font-family="Helvetica,sans-Serif" font-size="10.00">FATFileHandle.h</text>
</a>
</g>
</g>
<!-- Node12&#45;&gt;Node14 -->
<g id="edge19" class="edge"><title>Node12&#45;&gt;Node14</title>
<path fill="none" stroke="midnightblue" d="M407.344,-224.083C406.416,-216.927 405.082,-206.635 403.923,-197.691"/>
<polygon fill="midnightblue" stroke="midnightblue" points="407.391,-197.218 402.634,-187.751 400.449,-198.118 407.391,-197.218"/>
</g>
<!-- Node16 -->
<g id="node16" class="node"><title>Node16</title>
<g id="a_node16"><a xlink:href="_f_a_t_dir_handle_8h.html" target="_top" xlink:title="FATDirHandle.h">
<polygon fill="white" stroke="black" points="211,-168.5 211,-187.5 300,-187.5 300,-168.5 211,-168.5"/>
<text text-anchor="middle" x="255.5" y="-175.5" font-family="Helvetica,sans-Serif" font-size="10.00">FATDirHandle.h</text>
</a>
</g>
</g>
<!-- Node12&#45;&gt;Node16 -->
<g id="edge26" class="edge"><title>Node12&#45;&gt;Node16</title>
<path fill="none" stroke="midnightblue" d="M384.257,-224.444C358.629,-215.399 318.015,-201.064 289.262,-190.916"/>
<polygon fill="midnightblue" stroke="midnightblue" points="290.225,-187.544 279.63,-187.516 287.895,-194.145 290.225,-187.544"/>
</g>
<!-- Node14&#45;&gt;Node7 -->
<g id="edge20" class="edge"><title>Node14&#45;&gt;Node7</title>
<path fill="none" stroke="midnightblue" d="M394.895,-168.083C389.245,-160.455 380.955,-149.264 374.049,-139.941"/>
<polygon fill="midnightblue" stroke="midnightblue" points="376.747,-137.703 367.982,-131.751 371.122,-141.87 376.747,-137.703"/>
</g>
<!-- Node15 -->
<g id="node15" class="node"><title>Node15</title>
<g id="a_node15"><a xlink:href="_f_a_t_file_handle_8cpp.html" target="_top" xlink:title="FATFileHandle.cpp">
<polygon fill="white" stroke="black" points="417,-112.5 417,-131.5 518,-131.5 518,-112.5 417,-112.5"/>
<text text-anchor="middle" x="467.5" y="-119.5" font-family="Helvetica,sans-Serif" font-size="10.00">FATFileHandle.cpp</text>
</a>
</g>
</g>
<!-- Node14&#45;&gt;Node15 -->
<g id="edge21" class="edge"><title>Node14&#45;&gt;Node15</title>
<path fill="none" stroke="midnightblue" d="M407.232,-168.083C415.632,-159.777 430.649,-147.246 443.714,-137.502"/>
<polygon fill="midnightblue" stroke="midnightblue" points="445.869,-140.264 451.929,-131.573 441.772,-134.587 445.869,-140.264"/>
</g>
<!-- Node15&#45;&gt;Node4 -->
<g id="edge24" class="edge"><title>Node15&#45;&gt;Node4</title>
<path fill="none" stroke="midnightblue" d="M474.766,-112.083C481.045,-104.377 490.288,-93.0333 497.931,-83.6531"/>
<polygon fill="midnightblue" stroke="midnightblue" points="500.766,-85.7143 504.369,-75.7511 495.339,-81.2926 500.766,-85.7143"/>
</g>
<!-- Node15&#45;&gt;Node8 -->
<g id="edge22" class="edge"><title>Node15&#45;&gt;Node8</title>
<path fill="none" stroke="midnightblue" d="M419.647,-112.444C355.188,-100.918 242.692,-80.8025 191.817,-71.7057"/>
<polygon fill="midnightblue" stroke="midnightblue" points="192.117,-68.2038 181.657,-69.889 190.885,-75.0945 192.117,-68.2038"/>
</g>
<!-- Node15&#45;&gt;Node9 -->
<g id="edge23" class="edge"><title>Node15&#45;&gt;Node9</title>
<path fill="none" stroke="midnightblue" d="M465.224,-112.368C460.523,-94.5366 449.651,-53.2953 443.317,-29.2717"/>
<polygon fill="midnightblue" stroke="midnightblue" points="446.699,-28.3688 440.765,-19.5914 439.93,-30.1533 446.699,-28.3688"/>
</g>
<!-- Node15&#45;&gt;Node14 -->
<g id="edge25" class="edge"><title>Node15&#45;&gt;Node14</title>
<path fill="none" stroke="midnightblue" d="M461.852,-131.834C453.502,-140.106 438.515,-152.62 425.443,-162.38"/>
<polygon fill="midnightblue" stroke="midnightblue" points="423.274,-159.63 417.219,-168.324 427.374,-165.303 423.274,-159.63"/>
</g>
<!-- Node17 -->
<g id="node17" class="node"><title>Node17</title>
<polygon fill="white" stroke="#bfbfbf" points="115,-112.5 115,-131.5 188,-131.5 188,-112.5 115,-112.5"/>
<text text-anchor="middle" x="151.5" y="-119.5" font-family="Helvetica,sans-Serif" font-size="10.00">DirHandle.h</text>
</g>
<!-- Node16&#45;&gt;Node17 -->
<g id="edge27" class="edge"><title>Node16&#45;&gt;Node17</title>
<path fill="none" stroke="midnightblue" d="M238.791,-168.324C222.188,-159.703 196.498,-146.364 177.28,-136.386"/>
<polygon fill="midnightblue" stroke="midnightblue" points="178.656,-133.156 168.168,-131.655 175.43,-139.369 178.656,-133.156"/>
</g>
<!-- Node18 -->
<g id="node18" class="node"><title>Node18</title>
<g id="a_node18"><a xlink:href="_f_a_t_dir_handle_8cpp.html" target="_top" xlink:title="FATDirHandle.cpp">
<polygon fill="white" stroke="black" points="206.5,-112.5 206.5,-131.5 306.5,-131.5 306.5,-112.5 206.5,-112.5"/>
<text text-anchor="middle" x="256.5" y="-119.5" font-family="Helvetica,sans-Serif" font-size="10.00">FATDirHandle.cpp</text>
</a>
</g>
</g>
<!-- Node16&#45;&gt;Node18 -->
<g id="edge28" class="edge"><title>Node16&#45;&gt;Node18</title>
<path fill="none" stroke="midnightblue" d="M250.499,-168.083C249.122,-160.927 248.882,-150.635 249.696,-141.691"/>
<polygon fill="midnightblue" stroke="midnightblue" points="253.165,-142.163 251.207,-131.751 246.244,-141.112 253.165,-142.163"/>
</g>
<!-- Node18&#45;&gt;Node8 -->
<g id="edge30" class="edge"><title>Node18&#45;&gt;Node8</title>
<path fill="none" stroke="midnightblue" d="M241.879,-112.324C227.551,-103.822 205.487,-90.7288 188.751,-80.7975"/>
<polygon fill="midnightblue" stroke="midnightblue" points="190.47,-77.7478 180.084,-75.6545 186.898,-83.7677 190.47,-77.7478"/>
</g>
<!-- Node18&#45;&gt;Node16 -->
<g id="edge31" class="edge"><title>Node18&#45;&gt;Node16</title>
<path fill="none" stroke="midnightblue" d="M261.469,-131.751C262.864,-138.858 263.12,-149.136 262.322,-158.101"/>
<polygon fill="midnightblue" stroke="midnightblue" points="258.847,-157.676 260.831,-168.083 265.77,-158.71 258.847,-157.676"/>
</g>
<!-- Node19 -->
<g id="node19" class="node"><title>Node19</title>
<polygon fill="white" stroke="#bfbfbf" points="230,-56.5 230,-75.5 283,-75.5 283,-56.5 230,-56.5"/>
<text text-anchor="middle" x="256.5" y="-63.5" font-family="Helvetica,sans-Serif" font-size="10.00">string.h</text>
</g>
<!-- Node18&#45;&gt;Node19 -->
<g id="edge29" class="edge"><title>Node18&#45;&gt;Node19</title>
<path fill="none" stroke="midnightblue" d="M256.5,-112.083C256.5,-105.006 256.5,-94.8611 256.5,-85.9865"/>
<polygon fill="midnightblue" stroke="midnightblue" points="260,-85.751 256.5,-75.7511 253,-85.7511 260,-85.751"/>
</g>
<!-- Node20&#45;&gt;Node1 -->
<g id="edge34" class="edge"><title>Node20&#45;&gt;Node1</title>
<path fill="none" stroke="midnightblue" d="M56.7923,-243.56C69.5135,-268.928 107.333,-344.347 126.734,-383.036"/>
<polygon fill="midnightblue" stroke="midnightblue" points="123.851,-385.095 131.462,-392.465 130.108,-381.957 123.851,-385.095"/>
</g>
<!-- Node20&#45;&gt;Node8 -->
<g id="edge33" class="edge"><title>Node20&#45;&gt;Node8</title>
<path fill="none" stroke="midnightblue" d="M51.4211,-224.357C49.234,-202.969 46.4918,-146.788 72.5,-112 88.7443,-90.2718 118.257,-78.5104 139.689,-72.5233"/>
<polygon fill="midnightblue" stroke="midnightblue" points="140.643,-75.8922 149.468,-70.0297 138.913,-69.1093 140.643,-75.8922"/>
</g>
</g>
</svg>
