<?xml version="1.0" encoding="UTF-8" standalone="no"?>
<!DOCTYPE svg PUBLIC "-//W3C//DTD SVG 1.1//EN"
 "http://www.w3.org/Graphics/SVG/1.1/DTD/svg11.dtd">
<!-- Generated by graphviz version 2.38.0 (20140413.2041)
 -->
<!-- Title: lib/carpi/lib/SDFileSystem/FATFileSystem/diskio.h Pages: 1 -->
<svg width="866pt" height="307pt"
 viewBox="0.00 0.00 865.50 307.00" xmlns="http://www.w3.org/2000/svg" xmlns:xlink="http://www.w3.org/1999/xlink">
<g id="graph0" class="graph" transform="scale(1 1) rotate(0) translate(4 303)">
<title>lib/carpi/lib/SDFileSystem/FATFileSystem/diskio.h</title>
<polygon fill="white" stroke="none" points="-4,4 -4,-303 861.5,-303 861.5,4 -4,4"/>
<!-- Node1 -->
<g id="node1" class="node"><title>Node1</title>
<polygon fill="#bfbfbf" stroke="black" points="0.5,-268.5 0.5,-298.5 136.5,-298.5 136.5,-268.5 0.5,-268.5"/>
<text text-anchor="start" x="8.5" y="-286.5" font-family="Helvetica,sans-Serif" font-size="10.00">lib/carpi/lib/SDFileSystem</text>
<text text-anchor="middle" x="68.5" y="-275.5" font-family="Helvetica,sans-Serif" font-size="10.00">/FATFileSystem/diskio.h</text>
</g>
<!-- Node2 -->
<g id="node2" class="node"><title>Node2</title>
<g id="a_node2"><a xlink:href="diskio_8cpp.html" target="_top" xlink:title="lib/carpi/lib/SDFileSystem\l/FATFileSystem/diskio.cpp">
<polygon fill="white" stroke="black" points="0,-67.5 0,-97.5 137,-97.5 137,-67.5 0,-67.5"/>
<text text-anchor="start" x="8" y="-85.5" font-family="Helvetica,sans-Serif" font-size="10.00">lib/carpi/lib/SDFileSystem</text>
<text text-anchor="middle" x="68.5" y="-74.5" font-family="Helvetica,sans-Serif" font-size="10.00">/FATFileSystem/diskio.cpp</text>
</a>
</g>
</g>
<!-- Node1&#45;&gt;Node2 -->
<g id="edge1" class="edge"><title>Node1&#45;&gt;Node2</title>
<path fill="none" stroke="midnightblue" d="M63.8783,-257.998C60.7577,-215.93 61.0688,-131.256 64.8115,-97.6819"/>
<polygon fill="midnightblue" stroke="midnightblue" points="60.4131,-258.543 64.7971,-268.188 67.3848,-257.914 60.4131,-258.543"/>
</g>
<!-- Node3 -->
<g id="node3" class="node"><title>Node3</title>
<g id="a_node3"><a xlink:href="ff_8cpp.html" target="_top" xlink:title="lib/carpi/lib/SDFileSystem\l/FATFileSystem/ff.cpp">
<polygon fill="white" stroke="black" points="140.5,-201.5 140.5,-231.5 276.5,-231.5 276.5,-201.5 140.5,-201.5"/>
<text text-anchor="start" x="148.5" y="-219.5" font-family="Helvetica,sans-Serif" font-size="10.00">lib/carpi/lib/SDFileSystem</text>
<text text-anchor="middle" x="208.5" y="-208.5" font-family="Helvetica,sans-Serif" font-size="10.00">/FATFileSystem/ff.cpp</text>
</a>
</g>
</g>
<!-- Node1&#45;&gt;Node3 -->
<g id="edge3" class="edge"><title>Node1&#45;&gt;Node3</title>
<path fill="none" stroke="midnightblue" d="M108.065,-264.131C130.31,-253.802 157.647,-241.11 178.181,-231.577"/>
<polygon fill="midnightblue" stroke="midnightblue" points="106.474,-261.01 98.8779,-268.396 109.422,-267.359 106.474,-261.01"/>
</g>
<!-- Node2&#45;&gt;Node1 -->
<g id="edge2" class="edge"><title>Node2&#45;&gt;Node1</title>
<path fill="none" stroke="midnightblue" d="M73.1097,-107.84C76.2391,-149.798 75.9368,-234.483 72.2029,-268.188"/>
<polygon fill="midnightblue" stroke="midnightblue" points="76.5774,-107.325 72.1885,-97.6819 69.606,-107.957 76.5774,-107.325"/>
</g>
<!-- Node4 -->
<g id="node4" class="node"><title>Node4</title>
<g id="a_node4"><a xlink:href="_f_a_t_file_system_8h.html" target="_top" xlink:title="lib/carpi/lib/SDFileSystem\l/FATFileSystem/FATFileSystem.h">
<polygon fill="white" stroke="black" points="161,-134.5 161,-164.5 328,-164.5 328,-134.5 161,-134.5"/>
<text text-anchor="start" x="169" y="-152.5" font-family="Helvetica,sans-Serif" font-size="10.00">lib/carpi/lib/SDFileSystem</text>
<text text-anchor="middle" x="244.5" y="-141.5" font-family="Helvetica,sans-Serif" font-size="10.00">/FATFileSystem/FATFileSystem.h</text>
</a>
</g>
</g>
<!-- Node3&#45;&gt;Node4 -->
<g id="edge4" class="edge"><title>Node3&#45;&gt;Node4</title>
<path fill="none" stroke="midnightblue" d="M221.197,-192.576C226.367,-183.241 232.178,-172.748 236.704,-164.577"/>
<polygon fill="midnightblue" stroke="midnightblue" points="218.095,-190.952 216.311,-201.396 224.218,-194.344 218.095,-190.952"/>
</g>
<!-- Node4&#45;&gt;Node2 -->
<g id="edge5" class="edge"><title>Node4&#45;&gt;Node2</title>
<path fill="none" stroke="midnightblue" d="M196.624,-130.819C168.334,-120.371 133.006,-107.323 106.615,-97.5765"/>
<polygon fill="midnightblue" stroke="midnightblue" points="195.717,-134.215 206.311,-134.396 198.143,-127.648 195.717,-134.215"/>
</g>
<!-- Node5 -->
<g id="node5" class="node"><title>Node5</title>
<g id="a_node5"><a xlink:href="_f_a_t_file_system_8cpp.html" target="_top" xlink:title="lib/carpi/lib/SDFileSystem\l/FATFileSystem/FATFileSystem.cpp">
<polygon fill="white" stroke="black" points="155.5,-67.5 155.5,-97.5 333.5,-97.5 333.5,-67.5 155.5,-67.5"/>
<text text-anchor="start" x="163.5" y="-85.5" font-family="Helvetica,sans-Serif" font-size="10.00">lib/carpi/lib/SDFileSystem</text>
<text text-anchor="middle" x="244.5" y="-74.5" font-family="Helvetica,sans-Serif" font-size="10.00">/FATFileSystem/FATFileSystem.cpp</text>
</a>
</g>
</g>
<!-- Node4&#45;&gt;Node5 -->
<g id="edge6" class="edge"><title>Node4&#45;&gt;Node5</title>
<path fill="none" stroke="midnightblue" d="M237.955,-124.403C237.505,-115.37 237.796,-105.408 238.825,-97.5765"/>
<polygon fill="midnightblue" stroke="midnightblue" points="234.47,-124.736 238.822,-134.396 241.444,-124.131 234.47,-124.736"/>
</g>
<!-- Node6 -->
<g id="node6" class="node"><title>Node6</title>
<g id="a_node6"><a xlink:href="_mem_file_system_8h.html" target="_top" xlink:title="lib/carpi/lib/SDFileSystem\l/FATFileSystem/MemFileSystem.h">
<polygon fill="white" stroke="black" points="352,-67.5 352,-97.5 527,-97.5 527,-67.5 352,-67.5"/>
<text text-anchor="start" x="360" y="-85.5" font-family="Helvetica,sans-Serif" font-size="10.00">lib/carpi/lib/SDFileSystem</text>
<text text-anchor="middle" x="439.5" y="-74.5" font-family="Helvetica,sans-Serif" font-size="10.00">/FATFileSystem/MemFileSystem.h</text>
</a>
</g>
</g>
<!-- Node4&#45;&gt;Node6 -->
<g id="edge8" class="edge"><title>Node4&#45;&gt;Node6</title>
<path fill="none" stroke="midnightblue" d="M296.317,-131.228C327.861,-120.713 367.648,-107.451 397.27,-97.5765"/>
<polygon fill="midnightblue" stroke="midnightblue" points="295.192,-127.913 286.812,-134.396 297.406,-134.554 295.192,-127.913"/>
</g>
<!-- Node7 -->
<g id="node7" class="node"><title>Node7</title>
<g id="a_node7"><a xlink:href="_s_d_file_system_8h.html" target="_top" xlink:title="lib/carpi/lib/SDFileSystem\l/SDFileSystem.h">
<polygon fill="white" stroke="black" points="545.5,-67.5 545.5,-97.5 681.5,-97.5 681.5,-67.5 545.5,-67.5"/>
<text text-anchor="start" x="553.5" y="-85.5" font-family="Helvetica,sans-Serif" font-size="10.00">lib/carpi/lib/SDFileSystem</text>
<text text-anchor="middle" x="613.5" y="-74.5" font-family="Helvetica,sans-Serif" font-size="10.00">/SDFileSystem.h</text>
</a>
</g>
</g>
<!-- Node4&#45;&gt;Node7 -->
<g id="edge9" class="edge"><title>Node4&#45;&gt;Node7</title>
<path fill="none" stroke="midnightblue" d="M337.764,-132.734C395.125,-122.947 470.113,-109.991 536.5,-98 539.445,-97.4681 542.453,-96.9205 545.49,-96.3639"/>
<polygon fill="midnightblue" stroke="midnightblue" points="336.898,-129.331 327.628,-134.462 338.074,-136.232 336.898,-129.331"/>
</g>
<!-- Node5&#45;&gt;Node4 -->
<g id="edge7" class="edge"><title>Node5&#45;&gt;Node4</title>
<path fill="none" stroke="midnightblue" d="M251.044,-107.565C251.495,-116.596 251.206,-126.56 250.178,-134.396"/>
<polygon fill="midnightblue" stroke="midnightblue" points="254.528,-107.236 250.175,-97.5765 247.555,-107.842 254.528,-107.236"/>
</g>
<!-- Node8 -->
<g id="node8" class="node"><title>Node8</title>
<g id="a_node8"><a xlink:href="_s_d_card_test_8h.html" target="_top" xlink:title="car/hardwareTest/mbed\l/SDCardTest.h">
<polygon fill="white" stroke="black" points="399.5,-0.5 399.5,-30.5 527.5,-30.5 527.5,-0.5 399.5,-0.5"/>
<text text-anchor="start" x="407.5" y="-18.5" font-family="Helvetica,sans-Serif" font-size="10.00">car/hardwareTest/mbed</text>
<text text-anchor="middle" x="463.5" y="-7.5" font-family="Helvetica,sans-Serif" font-size="10.00">/SDCardTest.h</text>
</a>
</g>
</g>
<!-- Node7&#45;&gt;Node8 -->
<g id="edge10" class="edge"><title>Node7&#45;&gt;Node8</title>
<path fill="none" stroke="midnightblue" d="M571.746,-63.4066C547.799,-53.0294 518.182,-40.1954 495.984,-30.5765"/>
<polygon fill="midnightblue" stroke="midnightblue" points="570.385,-66.6313 580.952,-67.396 573.168,-60.2084 570.385,-66.6313"/>
</g>
<!-- Node9 -->
<g id="node9" class="node"><title>Node9</title>
<g id="a_node9"><a xlink:href="_s_d_file_system_8cpp.html" target="_top" xlink:title="lib/carpi/lib/SDFileSystem\l/SDFileSystem.cpp">
<polygon fill="white" stroke="black" points="545.5,-0.5 545.5,-30.5 681.5,-30.5 681.5,-0.5 545.5,-0.5"/>
<text text-anchor="start" x="553.5" y="-18.5" font-family="Helvetica,sans-Serif" font-size="10.00">lib/carpi/lib/SDFileSystem</text>
<text text-anchor="middle" x="613.5" y="-7.5" font-family="Helvetica,sans-Serif" font-size="10.00">/SDFileSystem.cpp</text>
</a>
</g>
</g>
<!-- Node7&#45;&gt;Node9 -->
<g id="edge11" class="edge"><title>Node7&#45;&gt;Node9</title>
<path fill="none" stroke="midnightblue" d="M613.5,-57.1081C613.5,-48.1539 613.5,-38.3227 613.5,-30.5765"/>
<polygon fill="midnightblue" stroke="midnightblue" points="610,-57.3959 613.5,-67.396 617,-57.396 610,-57.3959"/>
</g>
<!-- Node10 -->
<g id="node10" class="node"><title>Node10</title>
<g id="a_node10"><a xlink:href="_hardware_s_d_card_8h.html" target="_top" xlink:title="lib/carpi/src/components\l/hardware/HardwareSDCard.h">
<polygon fill="white" stroke="black" points="699.5,-0.5 699.5,-30.5 857.5,-30.5 857.5,-0.5 699.5,-0.5"/>
<text text-anchor="start" x="707.5" y="-18.5" font-family="Helvetica,sans-Serif" font-size="10.00">lib/carpi/src/components</text>
<text text-anchor="middle" x="778.5" y="-7.5" font-family="Helvetica,sans-Serif" font-size="10.00">/hardware/HardwareSDCard.h</text>
</a>
</g>
</g>
<!-- Node7&#45;&gt;Node10 -->
<g id="edge12" class="edge"><title>Node7&#45;&gt;Node10</title>
<path fill="none" stroke="midnightblue" d="M658.732,-63.6815C685.194,-53.2568 718.134,-40.2805 742.767,-30.5765"/>
<polygon fill="midnightblue" stroke="midnightblue" points="657.324,-60.4742 649.303,-67.396 659.889,-66.9871 657.324,-60.4742"/>
</g>
</g>
</svg>
