<?xml version="1.0" encoding="UTF-8" standalone="no"?>
<!DOCTYPE svg PUBLIC "-//W3C//DTD SVG 1.1//EN"
 "http://www.w3.org/Graphics/SVG/1.1/DTD/svg11.dtd">
<!-- Generated by graphviz version 2.38.0 (20140413.2041)
 -->
<!-- Title: lib/carpi/lib/SDFileSystem/FATFileSystem/diskio.cpp Pages: 1 -->
<!--zoomable 375 -->
<svg id="main" version="1.1" xmlns="http://www.w3.org/2000/svg" xmlns:xlink="http://www.w3.org/1999/xlink" xml:space="preserve" onload="init(evt)">
<style type="text/css"><![CDATA[
.edge:hover path { stroke: red; }
.edge:hover polygon { stroke: red; fill: red; }
]]></style>
<script type="text/javascript"><![CDATA[
var edges = document.getElementsByTagName('g');
if (edges && edges.length) {
  for (var i=0;i<edges.length;i++) {
    if (edges[i].id.substr(0,4)=='edge') {
      edges[i].setAttribute('class','edge');
    }
  }
}
]]></script>
        <defs>
                <circle id="rim" cx="0" cy="0" r="7"/>
                <circle id="rim2" cx="0" cy="0" r="3.5"/>
                <g id="zoomPlus">
                        <use xlink:href="#rim" fill="#404040">
                                <set attributeName="fill" to="#808080" begin="zoomplus.mouseover" end="zoomplus.mouseout"/>
                        </use>
                        <path d="M-4,0h8M0,-4v8" fill="none" stroke="white" stroke-width="1.5" pointer-events="none"/>
                </g>
                <g id="zoomMin">
                        <use xlink:href="#rim" fill="#404040">
                                <set attributeName="fill" to="#808080" begin="zoomminus.mouseover" end="zoomminus.mouseout"/>
                        </use>
                        <path d="M-4,0h8" fill="none" stroke="white" stroke-width="1.5" pointer-events="none"/>
                </g>
                <g id="dirArrow">
                        <path fill="none" stroke="white" stroke-width="1.5" d="M0,-3.0v7 M-2.5,-0.5L0,-3.0L2.5,-0.5"/>
                </g>
               <g id="resetDef">
                       <use xlink:href="#rim2" fill="#404040">
                               <set attributeName="fill" to="#808080" begin="reset.mouseover" end="reset.mouseout"/>
                       </use>
               </g>
        </defs>

<script type="text/javascript">
var viewWidth = 769;
var viewHeight = 375;
var sectionId = 'dynsection-0';
</script>
<script xlink:href="svgpan.js"/>
<svg id="graph" class="graph">
<g id="viewport">
<title>lib/carpi/lib/SDFileSystem/FATFileSystem/diskio.cpp</title>
<polygon fill="white" stroke="none" points="-4,4 -4,-371 765.167,-371 765.167,4 -4,4"/>
<!-- Node1 -->
<g id="node1" class="node"><title>Node1</title>
<polygon fill="#bfbfbf" stroke="black" points="0,-336.5 0,-366.5 137,-366.5 137,-336.5 0,-336.5"/>
<text text-anchor="start" x="8" y="-354.5" font-family="Helvetica,sans-Serif" font-size="10.00">lib/carpi/lib/SDFileSystem</text>
<text text-anchor="middle" x="68.5" y="-343.5" font-family="Helvetica,sans-Serif" font-size="10.00">/FATFileSystem/diskio.cpp</text>
</g>
<!-- Node2 -->
<g id="node2" class="node"><title>Node2</title>
<g id="a_node2"><a xlink:href="diskio_8h.html" target="_top" xlink:title="diskio.h">
<polygon fill="white" stroke="black" points="19,-168.5 19,-187.5 72,-187.5 72,-168.5 19,-168.5"/>
<text text-anchor="middle" x="45.5" y="-175.5" font-family="Helvetica,sans-Serif" font-size="10.00">diskio.h</text>
</a>
</g>
</g>
<!-- Node1&#45;&gt;Node2 -->
<g id="edge1" class="edge"><title>Node1&#45;&gt;Node2</title>
<path fill="none" stroke="midnightblue" d="M62.706,-336.465C54.9679,-305.704 44.9637,-232.329 43.6044,-197.7"/>
<polygon fill="midnightblue" stroke="midnightblue" points="47.1027,-197.52 43.4906,-187.56 40.1031,-197.598 47.1027,-197.52"/>
</g>
<!-- Node4 -->
<g id="node4" class="node"><title>Node4</title>
<polygon fill="white" stroke="#bfbfbf" points="334,-56.5 334,-75.5 423,-75.5 423,-56.5 334,-56.5"/>
<text text-anchor="middle" x="378.5" y="-63.5" font-family="Helvetica,sans-Serif" font-size="10.00">mbed_debug.h</text>
</g>
<!-- Node1&#45;&gt;Node4 -->
<g id="edge4" class="edge"><title>Node1&#45;&gt;Node4</title>
<path fill="none" stroke="midnightblue" d="M70.6327,-336.424C74.9144,-311.758 86.3813,-259.931 111.5,-224 156.957,-158.977 181.188,-150.602 250.5,-112 277.025,-97.2275 309.287,-85.9232 334.786,-78.3394"/>
<polygon fill="midnightblue" stroke="midnightblue" points="335.918,-81.6555 344.553,-75.5166 333.974,-74.9307 335.918,-81.6555"/>
</g>
<!-- Node5 -->
<g id="node5" class="node"><title>Node5</title>
<g id="a_node5"><a xlink:href="_f_a_t_file_system_8h.html" target="_top" xlink:title="FATFileSystem.h">
<polygon fill="white" stroke="black" points="279,-280.5 279,-299.5 372,-299.5 372,-280.5 279,-280.5"/>
<text text-anchor="middle" x="325.5" y="-287.5" font-family="Helvetica,sans-Serif" font-size="10.00">FATFileSystem.h</text>
</a>
</g>
</g>
<!-- Node1&#45;&gt;Node5 -->
<g id="edge5" class="edge"><title>Node1&#45;&gt;Node5</title>
<path fill="none" stroke="midnightblue" d="M129.08,-336.475C174.87,-325.874 236.807,-311.534 278.798,-301.812"/>
<polygon fill="midnightblue" stroke="midnightblue" points="279.805,-305.172 288.758,-299.506 278.226,-298.352 279.805,-305.172"/>
</g>
<!-- Node2&#45;&gt;Node1 -->
<g id="edge3" class="edge"><title>Node2&#45;&gt;Node1</title>
<path fill="none" stroke="midnightblue" d="M49.8053,-187.56C57.296,-212.712 67.846,-287.067 70.1118,-326.04"/>
<polygon fill="midnightblue" stroke="midnightblue" points="66.6319,-326.614 70.5296,-336.465 73.6262,-326.333 66.6319,-326.614"/>
</g>
<!-- Node3 -->
<g id="node3" class="node"><title>Node3</title>
<g id="a_node3"><a xlink:href="integer_8h.html" target="_top" xlink:title="integer.h">
<polygon fill="white" stroke="black" points="209,-0.5 209,-19.5 268,-19.5 268,-0.5 209,-0.5"/>
<text text-anchor="middle" x="238.5" y="-7.5" font-family="Helvetica,sans-Serif" font-size="10.00">integer.h</text>
</a>
</g>
</g>
<!-- Node2&#45;&gt;Node3 -->
<g id="edge2" class="edge"><title>Node2&#45;&gt;Node3</title>
<path fill="none" stroke="midnightblue" d="M49.5442,-168.201C55.9692,-154.897 69.5347,-129.373 86.5,-112 124.377,-73.213 179.527,-41.1541 211.938,-24.1574"/>
<polygon fill="midnightblue" stroke="midnightblue" points="213.547,-27.2652 220.832,-19.5724 210.34,-21.0432 213.547,-27.2652"/>
</g>
<!-- Node6 -->
<g id="node6" class="node"><title>Node6</title>
<polygon fill="white" stroke="#bfbfbf" points="120.5,-224.5 120.5,-243.5 216.5,-243.5 216.5,-224.5 120.5,-224.5"/>
<text text-anchor="middle" x="168.5" y="-231.5" font-family="Helvetica,sans-Serif" font-size="10.00">FileSystemLike.h</text>
</g>
<!-- Node5&#45;&gt;Node6 -->
<g id="edge6" class="edge"><title>Node5&#45;&gt;Node6</title>
<path fill="none" stroke="midnightblue" d="M300.623,-280.444C274.211,-271.359 232.285,-256.939 202.758,-246.783"/>
<polygon fill="midnightblue" stroke="midnightblue" points="203.855,-243.459 193.261,-243.516 201.579,-250.079 203.855,-243.459"/>
</g>
<!-- Node7 -->
<g id="node7" class="node"><title>Node7</title>
<polygon fill="white" stroke="#bfbfbf" points="307.5,-112.5 307.5,-131.5 381.5,-131.5 381.5,-112.5 307.5,-112.5"/>
<text text-anchor="middle" x="344.5" y="-119.5" font-family="Helvetica,sans-Serif" font-size="10.00">FileHandle.h</text>
</g>
<!-- Node5&#45;&gt;Node7 -->
<g id="edge7" class="edge"><title>Node5&#45;&gt;Node7</title>
<path fill="none" stroke="midnightblue" d="M326.522,-280.075C329.512,-253.945 338.295,-177.211 342.374,-141.577"/>
<polygon fill="midnightblue" stroke="midnightblue" points="345.859,-141.901 343.519,-131.568 338.905,-141.105 345.859,-141.901"/>
</g>
<!-- Node8 -->
<g id="node8" class="node"><title>Node8</title>
<g id="a_node8"><a xlink:href="ff_8h.html" target="_top" xlink:title="ff.h">
<polygon fill="white" stroke="black" points="441.5,-56.5 441.5,-75.5 473.5,-75.5 473.5,-56.5 441.5,-56.5"/>
<text text-anchor="middle" x="457.5" y="-63.5" font-family="Helvetica,sans-Serif" font-size="10.00">ff.h</text>
</a>
</g>
</g>
<!-- Node5&#45;&gt;Node8 -->
<g id="edge8" class="edge"><title>Node5&#45;&gt;Node8</title>
<path fill="none" stroke="midnightblue" d="M320.065,-280.147C303.674,-252.196 258.261,-164.579 298.5,-112 335.718,-63.3691 372.975,-94.0265 431.5,-76 431.6,-75.9692 431.7,-75.9384 431.8,-75.9073"/>
<polygon fill="midnightblue" stroke="midnightblue" points="432.913,-79.2259 441.329,-72.7905 430.737,-72.5727 432.913,-79.2259"/>
</g>
<!-- Node11 -->
<g id="node11" class="node"><title>Node11</title>
<polygon fill="white" stroke="#bfbfbf" points="524,-224.5 524,-243.5 577,-243.5 577,-224.5 524,-224.5"/>
<text text-anchor="middle" x="550.5" y="-231.5" font-family="Helvetica,sans-Serif" font-size="10.00">stdint.h</text>
</g>
<!-- Node5&#45;&gt;Node11 -->
<g id="edge13" class="edge"><title>Node5&#45;&gt;Node11</title>
<path fill="none" stroke="midnightblue" d="M361.762,-280.494C397.823,-272.006 454.986,-258.477 513.917,-244.122"/>
<polygon fill="midnightblue" stroke="midnightblue" points="514.886,-247.488 523.772,-241.717 513.227,-240.687 514.886,-247.488"/>
</g>
<!-- Node12 -->
<g id="node12" class="node"><title>Node12</title>
<g id="a_node12"><a xlink:href="_f_a_t_file_system_8cpp.html" target="_top" xlink:title="FATFileSystem.cpp">
<polygon fill="white" stroke="black" points="401.5,-224.5 401.5,-243.5 505.5,-243.5 505.5,-224.5 401.5,-224.5"/>
<text text-anchor="middle" x="453.5" y="-231.5" font-family="Helvetica,sans-Serif" font-size="10.00">FATFileSystem.cpp</text>
</a>
</g>
</g>
<!-- Node5&#45;&gt;Node12 -->
<g id="edge14" class="edge"><title>Node5&#45;&gt;Node12</title>
<path fill="none" stroke="midnightblue" d="M340.693,-280.444C359.979,-271.478 393.332,-257.314 418.872,-247.183"/>
<polygon fill="midnightblue" stroke="midnightblue" points="420.198,-250.422 428.233,-243.516 417.645,-243.904 420.198,-250.422"/>
</g>
<!-- Node20 -->
<g id="node20" class="node"><title>Node20</title>
<g id="a_node20"><a xlink:href="ff_8cpp.html" target="_top" xlink:title="ff.cpp">
<polygon fill="white" stroke="black" points="235,-224.5 235,-243.5 278,-243.5 278,-224.5 235,-224.5"/>
<text text-anchor="middle" x="256.5" y="-231.5" font-family="Helvetica,sans-Serif" font-size="10.00">ff.cpp</text>
</a>
</g>
</g>
<!-- Node5&#45;&gt;Node20 -->
<g id="edge32" class="edge"><title>Node5&#45;&gt;Node20</title>
<path fill="none" stroke="midnightblue" d="M314.414,-280.324C304.014,-272.185 288.239,-259.839 275.778,-250.087"/>
<polygon fill="midnightblue" stroke="midnightblue" points="277.82,-247.241 267.788,-243.834 273.506,-252.753 277.82,-247.241"/>
</g>
<!-- Node8&#45;&gt;Node3 -->
<g id="edge9" class="edge"><title>Node8&#45;&gt;Node3</title>
<path fill="none" stroke="midnightblue" d="M441.356,-59.12C438.112,-58.0211 434.712,-56.9278 431.5,-56 379.006,-40.8395 317.369,-27.1712 278.134,-18.9779"/>
<polygon fill="midnightblue" stroke="midnightblue" points="278.677,-15.5161 268.174,-16.9154 277.257,-22.3707 278.677,-15.5161"/>
</g>
<!-- Node9 -->
<g id="node9" class="node"><title>Node9</title>
<g id="a_node9"><a xlink:href="ffconf_8h.html" target="_top" xlink:title="ffconf.h">
<polygon fill="white" stroke="black" points="510,-0.5 510,-19.5 561,-19.5 561,-0.5 510,-0.5"/>
<text text-anchor="middle" x="535.5" y="-7.5" font-family="Helvetica,sans-Serif" font-size="10.00">ffconf.h</text>
</a>
</g>
</g>
<!-- Node8&#45;&gt;Node9 -->
<g id="edge10" class="edge"><title>Node8&#45;&gt;Node9</title>
<path fill="none" stroke="midnightblue" d="M470.032,-56.324C482.086,-47.979 500.527,-35.2122 514.769,-25.3524"/>
<polygon fill="midnightblue" stroke="midnightblue" points="516.769,-28.2243 522.999,-19.6545 512.785,-22.469 516.769,-28.2243"/>
</g>
<!-- Node10 -->
<g id="node10" class="node"><title>Node10</title>
<g id="a_node10"><a xlink:href="ccsbcs_8cpp.html" target="_top" xlink:title="ccsbcs.cpp">
<polygon fill="white" stroke="black" points="423,-0.5 423,-19.5 492,-19.5 492,-0.5 423,-0.5"/>
<text text-anchor="middle" x="457.5" y="-7.5" font-family="Helvetica,sans-Serif" font-size="10.00">ccsbcs.cpp</text>
</a>
</g>
</g>
<!-- Node8&#45;&gt;Node10 -->
<g id="edge11" class="edge"><title>Node8&#45;&gt;Node10</title>
<path fill="none" stroke="midnightblue" d="M452.334,-56.083C450.824,-48.9272 450.394,-38.6353 451.042,-29.6911"/>
<polygon fill="midnightblue" stroke="midnightblue" points="454.515,-30.1262 452.369,-19.7511 447.577,-29.2002 454.515,-30.1262"/>
</g>
<!-- Node10&#45;&gt;Node8 -->
<g id="edge12" class="edge"><title>Node10&#45;&gt;Node8</title>
<path fill="none" stroke="midnightblue" d="M462.631,-19.7511C464.157,-26.8579 464.604,-37.1357 463.972,-46.1005"/>
<polygon fill="midnightblue" stroke="midnightblue" points="460.493,-45.7134 462.666,-56.083 467.434,-46.6216 460.493,-45.7134"/>
</g>
<!-- Node12&#45;&gt;Node4 -->
<g id="edge17" class="edge"><title>Node12&#45;&gt;Node4</title>
<path fill="none" stroke="midnightblue" d="M448.211,-224.195C442.925,-215.238 434.713,-200.879 428.5,-188 411.286,-152.316 394.333,-109.13 385.267,-85.2007"/>
<polygon fill="midnightblue" stroke="midnightblue" points="388.475,-83.7888 381.683,-75.6574 381.922,-86.2495 388.475,-83.7888"/>
</g>
<!-- Node12&#45;&gt;Node5 -->
<g id="edge18" class="edge"><title>Node12&#45;&gt;Node5</title>
<path fill="none" stroke="midnightblue" d="M438.393,-243.516C419.149,-252.467 385.806,-266.629 360.242,-276.772"/>
<polygon fill="midnightblue" stroke="midnightblue" points="358.905,-273.537 350.871,-280.444 361.458,-280.054 358.905,-273.537"/>
</g>
<!-- Node12&#45;&gt;Node9 -->
<g id="edge16" class="edge"><title>Node12&#45;&gt;Node9</title>
<path fill="none" stroke="midnightblue" d="M505.591,-225.014C579.16,-213.591 705.607,-193.371 714.5,-188 741.361,-171.776 747.408,-161.713 757.5,-132 785.093,-50.7587 641.125,-23.0372 571.497,-14.4696"/>
<polygon fill="midnightblue" stroke="midnightblue" points="571.732,-10.9734 561.395,-13.2969 570.925,-17.9267 571.732,-10.9734"/>
</g>
<!-- Node13 -->
<g id="node13" class="node"><title>Node13</title>
<polygon fill="white" stroke="#bfbfbf" points="546,-168.5 546,-187.5 599,-187.5 599,-168.5 546,-168.5"/>
<text text-anchor="middle" x="572.5" y="-175.5" font-family="Helvetica,sans-Serif" font-size="10.00">mbed.h</text>
</g>
<!-- Node12&#45;&gt;Node13 -->
<g id="edge15" class="edge"><title>Node12&#45;&gt;Node13</title>
<path fill="none" stroke="midnightblue" d="M472.356,-224.444C491.766,-215.636 522.23,-201.812 544.465,-191.722"/>
<polygon fill="midnightblue" stroke="midnightblue" points="546.072,-194.836 553.732,-187.516 543.18,-188.462 546.072,-194.836"/>
</g>
<!-- Node14 -->
<g id="node14" class="node"><title>Node14</title>
<g id="a_node14"><a xlink:href="_f_a_t_file_handle_8h.html" target="_top" xlink:title="FATFileHandle.h">
<polygon fill="white" stroke="black" points="437.5,-168.5 437.5,-187.5 527.5,-187.5 527.5,-168.5 437.5,-168.5"/>
<text text-anchor="middle" x="482.5" y="-175.5" font-family="Helvetica,sans-Serif" font-size="10.00">FATFileHandle.h</text>
</a>
</g>
</g>
<!-- Node12&#45;&gt;Node14 -->
<g id="edge19" class="edge"><title>Node12&#45;&gt;Node14</title>
<path fill="none" stroke="midnightblue" d="M458.289,-224.083C462.258,-216.691 468.025,-205.953 472.935,-196.811"/>
<polygon fill="midnightblue" stroke="midnightblue" points="476.153,-198.217 477.8,-187.751 469.986,-194.905 476.153,-198.217"/>
</g>
<!-- Node16 -->
<g id="node16" class="node"><title>Node16</title>
<g id="a_node16"><a xlink:href="_f_a_t_dir_handle_8h.html" target="_top" xlink:title="FATDirHandle.h">
<polygon fill="white" stroke="black" points="617,-168.5 617,-187.5 706,-187.5 706,-168.5 617,-168.5"/>
<text text-anchor="middle" x="661.5" y="-175.5" font-family="Helvetica,sans-Serif" font-size="10.00">FATDirHandle.h</text>
</a>
</g>
</g>
<!-- Node12&#45;&gt;Node16 -->
<g id="edge26" class="edge"><title>Node12&#45;&gt;Node16</title>
<path fill="none" stroke="midnightblue" d="M486.458,-224.444C522.287,-215.142 579.663,-200.246 618.891,-190.062"/>
<polygon fill="midnightblue" stroke="midnightblue" points="619.896,-193.417 628.696,-187.516 618.137,-186.642 619.896,-193.417"/>
</g>
<!-- Node14&#45;&gt;Node7 -->
<g id="edge20" class="edge"><title>Node14&#45;&gt;Node7</title>
<path fill="none" stroke="midnightblue" d="M460.633,-168.444C437.721,-159.478 401.525,-145.314 375.634,-135.183"/>
<polygon fill="midnightblue" stroke="midnightblue" points="376.852,-131.901 366.264,-131.516 374.301,-138.42 376.852,-131.901"/>
</g>
<!-- Node15 -->
<g id="node15" class="node"><title>Node15</title>
<g id="a_node15"><a xlink:href="_f_a_t_file_handle_8cpp.html" target="_top" xlink:title="FATFileHandle.cpp">
<polygon fill="white" stroke="black" points="438,-112.5 438,-131.5 539,-131.5 539,-112.5 438,-112.5"/>
<text text-anchor="middle" x="488.5" y="-119.5" font-family="Helvetica,sans-Serif" font-size="10.00">FATFileHandle.cpp</text>
</a>
</g>
</g>
<!-- Node14&#45;&gt;Node15 -->
<g id="edge21" class="edge"><title>Node14&#45;&gt;Node15</title>
<path fill="none" stroke="midnightblue" d="M478.324,-168.083C477.61,-160.927 478.323,-150.635 479.966,-141.691"/>
<polygon fill="midnightblue" stroke="midnightblue" points="483.421,-142.296 482.397,-131.751 476.621,-140.633 483.421,-142.296"/>
</g>
<!-- Node15&#45;&gt;Node4 -->
<g id="edge24" class="edge"><title>Node15&#45;&gt;Node4</title>
<path fill="none" stroke="midnightblue" d="M470.827,-112.324C453.106,-103.625 425.597,-90.1202 405.212,-80.113"/>
<polygon fill="midnightblue" stroke="midnightblue" points="406.649,-76.9195 396.13,-75.6545 403.564,-83.2031 406.649,-76.9195"/>
</g>
<!-- Node15&#45;&gt;Node8 -->
<g id="edge22" class="edge"><title>Node15&#45;&gt;Node8</title>
<path fill="none" stroke="midnightblue" d="M483.381,-112.083C479.092,-104.613 472.842,-93.7244 467.558,-84.5199"/>
<polygon fill="midnightblue" stroke="midnightblue" points="470.538,-82.6811 462.524,-75.7511 464.467,-86.1662 470.538,-82.6811"/>
</g>
<!-- Node15&#45;&gt;Node9 -->
<g id="edge23" class="edge"><title>Node15&#45;&gt;Node9</title>
<path fill="none" stroke="midnightblue" d="M492.188,-112.368C499.841,-94.4563 517.587,-52.9233 527.831,-28.9482"/>
<polygon fill="midnightblue" stroke="midnightblue" points="531.118,-30.1624 531.829,-19.5914 524.681,-27.412 531.118,-30.1624"/>
</g>
<!-- Node15&#45;&gt;Node14 -->
<g id="edge25" class="edge"><title>Node15&#45;&gt;Node14</title>
<path fill="none" stroke="midnightblue" d="M492.659,-131.751C493.395,-138.858 492.7,-149.136 491.072,-158.101"/>
<polygon fill="midnightblue" stroke="midnightblue" points="487.607,-157.54 488.657,-168.083 494.411,-159.187 487.607,-157.54"/>
</g>
<!-- Node17 -->
<g id="node17" class="node"><title>Node17</title>
<polygon fill="white" stroke="#bfbfbf" points="676,-112.5 676,-131.5 749,-131.5 749,-112.5 676,-112.5"/>
<text text-anchor="middle" x="712.5" y="-119.5" font-family="Helvetica,sans-Serif" font-size="10.00">DirHandle.h</text>
</g>
<!-- Node16&#45;&gt;Node17 -->
<g id="edge27" class="edge"><title>Node16&#45;&gt;Node17</title>
<path fill="none" stroke="midnightblue" d="M669.922,-168.083C677.348,-160.22 688.352,-148.569 697.312,-139.081"/>
<polygon fill="midnightblue" stroke="midnightblue" points="699.913,-141.424 704.235,-131.751 694.824,-136.618 699.913,-141.424"/>
</g>
<!-- Node18 -->
<g id="node18" class="node"><title>Node18</title>
<g id="a_node18"><a xlink:href="_f_a_t_dir_handle_8cpp.html" target="_top" xlink:title="FATDirHandle.cpp">
<polygon fill="white" stroke="black" points="557.5,-112.5 557.5,-131.5 657.5,-131.5 657.5,-112.5 557.5,-112.5"/>
<text text-anchor="middle" x="607.5" y="-119.5" font-family="Helvetica,sans-Serif" font-size="10.00">FATDirHandle.cpp</text>
</a>
</g>
</g>
<!-- Node16&#45;&gt;Node18 -->
<g id="edge28" class="edge"><title>Node16&#45;&gt;Node18</title>
<path fill="none" stroke="midnightblue" d="M647.709,-168.324C638.284,-160.576 626.338,-149.017 617.736,-139.511"/>
<polygon fill="midnightblue" stroke="midnightblue" points="620.339,-137.169 611.185,-131.834 615.014,-141.713 620.339,-137.169"/>
</g>
<!-- Node18&#45;&gt;Node8 -->
<g id="edge30" class="edge"><title>Node18&#45;&gt;Node8</title>
<path fill="none" stroke="midnightblue" d="M583.732,-112.444C556.363,-102.591 511.557,-86.4605 483.341,-76.3029"/>
<polygon fill="midnightblue" stroke="midnightblue" points="484.354,-72.9477 473.76,-72.8536 481.983,-79.5339 484.354,-72.9477"/>
</g>
<!-- Node18&#45;&gt;Node16 -->
<g id="edge31" class="edge"><title>Node18&#45;&gt;Node16</title>
<path fill="none" stroke="midnightblue" d="M621.382,-131.751C630.774,-139.483 642.642,-150.967 651.212,-160.431"/>
<polygon fill="midnightblue" stroke="midnightblue" points="648.593,-162.753 657.749,-168.083 653.915,-158.206 648.593,-162.753"/>
</g>
<!-- Node19 -->
<g id="node19" class="node"><title>Node19</title>
<polygon fill="white" stroke="#bfbfbf" points="581,-56.5 581,-75.5 634,-75.5 634,-56.5 581,-56.5"/>
<text text-anchor="middle" x="607.5" y="-63.5" font-family="Helvetica,sans-Serif" font-size="10.00">string.h</text>
</g>
<!-- Node18&#45;&gt;Node19 -->
<g id="edge29" class="edge"><title>Node18&#45;&gt;Node19</title>
<path fill="none" stroke="midnightblue" d="M607.5,-112.083C607.5,-105.006 607.5,-94.8611 607.5,-85.9865"/>
<polygon fill="midnightblue" stroke="midnightblue" points="611,-85.751 607.5,-75.7511 604,-85.7511 611,-85.751"/>
</g>
<!-- Node20&#45;&gt;Node2 -->
<g id="edge34" class="edge"><title>Node20&#45;&gt;Node2</title>
<path fill="none" stroke="midnightblue" d="M234.849,-226.602C231.717,-225.709 228.53,-224.818 225.5,-224 176.11,-210.662 118.722,-196.553 82.2696,-187.764"/>
<polygon fill="midnightblue" stroke="midnightblue" points="82.6557,-184.257 72.1146,-185.323 81.0194,-191.063 82.6557,-184.257"/>
</g>
<!-- Node20&#45;&gt;Node8 -->
<g id="edge33" class="edge"><title>Node20&#45;&gt;Node8</title>
<path fill="none" stroke="midnightblue" d="M254.055,-224.386C248.439,-202.575 237.164,-144.586 265.5,-112 315.037,-55.0325 358.811,-96.3837 431.5,-76 431.601,-75.9718 431.701,-75.9434 431.802,-75.9148"/>
<polygon fill="midnightblue" stroke="midnightblue" points="432.87,-79.2481 441.367,-72.9195 430.778,-72.5679 432.87,-79.2481"/>
</g>
</g>
</svg>
        <g id="navigator" transform="translate(0 0)" fill="#404254">
                <rect fill="#f2f5e9" fill-opacity="0.5" stroke="#606060" stroke-width=".5" x="0" y="0" width="60" height="60"/>
                <use id="zoomplus" xlink:href="#zoomPlus" x="17" y="9" onmousedown="handleZoom(evt,'in')"/>
                <use id="zoomminus" xlink:href="#zoomMin" x="42" y="9" onmousedown="handleZoom(evt,'out')"/>
                <use id="reset" xlink:href="#resetDef" x="30" y="36" onmousedown="handleReset()"/>
                <g id="arrowUp" xlink:href="#dirArrow" transform="translate(30 24)" onmousedown="handlePan(0,-1)">
                  <use xlink:href="#rim" fill="#404040">
                        <set attributeName="fill" to="#808080" begin="arrowUp.mouseover" end="arrowUp.mouseout"/>
                  </use>
                  <path fill="none" stroke="white" stroke-width="1.5" d="M0,-3.0v7 M-2.5,-0.5L0,-3.0L2.5,-0.5"/>
                </g>
                <g id="arrowRight" xlink:href="#dirArrow" transform="rotate(90) translate(36 -43)" onmousedown="handlePan(1,0)">
                  <use xlink:href="#rim" fill="#404040">
                        <set attributeName="fill" to="#808080" begin="arrowRight.mouseover" end="arrowRight.mouseout"/>
                  </use>
                  <path fill="none" stroke="white" stroke-width="1.5" d="M0,-3.0v7 M-2.5,-0.5L0,-3.0L2.5,-0.5"/>
                </g>
                <g id="arrowDown" xlink:href="#dirArrow" transform="rotate(180) translate(-30 -48)" onmousedown="handlePan(0,1)">
                  <use xlink:href="#rim" fill="#404040">
                        <set attributeName="fill" to="#808080" begin="arrowDown.mouseover" end="arrowDown.mouseout"/>
                  </use>
                  <path fill="none" stroke="white" stroke-width="1.5" d="M0,-3.0v7 M-2.5,-0.5L0,-3.0L2.5,-0.5"/>
                </g>
                <g id="arrowLeft" xlink:href="#dirArrow" transform="rotate(270) translate(-36 17)" onmousedown="handlePan(-1,0)">
                  <use xlink:href="#rim" fill="#404040">
                        <set attributeName="fill" to="#808080" begin="arrowLeft.mouseover" end="arrowLeft.mouseout"/>
                  </use>
                  <path fill="none" stroke="white" stroke-width="1.5" d="M0,-3.0v7 M-2.5,-0.5L0,-3.0L2.5,-0.5"/>
                </g>
        </g>
        <svg viewBox="0 0 15 15" width="100%" height="30px" preserveAspectRatio="xMaxYMin meet">
         <g id="arrow_out" transform="scale(0.3 0.3)">
          <a xlink:href="diskio_8cpp__incl_org.svg" target="_base">
           <rect id="button" ry="5" rx="5" y="6" x="6" height="38" width="38"
                fill="#f2f5e9" fill-opacity="0.5" stroke="#606060" stroke-width="1.0"/>
           <path id="arrow"
             d="M 11.500037,31.436501 C 11.940474,20.09759 22.043105,11.32322 32.158766,21.979434 L 37.068811,17.246167 C 37.068811,17.246167 37.088388,32 37.088388,32 L 22.160133,31.978069 C 22.160133,31.978069 26.997745,27.140456 26.997745,27.140456 C 18.528582,18.264221 13.291696,25.230495 11.500037,31.436501 z"
             style="fill:#404040;"/>
          </a>
         </g>
        </svg>
</svg>
