<?xml version="1.0" encoding="UTF-8" standalone="no"?>
<!DOCTYPE svg PUBLIC "-//W3C//DTD SVG 1.1//EN"
 "http://www.w3.org/Graphics/SVG/1.1/DTD/svg11.dtd">
<!-- Generated by graphviz version 2.38.0 (20140413.2041)
 -->
<!-- Title: lib/carpi/lib/SDFileSystem/FATFileSystem/ff.cpp Pages: 1 -->
<!--zoomable 487 -->
<svg id="main" version="1.1" xmlns="http://www.w3.org/2000/svg" xmlns:xlink="http://www.w3.org/1999/xlink" xml:space="preserve" onload="init(evt)">
<style type="text/css"><![CDATA[
.edge:hover path { stroke: red; }
.edge:hover polygon { stroke: red; fill: red; }
]]></style>
<script type="text/javascript"><![CDATA[
var edges = document.getElementsByTagName('g');
if (edges && edges.length) {
  for (var i=0;i<edges.length;i++) {
    if (edges[i].id.substr(0,4)=='edge') {
      edges[i].setAttribute('class','edge');
    }
  }
}
]]></script>
        <defs>
                <circle id="rim" cx="0" cy="0" r="7"/>
                <circle id="rim2" cx="0" cy="0" r="3.5"/>
                <g id="zoomPlus">
                        <use xlink:href="#rim" fill="#404040">
                                <set attributeName="fill" to="#808080" begin="zoomplus.mouseover" end="zoomplus.mouseout"/>
                        </use>
                        <path d="M-4,0h8M0,-4v8" fill="none" stroke="white" stroke-width="1.5" pointer-events="none"/>
                </g>
                <g id="zoomMin">
                        <use xlink:href="#rim" fill="#404040">
                                <set attributeName="fill" to="#808080" begin="zoomminus.mouseover" end="zoomminus.mouseout"/>
                        </use>
                        <path d="M-4,0h8" fill="none" stroke="white" stroke-width="1.5" pointer-events="none"/>
                </g>
                <g id="dirArrow">
                        <path fill="none" stroke="white" stroke-width="1.5" d="M0,-3.0v7 M-2.5,-0.5L0,-3.0L2.5,-0.5"/>
                </g>
               <g id="resetDef">
                       <use xlink:href="#rim2" fill="#404040">
                               <set attributeName="fill" to="#808080" begin="reset.mouseover" end="reset.mouseout"/>
                       </use>
               </g>
        </defs>

<script type="text/javascript">
var viewWidth = 642;
var viewHeight = 487;
var sectionId = 'dynsection-0';
</script>
<script xlink:href="svgpan.js"/>
<svg id="graph" class="graph">
<g id="viewport">
<title>lib/carpi/lib/SDFileSystem/FATFileSystem/ff.cpp</title>
<polygon fill="white" stroke="none" points="-4,4 -4,-483 638.367,-483 638.367,4 -4,4"/>
<!-- Node1 -->
<g id="node1" class="node"><title>Node1</title>
<polygon fill="#bfbfbf" stroke="black" points="0,-448.5 0,-478.5 136,-478.5 136,-448.5 0,-448.5"/>
<text text-anchor="start" x="8" y="-466.5" font-family="Helvetica,sans-Serif" font-size="10.00">lib/carpi/lib/SDFileSystem</text>
<text text-anchor="middle" x="68" y="-455.5" font-family="Helvetica,sans-Serif" font-size="10.00">/FATFileSystem/ff.cpp</text>
</g>
<!-- Node2 -->
<g id="node2" class="node"><title>Node2</title>
<g id="a_node2"><a xlink:href="ff_8h.html" target="_top" xlink:title="ff.h">
<polygon fill="white" stroke="black" points="96,-56.5 96,-75.5 128,-75.5 128,-56.5 96,-56.5"/>
<text text-anchor="middle" x="112" y="-63.5" font-family="Helvetica,sans-Serif" font-size="10.00">ff.h</text>
</a>
</g>
</g>
<!-- Node1&#45;&gt;Node2 -->
<g id="edge1" class="edge"><title>Node1&#45;&gt;Node2</title>
<path fill="none" stroke="midnightblue" d="M60.1264,-448.407C48.9959,-427.125 30,-385.208 30,-347 30,-347 30,-347 30,-289 30,-208.287 78.2856,-120.722 100.751,-84.349"/>
<polygon fill="midnightblue" stroke="midnightblue" points="103.728,-86.1909 106.103,-75.8657 97.8072,-82.4562 103.728,-86.1909"/>
</g>
<!-- Node6 -->
<g id="node6" class="node"><title>Node6</title>
<g id="a_node6"><a xlink:href="diskio_8h.html" target="_top" xlink:title="diskio.h">
<polygon fill="white" stroke="black" points="133.5,-392.5 133.5,-411.5 186.5,-411.5 186.5,-392.5 133.5,-392.5"/>
<text text-anchor="middle" x="160" y="-399.5" font-family="Helvetica,sans-Serif" font-size="10.00">diskio.h</text>
</a>
</g>
</g>
<!-- Node1&#45;&gt;Node6 -->
<g id="edge6" class="edge"><title>Node1&#45;&gt;Node6</title>
<path fill="none" stroke="midnightblue" d="M89.8027,-448.399C104.412,-438.951 123.573,-426.559 138.185,-417.109"/>
<polygon fill="midnightblue" stroke="midnightblue" points="140.117,-420.027 146.613,-411.658 136.316,-414.15 140.117,-420.027"/>
</g>
<!-- Node3 -->
<g id="node3" class="node"><title>Node3</title>
<g id="a_node3"><a xlink:href="integer_8h.html" target="_top" xlink:title="integer.h">
<polygon fill="white" stroke="black" points="0.5,-0.5 0.5,-19.5 59.5,-19.5 59.5,-0.5 0.5,-0.5"/>
<text text-anchor="middle" x="30" y="-7.5" font-family="Helvetica,sans-Serif" font-size="10.00">integer.h</text>
</a>
</g>
</g>
<!-- Node2&#45;&gt;Node3 -->
<g id="edge2" class="edge"><title>Node2&#45;&gt;Node3</title>
<path fill="none" stroke="midnightblue" d="M98.8253,-56.324C86.1532,-47.979 66.7666,-35.2122 51.7944,-25.3524"/>
<polygon fill="midnightblue" stroke="midnightblue" points="53.4187,-22.2313 43.142,-19.6545 49.5688,-28.0776 53.4187,-22.2313"/>
</g>
<!-- Node4 -->
<g id="node4" class="node"><title>Node4</title>
<g id="a_node4"><a xlink:href="ffconf_8h.html" target="_top" xlink:title="ffconf.h">
<polygon fill="white" stroke="black" points="164.5,-0.5 164.5,-19.5 215.5,-19.5 215.5,-0.5 164.5,-0.5"/>
<text text-anchor="middle" x="190" y="-7.5" font-family="Helvetica,sans-Serif" font-size="10.00">ffconf.h</text>
</a>
</g>
</g>
<!-- Node2&#45;&gt;Node4 -->
<g id="edge3" class="edge"><title>Node2&#45;&gt;Node4</title>
<path fill="none" stroke="midnightblue" d="M124.532,-56.324C136.586,-47.979 155.027,-35.2122 169.269,-25.3524"/>
<polygon fill="midnightblue" stroke="midnightblue" points="171.269,-28.2243 177.499,-19.6545 167.285,-22.469 171.269,-28.2243"/>
</g>
<!-- Node5 -->
<g id="node5" class="node"><title>Node5</title>
<g id="a_node5"><a xlink:href="ccsbcs_8cpp.html" target="_top" xlink:title="ccsbcs.cpp">
<polygon fill="white" stroke="black" points="77.5,-0.5 77.5,-19.5 146.5,-19.5 146.5,-0.5 77.5,-0.5"/>
<text text-anchor="middle" x="112" y="-7.5" font-family="Helvetica,sans-Serif" font-size="10.00">ccsbcs.cpp</text>
</a>
</g>
</g>
<!-- Node2&#45;&gt;Node5 -->
<g id="edge4" class="edge"><title>Node2&#45;&gt;Node5</title>
<path fill="none" stroke="midnightblue" d="M106.834,-56.083C105.324,-48.9272 104.894,-38.6353 105.542,-29.6911"/>
<polygon fill="midnightblue" stroke="midnightblue" points="109.015,-30.1262 106.869,-19.7511 102.077,-29.2002 109.015,-30.1262"/>
</g>
<!-- Node5&#45;&gt;Node2 -->
<g id="edge5" class="edge"><title>Node5&#45;&gt;Node2</title>
<path fill="none" stroke="midnightblue" d="M117.131,-19.7511C118.657,-26.8579 119.104,-37.1357 118.472,-46.1005"/>
<polygon fill="midnightblue" stroke="midnightblue" points="114.993,-45.7134 117.166,-56.083 121.934,-46.6216 114.993,-45.7134"/>
</g>
<!-- Node6&#45;&gt;Node3 -->
<g id="edge7" class="edge"><title>Node6&#45;&gt;Node3</title>
<path fill="none" stroke="midnightblue" d="M157.164,-392.492C140.88,-343.641 59.2001,-98.6002 36.0966,-29.2897"/>
<polygon fill="midnightblue" stroke="midnightblue" points="39.3933,-28.1116 32.9105,-19.7316 32.7525,-30.3252 39.3933,-28.1116"/>
</g>
<!-- Node7 -->
<g id="node7" class="node"><title>Node7</title>
<g id="a_node7"><a xlink:href="diskio_8cpp.html" target="_top" xlink:title="diskio.cpp">
<polygon fill="white" stroke="black" points="165,-336.5 165,-355.5 229,-355.5 229,-336.5 165,-336.5"/>
<text text-anchor="middle" x="197" y="-343.5" font-family="Helvetica,sans-Serif" font-size="10.00">diskio.cpp</text>
</a>
</g>
</g>
<!-- Node6&#45;&gt;Node7 -->
<g id="edge8" class="edge"><title>Node6&#45;&gt;Node7</title>
<path fill="none" stroke="midnightblue" d="M160.943,-392.083C164.598,-384.377 171.996,-373.033 179.301,-363.653"/>
<polygon fill="midnightblue" stroke="midnightblue" points="182.169,-365.678 185.873,-355.751 176.788,-361.202 182.169,-365.678"/>
</g>
<!-- Node7&#45;&gt;Node6 -->
<g id="edge9" class="edge"><title>Node7&#45;&gt;Node6</title>
<path fill="none" stroke="midnightblue" d="M196.135,-355.751C192.534,-363.405 185.163,-374.736 177.857,-384.144"/>
<polygon fill="midnightblue" stroke="midnightblue" points="174.963,-382.15 171.276,-392.083 180.353,-386.618 174.963,-382.15"/>
</g>
<!-- Node8 -->
<g id="node8" class="node"><title>Node8</title>
<polygon fill="white" stroke="#bfbfbf" points="521.5,-56.5 521.5,-75.5 610.5,-75.5 610.5,-56.5 521.5,-56.5"/>
<text text-anchor="middle" x="566" y="-63.5" font-family="Helvetica,sans-Serif" font-size="10.00">mbed_debug.h</text>
</g>
<!-- Node7&#45;&gt;Node8 -->
<g id="edge10" class="edge"><title>Node7&#45;&gt;Node8</title>
<path fill="none" stroke="midnightblue" d="M229.277,-343.223C325.541,-337.05 604,-312.495 604,-235 604,-235 604,-235 604,-177 604,-142.813 587.4,-105.764 576.143,-84.5707"/>
<polygon fill="midnightblue" stroke="midnightblue" points="579.181,-82.832 571.284,-75.769 573.053,-86.2151 579.181,-82.832"/>
</g>
<!-- Node9 -->
<g id="node9" class="node"><title>Node9</title>
<g id="a_node9"><a xlink:href="_f_a_t_file_system_8h.html" target="_top" xlink:title="FATFileSystem.h">
<polygon fill="white" stroke="black" points="181.5,-280.5 181.5,-299.5 274.5,-299.5 274.5,-280.5 181.5,-280.5"/>
<text text-anchor="middle" x="228" y="-287.5" font-family="Helvetica,sans-Serif" font-size="10.00">FATFileSystem.h</text>
</a>
</g>
</g>
<!-- Node7&#45;&gt;Node9 -->
<g id="edge11" class="edge"><title>Node7&#45;&gt;Node9</title>
<path fill="none" stroke="midnightblue" d="M202.119,-336.083C206.408,-328.613 212.658,-317.724 217.942,-308.52"/>
<polygon fill="midnightblue" stroke="midnightblue" points="221.033,-310.166 222.976,-299.751 214.962,-306.681 221.033,-310.166"/>
</g>
<!-- Node9&#45;&gt;Node1 -->
<g id="edge34" class="edge"><title>Node9&#45;&gt;Node1</title>
<path fill="none" stroke="midnightblue" d="M210.041,-299.597C194.568,-307.584 172.228,-320.551 156,-336 123.24,-367.186 95.3694,-412.354 80.2183,-439.434"/>
<polygon fill="midnightblue" stroke="midnightblue" points="77.1471,-437.755 75.4024,-448.205 83.2832,-441.124 77.1471,-437.755"/>
</g>
<!-- Node9&#45;&gt;Node2 -->
<g id="edge14" class="edge"><title>Node9&#45;&gt;Node2</title>
<path fill="none" stroke="midnightblue" d="M182.871,-280.495C161.814,-274.101 138.475,-263.032 125,-244 90.9271,-195.877 100.531,-120.794 107.552,-85.9478"/>
<polygon fill="midnightblue" stroke="midnightblue" points="111.06,-86.2858 109.767,-75.7702 104.22,-84.797 111.06,-86.2858"/>
</g>
<!-- Node10 -->
<g id="node10" class="node"><title>Node10</title>
<polygon fill="white" stroke="#bfbfbf" points="134,-224.5 134,-243.5 230,-243.5 230,-224.5 134,-224.5"/>
<text text-anchor="middle" x="182" y="-231.5" font-family="Helvetica,sans-Serif" font-size="10.00">FileSystemLike.h</text>
</g>
<!-- Node9&#45;&gt;Node10 -->
<g id="edge12" class="edge"><title>Node9&#45;&gt;Node10</title>
<path fill="none" stroke="midnightblue" d="M220.404,-280.083C213.773,-272.298 203.979,-260.801 195.942,-251.367"/>
<polygon fill="midnightblue" stroke="midnightblue" points="198.604,-249.094 189.455,-243.751 193.275,-253.633 198.604,-249.094"/>
</g>
<!-- Node11 -->
<g id="node11" class="node"><title>Node11</title>
<polygon fill="white" stroke="#bfbfbf" points="254,-112.5 254,-131.5 328,-131.5 328,-112.5 254,-112.5"/>
<text text-anchor="middle" x="291" y="-119.5" font-family="Helvetica,sans-Serif" font-size="10.00">FileHandle.h</text>
</g>
<!-- Node9&#45;&gt;Node11 -->
<g id="edge13" class="edge"><title>Node9&#45;&gt;Node11</title>
<path fill="none" stroke="midnightblue" d="M259.809,-280.385C277.946,-273.661 299.164,-262.306 310,-244 329.325,-211.351 312.484,-165.438 300.502,-140.607"/>
<polygon fill="midnightblue" stroke="midnightblue" points="303.59,-138.958 295.933,-131.635 297.352,-142.134 303.59,-138.958"/>
</g>
<!-- Node12 -->
<g id="node12" class="node"><title>Node12</title>
<polygon fill="white" stroke="#bfbfbf" points="248.5,-224.5 248.5,-243.5 301.5,-243.5 301.5,-224.5 248.5,-224.5"/>
<text text-anchor="middle" x="275" y="-231.5" font-family="Helvetica,sans-Serif" font-size="10.00">stdint.h</text>
</g>
<!-- Node9&#45;&gt;Node12 -->
<g id="edge15" class="edge"><title>Node9&#45;&gt;Node12</title>
<path fill="none" stroke="midnightblue" d="M235.761,-280.083C242.537,-272.298 252.543,-260.801 260.755,-251.367"/>
<polygon fill="midnightblue" stroke="midnightblue" points="263.458,-253.592 267.383,-243.751 258.178,-248.996 263.458,-253.592"/>
</g>
<!-- Node13 -->
<g id="node13" class="node"><title>Node13</title>
<g id="a_node13"><a xlink:href="_f_a_t_file_system_8cpp.html" target="_top" xlink:title="FATFileSystem.cpp">
<polygon fill="white" stroke="black" points="358,-224.5 358,-243.5 462,-243.5 462,-224.5 358,-224.5"/>
<text text-anchor="middle" x="410" y="-231.5" font-family="Helvetica,sans-Serif" font-size="10.00">FATFileSystem.cpp</text>
</a>
</g>
</g>
<!-- Node9&#45;&gt;Node13 -->
<g id="edge16" class="edge"><title>Node9&#45;&gt;Node13</title>
<path fill="none" stroke="midnightblue" d="M251.75,-280.444C280.873,-271.201 330.466,-256.436 366.455,-246.257"/>
<polygon fill="midnightblue" stroke="midnightblue" points="367.535,-249.589 376.217,-243.516 365.643,-242.85 367.535,-249.589"/>
</g>
<!-- Node13&#45;&gt;Node4 -->
<g id="edge18" class="edge"><title>Node13&#45;&gt;Node4</title>
<path fill="none" stroke="midnightblue" d="M462.307,-225.032C490.278,-218.692 524.004,-207.506 549,-188 601.352,-147.147 663.439,-105.344 619,-56 592.829,-26.9398 323.735,-15.3428 225.58,-12.0586"/>
<polygon fill="midnightblue" stroke="midnightblue" points="225.66,-8.5594 215.551,-11.7322 225.432,-15.5557 225.66,-8.5594"/>
</g>
<!-- Node13&#45;&gt;Node8 -->
<g id="edge19" class="edge"><title>Node13&#45;&gt;Node8</title>
<path fill="none" stroke="midnightblue" d="M458.074,-224.499C481.62,-218.082 508.756,-206.99 527,-188 554.305,-159.578 562.494,-111.931 564.949,-85.71"/>
<polygon fill="midnightblue" stroke="midnightblue" points="568.449,-85.8421 565.705,-75.6085 561.468,-85.3191 568.449,-85.8421"/>
</g>
<!-- Node13&#45;&gt;Node9 -->
<g id="edge20" class="edge"><title>Node13&#45;&gt;Node9</title>
<path fill="none" stroke="midnightblue" d="M386.376,-243.516C357.313,-252.743 307.729,-267.507 271.701,-277.699"/>
<polygon fill="midnightblue" stroke="midnightblue" points="270.608,-274.37 261.927,-280.444 272.501,-281.109 270.608,-274.37"/>
</g>
<!-- Node14 -->
<g id="node14" class="node"><title>Node14</title>
<polygon fill="white" stroke="#bfbfbf" points="465.5,-168.5 465.5,-187.5 518.5,-187.5 518.5,-168.5 465.5,-168.5"/>
<text text-anchor="middle" x="492" y="-175.5" font-family="Helvetica,sans-Serif" font-size="10.00">mbed.h</text>
</g>
<!-- Node13&#45;&gt;Node14 -->
<g id="edge17" class="edge"><title>Node13&#45;&gt;Node14</title>
<path fill="none" stroke="midnightblue" d="M423.175,-224.324C435.847,-215.979 455.233,-203.212 470.206,-193.352"/>
<polygon fill="midnightblue" stroke="midnightblue" points="472.431,-196.078 478.858,-187.655 468.581,-190.231 472.431,-196.078"/>
</g>
<!-- Node15 -->
<g id="node15" class="node"><title>Node15</title>
<g id="a_node15"><a xlink:href="_f_a_t_file_handle_8h.html" target="_top" xlink:title="FATFileHandle.h">
<polygon fill="white" stroke="black" points="176,-168.5 176,-187.5 266,-187.5 266,-168.5 176,-168.5"/>
<text text-anchor="middle" x="221" y="-175.5" font-family="Helvetica,sans-Serif" font-size="10.00">FATFileHandle.h</text>
</a>
</g>
</g>
<!-- Node13&#45;&gt;Node15 -->
<g id="edge21" class="edge"><title>Node13&#45;&gt;Node15</title>
<path fill="none" stroke="midnightblue" d="M380.052,-224.444C347.842,-215.241 296.466,-200.562 260.858,-190.388"/>
<polygon fill="midnightblue" stroke="midnightblue" points="261.384,-186.898 250.808,-187.516 259.461,-193.629 261.384,-186.898"/>
</g>
<!-- Node17 -->
<g id="node17" class="node"><title>Node17</title>
<g id="a_node17"><a xlink:href="_f_a_t_dir_handle_8h.html" target="_top" xlink:title="FATDirHandle.h">
<polygon fill="white" stroke="black" points="358.5,-168.5 358.5,-187.5 447.5,-187.5 447.5,-168.5 358.5,-168.5"/>
<text text-anchor="middle" x="403" y="-175.5" font-family="Helvetica,sans-Serif" font-size="10.00">FATDirHandle.h</text>
</a>
</g>
</g>
<!-- Node13&#45;&gt;Node17 -->
<g id="edge28" class="edge"><title>Node13&#45;&gt;Node17</title>
<path fill="none" stroke="midnightblue" d="M408.844,-224.083C407.916,-216.927 406.582,-206.635 405.423,-197.691"/>
<polygon fill="midnightblue" stroke="midnightblue" points="408.891,-197.218 404.134,-187.751 401.949,-198.118 408.891,-197.218"/>
</g>
<!-- Node15&#45;&gt;Node11 -->
<g id="edge22" class="edge"><title>Node15&#45;&gt;Node11</title>
<path fill="none" stroke="midnightblue" d="M232.247,-168.324C242.797,-160.185 258.801,-147.839 271.442,-138.087"/>
<polygon fill="midnightblue" stroke="midnightblue" points="273.769,-140.713 279.549,-131.834 269.493,-135.171 273.769,-140.713"/>
</g>
<!-- Node16 -->
<g id="node16" class="node"><title>Node16</title>
<g id="a_node16"><a xlink:href="_f_a_t_file_handle_8cpp.html" target="_top" xlink:title="FATFileHandle.cpp">
<polygon fill="white" stroke="black" points="134.5,-112.5 134.5,-131.5 235.5,-131.5 235.5,-112.5 134.5,-112.5"/>
<text text-anchor="middle" x="185" y="-119.5" font-family="Helvetica,sans-Serif" font-size="10.00">FATFileHandle.cpp</text>
</a>
</g>
</g>
<!-- Node15&#45;&gt;Node16 -->
<g id="edge23" class="edge"><title>Node15&#45;&gt;Node16</title>
<path fill="none" stroke="midnightblue" d="M209.889,-168.083C203.402,-160.691 195.835,-149.953 190.484,-140.811"/>
<polygon fill="midnightblue" stroke="midnightblue" points="193.466,-138.962 185.703,-131.751 187.275,-142.229 193.466,-138.962"/>
</g>
<!-- Node16&#45;&gt;Node2 -->
<g id="edge24" class="edge"><title>Node16&#45;&gt;Node2</title>
<path fill="none" stroke="midnightblue" d="M173.271,-112.324C162.163,-104.107 145.258,-91.6017 132.017,-81.8069"/>
<polygon fill="midnightblue" stroke="midnightblue" points="134.063,-78.9671 123.942,-75.8339 129.9,-84.5948 134.063,-78.9671"/>
</g>
<!-- Node16&#45;&gt;Node4 -->
<g id="edge25" class="edge"><title>Node16&#45;&gt;Node4</title>
<path fill="none" stroke="midnightblue" d="M185.392,-112.368C186.199,-94.617 188.061,-53.6664 189.155,-29.5974"/>
<polygon fill="midnightblue" stroke="midnightblue" points="192.652,-29.7401 189.609,-19.5914 185.659,-29.4221 192.652,-29.7401"/>
</g>
<!-- Node16&#45;&gt;Node8 -->
<g id="edge26" class="edge"><title>Node16&#45;&gt;Node8</title>
<path fill="none" stroke="midnightblue" d="M235.734,-113.355C238.869,-112.893 241.977,-112.439 245,-112 338.375,-98.4522 447.133,-83.3477 511.07,-74.5369"/>
<polygon fill="midnightblue" stroke="midnightblue" points="511.892,-77.9568 521.321,-73.1253 510.937,-71.0222 511.892,-77.9568"/>
</g>
<!-- Node16&#45;&gt;Node15 -->
<g id="edge27" class="edge"><title>Node16&#45;&gt;Node15</title>
<path fill="none" stroke="midnightblue" d="M195.965,-131.751C202.436,-139.092 210.011,-149.817 215.395,-158.983"/>
<polygon fill="midnightblue" stroke="midnightblue" points="212.444,-160.889 220.222,-168.083 218.628,-157.609 212.444,-160.889"/>
</g>
<!-- Node18 -->
<g id="node18" class="node"><title>Node18</title>
<polygon fill="white" stroke="#bfbfbf" points="464.5,-112.5 464.5,-131.5 537.5,-131.5 537.5,-112.5 464.5,-112.5"/>
<text text-anchor="middle" x="501" y="-119.5" font-family="Helvetica,sans-Serif" font-size="10.00">DirHandle.h</text>
</g>
<!-- Node17&#45;&gt;Node18 -->
<g id="edge29" class="edge"><title>Node17&#45;&gt;Node18</title>
<path fill="none" stroke="midnightblue" d="M418.745,-168.324C434.319,-159.743 458.377,-146.486 476.459,-136.522"/>
<polygon fill="midnightblue" stroke="midnightblue" points="478.224,-139.546 485.294,-131.655 474.846,-133.415 478.224,-139.546"/>
</g>
<!-- Node19 -->
<g id="node19" class="node"><title>Node19</title>
<g id="a_node19"><a xlink:href="_f_a_t_dir_handle_8cpp.html" target="_top" xlink:title="FATDirHandle.cpp">
<polygon fill="white" stroke="black" points="346,-112.5 346,-131.5 446,-131.5 446,-112.5 346,-112.5"/>
<text text-anchor="middle" x="396" y="-119.5" font-family="Helvetica,sans-Serif" font-size="10.00">FATDirHandle.cpp</text>
</a>
</g>
</g>
<!-- Node17&#45;&gt;Node19 -->
<g id="edge30" class="edge"><title>Node17&#45;&gt;Node19</title>
<path fill="none" stroke="midnightblue" d="M396.678,-168.083C394.267,-161.006 392.515,-150.861 391.983,-141.986"/>
<polygon fill="midnightblue" stroke="midnightblue" points="395.483,-141.758 392.003,-131.751 388.483,-141.744 395.483,-141.758"/>
</g>
<!-- Node19&#45;&gt;Node2 -->
<g id="edge32" class="edge"><title>Node19&#45;&gt;Node2</title>
<path fill="none" stroke="midnightblue" d="M350.999,-112.444C290.945,-101.025 186.553,-81.1756 138.097,-71.9621"/>
<polygon fill="midnightblue" stroke="midnightblue" points="138.584,-68.4921 128.106,-70.0624 137.276,-75.3688 138.584,-68.4921"/>
</g>
<!-- Node19&#45;&gt;Node17 -->
<g id="edge33" class="edge"><title>Node19&#45;&gt;Node17</title>
<path fill="none" stroke="midnightblue" d="M402.265,-131.751C404.686,-138.78 406.453,-148.91 407.005,-157.805"/>
<polygon fill="midnightblue" stroke="midnightblue" points="403.505,-158.085 407.01,-168.083 410.505,-158.081 403.505,-158.085"/>
</g>
<!-- Node20 -->
<g id="node20" class="node"><title>Node20</title>
<polygon fill="white" stroke="#bfbfbf" points="369.5,-56.5 369.5,-75.5 422.5,-75.5 422.5,-56.5 369.5,-56.5"/>
<text text-anchor="middle" x="396" y="-63.5" font-family="Helvetica,sans-Serif" font-size="10.00">string.h</text>
</g>
<!-- Node19&#45;&gt;Node20 -->
<g id="edge31" class="edge"><title>Node19&#45;&gt;Node20</title>
<path fill="none" stroke="midnightblue" d="M396,-112.083C396,-105.006 396,-94.8611 396,-85.9865"/>
<polygon fill="midnightblue" stroke="midnightblue" points="399.5,-85.751 396,-75.7511 392.5,-85.7511 399.5,-85.751"/>
</g>
</g>
</svg>
        <g id="navigator" transform="translate(0 0)" fill="#404254">
                <rect fill="#f2f5e9" fill-opacity="0.5" stroke="#606060" stroke-width=".5" x="0" y="0" width="60" height="60"/>
                <use id="zoomplus" xlink:href="#zoomPlus" x="17" y="9" onmousedown="handleZoom(evt,'in')"/>
                <use id="zoomminus" xlink:href="#zoomMin" x="42" y="9" onmousedown="handleZoom(evt,'out')"/>
                <use id="reset" xlink:href="#resetDef" x="30" y="36" onmousedown="handleReset()"/>
                <g id="arrowUp" xlink:href="#dirArrow" transform="translate(30 24)" onmousedown="handlePan(0,-1)">
                  <use xlink:href="#rim" fill="#404040">
                        <set attributeName="fill" to="#808080" begin="arrowUp.mouseover" end="arrowUp.mouseout"/>
                  </use>
                  <path fill="none" stroke="white" stroke-width="1.5" d="M0,-3.0v7 M-2.5,-0.5L0,-3.0L2.5,-0.5"/>
                </g>
                <g id="arrowRight" xlink:href="#dirArrow" transform="rotate(90) translate(36 -43)" onmousedown="handlePan(1,0)">
                  <use xlink:href="#rim" fill="#404040">
                        <set attributeName="fill" to="#808080" begin="arrowRight.mouseover" end="arrowRight.mouseout"/>
                  </use>
                  <path fill="none" stroke="white" stroke-width="1.5" d="M0,-3.0v7 M-2.5,-0.5L0,-3.0L2.5,-0.5"/>
                </g>
                <g id="arrowDown" xlink:href="#dirArrow" transform="rotate(180) translate(-30 -48)" onmousedown="handlePan(0,1)">
                  <use xlink:href="#rim" fill="#404040">
                        <set attributeName="fill" to="#808080" begin="arrowDown.mouseover" end="arrowDown.mouseout"/>
                  </use>
                  <path fill="none" stroke="white" stroke-width="1.5" d="M0,-3.0v7 M-2.5,-0.5L0,-3.0L2.5,-0.5"/>
                </g>
                <g id="arrowLeft" xlink:href="#dirArrow" transform="rotate(270) translate(-36 17)" onmousedown="handlePan(-1,0)">
                  <use xlink:href="#rim" fill="#404040">
                        <set attributeName="fill" to="#808080" begin="arrowLeft.mouseover" end="arrowLeft.mouseout"/>
                  </use>
                  <path fill="none" stroke="white" stroke-width="1.5" d="M0,-3.0v7 M-2.5,-0.5L0,-3.0L2.5,-0.5"/>
                </g>
        </g>
        <svg viewBox="0 0 15 15" width="100%" height="30px" preserveAspectRatio="xMaxYMin meet">
         <g id="arrow_out" transform="scale(0.3 0.3)">
          <a xlink:href="ff_8cpp__incl_org.svg" target="_base">
           <rect id="button" ry="5" rx="5" y="6" x="6" height="38" width="38"
                fill="#f2f5e9" fill-opacity="0.5" stroke="#606060" stroke-width="1.0"/>
           <path id="arrow"
             d="M 11.500037,31.436501 C 11.940474,20.09759 22.043105,11.32322 32.158766,21.979434 L 37.068811,17.246167 C 37.068811,17.246167 37.088388,32 37.088388,32 L 22.160133,31.978069 C 22.160133,31.978069 26.997745,27.140456 26.997745,27.140456 C 18.528582,18.264221 13.291696,25.230495 11.500037,31.436501 z"
             style="fill:#404040;"/>
          </a>
         </g>
        </svg>
</svg>
