<?xml version="1.0" encoding="UTF-8" standalone="no"?>
<!DOCTYPE svg PUBLIC "-//W3C//DTD SVG 1.1//EN"
 "http://www.w3.org/Graphics/SVG/1.1/DTD/svg11.dtd">
<!-- Generated by graphviz version 2.38.0 (20140413.2041)
 -->
<!-- Title: lib/carpi/lib/SDFileSystem/FATFileSystem/ff.h Pages: 1 -->
<svg width="223pt" height="95pt"
 viewBox="0.00 0.00 223.00 95.00" xmlns="http://www.w3.org/2000/svg" xmlns:xlink="http://www.w3.org/1999/xlink">
<g id="graph0" class="graph" transform="scale(1 1) rotate(0) translate(4 91)">
<title>lib/carpi/lib/SDFileSystem/FATFileSystem/ff.h</title>
<polygon fill="white" stroke="none" points="-4,4 -4,-91 219,-91 219,4 -4,4"/>
<!-- Node1 -->
<g id="node1" class="node"><title>Node1</title>
<polygon fill="#bfbfbf" stroke="black" points="73.5,-56.5 73.5,-86.5 209.5,-86.5 209.5,-56.5 73.5,-56.5"/>
<text text-anchor="start" x="81.5" y="-74.5" font-family="Helvetica,sans-Serif" font-size="10.00">lib/carpi/lib/SDFileSystem</text>
<text text-anchor="middle" x="141.5" y="-63.5" font-family="Helvetica,sans-Serif" font-size="10.00">/FATFileSystem/ff.h</text>
</g>
<!-- Node2 -->
<g id="node2" class="node"><title>Node2</title>
<g id="a_node2"><a xlink:href="integer_8h.html" target="_top" xlink:title="integer.h">
<polygon fill="white" stroke="black" points="0,-0.5 0,-19.5 59,-19.5 59,-0.5 0,-0.5"/>
<text text-anchor="middle" x="29.5" y="-7.5" font-family="Helvetica,sans-Serif" font-size="10.00">integer.h</text>
</a>
</g>
</g>
<!-- Node1&#45;&gt;Node2 -->
<g id="edge1" class="edge"><title>Node1&#45;&gt;Node2</title>
<path fill="none" stroke="midnightblue" d="M114.958,-56.3993C96.837,-46.7728 72.9639,-34.0902 55.057,-24.5772"/>
<polygon fill="midnightblue" stroke="midnightblue" points="56.2702,-21.2585 45.797,-19.6578 52.9861,-27.4403 56.2702,-21.2585"/>
</g>
<!-- Node3 -->
<g id="node3" class="node"><title>Node3</title>
<g id="a_node3"><a xlink:href="ffconf_8h.html" target="_top" xlink:title="ffconf.h">
<polygon fill="white" stroke="black" points="77,-0.5 77,-19.5 128,-19.5 128,-0.5 77,-0.5"/>
<text text-anchor="middle" x="102.5" y="-7.5" font-family="Helvetica,sans-Serif" font-size="10.00">ffconf.h</text>
</a>
</g>
</g>
<!-- Node1&#45;&gt;Node3 -->
<g id="edge2" class="edge"><title>Node1&#45;&gt;Node3</title>
<path fill="none" stroke="midnightblue" d="M132.258,-56.3993C126.707,-47.9315 119.607,-37.0991 113.734,-28.1393"/>
<polygon fill="midnightblue" stroke="midnightblue" points="116.584,-26.1026 108.175,-19.6578 110.73,-29.94 116.584,-26.1026"/>
</g>
<!-- Node4 -->
<g id="node4" class="node"><title>Node4</title>
<g id="a_node4"><a xlink:href="ccsbcs_8cpp.html" target="_top" xlink:title="ccsbcs.cpp">
<polygon fill="white" stroke="black" points="146,-0.5 146,-19.5 215,-19.5 215,-0.5 146,-0.5"/>
<text text-anchor="middle" x="180.5" y="-7.5" font-family="Helvetica,sans-Serif" font-size="10.00">ccsbcs.cpp</text>
</a>
</g>
</g>
<!-- Node1&#45;&gt;Node4 -->
<g id="edge3" class="edge"><title>Node1&#45;&gt;Node4</title>
<path fill="none" stroke="midnightblue" d="M144.903,-56.3993C149.46,-47.7533 156.648,-36.642 163.512,-27.576"/>
<polygon fill="midnightblue" stroke="midnightblue" points="166.344,-29.6394 169.896,-19.6578 160.894,-25.2457 166.344,-29.6394"/>
</g>
<!-- Node4&#45;&gt;Node1 -->
<g id="edge4" class="edge"><title>Node4&#45;&gt;Node1</title>
<path fill="none" stroke="midnightblue" d="M179.755,-19.6578C176.475,-27.1062 169.757,-38.1868 162.743,-48.1041"/>
<polygon fill="midnightblue" stroke="midnightblue" points="159.735,-46.2843 156.582,-56.3993 165.355,-50.4579 159.735,-46.2843"/>
</g>
</g>
</svg>
