<?xml version="1.0" encoding="UTF-8" standalone="no"?>
<!DOCTYPE svg PUBLIC "-//W3C//DTD SVG 1.1//EN"
 "http://www.w3.org/Graphics/SVG/1.1/DTD/svg11.dtd">
<!-- Generated by graphviz version 2.38.0 (20140413.2041)
 -->
<!-- Title: lib/carpi/lib/SDFileSystem/FATFileSystem/ff.h Pages: 1 -->
<!--zoomable 307 -->
<svg id="main" version="1.1" xmlns="http://www.w3.org/2000/svg" xmlns:xlink="http://www.w3.org/1999/xlink" xml:space="preserve" onload="init(evt)">
<style type="text/css"><![CDATA[
.edge:hover path { stroke: red; }
.edge:hover polygon { stroke: red; fill: red; }
]]></style>
<script type="text/javascript"><![CDATA[
var edges = document.getElementsByTagName('g');
if (edges && edges.length) {
  for (var i=0;i<edges.length;i++) {
    if (edges[i].id.substr(0,4)=='edge') {
      edges[i].setAttribute('class','edge');
    }
  }
}
]]></script>
        <defs>
                <circle id="rim" cx="0" cy="0" r="7"/>
                <circle id="rim2" cx="0" cy="0" r="3.5"/>
                <g id="zoomPlus">
                        <use xlink:href="#rim" fill="#404040">
                                <set attributeName="fill" to="#808080" begin="zoomplus.mouseover" end="zoomplus.mouseout"/>
                        </use>
                        <path d="M-4,0h8M0,-4v8" fill="none" stroke="white" stroke-width="1.5" pointer-events="none"/>
                </g>
                <g id="zoomMin">
                        <use xlink:href="#rim" fill="#404040">
                                <set attributeName="fill" to="#808080" begin="zoomminus.mouseover" end="zoomminus.mouseout"/>
                        </use>
                        <path d="M-4,0h8" fill="none" stroke="white" stroke-width="1.5" pointer-events="none"/>
                </g>
                <g id="dirArrow">
                        <path fill="none" stroke="white" stroke-width="1.5" d="M0,-3.0v7 M-2.5,-0.5L0,-3.0L2.5,-0.5"/>
                </g>
               <g id="resetDef">
                       <use xlink:href="#rim2" fill="#404040">
                               <set attributeName="fill" to="#808080" begin="reset.mouseover" end="reset.mouseout"/>
                       </use>
               </g>
        </defs>

<script type="text/javascript">
var viewWidth = 1475;
var viewHeight = 307;
var sectionId = 'dynsection-1';
</script>
<script xlink:href="svgpan.js"/>
<svg id="graph" class="graph">
<g id="viewport">
<title>lib/carpi/lib/SDFileSystem/FATFileSystem/ff.h</title>
<polygon fill="white" stroke="none" points="-4,4 -4,-303 1471,-303 1471,4 -4,4"/>
<!-- Node1 -->
<g id="node1" class="node"><title>Node1</title>
<polygon fill="#bfbfbf" stroke="black" points="437.5,-268.5 437.5,-298.5 573.5,-298.5 573.5,-268.5 437.5,-268.5"/>
<text text-anchor="start" x="445.5" y="-286.5" font-family="Helvetica,sans-Serif" font-size="10.00">lib/carpi/lib/SDFileSystem</text>
<text text-anchor="middle" x="505.5" y="-275.5" font-family="Helvetica,sans-Serif" font-size="10.00">/FATFileSystem/ff.h</text>
</g>
<!-- Node2 -->
<g id="node2" class="node"><title>Node2</title>
<g id="a_node2"><a xlink:href="ccsbcs_8cpp.html" target="_top" xlink:title="lib/carpi/lib/SDFileSystem\l/FATFileSystem/ccsbcs.cpp">
<polygon fill="white" stroke="black" points="0,-201.5 0,-231.5 143,-231.5 143,-201.5 0,-201.5"/>
<text text-anchor="start" x="8" y="-219.5" font-family="Helvetica,sans-Serif" font-size="10.00">lib/carpi/lib/SDFileSystem</text>
<text text-anchor="middle" x="71.5" y="-208.5" font-family="Helvetica,sans-Serif" font-size="10.00">/FATFileSystem/ccsbcs.cpp</text>
</a>
</g>
</g>
<!-- Node1&#45;&gt;Node2 -->
<g id="edge1" class="edge"><title>Node1&#45;&gt;Node2</title>
<path fill="none" stroke="midnightblue" d="M427.309,-272.636C354.777,-262.787 244.121,-246.997 148.5,-232 146.705,-231.718 144.889,-231.431 143.06,-231.14"/>
<polygon fill="midnightblue" stroke="midnightblue" points="426.906,-276.114 437.285,-273.986 427.844,-269.177 426.906,-276.114"/>
</g>
<!-- Node3 -->
<g id="node3" class="node"><title>Node3</title>
<g id="a_node3"><a xlink:href="_f_a_t_file_system_8h.html" target="_top" xlink:title="lib/carpi/lib/SDFileSystem\l/FATFileSystem/FATFileSystem.h">
<polygon fill="white" stroke="black" points="756,-201.5 756,-231.5 923,-231.5 923,-201.5 756,-201.5"/>
<text text-anchor="start" x="764" y="-219.5" font-family="Helvetica,sans-Serif" font-size="10.00">lib/carpi/lib/SDFileSystem</text>
<text text-anchor="middle" x="839.5" y="-208.5" font-family="Helvetica,sans-Serif" font-size="10.00">/FATFileSystem/FATFileSystem.h</text>
</a>
</g>
</g>
<!-- Node1&#45;&gt;Node3 -->
<g id="edge3" class="edge"><title>Node1&#45;&gt;Node3</title>
<path fill="none" stroke="midnightblue" d="M584.041,-267.215C639.564,-256.41 713.426,-242.035 767.442,-231.523"/>
<polygon fill="midnightblue" stroke="midnightblue" points="583.043,-263.844 573.896,-269.189 584.38,-270.715 583.043,-263.844"/>
</g>
<!-- Node6 -->
<g id="node6" class="node"><title>Node6</title>
<g id="a_node6"><a xlink:href="ff_8cpp.html" target="_top" xlink:title="lib/carpi/lib/SDFileSystem\l/FATFileSystem/ff.cpp">
<polygon fill="white" stroke="black" points="675.5,-0.5 675.5,-30.5 811.5,-30.5 811.5,-0.5 675.5,-0.5"/>
<text text-anchor="start" x="683.5" y="-18.5" font-family="Helvetica,sans-Serif" font-size="10.00">lib/carpi/lib/SDFileSystem</text>
<text text-anchor="middle" x="743.5" y="-7.5" font-family="Helvetica,sans-Serif" font-size="10.00">/FATFileSystem/ff.cpp</text>
</a>
</g>
</g>
<!-- Node1&#45;&gt;Node6 -->
<g id="edge24" class="edge"><title>Node1&#45;&gt;Node6</title>
<path fill="none" stroke="midnightblue" d="M437.827,-265.801C321.818,-234.186 105.314,-160.32 190.5,-67 222.612,-31.8218 534.701,-20.8618 675.36,-17.6925"/>
<polygon fill="midnightblue" stroke="midnightblue" points="437.138,-269.24 447.704,-268.457 438.956,-262.48 437.138,-269.24"/>
</g>
<!-- Node13 -->
<g id="node13" class="node"><title>Node13</title>
<g id="a_node13"><a xlink:href="_f_a_t_file_handle_8cpp.html" target="_top" xlink:title="lib/carpi/lib/SDFileSystem\l/FATFileSystem/FATFileHandle.cpp">
<polygon fill="white" stroke="black" points="1292,-201.5 1292,-231.5 1467,-231.5 1467,-201.5 1292,-201.5"/>
<text text-anchor="start" x="1300" y="-219.5" font-family="Helvetica,sans-Serif" font-size="10.00">lib/carpi/lib/SDFileSystem</text>
<text text-anchor="middle" x="1379.5" y="-208.5" font-family="Helvetica,sans-Serif" font-size="10.00">/FATFileSystem/FATFileHandle.cpp</text>
</a>
</g>
</g>
<!-- Node1&#45;&gt;Node13 -->
<g id="edge16" class="edge"><title>Node1&#45;&gt;Node13</title>
<path fill="none" stroke="midnightblue" d="M583.807,-279.623C724.292,-273.971 1028.31,-259.504 1283.5,-232 1286.27,-231.702 1289.07,-231.382 1291.91,-231.045"/>
<polygon fill="midnightblue" stroke="midnightblue" points="583.423,-276.135 573.571,-280.031 583.702,-283.13 583.423,-276.135"/>
</g>
<!-- Node15 -->
<g id="node15" class="node"><title>Node15</title>
<g id="a_node15"><a xlink:href="_f_a_t_dir_handle_8cpp.html" target="_top" xlink:title="lib/carpi/lib/SDFileSystem\l/FATFileSystem/FATDirHandle.cpp">
<polygon fill="white" stroke="black" points="1101,-201.5 1101,-231.5 1274,-231.5 1274,-201.5 1101,-201.5"/>
<text text-anchor="start" x="1109" y="-219.5" font-family="Helvetica,sans-Serif" font-size="10.00">lib/carpi/lib/SDFileSystem</text>
<text text-anchor="middle" x="1187.5" y="-208.5" font-family="Helvetica,sans-Serif" font-size="10.00">/FATFileSystem/FATDirHandle.cpp</text>
</a>
</g>
</g>
<!-- Node1&#45;&gt;Node15 -->
<g id="edge20" class="edge"><title>Node1&#45;&gt;Node15</title>
<path fill="none" stroke="midnightblue" d="M583.861,-275.032C712.405,-262.78 967.105,-238.505 1100.85,-225.758"/>
<polygon fill="midnightblue" stroke="midnightblue" points="583.323,-271.567 573.7,-276 583.987,-278.535 583.323,-271.567"/>
</g>
<!-- Node2&#45;&gt;Node1 -->
<g id="edge2" class="edge"><title>Node2&#45;&gt;Node1</title>
<path fill="none" stroke="midnightblue" d="M153.237,-229.886C157.732,-230.612 162.176,-231.322 166.5,-232 260.436,-246.733 368.883,-262.231 437.387,-272.11"/>
<polygon fill="midnightblue" stroke="midnightblue" points="153.776,-226.428 143.344,-228.278 152.653,-233.337 153.776,-226.428"/>
</g>
<!-- Node4 -->
<g id="node4" class="node"><title>Node4</title>
<g id="a_node4"><a xlink:href="diskio_8cpp.html" target="_top" xlink:title="lib/carpi/lib/SDFileSystem\l/FATFileSystem/diskio.cpp">
<polygon fill="white" stroke="black" points="674,-134.5 674,-164.5 811,-164.5 811,-134.5 674,-134.5"/>
<text text-anchor="start" x="682" y="-152.5" font-family="Helvetica,sans-Serif" font-size="10.00">lib/carpi/lib/SDFileSystem</text>
<text text-anchor="middle" x="742.5" y="-141.5" font-family="Helvetica,sans-Serif" font-size="10.00">/FATFileSystem/diskio.cpp</text>
</a>
</g>
</g>
<!-- Node3&#45;&gt;Node4 -->
<g id="edge4" class="edge"><title>Node3&#45;&gt;Node4</title>
<path fill="none" stroke="midnightblue" d="M810.003,-195.734C794.993,-185.676 777.099,-173.685 763.506,-164.577"/>
<polygon fill="midnightblue" stroke="midnightblue" points="808.197,-198.737 818.452,-201.396 812.094,-192.922 808.197,-198.737"/>
</g>
<!-- Node7 -->
<g id="node7" class="node"><title>Node7</title>
<g id="a_node7"><a xlink:href="_f_a_t_file_system_8cpp.html" target="_top" xlink:title="lib/carpi/lib/SDFileSystem\l/FATFileSystem/FATFileSystem.cpp">
<polygon fill="white" stroke="black" points="1050.5,-67.5 1050.5,-97.5 1228.5,-97.5 1228.5,-67.5 1050.5,-67.5"/>
<text text-anchor="start" x="1058.5" y="-85.5" font-family="Helvetica,sans-Serif" font-size="10.00">lib/carpi/lib/SDFileSystem</text>
<text text-anchor="middle" x="1139.5" y="-74.5" font-family="Helvetica,sans-Serif" font-size="10.00">/FATFileSystem/FATFileSystem.cpp</text>
</a>
</g>
</g>
<!-- Node3&#45;&gt;Node7 -->
<g id="edge9" class="edge"><title>Node3&#45;&gt;Node7</title>
<path fill="none" stroke="midnightblue" d="M933.068,-202.452C969.027,-194.956 1009.53,-183.242 1043.5,-165 1075.41,-147.866 1104.35,-116.072 1122.34,-97.6683"/>
<polygon fill="midnightblue" stroke="midnightblue" points="932.174,-199.062 923.056,-204.457 933.548,-205.926 932.174,-199.062"/>
</g>
<!-- Node8 -->
<g id="node8" class="node"><title>Node8</title>
<g id="a_node8"><a xlink:href="_mem_file_system_8h.html" target="_top" xlink:title="lib/carpi/lib/SDFileSystem\l/FATFileSystem/MemFileSystem.h">
<polygon fill="white" stroke="black" points="868,-134.5 868,-164.5 1043,-164.5 1043,-134.5 868,-134.5"/>
<text text-anchor="start" x="876" y="-152.5" font-family="Helvetica,sans-Serif" font-size="10.00">lib/carpi/lib/SDFileSystem</text>
<text text-anchor="middle" x="955.5" y="-141.5" font-family="Helvetica,sans-Serif" font-size="10.00">/FATFileSystem/MemFileSystem.h</text>
</a>
</g>
</g>
<!-- Node3&#45;&gt;Node8 -->
<g id="edge11" class="edge"><title>Node3&#45;&gt;Node8</title>
<path fill="none" stroke="midnightblue" d="M873.772,-196.296C891.923,-186.125 913.82,-173.855 930.379,-164.577"/>
<polygon fill="midnightblue" stroke="midnightblue" points="871.683,-193.454 864.67,-201.396 875.105,-199.561 871.683,-193.454"/>
</g>
<!-- Node9 -->
<g id="node9" class="node"><title>Node9</title>
<g id="a_node9"><a xlink:href="_s_d_file_system_8h.html" target="_top" xlink:title="lib/carpi/lib/SDFileSystem\l/SDFileSystem.h">
<polygon fill="white" stroke="black" points="445.5,-134.5 445.5,-164.5 581.5,-164.5 581.5,-134.5 445.5,-134.5"/>
<text text-anchor="start" x="453.5" y="-152.5" font-family="Helvetica,sans-Serif" font-size="10.00">lib/carpi/lib/SDFileSystem</text>
<text text-anchor="middle" x="513.5" y="-141.5" font-family="Helvetica,sans-Serif" font-size="10.00">/SDFileSystem.h</text>
</a>
</g>
</g>
<!-- Node3&#45;&gt;Node9 -->
<g id="edge12" class="edge"><title>Node3&#45;&gt;Node9</title>
<path fill="none" stroke="midnightblue" d="M759.196,-199.489C704.723,-188.627 633.487,-174.424 581.755,-164.109"/>
<polygon fill="midnightblue" stroke="midnightblue" points="758.673,-202.953 769.164,-201.476 760.042,-196.088 758.673,-202.953"/>
</g>
<!-- Node5 -->
<g id="node5" class="node"><title>Node5</title>
<g id="a_node5"><a xlink:href="diskio_8h.html" target="_top" xlink:title="lib/carpi/lib/SDFileSystem\l/FATFileSystem/diskio.h">
<polygon fill="white" stroke="black" points="675.5,-67.5 675.5,-97.5 811.5,-97.5 811.5,-67.5 675.5,-67.5"/>
<text text-anchor="start" x="683.5" y="-85.5" font-family="Helvetica,sans-Serif" font-size="10.00">lib/carpi/lib/SDFileSystem</text>
<text text-anchor="middle" x="743.5" y="-74.5" font-family="Helvetica,sans-Serif" font-size="10.00">/FATFileSystem/diskio.h</text>
</a>
</g>
</g>
<!-- Node4&#45;&gt;Node5 -->
<g id="edge5" class="edge"><title>Node4&#45;&gt;Node5</title>
<path fill="none" stroke="midnightblue" d="M736.325,-124.403C736.015,-115.37 736.459,-105.408 737.609,-97.5765"/>
<polygon fill="midnightblue" stroke="midnightblue" points="732.835,-124.671 737.039,-134.396 739.818,-124.172 732.835,-124.671"/>
</g>
<!-- Node5&#45;&gt;Node4 -->
<g id="edge6" class="edge"><title>Node5&#45;&gt;Node4</title>
<path fill="none" stroke="midnightblue" d="M749.674,-107.565C749.985,-116.596 749.544,-126.56 748.395,-134.396"/>
<polygon fill="midnightblue" stroke="midnightblue" points="753.164,-107.301 748.958,-97.5765 746.182,-107.801 753.164,-107.301"/>
</g>
<!-- Node5&#45;&gt;Node6 -->
<g id="edge7" class="edge"><title>Node5&#45;&gt;Node6</title>
<path fill="none" stroke="midnightblue" d="M743.5,-57.1081C743.5,-48.1539 743.5,-38.3227 743.5,-30.5765"/>
<polygon fill="midnightblue" stroke="midnightblue" points="740,-57.3959 743.5,-67.396 747,-57.396 740,-57.3959"/>
</g>
<!-- Node6&#45;&gt;Node3 -->
<g id="edge8" class="edge"><title>Node6&#45;&gt;Node3</title>
<path fill="none" stroke="midnightblue" d="M786.325,-35.6036C799.317,-43.4843 812.305,-53.894 820.5,-67 847.232,-109.754 844.36,-172.989 841.4,-201.111"/>
<polygon fill="midnightblue" stroke="midnightblue" points="787.816,-32.426 777.388,-30.5498 784.37,-38.5191 787.816,-32.426"/>
</g>
<!-- Node7&#45;&gt;Node3 -->
<g id="edge10" class="edge"><title>Node7&#45;&gt;Node3</title>
<path fill="none" stroke="midnightblue" d="M1128.67,-105.896C1114.38,-124.492 1089.05,-150.208 1061.5,-165 1019.06,-187.788 966.431,-200.39 923.014,-207.307"/>
<polygon fill="midnightblue" stroke="midnightblue" points="1131.59,-107.829 1134.59,-97.6683 1125.91,-103.739 1131.59,-107.829"/>
</g>
<!-- Node10 -->
<g id="node10" class="node"><title>Node10</title>
<g id="a_node10"><a xlink:href="_s_d_card_test_8h.html" target="_top" xlink:title="car/hardwareTest/mbed\l/SDCardTest.h">
<polygon fill="white" stroke="black" points="375.5,-67.5 375.5,-97.5 503.5,-97.5 503.5,-67.5 375.5,-67.5"/>
<text text-anchor="start" x="383.5" y="-85.5" font-family="Helvetica,sans-Serif" font-size="10.00">car/hardwareTest/mbed</text>
<text text-anchor="middle" x="439.5" y="-74.5" font-family="Helvetica,sans-Serif" font-size="10.00">/SDCardTest.h</text>
</a>
</g>
</g>
<!-- Node9&#45;&gt;Node10 -->
<g id="edge13" class="edge"><title>Node9&#45;&gt;Node10</title>
<path fill="none" stroke="midnightblue" d="M489.704,-127.598C478.53,-117.783 465.507,-106.344 455.526,-97.5765"/>
<polygon fill="midnightblue" stroke="midnightblue" points="487.62,-130.426 497.443,-134.396 492.24,-125.167 487.62,-130.426"/>
</g>
<!-- Node11 -->
<g id="node11" class="node"><title>Node11</title>
<g id="a_node11"><a xlink:href="_s_d_file_system_8cpp.html" target="_top" xlink:title="lib/carpi/lib/SDFileSystem\l/SDFileSystem.cpp">
<polygon fill="white" stroke="black" points="521.5,-67.5 521.5,-97.5 657.5,-97.5 657.5,-67.5 521.5,-67.5"/>
<text text-anchor="start" x="529.5" y="-85.5" font-family="Helvetica,sans-Serif" font-size="10.00">lib/carpi/lib/SDFileSystem</text>
<text text-anchor="middle" x="589.5" y="-74.5" font-family="Helvetica,sans-Serif" font-size="10.00">/SDFileSystem.cpp</text>
</a>
</g>
</g>
<!-- Node9&#45;&gt;Node11 -->
<g id="edge14" class="edge"><title>Node9&#45;&gt;Node11</title>
<path fill="none" stroke="midnightblue" d="M537.606,-127.883C549.155,-118.005 562.69,-106.429 573.041,-97.5765"/>
<polygon fill="midnightblue" stroke="midnightblue" points="535.316,-125.236 529.991,-134.396 539.865,-130.556 535.316,-125.236"/>
</g>
<!-- Node12 -->
<g id="node12" class="node"><title>Node12</title>
<g id="a_node12"><a xlink:href="_hardware_s_d_card_8h.html" target="_top" xlink:title="lib/carpi/src/components\l/hardware/HardwareSDCard.h">
<polygon fill="white" stroke="black" points="199.5,-67.5 199.5,-97.5 357.5,-97.5 357.5,-67.5 199.5,-67.5"/>
<text text-anchor="start" x="207.5" y="-85.5" font-family="Helvetica,sans-Serif" font-size="10.00">lib/carpi/src/components</text>
<text text-anchor="middle" x="278.5" y="-74.5" font-family="Helvetica,sans-Serif" font-size="10.00">/hardware/HardwareSDCard.h</text>
</a>
</g>
</g>
<!-- Node9&#45;&gt;Node12 -->
<g id="edge15" class="edge"><title>Node9&#45;&gt;Node12</title>
<path fill="none" stroke="midnightblue" d="M452.816,-131.715C414.573,-121.137 365.757,-107.635 329.516,-97.6109"/>
<polygon fill="midnightblue" stroke="midnightblue" points="452.227,-135.183 462.798,-134.476 454.093,-128.437 452.227,-135.183"/>
</g>
<!-- Node14 -->
<g id="node14" class="node"><title>Node14</title>
<g id="a_node14"><a xlink:href="_f_a_t_file_handle_8h.html" target="_top" xlink:title="lib/carpi/lib/SDFileSystem\l/FATFileSystem/FATFileHandle.h">
<polygon fill="white" stroke="black" points="1297.5,-134.5 1297.5,-164.5 1461.5,-164.5 1461.5,-134.5 1297.5,-134.5"/>
<text text-anchor="start" x="1305.5" y="-152.5" font-family="Helvetica,sans-Serif" font-size="10.00">lib/carpi/lib/SDFileSystem</text>
<text text-anchor="middle" x="1379.5" y="-141.5" font-family="Helvetica,sans-Serif" font-size="10.00">/FATFileSystem/FATFileHandle.h</text>
</a>
</g>
</g>
<!-- Node13&#45;&gt;Node14 -->
<g id="edge17" class="edge"><title>Node13&#45;&gt;Node14</title>
<path fill="none" stroke="midnightblue" d="M1372.95,-191.403C1372.51,-182.37 1372.8,-172.408 1373.83,-164.577"/>
<polygon fill="midnightblue" stroke="midnightblue" points="1369.47,-191.736 1373.82,-201.396 1376.44,-191.131 1369.47,-191.736"/>
</g>
<!-- Node14&#45;&gt;Node7 -->
<g id="edge18" class="edge"><title>Node14&#45;&gt;Node7</title>
<path fill="none" stroke="midnightblue" d="M1318.02,-131.85C1278.89,-121.252 1228.77,-107.677 1191.6,-97.6109"/>
<polygon fill="midnightblue" stroke="midnightblue" points="1317.15,-135.24 1327.72,-134.476 1318.98,-128.483 1317.15,-135.24"/>
</g>
<!-- Node14&#45;&gt;Node13 -->
<g id="edge19" class="edge"><title>Node14&#45;&gt;Node13</title>
<path fill="none" stroke="midnightblue" d="M1386.04,-174.565C1386.49,-183.596 1386.21,-193.56 1385.18,-201.396"/>
<polygon fill="midnightblue" stroke="midnightblue" points="1389.53,-174.236 1385.17,-164.577 1382.55,-174.842 1389.53,-174.236"/>
</g>
<!-- Node16 -->
<g id="node16" class="node"><title>Node16</title>
<g id="a_node16"><a xlink:href="_f_a_t_dir_handle_8h.html" target="_top" xlink:title="lib/carpi/lib/SDFileSystem\l/FATFileSystem/FATDirHandle.h">
<polygon fill="white" stroke="black" points="1117.5,-134.5 1117.5,-164.5 1279.5,-164.5 1279.5,-134.5 1117.5,-134.5"/>
<text text-anchor="start" x="1125.5" y="-152.5" font-family="Helvetica,sans-Serif" font-size="10.00">lib/carpi/lib/SDFileSystem</text>
<text text-anchor="middle" x="1198.5" y="-141.5" font-family="Helvetica,sans-Serif" font-size="10.00">/FATFileSystem/FATDirHandle.h</text>
</a>
</g>
</g>
<!-- Node15&#45;&gt;Node16 -->
<g id="edge21" class="edge"><title>Node15&#45;&gt;Node16</title>
<path fill="none" stroke="midnightblue" d="M1185.03,-191.403C1186.11,-182.37 1188.09,-172.408 1190.44,-164.577"/>
<polygon fill="midnightblue" stroke="midnightblue" points="1181.54,-191.142 1184.21,-201.396 1188.52,-191.718 1181.54,-191.142"/>
</g>
<!-- Node16&#45;&gt;Node7 -->
<g id="edge22" class="edge"><title>Node16&#45;&gt;Node7</title>
<path fill="none" stroke="midnightblue" d="M1178.75,-126.736C1170.02,-117.119 1160,-106.089 1152.28,-97.5765"/>
<polygon fill="midnightblue" stroke="midnightblue" points="1176.39,-129.344 1185.7,-134.396 1181.57,-124.639 1176.39,-129.344"/>
</g>
<!-- Node16&#45;&gt;Node15 -->
<g id="edge23" class="edge"><title>Node16&#45;&gt;Node15</title>
<path fill="none" stroke="midnightblue" d="M1200.97,-174.565C1199.89,-183.596 1197.92,-193.56 1195.57,-201.396"/>
<polygon fill="midnightblue" stroke="midnightblue" points="1204.46,-174.83 1201.79,-164.577 1197.48,-174.256 1204.46,-174.83"/>
</g>
</g>
</svg>
        <g id="navigator" transform="translate(0 0)" fill="#404254">
                <rect fill="#f2f5e9" fill-opacity="0.5" stroke="#606060" stroke-width=".5" x="0" y="0" width="60" height="60"/>
                <use id="zoomplus" xlink:href="#zoomPlus" x="17" y="9" onmousedown="handleZoom(evt,'in')"/>
                <use id="zoomminus" xlink:href="#zoomMin" x="42" y="9" onmousedown="handleZoom(evt,'out')"/>
                <use id="reset" xlink:href="#resetDef" x="30" y="36" onmousedown="handleReset()"/>
                <g id="arrowUp" xlink:href="#dirArrow" transform="translate(30 24)" onmousedown="handlePan(0,-1)">
                  <use xlink:href="#rim" fill="#404040">
                        <set attributeName="fill" to="#808080" begin="arrowUp.mouseover" end="arrowUp.mouseout"/>
                  </use>
                  <path fill="none" stroke="white" stroke-width="1.5" d="M0,-3.0v7 M-2.5,-0.5L0,-3.0L2.5,-0.5"/>
                </g>
                <g id="arrowRight" xlink:href="#dirArrow" transform="rotate(90) translate(36 -43)" onmousedown="handlePan(1,0)">
                  <use xlink:href="#rim" fill="#404040">
                        <set attributeName="fill" to="#808080" begin="arrowRight.mouseover" end="arrowRight.mouseout"/>
                  </use>
                  <path fill="none" stroke="white" stroke-width="1.5" d="M0,-3.0v7 M-2.5,-0.5L0,-3.0L2.5,-0.5"/>
                </g>
                <g id="arrowDown" xlink:href="#dirArrow" transform="rotate(180) translate(-30 -48)" onmousedown="handlePan(0,1)">
                  <use xlink:href="#rim" fill="#404040">
                        <set attributeName="fill" to="#808080" begin="arrowDown.mouseover" end="arrowDown.mouseout"/>
                  </use>
                  <path fill="none" stroke="white" stroke-width="1.5" d="M0,-3.0v7 M-2.5,-0.5L0,-3.0L2.5,-0.5"/>
                </g>
                <g id="arrowLeft" xlink:href="#dirArrow" transform="rotate(270) translate(-36 17)" onmousedown="handlePan(-1,0)">
                  <use xlink:href="#rim" fill="#404040">
                        <set attributeName="fill" to="#808080" begin="arrowLeft.mouseover" end="arrowLeft.mouseout"/>
                  </use>
                  <path fill="none" stroke="white" stroke-width="1.5" d="M0,-3.0v7 M-2.5,-0.5L0,-3.0L2.5,-0.5"/>
                </g>
        </g>
        <svg viewBox="0 0 15 15" width="100%" height="30px" preserveAspectRatio="xMaxYMin meet">
         <g id="arrow_out" transform="scale(0.3 0.3)">
          <a xlink:href="ff_8h__dep__incl_org.svg" target="_base">
           <rect id="button" ry="5" rx="5" y="6" x="6" height="38" width="38"
                fill="#f2f5e9" fill-opacity="0.5" stroke="#606060" stroke-width="1.0"/>
           <path id="arrow"
             d="M 11.500037,31.436501 C 11.940474,20.09759 22.043105,11.32322 32.158766,21.979434 L 37.068811,17.246167 C 37.068811,17.246167 37.088388,32 37.088388,32 L 22.160133,31.978069 C 22.160133,31.978069 26.997745,27.140456 26.997745,27.140456 C 18.528582,18.264221 13.291696,25.230495 11.500037,31.436501 z"
             style="fill:#404040;"/>
          </a>
         </g>
        </svg>
</svg>
