<?xml version="1.0" encoding="UTF-8" standalone="no"?>
<!DOCTYPE svg PUBLIC "-//W3C//DTD SVG 1.1//EN"
 "http://www.w3.org/Graphics/SVG/1.1/DTD/svg11.dtd">
<!-- Generated by graphviz version 2.38.0 (20140413.2041)
 -->
<!-- Title: lib/carpi/lib/SDFileSystem/FATFileSystem/ff.cpp Pages: 1 -->
<svg width="880pt" height="240pt"
 viewBox="0.00 0.00 879.61 240.00" xmlns="http://www.w3.org/2000/svg" xmlns:xlink="http://www.w3.org/1999/xlink">
<g id="graph0" class="graph" transform="scale(1 1) rotate(0) translate(4 236)">
<title>lib/carpi/lib/SDFileSystem/FATFileSystem/ff.cpp</title>
<polygon fill="white" stroke="none" points="-4,4 -4,-236 875.606,-236 875.606,4 -4,4"/>
<!-- Node1 -->
<g id="node1" class="node"><title>Node1</title>
<polygon fill="#bfbfbf" stroke="black" points="53.606,-201.5 53.606,-231.5 189.606,-231.5 189.606,-201.5 53.606,-201.5"/>
<text text-anchor="start" x="61.606" y="-219.5" font-family="Helvetica,sans-Serif" font-size="10.00">lib/carpi/lib/SDFileSystem</text>
<text text-anchor="middle" x="121.606" y="-208.5" font-family="Helvetica,sans-Serif" font-size="10.00">/FATFileSystem/ff.cpp</text>
</g>
<!-- Node2 -->
<g id="node2" class="node"><title>Node2</title>
<g id="a_node2"><a xlink:href="_f_a_t_file_system_8h.html" target="_top" xlink:title="lib/carpi/lib/SDFileSystem\l/FATFileSystem/FATFileSystem.h">
<polygon fill="white" stroke="black" points="175.106,-134.5 175.106,-164.5 342.106,-164.5 342.106,-134.5 175.106,-134.5"/>
<text text-anchor="start" x="183.106" y="-152.5" font-family="Helvetica,sans-Serif" font-size="10.00">lib/carpi/lib/SDFileSystem</text>
<text text-anchor="middle" x="258.606" y="-141.5" font-family="Helvetica,sans-Serif" font-size="10.00">/FATFileSystem/FATFileSystem.h</text>
</a>
</g>
</g>
<!-- Node1&#45;&gt;Node2 -->
<g id="edge1" class="edge"><title>Node1&#45;&gt;Node2</title>
<path fill="none" stroke="midnightblue" d="M160.615,-196.992C182.33,-186.689 208.933,-174.068 228.937,-164.577"/>
<polygon fill="midnightblue" stroke="midnightblue" points="158.867,-193.947 151.333,-201.396 161.868,-200.272 158.867,-193.947"/>
</g>
<!-- Node3 -->
<g id="node3" class="node"><title>Node3</title>
<g id="a_node3"><a xlink:href="diskio_8cpp.html" target="_top" xlink:title="lib/carpi/lib/SDFileSystem\l/FATFileSystem/diskio.cpp">
<polygon fill="white" stroke="black" points="14.106,-67.5 14.106,-97.5 151.106,-97.5 151.106,-67.5 14.106,-67.5"/>
<text text-anchor="start" x="22.106" y="-85.5" font-family="Helvetica,sans-Serif" font-size="10.00">lib/carpi/lib/SDFileSystem</text>
<text text-anchor="middle" x="82.606" y="-74.5" font-family="Helvetica,sans-Serif" font-size="10.00">/FATFileSystem/diskio.cpp</text>
</a>
</g>
</g>
<!-- Node2&#45;&gt;Node3 -->
<g id="edge2" class="edge"><title>Node2&#45;&gt;Node3</title>
<path fill="none" stroke="midnightblue" d="M210.73,-130.819C182.44,-120.371 147.112,-107.323 120.721,-97.5765"/>
<polygon fill="midnightblue" stroke="midnightblue" points="209.823,-134.215 220.417,-134.396 212.249,-127.648 209.823,-134.215"/>
</g>
<!-- Node5 -->
<g id="node5" class="node"><title>Node5</title>
<g id="a_node5"><a xlink:href="_f_a_t_file_system_8cpp.html" target="_top" xlink:title="lib/carpi/lib/SDFileSystem\l/FATFileSystem/FATFileSystem.cpp">
<polygon fill="white" stroke="black" points="169.606,-67.5 169.606,-97.5 347.606,-97.5 347.606,-67.5 169.606,-67.5"/>
<text text-anchor="start" x="177.606" y="-85.5" font-family="Helvetica,sans-Serif" font-size="10.00">lib/carpi/lib/SDFileSystem</text>
<text text-anchor="middle" x="258.606" y="-74.5" font-family="Helvetica,sans-Serif" font-size="10.00">/FATFileSystem/FATFileSystem.cpp</text>
</a>
</g>
</g>
<!-- Node2&#45;&gt;Node5 -->
<g id="edge6" class="edge"><title>Node2&#45;&gt;Node5</title>
<path fill="none" stroke="midnightblue" d="M252.061,-124.403C251.612,-115.37 251.902,-105.408 252.931,-97.5765"/>
<polygon fill="midnightblue" stroke="midnightblue" points="248.576,-124.736 252.928,-134.396 255.55,-124.131 248.576,-124.736"/>
</g>
<!-- Node6 -->
<g id="node6" class="node"><title>Node6</title>
<g id="a_node6"><a xlink:href="_mem_file_system_8h.html" target="_top" xlink:title="lib/carpi/lib/SDFileSystem\l/FATFileSystem/MemFileSystem.h">
<polygon fill="white" stroke="black" points="366.106,-67.5 366.106,-97.5 541.106,-97.5 541.106,-67.5 366.106,-67.5"/>
<text text-anchor="start" x="374.106" y="-85.5" font-family="Helvetica,sans-Serif" font-size="10.00">lib/carpi/lib/SDFileSystem</text>
<text text-anchor="middle" x="453.606" y="-74.5" font-family="Helvetica,sans-Serif" font-size="10.00">/FATFileSystem/MemFileSystem.h</text>
</a>
</g>
</g>
<!-- Node2&#45;&gt;Node6 -->
<g id="edge8" class="edge"><title>Node2&#45;&gt;Node6</title>
<path fill="none" stroke="midnightblue" d="M310.423,-131.228C341.967,-120.713 381.754,-107.451 411.377,-97.5765"/>
<polygon fill="midnightblue" stroke="midnightblue" points="309.298,-127.913 300.918,-134.396 311.512,-134.554 309.298,-127.913"/>
</g>
<!-- Node7 -->
<g id="node7" class="node"><title>Node7</title>
<g id="a_node7"><a xlink:href="_s_d_file_system_8h.html" target="_top" xlink:title="lib/carpi/lib/SDFileSystem\l/SDFileSystem.h">
<polygon fill="white" stroke="black" points="559.606,-67.5 559.606,-97.5 695.606,-97.5 695.606,-67.5 559.606,-67.5"/>
<text text-anchor="start" x="567.606" y="-85.5" font-family="Helvetica,sans-Serif" font-size="10.00">lib/carpi/lib/SDFileSystem</text>
<text text-anchor="middle" x="627.606" y="-74.5" font-family="Helvetica,sans-Serif" font-size="10.00">/SDFileSystem.h</text>
</a>
</g>
</g>
<!-- Node2&#45;&gt;Node7 -->
<g id="edge9" class="edge"><title>Node2&#45;&gt;Node7</title>
<path fill="none" stroke="midnightblue" d="M351.23,-132.717C408.43,-122.898 483.311,-109.914 549.606,-98 552.86,-97.4153 556.189,-96.8128 559.55,-96.2009"/>
<polygon fill="midnightblue" stroke="midnightblue" points="350.388,-129.31 341.124,-134.451 351.572,-136.209 350.388,-129.31"/>
</g>
<!-- Node4 -->
<g id="node4" class="node"><title>Node4</title>
<g id="a_node4"><a xlink:href="diskio_8h.html" target="_top" xlink:title="lib/carpi/lib/SDFileSystem\l/FATFileSystem/diskio.h">
<polygon fill="white" stroke="black" points="14.606,-0.5 14.606,-30.5 150.606,-30.5 150.606,-0.5 14.606,-0.5"/>
<text text-anchor="start" x="22.606" y="-18.5" font-family="Helvetica,sans-Serif" font-size="10.00">lib/carpi/lib/SDFileSystem</text>
<text text-anchor="middle" x="82.606" y="-7.5" font-family="Helvetica,sans-Serif" font-size="10.00">/FATFileSystem/diskio.h</text>
</a>
</g>
</g>
<!-- Node3&#45;&gt;Node4 -->
<g id="edge3" class="edge"><title>Node3&#45;&gt;Node4</title>
<path fill="none" stroke="midnightblue" d="M76.0607,-57.4029C75.6115,-48.3703 75.9017,-38.4078 76.9312,-30.5765"/>
<polygon fill="midnightblue" stroke="midnightblue" points="72.5763,-57.7359 76.9276,-67.396 79.5502,-57.1309 72.5763,-57.7359"/>
</g>
<!-- Node4&#45;&gt;Node1 -->
<g id="edge5" class="edge"><title>Node4&#45;&gt;Node1</title>
<path fill="none" stroke="midnightblue" d="M37.2387,-35.5082C24.3581,-43.2762 11.8702,-53.6431 4.60603,-67 -1.97656,-79.1036 -0.652921,-85.2654 4.60603,-98 23.7255,-144.298 70.9055,-181.942 99.1686,-201.307"/>
<polygon fill="midnightblue" stroke="midnightblue" points="39.1254,-38.4638 46.1594,-30.5408 35.7198,-32.348 39.1254,-38.4638"/>
</g>
<!-- Node4&#45;&gt;Node3 -->
<g id="edge4" class="edge"><title>Node4&#45;&gt;Node3</title>
<path fill="none" stroke="midnightblue" d="M89.1498,-40.5653C89.6007,-49.5958 89.3122,-59.5597 88.2845,-67.396"/>
<polygon fill="midnightblue" stroke="midnightblue" points="92.6344,-40.2355 88.2808,-30.5765 85.6607,-40.8422 92.6344,-40.2355"/>
</g>
<!-- Node5&#45;&gt;Node2 -->
<g id="edge7" class="edge"><title>Node5&#45;&gt;Node2</title>
<path fill="none" stroke="midnightblue" d="M265.15,-107.565C265.601,-116.596 265.312,-126.56 264.284,-134.396"/>
<polygon fill="midnightblue" stroke="midnightblue" points="268.634,-107.236 264.281,-97.5765 261.661,-107.842 268.634,-107.236"/>
</g>
<!-- Node8 -->
<g id="node8" class="node"><title>Node8</title>
<g id="a_node8"><a xlink:href="_s_d_card_test_8h.html" target="_top" xlink:title="car/hardwareTest/mbed\l/SDCardTest.h">
<polygon fill="white" stroke="black" points="413.606,-0.5 413.606,-30.5 541.606,-30.5 541.606,-0.5 413.606,-0.5"/>
<text text-anchor="start" x="421.606" y="-18.5" font-family="Helvetica,sans-Serif" font-size="10.00">car/hardwareTest/mbed</text>
<text text-anchor="middle" x="477.606" y="-7.5" font-family="Helvetica,sans-Serif" font-size="10.00">/SDCardTest.h</text>
</a>
</g>
</g>
<!-- Node7&#45;&gt;Node8 -->
<g id="edge10" class="edge"><title>Node7&#45;&gt;Node8</title>
<path fill="none" stroke="midnightblue" d="M585.852,-63.4066C561.905,-53.0294 532.288,-40.1954 510.09,-30.5765"/>
<polygon fill="midnightblue" stroke="midnightblue" points="584.491,-66.6313 595.058,-67.396 587.274,-60.2084 584.491,-66.6313"/>
</g>
<!-- Node9 -->
<g id="node9" class="node"><title>Node9</title>
<g id="a_node9"><a xlink:href="_s_d_file_system_8cpp.html" target="_top" xlink:title="lib/carpi/lib/SDFileSystem\l/SDFileSystem.cpp">
<polygon fill="white" stroke="black" points="559.606,-0.5 559.606,-30.5 695.606,-30.5 695.606,-0.5 559.606,-0.5"/>
<text text-anchor="start" x="567.606" y="-18.5" font-family="Helvetica,sans-Serif" font-size="10.00">lib/carpi/lib/SDFileSystem</text>
<text text-anchor="middle" x="627.606" y="-7.5" font-family="Helvetica,sans-Serif" font-size="10.00">/SDFileSystem.cpp</text>
</a>
</g>
</g>
<!-- Node7&#45;&gt;Node9 -->
<g id="edge11" class="edge"><title>Node7&#45;&gt;Node9</title>
<path fill="none" stroke="midnightblue" d="M627.606,-57.1081C627.606,-48.1539 627.606,-38.3227 627.606,-30.5765"/>
<polygon fill="midnightblue" stroke="midnightblue" points="624.106,-57.3959 627.606,-67.396 631.106,-57.396 624.106,-57.3959"/>
</g>
<!-- Node10 -->
<g id="node10" class="node"><title>Node10</title>
<g id="a_node10"><a xlink:href="_hardware_s_d_card_8h.html" target="_top" xlink:title="lib/carpi/src/components\l/hardware/HardwareSDCard.h">
<polygon fill="white" stroke="black" points="713.606,-0.5 713.606,-30.5 871.606,-30.5 871.606,-0.5 713.606,-0.5"/>
<text text-anchor="start" x="721.606" y="-18.5" font-family="Helvetica,sans-Serif" font-size="10.00">lib/carpi/src/components</text>
<text text-anchor="middle" x="792.606" y="-7.5" font-family="Helvetica,sans-Serif" font-size="10.00">/hardware/HardwareSDCard.h</text>
</a>
</g>
</g>
<!-- Node7&#45;&gt;Node10 -->
<g id="edge12" class="edge"><title>Node7&#45;&gt;Node10</title>
<path fill="none" stroke="midnightblue" d="M672.838,-63.6815C699.3,-53.2568 732.24,-40.2805 756.873,-30.5765"/>
<polygon fill="midnightblue" stroke="midnightblue" points="671.43,-60.4742 663.409,-67.396 673.996,-66.9871 671.43,-60.4742"/>
</g>
</g>
</svg>
