<?xml version="1.0" encoding="UTF-8" standalone="no"?>
<!DOCTYPE svg PUBLIC "-//W3C//DTD SVG 1.1//EN"
 "http://www.w3.org/Graphics/SVG/1.1/DTD/svg11.dtd">
<!-- Generated by graphviz version 2.38.0 (20140413.2041)
 -->
<!-- Title: lib/carpi/lib/SDFileSystem/FATFileSystem/ffconf.h Pages: 1 -->
<!--zoomable 374 -->
<svg id="main" version="1.1" xmlns="http://www.w3.org/2000/svg" xmlns:xlink="http://www.w3.org/1999/xlink" xml:space="preserve" onload="init(evt)">
<style type="text/css"><![CDATA[
.edge:hover path { stroke: red; }
.edge:hover polygon { stroke: red; fill: red; }
]]></style>
<script type="text/javascript"><![CDATA[
var edges = document.getElementsByTagName('g');
if (edges && edges.length) {
  for (var i=0;i<edges.length;i++) {
    if (edges[i].id.substr(0,4)=='edge') {
      edges[i].setAttribute('class','edge');
    }
  }
}
]]></script>
        <defs>
                <circle id="rim" cx="0" cy="0" r="7"/>
                <circle id="rim2" cx="0" cy="0" r="3.5"/>
                <g id="zoomPlus">
                        <use xlink:href="#rim" fill="#404040">
                                <set attributeName="fill" to="#808080" begin="zoomplus.mouseover" end="zoomplus.mouseout"/>
                        </use>
                        <path d="M-4,0h8M0,-4v8" fill="none" stroke="white" stroke-width="1.5" pointer-events="none"/>
                </g>
                <g id="zoomMin">
                        <use xlink:href="#rim" fill="#404040">
                                <set attributeName="fill" to="#808080" begin="zoomminus.mouseover" end="zoomminus.mouseout"/>
                        </use>
                        <path d="M-4,0h8" fill="none" stroke="white" stroke-width="1.5" pointer-events="none"/>
                </g>
                <g id="dirArrow">
                        <path fill="none" stroke="white" stroke-width="1.5" d="M0,-3.0v7 M-2.5,-0.5L0,-3.0L2.5,-0.5"/>
                </g>
               <g id="resetDef">
                       <use xlink:href="#rim2" fill="#404040">
                               <set attributeName="fill" to="#808080" begin="reset.mouseover" end="reset.mouseout"/>
                       </use>
               </g>
        </defs>

<script type="text/javascript">
var viewWidth = 1025;
var viewHeight = 374;
var sectionId = 'dynsection-0';
</script>
<script xlink:href="svgpan.js"/>
<svg id="graph" class="graph">
<g id="viewport">
<title>lib/carpi/lib/SDFileSystem/FATFileSystem/ffconf.h</title>
<polygon fill="white" stroke="none" points="-4,4 -4,-370 1020.67,-370 1020.67,4 -4,4"/>
<!-- Node1 -->
<g id="node1" class="node"><title>Node1</title>
<polygon fill="#bfbfbf" stroke="black" points="847,-335.5 847,-365.5 983,-365.5 983,-335.5 847,-335.5"/>
<text text-anchor="start" x="855" y="-353.5" font-family="Helvetica,sans-Serif" font-size="10.00">lib/carpi/lib/SDFileSystem</text>
<text text-anchor="middle" x="915" y="-342.5" font-family="Helvetica,sans-Serif" font-size="10.00">/FATFileSystem/ffconf.h</text>
</g>
<!-- Node2 -->
<g id="node2" class="node"><title>Node2</title>
<g id="a_node2"><a xlink:href="ff_8h.html" target="_top" xlink:title="lib/carpi/lib/SDFileSystem\l/FATFileSystem/ff.h">
<polygon fill="white" stroke="black" points="447,-268.5 447,-298.5 583,-298.5 583,-268.5 447,-268.5"/>
<text text-anchor="start" x="455" y="-286.5" font-family="Helvetica,sans-Serif" font-size="10.00">lib/carpi/lib/SDFileSystem</text>
<text text-anchor="middle" x="515" y="-275.5" font-family="Helvetica,sans-Serif" font-size="10.00">/FATFileSystem/ff.h</text>
</a>
</g>
</g>
<!-- Node1&#45;&gt;Node2 -->
<g id="edge1" class="edge"><title>Node1&#45;&gt;Node2</title>
<path fill="none" stroke="midnightblue" d="M836.517,-336.746C762.677,-324.748 653.248,-306.965 583.026,-295.554"/>
<polygon fill="midnightblue" stroke="midnightblue" points="836.26,-340.251 846.692,-338.4 837.383,-333.341 836.26,-340.251"/>
</g>
<!-- Node8 -->
<g id="node8" class="node"><title>Node8</title>
<g id="a_node8"><a xlink:href="_f_a_t_file_system_8cpp.html" target="_top" xlink:title="lib/carpi/lib/SDFileSystem\l/FATFileSystem/FATFileSystem.cpp">
<polygon fill="white" stroke="black" points="726,-67.5 726,-97.5 904,-97.5 904,-67.5 726,-67.5"/>
<text text-anchor="start" x="734" y="-85.5" font-family="Helvetica,sans-Serif" font-size="10.00">lib/carpi/lib/SDFileSystem</text>
<text text-anchor="middle" x="815" y="-74.5" font-family="Helvetica,sans-Serif" font-size="10.00">/FATFileSystem/FATFileSystem.cpp</text>
</a>
</g>
</g>
<!-- Node1&#45;&gt;Node8 -->
<g id="edge26" class="edge"><title>Node1&#45;&gt;Node8</title>
<path fill="none" stroke="midnightblue" d="M940.087,-328.732C963.79,-307.331 997.771,-271.586 1012,-232 1018.5,-213.91 1018.45,-145.676 1009,-134 995.26,-117.025 948.368,-104.557 904.13,-96.2561"/>
<polygon fill="midnightblue" stroke="midnightblue" points="937.679,-326.19 932.486,-335.425 942.305,-331.444 937.679,-326.19"/>
</g>
<!-- Node14 -->
<g id="node14" class="node"><title>Node14</title>
<g id="a_node14"><a xlink:href="_f_a_t_file_handle_8cpp.html" target="_top" xlink:title="lib/carpi/lib/SDFileSystem\l/FATFileSystem/FATFileHandle.cpp">
<polygon fill="white" stroke="black" points="827.5,-201.5 827.5,-231.5 1002.5,-231.5 1002.5,-201.5 827.5,-201.5"/>
<text text-anchor="start" x="835.5" y="-219.5" font-family="Helvetica,sans-Serif" font-size="10.00">lib/carpi/lib/SDFileSystem</text>
<text text-anchor="middle" x="915" y="-208.5" font-family="Helvetica,sans-Serif" font-size="10.00">/FATFileSystem/FATFileHandle.cpp</text>
</a>
</g>
</g>
<!-- Node1&#45;&gt;Node14 -->
<g id="edge27" class="edge"><title>Node1&#45;&gt;Node14</title>
<path fill="none" stroke="midnightblue" d="M915,-325.024C915,-297.512 915,-253.789 915,-231.525"/>
<polygon fill="midnightblue" stroke="midnightblue" points="911.5,-325.374 915,-335.374 918.5,-325.374 911.5,-325.374"/>
</g>
<!-- Node3 -->
<g id="node3" class="node"><title>Node3</title>
<g id="a_node3"><a xlink:href="ccsbcs_8cpp.html" target="_top" xlink:title="lib/carpi/lib/SDFileSystem\l/FATFileSystem/ccsbcs.cpp">
<polygon fill="white" stroke="black" points="270.5,-201.5 270.5,-231.5 413.5,-231.5 413.5,-201.5 270.5,-201.5"/>
<text text-anchor="start" x="278.5" y="-219.5" font-family="Helvetica,sans-Serif" font-size="10.00">lib/carpi/lib/SDFileSystem</text>
<text text-anchor="middle" x="342" y="-208.5" font-family="Helvetica,sans-Serif" font-size="10.00">/FATFileSystem/ccsbcs.cpp</text>
</a>
</g>
</g>
<!-- Node2&#45;&gt;Node3 -->
<g id="edge2" class="edge"><title>Node2&#45;&gt;Node3</title>
<path fill="none" stroke="midnightblue" d="M462.234,-264.955C433.343,-254.485 398.558,-241.366 373.79,-231.577"/>
<polygon fill="midnightblue" stroke="midnightblue" points="461.189,-268.299 471.783,-268.396 463.562,-261.713 461.189,-268.299"/>
</g>
<!-- Node4 -->
<g id="node4" class="node"><title>Node4</title>
<g id="a_node4"><a xlink:href="_f_a_t_file_system_8h.html" target="_top" xlink:title="lib/carpi/lib/SDFileSystem\l/FATFileSystem/FATFileSystem.h">
<polygon fill="white" stroke="black" points="431.5,-201.5 431.5,-231.5 598.5,-231.5 598.5,-201.5 431.5,-201.5"/>
<text text-anchor="start" x="439.5" y="-219.5" font-family="Helvetica,sans-Serif" font-size="10.00">lib/carpi/lib/SDFileSystem</text>
<text text-anchor="middle" x="515" y="-208.5" font-family="Helvetica,sans-Serif" font-size="10.00">/FATFileSystem/FATFileSystem.h</text>
</a>
</g>
</g>
<!-- Node2&#45;&gt;Node4 -->
<g id="edge4" class="edge"><title>Node2&#45;&gt;Node4</title>
<path fill="none" stroke="midnightblue" d="M515,-258.108C515,-249.154 515,-239.323 515,-231.577"/>
<polygon fill="midnightblue" stroke="midnightblue" points="511.5,-258.396 515,-268.396 518.5,-258.396 511.5,-258.396"/>
</g>
<!-- Node7 -->
<g id="node7" class="node"><title>Node7</title>
<g id="a_node7"><a xlink:href="ff_8cpp.html" target="_top" xlink:title="lib/carpi/lib/SDFileSystem\l/FATFileSystem/ff.cpp">
<polygon fill="white" stroke="black" points="0,-0.5 0,-30.5 136,-30.5 136,-0.5 0,-0.5"/>
<text text-anchor="start" x="8" y="-18.5" font-family="Helvetica,sans-Serif" font-size="10.00">lib/carpi/lib/SDFileSystem</text>
<text text-anchor="middle" x="68" y="-7.5" font-family="Helvetica,sans-Serif" font-size="10.00">/FATFileSystem/ff.cpp</text>
</a>
</g>
</g>
<!-- Node2&#45;&gt;Node7 -->
<g id="edge25" class="edge"><title>Node2&#45;&gt;Node7</title>
<path fill="none" stroke="midnightblue" d="M436.647,-273.236C320.296,-257.725 110.522,-222.423 64,-165 32.1793,-125.723 51.4288,-59.5408 62.1999,-30.6756"/>
<polygon fill="midnightblue" stroke="midnightblue" points="436.205,-276.708 446.576,-274.542 437.118,-269.768 436.205,-276.708"/>
</g>
<!-- Node2&#45;&gt;Node14 -->
<g id="edge17" class="edge"><title>Node2&#45;&gt;Node14</title>
<path fill="none" stroke="midnightblue" d="M593.497,-269.744C661.245,-258.735 758.944,-242.859 828.837,-231.502"/>
<polygon fill="midnightblue" stroke="midnightblue" points="592.617,-266.341 583.308,-271.4 593.74,-273.251 592.617,-266.341"/>
</g>
<!-- Node16 -->
<g id="node16" class="node"><title>Node16</title>
<g id="a_node16"><a xlink:href="_f_a_t_dir_handle_8cpp.html" target="_top" xlink:title="lib/carpi/lib/SDFileSystem\l/FATFileSystem/FATDirHandle.cpp">
<polygon fill="white" stroke="black" points="636.5,-201.5 636.5,-231.5 809.5,-231.5 809.5,-201.5 636.5,-201.5"/>
<text text-anchor="start" x="644.5" y="-219.5" font-family="Helvetica,sans-Serif" font-size="10.00">lib/carpi/lib/SDFileSystem</text>
<text text-anchor="middle" x="723" y="-208.5" font-family="Helvetica,sans-Serif" font-size="10.00">/FATFileSystem/FATDirHandle.cpp</text>
</a>
</g>
</g>
<!-- Node2&#45;&gt;Node16 -->
<g id="edge21" class="edge"><title>Node2&#45;&gt;Node16</title>
<path fill="none" stroke="midnightblue" d="M569.578,-265.444C603.295,-254.908 646.042,-241.549 677.845,-231.611"/>
<polygon fill="midnightblue" stroke="midnightblue" points="568.378,-262.152 559.877,-268.476 570.466,-268.834 568.378,-262.152"/>
</g>
<!-- Node3&#45;&gt;Node2 -->
<g id="edge3" class="edge"><title>Node3&#45;&gt;Node2</title>
<path fill="none" stroke="midnightblue" d="M394.685,-235.015C423.565,-245.481 458.354,-258.601 483.14,-268.396"/>
<polygon fill="midnightblue" stroke="midnightblue" points="395.734,-231.673 385.14,-231.577 393.362,-238.259 395.734,-231.673"/>
</g>
<!-- Node5 -->
<g id="node5" class="node"><title>Node5</title>
<g id="a_node5"><a xlink:href="diskio_8cpp.html" target="_top" xlink:title="lib/carpi/lib/SDFileSystem\l/FATFileSystem/diskio.cpp">
<polygon fill="white" stroke="black" points="96.5,-134.5 96.5,-164.5 233.5,-164.5 233.5,-134.5 96.5,-134.5"/>
<text text-anchor="start" x="104.5" y="-152.5" font-family="Helvetica,sans-Serif" font-size="10.00">lib/carpi/lib/SDFileSystem</text>
<text text-anchor="middle" x="165" y="-141.5" font-family="Helvetica,sans-Serif" font-size="10.00">/FATFileSystem/diskio.cpp</text>
</a>
</g>
</g>
<!-- Node4&#45;&gt;Node5 -->
<g id="edge5" class="edge"><title>Node4&#45;&gt;Node5</title>
<path fill="none" stroke="midnightblue" d="M429.237,-199.582C375.693,-189.643 305.329,-176.579 243,-165 240.021,-164.447 236.978,-163.881 233.903,-163.31"/>
<polygon fill="midnightblue" stroke="midnightblue" points="428.903,-203.08 439.374,-201.464 430.181,-196.198 428.903,-203.08"/>
</g>
<!-- Node4&#45;&gt;Node8 -->
<g id="edge10" class="edge"><title>Node4&#45;&gt;Node8</title>
<path fill="none" stroke="midnightblue" d="M539.05,-195.281C568.913,-174.236 617.767,-143.098 638,-134 672.443,-118.512 712.936,-106.18 746.559,-97.5801"/>
<polygon fill="midnightblue" stroke="midnightblue" points="536.897,-192.517 530.807,-201.187 540.975,-198.207 536.897,-192.517"/>
</g>
<!-- Node9 -->
<g id="node9" class="node"><title>Node9</title>
<g id="a_node9"><a xlink:href="_mem_file_system_8h.html" target="_top" xlink:title="lib/carpi/lib/SDFileSystem\l/FATFileSystem/MemFileSystem.h">
<polygon fill="white" stroke="black" points="406.5,-134.5 406.5,-164.5 581.5,-164.5 581.5,-134.5 406.5,-134.5"/>
<text text-anchor="start" x="414.5" y="-152.5" font-family="Helvetica,sans-Serif" font-size="10.00">lib/carpi/lib/SDFileSystem</text>
<text text-anchor="middle" x="494" y="-141.5" font-family="Helvetica,sans-Serif" font-size="10.00">/FATFileSystem/MemFileSystem.h</text>
</a>
</g>
</g>
<!-- Node4&#45;&gt;Node9 -->
<g id="edge12" class="edge"><title>Node4&#45;&gt;Node9</title>
<path fill="none" stroke="midnightblue" d="M507.31,-191.697C504.367,-182.587 501.105,-172.493 498.548,-164.577"/>
<polygon fill="midnightblue" stroke="midnightblue" points="504.038,-192.956 510.443,-201.396 510.699,-190.804 504.038,-192.956"/>
</g>
<!-- Node10 -->
<g id="node10" class="node"><title>Node10</title>
<g id="a_node10"><a xlink:href="_s_d_file_system_8h.html" target="_top" xlink:title="lib/carpi/lib/SDFileSystem\l/SDFileSystem.h">
<polygon fill="white" stroke="black" points="252,-134.5 252,-164.5 388,-164.5 388,-134.5 252,-134.5"/>
<text text-anchor="start" x="260" y="-152.5" font-family="Helvetica,sans-Serif" font-size="10.00">lib/carpi/lib/SDFileSystem</text>
<text text-anchor="middle" x="320" y="-141.5" font-family="Helvetica,sans-Serif" font-size="10.00">/SDFileSystem.h</text>
</a>
</g>
</g>
<!-- Node4&#45;&gt;Node10 -->
<g id="edge13" class="edge"><title>Node4&#45;&gt;Node10</title>
<path fill="none" stroke="midnightblue" d="M463.183,-198.228C431.639,-187.713 391.852,-174.451 362.23,-164.577"/>
<polygon fill="midnightblue" stroke="midnightblue" points="462.094,-201.554 472.688,-201.396 464.308,-194.913 462.094,-201.554"/>
</g>
<!-- Node6 -->
<g id="node6" class="node"><title>Node6</title>
<g id="a_node6"><a xlink:href="diskio_8h.html" target="_top" xlink:title="lib/carpi/lib/SDFileSystem\l/FATFileSystem/diskio.h">
<polygon fill="white" stroke="black" points="96,-67.5 96,-97.5 232,-97.5 232,-67.5 96,-67.5"/>
<text text-anchor="start" x="104" y="-85.5" font-family="Helvetica,sans-Serif" font-size="10.00">lib/carpi/lib/SDFileSystem</text>
<text text-anchor="middle" x="164" y="-74.5" font-family="Helvetica,sans-Serif" font-size="10.00">/FATFileSystem/diskio.h</text>
</a>
</g>
</g>
<!-- Node5&#45;&gt;Node6 -->
<g id="edge6" class="edge"><title>Node5&#45;&gt;Node6</title>
<path fill="none" stroke="midnightblue" d="M158.084,-124.403C157.496,-115.37 157.633,-105.408 158.542,-97.5765"/>
<polygon fill="midnightblue" stroke="midnightblue" points="154.607,-124.803 159.105,-134.396 161.57,-124.092 154.607,-124.803"/>
</g>
<!-- Node6&#45;&gt;Node5 -->
<g id="edge7" class="edge"><title>Node6&#45;&gt;Node5</title>
<path fill="none" stroke="midnightblue" d="M170.914,-107.565C171.504,-116.596 171.369,-126.56 170.461,-134.396"/>
<polygon fill="midnightblue" stroke="midnightblue" points="174.392,-107.168 169.891,-97.5765 167.428,-107.881 174.392,-107.168"/>
</g>
<!-- Node6&#45;&gt;Node7 -->
<g id="edge8" class="edge"><title>Node6&#45;&gt;Node7</title>
<path fill="none" stroke="midnightblue" d="M134.807,-61.7337C119.952,-51.6755 102.242,-39.6847 88.7899,-30.5765"/>
<polygon fill="midnightblue" stroke="midnightblue" points="132.927,-64.6875 143.169,-67.396 136.851,-58.8912 132.927,-64.6875"/>
</g>
<!-- Node7&#45;&gt;Node4 -->
<g id="edge9" class="edge"><title>Node7&#45;&gt;Node4</title>
<path fill="none" stroke="midnightblue" d="M62.9237,-41.0021C57.6378,-74.1424 54.1442,-132.801 87,-165 140.475,-217.406 347.767,-191.23 422,-201 425.078,-201.405 428.212,-201.83 431.376,-202.269"/>
<polygon fill="midnightblue" stroke="midnightblue" points="66.43,-41.275 64.7351,-30.8166 59.5381,-40.0493 66.43,-41.275"/>
</g>
<!-- Node8&#45;&gt;Node4 -->
<g id="edge11" class="edge"><title>Node8&#45;&gt;Node4</title>
<path fill="none" stroke="midnightblue" d="M752.632,-100.315C722.773,-108.718 686.945,-120.085 656,-134 633.708,-144.024 576.675,-180.801 542.16,-201.357"/>
<polygon fill="midnightblue" stroke="midnightblue" points="753.809,-103.621 762.513,-97.5801 751.942,-96.8747 753.809,-103.621"/>
</g>
<!-- Node11 -->
<g id="node11" class="node"><title>Node11</title>
<g id="a_node11"><a xlink:href="_s_d_card_test_8h.html" target="_top" xlink:title="car/hardwareTest/mbed\l/SDCardTest.h">
<polygon fill="white" stroke="black" points="580,-67.5 580,-97.5 708,-97.5 708,-67.5 580,-67.5"/>
<text text-anchor="start" x="588" y="-85.5" font-family="Helvetica,sans-Serif" font-size="10.00">car/hardwareTest/mbed</text>
<text text-anchor="middle" x="644" y="-74.5" font-family="Helvetica,sans-Serif" font-size="10.00">/SDCardTest.h</text>
</a>
</g>
</g>
<!-- Node10&#45;&gt;Node11 -->
<g id="edge14" class="edge"><title>Node10&#45;&gt;Node11</title>
<path fill="none" stroke="midnightblue" d="M398.137,-132.824C453.803,-121.657 527.709,-106.83 579.91,-96.3576"/>
<polygon fill="midnightblue" stroke="midnightblue" points="397.432,-129.396 388.316,-134.795 398.809,-136.259 397.432,-129.396"/>
</g>
<!-- Node12 -->
<g id="node12" class="node"><title>Node12</title>
<g id="a_node12"><a xlink:href="_s_d_file_system_8cpp.html" target="_top" xlink:title="lib/carpi/lib/SDFileSystem\l/SDFileSystem.cpp">
<polygon fill="white" stroke="black" points="250,-67.5 250,-97.5 386,-97.5 386,-67.5 250,-67.5"/>
<text text-anchor="start" x="258" y="-85.5" font-family="Helvetica,sans-Serif" font-size="10.00">lib/carpi/lib/SDFileSystem</text>
<text text-anchor="middle" x="318" y="-74.5" font-family="Helvetica,sans-Serif" font-size="10.00">/SDFileSystem.cpp</text>
</a>
</g>
</g>
<!-- Node10&#45;&gt;Node12 -->
<g id="edge15" class="edge"><title>Node10&#45;&gt;Node12</title>
<path fill="none" stroke="midnightblue" d="M319.249,-124.108C318.974,-115.154 318.671,-105.323 318.433,-97.5765"/>
<polygon fill="midnightblue" stroke="midnightblue" points="315.76,-124.508 319.566,-134.396 322.757,-124.293 315.76,-124.508"/>
</g>
<!-- Node13 -->
<g id="node13" class="node"><title>Node13</title>
<g id="a_node13"><a xlink:href="_hardware_s_d_card_8h.html" target="_top" xlink:title="lib/carpi/src/components\l/hardware/HardwareSDCard.h">
<polygon fill="white" stroke="black" points="404,-67.5 404,-97.5 562,-97.5 562,-67.5 404,-67.5"/>
<text text-anchor="start" x="412" y="-85.5" font-family="Helvetica,sans-Serif" font-size="10.00">lib/carpi/src/components</text>
<text text-anchor="middle" x="483" y="-74.5" font-family="Helvetica,sans-Serif" font-size="10.00">/hardware/HardwareSDCard.h</text>
</a>
</g>
</g>
<!-- Node10&#45;&gt;Node13 -->
<g id="edge16" class="edge"><title>Node10&#45;&gt;Node13</title>
<path fill="none" stroke="midnightblue" d="M364.683,-130.682C390.825,-120.257 423.366,-107.281 447.7,-97.5765"/>
<polygon fill="midnightblue" stroke="midnightblue" points="363.361,-127.441 355.369,-134.396 365.954,-133.943 363.361,-127.441"/>
</g>
<!-- Node15 -->
<g id="node15" class="node"><title>Node15</title>
<g id="a_node15"><a xlink:href="_f_a_t_file_handle_8h.html" target="_top" xlink:title="lib/carpi/lib/SDFileSystem\l/FATFileSystem/FATFileHandle.h">
<polygon fill="white" stroke="black" points="836,-134.5 836,-164.5 1000,-164.5 1000,-134.5 836,-134.5"/>
<text text-anchor="start" x="844" y="-152.5" font-family="Helvetica,sans-Serif" font-size="10.00">lib/carpi/lib/SDFileSystem</text>
<text text-anchor="middle" x="918" y="-141.5" font-family="Helvetica,sans-Serif" font-size="10.00">/FATFileSystem/FATFileHandle.h</text>
</a>
</g>
</g>
<!-- Node14&#45;&gt;Node15 -->
<g id="edge18" class="edge"><title>Node14&#45;&gt;Node15</title>
<path fill="none" stroke="midnightblue" d="M909.567,-191.403C909.535,-182.37 910.285,-172.408 911.676,-164.577"/>
<polygon fill="midnightblue" stroke="midnightblue" points="906.07,-191.546 909.973,-201.396 913.064,-191.262 906.07,-191.546"/>
</g>
<!-- Node15&#45;&gt;Node8 -->
<g id="edge19" class="edge"><title>Node15&#45;&gt;Node8</title>
<path fill="none" stroke="midnightblue" d="M887.124,-129.015C871.095,-118.9 851.874,-106.77 837.306,-97.5765"/>
<polygon fill="midnightblue" stroke="midnightblue" points="885.326,-132.019 895.651,-134.396 889.062,-126.099 885.326,-132.019"/>
</g>
<!-- Node15&#45;&gt;Node14 -->
<g id="edge20" class="edge"><title>Node15&#45;&gt;Node14</title>
<path fill="none" stroke="midnightblue" d="M923.434,-174.86C923.451,-183.812 922.704,-193.645 921.329,-201.396"/>
<polygon fill="midnightblue" stroke="midnightblue" points="926.92,-174.43 923.025,-164.577 919.925,-174.708 926.92,-174.43"/>
</g>
<!-- Node17 -->
<g id="node17" class="node"><title>Node17</title>
<g id="a_node17"><a xlink:href="_f_a_t_dir_handle_8h.html" target="_top" xlink:title="lib/carpi/lib/SDFileSystem\l/FATFileSystem/FATDirHandle.h">
<polygon fill="white" stroke="black" points="656,-134.5 656,-164.5 818,-164.5 818,-134.5 656,-134.5"/>
<text text-anchor="start" x="664" y="-152.5" font-family="Helvetica,sans-Serif" font-size="10.00">lib/carpi/lib/SDFileSystem</text>
<text text-anchor="middle" x="737" y="-141.5" font-family="Helvetica,sans-Serif" font-size="10.00">/FATFileSystem/FATDirHandle.h</text>
</a>
</g>
</g>
<!-- Node16&#45;&gt;Node17 -->
<g id="edge22" class="edge"><title>Node16&#45;&gt;Node17</title>
<path fill="none" stroke="midnightblue" d="M721.645,-191.403C723.141,-182.37 725.577,-172.408 728.293,-164.577"/>
<polygon fill="midnightblue" stroke="midnightblue" points="718.164,-191.031 720.359,-201.396 725.107,-191.924 718.164,-191.031"/>
</g>
<!-- Node17&#45;&gt;Node8 -->
<g id="edge23" class="edge"><title>Node17&#45;&gt;Node8</title>
<path fill="none" stroke="midnightblue" d="M761.74,-127.883C773.593,-118.005 787.485,-106.429 798.108,-97.5765"/>
<polygon fill="midnightblue" stroke="midnightblue" points="759.366,-125.305 753.925,-134.396 763.848,-130.683 759.366,-125.305"/>
</g>
<!-- Node17&#45;&gt;Node16 -->
<g id="edge24" class="edge"><title>Node17&#45;&gt;Node16</title>
<path fill="none" stroke="midnightblue" d="M738.36,-174.565C736.866,-183.596 734.432,-193.56 731.716,-201.396"/>
<polygon fill="midnightblue" stroke="midnightblue" points="741.841,-174.941 739.643,-164.577 734.898,-174.049 741.841,-174.941"/>
</g>
</g>
</svg>
        <g id="navigator" transform="translate(0 0)" fill="#404254">
                <rect fill="#f2f5e9" fill-opacity="0.5" stroke="#606060" stroke-width=".5" x="0" y="0" width="60" height="60"/>
                <use id="zoomplus" xlink:href="#zoomPlus" x="17" y="9" onmousedown="handleZoom(evt,'in')"/>
                <use id="zoomminus" xlink:href="#zoomMin" x="42" y="9" onmousedown="handleZoom(evt,'out')"/>
                <use id="reset" xlink:href="#resetDef" x="30" y="36" onmousedown="handleReset()"/>
                <g id="arrowUp" xlink:href="#dirArrow" transform="translate(30 24)" onmousedown="handlePan(0,-1)">
                  <use xlink:href="#rim" fill="#404040">
                        <set attributeName="fill" to="#808080" begin="arrowUp.mouseover" end="arrowUp.mouseout"/>
                  </use>
                  <path fill="none" stroke="white" stroke-width="1.5" d="M0,-3.0v7 M-2.5,-0.5L0,-3.0L2.5,-0.5"/>
                </g>
                <g id="arrowRight" xlink:href="#dirArrow" transform="rotate(90) translate(36 -43)" onmousedown="handlePan(1,0)">
                  <use xlink:href="#rim" fill="#404040">
                        <set attributeName="fill" to="#808080" begin="arrowRight.mouseover" end="arrowRight.mouseout"/>
                  </use>
                  <path fill="none" stroke="white" stroke-width="1.5" d="M0,-3.0v7 M-2.5,-0.5L0,-3.0L2.5,-0.5"/>
                </g>
                <g id="arrowDown" xlink:href="#dirArrow" transform="rotate(180) translate(-30 -48)" onmousedown="handlePan(0,1)">
                  <use xlink:href="#rim" fill="#404040">
                        <set attributeName="fill" to="#808080" begin="arrowDown.mouseover" end="arrowDown.mouseout"/>
                  </use>
                  <path fill="none" stroke="white" stroke-width="1.5" d="M0,-3.0v7 M-2.5,-0.5L0,-3.0L2.5,-0.5"/>
                </g>
                <g id="arrowLeft" xlink:href="#dirArrow" transform="rotate(270) translate(-36 17)" onmousedown="handlePan(-1,0)">
                  <use xlink:href="#rim" fill="#404040">
                        <set attributeName="fill" to="#808080" begin="arrowLeft.mouseover" end="arrowLeft.mouseout"/>
                  </use>
                  <path fill="none" stroke="white" stroke-width="1.5" d="M0,-3.0v7 M-2.5,-0.5L0,-3.0L2.5,-0.5"/>
                </g>
        </g>
        <svg viewBox="0 0 15 15" width="100%" height="30px" preserveAspectRatio="xMaxYMin meet">
         <g id="arrow_out" transform="scale(0.3 0.3)">
          <a xlink:href="ffconf_8h__dep__incl_org.svg" target="_base">
           <rect id="button" ry="5" rx="5" y="6" x="6" height="38" width="38"
                fill="#f2f5e9" fill-opacity="0.5" stroke="#606060" stroke-width="1.0"/>
           <path id="arrow"
             d="M 11.500037,31.436501 C 11.940474,20.09759 22.043105,11.32322 32.158766,21.979434 L 37.068811,17.246167 C 37.068811,17.246167 37.088388,32 37.088388,32 L 22.160133,31.978069 C 22.160133,31.978069 26.997745,27.140456 26.997745,27.140456 C 18.528582,18.264221 13.291696,25.230495 11.500037,31.436501 z"
             style="fill:#404040;"/>
          </a>
         </g>
        </svg>
</svg>
