<?xml version="1.0" encoding="UTF-8" standalone="no"?>
<!DOCTYPE svg PUBLIC "-//W3C//DTD SVG 1.1//EN"
 "http://www.w3.org/Graphics/SVG/1.1/DTD/svg11.dtd">
<!-- Generated by graphviz version 2.38.0 (20140413.2041)
 -->
<!-- Title: Graphical Class Hierarchy Pages: 1 -->
<svg width="995pt" height="883pt"
 viewBox="0.00 0.00 995.00 883.00" xmlns="http://www.w3.org/2000/svg" xmlns:xlink="http://www.w3.org/1999/xlink">
<g id="graph0" class="graph" transform="scale(1 1) rotate(0) translate(4 879)">
<title>Graphical Class Hierarchy</title>
<polygon fill="white" stroke="none" points="-4,4 -4,-879 991,-879 991,4 -4,4"/>
<!-- Node1 -->
<g id="node1" class="node"><title>Node1</title>
<g id="a_node1"><a xlink:href="class_non_copyable.html" target="_top" xlink:title="NonCopyable\&lt; ILogable \&gt;">
<polygon fill="white" stroke="black" points="0,-437.5 0,-456.5 143,-456.5 143,-437.5 0,-437.5"/>
<text text-anchor="middle" x="71.5" y="-444.5" font-family="Helvetica,sans-Serif" font-size="10.00">NonCopyable&lt; ILogable &gt;</text>
</a>
</g>
</g>
<!-- Node2 -->
<g id="node2" class="node"><title>Node2</title>
<g id="a_node2"><a xlink:href="class_i_logable.html" target="_top" xlink:title="ILogable">
<polygon fill="white" stroke="black" points="179,-437.5 179,-456.5 235,-456.5 235,-437.5 179,-437.5"/>
<text text-anchor="middle" x="207" y="-444.5" font-family="Helvetica,sans-Serif" font-size="10.00">ILogable</text>
</a>
</g>
</g>
<!-- Node1&#45;&gt;Node2 -->
<g id="edge1" class="edge"><title>Node1&#45;&gt;Node2</title>
<path fill="none" stroke="#8b1a1a" d="M153.251,-447C162.449,-447 171.276,-447 178.989,-447"/>
<polygon fill="#8b1a1a" stroke="#8b1a1a" points="153.159,-443.5 143.159,-447 153.159,-450.5 153.159,-443.5"/>
</g>
<!-- Node3 -->
<g id="node3" class="node"><title>Node3</title>
<g id="a_node3"><a xlink:href="class_i_component.html" target="_top" xlink:title="IComponent">
<polygon fill="white" stroke="black" points="271,-437.5 271,-456.5 346,-456.5 346,-437.5 271,-437.5"/>
<text text-anchor="middle" x="308.5" y="-444.5" font-family="Helvetica,sans-Serif" font-size="10.00">IComponent</text>
</a>
</g>
</g>
<!-- Node2&#45;&gt;Node3 -->
<g id="edge2" class="edge"><title>Node2&#45;&gt;Node3</title>
<path fill="none" stroke="midnightblue" d="M245.338,-447C253.617,-447 262.385,-447 270.644,-447"/>
<polygon fill="midnightblue" stroke="midnightblue" points="245.189,-443.5 235.189,-447 245.189,-450.5 245.189,-443.5"/>
</g>
<!-- Node4 -->
<g id="node4" class="node"><title>Node4</title>
<g id="a_node4"><a xlink:href="class_i_buzzer.html" target="_top" xlink:title="IBuzzer">
<polygon fill="white" stroke="black" points="403.5,-570.5 403.5,-589.5 455.5,-589.5 455.5,-570.5 403.5,-570.5"/>
<text text-anchor="middle" x="429.5" y="-577.5" font-family="Helvetica,sans-Serif" font-size="10.00">IBuzzer</text>
</a>
</g>
</g>
<!-- Node3&#45;&gt;Node4 -->
<g id="edge3" class="edge"><title>Node3&#45;&gt;Node4</title>
<path fill="none" stroke="midnightblue" d="M317.222,-466.111C328.19,-491.072 350.504,-534.679 382,-561 388.156,-566.145 395.893,-570.046 403.28,-572.932"/>
<polygon fill="midnightblue" stroke="midnightblue" points="320.343,-464.506 313.223,-456.66 313.897,-467.234 320.343,-464.506"/>
</g>
<!-- Node7 -->
<g id="node7" class="node"><title>Node7</title>
<g id="a_node7"><a xlink:href="class_i_communication.html" target="_top" xlink:title="ICommunication">
<polygon fill="white" stroke="black" points="382,-532.5 382,-551.5 477,-551.5 477,-532.5 382,-532.5"/>
<text text-anchor="middle" x="429.5" y="-539.5" font-family="Helvetica,sans-Serif" font-size="10.00">ICommunication</text>
</a>
</g>
</g>
<!-- Node3&#45;&gt;Node7 -->
<g id="edge6" class="edge"><title>Node3&#45;&gt;Node7</title>
<path fill="none" stroke="midnightblue" d="M322.675,-464.625C336.049,-481.499 358.136,-506.729 382,-523 387.332,-526.636 393.467,-529.757 399.495,-532.357"/>
<polygon fill="midnightblue" stroke="midnightblue" points="325.398,-462.424 316.512,-456.654 319.86,-466.706 325.398,-462.424"/>
</g>
<!-- Node28 -->
<g id="node28" class="node"><title>Node28</title>
<g id="a_node28"><a xlink:href="class_i_fan.html" target="_top" xlink:title="IFan">
<polygon fill="white" stroke="black" points="412,-494.5 412,-513.5 447,-513.5 447,-494.5 412,-494.5"/>
<text text-anchor="middle" x="429.5" y="-501.5" font-family="Helvetica,sans-Serif" font-size="10.00">IFan</text>
</a>
</g>
</g>
<!-- Node3&#45;&gt;Node28 -->
<g id="edge27" class="edge"><title>Node3&#45;&gt;Node28</title>
<path fill="none" stroke="midnightblue" d="M335.418,-461.348C349.112,-468.734 366.296,-477.696 382,-485 391.805,-489.56 403.021,-494.161 411.981,-497.692"/>
<polygon fill="midnightblue" stroke="midnightblue" points="337.012,-458.231 326.555,-456.526 333.666,-464.38 337.012,-458.231"/>
</g>
<!-- Node30 -->
<g id="node30" class="node"><title>Node30</title>
<g id="a_node30"><a xlink:href="class_i_hv_enabled.html" target="_top" xlink:title="IHvEnabled">
<polygon fill="white" stroke="black" points="394.5,-456.5 394.5,-475.5 464.5,-475.5 464.5,-456.5 394.5,-456.5"/>
<text text-anchor="middle" x="429.5" y="-463.5" font-family="Helvetica,sans-Serif" font-size="10.00">IHvEnabled</text>
</a>
</g>
</g>
<!-- Node3&#45;&gt;Node30 -->
<g id="edge29" class="edge"><title>Node3&#45;&gt;Node30</title>
<path fill="none" stroke="midnightblue" d="M356.125,-454.444C368.809,-456.47 382.314,-458.626 394.18,-460.52"/>
<polygon fill="midnightblue" stroke="midnightblue" points="356.602,-450.976 346.175,-452.856 355.498,-457.889 356.602,-450.976"/>
</g>
<!-- Node32 -->
<g id="node32" class="node"><title>Node32</title>
<g id="a_node32"><a xlink:href="class_i_motor_controller.html" target="_top" xlink:title="IMotorController">
<polygon fill="white" stroke="black" points="383,-418.5 383,-437.5 476,-437.5 476,-418.5 383,-418.5"/>
<text text-anchor="middle" x="429.5" y="-425.5" font-family="Helvetica,sans-Serif" font-size="10.00">IMotorController</text>
</a>
</g>
</g>
<!-- Node3&#45;&gt;Node32 -->
<g id="edge31" class="edge"><title>Node3&#45;&gt;Node32</title>
<path fill="none" stroke="midnightblue" d="M356.246,-439.536C365.018,-438.136 374.179,-436.673 382.916,-435.278"/>
<polygon fill="midnightblue" stroke="midnightblue" points="355.498,-436.111 346.175,-441.144 356.602,-443.024 355.498,-436.111"/>
</g>
<!-- Node34 -->
<g id="node34" class="node"><title>Node34</title>
<g id="a_node34"><a xlink:href="class_i_pump.html" target="_top" xlink:title="IPump">
<polygon fill="white" stroke="black" points="406,-380.5 406,-399.5 453,-399.5 453,-380.5 406,-380.5"/>
<text text-anchor="middle" x="429.5" y="-387.5" font-family="Helvetica,sans-Serif" font-size="10.00">IPump</text>
</a>
</g>
</g>
<!-- Node3&#45;&gt;Node34 -->
<g id="edge33" class="edge"><title>Node3&#45;&gt;Node34</title>
<path fill="none" stroke="midnightblue" d="M335.418,-432.652C349.112,-425.266 366.296,-416.304 382,-409 389.591,-405.469 398.028,-401.915 405.609,-398.851"/>
<polygon fill="midnightblue" stroke="midnightblue" points="333.666,-429.62 326.555,-437.474 337.012,-435.769 333.666,-429.62"/>
</g>
<!-- Node36 -->
<g id="node36" class="node"><title>Node36</title>
<g id="a_node36"><a xlink:href="class_i_runable.html" target="_top" xlink:title="IRunable">
<polygon fill="white" stroke="black" points="401.5,-152.5 401.5,-171.5 457.5,-171.5 457.5,-152.5 401.5,-152.5"/>
<text text-anchor="middle" x="429.5" y="-159.5" font-family="Helvetica,sans-Serif" font-size="10.00">IRunable</text>
</a>
</g>
</g>
<!-- Node3&#45;&gt;Node36 -->
<g id="edge35" class="edge"><title>Node3&#45;&gt;Node36</title>
<path fill="none" stroke="midnightblue" d="M317.512,-427.811C340.691,-372.3 407.253,-212.885 424.421,-171.769"/>
<polygon fill="midnightblue" stroke="midnightblue" points="314.22,-426.613 313.596,-437.19 320.679,-429.31 314.22,-426.613"/>
</g>
<!-- Node56 -->
<g id="node56" class="node"><title>Node56</title>
<g id="a_node56"><a xlink:href="class_i_s_d_card.html" target="_top" xlink:title="ISDCard">
<polygon fill="white" stroke="black" points="401.5,-57.5 401.5,-76.5 457.5,-76.5 457.5,-57.5 401.5,-57.5"/>
<text text-anchor="middle" x="429.5" y="-64.5" font-family="Helvetica,sans-Serif" font-size="10.00">ISDCard</text>
</a>
</g>
</g>
<!-- Node3&#45;&gt;Node56 -->
<g id="edge55" class="edge"><title>Node3&#45;&gt;Node56</title>
<path fill="none" stroke="midnightblue" d="M311.974,-427.54C318.684,-378.339 339.638,-245.591 382,-143 392.509,-117.551 410.885,-90.749 421.107,-76.7792"/>
<polygon fill="midnightblue" stroke="midnightblue" points="308.503,-427.091 310.662,-437.463 315.442,-428.008 308.503,-427.091"/>
</g>
<!-- Node5 -->
<g id="node5" class="node"><title>Node5</title>
<g id="a_node5"><a xlink:href="class_hardware_buzzer.html" target="_top" xlink:title="HardwareBuzzer">
<polygon fill="white" stroke="black" points="534,-608.5 534,-627.5 629,-627.5 629,-608.5 534,-608.5"/>
<text text-anchor="middle" x="581.5" y="-615.5" font-family="Helvetica,sans-Serif" font-size="10.00">HardwareBuzzer</text>
</a>
</g>
</g>
<!-- Node4&#45;&gt;Node5 -->
<g id="edge4" class="edge"><title>Node4&#45;&gt;Node5</title>
<path fill="none" stroke="midnightblue" d="M465.4,-588.841C488.638,-594.728 519.152,-602.458 542.922,-608.48"/>
<polygon fill="midnightblue" stroke="midnightblue" points="466.16,-585.423 455.607,-586.36 464.441,-592.209 466.16,-585.423"/>
</g>
<!-- Node6 -->
<g id="node6" class="node"><title>Node6</title>
<g id="a_node6"><a xlink:href="class_hardware_pwm_buzzer.html" target="_top" xlink:title="HardwarePwmBuzzer">
<polygon fill="white" stroke="black" points="522.5,-570.5 522.5,-589.5 640.5,-589.5 640.5,-570.5 522.5,-570.5"/>
<text text-anchor="middle" x="581.5" y="-577.5" font-family="Helvetica,sans-Serif" font-size="10.00">HardwarePwmBuzzer</text>
</a>
</g>
</g>
<!-- Node4&#45;&gt;Node6 -->
<g id="edge5" class="edge"><title>Node4&#45;&gt;Node6</title>
<path fill="none" stroke="midnightblue" d="M466.047,-580C482.823,-580 503.281,-580 522.236,-580"/>
<polygon fill="midnightblue" stroke="midnightblue" points="465.607,-576.5 455.607,-580 465.607,-583.5 465.607,-576.5"/>
</g>
<!-- Node8 -->
<g id="node8" class="node"><title>Node8</title>
<g id="a_node8"><a xlink:href="class_self_syncable.html" target="_top" xlink:title="SelfSyncable">
<polygon fill="white" stroke="black" points="542.5,-532.5 542.5,-551.5 620.5,-551.5 620.5,-532.5 542.5,-532.5"/>
<text text-anchor="middle" x="581.5" y="-539.5" font-family="Helvetica,sans-Serif" font-size="10.00">SelfSyncable</text>
</a>
</g>
</g>
<!-- Node7&#45;&gt;Node8 -->
<g id="edge7" class="edge"><title>Node7&#45;&gt;Node8</title>
<path fill="none" stroke="midnightblue" d="M487.199,-542C505.654,-542 525.684,-542 542.437,-542"/>
<polygon fill="midnightblue" stroke="midnightblue" points="487.139,-538.5 477.139,-542 487.139,-545.5 487.139,-538.5"/>
</g>
<!-- Node9 -->
<g id="node9" class="node"><title>Node9</title>
<g id="a_node9"><a xlink:href="class_i_alive.html" target="_top" xlink:title="IAlive">
<polygon fill="white" stroke="black" points="730,-817.5 730,-836.5 771,-836.5 771,-817.5 730,-817.5"/>
<text text-anchor="middle" x="750.5" y="-824.5" font-family="Helvetica,sans-Serif" font-size="10.00">IAlive</text>
</a>
</g>
</g>
<!-- Node8&#45;&gt;Node9 -->
<g id="edge8" class="edge"><title>Node8&#45;&gt;Node9</title>
<path fill="none" stroke="midnightblue" d="M630.174,-548.079C637.66,-550.954 644.671,-555.086 650,-561 713.102,-631.018 640.404,-687.506 686,-770 697.323,-790.486 718.858,-807.397 733.686,-817.342"/>
<polygon fill="midnightblue" stroke="midnightblue" points="631.118,-544.707 620.529,-545.07 629.033,-551.39 631.118,-544.707"/>
</g>
<!-- Node12 -->
<g id="node12" class="node"><title>Node12</title>
<g id="a_node12"><a xlink:href="class_i_button.html" target="_top" xlink:title="IButton">
<polygon fill="white" stroke="black" points="725,-741.5 725,-760.5 776,-760.5 776,-741.5 725,-741.5"/>
<text text-anchor="middle" x="750.5" y="-748.5" font-family="Helvetica,sans-Serif" font-size="10.00">IButton</text>
</a>
</g>
</g>
<!-- Node8&#45;&gt;Node12 -->
<g id="edge11" class="edge"><title>Node8&#45;&gt;Node12</title>
<path fill="none" stroke="midnightblue" d="M630.507,-549.072C637.703,-551.855 644.53,-555.7 650,-561 688.158,-597.974 660.482,-628.396 686,-675 700.533,-701.543 725.097,-727.511 739.03,-741.149"/>
<polygon fill="midnightblue" stroke="midnightblue" points="631.152,-545.604 620.561,-545.897 629.023,-552.272 631.152,-545.604"/>
</g>
<!-- Node15 -->
<g id="node15" class="node"><title>Node15</title>
<g id="a_node15"><a xlink:href="class_i_led.html" target="_top" xlink:title="ILed">
<polygon fill="white" stroke="black" points="732.5,-646.5 732.5,-665.5 768.5,-665.5 768.5,-646.5 732.5,-646.5"/>
<text text-anchor="middle" x="750.5" y="-653.5" font-family="Helvetica,sans-Serif" font-size="10.00">ILed</text>
</a>
</g>
</g>
<!-- Node8&#45;&gt;Node15 -->
<g id="edge14" class="edge"><title>Node8&#45;&gt;Node15</title>
<path fill="none" stroke="midnightblue" d="M630.645,-552.076C637.394,-554.469 644.049,-557.405 650,-561 669.913,-573.029 669.33,-582.772 686,-599 703.621,-616.154 725.09,-635.028 738.007,-646.179"/>
<polygon fill="midnightblue" stroke="midnightblue" points="631.351,-548.628 620.761,-548.945 629.237,-555.301 631.351,-548.628"/>
</g>
<!-- Node19 -->
<g id="node19" class="node"><title>Node19</title>
<g id="a_node19"><a xlink:href="class_i_pedal.html" target="_top" xlink:title="IPedal">
<polygon fill="white" stroke="black" points="728,-570.5 728,-589.5 773,-589.5 773,-570.5 728,-570.5"/>
<text text-anchor="middle" x="750.5" y="-577.5" font-family="Helvetica,sans-Serif" font-size="10.00">IPedal</text>
</a>
</g>
</g>
<!-- Node8&#45;&gt;Node19 -->
<g id="edge18" class="edge"><title>Node8&#45;&gt;Node19</title>
<path fill="none" stroke="midnightblue" d="M630.876,-553.008C662.874,-560.289 703.288,-569.485 727.727,-575.046"/>
<polygon fill="midnightblue" stroke="midnightblue" points="631.341,-549.524 620.813,-550.718 629.787,-556.35 631.341,-549.524"/>
</g>
<!-- Node22 -->
<g id="node22" class="node"><title>Node22</title>
<g id="a_node22"><a xlink:href="class_i_registry.html" target="_top" xlink:title="IRegistry">
<polygon fill="white" stroke="black" points="722.5,-532.5 722.5,-551.5 778.5,-551.5 778.5,-532.5 722.5,-532.5"/>
<text text-anchor="middle" x="750.5" y="-539.5" font-family="Helvetica,sans-Serif" font-size="10.00">IRegistry</text>
</a>
</g>
</g>
<!-- Node8&#45;&gt;Node22 -->
<g id="edge21" class="edge"><title>Node8&#45;&gt;Node22</title>
<path fill="none" stroke="midnightblue" d="M630.989,-542C660.7,-542 697.633,-542 722.298,-542"/>
<polygon fill="midnightblue" stroke="midnightblue" points="630.813,-538.5 620.813,-542 630.813,-545.5 630.813,-538.5"/>
</g>
<!-- Node24 -->
<g id="node24" class="node"><title>Node24</title>
<g id="a_node24"><a xlink:href="class_i_rpm_sensor.html" target="_top" xlink:title="IRpmSensor">
<polygon fill="white" stroke="black" points="713.5,-494.5 713.5,-513.5 787.5,-513.5 787.5,-494.5 713.5,-494.5"/>
<text text-anchor="middle" x="750.5" y="-501.5" font-family="Helvetica,sans-Serif" font-size="10.00">IRpmSensor</text>
</a>
</g>
</g>
<!-- Node8&#45;&gt;Node24 -->
<g id="edge23" class="edge"><title>Node8&#45;&gt;Node24</title>
<path fill="none" stroke="midnightblue" d="M630.611,-531.053C656.99,-525.05 689.15,-517.732 713.367,-512.222"/>
<polygon fill="midnightblue" stroke="midnightblue" points="629.787,-527.65 620.813,-533.282 631.341,-534.476 629.787,-527.65"/>
</g>
<!-- Node27 -->
<g id="node27" class="node"><title>Node27</title>
<g id="a_node27"><a xlink:href="class_test_component.html" target="_top" xlink:title="TestComponent">
<polygon fill="white" stroke="black" points="704.5,-456.5 704.5,-475.5 796.5,-475.5 796.5,-456.5 704.5,-456.5"/>
<text text-anchor="middle" x="750.5" y="-463.5" font-family="Helvetica,sans-Serif" font-size="10.00">TestComponent</text>
</a>
</g>
</g>
<!-- Node8&#45;&gt;Node27 -->
<g id="edge26" class="edge"><title>Node8&#45;&gt;Node27</title>
<path fill="none" stroke="midnightblue" d="M630.645,-531.924C637.394,-529.531 644.049,-526.595 650,-523 669.913,-510.971 666.186,-497.191 686,-485 692.272,-481.141 699.377,-478.024 706.507,-475.519"/>
<polygon fill="midnightblue" stroke="midnightblue" points="629.237,-528.699 620.761,-535.055 631.351,-535.372 629.237,-528.699"/>
</g>
<!-- Node10 -->
<g id="node10" class="node"><title>Node10</title>
<g id="a_node10"><a xlink:href="class_hardware_alive.html" target="_top" xlink:title="HardwareAlive">
<polygon fill="white" stroke="black" points="876.5,-855.5 876.5,-874.5 961.5,-874.5 961.5,-855.5 876.5,-855.5"/>
<text text-anchor="middle" x="919" y="-862.5" font-family="Helvetica,sans-Serif" font-size="10.00">HardwareAlive</text>
</a>
</g>
</g>
<!-- Node9&#45;&gt;Node10 -->
<g id="edge9" class="edge"><title>Node9&#45;&gt;Node10</title>
<path fill="none" stroke="midnightblue" d="M781.079,-833.751C807.559,-839.794 846.665,-848.719 876.312,-855.486"/>
<polygon fill="midnightblue" stroke="midnightblue" points="781.782,-830.321 771.254,-831.508 780.224,-837.146 781.782,-830.321"/>
</g>
<!-- Node11 -->
<g id="node11" class="node"><title>Node11</title>
<g id="a_node11"><a xlink:href="class_software_alive.html" target="_top" xlink:title="SoftwareAlive">
<polygon fill="white" stroke="black" points="878.5,-817.5 878.5,-836.5 959.5,-836.5 959.5,-817.5 878.5,-817.5"/>
<text text-anchor="middle" x="919" y="-824.5" font-family="Helvetica,sans-Serif" font-size="10.00">SoftwareAlive</text>
</a>
</g>
</g>
<!-- Node9&#45;&gt;Node11 -->
<g id="edge10" class="edge"><title>Node9&#45;&gt;Node11</title>
<path fill="none" stroke="midnightblue" d="M781.291,-827C808.37,-827 848.527,-827 878.319,-827"/>
<polygon fill="midnightblue" stroke="midnightblue" points="781.254,-823.5 771.254,-827 781.254,-830.5 781.254,-823.5"/>
</g>
<!-- Node13 -->
<g id="node13" class="node"><title>Node13</title>
<g id="a_node13"><a xlink:href="class_hardware_interrupt_button.html" target="_top" xlink:title="HardwareInterruptButton">
<polygon fill="white" stroke="black" points="851,-779.5 851,-798.5 987,-798.5 987,-779.5 851,-779.5"/>
<text text-anchor="middle" x="919" y="-786.5" font-family="Helvetica,sans-Serif" font-size="10.00">HardwareInterruptButton</text>
</a>
</g>
</g>
<!-- Node12&#45;&gt;Node13 -->
<g id="edge12" class="edge"><title>Node12&#45;&gt;Node13</title>
<path fill="none" stroke="midnightblue" d="M785.935,-758.859C812.147,-764.841 848.34,-773.102 876.21,-779.462"/>
<polygon fill="midnightblue" stroke="midnightblue" points="786.596,-755.42 776.068,-756.607 785.038,-762.244 786.596,-755.42"/>
</g>
<!-- Node14 -->
<g id="node14" class="node"><title>Node14</title>
<g id="a_node14"><a xlink:href="class_software_button.html" target="_top" xlink:title="SoftwareButton">
<polygon fill="white" stroke="black" points="873.5,-741.5 873.5,-760.5 964.5,-760.5 964.5,-741.5 873.5,-741.5"/>
<text text-anchor="middle" x="919" y="-748.5" font-family="Helvetica,sans-Serif" font-size="10.00">SoftwareButton</text>
</a>
</g>
</g>
<!-- Node12&#45;&gt;Node14 -->
<g id="edge13" class="edge"><title>Node12&#45;&gt;Node14</title>
<path fill="none" stroke="midnightblue" d="M786.287,-751C811.549,-751 845.944,-751 873.251,-751"/>
<polygon fill="midnightblue" stroke="midnightblue" points="786.068,-747.5 776.068,-751 786.068,-754.5 786.068,-747.5"/>
</g>
<!-- Node16 -->
<g id="node16" class="node"><title>Node16</title>
<g id="a_node16"><a xlink:href="class_hardware_led.html" target="_top" xlink:title="HardwareLed">
<polygon fill="white" stroke="black" points="879,-703.5 879,-722.5 959,-722.5 959,-703.5 879,-703.5"/>
<text text-anchor="middle" x="919" y="-710.5" font-family="Helvetica,sans-Serif" font-size="10.00">HardwareLed</text>
</a>
</g>
</g>
<!-- Node15&#45;&gt;Node16 -->
<g id="edge15" class="edge"><title>Node15&#45;&gt;Node16</title>
<path fill="none" stroke="midnightblue" d="M777.933,-666.828C797.853,-674.808 825.929,-685.676 851,-694 860.983,-697.315 871.919,-700.571 882.007,-703.425"/>
<polygon fill="midnightblue" stroke="midnightblue" points="779.173,-663.554 768.59,-663.057 776.553,-670.045 779.173,-663.554"/>
</g>
<!-- Node17 -->
<g id="node17" class="node"><title>Node17</title>
<g id="a_node17"><a xlink:href="class_hardware_led_pwm.html" target="_top" xlink:title="HardwareLedPwm">
<polygon fill="white" stroke="black" points="868,-665.5 868,-684.5 970,-684.5 970,-665.5 868,-665.5"/>
<text text-anchor="middle" x="919" y="-672.5" font-family="Helvetica,sans-Serif" font-size="10.00">HardwareLedPwm</text>
</a>
</g>
</g>
<!-- Node15&#45;&gt;Node17 -->
<g id="edge16" class="edge"><title>Node15&#45;&gt;Node17</title>
<path fill="none" stroke="midnightblue" d="M778.872,-659.124C802.944,-661.871 838.596,-665.939 867.782,-669.269"/>
<polygon fill="midnightblue" stroke="midnightblue" points="779.024,-655.618 768.691,-657.962 778.23,-662.573 779.024,-655.618"/>
</g>
<!-- Node18 -->
<g id="node18" class="node"><title>Node18</title>
<g id="a_node18"><a xlink:href="class_software_led.html" target="_top" xlink:title="SoftwareLed">
<polygon fill="white" stroke="black" points="881,-627.5 881,-646.5 957,-646.5 957,-627.5 881,-627.5"/>
<text text-anchor="middle" x="919" y="-634.5" font-family="Helvetica,sans-Serif" font-size="10.00">SoftwareLed</text>
</a>
</g>
</g>
<!-- Node15&#45;&gt;Node18 -->
<g id="edge17" class="edge"><title>Node15&#45;&gt;Node18</title>
<path fill="none" stroke="midnightblue" d="M778.9,-652.873C806.754,-649.695 850.09,-644.749 880.985,-641.224"/>
<polygon fill="midnightblue" stroke="midnightblue" points="778.23,-649.427 768.691,-654.038 779.024,-656.382 778.23,-649.427"/>
</g>
<!-- Node20 -->
<g id="node20" class="node"><title>Node20</title>
<g id="a_node20"><a xlink:href="class_hardware_pedal.html" target="_top" xlink:title="HardwarePedal">
<polygon fill="white" stroke="black" points="874.5,-589.5 874.5,-608.5 963.5,-608.5 963.5,-589.5 874.5,-589.5"/>
<text text-anchor="middle" x="919" y="-596.5" font-family="Helvetica,sans-Serif" font-size="10.00">HardwarePedal</text>
</a>
</g>
</g>
<!-- Node19&#45;&gt;Node20 -->
<g id="edge19" class="edge"><title>Node19&#45;&gt;Node20</title>
<path fill="none" stroke="midnightblue" d="M783.273,-583.626C809.099,-586.573 845.805,-590.762 874.383,-594.023"/>
<polygon fill="midnightblue" stroke="midnightblue" points="783.599,-580.14 773.267,-582.484 782.806,-587.095 783.599,-580.14"/>
</g>
<!-- Node21 -->
<g id="node21" class="node"><title>Node21</title>
<g id="a_node21"><a xlink:href="class_software_pedal.html" target="_top" xlink:title="SoftwarePedal">
<polygon fill="white" stroke="black" points="876.5,-551.5 876.5,-570.5 961.5,-570.5 961.5,-551.5 876.5,-551.5"/>
<text text-anchor="middle" x="919" y="-558.5" font-family="Helvetica,sans-Serif" font-size="10.00">SoftwarePedal</text>
</a>
</g>
</g>
<!-- Node19&#45;&gt;Node21 -->
<g id="edge20" class="edge"><title>Node19&#45;&gt;Node21</title>
<path fill="none" stroke="midnightblue" d="M783.494,-576.349C809.917,-573.334 847.619,-569.031 876.388,-565.749"/>
<polygon fill="midnightblue" stroke="midnightblue" points="782.806,-572.905 773.267,-577.516 783.599,-579.86 782.806,-572.905"/>
</g>
<!-- Node23 -->
<g id="node23" class="node"><title>Node23</title>
<g id="a_node23"><a xlink:href="class_internal_registry.html" target="_top" xlink:title="InternalRegistry">
<polygon fill="white" stroke="black" points="874,-513.5 874,-532.5 964,-532.5 964,-513.5 874,-513.5"/>
<text text-anchor="middle" x="919" y="-520.5" font-family="Helvetica,sans-Serif" font-size="10.00">InternalRegistry</text>
</a>
</g>
</g>
<!-- Node22&#45;&gt;Node23 -->
<g id="edge22" class="edge"><title>Node22&#45;&gt;Node23</title>
<path fill="none" stroke="midnightblue" d="M788.884,-537.734C814.099,-534.857 847.474,-531.048 873.975,-528.024"/>
<polygon fill="midnightblue" stroke="midnightblue" points="788.16,-534.294 778.622,-538.905 788.954,-541.249 788.16,-534.294"/>
</g>
<!-- Node25 -->
<g id="node25" class="node"><title>Node25</title>
<g id="a_node25"><a xlink:href="class_hardware_rpm_sensor.html" target="_top" xlink:title="HardwareRpmSensor">
<polygon fill="white" stroke="black" points="860,-475.5 860,-494.5 978,-494.5 978,-475.5 860,-475.5"/>
<text text-anchor="middle" x="919" y="-482.5" font-family="Helvetica,sans-Serif" font-size="10.00">HardwareRpmSensor</text>
</a>
</g>
</g>
<!-- Node24&#45;&gt;Node25 -->
<g id="edge24" class="edge"><title>Node24&#45;&gt;Node25</title>
<path fill="none" stroke="midnightblue" d="M797.63,-498.736C816.834,-496.544 839.353,-493.975 859.686,-491.654"/>
<polygon fill="midnightblue" stroke="midnightblue" points="797.167,-495.266 787.628,-499.877 797.96,-502.221 797.167,-495.266"/>
</g>
<!-- Node26 -->
<g id="node26" class="node"><title>Node26</title>
<g id="a_node26"><a xlink:href="class_software_rpm_sensor.html" target="_top" xlink:title="SoftwareRpmSensor">
<polygon fill="white" stroke="black" points="862,-437.5 862,-456.5 976,-456.5 976,-437.5 862,-437.5"/>
<text text-anchor="middle" x="919" y="-444.5" font-family="Helvetica,sans-Serif" font-size="10.00">SoftwareRpmSensor</text>
</a>
</g>
</g>
<!-- Node24&#45;&gt;Node26 -->
<g id="edge25" class="edge"><title>Node24&#45;&gt;Node26</title>
<path fill="none" stroke="midnightblue" d="M797.472,-491.408C803.432,-489.437 809.405,-487.288 815,-485 831.746,-478.152 834.205,-472.727 851,-466 859.867,-462.448 869.641,-459.28 878.919,-456.595"/>
<polygon fill="midnightblue" stroke="midnightblue" points="796.006,-488.2 787.524,-494.549 798.114,-494.876 796.006,-488.2"/>
</g>
<!-- Node29 -->
<g id="node29" class="node"><title>Node29</title>
<g id="a_node29"><a xlink:href="class_hardware_fan.html" target="_top" xlink:title="HardwareFan">
<polygon fill="white" stroke="black" points="542,-494.5 542,-513.5 621,-513.5 621,-494.5 542,-494.5"/>
<text text-anchor="middle" x="581.5" y="-501.5" font-family="Helvetica,sans-Serif" font-size="10.00">HardwareFan</text>
</a>
</g>
</g>
<!-- Node28&#45;&gt;Node29 -->
<g id="edge28" class="edge"><title>Node28&#45;&gt;Node29</title>
<path fill="none" stroke="midnightblue" d="M457.423,-504C480.99,-504 515.504,-504 541.99,-504"/>
<polygon fill="midnightblue" stroke="midnightblue" points="457.126,-500.5 447.126,-504 457.126,-507.5 457.126,-500.5"/>
</g>
<!-- Node31 -->
<g id="node31" class="node"><title>Node31</title>
<g id="a_node31"><a xlink:href="class_hardware_hv_enabled.html" target="_top" xlink:title="HardwareHvEnabled">
<polygon fill="white" stroke="black" points="525,-456.5 525,-475.5 638,-475.5 638,-456.5 525,-456.5"/>
<text text-anchor="middle" x="581.5" y="-463.5" font-family="Helvetica,sans-Serif" font-size="10.00">HardwareHvEnabled</text>
</a>
</g>
</g>
<!-- Node30&#45;&gt;Node31 -->
<g id="edge30" class="edge"><title>Node30&#45;&gt;Node31</title>
<path fill="none" stroke="midnightblue" d="M474.979,-466C490.616,-466 508.388,-466 524.829,-466"/>
<polygon fill="midnightblue" stroke="midnightblue" points="474.537,-462.5 464.537,-466 474.537,-469.5 474.537,-462.5"/>
</g>
<!-- Node33 -->
<g id="node33" class="node"><title>Node33</title>
<g id="a_node33"><a xlink:href="class_hardware_motor_controller.html" target="_top" xlink:title="HardwareMotorController">
<polygon fill="white" stroke="black" points="513,-418.5 513,-437.5 650,-437.5 650,-418.5 513,-418.5"/>
<text text-anchor="middle" x="581.5" y="-425.5" font-family="Helvetica,sans-Serif" font-size="10.00">HardwareMotorController</text>
</a>
</g>
</g>
<!-- Node32&#45;&gt;Node33 -->
<g id="edge32" class="edge"><title>Node32&#45;&gt;Node33</title>
<path fill="none" stroke="midnightblue" d="M486.573,-428C495.149,-428 504.078,-428 512.871,-428"/>
<polygon fill="midnightblue" stroke="midnightblue" points="486.32,-424.5 476.32,-428 486.32,-431.5 486.32,-424.5"/>
</g>
<!-- Node35 -->
<g id="node35" class="node"><title>Node35</title>
<g id="a_node35"><a xlink:href="class_hardware_pump.html" target="_top" xlink:title="HardwarePump">
<polygon fill="white" stroke="black" points="536.5,-380.5 536.5,-399.5 626.5,-399.5 626.5,-380.5 536.5,-380.5"/>
<text text-anchor="middle" x="581.5" y="-387.5" font-family="Helvetica,sans-Serif" font-size="10.00">HardwarePump</text>
</a>
</g>
</g>
<!-- Node34&#45;&gt;Node35 -->
<g id="edge34" class="edge"><title>Node34&#45;&gt;Node35</title>
<path fill="none" stroke="midnightblue" d="M463.493,-390C484.887,-390 513.012,-390 536.325,-390"/>
<polygon fill="midnightblue" stroke="midnightblue" points="463.282,-386.5 453.282,-390 463.282,-393.5 463.282,-386.5"/>
</g>
<!-- Node37 -->
<g id="node37" class="node"><title>Node37</title>
<g id="a_node37"><a xlink:href="class_i_channel.html" target="_top" xlink:title="IChannel">
<polygon fill="white" stroke="black" points="552.5,-342.5 552.5,-361.5 610.5,-361.5 610.5,-342.5 552.5,-342.5"/>
<text text-anchor="middle" x="581.5" y="-349.5" font-family="Helvetica,sans-Serif" font-size="10.00">IChannel</text>
</a>
</g>
</g>
<!-- Node36&#45;&gt;Node37 -->
<g id="edge36" class="edge"><title>Node36&#45;&gt;Node37</title>
<path fill="none" stroke="midnightblue" d="M444.37,-179.568C475.201,-218.621 548.598,-311.591 572.691,-342.108"/>
<polygon fill="midnightblue" stroke="midnightblue" points="447.088,-177.363 438.145,-171.683 441.594,-181.701 447.088,-177.363"/>
</g>
<!-- Node42 -->
<g id="node42" class="node"><title>Node42</title>
<g id="a_node42"><a xlink:href="class_i_program.html" target="_top" xlink:title="IProgram">
<polygon fill="white" stroke="black" points="551.5,-190.5 551.5,-209.5 611.5,-209.5 611.5,-190.5 551.5,-190.5"/>
<text text-anchor="middle" x="581.5" y="-197.5" font-family="Helvetica,sans-Serif" font-size="10.00">IProgram</text>
</a>
</g>
</g>
<!-- Node36&#45;&gt;Node42 -->
<g id="edge41" class="edge"><title>Node36&#45;&gt;Node42</title>
<path fill="none" stroke="midnightblue" d="M467.504,-171.374C493.415,-177.938 527.546,-186.585 551.491,-192.651"/>
<polygon fill="midnightblue" stroke="midnightblue" points="468.217,-167.945 457.664,-168.882 466.498,-174.73 468.217,-167.945"/>
</g>
<!-- Node48 -->
<g id="node48" class="node"><title>Node48</title>
<g id="a_node48"><a xlink:href="class_i_service.html" target="_top" xlink:title="IService">
<polygon fill="white" stroke="black" points="554.5,-152.5 554.5,-171.5 608.5,-171.5 608.5,-152.5 554.5,-152.5"/>
<text text-anchor="middle" x="581.5" y="-159.5" font-family="Helvetica,sans-Serif" font-size="10.00">IService</text>
</a>
</g>
</g>
<!-- Node36&#45;&gt;Node48 -->
<g id="edge47" class="edge"><title>Node36&#45;&gt;Node48</title>
<path fill="none" stroke="midnightblue" d="M467.866,-162C494.763,-162 530.376,-162 554.292,-162"/>
<polygon fill="midnightblue" stroke="midnightblue" points="467.664,-158.5 457.664,-162 467.664,-165.5 467.664,-158.5"/>
</g>
<!-- Node52 -->
<g id="node52" class="node"><title>Node52</title>
<g id="a_node52"><a xlink:href="class_runable_list.html" target="_top" xlink:title="RunableList">
<polygon fill="white" stroke="black" points="546,-114.5 546,-133.5 617,-133.5 617,-114.5 546,-114.5"/>
<text text-anchor="middle" x="581.5" y="-121.5" font-family="Helvetica,sans-Serif" font-size="10.00">RunableList</text>
</a>
</g>
</g>
<!-- Node36&#45;&gt;Node52 -->
<g id="edge51" class="edge"><title>Node36&#45;&gt;Node52</title>
<path fill="none" stroke="midnightblue" d="M467.456,-152.638C491.41,-146.569 522.406,-138.717 545.882,-132.77"/>
<polygon fill="midnightblue" stroke="midnightblue" points="466.498,-149.27 457.664,-155.118 468.217,-156.055 466.498,-149.27"/>
</g>
<!-- Node53 -->
<g id="node53" class="node"><title>Node53</title>
<g id="a_node53"><a xlink:href="class_runable_scheduler.html" target="_top" xlink:title="RunableScheduler">
<polygon fill="white" stroke="black" points="530.5,-76.5 530.5,-95.5 632.5,-95.5 632.5,-76.5 530.5,-76.5"/>
<text text-anchor="middle" x="581.5" y="-83.5" font-family="Helvetica,sans-Serif" font-size="10.00">RunableScheduler</text>
</a>
</g>
</g>
<!-- Node36&#45;&gt;Node53 -->
<g id="edge52" class="edge"><title>Node36&#45;&gt;Node53</title>
<path fill="none" stroke="midnightblue" d="M449.823,-145.89C465.864,-133.22 489.737,-115.937 513,-105 520.932,-101.271 529.742,-98.1359 538.308,-95.5566"/>
<polygon fill="midnightblue" stroke="midnightblue" points="447.357,-143.382 441.771,-152.385 451.752,-148.831 447.357,-143.382"/>
</g>
<!-- Node54 -->
<g id="node54" class="node"><title>Node54</title>
<g id="a_node54"><a xlink:href="class_sync.html" target="_top" xlink:title="Sync">
<polygon fill="white" stroke="black" points="561.5,-38.5 561.5,-57.5 601.5,-57.5 601.5,-38.5 561.5,-38.5"/>
<text text-anchor="middle" x="581.5" y="-45.5" font-family="Helvetica,sans-Serif" font-size="10.00">Sync</text>
</a>
</g>
</g>
<!-- Node36&#45;&gt;Node54 -->
<g id="edge53" class="edge"><title>Node36&#45;&gt;Node54</title>
<path fill="none" stroke="midnightblue" d="M441.591,-143.72C455.589,-122.196 481.662,-86.8681 513,-67 527.703,-57.6783 547.042,-52.8422 561.25,-50.389"/>
<polygon fill="midnightblue" stroke="midnightblue" points="438.57,-141.949 436.192,-152.274 444.49,-145.685 438.57,-141.949"/>
</g>
<!-- Node38 -->
<g id="node38" class="node"><title>Node38</title>
<g id="a_node38"><a xlink:href="class_c_can.html" target="_top" xlink:title="CCan">
<polygon fill="white" stroke="black" points="729.5,-418.5 729.5,-437.5 771.5,-437.5 771.5,-418.5 729.5,-418.5"/>
<text text-anchor="middle" x="750.5" y="-425.5" font-family="Helvetica,sans-Serif" font-size="10.00">CCan</text>
</a>
</g>
</g>
<!-- Node37&#45;&gt;Node38 -->
<g id="edge37" class="edge"><title>Node37&#45;&gt;Node38</title>
<path fill="none" stroke="midnightblue" d="M620.585,-358.896C630.603,-361.712 641.09,-365.618 650,-371 669.913,-383.029 666.186,-396.809 686,-409 699.231,-417.141 716.166,-421.979 729.219,-424.735"/>
<polygon fill="midnightblue" stroke="midnightblue" points="621.352,-355.48 610.8,-356.429 619.641,-362.267 621.352,-355.48"/>
</g>
<!-- Node39 -->
<g id="node39" class="node"><title>Node39</title>
<g id="a_node39"><a xlink:href="class_test_channel.html" target="_top" xlink:title="TestChannel">
<polygon fill="white" stroke="black" points="713.5,-380.5 713.5,-399.5 787.5,-399.5 787.5,-380.5 713.5,-380.5"/>
<text text-anchor="middle" x="750.5" y="-387.5" font-family="Helvetica,sans-Serif" font-size="10.00">TestChannel</text>
</a>
</g>
</g>
<!-- Node37&#45;&gt;Node39 -->
<g id="edge38" class="edge"><title>Node37&#45;&gt;Node39</title>
<path fill="none" stroke="midnightblue" d="M620.624,-360.675C648.499,-367.018 686.064,-375.565 713.443,-381.796"/>
<polygon fill="midnightblue" stroke="midnightblue" points="621.357,-357.252 610.829,-358.446 619.803,-364.078 621.357,-357.252"/>
</g>
<!-- Node40 -->
<g id="node40" class="node"><title>Node40</title>
<g id="a_node40"><a xlink:href="class_test_destination_channel.html" target="_top" xlink:title="TestDestinationChannel">
<polygon fill="white" stroke="black" points="686,-342.5 686,-361.5 815,-361.5 815,-342.5 686,-342.5"/>
<text text-anchor="middle" x="750.5" y="-349.5" font-family="Helvetica,sans-Serif" font-size="10.00">TestDestinationChannel</text>
</a>
</g>
</g>
<!-- Node37&#45;&gt;Node40 -->
<g id="edge39" class="edge"><title>Node37&#45;&gt;Node40</title>
<path fill="none" stroke="midnightblue" d="M621.02,-352C640.281,-352 664.093,-352 685.964,-352"/>
<polygon fill="midnightblue" stroke="midnightblue" points="620.829,-348.5 610.829,-352 620.829,-355.5 620.829,-348.5"/>
</g>
<!-- Node41 -->
<g id="node41" class="node"><title>Node41</title>
<g id="a_node41"><a xlink:href="class_test_source_channel.html" target="_top" xlink:title="TestSourceChannel">
<polygon fill="white" stroke="black" points="696.5,-304.5 696.5,-323.5 804.5,-323.5 804.5,-304.5 696.5,-304.5"/>
<text text-anchor="middle" x="750.5" y="-311.5" font-family="Helvetica,sans-Serif" font-size="10.00">TestSourceChannel</text>
</a>
</g>
</g>
<!-- Node37&#45;&gt;Node41 -->
<g id="edge40" class="edge"><title>Node37&#45;&gt;Node41</title>
<path fill="none" stroke="midnightblue" d="M620.67,-343.315C646.583,-337.418 680.855,-329.62 707.536,-323.549"/>
<polygon fill="midnightblue" stroke="midnightblue" points="619.803,-339.922 610.829,-345.554 621.357,-346.748 619.803,-339.922"/>
</g>
<!-- Node43 -->
<g id="node43" class="node"><title>Node43</title>
<g id="a_node43"><a xlink:href="class_p_brake_light.html" target="_top" xlink:title="PBrakeLight">
<polygon fill="white" stroke="black" points="713.5,-266.5 713.5,-285.5 787.5,-285.5 787.5,-266.5 713.5,-266.5"/>
<text text-anchor="middle" x="750.5" y="-273.5" font-family="Helvetica,sans-Serif" font-size="10.00">PBrakeLight</text>
</a>
</g>
</g>
<!-- Node42&#45;&gt;Node43 -->
<g id="edge42" class="edge"><title>Node42&#45;&gt;Node43</title>
<path fill="none" stroke="midnightblue" d="M606.08,-214.883C626.603,-227.368 657.455,-245.03 686,-257 694.702,-260.649 704.344,-263.91 713.432,-266.657"/>
<polygon fill="midnightblue" stroke="midnightblue" points="607.773,-211.815 597.423,-209.549 604.101,-217.775 607.773,-211.815"/>
</g>
<!-- Node44 -->
<g id="node44" class="node"><title>Node44</title>
<g id="a_node44"><a xlink:href="class_p_cockpit_indicator.html" target="_top" xlink:title="PCockpitIndicator">
<polygon fill="white" stroke="black" points="701,-228.5 701,-247.5 800,-247.5 800,-228.5 701,-228.5"/>
<text text-anchor="middle" x="750.5" y="-235.5" font-family="Helvetica,sans-Serif" font-size="10.00">PCockpitIndicator</text>
</a>
</g>
</g>
<!-- Node42&#45;&gt;Node44 -->
<g id="edge43" class="edge"><title>Node42&#45;&gt;Node44</title>
<path fill="none" stroke="midnightblue" d="M621.418,-208.856C647.262,-214.736 681.167,-222.451 707.601,-228.466"/>
<polygon fill="midnightblue" stroke="midnightblue" points="622.117,-205.425 611.589,-206.619 620.563,-212.251 622.117,-205.425"/>
</g>
<!-- Node45 -->
<g id="node45" class="node"><title>Node45</title>
<g id="a_node45"><a xlink:href="class_p_cooling.html" target="_top" xlink:title="PCooling">
<polygon fill="white" stroke="black" points="721.5,-190.5 721.5,-209.5 779.5,-209.5 779.5,-190.5 721.5,-190.5"/>
<text text-anchor="middle" x="750.5" y="-197.5" font-family="Helvetica,sans-Serif" font-size="10.00">PCooling</text>
</a>
</g>
</g>
<!-- Node42&#45;&gt;Node45 -->
<g id="edge44" class="edge"><title>Node42&#45;&gt;Node45</title>
<path fill="none" stroke="midnightblue" d="M621.89,-200C652.433,-200 694.021,-200 721.301,-200"/>
<polygon fill="midnightblue" stroke="midnightblue" points="621.589,-196.5 611.589,-200 621.589,-203.5 621.589,-196.5"/>
</g>
<!-- Node46 -->
<g id="node46" class="node"><title>Node46</title>
<g id="a_node46"><a xlink:href="class_p_logger.html" target="_top" xlink:title="PLogger">
<polygon fill="white" stroke="black" points="722.5,-152.5 722.5,-171.5 778.5,-171.5 778.5,-152.5 722.5,-152.5"/>
<text text-anchor="middle" x="750.5" y="-159.5" font-family="Helvetica,sans-Serif" font-size="10.00">PLogger</text>
</a>
</g>
</g>
<!-- Node42&#45;&gt;Node46 -->
<g id="edge45" class="edge"><title>Node42&#45;&gt;Node46</title>
<path fill="none" stroke="midnightblue" d="M621.617,-191.099C652.597,-184.05 695.07,-174.385 722.402,-168.166"/>
<polygon fill="midnightblue" stroke="midnightblue" points="620.563,-187.749 611.589,-193.381 622.117,-194.575 620.563,-187.749"/>
</g>
<!-- Node47 -->
<g id="node47" class="node"><title>Node47</title>
<g id="a_node47"><a xlink:href="class_p_motor_controller.html" target="_top" xlink:title="PMotorController">
<polygon fill="white" stroke="black" points="702,-114.5 702,-133.5 799,-133.5 799,-114.5 702,-114.5"/>
<text text-anchor="middle" x="750.5" y="-121.5" font-family="Helvetica,sans-Serif" font-size="10.00">PMotorController</text>
</a>
</g>
</g>
<!-- Node42&#45;&gt;Node47 -->
<g id="edge46" class="edge"><title>Node42&#45;&gt;Node47</title>
<path fill="none" stroke="midnightblue" d="M621.683,-192.792C631.365,-190.001 641.415,-186.186 650,-181 669.913,-168.971 666.186,-155.191 686,-143 692.272,-139.141 699.377,-136.024 706.507,-133.519"/>
<polygon fill="midnightblue" stroke="midnightblue" points="620.609,-189.454 611.802,-195.343 622.359,-196.232 620.609,-189.454"/>
</g>
<!-- Node49 -->
<g id="node49" class="node"><title>Node49</title>
<g id="a_node49"><a xlink:href="class_s_car.html" target="_top" xlink:title="SCar">
<polygon fill="white" stroke="black" points="730.5,-76.5 730.5,-95.5 770.5,-95.5 770.5,-76.5 730.5,-76.5"/>
<text text-anchor="middle" x="750.5" y="-83.5" font-family="Helvetica,sans-Serif" font-size="10.00">SCar</text>
</a>
</g>
</g>
<!-- Node48&#45;&gt;Node49 -->
<g id="edge48" class="edge"><title>Node48&#45;&gt;Node49</title>
<path fill="none" stroke="midnightblue" d="M618.68,-155.628C629.263,-152.779 640.524,-148.724 650,-143 669.913,-130.971 666.186,-117.191 686,-105 699.623,-96.6181 717.173,-91.7369 730.369,-89.026"/>
<polygon fill="midnightblue" stroke="midnightblue" points="617.723,-152.259 608.823,-158.006 619.364,-159.064 617.723,-152.259"/>
</g>
<!-- Node51 -->
<g id="node51" class="node"><title>Node51</title>
<g id="a_node51"><a xlink:href="class_s_speed.html" target="_top" xlink:title="SSpeed">
<polygon fill="white" stroke="black" points="723.5,-38.5 723.5,-57.5 777.5,-57.5 777.5,-38.5 723.5,-38.5"/>
<text text-anchor="middle" x="750.5" y="-45.5" font-family="Helvetica,sans-Serif" font-size="10.00">SSpeed</text>
</a>
</g>
</g>
<!-- Node48&#45;&gt;Node51 -->
<g id="edge50" class="edge"><title>Node48&#45;&gt;Node51</title>
<path fill="none" stroke="midnightblue" d="M618.551,-157.758C629.607,-154.998 641.171,-150.458 650,-143 678.553,-118.882 657.645,-91.3507 686,-67 696.388,-58.0784 710.84,-53.3456 723.332,-50.8351"/>
<polygon fill="midnightblue" stroke="midnightblue" points="617.709,-154.358 608.633,-159.825 619.137,-161.211 617.709,-154.358"/>
</g>
<!-- Node50 -->
<g id="node50" class="node"><title>Node50</title>
<g id="a_node50"><a xlink:href="class_dummy_s_car.html" target="_top" xlink:title="DummySCar">
<polygon fill="white" stroke="black" points="880,-76.5 880,-95.5 958,-95.5 958,-76.5 880,-76.5"/>
<text text-anchor="middle" x="919" y="-83.5" font-family="Helvetica,sans-Serif" font-size="10.00">DummySCar</text>
</a>
</g>
</g>
<!-- Node49&#45;&gt;Node50 -->
<g id="edge49" class="edge"><title>Node49&#45;&gt;Node50</title>
<path fill="none" stroke="midnightblue" d="M780.791,-86C808.374,-86 849.842,-86 879.968,-86"/>
<polygon fill="midnightblue" stroke="midnightblue" points="780.6,-82.5001 770.6,-86 780.6,-89.5001 780.6,-82.5001"/>
</g>
<!-- Node55 -->
<g id="node55" class="node"><title>Node55</title>
<g id="a_node55"><a xlink:href="class_syntetic_sync.html" target="_top" xlink:title="SynteticSync">
<polygon fill="white" stroke="black" points="711,-0.5 711,-19.5 790,-19.5 790,-0.5 711,-0.5"/>
<text text-anchor="middle" x="750.5" y="-7.5" font-family="Helvetica,sans-Serif" font-size="10.00">SynteticSync</text>
</a>
</g>
</g>
<!-- Node54&#45;&gt;Node55 -->
<g id="edge54" class="edge"><title>Node54&#45;&gt;Node55</title>
<path fill="none" stroke="midnightblue" d="M611.444,-41.4139C638.907,-35.1649 680.372,-25.7297 710.692,-18.8307"/>
<polygon fill="midnightblue" stroke="midnightblue" points="610.631,-38.0093 601.657,-43.6409 612.184,-44.8349 610.631,-38.0093"/>
</g>
<!-- Node57 -->
<g id="node57" class="node"><title>Node57</title>
<g id="a_node57"><a xlink:href="class_hardware_s_d_card.html" target="_top" xlink:title="HardwareSDCard">
<polygon fill="white" stroke="black" points="532,-0.5 532,-19.5 631,-19.5 631,-0.5 532,-0.5"/>
<text text-anchor="middle" x="581.5" y="-7.5" font-family="Helvetica,sans-Serif" font-size="10.00">HardwareSDCard</text>
</a>
</g>
</g>
<!-- Node56&#45;&gt;Node57 -->
<g id="edge56" class="edge"><title>Node56&#45;&gt;Node57</title>
<path fill="none" stroke="midnightblue" d="M458.34,-52.8461C474.119,-45.1636 494.374,-35.8625 513,-29 522.481,-25.5066 532.91,-22.2812 542.675,-19.5173"/>
<polygon fill="midnightblue" stroke="midnightblue" points="456.566,-49.8187 449.149,-57.384 459.665,-56.0954 456.566,-49.8187"/>
</g>
</g>
</svg>
