<?xml version="1.0" encoding="UTF-8" standalone="no"?>
<!DOCTYPE svg PUBLIC "-//W3C//DTD SVG 1.1//EN"
 "http://www.w3.org/Graphics/SVG/1.1/DTD/svg11.dtd">
<!-- Generated by graphviz version 2.38.0 (20140413.2041)
 -->
<!-- Title: Graphical Class Hierarchy Pages: 1 -->
<svg width="335pt" height="61pt"
 viewBox="0.00 0.00 335.00 61.00" xmlns="http://www.w3.org/2000/svg" xmlns:xlink="http://www.w3.org/1999/xlink">
<g id="graph0" class="graph" transform="scale(1 1) rotate(0) translate(4 57)">
<title>Graphical Class Hierarchy</title>
<polygon fill="white" stroke="none" points="-4,4 -4,-57 331,-57 331,4 -4,4"/>
<!-- Node1 -->
<g id="node1" class="node"><title>Node1</title>
<g id="a_node1"><a xlink:href="class_non_copyable.html" target="_top" xlink:title="NonCopyable\&lt; vector\l\&lt; SchedulerElement\&lt;\l ScheduledCallable \&gt;,\l unsigned int \&gt; \&gt;">
<polygon fill="white" stroke="black" points="0,-0.5 0,-52.5 124,-52.5 124,-0.5 0,-0.5"/>
<text text-anchor="start" x="8" y="-40.5" font-family="Helvetica,sans-Serif" font-size="10.00">NonCopyable&lt; vector</text>
<text text-anchor="start" x="8" y="-29.5" font-family="Helvetica,sans-Serif" font-size="10.00">&lt; SchedulerElement&lt;</text>
<text text-anchor="start" x="8" y="-18.5" font-family="Helvetica,sans-Serif" font-size="10.00"> ScheduledCallable &gt;,</text>
<text text-anchor="middle" x="62" y="-7.5" font-family="Helvetica,sans-Serif" font-size="10.00"> unsigned int &gt; &gt;</text>
</a>
</g>
</g>
<!-- Node2 -->
<g id="node2" class="node"><title>Node2</title>
<g id="a_node2"><a xlink:href="classstd_1_1vector.html" target="_top" xlink:title="std::vector\&lt; SchedulerElement\l\&lt; ScheduledCallable \&gt; \&gt;">
<polygon fill="white" stroke="black" points="160,-11.5 160,-41.5 327,-41.5 327,-11.5 160,-11.5"/>
<text text-anchor="start" x="168" y="-29.5" font-family="Helvetica,sans-Serif" font-size="10.00">std::vector&lt; SchedulerElement</text>
<text text-anchor="middle" x="243.5" y="-18.5" font-family="Helvetica,sans-Serif" font-size="10.00">&lt; ScheduledCallable &gt; &gt;</text>
</a>
</g>
</g>
<!-- Node1&#45;&gt;Node2 -->
<g id="edge1" class="edge"><title>Node1&#45;&gt;Node2</title>
<path fill="none" stroke="#8b1a1a" d="M134.135,-26.5C142.537,-26.5 151.166,-26.5 159.711,-26.5"/>
<polygon fill="#8b1a1a" stroke="#8b1a1a" points="134.021,-23.0001 124.021,-26.5 134.021,-30.0001 134.021,-23.0001"/>
</g>
</g>
</svg>
