<?xml version="1.0" encoding="UTF-8" standalone="no"?>
<!DOCTYPE svg PUBLIC "-//W3C//DTD SVG 1.1//EN"
 "http://www.w3.org/Graphics/SVG/1.1/DTD/svg11.dtd">
<!-- Generated by graphviz version 2.38.0 (20140413.2041)
 -->
<!-- Title: Graphical Class Hierarchy Pages: 1 -->
<svg width="154pt" height="180pt"
 viewBox="0.00 0.00 154.00 180.00" xmlns="http://www.w3.org/2000/svg" xmlns:xlink="http://www.w3.org/1999/xlink">
<g id="graph0" class="graph" transform="scale(1 1) rotate(0) translate(4 176)">
<title>Graphical Class Hierarchy</title>
<polygon fill="white" stroke="none" points="-4,4 -4,-176 150,-176 150,4 -4,4"/>
<!-- Node1 -->
<g id="node1" class="node"><title>Node1</title>
<g id="a_node1"><a xlink:href="class_carpi.html" target="_top" xlink:title="Carpi">
<polygon fill="white" stroke="black" points="0,-76.5 0,-95.5 41,-95.5 41,-76.5 0,-76.5"/>
<text text-anchor="middle" x="20.5" y="-83.5" font-family="Helvetica,sans-Serif" font-size="10.00">Carpi</text>
</a>
</g>
</g>
<!-- Node2 -->
<g id="node2" class="node"><title>Node2</title>
<g id="a_node2"><a xlink:href="class_dashboard.html" target="_top" xlink:title="Dashboard">
<polygon fill="white" stroke="black" points="77,-152.5 77,-171.5 146,-171.5 146,-152.5 77,-152.5"/>
<text text-anchor="middle" x="111.5" y="-159.5" font-family="Helvetica,sans-Serif" font-size="10.00">Dashboard</text>
</a>
</g>
</g>
<!-- Node1&#45;&gt;Node2 -->
<g id="edge1" class="edge"><title>Node1&#45;&gt;Node2</title>
<path fill="none" stroke="midnightblue" d="M35.987,-103.291C46.5833,-115.303 61.7199,-131.206 77,-143 81.4462,-146.432 86.5813,-149.657 91.4747,-152.442"/>
<polygon fill="midnightblue" stroke="midnightblue" points="38.6143,-100.978 29.4306,-95.6951 33.3153,-105.552 38.6143,-100.978"/>
</g>
<!-- Node3 -->
<g id="node3" class="node"><title>Node3</title>
<g id="a_node3"><a xlink:href="class_display.html" target="_top" xlink:title="Display">
<polygon fill="white" stroke="black" points="86,-114.5 86,-133.5 137,-133.5 137,-114.5 86,-114.5"/>
<text text-anchor="middle" x="111.5" y="-121.5" font-family="Helvetica,sans-Serif" font-size="10.00">Display</text>
</a>
</g>
</g>
<!-- Node1&#45;&gt;Node3 -->
<g id="edge2" class="edge"><title>Node1&#45;&gt;Node3</title>
<path fill="none" stroke="midnightblue" d="M50.5435,-98.4006C62.7017,-103.592 76.6177,-109.533 87.9804,-114.385"/>
<polygon fill="midnightblue" stroke="midnightblue" points="51.8232,-95.1413 41.252,-94.4334 49.0744,-101.579 51.8232,-95.1413"/>
</g>
<!-- Node4 -->
<g id="node4" class="node"><title>Node4</title>
<g id="a_node4"><a xlink:href="class_lo_ra.html" target="_top" xlink:title="LoRa">
<polygon fill="white" stroke="black" points="91.5,-76.5 91.5,-95.5 131.5,-95.5 131.5,-76.5 91.5,-76.5"/>
<text text-anchor="middle" x="111.5" y="-83.5" font-family="Helvetica,sans-Serif" font-size="10.00">LoRa</text>
</a>
</g>
</g>
<!-- Node1&#45;&gt;Node4 -->
<g id="edge3" class="edge"><title>Node1&#45;&gt;Node4</title>
<path fill="none" stroke="midnightblue" d="M51.3404,-86C64.5699,-86 79.7455,-86 91.4141,-86"/>
<polygon fill="midnightblue" stroke="midnightblue" points="51.252,-82.5001 41.252,-86 51.2519,-89.5001 51.252,-82.5001"/>
</g>
<!-- Node5 -->
<g id="node5" class="node"><title>Node5</title>
<g id="a_node5"><a xlink:href="class_master.html" target="_top" xlink:title="Master">
<polygon fill="white" stroke="black" points="86.5,-38.5 86.5,-57.5 136.5,-57.5 136.5,-38.5 86.5,-38.5"/>
<text text-anchor="middle" x="111.5" y="-45.5" font-family="Helvetica,sans-Serif" font-size="10.00">Master</text>
</a>
</g>
</g>
<!-- Node1&#45;&gt;Node5 -->
<g id="edge4" class="edge"><title>Node1&#45;&gt;Node5</title>
<path fill="none" stroke="midnightblue" d="M50.5435,-73.5994C62.7017,-68.4083 76.6177,-62.4666 87.9804,-57.6151"/>
<polygon fill="midnightblue" stroke="midnightblue" points="49.0744,-70.4209 41.252,-77.5666 51.8232,-76.8587 49.0744,-70.4209"/>
</g>
<!-- Node6 -->
<g id="node6" class="node"><title>Node6</title>
<g id="a_node6"><a xlink:href="class_pedal.html" target="_top" xlink:title="Pedal">
<polygon fill="white" stroke="black" points="90,-0.5 90,-19.5 133,-19.5 133,-0.5 90,-0.5"/>
<text text-anchor="middle" x="111.5" y="-7.5" font-family="Helvetica,sans-Serif" font-size="10.00">Pedal</text>
</a>
</g>
</g>
<!-- Node1&#45;&gt;Node6 -->
<g id="edge5" class="edge"><title>Node1&#45;&gt;Node6</title>
<path fill="none" stroke="midnightblue" d="M35.987,-68.7092C46.5833,-56.6974 61.7199,-40.7937 77,-29 81.4462,-25.5683 86.5813,-22.343 91.4747,-19.5581"/>
<polygon fill="midnightblue" stroke="midnightblue" points="33.3153,-66.4479 29.4306,-76.3049 38.6143,-71.0219 33.3153,-66.4479"/>
</g>
</g>
</svg>
