<?xml version="1.0" encoding="UTF-8" standalone="no"?>
<!DOCTYPE svg PUBLIC "-//W3C//DTD SVG 1.1//EN"
 "http://www.w3.org/Graphics/SVG/1.1/DTD/svg11.dtd">
<!-- Generated by graphviz version 2.38.0 (20140413.2041)
 -->
<!-- Title: Graphical Class Hierarchy Pages: 1 -->
<svg width="295pt" height="50pt"
 viewBox="0.00 0.00 295.00 50.00" xmlns="http://www.w3.org/2000/svg" xmlns:xlink="http://www.w3.org/1999/xlink">
<g id="graph0" class="graph" transform="scale(1 1) rotate(0) translate(4 46)">
<title>Graphical Class Hierarchy</title>
<polygon fill="white" stroke="none" points="-4,4 -4,-46 291,-46 291,4 -4,4"/>
<!-- Node1 -->
<g id="node1" class="node"><title>Node1</title>
<g id="a_node1"><a xlink:href="class_non_copyable.html" target="_top" xlink:title="NonCopyable\&lt; vector\l\&lt; Channel, unsigned\l int \&gt; \&gt;">
<polygon fill="white" stroke="black" points="0,-0.5 0,-41.5 122,-41.5 122,-0.5 0,-0.5"/>
<text text-anchor="start" x="8" y="-29.5" font-family="Helvetica,sans-Serif" font-size="10.00">NonCopyable&lt; vector</text>
<text text-anchor="start" x="8" y="-18.5" font-family="Helvetica,sans-Serif" font-size="10.00">&lt; Channel, unsigned</text>
<text text-anchor="middle" x="61" y="-7.5" font-family="Helvetica,sans-Serif" font-size="10.00"> int &gt; &gt;</text>
</a>
</g>
</g>
<!-- Node2 -->
<g id="node2" class="node"><title>Node2</title>
<g id="a_node2"><a xlink:href="classstd_1_1vector.html" target="_top" xlink:title="std::vector\&lt; Channel \&gt;">
<polygon fill="white" stroke="black" points="158,-11.5 158,-30.5 287,-30.5 287,-11.5 158,-11.5"/>
<text text-anchor="middle" x="222.5" y="-18.5" font-family="Helvetica,sans-Serif" font-size="10.00">std::vector&lt; Channel &gt;</text>
</a>
</g>
</g>
<!-- Node1&#45;&gt;Node2 -->
<g id="edge1" class="edge"><title>Node1&#45;&gt;Node2</title>
<path fill="none" stroke="#8b1a1a" d="M132.52,-21C140.977,-21 149.574,-21 157.924,-21"/>
<polygon fill="#8b1a1a" stroke="#8b1a1a" points="132.3,-17.5001 122.3,-21 132.3,-24.5001 132.3,-17.5001"/>
</g>
</g>
</svg>
