<?xml version="1.0" encoding="UTF-8" standalone="no"?>
<!DOCTYPE svg PUBLIC "-//W3C//DTD SVG 1.1//EN"
 "http://www.w3.org/Graphics/SVG/1.1/DTD/svg11.dtd">
<!-- Generated by graphviz version 2.38.0 (20140413.2041)
 -->
<!-- Title: Graphical Class Hierarchy Pages: 1 -->
<svg width="467pt" height="28pt"
 viewBox="0.00 0.00 467.00 28.00" xmlns="http://www.w3.org/2000/svg" xmlns:xlink="http://www.w3.org/1999/xlink">
<g id="graph0" class="graph" transform="scale(1 1) rotate(0) translate(4 24)">
<title>Graphical Class Hierarchy</title>
<polygon fill="white" stroke="none" points="-4,4 -4,-24 463,-24 463,4 -4,4"/>
<!-- Node1 -->
<g id="node1" class="node"><title>Node1</title>
<g id="a_node1"><a xlink:href="class_non_copyable.html" target="_top" xlink:title="NonCopyable\&lt; IAnalogSensor \&gt;">
<polygon fill="white" stroke="black" points="0,-0.5 0,-19.5 172,-19.5 172,-0.5 0,-0.5"/>
<text text-anchor="middle" x="86" y="-7.5" font-family="Helvetica,sans-Serif" font-size="10.00">NonCopyable&lt; IAnalogSensor &gt;</text>
</a>
</g>
</g>
<!-- Node2 -->
<g id="node2" class="node"><title>Node2</title>
<g id="a_node2"><a xlink:href="class_i_analog_sensor.html" target="_top" xlink:title="IAnalogSensor">
<polygon fill="white" stroke="black" points="208,-0.5 208,-19.5 294,-19.5 294,-0.5 208,-0.5"/>
<text text-anchor="middle" x="251" y="-7.5" font-family="Helvetica,sans-Serif" font-size="10.00">IAnalogSensor</text>
</a>
</g>
</g>
<!-- Node1&#45;&gt;Node2 -->
<g id="edge1" class="edge"><title>Node1&#45;&gt;Node2</title>
<path fill="none" stroke="#8b1a1a" d="M182.38,-10C191.226,-10 199.848,-10 207.811,-10"/>
<polygon fill="#8b1a1a" stroke="#8b1a1a" points="182.319,-6.5001 172.319,-10 182.319,-13.5001 182.319,-6.5001"/>
</g>
<!-- Node3 -->
<g id="node3" class="node"><title>Node3</title>
<g id="a_node3"><a xlink:href="class_hardware_analog_sensor.html" target="_top" xlink:title="HardwareAnalogSensor">
<polygon fill="white" stroke="black" points="330,-0.5 330,-19.5 459,-19.5 459,-0.5 330,-0.5"/>
<text text-anchor="middle" x="394.5" y="-7.5" font-family="Helvetica,sans-Serif" font-size="10.00">HardwareAnalogSensor</text>
</a>
</g>
</g>
<!-- Node2&#45;&gt;Node3 -->
<g id="edge2" class="edge"><title>Node2&#45;&gt;Node3</title>
<path fill="none" stroke="midnightblue" d="M304.077,-10C312.462,-10 321.224,-10 329.843,-10"/>
<polygon fill="midnightblue" stroke="midnightblue" points="304.072,-6.5001 294.072,-10 304.072,-13.5001 304.072,-6.5001"/>
</g>
</g>
</svg>
