<?xml version="1.0" encoding="UTF-8" standalone="no"?>
<!DOCTYPE svg PUBLIC "-//W3C//DTD SVG 1.1//EN"
 "http://www.w3.org/Graphics/SVG/1.1/DTD/svg11.dtd">
<!-- Generated by graphviz version 2.38.0 (20140413.2041)
 -->
<!-- Title: Graphical Class Hierarchy Pages: 1 -->
<svg width="463pt" height="28pt"
 viewBox="0.00 0.00 463.00 28.00" xmlns="http://www.w3.org/2000/svg" xmlns:xlink="http://www.w3.org/1999/xlink">
<g id="graph0" class="graph" transform="scale(1 1) rotate(0) translate(4 24)">
<title>Graphical Class Hierarchy</title>
<polygon fill="white" stroke="none" points="-4,4 -4,-24 459,-24 459,4 -4,4"/>
<!-- Node1 -->
<g id="node1" class="node"><title>Node1</title>
<g id="a_node1"><a xlink:href="class_non_copyable.html" target="_top" xlink:title="NonCopyable\&lt; ICallable \&gt;">
<polygon fill="white" stroke="black" points="0,-0.5 0,-19.5 143,-19.5 143,-0.5 0,-0.5"/>
<text text-anchor="middle" x="71.5" y="-7.5" font-family="Helvetica,sans-Serif" font-size="10.00">NonCopyable&lt; ICallable &gt;</text>
</a>
</g>
</g>
<!-- Node2 -->
<g id="node2" class="node"><title>Node2</title>
<g id="a_node2"><a xlink:href="class_i_callable.html" target="_top" xlink:title="ICallable">
<polygon fill="white" stroke="black" points="179,-0.5 179,-19.5 235,-19.5 235,-0.5 179,-0.5"/>
<text text-anchor="middle" x="207" y="-7.5" font-family="Helvetica,sans-Serif" font-size="10.00">ICallable</text>
</a>
</g>
</g>
<!-- Node1&#45;&gt;Node2 -->
<g id="edge1" class="edge"><title>Node1&#45;&gt;Node2</title>
<path fill="none" stroke="#8b1a1a" d="M153.251,-10C162.449,-10 171.276,-10 178.989,-10"/>
<polygon fill="#8b1a1a" stroke="#8b1a1a" points="153.159,-6.5001 143.159,-10 153.159,-13.5001 153.159,-6.5001"/>
</g>
<!-- Node3 -->
<g id="node3" class="node"><title>Node3</title>
<g id="a_node3"><a xlink:href="class_scheduled_callable.html" target="_top" xlink:title="ScheduledCallable">
<polygon fill="white" stroke="black" points="271,-0.5 271,-19.5 375,-19.5 375,-0.5 271,-0.5"/>
<text text-anchor="middle" x="323" y="-7.5" font-family="Helvetica,sans-Serif" font-size="10.00">ScheduledCallable</text>
</a>
</g>
</g>
<!-- Node2&#45;&gt;Node3 -->
<g id="edge2" class="edge"><title>Node2&#45;&gt;Node3</title>
<path fill="none" stroke="midnightblue" d="M245.246,-10C253.344,-10 262.048,-10 270.584,-10"/>
<polygon fill="midnightblue" stroke="midnightblue" points="245.016,-6.5001 235.016,-10 245.016,-13.5001 245.016,-6.5001"/>
</g>
<!-- Node4 -->
<g id="node4" class="node"><title>Node4</title>
<g id="a_node4"><a xlink:href="class_ticker.html" target="_top" xlink:title="Ticker">
<polygon fill="white" stroke="black" points="411,-0.5 411,-19.5 455,-19.5 455,-0.5 411,-0.5"/>
<text text-anchor="middle" x="433" y="-7.5" font-family="Helvetica,sans-Serif" font-size="10.00">Ticker</text>
</a>
</g>
</g>
<!-- Node3&#45;&gt;Node4 -->
<g id="edge3" class="edge"><title>Node3&#45;&gt;Node4</title>
<path fill="none" stroke="midnightblue" d="M385.225,-10C394.451,-10 403.391,-10 410.94,-10"/>
<polygon fill="midnightblue" stroke="midnightblue" points="385.154,-6.5001 375.154,-10 385.153,-13.5001 385.154,-6.5001"/>
</g>
</g>
</svg>
