<?xml version="1.0" encoding="UTF-8" standalone="no"?>
<!DOCTYPE svg PUBLIC "-//W3C//DTD SVG 1.1//EN"
 "http://www.w3.org/Graphics/SVG/1.1/DTD/svg11.dtd">
<!-- Generated by graphviz version 2.38.0 (20140413.2041)
 -->
<!-- Title: lib/carpi/lib/SDFileSystem/FATFileSystem/integer.h Pages: 1 -->
<!--zoomable 374 -->
<svg id="main" version="1.1" xmlns="http://www.w3.org/2000/svg" xmlns:xlink="http://www.w3.org/1999/xlink" xml:space="preserve" onload="init(evt)">
<style type="text/css"><![CDATA[
.edge:hover path { stroke: red; }
.edge:hover polygon { stroke: red; fill: red; }
]]></style>
<script type="text/javascript"><![CDATA[
var edges = document.getElementsByTagName('g');
if (edges && edges.length) {
  for (var i=0;i<edges.length;i++) {
    if (edges[i].id.substr(0,4)=='edge') {
      edges[i].setAttribute('class','edge');
    }
  }
}
]]></script>
        <defs>
                <circle id="rim" cx="0" cy="0" r="7"/>
                <circle id="rim2" cx="0" cy="0" r="3.5"/>
                <g id="zoomPlus">
                        <use xlink:href="#rim" fill="#404040">
                                <set attributeName="fill" to="#808080" begin="zoomplus.mouseover" end="zoomplus.mouseout"/>
                        </use>
                        <path d="M-4,0h8M0,-4v8" fill="none" stroke="white" stroke-width="1.5" pointer-events="none"/>
                </g>
                <g id="zoomMin">
                        <use xlink:href="#rim" fill="#404040">
                                <set attributeName="fill" to="#808080" begin="zoomminus.mouseover" end="zoomminus.mouseout"/>
                        </use>
                        <path d="M-4,0h8" fill="none" stroke="white" stroke-width="1.5" pointer-events="none"/>
                </g>
                <g id="dirArrow">
                        <path fill="none" stroke="white" stroke-width="1.5" d="M0,-3.0v7 M-2.5,-0.5L0,-3.0L2.5,-0.5"/>
                </g>
               <g id="resetDef">
                       <use xlink:href="#rim2" fill="#404040">
                               <set attributeName="fill" to="#808080" begin="reset.mouseover" end="reset.mouseout"/>
                       </use>
               </g>
        </defs>

<script type="text/javascript">
var viewWidth = 971;
var viewHeight = 374;
var sectionId = 'dynsection-0';
</script>
<script xlink:href="svgpan.js"/>
<svg id="graph" class="graph">
<g id="viewport">
<title>lib/carpi/lib/SDFileSystem/FATFileSystem/integer.h</title>
<polygon fill="white" stroke="none" points="-4,4 -4,-370 967.059,-370 967.059,4 -4,4"/>
<!-- Node1 -->
<g id="node1" class="node"><title>Node1</title>
<polygon fill="#bfbfbf" stroke="black" points="157.769,-335.5 157.769,-365.5 293.769,-365.5 293.769,-335.5 157.769,-335.5"/>
<text text-anchor="start" x="165.769" y="-353.5" font-family="Helvetica,sans-Serif" font-size="10.00">lib/carpi/lib/SDFileSystem</text>
<text text-anchor="middle" x="225.769" y="-342.5" font-family="Helvetica,sans-Serif" font-size="10.00">/FATFileSystem/integer.h</text>
</g>
<!-- Node2 -->
<g id="node2" class="node"><title>Node2</title>
<g id="a_node2"><a xlink:href="ff_8h.html" target="_top" xlink:title="lib/carpi/lib/SDFileSystem\l/FATFileSystem/ff.h">
<polygon fill="white" stroke="black" points="422.769,-268.5 422.769,-298.5 558.769,-298.5 558.769,-268.5 422.769,-268.5"/>
<text text-anchor="start" x="430.769" y="-286.5" font-family="Helvetica,sans-Serif" font-size="10.00">lib/carpi/lib/SDFileSystem</text>
<text text-anchor="middle" x="490.769" y="-275.5" font-family="Helvetica,sans-Serif" font-size="10.00">/FATFileSystem/ff.h</text>
</a>
</g>
</g>
<!-- Node1&#45;&gt;Node2 -->
<g id="edge1" class="edge"><title>Node1&#45;&gt;Node2</title>
<path fill="none" stroke="midnightblue" d="M292.828,-333.052C336.152,-322.425 391.938,-308.741 433.24,-298.611"/>
<polygon fill="midnightblue" stroke="midnightblue" points="291.822,-329.694 282.944,-335.476 293.49,-336.493 291.822,-329.694"/>
</g>
<!-- Node6 -->
<g id="node6" class="node"><title>Node6</title>
<g id="a_node6"><a xlink:href="diskio_8h.html" target="_top" xlink:title="lib/carpi/lib/SDFileSystem\l/FATFileSystem/diskio.h">
<polygon fill="white" stroke="black" points="27.7689,-67.5 27.7689,-97.5 163.769,-97.5 163.769,-67.5 27.7689,-67.5"/>
<text text-anchor="start" x="35.7689" y="-85.5" font-family="Helvetica,sans-Serif" font-size="10.00">lib/carpi/lib/SDFileSystem</text>
<text text-anchor="middle" x="95.7689" y="-74.5" font-family="Helvetica,sans-Serif" font-size="10.00">/FATFileSystem/diskio.h</text>
</a>
</g>
</g>
<!-- Node1&#45;&gt;Node6 -->
<g id="edge26" class="edge"><title>Node1&#45;&gt;Node6</title>
<path fill="none" stroke="midnightblue" d="M189.92,-330.521C140.589,-302.109 53.8977,-243.368 18.7689,-165 13.1332,-152.428 12.2221,-146.123 18.7689,-134 27.5808,-117.683 44.2167,-105.784 59.7768,-97.6504"/>
<polygon fill="midnightblue" stroke="midnightblue" points="188.248,-333.596 198.676,-335.471 191.693,-327.502 188.248,-333.596"/>
</g>
<!-- Node3 -->
<g id="node3" class="node"><title>Node3</title>
<g id="a_node3"><a xlink:href="ccsbcs_8cpp.html" target="_top" xlink:title="lib/carpi/lib/SDFileSystem\l/FATFileSystem/ccsbcs.cpp">
<polygon fill="white" stroke="black" points="419.269,-201.5 419.269,-231.5 562.269,-231.5 562.269,-201.5 419.269,-201.5"/>
<text text-anchor="start" x="427.269" y="-219.5" font-family="Helvetica,sans-Serif" font-size="10.00">lib/carpi/lib/SDFileSystem</text>
<text text-anchor="middle" x="490.769" y="-208.5" font-family="Helvetica,sans-Serif" font-size="10.00">/FATFileSystem/ccsbcs.cpp</text>
</a>
</g>
</g>
<!-- Node2&#45;&gt;Node3 -->
<g id="edge2" class="edge"><title>Node2&#45;&gt;Node3</title>
<path fill="none" stroke="midnightblue" d="M484.224,-258.403C483.774,-249.37 484.065,-239.408 485.094,-231.577"/>
<polygon fill="midnightblue" stroke="midnightblue" points="480.739,-258.736 485.09,-268.396 487.713,-258.131 480.739,-258.736"/>
</g>
<!-- Node4 -->
<g id="node4" class="node"><title>Node4</title>
<g id="a_node4"><a xlink:href="_f_a_t_file_system_8h.html" target="_top" xlink:title="lib/carpi/lib/SDFileSystem\l/FATFileSystem/FATFileSystem.h">
<polygon fill="white" stroke="black" points="234.269,-201.5 234.269,-231.5 401.269,-231.5 401.269,-201.5 234.269,-201.5"/>
<text text-anchor="start" x="242.269" y="-219.5" font-family="Helvetica,sans-Serif" font-size="10.00">lib/carpi/lib/SDFileSystem</text>
<text text-anchor="middle" x="317.769" y="-208.5" font-family="Helvetica,sans-Serif" font-size="10.00">/FATFileSystem/FATFileSystem.h</text>
</a>
</g>
</g>
<!-- Node2&#45;&gt;Node4 -->
<g id="edge4" class="edge"><title>Node2&#45;&gt;Node4</title>
<path fill="none" stroke="midnightblue" d="M443.709,-264.819C415.902,-254.371 381.175,-241.323 355.234,-231.577"/>
<polygon fill="midnightblue" stroke="midnightblue" points="442.638,-268.155 453.23,-268.396 445.1,-261.602 442.638,-268.155"/>
</g>
<!-- Node7 -->
<g id="node7" class="node"><title>Node7</title>
<g id="a_node7"><a xlink:href="ff_8cpp.html" target="_top" xlink:title="lib/carpi/lib/SDFileSystem\l/FATFileSystem/ff.cpp">
<polygon fill="white" stroke="black" points="27.7689,-0.5 27.7689,-30.5 163.769,-30.5 163.769,-0.5 27.7689,-0.5"/>
<text text-anchor="start" x="35.7689" y="-18.5" font-family="Helvetica,sans-Serif" font-size="10.00">lib/carpi/lib/SDFileSystem</text>
<text text-anchor="middle" x="95.7689" y="-7.5" font-family="Helvetica,sans-Serif" font-size="10.00">/FATFileSystem/ff.cpp</text>
</a>
</g>
</g>
<!-- Node2&#45;&gt;Node7 -->
<g id="edge25" class="edge"><title>Node2&#45;&gt;Node7</title>
<path fill="none" stroke="midnightblue" d="M569.372,-279.586C695.231,-274.104 930.483,-260.181 955.769,-232 966.905,-219.589 964.705,-158.578 949.769,-134 921.02,-86.6928 897.357,-84.2897 844.769,-67 719.411,-25.7857 323.72,-18.1756 163.808,-16.7948"/>
<polygon fill="midnightblue" stroke="midnightblue" points="568.865,-276.105 559.024,-280.029 569.164,-283.098 568.865,-276.105"/>
</g>
<!-- Node14 -->
<g id="node14" class="node"><title>Node14</title>
<g id="a_node14"><a xlink:href="_f_a_t_file_handle_8cpp.html" target="_top" xlink:title="lib/carpi/lib/SDFileSystem\l/FATFileSystem/FATFileHandle.cpp">
<polygon fill="white" stroke="black" points="771.269,-201.5 771.269,-231.5 946.269,-231.5 946.269,-201.5 771.269,-201.5"/>
<text text-anchor="start" x="779.269" y="-219.5" font-family="Helvetica,sans-Serif" font-size="10.00">lib/carpi/lib/SDFileSystem</text>
<text text-anchor="middle" x="858.769" y="-208.5" font-family="Helvetica,sans-Serif" font-size="10.00">/FATFileSystem/FATFileHandle.cpp</text>
</a>
</g>
</g>
<!-- Node2&#45;&gt;Node14 -->
<g id="edge17" class="edge"><title>Node2&#45;&gt;Node14</title>
<path fill="none" stroke="midnightblue" d="M569.23,-268.641C631.127,-257.708 717.099,-242.523 779.265,-231.543"/>
<polygon fill="midnightblue" stroke="midnightblue" points="568.363,-265.24 559.124,-270.426 569.581,-272.134 568.363,-265.24"/>
</g>
<!-- Node16 -->
<g id="node16" class="node"><title>Node16</title>
<g id="a_node16"><a xlink:href="_f_a_t_dir_handle_8cpp.html" target="_top" xlink:title="lib/carpi/lib/SDFileSystem\l/FATFileSystem/FATDirHandle.cpp">
<polygon fill="white" stroke="black" points="580.269,-201.5 580.269,-231.5 753.269,-231.5 753.269,-201.5 580.269,-201.5"/>
<text text-anchor="start" x="588.269" y="-219.5" font-family="Helvetica,sans-Serif" font-size="10.00">lib/carpi/lib/SDFileSystem</text>
<text text-anchor="middle" x="666.769" y="-208.5" font-family="Helvetica,sans-Serif" font-size="10.00">/FATFileSystem/FATDirHandle.cpp</text>
</a>
</g>
</g>
<!-- Node2&#45;&gt;Node16 -->
<g id="edge21" class="edge"><title>Node2&#45;&gt;Node16</title>
<path fill="none" stroke="midnightblue" d="M538.645,-264.819C566.934,-254.371 602.263,-241.323 628.654,-231.577"/>
<polygon fill="midnightblue" stroke="midnightblue" points="537.126,-261.648 528.958,-268.396 539.552,-268.215 537.126,-261.648"/>
</g>
<!-- Node3&#45;&gt;Node2 -->
<g id="edge3" class="edge"><title>Node3&#45;&gt;Node2</title>
<path fill="none" stroke="midnightblue" d="M497.313,-241.565C497.764,-250.596 497.475,-260.56 496.447,-268.396"/>
<polygon fill="midnightblue" stroke="midnightblue" points="500.797,-241.236 496.444,-231.577 493.824,-241.842 500.797,-241.236"/>
</g>
<!-- Node5 -->
<g id="node5" class="node"><title>Node5</title>
<g id="a_node5"><a xlink:href="diskio_8cpp.html" target="_top" xlink:title="lib/carpi/lib/SDFileSystem\l/FATFileSystem/diskio.cpp">
<polygon fill="white" stroke="black" points="28.2689,-134.5 28.2689,-164.5 165.269,-164.5 165.269,-134.5 28.2689,-134.5"/>
<text text-anchor="start" x="36.2689" y="-152.5" font-family="Helvetica,sans-Serif" font-size="10.00">lib/carpi/lib/SDFileSystem</text>
<text text-anchor="middle" x="96.7689" y="-141.5" font-family="Helvetica,sans-Serif" font-size="10.00">/FATFileSystem/diskio.cpp</text>
</a>
</g>
</g>
<!-- Node4&#45;&gt;Node5 -->
<g id="edge5" class="edge"><title>Node4&#45;&gt;Node5</title>
<path fill="none" stroke="midnightblue" d="M260.24,-198.58C224.345,-188.022 178.682,-174.592 144.746,-164.611"/>
<polygon fill="midnightblue" stroke="midnightblue" points="259.506,-202.012 270.087,-201.476 261.481,-195.296 259.506,-202.012"/>
</g>
<!-- Node8 -->
<g id="node8" class="node"><title>Node8</title>
<g id="a_node8"><a xlink:href="_f_a_t_file_system_8cpp.html" target="_top" xlink:title="lib/carpi/lib/SDFileSystem\l/FATFileSystem/FATFileSystem.cpp">
<polygon fill="white" stroke="black" points="657.769,-67.5 657.769,-97.5 835.769,-97.5 835.769,-67.5 657.769,-67.5"/>
<text text-anchor="start" x="665.769" y="-85.5" font-family="Helvetica,sans-Serif" font-size="10.00">lib/carpi/lib/SDFileSystem</text>
<text text-anchor="middle" x="746.769" y="-74.5" font-family="Helvetica,sans-Serif" font-size="10.00">/FATFileSystem/FATFileSystem.cpp</text>
</a>
</g>
</g>
<!-- Node4&#45;&gt;Node8 -->
<g id="edge10" class="edge"><title>Node4&#45;&gt;Node8</title>
<path fill="none" stroke="midnightblue" d="M325.51,-192.262C337.2,-173.277 358.935,-147.458 384.769,-134 486.277,-81.1179 526.489,-114.376 639.769,-98 645.556,-97.1633 651.535,-96.2931 657.574,-95.413"/>
<polygon fill="midnightblue" stroke="midnightblue" points="322.33,-190.776 320.473,-201.206 328.43,-194.21 322.33,-190.776"/>
</g>
<!-- Node9 -->
<g id="node9" class="node"><title>Node9</title>
<g id="a_node9"><a xlink:href="_mem_file_system_8h.html" target="_top" xlink:title="lib/carpi/lib/SDFileSystem\l/FATFileSystem/MemFileSystem.h">
<polygon fill="white" stroke="black" points="403.269,-134.5 403.269,-164.5 578.269,-164.5 578.269,-134.5 403.269,-134.5"/>
<text text-anchor="start" x="411.269" y="-152.5" font-family="Helvetica,sans-Serif" font-size="10.00">lib/carpi/lib/SDFileSystem</text>
<text text-anchor="middle" x="490.769" y="-141.5" font-family="Helvetica,sans-Serif" font-size="10.00">/FATFileSystem/MemFileSystem.h</text>
</a>
</g>
</g>
<!-- Node4&#45;&gt;Node9 -->
<g id="edge12" class="edge"><title>Node4&#45;&gt;Node9</title>
<path fill="none" stroke="midnightblue" d="M364.829,-197.819C392.636,-187.371 427.363,-174.323 453.304,-164.577"/>
<polygon fill="midnightblue" stroke="midnightblue" points="363.437,-194.602 355.307,-201.396 365.899,-201.155 363.437,-194.602"/>
</g>
<!-- Node10 -->
<g id="node10" class="node"><title>Node10</title>
<g id="a_node10"><a xlink:href="_s_d_file_system_8h.html" target="_top" xlink:title="lib/carpi/lib/SDFileSystem\l/SDFileSystem.h">
<polygon fill="white" stroke="black" points="192.769,-134.5 192.769,-164.5 328.769,-164.5 328.769,-134.5 192.769,-134.5"/>
<text text-anchor="start" x="200.769" y="-152.5" font-family="Helvetica,sans-Serif" font-size="10.00">lib/carpi/lib/SDFileSystem</text>
<text text-anchor="middle" x="260.769" y="-141.5" font-family="Helvetica,sans-Serif" font-size="10.00">/SDFileSystem.h</text>
</a>
</g>
</g>
<!-- Node4&#45;&gt;Node10 -->
<g id="edge13" class="edge"><title>Node4&#45;&gt;Node10</title>
<path fill="none" stroke="midnightblue" d="M298.684,-193.736C290.25,-184.119 280.578,-173.089 273.113,-164.577"/>
<polygon fill="midnightblue" stroke="midnightblue" points="296.176,-196.185 305.401,-201.396 301.439,-191.57 296.176,-196.185"/>
</g>
<!-- Node5&#45;&gt;Node6 -->
<g id="edge6" class="edge"><title>Node5&#45;&gt;Node6</title>
<path fill="none" stroke="midnightblue" d="M89.8528,-124.403C89.2647,-115.37 89.4016,-105.408 90.3107,-97.5765"/>
<polygon fill="midnightblue" stroke="midnightblue" points="86.3754,-124.803 90.8735,-134.396 93.3392,-124.092 86.3754,-124.803"/>
</g>
<!-- Node6&#45;&gt;Node5 -->
<g id="edge7" class="edge"><title>Node6&#45;&gt;Node5</title>
<path fill="none" stroke="midnightblue" d="M102.683,-107.565C103.273,-116.596 103.138,-126.56 102.23,-134.396"/>
<polygon fill="midnightblue" stroke="midnightblue" points="106.161,-107.168 101.66,-97.5765 99.197,-107.881 106.161,-107.168"/>
</g>
<!-- Node6&#45;&gt;Node7 -->
<g id="edge8" class="edge"><title>Node6&#45;&gt;Node7</title>
<path fill="none" stroke="midnightblue" d="M95.7689,-57.1081C95.7689,-48.1539 95.7689,-38.3227 95.7689,-30.5765"/>
<polygon fill="midnightblue" stroke="midnightblue" points="92.269,-57.3959 95.7689,-67.396 99.269,-57.396 92.269,-57.3959"/>
</g>
<!-- Node7&#45;&gt;Node4 -->
<g id="edge9" class="edge"><title>Node7&#45;&gt;Node4</title>
<path fill="none" stroke="midnightblue" d="M50.9695,-35.6271C38.2533,-43.4017 25.9285,-53.7423 18.7689,-67 -1.92756,-105.324 -9.34826,-131.736 18.7689,-165 45.9142,-197.115 155.613,-208.814 234.264,-213.071"/>
<polygon fill="midnightblue" stroke="midnightblue" points="52.7925,-38.6172 59.7768,-30.6504 49.3488,-32.5228 52.7925,-38.6172"/>
</g>
<!-- Node8&#45;&gt;Node4 -->
<g id="edge11" class="edge"><title>Node8&#45;&gt;Node4</title>
<path fill="none" stroke="midnightblue" d="M651.052,-98.8728C542.081,-112.502 501.303,-82.6672 402.769,-134 372.571,-149.732 347.973,-182.354 332.624,-201.206"/>
<polygon fill="midnightblue" stroke="midnightblue" points="651.666,-102.322 661.108,-97.5166 650.73,-95.3846 651.666,-102.322"/>
</g>
<!-- Node11 -->
<g id="node11" class="node"><title>Node11</title>
<g id="a_node11"><a xlink:href="_s_d_card_test_8h.html" target="_top" xlink:title="car/hardwareTest/mbed\l/SDCardTest.h">
<polygon fill="white" stroke="black" points="357.769,-67.5 357.769,-97.5 485.769,-97.5 485.769,-67.5 357.769,-67.5"/>
<text text-anchor="start" x="365.769" y="-85.5" font-family="Helvetica,sans-Serif" font-size="10.00">car/hardwareTest/mbed</text>
<text text-anchor="middle" x="421.769" y="-74.5" font-family="Helvetica,sans-Serif" font-size="10.00">/SDCardTest.h</text>
</a>
</g>
</g>
<!-- Node10&#45;&gt;Node11 -->
<g id="edge14" class="edge"><title>Node10&#45;&gt;Node11</title>
<path fill="none" stroke="midnightblue" d="M305.244,-130.544C331.007,-120.143 362.972,-107.238 386.902,-97.5765"/>
<polygon fill="midnightblue" stroke="midnightblue" points="303.666,-127.407 295.704,-134.396 306.287,-133.898 303.666,-127.407"/>
</g>
<!-- Node12 -->
<g id="node12" class="node"><title>Node12</title>
<g id="a_node12"><a xlink:href="_s_d_file_system_8cpp.html" target="_top" xlink:title="lib/carpi/lib/SDFileSystem\l/SDFileSystem.cpp">
<polygon fill="white" stroke="black" points="503.769,-67.5 503.769,-97.5 639.769,-97.5 639.769,-67.5 503.769,-67.5"/>
<text text-anchor="start" x="511.769" y="-85.5" font-family="Helvetica,sans-Serif" font-size="10.00">lib/carpi/lib/SDFileSystem</text>
<text text-anchor="middle" x="571.769" y="-74.5" font-family="Helvetica,sans-Serif" font-size="10.00">/SDFileSystem.cpp</text>
</a>
</g>
</g>
<!-- Node10&#45;&gt;Node12 -->
<g id="edge15" class="edge"><title>Node10&#45;&gt;Node12</title>
<path fill="none" stroke="midnightblue" d="M337.885,-132.382C389.04,-121.691 455.521,-107.796 504.522,-97.5549"/>
<polygon fill="midnightblue" stroke="midnightblue" points="336.941,-129.004 327.868,-134.476 338.373,-135.856 336.941,-129.004"/>
</g>
<!-- Node13 -->
<g id="node13" class="node"><title>Node13</title>
<g id="a_node13"><a xlink:href="_hardware_s_d_card_8h.html" target="_top" xlink:title="lib/carpi/src/components\l/hardware/HardwareSDCard.h">
<polygon fill="white" stroke="black" points="181.769,-67.5 181.769,-97.5 339.769,-97.5 339.769,-67.5 181.769,-67.5"/>
<text text-anchor="start" x="189.769" y="-85.5" font-family="Helvetica,sans-Serif" font-size="10.00">lib/carpi/src/components</text>
<text text-anchor="middle" x="260.769" y="-74.5" font-family="Helvetica,sans-Serif" font-size="10.00">/hardware/HardwareSDCard.h</text>
</a>
</g>
</g>
<!-- Node10&#45;&gt;Node13 -->
<g id="edge16" class="edge"><title>Node10&#45;&gt;Node13</title>
<path fill="none" stroke="midnightblue" d="M260.769,-124.108C260.769,-115.154 260.769,-105.323 260.769,-97.5765"/>
<polygon fill="midnightblue" stroke="midnightblue" points="257.269,-124.396 260.769,-134.396 264.269,-124.396 257.269,-124.396"/>
</g>
<!-- Node15 -->
<g id="node15" class="node"><title>Node15</title>
<g id="a_node15"><a xlink:href="_f_a_t_file_handle_8h.html" target="_top" xlink:title="lib/carpi/lib/SDFileSystem\l/FATFileSystem/FATFileHandle.h">
<polygon fill="white" stroke="black" points="776.769,-134.5 776.769,-164.5 940.769,-164.5 940.769,-134.5 776.769,-134.5"/>
<text text-anchor="start" x="784.769" y="-152.5" font-family="Helvetica,sans-Serif" font-size="10.00">lib/carpi/lib/SDFileSystem</text>
<text text-anchor="middle" x="858.769" y="-141.5" font-family="Helvetica,sans-Serif" font-size="10.00">/FATFileSystem/FATFileHandle.h</text>
</a>
</g>
</g>
<!-- Node14&#45;&gt;Node15 -->
<g id="edge18" class="edge"><title>Node14&#45;&gt;Node15</title>
<path fill="none" stroke="midnightblue" d="M852.224,-191.403C851.774,-182.37 852.065,-172.408 853.094,-164.577"/>
<polygon fill="midnightblue" stroke="midnightblue" points="848.739,-191.736 853.09,-201.396 855.713,-191.131 848.739,-191.736"/>
</g>
<!-- Node15&#45;&gt;Node8 -->
<g id="edge19" class="edge"><title>Node15&#45;&gt;Node8</title>
<path fill="none" stroke="midnightblue" d="M825.678,-129.296C808.153,-119.125 787.011,-106.855 771.024,-97.5765"/>
<polygon fill="midnightblue" stroke="midnightblue" points="824.061,-132.404 834.467,-134.396 827.574,-126.349 824.061,-132.404"/>
</g>
<!-- Node15&#45;&gt;Node14 -->
<g id="edge20" class="edge"><title>Node15&#45;&gt;Node14</title>
<path fill="none" stroke="midnightblue" d="M865.313,-174.565C865.764,-183.596 865.475,-193.56 864.447,-201.396"/>
<polygon fill="midnightblue" stroke="midnightblue" points="868.797,-174.236 864.444,-164.577 861.824,-174.842 868.797,-174.236"/>
</g>
<!-- Node17 -->
<g id="node17" class="node"><title>Node17</title>
<g id="a_node17"><a xlink:href="_f_a_t_dir_handle_8h.html" target="_top" xlink:title="lib/carpi/lib/SDFileSystem\l/FATFileSystem/FATDirHandle.h">
<polygon fill="white" stroke="black" points="596.769,-134.5 596.769,-164.5 758.769,-164.5 758.769,-134.5 596.769,-134.5"/>
<text text-anchor="start" x="604.769" y="-152.5" font-family="Helvetica,sans-Serif" font-size="10.00">lib/carpi/lib/SDFileSystem</text>
<text text-anchor="middle" x="677.769" y="-141.5" font-family="Helvetica,sans-Serif" font-size="10.00">/FATFileSystem/FATDirHandle.h</text>
</a>
</g>
</g>
<!-- Node16&#45;&gt;Node17 -->
<g id="edge22" class="edge"><title>Node16&#45;&gt;Node17</title>
<path fill="none" stroke="midnightblue" d="M664.302,-191.403C665.381,-182.37 667.357,-172.408 669.712,-164.577"/>
<polygon fill="midnightblue" stroke="midnightblue" points="660.811,-191.142 663.477,-201.396 667.788,-191.718 660.811,-191.142"/>
</g>
<!-- Node17&#45;&gt;Node8 -->
<g id="edge23" class="edge"><title>Node17&#45;&gt;Node8</title>
<path fill="none" stroke="midnightblue" d="M700.261,-127.311C710.612,-117.561 722.609,-106.259 731.826,-97.5765"/>
<polygon fill="midnightblue" stroke="midnightblue" points="697.62,-124.991 692.741,-134.396 702.42,-130.087 697.62,-124.991"/>
</g>
<!-- Node17&#45;&gt;Node16 -->
<g id="edge24" class="edge"><title>Node17&#45;&gt;Node16</title>
<path fill="none" stroke="midnightblue" d="M680.24,-174.565C679.163,-183.596 677.188,-193.56 674.834,-201.396"/>
<polygon fill="midnightblue" stroke="midnightblue" points="683.73,-174.83 681.062,-164.577 676.754,-174.256 683.73,-174.83"/>
</g>
</g>
</svg>
        <g id="navigator" transform="translate(0 0)" fill="#404254">
                <rect fill="#f2f5e9" fill-opacity="0.5" stroke="#606060" stroke-width=".5" x="0" y="0" width="60" height="60"/>
                <use id="zoomplus" xlink:href="#zoomPlus" x="17" y="9" onmousedown="handleZoom(evt,'in')"/>
                <use id="zoomminus" xlink:href="#zoomMin" x="42" y="9" onmousedown="handleZoom(evt,'out')"/>
                <use id="reset" xlink:href="#resetDef" x="30" y="36" onmousedown="handleReset()"/>
                <g id="arrowUp" xlink:href="#dirArrow" transform="translate(30 24)" onmousedown="handlePan(0,-1)">
                  <use xlink:href="#rim" fill="#404040">
                        <set attributeName="fill" to="#808080" begin="arrowUp.mouseover" end="arrowUp.mouseout"/>
                  </use>
                  <path fill="none" stroke="white" stroke-width="1.5" d="M0,-3.0v7 M-2.5,-0.5L0,-3.0L2.5,-0.5"/>
                </g>
                <g id="arrowRight" xlink:href="#dirArrow" transform="rotate(90) translate(36 -43)" onmousedown="handlePan(1,0)">
                  <use xlink:href="#rim" fill="#404040">
                        <set attributeName="fill" to="#808080" begin="arrowRight.mouseover" end="arrowRight.mouseout"/>
                  </use>
                  <path fill="none" stroke="white" stroke-width="1.5" d="M0,-3.0v7 M-2.5,-0.5L0,-3.0L2.5,-0.5"/>
                </g>
                <g id="arrowDown" xlink:href="#dirArrow" transform="rotate(180) translate(-30 -48)" onmousedown="handlePan(0,1)">
                  <use xlink:href="#rim" fill="#404040">
                        <set attributeName="fill" to="#808080" begin="arrowDown.mouseover" end="arrowDown.mouseout"/>
                  </use>
                  <path fill="none" stroke="white" stroke-width="1.5" d="M0,-3.0v7 M-2.5,-0.5L0,-3.0L2.5,-0.5"/>
                </g>
                <g id="arrowLeft" xlink:href="#dirArrow" transform="rotate(270) translate(-36 17)" onmousedown="handlePan(-1,0)">
                  <use xlink:href="#rim" fill="#404040">
                        <set attributeName="fill" to="#808080" begin="arrowLeft.mouseover" end="arrowLeft.mouseout"/>
                  </use>
                  <path fill="none" stroke="white" stroke-width="1.5" d="M0,-3.0v7 M-2.5,-0.5L0,-3.0L2.5,-0.5"/>
                </g>
        </g>
        <svg viewBox="0 0 15 15" width="100%" height="30px" preserveAspectRatio="xMaxYMin meet">
         <g id="arrow_out" transform="scale(0.3 0.3)">
          <a xlink:href="integer_8h__dep__incl_org.svg" target="_base">
           <rect id="button" ry="5" rx="5" y="6" x="6" height="38" width="38"
                fill="#f2f5e9" fill-opacity="0.5" stroke="#606060" stroke-width="1.0"/>
           <path id="arrow"
             d="M 11.500037,31.436501 C 11.940474,20.09759 22.043105,11.32322 32.158766,21.979434 L 37.068811,17.246167 C 37.068811,17.246167 37.088388,32 37.088388,32 L 22.160133,31.978069 C 22.160133,31.978069 26.997745,27.140456 26.997745,27.140456 C 18.528582,18.264221 13.291696,25.230495 11.500037,31.436501 z"
             style="fill:#404040;"/>
          </a>
         </g>
        </svg>
</svg>
