<?xml version="1.0" encoding="UTF-8" standalone="no"?>
<!DOCTYPE svg PUBLIC "-//W3C//DTD SVG 1.1//EN"
 "http://www.w3.org/Graphics/SVG/1.1/DTD/svg11.dtd">
<!-- Generated by graphviz version 2.38.0 (20140413.2041)
 -->
<!-- Title: lib/carpi/src/steroido/src/Libraries/FlexCAN/kinetis_flexcan.h Pages: 1 -->
<svg width="128pt" height="206pt"
 viewBox="0.00 0.00 128.00 206.00" xmlns="http://www.w3.org/2000/svg" xmlns:xlink="http://www.w3.org/1999/xlink">
<g id="graph0" class="graph" transform="scale(1 1) rotate(0) translate(4 202)">
<title>lib/carpi/src/steroido/src/Libraries/FlexCAN/kinetis_flexcan.h</title>
<polygon fill="white" stroke="none" points="-4,4 -4,-202 124,-202 124,4 -4,4"/>
<!-- Node1 -->
<g id="node1" class="node"><title>Node1</title>
<polygon fill="#bfbfbf" stroke="black" points="-7.10543e-15,-156.5 -7.10543e-15,-197.5 120,-197.5 120,-156.5 -7.10543e-15,-156.5"/>
<text text-anchor="start" x="8" y="-185.5" font-family="Helvetica,sans-Serif" font-size="10.00">lib/carpi/src/steroido</text>
<text text-anchor="start" x="8" y="-174.5" font-family="Helvetica,sans-Serif" font-size="10.00">/src/Libraries/FlexCAN</text>
<text text-anchor="middle" x="60" y="-163.5" font-family="Helvetica,sans-Serif" font-size="10.00">/kinetis_flexcan.h</text>
</g>
<!-- Node2 -->
<g id="node2" class="node"><title>Node2</title>
<g id="a_node2"><a xlink:href="_flex_c_a_n_8h.html" target="_top" xlink:title="lib/carpi/src/steroido\l/src/Libraries/FlexCAN\l/FlexCAN.h">
<polygon fill="white" stroke="black" points="-7.10543e-15,-78.5 -7.10543e-15,-119.5 120,-119.5 120,-78.5 -7.10543e-15,-78.5"/>
<text text-anchor="start" x="8" y="-107.5" font-family="Helvetica,sans-Serif" font-size="10.00">lib/carpi/src/steroido</text>
<text text-anchor="start" x="8" y="-96.5" font-family="Helvetica,sans-Serif" font-size="10.00">/src/Libraries/FlexCAN</text>
<text text-anchor="middle" x="60" y="-85.5" font-family="Helvetica,sans-Serif" font-size="10.00">/FlexCAN.h</text>
</a>
</g>
</g>
<!-- Node1&#45;&gt;Node2 -->
<g id="edge1" class="edge"><title>Node1&#45;&gt;Node2</title>
<path fill="none" stroke="midnightblue" d="M60,-146.297C60,-137.301 60,-127.653 60,-119.506"/>
<polygon fill="midnightblue" stroke="midnightblue" points="56.5001,-146.428 60,-156.428 63.5001,-146.428 56.5001,-146.428"/>
</g>
<!-- Node3 -->
<g id="node3" class="node"><title>Node3</title>
<g id="a_node3"><a xlink:href="_c_a_n_8h.html" target="_top" xlink:title="lib/carpi/src/steroido\l/src/AbstractionLayer\l/Teensyduino/CAN.h">
<polygon fill="white" stroke="black" points="1,-0.5 1,-41.5 119,-41.5 119,-0.5 1,-0.5"/>
<text text-anchor="start" x="9" y="-29.5" font-family="Helvetica,sans-Serif" font-size="10.00">lib/carpi/src/steroido</text>
<text text-anchor="start" x="9" y="-18.5" font-family="Helvetica,sans-Serif" font-size="10.00">/src/AbstractionLayer</text>
<text text-anchor="middle" x="60" y="-7.5" font-family="Helvetica,sans-Serif" font-size="10.00">/Teensyduino/CAN.h</text>
</a>
</g>
</g>
<!-- Node2&#45;&gt;Node3 -->
<g id="edge2" class="edge"><title>Node2&#45;&gt;Node3</title>
<path fill="none" stroke="midnightblue" d="M60,-68.2965C60,-59.3009 60,-49.6532 60,-41.5056"/>
<polygon fill="midnightblue" stroke="midnightblue" points="56.5001,-68.4281 60,-78.4281 63.5001,-68.4281 56.5001,-68.4281"/>
</g>
</g>
</svg>
