<?xml version="1.0" encoding="UTF-8" standalone="no"?>
<!DOCTYPE svg PUBLIC "-//W3C//DTD SVG 1.1//EN"
 "http://www.w3.org/Graphics/SVG/1.1/DTD/svg11.dtd">
<!-- Generated by graphviz version 2.38.0 (20140413.2041)
 -->
<!-- Title: lib/carpi/src/steroido/src/Common/mapC.h Pages: 1 -->
<svg width="448pt" height="173pt"
 viewBox="0.00 0.00 448.00 173.00" xmlns="http://www.w3.org/2000/svg" xmlns:xlink="http://www.w3.org/1999/xlink">
<g id="graph0" class="graph" transform="scale(1 1) rotate(0) translate(4 169)">
<title>lib/carpi/src/steroido/src/Common/mapC.h</title>
<polygon fill="white" stroke="none" points="-4,4 -4,-169 444,-169 444,4 -4,4"/>
<!-- Node1 -->
<g id="node1" class="node"><title>Node1</title>
<polygon fill="#bfbfbf" stroke="black" points="172,-134.5 172,-164.5 294,-164.5 294,-134.5 172,-134.5"/>
<text text-anchor="start" x="180" y="-152.5" font-family="Helvetica,sans-Serif" font-size="10.00">lib/carpi/src/steroido</text>
<text text-anchor="middle" x="233" y="-141.5" font-family="Helvetica,sans-Serif" font-size="10.00">/src/Common/mapC.h</text>
</g>
<!-- Node2 -->
<g id="node2" class="node"><title>Node2</title>
<g id="a_node2"><a xlink:href="_steroido_8h.html" target="_top" xlink:title="lib/carpi/src/steroido\l/src/Steroido.h">
<polygon fill="white" stroke="black" points="176.5,-67.5 176.5,-97.5 289.5,-97.5 289.5,-67.5 176.5,-67.5"/>
<text text-anchor="start" x="184.5" y="-85.5" font-family="Helvetica,sans-Serif" font-size="10.00">lib/carpi/src/steroido</text>
<text text-anchor="middle" x="233" y="-74.5" font-family="Helvetica,sans-Serif" font-size="10.00">/src/Steroido.h</text>
</a>
</g>
</g>
<!-- Node1&#45;&gt;Node2 -->
<g id="edge1" class="edge"><title>Node1&#45;&gt;Node2</title>
<path fill="none" stroke="midnightblue" d="M233,-124.108C233,-115.154 233,-105.323 233,-97.5765"/>
<polygon fill="midnightblue" stroke="midnightblue" points="229.5,-124.396 233,-134.396 236.5,-124.396 229.5,-124.396"/>
</g>
<!-- Node3 -->
<g id="node3" class="node"><title>Node3</title>
<g id="a_node3"><a xlink:href="test___registry_sync_8cpp.html" target="_top" xlink:title="test/common_test_Registry\lSync/test_RegistrySync.cpp">
<polygon fill="white" stroke="black" points="0,-0.5 0,-30.5 148,-30.5 148,-0.5 0,-0.5"/>
<text text-anchor="start" x="8" y="-18.5" font-family="Helvetica,sans-Serif" font-size="10.00">test/common_test_Registry</text>
<text text-anchor="middle" x="74" y="-7.5" font-family="Helvetica,sans-Serif" font-size="10.00">Sync/test_RegistrySync.cpp</text>
</a>
</g>
</g>
<!-- Node2&#45;&gt;Node3 -->
<g id="edge2" class="edge"><title>Node2&#45;&gt;Node3</title>
<path fill="none" stroke="midnightblue" d="M189.077,-63.5442C163.634,-53.143 132.067,-40.238 108.433,-30.5765"/>
<polygon fill="midnightblue" stroke="midnightblue" points="187.919,-66.8516 198.499,-67.396 190.567,-60.3721 187.919,-66.8516"/>
</g>
<!-- Node4 -->
<g id="node4" class="node"><title>Node4</title>
<g id="a_node4"><a xlink:href="test___sync_8cpp.html" target="_top" xlink:title="test/common_test_Sync\l/test_Sync.cpp">
<polygon fill="white" stroke="black" points="166,-0.5 166,-30.5 300,-30.5 300,-0.5 166,-0.5"/>
<text text-anchor="start" x="174" y="-18.5" font-family="Helvetica,sans-Serif" font-size="10.00">test/common_test_Sync</text>
<text text-anchor="middle" x="233" y="-7.5" font-family="Helvetica,sans-Serif" font-size="10.00">/test_Sync.cpp</text>
</a>
</g>
</g>
<!-- Node2&#45;&gt;Node4 -->
<g id="edge3" class="edge"><title>Node2&#45;&gt;Node4</title>
<path fill="none" stroke="midnightblue" d="M233,-57.1081C233,-48.1539 233,-38.3227 233,-30.5765"/>
<polygon fill="midnightblue" stroke="midnightblue" points="229.5,-57.3959 233,-67.396 236.5,-57.396 229.5,-57.3959"/>
</g>
<!-- Node5 -->
<g id="node5" class="node"><title>Node5</title>
<g id="a_node5"><a xlink:href="test___c_can_8cpp.html" target="_top" xlink:title="test/native_test_CCan\l/test_CCan.cpp">
<polygon fill="white" stroke="black" points="318,-0.5 318,-30.5 440,-30.5 440,-0.5 318,-0.5"/>
<text text-anchor="start" x="326" y="-18.5" font-family="Helvetica,sans-Serif" font-size="10.00">test/native_test_CCan</text>
<text text-anchor="middle" x="379" y="-7.5" font-family="Helvetica,sans-Serif" font-size="10.00">/test_CCan.cpp</text>
</a>
</g>
</g>
<!-- Node2&#45;&gt;Node5 -->
<g id="edge4" class="edge"><title>Node2&#45;&gt;Node5</title>
<path fill="none" stroke="midnightblue" d="M273.95,-63.2687C297.204,-52.9159 325.872,-40.1528 347.382,-30.5765"/>
<polygon fill="midnightblue" stroke="midnightblue" points="272.392,-60.1313 264.68,-67.396 275.239,-66.5262 272.392,-60.1313"/>
</g>
</g>
</svg>
