<?xml version="1.0" encoding="UTF-8" standalone="no"?>
<!DOCTYPE svg PUBLIC "-//W3C//DTD SVG 1.1//EN"
 "http://www.w3.org/Graphics/SVG/1.1/DTD/svg11.dtd">
<!-- Generated by graphviz version 2.38.0 (20140413.2041)
 -->
<!-- Title: lib/carpi/src/steroido/src/Common/memSet.h Pages: 1 -->
<svg width="451pt" height="173pt"
 viewBox="0.00 0.00 450.50 173.00" xmlns="http://www.w3.org/2000/svg" xmlns:xlink="http://www.w3.org/1999/xlink">
<g id="graph0" class="graph" transform="scale(1 1) rotate(0) translate(4 169)">
<title>lib/carpi/src/steroido/src/Common/memSet.h</title>
<polygon fill="white" stroke="none" points="-4,4 -4,-169 446.5,-169 446.5,4 -4,4"/>
<!-- Node1 -->
<g id="node1" class="node"><title>Node1</title>
<polygon fill="#bfbfbf" stroke="black" points="90,-134.5 90,-164.5 225,-164.5 225,-134.5 90,-134.5"/>
<text text-anchor="start" x="98" y="-152.5" font-family="Helvetica,sans-Serif" font-size="10.00">lib/carpi/src/steroido</text>
<text text-anchor="middle" x="157.5" y="-141.5" font-family="Helvetica,sans-Serif" font-size="10.00">/src/Common/memSet.h</text>
</g>
<!-- Node2 -->
<g id="node2" class="node"><title>Node2</title>
<g id="a_node2"><a xlink:href="_testing_header_8h.html" target="_top" xlink:title="lib/carpi/src/steroido\l/src/Common/TestingHeader.h">
<polygon fill="white" stroke="black" points="0,-67.5 0,-97.5 161,-97.5 161,-67.5 0,-67.5"/>
<text text-anchor="start" x="8" y="-85.5" font-family="Helvetica,sans-Serif" font-size="10.00">lib/carpi/src/steroido</text>
<text text-anchor="middle" x="80.5" y="-74.5" font-family="Helvetica,sans-Serif" font-size="10.00">/src/Common/TestingHeader.h</text>
</a>
</g>
</g>
<!-- Node1&#45;&gt;Node2 -->
<g id="edge1" class="edge"><title>Node1&#45;&gt;Node2</title>
<path fill="none" stroke="midnightblue" d="M133.077,-127.883C121.376,-118.005 107.662,-106.429 97.1752,-97.5765"/>
<polygon fill="midnightblue" stroke="midnightblue" points="130.893,-130.62 140.792,-134.396 135.408,-125.271 130.893,-130.62"/>
</g>
<!-- Node3 -->
<g id="node3" class="node"><title>Node3</title>
<g id="a_node3"><a xlink:href="_steroido_8h.html" target="_top" xlink:title="lib/carpi/src/steroido\l/src/Steroido.h">
<polygon fill="white" stroke="black" points="179,-67.5 179,-97.5 292,-97.5 292,-67.5 179,-67.5"/>
<text text-anchor="start" x="187" y="-85.5" font-family="Helvetica,sans-Serif" font-size="10.00">lib/carpi/src/steroido</text>
<text text-anchor="middle" x="235.5" y="-74.5" font-family="Helvetica,sans-Serif" font-size="10.00">/src/Steroido.h</text>
</a>
</g>
</g>
<!-- Node1&#45;&gt;Node3 -->
<g id="edge2" class="edge"><title>Node1&#45;&gt;Node3</title>
<path fill="none" stroke="midnightblue" d="M182.24,-127.883C194.093,-118.005 207.985,-106.429 218.608,-97.5765"/>
<polygon fill="midnightblue" stroke="midnightblue" points="179.866,-125.305 174.425,-134.396 184.348,-130.683 179.866,-125.305"/>
</g>
<!-- Node4 -->
<g id="node4" class="node"><title>Node4</title>
<g id="a_node4"><a xlink:href="test___registry_sync_8cpp.html" target="_top" xlink:title="test/common_test_Registry\lSync/test_RegistrySync.cpp">
<polygon fill="white" stroke="black" points="2.5,-0.5 2.5,-30.5 150.5,-30.5 150.5,-0.5 2.5,-0.5"/>
<text text-anchor="start" x="10.5" y="-18.5" font-family="Helvetica,sans-Serif" font-size="10.00">test/common_test_Registry</text>
<text text-anchor="middle" x="76.5" y="-7.5" font-family="Helvetica,sans-Serif" font-size="10.00">Sync/test_RegistrySync.cpp</text>
</a>
</g>
</g>
<!-- Node3&#45;&gt;Node4 -->
<g id="edge3" class="edge"><title>Node3&#45;&gt;Node4</title>
<path fill="none" stroke="midnightblue" d="M191.577,-63.5442C166.134,-53.143 134.567,-40.238 110.933,-30.5765"/>
<polygon fill="midnightblue" stroke="midnightblue" points="190.419,-66.8516 200.999,-67.396 193.067,-60.3721 190.419,-66.8516"/>
</g>
<!-- Node5 -->
<g id="node5" class="node"><title>Node5</title>
<g id="a_node5"><a xlink:href="test___sync_8cpp.html" target="_top" xlink:title="test/common_test_Sync\l/test_Sync.cpp">
<polygon fill="white" stroke="black" points="168.5,-0.5 168.5,-30.5 302.5,-30.5 302.5,-0.5 168.5,-0.5"/>
<text text-anchor="start" x="176.5" y="-18.5" font-family="Helvetica,sans-Serif" font-size="10.00">test/common_test_Sync</text>
<text text-anchor="middle" x="235.5" y="-7.5" font-family="Helvetica,sans-Serif" font-size="10.00">/test_Sync.cpp</text>
</a>
</g>
</g>
<!-- Node3&#45;&gt;Node5 -->
<g id="edge4" class="edge"><title>Node3&#45;&gt;Node5</title>
<path fill="none" stroke="midnightblue" d="M235.5,-57.1081C235.5,-48.1539 235.5,-38.3227 235.5,-30.5765"/>
<polygon fill="midnightblue" stroke="midnightblue" points="232,-57.3959 235.5,-67.396 239,-57.396 232,-57.3959"/>
</g>
<!-- Node6 -->
<g id="node6" class="node"><title>Node6</title>
<g id="a_node6"><a xlink:href="test___c_can_8cpp.html" target="_top" xlink:title="test/native_test_CCan\l/test_CCan.cpp">
<polygon fill="white" stroke="black" points="320.5,-0.5 320.5,-30.5 442.5,-30.5 442.5,-0.5 320.5,-0.5"/>
<text text-anchor="start" x="328.5" y="-18.5" font-family="Helvetica,sans-Serif" font-size="10.00">test/native_test_CCan</text>
<text text-anchor="middle" x="381.5" y="-7.5" font-family="Helvetica,sans-Serif" font-size="10.00">/test_CCan.cpp</text>
</a>
</g>
</g>
<!-- Node3&#45;&gt;Node6 -->
<g id="edge5" class="edge"><title>Node3&#45;&gt;Node6</title>
<path fill="none" stroke="midnightblue" d="M276.45,-63.2687C299.704,-52.9159 328.372,-40.1528 349.882,-30.5765"/>
<polygon fill="midnightblue" stroke="midnightblue" points="274.892,-60.1313 267.18,-67.396 277.739,-66.5262 274.892,-60.1313"/>
</g>
</g>
</svg>
