<?xml version="1.0" encoding="UTF-8" standalone="no"?>
<!DOCTYPE svg PUBLIC "-//W3C//DTD SVG 1.1//EN"
 "http://www.w3.org/Graphics/SVG/1.1/DTD/svg11.dtd">
<!-- Generated by graphviz version 2.38.0 (20140413.2041)
 -->
<!-- Title: lib/carpi/src/steroido/src/Libraries/printf/printf.h Pages: 1 -->
<svg width="353pt" height="106pt"
 viewBox="0.00 0.00 352.50 106.00" xmlns="http://www.w3.org/2000/svg" xmlns:xlink="http://www.w3.org/1999/xlink">
<g id="graph0" class="graph" transform="scale(1 1) rotate(0) translate(4 102)">
<title>lib/carpi/src/steroido/src/Libraries/printf/printf.h</title>
<polygon fill="white" stroke="none" points="-4,4 -4,-102 348.5,-102 348.5,4 -4,4"/>
<!-- Node1 -->
<g id="node1" class="node"><title>Node1</title>
<polygon fill="#bfbfbf" stroke="black" points="121.5,-56.5 121.5,-97.5 234.5,-97.5 234.5,-56.5 121.5,-56.5"/>
<text text-anchor="start" x="129.5" y="-85.5" font-family="Helvetica,sans-Serif" font-size="10.00">lib/carpi/src/steroido</text>
<text text-anchor="start" x="129.5" y="-74.5" font-family="Helvetica,sans-Serif" font-size="10.00">/src/Libraries/printf</text>
<text text-anchor="middle" x="178" y="-63.5" font-family="Helvetica,sans-Serif" font-size="10.00">/printf.h</text>
</g>
<!-- Node2 -->
<g id="node2" class="node"><title>Node2</title>
<polygon fill="white" stroke="#bfbfbf" points="0,-0.5 0,-19.5 56,-19.5 56,-0.5 0,-0.5"/>
<text text-anchor="middle" x="28" y="-7.5" font-family="Helvetica,sans-Serif" font-size="10.00">stdarg.h</text>
</g>
<!-- Node1&#45;&gt;Node2 -->
<g id="edge1" class="edge"><title>Node1&#45;&gt;Node2</title>
<path fill="none" stroke="midnightblue" d="M132.995,-56.4979C108.449,-45.8614 78.7716,-33.001 57.2395,-23.6705"/>
<polygon fill="midnightblue" stroke="midnightblue" points="58.5345,-20.4172 47.9673,-19.6525 55.7512,-26.8401 58.5345,-20.4172"/>
</g>
<!-- Node3 -->
<g id="node3" class="node"><title>Node3</title>
<polygon fill="white" stroke="#bfbfbf" points="74.5,-0.5 74.5,-19.5 129.5,-19.5 129.5,-0.5 74.5,-0.5"/>
<text text-anchor="middle" x="102" y="-7.5" font-family="Helvetica,sans-Serif" font-size="10.00">stddef.h</text>
</g>
<!-- Node1&#45;&gt;Node3 -->
<g id="edge2" class="edge"><title>Node1&#45;&gt;Node3</title>
<path fill="none" stroke="midnightblue" d="M155.197,-56.4979C143.881,-46.8196 130.413,-35.3002 119.859,-26.274"/>
<polygon fill="midnightblue" stroke="midnightblue" points="121.991,-23.4923 112.117,-19.6525 117.442,-28.8121 121.991,-23.4923"/>
</g>
<!-- Node4 -->
<g id="node4" class="node"><title>Node4</title>
<polygon fill="white" stroke="#bfbfbf" points="147.5,-0.5 147.5,-19.5 208.5,-19.5 208.5,-0.5 147.5,-0.5"/>
<text text-anchor="middle" x="178" y="-7.5" font-family="Helvetica,sans-Serif" font-size="10.00">stdbool.h</text>
</g>
<!-- Node1&#45;&gt;Node4 -->
<g id="edge3" class="edge"><title>Node1&#45;&gt;Node4</title>
<path fill="none" stroke="midnightblue" d="M178,-56.4979C178,-48.0653 178,-38.2351 178,-29.874"/>
<polygon fill="midnightblue" stroke="midnightblue" points="181.5,-29.6525 178,-19.6525 174.5,-29.6525 181.5,-29.6525"/>
</g>
<!-- Node5 -->
<g id="node5" class="node"><title>Node5</title>
<polygon fill="white" stroke="#bfbfbf" points="226.5,-0.5 226.5,-19.5 279.5,-19.5 279.5,-0.5 226.5,-0.5"/>
<text text-anchor="middle" x="253" y="-7.5" font-family="Helvetica,sans-Serif" font-size="10.00">stdint.h</text>
</g>
<!-- Node1&#45;&gt;Node5 -->
<g id="edge4" class="edge"><title>Node1&#45;&gt;Node5</title>
<path fill="none" stroke="midnightblue" d="M200.502,-56.4979C211.67,-46.8196 224.961,-35.3002 235.376,-26.274"/>
<polygon fill="midnightblue" stroke="midnightblue" points="237.752,-28.8468 243.016,-19.6525 233.167,-23.5569 237.752,-28.8468"/>
</g>
<!-- Node6 -->
<g id="node6" class="node"><title>Node6</title>
<polygon fill="white" stroke="#bfbfbf" points="297.5,-0.5 297.5,-19.5 344.5,-19.5 344.5,-0.5 297.5,-0.5"/>
<text text-anchor="middle" x="321" y="-7.5" font-family="Helvetica,sans-Serif" font-size="10.00">float.h</text>
</g>
<!-- Node1&#45;&gt;Node6 -->
<g id="edge5" class="edge"><title>Node1&#45;&gt;Node6</title>
<path fill="none" stroke="midnightblue" d="M220.905,-56.4979C244.2,-45.9093 272.343,-33.1169 292.847,-23.7968"/>
<polygon fill="midnightblue" stroke="midnightblue" points="294.309,-26.9769 301.965,-19.6525 291.413,-20.6043 294.309,-26.9769"/>
</g>
</g>
</svg>
