<?xml version="1.0" encoding="UTF-8" standalone="no"?>
<!DOCTYPE svg PUBLIC "-//W3C//DTD SVG 1.1//EN"
 "http://www.w3.org/Graphics/SVG/1.1/DTD/svg11.dtd">
<!-- Generated by graphviz version 2.38.0 (20140413.2041)
 -->
<!-- Title: HardwareAnalogSensor::_boundary Pages: 1 -->
<svg width="261pt" height="620pt"
 viewBox="0.00 0.00 260.50 620.00" xmlns="http://www.w3.org/2000/svg" xmlns:xlink="http://www.w3.org/1999/xlink">
<g id="graph0" class="graph" transform="scale(1 1) rotate(0) translate(4 616)">
<title>HardwareAnalogSensor::_boundary</title>
<polygon fill="white" stroke="none" points="-4,4 -4,-616 256.5,-616 256.5,4 -4,4"/>
<!-- Node1 -->
<g id="node1" class="node"><title>Node1</title>
<polygon fill="#bfbfbf" stroke="black" points="27.5,-0.5 27.5,-90.5 156.5,-90.5 156.5,-0.5 27.5,-0.5"/>
<text text-anchor="start" x="35.5" y="-78.5" font-family="Helvetica,sans-Serif" font-size="10.00">HardwareAnalogSensor</text>
<text text-anchor="middle" x="92" y="-67.5" font-family="Helvetica,sans-Serif" font-size="10.00">::_boundary</text>
<polyline fill="none" stroke="black" points="27.5,-60.5 156.5,-60.5 "/>
<text text-anchor="start" x="35.5" y="-48.5" font-family="Helvetica,sans-Serif" font-size="10.00">+ percentage</text>
<text text-anchor="start" x="35.5" y="-37.5" font-family="Helvetica,sans-Serif" font-size="10.00">+ outTimerStarted</text>
<text text-anchor="start" x="35.5" y="-26.5" font-family="Helvetica,sans-Serif" font-size="10.00">+ outTimerLimit</text>
<polyline fill="none" stroke="black" points="27.5,-19.5 156.5,-19.5 "/>
<text text-anchor="middle" x="92" y="-7.5" font-family="Helvetica,sans-Serif" font-size="10.00"> </text>
</g>
<!-- Node2 -->
<g id="node2" class="node"><title>Node2</title>
<g id="a_node2"><a xlink:href="struct_hardware_analog_sensor_1_1__boundary_1_1raw.html" target="_top" xlink:title="{HardwareAnalogSensor\l::_boundary::raw\n|+ lowerEnd\l+ upperEnd\l+ outTimerStarted\l+ outTimerLimit\l|}">
<polygon fill="white" stroke="black" points="123.5,-138.5 123.5,-239.5 252.5,-239.5 252.5,-138.5 123.5,-138.5"/>
<text text-anchor="start" x="131.5" y="-227.5" font-family="Helvetica,sans-Serif" font-size="10.00">HardwareAnalogSensor</text>
<text text-anchor="middle" x="188" y="-216.5" font-family="Helvetica,sans-Serif" font-size="10.00">::_boundary::raw</text>
<polyline fill="none" stroke="black" points="123.5,-209.5 252.5,-209.5 "/>
<text text-anchor="start" x="131.5" y="-197.5" font-family="Helvetica,sans-Serif" font-size="10.00">+ lowerEnd</text>
<text text-anchor="start" x="131.5" y="-186.5" font-family="Helvetica,sans-Serif" font-size="10.00">+ upperEnd</text>
<text text-anchor="start" x="131.5" y="-175.5" font-family="Helvetica,sans-Serif" font-size="10.00">+ outTimerStarted</text>
<text text-anchor="start" x="131.5" y="-164.5" font-family="Helvetica,sans-Serif" font-size="10.00">+ outTimerLimit</text>
<polyline fill="none" stroke="black" points="123.5,-157.5 252.5,-157.5 "/>
<text text-anchor="middle" x="188" y="-145.5" font-family="Helvetica,sans-Serif" font-size="10.00"> </text>
</a>
</g>
</g>
<!-- Node2&#45;&gt;Node1 -->
<g id="edge1" class="edge"><title>Node2&#45;&gt;Node1</title>
<path fill="none" stroke="#404040" d="M154.154,-138.112C145.972,-126.053 137.188,-113.105 128.875,-100.852"/>
<polygon fill="none" stroke="#404040" points="128.764,-100.688 122.085,-97.9684 122.026,-90.7576 128.705,-93.477 128.764,-100.688"/>
<text text-anchor="middle" x="154" y="-112" font-family="Helvetica,sans-Serif" font-size="10.00"> +raw</text>
</g>
<!-- Node3 -->
<g id="node3" class="node"><title>Node3</title>
<g id="a_node3"><a xlink:href="class_timer.html" target="_top" xlink:title="{Timer\n||}">
<polygon fill="white" stroke="black" points="44,-287.5 44,-344.5 88,-344.5 88,-287.5 44,-287.5"/>
<text text-anchor="middle" x="66" y="-332.5" font-family="Helvetica,sans-Serif" font-size="10.00">Timer</text>
<polyline fill="none" stroke="black" points="44,-325.5 88,-325.5 "/>
<text text-anchor="middle" x="66" y="-313.5" font-family="Helvetica,sans-Serif" font-size="10.00"> </text>
<polyline fill="none" stroke="black" points="44,-306.5 88,-306.5 "/>
<text text-anchor="middle" x="66" y="-294.5" font-family="Helvetica,sans-Serif" font-size="10.00"> </text>
</a>
</g>
</g>
<!-- Node3&#45;&gt;Node1 -->
<g id="edge6" class="edge"><title>Node3&#45;&gt;Node1</title>
<path fill="none" stroke="#404040" d="M61.6673,-287.481C56.9316,-252.477 51.1201,-190.29 60,-138 62.0075,-126.179 65.3763,-113.85 69.1932,-102.212"/>
<polygon fill="none" stroke="#404040" points="69.2013,-102.188 67.3834,-95.2099 73.1256,-90.848 74.9435,-97.8262 69.2013,-102.188"/>
<text text-anchor="middle" x="87.5" y="-186.5" font-family="Helvetica,sans-Serif" font-size="10.00"> +outTimer</text>
</g>
<!-- Node3&#45;&gt;Node2 -->
<g id="edge2" class="edge"><title>Node3&#45;&gt;Node2</title>
<path fill="none" stroke="#404040" d="M88.0933,-292.363C100.202,-279.957 115.821,-263.953 131.097,-248.303"/>
<polygon fill="none" stroke="#404040" points="131.141,-248.257 132.47,-241.169 139.523,-239.669 138.195,-246.757 131.141,-248.257"/>
<text text-anchor="middle" x="146.5" y="-261" font-family="Helvetica,sans-Serif" font-size="10.00"> +outTimer</text>
</g>
<!-- Node4 -->
<g id="node4" class="node"><title>Node4</title>
<g id="a_node4"><a xlink:href="class_i_timer.html" target="_top" xlink:title="{ITimer\n||+ ITimer()\l+ start()\l+ stop()\l+ reset()\l+ read()\l+ read_ms()\l+ operator float()\l# getMillis()\l}">
<polygon fill="white" stroke="black" points="15.5,-382.5 15.5,-516.5 116.5,-516.5 116.5,-382.5 15.5,-382.5"/>
<text text-anchor="middle" x="66" y="-504.5" font-family="Helvetica,sans-Serif" font-size="10.00">ITimer</text>
<polyline fill="none" stroke="black" points="15.5,-497.5 116.5,-497.5 "/>
<text text-anchor="middle" x="66" y="-485.5" font-family="Helvetica,sans-Serif" font-size="10.00"> </text>
<polyline fill="none" stroke="black" points="15.5,-478.5 116.5,-478.5 "/>
<text text-anchor="start" x="23.5" y="-466.5" font-family="Helvetica,sans-Serif" font-size="10.00">+ ITimer()</text>
<text text-anchor="start" x="23.5" y="-455.5" font-family="Helvetica,sans-Serif" font-size="10.00">+ start()</text>
<text text-anchor="start" x="23.5" y="-444.5" font-family="Helvetica,sans-Serif" font-size="10.00">+ stop()</text>
<text text-anchor="start" x="23.5" y="-433.5" font-family="Helvetica,sans-Serif" font-size="10.00">+ reset()</text>
<text text-anchor="start" x="23.5" y="-422.5" font-family="Helvetica,sans-Serif" font-size="10.00">+ read()</text>
<text text-anchor="start" x="23.5" y="-411.5" font-family="Helvetica,sans-Serif" font-size="10.00">+ read_ms()</text>
<text text-anchor="start" x="23.5" y="-400.5" font-family="Helvetica,sans-Serif" font-size="10.00">+ operator float()</text>
<text text-anchor="start" x="23.5" y="-389.5" font-family="Helvetica,sans-Serif" font-size="10.00"># getMillis()</text>
</a>
</g>
</g>
<!-- Node4&#45;&gt;Node3 -->
<g id="edge3" class="edge"><title>Node4&#45;&gt;Node3</title>
<path fill="none" stroke="midnightblue" d="M59.3291,-372.117C59.4754,-362.359 59.8246,-352.922 60.3768,-344.697"/>
<polygon fill="none" stroke="midnightblue" points="55.8274,-372.338 59.2501,-382.365 62.8272,-372.392 55.8274,-372.338"/>
</g>
<!-- Node4&#45;&gt;Node3 -->
<g id="edge5" class="edge"><title>Node4&#45;&gt;Node3</title>
<path fill="none" stroke="midnightblue" d="M72.6709,-372.117C72.5246,-362.359 72.1754,-352.922 71.6232,-344.697"/>
<polygon fill="none" stroke="midnightblue" points="69.1728,-372.392 72.7499,-382.365 76.1726,-372.338 69.1728,-372.392"/>
</g>
<!-- Node5 -->
<g id="node5" class="node"><title>Node5</title>
<g id="a_node5"><a xlink:href="class_non_copyable.html" target="_top" xlink:title="{NonCopyable\&lt; ITimer \&gt;\n||+ NonCopyable()\l}">
<polygon fill="white" stroke="black" points="0,-554.5 0,-611.5 132,-611.5 132,-554.5 0,-554.5"/>
<text text-anchor="middle" x="66" y="-599.5" font-family="Helvetica,sans-Serif" font-size="10.00">NonCopyable&lt; ITimer &gt;</text>
<polyline fill="none" stroke="black" points="0,-592.5 132,-592.5 "/>
<text text-anchor="middle" x="66" y="-580.5" font-family="Helvetica,sans-Serif" font-size="10.00"> </text>
<polyline fill="none" stroke="black" points="0,-573.5 132,-573.5 "/>
<text text-anchor="start" x="8" y="-561.5" font-family="Helvetica,sans-Serif" font-size="10.00">+ NonCopyable()</text>
</a>
</g>
</g>
<!-- Node5&#45;&gt;Node4 -->
<g id="edge4" class="edge"><title>Node5&#45;&gt;Node4</title>
<path fill="none" stroke="#8b1a1a" d="M66,-544.331C66,-535.682 66,-526.234 66,-516.771"/>
<polygon fill="none" stroke="#8b1a1a" points="62.5001,-544.433 66,-554.433 69.5001,-544.433 62.5001,-544.433"/>
</g>
</g>
</svg>
