<?xml version="1.0" encoding="UTF-8" standalone="no"?>
<!DOCTYPE svg PUBLIC "-//W3C//DTD SVG 1.1//EN"
 "http://www.w3.org/Graphics/SVG/1.1/DTD/svg11.dtd">
<!-- Generated by graphviz version 2.38.0 (20140413.2041)
 -->
<!-- Title: HardwarePedal::_deviance Pages: 1 -->
<svg width="151pt" height="460pt"
 viewBox="0.00 0.00 151.00 460.00" xmlns="http://www.w3.org/2000/svg" xmlns:xlink="http://www.w3.org/1999/xlink">
<g id="graph0" class="graph" transform="scale(1 1) rotate(0) translate(4 456)">
<title>HardwarePedal::_deviance</title>
<polygon fill="white" stroke="none" points="-4,4 -4,-456 147,-456 147,4 -4,4"/>
<!-- Node1 -->
<g id="node1" class="node"><title>Node1</title>
<polygon fill="#bfbfbf" stroke="black" points="0,-0.5 0,-79.5 143,-79.5 143,-0.5 0,-0.5"/>
<text text-anchor="middle" x="71.5" y="-67.5" font-family="Helvetica,sans-Serif" font-size="10.00">HardwarePedal::_deviance</text>
<polyline fill="none" stroke="black" points="0,-60.5 143,-60.5 "/>
<text text-anchor="start" x="8" y="-48.5" font-family="Helvetica,sans-Serif" font-size="10.00">+ max</text>
<text text-anchor="start" x="8" y="-37.5" font-family="Helvetica,sans-Serif" font-size="10.00">+ maxTime</text>
<text text-anchor="start" x="8" y="-26.5" font-family="Helvetica,sans-Serif" font-size="10.00">+ timerStarted</text>
<polyline fill="none" stroke="black" points="0,-19.5 143,-19.5 "/>
<text text-anchor="middle" x="71.5" y="-7.5" font-family="Helvetica,sans-Serif" font-size="10.00"> </text>
</g>
<!-- Node2 -->
<g id="node2" class="node"><title>Node2</title>
<g id="a_node2"><a xlink:href="class_timer.html" target="_top" xlink:title="{Timer\n||}">
<polygon fill="white" stroke="black" points="49.5,-127.5 49.5,-184.5 93.5,-184.5 93.5,-127.5 49.5,-127.5"/>
<text text-anchor="middle" x="71.5" y="-172.5" font-family="Helvetica,sans-Serif" font-size="10.00">Timer</text>
<polyline fill="none" stroke="black" points="49.5,-165.5 93.5,-165.5 "/>
<text text-anchor="middle" x="71.5" y="-153.5" font-family="Helvetica,sans-Serif" font-size="10.00"> </text>
<polyline fill="none" stroke="black" points="49.5,-146.5 93.5,-146.5 "/>
<text text-anchor="middle" x="71.5" y="-134.5" font-family="Helvetica,sans-Serif" font-size="10.00"> </text>
</a>
</g>
</g>
<!-- Node2&#45;&gt;Node1 -->
<g id="edge1" class="edge"><title>Node2&#45;&gt;Node1</title>
<path fill="none" stroke="#404040" d="M71.5,-127.404C71.5,-116.63 71.5,-103.926 71.5,-91.6231"/>
<polygon fill="none" stroke="#404040" points="71.5001,-91.5406 67.5,-85.5406 71.5,-79.5406 75.5,-85.5405 71.5001,-91.5406"/>
<text text-anchor="middle" x="90" y="-101" font-family="Helvetica,sans-Serif" font-size="10.00"> +timer</text>
</g>
<!-- Node3 -->
<g id="node3" class="node"><title>Node3</title>
<g id="a_node3"><a xlink:href="class_i_timer.html" target="_top" xlink:title="{ITimer\n||+ ITimer()\l+ start()\l+ stop()\l+ reset()\l+ read()\l+ read_ms()\l+ operator float()\l# getMillis()\l}">
<polygon fill="white" stroke="black" points="21,-222.5 21,-356.5 122,-356.5 122,-222.5 21,-222.5"/>
<text text-anchor="middle" x="71.5" y="-344.5" font-family="Helvetica,sans-Serif" font-size="10.00">ITimer</text>
<polyline fill="none" stroke="black" points="21,-337.5 122,-337.5 "/>
<text text-anchor="middle" x="71.5" y="-325.5" font-family="Helvetica,sans-Serif" font-size="10.00"> </text>
<polyline fill="none" stroke="black" points="21,-318.5 122,-318.5 "/>
<text text-anchor="start" x="29" y="-306.5" font-family="Helvetica,sans-Serif" font-size="10.00">+ ITimer()</text>
<text text-anchor="start" x="29" y="-295.5" font-family="Helvetica,sans-Serif" font-size="10.00">+ start()</text>
<text text-anchor="start" x="29" y="-284.5" font-family="Helvetica,sans-Serif" font-size="10.00">+ stop()</text>
<text text-anchor="start" x="29" y="-273.5" font-family="Helvetica,sans-Serif" font-size="10.00">+ reset()</text>
<text text-anchor="start" x="29" y="-262.5" font-family="Helvetica,sans-Serif" font-size="10.00">+ read()</text>
<text text-anchor="start" x="29" y="-251.5" font-family="Helvetica,sans-Serif" font-size="10.00">+ read_ms()</text>
<text text-anchor="start" x="29" y="-240.5" font-family="Helvetica,sans-Serif" font-size="10.00">+ operator float()</text>
<text text-anchor="start" x="29" y="-229.5" font-family="Helvetica,sans-Serif" font-size="10.00"># getMillis()</text>
</a>
</g>
</g>
<!-- Node3&#45;&gt;Node2 -->
<g id="edge2" class="edge"><title>Node3&#45;&gt;Node2</title>
<path fill="none" stroke="midnightblue" d="M64.8291,-212.117C64.9754,-202.359 65.3246,-192.922 65.8768,-184.697"/>
<polygon fill="none" stroke="midnightblue" points="61.3274,-212.338 64.7501,-222.365 68.3272,-212.392 61.3274,-212.338"/>
</g>
<!-- Node3&#45;&gt;Node2 -->
<g id="edge4" class="edge"><title>Node3&#45;&gt;Node2</title>
<path fill="none" stroke="midnightblue" d="M78.1709,-212.117C78.0246,-202.359 77.6754,-192.922 77.1232,-184.697"/>
<polygon fill="none" stroke="midnightblue" points="74.6728,-212.392 78.2499,-222.365 81.6726,-212.338 74.6728,-212.392"/>
</g>
<!-- Node4 -->
<g id="node4" class="node"><title>Node4</title>
<g id="a_node4"><a xlink:href="class_non_copyable.html" target="_top" xlink:title="{NonCopyable\&lt; ITimer \&gt;\n||+ NonCopyable()\l}">
<polygon fill="white" stroke="black" points="5.5,-394.5 5.5,-451.5 137.5,-451.5 137.5,-394.5 5.5,-394.5"/>
<text text-anchor="middle" x="71.5" y="-439.5" font-family="Helvetica,sans-Serif" font-size="10.00">NonCopyable&lt; ITimer &gt;</text>
<polyline fill="none" stroke="black" points="5.5,-432.5 137.5,-432.5 "/>
<text text-anchor="middle" x="71.5" y="-420.5" font-family="Helvetica,sans-Serif" font-size="10.00"> </text>
<polyline fill="none" stroke="black" points="5.5,-413.5 137.5,-413.5 "/>
<text text-anchor="start" x="13.5" y="-401.5" font-family="Helvetica,sans-Serif" font-size="10.00">+ NonCopyable()</text>
</a>
</g>
</g>
<!-- Node4&#45;&gt;Node3 -->
<g id="edge3" class="edge"><title>Node4&#45;&gt;Node3</title>
<path fill="none" stroke="#8b1a1a" d="M71.5,-384.331C71.5,-375.682 71.5,-366.234 71.5,-356.771"/>
<polygon fill="none" stroke="#8b1a1a" points="68.0001,-384.433 71.5,-394.433 75.0001,-384.433 68.0001,-384.433"/>
</g>
</g>
</svg>
