<?xml version="1.0" encoding="UTF-8" standalone="no"?>
<!DOCTYPE svg PUBLIC "-//W3C//DTD SVG 1.1//EN"
 "http://www.w3.org/Graphics/SVG/1.1/DTD/svg11.dtd">
<!-- Generated by graphviz version 2.38.0 (20140413.2041)
 -->
<!-- Title: HardwarePwmBuzzer::_last Pages: 1 -->
<svg width="132pt" height="204pt"
 viewBox="0.00 0.00 132.00 204.00" xmlns="http://www.w3.org/2000/svg" xmlns:xlink="http://www.w3.org/1999/xlink">
<g id="graph0" class="graph" transform="scale(1 1) rotate(0) translate(4 200)">
<title>HardwarePwmBuzzer::_last</title>
<polygon fill="white" stroke="none" points="-4,4 -4,-200 128,-200 128,4 -4,4"/>
<!-- Node1 -->
<g id="node1" class="node"><title>Node1</title>
<polygon fill="#bfbfbf" stroke="black" points="-7.10543e-15,-0.5 -7.10543e-15,-68.5 124,-68.5 124,-0.5 -7.10543e-15,-0.5"/>
<text text-anchor="start" x="8" y="-56.5" font-family="Helvetica,sans-Serif" font-size="10.00">HardwarePwmBuzzer::</text>
<text text-anchor="middle" x="62" y="-45.5" font-family="Helvetica,sans-Serif" font-size="10.00">_last</text>
<polyline fill="none" stroke="black" points="-7.10543e-15,-38.5 124,-38.5 "/>
<text text-anchor="start" x="8" y="-26.5" font-family="Helvetica,sans-Serif" font-size="10.00">+ state</text>
<polyline fill="none" stroke="black" points="-7.10543e-15,-19.5 124,-19.5 "/>
<text text-anchor="middle" x="62" y="-7.5" font-family="Helvetica,sans-Serif" font-size="10.00"> </text>
</g>
<!-- Node2 -->
<g id="node2" class="node"><title>Node2</title>
<g id="a_node2"><a xlink:href="struct_hardware_pwm_buzzer_1_1__last_1_1beep.html" target="_top" xlink:title="{HardwarePwmBuzzer::\l_last::beep\n|+ state\l+ type\l|}">
<polygon fill="white" stroke="black" points="-7.10543e-15,-116.5 -7.10543e-15,-195.5 124,-195.5 124,-116.5 -7.10543e-15,-116.5"/>
<text text-anchor="start" x="8" y="-183.5" font-family="Helvetica,sans-Serif" font-size="10.00">HardwarePwmBuzzer::</text>
<text text-anchor="middle" x="62" y="-172.5" font-family="Helvetica,sans-Serif" font-size="10.00">_last::beep</text>
<polyline fill="none" stroke="black" points="-7.10543e-15,-165.5 124,-165.5 "/>
<text text-anchor="start" x="8" y="-153.5" font-family="Helvetica,sans-Serif" font-size="10.00">+ state</text>
<text text-anchor="start" x="8" y="-142.5" font-family="Helvetica,sans-Serif" font-size="10.00">+ type</text>
<polyline fill="none" stroke="black" points="-7.10543e-15,-135.5 124,-135.5 "/>
<text text-anchor="middle" x="62" y="-123.5" font-family="Helvetica,sans-Serif" font-size="10.00"> </text>
</a>
</g>
</g>
<!-- Node2&#45;&gt;Node1 -->
<g id="edge1" class="edge"><title>Node2&#45;&gt;Node1</title>
<path fill="none" stroke="#404040" d="M62,-116.202C62,-104.991 62,-92.6534 62,-81.0704"/>
<polygon fill="none" stroke="#404040" points="62.0001,-80.8867 58,-74.8867 62,-68.8867 66,-74.8867 62.0001,-80.8867"/>
<text text-anchor="middle" x="80" y="-90" font-family="Helvetica,sans-Serif" font-size="10.00"> +beep</text>
</g>
</g>
</svg>
