<?xml version="1.0" encoding="UTF-8" standalone="no"?>
<!DOCTYPE svg PUBLIC "-//W3C//DTD SVG 1.1//EN"
 "http://www.w3.org/Graphics/SVG/1.1/DTD/svg11.dtd">
<!-- Generated by graphviz version 2.38.0 (20140413.2041)
 -->
<!-- Title: PMotorController::_asrSave Pages: 1 -->
<svg width="140pt" height="460pt"
 viewBox="0.00 0.00 140.00 460.00" xmlns="http://www.w3.org/2000/svg" xmlns:xlink="http://www.w3.org/1999/xlink">
<g id="graph0" class="graph" transform="scale(1 1) rotate(0) translate(4 456)">
<title>PMotorController::_asrSave</title>
<polygon fill="white" stroke="none" points="-4,4 -4,-456 136,-456 136,4 -4,4"/>
<!-- Node1 -->
<g id="node1" class="node"><title>Node1</title>
<polygon fill="#bfbfbf" stroke="black" points="14.5,-0.5 14.5,-79.5 117.5,-79.5 117.5,-0.5 14.5,-0.5"/>
<text text-anchor="start" x="22.5" y="-67.5" font-family="Helvetica,sans-Serif" font-size="10.00">PMotorController::</text>
<text text-anchor="middle" x="66" y="-56.5" font-family="Helvetica,sans-Serif" font-size="10.00">_asrSave</text>
<polyline fill="none" stroke="black" points="14.5,-49.5 117.5,-49.5 "/>
<text text-anchor="start" x="22.5" y="-37.5" font-family="Helvetica,sans-Serif" font-size="10.00">+ lastTorque</text>
<text text-anchor="start" x="22.5" y="-26.5" font-family="Helvetica,sans-Serif" font-size="10.00">+ lastA</text>
<polyline fill="none" stroke="black" points="14.5,-19.5 117.5,-19.5 "/>
<text text-anchor="middle" x="66" y="-7.5" font-family="Helvetica,sans-Serif" font-size="10.00"> </text>
</g>
<!-- Node2 -->
<g id="node2" class="node"><title>Node2</title>
<g id="a_node2"><a xlink:href="class_timer.html" target="_top" xlink:title="{Timer\n||}">
<polygon fill="white" stroke="black" points="44,-127.5 44,-184.5 88,-184.5 88,-127.5 44,-127.5"/>
<text text-anchor="middle" x="66" y="-172.5" font-family="Helvetica,sans-Serif" font-size="10.00">Timer</text>
<polyline fill="none" stroke="black" points="44,-165.5 88,-165.5 "/>
<text text-anchor="middle" x="66" y="-153.5" font-family="Helvetica,sans-Serif" font-size="10.00"> </text>
<polyline fill="none" stroke="black" points="44,-146.5 88,-146.5 "/>
<text text-anchor="middle" x="66" y="-134.5" font-family="Helvetica,sans-Serif" font-size="10.00"> </text>
</a>
</g>
</g>
<!-- Node2&#45;&gt;Node1 -->
<g id="edge1" class="edge"><title>Node2&#45;&gt;Node1</title>
<path fill="none" stroke="#404040" d="M66,-127.404C66,-116.63 66,-103.926 66,-91.6231"/>
<polygon fill="none" stroke="#404040" points="66.0001,-91.5406 62,-85.5406 66,-79.5406 70,-85.5405 66.0001,-91.5406"/>
<text text-anchor="middle" x="89" y="-101" font-family="Helvetica,sans-Serif" font-size="10.00"> +lastRun</text>
</g>
<!-- Node3 -->
<g id="node3" class="node"><title>Node3</title>
<g id="a_node3"><a xlink:href="class_i_timer.html" target="_top" xlink:title="{ITimer\n||+ ITimer()\l+ start()\l+ stop()\l+ reset()\l+ read()\l+ read_ms()\l+ operator float()\l# getMillis()\l}">
<polygon fill="white" stroke="black" points="15.5,-222.5 15.5,-356.5 116.5,-356.5 116.5,-222.5 15.5,-222.5"/>
<text text-anchor="middle" x="66" y="-344.5" font-family="Helvetica,sans-Serif" font-size="10.00">ITimer</text>
<polyline fill="none" stroke="black" points="15.5,-337.5 116.5,-337.5 "/>
<text text-anchor="middle" x="66" y="-325.5" font-family="Helvetica,sans-Serif" font-size="10.00"> </text>
<polyline fill="none" stroke="black" points="15.5,-318.5 116.5,-318.5 "/>
<text text-anchor="start" x="23.5" y="-306.5" font-family="Helvetica,sans-Serif" font-size="10.00">+ ITimer()</text>
<text text-anchor="start" x="23.5" y="-295.5" font-family="Helvetica,sans-Serif" font-size="10.00">+ start()</text>
<text text-anchor="start" x="23.5" y="-284.5" font-family="Helvetica,sans-Serif" font-size="10.00">+ stop()</text>
<text text-anchor="start" x="23.5" y="-273.5" font-family="Helvetica,sans-Serif" font-size="10.00">+ reset()</text>
<text text-anchor="start" x="23.5" y="-262.5" font-family="Helvetica,sans-Serif" font-size="10.00">+ read()</text>
<text text-anchor="start" x="23.5" y="-251.5" font-family="Helvetica,sans-Serif" font-size="10.00">+ read_ms()</text>
<text text-anchor="start" x="23.5" y="-240.5" font-family="Helvetica,sans-Serif" font-size="10.00">+ operator float()</text>
<text text-anchor="start" x="23.5" y="-229.5" font-family="Helvetica,sans-Serif" font-size="10.00"># getMillis()</text>
</a>
</g>
</g>
<!-- Node3&#45;&gt;Node2 -->
<g id="edge2" class="edge"><title>Node3&#45;&gt;Node2</title>
<path fill="none" stroke="midnightblue" d="M59.3291,-212.117C59.4754,-202.359 59.8246,-192.922 60.3768,-184.697"/>
<polygon fill="none" stroke="midnightblue" points="55.8274,-212.338 59.2501,-222.365 62.8272,-212.392 55.8274,-212.338"/>
</g>
<!-- Node3&#45;&gt;Node2 -->
<g id="edge4" class="edge"><title>Node3&#45;&gt;Node2</title>
<path fill="none" stroke="midnightblue" d="M72.6709,-212.117C72.5246,-202.359 72.1754,-192.922 71.6232,-184.697"/>
<polygon fill="none" stroke="midnightblue" points="69.1728,-212.392 72.7499,-222.365 76.1726,-212.338 69.1728,-212.392"/>
</g>
<!-- Node4 -->
<g id="node4" class="node"><title>Node4</title>
<g id="a_node4"><a xlink:href="class_non_copyable.html" target="_top" xlink:title="{NonCopyable\&lt; ITimer \&gt;\n||+ NonCopyable()\l}">
<polygon fill="white" stroke="black" points="0,-394.5 0,-451.5 132,-451.5 132,-394.5 0,-394.5"/>
<text text-anchor="middle" x="66" y="-439.5" font-family="Helvetica,sans-Serif" font-size="10.00">NonCopyable&lt; ITimer &gt;</text>
<polyline fill="none" stroke="black" points="0,-432.5 132,-432.5 "/>
<text text-anchor="middle" x="66" y="-420.5" font-family="Helvetica,sans-Serif" font-size="10.00"> </text>
<polyline fill="none" stroke="black" points="0,-413.5 132,-413.5 "/>
<text text-anchor="start" x="8" y="-401.5" font-family="Helvetica,sans-Serif" font-size="10.00">+ NonCopyable()</text>
</a>
</g>
</g>
<!-- Node4&#45;&gt;Node3 -->
<g id="edge3" class="edge"><title>Node4&#45;&gt;Node3</title>
<path fill="none" stroke="#8b1a1a" d="M66,-384.331C66,-375.682 66,-366.234 66,-356.771"/>
<polygon fill="none" stroke="#8b1a1a" points="62.5001,-384.433 66,-394.433 69.5001,-384.433 62.5001,-384.433"/>
</g>
</g>
</svg>
