<?xml version="1.0" encoding="UTF-8" standalone="no"?>
<!DOCTYPE svg PUBLIC "-//W3C//DTD SVG 1.1//EN"
 "http://www.w3.org/Graphics/SVG/1.1/DTD/svg11.dtd">
<!-- Generated by graphviz version 2.38.0 (20140413.2041)
 -->
<!-- Title: PMotorController::_rpmSensorStruct_t Pages: 1 -->
<!--zoomable 1336 -->
<svg id="main" version="1.1" xmlns="http://www.w3.org/2000/svg" xmlns:xlink="http://www.w3.org/1999/xlink" xml:space="preserve" onload="init(evt)">
<style type="text/css"><![CDATA[
.edge:hover path { stroke: red; }
.edge:hover polygon { stroke: red; fill: red; }
]]></style>
<script type="text/javascript"><![CDATA[
var edges = document.getElementsByTagName('g');
if (edges && edges.length) {
  for (var i=0;i<edges.length;i++) {
    if (edges[i].id.substr(0,4)=='edge') {
      edges[i].setAttribute('class','edge');
    }
  }
}
]]></script>
        <defs>
                <circle id="rim" cx="0" cy="0" r="7"/>
                <circle id="rim2" cx="0" cy="0" r="3.5"/>
                <g id="zoomPlus">
                        <use xlink:href="#rim" fill="#404040">
                                <set attributeName="fill" to="#808080" begin="zoomplus.mouseover" end="zoomplus.mouseout"/>
                        </use>
                        <path d="M-4,0h8M0,-4v8" fill="none" stroke="white" stroke-width="1.5" pointer-events="none"/>
                </g>
                <g id="zoomMin">
                        <use xlink:href="#rim" fill="#404040">
                                <set attributeName="fill" to="#808080" begin="zoomminus.mouseover" end="zoomminus.mouseout"/>
                        </use>
                        <path d="M-4,0h8" fill="none" stroke="white" stroke-width="1.5" pointer-events="none"/>
                </g>
                <g id="dirArrow">
                        <path fill="none" stroke="white" stroke-width="1.5" d="M0,-3.0v7 M-2.5,-0.5L0,-3.0L2.5,-0.5"/>
                </g>
               <g id="resetDef">
                       <use xlink:href="#rim2" fill="#404040">
                               <set attributeName="fill" to="#808080" begin="reset.mouseover" end="reset.mouseout"/>
                       </use>
               </g>
        </defs>

<script type="text/javascript">
var viewWidth = 494;
var viewHeight = 1336;
var sectionId = 'dynsection-0';
</script>
<script xlink:href="svgpan.js"/>
<svg id="graph" class="graph">
<g id="viewport">
<title>PMotorController::_rpmSensorStruct_t</title>
<polygon fill="white" stroke="none" points="-4,4 -4,-1332 489.5,-1332 489.5,4 -4,4"/>
<!-- Node1 -->
<g id="node1" class="node"><title>Node1</title>
<polygon fill="#bfbfbf" stroke="black" points="300,-0.5 300,-79.5 413,-79.5 413,-0.5 300,-0.5"/>
<text text-anchor="start" x="308" y="-67.5" font-family="Helvetica,sans-Serif" font-size="10.00">PMotorController::</text>
<text text-anchor="middle" x="356.5" y="-56.5" font-family="Helvetica,sans-Serif" font-size="10.00">_rpmSensorStruct_t</text>
<polyline fill="none" stroke="black" points="300,-49.5 413,-49.5 "/>
<text text-anchor="start" x="308" y="-37.5" font-family="Helvetica,sans-Serif" font-size="10.00">+ lastValue</text>
<text text-anchor="start" x="308" y="-26.5" font-family="Helvetica,sans-Serif" font-size="10.00">+ ageStarted</text>
<polyline fill="none" stroke="black" points="300,-19.5 413,-19.5 "/>
<text text-anchor="middle" x="356.5" y="-7.5" font-family="Helvetica,sans-Serif" font-size="10.00"> </text>
</g>
<!-- Node2 -->
<g id="node2" class="node"><title>Node2</title>
<g id="a_node2"><a xlink:href="class_i_rpm_sensor.html" target="_top" xlink:title="{IRpmSensor\n||+ IRpmSensor()\l+ setMeasurementPointsPerRevolution()\l+ setFrequency()\l+ getMeasurementsPerRevolution()\l+ getFrequency()\l+ getLogValueCount()\l+ getLogValue()\l}">
<polygon fill="white" stroke="black" points="168,-127.5 168,-250.5 379,-250.5 379,-127.5 168,-127.5"/>
<text text-anchor="middle" x="273.5" y="-238.5" font-family="Helvetica,sans-Serif" font-size="10.00">IRpmSensor</text>
<polyline fill="none" stroke="black" points="168,-231.5 379,-231.5 "/>
<text text-anchor="middle" x="273.5" y="-219.5" font-family="Helvetica,sans-Serif" font-size="10.00"> </text>
<polyline fill="none" stroke="black" points="168,-212.5 379,-212.5 "/>
<text text-anchor="start" x="176" y="-200.5" font-family="Helvetica,sans-Serif" font-size="10.00">+ IRpmSensor()</text>
<text text-anchor="start" x="176" y="-189.5" font-family="Helvetica,sans-Serif" font-size="10.00">+ setMeasurementPointsPerRevolution()</text>
<text text-anchor="start" x="176" y="-178.5" font-family="Helvetica,sans-Serif" font-size="10.00">+ setFrequency()</text>
<text text-anchor="start" x="176" y="-167.5" font-family="Helvetica,sans-Serif" font-size="10.00">+ getMeasurementsPerRevolution()</text>
<text text-anchor="start" x="176" y="-156.5" font-family="Helvetica,sans-Serif" font-size="10.00">+ getFrequency()</text>
<text text-anchor="start" x="176" y="-145.5" font-family="Helvetica,sans-Serif" font-size="10.00">+ getLogValueCount()</text>
<text text-anchor="start" x="176" y="-134.5" font-family="Helvetica,sans-Serif" font-size="10.00">+ getLogValue()</text>
</a>
</g>
</g>
<!-- Node2&#45;&gt;Node1 -->
<g id="edge1" class="edge"><title>Node2&#45;&gt;Node1</title>
<path fill="none" stroke="#404040" d="M307.738,-127.361C314.713,-115.008 321.97,-102.156 328.688,-90.2574"/>
<polygon fill="none" stroke="#404040" points="328.783,-90.0899 328.249,-82.8986 334.683,-79.6405 335.216,-86.8319 328.783,-90.0899"/>
<text text-anchor="middle" x="346" y="-101" font-family="Helvetica,sans-Serif" font-size="10.00"> +object</text>
</g>
<!-- Node3 -->
<g id="node3" class="node"><title>Node3</title>
<g id="a_node3"><a xlink:href="class_self_syncable.html" target="_top" xlink:title="{SelfSyncable\n|# _syncerAttached\l|+ attach()\l+ detach()\l# _sendCommand()\l# _sendCommand()\l# _sendCommand()\l# _send()\l# _convertFloat()\l# _reconvertFloat()\l# _disassambleFloat()\l# _reassambleFloat()\l}">
<polygon fill="white" stroke="black" points="211.5,-288.5 211.5,-444.5 335.5,-444.5 335.5,-288.5 211.5,-288.5"/>
<text text-anchor="middle" x="273.5" y="-432.5" font-family="Helvetica,sans-Serif" font-size="10.00">SelfSyncable</text>
<polyline fill="none" stroke="black" points="211.5,-425.5 335.5,-425.5 "/>
<text text-anchor="start" x="219.5" y="-413.5" font-family="Helvetica,sans-Serif" font-size="10.00"># _syncerAttached</text>
<polyline fill="none" stroke="black" points="211.5,-406.5 335.5,-406.5 "/>
<text text-anchor="start" x="219.5" y="-394.5" font-family="Helvetica,sans-Serif" font-size="10.00">+ attach()</text>
<text text-anchor="start" x="219.5" y="-383.5" font-family="Helvetica,sans-Serif" font-size="10.00">+ detach()</text>
<text text-anchor="start" x="219.5" y="-372.5" font-family="Helvetica,sans-Serif" font-size="10.00"># _sendCommand()</text>
<text text-anchor="start" x="219.5" y="-361.5" font-family="Helvetica,sans-Serif" font-size="10.00"># _sendCommand()</text>
<text text-anchor="start" x="219.5" y="-350.5" font-family="Helvetica,sans-Serif" font-size="10.00"># _sendCommand()</text>
<text text-anchor="start" x="219.5" y="-339.5" font-family="Helvetica,sans-Serif" font-size="10.00"># _send()</text>
<text text-anchor="start" x="219.5" y="-328.5" font-family="Helvetica,sans-Serif" font-size="10.00"># _convertFloat()</text>
<text text-anchor="start" x="219.5" y="-317.5" font-family="Helvetica,sans-Serif" font-size="10.00"># _reconvertFloat()</text>
<text text-anchor="start" x="219.5" y="-306.5" font-family="Helvetica,sans-Serif" font-size="10.00"># _disassambleFloat()</text>
<text text-anchor="start" x="219.5" y="-295.5" font-family="Helvetica,sans-Serif" font-size="10.00"># _reassambleFloat()</text>
</a>
</g>
</g>
<!-- Node3&#45;&gt;Node2 -->
<g id="edge2" class="edge"><title>Node3&#45;&gt;Node2</title>
<path fill="none" stroke="midnightblue" d="M273.5,-278.186C273.5,-268.874 273.5,-259.556 273.5,-250.65"/>
<polygon fill="none" stroke="midnightblue" points="270,-278.268 273.5,-288.268 277,-278.268 270,-278.268"/>
</g>
<!-- Node4 -->
<g id="node4" class="node"><title>Node4</title>
<g id="a_node4"><a xlink:href="class_i_communication.html" target="_top" xlink:title="{ICommunication\n||+ receive()\l}">
<polygon fill="white" stroke="black" points="244,-678.5 244,-735.5 339,-735.5 339,-678.5 244,-678.5"/>
<text text-anchor="middle" x="291.5" y="-723.5" font-family="Helvetica,sans-Serif" font-size="10.00">ICommunication</text>
<polyline fill="none" stroke="black" points="244,-716.5 339,-716.5 "/>
<text text-anchor="middle" x="291.5" y="-704.5" font-family="Helvetica,sans-Serif" font-size="10.00"> </text>
<polyline fill="none" stroke="black" points="244,-697.5 339,-697.5 "/>
<text text-anchor="start" x="252" y="-685.5" font-family="Helvetica,sans-Serif" font-size="10.00">+ receive()</text>
</a>
</g>
</g>
<!-- Node4&#45;&gt;Node3 -->
<g id="edge3" class="edge"><title>Node4&#45;&gt;Node3</title>
<path fill="none" stroke="midnightblue" d="M291.739,-668.053C291.77,-620.187 290.927,-535.378 285.5,-463 285.05,-457.001 284.49,-450.801 283.858,-444.575"/>
<polygon fill="none" stroke="midnightblue" points="288.239,-668.252 291.719,-678.259 295.239,-668.266 288.239,-668.252"/>
</g>
<!-- Node5 -->
<g id="node5" class="node"><title>Node5</title>
<g id="a_node5"><a xlink:href="class_i_component.html" target="_top" xlink:title="{IComponent\n||+ IComponent()\l+ IComponent()\l+ setComponentSubId()\l+ getComponentType()\l+ getComponentSubId()\l+ getComponentId()\l+ getObjectType()\l# setComponentType()\l# setObjectType()\l}">
<polygon fill="white" stroke="black" points="191.5,-959.5 191.5,-1104.5 325.5,-1104.5 325.5,-959.5 191.5,-959.5"/>
<text text-anchor="middle" x="258.5" y="-1092.5" font-family="Helvetica,sans-Serif" font-size="10.00">IComponent</text>
<polyline fill="none" stroke="black" points="191.5,-1085.5 325.5,-1085.5 "/>
<text text-anchor="middle" x="258.5" y="-1073.5" font-family="Helvetica,sans-Serif" font-size="10.00"> </text>
<polyline fill="none" stroke="black" points="191.5,-1066.5 325.5,-1066.5 "/>
<text text-anchor="start" x="199.5" y="-1054.5" font-family="Helvetica,sans-Serif" font-size="10.00">+ IComponent()</text>
<text text-anchor="start" x="199.5" y="-1043.5" font-family="Helvetica,sans-Serif" font-size="10.00">+ IComponent()</text>
<text text-anchor="start" x="199.5" y="-1032.5" font-family="Helvetica,sans-Serif" font-size="10.00">+ setComponentSubId()</text>
<text text-anchor="start" x="199.5" y="-1021.5" font-family="Helvetica,sans-Serif" font-size="10.00">+ getComponentType()</text>
<text text-anchor="start" x="199.5" y="-1010.5" font-family="Helvetica,sans-Serif" font-size="10.00">+ getComponentSubId()</text>
<text text-anchor="start" x="199.5" y="-999.5" font-family="Helvetica,sans-Serif" font-size="10.00">+ getComponentId()</text>
<text text-anchor="start" x="199.5" y="-988.5" font-family="Helvetica,sans-Serif" font-size="10.00">+ getObjectType()</text>
<text text-anchor="start" x="199.5" y="-977.5" font-family="Helvetica,sans-Serif" font-size="10.00"># setComponentType()</text>
<text text-anchor="start" x="199.5" y="-966.5" font-family="Helvetica,sans-Serif" font-size="10.00"># setObjectType()</text>
</a>
</g>
</g>
<!-- Node5&#45;&gt;Node4 -->
<g id="edge4" class="edge"><title>Node5&#45;&gt;Node4</title>
<path fill="none" stroke="midnightblue" d="M266.857,-949.199C274.003,-879.259 283.868,-782.706 288.659,-735.805"/>
<polygon fill="none" stroke="midnightblue" points="263.358,-949.012 265.824,-959.316 270.322,-949.723 263.358,-949.012"/>
</g>
<!-- Node9 -->
<g id="node9" class="node"><title>Node9</title>
<g id="a_node9"><a xlink:href="class_i_runable.html" target="_top" xlink:title="{IRunable\n||+ IRunable()\l+ run()\l+ setStatus()\l+ getStatus()\l}">
<polygon fill="white" stroke="black" points="174,-793 174,-883 257,-883 257,-793 174,-793"/>
<text text-anchor="middle" x="215.5" y="-871" font-family="Helvetica,sans-Serif" font-size="10.00">IRunable</text>
<polyline fill="none" stroke="black" points="174,-864 257,-864 "/>
<text text-anchor="middle" x="215.5" y="-852" font-family="Helvetica,sans-Serif" font-size="10.00"> </text>
<polyline fill="none" stroke="black" points="174,-845 257,-845 "/>
<text text-anchor="start" x="182" y="-833" font-family="Helvetica,sans-Serif" font-size="10.00">+ IRunable()</text>
<text text-anchor="start" x="182" y="-822" font-family="Helvetica,sans-Serif" font-size="10.00">+ run()</text>
<text text-anchor="start" x="182" y="-811" font-family="Helvetica,sans-Serif" font-size="10.00">+ setStatus()</text>
<text text-anchor="start" x="182" y="-800" font-family="Helvetica,sans-Serif" font-size="10.00">+ getStatus()</text>
</a>
</g>
</g>
<!-- Node5&#45;&gt;Node9 -->
<g id="edge9" class="edge"><title>Node5&#45;&gt;Node9</title>
<path fill="none" stroke="midnightblue" d="M240.19,-949.242C235.105,-926.538 229.777,-902.747 225.377,-883.101"/>
<polygon fill="none" stroke="midnightblue" points="236.826,-950.24 242.427,-959.233 243.657,-948.71 236.826,-950.24"/>
</g>
<!-- Node6 -->
<g id="node6" class="node"><title>Node6</title>
<g id="a_node6"><a xlink:href="class_i_logable.html" target="_top" xlink:title="{ILogable\n||+ setStatus()\l+ getStatus()\l+ getLogValueCount()\l+ getLogValue()\l}">
<polygon fill="white" stroke="black" points="197,-1142.5 197,-1232.5 320,-1232.5 320,-1142.5 197,-1142.5"/>
<text text-anchor="middle" x="258.5" y="-1220.5" font-family="Helvetica,sans-Serif" font-size="10.00">ILogable</text>
<polyline fill="none" stroke="black" points="197,-1213.5 320,-1213.5 "/>
<text text-anchor="middle" x="258.5" y="-1201.5" font-family="Helvetica,sans-Serif" font-size="10.00"> </text>
<polyline fill="none" stroke="black" points="197,-1194.5 320,-1194.5 "/>
<text text-anchor="start" x="205" y="-1182.5" font-family="Helvetica,sans-Serif" font-size="10.00">+ setStatus()</text>
<text text-anchor="start" x="205" y="-1171.5" font-family="Helvetica,sans-Serif" font-size="10.00">+ getStatus()</text>
<text text-anchor="start" x="205" y="-1160.5" font-family="Helvetica,sans-Serif" font-size="10.00">+ getLogValueCount()</text>
<text text-anchor="start" x="205" y="-1149.5" font-family="Helvetica,sans-Serif" font-size="10.00">+ getLogValue()</text>
</a>
</g>
</g>
<!-- Node6&#45;&gt;Node5 -->
<g id="edge5" class="edge"><title>Node6&#45;&gt;Node5</title>
<path fill="none" stroke="midnightblue" d="M258.5,-1131.98C258.5,-1123.16 258.5,-1113.92 258.5,-1104.77"/>
<polygon fill="none" stroke="midnightblue" points="255,-1132.1 258.5,-1142.1 262,-1132.1 255,-1132.1"/>
</g>
<!-- Node7 -->
<g id="node7" class="node"><title>Node7</title>
<g id="a_node7"><a xlink:href="class_non_copyable.html" target="_top" xlink:title="{NonCopyable\&lt; ILogable \&gt;\n||+ NonCopyable()\l}">
<polygon fill="white" stroke="black" points="187,-1270.5 187,-1327.5 330,-1327.5 330,-1270.5 187,-1270.5"/>
<text text-anchor="middle" x="258.5" y="-1315.5" font-family="Helvetica,sans-Serif" font-size="10.00">NonCopyable&lt; ILogable &gt;</text>
<polyline fill="none" stroke="black" points="187,-1308.5 330,-1308.5 "/>
<text text-anchor="middle" x="258.5" y="-1296.5" font-family="Helvetica,sans-Serif" font-size="10.00"> </text>
<polyline fill="none" stroke="black" points="187,-1289.5 330,-1289.5 "/>
<text text-anchor="start" x="195" y="-1277.5" font-family="Helvetica,sans-Serif" font-size="10.00">+ NonCopyable()</text>
</a>
</g>
</g>
<!-- Node7&#45;&gt;Node6 -->
<g id="edge6" class="edge"><title>Node7&#45;&gt;Node6</title>
<path fill="none" stroke="#8b1a1a" d="M258.5,-1260.31C258.5,-1251.43 258.5,-1241.88 258.5,-1232.74"/>
<polygon fill="none" stroke="#8b1a1a" points="255,-1260.37 258.5,-1270.37 262,-1260.37 255,-1260.37"/>
</g>
<!-- Node8 -->
<g id="node8" class="node"><title>Node8</title>
<g id="a_node8"><a xlink:href="class_sync.html" target="_top" xlink:title="{Sync\n||+ Sync()\l+ addComponent()\l+ addBridge()\l+ receive()\l+ send()\l+ run()\l+ messageInQueue()\l+ finalize()\l+ Sync()\l+ receive()\land 7 more...\l}">
<polygon fill="white" stroke="black" points="152,-492.5 152,-659.5 271,-659.5 271,-492.5 152,-492.5"/>
<text text-anchor="middle" x="211.5" y="-647.5" font-family="Helvetica,sans-Serif" font-size="10.00">Sync</text>
<polyline fill="none" stroke="black" points="152,-640.5 271,-640.5 "/>
<text text-anchor="middle" x="211.5" y="-628.5" font-family="Helvetica,sans-Serif" font-size="10.00"> </text>
<polyline fill="none" stroke="black" points="152,-621.5 271,-621.5 "/>
<text text-anchor="start" x="160" y="-609.5" font-family="Helvetica,sans-Serif" font-size="10.00">+ Sync()</text>
<text text-anchor="start" x="160" y="-598.5" font-family="Helvetica,sans-Serif" font-size="10.00">+ addComponent()</text>
<text text-anchor="start" x="160" y="-587.5" font-family="Helvetica,sans-Serif" font-size="10.00">+ addBridge()</text>
<text text-anchor="start" x="160" y="-576.5" font-family="Helvetica,sans-Serif" font-size="10.00">+ receive()</text>
<text text-anchor="start" x="160" y="-565.5" font-family="Helvetica,sans-Serif" font-size="10.00">+ send()</text>
<text text-anchor="start" x="160" y="-554.5" font-family="Helvetica,sans-Serif" font-size="10.00">+ run()</text>
<text text-anchor="start" x="160" y="-543.5" font-family="Helvetica,sans-Serif" font-size="10.00">+ messageInQueue()</text>
<text text-anchor="start" x="160" y="-532.5" font-family="Helvetica,sans-Serif" font-size="10.00">+ finalize()</text>
<text text-anchor="start" x="160" y="-521.5" font-family="Helvetica,sans-Serif" font-size="10.00">+ Sync()</text>
<text text-anchor="start" x="160" y="-510.5" font-family="Helvetica,sans-Serif" font-size="10.00">+ receive()</text>
<text text-anchor="start" x="160" y="-499.5" font-family="Helvetica,sans-Serif" font-size="10.00">and 7 more...</text>
</a>
</g>
</g>
<!-- Node8&#45;&gt;Node3 -->
<g id="edge7" class="edge"><title>Node8&#45;&gt;Node3</title>
<path fill="none" stroke="#404040" d="M228.467,-492.364C230.945,-482.412 233.636,-472.437 236.5,-463 237.187,-460.735 237.903,-458.447 238.643,-456.145"/>
<polygon fill="none" stroke="#404040" points="238.712,-455.938 236.821,-448.979 242.517,-444.557 244.408,-451.515 238.712,-455.938"/>
<text text-anchor="middle" x="261" y="-466" font-family="Helvetica,sans-Serif" font-size="10.00"> #_syncer</text>
</g>
<!-- Node9&#45;&gt;Node8 -->
<g id="edge8" class="edge"><title>Node9&#45;&gt;Node8</title>
<path fill="none" stroke="midnightblue" d="M209.058,-782.718C207.291,-747.146 206.321,-699.965 206.436,-659.76"/>
<polygon fill="none" stroke="midnightblue" points="205.573,-783.097 209.604,-792.895 212.563,-782.721 205.573,-783.097"/>
</g>
<!-- Node9&#45;&gt;Node8 -->
<g id="edge10" class="edge"><title>Node9&#45;&gt;Node8</title>
<path fill="none" stroke="midnightblue" d="M220.272,-782.718C220.945,-747.146 220.462,-699.965 219.11,-659.76"/>
<polygon fill="none" stroke="midnightblue" points="216.769,-782.817 220.038,-792.895 223.767,-782.977 216.769,-782.817"/>
</g>
<!-- Node10 -->
<g id="node10" class="node"><title>Node10</title>
<g id="a_node10"><a xlink:href="classstd_1_1vector.html" target="_top" xlink:title="{std::vector\&lt; CarMessage \&gt;\n||+ ~vector()\l+ at()\l+ operator[]()\l+ front()\l+ back()\l+ data()\l+ begin()\l+ end()\l+ empty()\l+ size()\land 7 more...\l}">
<polygon fill="white" stroke="black" points="0,-754.5 0,-921.5 149,-921.5 149,-754.5 0,-754.5"/>
<text text-anchor="middle" x="74.5" y="-909.5" font-family="Helvetica,sans-Serif" font-size="10.00">std::vector&lt; CarMessage &gt;</text>
<polyline fill="none" stroke="black" points="0,-902.5 149,-902.5 "/>
<text text-anchor="middle" x="74.5" y="-890.5" font-family="Helvetica,sans-Serif" font-size="10.00"> </text>
<polyline fill="none" stroke="black" points="0,-883.5 149,-883.5 "/>
<text text-anchor="start" x="8" y="-871.5" font-family="Helvetica,sans-Serif" font-size="10.00">+ ~vector()</text>
<text text-anchor="start" x="8" y="-860.5" font-family="Helvetica,sans-Serif" font-size="10.00">+ at()</text>
<text text-anchor="start" x="8" y="-849.5" font-family="Helvetica,sans-Serif" font-size="10.00">+ operator[]()</text>
<text text-anchor="start" x="8" y="-838.5" font-family="Helvetica,sans-Serif" font-size="10.00">+ front()</text>
<text text-anchor="start" x="8" y="-827.5" font-family="Helvetica,sans-Serif" font-size="10.00">+ back()</text>
<text text-anchor="start" x="8" y="-816.5" font-family="Helvetica,sans-Serif" font-size="10.00">+ data()</text>
<text text-anchor="start" x="8" y="-805.5" font-family="Helvetica,sans-Serif" font-size="10.00">+ begin()</text>
<text text-anchor="start" x="8" y="-794.5" font-family="Helvetica,sans-Serif" font-size="10.00">+ end()</text>
<text text-anchor="start" x="8" y="-783.5" font-family="Helvetica,sans-Serif" font-size="10.00">+ empty()</text>
<text text-anchor="start" x="8" y="-772.5" font-family="Helvetica,sans-Serif" font-size="10.00">+ size()</text>
<text text-anchor="start" x="8" y="-761.5" font-family="Helvetica,sans-Serif" font-size="10.00">and 7 more...</text>
</a>
</g>
</g>
<!-- Node10&#45;&gt;Node8 -->
<g id="edge11" class="edge"><title>Node10&#45;&gt;Node8</title>
<path fill="none" stroke="#404040" d="M72.2405,-754.251C74.5224,-728.6 80.213,-701.042 92.5,-678 104.334,-655.808 123.228,-636.431 142.509,-620.746"/>
<polygon fill="none" stroke="#404040" points="142.521,-620.737 144.785,-613.89 151.975,-613.347 149.711,-620.193 142.521,-620.737"/>
<text text-anchor="middle" x="151" y="-704.5" font-family="Helvetica,sans-Serif" font-size="10.00"> +receivedCarMessages</text>
</g>
<!-- Node11 -->
<g id="node11" class="node"><title>Node11</title>
<g id="a_node11"><a xlink:href="class_non_copyable.html" target="_top" xlink:title="{NonCopyable\&lt; vector\l\&lt; CarMessage, unsigned\l int \&gt; \&gt;\n||+ NonCopyable()\l}">
<polygon fill="white" stroke="black" points="6,-992.5 6,-1071.5 143,-1071.5 143,-992.5 6,-992.5"/>
<text text-anchor="start" x="14" y="-1059.5" font-family="Helvetica,sans-Serif" font-size="10.00">NonCopyable&lt; vector</text>
<text text-anchor="start" x="14" y="-1048.5" font-family="Helvetica,sans-Serif" font-size="10.00">&lt; CarMessage, unsigned</text>
<text text-anchor="middle" x="74.5" y="-1037.5" font-family="Helvetica,sans-Serif" font-size="10.00"> int &gt; &gt;</text>
<polyline fill="none" stroke="black" points="6,-1030.5 143,-1030.5 "/>
<text text-anchor="middle" x="74.5" y="-1018.5" font-family="Helvetica,sans-Serif" font-size="10.00"> </text>
<polyline fill="none" stroke="black" points="6,-1011.5 143,-1011.5 "/>
<text text-anchor="start" x="14" y="-999.5" font-family="Helvetica,sans-Serif" font-size="10.00">+ NonCopyable()</text>
</a>
</g>
</g>
<!-- Node11&#45;&gt;Node10 -->
<g id="edge12" class="edge"><title>Node11&#45;&gt;Node10</title>
<path fill="none" stroke="#8b1a1a" d="M74.5,-982.022C74.5,-963.699 74.5,-942.342 74.5,-921.805"/>
<polygon fill="none" stroke="#8b1a1a" points="71.0001,-982.146 74.5,-992.146 78.0001,-982.146 71.0001,-982.146"/>
</g>
<!-- Node12 -->
<g id="node12" class="node"><title>Node12</title>
<g id="a_node12"><a xlink:href="class_timer.html" target="_top" xlink:title="{Timer\n||}">
<polygon fill="white" stroke="black" points="397.5,-160.5 397.5,-217.5 441.5,-217.5 441.5,-160.5 397.5,-160.5"/>
<text text-anchor="middle" x="419.5" y="-205.5" font-family="Helvetica,sans-Serif" font-size="10.00">Timer</text>
<polyline fill="none" stroke="black" points="397.5,-198.5 441.5,-198.5 "/>
<text text-anchor="middle" x="419.5" y="-186.5" font-family="Helvetica,sans-Serif" font-size="10.00"> </text>
<polyline fill="none" stroke="black" points="397.5,-179.5 441.5,-179.5 "/>
<text text-anchor="middle" x="419.5" y="-167.5" font-family="Helvetica,sans-Serif" font-size="10.00"> </text>
</a>
</g>
</g>
<!-- Node12&#45;&gt;Node1 -->
<g id="edge13" class="edge"><title>Node12&#45;&gt;Node1</title>
<path fill="none" stroke="#404040" d="M407.65,-160.35C399.257,-140.767 387.765,-113.953 377.8,-90.7007"/>
<polygon fill="none" stroke="#404040" points="377.778,-90.6493 371.738,-86.7101 373.051,-79.6195 379.091,-83.5587 377.778,-90.6493"/>
<text text-anchor="middle" x="399.5" y="-101" font-family="Helvetica,sans-Serif" font-size="10.00"> +age</text>
</g>
<!-- Node13 -->
<g id="node13" class="node"><title>Node13</title>
<g id="a_node13"><a xlink:href="class_i_timer.html" target="_top" xlink:title="{ITimer\n||+ ITimer()\l+ start()\l+ stop()\l+ reset()\l+ read()\l+ read_ms()\l+ operator float()\l# getMillis()\l}">
<polygon fill="white" stroke="black" points="369,-299.5 369,-433.5 470,-433.5 470,-299.5 369,-299.5"/>
<text text-anchor="middle" x="419.5" y="-421.5" font-family="Helvetica,sans-Serif" font-size="10.00">ITimer</text>
<polyline fill="none" stroke="black" points="369,-414.5 470,-414.5 "/>
<text text-anchor="middle" x="419.5" y="-402.5" font-family="Helvetica,sans-Serif" font-size="10.00"> </text>
<polyline fill="none" stroke="black" points="369,-395.5 470,-395.5 "/>
<text text-anchor="start" x="377" y="-383.5" font-family="Helvetica,sans-Serif" font-size="10.00">+ ITimer()</text>
<text text-anchor="start" x="377" y="-372.5" font-family="Helvetica,sans-Serif" font-size="10.00">+ start()</text>
<text text-anchor="start" x="377" y="-361.5" font-family="Helvetica,sans-Serif" font-size="10.00">+ stop()</text>
<text text-anchor="start" x="377" y="-350.5" font-family="Helvetica,sans-Serif" font-size="10.00">+ reset()</text>
<text text-anchor="start" x="377" y="-339.5" font-family="Helvetica,sans-Serif" font-size="10.00">+ read()</text>
<text text-anchor="start" x="377" y="-328.5" font-family="Helvetica,sans-Serif" font-size="10.00">+ read_ms()</text>
<text text-anchor="start" x="377" y="-317.5" font-family="Helvetica,sans-Serif" font-size="10.00">+ operator float()</text>
<text text-anchor="start" x="377" y="-306.5" font-family="Helvetica,sans-Serif" font-size="10.00"># getMillis()</text>
</a>
</g>
</g>
<!-- Node13&#45;&gt;Node12 -->
<g id="edge14" class="edge"><title>Node13&#45;&gt;Node12</title>
<path fill="none" stroke="midnightblue" d="M412.801,-289.146C412.574,-263.8 413.108,-237.164 414.406,-217.89"/>
<polygon fill="none" stroke="midnightblue" points="409.301,-289.198 412.932,-299.151 416.301,-289.106 409.301,-289.198"/>
</g>
<!-- Node13&#45;&gt;Node12 -->
<g id="edge16" class="edge"><title>Node13&#45;&gt;Node12</title>
<path fill="none" stroke="midnightblue" d="M426.199,-289.146C426.426,-263.8 425.892,-237.164 424.594,-217.89"/>
<polygon fill="none" stroke="midnightblue" points="422.699,-289.106 426.068,-299.151 429.699,-289.198 422.699,-289.106"/>
</g>
<!-- Node14 -->
<g id="node14" class="node"><title>Node14</title>
<g id="a_node14"><a xlink:href="class_non_copyable.html" target="_top" xlink:title="{NonCopyable\&lt; ITimer \&gt;\n||+ NonCopyable()\l}">
<polygon fill="white" stroke="black" points="353.5,-547.5 353.5,-604.5 485.5,-604.5 485.5,-547.5 353.5,-547.5"/>
<text text-anchor="middle" x="419.5" y="-592.5" font-family="Helvetica,sans-Serif" font-size="10.00">NonCopyable&lt; ITimer &gt;</text>
<polyline fill="none" stroke="black" points="353.5,-585.5 485.5,-585.5 "/>
<text text-anchor="middle" x="419.5" y="-573.5" font-family="Helvetica,sans-Serif" font-size="10.00"> </text>
<polyline fill="none" stroke="black" points="353.5,-566.5 485.5,-566.5 "/>
<text text-anchor="start" x="361.5" y="-554.5" font-family="Helvetica,sans-Serif" font-size="10.00">+ NonCopyable()</text>
</a>
</g>
</g>
<!-- Node14&#45;&gt;Node13 -->
<g id="edge15" class="edge"><title>Node14&#45;&gt;Node13</title>
<path fill="none" stroke="#8b1a1a" d="M419.5,-537.371C419.5,-508.498 419.5,-467.912 419.5,-433.651"/>
<polygon fill="none" stroke="#8b1a1a" points="416,-537.446 419.5,-547.446 423,-537.446 416,-537.446"/>
</g>
</g>
</svg>
        <g id="navigator" transform="translate(0 0)" fill="#404254">
                <rect fill="#f2f5e9" fill-opacity="0.5" stroke="#606060" stroke-width=".5" x="0" y="0" width="60" height="60"/>
                <use id="zoomplus" xlink:href="#zoomPlus" x="17" y="9" onmousedown="handleZoom(evt,'in')"/>
                <use id="zoomminus" xlink:href="#zoomMin" x="42" y="9" onmousedown="handleZoom(evt,'out')"/>
                <use id="reset" xlink:href="#resetDef" x="30" y="36" onmousedown="handleReset()"/>
                <g id="arrowUp" xlink:href="#dirArrow" transform="translate(30 24)" onmousedown="handlePan(0,-1)">
                  <use xlink:href="#rim" fill="#404040">
                        <set attributeName="fill" to="#808080" begin="arrowUp.mouseover" end="arrowUp.mouseout"/>
                  </use>
                  <path fill="none" stroke="white" stroke-width="1.5" d="M0,-3.0v7 M-2.5,-0.5L0,-3.0L2.5,-0.5"/>
                </g>
                <g id="arrowRight" xlink:href="#dirArrow" transform="rotate(90) translate(36 -43)" onmousedown="handlePan(1,0)">
                  <use xlink:href="#rim" fill="#404040">
                        <set attributeName="fill" to="#808080" begin="arrowRight.mouseover" end="arrowRight.mouseout"/>
                  </use>
                  <path fill="none" stroke="white" stroke-width="1.5" d="M0,-3.0v7 M-2.5,-0.5L0,-3.0L2.5,-0.5"/>
                </g>
                <g id="arrowDown" xlink:href="#dirArrow" transform="rotate(180) translate(-30 -48)" onmousedown="handlePan(0,1)">
                  <use xlink:href="#rim" fill="#404040">
                        <set attributeName="fill" to="#808080" begin="arrowDown.mouseover" end="arrowDown.mouseout"/>
                  </use>
                  <path fill="none" stroke="white" stroke-width="1.5" d="M0,-3.0v7 M-2.5,-0.5L0,-3.0L2.5,-0.5"/>
                </g>
                <g id="arrowLeft" xlink:href="#dirArrow" transform="rotate(270) translate(-36 17)" onmousedown="handlePan(-1,0)">
                  <use xlink:href="#rim" fill="#404040">
                        <set attributeName="fill" to="#808080" begin="arrowLeft.mouseover" end="arrowLeft.mouseout"/>
                  </use>
                  <path fill="none" stroke="white" stroke-width="1.5" d="M0,-3.0v7 M-2.5,-0.5L0,-3.0L2.5,-0.5"/>
                </g>
        </g>
        <svg viewBox="0 0 15 15" width="100%" height="30px" preserveAspectRatio="xMaxYMin meet">
         <g id="arrow_out" transform="scale(0.3 0.3)">
          <a xlink:href="struct_p_motor_controller_1_1__rpm_sensor_struct__t__coll__graph_org.svg" target="_base">
           <rect id="button" ry="5" rx="5" y="6" x="6" height="38" width="38"
                fill="#f2f5e9" fill-opacity="0.5" stroke="#606060" stroke-width="1.0"/>
           <path id="arrow"
             d="M 11.500037,31.436501 C 11.940474,20.09759 22.043105,11.32322 32.158766,21.979434 L 37.068811,17.246167 C 37.068811,17.246167 37.088388,32 37.088388,32 L 22.160133,31.978069 C 22.160133,31.978069 26.997745,27.140456 26.997745,27.140456 C 18.528582,18.264221 13.291696,25.230495 11.500037,31.436501 z"
             style="fill:#404040;"/>
          </a>
         </g>
        </svg>
</svg>
