<?xml version="1.0" encoding="UTF-8" standalone="no"?>
<!DOCTYPE svg PUBLIC "-//W3C//DTD SVG 1.1//EN"
 "http://www.w3.org/Graphics/SVG/1.1/DTD/svg11.dtd">
<!-- Generated by graphviz version 2.38.0 (20140413.2041)
 -->
<!-- Title: RadioSettings_t Pages: 1 -->
<svg width="582pt" height="347pt"
 viewBox="0.00 0.00 582.00 347.00" xmlns="http://www.w3.org/2000/svg" xmlns:xlink="http://www.w3.org/1999/xlink">
<g id="graph0" class="graph" transform="scale(1 1) rotate(0) translate(4 343)">
<title>RadioSettings_t</title>
<polygon fill="white" stroke="none" points="-4,4 -4,-343 578,-343 578,4 -4,4"/>
<!-- Node1 -->
<g id="node1" class="node"><title>Node1</title>
<polygon fill="#bfbfbf" stroke="black" points="259.5,-0.5 259.5,-79.5 351.5,-79.5 351.5,-0.5 259.5,-0.5"/>
<text text-anchor="middle" x="305.5" y="-67.5" font-family="Helvetica,sans-Serif" font-size="10.00">RadioSettings_t</text>
<polyline fill="none" stroke="black" points="259.5,-60.5 351.5,-60.5 "/>
<text text-anchor="start" x="267.5" y="-48.5" font-family="Helvetica,sans-Serif" font-size="10.00">+ State</text>
<text text-anchor="start" x="267.5" y="-37.5" font-family="Helvetica,sans-Serif" font-size="10.00">+ Modem</text>
<text text-anchor="start" x="267.5" y="-26.5" font-family="Helvetica,sans-Serif" font-size="10.00">+ Channel</text>
<polyline fill="none" stroke="black" points="259.5,-19.5 351.5,-19.5 "/>
<text text-anchor="middle" x="305.5" y="-7.5" font-family="Helvetica,sans-Serif" font-size="10.00"> </text>
</g>
<!-- Node2 -->
<g id="node2" class="node"><title>Node2</title>
<g id="a_node2"><a xlink:href="struct_radio_fsk_packet_handler__t.html" target="_top" xlink:title="{RadioFskPacketHandler_t\n|+ PreambleDetected\l+ SyncWordDetected\l+ RssiValue\l+ AfcValue\l+ RxGain\l+ Size\l+ NbBytes\l+ FifoThresh\l+ ChunkSize\l|}">
<polygon fill="white" stroke="black" points="0,-160.5 0,-305.5 137,-305.5 137,-160.5 0,-160.5"/>
<text text-anchor="middle" x="68.5" y="-293.5" font-family="Helvetica,sans-Serif" font-size="10.00">RadioFskPacketHandler_t</text>
<polyline fill="none" stroke="black" points="0,-286.5 137,-286.5 "/>
<text text-anchor="start" x="8" y="-274.5" font-family="Helvetica,sans-Serif" font-size="10.00">+ PreambleDetected</text>
<text text-anchor="start" x="8" y="-263.5" font-family="Helvetica,sans-Serif" font-size="10.00">+ SyncWordDetected</text>
<text text-anchor="start" x="8" y="-252.5" font-family="Helvetica,sans-Serif" font-size="10.00">+ RssiValue</text>
<text text-anchor="start" x="8" y="-241.5" font-family="Helvetica,sans-Serif" font-size="10.00">+ AfcValue</text>
<text text-anchor="start" x="8" y="-230.5" font-family="Helvetica,sans-Serif" font-size="10.00">+ RxGain</text>
<text text-anchor="start" x="8" y="-219.5" font-family="Helvetica,sans-Serif" font-size="10.00">+ Size</text>
<text text-anchor="start" x="8" y="-208.5" font-family="Helvetica,sans-Serif" font-size="10.00">+ NbBytes</text>
<text text-anchor="start" x="8" y="-197.5" font-family="Helvetica,sans-Serif" font-size="10.00">+ FifoThresh</text>
<text text-anchor="start" x="8" y="-186.5" font-family="Helvetica,sans-Serif" font-size="10.00">+ ChunkSize</text>
<polyline fill="none" stroke="black" points="0,-179.5 137,-179.5 "/>
<text text-anchor="middle" x="68.5" y="-167.5" font-family="Helvetica,sans-Serif" font-size="10.00"> </text>
</a>
</g>
</g>
<!-- Node2&#45;&gt;Node1 -->
<g id="edge1" class="edge"><title>Node2&#45;&gt;Node1</title>
<path fill="none" stroke="#404040" d="M101.771,-160.259C114.969,-137.897 131.96,-114.737 152.5,-98 179.853,-75.7112 216.779,-61.6214 247.502,-53.0269"/>
<polygon fill="none" stroke="#404040" points="247.77,-52.956 252.548,-47.5551 259.372,-49.8885 254.593,-55.2893 247.77,-52.956"/>
<text text-anchor="middle" x="201" y="-101" font-family="Helvetica,sans-Serif" font-size="10.00"> +FskPacketHandler</text>
</g>
<!-- Node3 -->
<g id="node3" class="node"><title>Node3</title>
<g id="a_node3"><a xlink:href="struct_radio_lo_ra_packet_handler__t.html" target="_top" xlink:title="{RadioLoRaPacketHandler_t\n|+ SnrValue\l+ RssiValue\l+ Size\l|}">
<polygon fill="white" stroke="black" points="155.5,-193.5 155.5,-272.5 299.5,-272.5 299.5,-193.5 155.5,-193.5"/>
<text text-anchor="middle" x="227.5" y="-260.5" font-family="Helvetica,sans-Serif" font-size="10.00">RadioLoRaPacketHandler_t</text>
<polyline fill="none" stroke="black" points="155.5,-253.5 299.5,-253.5 "/>
<text text-anchor="start" x="163.5" y="-241.5" font-family="Helvetica,sans-Serif" font-size="10.00">+ SnrValue</text>
<text text-anchor="start" x="163.5" y="-230.5" font-family="Helvetica,sans-Serif" font-size="10.00">+ RssiValue</text>
<text text-anchor="start" x="163.5" y="-219.5" font-family="Helvetica,sans-Serif" font-size="10.00">+ Size</text>
<polyline fill="none" stroke="black" points="155.5,-212.5 299.5,-212.5 "/>
<text text-anchor="middle" x="227.5" y="-200.5" font-family="Helvetica,sans-Serif" font-size="10.00"> </text>
</a>
</g>
</g>
<!-- Node3&#45;&gt;Node1 -->
<g id="edge2" class="edge"><title>Node3&#45;&gt;Node1</title>
<path fill="none" stroke="#404040" d="M231.187,-193.406C234.99,-165.71 242.575,-128.119 257.5,-98 258.857,-95.2614 260.372,-92.5428 262.005,-89.8638"/>
<polygon fill="none" stroke="#404040" points="262.099,-89.7241 262.131,-82.5131 268.8,-79.7691 268.768,-86.9802 262.099,-89.7241"/>
<text text-anchor="middle" x="309.5" y="-101" font-family="Helvetica,sans-Serif" font-size="10.00"> +LoRaPacketHandler</text>
</g>
<!-- Node4 -->
<g id="node4" class="node"><title>Node4</title>
<g id="a_node4"><a xlink:href="struct_radio_lo_ra_settings__t.html" target="_top" xlink:title="{RadioLoRaSettings_t\n|+ Power\l+ Bandwidth\l+ Datarate\l+ LowDatarateOptimize\l+ Coderate\l+ PreambleLen\l+ FixLen\l+ PayloadLen\l+ CrcOn\l+ FreqHopOn\l+ HopPeriod\l+ IqInverted\l+ RxContinuous\l+ TxTimeout\l+ PublicNetwork\l|}">
<polygon fill="white" stroke="black" points="318,-127.5 318,-338.5 449,-338.5 449,-127.5 318,-127.5"/>
<text text-anchor="middle" x="383.5" y="-326.5" font-family="Helvetica,sans-Serif" font-size="10.00">RadioLoRaSettings_t</text>
<polyline fill="none" stroke="black" points="318,-319.5 449,-319.5 "/>
<text text-anchor="start" x="326" y="-307.5" font-family="Helvetica,sans-Serif" font-size="10.00">+ Power</text>
<text text-anchor="start" x="326" y="-296.5" font-family="Helvetica,sans-Serif" font-size="10.00">+ Bandwidth</text>
<text text-anchor="start" x="326" y="-285.5" font-family="Helvetica,sans-Serif" font-size="10.00">+ Datarate</text>
<text text-anchor="start" x="326" y="-274.5" font-family="Helvetica,sans-Serif" font-size="10.00">+ LowDatarateOptimize</text>
<text text-anchor="start" x="326" y="-263.5" font-family="Helvetica,sans-Serif" font-size="10.00">+ Coderate</text>
<text text-anchor="start" x="326" y="-252.5" font-family="Helvetica,sans-Serif" font-size="10.00">+ PreambleLen</text>
<text text-anchor="start" x="326" y="-241.5" font-family="Helvetica,sans-Serif" font-size="10.00">+ FixLen</text>
<text text-anchor="start" x="326" y="-230.5" font-family="Helvetica,sans-Serif" font-size="10.00">+ PayloadLen</text>
<text text-anchor="start" x="326" y="-219.5" font-family="Helvetica,sans-Serif" font-size="10.00">+ CrcOn</text>
<text text-anchor="start" x="326" y="-208.5" font-family="Helvetica,sans-Serif" font-size="10.00">+ FreqHopOn</text>
<text text-anchor="start" x="326" y="-197.5" font-family="Helvetica,sans-Serif" font-size="10.00">+ HopPeriod</text>
<text text-anchor="start" x="326" y="-186.5" font-family="Helvetica,sans-Serif" font-size="10.00">+ IqInverted</text>
<text text-anchor="start" x="326" y="-175.5" font-family="Helvetica,sans-Serif" font-size="10.00">+ RxContinuous</text>
<text text-anchor="start" x="326" y="-164.5" font-family="Helvetica,sans-Serif" font-size="10.00">+ TxTimeout</text>
<text text-anchor="start" x="326" y="-153.5" font-family="Helvetica,sans-Serif" font-size="10.00">+ PublicNetwork</text>
<polyline fill="none" stroke="black" points="318,-146.5 449,-146.5 "/>
<text text-anchor="middle" x="383.5" y="-134.5" font-family="Helvetica,sans-Serif" font-size="10.00"> </text>
</a>
</g>
</g>
<!-- Node4&#45;&gt;Node1 -->
<g id="edge3" class="edge"><title>Node4&#45;&gt;Node1</title>
<path fill="none" stroke="#404040" d="M372.783,-127.196C369.84,-117.051 366.141,-107.145 361.5,-98 360.021,-95.0852 358.339,-92.224 356.506,-89.4314"/>
<polygon fill="none" stroke="#404040" points="356.411,-89.3028 349.63,-86.8484 349.288,-79.6455 356.068,-82.0998 356.411,-89.3028"/>
<text text-anchor="middle" x="384" y="-101" font-family="Helvetica,sans-Serif" font-size="10.00"> +LoRa</text>
</g>
<!-- Node5 -->
<g id="node5" class="node"><title>Node5</title>
<g id="a_node5"><a xlink:href="struct_radio_fsk_settings__t.html" target="_top" xlink:title="{RadioFskSettings_t\n|+ Power\l+ Fdev\l+ Bandwidth\l+ BandwidthAfc\l+ Datarate\l+ PreambleLen\l+ FixLen\l+ PayloadLen\l+ CrcOn\l+ IqInverted\l+ RxContinuous\l+ TxTimeout\l+ RxSingleTimeout\l|}">
<polygon fill="white" stroke="black" points="467,-138.5 467,-327.5 574,-327.5 574,-138.5 467,-138.5"/>
<text text-anchor="middle" x="520.5" y="-315.5" font-family="Helvetica,sans-Serif" font-size="10.00">RadioFskSettings_t</text>
<polyline fill="none" stroke="black" points="467,-308.5 574,-308.5 "/>
<text text-anchor="start" x="475" y="-296.5" font-family="Helvetica,sans-Serif" font-size="10.00">+ Power</text>
<text text-anchor="start" x="475" y="-285.5" font-family="Helvetica,sans-Serif" font-size="10.00">+ Fdev</text>
<text text-anchor="start" x="475" y="-274.5" font-family="Helvetica,sans-Serif" font-size="10.00">+ Bandwidth</text>
<text text-anchor="start" x="475" y="-263.5" font-family="Helvetica,sans-Serif" font-size="10.00">+ BandwidthAfc</text>
<text text-anchor="start" x="475" y="-252.5" font-family="Helvetica,sans-Serif" font-size="10.00">+ Datarate</text>
<text text-anchor="start" x="475" y="-241.5" font-family="Helvetica,sans-Serif" font-size="10.00">+ PreambleLen</text>
<text text-anchor="start" x="475" y="-230.5" font-family="Helvetica,sans-Serif" font-size="10.00">+ FixLen</text>
<text text-anchor="start" x="475" y="-219.5" font-family="Helvetica,sans-Serif" font-size="10.00">+ PayloadLen</text>
<text text-anchor="start" x="475" y="-208.5" font-family="Helvetica,sans-Serif" font-size="10.00">+ CrcOn</text>
<text text-anchor="start" x="475" y="-197.5" font-family="Helvetica,sans-Serif" font-size="10.00">+ IqInverted</text>
<text text-anchor="start" x="475" y="-186.5" font-family="Helvetica,sans-Serif" font-size="10.00">+ RxContinuous</text>
<text text-anchor="start" x="475" y="-175.5" font-family="Helvetica,sans-Serif" font-size="10.00">+ TxTimeout</text>
<text text-anchor="start" x="475" y="-164.5" font-family="Helvetica,sans-Serif" font-size="10.00">+ RxSingleTimeout</text>
<polyline fill="none" stroke="black" points="467,-157.5 574,-157.5 "/>
<text text-anchor="middle" x="520.5" y="-145.5" font-family="Helvetica,sans-Serif" font-size="10.00"> </text>
</a>
</g>
</g>
<!-- Node5&#45;&gt;Node1 -->
<g id="edge4" class="edge"><title>Node5&#45;&gt;Node1</title>
<path fill="none" stroke="#404040" d="M468.059,-138.37C464.676,-134.378 461.153,-130.561 457.5,-127 430.332,-100.517 393.407,-79.3762 362.754,-64.6825"/>
<polygon fill="none" stroke="#404040" points="362.65,-64.6341 355.522,-65.7237 351.774,-59.5628 358.903,-58.4732 362.65,-64.6341"/>
<text text-anchor="middle" x="450.5" y="-101" font-family="Helvetica,sans-Serif" font-size="10.00"> +Fsk</text>
</g>
</g>
</svg>
