<?xml version="1.0" encoding="UTF-8" standalone="no"?>
<!DOCTYPE svg PUBLIC "-//W3C//DTD SVG 1.1//EN"
 "http://www.w3.org/Graphics/SVG/1.1/DTD/svg11.dtd">
<!-- Generated by graphviz version 2.38.0 (20140413.2041)
 -->
<!-- Title: HardwareAnalogSensor::_map Pages: 1 -->
<svg width="284pt" height="204pt"
 viewBox="0.00 0.00 284.00 204.00" xmlns="http://www.w3.org/2000/svg" xmlns:xlink="http://www.w3.org/1999/xlink">
<g id="graph0" class="graph" transform="scale(1 1) rotate(0) translate(4 200)">
<title>HardwareAnalogSensor::_map</title>
<polygon fill="white" stroke="none" points="-4,4 -4,-200 280,-200 280,4 -4,4"/>
<!-- Node1 -->
<g id="node1" class="node"><title>Node1</title>
<polygon fill="#bfbfbf" stroke="black" points="73,-0.5 73,-68.5 202,-68.5 202,-0.5 73,-0.5"/>
<text text-anchor="start" x="81" y="-56.5" font-family="Helvetica,sans-Serif" font-size="10.00">HardwareAnalogSensor</text>
<text text-anchor="middle" x="137.5" y="-45.5" font-family="Helvetica,sans-Serif" font-size="10.00">::_map</text>
<polyline fill="none" stroke="black" points="73,-38.5 202,-38.5 "/>
<text text-anchor="start" x="81" y="-26.5" font-family="Helvetica,sans-Serif" font-size="10.00">+ set</text>
<polyline fill="none" stroke="black" points="73,-19.5 202,-19.5 "/>
<text text-anchor="middle" x="137.5" y="-7.5" font-family="Helvetica,sans-Serif" font-size="10.00"> </text>
</g>
<!-- Node2 -->
<g id="node2" class="node"><title>Node2</title>
<g id="a_node2"><a xlink:href="struct_hardware_analog_sensor_1_1__map_1_1to.html" target="_top" xlink:title="{HardwareAnalogSensor\l::_map::to\n|+ min\l+ max\l|}">
<polygon fill="white" stroke="black" points="0,-116.5 0,-195.5 129,-195.5 129,-116.5 0,-116.5"/>
<text text-anchor="start" x="8" y="-183.5" font-family="Helvetica,sans-Serif" font-size="10.00">HardwareAnalogSensor</text>
<text text-anchor="middle" x="64.5" y="-172.5" font-family="Helvetica,sans-Serif" font-size="10.00">::_map::to</text>
<polyline fill="none" stroke="black" points="0,-165.5 129,-165.5 "/>
<text text-anchor="start" x="8" y="-153.5" font-family="Helvetica,sans-Serif" font-size="10.00">+ min</text>
<text text-anchor="start" x="8" y="-142.5" font-family="Helvetica,sans-Serif" font-size="10.00">+ max</text>
<polyline fill="none" stroke="black" points="0,-135.5 129,-135.5 "/>
<text text-anchor="middle" x="64.5" y="-123.5" font-family="Helvetica,sans-Serif" font-size="10.00"> </text>
</a>
</g>
</g>
<!-- Node2&#45;&gt;Node1 -->
<g id="edge1" class="edge"><title>Node2&#45;&gt;Node1</title>
<path fill="none" stroke="#404040" d="M88.201,-116.202C95.4137,-104.395 103.39,-91.3377 110.787,-79.2287"/>
<polygon fill="none" stroke="#404040" points="110.849,-79.1272 110.563,-71.9217 117.105,-68.8867 117.39,-76.0922 110.849,-79.1272"/>
<text text-anchor="middle" x="116.5" y="-90" font-family="Helvetica,sans-Serif" font-size="10.00"> +to</text>
</g>
<!-- Node3 -->
<g id="node3" class="node"><title>Node3</title>
<g id="a_node3"><a xlink:href="struct_hardware_analog_sensor_1_1__map_1_1from.html" target="_top" xlink:title="{HardwareAnalogSensor\l::_map::from\n|+ min\l+ max\l|}">
<polygon fill="white" stroke="black" points="147,-116.5 147,-195.5 276,-195.5 276,-116.5 147,-116.5"/>
<text text-anchor="start" x="155" y="-183.5" font-family="Helvetica,sans-Serif" font-size="10.00">HardwareAnalogSensor</text>
<text text-anchor="middle" x="211.5" y="-172.5" font-family="Helvetica,sans-Serif" font-size="10.00">::_map::from</text>
<polyline fill="none" stroke="black" points="147,-165.5 276,-165.5 "/>
<text text-anchor="start" x="155" y="-153.5" font-family="Helvetica,sans-Serif" font-size="10.00">+ min</text>
<text text-anchor="start" x="155" y="-142.5" font-family="Helvetica,sans-Serif" font-size="10.00">+ max</text>
<polyline fill="none" stroke="black" points="147,-135.5 276,-135.5 "/>
<text text-anchor="middle" x="211.5" y="-123.5" font-family="Helvetica,sans-Serif" font-size="10.00"> </text>
</a>
</g>
</g>
<!-- Node3&#45;&gt;Node1 -->
<g id="edge2" class="edge"><title>Node3&#45;&gt;Node1</title>
<path fill="none" stroke="#404040" d="M187.474,-116.202C180.163,-104.395 172.077,-91.3377 164.579,-79.2287"/>
<polygon fill="none" stroke="#404040" points="164.492,-79.089 157.933,-76.0938 158.175,-68.8867 164.734,-71.8819 164.492,-79.089"/>
<text text-anchor="middle" x="191.5" y="-90" font-family="Helvetica,sans-Serif" font-size="10.00"> +from</text>
</g>
</g>
</svg>
