<?xml version="1.0" encoding="UTF-8" standalone="no"?>
<!DOCTYPE svg PUBLIC "-//W3C//DTD SVG 1.1//EN"
 "http://www.w3.org/Graphics/SVG/1.1/DTD/svg11.dtd">
<!-- Generated by graphviz version 2.38.0 (20140413.2041)
 -->
<!-- Title: HardwarePedal::_calibration Pages: 1 -->
<svg width="324pt" height="419pt"
 viewBox="0.00 0.00 324.00 419.00" xmlns="http://www.w3.org/2000/svg" xmlns:xlink="http://www.w3.org/1999/xlink">
<g id="graph0" class="graph" transform="scale(1 1) rotate(0) translate(4 415)">
<title>HardwarePedal::_calibration</title>
<polygon fill="white" stroke="none" points="-4,4 -4,-415 320,-415 320,4 -4,4"/>
<!-- Node1 -->
<g id="node1" class="node"><title>Node1</title>
<polygon fill="#bfbfbf" stroke="black" points="59,-0.5 59,-57.5 208,-57.5 208,-0.5 59,-0.5"/>
<text text-anchor="middle" x="133.5" y="-45.5" font-family="Helvetica,sans-Serif" font-size="10.00">HardwarePedal::_calibration</text>
<polyline fill="none" stroke="black" points="59,-38.5 208,-38.5 "/>
<text text-anchor="middle" x="133.5" y="-26.5" font-family="Helvetica,sans-Serif" font-size="10.00"> </text>
<polyline fill="none" stroke="black" points="59,-19.5 208,-19.5 "/>
<text text-anchor="middle" x="133.5" y="-7.5" font-family="Helvetica,sans-Serif" font-size="10.00"> </text>
</g>
<!-- Node2 -->
<g id="node2" class="node"><title>Node2</title>
<g id="a_node2"><a xlink:href="struct_hardware_pedal_1_1__calibration_1_1sensor1.html" target="_top" xlink:title="{HardwarePedal::_calibration\l::sensor1\n|+ min\l+ max\l+ initPointSet\l|}">
<polygon fill="white" stroke="black" points="0,-105.5 0,-195.5 149,-195.5 149,-105.5 0,-105.5"/>
<text text-anchor="start" x="8" y="-183.5" font-family="Helvetica,sans-Serif" font-size="10.00">HardwarePedal::_calibration</text>
<text text-anchor="middle" x="74.5" y="-172.5" font-family="Helvetica,sans-Serif" font-size="10.00">::sensor1</text>
<polyline fill="none" stroke="black" points="0,-165.5 149,-165.5 "/>
<text text-anchor="start" x="8" y="-153.5" font-family="Helvetica,sans-Serif" font-size="10.00">+ min</text>
<text text-anchor="start" x="8" y="-142.5" font-family="Helvetica,sans-Serif" font-size="10.00">+ max</text>
<text text-anchor="start" x="8" y="-131.5" font-family="Helvetica,sans-Serif" font-size="10.00">+ initPointSet</text>
<polyline fill="none" stroke="black" points="0,-124.5 149,-124.5 "/>
<text text-anchor="middle" x="74.5" y="-112.5" font-family="Helvetica,sans-Serif" font-size="10.00"> </text>
</a>
</g>
</g>
<!-- Node2&#45;&gt;Node1 -->
<g id="edge1" class="edge"><title>Node2&#45;&gt;Node1</title>
<path fill="none" stroke="#404040" d="M96.3018,-105.342C102.272,-93.2499 108.695,-80.2416 114.495,-68.4938"/>
<polygon fill="none" stroke="#404040" points="114.517,-68.4479 113.587,-61.297 119.83,-57.6879 120.76,-64.8387 114.517,-68.4479"/>
<text text-anchor="middle" x="134.5" y="-79" font-family="Helvetica,sans-Serif" font-size="10.00"> +sensor1</text>
</g>
<!-- Node3 -->
<g id="node3" class="node"><title>Node3</title>
<g id="a_node3"><a xlink:href="class_circular_buffer.html" target="_top" xlink:title="{CircularBuffer\&lt; analog\l_sensor_raw_t, PEDAL_CALIBRATION\l_SAMPLE_BUFFER_SIZE \&gt;\n||+ CircularBuffer()\l+ ~CircularBuffer()\l+ push()\l+ pop()\l+ empty()\l+ full()\l+ reset()\l+ size()\l+ peek()\l}">
<polygon fill="white" stroke="black" points="76,-243.5 76,-410.5 265,-410.5 265,-243.5 76,-243.5"/>
<text text-anchor="start" x="84" y="-398.5" font-family="Helvetica,sans-Serif" font-size="10.00">CircularBuffer&lt; analog</text>
<text text-anchor="start" x="84" y="-387.5" font-family="Helvetica,sans-Serif" font-size="10.00">_sensor_raw_t, PEDAL_CALIBRATION</text>
<text text-anchor="middle" x="170.5" y="-376.5" font-family="Helvetica,sans-Serif" font-size="10.00">_SAMPLE_BUFFER_SIZE &gt;</text>
<polyline fill="none" stroke="black" points="76,-369.5 265,-369.5 "/>
<text text-anchor="middle" x="170.5" y="-357.5" font-family="Helvetica,sans-Serif" font-size="10.00"> </text>
<polyline fill="none" stroke="black" points="76,-350.5 265,-350.5 "/>
<text text-anchor="start" x="84" y="-338.5" font-family="Helvetica,sans-Serif" font-size="10.00">+ CircularBuffer()</text>
<text text-anchor="start" x="84" y="-327.5" font-family="Helvetica,sans-Serif" font-size="10.00">+ ~CircularBuffer()</text>
<text text-anchor="start" x="84" y="-316.5" font-family="Helvetica,sans-Serif" font-size="10.00">+ push()</text>
<text text-anchor="start" x="84" y="-305.5" font-family="Helvetica,sans-Serif" font-size="10.00">+ pop()</text>
<text text-anchor="start" x="84" y="-294.5" font-family="Helvetica,sans-Serif" font-size="10.00">+ empty()</text>
<text text-anchor="start" x="84" y="-283.5" font-family="Helvetica,sans-Serif" font-size="10.00">+ full()</text>
<text text-anchor="start" x="84" y="-272.5" font-family="Helvetica,sans-Serif" font-size="10.00">+ reset()</text>
<text text-anchor="start" x="84" y="-261.5" font-family="Helvetica,sans-Serif" font-size="10.00">+ size()</text>
<text text-anchor="start" x="84" y="-250.5" font-family="Helvetica,sans-Serif" font-size="10.00">+ peek()</text>
</a>
</g>
</g>
<!-- Node3&#45;&gt;Node2 -->
<g id="edge2" class="edge"><title>Node3&#45;&gt;Node2</title>
<path fill="none" stroke="#404040" d="M125.03,-243.349C118.199,-230.932 111.3,-218.391 104.887,-206.735"/>
<polygon fill="none" stroke="#404040" points="104.69,-206.377 98.2937,-203.048 98.9062,-195.863 105.303,-199.192 104.69,-206.377"/>
<text text-anchor="middle" x="134.5" y="-217" font-family="Helvetica,sans-Serif" font-size="10.00"> +buffer</text>
</g>
<!-- Node4 -->
<g id="node4" class="node"><title>Node4</title>
<g id="a_node4"><a xlink:href="struct_hardware_pedal_1_1__calibration_1_1sensor2.html" target="_top" xlink:title="{HardwarePedal::_calibration\l::sensor2\n|+ min\l+ max\l+ initPointSet\l|}">
<polygon fill="white" stroke="black" points="167,-105.5 167,-195.5 316,-195.5 316,-105.5 167,-105.5"/>
<text text-anchor="start" x="175" y="-183.5" font-family="Helvetica,sans-Serif" font-size="10.00">HardwarePedal::_calibration</text>
<text text-anchor="middle" x="241.5" y="-172.5" font-family="Helvetica,sans-Serif" font-size="10.00">::sensor2</text>
<polyline fill="none" stroke="black" points="167,-165.5 316,-165.5 "/>
<text text-anchor="start" x="175" y="-153.5" font-family="Helvetica,sans-Serif" font-size="10.00">+ min</text>
<text text-anchor="start" x="175" y="-142.5" font-family="Helvetica,sans-Serif" font-size="10.00">+ max</text>
<text text-anchor="start" x="175" y="-131.5" font-family="Helvetica,sans-Serif" font-size="10.00">+ initPointSet</text>
<polyline fill="none" stroke="black" points="167,-124.5 316,-124.5 "/>
<text text-anchor="middle" x="241.5" y="-112.5" font-family="Helvetica,sans-Serif" font-size="10.00"> </text>
</a>
</g>
</g>
<!-- Node3&#45;&gt;Node4 -->
<g id="edge4" class="edge"><title>Node3&#45;&gt;Node4</title>
<path fill="none" stroke="#404040" d="M204.129,-243.349C209.129,-231.06 214.178,-218.65 218.879,-207.096"/>
<polygon fill="none" stroke="#404040" points="218.927,-206.979 217.483,-199.913 223.45,-195.863 224.893,-202.929 218.927,-206.979"/>
<text text-anchor="middle" x="233.5" y="-217" font-family="Helvetica,sans-Serif" font-size="10.00"> +buffer</text>
</g>
<!-- Node4&#45;&gt;Node1 -->
<g id="edge3" class="edge"><title>Node4&#45;&gt;Node1</title>
<path fill="none" stroke="#404040" d="M201.592,-105.342C190.1,-92.6266 177.692,-78.8981 166.657,-66.6875"/>
<polygon fill="none" stroke="#404040" points="166.569,-66.5907 159.579,-64.8213 158.523,-57.6879 165.514,-59.4573 166.569,-66.5907"/>
<text text-anchor="middle" x="209.5" y="-79" font-family="Helvetica,sans-Serif" font-size="10.00"> +sensor2</text>
</g>
</g>
</svg>
