<?xml version="1.0" encoding="UTF-8" standalone="no"?>
<!DOCTYPE svg PUBLIC "-//W3C//DTD SVG 1.1//EN"
 "http://www.w3.org/Graphics/SVG/1.1/DTD/svg11.dtd">
<!-- Generated by graphviz version 2.38.0 (20140413.2041)
 -->
<!-- Title: HardwareBuzzer::_current Pages: 1 -->
<svg width="149pt" height="193pt"
 viewBox="0.00 0.00 149.00 193.00" xmlns="http://www.w3.org/2000/svg" xmlns:xlink="http://www.w3.org/1999/xlink">
<g id="graph0" class="graph" transform="scale(1 1) rotate(0) translate(4 189)">
<title>HardwareBuzzer::_current</title>
<polygon fill="white" stroke="none" points="-4,4 -4,-189 145,-189 145,4 -4,4"/>
<!-- Node1 -->
<g id="node1" class="node"><title>Node1</title>
<polygon fill="#bfbfbf" stroke="black" points="0,-0.5 0,-57.5 141,-57.5 141,-0.5 0,-0.5"/>
<text text-anchor="middle" x="70.5" y="-45.5" font-family="Helvetica,sans-Serif" font-size="10.00">HardwareBuzzer::_current</text>
<polyline fill="none" stroke="black" points="0,-38.5 141,-38.5 "/>
<text text-anchor="start" x="8" y="-26.5" font-family="Helvetica,sans-Serif" font-size="10.00">+ state</text>
<polyline fill="none" stroke="black" points="0,-19.5 141,-19.5 "/>
<text text-anchor="middle" x="70.5" y="-7.5" font-family="Helvetica,sans-Serif" font-size="10.00"> </text>
</g>
<!-- Node2 -->
<g id="node2" class="node"><title>Node2</title>
<g id="a_node2"><a xlink:href="struct_hardware_buzzer_1_1__current_1_1beep.html" target="_top" xlink:title="{HardwareBuzzer::_current\l::beep\n|+ switchTime\l+ type\l|}">
<polygon fill="white" stroke="black" points="0,-105.5 0,-184.5 141,-184.5 141,-105.5 0,-105.5"/>
<text text-anchor="start" x="8" y="-172.5" font-family="Helvetica,sans-Serif" font-size="10.00">HardwareBuzzer::_current</text>
<text text-anchor="middle" x="70.5" y="-161.5" font-family="Helvetica,sans-Serif" font-size="10.00">::beep</text>
<polyline fill="none" stroke="black" points="0,-154.5 141,-154.5 "/>
<text text-anchor="start" x="8" y="-142.5" font-family="Helvetica,sans-Serif" font-size="10.00">+ switchTime</text>
<text text-anchor="start" x="8" y="-131.5" font-family="Helvetica,sans-Serif" font-size="10.00">+ type</text>
<polyline fill="none" stroke="black" points="0,-124.5 141,-124.5 "/>
<text text-anchor="middle" x="70.5" y="-112.5" font-family="Helvetica,sans-Serif" font-size="10.00"> </text>
</a>
</g>
</g>
<!-- Node2&#45;&gt;Node1 -->
<g id="edge1" class="edge"><title>Node2&#45;&gt;Node1</title>
<path fill="none" stroke="#404040" d="M70.5,-105.405C70.5,-93.9252 70.5,-81.3299 70.5,-69.7765"/>
<polygon fill="none" stroke="#404040" points="70.5001,-69.7509 66.5,-63.7509 70.5,-57.7509 74.5,-63.7508 70.5001,-69.7509"/>
<text text-anchor="middle" x="88.5" y="-79" font-family="Helvetica,sans-Serif" font-size="10.00"> +beep</text>
</g>
</g>
</svg>
