<?xml version="1.0" encoding="UTF-8" standalone="no"?>
<!DOCTYPE svg PUBLIC "-//W3C//DTD SVG 1.1//EN"
 "http://www.w3.org/Graphics/SVG/1.1/DTD/svg11.dtd">
<!-- Generated by graphviz version 2.38.0 (20140413.2041)
 -->
<!-- Title: HardwarePwmBuzzer::_current Pages: 1 -->
<svg width="132pt" height="248pt"
 viewBox="0.00 0.00 132.00 248.00" xmlns="http://www.w3.org/2000/svg" xmlns:xlink="http://www.w3.org/1999/xlink">
<g id="graph0" class="graph" transform="scale(1 1) rotate(0) translate(4 244)">
<title>HardwarePwmBuzzer::_current</title>
<polygon fill="white" stroke="none" points="-4,4 -4,-244 128,-244 128,4 -4,4"/>
<!-- Node1 -->
<g id="node1" class="node"><title>Node1</title>
<polygon fill="#bfbfbf" stroke="black" points="-7.10543e-15,-0.5 -7.10543e-15,-90.5 124,-90.5 124,-0.5 -7.10543e-15,-0.5"/>
<text text-anchor="start" x="8" y="-78.5" font-family="Helvetica,sans-Serif" font-size="10.00">HardwarePwmBuzzer::</text>
<text text-anchor="middle" x="62" y="-67.5" font-family="Helvetica,sans-Serif" font-size="10.00">_current</text>
<polyline fill="none" stroke="black" points="-7.10543e-15,-60.5 124,-60.5 "/>
<text text-anchor="start" x="8" y="-48.5" font-family="Helvetica,sans-Serif" font-size="10.00">+ state</text>
<text text-anchor="start" x="8" y="-37.5" font-family="Helvetica,sans-Serif" font-size="10.00">+ hz</text>
<text text-anchor="start" x="8" y="-26.5" font-family="Helvetica,sans-Serif" font-size="10.00">+ highToLowRatio</text>
<polyline fill="none" stroke="black" points="-7.10543e-15,-19.5 124,-19.5 "/>
<text text-anchor="middle" x="62" y="-7.5" font-family="Helvetica,sans-Serif" font-size="10.00"> </text>
</g>
<!-- Node2 -->
<g id="node2" class="node"><title>Node2</title>
<g id="a_node2"><a xlink:href="struct_hardware_pwm_buzzer_1_1__current_1_1beep.html" target="_top" xlink:title="{HardwarePwmBuzzer::\l_current::beep\n|+ valueHigh\l+ highToLowRatio\l+ switchTime\l+ type\l|}">
<polygon fill="white" stroke="black" points="-7.10543e-15,-138.5 -7.10543e-15,-239.5 124,-239.5 124,-138.5 -7.10543e-15,-138.5"/>
<text text-anchor="start" x="8" y="-227.5" font-family="Helvetica,sans-Serif" font-size="10.00">HardwarePwmBuzzer::</text>
<text text-anchor="middle" x="62" y="-216.5" font-family="Helvetica,sans-Serif" font-size="10.00">_current::beep</text>
<polyline fill="none" stroke="black" points="-7.10543e-15,-209.5 124,-209.5 "/>
<text text-anchor="start" x="8" y="-197.5" font-family="Helvetica,sans-Serif" font-size="10.00">+ valueHigh</text>
<text text-anchor="start" x="8" y="-186.5" font-family="Helvetica,sans-Serif" font-size="10.00">+ highToLowRatio</text>
<text text-anchor="start" x="8" y="-175.5" font-family="Helvetica,sans-Serif" font-size="10.00">+ switchTime</text>
<text text-anchor="start" x="8" y="-164.5" font-family="Helvetica,sans-Serif" font-size="10.00">+ type</text>
<polyline fill="none" stroke="black" points="-7.10543e-15,-157.5 124,-157.5 "/>
<text text-anchor="middle" x="62" y="-145.5" font-family="Helvetica,sans-Serif" font-size="10.00"> </text>
</a>
</g>
</g>
<!-- Node2&#45;&gt;Node1 -->
<g id="edge1" class="edge"><title>Node2&#45;&gt;Node1</title>
<path fill="none" stroke="#404040" d="M62,-138.112C62,-126.776 62,-114.656 62,-103.065"/>
<polygon fill="none" stroke="#404040" points="62.0001,-102.758 58,-96.7576 62,-90.7576 66,-96.7575 62.0001,-102.758"/>
<text text-anchor="middle" x="80" y="-112" font-family="Helvetica,sans-Serif" font-size="10.00"> +beep</text>
</g>
</g>
</svg>
