<?xml version="1.0" encoding="UTF-8" standalone="no"?>
<!DOCTYPE svg PUBLIC "-//W3C//DTD SVG 1.1//EN"
 "http://www.w3.org/Graphics/SVG/1.1/DTD/svg11.dtd">
<!-- Generated by graphviz version 2.38.0 (20140413.2041)
 -->
<!-- Title: FATFS_DIR Pages: 1 -->
<svg width="89pt" height="369pt"
 viewBox="0.00 0.00 89.00 369.00" xmlns="http://www.w3.org/2000/svg" xmlns:xlink="http://www.w3.org/1999/xlink">
<g id="graph0" class="graph" transform="scale(1 1) rotate(0) translate(4 365)">
<title>FATFS_DIR</title>
<polygon fill="white" stroke="none" points="-4,4 -4,-365 85,-365 85,4 -4,4"/>
<!-- Node1 -->
<g id="node1" class="node"><title>Node1</title>
<polygon fill="#bfbfbf" stroke="black" points="8,-0.5 8,-145.5 73,-145.5 73,-0.5 8,-0.5"/>
<text text-anchor="middle" x="40.5" y="-133.5" font-family="Helvetica,sans-Serif" font-size="10.00">FATFS_DIR</text>
<polyline fill="none" stroke="black" points="8,-126.5 73,-126.5 "/>
<text text-anchor="start" x="16" y="-114.5" font-family="Helvetica,sans-Serif" font-size="10.00">+ id</text>
<text text-anchor="start" x="16" y="-103.5" font-family="Helvetica,sans-Serif" font-size="10.00">+ index</text>
<text text-anchor="start" x="16" y="-92.5" font-family="Helvetica,sans-Serif" font-size="10.00">+ sclust</text>
<text text-anchor="start" x="16" y="-81.5" font-family="Helvetica,sans-Serif" font-size="10.00">+ clust</text>
<text text-anchor="start" x="16" y="-70.5" font-family="Helvetica,sans-Serif" font-size="10.00">+ sect</text>
<text text-anchor="start" x="16" y="-59.5" font-family="Helvetica,sans-Serif" font-size="10.00">+ dir</text>
<text text-anchor="start" x="16" y="-48.5" font-family="Helvetica,sans-Serif" font-size="10.00">+ fn</text>
<text text-anchor="start" x="16" y="-37.5" font-family="Helvetica,sans-Serif" font-size="10.00">+ lfn</text>
<text text-anchor="start" x="16" y="-26.5" font-family="Helvetica,sans-Serif" font-size="10.00">+ lfn_idx</text>
<polyline fill="none" stroke="black" points="8,-19.5 73,-19.5 "/>
<text text-anchor="middle" x="40.5" y="-7.5" font-family="Helvetica,sans-Serif" font-size="10.00"> </text>
</g>
<!-- Node2 -->
<g id="node2" class="node"><title>Node2</title>
<g id="a_node2"><a xlink:href="struct_f_a_t_f_s.html" target="_top" xlink:title="{FATFS\n|+ fs_type\l+ drv\l+ csize\l+ n_fats\l+ wflag\l+ fsi_flag\l+ id\l+ n_rootdir\l+ last_clust\l+ free_clust\land 8 more...\l|}">
<polygon fill="white" stroke="black" points="0,-193.5 0,-360.5 81,-360.5 81,-193.5 0,-193.5"/>
<text text-anchor="middle" x="40.5" y="-348.5" font-family="Helvetica,sans-Serif" font-size="10.00">FATFS</text>
<polyline fill="none" stroke="black" points="0,-341.5 81,-341.5 "/>
<text text-anchor="start" x="8" y="-329.5" font-family="Helvetica,sans-Serif" font-size="10.00">+ fs_type</text>
<text text-anchor="start" x="8" y="-318.5" font-family="Helvetica,sans-Serif" font-size="10.00">+ drv</text>
<text text-anchor="start" x="8" y="-307.5" font-family="Helvetica,sans-Serif" font-size="10.00">+ csize</text>
<text text-anchor="start" x="8" y="-296.5" font-family="Helvetica,sans-Serif" font-size="10.00">+ n_fats</text>
<text text-anchor="start" x="8" y="-285.5" font-family="Helvetica,sans-Serif" font-size="10.00">+ wflag</text>
<text text-anchor="start" x="8" y="-274.5" font-family="Helvetica,sans-Serif" font-size="10.00">+ fsi_flag</text>
<text text-anchor="start" x="8" y="-263.5" font-family="Helvetica,sans-Serif" font-size="10.00">+ id</text>
<text text-anchor="start" x="8" y="-252.5" font-family="Helvetica,sans-Serif" font-size="10.00">+ n_rootdir</text>
<text text-anchor="start" x="8" y="-241.5" font-family="Helvetica,sans-Serif" font-size="10.00">+ last_clust</text>
<text text-anchor="start" x="8" y="-230.5" font-family="Helvetica,sans-Serif" font-size="10.00">+ free_clust</text>
<text text-anchor="start" x="8" y="-219.5" font-family="Helvetica,sans-Serif" font-size="10.00">and 8 more...</text>
<polyline fill="none" stroke="black" points="0,-212.5 81,-212.5 "/>
<text text-anchor="middle" x="40.5" y="-200.5" font-family="Helvetica,sans-Serif" font-size="10.00"> </text>
</a>
</g>
</g>
<!-- Node2&#45;&gt;Node1 -->
<g id="edge1" class="edge"><title>Node2&#45;&gt;Node1</title>
<path fill="none" stroke="#404040" d="M40.5,-193.256C40.5,-181.531 40.5,-169.466 40.5,-157.722"/>
<polygon fill="none" stroke="#404040" points="40.5001,-157.627 36.5,-151.627 40.5,-145.627 44.5,-151.627 40.5001,-157.627"/>
<text text-anchor="middle" x="50.5" y="-167" font-family="Helvetica,sans-Serif" font-size="10.00"> +fs</text>
</g>
</g>
</svg>
