<?xml version="1.0" encoding="UTF-8" standalone="no"?>
<!DOCTYPE svg PUBLIC "-//W3C//DTD SVG 1.1//EN"
 "http://www.w3.org/Graphics/SVG/1.1/DTD/svg11.dtd">
<!-- Generated by graphviz version 2.38.0 (20140413.2041)
 -->
<!-- Title: HardwareRpmSensor::_measurement Pages: 1 -->
<svg width="276pt" height="632pt"
 viewBox="0.00 0.00 275.50 632.00" xmlns="http://www.w3.org/2000/svg" xmlns:xlink="http://www.w3.org/1999/xlink">
<g id="graph0" class="graph" transform="scale(1 1) rotate(0) translate(4 628)">
<title>HardwareRpmSensor::_measurement</title>
<polygon fill="white" stroke="none" points="-4,4 -4,-628 271.5,-628 271.5,4 -4,4"/>
<!-- Node1 -->
<g id="node1" class="node"><title>Node1</title>
<polygon fill="#bfbfbf" stroke="black" points="96.5,-0.5 96.5,-112.5 220.5,-112.5 220.5,-0.5 96.5,-0.5"/>
<text text-anchor="start" x="104.5" y="-100.5" font-family="Helvetica,sans-Serif" font-size="10.00">HardwareRpmSensor::</text>
<text text-anchor="middle" x="158.5" y="-89.5" font-family="Helvetica,sans-Serif" font-size="10.00">_measurement</text>
<polyline fill="none" stroke="black" points="96.5,-82.5 220.5,-82.5 "/>
<text text-anchor="start" x="104.5" y="-70.5" font-family="Helvetica,sans-Serif" font-size="10.00">+ pointsPerRevolution</text>
<text text-anchor="start" x="104.5" y="-59.5" font-family="Helvetica,sans-Serif" font-size="10.00">+ started</text>
<text text-anchor="start" x="104.5" y="-48.5" font-family="Helvetica,sans-Serif" font-size="10.00">+ zero</text>
<text text-anchor="start" x="104.5" y="-37.5" font-family="Helvetica,sans-Serif" font-size="10.00">+ buffer</text>
<text text-anchor="start" x="104.5" y="-26.5" font-family="Helvetica,sans-Serif" font-size="10.00">+ bufferSize</text>
<polyline fill="none" stroke="black" points="96.5,-19.5 220.5,-19.5 "/>
<text text-anchor="middle" x="158.5" y="-7.5" font-family="Helvetica,sans-Serif" font-size="10.00"> </text>
</g>
<!-- Node2 -->
<g id="node2" class="node"><title>Node2</title>
<g id="a_node2"><a xlink:href="class_ticker.html" target="_top" xlink:title="{Ticker\n||+ Ticker()\l+ ~Ticker()\l+ attach()\l+ detach()\l+ call()\l}">
<polygon fill="white" stroke="black" points="77,-160.5 77,-261.5 148,-261.5 148,-160.5 77,-160.5"/>
<text text-anchor="middle" x="112.5" y="-249.5" font-family="Helvetica,sans-Serif" font-size="10.00">Ticker</text>
<polyline fill="none" stroke="black" points="77,-242.5 148,-242.5 "/>
<text text-anchor="middle" x="112.5" y="-230.5" font-family="Helvetica,sans-Serif" font-size="10.00"> </text>
<polyline fill="none" stroke="black" points="77,-223.5 148,-223.5 "/>
<text text-anchor="start" x="85" y="-211.5" font-family="Helvetica,sans-Serif" font-size="10.00">+ Ticker()</text>
<text text-anchor="start" x="85" y="-200.5" font-family="Helvetica,sans-Serif" font-size="10.00">+ ~Ticker()</text>
<text text-anchor="start" x="85" y="-189.5" font-family="Helvetica,sans-Serif" font-size="10.00">+ attach()</text>
<text text-anchor="start" x="85" y="-178.5" font-family="Helvetica,sans-Serif" font-size="10.00">+ detach()</text>
<text text-anchor="start" x="85" y="-167.5" font-family="Helvetica,sans-Serif" font-size="10.00">+ call()</text>
</a>
</g>
</g>
<!-- Node2&#45;&gt;Node1 -->
<g id="edge1" class="edge"><title>Node2&#45;&gt;Node1</title>
<path fill="none" stroke="#404040" d="M118.672,-160.244C120.451,-150.445 122.694,-140.316 125.5,-131 126.181,-128.74 126.915,-126.458 127.693,-124.168"/>
<polygon fill="none" stroke="#404040" points="127.767,-123.968 126.078,-116.957 131.9,-112.702 133.589,-119.713 127.767,-123.968"/>
<text text-anchor="middle" x="151" y="-134" font-family="Helvetica,sans-Serif" font-size="10.00"> +timeOut</text>
</g>
<!-- Node3 -->
<g id="node3" class="node"><title>Node3</title>
<g id="a_node3"><a xlink:href="class_scheduled_callable.html" target="_top" xlink:title="{ScheduledCallable\n||+ ScheduledCallable()\l+ ScheduledCallable()\l+ getSleepingSince()\l+ setSleeptime()\l+ getSleepTime()\l+ resetSleepTimer()\l}">
<polygon fill="white" stroke="black" points="10,-310.5 10,-422.5 133,-422.5 133,-310.5 10,-310.5"/>
<text text-anchor="middle" x="71.5" y="-410.5" font-family="Helvetica,sans-Serif" font-size="10.00">ScheduledCallable</text>
<polyline fill="none" stroke="black" points="10,-403.5 133,-403.5 "/>
<text text-anchor="middle" x="71.5" y="-391.5" font-family="Helvetica,sans-Serif" font-size="10.00"> </text>
<polyline fill="none" stroke="black" points="10,-384.5 133,-384.5 "/>
<text text-anchor="start" x="18" y="-372.5" font-family="Helvetica,sans-Serif" font-size="10.00">+ ScheduledCallable()</text>
<text text-anchor="start" x="18" y="-361.5" font-family="Helvetica,sans-Serif" font-size="10.00">+ ScheduledCallable()</text>
<text text-anchor="start" x="18" y="-350.5" font-family="Helvetica,sans-Serif" font-size="10.00">+ getSleepingSince()</text>
<text text-anchor="start" x="18" y="-339.5" font-family="Helvetica,sans-Serif" font-size="10.00">+ setSleeptime()</text>
<text text-anchor="start" x="18" y="-328.5" font-family="Helvetica,sans-Serif" font-size="10.00">+ getSleepTime()</text>
<text text-anchor="start" x="18" y="-317.5" font-family="Helvetica,sans-Serif" font-size="10.00">+ resetSleepTimer()</text>
</a>
</g>
</g>
<!-- Node3&#45;&gt;Node2 -->
<g id="edge2" class="edge"><title>Node3&#45;&gt;Node2</title>
<path fill="none" stroke="midnightblue" d="M88.9104,-300.317C92.3608,-287.399 95.9306,-274.034 99.2168,-261.731"/>
<polygon fill="none" stroke="midnightblue" points="85.5011,-299.518 86.3019,-310.083 92.264,-301.325 85.5011,-299.518"/>
</g>
<!-- Node4 -->
<g id="node4" class="node"><title>Node4</title>
<g id="a_node4"><a xlink:href="class_i_callable.html" target="_top" xlink:title="{ICallable\n||+ call()\l}">
<polygon fill="white" stroke="black" points="43.5,-471.5 43.5,-528.5 99.5,-528.5 99.5,-471.5 43.5,-471.5"/>
<text text-anchor="middle" x="71.5" y="-516.5" font-family="Helvetica,sans-Serif" font-size="10.00">ICallable</text>
<polyline fill="none" stroke="black" points="43.5,-509.5 99.5,-509.5 "/>
<text text-anchor="middle" x="71.5" y="-497.5" font-family="Helvetica,sans-Serif" font-size="10.00"> </text>
<polyline fill="none" stroke="black" points="43.5,-490.5 99.5,-490.5 "/>
<text text-anchor="start" x="51.5" y="-478.5" font-family="Helvetica,sans-Serif" font-size="10.00">+ call()</text>
</a>
</g>
</g>
<!-- Node4&#45;&gt;Node3 -->
<g id="edge3" class="edge"><title>Node4&#45;&gt;Node3</title>
<path fill="none" stroke="midnightblue" d="M71.5,-461.306C71.5,-449.269 71.5,-435.689 71.5,-422.675"/>
<polygon fill="none" stroke="midnightblue" points="68.0001,-461.433 71.5,-471.433 75.0001,-461.433 68.0001,-461.433"/>
</g>
<!-- Node5 -->
<g id="node5" class="node"><title>Node5</title>
<g id="a_node5"><a xlink:href="class_non_copyable.html" target="_top" xlink:title="{NonCopyable\&lt; ICallable \&gt;\n||+ NonCopyable()\l}">
<polygon fill="white" stroke="black" points="0,-566.5 0,-623.5 143,-623.5 143,-566.5 0,-566.5"/>
<text text-anchor="middle" x="71.5" y="-611.5" font-family="Helvetica,sans-Serif" font-size="10.00">NonCopyable&lt; ICallable &gt;</text>
<polyline fill="none" stroke="black" points="0,-604.5 143,-604.5 "/>
<text text-anchor="middle" x="71.5" y="-592.5" font-family="Helvetica,sans-Serif" font-size="10.00"> </text>
<polyline fill="none" stroke="black" points="0,-585.5 143,-585.5 "/>
<text text-anchor="start" x="8" y="-573.5" font-family="Helvetica,sans-Serif" font-size="10.00">+ NonCopyable()</text>
</a>
</g>
</g>
<!-- Node5&#45;&gt;Node4 -->
<g id="edge4" class="edge"><title>Node5&#45;&gt;Node4</title>
<path fill="none" stroke="#8b1a1a" d="M71.5,-556.235C71.5,-547.028 71.5,-537.346 71.5,-528.705"/>
<polygon fill="none" stroke="#8b1a1a" points="68.0001,-556.349 71.5,-566.349 75.0001,-556.349 68.0001,-556.349"/>
</g>
<!-- Node6 -->
<g id="node6" class="node"><title>Node6</title>
<g id="a_node6"><a xlink:href="class_timer.html" target="_top" xlink:title="{Timer\n||}">
<polygon fill="white" stroke="black" points="179.5,-182.5 179.5,-239.5 223.5,-239.5 223.5,-182.5 179.5,-182.5"/>
<text text-anchor="middle" x="201.5" y="-227.5" font-family="Helvetica,sans-Serif" font-size="10.00">Timer</text>
<polyline fill="none" stroke="black" points="179.5,-220.5 223.5,-220.5 "/>
<text text-anchor="middle" x="201.5" y="-208.5" font-family="Helvetica,sans-Serif" font-size="10.00"> </text>
<polyline fill="none" stroke="black" points="179.5,-201.5 223.5,-201.5 "/>
<text text-anchor="middle" x="201.5" y="-189.5" font-family="Helvetica,sans-Serif" font-size="10.00"> </text>
</a>
</g>
</g>
<!-- Node6&#45;&gt;Node1 -->
<g id="edge5" class="edge"><title>Node6&#45;&gt;Node1</title>
<path fill="none" stroke="#404040" d="M193.713,-182.383C189.119,-166.092 183.092,-144.717 177.326,-124.266"/>
<polygon fill="none" stroke="#404040" points="177.324,-124.259 171.846,-119.57 174.067,-112.709 179.545,-117.399 177.324,-124.259"/>
<text text-anchor="middle" x="200" y="-134" font-family="Helvetica,sans-Serif" font-size="10.00"> +timer</text>
</g>
<!-- Node7 -->
<g id="node7" class="node"><title>Node7</title>
<g id="a_node7"><a xlink:href="class_i_timer.html" target="_top" xlink:title="{ITimer\n||+ ITimer()\l+ start()\l+ stop()\l+ reset()\l+ read()\l+ read_ms()\l+ operator float()\l# getMillis()\l}">
<polygon fill="white" stroke="black" points="151,-299.5 151,-433.5 252,-433.5 252,-299.5 151,-299.5"/>
<text text-anchor="middle" x="201.5" y="-421.5" font-family="Helvetica,sans-Serif" font-size="10.00">ITimer</text>
<polyline fill="none" stroke="black" points="151,-414.5 252,-414.5 "/>
<text text-anchor="middle" x="201.5" y="-402.5" font-family="Helvetica,sans-Serif" font-size="10.00"> </text>
<polyline fill="none" stroke="black" points="151,-395.5 252,-395.5 "/>
<text text-anchor="start" x="159" y="-383.5" font-family="Helvetica,sans-Serif" font-size="10.00">+ ITimer()</text>
<text text-anchor="start" x="159" y="-372.5" font-family="Helvetica,sans-Serif" font-size="10.00">+ start()</text>
<text text-anchor="start" x="159" y="-361.5" font-family="Helvetica,sans-Serif" font-size="10.00">+ stop()</text>
<text text-anchor="start" x="159" y="-350.5" font-family="Helvetica,sans-Serif" font-size="10.00">+ reset()</text>
<text text-anchor="start" x="159" y="-339.5" font-family="Helvetica,sans-Serif" font-size="10.00">+ read()</text>
<text text-anchor="start" x="159" y="-328.5" font-family="Helvetica,sans-Serif" font-size="10.00">+ read_ms()</text>
<text text-anchor="start" x="159" y="-317.5" font-family="Helvetica,sans-Serif" font-size="10.00">+ operator float()</text>
<text text-anchor="start" x="159" y="-306.5" font-family="Helvetica,sans-Serif" font-size="10.00"># getMillis()</text>
</a>
</g>
</g>
<!-- Node7&#45;&gt;Node6 -->
<g id="edge6" class="edge"><title>Node7&#45;&gt;Node6</title>
<path fill="none" stroke="midnightblue" d="M194.75,-288.721C194.751,-271.103 195.225,-253.488 196.174,-239.588"/>
<polygon fill="none" stroke="midnightblue" points="191.252,-289.084 194.804,-299.065 198.252,-289.047 191.252,-289.084"/>
</g>
<!-- Node7&#45;&gt;Node6 -->
<g id="edge8" class="edge"><title>Node7&#45;&gt;Node6</title>
<path fill="none" stroke="midnightblue" d="M208.25,-288.721C208.249,-271.103 207.775,-253.488 206.826,-239.588"/>
<polygon fill="none" stroke="midnightblue" points="204.748,-289.047 208.196,-299.065 211.748,-289.084 204.748,-289.047"/>
</g>
<!-- Node8 -->
<g id="node8" class="node"><title>Node8</title>
<g id="a_node8"><a xlink:href="class_non_copyable.html" target="_top" xlink:title="{NonCopyable\&lt; ITimer \&gt;\n||+ NonCopyable()\l}">
<polygon fill="white" stroke="black" points="135.5,-471.5 135.5,-528.5 267.5,-528.5 267.5,-471.5 135.5,-471.5"/>
<text text-anchor="middle" x="201.5" y="-516.5" font-family="Helvetica,sans-Serif" font-size="10.00">NonCopyable&lt; ITimer &gt;</text>
<polyline fill="none" stroke="black" points="135.5,-509.5 267.5,-509.5 "/>
<text text-anchor="middle" x="201.5" y="-497.5" font-family="Helvetica,sans-Serif" font-size="10.00"> </text>
<polyline fill="none" stroke="black" points="135.5,-490.5 267.5,-490.5 "/>
<text text-anchor="start" x="143.5" y="-478.5" font-family="Helvetica,sans-Serif" font-size="10.00">+ NonCopyable()</text>
</a>
</g>
</g>
<!-- Node8&#45;&gt;Node7 -->
<g id="edge7" class="edge"><title>Node8&#45;&gt;Node7</title>
<path fill="none" stroke="#8b1a1a" d="M201.5,-461.331C201.5,-452.682 201.5,-443.234 201.5,-433.771"/>
<polygon fill="none" stroke="#8b1a1a" points="198,-461.433 201.5,-471.433 205,-461.433 198,-461.433"/>
</g>
</g>
</svg>
