<?xml version="1.0" encoding="UTF-8" standalone="no"?>
<!DOCTYPE svg PUBLIC "-//W3C//DTD SVG 1.1//EN"
 "http://www.w3.org/Graphics/SVG/1.1/DTD/svg11.dtd">
<!-- Generated by graphviz version 2.38.0 (20140413.2041)
 -->
<!-- Title: HardwarePedal::_calibration::sensor1 Pages: 1 -->
<svg width="197pt" height="314pt"
 viewBox="0.00 0.00 197.00 314.00" xmlns="http://www.w3.org/2000/svg" xmlns:xlink="http://www.w3.org/1999/xlink">
<g id="graph0" class="graph" transform="scale(1 1) rotate(0) translate(4 310)">
<title>HardwarePedal::_calibration::sensor1</title>
<polygon fill="white" stroke="none" points="-4,4 -4,-310 193,-310 193,4 -4,4"/>
<!-- Node1 -->
<g id="node1" class="node"><title>Node1</title>
<polygon fill="#bfbfbf" stroke="black" points="20,-0.5 20,-90.5 169,-90.5 169,-0.5 20,-0.5"/>
<text text-anchor="start" x="28" y="-78.5" font-family="Helvetica,sans-Serif" font-size="10.00">HardwarePedal::_calibration</text>
<text text-anchor="middle" x="94.5" y="-67.5" font-family="Helvetica,sans-Serif" font-size="10.00">::sensor1</text>
<polyline fill="none" stroke="black" points="20,-60.5 169,-60.5 "/>
<text text-anchor="start" x="28" y="-48.5" font-family="Helvetica,sans-Serif" font-size="10.00">+ min</text>
<text text-anchor="start" x="28" y="-37.5" font-family="Helvetica,sans-Serif" font-size="10.00">+ max</text>
<text text-anchor="start" x="28" y="-26.5" font-family="Helvetica,sans-Serif" font-size="10.00">+ initPointSet</text>
<polyline fill="none" stroke="black" points="20,-19.5 169,-19.5 "/>
<text text-anchor="middle" x="94.5" y="-7.5" font-family="Helvetica,sans-Serif" font-size="10.00"> </text>
</g>
<!-- Node2 -->
<g id="node2" class="node"><title>Node2</title>
<g id="a_node2"><a xlink:href="class_circular_buffer.html" target="_top" xlink:title="{CircularBuffer\&lt; analog\l_sensor_raw_t, PEDAL_CALIBRATION\l_SAMPLE_BUFFER_SIZE \&gt;\n||+ CircularBuffer()\l+ ~CircularBuffer()\l+ push()\l+ pop()\l+ empty()\l+ full()\l+ reset()\l+ size()\l+ peek()\l}">
<polygon fill="white" stroke="black" points="0,-138.5 0,-305.5 189,-305.5 189,-138.5 0,-138.5"/>
<text text-anchor="start" x="8" y="-293.5" font-family="Helvetica,sans-Serif" font-size="10.00">CircularBuffer&lt; analog</text>
<text text-anchor="start" x="8" y="-282.5" font-family="Helvetica,sans-Serif" font-size="10.00">_sensor_raw_t, PEDAL_CALIBRATION</text>
<text text-anchor="middle" x="94.5" y="-271.5" font-family="Helvetica,sans-Serif" font-size="10.00">_SAMPLE_BUFFER_SIZE &gt;</text>
<polyline fill="none" stroke="black" points="0,-264.5 189,-264.5 "/>
<text text-anchor="middle" x="94.5" y="-252.5" font-family="Helvetica,sans-Serif" font-size="10.00"> </text>
<polyline fill="none" stroke="black" points="0,-245.5 189,-245.5 "/>
<text text-anchor="start" x="8" y="-233.5" font-family="Helvetica,sans-Serif" font-size="10.00">+ CircularBuffer()</text>
<text text-anchor="start" x="8" y="-222.5" font-family="Helvetica,sans-Serif" font-size="10.00">+ ~CircularBuffer()</text>
<text text-anchor="start" x="8" y="-211.5" font-family="Helvetica,sans-Serif" font-size="10.00">+ push()</text>
<text text-anchor="start" x="8" y="-200.5" font-family="Helvetica,sans-Serif" font-size="10.00">+ pop()</text>
<text text-anchor="start" x="8" y="-189.5" font-family="Helvetica,sans-Serif" font-size="10.00">+ empty()</text>
<text text-anchor="start" x="8" y="-178.5" font-family="Helvetica,sans-Serif" font-size="10.00">+ full()</text>
<text text-anchor="start" x="8" y="-167.5" font-family="Helvetica,sans-Serif" font-size="10.00">+ reset()</text>
<text text-anchor="start" x="8" y="-156.5" font-family="Helvetica,sans-Serif" font-size="10.00">+ size()</text>
<text text-anchor="start" x="8" y="-145.5" font-family="Helvetica,sans-Serif" font-size="10.00">+ peek()</text>
</a>
</g>
</g>
<!-- Node2&#45;&gt;Node1 -->
<g id="edge1" class="edge"><title>Node2&#45;&gt;Node1</title>
<path fill="none" stroke="#404040" d="M94.5,-138.349C94.5,-126.444 94.5,-114.425 94.5,-103.181"/>
<polygon fill="none" stroke="#404040" points="94.5001,-102.863 90.5,-96.8634 94.5,-90.8634 98.5,-96.8634 94.5001,-102.863"/>
<text text-anchor="middle" x="114.5" y="-112" font-family="Helvetica,sans-Serif" font-size="10.00"> +buffer</text>
</g>
</g>
</svg>
