<?xml version="1.0" encoding="UTF-8" standalone="no"?>
<!DOCTYPE svg PUBLIC "-//W3C//DTD SVG 1.1//EN"
 "http://www.w3.org/Graphics/SVG/1.1/DTD/svg11.dtd">
<!-- Generated by graphviz version 2.38.0 (20140413.2041)
 -->
<!-- Title: HardwareAnalogSensor::_boundary::raw Pages: 1 -->
<svg width="140pt" height="482pt"
 viewBox="0.00 0.00 140.00 482.00" xmlns="http://www.w3.org/2000/svg" xmlns:xlink="http://www.w3.org/1999/xlink">
<g id="graph0" class="graph" transform="scale(1 1) rotate(0) translate(4 478)">
<title>HardwareAnalogSensor::_boundary::raw</title>
<polygon fill="white" stroke="none" points="-4,4 -4,-478 136,-478 136,4 -4,4"/>
<!-- Node1 -->
<g id="node1" class="node"><title>Node1</title>
<polygon fill="#bfbfbf" stroke="black" points="1.5,-0.5 1.5,-101.5 130.5,-101.5 130.5,-0.5 1.5,-0.5"/>
<text text-anchor="start" x="9.5" y="-89.5" font-family="Helvetica,sans-Serif" font-size="10.00">HardwareAnalogSensor</text>
<text text-anchor="middle" x="66" y="-78.5" font-family="Helvetica,sans-Serif" font-size="10.00">::_boundary::raw</text>
<polyline fill="none" stroke="black" points="1.5,-71.5 130.5,-71.5 "/>
<text text-anchor="start" x="9.5" y="-59.5" font-family="Helvetica,sans-Serif" font-size="10.00">+ lowerEnd</text>
<text text-anchor="start" x="9.5" y="-48.5" font-family="Helvetica,sans-Serif" font-size="10.00">+ upperEnd</text>
<text text-anchor="start" x="9.5" y="-37.5" font-family="Helvetica,sans-Serif" font-size="10.00">+ outTimerStarted</text>
<text text-anchor="start" x="9.5" y="-26.5" font-family="Helvetica,sans-Serif" font-size="10.00">+ outTimerLimit</text>
<polyline fill="none" stroke="black" points="1.5,-19.5 130.5,-19.5 "/>
<text text-anchor="middle" x="66" y="-7.5" font-family="Helvetica,sans-Serif" font-size="10.00"> </text>
</g>
<!-- Node2 -->
<g id="node2" class="node"><title>Node2</title>
<g id="a_node2"><a xlink:href="class_timer.html" target="_top" xlink:title="{Timer\n||}">
<polygon fill="white" stroke="black" points="44,-149.5 44,-206.5 88,-206.5 88,-149.5 44,-149.5"/>
<text text-anchor="middle" x="66" y="-194.5" font-family="Helvetica,sans-Serif" font-size="10.00">Timer</text>
<polyline fill="none" stroke="black" points="44,-187.5 88,-187.5 "/>
<text text-anchor="middle" x="66" y="-175.5" font-family="Helvetica,sans-Serif" font-size="10.00"> </text>
<polyline fill="none" stroke="black" points="44,-168.5 88,-168.5 "/>
<text text-anchor="middle" x="66" y="-156.5" font-family="Helvetica,sans-Serif" font-size="10.00"> </text>
</a>
</g>
</g>
<!-- Node2&#45;&gt;Node1 -->
<g id="edge1" class="edge"><title>Node2&#45;&gt;Node1</title>
<path fill="none" stroke="#404040" d="M66,-149.258C66,-138.793 66,-126.422 66,-114.072"/>
<polygon fill="none" stroke="#404040" points="66.0001,-113.802 62,-107.802 66,-101.802 70,-107.802 66.0001,-113.802"/>
<text text-anchor="middle" x="93.5" y="-123" font-family="Helvetica,sans-Serif" font-size="10.00"> +outTimer</text>
</g>
<!-- Node3 -->
<g id="node3" class="node"><title>Node3</title>
<g id="a_node3"><a xlink:href="class_i_timer.html" target="_top" xlink:title="{ITimer\n||+ ITimer()\l+ start()\l+ stop()\l+ reset()\l+ read()\l+ read_ms()\l+ operator float()\l# getMillis()\l}">
<polygon fill="white" stroke="black" points="15.5,-244.5 15.5,-378.5 116.5,-378.5 116.5,-244.5 15.5,-244.5"/>
<text text-anchor="middle" x="66" y="-366.5" font-family="Helvetica,sans-Serif" font-size="10.00">ITimer</text>
<polyline fill="none" stroke="black" points="15.5,-359.5 116.5,-359.5 "/>
<text text-anchor="middle" x="66" y="-347.5" font-family="Helvetica,sans-Serif" font-size="10.00"> </text>
<polyline fill="none" stroke="black" points="15.5,-340.5 116.5,-340.5 "/>
<text text-anchor="start" x="23.5" y="-328.5" font-family="Helvetica,sans-Serif" font-size="10.00">+ ITimer()</text>
<text text-anchor="start" x="23.5" y="-317.5" font-family="Helvetica,sans-Serif" font-size="10.00">+ start()</text>
<text text-anchor="start" x="23.5" y="-306.5" font-family="Helvetica,sans-Serif" font-size="10.00">+ stop()</text>
<text text-anchor="start" x="23.5" y="-295.5" font-family="Helvetica,sans-Serif" font-size="10.00">+ reset()</text>
<text text-anchor="start" x="23.5" y="-284.5" font-family="Helvetica,sans-Serif" font-size="10.00">+ read()</text>
<text text-anchor="start" x="23.5" y="-273.5" font-family="Helvetica,sans-Serif" font-size="10.00">+ read_ms()</text>
<text text-anchor="start" x="23.5" y="-262.5" font-family="Helvetica,sans-Serif" font-size="10.00">+ operator float()</text>
<text text-anchor="start" x="23.5" y="-251.5" font-family="Helvetica,sans-Serif" font-size="10.00"># getMillis()</text>
</a>
</g>
</g>
<!-- Node3&#45;&gt;Node2 -->
<g id="edge2" class="edge"><title>Node3&#45;&gt;Node2</title>
<path fill="none" stroke="midnightblue" d="M59.3291,-234.117C59.4754,-224.359 59.8246,-214.922 60.3768,-206.697"/>
<polygon fill="none" stroke="midnightblue" points="55.8274,-234.338 59.2501,-244.365 62.8272,-234.392 55.8274,-234.338"/>
</g>
<!-- Node3&#45;&gt;Node2 -->
<g id="edge4" class="edge"><title>Node3&#45;&gt;Node2</title>
<path fill="none" stroke="midnightblue" d="M72.6709,-234.117C72.5246,-224.359 72.1754,-214.922 71.6232,-206.697"/>
<polygon fill="none" stroke="midnightblue" points="69.1728,-234.392 72.7499,-244.365 76.1726,-234.338 69.1728,-234.392"/>
</g>
<!-- Node4 -->
<g id="node4" class="node"><title>Node4</title>
<g id="a_node4"><a xlink:href="class_non_copyable.html" target="_top" xlink:title="{NonCopyable\&lt; ITimer \&gt;\n||+ NonCopyable()\l}">
<polygon fill="white" stroke="black" points="0,-416.5 0,-473.5 132,-473.5 132,-416.5 0,-416.5"/>
<text text-anchor="middle" x="66" y="-461.5" font-family="Helvetica,sans-Serif" font-size="10.00">NonCopyable&lt; ITimer &gt;</text>
<polyline fill="none" stroke="black" points="0,-454.5 132,-454.5 "/>
<text text-anchor="middle" x="66" y="-442.5" font-family="Helvetica,sans-Serif" font-size="10.00"> </text>
<polyline fill="none" stroke="black" points="0,-435.5 132,-435.5 "/>
<text text-anchor="start" x="8" y="-423.5" font-family="Helvetica,sans-Serif" font-size="10.00">+ NonCopyable()</text>
</a>
</g>
</g>
<!-- Node4&#45;&gt;Node3 -->
<g id="edge3" class="edge"><title>Node4&#45;&gt;Node3</title>
<path fill="none" stroke="#8b1a1a" d="M66,-406.331C66,-397.682 66,-388.234 66,-378.771"/>
<polygon fill="none" stroke="#8b1a1a" points="62.5001,-406.433 66,-416.433 69.5001,-406.433 62.5001,-406.433"/>
</g>
</g>
</svg>
