<?xml version="1.0" encoding="UTF-8" standalone="no"?>
<!DOCTYPE svg PUBLIC "-//W3C//DTD SVG 1.1//EN"
 "http://www.w3.org/Graphics/SVG/1.1/DTD/svg11.dtd">
<!-- Generated by graphviz version 2.38.0 (20140413.2041)
 -->
<!-- Title: PMotorController::_pedalStruct_t Pages: 1 -->
<svg width="486pt" height="1369pt"
 viewBox="0.00 0.00 485.50 1369.00" xmlns="http://www.w3.org/2000/svg" xmlns:xlink="http://www.w3.org/1999/xlink">
<g id="graph0" class="graph" transform="scale(1 1) rotate(0) translate(4 1365)">
<title>PMotorController::_pedalStruct_t</title>
<polygon fill="white" stroke="none" points="-4,4 -4,-1365 481.5,-1365 481.5,4 -4,4"/>
<!-- Node1 -->
<g id="node1" class="node"><title>Node1</title>
<polygon fill="#bfbfbf" stroke="black" points="308,-0.5 308,-79.5 413,-79.5 413,-0.5 308,-0.5"/>
<text text-anchor="start" x="316" y="-67.5" font-family="Helvetica,sans-Serif" font-size="10.00">PMotorController::</text>
<text text-anchor="middle" x="360.5" y="-56.5" font-family="Helvetica,sans-Serif" font-size="10.00">_pedalStruct_t</text>
<polyline fill="none" stroke="black" points="308,-49.5 413,-49.5 "/>
<text text-anchor="start" x="316" y="-37.5" font-family="Helvetica,sans-Serif" font-size="10.00">+ lastValue</text>
<text text-anchor="start" x="316" y="-26.5" font-family="Helvetica,sans-Serif" font-size="10.00">+ ageStarted</text>
<polyline fill="none" stroke="black" points="308,-19.5 413,-19.5 "/>
<text text-anchor="start" x="316" y="-7.5" font-family="Helvetica,sans-Serif" font-size="10.00">+ _pedalStruct_t()</text>
</g>
<!-- Node2 -->
<g id="node2" class="node"><title>Node2</title>
<g id="a_node2"><a xlink:href="class_i_pedal.html" target="_top" xlink:title="{IPedal\n||+ IPedal()\l+ setProportionality()\l+ getValue()\l+ setCalibrationStatus()\l+ getCalibrationStatus()\l+ setMaxDeviance()\l+ setMaxDevianceTime()\l+ setValue()\l+ getLogValueCount()\l+ getLogValue()\l}">
<polygon fill="white" stroke="black" points="229,-127.5 229,-283.5 366,-283.5 366,-127.5 229,-127.5"/>
<text text-anchor="middle" x="297.5" y="-271.5" font-family="Helvetica,sans-Serif" font-size="10.00">IPedal</text>
<polyline fill="none" stroke="black" points="229,-264.5 366,-264.5 "/>
<text text-anchor="middle" x="297.5" y="-252.5" font-family="Helvetica,sans-Serif" font-size="10.00"> </text>
<polyline fill="none" stroke="black" points="229,-245.5 366,-245.5 "/>
<text text-anchor="start" x="237" y="-233.5" font-family="Helvetica,sans-Serif" font-size="10.00">+ IPedal()</text>
<text text-anchor="start" x="237" y="-222.5" font-family="Helvetica,sans-Serif" font-size="10.00">+ setProportionality()</text>
<text text-anchor="start" x="237" y="-211.5" font-family="Helvetica,sans-Serif" font-size="10.00">+ getValue()</text>
<text text-anchor="start" x="237" y="-200.5" font-family="Helvetica,sans-Serif" font-size="10.00">+ setCalibrationStatus()</text>
<text text-anchor="start" x="237" y="-189.5" font-family="Helvetica,sans-Serif" font-size="10.00">+ getCalibrationStatus()</text>
<text text-anchor="start" x="237" y="-178.5" font-family="Helvetica,sans-Serif" font-size="10.00">+ setMaxDeviance()</text>
<text text-anchor="start" x="237" y="-167.5" font-family="Helvetica,sans-Serif" font-size="10.00">+ setMaxDevianceTime()</text>
<text text-anchor="start" x="237" y="-156.5" font-family="Helvetica,sans-Serif" font-size="10.00">+ setValue()</text>
<text text-anchor="start" x="237" y="-145.5" font-family="Helvetica,sans-Serif" font-size="10.00">+ getLogValueCount()</text>
<text text-anchor="start" x="237" y="-134.5" font-family="Helvetica,sans-Serif" font-size="10.00">+ getLogValue()</text>
</a>
</g>
</g>
<!-- Node2&#45;&gt;Node1 -->
<g id="edge1" class="edge"><title>Node2&#45;&gt;Node1</title>
<path fill="none" stroke="#404040" d="M322.401,-127.322C325.952,-117.39 329.696,-107.409 333.5,-98 334.446,-95.6603 335.44,-93.28 336.467,-90.8852"/>
<polygon fill="none" stroke="#404040" points="336.575,-90.6405 335.353,-83.5338 341.443,-79.6721 342.665,-86.7789 336.575,-90.6405"/>
<text text-anchor="middle" x="354" y="-101" font-family="Helvetica,sans-Serif" font-size="10.00"> +object</text>
</g>
<!-- Node3 -->
<g id="node3" class="node"><title>Node3</title>
<g id="a_node3"><a xlink:href="class_self_syncable.html" target="_top" xlink:title="{SelfSyncable\n|# _syncerAttached\l|+ attach()\l+ detach()\l# _sendCommand()\l# _sendCommand()\l# _sendCommand()\l# _send()\l# _convertFloat()\l# _reconvertFloat()\l# _disassambleFloat()\l# _reassambleFloat()\l}">
<polygon fill="white" stroke="black" points="218.5,-321.5 218.5,-477.5 342.5,-477.5 342.5,-321.5 218.5,-321.5"/>
<text text-anchor="middle" x="280.5" y="-465.5" font-family="Helvetica,sans-Serif" font-size="10.00">SelfSyncable</text>
<polyline fill="none" stroke="black" points="218.5,-458.5 342.5,-458.5 "/>
<text text-anchor="start" x="226.5" y="-446.5" font-family="Helvetica,sans-Serif" font-size="10.00"># _syncerAttached</text>
<polyline fill="none" stroke="black" points="218.5,-439.5 342.5,-439.5 "/>
<text text-anchor="start" x="226.5" y="-427.5" font-family="Helvetica,sans-Serif" font-size="10.00">+ attach()</text>
<text text-anchor="start" x="226.5" y="-416.5" font-family="Helvetica,sans-Serif" font-size="10.00">+ detach()</text>
<text text-anchor="start" x="226.5" y="-405.5" font-family="Helvetica,sans-Serif" font-size="10.00"># _sendCommand()</text>
<text text-anchor="start" x="226.5" y="-394.5" font-family="Helvetica,sans-Serif" font-size="10.00"># _sendCommand()</text>
<text text-anchor="start" x="226.5" y="-383.5" font-family="Helvetica,sans-Serif" font-size="10.00"># _sendCommand()</text>
<text text-anchor="start" x="226.5" y="-372.5" font-family="Helvetica,sans-Serif" font-size="10.00"># _send()</text>
<text text-anchor="start" x="226.5" y="-361.5" font-family="Helvetica,sans-Serif" font-size="10.00"># _convertFloat()</text>
<text text-anchor="start" x="226.5" y="-350.5" font-family="Helvetica,sans-Serif" font-size="10.00"># _reconvertFloat()</text>
<text text-anchor="start" x="226.5" y="-339.5" font-family="Helvetica,sans-Serif" font-size="10.00"># _disassambleFloat()</text>
<text text-anchor="start" x="226.5" y="-328.5" font-family="Helvetica,sans-Serif" font-size="10.00"># _reassambleFloat()</text>
</a>
</g>
</g>
<!-- Node3&#45;&gt;Node2 -->
<g id="edge2" class="edge"><title>Node3&#45;&gt;Node2</title>
<path fill="none" stroke="midnightblue" d="M288.249,-310.985C289.058,-301.85 289.875,-292.612 290.673,-283.606"/>
<polygon fill="none" stroke="midnightblue" points="284.737,-310.966 287.341,-321.236 291.709,-311.584 284.737,-310.966"/>
</g>
<!-- Node4 -->
<g id="node4" class="node"><title>Node4</title>
<g id="a_node4"><a xlink:href="class_i_communication.html" target="_top" xlink:title="{ICommunication\n||+ receive()\l}">
<polygon fill="white" stroke="black" points="244,-711.5 244,-768.5 339,-768.5 339,-711.5 244,-711.5"/>
<text text-anchor="middle" x="291.5" y="-756.5" font-family="Helvetica,sans-Serif" font-size="10.00">ICommunication</text>
<polyline fill="none" stroke="black" points="244,-749.5 339,-749.5 "/>
<text text-anchor="middle" x="291.5" y="-737.5" font-family="Helvetica,sans-Serif" font-size="10.00"> </text>
<polyline fill="none" stroke="black" points="244,-730.5 339,-730.5 "/>
<text text-anchor="start" x="252" y="-718.5" font-family="Helvetica,sans-Serif" font-size="10.00">+ receive()</text>
</a>
</g>
</g>
<!-- Node4&#45;&gt;Node3 -->
<g id="edge3" class="edge"><title>Node4&#45;&gt;Node3</title>
<path fill="none" stroke="midnightblue" d="M290.888,-701.102C290.042,-653.285 288.293,-568.528 285.5,-496 285.27,-490.028 285.006,-483.846 284.722,-477.633"/>
<polygon fill="none" stroke="midnightblue" points="287.392,-701.358 291.065,-711.296 294.391,-701.237 287.392,-701.358"/>
</g>
<!-- Node5 -->
<g id="node5" class="node"><title>Node5</title>
<g id="a_node5"><a xlink:href="class_i_component.html" target="_top" xlink:title="{IComponent\n||+ IComponent()\l+ IComponent()\l+ setComponentSubId()\l+ getComponentType()\l+ getComponentSubId()\l+ getComponentId()\l+ getObjectType()\l# setComponentType()\l# setObjectType()\l}">
<polygon fill="white" stroke="black" points="191.5,-992.5 191.5,-1137.5 325.5,-1137.5 325.5,-992.5 191.5,-992.5"/>
<text text-anchor="middle" x="258.5" y="-1125.5" font-family="Helvetica,sans-Serif" font-size="10.00">IComponent</text>
<polyline fill="none" stroke="black" points="191.5,-1118.5 325.5,-1118.5 "/>
<text text-anchor="middle" x="258.5" y="-1106.5" font-family="Helvetica,sans-Serif" font-size="10.00"> </text>
<polyline fill="none" stroke="black" points="191.5,-1099.5 325.5,-1099.5 "/>
<text text-anchor="start" x="199.5" y="-1087.5" font-family="Helvetica,sans-Serif" font-size="10.00">+ IComponent()</text>
<text text-anchor="start" x="199.5" y="-1076.5" font-family="Helvetica,sans-Serif" font-size="10.00">+ IComponent()</text>
<text text-anchor="start" x="199.5" y="-1065.5" font-family="Helvetica,sans-Serif" font-size="10.00">+ setComponentSubId()</text>
<text text-anchor="start" x="199.5" y="-1054.5" font-family="Helvetica,sans-Serif" font-size="10.00">+ getComponentType()</text>
<text text-anchor="start" x="199.5" y="-1043.5" font-family="Helvetica,sans-Serif" font-size="10.00">+ getComponentSubId()</text>
<text text-anchor="start" x="199.5" y="-1032.5" font-family="Helvetica,sans-Serif" font-size="10.00">+ getComponentId()</text>
<text text-anchor="start" x="199.5" y="-1021.5" font-family="Helvetica,sans-Serif" font-size="10.00">+ getObjectType()</text>
<text text-anchor="start" x="199.5" y="-1010.5" font-family="Helvetica,sans-Serif" font-size="10.00"># setComponentType()</text>
<text text-anchor="start" x="199.5" y="-999.5" font-family="Helvetica,sans-Serif" font-size="10.00"># setObjectType()</text>
</a>
</g>
</g>
<!-- Node5&#45;&gt;Node4 -->
<g id="edge4" class="edge"><title>Node5&#45;&gt;Node4</title>
<path fill="none" stroke="midnightblue" d="M266.857,-982.199C274.003,-912.259 283.868,-815.706 288.659,-768.805"/>
<polygon fill="none" stroke="midnightblue" points="263.358,-982.012 265.824,-992.316 270.322,-982.723 263.358,-982.012"/>
</g>
<!-- Node9 -->
<g id="node9" class="node"><title>Node9</title>
<g id="a_node9"><a xlink:href="class_i_runable.html" target="_top" xlink:title="{IRunable\n||+ IRunable()\l+ run()\l+ setStatus()\l+ getStatus()\l}">
<polygon fill="white" stroke="black" points="174,-826 174,-916 257,-916 257,-826 174,-826"/>
<text text-anchor="middle" x="215.5" y="-904" font-family="Helvetica,sans-Serif" font-size="10.00">IRunable</text>
<polyline fill="none" stroke="black" points="174,-897 257,-897 "/>
<text text-anchor="middle" x="215.5" y="-885" font-family="Helvetica,sans-Serif" font-size="10.00"> </text>
<polyline fill="none" stroke="black" points="174,-878 257,-878 "/>
<text text-anchor="start" x="182" y="-866" font-family="Helvetica,sans-Serif" font-size="10.00">+ IRunable()</text>
<text text-anchor="start" x="182" y="-855" font-family="Helvetica,sans-Serif" font-size="10.00">+ run()</text>
<text text-anchor="start" x="182" y="-844" font-family="Helvetica,sans-Serif" font-size="10.00">+ setStatus()</text>
<text text-anchor="start" x="182" y="-833" font-family="Helvetica,sans-Serif" font-size="10.00">+ getStatus()</text>
</a>
</g>
</g>
<!-- Node5&#45;&gt;Node9 -->
<g id="edge9" class="edge"><title>Node5&#45;&gt;Node9</title>
<path fill="none" stroke="midnightblue" d="M240.19,-982.242C235.105,-959.538 229.777,-935.747 225.377,-916.101"/>
<polygon fill="none" stroke="midnightblue" points="236.826,-983.24 242.427,-992.233 243.657,-981.71 236.826,-983.24"/>
</g>
<!-- Node6 -->
<g id="node6" class="node"><title>Node6</title>
<g id="a_node6"><a xlink:href="class_i_logable.html" target="_top" xlink:title="{ILogable\n||+ setStatus()\l+ getStatus()\l+ getLogValueCount()\l+ getLogValue()\l}">
<polygon fill="white" stroke="black" points="197,-1175.5 197,-1265.5 320,-1265.5 320,-1175.5 197,-1175.5"/>
<text text-anchor="middle" x="258.5" y="-1253.5" font-family="Helvetica,sans-Serif" font-size="10.00">ILogable</text>
<polyline fill="none" stroke="black" points="197,-1246.5 320,-1246.5 "/>
<text text-anchor="middle" x="258.5" y="-1234.5" font-family="Helvetica,sans-Serif" font-size="10.00"> </text>
<polyline fill="none" stroke="black" points="197,-1227.5 320,-1227.5 "/>
<text text-anchor="start" x="205" y="-1215.5" font-family="Helvetica,sans-Serif" font-size="10.00">+ setStatus()</text>
<text text-anchor="start" x="205" y="-1204.5" font-family="Helvetica,sans-Serif" font-size="10.00">+ getStatus()</text>
<text text-anchor="start" x="205" y="-1193.5" font-family="Helvetica,sans-Serif" font-size="10.00">+ getLogValueCount()</text>
<text text-anchor="start" x="205" y="-1182.5" font-family="Helvetica,sans-Serif" font-size="10.00">+ getLogValue()</text>
</a>
</g>
</g>
<!-- Node6&#45;&gt;Node5 -->
<g id="edge5" class="edge"><title>Node6&#45;&gt;Node5</title>
<path fill="none" stroke="midnightblue" d="M258.5,-1164.98C258.5,-1156.16 258.5,-1146.92 258.5,-1137.77"/>
<polygon fill="none" stroke="midnightblue" points="255,-1165.1 258.5,-1175.1 262,-1165.1 255,-1165.1"/>
</g>
<!-- Node7 -->
<g id="node7" class="node"><title>Node7</title>
<g id="a_node7"><a xlink:href="class_non_copyable.html" target="_top" xlink:title="{NonCopyable\&lt; ILogable \&gt;\n||+ NonCopyable()\l}">
<polygon fill="white" stroke="black" points="187,-1303.5 187,-1360.5 330,-1360.5 330,-1303.5 187,-1303.5"/>
<text text-anchor="middle" x="258.5" y="-1348.5" font-family="Helvetica,sans-Serif" font-size="10.00">NonCopyable&lt; ILogable &gt;</text>
<polyline fill="none" stroke="black" points="187,-1341.5 330,-1341.5 "/>
<text text-anchor="middle" x="258.5" y="-1329.5" font-family="Helvetica,sans-Serif" font-size="10.00"> </text>
<polyline fill="none" stroke="black" points="187,-1322.5 330,-1322.5 "/>
<text text-anchor="start" x="195" y="-1310.5" font-family="Helvetica,sans-Serif" font-size="10.00">+ NonCopyable()</text>
</a>
</g>
</g>
<!-- Node7&#45;&gt;Node6 -->
<g id="edge6" class="edge"><title>Node7&#45;&gt;Node6</title>
<path fill="none" stroke="#8b1a1a" d="M258.5,-1293.31C258.5,-1284.43 258.5,-1274.88 258.5,-1265.74"/>
<polygon fill="none" stroke="#8b1a1a" points="255,-1293.37 258.5,-1303.37 262,-1293.37 255,-1293.37"/>
</g>
<!-- Node8 -->
<g id="node8" class="node"><title>Node8</title>
<g id="a_node8"><a xlink:href="class_sync.html" target="_top" xlink:title="{Sync\n||+ Sync()\l+ addComponent()\l+ addBridge()\l+ receive()\l+ send()\l+ run()\l+ messageInQueue()\l+ finalize()\l+ Sync()\l+ receive()\land 7 more...\l}">
<polygon fill="white" stroke="black" points="152,-525.5 152,-692.5 271,-692.5 271,-525.5 152,-525.5"/>
<text text-anchor="middle" x="211.5" y="-680.5" font-family="Helvetica,sans-Serif" font-size="10.00">Sync</text>
<polyline fill="none" stroke="black" points="152,-673.5 271,-673.5 "/>
<text text-anchor="middle" x="211.5" y="-661.5" font-family="Helvetica,sans-Serif" font-size="10.00"> </text>
<polyline fill="none" stroke="black" points="152,-654.5 271,-654.5 "/>
<text text-anchor="start" x="160" y="-642.5" font-family="Helvetica,sans-Serif" font-size="10.00">+ Sync()</text>
<text text-anchor="start" x="160" y="-631.5" font-family="Helvetica,sans-Serif" font-size="10.00">+ addComponent()</text>
<text text-anchor="start" x="160" y="-620.5" font-family="Helvetica,sans-Serif" font-size="10.00">+ addBridge()</text>
<text text-anchor="start" x="160" y="-609.5" font-family="Helvetica,sans-Serif" font-size="10.00">+ receive()</text>
<text text-anchor="start" x="160" y="-598.5" font-family="Helvetica,sans-Serif" font-size="10.00">+ send()</text>
<text text-anchor="start" x="160" y="-587.5" font-family="Helvetica,sans-Serif" font-size="10.00">+ run()</text>
<text text-anchor="start" x="160" y="-576.5" font-family="Helvetica,sans-Serif" font-size="10.00">+ messageInQueue()</text>
<text text-anchor="start" x="160" y="-565.5" font-family="Helvetica,sans-Serif" font-size="10.00">+ finalize()</text>
<text text-anchor="start" x="160" y="-554.5" font-family="Helvetica,sans-Serif" font-size="10.00">+ Sync()</text>
<text text-anchor="start" x="160" y="-543.5" font-family="Helvetica,sans-Serif" font-size="10.00">+ receive()</text>
<text text-anchor="start" x="160" y="-532.5" font-family="Helvetica,sans-Serif" font-size="10.00">and 7 more...</text>
</a>
</g>
</g>
<!-- Node8&#45;&gt;Node3 -->
<g id="edge7" class="edge"><title>Node8&#45;&gt;Node3</title>
<path fill="none" stroke="#404040" d="M227.82,-525.482C230.417,-515.461 233.313,-505.438 236.5,-496 237.299,-493.635 238.137,-491.251 239.01,-488.856"/>
<polygon fill="none" stroke="#404040" points="239.028,-488.808 237.434,-481.775 243.313,-477.599 244.907,-484.632 239.028,-488.808"/>
<text text-anchor="middle" x="261" y="-499" font-family="Helvetica,sans-Serif" font-size="10.00"> #_syncer</text>
</g>
<!-- Node9&#45;&gt;Node8 -->
<g id="edge8" class="edge"><title>Node9&#45;&gt;Node8</title>
<path fill="none" stroke="midnightblue" d="M209.058,-815.718C207.291,-780.146 206.321,-732.965 206.436,-692.76"/>
<polygon fill="none" stroke="midnightblue" points="205.573,-816.097 209.604,-825.895 212.563,-815.721 205.573,-816.097"/>
</g>
<!-- Node9&#45;&gt;Node8 -->
<g id="edge10" class="edge"><title>Node9&#45;&gt;Node8</title>
<path fill="none" stroke="midnightblue" d="M220.272,-815.718C220.945,-780.146 220.462,-732.965 219.11,-692.76"/>
<polygon fill="none" stroke="midnightblue" points="216.769,-815.817 220.038,-825.895 223.767,-815.977 216.769,-815.817"/>
</g>
<!-- Node10 -->
<g id="node10" class="node"><title>Node10</title>
<g id="a_node10"><a xlink:href="classstd_1_1vector.html" target="_top" xlink:title="{std::vector\&lt; CarMessage \&gt;\n||+ ~vector()\l+ at()\l+ operator[]()\l+ front()\l+ back()\l+ data()\l+ begin()\l+ end()\l+ empty()\l+ size()\land 7 more...\l}">
<polygon fill="white" stroke="black" points="0,-787.5 0,-954.5 149,-954.5 149,-787.5 0,-787.5"/>
<text text-anchor="middle" x="74.5" y="-942.5" font-family="Helvetica,sans-Serif" font-size="10.00">std::vector&lt; CarMessage &gt;</text>
<polyline fill="none" stroke="black" points="0,-935.5 149,-935.5 "/>
<text text-anchor="middle" x="74.5" y="-923.5" font-family="Helvetica,sans-Serif" font-size="10.00"> </text>
<polyline fill="none" stroke="black" points="0,-916.5 149,-916.5 "/>
<text text-anchor="start" x="8" y="-904.5" font-family="Helvetica,sans-Serif" font-size="10.00">+ ~vector()</text>
<text text-anchor="start" x="8" y="-893.5" font-family="Helvetica,sans-Serif" font-size="10.00">+ at()</text>
<text text-anchor="start" x="8" y="-882.5" font-family="Helvetica,sans-Serif" font-size="10.00">+ operator[]()</text>
<text text-anchor="start" x="8" y="-871.5" font-family="Helvetica,sans-Serif" font-size="10.00">+ front()</text>
<text text-anchor="start" x="8" y="-860.5" font-family="Helvetica,sans-Serif" font-size="10.00">+ back()</text>
<text text-anchor="start" x="8" y="-849.5" font-family="Helvetica,sans-Serif" font-size="10.00">+ data()</text>
<text text-anchor="start" x="8" y="-838.5" font-family="Helvetica,sans-Serif" font-size="10.00">+ begin()</text>
<text text-anchor="start" x="8" y="-827.5" font-family="Helvetica,sans-Serif" font-size="10.00">+ end()</text>
<text text-anchor="start" x="8" y="-816.5" font-family="Helvetica,sans-Serif" font-size="10.00">+ empty()</text>
<text text-anchor="start" x="8" y="-805.5" font-family="Helvetica,sans-Serif" font-size="10.00">+ size()</text>
<text text-anchor="start" x="8" y="-794.5" font-family="Helvetica,sans-Serif" font-size="10.00">and 7 more...</text>
</a>
</g>
</g>
<!-- Node10&#45;&gt;Node8 -->
<g id="edge11" class="edge"><title>Node10&#45;&gt;Node8</title>
<path fill="none" stroke="#404040" d="M72.2405,-787.251C74.5224,-761.6 80.213,-734.042 92.5,-711 104.334,-688.808 123.228,-669.431 142.509,-653.746"/>
<polygon fill="none" stroke="#404040" points="142.521,-653.737 144.785,-646.89 151.975,-646.347 149.711,-653.193 142.521,-653.737"/>
<text text-anchor="middle" x="151" y="-737.5" font-family="Helvetica,sans-Serif" font-size="10.00"> +receivedCarMessages</text>
</g>
<!-- Node11 -->
<g id="node11" class="node"><title>Node11</title>
<g id="a_node11"><a xlink:href="class_non_copyable.html" target="_top" xlink:title="{NonCopyable\&lt; vector\l\&lt; CarMessage, unsigned\l int \&gt; \&gt;\n||+ NonCopyable()\l}">
<polygon fill="white" stroke="black" points="6,-1025.5 6,-1104.5 143,-1104.5 143,-1025.5 6,-1025.5"/>
<text text-anchor="start" x="14" y="-1092.5" font-family="Helvetica,sans-Serif" font-size="10.00">NonCopyable&lt; vector</text>
<text text-anchor="start" x="14" y="-1081.5" font-family="Helvetica,sans-Serif" font-size="10.00">&lt; CarMessage, unsigned</text>
<text text-anchor="middle" x="74.5" y="-1070.5" font-family="Helvetica,sans-Serif" font-size="10.00"> int &gt; &gt;</text>
<polyline fill="none" stroke="black" points="6,-1063.5 143,-1063.5 "/>
<text text-anchor="middle" x="74.5" y="-1051.5" font-family="Helvetica,sans-Serif" font-size="10.00"> </text>
<polyline fill="none" stroke="black" points="6,-1044.5 143,-1044.5 "/>
<text text-anchor="start" x="14" y="-1032.5" font-family="Helvetica,sans-Serif" font-size="10.00">+ NonCopyable()</text>
</a>
</g>
</g>
<!-- Node11&#45;&gt;Node10 -->
<g id="edge12" class="edge"><title>Node11&#45;&gt;Node10</title>
<path fill="none" stroke="#8b1a1a" d="M74.5,-1015.02C74.5,-996.699 74.5,-975.342 74.5,-954.805"/>
<polygon fill="none" stroke="#8b1a1a" points="71.0001,-1015.15 74.5,-1025.15 78.0001,-1015.15 71.0001,-1015.15"/>
</g>
<!-- Node12 -->
<g id="node12" class="node"><title>Node12</title>
<g id="a_node12"><a xlink:href="class_timer.html" target="_top" xlink:title="{Timer\n||}">
<polygon fill="white" stroke="black" points="389.5,-177 389.5,-234 433.5,-234 433.5,-177 389.5,-177"/>
<text text-anchor="middle" x="411.5" y="-222" font-family="Helvetica,sans-Serif" font-size="10.00">Timer</text>
<polyline fill="none" stroke="black" points="389.5,-215 433.5,-215 "/>
<text text-anchor="middle" x="411.5" y="-203" font-family="Helvetica,sans-Serif" font-size="10.00"> </text>
<polyline fill="none" stroke="black" points="389.5,-196 433.5,-196 "/>
<text text-anchor="middle" x="411.5" y="-184" font-family="Helvetica,sans-Serif" font-size="10.00"> </text>
</a>
</g>
</g>
<!-- Node12&#45;&gt;Node1 -->
<g id="edge13" class="edge"><title>Node12&#45;&gt;Node1</title>
<path fill="none" stroke="#404040" d="M402.849,-176.764C395.563,-153.407 384.955,-119.4 376.179,-91.266"/>
<polygon fill="none" stroke="#404040" points="376.119,-91.0718 370.514,-86.5351 372.545,-79.6162 378.151,-84.1528 376.119,-91.0718"/>
<text text-anchor="middle" x="396.5" y="-101" font-family="Helvetica,sans-Serif" font-size="10.00"> +age</text>
</g>
<!-- Node13 -->
<g id="node13" class="node"><title>Node13</title>
<g id="a_node13"><a xlink:href="class_i_timer.html" target="_top" xlink:title="{ITimer\n||+ ITimer()\l+ start()\l+ stop()\l+ reset()\l+ read()\l+ read_ms()\l+ operator float()\l# getMillis()\l}">
<polygon fill="white" stroke="black" points="361,-332.5 361,-466.5 462,-466.5 462,-332.5 361,-332.5"/>
<text text-anchor="middle" x="411.5" y="-454.5" font-family="Helvetica,sans-Serif" font-size="10.00">ITimer</text>
<polyline fill="none" stroke="black" points="361,-447.5 462,-447.5 "/>
<text text-anchor="middle" x="411.5" y="-435.5" font-family="Helvetica,sans-Serif" font-size="10.00"> </text>
<polyline fill="none" stroke="black" points="361,-428.5 462,-428.5 "/>
<text text-anchor="start" x="369" y="-416.5" font-family="Helvetica,sans-Serif" font-size="10.00">+ ITimer()</text>
<text text-anchor="start" x="369" y="-405.5" font-family="Helvetica,sans-Serif" font-size="10.00">+ start()</text>
<text text-anchor="start" x="369" y="-394.5" font-family="Helvetica,sans-Serif" font-size="10.00">+ stop()</text>
<text text-anchor="start" x="369" y="-383.5" font-family="Helvetica,sans-Serif" font-size="10.00">+ reset()</text>
<text text-anchor="start" x="369" y="-372.5" font-family="Helvetica,sans-Serif" font-size="10.00">+ read()</text>
<text text-anchor="start" x="369" y="-361.5" font-family="Helvetica,sans-Serif" font-size="10.00">+ read_ms()</text>
<text text-anchor="start" x="369" y="-350.5" font-family="Helvetica,sans-Serif" font-size="10.00">+ operator float()</text>
<text text-anchor="start" x="369" y="-339.5" font-family="Helvetica,sans-Serif" font-size="10.00"># getMillis()</text>
</a>
</g>
</g>
<!-- Node13&#45;&gt;Node12 -->
<g id="edge14" class="edge"><title>Node13&#45;&gt;Node12</title>
<path fill="none" stroke="midnightblue" d="M404.876,-322.03C404.471,-291 405.043,-257.128 406.591,-234.133"/>
<polygon fill="none" stroke="midnightblue" points="401.383,-322.485 405.05,-332.424 408.382,-322.367 401.383,-322.485"/>
</g>
<!-- Node13&#45;&gt;Node12 -->
<g id="edge16" class="edge"><title>Node13&#45;&gt;Node12</title>
<path fill="none" stroke="midnightblue" d="M418.124,-322.03C418.529,-291 417.957,-257.128 416.409,-234.133"/>
<polygon fill="none" stroke="midnightblue" points="414.618,-322.367 417.95,-332.424 421.617,-322.485 414.618,-322.367"/>
</g>
<!-- Node14 -->
<g id="node14" class="node"><title>Node14</title>
<g id="a_node14"><a xlink:href="class_non_copyable.html" target="_top" xlink:title="{NonCopyable\&lt; ITimer \&gt;\n||+ NonCopyable()\l}">
<polygon fill="white" stroke="black" points="345.5,-580.5 345.5,-637.5 477.5,-637.5 477.5,-580.5 345.5,-580.5"/>
<text text-anchor="middle" x="411.5" y="-625.5" font-family="Helvetica,sans-Serif" font-size="10.00">NonCopyable&lt; ITimer &gt;</text>
<polyline fill="none" stroke="black" points="345.5,-618.5 477.5,-618.5 "/>
<text text-anchor="middle" x="411.5" y="-606.5" font-family="Helvetica,sans-Serif" font-size="10.00"> </text>
<polyline fill="none" stroke="black" points="345.5,-599.5 477.5,-599.5 "/>
<text text-anchor="start" x="353.5" y="-587.5" font-family="Helvetica,sans-Serif" font-size="10.00">+ NonCopyable()</text>
</a>
</g>
</g>
<!-- Node14&#45;&gt;Node13 -->
<g id="edge15" class="edge"><title>Node14&#45;&gt;Node13</title>
<path fill="none" stroke="#8b1a1a" d="M411.5,-570.371C411.5,-541.498 411.5,-500.912 411.5,-466.651"/>
<polygon fill="none" stroke="#8b1a1a" points="408,-570.446 411.5,-580.446 415,-570.446 408,-570.446"/>
</g>
</g>
</svg>
