<?xml version="1.0" encoding="UTF-8" standalone="no"?>
<!DOCTYPE svg PUBLIC "-//W3C//DTD SVG 1.1//EN"
 "http://www.w3.org/Graphics/SVG/1.1/DTD/svg11.dtd">
<!-- Generated by graphviz version 2.38.0 (20140413.2041)
 -->
<!-- Title: car/hardwareTest/arduino/tigerLogo.h Pages: 1 -->
<svg width="304pt" height="106pt"
 viewBox="0.00 0.00 304.00 106.00" xmlns="http://www.w3.org/2000/svg" xmlns:xlink="http://www.w3.org/1999/xlink">
<g id="graph0" class="graph" transform="scale(1 1) rotate(0) translate(4 102)">
<title>car/hardwareTest/arduino/tigerLogo.h</title>
<polygon fill="white" stroke="none" points="-4,4 -4,-102 300,-102 300,4 -4,4"/>
<!-- Node1 -->
<g id="node1" class="node"><title>Node1</title>
<polygon fill="#bfbfbf" stroke="black" points="78,-67.5 78,-97.5 215,-97.5 215,-67.5 78,-67.5"/>
<text text-anchor="start" x="86" y="-85.5" font-family="Helvetica,sans-Serif" font-size="10.00">car/hardwareTest/arduino</text>
<text text-anchor="middle" x="146.5" y="-74.5" font-family="Helvetica,sans-Serif" font-size="10.00">/tigerLogo.h</text>
</g>
<!-- Node2 -->
<g id="node2" class="node"><title>Node2</title>
<g id="a_node2"><a xlink:href="_display_logo_test_8h.html" target="_top" xlink:title="car/hardwareTest/arduino\l/DisplayLogoTest.h">
<polygon fill="white" stroke="black" points="0,-0.5 0,-30.5 137,-30.5 137,-0.5 0,-0.5"/>
<text text-anchor="start" x="8" y="-18.5" font-family="Helvetica,sans-Serif" font-size="10.00">car/hardwareTest/arduino</text>
<text text-anchor="middle" x="68.5" y="-7.5" font-family="Helvetica,sans-Serif" font-size="10.00">/DisplayLogoTest.h</text>
</a>
</g>
</g>
<!-- Node1&#45;&gt;Node2 -->
<g id="edge1" class="edge"><title>Node1&#45;&gt;Node2</title>
<path fill="none" stroke="midnightblue" d="M121.76,-60.8832C109.907,-51.0054 96.0152,-39.4293 85.3918,-30.5765"/>
<polygon fill="midnightblue" stroke="midnightblue" points="119.652,-63.6829 129.575,-67.396 124.134,-58.3053 119.652,-63.6829"/>
</g>
<!-- Node3 -->
<g id="node3" class="node"><title>Node3</title>
<g id="a_node3"><a xlink:href="_touch_display_calibration_8h.html" target="_top" xlink:title="car/hardwareTest/arduino\l/TouchDisplayCalibration.h">
<polygon fill="white" stroke="black" points="155,-0.5 155,-30.5 296,-30.5 296,-0.5 155,-0.5"/>
<text text-anchor="start" x="163" y="-18.5" font-family="Helvetica,sans-Serif" font-size="10.00">car/hardwareTest/arduino</text>
<text text-anchor="middle" x="225.5" y="-7.5" font-family="Helvetica,sans-Serif" font-size="10.00">/TouchDisplayCalibration.h</text>
</a>
</g>
</g>
<!-- Node1&#45;&gt;Node3 -->
<g id="edge2" class="edge"><title>Node1&#45;&gt;Node3</title>
<path fill="none" stroke="midnightblue" d="M171.557,-60.8832C183.563,-51.0054 197.632,-39.4293 208.392,-30.5765"/>
<polygon fill="midnightblue" stroke="midnightblue" points="169.14,-58.3395 163.642,-67.396 173.588,-63.745 169.14,-58.3395"/>
</g>
</g>
</svg>
